M48
;GenerationSoftware,Autodesk,EAGLE,9.6.2*%
;CreationDate,2021-06-25T17:56:11Z*%
FMAT,2
ICI,OFF
METRIC,TZ,000.000
T4C0.300
T3C0.400
T2C0.650
T1C1.016
%
G90
M71
T1
X70608Y10070
X42380Y111191
X16100Y111721
X16100Y114261
X66508Y111191
X63968Y111191
X61428Y111191
X58888Y111191
X104508Y111191
X101968Y111191
X99428Y111191
X96888Y111191
X70608Y111721
X70608Y114261
X12000Y137241
X9460Y137241
X6920Y137241
X4380Y137241
X50000Y137241
X47460Y137241
X44920Y137241
X42380Y137241
X16100Y137771
X16100Y140311
X66508Y137241
X63968Y137241
X61428Y137241
X58888Y137241
X70608Y62165
X104508Y137241
X101968Y137241
X99428Y137241
X96888Y137241
X12000Y7000
X9460Y7000
X6920Y7000
X4380Y7000
X50000Y7000
X47460Y7000
X44920Y7000
X42380Y7000
X16100Y7530
X16100Y10070
X70608Y137771
X12000Y163289
X9460Y163289
X6920Y163289
X66508Y7000
X63968Y7000
X61428Y7000
X58888Y7000
X104508Y7000
X101968Y7000
X99428Y7000
X96888Y7000
X70608Y7530
X4380Y163289
X50000Y163289
X47460Y163289
X44920Y163289
X42380Y163289
X12000Y33048
X9460Y33048
X6920Y33048
X4380Y33048
X50000Y33048
X47460Y33048
X44920Y33048
X42380Y33048
X16100Y33578
X16100Y36118
X16100Y163819
X16100Y166359
X66508Y163289
X63968Y163289
X66508Y33048
X63968Y33048
X61428Y33048
X58888Y33048
X104508Y33048
X101968Y33048
X99428Y33048
X96888Y33048
X70608Y33578
X70608Y36118
X61428Y163289
X58888Y163289
X104508Y163289
X70608Y166359
X12000Y59095
X9460Y59095
X6920Y59095
X4380Y59095
X50000Y59095
X47460Y59095
X44920Y59095
X42380Y59095
X16100Y59625
X16100Y62165
X101968Y163289
X99428Y163289
X96888Y163289
X70608Y163819
X66508Y59095
X63968Y59095
X61428Y59095
X58888Y59095
X104508Y59095
X101968Y59095
X99428Y59095
X96888Y59095
X70608Y59625
X70608Y140311
X12000Y85143
X9460Y85143
X6920Y85143
X4380Y85143
X50000Y85143
X47460Y85143
X44920Y85143
X42380Y85143
X16100Y85673
X16100Y88213
X66508Y85143
X63968Y85143
X61428Y85143
X58888Y85143
X104508Y85143
X101968Y85143
X99428Y85143
X96888Y85143
X70608Y85673
X70608Y88213
X12000Y111191
X9460Y111191
X6920Y111191
X4380Y111191
X50000Y111191
X47460Y111191
X44920Y111191
T2
X78398Y108746
X18110Y4555
X23890Y4555
X72618Y4555
X78398Y4555
X18110Y30603
X23890Y30603
X72618Y30603
X78398Y30603
X18110Y56650
X23890Y56650
X72618Y56650
X78398Y56650
X18110Y82698
X23890Y82698
X72618Y82698
X78398Y82698
X18110Y108746
X23890Y108746
X72618Y108746
X18110Y134796
X23890Y134796
X72618Y134796
X78398Y134796
X18110Y160844
X23890Y160844
X72618Y160844
X78398Y160844
T3
X25318Y905
X25318Y5085
X16682Y5085
X71190Y905
X79826Y905
X79826Y5085
X71190Y5085
X16682Y57180
X16682Y26953
X25318Y26953
X25318Y31133
X16682Y31133
X71190Y26953
X79826Y26953
X79826Y31133
X71190Y31133
X16682Y53000
X25318Y53000
X25318Y57180
X71190Y53000
X79826Y53000
X79826Y57180
X71190Y57180
X16682Y131146
X25318Y131146
X25318Y135326
X16682Y135326
X16682Y905
X16682Y157194
X25318Y157194
X25318Y161374
X16682Y161374
X16682Y105096
X25318Y105096
X71190Y105096
X79826Y109276
X71190Y109276
X25318Y109276
X16682Y109276
X16682Y79048
X25318Y79048
X71190Y79048
X71190Y157194
X79826Y157194
X79826Y161374
X71190Y161374
X71190Y131146
X79826Y131146
X79826Y135326
X71190Y135326
X79826Y79048
X79826Y83228
X71190Y83228
X25318Y83228
X16682Y83228
X79826Y105096
T4
X99308Y118291
X58508Y119191
X91353Y118424
X75008Y118391
X92068Y116891
X75603Y116704
X32500Y137241
X36000Y137241
X21000Y139741
X35000Y139241
X33500Y139241
X21700Y143641
X36600Y143641
X37800Y148241
X6900Y148341
X37300Y147241
X9600Y147241
X33156Y141674
X47300Y141641
X33500Y140841
X45000Y140841
X18600Y137741
X23500Y137741
X44800Y144341
X4000Y145241
X36845Y144474
X20500Y144441
X37560Y142941
X21095Y142754
X87008Y137241
X90508Y137241
X75508Y139741
X89508Y139241
X88008Y139241
X76208Y143641
X91108Y143641
X92308Y148241
X61408Y148341
X91808Y147241
X64108Y147241
X87664Y141674
X101808Y141641
X88008Y140841
X99508Y140841
X73108Y137741
X78008Y137741
X99308Y144341
X58508Y145241
X91353Y144474
X21095Y38561
X92068Y142941
X75603Y142754
X32500Y163289
X36000Y163289
X21000Y165789
X35000Y165289
X33500Y165289
X21700Y169689
X36600Y169689
X37800Y174289
X6900Y174389
X37300Y173289
X9600Y173289
X33156Y167722
X47300Y167689
X33500Y166889
X45000Y166889
X18600Y163789
X23500Y163789
X44800Y170389
X4000Y171289
X36845Y170522
X20500Y170489
X37560Y168989
X21095Y168802
X87008Y163289
X90508Y163289
X75508Y165789
X89508Y165289
X88008Y165289
X76208Y169689
X91108Y169689
X92308Y174289
X61408Y174389
X91808Y173289
X64108Y173289
X87664Y167722
X101808Y167689
X88008Y166889
X99508Y166889
X73108Y163789
X78008Y163789
X99308Y170389
X58508Y171289
X91353Y170522
X75008Y170489
X92068Y168989
X75603Y168802
X32500Y7000
X36000Y7000
X21000Y9500
X35000Y9000
X33500Y9000
X21700Y13400
X36600Y13400
X37800Y18000
X6900Y18100
X37300Y17000
X9600Y17000
X33156Y11433
X47300Y11400
X33500Y10600
X45000Y10600
X18600Y7500
X23500Y7500
X44800Y14100
X4000Y15000
X75008Y144441
X36845Y14233
X20500Y14200
X37560Y12700
X21095Y12513
X87008Y7000
X90508Y7000
X75508Y9500
X89508Y9000
X88008Y9000
X76208Y13400
X91108Y13400
X92308Y18000
X61408Y18100
X91808Y17000
X64108Y17000
X87664Y11433
X101808Y11400
X88008Y10600
X99508Y10600
X73108Y7500
X78008Y7500
X99308Y14100
X58508Y15000
X91353Y14233
X75008Y14200
X92068Y12700
X75603Y12513
X32500Y33048
X36000Y33048
X21000Y35548
X35000Y35048
X33500Y35048
X21700Y39448
X36600Y39448
X37800Y44048
X6900Y44148
X37300Y43048
X9600Y43048
X33156Y37481
X47300Y37448
X33500Y36648
X45000Y36648
X18600Y33548
X23500Y33548
X44800Y40148
X4000Y41048
X36845Y40281
X20500Y40248
X37560Y38748
X87008Y33048
X90508Y33048
X75508Y35548
X89508Y35048
X88008Y35048
X76208Y39448
X91108Y39448
X92308Y44048
X61408Y44148
X91808Y43048
X64108Y43048
X87664Y37481
X101808Y37448
X88008Y36648
X99508Y36648
X73108Y33548
X78008Y33548
X99308Y40148
X58508Y41048
X91353Y40281
X75008Y40248
X92068Y38748
X75603Y38561
X32500Y59095
X36000Y59095
X21000Y61595
X35000Y61095
X33500Y61095
X21700Y65495
X36600Y65495
X37800Y70095
X6900Y70195
X37300Y69095
X9600Y69095
X33156Y63529
X47300Y63495
X33500Y62695
X45000Y62695
X18600Y59595
X23500Y59595
X44800Y66195
X4000Y67095
X36845Y66329
X20500Y66295
X37560Y64795
X21095Y64609
X87008Y59095
X90508Y59095
X75508Y61595
X89508Y61095
X88008Y61095
X76208Y65495
X91108Y65495
X92308Y70095
X61408Y70195
X91808Y69095
X64108Y69095
X87664Y63529
X101808Y63495
X88008Y62695
X99508Y62695
X73108Y59595
X78008Y59595
X99308Y66195
X58508Y67095
X91353Y66329
X75008Y66295
X92068Y64795
X75603Y64609
X32500Y85143
X36000Y85143
X21000Y87643
X35000Y87143
X33500Y87143
X21700Y91543
X36600Y91543
X37800Y96143
X6900Y96243
X37300Y95143
X9600Y95143
X33156Y89576
X47300Y89543
X33500Y88743
X45000Y88743
X18600Y85643
X23500Y85643
X37560Y116891
X44800Y92243
X4000Y93143
X36845Y92376
X20500Y92343
X37560Y90843
X21095Y90656
X87008Y85143
X90508Y85143
X75508Y87643
X89508Y87143
X88008Y87143
X76208Y91543
X91108Y91543
X92308Y96143
X61408Y96243
X91808Y95143
X64108Y95143
X87664Y89576
X101808Y89543
X88008Y88743
X99508Y88743
X73108Y85643
X78008Y85643
X99308Y92243
X58508Y93143
X91353Y92376
X75008Y92343
X92068Y90843
X75603Y90656
X32500Y111191
X36000Y111191
X21000Y113691
X35000Y113191
X33500Y113191
X21700Y117591
X36600Y117591
X37800Y122191
X6900Y122291
X37300Y121191
X9600Y121191
X33156Y115624
X47300Y115591
X33500Y114791
X45000Y114791
X18600Y111691
X23500Y111691
X44800Y118291
X4000Y119191
X36845Y118424
X20500Y118391
X21095Y116704
X87008Y111191
X90508Y111191
X75508Y113691
X89508Y113191
X88008Y113191
X76208Y117591
X91108Y117591
X92308Y122191
X61408Y122291
X91808Y121191
X64108Y121191
X87664Y115624
X101808Y115591
X88008Y114791
X99508Y114791
X73108Y111691
X78008Y111691
M30