G04 EAGLE Gerber RS-274X export*
G75*
%MOMM*%
%FSLAX34Y34*%
%LPD*%
%INSoldermask Bottom*%
%IPPOS*%
%AMOC8*
5,1,8,0,0,1.08239X$1,22.5*%
G01*
%ADD10C,0.838200*%
%ADD11C,0.853200*%
%ADD12C,2.082800*%
%ADD13C,1.203200*%
%ADD14C,1.270000*%
%ADD15C,1.703200*%


D10*
X520000Y10000D03*
X10000Y190000D03*
D11*
X176100Y45550D03*
X233900Y45550D03*
D12*
X115000Y70000D03*
X89600Y70000D03*
X64200Y70000D03*
X38800Y70000D03*
X495000Y70000D03*
X469600Y70000D03*
X444200Y70000D03*
X418800Y70000D03*
X156000Y75300D03*
X156000Y100700D03*
D10*
X1055076Y10000D03*
X545076Y190000D03*
D11*
X711176Y45550D03*
X768976Y45550D03*
D12*
X650076Y70000D03*
X624676Y70000D03*
X599276Y70000D03*
X573876Y70000D03*
X1030076Y70000D03*
X1004676Y70000D03*
X979276Y70000D03*
X953876Y70000D03*
X691076Y75300D03*
X691076Y100700D03*
D10*
X520000Y270477D03*
X10000Y450477D03*
D11*
X176100Y306027D03*
X233900Y306027D03*
D12*
X115000Y330477D03*
X89600Y330477D03*
X64200Y330477D03*
X38800Y330477D03*
X495000Y330477D03*
X469600Y330477D03*
X444200Y330477D03*
X418800Y330477D03*
X156000Y335777D03*
X156000Y361177D03*
D10*
X1055076Y270477D03*
X545076Y450477D03*
D11*
X711176Y306027D03*
X768976Y306027D03*
D12*
X650076Y330477D03*
X624676Y330477D03*
X599276Y330477D03*
X573876Y330477D03*
X1030076Y330477D03*
X1004676Y330477D03*
X979276Y330477D03*
X953876Y330477D03*
X691076Y335777D03*
X691076Y361177D03*
D10*
X520000Y530954D03*
X10000Y710954D03*
D11*
X176100Y566504D03*
X233900Y566504D03*
D12*
X115000Y590954D03*
X89600Y590954D03*
X64200Y590954D03*
X38800Y590954D03*
X495000Y590954D03*
X469600Y590954D03*
X444200Y590954D03*
X418800Y590954D03*
X156000Y596254D03*
X156000Y621654D03*
D10*
X1055076Y530954D03*
X545076Y710954D03*
D11*
X711176Y566504D03*
X768976Y566504D03*
D12*
X650076Y590954D03*
X624676Y590954D03*
X599276Y590954D03*
X573876Y590954D03*
X1030076Y590954D03*
X1004676Y590954D03*
X979276Y590954D03*
X953876Y590954D03*
X691076Y596254D03*
X691076Y621654D03*
D10*
X520000Y791431D03*
X10000Y971431D03*
D11*
X176100Y826981D03*
X233900Y826981D03*
D12*
X115000Y851431D03*
X89600Y851431D03*
X64200Y851431D03*
X38800Y851431D03*
X495000Y851431D03*
X469600Y851431D03*
X444200Y851431D03*
X418800Y851431D03*
X156000Y856731D03*
X156000Y882131D03*
D10*
X1055076Y791431D03*
X545076Y971431D03*
D11*
X711176Y826981D03*
X768976Y826981D03*
D12*
X650076Y851431D03*
X624676Y851431D03*
X599276Y851431D03*
X573876Y851431D03*
X1030076Y851431D03*
X1004676Y851431D03*
X979276Y851431D03*
X953876Y851431D03*
X691076Y856731D03*
X691076Y882131D03*
D10*
X520000Y1051908D03*
X10000Y1231908D03*
D11*
X176100Y1087458D03*
X233900Y1087458D03*
D12*
X115000Y1111908D03*
X89600Y1111908D03*
X64200Y1111908D03*
X38800Y1111908D03*
X495000Y1111908D03*
X469600Y1111908D03*
X444200Y1111908D03*
X418800Y1111908D03*
X156000Y1117208D03*
X156000Y1142608D03*
D10*
X1055076Y1051908D03*
X545076Y1231908D03*
D11*
X711176Y1087458D03*
X768976Y1087458D03*
D12*
X650076Y1111908D03*
X624676Y1111908D03*
X599276Y1111908D03*
X573876Y1111908D03*
X1030076Y1111908D03*
X1004676Y1111908D03*
X979276Y1111908D03*
X953876Y1111908D03*
X691076Y1117208D03*
X691076Y1142608D03*
D10*
X520000Y1312410D03*
X10000Y1492410D03*
D11*
X176100Y1347960D03*
X233900Y1347960D03*
D12*
X115000Y1372410D03*
X89600Y1372410D03*
X64200Y1372410D03*
X38800Y1372410D03*
X495000Y1372410D03*
X469600Y1372410D03*
X444200Y1372410D03*
X418800Y1372410D03*
X156000Y1377710D03*
X156000Y1403110D03*
D10*
X1055076Y1312410D03*
X545076Y1492410D03*
D11*
X711176Y1347960D03*
X768976Y1347960D03*
D12*
X650076Y1372410D03*
X624676Y1372410D03*
X599276Y1372410D03*
X573876Y1372410D03*
X1030076Y1372410D03*
X1004676Y1372410D03*
X979276Y1372410D03*
X953876Y1372410D03*
X691076Y1377710D03*
X691076Y1403110D03*
D10*
X520000Y1572887D03*
X10000Y1752887D03*
D11*
X176100Y1608437D03*
X233900Y1608437D03*
D12*
X115000Y1632887D03*
X89600Y1632887D03*
X64200Y1632887D03*
X38800Y1632887D03*
X495000Y1632887D03*
X469600Y1632887D03*
X444200Y1632887D03*
X418800Y1632887D03*
X156000Y1638187D03*
X156000Y1663587D03*
D10*
X1055076Y1572887D03*
X545076Y1752887D03*
D11*
X711176Y1608437D03*
X768976Y1608437D03*
D12*
X650076Y1632887D03*
X624676Y1632887D03*
X599276Y1632887D03*
X573876Y1632887D03*
X1030076Y1632887D03*
X1004676Y1632887D03*
X979276Y1632887D03*
X953876Y1632887D03*
X691076Y1638187D03*
X691076Y1663587D03*
D13*
X-26238Y1791614D03*
X1091336Y1791614D03*
D14*
X-35293Y63500D02*
X-35290Y63722D01*
X-35282Y63944D01*
X-35268Y64166D01*
X-35249Y64388D01*
X-35225Y64608D01*
X-35195Y64829D01*
X-35160Y65048D01*
X-35119Y65267D01*
X-35073Y65484D01*
X-35022Y65700D01*
X-34965Y65915D01*
X-34903Y66129D01*
X-34836Y66340D01*
X-34764Y66551D01*
X-34686Y66759D01*
X-34604Y66965D01*
X-34516Y67169D01*
X-34424Y67372D01*
X-34326Y67571D01*
X-34224Y67768D01*
X-34117Y67963D01*
X-34005Y68155D01*
X-33888Y68344D01*
X-33767Y68531D01*
X-33641Y68714D01*
X-33511Y68894D01*
X-33376Y69071D01*
X-33238Y69244D01*
X-33095Y69414D01*
X-32947Y69581D01*
X-32796Y69744D01*
X-32641Y69903D01*
X-32482Y70058D01*
X-32319Y70209D01*
X-32152Y70357D01*
X-31982Y70500D01*
X-31809Y70638D01*
X-31632Y70773D01*
X-31452Y70903D01*
X-31269Y71029D01*
X-31082Y71150D01*
X-30893Y71267D01*
X-30701Y71379D01*
X-30506Y71486D01*
X-30309Y71588D01*
X-30110Y71686D01*
X-29907Y71778D01*
X-29703Y71866D01*
X-29497Y71948D01*
X-29289Y72026D01*
X-29078Y72098D01*
X-28867Y72165D01*
X-28653Y72227D01*
X-28438Y72284D01*
X-28222Y72335D01*
X-28005Y72381D01*
X-27786Y72422D01*
X-27567Y72457D01*
X-27346Y72487D01*
X-27126Y72511D01*
X-26904Y72530D01*
X-26682Y72544D01*
X-26460Y72552D01*
X-26238Y72555D01*
X-26016Y72552D01*
X-25794Y72544D01*
X-25572Y72530D01*
X-25350Y72511D01*
X-25130Y72487D01*
X-24909Y72457D01*
X-24690Y72422D01*
X-24471Y72381D01*
X-24254Y72335D01*
X-24038Y72284D01*
X-23823Y72227D01*
X-23609Y72165D01*
X-23398Y72098D01*
X-23187Y72026D01*
X-22979Y71948D01*
X-22773Y71866D01*
X-22569Y71778D01*
X-22366Y71686D01*
X-22167Y71588D01*
X-21970Y71486D01*
X-21775Y71379D01*
X-21583Y71267D01*
X-21394Y71150D01*
X-21207Y71029D01*
X-21024Y70903D01*
X-20844Y70773D01*
X-20667Y70638D01*
X-20494Y70500D01*
X-20324Y70357D01*
X-20157Y70209D01*
X-19994Y70058D01*
X-19835Y69903D01*
X-19680Y69744D01*
X-19529Y69581D01*
X-19381Y69414D01*
X-19238Y69244D01*
X-19100Y69071D01*
X-18965Y68894D01*
X-18835Y68714D01*
X-18709Y68531D01*
X-18588Y68344D01*
X-18471Y68155D01*
X-18359Y67963D01*
X-18252Y67768D01*
X-18150Y67571D01*
X-18052Y67372D01*
X-17960Y67169D01*
X-17872Y66965D01*
X-17790Y66759D01*
X-17712Y66551D01*
X-17640Y66340D01*
X-17573Y66129D01*
X-17511Y65915D01*
X-17454Y65700D01*
X-17403Y65484D01*
X-17357Y65267D01*
X-17316Y65048D01*
X-17281Y64829D01*
X-17251Y64608D01*
X-17227Y64388D01*
X-17208Y64166D01*
X-17194Y63944D01*
X-17186Y63722D01*
X-17183Y63500D01*
X-17186Y63278D01*
X-17194Y63056D01*
X-17208Y62834D01*
X-17227Y62612D01*
X-17251Y62392D01*
X-17281Y62171D01*
X-17316Y61952D01*
X-17357Y61733D01*
X-17403Y61516D01*
X-17454Y61300D01*
X-17511Y61085D01*
X-17573Y60871D01*
X-17640Y60660D01*
X-17712Y60449D01*
X-17790Y60241D01*
X-17872Y60035D01*
X-17960Y59831D01*
X-18052Y59628D01*
X-18150Y59429D01*
X-18252Y59232D01*
X-18359Y59037D01*
X-18471Y58845D01*
X-18588Y58656D01*
X-18709Y58469D01*
X-18835Y58286D01*
X-18965Y58106D01*
X-19100Y57929D01*
X-19238Y57756D01*
X-19381Y57586D01*
X-19529Y57419D01*
X-19680Y57256D01*
X-19835Y57097D01*
X-19994Y56942D01*
X-20157Y56791D01*
X-20324Y56643D01*
X-20494Y56500D01*
X-20667Y56362D01*
X-20844Y56227D01*
X-21024Y56097D01*
X-21207Y55971D01*
X-21394Y55850D01*
X-21583Y55733D01*
X-21775Y55621D01*
X-21970Y55514D01*
X-22167Y55412D01*
X-22366Y55314D01*
X-22569Y55222D01*
X-22773Y55134D01*
X-22979Y55052D01*
X-23187Y54974D01*
X-23398Y54902D01*
X-23609Y54835D01*
X-23823Y54773D01*
X-24038Y54716D01*
X-24254Y54665D01*
X-24471Y54619D01*
X-24690Y54578D01*
X-24909Y54543D01*
X-25130Y54513D01*
X-25350Y54489D01*
X-25572Y54470D01*
X-25794Y54456D01*
X-26016Y54448D01*
X-26238Y54445D01*
X-26460Y54448D01*
X-26682Y54456D01*
X-26904Y54470D01*
X-27126Y54489D01*
X-27346Y54513D01*
X-27567Y54543D01*
X-27786Y54578D01*
X-28005Y54619D01*
X-28222Y54665D01*
X-28438Y54716D01*
X-28653Y54773D01*
X-28867Y54835D01*
X-29078Y54902D01*
X-29289Y54974D01*
X-29497Y55052D01*
X-29703Y55134D01*
X-29907Y55222D01*
X-30110Y55314D01*
X-30309Y55412D01*
X-30506Y55514D01*
X-30701Y55621D01*
X-30893Y55733D01*
X-31082Y55850D01*
X-31269Y55971D01*
X-31452Y56097D01*
X-31632Y56227D01*
X-31809Y56362D01*
X-31982Y56500D01*
X-32152Y56643D01*
X-32319Y56791D01*
X-32482Y56942D01*
X-32641Y57097D01*
X-32796Y57256D01*
X-32947Y57419D01*
X-33095Y57586D01*
X-33238Y57756D01*
X-33376Y57929D01*
X-33511Y58106D01*
X-33641Y58286D01*
X-33767Y58469D01*
X-33888Y58656D01*
X-34005Y58845D01*
X-34117Y59037D01*
X-34224Y59232D01*
X-34326Y59429D01*
X-34424Y59628D01*
X-34516Y59831D01*
X-34604Y60035D01*
X-34686Y60241D01*
X-34764Y60449D01*
X-34836Y60660D01*
X-34903Y60871D01*
X-34965Y61085D01*
X-35022Y61300D01*
X-35073Y61516D01*
X-35119Y61733D01*
X-35160Y61952D01*
X-35195Y62171D01*
X-35225Y62392D01*
X-35249Y62612D01*
X-35268Y62834D01*
X-35282Y63056D01*
X-35290Y63278D01*
X-35293Y63500D01*
D15*
X-26238Y63500D03*
M02*
