G04 EAGLE Gerber RS-274X export*
G75*
%MOMM*%
%FSLAX34Y34*%
%LPD*%
%INSolderpaste Top*%
%IPPOS*%
%AMOC8*
5,1,8,0,0,1.08239X$1,22.5*%
G01*
%ADD10R,1.200000X2.000000*%
%ADD11R,0.600000X1.350000*%
%ADD12R,1.000000X1.100000*%
%ADD13R,0.300000X1.000000*%
%ADD14R,0.600000X1.000000*%
%ADD15R,0.250000X0.610000*%
%ADD16R,0.250000X0.560000*%
%ADD17R,0.600000X1.700000*%
%ADD18R,1.000000X2.700000*%
%ADD19R,1.200000X0.800000*%
%ADD20R,1.000000X2.800000*%
%ADD21R,0.400000X0.800000*%
%ADD22R,0.250000X0.650000*%

G36*
X248000Y1603338D02*
X248000Y1603338D01*
X248001Y1603338D01*
X249069Y1603357D01*
X249076Y1603362D01*
X249080Y1603359D01*
X250117Y1603615D01*
X250122Y1603621D01*
X250128Y1603619D01*
X251082Y1604099D01*
X251086Y1604106D01*
X251091Y1604105D01*
X251915Y1604786D01*
X251916Y1604794D01*
X251922Y1604794D01*
X252573Y1605641D01*
X252573Y1605649D01*
X252579Y1605650D01*
X253026Y1606621D01*
X253024Y1606629D01*
X253029Y1606632D01*
X253248Y1607677D01*
X253245Y1607684D01*
X253249Y1607687D01*
X253249Y1619687D01*
X253246Y1619692D01*
X253249Y1619695D01*
X253069Y1620791D01*
X253063Y1620796D01*
X253066Y1620801D01*
X252647Y1621829D01*
X252640Y1621833D01*
X252642Y1621839D01*
X252005Y1622747D01*
X251997Y1622750D01*
X251997Y1622756D01*
X251174Y1623500D01*
X251166Y1623501D01*
X251165Y1623506D01*
X250197Y1624049D01*
X250188Y1624048D01*
X250186Y1624053D01*
X249122Y1624366D01*
X249117Y1624364D01*
X249113Y1624364D01*
X249111Y1624368D01*
X248003Y1624437D01*
X247997Y1624432D01*
X247993Y1624436D01*
X246885Y1624266D01*
X246879Y1624260D01*
X246874Y1624263D01*
X245832Y1623851D01*
X245828Y1623844D01*
X245823Y1623846D01*
X244898Y1623213D01*
X244896Y1623205D01*
X244890Y1623205D01*
X244130Y1622382D01*
X244129Y1622374D01*
X244123Y1622373D01*
X243566Y1621401D01*
X243567Y1621393D01*
X243561Y1621391D01*
X243234Y1620319D01*
X243237Y1620312D01*
X243232Y1620309D01*
X243151Y1619191D01*
X243152Y1619189D01*
X243151Y1619187D01*
X243151Y1607187D01*
X243156Y1607181D01*
X243152Y1607176D01*
X243371Y1606232D01*
X243377Y1606227D01*
X243375Y1606222D01*
X243799Y1605350D01*
X243806Y1605346D01*
X243804Y1605340D01*
X244411Y1604585D01*
X244419Y1604583D01*
X244419Y1604577D01*
X245179Y1603975D01*
X245188Y1603975D01*
X245189Y1603969D01*
X246064Y1603552D01*
X246072Y1603554D01*
X246074Y1603548D01*
X247020Y1603336D01*
X247027Y1603339D01*
X247031Y1603335D01*
X248000Y1603338D01*
G37*
G36*
X783077Y1603338D02*
X783077Y1603338D01*
X784146Y1603357D01*
X784152Y1603362D01*
X784156Y1603359D01*
X785194Y1603615D01*
X785199Y1603621D01*
X785204Y1603619D01*
X786158Y1604099D01*
X786162Y1604106D01*
X786168Y1604105D01*
X786991Y1604786D01*
X786993Y1604794D01*
X786999Y1604794D01*
X787650Y1605641D01*
X787650Y1605649D01*
X787656Y1605650D01*
X788102Y1606621D01*
X788100Y1606629D01*
X788105Y1606632D01*
X788325Y1607677D01*
X788321Y1607684D01*
X788326Y1607687D01*
X788326Y1619687D01*
X788322Y1619692D01*
X788325Y1619695D01*
X788145Y1620791D01*
X788139Y1620796D01*
X788142Y1620801D01*
X787723Y1621829D01*
X787716Y1621833D01*
X787718Y1621839D01*
X787081Y1622747D01*
X787073Y1622750D01*
X787074Y1622756D01*
X786250Y1623500D01*
X786242Y1623501D01*
X786241Y1623506D01*
X785273Y1624049D01*
X785265Y1624048D01*
X785263Y1624053D01*
X784198Y1624366D01*
X784194Y1624364D01*
X784190Y1624364D01*
X784187Y1624368D01*
X783079Y1624437D01*
X783073Y1624432D01*
X783069Y1624436D01*
X781961Y1624266D01*
X781956Y1624260D01*
X781951Y1624263D01*
X780909Y1623851D01*
X780904Y1623844D01*
X780899Y1623846D01*
X779975Y1623213D01*
X779972Y1623205D01*
X779966Y1623205D01*
X779206Y1622382D01*
X779206Y1622374D01*
X779200Y1622373D01*
X778642Y1621401D01*
X778643Y1621393D01*
X778638Y1621391D01*
X778310Y1620319D01*
X778313Y1620312D01*
X778308Y1620309D01*
X778227Y1619191D01*
X778229Y1619189D01*
X778227Y1619187D01*
X778227Y1607187D01*
X778232Y1607181D01*
X778228Y1607176D01*
X778448Y1606232D01*
X778454Y1606227D01*
X778451Y1606222D01*
X778875Y1605350D01*
X778882Y1605346D01*
X778881Y1605340D01*
X779488Y1604585D01*
X779496Y1604583D01*
X779496Y1604577D01*
X780256Y1603975D01*
X780264Y1603975D01*
X780265Y1603969D01*
X781140Y1603552D01*
X781148Y1603554D01*
X781150Y1603548D01*
X782096Y1603336D01*
X782104Y1603339D01*
X782107Y1603335D01*
X783077Y1603338D01*
G37*
G36*
X783077Y40451D02*
X783077Y40451D01*
X784146Y40470D01*
X784152Y40475D01*
X784156Y40471D01*
X785194Y40727D01*
X785199Y40734D01*
X785204Y40731D01*
X786158Y41212D01*
X786162Y41219D01*
X786168Y41218D01*
X786991Y41899D01*
X786993Y41907D01*
X786999Y41907D01*
X787650Y42754D01*
X787650Y42762D01*
X787656Y42763D01*
X788102Y43734D01*
X788100Y43742D01*
X788105Y43744D01*
X788325Y44790D01*
X788321Y44797D01*
X788326Y44800D01*
X788326Y56800D01*
X788322Y56805D01*
X788325Y56808D01*
X788145Y57903D01*
X788139Y57909D01*
X788142Y57914D01*
X787723Y58942D01*
X787716Y58946D01*
X787718Y58951D01*
X787081Y59860D01*
X787073Y59863D01*
X787074Y59868D01*
X786250Y60612D01*
X786242Y60613D01*
X786241Y60619D01*
X785273Y61161D01*
X785265Y61160D01*
X785263Y61166D01*
X784198Y61479D01*
X784194Y61477D01*
X784190Y61477D01*
X784187Y61481D01*
X783079Y61549D01*
X783073Y61545D01*
X783069Y61549D01*
X781961Y61379D01*
X781956Y61373D01*
X781951Y61376D01*
X780909Y60964D01*
X780904Y60957D01*
X780899Y60959D01*
X779975Y60325D01*
X779972Y60317D01*
X779966Y60318D01*
X779206Y59495D01*
X779206Y59486D01*
X779200Y59486D01*
X778642Y58514D01*
X778643Y58506D01*
X778638Y58504D01*
X778310Y57432D01*
X778313Y57424D01*
X778308Y57421D01*
X778227Y56304D01*
X778229Y56301D01*
X778227Y56300D01*
X778227Y44300D01*
X778232Y44293D01*
X778228Y44289D01*
X778448Y43345D01*
X778454Y43339D01*
X778451Y43334D01*
X778875Y42462D01*
X778882Y42459D01*
X778881Y42453D01*
X779488Y41697D01*
X779496Y41695D01*
X779496Y41689D01*
X780256Y41088D01*
X780264Y41088D01*
X780265Y41082D01*
X781140Y40664D01*
X781148Y40666D01*
X781150Y40661D01*
X782096Y40449D01*
X782104Y40452D01*
X782107Y40447D01*
X783077Y40451D01*
G37*
G36*
X783077Y300928D02*
X783077Y300928D01*
X784146Y300947D01*
X784152Y300952D01*
X784156Y300948D01*
X785194Y301204D01*
X785199Y301211D01*
X785204Y301208D01*
X786158Y301689D01*
X786162Y301696D01*
X786168Y301695D01*
X786991Y302376D01*
X786993Y302384D01*
X786999Y302384D01*
X787650Y303231D01*
X787650Y303239D01*
X787656Y303240D01*
X788102Y304211D01*
X788100Y304219D01*
X788105Y304221D01*
X788325Y305267D01*
X788321Y305274D01*
X788326Y305277D01*
X788326Y317277D01*
X788322Y317282D01*
X788325Y317285D01*
X788145Y318380D01*
X788139Y318386D01*
X788142Y318391D01*
X787723Y319419D01*
X787716Y319423D01*
X787718Y319428D01*
X787081Y320337D01*
X787073Y320340D01*
X787074Y320345D01*
X786250Y321089D01*
X786242Y321090D01*
X786241Y321096D01*
X785273Y321638D01*
X785265Y321637D01*
X785263Y321643D01*
X784198Y321956D01*
X784194Y321954D01*
X784190Y321954D01*
X784187Y321958D01*
X783079Y322026D01*
X783073Y322022D01*
X783069Y322026D01*
X781961Y321856D01*
X781956Y321850D01*
X781951Y321853D01*
X780909Y321441D01*
X780904Y321434D01*
X780899Y321436D01*
X779975Y320802D01*
X779972Y320794D01*
X779966Y320795D01*
X779206Y319972D01*
X779206Y319963D01*
X779200Y319963D01*
X778642Y318991D01*
X778643Y318983D01*
X778638Y318981D01*
X778310Y317909D01*
X778313Y317901D01*
X778308Y317898D01*
X778227Y316781D01*
X778229Y316778D01*
X778227Y316777D01*
X778227Y304777D01*
X778232Y304770D01*
X778228Y304766D01*
X778448Y303822D01*
X778454Y303816D01*
X778451Y303811D01*
X778875Y302939D01*
X778882Y302936D01*
X778881Y302930D01*
X779488Y302174D01*
X779496Y302172D01*
X779496Y302166D01*
X780256Y301565D01*
X780264Y301565D01*
X780265Y301559D01*
X781140Y301141D01*
X781148Y301143D01*
X781150Y301138D01*
X782096Y300926D01*
X782104Y300929D01*
X782107Y300924D01*
X783077Y300928D01*
G37*
G36*
X248000Y1342861D02*
X248000Y1342861D01*
X248001Y1342861D01*
X249069Y1342880D01*
X249076Y1342885D01*
X249080Y1342882D01*
X250117Y1343138D01*
X250122Y1343144D01*
X250128Y1343142D01*
X251082Y1343622D01*
X251086Y1343629D01*
X251091Y1343628D01*
X251915Y1344309D01*
X251916Y1344317D01*
X251922Y1344317D01*
X252573Y1345164D01*
X252573Y1345172D01*
X252579Y1345173D01*
X253026Y1346144D01*
X253024Y1346152D01*
X253029Y1346155D01*
X253248Y1347200D01*
X253245Y1347207D01*
X253249Y1347210D01*
X253249Y1359210D01*
X253246Y1359215D01*
X253249Y1359218D01*
X253069Y1360314D01*
X253063Y1360319D01*
X253066Y1360324D01*
X252647Y1361352D01*
X252640Y1361356D01*
X252642Y1361362D01*
X252005Y1362270D01*
X251997Y1362273D01*
X251997Y1362279D01*
X251174Y1363023D01*
X251166Y1363024D01*
X251165Y1363029D01*
X250197Y1363572D01*
X250188Y1363571D01*
X250186Y1363576D01*
X249122Y1363889D01*
X249117Y1363887D01*
X249113Y1363887D01*
X249111Y1363891D01*
X248003Y1363960D01*
X247997Y1363955D01*
X247993Y1363959D01*
X246885Y1363789D01*
X246879Y1363783D01*
X246874Y1363786D01*
X245832Y1363374D01*
X245828Y1363367D01*
X245823Y1363369D01*
X244898Y1362736D01*
X244896Y1362728D01*
X244890Y1362728D01*
X244130Y1361905D01*
X244129Y1361897D01*
X244123Y1361896D01*
X243566Y1360924D01*
X243567Y1360916D01*
X243561Y1360914D01*
X243234Y1359842D01*
X243237Y1359835D01*
X243232Y1359832D01*
X243151Y1358714D01*
X243152Y1358712D01*
X243151Y1358710D01*
X243151Y1346710D01*
X243156Y1346704D01*
X243152Y1346699D01*
X243371Y1345755D01*
X243377Y1345750D01*
X243375Y1345745D01*
X243799Y1344873D01*
X243806Y1344869D01*
X243804Y1344863D01*
X244411Y1344108D01*
X244419Y1344106D01*
X244419Y1344100D01*
X245179Y1343498D01*
X245188Y1343498D01*
X245189Y1343492D01*
X246064Y1343075D01*
X246072Y1343077D01*
X246074Y1343071D01*
X247020Y1342859D01*
X247027Y1342862D01*
X247031Y1342858D01*
X248000Y1342861D01*
G37*
G36*
X783077Y1342861D02*
X783077Y1342861D01*
X784146Y1342880D01*
X784152Y1342885D01*
X784156Y1342882D01*
X785194Y1343138D01*
X785199Y1343144D01*
X785204Y1343142D01*
X786158Y1343622D01*
X786162Y1343629D01*
X786168Y1343628D01*
X786991Y1344309D01*
X786993Y1344317D01*
X786999Y1344317D01*
X787650Y1345164D01*
X787650Y1345172D01*
X787656Y1345173D01*
X788102Y1346144D01*
X788100Y1346152D01*
X788105Y1346155D01*
X788325Y1347200D01*
X788321Y1347207D01*
X788326Y1347210D01*
X788326Y1359210D01*
X788322Y1359215D01*
X788325Y1359218D01*
X788145Y1360314D01*
X788139Y1360319D01*
X788142Y1360324D01*
X787723Y1361352D01*
X787716Y1361356D01*
X787718Y1361362D01*
X787081Y1362270D01*
X787073Y1362273D01*
X787074Y1362279D01*
X786250Y1363023D01*
X786242Y1363024D01*
X786241Y1363029D01*
X785273Y1363572D01*
X785265Y1363571D01*
X785263Y1363576D01*
X784198Y1363889D01*
X784194Y1363887D01*
X784190Y1363887D01*
X784187Y1363891D01*
X783079Y1363960D01*
X783073Y1363955D01*
X783069Y1363959D01*
X781961Y1363789D01*
X781956Y1363783D01*
X781951Y1363786D01*
X780909Y1363374D01*
X780904Y1363367D01*
X780899Y1363369D01*
X779975Y1362736D01*
X779972Y1362728D01*
X779966Y1362728D01*
X779206Y1361905D01*
X779206Y1361897D01*
X779200Y1361896D01*
X778642Y1360924D01*
X778643Y1360916D01*
X778638Y1360914D01*
X778310Y1359842D01*
X778313Y1359835D01*
X778308Y1359832D01*
X778227Y1358714D01*
X778229Y1358712D01*
X778227Y1358710D01*
X778227Y1346710D01*
X778232Y1346704D01*
X778228Y1346699D01*
X778448Y1345755D01*
X778454Y1345750D01*
X778451Y1345745D01*
X778875Y1344873D01*
X778882Y1344869D01*
X778881Y1344863D01*
X779488Y1344108D01*
X779496Y1344106D01*
X779496Y1344100D01*
X780256Y1343498D01*
X780264Y1343498D01*
X780265Y1343492D01*
X781140Y1343075D01*
X781148Y1343077D01*
X781150Y1343071D01*
X782096Y1342859D01*
X782104Y1342862D01*
X782107Y1342858D01*
X783077Y1342861D01*
G37*
G36*
X248000Y300928D02*
X248000Y300928D01*
X248001Y300928D01*
X249069Y300947D01*
X249076Y300952D01*
X249080Y300948D01*
X250117Y301204D01*
X250122Y301211D01*
X250128Y301208D01*
X251082Y301689D01*
X251086Y301696D01*
X251091Y301695D01*
X251915Y302376D01*
X251916Y302384D01*
X251922Y302384D01*
X252573Y303231D01*
X252573Y303239D01*
X252579Y303240D01*
X253026Y304211D01*
X253024Y304219D01*
X253029Y304221D01*
X253248Y305267D01*
X253245Y305274D01*
X253249Y305277D01*
X253249Y317277D01*
X253246Y317282D01*
X253249Y317285D01*
X253069Y318380D01*
X253063Y318386D01*
X253066Y318391D01*
X252647Y319419D01*
X252640Y319423D01*
X252642Y319428D01*
X252005Y320337D01*
X251997Y320340D01*
X251997Y320345D01*
X251174Y321089D01*
X251166Y321090D01*
X251165Y321096D01*
X250197Y321638D01*
X250188Y321637D01*
X250186Y321643D01*
X249122Y321956D01*
X249117Y321954D01*
X249113Y321954D01*
X249111Y321958D01*
X248003Y322026D01*
X247997Y322022D01*
X247993Y322026D01*
X246885Y321856D01*
X246879Y321850D01*
X246874Y321853D01*
X245832Y321441D01*
X245828Y321434D01*
X245823Y321436D01*
X244898Y320802D01*
X244896Y320794D01*
X244890Y320795D01*
X244130Y319972D01*
X244129Y319963D01*
X244123Y319963D01*
X243566Y318991D01*
X243567Y318983D01*
X243561Y318981D01*
X243234Y317909D01*
X243237Y317901D01*
X243232Y317898D01*
X243151Y316781D01*
X243152Y316778D01*
X243151Y316777D01*
X243151Y304777D01*
X243156Y304770D01*
X243152Y304766D01*
X243371Y303822D01*
X243377Y303816D01*
X243375Y303811D01*
X243799Y302939D01*
X243806Y302936D01*
X243804Y302930D01*
X244411Y302174D01*
X244419Y302172D01*
X244419Y302166D01*
X245179Y301565D01*
X245188Y301565D01*
X245189Y301559D01*
X246064Y301141D01*
X246072Y301143D01*
X246074Y301138D01*
X247020Y300926D01*
X247027Y300929D01*
X247031Y300924D01*
X248000Y300928D01*
G37*
G36*
X248000Y561405D02*
X248000Y561405D01*
X248001Y561405D01*
X249069Y561424D01*
X249076Y561429D01*
X249080Y561425D01*
X250117Y561681D01*
X250122Y561688D01*
X250128Y561685D01*
X251082Y562166D01*
X251086Y562173D01*
X251091Y562172D01*
X251915Y562853D01*
X251916Y562861D01*
X251922Y562861D01*
X252573Y563708D01*
X252573Y563716D01*
X252579Y563717D01*
X253026Y564688D01*
X253024Y564696D01*
X253029Y564698D01*
X253248Y565744D01*
X253245Y565751D01*
X253249Y565754D01*
X253249Y577754D01*
X253246Y577759D01*
X253249Y577762D01*
X253069Y578857D01*
X253063Y578863D01*
X253066Y578868D01*
X252647Y579896D01*
X252640Y579900D01*
X252642Y579905D01*
X252005Y580814D01*
X251997Y580817D01*
X251997Y580822D01*
X251174Y581566D01*
X251166Y581567D01*
X251165Y581573D01*
X250197Y582115D01*
X250188Y582114D01*
X250186Y582120D01*
X249122Y582433D01*
X249117Y582431D01*
X249113Y582431D01*
X249111Y582435D01*
X248003Y582503D01*
X247997Y582499D01*
X247993Y582503D01*
X246885Y582333D01*
X246879Y582327D01*
X246874Y582330D01*
X245832Y581918D01*
X245828Y581911D01*
X245823Y581913D01*
X244898Y581279D01*
X244896Y581271D01*
X244890Y581272D01*
X244130Y580449D01*
X244129Y580440D01*
X244123Y580440D01*
X243566Y579468D01*
X243567Y579460D01*
X243561Y579458D01*
X243234Y578386D01*
X243237Y578378D01*
X243232Y578375D01*
X243151Y577258D01*
X243152Y577255D01*
X243151Y577254D01*
X243151Y565254D01*
X243156Y565247D01*
X243152Y565243D01*
X243371Y564299D01*
X243377Y564293D01*
X243375Y564288D01*
X243799Y563416D01*
X243806Y563413D01*
X243804Y563407D01*
X244411Y562651D01*
X244419Y562649D01*
X244419Y562643D01*
X245179Y562042D01*
X245188Y562042D01*
X245189Y562036D01*
X246064Y561618D01*
X246072Y561620D01*
X246074Y561615D01*
X247020Y561403D01*
X247027Y561406D01*
X247031Y561401D01*
X248000Y561405D01*
G37*
G36*
X248000Y1082359D02*
X248000Y1082359D01*
X248001Y1082359D01*
X249069Y1082378D01*
X249076Y1082383D01*
X249080Y1082379D01*
X250117Y1082635D01*
X250122Y1082642D01*
X250128Y1082639D01*
X251082Y1083120D01*
X251086Y1083127D01*
X251091Y1083126D01*
X251915Y1083807D01*
X251916Y1083815D01*
X251922Y1083815D01*
X252573Y1084662D01*
X252573Y1084670D01*
X252579Y1084671D01*
X253026Y1085642D01*
X253024Y1085650D01*
X253029Y1085652D01*
X253248Y1086698D01*
X253245Y1086705D01*
X253249Y1086708D01*
X253249Y1098708D01*
X253246Y1098713D01*
X253249Y1098716D01*
X253069Y1099811D01*
X253063Y1099817D01*
X253066Y1099822D01*
X252647Y1100850D01*
X252640Y1100854D01*
X252642Y1100859D01*
X252005Y1101768D01*
X251997Y1101771D01*
X251997Y1101776D01*
X251174Y1102520D01*
X251166Y1102521D01*
X251165Y1102527D01*
X250197Y1103069D01*
X250188Y1103068D01*
X250186Y1103074D01*
X249122Y1103387D01*
X249117Y1103385D01*
X249113Y1103385D01*
X249111Y1103389D01*
X248003Y1103457D01*
X247997Y1103453D01*
X247993Y1103457D01*
X246885Y1103287D01*
X246879Y1103281D01*
X246874Y1103284D01*
X245832Y1102872D01*
X245828Y1102865D01*
X245823Y1102867D01*
X244898Y1102233D01*
X244896Y1102225D01*
X244890Y1102226D01*
X244130Y1101403D01*
X244129Y1101394D01*
X244123Y1101394D01*
X243566Y1100422D01*
X243567Y1100414D01*
X243561Y1100412D01*
X243234Y1099340D01*
X243237Y1099332D01*
X243232Y1099329D01*
X243151Y1098212D01*
X243152Y1098209D01*
X243151Y1098208D01*
X243151Y1086208D01*
X243156Y1086201D01*
X243152Y1086197D01*
X243371Y1085253D01*
X243377Y1085247D01*
X243375Y1085242D01*
X243799Y1084370D01*
X243806Y1084367D01*
X243804Y1084361D01*
X244411Y1083605D01*
X244419Y1083603D01*
X244419Y1083597D01*
X245179Y1082996D01*
X245188Y1082996D01*
X245189Y1082990D01*
X246064Y1082572D01*
X246072Y1082574D01*
X246074Y1082569D01*
X247020Y1082357D01*
X247027Y1082360D01*
X247031Y1082355D01*
X248000Y1082359D01*
G37*
G36*
X783077Y1082359D02*
X783077Y1082359D01*
X784146Y1082378D01*
X784152Y1082383D01*
X784156Y1082379D01*
X785194Y1082635D01*
X785199Y1082642D01*
X785204Y1082639D01*
X786158Y1083120D01*
X786162Y1083127D01*
X786168Y1083126D01*
X786991Y1083807D01*
X786993Y1083815D01*
X786999Y1083815D01*
X787650Y1084662D01*
X787650Y1084670D01*
X787656Y1084671D01*
X788102Y1085642D01*
X788100Y1085650D01*
X788105Y1085652D01*
X788325Y1086698D01*
X788321Y1086705D01*
X788326Y1086708D01*
X788326Y1098708D01*
X788322Y1098713D01*
X788325Y1098716D01*
X788145Y1099811D01*
X788139Y1099817D01*
X788142Y1099822D01*
X787723Y1100850D01*
X787716Y1100854D01*
X787718Y1100859D01*
X787081Y1101768D01*
X787073Y1101771D01*
X787074Y1101776D01*
X786250Y1102520D01*
X786242Y1102521D01*
X786241Y1102527D01*
X785273Y1103069D01*
X785265Y1103068D01*
X785263Y1103074D01*
X784198Y1103387D01*
X784194Y1103385D01*
X784190Y1103385D01*
X784187Y1103389D01*
X783079Y1103457D01*
X783073Y1103453D01*
X783069Y1103457D01*
X781961Y1103287D01*
X781956Y1103281D01*
X781951Y1103284D01*
X780909Y1102872D01*
X780904Y1102865D01*
X780899Y1102867D01*
X779975Y1102233D01*
X779972Y1102225D01*
X779966Y1102226D01*
X779206Y1101403D01*
X779206Y1101394D01*
X779200Y1101394D01*
X778642Y1100422D01*
X778643Y1100414D01*
X778638Y1100412D01*
X778310Y1099340D01*
X778313Y1099332D01*
X778308Y1099329D01*
X778227Y1098212D01*
X778229Y1098209D01*
X778227Y1098208D01*
X778227Y1086208D01*
X778232Y1086201D01*
X778228Y1086197D01*
X778448Y1085253D01*
X778454Y1085247D01*
X778451Y1085242D01*
X778875Y1084370D01*
X778882Y1084367D01*
X778881Y1084361D01*
X779488Y1083605D01*
X779496Y1083603D01*
X779496Y1083597D01*
X780256Y1082996D01*
X780264Y1082996D01*
X780265Y1082990D01*
X781140Y1082572D01*
X781148Y1082574D01*
X781150Y1082569D01*
X782096Y1082357D01*
X782104Y1082360D01*
X782107Y1082355D01*
X783077Y1082359D01*
G37*
G36*
X783077Y561405D02*
X783077Y561405D01*
X784146Y561424D01*
X784152Y561429D01*
X784156Y561425D01*
X785194Y561681D01*
X785199Y561688D01*
X785204Y561685D01*
X786158Y562166D01*
X786162Y562173D01*
X786168Y562172D01*
X786991Y562853D01*
X786993Y562861D01*
X786999Y562861D01*
X787650Y563708D01*
X787650Y563716D01*
X787656Y563717D01*
X788102Y564688D01*
X788100Y564696D01*
X788105Y564698D01*
X788325Y565744D01*
X788321Y565751D01*
X788326Y565754D01*
X788326Y577754D01*
X788322Y577759D01*
X788325Y577762D01*
X788145Y578857D01*
X788139Y578863D01*
X788142Y578868D01*
X787723Y579896D01*
X787716Y579900D01*
X787718Y579905D01*
X787081Y580814D01*
X787073Y580817D01*
X787074Y580822D01*
X786250Y581566D01*
X786242Y581567D01*
X786241Y581573D01*
X785273Y582115D01*
X785265Y582114D01*
X785263Y582120D01*
X784198Y582433D01*
X784194Y582431D01*
X784190Y582431D01*
X784187Y582435D01*
X783079Y582503D01*
X783073Y582499D01*
X783069Y582503D01*
X781961Y582333D01*
X781956Y582327D01*
X781951Y582330D01*
X780909Y581918D01*
X780904Y581911D01*
X780899Y581913D01*
X779975Y581279D01*
X779972Y581271D01*
X779966Y581272D01*
X779206Y580449D01*
X779206Y580440D01*
X779200Y580440D01*
X778642Y579468D01*
X778643Y579460D01*
X778638Y579458D01*
X778310Y578386D01*
X778313Y578378D01*
X778308Y578375D01*
X778227Y577258D01*
X778229Y577255D01*
X778227Y577254D01*
X778227Y565254D01*
X778232Y565247D01*
X778228Y565243D01*
X778448Y564299D01*
X778454Y564293D01*
X778451Y564288D01*
X778875Y563416D01*
X778882Y563413D01*
X778881Y563407D01*
X779488Y562651D01*
X779496Y562649D01*
X779496Y562643D01*
X780256Y562042D01*
X780264Y562042D01*
X780265Y562036D01*
X781140Y561618D01*
X781148Y561620D01*
X781150Y561615D01*
X782096Y561403D01*
X782104Y561406D01*
X782107Y561401D01*
X783077Y561405D01*
G37*
G36*
X783077Y821882D02*
X783077Y821882D01*
X784146Y821901D01*
X784152Y821906D01*
X784156Y821902D01*
X785194Y822158D01*
X785199Y822165D01*
X785204Y822162D01*
X786158Y822643D01*
X786162Y822650D01*
X786168Y822649D01*
X786991Y823330D01*
X786993Y823338D01*
X786999Y823338D01*
X787650Y824185D01*
X787650Y824193D01*
X787656Y824194D01*
X788102Y825165D01*
X788100Y825173D01*
X788105Y825175D01*
X788325Y826221D01*
X788321Y826228D01*
X788326Y826231D01*
X788326Y838231D01*
X788322Y838236D01*
X788325Y838239D01*
X788145Y839334D01*
X788139Y839340D01*
X788142Y839345D01*
X787723Y840373D01*
X787716Y840377D01*
X787718Y840382D01*
X787081Y841291D01*
X787073Y841294D01*
X787074Y841299D01*
X786250Y842043D01*
X786242Y842044D01*
X786241Y842050D01*
X785273Y842592D01*
X785265Y842591D01*
X785263Y842597D01*
X784198Y842910D01*
X784194Y842908D01*
X784190Y842908D01*
X784187Y842912D01*
X783079Y842980D01*
X783073Y842976D01*
X783069Y842980D01*
X781961Y842810D01*
X781956Y842804D01*
X781951Y842807D01*
X780909Y842395D01*
X780904Y842388D01*
X780899Y842390D01*
X779975Y841756D01*
X779972Y841748D01*
X779966Y841749D01*
X779206Y840926D01*
X779206Y840917D01*
X779200Y840917D01*
X778642Y839945D01*
X778643Y839937D01*
X778638Y839935D01*
X778310Y838863D01*
X778313Y838855D01*
X778308Y838852D01*
X778227Y837735D01*
X778229Y837732D01*
X778227Y837731D01*
X778227Y825731D01*
X778232Y825724D01*
X778228Y825720D01*
X778448Y824776D01*
X778454Y824770D01*
X778451Y824765D01*
X778875Y823893D01*
X778882Y823890D01*
X778881Y823884D01*
X779488Y823128D01*
X779496Y823126D01*
X779496Y823120D01*
X780256Y822519D01*
X780264Y822519D01*
X780265Y822513D01*
X781140Y822095D01*
X781148Y822097D01*
X781150Y822092D01*
X782096Y821880D01*
X782104Y821883D01*
X782107Y821878D01*
X783077Y821882D01*
G37*
G36*
X248000Y821882D02*
X248000Y821882D01*
X248001Y821882D01*
X249069Y821901D01*
X249076Y821906D01*
X249080Y821902D01*
X250117Y822158D01*
X250122Y822165D01*
X250128Y822162D01*
X251082Y822643D01*
X251086Y822650D01*
X251091Y822649D01*
X251915Y823330D01*
X251916Y823338D01*
X251922Y823338D01*
X252573Y824185D01*
X252573Y824193D01*
X252579Y824194D01*
X253026Y825165D01*
X253024Y825173D01*
X253029Y825175D01*
X253248Y826221D01*
X253245Y826228D01*
X253249Y826231D01*
X253249Y838231D01*
X253246Y838236D01*
X253249Y838239D01*
X253069Y839334D01*
X253063Y839340D01*
X253066Y839345D01*
X252647Y840373D01*
X252640Y840377D01*
X252642Y840382D01*
X252005Y841291D01*
X251997Y841294D01*
X251997Y841299D01*
X251174Y842043D01*
X251166Y842044D01*
X251165Y842050D01*
X250197Y842592D01*
X250188Y842591D01*
X250186Y842597D01*
X249122Y842910D01*
X249117Y842908D01*
X249113Y842908D01*
X249111Y842912D01*
X248003Y842980D01*
X247997Y842976D01*
X247993Y842980D01*
X246885Y842810D01*
X246879Y842804D01*
X246874Y842807D01*
X245832Y842395D01*
X245828Y842388D01*
X245823Y842390D01*
X244898Y841756D01*
X244896Y841748D01*
X244890Y841749D01*
X244130Y840926D01*
X244129Y840917D01*
X244123Y840917D01*
X243566Y839945D01*
X243567Y839937D01*
X243561Y839935D01*
X243234Y838863D01*
X243237Y838855D01*
X243232Y838852D01*
X243151Y837735D01*
X243152Y837732D01*
X243151Y837731D01*
X243151Y825731D01*
X243156Y825724D01*
X243152Y825720D01*
X243371Y824776D01*
X243377Y824770D01*
X243375Y824765D01*
X243799Y823893D01*
X243806Y823890D01*
X243804Y823884D01*
X244411Y823128D01*
X244419Y823126D01*
X244419Y823120D01*
X245179Y822519D01*
X245188Y822519D01*
X245189Y822513D01*
X246064Y822095D01*
X246072Y822097D01*
X246074Y822092D01*
X247020Y821880D01*
X247027Y821883D01*
X247031Y821878D01*
X248000Y821882D01*
G37*
G36*
X248000Y40451D02*
X248000Y40451D01*
X248001Y40451D01*
X249069Y40470D01*
X249076Y40475D01*
X249080Y40471D01*
X250117Y40727D01*
X250122Y40734D01*
X250128Y40731D01*
X251082Y41212D01*
X251086Y41219D01*
X251091Y41218D01*
X251915Y41899D01*
X251916Y41907D01*
X251922Y41907D01*
X252573Y42754D01*
X252573Y42762D01*
X252579Y42763D01*
X253026Y43734D01*
X253024Y43742D01*
X253029Y43744D01*
X253248Y44790D01*
X253245Y44797D01*
X253249Y44800D01*
X253249Y56800D01*
X253246Y56805D01*
X253249Y56808D01*
X253069Y57903D01*
X253063Y57909D01*
X253066Y57914D01*
X252647Y58942D01*
X252640Y58946D01*
X252642Y58951D01*
X252005Y59860D01*
X251997Y59863D01*
X251997Y59868D01*
X251174Y60612D01*
X251166Y60613D01*
X251165Y60619D01*
X250197Y61161D01*
X250188Y61160D01*
X250186Y61166D01*
X249122Y61479D01*
X249117Y61477D01*
X249113Y61477D01*
X249111Y61481D01*
X248003Y61549D01*
X247997Y61545D01*
X247993Y61549D01*
X246885Y61379D01*
X246879Y61373D01*
X246874Y61376D01*
X245832Y60964D01*
X245828Y60957D01*
X245823Y60959D01*
X244898Y60325D01*
X244896Y60317D01*
X244890Y60318D01*
X244130Y59495D01*
X244129Y59486D01*
X244123Y59486D01*
X243566Y58514D01*
X243567Y58506D01*
X243561Y58504D01*
X243234Y57432D01*
X243237Y57424D01*
X243232Y57421D01*
X243151Y56304D01*
X243152Y56301D01*
X243151Y56300D01*
X243151Y44300D01*
X243156Y44293D01*
X243152Y44289D01*
X243371Y43345D01*
X243377Y43339D01*
X243375Y43334D01*
X243799Y42462D01*
X243806Y42459D01*
X243804Y42453D01*
X244411Y41697D01*
X244419Y41695D01*
X244419Y41689D01*
X245179Y41088D01*
X245188Y41088D01*
X245189Y41082D01*
X246064Y40664D01*
X246072Y40666D01*
X246074Y40661D01*
X247020Y40449D01*
X247027Y40452D01*
X247031Y40447D01*
X248000Y40451D01*
G37*
G36*
X162581Y1603347D02*
X162581Y1603347D01*
X162588Y1603352D01*
X162592Y1603349D01*
X163644Y1603598D01*
X163649Y1603604D01*
X163654Y1603602D01*
X164624Y1604079D01*
X164627Y1604086D01*
X164633Y1604085D01*
X165472Y1604766D01*
X165474Y1604773D01*
X165480Y1604773D01*
X166146Y1605624D01*
X166147Y1605632D01*
X166152Y1605633D01*
X166613Y1606611D01*
X166611Y1606619D01*
X166617Y1606621D01*
X166848Y1607677D01*
X166845Y1607684D01*
X166849Y1607687D01*
X166849Y1619687D01*
X166845Y1619693D01*
X166849Y1619696D01*
X166656Y1620801D01*
X166650Y1620807D01*
X166653Y1620812D01*
X166220Y1621846D01*
X166213Y1621850D01*
X166215Y1621856D01*
X165562Y1622768D01*
X165554Y1622771D01*
X165555Y1622776D01*
X164716Y1623520D01*
X164707Y1623521D01*
X164707Y1623527D01*
X163723Y1624066D01*
X163715Y1624064D01*
X163713Y1624070D01*
X162634Y1624376D01*
X162626Y1624373D01*
X162623Y1624378D01*
X161503Y1624437D01*
X161498Y1624433D01*
X161495Y1624436D01*
X160449Y1624319D01*
X160443Y1624313D01*
X160438Y1624316D01*
X159444Y1623968D01*
X159440Y1623962D01*
X159435Y1623964D01*
X158543Y1623404D01*
X158541Y1623396D01*
X158535Y1623397D01*
X157791Y1622653D01*
X157789Y1622645D01*
X157784Y1622644D01*
X157224Y1621753D01*
X157224Y1621745D01*
X157219Y1621743D01*
X156871Y1620750D01*
X156874Y1620742D01*
X156869Y1620739D01*
X156751Y1619693D01*
X156753Y1619689D01*
X156751Y1619687D01*
X156751Y1607687D01*
X156754Y1607683D01*
X156751Y1607680D01*
X156909Y1606683D01*
X156915Y1606678D01*
X156912Y1606673D01*
X157287Y1605736D01*
X157294Y1605732D01*
X157292Y1605727D01*
X157866Y1604897D01*
X157874Y1604895D01*
X157873Y1604889D01*
X158617Y1604208D01*
X158626Y1604207D01*
X158626Y1604202D01*
X159503Y1603703D01*
X159512Y1603705D01*
X159514Y1603699D01*
X160479Y1603409D01*
X160487Y1603411D01*
X160490Y1603407D01*
X161497Y1603338D01*
X161499Y1603340D01*
X161500Y1603338D01*
X162581Y1603347D01*
G37*
G36*
X697657Y1603347D02*
X697657Y1603347D01*
X697664Y1603352D01*
X697668Y1603349D01*
X698720Y1603598D01*
X698725Y1603604D01*
X698730Y1603602D01*
X699700Y1604079D01*
X699704Y1604086D01*
X699709Y1604085D01*
X700548Y1604766D01*
X700550Y1604773D01*
X700556Y1604773D01*
X701223Y1605624D01*
X701223Y1605632D01*
X701229Y1605633D01*
X701689Y1606611D01*
X701688Y1606619D01*
X701693Y1606621D01*
X701925Y1607677D01*
X701921Y1607684D01*
X701926Y1607687D01*
X701926Y1619687D01*
X701922Y1619693D01*
X701925Y1619696D01*
X701733Y1620801D01*
X701727Y1620807D01*
X701730Y1620812D01*
X701297Y1621846D01*
X701289Y1621850D01*
X701291Y1621856D01*
X700639Y1622768D01*
X700631Y1622771D01*
X700631Y1622776D01*
X699792Y1623520D01*
X699784Y1623521D01*
X699783Y1623527D01*
X698799Y1624066D01*
X698791Y1624064D01*
X698789Y1624070D01*
X697710Y1624376D01*
X697702Y1624373D01*
X697699Y1624378D01*
X696579Y1624437D01*
X696574Y1624433D01*
X696571Y1624436D01*
X695525Y1624319D01*
X695519Y1624313D01*
X695514Y1624316D01*
X694521Y1623968D01*
X694516Y1623962D01*
X694511Y1623964D01*
X693620Y1623404D01*
X693617Y1623396D01*
X693611Y1623397D01*
X692867Y1622653D01*
X692866Y1622645D01*
X692860Y1622644D01*
X692300Y1621753D01*
X692301Y1621745D01*
X692295Y1621743D01*
X691948Y1620750D01*
X691950Y1620742D01*
X691945Y1620739D01*
X691827Y1619693D01*
X691830Y1619689D01*
X691827Y1619687D01*
X691827Y1607687D01*
X691831Y1607683D01*
X691828Y1607680D01*
X691985Y1606683D01*
X691991Y1606678D01*
X691988Y1606673D01*
X692363Y1605736D01*
X692370Y1605732D01*
X692368Y1605727D01*
X692942Y1604897D01*
X692950Y1604895D01*
X692950Y1604889D01*
X693694Y1604208D01*
X693702Y1604207D01*
X693703Y1604202D01*
X694580Y1603703D01*
X694588Y1603705D01*
X694590Y1603699D01*
X695556Y1603409D01*
X695564Y1603411D01*
X695567Y1603407D01*
X696573Y1603338D01*
X696576Y1603340D01*
X696577Y1603338D01*
X697657Y1603347D01*
G37*
G36*
X162581Y40460D02*
X162581Y40460D01*
X162588Y40465D01*
X162592Y40461D01*
X163644Y40711D01*
X163649Y40717D01*
X163654Y40714D01*
X164624Y41191D01*
X164627Y41199D01*
X164633Y41197D01*
X165472Y41878D01*
X165474Y41886D01*
X165480Y41886D01*
X166146Y42737D01*
X166147Y42745D01*
X166152Y42746D01*
X166613Y43723D01*
X166611Y43731D01*
X166617Y43734D01*
X166848Y44789D01*
X166845Y44797D01*
X166849Y44800D01*
X166849Y56800D01*
X166845Y56805D01*
X166849Y56808D01*
X166656Y57914D01*
X166650Y57919D01*
X166653Y57924D01*
X166220Y58959D01*
X166213Y58963D01*
X166215Y58968D01*
X165562Y59881D01*
X165554Y59883D01*
X165555Y59889D01*
X164716Y60633D01*
X164707Y60634D01*
X164707Y60639D01*
X163723Y61178D01*
X163715Y61177D01*
X163713Y61182D01*
X162634Y61489D01*
X162626Y61486D01*
X162623Y61491D01*
X161503Y61549D01*
X161498Y61546D01*
X161495Y61549D01*
X160449Y61431D01*
X160443Y61425D01*
X160438Y61429D01*
X159444Y61081D01*
X159440Y61074D01*
X159435Y61076D01*
X158543Y60516D01*
X158541Y60509D01*
X158535Y60509D01*
X157791Y59765D01*
X157789Y59757D01*
X157784Y59757D01*
X157224Y58865D01*
X157224Y58857D01*
X157219Y58856D01*
X156871Y57862D01*
X156874Y57854D01*
X156869Y57851D01*
X156751Y56806D01*
X156753Y56802D01*
X156751Y56800D01*
X156751Y44800D01*
X156754Y44795D01*
X156751Y44792D01*
X156909Y43796D01*
X156915Y43790D01*
X156912Y43785D01*
X157287Y42849D01*
X157294Y42845D01*
X157292Y42839D01*
X157866Y42010D01*
X157874Y42007D01*
X157873Y42002D01*
X158617Y41321D01*
X158626Y41320D01*
X158626Y41314D01*
X159503Y40816D01*
X159512Y40817D01*
X159514Y40812D01*
X160479Y40521D01*
X160487Y40524D01*
X160490Y40519D01*
X161497Y40451D01*
X161499Y40452D01*
X161500Y40451D01*
X162581Y40460D01*
G37*
G36*
X697657Y40460D02*
X697657Y40460D01*
X697664Y40465D01*
X697668Y40461D01*
X698720Y40711D01*
X698725Y40717D01*
X698730Y40714D01*
X699700Y41191D01*
X699704Y41199D01*
X699709Y41197D01*
X700548Y41878D01*
X700550Y41886D01*
X700556Y41886D01*
X701223Y42737D01*
X701223Y42745D01*
X701229Y42746D01*
X701689Y43723D01*
X701688Y43731D01*
X701693Y43734D01*
X701925Y44789D01*
X701921Y44797D01*
X701926Y44800D01*
X701926Y56800D01*
X701922Y56805D01*
X701925Y56808D01*
X701733Y57914D01*
X701727Y57919D01*
X701730Y57924D01*
X701297Y58959D01*
X701289Y58963D01*
X701291Y58968D01*
X700639Y59881D01*
X700631Y59883D01*
X700631Y59889D01*
X699792Y60633D01*
X699784Y60634D01*
X699783Y60639D01*
X698799Y61178D01*
X698791Y61177D01*
X698789Y61182D01*
X697710Y61489D01*
X697702Y61486D01*
X697699Y61491D01*
X696579Y61549D01*
X696574Y61546D01*
X696571Y61549D01*
X695525Y61431D01*
X695519Y61425D01*
X695514Y61429D01*
X694521Y61081D01*
X694516Y61074D01*
X694511Y61076D01*
X693620Y60516D01*
X693617Y60509D01*
X693611Y60509D01*
X692867Y59765D01*
X692866Y59757D01*
X692860Y59757D01*
X692300Y58865D01*
X692301Y58857D01*
X692295Y58856D01*
X691948Y57862D01*
X691950Y57854D01*
X691945Y57851D01*
X691827Y56806D01*
X691830Y56802D01*
X691827Y56800D01*
X691827Y44800D01*
X691831Y44795D01*
X691828Y44792D01*
X691985Y43796D01*
X691991Y43790D01*
X691988Y43785D01*
X692363Y42849D01*
X692370Y42845D01*
X692368Y42839D01*
X692942Y42010D01*
X692950Y42007D01*
X692950Y42002D01*
X693694Y41321D01*
X693702Y41320D01*
X693703Y41314D01*
X694580Y40816D01*
X694588Y40817D01*
X694590Y40812D01*
X695556Y40521D01*
X695564Y40524D01*
X695567Y40519D01*
X696573Y40451D01*
X696576Y40452D01*
X696577Y40451D01*
X697657Y40460D01*
G37*
G36*
X697657Y1342870D02*
X697657Y1342870D01*
X697664Y1342875D01*
X697668Y1342872D01*
X698720Y1343121D01*
X698725Y1343127D01*
X698730Y1343125D01*
X699700Y1343602D01*
X699704Y1343609D01*
X699709Y1343608D01*
X700548Y1344289D01*
X700550Y1344296D01*
X700556Y1344296D01*
X701223Y1345147D01*
X701223Y1345155D01*
X701229Y1345156D01*
X701689Y1346134D01*
X701688Y1346142D01*
X701693Y1346144D01*
X701925Y1347200D01*
X701921Y1347207D01*
X701926Y1347210D01*
X701926Y1359210D01*
X701922Y1359216D01*
X701925Y1359219D01*
X701733Y1360324D01*
X701727Y1360330D01*
X701730Y1360335D01*
X701297Y1361369D01*
X701289Y1361373D01*
X701291Y1361379D01*
X700639Y1362291D01*
X700631Y1362294D01*
X700631Y1362299D01*
X699792Y1363043D01*
X699784Y1363044D01*
X699783Y1363050D01*
X698799Y1363589D01*
X698791Y1363587D01*
X698789Y1363593D01*
X697710Y1363899D01*
X697702Y1363896D01*
X697699Y1363901D01*
X696579Y1363960D01*
X696574Y1363956D01*
X696571Y1363959D01*
X695525Y1363842D01*
X695519Y1363836D01*
X695514Y1363839D01*
X694521Y1363491D01*
X694516Y1363485D01*
X694511Y1363487D01*
X693620Y1362927D01*
X693617Y1362919D01*
X693611Y1362920D01*
X692867Y1362176D01*
X692866Y1362168D01*
X692860Y1362167D01*
X692300Y1361276D01*
X692301Y1361268D01*
X692295Y1361266D01*
X691948Y1360273D01*
X691950Y1360265D01*
X691945Y1360262D01*
X691827Y1359216D01*
X691830Y1359212D01*
X691827Y1359210D01*
X691827Y1347210D01*
X691831Y1347206D01*
X691828Y1347203D01*
X691985Y1346206D01*
X691991Y1346201D01*
X691988Y1346196D01*
X692363Y1345259D01*
X692370Y1345255D01*
X692368Y1345250D01*
X692942Y1344420D01*
X692950Y1344418D01*
X692950Y1344412D01*
X693694Y1343731D01*
X693702Y1343730D01*
X693703Y1343725D01*
X694580Y1343226D01*
X694588Y1343228D01*
X694590Y1343222D01*
X695556Y1342932D01*
X695564Y1342934D01*
X695567Y1342930D01*
X696573Y1342861D01*
X696576Y1342863D01*
X696577Y1342861D01*
X697657Y1342870D01*
G37*
G36*
X162581Y1342870D02*
X162581Y1342870D01*
X162588Y1342875D01*
X162592Y1342872D01*
X163644Y1343121D01*
X163649Y1343127D01*
X163654Y1343125D01*
X164624Y1343602D01*
X164627Y1343609D01*
X164633Y1343608D01*
X165472Y1344289D01*
X165474Y1344296D01*
X165480Y1344296D01*
X166146Y1345147D01*
X166147Y1345155D01*
X166152Y1345156D01*
X166613Y1346134D01*
X166611Y1346142D01*
X166617Y1346144D01*
X166848Y1347200D01*
X166845Y1347207D01*
X166849Y1347210D01*
X166849Y1359210D01*
X166845Y1359216D01*
X166849Y1359219D01*
X166656Y1360324D01*
X166650Y1360330D01*
X166653Y1360335D01*
X166220Y1361369D01*
X166213Y1361373D01*
X166215Y1361379D01*
X165562Y1362291D01*
X165554Y1362294D01*
X165555Y1362299D01*
X164716Y1363043D01*
X164707Y1363044D01*
X164707Y1363050D01*
X163723Y1363589D01*
X163715Y1363587D01*
X163713Y1363593D01*
X162634Y1363899D01*
X162626Y1363896D01*
X162623Y1363901D01*
X161503Y1363960D01*
X161498Y1363956D01*
X161495Y1363959D01*
X160449Y1363842D01*
X160443Y1363836D01*
X160438Y1363839D01*
X159444Y1363491D01*
X159440Y1363485D01*
X159435Y1363487D01*
X158543Y1362927D01*
X158541Y1362919D01*
X158535Y1362920D01*
X157791Y1362176D01*
X157789Y1362168D01*
X157784Y1362167D01*
X157224Y1361276D01*
X157224Y1361268D01*
X157219Y1361266D01*
X156871Y1360273D01*
X156874Y1360265D01*
X156869Y1360262D01*
X156751Y1359216D01*
X156753Y1359212D01*
X156751Y1359210D01*
X156751Y1347210D01*
X156754Y1347206D01*
X156751Y1347203D01*
X156909Y1346206D01*
X156915Y1346201D01*
X156912Y1346196D01*
X157287Y1345259D01*
X157294Y1345255D01*
X157292Y1345250D01*
X157866Y1344420D01*
X157874Y1344418D01*
X157873Y1344412D01*
X158617Y1343731D01*
X158626Y1343730D01*
X158626Y1343725D01*
X159503Y1343226D01*
X159512Y1343228D01*
X159514Y1343222D01*
X160479Y1342932D01*
X160487Y1342934D01*
X160490Y1342930D01*
X161497Y1342861D01*
X161499Y1342863D01*
X161500Y1342861D01*
X162581Y1342870D01*
G37*
G36*
X697657Y300937D02*
X697657Y300937D01*
X697664Y300942D01*
X697668Y300938D01*
X698720Y301188D01*
X698725Y301194D01*
X698730Y301191D01*
X699700Y301668D01*
X699704Y301676D01*
X699709Y301674D01*
X700548Y302355D01*
X700550Y302363D01*
X700556Y302363D01*
X701223Y303214D01*
X701223Y303222D01*
X701229Y303223D01*
X701689Y304200D01*
X701688Y304208D01*
X701693Y304211D01*
X701925Y305266D01*
X701921Y305274D01*
X701926Y305277D01*
X701926Y317277D01*
X701922Y317282D01*
X701925Y317285D01*
X701733Y318391D01*
X701727Y318396D01*
X701730Y318401D01*
X701297Y319436D01*
X701289Y319440D01*
X701291Y319445D01*
X700639Y320358D01*
X700631Y320360D01*
X700631Y320366D01*
X699792Y321110D01*
X699784Y321111D01*
X699783Y321116D01*
X698799Y321655D01*
X698791Y321654D01*
X698789Y321659D01*
X697710Y321966D01*
X697702Y321963D01*
X697699Y321968D01*
X696579Y322026D01*
X696574Y322023D01*
X696571Y322026D01*
X695525Y321908D01*
X695519Y321902D01*
X695514Y321906D01*
X694521Y321558D01*
X694516Y321551D01*
X694511Y321553D01*
X693620Y320993D01*
X693617Y320986D01*
X693611Y320986D01*
X692867Y320242D01*
X692866Y320234D01*
X692860Y320234D01*
X692300Y319342D01*
X692301Y319334D01*
X692295Y319333D01*
X691948Y318339D01*
X691950Y318331D01*
X691945Y318328D01*
X691827Y317283D01*
X691830Y317279D01*
X691827Y317277D01*
X691827Y305277D01*
X691831Y305272D01*
X691828Y305269D01*
X691985Y304273D01*
X691991Y304267D01*
X691988Y304262D01*
X692363Y303326D01*
X692370Y303322D01*
X692368Y303316D01*
X692942Y302487D01*
X692950Y302484D01*
X692950Y302479D01*
X693694Y301798D01*
X693702Y301797D01*
X693703Y301791D01*
X694580Y301293D01*
X694588Y301294D01*
X694590Y301289D01*
X695556Y300998D01*
X695564Y301001D01*
X695567Y300996D01*
X696573Y300928D01*
X696576Y300929D01*
X696577Y300928D01*
X697657Y300937D01*
G37*
G36*
X162581Y300937D02*
X162581Y300937D01*
X162588Y300942D01*
X162592Y300938D01*
X163644Y301188D01*
X163649Y301194D01*
X163654Y301191D01*
X164624Y301668D01*
X164627Y301676D01*
X164633Y301674D01*
X165472Y302355D01*
X165474Y302363D01*
X165480Y302363D01*
X166146Y303214D01*
X166147Y303222D01*
X166152Y303223D01*
X166613Y304200D01*
X166611Y304208D01*
X166617Y304211D01*
X166848Y305266D01*
X166845Y305274D01*
X166849Y305277D01*
X166849Y317277D01*
X166845Y317282D01*
X166849Y317285D01*
X166656Y318391D01*
X166650Y318396D01*
X166653Y318401D01*
X166220Y319436D01*
X166213Y319440D01*
X166215Y319445D01*
X165562Y320358D01*
X165554Y320360D01*
X165555Y320366D01*
X164716Y321110D01*
X164707Y321111D01*
X164707Y321116D01*
X163723Y321655D01*
X163715Y321654D01*
X163713Y321659D01*
X162634Y321966D01*
X162626Y321963D01*
X162623Y321968D01*
X161503Y322026D01*
X161498Y322023D01*
X161495Y322026D01*
X160449Y321908D01*
X160443Y321902D01*
X160438Y321906D01*
X159444Y321558D01*
X159440Y321551D01*
X159435Y321553D01*
X158543Y320993D01*
X158541Y320986D01*
X158535Y320986D01*
X157791Y320242D01*
X157789Y320234D01*
X157784Y320234D01*
X157224Y319342D01*
X157224Y319334D01*
X157219Y319333D01*
X156871Y318339D01*
X156874Y318331D01*
X156869Y318328D01*
X156751Y317283D01*
X156753Y317279D01*
X156751Y317277D01*
X156751Y305277D01*
X156754Y305272D01*
X156751Y305269D01*
X156909Y304273D01*
X156915Y304267D01*
X156912Y304262D01*
X157287Y303326D01*
X157294Y303322D01*
X157292Y303316D01*
X157866Y302487D01*
X157874Y302484D01*
X157873Y302479D01*
X158617Y301798D01*
X158626Y301797D01*
X158626Y301791D01*
X159503Y301293D01*
X159512Y301294D01*
X159514Y301289D01*
X160479Y300998D01*
X160487Y301001D01*
X160490Y300996D01*
X161497Y300928D01*
X161499Y300929D01*
X161500Y300928D01*
X162581Y300937D01*
G37*
G36*
X162581Y1082368D02*
X162581Y1082368D01*
X162588Y1082373D01*
X162592Y1082369D01*
X163644Y1082619D01*
X163649Y1082625D01*
X163654Y1082622D01*
X164624Y1083099D01*
X164627Y1083107D01*
X164633Y1083105D01*
X165472Y1083786D01*
X165474Y1083794D01*
X165480Y1083794D01*
X166146Y1084645D01*
X166147Y1084653D01*
X166152Y1084654D01*
X166613Y1085631D01*
X166611Y1085639D01*
X166617Y1085642D01*
X166848Y1086697D01*
X166845Y1086705D01*
X166849Y1086708D01*
X166849Y1098708D01*
X166845Y1098713D01*
X166849Y1098716D01*
X166656Y1099822D01*
X166650Y1099827D01*
X166653Y1099832D01*
X166220Y1100867D01*
X166213Y1100871D01*
X166215Y1100876D01*
X165562Y1101789D01*
X165554Y1101791D01*
X165555Y1101797D01*
X164716Y1102541D01*
X164707Y1102542D01*
X164707Y1102547D01*
X163723Y1103086D01*
X163715Y1103085D01*
X163713Y1103090D01*
X162634Y1103397D01*
X162626Y1103394D01*
X162623Y1103399D01*
X161503Y1103457D01*
X161498Y1103454D01*
X161495Y1103457D01*
X160449Y1103339D01*
X160443Y1103333D01*
X160438Y1103337D01*
X159444Y1102989D01*
X159440Y1102982D01*
X159435Y1102984D01*
X158543Y1102424D01*
X158541Y1102417D01*
X158535Y1102417D01*
X157791Y1101673D01*
X157789Y1101665D01*
X157784Y1101665D01*
X157224Y1100773D01*
X157224Y1100765D01*
X157219Y1100764D01*
X156871Y1099770D01*
X156874Y1099762D01*
X156869Y1099759D01*
X156751Y1098714D01*
X156753Y1098710D01*
X156751Y1098708D01*
X156751Y1086708D01*
X156754Y1086703D01*
X156751Y1086700D01*
X156909Y1085704D01*
X156915Y1085698D01*
X156912Y1085693D01*
X157287Y1084757D01*
X157294Y1084753D01*
X157292Y1084747D01*
X157866Y1083918D01*
X157874Y1083915D01*
X157873Y1083910D01*
X158617Y1083229D01*
X158626Y1083228D01*
X158626Y1083222D01*
X159503Y1082724D01*
X159512Y1082725D01*
X159514Y1082720D01*
X160479Y1082429D01*
X160487Y1082432D01*
X160490Y1082427D01*
X161497Y1082359D01*
X161499Y1082360D01*
X161500Y1082359D01*
X162581Y1082368D01*
G37*
G36*
X697657Y1082368D02*
X697657Y1082368D01*
X697664Y1082373D01*
X697668Y1082369D01*
X698720Y1082619D01*
X698725Y1082625D01*
X698730Y1082622D01*
X699700Y1083099D01*
X699704Y1083107D01*
X699709Y1083105D01*
X700548Y1083786D01*
X700550Y1083794D01*
X700556Y1083794D01*
X701223Y1084645D01*
X701223Y1084653D01*
X701229Y1084654D01*
X701689Y1085631D01*
X701688Y1085639D01*
X701693Y1085642D01*
X701925Y1086697D01*
X701921Y1086705D01*
X701926Y1086708D01*
X701926Y1098708D01*
X701922Y1098713D01*
X701925Y1098716D01*
X701733Y1099822D01*
X701727Y1099827D01*
X701730Y1099832D01*
X701297Y1100867D01*
X701289Y1100871D01*
X701291Y1100876D01*
X700639Y1101789D01*
X700631Y1101791D01*
X700631Y1101797D01*
X699792Y1102541D01*
X699784Y1102542D01*
X699783Y1102547D01*
X698799Y1103086D01*
X698791Y1103085D01*
X698789Y1103090D01*
X697710Y1103397D01*
X697702Y1103394D01*
X697699Y1103399D01*
X696579Y1103457D01*
X696574Y1103454D01*
X696571Y1103457D01*
X695525Y1103339D01*
X695519Y1103333D01*
X695514Y1103337D01*
X694521Y1102989D01*
X694516Y1102982D01*
X694511Y1102984D01*
X693620Y1102424D01*
X693617Y1102417D01*
X693611Y1102417D01*
X692867Y1101673D01*
X692866Y1101665D01*
X692860Y1101665D01*
X692300Y1100773D01*
X692301Y1100765D01*
X692295Y1100764D01*
X691948Y1099770D01*
X691950Y1099762D01*
X691945Y1099759D01*
X691827Y1098714D01*
X691830Y1098710D01*
X691827Y1098708D01*
X691827Y1086708D01*
X691831Y1086703D01*
X691828Y1086700D01*
X691985Y1085704D01*
X691991Y1085698D01*
X691988Y1085693D01*
X692363Y1084757D01*
X692370Y1084753D01*
X692368Y1084747D01*
X692942Y1083918D01*
X692950Y1083915D01*
X692950Y1083910D01*
X693694Y1083229D01*
X693702Y1083228D01*
X693703Y1083222D01*
X694580Y1082724D01*
X694588Y1082725D01*
X694590Y1082720D01*
X695556Y1082429D01*
X695564Y1082432D01*
X695567Y1082427D01*
X696573Y1082359D01*
X696576Y1082360D01*
X696577Y1082359D01*
X697657Y1082368D01*
G37*
G36*
X697657Y561414D02*
X697657Y561414D01*
X697664Y561419D01*
X697668Y561415D01*
X698720Y561665D01*
X698725Y561671D01*
X698730Y561668D01*
X699700Y562145D01*
X699704Y562153D01*
X699709Y562151D01*
X700548Y562832D01*
X700550Y562840D01*
X700556Y562840D01*
X701223Y563691D01*
X701223Y563699D01*
X701229Y563700D01*
X701689Y564677D01*
X701688Y564685D01*
X701693Y564688D01*
X701925Y565743D01*
X701921Y565751D01*
X701926Y565754D01*
X701926Y577754D01*
X701922Y577759D01*
X701925Y577762D01*
X701733Y578868D01*
X701727Y578873D01*
X701730Y578878D01*
X701297Y579913D01*
X701289Y579917D01*
X701291Y579922D01*
X700639Y580835D01*
X700631Y580837D01*
X700631Y580843D01*
X699792Y581587D01*
X699784Y581588D01*
X699783Y581593D01*
X698799Y582132D01*
X698791Y582131D01*
X698789Y582136D01*
X697710Y582443D01*
X697702Y582440D01*
X697699Y582445D01*
X696579Y582503D01*
X696574Y582500D01*
X696571Y582503D01*
X695525Y582385D01*
X695519Y582379D01*
X695514Y582383D01*
X694521Y582035D01*
X694516Y582028D01*
X694511Y582030D01*
X693620Y581470D01*
X693617Y581463D01*
X693611Y581463D01*
X692867Y580719D01*
X692866Y580711D01*
X692860Y580711D01*
X692300Y579819D01*
X692301Y579811D01*
X692295Y579810D01*
X691948Y578816D01*
X691950Y578808D01*
X691945Y578805D01*
X691827Y577760D01*
X691830Y577756D01*
X691827Y577754D01*
X691827Y565754D01*
X691831Y565749D01*
X691828Y565746D01*
X691985Y564750D01*
X691991Y564744D01*
X691988Y564739D01*
X692363Y563803D01*
X692370Y563799D01*
X692368Y563793D01*
X692942Y562964D01*
X692950Y562961D01*
X692950Y562956D01*
X693694Y562275D01*
X693702Y562274D01*
X693703Y562268D01*
X694580Y561770D01*
X694588Y561771D01*
X694590Y561766D01*
X695556Y561475D01*
X695564Y561478D01*
X695567Y561473D01*
X696573Y561405D01*
X696576Y561406D01*
X696577Y561405D01*
X697657Y561414D01*
G37*
G36*
X162581Y561414D02*
X162581Y561414D01*
X162588Y561419D01*
X162592Y561415D01*
X163644Y561665D01*
X163649Y561671D01*
X163654Y561668D01*
X164624Y562145D01*
X164627Y562153D01*
X164633Y562151D01*
X165472Y562832D01*
X165474Y562840D01*
X165480Y562840D01*
X166146Y563691D01*
X166147Y563699D01*
X166152Y563700D01*
X166613Y564677D01*
X166611Y564685D01*
X166617Y564688D01*
X166848Y565743D01*
X166845Y565751D01*
X166849Y565754D01*
X166849Y577754D01*
X166845Y577759D01*
X166849Y577762D01*
X166656Y578868D01*
X166650Y578873D01*
X166653Y578878D01*
X166220Y579913D01*
X166213Y579917D01*
X166215Y579922D01*
X165562Y580835D01*
X165554Y580837D01*
X165555Y580843D01*
X164716Y581587D01*
X164707Y581588D01*
X164707Y581593D01*
X163723Y582132D01*
X163715Y582131D01*
X163713Y582136D01*
X162634Y582443D01*
X162626Y582440D01*
X162623Y582445D01*
X161503Y582503D01*
X161498Y582500D01*
X161495Y582503D01*
X160449Y582385D01*
X160443Y582379D01*
X160438Y582383D01*
X159444Y582035D01*
X159440Y582028D01*
X159435Y582030D01*
X158543Y581470D01*
X158541Y581463D01*
X158535Y581463D01*
X157791Y580719D01*
X157789Y580711D01*
X157784Y580711D01*
X157224Y579819D01*
X157224Y579811D01*
X157219Y579810D01*
X156871Y578816D01*
X156874Y578808D01*
X156869Y578805D01*
X156751Y577760D01*
X156753Y577756D01*
X156751Y577754D01*
X156751Y565754D01*
X156754Y565749D01*
X156751Y565746D01*
X156909Y564750D01*
X156915Y564744D01*
X156912Y564739D01*
X157287Y563803D01*
X157294Y563799D01*
X157292Y563793D01*
X157866Y562964D01*
X157874Y562961D01*
X157873Y562956D01*
X158617Y562275D01*
X158626Y562274D01*
X158626Y562268D01*
X159503Y561770D01*
X159512Y561771D01*
X159514Y561766D01*
X160479Y561475D01*
X160487Y561478D01*
X160490Y561473D01*
X161497Y561405D01*
X161499Y561406D01*
X161500Y561405D01*
X162581Y561414D01*
G37*
G36*
X697657Y821891D02*
X697657Y821891D01*
X697664Y821896D01*
X697668Y821892D01*
X698720Y822142D01*
X698725Y822148D01*
X698730Y822145D01*
X699700Y822622D01*
X699704Y822630D01*
X699709Y822628D01*
X700548Y823309D01*
X700550Y823317D01*
X700556Y823317D01*
X701223Y824168D01*
X701223Y824176D01*
X701229Y824177D01*
X701689Y825154D01*
X701688Y825162D01*
X701693Y825165D01*
X701925Y826220D01*
X701921Y826228D01*
X701926Y826231D01*
X701926Y838231D01*
X701922Y838236D01*
X701925Y838239D01*
X701733Y839345D01*
X701727Y839350D01*
X701730Y839355D01*
X701297Y840390D01*
X701289Y840394D01*
X701291Y840399D01*
X700639Y841312D01*
X700631Y841314D01*
X700631Y841320D01*
X699792Y842064D01*
X699784Y842065D01*
X699783Y842070D01*
X698799Y842609D01*
X698791Y842608D01*
X698789Y842613D01*
X697710Y842920D01*
X697702Y842917D01*
X697699Y842922D01*
X696579Y842980D01*
X696574Y842977D01*
X696571Y842980D01*
X695525Y842862D01*
X695519Y842856D01*
X695514Y842860D01*
X694521Y842512D01*
X694516Y842505D01*
X694511Y842507D01*
X693620Y841947D01*
X693617Y841940D01*
X693611Y841940D01*
X692867Y841196D01*
X692866Y841188D01*
X692860Y841188D01*
X692300Y840296D01*
X692301Y840288D01*
X692295Y840287D01*
X691948Y839293D01*
X691950Y839285D01*
X691945Y839282D01*
X691827Y838237D01*
X691830Y838233D01*
X691827Y838231D01*
X691827Y826231D01*
X691831Y826226D01*
X691828Y826223D01*
X691985Y825227D01*
X691991Y825221D01*
X691988Y825216D01*
X692363Y824280D01*
X692370Y824276D01*
X692368Y824270D01*
X692942Y823441D01*
X692950Y823438D01*
X692950Y823433D01*
X693694Y822752D01*
X693702Y822751D01*
X693703Y822745D01*
X694580Y822247D01*
X694588Y822248D01*
X694590Y822243D01*
X695556Y821952D01*
X695564Y821955D01*
X695567Y821950D01*
X696573Y821882D01*
X696576Y821883D01*
X696577Y821882D01*
X697657Y821891D01*
G37*
G36*
X162581Y821891D02*
X162581Y821891D01*
X162588Y821896D01*
X162592Y821892D01*
X163644Y822142D01*
X163649Y822148D01*
X163654Y822145D01*
X164624Y822622D01*
X164627Y822630D01*
X164633Y822628D01*
X165472Y823309D01*
X165474Y823317D01*
X165480Y823317D01*
X166146Y824168D01*
X166147Y824176D01*
X166152Y824177D01*
X166613Y825154D01*
X166611Y825162D01*
X166617Y825165D01*
X166848Y826220D01*
X166845Y826228D01*
X166849Y826231D01*
X166849Y838231D01*
X166845Y838236D01*
X166849Y838239D01*
X166656Y839345D01*
X166650Y839350D01*
X166653Y839355D01*
X166220Y840390D01*
X166213Y840394D01*
X166215Y840399D01*
X165562Y841312D01*
X165554Y841314D01*
X165555Y841320D01*
X164716Y842064D01*
X164707Y842065D01*
X164707Y842070D01*
X163723Y842609D01*
X163715Y842608D01*
X163713Y842613D01*
X162634Y842920D01*
X162626Y842917D01*
X162623Y842922D01*
X161503Y842980D01*
X161498Y842977D01*
X161495Y842980D01*
X160449Y842862D01*
X160443Y842856D01*
X160438Y842860D01*
X159444Y842512D01*
X159440Y842505D01*
X159435Y842507D01*
X158543Y841947D01*
X158541Y841940D01*
X158535Y841940D01*
X157791Y841196D01*
X157789Y841188D01*
X157784Y841188D01*
X157224Y840296D01*
X157224Y840288D01*
X157219Y840287D01*
X156871Y839293D01*
X156874Y839285D01*
X156869Y839282D01*
X156751Y838237D01*
X156753Y838233D01*
X156751Y838231D01*
X156751Y826231D01*
X156754Y826226D01*
X156751Y826223D01*
X156909Y825227D01*
X156915Y825221D01*
X156912Y825216D01*
X157287Y824280D01*
X157294Y824276D01*
X157292Y824270D01*
X157866Y823441D01*
X157874Y823438D01*
X157873Y823433D01*
X158617Y822752D01*
X158626Y822751D01*
X158626Y822745D01*
X159503Y822247D01*
X159512Y822248D01*
X159514Y822243D01*
X160479Y821952D01*
X160487Y821955D01*
X160490Y821950D01*
X161497Y821882D01*
X161499Y821883D01*
X161500Y821882D01*
X162581Y821891D01*
G37*
G36*
X783580Y1042863D02*
X783580Y1042863D01*
X783583Y1042859D01*
X784659Y1043014D01*
X784665Y1043020D01*
X784670Y1043017D01*
X785684Y1043407D01*
X785688Y1043414D01*
X785693Y1043413D01*
X786595Y1044019D01*
X786598Y1044027D01*
X786603Y1044026D01*
X787348Y1044818D01*
X787349Y1044826D01*
X787354Y1044826D01*
X787904Y1045764D01*
X787903Y1045772D01*
X787908Y1045774D01*
X788235Y1046810D01*
X788232Y1046818D01*
X788237Y1046821D01*
X788326Y1047904D01*
X788324Y1047907D01*
X788326Y1047908D01*
X788326Y1053908D01*
X788323Y1053912D01*
X788325Y1053914D01*
X788175Y1055047D01*
X788169Y1055053D01*
X788172Y1055058D01*
X787774Y1056128D01*
X787767Y1056132D01*
X787769Y1056138D01*
X787143Y1057093D01*
X787135Y1057096D01*
X787136Y1057101D01*
X786312Y1057893D01*
X786304Y1057894D01*
X786303Y1057900D01*
X785325Y1058489D01*
X785316Y1058488D01*
X785314Y1058493D01*
X784229Y1058849D01*
X784221Y1058847D01*
X784218Y1058851D01*
X783081Y1058957D01*
X783073Y1058952D01*
X783068Y1058956D01*
X781930Y1058749D01*
X781925Y1058743D01*
X781920Y1058746D01*
X780857Y1058291D01*
X780853Y1058284D01*
X780848Y1058286D01*
X779913Y1057606D01*
X779910Y1057598D01*
X779905Y1057599D01*
X779145Y1056728D01*
X779144Y1056720D01*
X779138Y1056719D01*
X778591Y1055700D01*
X778592Y1055692D01*
X778587Y1055690D01*
X778583Y1055677D01*
X778570Y1055628D01*
X778556Y1055579D01*
X778543Y1055529D01*
X778529Y1055480D01*
X778516Y1055431D01*
X778502Y1055382D01*
X778489Y1055332D01*
X778475Y1055283D01*
X778461Y1055234D01*
X778299Y1054643D01*
X778285Y1054594D01*
X778280Y1054576D01*
X778283Y1054568D01*
X778278Y1054565D01*
X778227Y1053410D01*
X778228Y1053409D01*
X778227Y1053408D01*
X778227Y1047408D01*
X778231Y1047402D01*
X778228Y1047399D01*
X778440Y1046318D01*
X778446Y1046313D01*
X778443Y1046308D01*
X778890Y1045302D01*
X778897Y1045298D01*
X778896Y1045292D01*
X779555Y1044411D01*
X779563Y1044408D01*
X779563Y1044403D01*
X780402Y1043690D01*
X780410Y1043690D01*
X780411Y1043684D01*
X781388Y1043176D01*
X781396Y1043177D01*
X781398Y1043172D01*
X782464Y1042894D01*
X782471Y1042897D01*
X782475Y1042893D01*
X783575Y1042859D01*
X783580Y1042863D01*
G37*
G36*
X248504Y261432D02*
X248504Y261432D01*
X248507Y261428D01*
X249583Y261583D01*
X249588Y261589D01*
X249593Y261586D01*
X250607Y261976D01*
X250611Y261983D01*
X250617Y261982D01*
X251519Y262588D01*
X251521Y262596D01*
X251527Y262595D01*
X252271Y263387D01*
X252272Y263395D01*
X252278Y263395D01*
X252827Y264333D01*
X252826Y264341D01*
X252832Y264343D01*
X253159Y265379D01*
X253156Y265387D01*
X253161Y265390D01*
X253249Y266473D01*
X253247Y266476D01*
X253249Y266477D01*
X253249Y272477D01*
X253246Y272481D01*
X253249Y272483D01*
X253099Y273616D01*
X253093Y273622D01*
X253096Y273627D01*
X252698Y274697D01*
X252691Y274701D01*
X252693Y274707D01*
X252066Y275662D01*
X252058Y275665D01*
X252059Y275670D01*
X251236Y276462D01*
X251228Y276463D01*
X251227Y276469D01*
X250248Y277058D01*
X250240Y277057D01*
X250238Y277062D01*
X249153Y277418D01*
X249145Y277416D01*
X249142Y277420D01*
X248005Y277526D01*
X247996Y277521D01*
X247991Y277525D01*
X246854Y277318D01*
X246848Y277312D01*
X246843Y277315D01*
X245781Y276860D01*
X245777Y276853D01*
X245771Y276855D01*
X244836Y276175D01*
X244834Y276167D01*
X244828Y276168D01*
X244068Y275297D01*
X244068Y275289D01*
X244062Y275288D01*
X243515Y274269D01*
X243516Y274261D01*
X243511Y274259D01*
X243507Y274246D01*
X243494Y274197D01*
X243493Y274197D01*
X243494Y274197D01*
X243480Y274148D01*
X243466Y274098D01*
X243453Y274049D01*
X243439Y274000D01*
X243426Y273951D01*
X243412Y273901D01*
X243399Y273852D01*
X243385Y273803D01*
X243222Y273212D01*
X243209Y273163D01*
X243204Y273145D01*
X243207Y273137D01*
X243202Y273134D01*
X243151Y271979D01*
X243152Y271978D01*
X243151Y271977D01*
X243151Y265977D01*
X243155Y265971D01*
X243152Y265968D01*
X243364Y264887D01*
X243370Y264882D01*
X243367Y264877D01*
X243814Y263871D01*
X243821Y263867D01*
X243819Y263861D01*
X244479Y262980D01*
X244487Y262977D01*
X244487Y262972D01*
X245326Y262259D01*
X245334Y262259D01*
X245335Y262253D01*
X246312Y261745D01*
X246320Y261746D01*
X246322Y261741D01*
X247387Y261463D01*
X247395Y261466D01*
X247398Y261462D01*
X248499Y261428D01*
X248504Y261432D01*
G37*
G36*
X783580Y261432D02*
X783580Y261432D01*
X783583Y261428D01*
X784659Y261583D01*
X784665Y261589D01*
X784670Y261586D01*
X785684Y261976D01*
X785688Y261983D01*
X785693Y261982D01*
X786595Y262588D01*
X786598Y262596D01*
X786603Y262595D01*
X787348Y263387D01*
X787349Y263395D01*
X787354Y263395D01*
X787904Y264333D01*
X787903Y264341D01*
X787908Y264343D01*
X788235Y265379D01*
X788232Y265387D01*
X788237Y265390D01*
X788326Y266473D01*
X788324Y266476D01*
X788326Y266477D01*
X788326Y272477D01*
X788323Y272481D01*
X788325Y272483D01*
X788175Y273616D01*
X788169Y273622D01*
X788172Y273627D01*
X787774Y274697D01*
X787767Y274701D01*
X787769Y274707D01*
X787143Y275662D01*
X787135Y275665D01*
X787136Y275670D01*
X786312Y276462D01*
X786304Y276463D01*
X786303Y276469D01*
X785325Y277058D01*
X785316Y277057D01*
X785314Y277062D01*
X784229Y277418D01*
X784221Y277416D01*
X784218Y277420D01*
X783081Y277526D01*
X783073Y277521D01*
X783068Y277525D01*
X781930Y277318D01*
X781925Y277312D01*
X781920Y277315D01*
X780857Y276860D01*
X780853Y276853D01*
X780848Y276855D01*
X779913Y276175D01*
X779910Y276167D01*
X779905Y276168D01*
X779145Y275297D01*
X779144Y275289D01*
X779138Y275288D01*
X778591Y274269D01*
X778592Y274261D01*
X778587Y274259D01*
X778583Y274246D01*
X778570Y274197D01*
X778556Y274148D01*
X778543Y274098D01*
X778529Y274049D01*
X778516Y274000D01*
X778502Y273951D01*
X778489Y273901D01*
X778475Y273852D01*
X778461Y273803D01*
X778299Y273212D01*
X778285Y273163D01*
X778280Y273145D01*
X778283Y273137D01*
X778278Y273134D01*
X778227Y271979D01*
X778228Y271978D01*
X778227Y271977D01*
X778227Y265977D01*
X778231Y265971D01*
X778228Y265968D01*
X778440Y264887D01*
X778446Y264882D01*
X778443Y264877D01*
X778890Y263871D01*
X778897Y263867D01*
X778896Y263861D01*
X779555Y262980D01*
X779563Y262977D01*
X779563Y262972D01*
X780402Y262259D01*
X780410Y262259D01*
X780411Y262253D01*
X781388Y261745D01*
X781396Y261746D01*
X781398Y261741D01*
X782464Y261463D01*
X782471Y261466D01*
X782475Y261462D01*
X783575Y261428D01*
X783580Y261432D01*
G37*
G36*
X248504Y1042863D02*
X248504Y1042863D01*
X248507Y1042859D01*
X249583Y1043014D01*
X249588Y1043020D01*
X249593Y1043017D01*
X250607Y1043407D01*
X250611Y1043414D01*
X250617Y1043413D01*
X251519Y1044019D01*
X251521Y1044027D01*
X251527Y1044026D01*
X252271Y1044818D01*
X252272Y1044826D01*
X252278Y1044826D01*
X252827Y1045764D01*
X252826Y1045772D01*
X252832Y1045774D01*
X253159Y1046810D01*
X253156Y1046818D01*
X253161Y1046821D01*
X253249Y1047904D01*
X253247Y1047907D01*
X253249Y1047908D01*
X253249Y1053908D01*
X253246Y1053912D01*
X253249Y1053914D01*
X253099Y1055047D01*
X253093Y1055053D01*
X253096Y1055058D01*
X252698Y1056128D01*
X252691Y1056132D01*
X252693Y1056138D01*
X252066Y1057093D01*
X252058Y1057096D01*
X252059Y1057101D01*
X251236Y1057893D01*
X251228Y1057894D01*
X251227Y1057900D01*
X250248Y1058489D01*
X250240Y1058488D01*
X250238Y1058493D01*
X249153Y1058849D01*
X249145Y1058847D01*
X249142Y1058851D01*
X248005Y1058957D01*
X247996Y1058952D01*
X247991Y1058956D01*
X246854Y1058749D01*
X246848Y1058743D01*
X246843Y1058746D01*
X245781Y1058291D01*
X245777Y1058284D01*
X245771Y1058286D01*
X244836Y1057606D01*
X244834Y1057598D01*
X244828Y1057599D01*
X244068Y1056728D01*
X244068Y1056720D01*
X244062Y1056719D01*
X243515Y1055700D01*
X243516Y1055692D01*
X243511Y1055690D01*
X243507Y1055677D01*
X243494Y1055628D01*
X243493Y1055628D01*
X243494Y1055628D01*
X243480Y1055579D01*
X243466Y1055529D01*
X243453Y1055480D01*
X243439Y1055431D01*
X243426Y1055382D01*
X243412Y1055332D01*
X243399Y1055283D01*
X243385Y1055234D01*
X243222Y1054643D01*
X243209Y1054594D01*
X243204Y1054576D01*
X243207Y1054568D01*
X243202Y1054565D01*
X243151Y1053410D01*
X243152Y1053409D01*
X243151Y1053408D01*
X243151Y1047408D01*
X243155Y1047402D01*
X243152Y1047399D01*
X243364Y1046318D01*
X243370Y1046313D01*
X243367Y1046308D01*
X243814Y1045302D01*
X243821Y1045298D01*
X243819Y1045292D01*
X244479Y1044411D01*
X244487Y1044408D01*
X244487Y1044403D01*
X245326Y1043690D01*
X245334Y1043690D01*
X245335Y1043684D01*
X246312Y1043176D01*
X246320Y1043177D01*
X246322Y1043172D01*
X247387Y1042894D01*
X247395Y1042897D01*
X247398Y1042893D01*
X248499Y1042859D01*
X248504Y1042863D01*
G37*
G36*
X248504Y521909D02*
X248504Y521909D01*
X248507Y521905D01*
X249583Y522060D01*
X249588Y522066D01*
X249593Y522063D01*
X250607Y522453D01*
X250611Y522460D01*
X250617Y522459D01*
X251519Y523065D01*
X251521Y523073D01*
X251527Y523072D01*
X252271Y523864D01*
X252272Y523872D01*
X252278Y523872D01*
X252827Y524810D01*
X252826Y524818D01*
X252832Y524820D01*
X253159Y525856D01*
X253156Y525864D01*
X253161Y525867D01*
X253249Y526950D01*
X253247Y526953D01*
X253249Y526954D01*
X253249Y532954D01*
X253246Y532958D01*
X253249Y532960D01*
X253099Y534093D01*
X253093Y534099D01*
X253096Y534104D01*
X252698Y535174D01*
X252691Y535178D01*
X252693Y535184D01*
X252066Y536139D01*
X252058Y536142D01*
X252059Y536147D01*
X251236Y536939D01*
X251228Y536940D01*
X251227Y536946D01*
X250248Y537535D01*
X250240Y537534D01*
X250238Y537539D01*
X249153Y537895D01*
X249145Y537893D01*
X249142Y537897D01*
X248005Y538003D01*
X247996Y537998D01*
X247991Y538002D01*
X246854Y537795D01*
X246848Y537789D01*
X246843Y537792D01*
X245781Y537337D01*
X245777Y537330D01*
X245771Y537332D01*
X244836Y536652D01*
X244834Y536644D01*
X244828Y536645D01*
X244068Y535774D01*
X244068Y535766D01*
X244062Y535765D01*
X243515Y534746D01*
X243516Y534738D01*
X243511Y534736D01*
X243507Y534723D01*
X243494Y534674D01*
X243493Y534674D01*
X243494Y534674D01*
X243480Y534625D01*
X243466Y534575D01*
X243453Y534526D01*
X243439Y534477D01*
X243426Y534428D01*
X243412Y534378D01*
X243399Y534329D01*
X243385Y534280D01*
X243371Y534231D01*
X243358Y534181D01*
X243344Y534132D01*
X243331Y534083D01*
X243317Y534034D01*
X243304Y533984D01*
X243290Y533935D01*
X243277Y533886D01*
X243276Y533886D01*
X243263Y533837D01*
X243249Y533787D01*
X243204Y533622D01*
X243207Y533614D01*
X243202Y533611D01*
X243151Y532456D01*
X243152Y532455D01*
X243151Y532454D01*
X243151Y526454D01*
X243155Y526448D01*
X243152Y526445D01*
X243364Y525364D01*
X243370Y525359D01*
X243367Y525354D01*
X243814Y524348D01*
X243821Y524344D01*
X243819Y524338D01*
X244479Y523457D01*
X244487Y523454D01*
X244487Y523449D01*
X245326Y522736D01*
X245334Y522736D01*
X245335Y522730D01*
X246312Y522222D01*
X246320Y522223D01*
X246322Y522218D01*
X247387Y521940D01*
X247395Y521943D01*
X247398Y521939D01*
X248499Y521905D01*
X248504Y521909D01*
G37*
G36*
X783580Y521909D02*
X783580Y521909D01*
X783583Y521905D01*
X784659Y522060D01*
X784665Y522066D01*
X784670Y522063D01*
X785684Y522453D01*
X785688Y522460D01*
X785693Y522459D01*
X786595Y523065D01*
X786598Y523073D01*
X786603Y523072D01*
X787348Y523864D01*
X787349Y523872D01*
X787354Y523872D01*
X787904Y524810D01*
X787903Y524818D01*
X787908Y524820D01*
X788235Y525856D01*
X788232Y525864D01*
X788237Y525867D01*
X788326Y526950D01*
X788324Y526953D01*
X788326Y526954D01*
X788326Y532954D01*
X788323Y532958D01*
X788325Y532960D01*
X788175Y534093D01*
X788169Y534099D01*
X788172Y534104D01*
X787774Y535174D01*
X787767Y535178D01*
X787769Y535184D01*
X787143Y536139D01*
X787135Y536142D01*
X787136Y536147D01*
X786312Y536939D01*
X786304Y536940D01*
X786303Y536946D01*
X785325Y537535D01*
X785316Y537534D01*
X785314Y537539D01*
X784229Y537895D01*
X784221Y537893D01*
X784218Y537897D01*
X783081Y538003D01*
X783073Y537998D01*
X783068Y538002D01*
X781930Y537795D01*
X781925Y537789D01*
X781920Y537792D01*
X780857Y537337D01*
X780853Y537330D01*
X780848Y537332D01*
X779913Y536652D01*
X779910Y536644D01*
X779905Y536645D01*
X779145Y535774D01*
X779144Y535766D01*
X779138Y535765D01*
X778591Y534746D01*
X778592Y534738D01*
X778587Y534736D01*
X778583Y534723D01*
X778570Y534674D01*
X778556Y534625D01*
X778543Y534575D01*
X778529Y534526D01*
X778516Y534477D01*
X778502Y534428D01*
X778489Y534378D01*
X778475Y534329D01*
X778461Y534280D01*
X778448Y534231D01*
X778434Y534181D01*
X778421Y534132D01*
X778407Y534083D01*
X778394Y534034D01*
X778380Y533984D01*
X778366Y533935D01*
X778353Y533886D01*
X778339Y533837D01*
X778326Y533787D01*
X778280Y533622D01*
X778283Y533614D01*
X778278Y533611D01*
X778227Y532456D01*
X778228Y532455D01*
X778227Y532454D01*
X778227Y526454D01*
X778231Y526448D01*
X778228Y526445D01*
X778440Y525364D01*
X778446Y525359D01*
X778443Y525354D01*
X778890Y524348D01*
X778897Y524344D01*
X778896Y524338D01*
X779555Y523457D01*
X779563Y523454D01*
X779563Y523449D01*
X780402Y522736D01*
X780410Y522736D01*
X780411Y522730D01*
X781388Y522222D01*
X781396Y522223D01*
X781398Y522218D01*
X782464Y521940D01*
X782471Y521943D01*
X782475Y521939D01*
X783575Y521905D01*
X783580Y521909D01*
G37*
G36*
X783580Y1303365D02*
X783580Y1303365D01*
X783583Y1303362D01*
X784659Y1303517D01*
X784665Y1303522D01*
X784670Y1303519D01*
X785684Y1303910D01*
X785688Y1303917D01*
X785693Y1303915D01*
X786595Y1304521D01*
X786598Y1304529D01*
X786603Y1304528D01*
X787348Y1305320D01*
X787349Y1305328D01*
X787354Y1305329D01*
X787904Y1306266D01*
X787903Y1306274D01*
X787908Y1306276D01*
X788235Y1307313D01*
X788232Y1307320D01*
X788237Y1307323D01*
X788326Y1308406D01*
X788324Y1308409D01*
X788326Y1308410D01*
X788326Y1314410D01*
X788323Y1314414D01*
X788325Y1314417D01*
X788175Y1315549D01*
X788169Y1315555D01*
X788172Y1315560D01*
X787774Y1316631D01*
X787767Y1316635D01*
X787769Y1316640D01*
X787143Y1317595D01*
X787135Y1317598D01*
X787136Y1317604D01*
X786312Y1318396D01*
X786304Y1318397D01*
X786303Y1318402D01*
X785325Y1318991D01*
X785316Y1318990D01*
X785314Y1318996D01*
X784229Y1319352D01*
X784221Y1319349D01*
X784218Y1319354D01*
X783081Y1319459D01*
X783073Y1319454D01*
X783068Y1319459D01*
X781930Y1319252D01*
X781925Y1319246D01*
X781920Y1319249D01*
X780857Y1318794D01*
X780853Y1318787D01*
X780848Y1318788D01*
X779913Y1318108D01*
X779910Y1318101D01*
X779905Y1318101D01*
X779145Y1317230D01*
X779144Y1317222D01*
X779138Y1317221D01*
X778591Y1316203D01*
X778592Y1316195D01*
X778587Y1316193D01*
X778583Y1316180D01*
X778583Y1316179D01*
X778570Y1316130D01*
X778556Y1316081D01*
X778543Y1316032D01*
X778529Y1315983D01*
X778529Y1315982D01*
X778516Y1315933D01*
X778502Y1315884D01*
X778489Y1315835D01*
X778475Y1315786D01*
X778475Y1315785D01*
X778461Y1315736D01*
X778448Y1315687D01*
X778434Y1315638D01*
X778421Y1315589D01*
X778421Y1315588D01*
X778407Y1315539D01*
X778394Y1315490D01*
X778380Y1315441D01*
X778366Y1315392D01*
X778366Y1315391D01*
X778353Y1315342D01*
X778339Y1315293D01*
X778326Y1315244D01*
X778280Y1315078D01*
X778283Y1315071D01*
X778278Y1315067D01*
X778227Y1313913D01*
X778228Y1313911D01*
X778227Y1313910D01*
X778227Y1307910D01*
X778231Y1307905D01*
X778228Y1307901D01*
X778440Y1306821D01*
X778446Y1306815D01*
X778443Y1306810D01*
X778890Y1305804D01*
X778897Y1305800D01*
X778896Y1305795D01*
X779555Y1304913D01*
X779563Y1304911D01*
X779563Y1304905D01*
X780402Y1304193D01*
X780410Y1304192D01*
X780411Y1304186D01*
X781388Y1303678D01*
X781396Y1303680D01*
X781398Y1303674D01*
X782464Y1303397D01*
X782471Y1303400D01*
X782475Y1303395D01*
X783575Y1303361D01*
X783580Y1303365D01*
G37*
G36*
X248504Y1303365D02*
X248504Y1303365D01*
X248507Y1303362D01*
X249583Y1303517D01*
X249588Y1303522D01*
X249593Y1303519D01*
X250607Y1303910D01*
X250611Y1303917D01*
X250617Y1303915D01*
X251519Y1304521D01*
X251521Y1304529D01*
X251527Y1304528D01*
X252271Y1305320D01*
X252272Y1305328D01*
X252278Y1305329D01*
X252827Y1306266D01*
X252826Y1306274D01*
X252832Y1306276D01*
X253159Y1307313D01*
X253156Y1307320D01*
X253161Y1307323D01*
X253249Y1308406D01*
X253247Y1308409D01*
X253249Y1308410D01*
X253249Y1314410D01*
X253246Y1314414D01*
X253249Y1314417D01*
X253099Y1315549D01*
X253093Y1315555D01*
X253096Y1315560D01*
X252698Y1316631D01*
X252691Y1316635D01*
X252693Y1316640D01*
X252066Y1317595D01*
X252058Y1317598D01*
X252059Y1317604D01*
X251236Y1318396D01*
X251228Y1318397D01*
X251227Y1318402D01*
X250248Y1318991D01*
X250240Y1318990D01*
X250238Y1318996D01*
X249153Y1319352D01*
X249145Y1319349D01*
X249142Y1319354D01*
X248005Y1319459D01*
X247996Y1319454D01*
X247991Y1319459D01*
X246854Y1319252D01*
X246848Y1319246D01*
X246843Y1319249D01*
X245781Y1318794D01*
X245777Y1318787D01*
X245771Y1318788D01*
X244836Y1318108D01*
X244834Y1318101D01*
X244828Y1318101D01*
X244068Y1317230D01*
X244068Y1317222D01*
X244062Y1317221D01*
X243515Y1316203D01*
X243516Y1316195D01*
X243511Y1316193D01*
X243507Y1316180D01*
X243507Y1316179D01*
X243494Y1316130D01*
X243493Y1316130D01*
X243494Y1316130D01*
X243480Y1316081D01*
X243466Y1316032D01*
X243453Y1315983D01*
X243453Y1315982D01*
X243439Y1315933D01*
X243426Y1315884D01*
X243412Y1315835D01*
X243399Y1315786D01*
X243399Y1315785D01*
X243385Y1315736D01*
X243371Y1315687D01*
X243358Y1315638D01*
X243344Y1315589D01*
X243344Y1315588D01*
X243331Y1315539D01*
X243317Y1315490D01*
X243304Y1315441D01*
X243290Y1315392D01*
X243290Y1315391D01*
X243277Y1315342D01*
X243276Y1315342D01*
X243263Y1315293D01*
X243249Y1315244D01*
X243204Y1315078D01*
X243207Y1315071D01*
X243202Y1315067D01*
X243151Y1313913D01*
X243152Y1313911D01*
X243151Y1313910D01*
X243151Y1307910D01*
X243155Y1307905D01*
X243152Y1307901D01*
X243364Y1306821D01*
X243370Y1306815D01*
X243367Y1306810D01*
X243814Y1305804D01*
X243821Y1305800D01*
X243819Y1305795D01*
X244479Y1304913D01*
X244487Y1304911D01*
X244487Y1304905D01*
X245326Y1304193D01*
X245334Y1304192D01*
X245335Y1304186D01*
X246312Y1303678D01*
X246320Y1303680D01*
X246322Y1303674D01*
X247387Y1303397D01*
X247395Y1303400D01*
X247398Y1303395D01*
X248499Y1303361D01*
X248504Y1303365D01*
G37*
G36*
X248504Y1563842D02*
X248504Y1563842D01*
X248507Y1563839D01*
X249583Y1563994D01*
X249588Y1563999D01*
X249593Y1563996D01*
X250607Y1564387D01*
X250611Y1564394D01*
X250617Y1564392D01*
X251519Y1564998D01*
X251521Y1565006D01*
X251527Y1565005D01*
X252271Y1565797D01*
X252272Y1565805D01*
X252278Y1565806D01*
X252827Y1566743D01*
X252826Y1566751D01*
X252832Y1566753D01*
X253159Y1567790D01*
X253156Y1567797D01*
X253161Y1567800D01*
X253249Y1568883D01*
X253247Y1568886D01*
X253249Y1568887D01*
X253249Y1574887D01*
X253246Y1574891D01*
X253249Y1574894D01*
X253099Y1576026D01*
X253093Y1576032D01*
X253096Y1576037D01*
X252698Y1577108D01*
X252691Y1577112D01*
X252693Y1577117D01*
X252066Y1578072D01*
X252058Y1578075D01*
X252059Y1578081D01*
X251236Y1578873D01*
X251228Y1578874D01*
X251227Y1578879D01*
X250248Y1579468D01*
X250240Y1579467D01*
X250238Y1579473D01*
X249153Y1579829D01*
X249145Y1579826D01*
X249142Y1579831D01*
X248005Y1579936D01*
X247996Y1579931D01*
X247991Y1579936D01*
X246854Y1579729D01*
X246848Y1579723D01*
X246843Y1579726D01*
X245781Y1579271D01*
X245777Y1579264D01*
X245771Y1579265D01*
X244836Y1578585D01*
X244834Y1578578D01*
X244828Y1578578D01*
X244068Y1577707D01*
X244068Y1577699D01*
X244062Y1577698D01*
X243515Y1576680D01*
X243516Y1576672D01*
X243511Y1576670D01*
X243507Y1576657D01*
X243507Y1576656D01*
X243494Y1576607D01*
X243493Y1576607D01*
X243494Y1576607D01*
X243480Y1576558D01*
X243466Y1576509D01*
X243453Y1576460D01*
X243453Y1576459D01*
X243439Y1576410D01*
X243426Y1576361D01*
X243412Y1576312D01*
X243399Y1576263D01*
X243399Y1576262D01*
X243385Y1576213D01*
X243371Y1576164D01*
X243358Y1576115D01*
X243344Y1576066D01*
X243344Y1576065D01*
X243331Y1576016D01*
X243317Y1575967D01*
X243304Y1575918D01*
X243290Y1575869D01*
X243290Y1575868D01*
X243277Y1575819D01*
X243276Y1575819D01*
X243263Y1575770D01*
X243249Y1575721D01*
X243204Y1575555D01*
X243207Y1575548D01*
X243202Y1575544D01*
X243151Y1574390D01*
X243152Y1574388D01*
X243151Y1574387D01*
X243151Y1568387D01*
X243155Y1568382D01*
X243152Y1568378D01*
X243364Y1567298D01*
X243370Y1567292D01*
X243367Y1567287D01*
X243814Y1566281D01*
X243821Y1566277D01*
X243819Y1566272D01*
X244479Y1565390D01*
X244487Y1565388D01*
X244487Y1565382D01*
X245326Y1564670D01*
X245334Y1564669D01*
X245335Y1564663D01*
X246312Y1564155D01*
X246320Y1564157D01*
X246322Y1564151D01*
X247387Y1563874D01*
X247395Y1563877D01*
X247398Y1563872D01*
X248499Y1563838D01*
X248504Y1563842D01*
G37*
G36*
X248504Y782386D02*
X248504Y782386D01*
X248507Y782382D01*
X249583Y782537D01*
X249588Y782543D01*
X249593Y782540D01*
X250607Y782930D01*
X250611Y782937D01*
X250617Y782936D01*
X251519Y783542D01*
X251521Y783550D01*
X251527Y783549D01*
X252271Y784341D01*
X252272Y784349D01*
X252278Y784349D01*
X252827Y785287D01*
X252826Y785295D01*
X252832Y785297D01*
X253159Y786333D01*
X253156Y786341D01*
X253161Y786344D01*
X253249Y787427D01*
X253247Y787430D01*
X253249Y787431D01*
X253249Y793431D01*
X253246Y793435D01*
X253249Y793437D01*
X253099Y794570D01*
X253093Y794576D01*
X253096Y794581D01*
X252698Y795651D01*
X252691Y795655D01*
X252693Y795661D01*
X252066Y796616D01*
X252058Y796619D01*
X252059Y796624D01*
X251236Y797416D01*
X251228Y797417D01*
X251227Y797423D01*
X250248Y798012D01*
X250240Y798011D01*
X250238Y798016D01*
X249153Y798372D01*
X249145Y798370D01*
X249142Y798374D01*
X248005Y798480D01*
X247996Y798475D01*
X247991Y798479D01*
X246854Y798272D01*
X246848Y798266D01*
X246843Y798269D01*
X245781Y797814D01*
X245777Y797807D01*
X245771Y797809D01*
X244836Y797129D01*
X244834Y797121D01*
X244828Y797122D01*
X244068Y796251D01*
X244068Y796243D01*
X244062Y796242D01*
X243515Y795223D01*
X243516Y795215D01*
X243511Y795213D01*
X243507Y795200D01*
X243494Y795151D01*
X243493Y795151D01*
X243494Y795151D01*
X243480Y795102D01*
X243466Y795052D01*
X243453Y795003D01*
X243439Y794954D01*
X243426Y794905D01*
X243412Y794855D01*
X243399Y794806D01*
X243385Y794757D01*
X243371Y794708D01*
X243358Y794658D01*
X243344Y794609D01*
X243331Y794560D01*
X243317Y794511D01*
X243304Y794461D01*
X243290Y794412D01*
X243277Y794363D01*
X243276Y794363D01*
X243263Y794314D01*
X243249Y794264D01*
X243204Y794099D01*
X243207Y794091D01*
X243202Y794088D01*
X243151Y792933D01*
X243152Y792932D01*
X243151Y792931D01*
X243151Y786931D01*
X243155Y786925D01*
X243152Y786922D01*
X243364Y785841D01*
X243370Y785836D01*
X243367Y785831D01*
X243814Y784825D01*
X243821Y784821D01*
X243819Y784815D01*
X244479Y783934D01*
X244487Y783931D01*
X244487Y783926D01*
X245326Y783213D01*
X245334Y783213D01*
X245335Y783207D01*
X246312Y782699D01*
X246320Y782700D01*
X246322Y782695D01*
X247387Y782417D01*
X247395Y782420D01*
X247398Y782416D01*
X248499Y782382D01*
X248504Y782386D01*
G37*
G36*
X783580Y782386D02*
X783580Y782386D01*
X783583Y782382D01*
X784659Y782537D01*
X784665Y782543D01*
X784670Y782540D01*
X785684Y782930D01*
X785688Y782937D01*
X785693Y782936D01*
X786595Y783542D01*
X786598Y783550D01*
X786603Y783549D01*
X787348Y784341D01*
X787349Y784349D01*
X787354Y784349D01*
X787904Y785287D01*
X787903Y785295D01*
X787908Y785297D01*
X788235Y786333D01*
X788232Y786341D01*
X788237Y786344D01*
X788326Y787427D01*
X788324Y787430D01*
X788326Y787431D01*
X788326Y793431D01*
X788323Y793435D01*
X788325Y793437D01*
X788175Y794570D01*
X788169Y794576D01*
X788172Y794581D01*
X787774Y795651D01*
X787767Y795655D01*
X787769Y795661D01*
X787143Y796616D01*
X787135Y796619D01*
X787136Y796624D01*
X786312Y797416D01*
X786304Y797417D01*
X786303Y797423D01*
X785325Y798012D01*
X785316Y798011D01*
X785314Y798016D01*
X784229Y798372D01*
X784221Y798370D01*
X784218Y798374D01*
X783081Y798480D01*
X783073Y798475D01*
X783068Y798479D01*
X781930Y798272D01*
X781925Y798266D01*
X781920Y798269D01*
X780857Y797814D01*
X780853Y797807D01*
X780848Y797809D01*
X779913Y797129D01*
X779910Y797121D01*
X779905Y797122D01*
X779145Y796251D01*
X779144Y796243D01*
X779138Y796242D01*
X778591Y795223D01*
X778592Y795215D01*
X778587Y795213D01*
X778583Y795200D01*
X778570Y795151D01*
X778556Y795102D01*
X778543Y795052D01*
X778529Y795003D01*
X778516Y794954D01*
X778502Y794905D01*
X778489Y794855D01*
X778475Y794806D01*
X778461Y794757D01*
X778448Y794708D01*
X778434Y794658D01*
X778421Y794609D01*
X778407Y794560D01*
X778394Y794511D01*
X778380Y794461D01*
X778366Y794412D01*
X778353Y794363D01*
X778339Y794314D01*
X778326Y794264D01*
X778280Y794099D01*
X778283Y794091D01*
X778278Y794088D01*
X778227Y792933D01*
X778228Y792932D01*
X778227Y792931D01*
X778227Y786931D01*
X778231Y786925D01*
X778228Y786922D01*
X778440Y785841D01*
X778446Y785836D01*
X778443Y785831D01*
X778890Y784825D01*
X778897Y784821D01*
X778896Y784815D01*
X779555Y783934D01*
X779563Y783931D01*
X779563Y783926D01*
X780402Y783213D01*
X780410Y783213D01*
X780411Y783207D01*
X781388Y782699D01*
X781396Y782700D01*
X781398Y782695D01*
X782464Y782417D01*
X782471Y782420D01*
X782475Y782416D01*
X783575Y782382D01*
X783580Y782386D01*
G37*
G36*
X783580Y1563842D02*
X783580Y1563842D01*
X783583Y1563839D01*
X784659Y1563994D01*
X784665Y1563999D01*
X784670Y1563996D01*
X785684Y1564387D01*
X785688Y1564394D01*
X785693Y1564392D01*
X786595Y1564998D01*
X786598Y1565006D01*
X786603Y1565005D01*
X787348Y1565797D01*
X787349Y1565805D01*
X787354Y1565806D01*
X787904Y1566743D01*
X787903Y1566751D01*
X787908Y1566753D01*
X788235Y1567790D01*
X788232Y1567797D01*
X788237Y1567800D01*
X788326Y1568883D01*
X788324Y1568886D01*
X788326Y1568887D01*
X788326Y1574887D01*
X788323Y1574891D01*
X788325Y1574894D01*
X788175Y1576026D01*
X788169Y1576032D01*
X788172Y1576037D01*
X787774Y1577108D01*
X787767Y1577112D01*
X787769Y1577117D01*
X787143Y1578072D01*
X787135Y1578075D01*
X787136Y1578081D01*
X786312Y1578873D01*
X786304Y1578874D01*
X786303Y1578879D01*
X785325Y1579468D01*
X785316Y1579467D01*
X785314Y1579473D01*
X784229Y1579829D01*
X784221Y1579826D01*
X784218Y1579831D01*
X783081Y1579936D01*
X783073Y1579931D01*
X783068Y1579936D01*
X781930Y1579729D01*
X781925Y1579723D01*
X781920Y1579726D01*
X780857Y1579271D01*
X780853Y1579264D01*
X780848Y1579265D01*
X779913Y1578585D01*
X779910Y1578578D01*
X779905Y1578578D01*
X779145Y1577707D01*
X779144Y1577699D01*
X779138Y1577698D01*
X778591Y1576680D01*
X778592Y1576672D01*
X778587Y1576670D01*
X778583Y1576657D01*
X778583Y1576656D01*
X778570Y1576607D01*
X778556Y1576558D01*
X778543Y1576509D01*
X778529Y1576460D01*
X778529Y1576459D01*
X778516Y1576410D01*
X778502Y1576361D01*
X778489Y1576312D01*
X778475Y1576263D01*
X778475Y1576262D01*
X778461Y1576213D01*
X778448Y1576164D01*
X778434Y1576115D01*
X778421Y1576066D01*
X778421Y1576065D01*
X778407Y1576016D01*
X778394Y1575967D01*
X778380Y1575918D01*
X778366Y1575869D01*
X778366Y1575868D01*
X778353Y1575819D01*
X778339Y1575770D01*
X778326Y1575721D01*
X778280Y1575555D01*
X778283Y1575548D01*
X778278Y1575544D01*
X778227Y1574390D01*
X778228Y1574388D01*
X778227Y1574387D01*
X778227Y1568387D01*
X778231Y1568382D01*
X778228Y1568378D01*
X778440Y1567298D01*
X778446Y1567292D01*
X778443Y1567287D01*
X778890Y1566281D01*
X778897Y1566277D01*
X778896Y1566272D01*
X779555Y1565390D01*
X779563Y1565388D01*
X779563Y1565382D01*
X780402Y1564670D01*
X780410Y1564669D01*
X780411Y1564663D01*
X781388Y1564155D01*
X781396Y1564157D01*
X781398Y1564151D01*
X782464Y1563874D01*
X782471Y1563877D01*
X782475Y1563872D01*
X783575Y1563838D01*
X783580Y1563842D01*
G37*
G36*
X783580Y955D02*
X783580Y955D01*
X783583Y951D01*
X784659Y1106D01*
X784665Y1112D01*
X784670Y1109D01*
X785684Y1499D01*
X785688Y1506D01*
X785693Y1505D01*
X786595Y2111D01*
X786598Y2119D01*
X786603Y2118D01*
X787348Y2910D01*
X787349Y2918D01*
X787354Y2918D01*
X787904Y3856D01*
X787903Y3864D01*
X787908Y3866D01*
X788235Y4902D01*
X788232Y4910D01*
X788237Y4913D01*
X788326Y5996D01*
X788324Y5999D01*
X788326Y6000D01*
X788326Y12000D01*
X788323Y12004D01*
X788325Y12006D01*
X788175Y13139D01*
X788169Y13145D01*
X788172Y13150D01*
X787774Y14220D01*
X787767Y14224D01*
X787769Y14230D01*
X787143Y15185D01*
X787135Y15188D01*
X787136Y15193D01*
X786312Y15985D01*
X786304Y15986D01*
X786303Y15992D01*
X785325Y16581D01*
X785316Y16580D01*
X785314Y16585D01*
X784229Y16941D01*
X784221Y16939D01*
X784218Y16943D01*
X783081Y17049D01*
X783073Y17044D01*
X783068Y17048D01*
X781930Y16841D01*
X781925Y16835D01*
X781920Y16838D01*
X780857Y16383D01*
X780853Y16376D01*
X780848Y16378D01*
X779913Y15698D01*
X779910Y15690D01*
X779905Y15691D01*
X779145Y14820D01*
X779144Y14812D01*
X779138Y14811D01*
X778591Y13792D01*
X778592Y13784D01*
X778587Y13782D01*
X778583Y13769D01*
X778570Y13720D01*
X778556Y13671D01*
X778543Y13621D01*
X778529Y13572D01*
X778516Y13523D01*
X778502Y13474D01*
X778489Y13424D01*
X778475Y13375D01*
X778461Y13326D01*
X778448Y13277D01*
X778434Y13227D01*
X778421Y13178D01*
X778407Y13129D01*
X778394Y13080D01*
X778380Y13030D01*
X778366Y12981D01*
X778353Y12932D01*
X778339Y12883D01*
X778326Y12833D01*
X778280Y12668D01*
X778283Y12660D01*
X778278Y12657D01*
X778227Y11502D01*
X778228Y11501D01*
X778227Y11500D01*
X778227Y5500D01*
X778231Y5494D01*
X778228Y5491D01*
X778440Y4410D01*
X778446Y4405D01*
X778443Y4400D01*
X778890Y3394D01*
X778897Y3390D01*
X778896Y3384D01*
X779555Y2503D01*
X779563Y2500D01*
X779563Y2495D01*
X780402Y1782D01*
X780410Y1782D01*
X780411Y1776D01*
X781388Y1268D01*
X781396Y1269D01*
X781398Y1264D01*
X782464Y986D01*
X782471Y989D01*
X782475Y985D01*
X783575Y951D01*
X783580Y955D01*
G37*
G36*
X248504Y955D02*
X248504Y955D01*
X248507Y951D01*
X249583Y1106D01*
X249588Y1112D01*
X249593Y1109D01*
X250607Y1499D01*
X250611Y1506D01*
X250617Y1505D01*
X251519Y2111D01*
X251521Y2119D01*
X251527Y2118D01*
X252271Y2910D01*
X252272Y2918D01*
X252278Y2918D01*
X252827Y3856D01*
X252826Y3864D01*
X252832Y3866D01*
X253159Y4902D01*
X253156Y4910D01*
X253161Y4913D01*
X253249Y5996D01*
X253247Y5999D01*
X253249Y6000D01*
X253249Y12000D01*
X253246Y12004D01*
X253249Y12006D01*
X253099Y13139D01*
X253093Y13145D01*
X253096Y13150D01*
X252698Y14220D01*
X252691Y14224D01*
X252693Y14230D01*
X252066Y15185D01*
X252058Y15188D01*
X252059Y15193D01*
X251236Y15985D01*
X251228Y15986D01*
X251227Y15992D01*
X250248Y16581D01*
X250240Y16580D01*
X250238Y16585D01*
X249153Y16941D01*
X249145Y16939D01*
X249142Y16943D01*
X248005Y17049D01*
X247996Y17044D01*
X247991Y17048D01*
X246854Y16841D01*
X246848Y16835D01*
X246843Y16838D01*
X245781Y16383D01*
X245777Y16376D01*
X245771Y16378D01*
X244836Y15698D01*
X244834Y15690D01*
X244828Y15691D01*
X244068Y14820D01*
X244068Y14812D01*
X244062Y14811D01*
X243515Y13792D01*
X243516Y13784D01*
X243511Y13782D01*
X243507Y13769D01*
X243494Y13720D01*
X243493Y13720D01*
X243494Y13720D01*
X243480Y13671D01*
X243466Y13621D01*
X243453Y13572D01*
X243439Y13523D01*
X243426Y13474D01*
X243412Y13424D01*
X243399Y13375D01*
X243385Y13326D01*
X243371Y13277D01*
X243358Y13227D01*
X243344Y13178D01*
X243331Y13129D01*
X243317Y13080D01*
X243304Y13030D01*
X243290Y12981D01*
X243277Y12932D01*
X243276Y12932D01*
X243263Y12883D01*
X243249Y12833D01*
X243204Y12668D01*
X243207Y12660D01*
X243202Y12657D01*
X243151Y11502D01*
X243152Y11501D01*
X243151Y11500D01*
X243151Y5500D01*
X243155Y5494D01*
X243152Y5491D01*
X243364Y4410D01*
X243370Y4405D01*
X243367Y4400D01*
X243814Y3394D01*
X243821Y3390D01*
X243819Y3384D01*
X244479Y2503D01*
X244487Y2500D01*
X244487Y2495D01*
X245326Y1782D01*
X245334Y1782D01*
X245335Y1776D01*
X246312Y1268D01*
X246320Y1269D01*
X246322Y1264D01*
X247387Y986D01*
X247395Y989D01*
X247398Y985D01*
X248499Y951D01*
X248504Y955D01*
G37*
G36*
X162002Y1042863D02*
X162002Y1042863D01*
X162007Y1042859D01*
X163094Y1043004D01*
X163100Y1043010D01*
X163105Y1043007D01*
X164133Y1043391D01*
X164138Y1043397D01*
X164143Y1043396D01*
X165060Y1043998D01*
X165063Y1044006D01*
X165069Y1044005D01*
X165829Y1044797D01*
X165830Y1044805D01*
X165836Y1044806D01*
X166400Y1045747D01*
X166400Y1045750D01*
X166401Y1045751D01*
X166400Y1045753D01*
X166399Y1045755D01*
X166405Y1045757D01*
X166746Y1046800D01*
X166744Y1046808D01*
X166748Y1046811D01*
X166849Y1047904D01*
X166847Y1047906D01*
X166849Y1047908D01*
X166849Y1053908D01*
X166847Y1053911D01*
X166849Y1053913D01*
X166748Y1055005D01*
X166743Y1055011D01*
X166746Y1055016D01*
X166405Y1056059D01*
X166398Y1056064D01*
X166400Y1056069D01*
X165836Y1057010D01*
X165828Y1057013D01*
X165829Y1057019D01*
X165069Y1057811D01*
X165061Y1057812D01*
X165060Y1057818D01*
X164143Y1058421D01*
X164135Y1058420D01*
X164133Y1058426D01*
X163105Y1058809D01*
X163097Y1058807D01*
X163094Y1058812D01*
X162007Y1058957D01*
X161999Y1058953D01*
X161995Y1058957D01*
X160858Y1058851D01*
X160852Y1058846D01*
X160847Y1058849D01*
X159762Y1058493D01*
X159757Y1058486D01*
X159752Y1058489D01*
X158773Y1057900D01*
X158770Y1057892D01*
X158764Y1057893D01*
X157941Y1057101D01*
X157940Y1057093D01*
X157934Y1057093D01*
X157307Y1056138D01*
X157308Y1056130D01*
X157302Y1056128D01*
X156904Y1055058D01*
X156906Y1055050D01*
X156901Y1055047D01*
X156751Y1053914D01*
X156754Y1053910D01*
X156751Y1053908D01*
X156751Y1047908D01*
X156754Y1047904D01*
X156751Y1047902D01*
X156901Y1046769D01*
X156907Y1046763D01*
X156904Y1046758D01*
X157302Y1045688D01*
X157309Y1045684D01*
X157307Y1045678D01*
X157934Y1044723D01*
X157942Y1044720D01*
X157941Y1044715D01*
X158764Y1043923D01*
X158772Y1043922D01*
X158773Y1043916D01*
X159752Y1043327D01*
X159760Y1043328D01*
X159762Y1043323D01*
X160847Y1042967D01*
X160855Y1042970D01*
X160858Y1042965D01*
X161995Y1042859D01*
X162002Y1042863D01*
G37*
G36*
X697079Y1042863D02*
X697079Y1042863D01*
X697083Y1042859D01*
X698171Y1043004D01*
X698177Y1043010D01*
X698181Y1043007D01*
X699210Y1043391D01*
X699214Y1043397D01*
X699220Y1043396D01*
X700137Y1043998D01*
X700140Y1044006D01*
X700145Y1044005D01*
X700905Y1044797D01*
X700906Y1044805D01*
X700912Y1044806D01*
X701477Y1045747D01*
X701476Y1045750D01*
X701477Y1045751D01*
X701476Y1045753D01*
X701476Y1045755D01*
X701481Y1045757D01*
X701823Y1046800D01*
X701820Y1046808D01*
X701825Y1046811D01*
X701925Y1047904D01*
X701924Y1047906D01*
X701926Y1047908D01*
X701926Y1053908D01*
X701924Y1053911D01*
X701925Y1053913D01*
X701825Y1055005D01*
X701819Y1055011D01*
X701823Y1055016D01*
X701481Y1056059D01*
X701475Y1056064D01*
X701477Y1056069D01*
X700912Y1057010D01*
X700904Y1057013D01*
X700905Y1057019D01*
X700145Y1057811D01*
X700137Y1057812D01*
X700137Y1057818D01*
X699220Y1058421D01*
X699211Y1058420D01*
X699210Y1058426D01*
X698181Y1058809D01*
X698174Y1058807D01*
X698171Y1058812D01*
X697083Y1058957D01*
X697076Y1058953D01*
X697072Y1058957D01*
X695934Y1058851D01*
X695928Y1058846D01*
X695924Y1058849D01*
X694838Y1058493D01*
X694834Y1058486D01*
X694828Y1058489D01*
X693849Y1057900D01*
X693846Y1057892D01*
X693841Y1057893D01*
X693017Y1057101D01*
X693016Y1057093D01*
X693010Y1057093D01*
X692384Y1056138D01*
X692384Y1056130D01*
X692379Y1056128D01*
X691980Y1055058D01*
X691983Y1055050D01*
X691978Y1055047D01*
X691828Y1053914D01*
X691830Y1053910D01*
X691827Y1053908D01*
X691827Y1047908D01*
X691830Y1047904D01*
X691828Y1047902D01*
X691978Y1046769D01*
X691983Y1046763D01*
X691980Y1046758D01*
X692379Y1045688D01*
X692386Y1045684D01*
X692384Y1045678D01*
X693010Y1044723D01*
X693018Y1044720D01*
X693017Y1044715D01*
X693841Y1043923D01*
X693849Y1043922D01*
X693849Y1043916D01*
X694828Y1043327D01*
X694836Y1043328D01*
X694838Y1043323D01*
X695924Y1042967D01*
X695931Y1042970D01*
X695934Y1042965D01*
X697072Y1042859D01*
X697079Y1042863D01*
G37*
G36*
X697079Y261432D02*
X697079Y261432D01*
X697083Y261428D01*
X698171Y261573D01*
X698177Y261579D01*
X698181Y261576D01*
X699210Y261960D01*
X699214Y261966D01*
X699220Y261965D01*
X700137Y262567D01*
X700140Y262575D01*
X700145Y262574D01*
X700905Y263366D01*
X700906Y263374D01*
X700912Y263375D01*
X701477Y264316D01*
X701476Y264319D01*
X701477Y264320D01*
X701476Y264322D01*
X701476Y264324D01*
X701481Y264326D01*
X701823Y265369D01*
X701820Y265377D01*
X701825Y265380D01*
X701925Y266473D01*
X701924Y266475D01*
X701926Y266477D01*
X701926Y272477D01*
X701924Y272480D01*
X701925Y272482D01*
X701825Y273574D01*
X701819Y273580D01*
X701823Y273585D01*
X701481Y274628D01*
X701475Y274633D01*
X701477Y274638D01*
X700912Y275579D01*
X700904Y275582D01*
X700905Y275588D01*
X700145Y276380D01*
X700137Y276381D01*
X700137Y276387D01*
X699220Y276990D01*
X699211Y276989D01*
X699210Y276995D01*
X698181Y277378D01*
X698174Y277376D01*
X698171Y277381D01*
X697083Y277526D01*
X697076Y277522D01*
X697072Y277526D01*
X695934Y277420D01*
X695928Y277415D01*
X695924Y277418D01*
X694838Y277062D01*
X694834Y277055D01*
X694828Y277058D01*
X693849Y276469D01*
X693846Y276461D01*
X693841Y276462D01*
X693017Y275670D01*
X693016Y275662D01*
X693010Y275662D01*
X692384Y274707D01*
X692384Y274699D01*
X692379Y274697D01*
X691980Y273627D01*
X691983Y273619D01*
X691978Y273616D01*
X691828Y272483D01*
X691830Y272479D01*
X691827Y272477D01*
X691827Y266477D01*
X691830Y266473D01*
X691828Y266471D01*
X691978Y265338D01*
X691983Y265332D01*
X691980Y265327D01*
X692379Y264257D01*
X692386Y264253D01*
X692384Y264247D01*
X693010Y263292D01*
X693018Y263289D01*
X693017Y263284D01*
X693841Y262492D01*
X693849Y262491D01*
X693849Y262485D01*
X694828Y261896D01*
X694836Y261897D01*
X694838Y261892D01*
X695924Y261536D01*
X695931Y261539D01*
X695934Y261534D01*
X697072Y261428D01*
X697079Y261432D01*
G37*
G36*
X162002Y261432D02*
X162002Y261432D01*
X162007Y261428D01*
X163094Y261573D01*
X163100Y261579D01*
X163105Y261576D01*
X164133Y261960D01*
X164138Y261966D01*
X164143Y261965D01*
X165060Y262567D01*
X165063Y262575D01*
X165069Y262574D01*
X165829Y263366D01*
X165830Y263374D01*
X165836Y263375D01*
X166400Y264316D01*
X166400Y264319D01*
X166401Y264320D01*
X166400Y264322D01*
X166399Y264324D01*
X166405Y264326D01*
X166746Y265369D01*
X166744Y265377D01*
X166748Y265380D01*
X166849Y266473D01*
X166847Y266475D01*
X166849Y266477D01*
X166849Y272477D01*
X166847Y272480D01*
X166849Y272482D01*
X166748Y273574D01*
X166743Y273580D01*
X166746Y273585D01*
X166405Y274628D01*
X166398Y274633D01*
X166400Y274638D01*
X165836Y275579D01*
X165828Y275582D01*
X165829Y275588D01*
X165069Y276380D01*
X165061Y276381D01*
X165060Y276387D01*
X164143Y276990D01*
X164135Y276989D01*
X164133Y276995D01*
X163105Y277378D01*
X163097Y277376D01*
X163094Y277381D01*
X162007Y277526D01*
X161999Y277522D01*
X161995Y277526D01*
X160858Y277420D01*
X160852Y277415D01*
X160847Y277418D01*
X159762Y277062D01*
X159757Y277055D01*
X159752Y277058D01*
X158773Y276469D01*
X158770Y276461D01*
X158764Y276462D01*
X157941Y275670D01*
X157940Y275662D01*
X157934Y275662D01*
X157307Y274707D01*
X157308Y274699D01*
X157302Y274697D01*
X156904Y273627D01*
X156906Y273619D01*
X156901Y273616D01*
X156751Y272483D01*
X156754Y272479D01*
X156751Y272477D01*
X156751Y266477D01*
X156754Y266473D01*
X156751Y266471D01*
X156901Y265338D01*
X156907Y265332D01*
X156904Y265327D01*
X157302Y264257D01*
X157309Y264253D01*
X157307Y264247D01*
X157934Y263292D01*
X157942Y263289D01*
X157941Y263284D01*
X158764Y262492D01*
X158772Y262491D01*
X158773Y262485D01*
X159752Y261896D01*
X159760Y261897D01*
X159762Y261892D01*
X160847Y261536D01*
X160855Y261539D01*
X160858Y261534D01*
X161995Y261428D01*
X162002Y261432D01*
G37*
G36*
X697079Y1303366D02*
X697079Y1303366D01*
X697083Y1303362D01*
X698171Y1303507D01*
X698177Y1303512D01*
X698181Y1303509D01*
X699210Y1303893D01*
X699214Y1303900D01*
X699220Y1303898D01*
X700137Y1304501D01*
X700140Y1304508D01*
X700145Y1304508D01*
X700905Y1305299D01*
X700906Y1305308D01*
X700912Y1305308D01*
X701477Y1306249D01*
X701476Y1306253D01*
X701477Y1306254D01*
X701476Y1306255D01*
X701476Y1306257D01*
X701481Y1306259D01*
X701823Y1307302D01*
X701820Y1307310D01*
X701825Y1307313D01*
X701925Y1308406D01*
X701924Y1308409D01*
X701926Y1308410D01*
X701926Y1314410D01*
X701924Y1314413D01*
X701925Y1314415D01*
X701825Y1315508D01*
X701819Y1315514D01*
X701823Y1315519D01*
X701481Y1316562D01*
X701475Y1316566D01*
X701477Y1316572D01*
X700912Y1317513D01*
X700904Y1317516D01*
X700905Y1317521D01*
X700145Y1318313D01*
X700137Y1318314D01*
X700137Y1318320D01*
X699220Y1318923D01*
X699211Y1318922D01*
X699210Y1318928D01*
X698181Y1319311D01*
X698174Y1319309D01*
X698171Y1319314D01*
X697083Y1319459D01*
X697076Y1319455D01*
X697072Y1319459D01*
X695934Y1319354D01*
X695928Y1319348D01*
X695924Y1319352D01*
X694838Y1318996D01*
X694834Y1318989D01*
X694828Y1318991D01*
X693849Y1318402D01*
X693846Y1318395D01*
X693841Y1318396D01*
X693017Y1317604D01*
X693016Y1317596D01*
X693010Y1317595D01*
X692384Y1316640D01*
X692384Y1316632D01*
X692379Y1316631D01*
X691980Y1315560D01*
X691983Y1315552D01*
X691978Y1315549D01*
X691828Y1314417D01*
X691830Y1314413D01*
X691827Y1314410D01*
X691827Y1308410D01*
X691830Y1308406D01*
X691828Y1308404D01*
X691978Y1307272D01*
X691983Y1307266D01*
X691980Y1307261D01*
X692379Y1306190D01*
X692386Y1306186D01*
X692384Y1306181D01*
X693010Y1305225D01*
X693018Y1305223D01*
X693017Y1305217D01*
X693841Y1304425D01*
X693849Y1304424D01*
X693849Y1304419D01*
X694828Y1303830D01*
X694836Y1303831D01*
X694838Y1303825D01*
X695924Y1303469D01*
X695931Y1303472D01*
X695934Y1303467D01*
X697072Y1303361D01*
X697079Y1303366D01*
G37*
G36*
X697079Y782386D02*
X697079Y782386D01*
X697083Y782382D01*
X698171Y782527D01*
X698177Y782533D01*
X698181Y782530D01*
X699210Y782914D01*
X699214Y782920D01*
X699220Y782919D01*
X700137Y783521D01*
X700140Y783529D01*
X700145Y783528D01*
X700905Y784320D01*
X700906Y784328D01*
X700912Y784329D01*
X701477Y785270D01*
X701476Y785273D01*
X701477Y785274D01*
X701476Y785276D01*
X701476Y785278D01*
X701481Y785280D01*
X701823Y786323D01*
X701820Y786331D01*
X701825Y786334D01*
X701925Y787427D01*
X701924Y787429D01*
X701926Y787431D01*
X701926Y793431D01*
X701924Y793434D01*
X701925Y793436D01*
X701825Y794528D01*
X701819Y794534D01*
X701823Y794539D01*
X701481Y795582D01*
X701475Y795587D01*
X701477Y795592D01*
X700912Y796533D01*
X700904Y796536D01*
X700905Y796542D01*
X700145Y797334D01*
X700137Y797335D01*
X700137Y797341D01*
X699220Y797944D01*
X699211Y797943D01*
X699210Y797949D01*
X698181Y798332D01*
X698174Y798330D01*
X698171Y798335D01*
X697083Y798480D01*
X697076Y798476D01*
X697072Y798480D01*
X695934Y798374D01*
X695928Y798369D01*
X695924Y798372D01*
X694838Y798016D01*
X694834Y798009D01*
X694828Y798012D01*
X693849Y797423D01*
X693846Y797415D01*
X693841Y797416D01*
X693017Y796624D01*
X693016Y796616D01*
X693010Y796616D01*
X692384Y795661D01*
X692384Y795653D01*
X692379Y795651D01*
X691980Y794581D01*
X691983Y794573D01*
X691978Y794570D01*
X691828Y793437D01*
X691830Y793433D01*
X691827Y793431D01*
X691827Y787431D01*
X691830Y787427D01*
X691828Y787425D01*
X691978Y786292D01*
X691983Y786286D01*
X691980Y786281D01*
X692379Y785211D01*
X692386Y785207D01*
X692384Y785201D01*
X693010Y784246D01*
X693018Y784243D01*
X693017Y784238D01*
X693841Y783446D01*
X693849Y783445D01*
X693849Y783439D01*
X694828Y782850D01*
X694836Y782851D01*
X694838Y782846D01*
X695924Y782490D01*
X695931Y782493D01*
X695934Y782488D01*
X697072Y782382D01*
X697079Y782386D01*
G37*
G36*
X697079Y521909D02*
X697079Y521909D01*
X697083Y521905D01*
X698171Y522050D01*
X698177Y522056D01*
X698181Y522053D01*
X699210Y522437D01*
X699214Y522443D01*
X699220Y522442D01*
X700137Y523044D01*
X700140Y523052D01*
X700145Y523051D01*
X700905Y523843D01*
X700906Y523851D01*
X700912Y523852D01*
X701477Y524793D01*
X701476Y524796D01*
X701477Y524797D01*
X701476Y524799D01*
X701476Y524801D01*
X701481Y524803D01*
X701823Y525846D01*
X701820Y525854D01*
X701825Y525857D01*
X701925Y526950D01*
X701924Y526952D01*
X701926Y526954D01*
X701926Y532954D01*
X701924Y532957D01*
X701925Y532959D01*
X701825Y534051D01*
X701819Y534057D01*
X701823Y534062D01*
X701481Y535105D01*
X701475Y535110D01*
X701477Y535115D01*
X700912Y536056D01*
X700904Y536059D01*
X700905Y536065D01*
X700145Y536857D01*
X700137Y536858D01*
X700137Y536864D01*
X699220Y537467D01*
X699211Y537466D01*
X699210Y537472D01*
X698181Y537855D01*
X698174Y537853D01*
X698171Y537858D01*
X697083Y538003D01*
X697076Y537999D01*
X697072Y538003D01*
X695934Y537897D01*
X695928Y537892D01*
X695924Y537895D01*
X694838Y537539D01*
X694834Y537532D01*
X694828Y537535D01*
X693849Y536946D01*
X693846Y536938D01*
X693841Y536939D01*
X693017Y536147D01*
X693016Y536139D01*
X693010Y536139D01*
X692384Y535184D01*
X692384Y535176D01*
X692379Y535174D01*
X691980Y534104D01*
X691983Y534096D01*
X691978Y534093D01*
X691828Y532960D01*
X691830Y532956D01*
X691827Y532954D01*
X691827Y526954D01*
X691830Y526950D01*
X691828Y526948D01*
X691978Y525815D01*
X691983Y525809D01*
X691980Y525804D01*
X692379Y524734D01*
X692386Y524730D01*
X692384Y524724D01*
X693010Y523769D01*
X693018Y523766D01*
X693017Y523761D01*
X693841Y522969D01*
X693849Y522968D01*
X693849Y522962D01*
X694828Y522373D01*
X694836Y522374D01*
X694838Y522369D01*
X695924Y522013D01*
X695931Y522016D01*
X695934Y522011D01*
X697072Y521905D01*
X697079Y521909D01*
G37*
G36*
X162002Y521909D02*
X162002Y521909D01*
X162007Y521905D01*
X163094Y522050D01*
X163100Y522056D01*
X163105Y522053D01*
X164133Y522437D01*
X164138Y522443D01*
X164143Y522442D01*
X165060Y523044D01*
X165063Y523052D01*
X165069Y523051D01*
X165829Y523843D01*
X165830Y523851D01*
X165836Y523852D01*
X166400Y524793D01*
X166400Y524796D01*
X166401Y524797D01*
X166400Y524799D01*
X166399Y524801D01*
X166405Y524803D01*
X166746Y525846D01*
X166744Y525854D01*
X166748Y525857D01*
X166849Y526950D01*
X166847Y526952D01*
X166849Y526954D01*
X166849Y532954D01*
X166847Y532957D01*
X166849Y532959D01*
X166748Y534051D01*
X166743Y534057D01*
X166746Y534062D01*
X166405Y535105D01*
X166398Y535110D01*
X166400Y535115D01*
X165836Y536056D01*
X165828Y536059D01*
X165829Y536065D01*
X165069Y536857D01*
X165061Y536858D01*
X165060Y536864D01*
X164143Y537467D01*
X164135Y537466D01*
X164133Y537472D01*
X163105Y537855D01*
X163097Y537853D01*
X163094Y537858D01*
X162007Y538003D01*
X161999Y537999D01*
X161995Y538003D01*
X160858Y537897D01*
X160852Y537892D01*
X160847Y537895D01*
X159762Y537539D01*
X159757Y537532D01*
X159752Y537535D01*
X158773Y536946D01*
X158770Y536938D01*
X158764Y536939D01*
X157941Y536147D01*
X157940Y536139D01*
X157934Y536139D01*
X157307Y535184D01*
X157308Y535176D01*
X157302Y535174D01*
X156904Y534104D01*
X156906Y534096D01*
X156901Y534093D01*
X156751Y532960D01*
X156754Y532956D01*
X156751Y532954D01*
X156751Y526954D01*
X156754Y526950D01*
X156751Y526948D01*
X156901Y525815D01*
X156907Y525809D01*
X156904Y525804D01*
X157302Y524734D01*
X157309Y524730D01*
X157307Y524724D01*
X157934Y523769D01*
X157942Y523766D01*
X157941Y523761D01*
X158764Y522969D01*
X158772Y522968D01*
X158773Y522962D01*
X159752Y522373D01*
X159760Y522374D01*
X159762Y522369D01*
X160847Y522013D01*
X160855Y522016D01*
X160858Y522011D01*
X161995Y521905D01*
X162002Y521909D01*
G37*
G36*
X162002Y1303366D02*
X162002Y1303366D01*
X162007Y1303362D01*
X163094Y1303507D01*
X163100Y1303512D01*
X163105Y1303509D01*
X164133Y1303893D01*
X164138Y1303900D01*
X164143Y1303898D01*
X165060Y1304501D01*
X165063Y1304508D01*
X165069Y1304508D01*
X165829Y1305299D01*
X165830Y1305308D01*
X165836Y1305308D01*
X166400Y1306249D01*
X166400Y1306253D01*
X166401Y1306254D01*
X166400Y1306255D01*
X166399Y1306257D01*
X166405Y1306259D01*
X166746Y1307302D01*
X166744Y1307310D01*
X166748Y1307313D01*
X166849Y1308406D01*
X166847Y1308409D01*
X166849Y1308410D01*
X166849Y1314410D01*
X166847Y1314413D01*
X166849Y1314415D01*
X166748Y1315508D01*
X166743Y1315514D01*
X166746Y1315519D01*
X166405Y1316562D01*
X166398Y1316566D01*
X166400Y1316572D01*
X165836Y1317513D01*
X165828Y1317516D01*
X165829Y1317521D01*
X165069Y1318313D01*
X165061Y1318314D01*
X165060Y1318320D01*
X164143Y1318923D01*
X164135Y1318922D01*
X164133Y1318928D01*
X163105Y1319311D01*
X163097Y1319309D01*
X163094Y1319314D01*
X162007Y1319459D01*
X161999Y1319455D01*
X161995Y1319459D01*
X160858Y1319354D01*
X160852Y1319348D01*
X160847Y1319352D01*
X159762Y1318996D01*
X159757Y1318989D01*
X159752Y1318991D01*
X158773Y1318402D01*
X158770Y1318395D01*
X158764Y1318396D01*
X157941Y1317604D01*
X157940Y1317596D01*
X157934Y1317595D01*
X157307Y1316640D01*
X157308Y1316632D01*
X157302Y1316631D01*
X156904Y1315560D01*
X156906Y1315552D01*
X156901Y1315549D01*
X156751Y1314417D01*
X156754Y1314413D01*
X156751Y1314410D01*
X156751Y1308410D01*
X156754Y1308406D01*
X156751Y1308404D01*
X156901Y1307272D01*
X156907Y1307266D01*
X156904Y1307261D01*
X157302Y1306190D01*
X157309Y1306186D01*
X157307Y1306181D01*
X157934Y1305225D01*
X157942Y1305223D01*
X157941Y1305217D01*
X158764Y1304425D01*
X158772Y1304424D01*
X158773Y1304419D01*
X159752Y1303830D01*
X159760Y1303831D01*
X159762Y1303825D01*
X160847Y1303469D01*
X160855Y1303472D01*
X160858Y1303467D01*
X161995Y1303361D01*
X162002Y1303366D01*
G37*
G36*
X697079Y1563843D02*
X697079Y1563843D01*
X697083Y1563839D01*
X698171Y1563984D01*
X698177Y1563989D01*
X698181Y1563986D01*
X699210Y1564370D01*
X699214Y1564377D01*
X699220Y1564375D01*
X700137Y1564978D01*
X700140Y1564985D01*
X700145Y1564985D01*
X700905Y1565776D01*
X700906Y1565785D01*
X700912Y1565785D01*
X701477Y1566726D01*
X701476Y1566730D01*
X701477Y1566731D01*
X701476Y1566732D01*
X701476Y1566734D01*
X701481Y1566736D01*
X701823Y1567779D01*
X701820Y1567787D01*
X701825Y1567790D01*
X701925Y1568883D01*
X701924Y1568886D01*
X701926Y1568887D01*
X701926Y1574887D01*
X701924Y1574890D01*
X701925Y1574892D01*
X701825Y1575985D01*
X701819Y1575991D01*
X701823Y1575996D01*
X701481Y1577039D01*
X701475Y1577043D01*
X701477Y1577049D01*
X700912Y1577990D01*
X700904Y1577993D01*
X700905Y1577998D01*
X700145Y1578790D01*
X700137Y1578791D01*
X700137Y1578797D01*
X699220Y1579400D01*
X699211Y1579399D01*
X699210Y1579405D01*
X698181Y1579788D01*
X698174Y1579786D01*
X698171Y1579791D01*
X697083Y1579936D01*
X697076Y1579932D01*
X697072Y1579936D01*
X695934Y1579831D01*
X695928Y1579825D01*
X695924Y1579829D01*
X694838Y1579473D01*
X694834Y1579466D01*
X694828Y1579468D01*
X693849Y1578879D01*
X693846Y1578872D01*
X693841Y1578873D01*
X693017Y1578081D01*
X693016Y1578073D01*
X693010Y1578072D01*
X692384Y1577117D01*
X692384Y1577109D01*
X692379Y1577108D01*
X691980Y1576037D01*
X691983Y1576029D01*
X691978Y1576026D01*
X691828Y1574894D01*
X691830Y1574890D01*
X691827Y1574887D01*
X691827Y1568887D01*
X691830Y1568883D01*
X691828Y1568881D01*
X691978Y1567749D01*
X691983Y1567743D01*
X691980Y1567738D01*
X692379Y1566667D01*
X692386Y1566663D01*
X692384Y1566658D01*
X693010Y1565702D01*
X693018Y1565700D01*
X693017Y1565694D01*
X693841Y1564902D01*
X693849Y1564901D01*
X693849Y1564896D01*
X694828Y1564307D01*
X694836Y1564308D01*
X694838Y1564302D01*
X695924Y1563946D01*
X695931Y1563949D01*
X695934Y1563944D01*
X697072Y1563838D01*
X697079Y1563843D01*
G37*
G36*
X162002Y1563843D02*
X162002Y1563843D01*
X162007Y1563839D01*
X163094Y1563984D01*
X163100Y1563989D01*
X163105Y1563986D01*
X164133Y1564370D01*
X164138Y1564377D01*
X164143Y1564375D01*
X165060Y1564978D01*
X165063Y1564985D01*
X165069Y1564985D01*
X165829Y1565776D01*
X165830Y1565785D01*
X165836Y1565785D01*
X166400Y1566726D01*
X166400Y1566730D01*
X166401Y1566731D01*
X166400Y1566732D01*
X166399Y1566734D01*
X166405Y1566736D01*
X166746Y1567779D01*
X166744Y1567787D01*
X166748Y1567790D01*
X166849Y1568883D01*
X166847Y1568886D01*
X166849Y1568887D01*
X166849Y1574887D01*
X166847Y1574890D01*
X166849Y1574892D01*
X166748Y1575985D01*
X166743Y1575991D01*
X166746Y1575996D01*
X166405Y1577039D01*
X166398Y1577043D01*
X166400Y1577049D01*
X165836Y1577990D01*
X165828Y1577993D01*
X165829Y1577998D01*
X165069Y1578790D01*
X165061Y1578791D01*
X165060Y1578797D01*
X164143Y1579400D01*
X164135Y1579399D01*
X164133Y1579405D01*
X163105Y1579788D01*
X163097Y1579786D01*
X163094Y1579791D01*
X162007Y1579936D01*
X161999Y1579932D01*
X161995Y1579936D01*
X160858Y1579831D01*
X160852Y1579825D01*
X160847Y1579829D01*
X159762Y1579473D01*
X159757Y1579466D01*
X159752Y1579468D01*
X158773Y1578879D01*
X158770Y1578872D01*
X158764Y1578873D01*
X157941Y1578081D01*
X157940Y1578073D01*
X157934Y1578072D01*
X157307Y1577117D01*
X157308Y1577109D01*
X157302Y1577108D01*
X156904Y1576037D01*
X156906Y1576029D01*
X156901Y1576026D01*
X156751Y1574894D01*
X156754Y1574890D01*
X156751Y1574887D01*
X156751Y1568887D01*
X156754Y1568883D01*
X156751Y1568881D01*
X156901Y1567749D01*
X156907Y1567743D01*
X156904Y1567738D01*
X157302Y1566667D01*
X157309Y1566663D01*
X157307Y1566658D01*
X157934Y1565702D01*
X157942Y1565700D01*
X157941Y1565694D01*
X158764Y1564902D01*
X158772Y1564901D01*
X158773Y1564896D01*
X159752Y1564307D01*
X159760Y1564308D01*
X159762Y1564302D01*
X160847Y1563946D01*
X160855Y1563949D01*
X160858Y1563944D01*
X161995Y1563838D01*
X162002Y1563843D01*
G37*
G36*
X162002Y782386D02*
X162002Y782386D01*
X162007Y782382D01*
X163094Y782527D01*
X163100Y782533D01*
X163105Y782530D01*
X164133Y782914D01*
X164138Y782920D01*
X164143Y782919D01*
X165060Y783521D01*
X165063Y783529D01*
X165069Y783528D01*
X165829Y784320D01*
X165830Y784328D01*
X165836Y784329D01*
X166400Y785270D01*
X166400Y785273D01*
X166401Y785274D01*
X166400Y785276D01*
X166399Y785278D01*
X166405Y785280D01*
X166746Y786323D01*
X166744Y786331D01*
X166748Y786334D01*
X166849Y787427D01*
X166847Y787429D01*
X166849Y787431D01*
X166849Y793431D01*
X166847Y793434D01*
X166849Y793436D01*
X166748Y794528D01*
X166743Y794534D01*
X166746Y794539D01*
X166405Y795582D01*
X166398Y795587D01*
X166400Y795592D01*
X165836Y796533D01*
X165828Y796536D01*
X165829Y796542D01*
X165069Y797334D01*
X165061Y797335D01*
X165060Y797341D01*
X164143Y797944D01*
X164135Y797943D01*
X164133Y797949D01*
X163105Y798332D01*
X163097Y798330D01*
X163094Y798335D01*
X162007Y798480D01*
X161999Y798476D01*
X161995Y798480D01*
X160858Y798374D01*
X160852Y798369D01*
X160847Y798372D01*
X159762Y798016D01*
X159757Y798009D01*
X159752Y798012D01*
X158773Y797423D01*
X158770Y797415D01*
X158764Y797416D01*
X157941Y796624D01*
X157940Y796616D01*
X157934Y796616D01*
X157307Y795661D01*
X157308Y795653D01*
X157302Y795651D01*
X156904Y794581D01*
X156906Y794573D01*
X156901Y794570D01*
X156751Y793437D01*
X156754Y793433D01*
X156751Y793431D01*
X156751Y787431D01*
X156754Y787427D01*
X156751Y787425D01*
X156901Y786292D01*
X156907Y786286D01*
X156904Y786281D01*
X157302Y785211D01*
X157309Y785207D01*
X157307Y785201D01*
X157934Y784246D01*
X157942Y784243D01*
X157941Y784238D01*
X158764Y783446D01*
X158772Y783445D01*
X158773Y783439D01*
X159752Y782850D01*
X159760Y782851D01*
X159762Y782846D01*
X160847Y782490D01*
X160855Y782493D01*
X160858Y782488D01*
X161995Y782382D01*
X162002Y782386D01*
G37*
G36*
X697079Y955D02*
X697079Y955D01*
X697083Y951D01*
X698171Y1096D01*
X698177Y1102D01*
X698181Y1099D01*
X699210Y1483D01*
X699214Y1489D01*
X699220Y1488D01*
X700137Y2090D01*
X700140Y2098D01*
X700145Y2097D01*
X700905Y2889D01*
X700906Y2897D01*
X700912Y2898D01*
X701477Y3839D01*
X701476Y3842D01*
X701477Y3843D01*
X701476Y3845D01*
X701476Y3847D01*
X701481Y3849D01*
X701823Y4892D01*
X701820Y4900D01*
X701825Y4903D01*
X701925Y5996D01*
X701924Y5998D01*
X701926Y6000D01*
X701926Y12000D01*
X701924Y12003D01*
X701925Y12005D01*
X701825Y13097D01*
X701819Y13103D01*
X701823Y13108D01*
X701481Y14151D01*
X701475Y14156D01*
X701477Y14161D01*
X700912Y15102D01*
X700904Y15105D01*
X700905Y15111D01*
X700145Y15903D01*
X700137Y15904D01*
X700137Y15910D01*
X699220Y16513D01*
X699211Y16512D01*
X699210Y16518D01*
X698181Y16901D01*
X698174Y16899D01*
X698171Y16904D01*
X697083Y17049D01*
X697076Y17045D01*
X697072Y17049D01*
X695934Y16943D01*
X695928Y16938D01*
X695924Y16941D01*
X694838Y16585D01*
X694834Y16578D01*
X694828Y16581D01*
X693849Y15992D01*
X693846Y15984D01*
X693841Y15985D01*
X693017Y15193D01*
X693016Y15185D01*
X693010Y15185D01*
X692384Y14230D01*
X692384Y14222D01*
X692379Y14220D01*
X691980Y13150D01*
X691983Y13142D01*
X691978Y13139D01*
X691828Y12006D01*
X691830Y12002D01*
X691827Y12000D01*
X691827Y6000D01*
X691830Y5996D01*
X691828Y5994D01*
X691978Y4861D01*
X691983Y4855D01*
X691980Y4850D01*
X692379Y3780D01*
X692386Y3776D01*
X692384Y3770D01*
X693010Y2815D01*
X693018Y2812D01*
X693017Y2807D01*
X693841Y2015D01*
X693849Y2014D01*
X693849Y2008D01*
X694828Y1419D01*
X694836Y1420D01*
X694838Y1415D01*
X695924Y1059D01*
X695931Y1062D01*
X695934Y1057D01*
X697072Y951D01*
X697079Y955D01*
G37*
G36*
X162002Y955D02*
X162002Y955D01*
X162007Y951D01*
X163094Y1096D01*
X163100Y1102D01*
X163105Y1099D01*
X164133Y1483D01*
X164138Y1489D01*
X164143Y1488D01*
X165060Y2090D01*
X165063Y2098D01*
X165069Y2097D01*
X165829Y2889D01*
X165830Y2897D01*
X165836Y2898D01*
X166400Y3839D01*
X166400Y3842D01*
X166401Y3843D01*
X166400Y3845D01*
X166399Y3847D01*
X166405Y3849D01*
X166746Y4892D01*
X166744Y4900D01*
X166748Y4903D01*
X166849Y5996D01*
X166847Y5998D01*
X166849Y6000D01*
X166849Y12000D01*
X166847Y12003D01*
X166849Y12005D01*
X166748Y13097D01*
X166743Y13103D01*
X166746Y13108D01*
X166405Y14151D01*
X166398Y14156D01*
X166400Y14161D01*
X165836Y15102D01*
X165828Y15105D01*
X165829Y15111D01*
X165069Y15903D01*
X165061Y15904D01*
X165060Y15910D01*
X164143Y16513D01*
X164135Y16512D01*
X164133Y16518D01*
X163105Y16901D01*
X163097Y16899D01*
X163094Y16904D01*
X162007Y17049D01*
X161999Y17045D01*
X161995Y17049D01*
X160858Y16943D01*
X160852Y16938D01*
X160847Y16941D01*
X159762Y16585D01*
X159757Y16578D01*
X159752Y16581D01*
X158773Y15992D01*
X158770Y15984D01*
X158764Y15985D01*
X157941Y15193D01*
X157940Y15185D01*
X157934Y15185D01*
X157307Y14230D01*
X157308Y14222D01*
X157302Y14220D01*
X156904Y13150D01*
X156906Y13142D01*
X156901Y13139D01*
X156751Y12006D01*
X156754Y12002D01*
X156751Y12000D01*
X156751Y6000D01*
X156754Y5996D01*
X156751Y5994D01*
X156901Y4861D01*
X156907Y4855D01*
X156904Y4850D01*
X157302Y3780D01*
X157309Y3776D01*
X157307Y3770D01*
X157934Y2815D01*
X157942Y2812D01*
X157941Y2807D01*
X158764Y2015D01*
X158772Y2014D01*
X158773Y2008D01*
X159752Y1419D01*
X159760Y1420D01*
X159762Y1415D01*
X160847Y1059D01*
X160855Y1062D01*
X160858Y1057D01*
X161995Y951D01*
X162002Y955D01*
G37*
D10*
X297000Y11250D03*
X353000Y11250D03*
D11*
X310000Y48000D03*
X320000Y48000D03*
X330000Y48000D03*
X340000Y48000D03*
D12*
X225000Y108500D03*
X225000Y91500D03*
X185000Y108500D03*
X185000Y91500D03*
D13*
X212500Y56600D03*
X207500Y56600D03*
D14*
X237250Y56600D03*
X229500Y56600D03*
D13*
X222500Y56600D03*
X217500Y56600D03*
X197500Y56600D03*
X202500Y56600D03*
D14*
X172750Y56600D03*
X180500Y56600D03*
D13*
X187500Y56600D03*
X192500Y56600D03*
D15*
X200000Y105950D03*
D16*
X205000Y105700D03*
X210000Y105700D03*
X210000Y114300D03*
X205000Y114300D03*
X200000Y114300D03*
D17*
X56250Y47000D03*
D18*
X112250Y15000D03*
X37750Y15000D03*
D17*
X68750Y47000D03*
X81250Y47000D03*
X93750Y47000D03*
X436250Y47000D03*
D18*
X492250Y15000D03*
X417750Y15000D03*
D17*
X448750Y47000D03*
X461250Y47000D03*
X473750Y47000D03*
D19*
X25000Y101000D03*
X25000Y119000D03*
D20*
X390000Y130000D03*
X420000Y130000D03*
D21*
X482500Y181500D03*
D22*
X472500Y156500D03*
X467500Y156500D03*
D21*
X407500Y181500D03*
D22*
X462500Y156500D03*
X457500Y156500D03*
X452500Y156500D03*
X447500Y156500D03*
X442500Y156500D03*
X437500Y156500D03*
X432500Y156500D03*
X427500Y156500D03*
X422500Y156500D03*
X417500Y156500D03*
D21*
X392500Y181500D03*
D22*
X382500Y156500D03*
X377500Y156500D03*
D21*
X317500Y181500D03*
D22*
X372500Y156500D03*
X367500Y156500D03*
X362500Y156500D03*
X357500Y156500D03*
X352500Y156500D03*
X347500Y156500D03*
X342500Y156500D03*
X337500Y156500D03*
X332500Y156500D03*
X327500Y156500D03*
D10*
X832076Y11250D03*
X888076Y11250D03*
D11*
X845076Y48000D03*
X855076Y48000D03*
X865076Y48000D03*
X875076Y48000D03*
D12*
X760076Y108500D03*
X760076Y91500D03*
X720076Y108500D03*
X720076Y91500D03*
D13*
X747576Y56600D03*
X742576Y56600D03*
D14*
X772326Y56600D03*
X764576Y56600D03*
D13*
X757576Y56600D03*
X752576Y56600D03*
X732576Y56600D03*
X737576Y56600D03*
D14*
X707826Y56600D03*
X715576Y56600D03*
D13*
X722576Y56600D03*
X727576Y56600D03*
D15*
X735076Y105950D03*
D16*
X740076Y105700D03*
X745076Y105700D03*
X745076Y114300D03*
X740076Y114300D03*
X735076Y114300D03*
D17*
X591326Y47000D03*
D18*
X647326Y15000D03*
X572826Y15000D03*
D17*
X603826Y47000D03*
X616326Y47000D03*
X628826Y47000D03*
X971326Y47000D03*
D18*
X1027326Y15000D03*
X952826Y15000D03*
D17*
X983826Y47000D03*
X996326Y47000D03*
X1008826Y47000D03*
D19*
X560076Y101000D03*
X560076Y119000D03*
D20*
X925076Y130000D03*
X955076Y130000D03*
D21*
X1017576Y181500D03*
D22*
X1007576Y156500D03*
X1002576Y156500D03*
D21*
X942576Y181500D03*
D22*
X997576Y156500D03*
X992576Y156500D03*
X987576Y156500D03*
X982576Y156500D03*
X977576Y156500D03*
X972576Y156500D03*
X967576Y156500D03*
X962576Y156500D03*
X957576Y156500D03*
X952576Y156500D03*
D21*
X927576Y181500D03*
D22*
X917576Y156500D03*
X912576Y156500D03*
D21*
X852576Y181500D03*
D22*
X907576Y156500D03*
X902576Y156500D03*
X897576Y156500D03*
X892576Y156500D03*
X887576Y156500D03*
X882576Y156500D03*
X877576Y156500D03*
X872576Y156500D03*
X867576Y156500D03*
X862576Y156500D03*
D10*
X297000Y271727D03*
X353000Y271727D03*
D11*
X310000Y308477D03*
X320000Y308477D03*
X330000Y308477D03*
X340000Y308477D03*
D12*
X225000Y368977D03*
X225000Y351977D03*
X185000Y368977D03*
X185000Y351977D03*
D13*
X212500Y317077D03*
X207500Y317077D03*
D14*
X237250Y317077D03*
X229500Y317077D03*
D13*
X222500Y317077D03*
X217500Y317077D03*
X197500Y317077D03*
X202500Y317077D03*
D14*
X172750Y317077D03*
X180500Y317077D03*
D13*
X187500Y317077D03*
X192500Y317077D03*
D15*
X200000Y366427D03*
D16*
X205000Y366177D03*
X210000Y366177D03*
X210000Y374777D03*
X205000Y374777D03*
X200000Y374777D03*
D17*
X56250Y307477D03*
D18*
X112250Y275477D03*
X37750Y275477D03*
D17*
X68750Y307477D03*
X81250Y307477D03*
X93750Y307477D03*
X436250Y307477D03*
D18*
X492250Y275477D03*
X417750Y275477D03*
D17*
X448750Y307477D03*
X461250Y307477D03*
X473750Y307477D03*
D19*
X25000Y361477D03*
X25000Y379477D03*
D20*
X390000Y390477D03*
X420000Y390477D03*
D21*
X482500Y441977D03*
D22*
X472500Y416977D03*
X467500Y416977D03*
D21*
X407500Y441977D03*
D22*
X462500Y416977D03*
X457500Y416977D03*
X452500Y416977D03*
X447500Y416977D03*
X442500Y416977D03*
X437500Y416977D03*
X432500Y416977D03*
X427500Y416977D03*
X422500Y416977D03*
X417500Y416977D03*
D21*
X392500Y441977D03*
D22*
X382500Y416977D03*
X377500Y416977D03*
D21*
X317500Y441977D03*
D22*
X372500Y416977D03*
X367500Y416977D03*
X362500Y416977D03*
X357500Y416977D03*
X352500Y416977D03*
X347500Y416977D03*
X342500Y416977D03*
X337500Y416977D03*
X332500Y416977D03*
X327500Y416977D03*
D10*
X832076Y271727D03*
X888076Y271727D03*
D11*
X845076Y308477D03*
X855076Y308477D03*
X865076Y308477D03*
X875076Y308477D03*
D12*
X760076Y368977D03*
X760076Y351977D03*
X720076Y368977D03*
X720076Y351977D03*
D13*
X747576Y317077D03*
X742576Y317077D03*
D14*
X772326Y317077D03*
X764576Y317077D03*
D13*
X757576Y317077D03*
X752576Y317077D03*
X732576Y317077D03*
X737576Y317077D03*
D14*
X707826Y317077D03*
X715576Y317077D03*
D13*
X722576Y317077D03*
X727576Y317077D03*
D15*
X735076Y366427D03*
D16*
X740076Y366177D03*
X745076Y366177D03*
X745076Y374777D03*
X740076Y374777D03*
X735076Y374777D03*
D17*
X591326Y307477D03*
D18*
X647326Y275477D03*
X572826Y275477D03*
D17*
X603826Y307477D03*
X616326Y307477D03*
X628826Y307477D03*
X971326Y307477D03*
D18*
X1027326Y275477D03*
X952826Y275477D03*
D17*
X983826Y307477D03*
X996326Y307477D03*
X1008826Y307477D03*
D19*
X560076Y361477D03*
X560076Y379477D03*
D20*
X925076Y390477D03*
X955076Y390477D03*
D21*
X1017576Y441977D03*
D22*
X1007576Y416977D03*
X1002576Y416977D03*
D21*
X942576Y441977D03*
D22*
X997576Y416977D03*
X992576Y416977D03*
X987576Y416977D03*
X982576Y416977D03*
X977576Y416977D03*
X972576Y416977D03*
X967576Y416977D03*
X962576Y416977D03*
X957576Y416977D03*
X952576Y416977D03*
D21*
X927576Y441977D03*
D22*
X917576Y416977D03*
X912576Y416977D03*
D21*
X852576Y441977D03*
D22*
X907576Y416977D03*
X902576Y416977D03*
X897576Y416977D03*
X892576Y416977D03*
X887576Y416977D03*
X882576Y416977D03*
X877576Y416977D03*
X872576Y416977D03*
X867576Y416977D03*
X862576Y416977D03*
D10*
X297000Y532204D03*
X353000Y532204D03*
D11*
X310000Y568954D03*
X320000Y568954D03*
X330000Y568954D03*
X340000Y568954D03*
D12*
X225000Y629454D03*
X225000Y612454D03*
X185000Y629454D03*
X185000Y612454D03*
D13*
X212500Y577554D03*
X207500Y577554D03*
D14*
X237250Y577554D03*
X229500Y577554D03*
D13*
X222500Y577554D03*
X217500Y577554D03*
X197500Y577554D03*
X202500Y577554D03*
D14*
X172750Y577554D03*
X180500Y577554D03*
D13*
X187500Y577554D03*
X192500Y577554D03*
D15*
X200000Y626904D03*
D16*
X205000Y626654D03*
X210000Y626654D03*
X210000Y635254D03*
X205000Y635254D03*
X200000Y635254D03*
D17*
X56250Y567954D03*
D18*
X112250Y535954D03*
X37750Y535954D03*
D17*
X68750Y567954D03*
X81250Y567954D03*
X93750Y567954D03*
X436250Y567954D03*
D18*
X492250Y535954D03*
X417750Y535954D03*
D17*
X448750Y567954D03*
X461250Y567954D03*
X473750Y567954D03*
D19*
X25000Y621954D03*
X25000Y639954D03*
D20*
X390000Y650954D03*
X420000Y650954D03*
D21*
X482500Y702454D03*
D22*
X472500Y677454D03*
X467500Y677454D03*
D21*
X407500Y702454D03*
D22*
X462500Y677454D03*
X457500Y677454D03*
X452500Y677454D03*
X447500Y677454D03*
X442500Y677454D03*
X437500Y677454D03*
X432500Y677454D03*
X427500Y677454D03*
X422500Y677454D03*
X417500Y677454D03*
D21*
X392500Y702454D03*
D22*
X382500Y677454D03*
X377500Y677454D03*
D21*
X317500Y702454D03*
D22*
X372500Y677454D03*
X367500Y677454D03*
X362500Y677454D03*
X357500Y677454D03*
X352500Y677454D03*
X347500Y677454D03*
X342500Y677454D03*
X337500Y677454D03*
X332500Y677454D03*
X327500Y677454D03*
D10*
X832076Y532204D03*
X888076Y532204D03*
D11*
X845076Y568954D03*
X855076Y568954D03*
X865076Y568954D03*
X875076Y568954D03*
D12*
X760076Y629454D03*
X760076Y612454D03*
X720076Y629454D03*
X720076Y612454D03*
D13*
X747576Y577554D03*
X742576Y577554D03*
D14*
X772326Y577554D03*
X764576Y577554D03*
D13*
X757576Y577554D03*
X752576Y577554D03*
X732576Y577554D03*
X737576Y577554D03*
D14*
X707826Y577554D03*
X715576Y577554D03*
D13*
X722576Y577554D03*
X727576Y577554D03*
D15*
X735076Y626904D03*
D16*
X740076Y626654D03*
X745076Y626654D03*
X745076Y635254D03*
X740076Y635254D03*
X735076Y635254D03*
D17*
X591326Y567954D03*
D18*
X647326Y535954D03*
X572826Y535954D03*
D17*
X603826Y567954D03*
X616326Y567954D03*
X628826Y567954D03*
X971326Y567954D03*
D18*
X1027326Y535954D03*
X952826Y535954D03*
D17*
X983826Y567954D03*
X996326Y567954D03*
X1008826Y567954D03*
D19*
X560076Y621954D03*
X560076Y639954D03*
D20*
X925076Y650954D03*
X955076Y650954D03*
D21*
X1017576Y702454D03*
D22*
X1007576Y677454D03*
X1002576Y677454D03*
D21*
X942576Y702454D03*
D22*
X997576Y677454D03*
X992576Y677454D03*
X987576Y677454D03*
X982576Y677454D03*
X977576Y677454D03*
X972576Y677454D03*
X967576Y677454D03*
X962576Y677454D03*
X957576Y677454D03*
X952576Y677454D03*
D21*
X927576Y702454D03*
D22*
X917576Y677454D03*
X912576Y677454D03*
D21*
X852576Y702454D03*
D22*
X907576Y677454D03*
X902576Y677454D03*
X897576Y677454D03*
X892576Y677454D03*
X887576Y677454D03*
X882576Y677454D03*
X877576Y677454D03*
X872576Y677454D03*
X867576Y677454D03*
X862576Y677454D03*
D10*
X297000Y792681D03*
X353000Y792681D03*
D11*
X310000Y829431D03*
X320000Y829431D03*
X330000Y829431D03*
X340000Y829431D03*
D12*
X225000Y889931D03*
X225000Y872931D03*
X185000Y889931D03*
X185000Y872931D03*
D13*
X212500Y838031D03*
X207500Y838031D03*
D14*
X237250Y838031D03*
X229500Y838031D03*
D13*
X222500Y838031D03*
X217500Y838031D03*
X197500Y838031D03*
X202500Y838031D03*
D14*
X172750Y838031D03*
X180500Y838031D03*
D13*
X187500Y838031D03*
X192500Y838031D03*
D15*
X200000Y887381D03*
D16*
X205000Y887131D03*
X210000Y887131D03*
X210000Y895731D03*
X205000Y895731D03*
X200000Y895731D03*
D17*
X56250Y828431D03*
D18*
X112250Y796431D03*
X37750Y796431D03*
D17*
X68750Y828431D03*
X81250Y828431D03*
X93750Y828431D03*
X436250Y828431D03*
D18*
X492250Y796431D03*
X417750Y796431D03*
D17*
X448750Y828431D03*
X461250Y828431D03*
X473750Y828431D03*
D19*
X25000Y882431D03*
X25000Y900431D03*
D20*
X390000Y911431D03*
X420000Y911431D03*
D21*
X482500Y962931D03*
D22*
X472500Y937931D03*
X467500Y937931D03*
D21*
X407500Y962931D03*
D22*
X462500Y937931D03*
X457500Y937931D03*
X452500Y937931D03*
X447500Y937931D03*
X442500Y937931D03*
X437500Y937931D03*
X432500Y937931D03*
X427500Y937931D03*
X422500Y937931D03*
X417500Y937931D03*
D21*
X392500Y962931D03*
D22*
X382500Y937931D03*
X377500Y937931D03*
D21*
X317500Y962931D03*
D22*
X372500Y937931D03*
X367500Y937931D03*
X362500Y937931D03*
X357500Y937931D03*
X352500Y937931D03*
X347500Y937931D03*
X342500Y937931D03*
X337500Y937931D03*
X332500Y937931D03*
X327500Y937931D03*
D10*
X832076Y792681D03*
X888076Y792681D03*
D11*
X845076Y829431D03*
X855076Y829431D03*
X865076Y829431D03*
X875076Y829431D03*
D12*
X760076Y889931D03*
X760076Y872931D03*
X720076Y889931D03*
X720076Y872931D03*
D13*
X747576Y838031D03*
X742576Y838031D03*
D14*
X772326Y838031D03*
X764576Y838031D03*
D13*
X757576Y838031D03*
X752576Y838031D03*
X732576Y838031D03*
X737576Y838031D03*
D14*
X707826Y838031D03*
X715576Y838031D03*
D13*
X722576Y838031D03*
X727576Y838031D03*
D15*
X735076Y887381D03*
D16*
X740076Y887131D03*
X745076Y887131D03*
X745076Y895731D03*
X740076Y895731D03*
X735076Y895731D03*
D17*
X591326Y828431D03*
D18*
X647326Y796431D03*
X572826Y796431D03*
D17*
X603826Y828431D03*
X616326Y828431D03*
X628826Y828431D03*
X971326Y828431D03*
D18*
X1027326Y796431D03*
X952826Y796431D03*
D17*
X983826Y828431D03*
X996326Y828431D03*
X1008826Y828431D03*
D19*
X560076Y882431D03*
X560076Y900431D03*
D20*
X925076Y911431D03*
X955076Y911431D03*
D21*
X1017576Y962931D03*
D22*
X1007576Y937931D03*
X1002576Y937931D03*
D21*
X942576Y962931D03*
D22*
X997576Y937931D03*
X992576Y937931D03*
X987576Y937931D03*
X982576Y937931D03*
X977576Y937931D03*
X972576Y937931D03*
X967576Y937931D03*
X962576Y937931D03*
X957576Y937931D03*
X952576Y937931D03*
D21*
X927576Y962931D03*
D22*
X917576Y937931D03*
X912576Y937931D03*
D21*
X852576Y962931D03*
D22*
X907576Y937931D03*
X902576Y937931D03*
X897576Y937931D03*
X892576Y937931D03*
X887576Y937931D03*
X882576Y937931D03*
X877576Y937931D03*
X872576Y937931D03*
X867576Y937931D03*
X862576Y937931D03*
D10*
X297000Y1053158D03*
X353000Y1053158D03*
D11*
X310000Y1089908D03*
X320000Y1089908D03*
X330000Y1089908D03*
X340000Y1089908D03*
D12*
X225000Y1150408D03*
X225000Y1133408D03*
X185000Y1150408D03*
X185000Y1133408D03*
D13*
X212500Y1098508D03*
X207500Y1098508D03*
D14*
X237250Y1098508D03*
X229500Y1098508D03*
D13*
X222500Y1098508D03*
X217500Y1098508D03*
X197500Y1098508D03*
X202500Y1098508D03*
D14*
X172750Y1098508D03*
X180500Y1098508D03*
D13*
X187500Y1098508D03*
X192500Y1098508D03*
D15*
X200000Y1147858D03*
D16*
X205000Y1147608D03*
X210000Y1147608D03*
X210000Y1156208D03*
X205000Y1156208D03*
X200000Y1156208D03*
D17*
X56250Y1088908D03*
D18*
X112250Y1056908D03*
X37750Y1056908D03*
D17*
X68750Y1088908D03*
X81250Y1088908D03*
X93750Y1088908D03*
X436250Y1088908D03*
D18*
X492250Y1056908D03*
X417750Y1056908D03*
D17*
X448750Y1088908D03*
X461250Y1088908D03*
X473750Y1088908D03*
D19*
X25000Y1142908D03*
X25000Y1160908D03*
D20*
X390000Y1171908D03*
X420000Y1171908D03*
D21*
X482500Y1223408D03*
D22*
X472500Y1198408D03*
X467500Y1198408D03*
D21*
X407500Y1223408D03*
D22*
X462500Y1198408D03*
X457500Y1198408D03*
X452500Y1198408D03*
X447500Y1198408D03*
X442500Y1198408D03*
X437500Y1198408D03*
X432500Y1198408D03*
X427500Y1198408D03*
X422500Y1198408D03*
X417500Y1198408D03*
D21*
X392500Y1223408D03*
D22*
X382500Y1198408D03*
X377500Y1198408D03*
D21*
X317500Y1223408D03*
D22*
X372500Y1198408D03*
X367500Y1198408D03*
X362500Y1198408D03*
X357500Y1198408D03*
X352500Y1198408D03*
X347500Y1198408D03*
X342500Y1198408D03*
X337500Y1198408D03*
X332500Y1198408D03*
X327500Y1198408D03*
D10*
X832076Y1053158D03*
X888076Y1053158D03*
D11*
X845076Y1089908D03*
X855076Y1089908D03*
X865076Y1089908D03*
X875076Y1089908D03*
D12*
X760076Y1150408D03*
X760076Y1133408D03*
X720076Y1150408D03*
X720076Y1133408D03*
D13*
X747576Y1098508D03*
X742576Y1098508D03*
D14*
X772326Y1098508D03*
X764576Y1098508D03*
D13*
X757576Y1098508D03*
X752576Y1098508D03*
X732576Y1098508D03*
X737576Y1098508D03*
D14*
X707826Y1098508D03*
X715576Y1098508D03*
D13*
X722576Y1098508D03*
X727576Y1098508D03*
D15*
X735076Y1147858D03*
D16*
X740076Y1147608D03*
X745076Y1147608D03*
X745076Y1156208D03*
X740076Y1156208D03*
X735076Y1156208D03*
D17*
X591326Y1088908D03*
D18*
X647326Y1056908D03*
X572826Y1056908D03*
D17*
X603826Y1088908D03*
X616326Y1088908D03*
X628826Y1088908D03*
X971326Y1088908D03*
D18*
X1027326Y1056908D03*
X952826Y1056908D03*
D17*
X983826Y1088908D03*
X996326Y1088908D03*
X1008826Y1088908D03*
D19*
X560076Y1142908D03*
X560076Y1160908D03*
D20*
X925076Y1171908D03*
X955076Y1171908D03*
D21*
X1017576Y1223408D03*
D22*
X1007576Y1198408D03*
X1002576Y1198408D03*
D21*
X942576Y1223408D03*
D22*
X997576Y1198408D03*
X992576Y1198408D03*
X987576Y1198408D03*
X982576Y1198408D03*
X977576Y1198408D03*
X972576Y1198408D03*
X967576Y1198408D03*
X962576Y1198408D03*
X957576Y1198408D03*
X952576Y1198408D03*
D21*
X927576Y1223408D03*
D22*
X917576Y1198408D03*
X912576Y1198408D03*
D21*
X852576Y1223408D03*
D22*
X907576Y1198408D03*
X902576Y1198408D03*
X897576Y1198408D03*
X892576Y1198408D03*
X887576Y1198408D03*
X882576Y1198408D03*
X877576Y1198408D03*
X872576Y1198408D03*
X867576Y1198408D03*
X862576Y1198408D03*
D10*
X297000Y1313660D03*
X353000Y1313660D03*
D11*
X310000Y1350410D03*
X320000Y1350410D03*
X330000Y1350410D03*
X340000Y1350410D03*
D12*
X225000Y1410910D03*
X225000Y1393910D03*
X185000Y1410910D03*
X185000Y1393910D03*
D13*
X212500Y1359010D03*
X207500Y1359010D03*
D14*
X237250Y1359010D03*
X229500Y1359010D03*
D13*
X222500Y1359010D03*
X217500Y1359010D03*
X197500Y1359010D03*
X202500Y1359010D03*
D14*
X172750Y1359010D03*
X180500Y1359010D03*
D13*
X187500Y1359010D03*
X192500Y1359010D03*
D15*
X200000Y1408360D03*
D16*
X205000Y1408110D03*
X210000Y1408110D03*
X210000Y1416710D03*
X205000Y1416710D03*
X200000Y1416710D03*
D17*
X56250Y1349410D03*
D18*
X112250Y1317410D03*
X37750Y1317410D03*
D17*
X68750Y1349410D03*
X81250Y1349410D03*
X93750Y1349410D03*
X436250Y1349410D03*
D18*
X492250Y1317410D03*
X417750Y1317410D03*
D17*
X448750Y1349410D03*
X461250Y1349410D03*
X473750Y1349410D03*
D19*
X25000Y1403410D03*
X25000Y1421410D03*
D20*
X390000Y1432410D03*
X420000Y1432410D03*
D21*
X482500Y1483910D03*
D22*
X472500Y1458910D03*
X467500Y1458910D03*
D21*
X407500Y1483910D03*
D22*
X462500Y1458910D03*
X457500Y1458910D03*
X452500Y1458910D03*
X447500Y1458910D03*
X442500Y1458910D03*
X437500Y1458910D03*
X432500Y1458910D03*
X427500Y1458910D03*
X422500Y1458910D03*
X417500Y1458910D03*
D21*
X392500Y1483910D03*
D22*
X382500Y1458910D03*
X377500Y1458910D03*
D21*
X317500Y1483910D03*
D22*
X372500Y1458910D03*
X367500Y1458910D03*
X362500Y1458910D03*
X357500Y1458910D03*
X352500Y1458910D03*
X347500Y1458910D03*
X342500Y1458910D03*
X337500Y1458910D03*
X332500Y1458910D03*
X327500Y1458910D03*
D10*
X832076Y1313660D03*
X888076Y1313660D03*
D11*
X845076Y1350410D03*
X855076Y1350410D03*
X865076Y1350410D03*
X875076Y1350410D03*
D12*
X760076Y1410910D03*
X760076Y1393910D03*
X720076Y1410910D03*
X720076Y1393910D03*
D13*
X747576Y1359010D03*
X742576Y1359010D03*
D14*
X772326Y1359010D03*
X764576Y1359010D03*
D13*
X757576Y1359010D03*
X752576Y1359010D03*
X732576Y1359010D03*
X737576Y1359010D03*
D14*
X707826Y1359010D03*
X715576Y1359010D03*
D13*
X722576Y1359010D03*
X727576Y1359010D03*
D15*
X735076Y1408360D03*
D16*
X740076Y1408110D03*
X745076Y1408110D03*
X745076Y1416710D03*
X740076Y1416710D03*
X735076Y1416710D03*
D17*
X591326Y1349410D03*
D18*
X647326Y1317410D03*
X572826Y1317410D03*
D17*
X603826Y1349410D03*
X616326Y1349410D03*
X628826Y1349410D03*
X971326Y1349410D03*
D18*
X1027326Y1317410D03*
X952826Y1317410D03*
D17*
X983826Y1349410D03*
X996326Y1349410D03*
X1008826Y1349410D03*
D19*
X560076Y1403410D03*
X560076Y1421410D03*
D20*
X925076Y1432410D03*
X955076Y1432410D03*
D21*
X1017576Y1483910D03*
D22*
X1007576Y1458910D03*
X1002576Y1458910D03*
D21*
X942576Y1483910D03*
D22*
X997576Y1458910D03*
X992576Y1458910D03*
X987576Y1458910D03*
X982576Y1458910D03*
X977576Y1458910D03*
X972576Y1458910D03*
X967576Y1458910D03*
X962576Y1458910D03*
X957576Y1458910D03*
X952576Y1458910D03*
D21*
X927576Y1483910D03*
D22*
X917576Y1458910D03*
X912576Y1458910D03*
D21*
X852576Y1483910D03*
D22*
X907576Y1458910D03*
X902576Y1458910D03*
X897576Y1458910D03*
X892576Y1458910D03*
X887576Y1458910D03*
X882576Y1458910D03*
X877576Y1458910D03*
X872576Y1458910D03*
X867576Y1458910D03*
X862576Y1458910D03*
D10*
X297000Y1574137D03*
X353000Y1574137D03*
D11*
X310000Y1610887D03*
X320000Y1610887D03*
X330000Y1610887D03*
X340000Y1610887D03*
D12*
X225000Y1671387D03*
X225000Y1654387D03*
X185000Y1671387D03*
X185000Y1654387D03*
D13*
X212500Y1619487D03*
X207500Y1619487D03*
D14*
X237250Y1619487D03*
X229500Y1619487D03*
D13*
X222500Y1619487D03*
X217500Y1619487D03*
X197500Y1619487D03*
X202500Y1619487D03*
D14*
X172750Y1619487D03*
X180500Y1619487D03*
D13*
X187500Y1619487D03*
X192500Y1619487D03*
D15*
X200000Y1668837D03*
D16*
X205000Y1668587D03*
X210000Y1668587D03*
X210000Y1677187D03*
X205000Y1677187D03*
X200000Y1677187D03*
D17*
X56250Y1609887D03*
D18*
X112250Y1577887D03*
X37750Y1577887D03*
D17*
X68750Y1609887D03*
X81250Y1609887D03*
X93750Y1609887D03*
X436250Y1609887D03*
D18*
X492250Y1577887D03*
X417750Y1577887D03*
D17*
X448750Y1609887D03*
X461250Y1609887D03*
X473750Y1609887D03*
D19*
X25000Y1663887D03*
X25000Y1681887D03*
D20*
X390000Y1692887D03*
X420000Y1692887D03*
D21*
X482500Y1744387D03*
D22*
X472500Y1719387D03*
X467500Y1719387D03*
D21*
X407500Y1744387D03*
D22*
X462500Y1719387D03*
X457500Y1719387D03*
X452500Y1719387D03*
X447500Y1719387D03*
X442500Y1719387D03*
X437500Y1719387D03*
X432500Y1719387D03*
X427500Y1719387D03*
X422500Y1719387D03*
X417500Y1719387D03*
D21*
X392500Y1744387D03*
D22*
X382500Y1719387D03*
X377500Y1719387D03*
D21*
X317500Y1744387D03*
D22*
X372500Y1719387D03*
X367500Y1719387D03*
X362500Y1719387D03*
X357500Y1719387D03*
X352500Y1719387D03*
X347500Y1719387D03*
X342500Y1719387D03*
X337500Y1719387D03*
X332500Y1719387D03*
X327500Y1719387D03*
D10*
X832076Y1574137D03*
X888076Y1574137D03*
D11*
X845076Y1610887D03*
X855076Y1610887D03*
X865076Y1610887D03*
X875076Y1610887D03*
D12*
X760076Y1671387D03*
X760076Y1654387D03*
X720076Y1671387D03*
X720076Y1654387D03*
D13*
X747576Y1619487D03*
X742576Y1619487D03*
D14*
X772326Y1619487D03*
X764576Y1619487D03*
D13*
X757576Y1619487D03*
X752576Y1619487D03*
X732576Y1619487D03*
X737576Y1619487D03*
D14*
X707826Y1619487D03*
X715576Y1619487D03*
D13*
X722576Y1619487D03*
X727576Y1619487D03*
D15*
X735076Y1668837D03*
D16*
X740076Y1668587D03*
X745076Y1668587D03*
X745076Y1677187D03*
X740076Y1677187D03*
X735076Y1677187D03*
D17*
X591326Y1609887D03*
D18*
X647326Y1577887D03*
X572826Y1577887D03*
D17*
X603826Y1609887D03*
X616326Y1609887D03*
X628826Y1609887D03*
X971326Y1609887D03*
D18*
X1027326Y1577887D03*
X952826Y1577887D03*
D17*
X983826Y1609887D03*
X996326Y1609887D03*
X1008826Y1609887D03*
D19*
X560076Y1663887D03*
X560076Y1681887D03*
D20*
X925076Y1692887D03*
X955076Y1692887D03*
D21*
X1017576Y1744387D03*
D22*
X1007576Y1719387D03*
X1002576Y1719387D03*
D21*
X942576Y1744387D03*
D22*
X997576Y1719387D03*
X992576Y1719387D03*
X987576Y1719387D03*
X982576Y1719387D03*
X977576Y1719387D03*
X972576Y1719387D03*
X967576Y1719387D03*
X962576Y1719387D03*
X957576Y1719387D03*
X952576Y1719387D03*
D21*
X927576Y1744387D03*
D22*
X917576Y1719387D03*
X912576Y1719387D03*
D21*
X852576Y1744387D03*
D22*
X907576Y1719387D03*
X902576Y1719387D03*
X897576Y1719387D03*
X892576Y1719387D03*
X887576Y1719387D03*
X882576Y1719387D03*
X877576Y1719387D03*
X872576Y1719387D03*
X867576Y1719387D03*
X862576Y1719387D03*
M02*
