M48
;GenerationSoftware,Autodesk,EAGLE,9.6.2*%
;CreationDate,2021-11-22T17:47:30Z*%
FMAT,2
ICI,OFF
METRIC,TZ,000.000
T4C0.300
T3C0.400
T2C0.650
T1C1.016
%
G90
M71
T1
X69108Y10070
X41880Y111191
X15600Y111721
X15600Y114261
X65008Y111191
X62468Y111191
X59928Y111191
X57388Y111191
X103008Y111191
X100468Y111191
X97928Y111191
X95388Y111191
X69108Y111721
X69108Y114261
X11500Y137241
X8960Y137241
X6420Y137241
X3880Y137241
X49500Y137241
X46960Y137241
X44420Y137241
X41880Y137241
X15600Y137771
X15600Y140311
X65008Y137241
X62468Y137241
X59928Y137241
X57388Y137241
X69108Y62165
X103008Y137241
X100468Y137241
X97928Y137241
X95388Y137241
X11500Y7000
X8960Y7000
X6420Y7000
X3880Y7000
X49500Y7000
X46960Y7000
X44420Y7000
X41880Y7000
X15600Y7530
X15600Y10070
X69108Y137771
X11500Y163289
X8960Y163289
X6420Y163289
X65008Y7000
X62468Y7000
X59928Y7000
X57388Y7000
X103008Y7000
X100468Y7000
X97928Y7000
X95388Y7000
X69108Y7530
X3880Y163289
X49500Y163289
X46960Y163289
X44420Y163289
X41880Y163289
X11500Y33048
X8960Y33048
X6420Y33048
X3880Y33048
X49500Y33048
X46960Y33048
X44420Y33048
X41880Y33048
X15600Y33578
X15600Y36118
X15600Y163819
X15600Y166359
X65008Y163289
X62468Y163289
X65008Y33048
X62468Y33048
X59928Y33048
X57388Y33048
X103008Y33048
X100468Y33048
X97928Y33048
X95388Y33048
X69108Y33578
X69108Y36118
X59928Y163289
X57388Y163289
X103008Y163289
X69108Y166359
X11500Y59095
X8960Y59095
X6420Y59095
X3880Y59095
X49500Y59095
X46960Y59095
X44420Y59095
X41880Y59095
X15600Y59625
X15600Y62165
X100468Y163289
X97928Y163289
X95388Y163289
X69108Y163819
X65008Y59095
X62468Y59095
X59928Y59095
X57388Y59095
X103008Y59095
X100468Y59095
X97928Y59095
X95388Y59095
X69108Y59625
X69108Y140311
X11500Y85143
X8960Y85143
X6420Y85143
X3880Y85143
X49500Y85143
X46960Y85143
X44420Y85143
X41880Y85143
X15600Y85673
X15600Y88213
X65008Y85143
X62468Y85143
X59928Y85143
X57388Y85143
X103008Y85143
X100468Y85143
X97928Y85143
X95388Y85143
X69108Y85673
X69108Y88213
X11500Y111191
X8960Y111191
X6420Y111191
X3880Y111191
X49500Y111191
X46960Y111191
X44420Y111191
T2
X76898Y108746
X17610Y4555
X23390Y4555
X71118Y4555
X76898Y4555
X17610Y30603
X23390Y30603
X71118Y30603
X76898Y30603
X17610Y56650
X23390Y56650
X71118Y56650
X76898Y56650
X17610Y82698
X23390Y82698
X71118Y82698
X76898Y82698
X17610Y108746
X23390Y108746
X71118Y108746
X17610Y134796
X23390Y134796
X71118Y134796
X76898Y134796
X17610Y160844
X23390Y160844
X71118Y160844
X76898Y160844
T3
X24818Y905
X24818Y5085
X16182Y5085
X69690Y905
X78326Y905
X78326Y5085
X69690Y5085
X16182Y57180
X16182Y26953
X24818Y26953
X24818Y31133
X16182Y31133
X69690Y26953
X78326Y26953
X78326Y31133
X69690Y31133
X16182Y53000
X24818Y53000
X24818Y57180
X69690Y53000
X78326Y53000
X78326Y57180
X69690Y57180
X16182Y131146
X24818Y131146
X24818Y135326
X16182Y135326
X16182Y905
X16182Y157194
X24818Y157194
X24818Y161374
X16182Y161374
X16182Y105096
X24818Y105096
X69690Y105096
X78326Y109276
X69690Y109276
X24818Y109276
X16182Y109276
X16182Y79048
X24818Y79048
X69690Y79048
X69690Y157194
X78326Y157194
X78326Y161374
X69690Y161374
X69690Y131146
X78326Y131146
X78326Y135326
X69690Y135326
X78326Y79048
X78326Y83228
X69690Y83228
X24818Y83228
X16182Y83228
X78326Y105096
T4
X97808Y118291
X57008Y119191
X89852Y118424
X73508Y118391
X90568Y116891
X74102Y116704
X32000Y137241
X35500Y137241
X20500Y139741
X34500Y139241
X33000Y139241
X21200Y143641
X36100Y143641
X37300Y148241
X6400Y148341
X36800Y147241
X9100Y147241
X32655Y141674
X46800Y141641
X33000Y140841
X44500Y140841
X18100Y137741
X23000Y137741
X44300Y144341
X3500Y145241
X36345Y144474
X20000Y144441
X37060Y142941
X20595Y142754
X85508Y137241
X89008Y137241
X74008Y139741
X88008Y139241
X86508Y139241
X74708Y143641
X89608Y143641
X90808Y148241
X59908Y148341
X90308Y147241
X62608Y147241
X86163Y141674
X100308Y141641
X86508Y140841
X98008Y140841
X71608Y137741
X76508Y137741
X97808Y144341
X57008Y145241
X89852Y144474
X20595Y38561
X90568Y142941
X74102Y142754
X32000Y163289
X35500Y163289
X20500Y165789
X34500Y165289
X33000Y165289
X21200Y169689
X36100Y169689
X37300Y174289
X6400Y174389
X36800Y173289
X9100Y173289
X32655Y167722
X46800Y167689
X33000Y166889
X44500Y166889
X18100Y163789
X23000Y163789
X44300Y170389
X3500Y171289
X36345Y170522
X20000Y170489
X37060Y168989
X20595Y168802
X85508Y163289
X89008Y163289
X74008Y165789
X88008Y165289
X86508Y165289
X74708Y169689
X89608Y169689
X90808Y174289
X59908Y174389
X90308Y173289
X62608Y173289
X86163Y167722
X100308Y167689
X86508Y166889
X98008Y166889
X71608Y163789
X76508Y163789
X97808Y170389
X57008Y171289
X89852Y170522
X73508Y170489
X90568Y168989
X74102Y168802
X32000Y7000
X35500Y7000
X20500Y9500
X34500Y9000
X33000Y9000
X21200Y13400
X36100Y13400
X37300Y18000
X6400Y18100
X36800Y17000
X9100Y17000
X32655Y11433
X46800Y11400
X33000Y10600
X44500Y10600
X18100Y7500
X23000Y7500
X44300Y14100
X3500Y15000
X73508Y144441
X36345Y14233
X20000Y14200
X37060Y12700
X20595Y12513
X85508Y7000
X89008Y7000
X74008Y9500
X88008Y9000
X86508Y9000
X74708Y13400
X89608Y13400
X90808Y18000
X59908Y18100
X90308Y17000
X62608Y17000
X86163Y11433
X100308Y11400
X86508Y10600
X98008Y10600
X71608Y7500
X76508Y7500
X97808Y14100
X57008Y15000
X89852Y14233
X73508Y14200
X90568Y12700
X74102Y12513
X32000Y33048
X35500Y33048
X20500Y35548
X34500Y35048
X33000Y35048
X21200Y39448
X36100Y39448
X37300Y44048
X6400Y44148
X36800Y43048
X9100Y43048
X32655Y37481
X46800Y37448
X33000Y36648
X44500Y36648
X18100Y33548
X23000Y33548
X44300Y40148
X3500Y41048
X36345Y40281
X20000Y40248
X37060Y38748
X85508Y33048
X89008Y33048
X74008Y35548
X88008Y35048
X86508Y35048
X74708Y39448
X89608Y39448
X90808Y44048
X59908Y44148
X90308Y43048
X62608Y43048
X86163Y37481
X100308Y37448
X86508Y36648
X98008Y36648
X71608Y33548
X76508Y33548
X97808Y40148
X57008Y41048
X89852Y40281
X73508Y40248
X90568Y38748
X74102Y38561
X32000Y59095
X35500Y59095
X20500Y61595
X34500Y61095
X33000Y61095
X21200Y65495
X36100Y65495
X37300Y70095
X6400Y70195
X36800Y69095
X9100Y69095
X32655Y63529
X46800Y63495
X33000Y62695
X44500Y62695
X18100Y59595
X23000Y59595
X44300Y66195
X3500Y67095
X36345Y66329
X20000Y66295
X37060Y64795
X20595Y64609
X85508Y59095
X89008Y59095
X74008Y61595
X88008Y61095
X86508Y61095
X74708Y65495
X89608Y65495
X90808Y70095
X59908Y70195
X90308Y69095
X62608Y69095
X86163Y63529
X100308Y63495
X86508Y62695
X98008Y62695
X71608Y59595
X76508Y59595
X97808Y66195
X57008Y67095
X89852Y66329
X73508Y66295
X90568Y64795
X74102Y64609
X32000Y85143
X35500Y85143
X20500Y87643
X34500Y87143
X33000Y87143
X21200Y91543
X36100Y91543
X37300Y96143
X6400Y96243
X36800Y95143
X9100Y95143
X32655Y89576
X46800Y89543
X33000Y88743
X44500Y88743
X18100Y85643
X23000Y85643
X37060Y116891
X44300Y92243
X3500Y93143
X36345Y92376
X20000Y92343
X37060Y90843
X20595Y90656
X85508Y85143
X89008Y85143
X74008Y87643
X88008Y87143
X86508Y87143
X74708Y91543
X89608Y91543
X90808Y96143
X59908Y96243
X90308Y95143
X62608Y95143
X86163Y89576
X100308Y89543
X86508Y88743
X98008Y88743
X71608Y85643
X76508Y85643
X97808Y92243
X57008Y93143
X89852Y92376
X73508Y92343
X90568Y90843
X74102Y90656
X32000Y111191
X35500Y111191
X20500Y113691
X34500Y113191
X33000Y113191
X21200Y117591
X36100Y117591
X37300Y122191
X6400Y122291
X36800Y121191
X9100Y121191
X32655Y115624
X46800Y115591
X33000Y114791
X44500Y114791
X18100Y111691
X23000Y111691
X44300Y118291
X3500Y119191
X36345Y118424
X20000Y118391
X20595Y116704
X85508Y111191
X89008Y111191
X74008Y113691
X88008Y113191
X86508Y113191
X74708Y117591
X89608Y117591
X90808Y122191
X59908Y122291
X90308Y121191
X62608Y121191
X86163Y115624
X100308Y115591
X86508Y114791
X98008Y114791
X71608Y111691
X76508Y111691
M30