G04 EAGLE Gerber RS-274X export*
G75*
%MOMM*%
%FSLAX34Y34*%
%LPD*%
%INSoldermask Top*%
%IPPOS*%
%AMOC8*
5,1,8,0,0,1.08239X$1,22.5*%
G01*
%ADD10C,0.838200*%
%ADD11R,1.403200X2.203200*%
%ADD12R,0.803200X1.553200*%
%ADD13R,1.203200X1.303200*%
%ADD14R,0.503200X1.203200*%
%ADD15R,0.803200X1.203200*%
%ADD16C,0.853200*%
%ADD17R,0.453200X0.813200*%
%ADD18R,0.453200X0.763200*%
%ADD19R,0.803200X1.903200*%
%ADD20R,1.203200X2.903200*%
%ADD21C,2.082800*%
%ADD22R,1.473200X0.838200*%
%ADD23R,1.403200X1.003200*%
%ADD24R,1.203200X3.003200*%
%ADD25R,0.503200X1.003200*%
%ADD26R,0.603200X1.003200*%
%ADD27C,1.203200*%
%ADD28C,1.270000*%
%ADD29C,1.703200*%

G36*
X168084Y1081291D02*
X168084Y1081291D01*
X168090Y1081297D01*
X168095Y1081293D01*
X169325Y1081658D01*
X169330Y1081665D01*
X169335Y1081663D01*
X170454Y1082293D01*
X170457Y1082300D01*
X170463Y1082299D01*
X171413Y1083162D01*
X171414Y1083170D01*
X171420Y1083170D01*
X172154Y1084223D01*
X172154Y1084231D01*
X172159Y1084233D01*
X172641Y1085423D01*
X172639Y1085428D01*
X172643Y1085431D01*
X172642Y1085432D01*
X172644Y1085433D01*
X172849Y1086700D01*
X172846Y1086705D01*
X172849Y1086708D01*
X172849Y1098708D01*
X172846Y1098712D01*
X172849Y1098715D01*
X172694Y1099837D01*
X172689Y1099842D01*
X172692Y1099846D01*
X172321Y1100917D01*
X172315Y1100921D01*
X172317Y1100926D01*
X171744Y1101903D01*
X171738Y1101906D01*
X171739Y1101911D01*
X170986Y1102758D01*
X170979Y1102760D01*
X170979Y1102765D01*
X170076Y1103449D01*
X170069Y1103449D01*
X170068Y1103454D01*
X169049Y1103949D01*
X169042Y1103947D01*
X169040Y1103952D01*
X167943Y1104239D01*
X167937Y1104236D01*
X167934Y1104240D01*
X166803Y1104307D01*
X166797Y1104307D01*
X165666Y1104240D01*
X165661Y1104235D01*
X165657Y1104239D01*
X164560Y1103952D01*
X164556Y1103946D01*
X164551Y1103949D01*
X163532Y1103454D01*
X163529Y1103448D01*
X163524Y1103449D01*
X162621Y1102765D01*
X162619Y1102758D01*
X162614Y1102758D01*
X161861Y1101911D01*
X161861Y1101904D01*
X161856Y1101903D01*
X161283Y1100926D01*
X161284Y1100923D01*
X161283Y1100922D01*
X161284Y1100921D01*
X161284Y1100919D01*
X161279Y1100917D01*
X160908Y1099846D01*
X160910Y1099841D01*
X160907Y1099839D01*
X160907Y1099838D01*
X160906Y1099837D01*
X160751Y1098715D01*
X160754Y1098710D01*
X160751Y1098708D01*
X160751Y1086708D01*
X160754Y1086703D01*
X160751Y1086700D01*
X160956Y1085433D01*
X160962Y1085427D01*
X160959Y1085423D01*
X161441Y1084233D01*
X161448Y1084229D01*
X161446Y1084223D01*
X162180Y1083170D01*
X162188Y1083168D01*
X162187Y1083162D01*
X163137Y1082299D01*
X163146Y1082298D01*
X163146Y1082293D01*
X164265Y1081663D01*
X164273Y1081664D01*
X164275Y1081658D01*
X165505Y1081293D01*
X165513Y1081296D01*
X165516Y1081291D01*
X166797Y1081209D01*
X166801Y1081212D01*
X166803Y1081209D01*
X168084Y1081291D01*
G37*
G36*
X713168Y39383D02*
X713168Y39383D01*
X713174Y39389D01*
X713179Y39385D01*
X714409Y39750D01*
X714414Y39757D01*
X714419Y39755D01*
X715538Y40385D01*
X715541Y40392D01*
X715547Y40391D01*
X716497Y41254D01*
X716498Y41262D01*
X716504Y41262D01*
X717238Y42315D01*
X717238Y42323D01*
X717243Y42325D01*
X717725Y43515D01*
X717723Y43520D01*
X717727Y43523D01*
X717726Y43524D01*
X717728Y43525D01*
X717933Y44792D01*
X717930Y44797D01*
X717933Y44800D01*
X717933Y56800D01*
X717930Y56804D01*
X717933Y56807D01*
X717778Y57929D01*
X717773Y57934D01*
X717776Y57938D01*
X717405Y59009D01*
X717399Y59013D01*
X717401Y59018D01*
X716828Y59995D01*
X716822Y59998D01*
X716823Y60003D01*
X716070Y60850D01*
X716063Y60852D01*
X716063Y60857D01*
X715160Y61541D01*
X715153Y61541D01*
X715152Y61546D01*
X714133Y62041D01*
X714126Y62039D01*
X714124Y62044D01*
X713027Y62331D01*
X713021Y62328D01*
X713018Y62332D01*
X711887Y62399D01*
X711881Y62399D01*
X710750Y62332D01*
X710745Y62327D01*
X710741Y62331D01*
X709644Y62044D01*
X709640Y62038D01*
X709635Y62041D01*
X708616Y61546D01*
X708613Y61540D01*
X708608Y61541D01*
X707705Y60857D01*
X707703Y60850D01*
X707698Y60850D01*
X706945Y60003D01*
X706945Y59996D01*
X706940Y59995D01*
X706367Y59018D01*
X706368Y59015D01*
X706367Y59014D01*
X706368Y59013D01*
X706368Y59011D01*
X706363Y59009D01*
X705992Y57938D01*
X705994Y57933D01*
X705991Y57931D01*
X705991Y57930D01*
X705990Y57929D01*
X705835Y56807D01*
X705838Y56802D01*
X705835Y56800D01*
X705835Y44800D01*
X705838Y44795D01*
X705835Y44792D01*
X706040Y43525D01*
X706046Y43519D01*
X706043Y43515D01*
X706525Y42325D01*
X706532Y42321D01*
X706530Y42315D01*
X707264Y41262D01*
X707272Y41260D01*
X707271Y41254D01*
X708221Y40391D01*
X708230Y40390D01*
X708230Y40385D01*
X709349Y39755D01*
X709357Y39756D01*
X709359Y39750D01*
X710589Y39385D01*
X710597Y39388D01*
X710600Y39383D01*
X711881Y39301D01*
X711885Y39304D01*
X711887Y39301D01*
X713168Y39383D01*
G37*
G36*
X799568Y1602271D02*
X799568Y1602271D01*
X799574Y1602276D01*
X799579Y1602273D01*
X800809Y1602638D01*
X800814Y1602644D01*
X800819Y1602642D01*
X801938Y1603272D01*
X801941Y1603280D01*
X801947Y1603279D01*
X802897Y1604141D01*
X802898Y1604150D01*
X802904Y1604150D01*
X803638Y1605202D01*
X803638Y1605211D01*
X803643Y1605212D01*
X804125Y1606402D01*
X804123Y1606407D01*
X804127Y1606410D01*
X804126Y1606412D01*
X804128Y1606413D01*
X804333Y1607680D01*
X804330Y1607685D01*
X804333Y1607687D01*
X804333Y1619687D01*
X804330Y1619692D01*
X804333Y1619694D01*
X804178Y1620816D01*
X804173Y1620822D01*
X804176Y1620826D01*
X803805Y1621896D01*
X803799Y1621900D01*
X803801Y1621905D01*
X803228Y1622883D01*
X803222Y1622886D01*
X803223Y1622891D01*
X802470Y1623738D01*
X802463Y1623739D01*
X802463Y1623744D01*
X801560Y1624428D01*
X801553Y1624428D01*
X801552Y1624433D01*
X800533Y1624928D01*
X800526Y1624927D01*
X800524Y1624932D01*
X799427Y1625218D01*
X799421Y1625215D01*
X799418Y1625220D01*
X798287Y1625287D01*
X798287Y1625286D01*
X798281Y1625286D01*
X798281Y1625287D01*
X797150Y1625220D01*
X797145Y1625215D01*
X797141Y1625218D01*
X796044Y1624932D01*
X796040Y1624926D01*
X796035Y1624928D01*
X795016Y1624433D01*
X795013Y1624427D01*
X795008Y1624428D01*
X794105Y1623744D01*
X794103Y1623737D01*
X794098Y1623738D01*
X793345Y1622891D01*
X793345Y1622883D01*
X793340Y1622883D01*
X792767Y1621905D01*
X792768Y1621902D01*
X792767Y1621901D01*
X792768Y1621900D01*
X792768Y1621898D01*
X792763Y1621896D01*
X792392Y1620826D01*
X792394Y1620821D01*
X792391Y1620818D01*
X792391Y1620817D01*
X792390Y1620816D01*
X792235Y1619694D01*
X792238Y1619690D01*
X792235Y1619687D01*
X792235Y1607687D01*
X792238Y1607683D01*
X792235Y1607680D01*
X792440Y1606413D01*
X792446Y1606407D01*
X792443Y1606402D01*
X792925Y1605212D01*
X792932Y1605208D01*
X792930Y1605202D01*
X793664Y1604150D01*
X793672Y1604147D01*
X793671Y1604141D01*
X794621Y1603279D01*
X794630Y1603278D01*
X794630Y1603272D01*
X795749Y1602642D01*
X795757Y1602643D01*
X795759Y1602638D01*
X796989Y1602273D01*
X796997Y1602275D01*
X797000Y1602271D01*
X798281Y1602188D01*
X798285Y1602191D01*
X798287Y1602188D01*
X799568Y1602271D01*
G37*
G36*
X713168Y1602271D02*
X713168Y1602271D01*
X713174Y1602276D01*
X713179Y1602273D01*
X714409Y1602638D01*
X714414Y1602644D01*
X714419Y1602642D01*
X715538Y1603272D01*
X715541Y1603280D01*
X715547Y1603279D01*
X716497Y1604141D01*
X716498Y1604150D01*
X716504Y1604150D01*
X717238Y1605202D01*
X717238Y1605211D01*
X717243Y1605212D01*
X717725Y1606402D01*
X717723Y1606407D01*
X717727Y1606410D01*
X717726Y1606412D01*
X717728Y1606413D01*
X717933Y1607680D01*
X717930Y1607685D01*
X717933Y1607687D01*
X717933Y1619687D01*
X717930Y1619692D01*
X717933Y1619694D01*
X717778Y1620816D01*
X717773Y1620822D01*
X717776Y1620826D01*
X717405Y1621896D01*
X717399Y1621900D01*
X717401Y1621905D01*
X716828Y1622883D01*
X716822Y1622886D01*
X716823Y1622891D01*
X716070Y1623738D01*
X716063Y1623739D01*
X716063Y1623744D01*
X715160Y1624428D01*
X715153Y1624428D01*
X715152Y1624433D01*
X714133Y1624928D01*
X714126Y1624927D01*
X714124Y1624932D01*
X713027Y1625218D01*
X713021Y1625215D01*
X713018Y1625220D01*
X711887Y1625287D01*
X711887Y1625286D01*
X711881Y1625286D01*
X711881Y1625287D01*
X710750Y1625220D01*
X710745Y1625215D01*
X710741Y1625218D01*
X709644Y1624932D01*
X709640Y1624926D01*
X709635Y1624928D01*
X708616Y1624433D01*
X708613Y1624427D01*
X708608Y1624428D01*
X707705Y1623744D01*
X707703Y1623737D01*
X707698Y1623738D01*
X706945Y1622891D01*
X706945Y1622883D01*
X706940Y1622883D01*
X706367Y1621905D01*
X706368Y1621902D01*
X706367Y1621901D01*
X706368Y1621900D01*
X706368Y1621898D01*
X706363Y1621896D01*
X705992Y1620826D01*
X705994Y1620821D01*
X705991Y1620818D01*
X705991Y1620817D01*
X705990Y1620816D01*
X705835Y1619694D01*
X705838Y1619690D01*
X705835Y1619687D01*
X705835Y1607687D01*
X705838Y1607683D01*
X705835Y1607680D01*
X706040Y1606413D01*
X706046Y1606407D01*
X706043Y1606402D01*
X706525Y1605212D01*
X706532Y1605208D01*
X706530Y1605202D01*
X707264Y1604150D01*
X707272Y1604147D01*
X707271Y1604141D01*
X708221Y1603279D01*
X708230Y1603278D01*
X708230Y1603272D01*
X709349Y1602642D01*
X709357Y1602643D01*
X709359Y1602638D01*
X710589Y1602273D01*
X710597Y1602275D01*
X710600Y1602271D01*
X711881Y1602188D01*
X711885Y1602191D01*
X711887Y1602188D01*
X713168Y1602271D01*
G37*
G36*
X254484Y1602271D02*
X254484Y1602271D01*
X254490Y1602276D01*
X254495Y1602273D01*
X255725Y1602638D01*
X255730Y1602644D01*
X255735Y1602642D01*
X256854Y1603272D01*
X256857Y1603280D01*
X256863Y1603279D01*
X257813Y1604141D01*
X257814Y1604150D01*
X257820Y1604150D01*
X258554Y1605202D01*
X258554Y1605211D01*
X258559Y1605212D01*
X259041Y1606402D01*
X259039Y1606407D01*
X259043Y1606410D01*
X259042Y1606412D01*
X259044Y1606413D01*
X259249Y1607680D01*
X259246Y1607685D01*
X259249Y1607687D01*
X259249Y1619687D01*
X259246Y1619692D01*
X259249Y1619694D01*
X259094Y1620816D01*
X259089Y1620822D01*
X259092Y1620826D01*
X258721Y1621896D01*
X258715Y1621900D01*
X258717Y1621905D01*
X258144Y1622883D01*
X258138Y1622886D01*
X258139Y1622891D01*
X257386Y1623738D01*
X257379Y1623739D01*
X257379Y1623744D01*
X256476Y1624428D01*
X256469Y1624428D01*
X256468Y1624433D01*
X255449Y1624928D01*
X255442Y1624927D01*
X255440Y1624932D01*
X254343Y1625218D01*
X254337Y1625215D01*
X254334Y1625220D01*
X253203Y1625287D01*
X253203Y1625286D01*
X253197Y1625286D01*
X253197Y1625287D01*
X252066Y1625220D01*
X252061Y1625215D01*
X252057Y1625218D01*
X250960Y1624932D01*
X250956Y1624926D01*
X250951Y1624928D01*
X249932Y1624433D01*
X249929Y1624427D01*
X249924Y1624428D01*
X249021Y1623744D01*
X249019Y1623737D01*
X249014Y1623738D01*
X248261Y1622891D01*
X248261Y1622883D01*
X248256Y1622883D01*
X247683Y1621905D01*
X247684Y1621902D01*
X247683Y1621901D01*
X247684Y1621900D01*
X247684Y1621898D01*
X247679Y1621896D01*
X247308Y1620826D01*
X247310Y1620821D01*
X247307Y1620818D01*
X247307Y1620817D01*
X247306Y1620816D01*
X247151Y1619694D01*
X247154Y1619690D01*
X247151Y1619687D01*
X247151Y1607687D01*
X247154Y1607683D01*
X247151Y1607680D01*
X247356Y1606413D01*
X247362Y1606407D01*
X247359Y1606402D01*
X247841Y1605212D01*
X247848Y1605208D01*
X247846Y1605202D01*
X248580Y1604150D01*
X248588Y1604147D01*
X248587Y1604141D01*
X249537Y1603279D01*
X249546Y1603278D01*
X249546Y1603272D01*
X250665Y1602642D01*
X250673Y1602643D01*
X250675Y1602638D01*
X251905Y1602273D01*
X251913Y1602275D01*
X251916Y1602271D01*
X253197Y1602188D01*
X253201Y1602191D01*
X253203Y1602188D01*
X254484Y1602271D01*
G37*
G36*
X168084Y1602271D02*
X168084Y1602271D01*
X168090Y1602276D01*
X168095Y1602273D01*
X169325Y1602638D01*
X169330Y1602644D01*
X169335Y1602642D01*
X170454Y1603272D01*
X170457Y1603280D01*
X170463Y1603279D01*
X171413Y1604141D01*
X171414Y1604150D01*
X171420Y1604150D01*
X172154Y1605202D01*
X172154Y1605211D01*
X172159Y1605212D01*
X172641Y1606402D01*
X172639Y1606407D01*
X172643Y1606410D01*
X172642Y1606412D01*
X172644Y1606413D01*
X172849Y1607680D01*
X172846Y1607685D01*
X172849Y1607687D01*
X172849Y1619687D01*
X172846Y1619692D01*
X172849Y1619694D01*
X172694Y1620816D01*
X172689Y1620822D01*
X172692Y1620826D01*
X172321Y1621896D01*
X172315Y1621900D01*
X172317Y1621905D01*
X171744Y1622883D01*
X171738Y1622886D01*
X171739Y1622891D01*
X170986Y1623738D01*
X170979Y1623739D01*
X170979Y1623744D01*
X170076Y1624428D01*
X170069Y1624428D01*
X170068Y1624433D01*
X169049Y1624928D01*
X169042Y1624927D01*
X169040Y1624932D01*
X167943Y1625218D01*
X167937Y1625215D01*
X167934Y1625220D01*
X166803Y1625287D01*
X166803Y1625286D01*
X166797Y1625286D01*
X166797Y1625287D01*
X165666Y1625220D01*
X165661Y1625215D01*
X165657Y1625218D01*
X164560Y1624932D01*
X164556Y1624926D01*
X164551Y1624928D01*
X163532Y1624433D01*
X163529Y1624427D01*
X163524Y1624428D01*
X162621Y1623744D01*
X162619Y1623737D01*
X162614Y1623738D01*
X161861Y1622891D01*
X161861Y1622883D01*
X161856Y1622883D01*
X161283Y1621905D01*
X161284Y1621902D01*
X161283Y1621901D01*
X161284Y1621900D01*
X161284Y1621898D01*
X161279Y1621896D01*
X160908Y1620826D01*
X160910Y1620821D01*
X160907Y1620818D01*
X160907Y1620817D01*
X160906Y1620816D01*
X160751Y1619694D01*
X160754Y1619690D01*
X160751Y1619687D01*
X160751Y1607687D01*
X160754Y1607683D01*
X160751Y1607680D01*
X160956Y1606413D01*
X160962Y1606407D01*
X160959Y1606402D01*
X161441Y1605212D01*
X161448Y1605208D01*
X161446Y1605202D01*
X162180Y1604150D01*
X162188Y1604147D01*
X162187Y1604141D01*
X163137Y1603279D01*
X163146Y1603278D01*
X163146Y1603272D01*
X164265Y1602642D01*
X164273Y1602643D01*
X164275Y1602638D01*
X165505Y1602273D01*
X165513Y1602275D01*
X165516Y1602271D01*
X166797Y1602188D01*
X166801Y1602191D01*
X166803Y1602188D01*
X168084Y1602271D01*
G37*
G36*
X168084Y820814D02*
X168084Y820814D01*
X168090Y820820D01*
X168095Y820816D01*
X169325Y821181D01*
X169330Y821188D01*
X169335Y821186D01*
X170454Y821816D01*
X170457Y821823D01*
X170463Y821822D01*
X171413Y822685D01*
X171414Y822693D01*
X171420Y822693D01*
X172154Y823746D01*
X172154Y823754D01*
X172159Y823756D01*
X172641Y824946D01*
X172639Y824951D01*
X172643Y824954D01*
X172642Y824955D01*
X172644Y824956D01*
X172849Y826223D01*
X172846Y826228D01*
X172849Y826231D01*
X172849Y838231D01*
X172846Y838235D01*
X172849Y838238D01*
X172694Y839360D01*
X172689Y839365D01*
X172692Y839369D01*
X172321Y840440D01*
X172315Y840444D01*
X172317Y840449D01*
X171744Y841426D01*
X171738Y841429D01*
X171739Y841434D01*
X170986Y842281D01*
X170979Y842283D01*
X170979Y842288D01*
X170076Y842972D01*
X170069Y842972D01*
X170068Y842977D01*
X169049Y843472D01*
X169042Y843470D01*
X169040Y843475D01*
X167943Y843762D01*
X167937Y843759D01*
X167934Y843763D01*
X166803Y843830D01*
X166797Y843830D01*
X165666Y843763D01*
X165661Y843758D01*
X165657Y843762D01*
X164560Y843475D01*
X164556Y843469D01*
X164551Y843472D01*
X163532Y842977D01*
X163529Y842971D01*
X163524Y842972D01*
X162621Y842288D01*
X162619Y842281D01*
X162614Y842281D01*
X161861Y841434D01*
X161861Y841427D01*
X161856Y841426D01*
X161283Y840449D01*
X161284Y840446D01*
X161283Y840445D01*
X161284Y840444D01*
X161284Y840442D01*
X161279Y840440D01*
X160908Y839369D01*
X160910Y839364D01*
X160907Y839362D01*
X160907Y839361D01*
X160906Y839360D01*
X160751Y838238D01*
X160754Y838233D01*
X160751Y838231D01*
X160751Y826231D01*
X160754Y826226D01*
X160751Y826223D01*
X160956Y824956D01*
X160962Y824950D01*
X160959Y824946D01*
X161441Y823756D01*
X161448Y823752D01*
X161446Y823746D01*
X162180Y822693D01*
X162188Y822691D01*
X162187Y822685D01*
X163137Y821822D01*
X163146Y821821D01*
X163146Y821816D01*
X164265Y821186D01*
X164273Y821187D01*
X164275Y821181D01*
X165505Y820816D01*
X165513Y820819D01*
X165516Y820814D01*
X166797Y820732D01*
X166801Y820735D01*
X166803Y820732D01*
X168084Y820814D01*
G37*
G36*
X799568Y820814D02*
X799568Y820814D01*
X799574Y820820D01*
X799579Y820816D01*
X800809Y821181D01*
X800814Y821188D01*
X800819Y821186D01*
X801938Y821816D01*
X801941Y821823D01*
X801947Y821822D01*
X802897Y822685D01*
X802898Y822693D01*
X802904Y822693D01*
X803638Y823746D01*
X803638Y823754D01*
X803643Y823756D01*
X804125Y824946D01*
X804123Y824951D01*
X804127Y824954D01*
X804126Y824955D01*
X804128Y824956D01*
X804333Y826223D01*
X804330Y826228D01*
X804333Y826231D01*
X804333Y838231D01*
X804330Y838235D01*
X804333Y838238D01*
X804178Y839360D01*
X804173Y839365D01*
X804176Y839369D01*
X803805Y840440D01*
X803799Y840444D01*
X803801Y840449D01*
X803228Y841426D01*
X803222Y841429D01*
X803223Y841434D01*
X802470Y842281D01*
X802463Y842283D01*
X802463Y842288D01*
X801560Y842972D01*
X801553Y842972D01*
X801552Y842977D01*
X800533Y843472D01*
X800526Y843470D01*
X800524Y843475D01*
X799427Y843762D01*
X799421Y843759D01*
X799418Y843763D01*
X798287Y843830D01*
X798281Y843830D01*
X797150Y843763D01*
X797145Y843758D01*
X797141Y843762D01*
X796044Y843475D01*
X796040Y843469D01*
X796035Y843472D01*
X795016Y842977D01*
X795013Y842971D01*
X795008Y842972D01*
X794105Y842288D01*
X794103Y842281D01*
X794098Y842281D01*
X793345Y841434D01*
X793345Y841427D01*
X793340Y841426D01*
X792767Y840449D01*
X792768Y840446D01*
X792767Y840445D01*
X792768Y840444D01*
X792768Y840442D01*
X792763Y840440D01*
X792392Y839369D01*
X792394Y839364D01*
X792391Y839362D01*
X792391Y839361D01*
X792390Y839360D01*
X792235Y838238D01*
X792238Y838233D01*
X792235Y838231D01*
X792235Y826231D01*
X792238Y826226D01*
X792235Y826223D01*
X792440Y824956D01*
X792446Y824950D01*
X792443Y824946D01*
X792925Y823756D01*
X792932Y823752D01*
X792930Y823746D01*
X793664Y822693D01*
X793672Y822691D01*
X793671Y822685D01*
X794621Y821822D01*
X794630Y821821D01*
X794630Y821816D01*
X795749Y821186D01*
X795757Y821187D01*
X795759Y821181D01*
X796989Y820816D01*
X796997Y820819D01*
X797000Y820814D01*
X798281Y820732D01*
X798285Y820735D01*
X798287Y820732D01*
X799568Y820814D01*
G37*
G36*
X799568Y560337D02*
X799568Y560337D01*
X799574Y560343D01*
X799579Y560339D01*
X800809Y560704D01*
X800814Y560711D01*
X800819Y560709D01*
X801938Y561339D01*
X801941Y561346D01*
X801947Y561345D01*
X802897Y562208D01*
X802898Y562216D01*
X802904Y562216D01*
X803638Y563269D01*
X803638Y563277D01*
X803643Y563279D01*
X804125Y564469D01*
X804123Y564474D01*
X804127Y564477D01*
X804126Y564478D01*
X804128Y564479D01*
X804333Y565746D01*
X804330Y565751D01*
X804333Y565754D01*
X804333Y577754D01*
X804330Y577758D01*
X804333Y577761D01*
X804178Y578883D01*
X804173Y578888D01*
X804176Y578892D01*
X803805Y579963D01*
X803799Y579967D01*
X803801Y579972D01*
X803228Y580949D01*
X803222Y580952D01*
X803223Y580957D01*
X802470Y581804D01*
X802463Y581806D01*
X802463Y581811D01*
X801560Y582495D01*
X801553Y582495D01*
X801552Y582500D01*
X800533Y582995D01*
X800526Y582993D01*
X800524Y582998D01*
X799427Y583285D01*
X799421Y583282D01*
X799418Y583286D01*
X798287Y583353D01*
X798281Y583353D01*
X797150Y583286D01*
X797145Y583281D01*
X797141Y583285D01*
X796044Y582998D01*
X796040Y582992D01*
X796035Y582995D01*
X795016Y582500D01*
X795013Y582494D01*
X795008Y582495D01*
X794105Y581811D01*
X794103Y581804D01*
X794098Y581804D01*
X793345Y580957D01*
X793345Y580950D01*
X793340Y580949D01*
X792767Y579972D01*
X792768Y579969D01*
X792767Y579968D01*
X792768Y579967D01*
X792768Y579965D01*
X792763Y579963D01*
X792392Y578892D01*
X792394Y578887D01*
X792391Y578885D01*
X792391Y578884D01*
X792390Y578883D01*
X792235Y577761D01*
X792238Y577756D01*
X792235Y577754D01*
X792235Y565754D01*
X792238Y565749D01*
X792235Y565746D01*
X792440Y564479D01*
X792446Y564473D01*
X792443Y564469D01*
X792925Y563279D01*
X792932Y563275D01*
X792930Y563269D01*
X793664Y562216D01*
X793672Y562214D01*
X793671Y562208D01*
X794621Y561345D01*
X794630Y561344D01*
X794630Y561339D01*
X795749Y560709D01*
X795757Y560710D01*
X795759Y560704D01*
X796989Y560339D01*
X796997Y560342D01*
X797000Y560337D01*
X798281Y560255D01*
X798285Y560258D01*
X798287Y560255D01*
X799568Y560337D01*
G37*
G36*
X254484Y820814D02*
X254484Y820814D01*
X254490Y820820D01*
X254495Y820816D01*
X255725Y821181D01*
X255730Y821188D01*
X255735Y821186D01*
X256854Y821816D01*
X256857Y821823D01*
X256863Y821822D01*
X257813Y822685D01*
X257814Y822693D01*
X257820Y822693D01*
X258554Y823746D01*
X258554Y823754D01*
X258559Y823756D01*
X259041Y824946D01*
X259039Y824951D01*
X259043Y824954D01*
X259042Y824955D01*
X259044Y824956D01*
X259249Y826223D01*
X259246Y826228D01*
X259249Y826231D01*
X259249Y838231D01*
X259246Y838235D01*
X259249Y838238D01*
X259094Y839360D01*
X259089Y839365D01*
X259092Y839369D01*
X258721Y840440D01*
X258715Y840444D01*
X258717Y840449D01*
X258144Y841426D01*
X258138Y841429D01*
X258139Y841434D01*
X257386Y842281D01*
X257379Y842283D01*
X257379Y842288D01*
X256476Y842972D01*
X256469Y842972D01*
X256468Y842977D01*
X255449Y843472D01*
X255442Y843470D01*
X255440Y843475D01*
X254343Y843762D01*
X254337Y843759D01*
X254334Y843763D01*
X253203Y843830D01*
X253197Y843830D01*
X252066Y843763D01*
X252061Y843758D01*
X252057Y843762D01*
X250960Y843475D01*
X250956Y843469D01*
X250951Y843472D01*
X249932Y842977D01*
X249929Y842971D01*
X249924Y842972D01*
X249021Y842288D01*
X249019Y842281D01*
X249014Y842281D01*
X248261Y841434D01*
X248261Y841427D01*
X248256Y841426D01*
X247683Y840449D01*
X247684Y840446D01*
X247683Y840445D01*
X247684Y840444D01*
X247684Y840442D01*
X247679Y840440D01*
X247308Y839369D01*
X247310Y839364D01*
X247307Y839362D01*
X247307Y839361D01*
X247306Y839360D01*
X247151Y838238D01*
X247154Y838233D01*
X247151Y838231D01*
X247151Y826231D01*
X247154Y826226D01*
X247151Y826223D01*
X247356Y824956D01*
X247362Y824950D01*
X247359Y824946D01*
X247841Y823756D01*
X247848Y823752D01*
X247846Y823746D01*
X248580Y822693D01*
X248588Y822691D01*
X248587Y822685D01*
X249537Y821822D01*
X249546Y821821D01*
X249546Y821816D01*
X250665Y821186D01*
X250673Y821187D01*
X250675Y821181D01*
X251905Y820816D01*
X251913Y820819D01*
X251916Y820814D01*
X253197Y820732D01*
X253201Y820735D01*
X253203Y820732D01*
X254484Y820814D01*
G37*
G36*
X713168Y299860D02*
X713168Y299860D01*
X713174Y299866D01*
X713179Y299862D01*
X714409Y300227D01*
X714414Y300234D01*
X714419Y300232D01*
X715538Y300862D01*
X715541Y300869D01*
X715547Y300868D01*
X716497Y301731D01*
X716498Y301739D01*
X716504Y301739D01*
X717238Y302792D01*
X717238Y302800D01*
X717243Y302802D01*
X717725Y303992D01*
X717723Y303997D01*
X717727Y304000D01*
X717726Y304001D01*
X717728Y304002D01*
X717933Y305269D01*
X717930Y305274D01*
X717933Y305277D01*
X717933Y317277D01*
X717930Y317281D01*
X717933Y317284D01*
X717778Y318406D01*
X717773Y318411D01*
X717776Y318415D01*
X717405Y319486D01*
X717399Y319490D01*
X717401Y319495D01*
X716828Y320472D01*
X716822Y320475D01*
X716823Y320480D01*
X716070Y321327D01*
X716063Y321329D01*
X716063Y321334D01*
X715160Y322018D01*
X715153Y322018D01*
X715152Y322023D01*
X714133Y322518D01*
X714126Y322516D01*
X714124Y322521D01*
X713027Y322808D01*
X713021Y322805D01*
X713018Y322809D01*
X711887Y322876D01*
X711881Y322876D01*
X710750Y322809D01*
X710745Y322804D01*
X710741Y322808D01*
X709644Y322521D01*
X709640Y322515D01*
X709635Y322518D01*
X708616Y322023D01*
X708613Y322017D01*
X708608Y322018D01*
X707705Y321334D01*
X707703Y321327D01*
X707698Y321327D01*
X706945Y320480D01*
X706945Y320473D01*
X706940Y320472D01*
X706367Y319495D01*
X706368Y319492D01*
X706367Y319491D01*
X706368Y319490D01*
X706368Y319488D01*
X706363Y319486D01*
X705992Y318415D01*
X705994Y318410D01*
X705991Y318408D01*
X705991Y318407D01*
X705990Y318406D01*
X705835Y317284D01*
X705838Y317279D01*
X705835Y317277D01*
X705835Y305277D01*
X705838Y305272D01*
X705835Y305269D01*
X706040Y304002D01*
X706046Y303996D01*
X706043Y303992D01*
X706525Y302802D01*
X706532Y302798D01*
X706530Y302792D01*
X707264Y301739D01*
X707272Y301737D01*
X707271Y301731D01*
X708221Y300868D01*
X708230Y300867D01*
X708230Y300862D01*
X709349Y300232D01*
X709357Y300233D01*
X709359Y300227D01*
X710589Y299862D01*
X710597Y299865D01*
X710600Y299860D01*
X711881Y299778D01*
X711885Y299781D01*
X711887Y299778D01*
X713168Y299860D01*
G37*
G36*
X799568Y299860D02*
X799568Y299860D01*
X799574Y299866D01*
X799579Y299862D01*
X800809Y300227D01*
X800814Y300234D01*
X800819Y300232D01*
X801938Y300862D01*
X801941Y300869D01*
X801947Y300868D01*
X802897Y301731D01*
X802898Y301739D01*
X802904Y301739D01*
X803638Y302792D01*
X803638Y302800D01*
X803643Y302802D01*
X804125Y303992D01*
X804123Y303997D01*
X804127Y304000D01*
X804126Y304001D01*
X804128Y304002D01*
X804333Y305269D01*
X804330Y305274D01*
X804333Y305277D01*
X804333Y317277D01*
X804330Y317281D01*
X804333Y317284D01*
X804178Y318406D01*
X804173Y318411D01*
X804176Y318415D01*
X803805Y319486D01*
X803799Y319490D01*
X803801Y319495D01*
X803228Y320472D01*
X803222Y320475D01*
X803223Y320480D01*
X802470Y321327D01*
X802463Y321329D01*
X802463Y321334D01*
X801560Y322018D01*
X801553Y322018D01*
X801552Y322023D01*
X800533Y322518D01*
X800526Y322516D01*
X800524Y322521D01*
X799427Y322808D01*
X799421Y322805D01*
X799418Y322809D01*
X798287Y322876D01*
X798281Y322876D01*
X797150Y322809D01*
X797145Y322804D01*
X797141Y322808D01*
X796044Y322521D01*
X796040Y322515D01*
X796035Y322518D01*
X795016Y322023D01*
X795013Y322017D01*
X795008Y322018D01*
X794105Y321334D01*
X794103Y321327D01*
X794098Y321327D01*
X793345Y320480D01*
X793345Y320473D01*
X793340Y320472D01*
X792767Y319495D01*
X792768Y319492D01*
X792767Y319491D01*
X792768Y319490D01*
X792768Y319488D01*
X792763Y319486D01*
X792392Y318415D01*
X792394Y318410D01*
X792391Y318408D01*
X792391Y318407D01*
X792390Y318406D01*
X792235Y317284D01*
X792238Y317279D01*
X792235Y317277D01*
X792235Y305277D01*
X792238Y305272D01*
X792235Y305269D01*
X792440Y304002D01*
X792446Y303996D01*
X792443Y303992D01*
X792925Y302802D01*
X792932Y302798D01*
X792930Y302792D01*
X793664Y301739D01*
X793672Y301737D01*
X793671Y301731D01*
X794621Y300868D01*
X794630Y300867D01*
X794630Y300862D01*
X795749Y300232D01*
X795757Y300233D01*
X795759Y300227D01*
X796989Y299862D01*
X796997Y299865D01*
X797000Y299860D01*
X798281Y299778D01*
X798285Y299781D01*
X798287Y299778D01*
X799568Y299860D01*
G37*
G36*
X799568Y1341794D02*
X799568Y1341794D01*
X799574Y1341799D01*
X799579Y1341796D01*
X800809Y1342161D01*
X800814Y1342167D01*
X800819Y1342165D01*
X801938Y1342795D01*
X801941Y1342803D01*
X801947Y1342802D01*
X802897Y1343664D01*
X802898Y1343673D01*
X802904Y1343673D01*
X803638Y1344725D01*
X803638Y1344734D01*
X803643Y1344735D01*
X804125Y1345925D01*
X804123Y1345930D01*
X804127Y1345933D01*
X804126Y1345935D01*
X804128Y1345936D01*
X804333Y1347203D01*
X804330Y1347208D01*
X804333Y1347210D01*
X804333Y1359210D01*
X804330Y1359215D01*
X804333Y1359217D01*
X804178Y1360339D01*
X804173Y1360345D01*
X804176Y1360349D01*
X803805Y1361419D01*
X803799Y1361423D01*
X803801Y1361428D01*
X803228Y1362406D01*
X803222Y1362409D01*
X803223Y1362414D01*
X802470Y1363261D01*
X802463Y1363262D01*
X802463Y1363267D01*
X801560Y1363951D01*
X801553Y1363951D01*
X801552Y1363956D01*
X800533Y1364451D01*
X800526Y1364450D01*
X800524Y1364455D01*
X799427Y1364741D01*
X799421Y1364738D01*
X799418Y1364743D01*
X798287Y1364810D01*
X798287Y1364809D01*
X798281Y1364809D01*
X798281Y1364810D01*
X797150Y1364743D01*
X797145Y1364738D01*
X797141Y1364741D01*
X796044Y1364455D01*
X796040Y1364449D01*
X796035Y1364451D01*
X795016Y1363956D01*
X795013Y1363950D01*
X795008Y1363951D01*
X794105Y1363267D01*
X794103Y1363260D01*
X794098Y1363261D01*
X793345Y1362414D01*
X793345Y1362406D01*
X793340Y1362406D01*
X792767Y1361428D01*
X792768Y1361425D01*
X792767Y1361424D01*
X792768Y1361423D01*
X792768Y1361421D01*
X792763Y1361419D01*
X792392Y1360349D01*
X792394Y1360344D01*
X792391Y1360341D01*
X792391Y1360340D01*
X792390Y1360339D01*
X792235Y1359217D01*
X792238Y1359213D01*
X792235Y1359210D01*
X792235Y1347210D01*
X792238Y1347206D01*
X792235Y1347203D01*
X792440Y1345936D01*
X792446Y1345930D01*
X792443Y1345925D01*
X792925Y1344735D01*
X792932Y1344731D01*
X792930Y1344725D01*
X793664Y1343673D01*
X793672Y1343670D01*
X793671Y1343664D01*
X794621Y1342802D01*
X794630Y1342801D01*
X794630Y1342795D01*
X795749Y1342165D01*
X795757Y1342166D01*
X795759Y1342161D01*
X796989Y1341796D01*
X796997Y1341798D01*
X797000Y1341794D01*
X798281Y1341711D01*
X798285Y1341714D01*
X798287Y1341711D01*
X799568Y1341794D01*
G37*
G36*
X254484Y1341794D02*
X254484Y1341794D01*
X254490Y1341799D01*
X254495Y1341796D01*
X255725Y1342161D01*
X255730Y1342167D01*
X255735Y1342165D01*
X256854Y1342795D01*
X256857Y1342803D01*
X256863Y1342802D01*
X257813Y1343664D01*
X257814Y1343673D01*
X257820Y1343673D01*
X258554Y1344725D01*
X258554Y1344734D01*
X258559Y1344735D01*
X259041Y1345925D01*
X259039Y1345930D01*
X259043Y1345933D01*
X259042Y1345935D01*
X259044Y1345936D01*
X259249Y1347203D01*
X259246Y1347208D01*
X259249Y1347210D01*
X259249Y1359210D01*
X259246Y1359215D01*
X259249Y1359217D01*
X259094Y1360339D01*
X259089Y1360345D01*
X259092Y1360349D01*
X258721Y1361419D01*
X258715Y1361423D01*
X258717Y1361428D01*
X258144Y1362406D01*
X258138Y1362409D01*
X258139Y1362414D01*
X257386Y1363261D01*
X257379Y1363262D01*
X257379Y1363267D01*
X256476Y1363951D01*
X256469Y1363951D01*
X256468Y1363956D01*
X255449Y1364451D01*
X255442Y1364450D01*
X255440Y1364455D01*
X254343Y1364741D01*
X254337Y1364738D01*
X254334Y1364743D01*
X253203Y1364810D01*
X253203Y1364809D01*
X253197Y1364809D01*
X253197Y1364810D01*
X252066Y1364743D01*
X252061Y1364738D01*
X252057Y1364741D01*
X250960Y1364455D01*
X250956Y1364449D01*
X250951Y1364451D01*
X249932Y1363956D01*
X249929Y1363950D01*
X249924Y1363951D01*
X249021Y1363267D01*
X249019Y1363260D01*
X249014Y1363261D01*
X248261Y1362414D01*
X248261Y1362406D01*
X248256Y1362406D01*
X247683Y1361428D01*
X247684Y1361425D01*
X247683Y1361424D01*
X247684Y1361423D01*
X247684Y1361421D01*
X247679Y1361419D01*
X247308Y1360349D01*
X247310Y1360344D01*
X247307Y1360341D01*
X247307Y1360340D01*
X247306Y1360339D01*
X247151Y1359217D01*
X247154Y1359213D01*
X247151Y1359210D01*
X247151Y1347210D01*
X247154Y1347206D01*
X247151Y1347203D01*
X247356Y1345936D01*
X247362Y1345930D01*
X247359Y1345925D01*
X247841Y1344735D01*
X247848Y1344731D01*
X247846Y1344725D01*
X248580Y1343673D01*
X248588Y1343670D01*
X248587Y1343664D01*
X249537Y1342802D01*
X249546Y1342801D01*
X249546Y1342795D01*
X250665Y1342165D01*
X250673Y1342166D01*
X250675Y1342161D01*
X251905Y1341796D01*
X251913Y1341798D01*
X251916Y1341794D01*
X253197Y1341711D01*
X253201Y1341714D01*
X253203Y1341711D01*
X254484Y1341794D01*
G37*
G36*
X168084Y1341794D02*
X168084Y1341794D01*
X168090Y1341799D01*
X168095Y1341796D01*
X169325Y1342161D01*
X169330Y1342167D01*
X169335Y1342165D01*
X170454Y1342795D01*
X170457Y1342803D01*
X170463Y1342802D01*
X171413Y1343664D01*
X171414Y1343673D01*
X171420Y1343673D01*
X172154Y1344725D01*
X172154Y1344734D01*
X172159Y1344735D01*
X172641Y1345925D01*
X172639Y1345930D01*
X172643Y1345933D01*
X172642Y1345935D01*
X172644Y1345936D01*
X172849Y1347203D01*
X172846Y1347208D01*
X172849Y1347210D01*
X172849Y1359210D01*
X172846Y1359215D01*
X172849Y1359217D01*
X172694Y1360339D01*
X172689Y1360345D01*
X172692Y1360349D01*
X172321Y1361419D01*
X172315Y1361423D01*
X172317Y1361428D01*
X171744Y1362406D01*
X171738Y1362409D01*
X171739Y1362414D01*
X170986Y1363261D01*
X170979Y1363262D01*
X170979Y1363267D01*
X170076Y1363951D01*
X170069Y1363951D01*
X170068Y1363956D01*
X169049Y1364451D01*
X169042Y1364450D01*
X169040Y1364455D01*
X167943Y1364741D01*
X167937Y1364738D01*
X167934Y1364743D01*
X166803Y1364810D01*
X166803Y1364809D01*
X166797Y1364809D01*
X166797Y1364810D01*
X165666Y1364743D01*
X165661Y1364738D01*
X165657Y1364741D01*
X164560Y1364455D01*
X164556Y1364449D01*
X164551Y1364451D01*
X163532Y1363956D01*
X163529Y1363950D01*
X163524Y1363951D01*
X162621Y1363267D01*
X162619Y1363260D01*
X162614Y1363261D01*
X161861Y1362414D01*
X161861Y1362406D01*
X161856Y1362406D01*
X161283Y1361428D01*
X161284Y1361425D01*
X161283Y1361424D01*
X161284Y1361423D01*
X161284Y1361421D01*
X161279Y1361419D01*
X160908Y1360349D01*
X160910Y1360344D01*
X160907Y1360341D01*
X160907Y1360340D01*
X160906Y1360339D01*
X160751Y1359217D01*
X160754Y1359213D01*
X160751Y1359210D01*
X160751Y1347210D01*
X160754Y1347206D01*
X160751Y1347203D01*
X160956Y1345936D01*
X160962Y1345930D01*
X160959Y1345925D01*
X161441Y1344735D01*
X161448Y1344731D01*
X161446Y1344725D01*
X162180Y1343673D01*
X162188Y1343670D01*
X162187Y1343664D01*
X163137Y1342802D01*
X163146Y1342801D01*
X163146Y1342795D01*
X164265Y1342165D01*
X164273Y1342166D01*
X164275Y1342161D01*
X165505Y1341796D01*
X165513Y1341798D01*
X165516Y1341794D01*
X166797Y1341711D01*
X166801Y1341714D01*
X166803Y1341711D01*
X168084Y1341794D01*
G37*
G36*
X713168Y1341794D02*
X713168Y1341794D01*
X713174Y1341799D01*
X713179Y1341796D01*
X714409Y1342161D01*
X714414Y1342167D01*
X714419Y1342165D01*
X715538Y1342795D01*
X715541Y1342803D01*
X715547Y1342802D01*
X716497Y1343664D01*
X716498Y1343673D01*
X716504Y1343673D01*
X717238Y1344725D01*
X717238Y1344734D01*
X717243Y1344735D01*
X717725Y1345925D01*
X717723Y1345930D01*
X717727Y1345933D01*
X717726Y1345935D01*
X717728Y1345936D01*
X717933Y1347203D01*
X717930Y1347208D01*
X717933Y1347210D01*
X717933Y1359210D01*
X717930Y1359215D01*
X717933Y1359217D01*
X717778Y1360339D01*
X717773Y1360345D01*
X717776Y1360349D01*
X717405Y1361419D01*
X717399Y1361423D01*
X717401Y1361428D01*
X716828Y1362406D01*
X716822Y1362409D01*
X716823Y1362414D01*
X716070Y1363261D01*
X716063Y1363262D01*
X716063Y1363267D01*
X715160Y1363951D01*
X715153Y1363951D01*
X715152Y1363956D01*
X714133Y1364451D01*
X714126Y1364450D01*
X714124Y1364455D01*
X713027Y1364741D01*
X713021Y1364738D01*
X713018Y1364743D01*
X711887Y1364810D01*
X711887Y1364809D01*
X711881Y1364809D01*
X711881Y1364810D01*
X710750Y1364743D01*
X710745Y1364738D01*
X710741Y1364741D01*
X709644Y1364455D01*
X709640Y1364449D01*
X709635Y1364451D01*
X708616Y1363956D01*
X708613Y1363950D01*
X708608Y1363951D01*
X707705Y1363267D01*
X707703Y1363260D01*
X707698Y1363261D01*
X706945Y1362414D01*
X706945Y1362406D01*
X706940Y1362406D01*
X706367Y1361428D01*
X706368Y1361425D01*
X706367Y1361424D01*
X706368Y1361423D01*
X706368Y1361421D01*
X706363Y1361419D01*
X705992Y1360349D01*
X705994Y1360344D01*
X705991Y1360341D01*
X705991Y1360340D01*
X705990Y1360339D01*
X705835Y1359217D01*
X705838Y1359213D01*
X705835Y1359210D01*
X705835Y1347210D01*
X705838Y1347206D01*
X705835Y1347203D01*
X706040Y1345936D01*
X706046Y1345930D01*
X706043Y1345925D01*
X706525Y1344735D01*
X706532Y1344731D01*
X706530Y1344725D01*
X707264Y1343673D01*
X707272Y1343670D01*
X707271Y1343664D01*
X708221Y1342802D01*
X708230Y1342801D01*
X708230Y1342795D01*
X709349Y1342165D01*
X709357Y1342166D01*
X709359Y1342161D01*
X710589Y1341796D01*
X710597Y1341798D01*
X710600Y1341794D01*
X711881Y1341711D01*
X711885Y1341714D01*
X711887Y1341711D01*
X713168Y1341794D01*
G37*
G36*
X254484Y299860D02*
X254484Y299860D01*
X254490Y299866D01*
X254495Y299862D01*
X255725Y300227D01*
X255730Y300234D01*
X255735Y300232D01*
X256854Y300862D01*
X256857Y300869D01*
X256863Y300868D01*
X257813Y301731D01*
X257814Y301739D01*
X257820Y301739D01*
X258554Y302792D01*
X258554Y302800D01*
X258559Y302802D01*
X259041Y303992D01*
X259039Y303997D01*
X259043Y304000D01*
X259042Y304001D01*
X259044Y304002D01*
X259249Y305269D01*
X259246Y305274D01*
X259249Y305277D01*
X259249Y317277D01*
X259246Y317281D01*
X259249Y317284D01*
X259094Y318406D01*
X259089Y318411D01*
X259092Y318415D01*
X258721Y319486D01*
X258715Y319490D01*
X258717Y319495D01*
X258144Y320472D01*
X258138Y320475D01*
X258139Y320480D01*
X257386Y321327D01*
X257379Y321329D01*
X257379Y321334D01*
X256476Y322018D01*
X256469Y322018D01*
X256468Y322023D01*
X255449Y322518D01*
X255442Y322516D01*
X255440Y322521D01*
X254343Y322808D01*
X254337Y322805D01*
X254334Y322809D01*
X253203Y322876D01*
X253197Y322876D01*
X252066Y322809D01*
X252061Y322804D01*
X252057Y322808D01*
X250960Y322521D01*
X250956Y322515D01*
X250951Y322518D01*
X249932Y322023D01*
X249929Y322017D01*
X249924Y322018D01*
X249021Y321334D01*
X249019Y321327D01*
X249014Y321327D01*
X248261Y320480D01*
X248261Y320473D01*
X248256Y320472D01*
X247683Y319495D01*
X247684Y319492D01*
X247683Y319491D01*
X247684Y319490D01*
X247684Y319488D01*
X247679Y319486D01*
X247308Y318415D01*
X247310Y318410D01*
X247307Y318408D01*
X247307Y318407D01*
X247306Y318406D01*
X247151Y317284D01*
X247154Y317279D01*
X247151Y317277D01*
X247151Y305277D01*
X247154Y305272D01*
X247151Y305269D01*
X247356Y304002D01*
X247362Y303996D01*
X247359Y303992D01*
X247841Y302802D01*
X247848Y302798D01*
X247846Y302792D01*
X248580Y301739D01*
X248588Y301737D01*
X248587Y301731D01*
X249537Y300868D01*
X249546Y300867D01*
X249546Y300862D01*
X250665Y300232D01*
X250673Y300233D01*
X250675Y300227D01*
X251905Y299862D01*
X251913Y299865D01*
X251916Y299860D01*
X253197Y299778D01*
X253201Y299781D01*
X253203Y299778D01*
X254484Y299860D01*
G37*
G36*
X713168Y820814D02*
X713168Y820814D01*
X713174Y820820D01*
X713179Y820816D01*
X714409Y821181D01*
X714414Y821188D01*
X714419Y821186D01*
X715538Y821816D01*
X715541Y821823D01*
X715547Y821822D01*
X716497Y822685D01*
X716498Y822693D01*
X716504Y822693D01*
X717238Y823746D01*
X717238Y823754D01*
X717243Y823756D01*
X717725Y824946D01*
X717723Y824951D01*
X717727Y824954D01*
X717726Y824955D01*
X717728Y824956D01*
X717933Y826223D01*
X717930Y826228D01*
X717933Y826231D01*
X717933Y838231D01*
X717930Y838235D01*
X717933Y838238D01*
X717778Y839360D01*
X717773Y839365D01*
X717776Y839369D01*
X717405Y840440D01*
X717399Y840444D01*
X717401Y840449D01*
X716828Y841426D01*
X716822Y841429D01*
X716823Y841434D01*
X716070Y842281D01*
X716063Y842283D01*
X716063Y842288D01*
X715160Y842972D01*
X715153Y842972D01*
X715152Y842977D01*
X714133Y843472D01*
X714126Y843470D01*
X714124Y843475D01*
X713027Y843762D01*
X713021Y843759D01*
X713018Y843763D01*
X711887Y843830D01*
X711881Y843830D01*
X710750Y843763D01*
X710745Y843758D01*
X710741Y843762D01*
X709644Y843475D01*
X709640Y843469D01*
X709635Y843472D01*
X708616Y842977D01*
X708613Y842971D01*
X708608Y842972D01*
X707705Y842288D01*
X707703Y842281D01*
X707698Y842281D01*
X706945Y841434D01*
X706945Y841427D01*
X706940Y841426D01*
X706367Y840449D01*
X706368Y840446D01*
X706367Y840445D01*
X706368Y840444D01*
X706368Y840442D01*
X706363Y840440D01*
X705992Y839369D01*
X705994Y839364D01*
X705991Y839362D01*
X705991Y839361D01*
X705990Y839360D01*
X705835Y838238D01*
X705838Y838233D01*
X705835Y838231D01*
X705835Y826231D01*
X705838Y826226D01*
X705835Y826223D01*
X706040Y824956D01*
X706046Y824950D01*
X706043Y824946D01*
X706525Y823756D01*
X706532Y823752D01*
X706530Y823746D01*
X707264Y822693D01*
X707272Y822691D01*
X707271Y822685D01*
X708221Y821822D01*
X708230Y821821D01*
X708230Y821816D01*
X709349Y821186D01*
X709357Y821187D01*
X709359Y821181D01*
X710589Y820816D01*
X710597Y820819D01*
X710600Y820814D01*
X711881Y820732D01*
X711885Y820735D01*
X711887Y820732D01*
X713168Y820814D01*
G37*
G36*
X713168Y560337D02*
X713168Y560337D01*
X713174Y560343D01*
X713179Y560339D01*
X714409Y560704D01*
X714414Y560711D01*
X714419Y560709D01*
X715538Y561339D01*
X715541Y561346D01*
X715547Y561345D01*
X716497Y562208D01*
X716498Y562216D01*
X716504Y562216D01*
X717238Y563269D01*
X717238Y563277D01*
X717243Y563279D01*
X717725Y564469D01*
X717723Y564474D01*
X717727Y564477D01*
X717726Y564478D01*
X717728Y564479D01*
X717933Y565746D01*
X717930Y565751D01*
X717933Y565754D01*
X717933Y577754D01*
X717930Y577758D01*
X717933Y577761D01*
X717778Y578883D01*
X717773Y578888D01*
X717776Y578892D01*
X717405Y579963D01*
X717399Y579967D01*
X717401Y579972D01*
X716828Y580949D01*
X716822Y580952D01*
X716823Y580957D01*
X716070Y581804D01*
X716063Y581806D01*
X716063Y581811D01*
X715160Y582495D01*
X715153Y582495D01*
X715152Y582500D01*
X714133Y582995D01*
X714126Y582993D01*
X714124Y582998D01*
X713027Y583285D01*
X713021Y583282D01*
X713018Y583286D01*
X711887Y583353D01*
X711881Y583353D01*
X710750Y583286D01*
X710745Y583281D01*
X710741Y583285D01*
X709644Y582998D01*
X709640Y582992D01*
X709635Y582995D01*
X708616Y582500D01*
X708613Y582494D01*
X708608Y582495D01*
X707705Y581811D01*
X707703Y581804D01*
X707698Y581804D01*
X706945Y580957D01*
X706945Y580950D01*
X706940Y580949D01*
X706367Y579972D01*
X706368Y579969D01*
X706367Y579968D01*
X706368Y579967D01*
X706368Y579965D01*
X706363Y579963D01*
X705992Y578892D01*
X705994Y578887D01*
X705991Y578885D01*
X705991Y578884D01*
X705990Y578883D01*
X705835Y577761D01*
X705838Y577756D01*
X705835Y577754D01*
X705835Y565754D01*
X705838Y565749D01*
X705835Y565746D01*
X706040Y564479D01*
X706046Y564473D01*
X706043Y564469D01*
X706525Y563279D01*
X706532Y563275D01*
X706530Y563269D01*
X707264Y562216D01*
X707272Y562214D01*
X707271Y562208D01*
X708221Y561345D01*
X708230Y561344D01*
X708230Y561339D01*
X709349Y560709D01*
X709357Y560710D01*
X709359Y560704D01*
X710589Y560339D01*
X710597Y560342D01*
X710600Y560337D01*
X711881Y560255D01*
X711885Y560258D01*
X711887Y560255D01*
X713168Y560337D01*
G37*
G36*
X168084Y560337D02*
X168084Y560337D01*
X168090Y560343D01*
X168095Y560339D01*
X169325Y560704D01*
X169330Y560711D01*
X169335Y560709D01*
X170454Y561339D01*
X170457Y561346D01*
X170463Y561345D01*
X171413Y562208D01*
X171414Y562216D01*
X171420Y562216D01*
X172154Y563269D01*
X172154Y563277D01*
X172159Y563279D01*
X172641Y564469D01*
X172639Y564474D01*
X172643Y564477D01*
X172642Y564478D01*
X172644Y564479D01*
X172849Y565746D01*
X172846Y565751D01*
X172849Y565754D01*
X172849Y577754D01*
X172846Y577758D01*
X172849Y577761D01*
X172694Y578883D01*
X172689Y578888D01*
X172692Y578892D01*
X172321Y579963D01*
X172315Y579967D01*
X172317Y579972D01*
X171744Y580949D01*
X171738Y580952D01*
X171739Y580957D01*
X170986Y581804D01*
X170979Y581806D01*
X170979Y581811D01*
X170076Y582495D01*
X170069Y582495D01*
X170068Y582500D01*
X169049Y582995D01*
X169042Y582993D01*
X169040Y582998D01*
X167943Y583285D01*
X167937Y583282D01*
X167934Y583286D01*
X166803Y583353D01*
X166797Y583353D01*
X165666Y583286D01*
X165661Y583281D01*
X165657Y583285D01*
X164560Y582998D01*
X164556Y582992D01*
X164551Y582995D01*
X163532Y582500D01*
X163529Y582494D01*
X163524Y582495D01*
X162621Y581811D01*
X162619Y581804D01*
X162614Y581804D01*
X161861Y580957D01*
X161861Y580950D01*
X161856Y580949D01*
X161283Y579972D01*
X161284Y579969D01*
X161283Y579968D01*
X161284Y579967D01*
X161284Y579965D01*
X161279Y579963D01*
X160908Y578892D01*
X160910Y578887D01*
X160907Y578885D01*
X160907Y578884D01*
X160906Y578883D01*
X160751Y577761D01*
X160754Y577756D01*
X160751Y577754D01*
X160751Y565754D01*
X160754Y565749D01*
X160751Y565746D01*
X160956Y564479D01*
X160962Y564473D01*
X160959Y564469D01*
X161441Y563279D01*
X161448Y563275D01*
X161446Y563269D01*
X162180Y562216D01*
X162188Y562214D01*
X162187Y562208D01*
X163137Y561345D01*
X163146Y561344D01*
X163146Y561339D01*
X164265Y560709D01*
X164273Y560710D01*
X164275Y560704D01*
X165505Y560339D01*
X165513Y560342D01*
X165516Y560337D01*
X166797Y560255D01*
X166801Y560258D01*
X166803Y560255D01*
X168084Y560337D01*
G37*
G36*
X168084Y299860D02*
X168084Y299860D01*
X168090Y299866D01*
X168095Y299862D01*
X169325Y300227D01*
X169330Y300234D01*
X169335Y300232D01*
X170454Y300862D01*
X170457Y300869D01*
X170463Y300868D01*
X171413Y301731D01*
X171414Y301739D01*
X171420Y301739D01*
X172154Y302792D01*
X172154Y302800D01*
X172159Y302802D01*
X172641Y303992D01*
X172639Y303997D01*
X172643Y304000D01*
X172642Y304001D01*
X172644Y304002D01*
X172849Y305269D01*
X172846Y305274D01*
X172849Y305277D01*
X172849Y317277D01*
X172846Y317281D01*
X172849Y317284D01*
X172694Y318406D01*
X172689Y318411D01*
X172692Y318415D01*
X172321Y319486D01*
X172315Y319490D01*
X172317Y319495D01*
X171744Y320472D01*
X171738Y320475D01*
X171739Y320480D01*
X170986Y321327D01*
X170979Y321329D01*
X170979Y321334D01*
X170076Y322018D01*
X170069Y322018D01*
X170068Y322023D01*
X169049Y322518D01*
X169042Y322516D01*
X169040Y322521D01*
X167943Y322808D01*
X167937Y322805D01*
X167934Y322809D01*
X166803Y322876D01*
X166797Y322876D01*
X165666Y322809D01*
X165661Y322804D01*
X165657Y322808D01*
X164560Y322521D01*
X164556Y322515D01*
X164551Y322518D01*
X163532Y322023D01*
X163529Y322017D01*
X163524Y322018D01*
X162621Y321334D01*
X162619Y321327D01*
X162614Y321327D01*
X161861Y320480D01*
X161861Y320473D01*
X161856Y320472D01*
X161283Y319495D01*
X161284Y319492D01*
X161283Y319491D01*
X161284Y319490D01*
X161284Y319488D01*
X161279Y319486D01*
X160908Y318415D01*
X160910Y318410D01*
X160907Y318408D01*
X160907Y318407D01*
X160906Y318406D01*
X160751Y317284D01*
X160754Y317279D01*
X160751Y317277D01*
X160751Y305277D01*
X160754Y305272D01*
X160751Y305269D01*
X160956Y304002D01*
X160962Y303996D01*
X160959Y303992D01*
X161441Y302802D01*
X161448Y302798D01*
X161446Y302792D01*
X162180Y301739D01*
X162188Y301737D01*
X162187Y301731D01*
X163137Y300868D01*
X163146Y300867D01*
X163146Y300862D01*
X164265Y300232D01*
X164273Y300233D01*
X164275Y300227D01*
X165505Y299862D01*
X165513Y299865D01*
X165516Y299860D01*
X166797Y299778D01*
X166801Y299781D01*
X166803Y299778D01*
X168084Y299860D01*
G37*
G36*
X254484Y560337D02*
X254484Y560337D01*
X254490Y560343D01*
X254495Y560339D01*
X255725Y560704D01*
X255730Y560711D01*
X255735Y560709D01*
X256854Y561339D01*
X256857Y561346D01*
X256863Y561345D01*
X257813Y562208D01*
X257814Y562216D01*
X257820Y562216D01*
X258554Y563269D01*
X258554Y563277D01*
X258559Y563279D01*
X259041Y564469D01*
X259039Y564474D01*
X259043Y564477D01*
X259042Y564478D01*
X259044Y564479D01*
X259249Y565746D01*
X259246Y565751D01*
X259249Y565754D01*
X259249Y577754D01*
X259246Y577758D01*
X259249Y577761D01*
X259094Y578883D01*
X259089Y578888D01*
X259092Y578892D01*
X258721Y579963D01*
X258715Y579967D01*
X258717Y579972D01*
X258144Y580949D01*
X258138Y580952D01*
X258139Y580957D01*
X257386Y581804D01*
X257379Y581806D01*
X257379Y581811D01*
X256476Y582495D01*
X256469Y582495D01*
X256468Y582500D01*
X255449Y582995D01*
X255442Y582993D01*
X255440Y582998D01*
X254343Y583285D01*
X254337Y583282D01*
X254334Y583286D01*
X253203Y583353D01*
X253197Y583353D01*
X252066Y583286D01*
X252061Y583281D01*
X252057Y583285D01*
X250960Y582998D01*
X250956Y582992D01*
X250951Y582995D01*
X249932Y582500D01*
X249929Y582494D01*
X249924Y582495D01*
X249021Y581811D01*
X249019Y581804D01*
X249014Y581804D01*
X248261Y580957D01*
X248261Y580950D01*
X248256Y580949D01*
X247683Y579972D01*
X247684Y579969D01*
X247683Y579968D01*
X247684Y579967D01*
X247684Y579965D01*
X247679Y579963D01*
X247308Y578892D01*
X247310Y578887D01*
X247307Y578885D01*
X247307Y578884D01*
X247306Y578883D01*
X247151Y577761D01*
X247154Y577756D01*
X247151Y577754D01*
X247151Y565754D01*
X247154Y565749D01*
X247151Y565746D01*
X247356Y564479D01*
X247362Y564473D01*
X247359Y564469D01*
X247841Y563279D01*
X247848Y563275D01*
X247846Y563269D01*
X248580Y562216D01*
X248588Y562214D01*
X248587Y562208D01*
X249537Y561345D01*
X249546Y561344D01*
X249546Y561339D01*
X250665Y560709D01*
X250673Y560710D01*
X250675Y560704D01*
X251905Y560339D01*
X251913Y560342D01*
X251916Y560337D01*
X253197Y560255D01*
X253201Y560258D01*
X253203Y560255D01*
X254484Y560337D01*
G37*
G36*
X254484Y1081291D02*
X254484Y1081291D01*
X254490Y1081297D01*
X254495Y1081293D01*
X255725Y1081658D01*
X255730Y1081665D01*
X255735Y1081663D01*
X256854Y1082293D01*
X256857Y1082300D01*
X256863Y1082299D01*
X257813Y1083162D01*
X257814Y1083170D01*
X257820Y1083170D01*
X258554Y1084223D01*
X258554Y1084231D01*
X258559Y1084233D01*
X259041Y1085423D01*
X259039Y1085428D01*
X259043Y1085431D01*
X259042Y1085432D01*
X259044Y1085433D01*
X259249Y1086700D01*
X259246Y1086705D01*
X259249Y1086708D01*
X259249Y1098708D01*
X259246Y1098712D01*
X259249Y1098715D01*
X259094Y1099837D01*
X259089Y1099842D01*
X259092Y1099846D01*
X258721Y1100917D01*
X258715Y1100921D01*
X258717Y1100926D01*
X258144Y1101903D01*
X258138Y1101906D01*
X258139Y1101911D01*
X257386Y1102758D01*
X257379Y1102760D01*
X257379Y1102765D01*
X256476Y1103449D01*
X256469Y1103449D01*
X256468Y1103454D01*
X255449Y1103949D01*
X255442Y1103947D01*
X255440Y1103952D01*
X254343Y1104239D01*
X254337Y1104236D01*
X254334Y1104240D01*
X253203Y1104307D01*
X253197Y1104307D01*
X252066Y1104240D01*
X252061Y1104235D01*
X252057Y1104239D01*
X250960Y1103952D01*
X250956Y1103946D01*
X250951Y1103949D01*
X249932Y1103454D01*
X249929Y1103448D01*
X249924Y1103449D01*
X249021Y1102765D01*
X249019Y1102758D01*
X249014Y1102758D01*
X248261Y1101911D01*
X248261Y1101904D01*
X248256Y1101903D01*
X247683Y1100926D01*
X247684Y1100923D01*
X247683Y1100922D01*
X247684Y1100921D01*
X247684Y1100919D01*
X247679Y1100917D01*
X247308Y1099846D01*
X247310Y1099841D01*
X247307Y1099839D01*
X247307Y1099838D01*
X247306Y1099837D01*
X247151Y1098715D01*
X247154Y1098710D01*
X247151Y1098708D01*
X247151Y1086708D01*
X247154Y1086703D01*
X247151Y1086700D01*
X247356Y1085433D01*
X247362Y1085427D01*
X247359Y1085423D01*
X247841Y1084233D01*
X247848Y1084229D01*
X247846Y1084223D01*
X248580Y1083170D01*
X248588Y1083168D01*
X248587Y1083162D01*
X249537Y1082299D01*
X249546Y1082298D01*
X249546Y1082293D01*
X250665Y1081663D01*
X250673Y1081664D01*
X250675Y1081658D01*
X251905Y1081293D01*
X251913Y1081296D01*
X251916Y1081291D01*
X253197Y1081209D01*
X253201Y1081212D01*
X253203Y1081209D01*
X254484Y1081291D01*
G37*
G36*
X713168Y1081291D02*
X713168Y1081291D01*
X713174Y1081297D01*
X713179Y1081293D01*
X714409Y1081658D01*
X714414Y1081665D01*
X714419Y1081663D01*
X715538Y1082293D01*
X715541Y1082300D01*
X715547Y1082299D01*
X716497Y1083162D01*
X716498Y1083170D01*
X716504Y1083170D01*
X717238Y1084223D01*
X717238Y1084231D01*
X717243Y1084233D01*
X717725Y1085423D01*
X717723Y1085428D01*
X717727Y1085431D01*
X717726Y1085432D01*
X717728Y1085433D01*
X717933Y1086700D01*
X717930Y1086705D01*
X717933Y1086708D01*
X717933Y1098708D01*
X717930Y1098712D01*
X717933Y1098715D01*
X717778Y1099837D01*
X717773Y1099842D01*
X717776Y1099846D01*
X717405Y1100917D01*
X717399Y1100921D01*
X717401Y1100926D01*
X716828Y1101903D01*
X716822Y1101906D01*
X716823Y1101911D01*
X716070Y1102758D01*
X716063Y1102760D01*
X716063Y1102765D01*
X715160Y1103449D01*
X715153Y1103449D01*
X715152Y1103454D01*
X714133Y1103949D01*
X714126Y1103947D01*
X714124Y1103952D01*
X713027Y1104239D01*
X713021Y1104236D01*
X713018Y1104240D01*
X711887Y1104307D01*
X711881Y1104307D01*
X710750Y1104240D01*
X710745Y1104235D01*
X710741Y1104239D01*
X709644Y1103952D01*
X709640Y1103946D01*
X709635Y1103949D01*
X708616Y1103454D01*
X708613Y1103448D01*
X708608Y1103449D01*
X707705Y1102765D01*
X707703Y1102758D01*
X707698Y1102758D01*
X706945Y1101911D01*
X706945Y1101904D01*
X706940Y1101903D01*
X706367Y1100926D01*
X706368Y1100923D01*
X706367Y1100922D01*
X706368Y1100921D01*
X706368Y1100919D01*
X706363Y1100917D01*
X705992Y1099846D01*
X705994Y1099841D01*
X705991Y1099839D01*
X705991Y1099838D01*
X705990Y1099837D01*
X705835Y1098715D01*
X705838Y1098710D01*
X705835Y1098708D01*
X705835Y1086708D01*
X705838Y1086703D01*
X705835Y1086700D01*
X706040Y1085433D01*
X706046Y1085427D01*
X706043Y1085423D01*
X706525Y1084233D01*
X706532Y1084229D01*
X706530Y1084223D01*
X707264Y1083170D01*
X707272Y1083168D01*
X707271Y1083162D01*
X708221Y1082299D01*
X708230Y1082298D01*
X708230Y1082293D01*
X709349Y1081663D01*
X709357Y1081664D01*
X709359Y1081658D01*
X710589Y1081293D01*
X710597Y1081296D01*
X710600Y1081291D01*
X711881Y1081209D01*
X711885Y1081212D01*
X711887Y1081209D01*
X713168Y1081291D01*
G37*
G36*
X799568Y1081291D02*
X799568Y1081291D01*
X799574Y1081297D01*
X799579Y1081293D01*
X800809Y1081658D01*
X800814Y1081665D01*
X800819Y1081663D01*
X801938Y1082293D01*
X801941Y1082300D01*
X801947Y1082299D01*
X802897Y1083162D01*
X802898Y1083170D01*
X802904Y1083170D01*
X803638Y1084223D01*
X803638Y1084231D01*
X803643Y1084233D01*
X804125Y1085423D01*
X804123Y1085428D01*
X804127Y1085431D01*
X804126Y1085432D01*
X804128Y1085433D01*
X804333Y1086700D01*
X804330Y1086705D01*
X804333Y1086708D01*
X804333Y1098708D01*
X804330Y1098712D01*
X804333Y1098715D01*
X804178Y1099837D01*
X804173Y1099842D01*
X804176Y1099846D01*
X803805Y1100917D01*
X803799Y1100921D01*
X803801Y1100926D01*
X803228Y1101903D01*
X803222Y1101906D01*
X803223Y1101911D01*
X802470Y1102758D01*
X802463Y1102760D01*
X802463Y1102765D01*
X801560Y1103449D01*
X801553Y1103449D01*
X801552Y1103454D01*
X800533Y1103949D01*
X800526Y1103947D01*
X800524Y1103952D01*
X799427Y1104239D01*
X799421Y1104236D01*
X799418Y1104240D01*
X798287Y1104307D01*
X798281Y1104307D01*
X797150Y1104240D01*
X797145Y1104235D01*
X797141Y1104239D01*
X796044Y1103952D01*
X796040Y1103946D01*
X796035Y1103949D01*
X795016Y1103454D01*
X795013Y1103448D01*
X795008Y1103449D01*
X794105Y1102765D01*
X794103Y1102758D01*
X794098Y1102758D01*
X793345Y1101911D01*
X793345Y1101904D01*
X793340Y1101903D01*
X792767Y1100926D01*
X792768Y1100923D01*
X792767Y1100922D01*
X792768Y1100921D01*
X792768Y1100919D01*
X792763Y1100917D01*
X792392Y1099846D01*
X792394Y1099841D01*
X792391Y1099839D01*
X792391Y1099838D01*
X792390Y1099837D01*
X792235Y1098715D01*
X792238Y1098710D01*
X792235Y1098708D01*
X792235Y1086708D01*
X792238Y1086703D01*
X792235Y1086700D01*
X792440Y1085433D01*
X792446Y1085427D01*
X792443Y1085423D01*
X792925Y1084233D01*
X792932Y1084229D01*
X792930Y1084223D01*
X793664Y1083170D01*
X793672Y1083168D01*
X793671Y1083162D01*
X794621Y1082299D01*
X794630Y1082298D01*
X794630Y1082293D01*
X795749Y1081663D01*
X795757Y1081664D01*
X795759Y1081658D01*
X796989Y1081293D01*
X796997Y1081296D01*
X797000Y1081291D01*
X798281Y1081209D01*
X798285Y1081212D01*
X798287Y1081209D01*
X799568Y1081291D01*
G37*
G36*
X799568Y39383D02*
X799568Y39383D01*
X799574Y39389D01*
X799579Y39385D01*
X800809Y39750D01*
X800814Y39757D01*
X800819Y39755D01*
X801938Y40385D01*
X801941Y40392D01*
X801947Y40391D01*
X802897Y41254D01*
X802898Y41262D01*
X802904Y41262D01*
X803638Y42315D01*
X803638Y42323D01*
X803643Y42325D01*
X804125Y43515D01*
X804123Y43520D01*
X804127Y43523D01*
X804126Y43524D01*
X804128Y43525D01*
X804333Y44792D01*
X804330Y44797D01*
X804333Y44800D01*
X804333Y56800D01*
X804330Y56804D01*
X804333Y56807D01*
X804178Y57929D01*
X804173Y57934D01*
X804176Y57938D01*
X803805Y59009D01*
X803799Y59013D01*
X803801Y59018D01*
X803228Y59995D01*
X803222Y59998D01*
X803223Y60003D01*
X802470Y60850D01*
X802463Y60852D01*
X802463Y60857D01*
X801560Y61541D01*
X801553Y61541D01*
X801552Y61546D01*
X800533Y62041D01*
X800526Y62039D01*
X800524Y62044D01*
X799427Y62331D01*
X799421Y62328D01*
X799418Y62332D01*
X798287Y62399D01*
X798281Y62399D01*
X797150Y62332D01*
X797145Y62327D01*
X797141Y62331D01*
X796044Y62044D01*
X796040Y62038D01*
X796035Y62041D01*
X795016Y61546D01*
X795013Y61540D01*
X795008Y61541D01*
X794105Y60857D01*
X794103Y60850D01*
X794098Y60850D01*
X793345Y60003D01*
X793345Y59996D01*
X793340Y59995D01*
X792767Y59018D01*
X792768Y59015D01*
X792767Y59014D01*
X792768Y59013D01*
X792768Y59011D01*
X792763Y59009D01*
X792392Y57938D01*
X792394Y57933D01*
X792391Y57931D01*
X792391Y57930D01*
X792390Y57929D01*
X792235Y56807D01*
X792238Y56802D01*
X792235Y56800D01*
X792235Y44800D01*
X792238Y44795D01*
X792235Y44792D01*
X792440Y43525D01*
X792446Y43519D01*
X792443Y43515D01*
X792925Y42325D01*
X792932Y42321D01*
X792930Y42315D01*
X793664Y41262D01*
X793672Y41260D01*
X793671Y41254D01*
X794621Y40391D01*
X794630Y40390D01*
X794630Y40385D01*
X795749Y39755D01*
X795757Y39756D01*
X795759Y39750D01*
X796989Y39385D01*
X796997Y39388D01*
X797000Y39383D01*
X798281Y39301D01*
X798285Y39304D01*
X798287Y39301D01*
X799568Y39383D01*
G37*
G36*
X254484Y39383D02*
X254484Y39383D01*
X254490Y39389D01*
X254495Y39385D01*
X255725Y39750D01*
X255730Y39757D01*
X255735Y39755D01*
X256854Y40385D01*
X256857Y40392D01*
X256863Y40391D01*
X257813Y41254D01*
X257814Y41262D01*
X257820Y41262D01*
X258554Y42315D01*
X258554Y42323D01*
X258559Y42325D01*
X259041Y43515D01*
X259039Y43520D01*
X259043Y43523D01*
X259042Y43524D01*
X259044Y43525D01*
X259249Y44792D01*
X259246Y44797D01*
X259249Y44800D01*
X259249Y56800D01*
X259246Y56804D01*
X259249Y56807D01*
X259094Y57929D01*
X259089Y57934D01*
X259092Y57938D01*
X258721Y59009D01*
X258715Y59013D01*
X258717Y59018D01*
X258144Y59995D01*
X258138Y59998D01*
X258139Y60003D01*
X257386Y60850D01*
X257379Y60852D01*
X257379Y60857D01*
X256476Y61541D01*
X256469Y61541D01*
X256468Y61546D01*
X255449Y62041D01*
X255442Y62039D01*
X255440Y62044D01*
X254343Y62331D01*
X254337Y62328D01*
X254334Y62332D01*
X253203Y62399D01*
X253197Y62399D01*
X252066Y62332D01*
X252061Y62327D01*
X252057Y62331D01*
X250960Y62044D01*
X250956Y62038D01*
X250951Y62041D01*
X249932Y61546D01*
X249929Y61540D01*
X249924Y61541D01*
X249021Y60857D01*
X249019Y60850D01*
X249014Y60850D01*
X248261Y60003D01*
X248261Y59996D01*
X248256Y59995D01*
X247683Y59018D01*
X247684Y59015D01*
X247683Y59014D01*
X247684Y59013D01*
X247684Y59011D01*
X247679Y59009D01*
X247308Y57938D01*
X247310Y57933D01*
X247307Y57931D01*
X247307Y57930D01*
X247306Y57929D01*
X247151Y56807D01*
X247154Y56802D01*
X247151Y56800D01*
X247151Y44800D01*
X247154Y44795D01*
X247151Y44792D01*
X247356Y43525D01*
X247362Y43519D01*
X247359Y43515D01*
X247841Y42325D01*
X247848Y42321D01*
X247846Y42315D01*
X248580Y41262D01*
X248588Y41260D01*
X248587Y41254D01*
X249537Y40391D01*
X249546Y40390D01*
X249546Y40385D01*
X250665Y39755D01*
X250673Y39756D01*
X250675Y39750D01*
X251905Y39385D01*
X251913Y39388D01*
X251916Y39383D01*
X253197Y39301D01*
X253201Y39304D01*
X253203Y39301D01*
X254484Y39383D01*
G37*
G36*
X168084Y39383D02*
X168084Y39383D01*
X168090Y39389D01*
X168095Y39385D01*
X169325Y39750D01*
X169330Y39757D01*
X169335Y39755D01*
X170454Y40385D01*
X170457Y40392D01*
X170463Y40391D01*
X171413Y41254D01*
X171414Y41262D01*
X171420Y41262D01*
X172154Y42315D01*
X172154Y42323D01*
X172159Y42325D01*
X172641Y43515D01*
X172639Y43520D01*
X172643Y43523D01*
X172642Y43524D01*
X172644Y43525D01*
X172849Y44792D01*
X172846Y44797D01*
X172849Y44800D01*
X172849Y56800D01*
X172846Y56804D01*
X172849Y56807D01*
X172694Y57929D01*
X172689Y57934D01*
X172692Y57938D01*
X172321Y59009D01*
X172315Y59013D01*
X172317Y59018D01*
X171744Y59995D01*
X171738Y59998D01*
X171739Y60003D01*
X170986Y60850D01*
X170979Y60852D01*
X170979Y60857D01*
X170076Y61541D01*
X170069Y61541D01*
X170068Y61546D01*
X169049Y62041D01*
X169042Y62039D01*
X169040Y62044D01*
X167943Y62331D01*
X167937Y62328D01*
X167934Y62332D01*
X166803Y62399D01*
X166797Y62399D01*
X165666Y62332D01*
X165661Y62327D01*
X165657Y62331D01*
X164560Y62044D01*
X164556Y62038D01*
X164551Y62041D01*
X163532Y61546D01*
X163529Y61540D01*
X163524Y61541D01*
X162621Y60857D01*
X162619Y60850D01*
X162614Y60850D01*
X161861Y60003D01*
X161861Y59996D01*
X161856Y59995D01*
X161283Y59018D01*
X161284Y59015D01*
X161283Y59014D01*
X161284Y59013D01*
X161284Y59011D01*
X161279Y59009D01*
X160908Y57938D01*
X160910Y57933D01*
X160907Y57931D01*
X160907Y57930D01*
X160906Y57929D01*
X160751Y56807D01*
X160754Y56802D01*
X160751Y56800D01*
X160751Y44800D01*
X160754Y44795D01*
X160751Y44792D01*
X160956Y43525D01*
X160962Y43519D01*
X160959Y43515D01*
X161441Y42325D01*
X161448Y42321D01*
X161446Y42315D01*
X162180Y41262D01*
X162188Y41260D01*
X162187Y41254D01*
X163137Y40391D01*
X163146Y40390D01*
X163146Y40385D01*
X164265Y39755D01*
X164273Y39756D01*
X164275Y39750D01*
X165505Y39385D01*
X165513Y39388D01*
X165516Y39383D01*
X166797Y39301D01*
X166801Y39304D01*
X166803Y39301D01*
X168084Y39383D01*
G37*
G36*
X254371Y1562998D02*
X254371Y1562998D01*
X254376Y1563003D01*
X254380Y1563000D01*
X255503Y1563335D01*
X255507Y1563341D01*
X255511Y1563339D01*
X256547Y1563887D01*
X256550Y1563894D01*
X256555Y1563892D01*
X257463Y1564632D01*
X257465Y1564639D01*
X257470Y1564638D01*
X258217Y1565541D01*
X258217Y1565548D01*
X258223Y1565549D01*
X258779Y1566579D01*
X258778Y1566587D01*
X258783Y1566588D01*
X259127Y1567708D01*
X259125Y1567715D01*
X259129Y1567717D01*
X259249Y1568882D01*
X259247Y1568886D01*
X259249Y1568887D01*
X259249Y1574887D01*
X259247Y1574890D01*
X259249Y1574892D01*
X259138Y1576068D01*
X259133Y1576073D01*
X259136Y1576077D01*
X258798Y1577209D01*
X258792Y1577213D01*
X258794Y1577218D01*
X258242Y1578262D01*
X258235Y1578265D01*
X258237Y1578270D01*
X257491Y1579186D01*
X257484Y1579188D01*
X257484Y1579193D01*
X256575Y1579946D01*
X256567Y1579946D01*
X256567Y1579951D01*
X255527Y1580513D01*
X255520Y1580511D01*
X255518Y1580516D01*
X254389Y1580864D01*
X254383Y1580861D01*
X254380Y1580866D01*
X253205Y1580986D01*
X253198Y1580982D01*
X253194Y1580986D01*
X251854Y1580830D01*
X251848Y1580824D01*
X251843Y1580827D01*
X250572Y1580376D01*
X250567Y1580369D01*
X250562Y1580372D01*
X249423Y1579649D01*
X249420Y1579641D01*
X249414Y1579642D01*
X248464Y1578684D01*
X248463Y1578676D01*
X248457Y1578675D01*
X247744Y1577530D01*
X247745Y1577522D01*
X247739Y1577520D01*
X247299Y1576245D01*
X247301Y1576237D01*
X247297Y1576234D01*
X247151Y1574893D01*
X247153Y1574889D01*
X247151Y1574887D01*
X247151Y1568887D01*
X247153Y1568884D01*
X247151Y1568882D01*
X247306Y1567553D01*
X247312Y1567547D01*
X247309Y1567542D01*
X247756Y1566281D01*
X247763Y1566276D01*
X247761Y1566271D01*
X248478Y1565141D01*
X248485Y1565138D01*
X248484Y1565133D01*
X249435Y1564190D01*
X249443Y1564189D01*
X249443Y1564184D01*
X250579Y1563476D01*
X250587Y1563477D01*
X250589Y1563472D01*
X251854Y1563035D01*
X251859Y1563037D01*
X251860Y1563036D01*
X251863Y1563036D01*
X251865Y1563033D01*
X253195Y1562888D01*
X253201Y1562892D01*
X253205Y1562888D01*
X254371Y1562998D01*
G37*
G36*
X167971Y1302521D02*
X167971Y1302521D01*
X167976Y1302526D01*
X167980Y1302523D01*
X169103Y1302858D01*
X169107Y1302864D01*
X169111Y1302862D01*
X170147Y1303410D01*
X170150Y1303417D01*
X170155Y1303415D01*
X171063Y1304155D01*
X171065Y1304162D01*
X171070Y1304161D01*
X171817Y1305064D01*
X171817Y1305071D01*
X171823Y1305072D01*
X172379Y1306102D01*
X172378Y1306110D01*
X172383Y1306111D01*
X172727Y1307231D01*
X172725Y1307238D01*
X172729Y1307240D01*
X172849Y1308405D01*
X172847Y1308409D01*
X172849Y1308410D01*
X172849Y1314410D01*
X172847Y1314413D01*
X172849Y1314415D01*
X172738Y1315591D01*
X172733Y1315596D01*
X172736Y1315600D01*
X172398Y1316732D01*
X172392Y1316736D01*
X172394Y1316741D01*
X171842Y1317785D01*
X171835Y1317788D01*
X171837Y1317793D01*
X171091Y1318709D01*
X171084Y1318711D01*
X171084Y1318716D01*
X170175Y1319469D01*
X170167Y1319469D01*
X170167Y1319474D01*
X169127Y1320036D01*
X169120Y1320034D01*
X169118Y1320039D01*
X167989Y1320387D01*
X167983Y1320384D01*
X167980Y1320389D01*
X166805Y1320509D01*
X166798Y1320505D01*
X166794Y1320509D01*
X165454Y1320353D01*
X165448Y1320347D01*
X165443Y1320350D01*
X164172Y1319899D01*
X164167Y1319892D01*
X164162Y1319895D01*
X163023Y1319172D01*
X163020Y1319164D01*
X163014Y1319165D01*
X162064Y1318207D01*
X162063Y1318199D01*
X162057Y1318198D01*
X161344Y1317053D01*
X161345Y1317045D01*
X161339Y1317043D01*
X160899Y1315768D01*
X160901Y1315760D01*
X160897Y1315757D01*
X160751Y1314416D01*
X160753Y1314412D01*
X160751Y1314410D01*
X160751Y1308410D01*
X160753Y1308407D01*
X160751Y1308405D01*
X160906Y1307076D01*
X160912Y1307070D01*
X160909Y1307065D01*
X161356Y1305804D01*
X161363Y1305799D01*
X161361Y1305794D01*
X162078Y1304664D01*
X162085Y1304661D01*
X162084Y1304656D01*
X163035Y1303713D01*
X163043Y1303712D01*
X163043Y1303707D01*
X164179Y1302999D01*
X164187Y1303000D01*
X164189Y1302995D01*
X165454Y1302558D01*
X165459Y1302560D01*
X165460Y1302559D01*
X165463Y1302559D01*
X165465Y1302556D01*
X166795Y1302411D01*
X166801Y1302415D01*
X166805Y1302411D01*
X167971Y1302521D01*
G37*
G36*
X713055Y1302521D02*
X713055Y1302521D01*
X713060Y1302526D01*
X713064Y1302523D01*
X714187Y1302858D01*
X714191Y1302864D01*
X714195Y1302862D01*
X715231Y1303410D01*
X715234Y1303417D01*
X715239Y1303415D01*
X716147Y1304155D01*
X716149Y1304162D01*
X716154Y1304161D01*
X716901Y1305064D01*
X716901Y1305071D01*
X716907Y1305072D01*
X717463Y1306102D01*
X717462Y1306110D01*
X717467Y1306111D01*
X717811Y1307231D01*
X717809Y1307238D01*
X717813Y1307240D01*
X717933Y1308405D01*
X717931Y1308409D01*
X717933Y1308410D01*
X717933Y1314410D01*
X717931Y1314413D01*
X717933Y1314415D01*
X717822Y1315591D01*
X717817Y1315596D01*
X717820Y1315600D01*
X717482Y1316732D01*
X717476Y1316736D01*
X717478Y1316741D01*
X716926Y1317785D01*
X716919Y1317788D01*
X716921Y1317793D01*
X716175Y1318709D01*
X716168Y1318711D01*
X716168Y1318716D01*
X715259Y1319469D01*
X715251Y1319469D01*
X715251Y1319474D01*
X714211Y1320036D01*
X714204Y1320034D01*
X714202Y1320039D01*
X713073Y1320387D01*
X713067Y1320384D01*
X713064Y1320389D01*
X711889Y1320509D01*
X711882Y1320505D01*
X711878Y1320509D01*
X710538Y1320353D01*
X710532Y1320347D01*
X710527Y1320350D01*
X709256Y1319899D01*
X709251Y1319892D01*
X709246Y1319895D01*
X708107Y1319172D01*
X708104Y1319164D01*
X708098Y1319165D01*
X707148Y1318207D01*
X707147Y1318199D01*
X707141Y1318198D01*
X706428Y1317053D01*
X706429Y1317045D01*
X706423Y1317043D01*
X705983Y1315768D01*
X705985Y1315760D01*
X705981Y1315757D01*
X705835Y1314416D01*
X705837Y1314412D01*
X705835Y1314410D01*
X705835Y1308410D01*
X705837Y1308407D01*
X705835Y1308405D01*
X705990Y1307076D01*
X705996Y1307070D01*
X705993Y1307065D01*
X706440Y1305804D01*
X706447Y1305799D01*
X706445Y1305794D01*
X707162Y1304664D01*
X707169Y1304661D01*
X707168Y1304656D01*
X708119Y1303713D01*
X708127Y1303712D01*
X708127Y1303707D01*
X709263Y1302999D01*
X709271Y1303000D01*
X709273Y1302995D01*
X710538Y1302558D01*
X710543Y1302560D01*
X710544Y1302559D01*
X710547Y1302559D01*
X710549Y1302556D01*
X711879Y1302411D01*
X711885Y1302415D01*
X711889Y1302411D01*
X713055Y1302521D01*
G37*
G36*
X799455Y1302521D02*
X799455Y1302521D01*
X799460Y1302526D01*
X799464Y1302523D01*
X800587Y1302858D01*
X800591Y1302864D01*
X800595Y1302862D01*
X801631Y1303410D01*
X801634Y1303417D01*
X801639Y1303415D01*
X802547Y1304155D01*
X802549Y1304162D01*
X802554Y1304161D01*
X803301Y1305064D01*
X803301Y1305071D01*
X803307Y1305072D01*
X803863Y1306102D01*
X803862Y1306110D01*
X803867Y1306111D01*
X804211Y1307231D01*
X804209Y1307238D01*
X804213Y1307240D01*
X804333Y1308405D01*
X804331Y1308409D01*
X804333Y1308410D01*
X804333Y1314410D01*
X804331Y1314413D01*
X804333Y1314415D01*
X804222Y1315591D01*
X804217Y1315596D01*
X804220Y1315600D01*
X803882Y1316732D01*
X803876Y1316736D01*
X803878Y1316741D01*
X803326Y1317785D01*
X803319Y1317788D01*
X803321Y1317793D01*
X802575Y1318709D01*
X802568Y1318711D01*
X802568Y1318716D01*
X801659Y1319469D01*
X801651Y1319469D01*
X801651Y1319474D01*
X800611Y1320036D01*
X800604Y1320034D01*
X800602Y1320039D01*
X799473Y1320387D01*
X799467Y1320384D01*
X799464Y1320389D01*
X798289Y1320509D01*
X798282Y1320505D01*
X798278Y1320509D01*
X796938Y1320353D01*
X796932Y1320347D01*
X796927Y1320350D01*
X795656Y1319899D01*
X795651Y1319892D01*
X795646Y1319895D01*
X794507Y1319172D01*
X794504Y1319164D01*
X794498Y1319165D01*
X793548Y1318207D01*
X793547Y1318199D01*
X793541Y1318198D01*
X792828Y1317053D01*
X792829Y1317045D01*
X792823Y1317043D01*
X792383Y1315768D01*
X792385Y1315760D01*
X792381Y1315757D01*
X792235Y1314416D01*
X792237Y1314412D01*
X792235Y1314410D01*
X792235Y1308410D01*
X792237Y1308407D01*
X792235Y1308405D01*
X792390Y1307076D01*
X792396Y1307070D01*
X792393Y1307065D01*
X792840Y1305804D01*
X792847Y1305799D01*
X792845Y1305794D01*
X793562Y1304664D01*
X793569Y1304661D01*
X793568Y1304656D01*
X794519Y1303713D01*
X794527Y1303712D01*
X794527Y1303707D01*
X795663Y1302999D01*
X795671Y1303000D01*
X795673Y1302995D01*
X796938Y1302558D01*
X796943Y1302560D01*
X796944Y1302559D01*
X796947Y1302559D01*
X796949Y1302556D01*
X798279Y1302411D01*
X798285Y1302415D01*
X798289Y1302411D01*
X799455Y1302521D01*
G37*
G36*
X799455Y1042019D02*
X799455Y1042019D01*
X799460Y1042024D01*
X799464Y1042021D01*
X800587Y1042356D01*
X800591Y1042362D01*
X800595Y1042360D01*
X801631Y1042908D01*
X801634Y1042914D01*
X801639Y1042913D01*
X802547Y1043652D01*
X802549Y1043659D01*
X802554Y1043659D01*
X803301Y1044561D01*
X803301Y1044569D01*
X803307Y1044569D01*
X803863Y1045600D01*
X803862Y1045607D01*
X803867Y1045609D01*
X804211Y1046728D01*
X804209Y1046735D01*
X804213Y1046738D01*
X804333Y1047903D01*
X804331Y1047906D01*
X804333Y1047908D01*
X804333Y1053908D01*
X804331Y1053911D01*
X804333Y1053913D01*
X804222Y1055089D01*
X804217Y1055094D01*
X804220Y1055098D01*
X803882Y1056230D01*
X803876Y1056234D01*
X803878Y1056239D01*
X803326Y1057283D01*
X803319Y1057286D01*
X803321Y1057291D01*
X802575Y1058207D01*
X802568Y1058208D01*
X802568Y1058214D01*
X801659Y1058967D01*
X801651Y1058967D01*
X801651Y1058972D01*
X800611Y1059533D01*
X800604Y1059532D01*
X800602Y1059537D01*
X799473Y1059884D01*
X799467Y1059882D01*
X799464Y1059886D01*
X798289Y1060007D01*
X798282Y1060003D01*
X798278Y1060007D01*
X796938Y1059850D01*
X796932Y1059845D01*
X796927Y1059848D01*
X795656Y1059397D01*
X795651Y1059390D01*
X795646Y1059392D01*
X794507Y1058670D01*
X794504Y1058662D01*
X794498Y1058663D01*
X793548Y1057705D01*
X793547Y1057697D01*
X793541Y1057696D01*
X792828Y1056551D01*
X792829Y1056543D01*
X792823Y1056541D01*
X792383Y1055265D01*
X792385Y1055258D01*
X792381Y1055255D01*
X792235Y1053913D01*
X792237Y1053910D01*
X792235Y1053908D01*
X792235Y1047908D01*
X792237Y1047905D01*
X792235Y1047902D01*
X792390Y1046573D01*
X792396Y1046567D01*
X792393Y1046563D01*
X792840Y1045302D01*
X792847Y1045297D01*
X792845Y1045292D01*
X793562Y1044162D01*
X793569Y1044159D01*
X793568Y1044153D01*
X794519Y1043211D01*
X794527Y1043210D01*
X794527Y1043204D01*
X795663Y1042497D01*
X795671Y1042498D01*
X795673Y1042492D01*
X796938Y1042056D01*
X796943Y1042057D01*
X796944Y1042057D01*
X796947Y1042057D01*
X796949Y1042053D01*
X798279Y1041909D01*
X798285Y1041913D01*
X798289Y1041909D01*
X799455Y1042019D01*
G37*
G36*
X167971Y1042019D02*
X167971Y1042019D01*
X167976Y1042024D01*
X167980Y1042021D01*
X169103Y1042356D01*
X169107Y1042362D01*
X169111Y1042360D01*
X170147Y1042908D01*
X170150Y1042914D01*
X170155Y1042913D01*
X171063Y1043652D01*
X171065Y1043659D01*
X171070Y1043659D01*
X171817Y1044561D01*
X171817Y1044569D01*
X171823Y1044569D01*
X172379Y1045600D01*
X172378Y1045607D01*
X172383Y1045609D01*
X172727Y1046728D01*
X172725Y1046735D01*
X172729Y1046738D01*
X172849Y1047903D01*
X172847Y1047906D01*
X172849Y1047908D01*
X172849Y1053908D01*
X172847Y1053911D01*
X172849Y1053913D01*
X172738Y1055089D01*
X172733Y1055094D01*
X172736Y1055098D01*
X172398Y1056230D01*
X172392Y1056234D01*
X172394Y1056239D01*
X171842Y1057283D01*
X171835Y1057286D01*
X171837Y1057291D01*
X171091Y1058207D01*
X171084Y1058208D01*
X171084Y1058214D01*
X170175Y1058967D01*
X170167Y1058967D01*
X170167Y1058972D01*
X169127Y1059533D01*
X169120Y1059532D01*
X169118Y1059537D01*
X167989Y1059884D01*
X167983Y1059882D01*
X167980Y1059886D01*
X166805Y1060007D01*
X166798Y1060003D01*
X166794Y1060007D01*
X165454Y1059850D01*
X165448Y1059845D01*
X165443Y1059848D01*
X164172Y1059397D01*
X164167Y1059390D01*
X164162Y1059392D01*
X163023Y1058670D01*
X163020Y1058662D01*
X163014Y1058663D01*
X162064Y1057705D01*
X162063Y1057697D01*
X162057Y1057696D01*
X161344Y1056551D01*
X161345Y1056543D01*
X161339Y1056541D01*
X160899Y1055265D01*
X160901Y1055258D01*
X160897Y1055255D01*
X160751Y1053913D01*
X160753Y1053910D01*
X160751Y1053908D01*
X160751Y1047908D01*
X160753Y1047905D01*
X160751Y1047902D01*
X160906Y1046573D01*
X160912Y1046567D01*
X160909Y1046563D01*
X161356Y1045302D01*
X161363Y1045297D01*
X161361Y1045292D01*
X162078Y1044162D01*
X162085Y1044159D01*
X162084Y1044153D01*
X163035Y1043211D01*
X163043Y1043210D01*
X163043Y1043204D01*
X164179Y1042497D01*
X164187Y1042498D01*
X164189Y1042492D01*
X165454Y1042056D01*
X165459Y1042057D01*
X165460Y1042057D01*
X165463Y1042057D01*
X165465Y1042053D01*
X166795Y1041909D01*
X166801Y1041913D01*
X166805Y1041909D01*
X167971Y1042019D01*
G37*
G36*
X713055Y1042019D02*
X713055Y1042019D01*
X713060Y1042024D01*
X713064Y1042021D01*
X714187Y1042356D01*
X714191Y1042362D01*
X714195Y1042360D01*
X715231Y1042908D01*
X715234Y1042914D01*
X715239Y1042913D01*
X716147Y1043652D01*
X716149Y1043659D01*
X716154Y1043659D01*
X716901Y1044561D01*
X716901Y1044569D01*
X716907Y1044569D01*
X717463Y1045600D01*
X717462Y1045607D01*
X717467Y1045609D01*
X717811Y1046728D01*
X717809Y1046735D01*
X717813Y1046738D01*
X717933Y1047903D01*
X717931Y1047906D01*
X717933Y1047908D01*
X717933Y1053908D01*
X717931Y1053911D01*
X717933Y1053913D01*
X717822Y1055089D01*
X717817Y1055094D01*
X717820Y1055098D01*
X717482Y1056230D01*
X717476Y1056234D01*
X717478Y1056239D01*
X716926Y1057283D01*
X716919Y1057286D01*
X716921Y1057291D01*
X716175Y1058207D01*
X716168Y1058208D01*
X716168Y1058214D01*
X715259Y1058967D01*
X715251Y1058967D01*
X715251Y1058972D01*
X714211Y1059533D01*
X714204Y1059532D01*
X714202Y1059537D01*
X713073Y1059884D01*
X713067Y1059882D01*
X713064Y1059886D01*
X711889Y1060007D01*
X711882Y1060003D01*
X711878Y1060007D01*
X710538Y1059850D01*
X710532Y1059845D01*
X710527Y1059848D01*
X709256Y1059397D01*
X709251Y1059390D01*
X709246Y1059392D01*
X708107Y1058670D01*
X708104Y1058662D01*
X708098Y1058663D01*
X707148Y1057705D01*
X707147Y1057697D01*
X707141Y1057696D01*
X706428Y1056551D01*
X706429Y1056543D01*
X706423Y1056541D01*
X705983Y1055265D01*
X705985Y1055258D01*
X705981Y1055255D01*
X705835Y1053913D01*
X705837Y1053910D01*
X705835Y1053908D01*
X705835Y1047908D01*
X705837Y1047905D01*
X705835Y1047902D01*
X705990Y1046573D01*
X705996Y1046567D01*
X705993Y1046563D01*
X706440Y1045302D01*
X706447Y1045297D01*
X706445Y1045292D01*
X707162Y1044162D01*
X707169Y1044159D01*
X707168Y1044153D01*
X708119Y1043211D01*
X708127Y1043210D01*
X708127Y1043204D01*
X709263Y1042497D01*
X709271Y1042498D01*
X709273Y1042492D01*
X710538Y1042056D01*
X710543Y1042057D01*
X710544Y1042057D01*
X710547Y1042057D01*
X710549Y1042053D01*
X711879Y1041909D01*
X711885Y1041913D01*
X711889Y1041909D01*
X713055Y1042019D01*
G37*
G36*
X254371Y1302521D02*
X254371Y1302521D01*
X254376Y1302526D01*
X254380Y1302523D01*
X255503Y1302858D01*
X255507Y1302864D01*
X255511Y1302862D01*
X256547Y1303410D01*
X256550Y1303417D01*
X256555Y1303415D01*
X257463Y1304155D01*
X257465Y1304162D01*
X257470Y1304161D01*
X258217Y1305064D01*
X258217Y1305071D01*
X258223Y1305072D01*
X258779Y1306102D01*
X258778Y1306110D01*
X258783Y1306111D01*
X259127Y1307231D01*
X259125Y1307238D01*
X259129Y1307240D01*
X259249Y1308405D01*
X259247Y1308409D01*
X259249Y1308410D01*
X259249Y1314410D01*
X259247Y1314413D01*
X259249Y1314415D01*
X259138Y1315591D01*
X259133Y1315596D01*
X259136Y1315600D01*
X258798Y1316732D01*
X258792Y1316736D01*
X258794Y1316741D01*
X258242Y1317785D01*
X258235Y1317788D01*
X258237Y1317793D01*
X257491Y1318709D01*
X257484Y1318711D01*
X257484Y1318716D01*
X256575Y1319469D01*
X256567Y1319469D01*
X256567Y1319474D01*
X255527Y1320036D01*
X255520Y1320034D01*
X255518Y1320039D01*
X254389Y1320387D01*
X254383Y1320384D01*
X254380Y1320389D01*
X253205Y1320509D01*
X253198Y1320505D01*
X253194Y1320509D01*
X251854Y1320353D01*
X251848Y1320347D01*
X251843Y1320350D01*
X250572Y1319899D01*
X250567Y1319892D01*
X250562Y1319895D01*
X249423Y1319172D01*
X249420Y1319164D01*
X249414Y1319165D01*
X248464Y1318207D01*
X248463Y1318199D01*
X248457Y1318198D01*
X247744Y1317053D01*
X247745Y1317045D01*
X247739Y1317043D01*
X247299Y1315768D01*
X247301Y1315760D01*
X247297Y1315757D01*
X247151Y1314416D01*
X247153Y1314412D01*
X247151Y1314410D01*
X247151Y1308410D01*
X247153Y1308407D01*
X247151Y1308405D01*
X247306Y1307076D01*
X247312Y1307070D01*
X247309Y1307065D01*
X247756Y1305804D01*
X247763Y1305799D01*
X247761Y1305794D01*
X248478Y1304664D01*
X248485Y1304661D01*
X248484Y1304656D01*
X249435Y1303713D01*
X249443Y1303712D01*
X249443Y1303707D01*
X250579Y1302999D01*
X250587Y1303000D01*
X250589Y1302995D01*
X251854Y1302558D01*
X251859Y1302560D01*
X251860Y1302559D01*
X251863Y1302559D01*
X251865Y1302556D01*
X253195Y1302411D01*
X253201Y1302415D01*
X253205Y1302411D01*
X254371Y1302521D01*
G37*
G36*
X713055Y781542D02*
X713055Y781542D01*
X713060Y781547D01*
X713064Y781544D01*
X714187Y781879D01*
X714191Y781885D01*
X714195Y781883D01*
X715231Y782431D01*
X715234Y782437D01*
X715239Y782436D01*
X716147Y783175D01*
X716149Y783182D01*
X716154Y783182D01*
X716901Y784084D01*
X716901Y784092D01*
X716907Y784092D01*
X717463Y785123D01*
X717462Y785130D01*
X717467Y785132D01*
X717811Y786251D01*
X717809Y786258D01*
X717813Y786261D01*
X717933Y787426D01*
X717931Y787429D01*
X717933Y787431D01*
X717933Y793431D01*
X717931Y793434D01*
X717933Y793436D01*
X717822Y794612D01*
X717817Y794617D01*
X717820Y794621D01*
X717482Y795753D01*
X717476Y795757D01*
X717478Y795762D01*
X716926Y796806D01*
X716919Y796809D01*
X716921Y796814D01*
X716175Y797730D01*
X716168Y797731D01*
X716168Y797737D01*
X715259Y798490D01*
X715251Y798490D01*
X715251Y798495D01*
X714211Y799056D01*
X714204Y799055D01*
X714202Y799060D01*
X713073Y799407D01*
X713067Y799405D01*
X713064Y799409D01*
X711889Y799530D01*
X711882Y799526D01*
X711878Y799530D01*
X710538Y799373D01*
X710532Y799368D01*
X710527Y799371D01*
X709256Y798920D01*
X709251Y798913D01*
X709246Y798915D01*
X708107Y798193D01*
X708104Y798185D01*
X708098Y798186D01*
X707148Y797228D01*
X707147Y797220D01*
X707141Y797219D01*
X706428Y796074D01*
X706429Y796066D01*
X706423Y796064D01*
X705983Y794788D01*
X705985Y794781D01*
X705981Y794778D01*
X705835Y793436D01*
X705837Y793433D01*
X705835Y793431D01*
X705835Y787431D01*
X705837Y787428D01*
X705835Y787425D01*
X705990Y786096D01*
X705996Y786090D01*
X705993Y786086D01*
X706440Y784825D01*
X706447Y784820D01*
X706445Y784815D01*
X707162Y783685D01*
X707169Y783682D01*
X707168Y783676D01*
X708119Y782734D01*
X708127Y782733D01*
X708127Y782727D01*
X709263Y782020D01*
X709271Y782021D01*
X709273Y782015D01*
X710538Y781579D01*
X710543Y781580D01*
X710544Y781580D01*
X710547Y781580D01*
X710549Y781576D01*
X711879Y781432D01*
X711885Y781436D01*
X711889Y781432D01*
X713055Y781542D01*
G37*
G36*
X167971Y781542D02*
X167971Y781542D01*
X167976Y781547D01*
X167980Y781544D01*
X169103Y781879D01*
X169107Y781885D01*
X169111Y781883D01*
X170147Y782431D01*
X170150Y782437D01*
X170155Y782436D01*
X171063Y783175D01*
X171065Y783182D01*
X171070Y783182D01*
X171817Y784084D01*
X171817Y784092D01*
X171823Y784092D01*
X172379Y785123D01*
X172378Y785130D01*
X172383Y785132D01*
X172727Y786251D01*
X172725Y786258D01*
X172729Y786261D01*
X172849Y787426D01*
X172847Y787429D01*
X172849Y787431D01*
X172849Y793431D01*
X172847Y793434D01*
X172849Y793436D01*
X172738Y794612D01*
X172733Y794617D01*
X172736Y794621D01*
X172398Y795753D01*
X172392Y795757D01*
X172394Y795762D01*
X171842Y796806D01*
X171835Y796809D01*
X171837Y796814D01*
X171091Y797730D01*
X171084Y797731D01*
X171084Y797737D01*
X170175Y798490D01*
X170167Y798490D01*
X170167Y798495D01*
X169127Y799056D01*
X169120Y799055D01*
X169118Y799060D01*
X167989Y799407D01*
X167983Y799405D01*
X167980Y799409D01*
X166805Y799530D01*
X166798Y799526D01*
X166794Y799530D01*
X165454Y799373D01*
X165448Y799368D01*
X165443Y799371D01*
X164172Y798920D01*
X164167Y798913D01*
X164162Y798915D01*
X163023Y798193D01*
X163020Y798185D01*
X163014Y798186D01*
X162064Y797228D01*
X162063Y797220D01*
X162057Y797219D01*
X161344Y796074D01*
X161345Y796066D01*
X161339Y796064D01*
X160899Y794788D01*
X160901Y794781D01*
X160897Y794778D01*
X160751Y793436D01*
X160753Y793433D01*
X160751Y793431D01*
X160751Y787431D01*
X160753Y787428D01*
X160751Y787425D01*
X160906Y786096D01*
X160912Y786090D01*
X160909Y786086D01*
X161356Y784825D01*
X161363Y784820D01*
X161361Y784815D01*
X162078Y783685D01*
X162085Y783682D01*
X162084Y783676D01*
X163035Y782734D01*
X163043Y782733D01*
X163043Y782727D01*
X164179Y782020D01*
X164187Y782021D01*
X164189Y782015D01*
X165454Y781579D01*
X165459Y781580D01*
X165460Y781580D01*
X165463Y781580D01*
X165465Y781576D01*
X166795Y781432D01*
X166801Y781436D01*
X166805Y781432D01*
X167971Y781542D01*
G37*
G36*
X799455Y781542D02*
X799455Y781542D01*
X799460Y781547D01*
X799464Y781544D01*
X800587Y781879D01*
X800591Y781885D01*
X800595Y781883D01*
X801631Y782431D01*
X801634Y782437D01*
X801639Y782436D01*
X802547Y783175D01*
X802549Y783182D01*
X802554Y783182D01*
X803301Y784084D01*
X803301Y784092D01*
X803307Y784092D01*
X803863Y785123D01*
X803862Y785130D01*
X803867Y785132D01*
X804211Y786251D01*
X804209Y786258D01*
X804213Y786261D01*
X804333Y787426D01*
X804331Y787429D01*
X804333Y787431D01*
X804333Y793431D01*
X804331Y793434D01*
X804333Y793436D01*
X804222Y794612D01*
X804217Y794617D01*
X804220Y794621D01*
X803882Y795753D01*
X803876Y795757D01*
X803878Y795762D01*
X803326Y796806D01*
X803319Y796809D01*
X803321Y796814D01*
X802575Y797730D01*
X802568Y797731D01*
X802568Y797737D01*
X801659Y798490D01*
X801651Y798490D01*
X801651Y798495D01*
X800611Y799056D01*
X800604Y799055D01*
X800602Y799060D01*
X799473Y799407D01*
X799467Y799405D01*
X799464Y799409D01*
X798289Y799530D01*
X798282Y799526D01*
X798278Y799530D01*
X796938Y799373D01*
X796932Y799368D01*
X796927Y799371D01*
X795656Y798920D01*
X795651Y798913D01*
X795646Y798915D01*
X794507Y798193D01*
X794504Y798185D01*
X794498Y798186D01*
X793548Y797228D01*
X793547Y797220D01*
X793541Y797219D01*
X792828Y796074D01*
X792829Y796066D01*
X792823Y796064D01*
X792383Y794788D01*
X792385Y794781D01*
X792381Y794778D01*
X792235Y793436D01*
X792237Y793433D01*
X792235Y793431D01*
X792235Y787431D01*
X792237Y787428D01*
X792235Y787425D01*
X792390Y786096D01*
X792396Y786090D01*
X792393Y786086D01*
X792840Y784825D01*
X792847Y784820D01*
X792845Y784815D01*
X793562Y783685D01*
X793569Y783682D01*
X793568Y783676D01*
X794519Y782734D01*
X794527Y782733D01*
X794527Y782727D01*
X795663Y782020D01*
X795671Y782021D01*
X795673Y782015D01*
X796938Y781579D01*
X796943Y781580D01*
X796944Y781580D01*
X796947Y781580D01*
X796949Y781576D01*
X798279Y781432D01*
X798285Y781436D01*
X798289Y781432D01*
X799455Y781542D01*
G37*
G36*
X254371Y781542D02*
X254371Y781542D01*
X254376Y781547D01*
X254380Y781544D01*
X255503Y781879D01*
X255507Y781885D01*
X255511Y781883D01*
X256547Y782431D01*
X256550Y782437D01*
X256555Y782436D01*
X257463Y783175D01*
X257465Y783182D01*
X257470Y783182D01*
X258217Y784084D01*
X258217Y784092D01*
X258223Y784092D01*
X258779Y785123D01*
X258778Y785130D01*
X258783Y785132D01*
X259127Y786251D01*
X259125Y786258D01*
X259129Y786261D01*
X259249Y787426D01*
X259247Y787429D01*
X259249Y787431D01*
X259249Y793431D01*
X259247Y793434D01*
X259249Y793436D01*
X259138Y794612D01*
X259133Y794617D01*
X259136Y794621D01*
X258798Y795753D01*
X258792Y795757D01*
X258794Y795762D01*
X258242Y796806D01*
X258235Y796809D01*
X258237Y796814D01*
X257491Y797730D01*
X257484Y797731D01*
X257484Y797737D01*
X256575Y798490D01*
X256567Y798490D01*
X256567Y798495D01*
X255527Y799056D01*
X255520Y799055D01*
X255518Y799060D01*
X254389Y799407D01*
X254383Y799405D01*
X254380Y799409D01*
X253205Y799530D01*
X253198Y799526D01*
X253194Y799530D01*
X251854Y799373D01*
X251848Y799368D01*
X251843Y799371D01*
X250572Y798920D01*
X250567Y798913D01*
X250562Y798915D01*
X249423Y798193D01*
X249420Y798185D01*
X249414Y798186D01*
X248464Y797228D01*
X248463Y797220D01*
X248457Y797219D01*
X247744Y796074D01*
X247745Y796066D01*
X247739Y796064D01*
X247299Y794788D01*
X247301Y794781D01*
X247297Y794778D01*
X247151Y793436D01*
X247153Y793433D01*
X247151Y793431D01*
X247151Y787431D01*
X247153Y787428D01*
X247151Y787425D01*
X247306Y786096D01*
X247312Y786090D01*
X247309Y786086D01*
X247756Y784825D01*
X247763Y784820D01*
X247761Y784815D01*
X248478Y783685D01*
X248485Y783682D01*
X248484Y783676D01*
X249435Y782734D01*
X249443Y782733D01*
X249443Y782727D01*
X250579Y782020D01*
X250587Y782021D01*
X250589Y782015D01*
X251854Y781579D01*
X251859Y781580D01*
X251860Y781580D01*
X251863Y781580D01*
X251865Y781576D01*
X253195Y781432D01*
X253201Y781436D01*
X253205Y781432D01*
X254371Y781542D01*
G37*
G36*
X254371Y1042019D02*
X254371Y1042019D01*
X254376Y1042024D01*
X254380Y1042021D01*
X255503Y1042356D01*
X255507Y1042362D01*
X255511Y1042360D01*
X256547Y1042908D01*
X256550Y1042914D01*
X256555Y1042913D01*
X257463Y1043652D01*
X257465Y1043659D01*
X257470Y1043659D01*
X258217Y1044561D01*
X258217Y1044569D01*
X258223Y1044569D01*
X258779Y1045600D01*
X258778Y1045607D01*
X258783Y1045609D01*
X259127Y1046728D01*
X259125Y1046735D01*
X259129Y1046738D01*
X259249Y1047903D01*
X259247Y1047906D01*
X259249Y1047908D01*
X259249Y1053908D01*
X259247Y1053911D01*
X259249Y1053913D01*
X259138Y1055089D01*
X259133Y1055094D01*
X259136Y1055098D01*
X258798Y1056230D01*
X258792Y1056234D01*
X258794Y1056239D01*
X258242Y1057283D01*
X258235Y1057286D01*
X258237Y1057291D01*
X257491Y1058207D01*
X257484Y1058208D01*
X257484Y1058214D01*
X256575Y1058967D01*
X256567Y1058967D01*
X256567Y1058972D01*
X255527Y1059533D01*
X255520Y1059532D01*
X255518Y1059537D01*
X254389Y1059884D01*
X254383Y1059882D01*
X254380Y1059886D01*
X253205Y1060007D01*
X253198Y1060003D01*
X253194Y1060007D01*
X251854Y1059850D01*
X251848Y1059845D01*
X251843Y1059848D01*
X250572Y1059397D01*
X250567Y1059390D01*
X250562Y1059392D01*
X249423Y1058670D01*
X249420Y1058662D01*
X249414Y1058663D01*
X248464Y1057705D01*
X248463Y1057697D01*
X248457Y1057696D01*
X247744Y1056551D01*
X247745Y1056543D01*
X247739Y1056541D01*
X247299Y1055265D01*
X247301Y1055258D01*
X247297Y1055255D01*
X247151Y1053913D01*
X247153Y1053910D01*
X247151Y1053908D01*
X247151Y1047908D01*
X247153Y1047905D01*
X247151Y1047902D01*
X247306Y1046573D01*
X247312Y1046567D01*
X247309Y1046563D01*
X247756Y1045302D01*
X247763Y1045297D01*
X247761Y1045292D01*
X248478Y1044162D01*
X248485Y1044159D01*
X248484Y1044153D01*
X249435Y1043211D01*
X249443Y1043210D01*
X249443Y1043204D01*
X250579Y1042497D01*
X250587Y1042498D01*
X250589Y1042492D01*
X251854Y1042056D01*
X251859Y1042057D01*
X251860Y1042057D01*
X251863Y1042057D01*
X251865Y1042053D01*
X253195Y1041909D01*
X253201Y1041913D01*
X253205Y1041909D01*
X254371Y1042019D01*
G37*
G36*
X799455Y521065D02*
X799455Y521065D01*
X799460Y521070D01*
X799464Y521067D01*
X800587Y521402D01*
X800591Y521408D01*
X800595Y521406D01*
X801631Y521954D01*
X801634Y521960D01*
X801639Y521959D01*
X802547Y522698D01*
X802549Y522705D01*
X802554Y522705D01*
X803301Y523607D01*
X803301Y523615D01*
X803307Y523615D01*
X803863Y524646D01*
X803862Y524653D01*
X803867Y524655D01*
X804211Y525774D01*
X804209Y525781D01*
X804213Y525784D01*
X804333Y526949D01*
X804331Y526952D01*
X804333Y526954D01*
X804333Y532954D01*
X804331Y532957D01*
X804333Y532959D01*
X804222Y534135D01*
X804217Y534140D01*
X804220Y534144D01*
X803882Y535276D01*
X803876Y535280D01*
X803878Y535285D01*
X803326Y536329D01*
X803319Y536332D01*
X803321Y536337D01*
X802575Y537253D01*
X802568Y537254D01*
X802568Y537260D01*
X801659Y538013D01*
X801651Y538013D01*
X801651Y538018D01*
X800611Y538579D01*
X800604Y538578D01*
X800602Y538583D01*
X799473Y538930D01*
X799467Y538928D01*
X799464Y538932D01*
X798289Y539053D01*
X798282Y539049D01*
X798278Y539053D01*
X796938Y538896D01*
X796932Y538891D01*
X796927Y538894D01*
X795656Y538443D01*
X795651Y538436D01*
X795646Y538438D01*
X794507Y537716D01*
X794504Y537708D01*
X794498Y537709D01*
X793548Y536751D01*
X793547Y536743D01*
X793541Y536742D01*
X792828Y535597D01*
X792829Y535589D01*
X792823Y535587D01*
X792383Y534311D01*
X792385Y534304D01*
X792381Y534301D01*
X792235Y532959D01*
X792237Y532956D01*
X792235Y532954D01*
X792235Y526954D01*
X792237Y526951D01*
X792235Y526948D01*
X792390Y525619D01*
X792396Y525613D01*
X792393Y525609D01*
X792840Y524348D01*
X792847Y524343D01*
X792845Y524338D01*
X793562Y523208D01*
X793569Y523205D01*
X793568Y523199D01*
X794519Y522257D01*
X794527Y522256D01*
X794527Y522250D01*
X795663Y521543D01*
X795671Y521544D01*
X795673Y521538D01*
X796938Y521102D01*
X796943Y521103D01*
X796944Y521103D01*
X796947Y521103D01*
X796949Y521099D01*
X798279Y520955D01*
X798285Y520959D01*
X798289Y520955D01*
X799455Y521065D01*
G37*
G36*
X254371Y521065D02*
X254371Y521065D01*
X254376Y521070D01*
X254380Y521067D01*
X255503Y521402D01*
X255507Y521408D01*
X255511Y521406D01*
X256547Y521954D01*
X256550Y521960D01*
X256555Y521959D01*
X257463Y522698D01*
X257465Y522705D01*
X257470Y522705D01*
X258217Y523607D01*
X258217Y523615D01*
X258223Y523615D01*
X258779Y524646D01*
X258778Y524653D01*
X258783Y524655D01*
X259127Y525774D01*
X259125Y525781D01*
X259129Y525784D01*
X259249Y526949D01*
X259247Y526952D01*
X259249Y526954D01*
X259249Y532954D01*
X259247Y532957D01*
X259249Y532959D01*
X259138Y534135D01*
X259133Y534140D01*
X259136Y534144D01*
X258798Y535276D01*
X258792Y535280D01*
X258794Y535285D01*
X258242Y536329D01*
X258235Y536332D01*
X258237Y536337D01*
X257491Y537253D01*
X257484Y537254D01*
X257484Y537260D01*
X256575Y538013D01*
X256567Y538013D01*
X256567Y538018D01*
X255527Y538579D01*
X255520Y538578D01*
X255518Y538583D01*
X254389Y538930D01*
X254383Y538928D01*
X254380Y538932D01*
X253205Y539053D01*
X253198Y539049D01*
X253194Y539053D01*
X251854Y538896D01*
X251848Y538891D01*
X251843Y538894D01*
X250572Y538443D01*
X250567Y538436D01*
X250562Y538438D01*
X249423Y537716D01*
X249420Y537708D01*
X249414Y537709D01*
X248464Y536751D01*
X248463Y536743D01*
X248457Y536742D01*
X247744Y535597D01*
X247745Y535589D01*
X247739Y535587D01*
X247299Y534311D01*
X247301Y534304D01*
X247297Y534301D01*
X247151Y532959D01*
X247153Y532956D01*
X247151Y532954D01*
X247151Y526954D01*
X247153Y526951D01*
X247151Y526948D01*
X247306Y525619D01*
X247312Y525613D01*
X247309Y525609D01*
X247756Y524348D01*
X247763Y524343D01*
X247761Y524338D01*
X248478Y523208D01*
X248485Y523205D01*
X248484Y523199D01*
X249435Y522257D01*
X249443Y522256D01*
X249443Y522250D01*
X250579Y521543D01*
X250587Y521544D01*
X250589Y521538D01*
X251854Y521102D01*
X251859Y521103D01*
X251860Y521103D01*
X251863Y521103D01*
X251865Y521099D01*
X253195Y520955D01*
X253201Y520959D01*
X253205Y520955D01*
X254371Y521065D01*
G37*
G36*
X167971Y521065D02*
X167971Y521065D01*
X167976Y521070D01*
X167980Y521067D01*
X169103Y521402D01*
X169107Y521408D01*
X169111Y521406D01*
X170147Y521954D01*
X170150Y521960D01*
X170155Y521959D01*
X171063Y522698D01*
X171065Y522705D01*
X171070Y522705D01*
X171817Y523607D01*
X171817Y523615D01*
X171823Y523615D01*
X172379Y524646D01*
X172378Y524653D01*
X172383Y524655D01*
X172727Y525774D01*
X172725Y525781D01*
X172729Y525784D01*
X172849Y526949D01*
X172847Y526952D01*
X172849Y526954D01*
X172849Y532954D01*
X172847Y532957D01*
X172849Y532959D01*
X172738Y534135D01*
X172733Y534140D01*
X172736Y534144D01*
X172398Y535276D01*
X172392Y535280D01*
X172394Y535285D01*
X171842Y536329D01*
X171835Y536332D01*
X171837Y536337D01*
X171091Y537253D01*
X171084Y537254D01*
X171084Y537260D01*
X170175Y538013D01*
X170167Y538013D01*
X170167Y538018D01*
X169127Y538579D01*
X169120Y538578D01*
X169118Y538583D01*
X167989Y538930D01*
X167983Y538928D01*
X167980Y538932D01*
X166805Y539053D01*
X166798Y539049D01*
X166794Y539053D01*
X165454Y538896D01*
X165448Y538891D01*
X165443Y538894D01*
X164172Y538443D01*
X164167Y538436D01*
X164162Y538438D01*
X163023Y537716D01*
X163020Y537708D01*
X163014Y537709D01*
X162064Y536751D01*
X162063Y536743D01*
X162057Y536742D01*
X161344Y535597D01*
X161345Y535589D01*
X161339Y535587D01*
X160899Y534311D01*
X160901Y534304D01*
X160897Y534301D01*
X160751Y532959D01*
X160753Y532956D01*
X160751Y532954D01*
X160751Y526954D01*
X160753Y526951D01*
X160751Y526948D01*
X160906Y525619D01*
X160912Y525613D01*
X160909Y525609D01*
X161356Y524348D01*
X161363Y524343D01*
X161361Y524338D01*
X162078Y523208D01*
X162085Y523205D01*
X162084Y523199D01*
X163035Y522257D01*
X163043Y522256D01*
X163043Y522250D01*
X164179Y521543D01*
X164187Y521544D01*
X164189Y521538D01*
X165454Y521102D01*
X165459Y521103D01*
X165460Y521103D01*
X165463Y521103D01*
X165465Y521099D01*
X166795Y520955D01*
X166801Y520959D01*
X166805Y520955D01*
X167971Y521065D01*
G37*
G36*
X713055Y521065D02*
X713055Y521065D01*
X713060Y521070D01*
X713064Y521067D01*
X714187Y521402D01*
X714191Y521408D01*
X714195Y521406D01*
X715231Y521954D01*
X715234Y521960D01*
X715239Y521959D01*
X716147Y522698D01*
X716149Y522705D01*
X716154Y522705D01*
X716901Y523607D01*
X716901Y523615D01*
X716907Y523615D01*
X717463Y524646D01*
X717462Y524653D01*
X717467Y524655D01*
X717811Y525774D01*
X717809Y525781D01*
X717813Y525784D01*
X717933Y526949D01*
X717931Y526952D01*
X717933Y526954D01*
X717933Y532954D01*
X717931Y532957D01*
X717933Y532959D01*
X717822Y534135D01*
X717817Y534140D01*
X717820Y534144D01*
X717482Y535276D01*
X717476Y535280D01*
X717478Y535285D01*
X716926Y536329D01*
X716919Y536332D01*
X716921Y536337D01*
X716175Y537253D01*
X716168Y537254D01*
X716168Y537260D01*
X715259Y538013D01*
X715251Y538013D01*
X715251Y538018D01*
X714211Y538579D01*
X714204Y538578D01*
X714202Y538583D01*
X713073Y538930D01*
X713067Y538928D01*
X713064Y538932D01*
X711889Y539053D01*
X711882Y539049D01*
X711878Y539053D01*
X710538Y538896D01*
X710532Y538891D01*
X710527Y538894D01*
X709256Y538443D01*
X709251Y538436D01*
X709246Y538438D01*
X708107Y537716D01*
X708104Y537708D01*
X708098Y537709D01*
X707148Y536751D01*
X707147Y536743D01*
X707141Y536742D01*
X706428Y535597D01*
X706429Y535589D01*
X706423Y535587D01*
X705983Y534311D01*
X705985Y534304D01*
X705981Y534301D01*
X705835Y532959D01*
X705837Y532956D01*
X705835Y532954D01*
X705835Y526954D01*
X705837Y526951D01*
X705835Y526948D01*
X705990Y525619D01*
X705996Y525613D01*
X705993Y525609D01*
X706440Y524348D01*
X706447Y524343D01*
X706445Y524338D01*
X707162Y523208D01*
X707169Y523205D01*
X707168Y523199D01*
X708119Y522257D01*
X708127Y522256D01*
X708127Y522250D01*
X709263Y521543D01*
X709271Y521544D01*
X709273Y521538D01*
X710538Y521102D01*
X710543Y521103D01*
X710544Y521103D01*
X710547Y521103D01*
X710549Y521099D01*
X711879Y520955D01*
X711885Y520959D01*
X711889Y520955D01*
X713055Y521065D01*
G37*
G36*
X799455Y260588D02*
X799455Y260588D01*
X799460Y260593D01*
X799464Y260590D01*
X800587Y260925D01*
X800591Y260931D01*
X800595Y260929D01*
X801631Y261477D01*
X801634Y261483D01*
X801639Y261482D01*
X802547Y262221D01*
X802549Y262228D01*
X802554Y262228D01*
X803301Y263130D01*
X803301Y263138D01*
X803307Y263138D01*
X803863Y264169D01*
X803862Y264176D01*
X803867Y264178D01*
X804211Y265297D01*
X804209Y265304D01*
X804213Y265307D01*
X804333Y266472D01*
X804331Y266475D01*
X804333Y266477D01*
X804333Y272477D01*
X804331Y272480D01*
X804333Y272482D01*
X804222Y273658D01*
X804217Y273663D01*
X804220Y273667D01*
X803882Y274799D01*
X803876Y274803D01*
X803878Y274808D01*
X803326Y275852D01*
X803319Y275855D01*
X803321Y275860D01*
X802575Y276776D01*
X802568Y276777D01*
X802568Y276783D01*
X801659Y277536D01*
X801651Y277536D01*
X801651Y277541D01*
X800611Y278102D01*
X800604Y278101D01*
X800602Y278106D01*
X799473Y278453D01*
X799467Y278451D01*
X799464Y278455D01*
X798289Y278576D01*
X798282Y278572D01*
X798278Y278576D01*
X796938Y278419D01*
X796932Y278414D01*
X796927Y278417D01*
X795656Y277966D01*
X795651Y277959D01*
X795646Y277961D01*
X794507Y277239D01*
X794504Y277231D01*
X794498Y277232D01*
X793548Y276274D01*
X793547Y276266D01*
X793541Y276265D01*
X792828Y275120D01*
X792829Y275112D01*
X792823Y275110D01*
X792383Y273834D01*
X792385Y273827D01*
X792381Y273824D01*
X792235Y272482D01*
X792237Y272479D01*
X792235Y272477D01*
X792235Y266477D01*
X792237Y266474D01*
X792235Y266471D01*
X792390Y265142D01*
X792396Y265136D01*
X792393Y265132D01*
X792840Y263871D01*
X792847Y263866D01*
X792845Y263861D01*
X793562Y262731D01*
X793569Y262728D01*
X793568Y262722D01*
X794519Y261780D01*
X794527Y261779D01*
X794527Y261773D01*
X795663Y261066D01*
X795671Y261067D01*
X795673Y261061D01*
X796938Y260625D01*
X796943Y260626D01*
X796944Y260626D01*
X796947Y260626D01*
X796949Y260622D01*
X798279Y260478D01*
X798285Y260482D01*
X798289Y260478D01*
X799455Y260588D01*
G37*
G36*
X167971Y260588D02*
X167971Y260588D01*
X167976Y260593D01*
X167980Y260590D01*
X169103Y260925D01*
X169107Y260931D01*
X169111Y260929D01*
X170147Y261477D01*
X170150Y261483D01*
X170155Y261482D01*
X171063Y262221D01*
X171065Y262228D01*
X171070Y262228D01*
X171817Y263130D01*
X171817Y263138D01*
X171823Y263138D01*
X172379Y264169D01*
X172378Y264176D01*
X172383Y264178D01*
X172727Y265297D01*
X172725Y265304D01*
X172729Y265307D01*
X172849Y266472D01*
X172847Y266475D01*
X172849Y266477D01*
X172849Y272477D01*
X172847Y272480D01*
X172849Y272482D01*
X172738Y273658D01*
X172733Y273663D01*
X172736Y273667D01*
X172398Y274799D01*
X172392Y274803D01*
X172394Y274808D01*
X171842Y275852D01*
X171835Y275855D01*
X171837Y275860D01*
X171091Y276776D01*
X171084Y276777D01*
X171084Y276783D01*
X170175Y277536D01*
X170167Y277536D01*
X170167Y277541D01*
X169127Y278102D01*
X169120Y278101D01*
X169118Y278106D01*
X167989Y278453D01*
X167983Y278451D01*
X167980Y278455D01*
X166805Y278576D01*
X166798Y278572D01*
X166794Y278576D01*
X165454Y278419D01*
X165448Y278414D01*
X165443Y278417D01*
X164172Y277966D01*
X164167Y277959D01*
X164162Y277961D01*
X163023Y277239D01*
X163020Y277231D01*
X163014Y277232D01*
X162064Y276274D01*
X162063Y276266D01*
X162057Y276265D01*
X161344Y275120D01*
X161345Y275112D01*
X161339Y275110D01*
X160899Y273834D01*
X160901Y273827D01*
X160897Y273824D01*
X160751Y272482D01*
X160753Y272479D01*
X160751Y272477D01*
X160751Y266477D01*
X160753Y266474D01*
X160751Y266471D01*
X160906Y265142D01*
X160912Y265136D01*
X160909Y265132D01*
X161356Y263871D01*
X161363Y263866D01*
X161361Y263861D01*
X162078Y262731D01*
X162085Y262728D01*
X162084Y262722D01*
X163035Y261780D01*
X163043Y261779D01*
X163043Y261773D01*
X164179Y261066D01*
X164187Y261067D01*
X164189Y261061D01*
X165454Y260625D01*
X165459Y260626D01*
X165460Y260626D01*
X165463Y260626D01*
X165465Y260622D01*
X166795Y260478D01*
X166801Y260482D01*
X166805Y260478D01*
X167971Y260588D01*
G37*
G36*
X713055Y260588D02*
X713055Y260588D01*
X713060Y260593D01*
X713064Y260590D01*
X714187Y260925D01*
X714191Y260931D01*
X714195Y260929D01*
X715231Y261477D01*
X715234Y261483D01*
X715239Y261482D01*
X716147Y262221D01*
X716149Y262228D01*
X716154Y262228D01*
X716901Y263130D01*
X716901Y263138D01*
X716907Y263138D01*
X717463Y264169D01*
X717462Y264176D01*
X717467Y264178D01*
X717811Y265297D01*
X717809Y265304D01*
X717813Y265307D01*
X717933Y266472D01*
X717931Y266475D01*
X717933Y266477D01*
X717933Y272477D01*
X717931Y272480D01*
X717933Y272482D01*
X717822Y273658D01*
X717817Y273663D01*
X717820Y273667D01*
X717482Y274799D01*
X717476Y274803D01*
X717478Y274808D01*
X716926Y275852D01*
X716919Y275855D01*
X716921Y275860D01*
X716175Y276776D01*
X716168Y276777D01*
X716168Y276783D01*
X715259Y277536D01*
X715251Y277536D01*
X715251Y277541D01*
X714211Y278102D01*
X714204Y278101D01*
X714202Y278106D01*
X713073Y278453D01*
X713067Y278451D01*
X713064Y278455D01*
X711889Y278576D01*
X711882Y278572D01*
X711878Y278576D01*
X710538Y278419D01*
X710532Y278414D01*
X710527Y278417D01*
X709256Y277966D01*
X709251Y277959D01*
X709246Y277961D01*
X708107Y277239D01*
X708104Y277231D01*
X708098Y277232D01*
X707148Y276274D01*
X707147Y276266D01*
X707141Y276265D01*
X706428Y275120D01*
X706429Y275112D01*
X706423Y275110D01*
X705983Y273834D01*
X705985Y273827D01*
X705981Y273824D01*
X705835Y272482D01*
X705837Y272479D01*
X705835Y272477D01*
X705835Y266477D01*
X705837Y266474D01*
X705835Y266471D01*
X705990Y265142D01*
X705996Y265136D01*
X705993Y265132D01*
X706440Y263871D01*
X706447Y263866D01*
X706445Y263861D01*
X707162Y262731D01*
X707169Y262728D01*
X707168Y262722D01*
X708119Y261780D01*
X708127Y261779D01*
X708127Y261773D01*
X709263Y261066D01*
X709271Y261067D01*
X709273Y261061D01*
X710538Y260625D01*
X710543Y260626D01*
X710544Y260626D01*
X710547Y260626D01*
X710549Y260622D01*
X711879Y260478D01*
X711885Y260482D01*
X711889Y260478D01*
X713055Y260588D01*
G37*
G36*
X254371Y260588D02*
X254371Y260588D01*
X254376Y260593D01*
X254380Y260590D01*
X255503Y260925D01*
X255507Y260931D01*
X255511Y260929D01*
X256547Y261477D01*
X256550Y261483D01*
X256555Y261482D01*
X257463Y262221D01*
X257465Y262228D01*
X257470Y262228D01*
X258217Y263130D01*
X258217Y263138D01*
X258223Y263138D01*
X258779Y264169D01*
X258778Y264176D01*
X258783Y264178D01*
X259127Y265297D01*
X259125Y265304D01*
X259129Y265307D01*
X259249Y266472D01*
X259247Y266475D01*
X259249Y266477D01*
X259249Y272477D01*
X259247Y272480D01*
X259249Y272482D01*
X259138Y273658D01*
X259133Y273663D01*
X259136Y273667D01*
X258798Y274799D01*
X258792Y274803D01*
X258794Y274808D01*
X258242Y275852D01*
X258235Y275855D01*
X258237Y275860D01*
X257491Y276776D01*
X257484Y276777D01*
X257484Y276783D01*
X256575Y277536D01*
X256567Y277536D01*
X256567Y277541D01*
X255527Y278102D01*
X255520Y278101D01*
X255518Y278106D01*
X254389Y278453D01*
X254383Y278451D01*
X254380Y278455D01*
X253205Y278576D01*
X253198Y278572D01*
X253194Y278576D01*
X251854Y278419D01*
X251848Y278414D01*
X251843Y278417D01*
X250572Y277966D01*
X250567Y277959D01*
X250562Y277961D01*
X249423Y277239D01*
X249420Y277231D01*
X249414Y277232D01*
X248464Y276274D01*
X248463Y276266D01*
X248457Y276265D01*
X247744Y275120D01*
X247745Y275112D01*
X247739Y275110D01*
X247299Y273834D01*
X247301Y273827D01*
X247297Y273824D01*
X247151Y272482D01*
X247153Y272479D01*
X247151Y272477D01*
X247151Y266477D01*
X247153Y266474D01*
X247151Y266471D01*
X247306Y265142D01*
X247312Y265136D01*
X247309Y265132D01*
X247756Y263871D01*
X247763Y263866D01*
X247761Y263861D01*
X248478Y262731D01*
X248485Y262728D01*
X248484Y262722D01*
X249435Y261780D01*
X249443Y261779D01*
X249443Y261773D01*
X250579Y261066D01*
X250587Y261067D01*
X250589Y261061D01*
X251854Y260625D01*
X251859Y260626D01*
X251860Y260626D01*
X251863Y260626D01*
X251865Y260622D01*
X253195Y260478D01*
X253201Y260482D01*
X253205Y260478D01*
X254371Y260588D01*
G37*
G36*
X713055Y1562998D02*
X713055Y1562998D01*
X713060Y1563003D01*
X713064Y1563000D01*
X714187Y1563335D01*
X714191Y1563341D01*
X714195Y1563339D01*
X715231Y1563887D01*
X715234Y1563894D01*
X715239Y1563892D01*
X716147Y1564632D01*
X716149Y1564639D01*
X716154Y1564638D01*
X716901Y1565541D01*
X716901Y1565548D01*
X716907Y1565549D01*
X717463Y1566579D01*
X717462Y1566587D01*
X717467Y1566588D01*
X717811Y1567708D01*
X717809Y1567715D01*
X717813Y1567717D01*
X717933Y1568882D01*
X717931Y1568886D01*
X717933Y1568887D01*
X717933Y1574887D01*
X717931Y1574890D01*
X717933Y1574892D01*
X717822Y1576068D01*
X717817Y1576073D01*
X717820Y1576077D01*
X717482Y1577209D01*
X717476Y1577213D01*
X717478Y1577218D01*
X716926Y1578262D01*
X716919Y1578265D01*
X716921Y1578270D01*
X716175Y1579186D01*
X716168Y1579188D01*
X716168Y1579193D01*
X715259Y1579946D01*
X715251Y1579946D01*
X715251Y1579951D01*
X714211Y1580513D01*
X714204Y1580511D01*
X714202Y1580516D01*
X713073Y1580864D01*
X713067Y1580861D01*
X713064Y1580866D01*
X711889Y1580986D01*
X711882Y1580982D01*
X711878Y1580986D01*
X710538Y1580830D01*
X710532Y1580824D01*
X710527Y1580827D01*
X709256Y1580376D01*
X709251Y1580369D01*
X709246Y1580372D01*
X708107Y1579649D01*
X708104Y1579641D01*
X708098Y1579642D01*
X707148Y1578684D01*
X707147Y1578676D01*
X707141Y1578675D01*
X706428Y1577530D01*
X706429Y1577522D01*
X706423Y1577520D01*
X705983Y1576245D01*
X705985Y1576237D01*
X705981Y1576234D01*
X705835Y1574893D01*
X705837Y1574889D01*
X705835Y1574887D01*
X705835Y1568887D01*
X705837Y1568884D01*
X705835Y1568882D01*
X705990Y1567553D01*
X705996Y1567547D01*
X705993Y1567542D01*
X706440Y1566281D01*
X706447Y1566276D01*
X706445Y1566271D01*
X707162Y1565141D01*
X707169Y1565138D01*
X707168Y1565133D01*
X708119Y1564190D01*
X708127Y1564189D01*
X708127Y1564184D01*
X709263Y1563476D01*
X709271Y1563477D01*
X709273Y1563472D01*
X710538Y1563035D01*
X710543Y1563037D01*
X710544Y1563036D01*
X710547Y1563036D01*
X710549Y1563033D01*
X711879Y1562888D01*
X711885Y1562892D01*
X711889Y1562888D01*
X713055Y1562998D01*
G37*
G36*
X799455Y1562998D02*
X799455Y1562998D01*
X799460Y1563003D01*
X799464Y1563000D01*
X800587Y1563335D01*
X800591Y1563341D01*
X800595Y1563339D01*
X801631Y1563887D01*
X801634Y1563894D01*
X801639Y1563892D01*
X802547Y1564632D01*
X802549Y1564639D01*
X802554Y1564638D01*
X803301Y1565541D01*
X803301Y1565548D01*
X803307Y1565549D01*
X803863Y1566579D01*
X803862Y1566587D01*
X803867Y1566588D01*
X804211Y1567708D01*
X804209Y1567715D01*
X804213Y1567717D01*
X804333Y1568882D01*
X804331Y1568886D01*
X804333Y1568887D01*
X804333Y1574887D01*
X804331Y1574890D01*
X804333Y1574892D01*
X804222Y1576068D01*
X804217Y1576073D01*
X804220Y1576077D01*
X803882Y1577209D01*
X803876Y1577213D01*
X803878Y1577218D01*
X803326Y1578262D01*
X803319Y1578265D01*
X803321Y1578270D01*
X802575Y1579186D01*
X802568Y1579188D01*
X802568Y1579193D01*
X801659Y1579946D01*
X801651Y1579946D01*
X801651Y1579951D01*
X800611Y1580513D01*
X800604Y1580511D01*
X800602Y1580516D01*
X799473Y1580864D01*
X799467Y1580861D01*
X799464Y1580866D01*
X798289Y1580986D01*
X798282Y1580982D01*
X798278Y1580986D01*
X796938Y1580830D01*
X796932Y1580824D01*
X796927Y1580827D01*
X795656Y1580376D01*
X795651Y1580369D01*
X795646Y1580372D01*
X794507Y1579649D01*
X794504Y1579641D01*
X794498Y1579642D01*
X793548Y1578684D01*
X793547Y1578676D01*
X793541Y1578675D01*
X792828Y1577530D01*
X792829Y1577522D01*
X792823Y1577520D01*
X792383Y1576245D01*
X792385Y1576237D01*
X792381Y1576234D01*
X792235Y1574893D01*
X792237Y1574889D01*
X792235Y1574887D01*
X792235Y1568887D01*
X792237Y1568884D01*
X792235Y1568882D01*
X792390Y1567553D01*
X792396Y1567547D01*
X792393Y1567542D01*
X792840Y1566281D01*
X792847Y1566276D01*
X792845Y1566271D01*
X793562Y1565141D01*
X793569Y1565138D01*
X793568Y1565133D01*
X794519Y1564190D01*
X794527Y1564189D01*
X794527Y1564184D01*
X795663Y1563476D01*
X795671Y1563477D01*
X795673Y1563472D01*
X796938Y1563035D01*
X796943Y1563037D01*
X796944Y1563036D01*
X796947Y1563036D01*
X796949Y1563033D01*
X798279Y1562888D01*
X798285Y1562892D01*
X798289Y1562888D01*
X799455Y1562998D01*
G37*
G36*
X167971Y1562998D02*
X167971Y1562998D01*
X167976Y1563003D01*
X167980Y1563000D01*
X169103Y1563335D01*
X169107Y1563341D01*
X169111Y1563339D01*
X170147Y1563887D01*
X170150Y1563894D01*
X170155Y1563892D01*
X171063Y1564632D01*
X171065Y1564639D01*
X171070Y1564638D01*
X171817Y1565541D01*
X171817Y1565548D01*
X171823Y1565549D01*
X172379Y1566579D01*
X172378Y1566587D01*
X172383Y1566588D01*
X172727Y1567708D01*
X172725Y1567715D01*
X172729Y1567717D01*
X172849Y1568882D01*
X172847Y1568886D01*
X172849Y1568887D01*
X172849Y1574887D01*
X172847Y1574890D01*
X172849Y1574892D01*
X172738Y1576068D01*
X172733Y1576073D01*
X172736Y1576077D01*
X172398Y1577209D01*
X172392Y1577213D01*
X172394Y1577218D01*
X171842Y1578262D01*
X171835Y1578265D01*
X171837Y1578270D01*
X171091Y1579186D01*
X171084Y1579188D01*
X171084Y1579193D01*
X170175Y1579946D01*
X170167Y1579946D01*
X170167Y1579951D01*
X169127Y1580513D01*
X169120Y1580511D01*
X169118Y1580516D01*
X167989Y1580864D01*
X167983Y1580861D01*
X167980Y1580866D01*
X166805Y1580986D01*
X166798Y1580982D01*
X166794Y1580986D01*
X165454Y1580830D01*
X165448Y1580824D01*
X165443Y1580827D01*
X164172Y1580376D01*
X164167Y1580369D01*
X164162Y1580372D01*
X163023Y1579649D01*
X163020Y1579641D01*
X163014Y1579642D01*
X162064Y1578684D01*
X162063Y1578676D01*
X162057Y1578675D01*
X161344Y1577530D01*
X161345Y1577522D01*
X161339Y1577520D01*
X160899Y1576245D01*
X160901Y1576237D01*
X160897Y1576234D01*
X160751Y1574893D01*
X160753Y1574889D01*
X160751Y1574887D01*
X160751Y1568887D01*
X160753Y1568884D01*
X160751Y1568882D01*
X160906Y1567553D01*
X160912Y1567547D01*
X160909Y1567542D01*
X161356Y1566281D01*
X161363Y1566276D01*
X161361Y1566271D01*
X162078Y1565141D01*
X162085Y1565138D01*
X162084Y1565133D01*
X163035Y1564190D01*
X163043Y1564189D01*
X163043Y1564184D01*
X164179Y1563476D01*
X164187Y1563477D01*
X164189Y1563472D01*
X165454Y1563035D01*
X165459Y1563037D01*
X165460Y1563036D01*
X165463Y1563036D01*
X165465Y1563033D01*
X166795Y1562888D01*
X166801Y1562892D01*
X166805Y1562888D01*
X167971Y1562998D01*
G37*
G36*
X254371Y111D02*
X254371Y111D01*
X254376Y116D01*
X254380Y113D01*
X255503Y448D01*
X255507Y454D01*
X255511Y452D01*
X256547Y1000D01*
X256550Y1006D01*
X256555Y1005D01*
X257463Y1744D01*
X257465Y1751D01*
X257470Y1751D01*
X258217Y2653D01*
X258217Y2661D01*
X258223Y2661D01*
X258779Y3692D01*
X258778Y3699D01*
X258783Y3701D01*
X259127Y4820D01*
X259125Y4827D01*
X259129Y4830D01*
X259249Y5995D01*
X259247Y5998D01*
X259249Y6000D01*
X259249Y12000D01*
X259247Y12003D01*
X259249Y12005D01*
X259138Y13181D01*
X259133Y13186D01*
X259136Y13190D01*
X258798Y14322D01*
X258792Y14326D01*
X258794Y14331D01*
X258242Y15375D01*
X258235Y15378D01*
X258237Y15383D01*
X257491Y16299D01*
X257484Y16300D01*
X257484Y16306D01*
X256575Y17059D01*
X256567Y17059D01*
X256567Y17064D01*
X255527Y17625D01*
X255520Y17624D01*
X255518Y17629D01*
X254389Y17976D01*
X254383Y17974D01*
X254380Y17978D01*
X253205Y18099D01*
X253198Y18095D01*
X253194Y18099D01*
X251854Y17942D01*
X251848Y17937D01*
X251843Y17940D01*
X250572Y17489D01*
X250567Y17482D01*
X250562Y17484D01*
X249423Y16762D01*
X249420Y16754D01*
X249414Y16755D01*
X248464Y15797D01*
X248463Y15789D01*
X248457Y15788D01*
X247744Y14643D01*
X247745Y14635D01*
X247739Y14633D01*
X247299Y13357D01*
X247301Y13350D01*
X247297Y13347D01*
X247151Y12005D01*
X247153Y12002D01*
X247151Y12000D01*
X247151Y6000D01*
X247153Y5997D01*
X247151Y5994D01*
X247306Y4665D01*
X247312Y4659D01*
X247309Y4655D01*
X247756Y3394D01*
X247763Y3389D01*
X247761Y3384D01*
X248478Y2254D01*
X248485Y2251D01*
X248484Y2245D01*
X249435Y1303D01*
X249443Y1302D01*
X249443Y1296D01*
X250579Y589D01*
X250587Y590D01*
X250589Y584D01*
X251854Y148D01*
X251859Y149D01*
X251860Y148D01*
X251863Y148D01*
X251865Y145D01*
X253195Y1D01*
X253201Y5D01*
X253205Y1D01*
X254371Y111D01*
G37*
G36*
X713055Y111D02*
X713055Y111D01*
X713060Y116D01*
X713064Y113D01*
X714187Y448D01*
X714191Y454D01*
X714195Y452D01*
X715231Y1000D01*
X715234Y1006D01*
X715239Y1005D01*
X716147Y1744D01*
X716149Y1751D01*
X716154Y1751D01*
X716901Y2653D01*
X716901Y2661D01*
X716907Y2661D01*
X717463Y3692D01*
X717462Y3699D01*
X717467Y3701D01*
X717811Y4820D01*
X717809Y4827D01*
X717813Y4830D01*
X717933Y5995D01*
X717931Y5998D01*
X717933Y6000D01*
X717933Y12000D01*
X717931Y12003D01*
X717933Y12005D01*
X717822Y13181D01*
X717817Y13186D01*
X717820Y13190D01*
X717482Y14322D01*
X717476Y14326D01*
X717478Y14331D01*
X716926Y15375D01*
X716919Y15378D01*
X716921Y15383D01*
X716175Y16299D01*
X716168Y16300D01*
X716168Y16306D01*
X715259Y17059D01*
X715251Y17059D01*
X715251Y17064D01*
X714211Y17625D01*
X714204Y17624D01*
X714202Y17629D01*
X713073Y17976D01*
X713067Y17974D01*
X713064Y17978D01*
X711889Y18099D01*
X711882Y18095D01*
X711878Y18099D01*
X710538Y17942D01*
X710532Y17937D01*
X710527Y17940D01*
X709256Y17489D01*
X709251Y17482D01*
X709246Y17484D01*
X708107Y16762D01*
X708104Y16754D01*
X708098Y16755D01*
X707148Y15797D01*
X707147Y15789D01*
X707141Y15788D01*
X706428Y14643D01*
X706429Y14635D01*
X706423Y14633D01*
X705983Y13357D01*
X705985Y13350D01*
X705981Y13347D01*
X705835Y12005D01*
X705837Y12002D01*
X705835Y12000D01*
X705835Y6000D01*
X705837Y5997D01*
X705835Y5994D01*
X705990Y4665D01*
X705996Y4659D01*
X705993Y4655D01*
X706440Y3394D01*
X706447Y3389D01*
X706445Y3384D01*
X707162Y2254D01*
X707169Y2251D01*
X707168Y2245D01*
X708119Y1303D01*
X708127Y1302D01*
X708127Y1296D01*
X709263Y589D01*
X709271Y590D01*
X709273Y584D01*
X710538Y148D01*
X710543Y149D01*
X710544Y148D01*
X710547Y148D01*
X710549Y145D01*
X711879Y1D01*
X711885Y5D01*
X711889Y1D01*
X713055Y111D01*
G37*
G36*
X799455Y111D02*
X799455Y111D01*
X799460Y116D01*
X799464Y113D01*
X800587Y448D01*
X800591Y454D01*
X800595Y452D01*
X801631Y1000D01*
X801634Y1006D01*
X801639Y1005D01*
X802547Y1744D01*
X802549Y1751D01*
X802554Y1751D01*
X803301Y2653D01*
X803301Y2661D01*
X803307Y2661D01*
X803863Y3692D01*
X803862Y3699D01*
X803867Y3701D01*
X804211Y4820D01*
X804209Y4827D01*
X804213Y4830D01*
X804333Y5995D01*
X804331Y5998D01*
X804333Y6000D01*
X804333Y12000D01*
X804331Y12003D01*
X804333Y12005D01*
X804222Y13181D01*
X804217Y13186D01*
X804220Y13190D01*
X803882Y14322D01*
X803876Y14326D01*
X803878Y14331D01*
X803326Y15375D01*
X803319Y15378D01*
X803321Y15383D01*
X802575Y16299D01*
X802568Y16300D01*
X802568Y16306D01*
X801659Y17059D01*
X801651Y17059D01*
X801651Y17064D01*
X800611Y17625D01*
X800604Y17624D01*
X800602Y17629D01*
X799473Y17976D01*
X799467Y17974D01*
X799464Y17978D01*
X798289Y18099D01*
X798282Y18095D01*
X798278Y18099D01*
X796938Y17942D01*
X796932Y17937D01*
X796927Y17940D01*
X795656Y17489D01*
X795651Y17482D01*
X795646Y17484D01*
X794507Y16762D01*
X794504Y16754D01*
X794498Y16755D01*
X793548Y15797D01*
X793547Y15789D01*
X793541Y15788D01*
X792828Y14643D01*
X792829Y14635D01*
X792823Y14633D01*
X792383Y13357D01*
X792385Y13350D01*
X792381Y13347D01*
X792235Y12005D01*
X792237Y12002D01*
X792235Y12000D01*
X792235Y6000D01*
X792237Y5997D01*
X792235Y5994D01*
X792390Y4665D01*
X792396Y4659D01*
X792393Y4655D01*
X792840Y3394D01*
X792847Y3389D01*
X792845Y3384D01*
X793562Y2254D01*
X793569Y2251D01*
X793568Y2245D01*
X794519Y1303D01*
X794527Y1302D01*
X794527Y1296D01*
X795663Y589D01*
X795671Y590D01*
X795673Y584D01*
X796938Y148D01*
X796943Y149D01*
X796944Y148D01*
X796947Y148D01*
X796949Y145D01*
X798279Y1D01*
X798285Y5D01*
X798289Y1D01*
X799455Y111D01*
G37*
G36*
X167971Y111D02*
X167971Y111D01*
X167976Y116D01*
X167980Y113D01*
X169103Y448D01*
X169107Y454D01*
X169111Y452D01*
X170147Y1000D01*
X170150Y1006D01*
X170155Y1005D01*
X171063Y1744D01*
X171065Y1751D01*
X171070Y1751D01*
X171817Y2653D01*
X171817Y2661D01*
X171823Y2661D01*
X172379Y3692D01*
X172378Y3699D01*
X172383Y3701D01*
X172727Y4820D01*
X172725Y4827D01*
X172729Y4830D01*
X172849Y5995D01*
X172847Y5998D01*
X172849Y6000D01*
X172849Y12000D01*
X172847Y12003D01*
X172849Y12005D01*
X172738Y13181D01*
X172733Y13186D01*
X172736Y13190D01*
X172398Y14322D01*
X172392Y14326D01*
X172394Y14331D01*
X171842Y15375D01*
X171835Y15378D01*
X171837Y15383D01*
X171091Y16299D01*
X171084Y16300D01*
X171084Y16306D01*
X170175Y17059D01*
X170167Y17059D01*
X170167Y17064D01*
X169127Y17625D01*
X169120Y17624D01*
X169118Y17629D01*
X167989Y17976D01*
X167983Y17974D01*
X167980Y17978D01*
X166805Y18099D01*
X166798Y18095D01*
X166794Y18099D01*
X165454Y17942D01*
X165448Y17937D01*
X165443Y17940D01*
X164172Y17489D01*
X164167Y17482D01*
X164162Y17484D01*
X163023Y16762D01*
X163020Y16754D01*
X163014Y16755D01*
X162064Y15797D01*
X162063Y15789D01*
X162057Y15788D01*
X161344Y14643D01*
X161345Y14635D01*
X161339Y14633D01*
X160899Y13357D01*
X160901Y13350D01*
X160897Y13347D01*
X160751Y12005D01*
X160753Y12002D01*
X160751Y12000D01*
X160751Y6000D01*
X160753Y5997D01*
X160751Y5994D01*
X160906Y4665D01*
X160912Y4659D01*
X160909Y4655D01*
X161356Y3394D01*
X161363Y3389D01*
X161361Y3384D01*
X162078Y2254D01*
X162085Y2251D01*
X162084Y2245D01*
X163035Y1303D01*
X163043Y1302D01*
X163043Y1296D01*
X164179Y589D01*
X164187Y590D01*
X164189Y584D01*
X165454Y148D01*
X165459Y149D01*
X165460Y148D01*
X165463Y148D01*
X165465Y145D01*
X166795Y1D01*
X166801Y5D01*
X166805Y1D01*
X167971Y111D01*
G37*
G36*
X708943Y1648360D02*
X708943Y1648360D01*
X709009Y1648362D01*
X709052Y1648379D01*
X709099Y1648388D01*
X709156Y1648421D01*
X709216Y1648446D01*
X709251Y1648478D01*
X709292Y1648502D01*
X709334Y1648553D01*
X709382Y1648597D01*
X709404Y1648640D01*
X709433Y1648676D01*
X709454Y1648738D01*
X709485Y1648797D01*
X709493Y1648851D01*
X709505Y1648889D01*
X709504Y1648928D01*
X709512Y1648982D01*
X709512Y1652792D01*
X709501Y1652857D01*
X709499Y1652923D01*
X709481Y1652967D01*
X709473Y1653013D01*
X709439Y1653070D01*
X709414Y1653131D01*
X709383Y1653166D01*
X709358Y1653206D01*
X709307Y1653248D01*
X709263Y1653296D01*
X709221Y1653318D01*
X709184Y1653348D01*
X709122Y1653369D01*
X709063Y1653399D01*
X709009Y1653407D01*
X708972Y1653420D01*
X708932Y1653419D01*
X708878Y1653427D01*
X703290Y1653427D01*
X703225Y1653415D01*
X703159Y1653413D01*
X703116Y1653395D01*
X703069Y1653387D01*
X703012Y1653353D01*
X702952Y1653329D01*
X702917Y1653297D01*
X702876Y1653273D01*
X702835Y1653222D01*
X702786Y1653177D01*
X702764Y1653135D01*
X702735Y1653099D01*
X702714Y1653036D01*
X702683Y1652978D01*
X702675Y1652923D01*
X702663Y1652886D01*
X702663Y1652882D01*
X702664Y1652846D01*
X702656Y1652792D01*
X702656Y1648982D01*
X702667Y1648918D01*
X702669Y1648852D01*
X702687Y1648808D01*
X702695Y1648762D01*
X702729Y1648705D01*
X702754Y1648644D01*
X702785Y1648609D01*
X702810Y1648568D01*
X702861Y1648527D01*
X702905Y1648478D01*
X702947Y1648457D01*
X702984Y1648427D01*
X703046Y1648406D01*
X703105Y1648376D01*
X703159Y1648368D01*
X703196Y1648355D01*
X703236Y1648356D01*
X703290Y1648348D01*
X708878Y1648348D01*
X708943Y1648360D01*
G37*
G36*
X163859Y1648360D02*
X163859Y1648360D01*
X163925Y1648362D01*
X163968Y1648379D01*
X164015Y1648388D01*
X164072Y1648421D01*
X164132Y1648446D01*
X164167Y1648478D01*
X164208Y1648502D01*
X164250Y1648553D01*
X164298Y1648597D01*
X164320Y1648640D01*
X164349Y1648676D01*
X164370Y1648738D01*
X164401Y1648797D01*
X164409Y1648851D01*
X164421Y1648889D01*
X164420Y1648928D01*
X164428Y1648982D01*
X164428Y1652792D01*
X164417Y1652857D01*
X164415Y1652923D01*
X164397Y1652967D01*
X164389Y1653013D01*
X164355Y1653070D01*
X164330Y1653131D01*
X164299Y1653166D01*
X164274Y1653206D01*
X164223Y1653248D01*
X164179Y1653296D01*
X164137Y1653318D01*
X164100Y1653348D01*
X164038Y1653369D01*
X163979Y1653399D01*
X163925Y1653407D01*
X163888Y1653420D01*
X163848Y1653419D01*
X163794Y1653427D01*
X158206Y1653427D01*
X158141Y1653415D01*
X158075Y1653413D01*
X158032Y1653395D01*
X157985Y1653387D01*
X157928Y1653353D01*
X157868Y1653329D01*
X157833Y1653297D01*
X157792Y1653273D01*
X157751Y1653222D01*
X157702Y1653177D01*
X157680Y1653135D01*
X157651Y1653099D01*
X157630Y1653036D01*
X157599Y1652978D01*
X157591Y1652923D01*
X157579Y1652886D01*
X157579Y1652882D01*
X157580Y1652846D01*
X157572Y1652792D01*
X157572Y1648982D01*
X157583Y1648918D01*
X157585Y1648852D01*
X157603Y1648808D01*
X157611Y1648762D01*
X157645Y1648705D01*
X157670Y1648644D01*
X157701Y1648609D01*
X157726Y1648568D01*
X157777Y1648527D01*
X157821Y1648478D01*
X157863Y1648457D01*
X157900Y1648427D01*
X157962Y1648406D01*
X158021Y1648376D01*
X158075Y1648368D01*
X158112Y1648355D01*
X158152Y1648356D01*
X158206Y1648348D01*
X163794Y1648348D01*
X163859Y1648360D01*
G37*
G36*
X163859Y345949D02*
X163859Y345949D01*
X163925Y345951D01*
X163968Y345969D01*
X164015Y345977D01*
X164072Y346011D01*
X164132Y346036D01*
X164167Y346067D01*
X164208Y346092D01*
X164250Y346143D01*
X164298Y346187D01*
X164320Y346229D01*
X164349Y346266D01*
X164370Y346328D01*
X164401Y346387D01*
X164409Y346441D01*
X164421Y346478D01*
X164420Y346518D01*
X164428Y346572D01*
X164428Y350382D01*
X164417Y350447D01*
X164415Y350513D01*
X164397Y350556D01*
X164389Y350603D01*
X164355Y350660D01*
X164330Y350720D01*
X164299Y350755D01*
X164274Y350796D01*
X164223Y350838D01*
X164179Y350886D01*
X164137Y350908D01*
X164100Y350937D01*
X164038Y350958D01*
X163979Y350989D01*
X163925Y350997D01*
X163888Y351009D01*
X163848Y351008D01*
X163794Y351016D01*
X158206Y351016D01*
X158141Y351005D01*
X158075Y351003D01*
X158032Y350985D01*
X157985Y350977D01*
X157928Y350943D01*
X157868Y350918D01*
X157833Y350887D01*
X157792Y350862D01*
X157751Y350811D01*
X157702Y350767D01*
X157680Y350725D01*
X157651Y350688D01*
X157630Y350626D01*
X157599Y350567D01*
X157591Y350513D01*
X157579Y350476D01*
X157579Y350472D01*
X157579Y350471D01*
X157580Y350436D01*
X157572Y350382D01*
X157572Y346572D01*
X157583Y346507D01*
X157585Y346441D01*
X157603Y346398D01*
X157611Y346351D01*
X157645Y346294D01*
X157670Y346234D01*
X157701Y346199D01*
X157726Y346158D01*
X157777Y346117D01*
X157821Y346068D01*
X157863Y346046D01*
X157900Y346017D01*
X157962Y345996D01*
X158021Y345965D01*
X158075Y345957D01*
X158112Y345945D01*
X158152Y345946D01*
X158206Y345938D01*
X163794Y345938D01*
X163859Y345949D01*
G37*
G36*
X708943Y345949D02*
X708943Y345949D01*
X709009Y345951D01*
X709052Y345969D01*
X709099Y345977D01*
X709156Y346011D01*
X709216Y346036D01*
X709251Y346067D01*
X709292Y346092D01*
X709334Y346143D01*
X709382Y346187D01*
X709404Y346229D01*
X709433Y346266D01*
X709454Y346328D01*
X709485Y346387D01*
X709493Y346441D01*
X709505Y346478D01*
X709504Y346518D01*
X709512Y346572D01*
X709512Y350382D01*
X709501Y350447D01*
X709499Y350513D01*
X709481Y350556D01*
X709473Y350603D01*
X709439Y350660D01*
X709414Y350720D01*
X709383Y350755D01*
X709358Y350796D01*
X709307Y350838D01*
X709263Y350886D01*
X709221Y350908D01*
X709184Y350937D01*
X709122Y350958D01*
X709063Y350989D01*
X709009Y350997D01*
X708972Y351009D01*
X708932Y351008D01*
X708878Y351016D01*
X703290Y351016D01*
X703225Y351005D01*
X703159Y351003D01*
X703116Y350985D01*
X703069Y350977D01*
X703012Y350943D01*
X702952Y350918D01*
X702917Y350887D01*
X702876Y350862D01*
X702835Y350811D01*
X702786Y350767D01*
X702764Y350725D01*
X702735Y350688D01*
X702714Y350626D01*
X702683Y350567D01*
X702675Y350513D01*
X702663Y350476D01*
X702663Y350472D01*
X702663Y350471D01*
X702664Y350436D01*
X702656Y350382D01*
X702656Y346572D01*
X702667Y346507D01*
X702669Y346441D01*
X702687Y346398D01*
X702695Y346351D01*
X702729Y346294D01*
X702754Y346234D01*
X702785Y346199D01*
X702810Y346158D01*
X702861Y346117D01*
X702905Y346068D01*
X702947Y346046D01*
X702984Y346017D01*
X703046Y345996D01*
X703105Y345965D01*
X703159Y345957D01*
X703196Y345945D01*
X703236Y345946D01*
X703290Y345938D01*
X708878Y345938D01*
X708943Y345949D01*
G37*
G36*
X708943Y1127380D02*
X708943Y1127380D01*
X709009Y1127382D01*
X709052Y1127400D01*
X709099Y1127408D01*
X709156Y1127442D01*
X709216Y1127467D01*
X709251Y1127498D01*
X709292Y1127523D01*
X709334Y1127574D01*
X709382Y1127618D01*
X709404Y1127660D01*
X709433Y1127697D01*
X709454Y1127759D01*
X709485Y1127818D01*
X709493Y1127872D01*
X709505Y1127909D01*
X709504Y1127949D01*
X709512Y1128003D01*
X709512Y1131813D01*
X709501Y1131878D01*
X709499Y1131944D01*
X709481Y1131987D01*
X709473Y1132034D01*
X709439Y1132091D01*
X709414Y1132151D01*
X709383Y1132186D01*
X709358Y1132227D01*
X709307Y1132269D01*
X709263Y1132317D01*
X709221Y1132339D01*
X709184Y1132368D01*
X709122Y1132389D01*
X709063Y1132420D01*
X709009Y1132428D01*
X708972Y1132440D01*
X708932Y1132439D01*
X708878Y1132447D01*
X703290Y1132447D01*
X703225Y1132436D01*
X703159Y1132434D01*
X703116Y1132416D01*
X703069Y1132408D01*
X703012Y1132374D01*
X702952Y1132349D01*
X702917Y1132318D01*
X702876Y1132293D01*
X702835Y1132242D01*
X702786Y1132198D01*
X702764Y1132156D01*
X702735Y1132119D01*
X702714Y1132057D01*
X702683Y1131998D01*
X702675Y1131944D01*
X702663Y1131907D01*
X702663Y1131903D01*
X702663Y1131902D01*
X702664Y1131867D01*
X702656Y1131813D01*
X702656Y1128003D01*
X702667Y1127938D01*
X702669Y1127872D01*
X702687Y1127829D01*
X702695Y1127782D01*
X702729Y1127725D01*
X702754Y1127665D01*
X702785Y1127630D01*
X702810Y1127589D01*
X702861Y1127548D01*
X702905Y1127499D01*
X702947Y1127477D01*
X702984Y1127448D01*
X703046Y1127427D01*
X703105Y1127396D01*
X703159Y1127388D01*
X703196Y1127376D01*
X703236Y1127377D01*
X703290Y1127369D01*
X708878Y1127369D01*
X708943Y1127380D01*
G37*
G36*
X163859Y1387883D02*
X163859Y1387883D01*
X163925Y1387885D01*
X163968Y1387902D01*
X164015Y1387911D01*
X164072Y1387944D01*
X164132Y1387969D01*
X164167Y1388001D01*
X164208Y1388025D01*
X164250Y1388076D01*
X164298Y1388120D01*
X164320Y1388163D01*
X164349Y1388199D01*
X164370Y1388261D01*
X164401Y1388320D01*
X164409Y1388374D01*
X164421Y1388412D01*
X164420Y1388451D01*
X164428Y1388505D01*
X164428Y1392315D01*
X164417Y1392380D01*
X164415Y1392446D01*
X164397Y1392490D01*
X164389Y1392536D01*
X164355Y1392593D01*
X164330Y1392654D01*
X164299Y1392689D01*
X164274Y1392729D01*
X164223Y1392771D01*
X164179Y1392819D01*
X164137Y1392841D01*
X164100Y1392871D01*
X164038Y1392892D01*
X163979Y1392922D01*
X163925Y1392930D01*
X163888Y1392943D01*
X163848Y1392942D01*
X163794Y1392950D01*
X158206Y1392950D01*
X158141Y1392938D01*
X158075Y1392936D01*
X158032Y1392918D01*
X157985Y1392910D01*
X157928Y1392876D01*
X157868Y1392852D01*
X157833Y1392820D01*
X157792Y1392796D01*
X157751Y1392745D01*
X157702Y1392700D01*
X157680Y1392658D01*
X157651Y1392622D01*
X157630Y1392559D01*
X157599Y1392501D01*
X157591Y1392446D01*
X157579Y1392409D01*
X157579Y1392405D01*
X157580Y1392369D01*
X157572Y1392315D01*
X157572Y1388505D01*
X157583Y1388441D01*
X157585Y1388375D01*
X157603Y1388331D01*
X157611Y1388285D01*
X157645Y1388228D01*
X157670Y1388167D01*
X157701Y1388132D01*
X157726Y1388091D01*
X157777Y1388050D01*
X157821Y1388001D01*
X157863Y1387980D01*
X157900Y1387950D01*
X157962Y1387929D01*
X158021Y1387899D01*
X158075Y1387891D01*
X158112Y1387878D01*
X158152Y1387879D01*
X158206Y1387871D01*
X163794Y1387871D01*
X163859Y1387883D01*
G37*
G36*
X708943Y1387883D02*
X708943Y1387883D01*
X709009Y1387885D01*
X709052Y1387902D01*
X709099Y1387911D01*
X709156Y1387944D01*
X709216Y1387969D01*
X709251Y1388001D01*
X709292Y1388025D01*
X709334Y1388076D01*
X709382Y1388120D01*
X709404Y1388163D01*
X709433Y1388199D01*
X709454Y1388261D01*
X709485Y1388320D01*
X709493Y1388374D01*
X709505Y1388412D01*
X709504Y1388451D01*
X709512Y1388505D01*
X709512Y1392315D01*
X709501Y1392380D01*
X709499Y1392446D01*
X709481Y1392490D01*
X709473Y1392536D01*
X709439Y1392593D01*
X709414Y1392654D01*
X709383Y1392689D01*
X709358Y1392729D01*
X709307Y1392771D01*
X709263Y1392819D01*
X709221Y1392841D01*
X709184Y1392871D01*
X709122Y1392892D01*
X709063Y1392922D01*
X709009Y1392930D01*
X708972Y1392943D01*
X708932Y1392942D01*
X708878Y1392950D01*
X703290Y1392950D01*
X703225Y1392938D01*
X703159Y1392936D01*
X703116Y1392918D01*
X703069Y1392910D01*
X703012Y1392876D01*
X702952Y1392852D01*
X702917Y1392820D01*
X702876Y1392796D01*
X702835Y1392745D01*
X702786Y1392700D01*
X702764Y1392658D01*
X702735Y1392622D01*
X702714Y1392559D01*
X702683Y1392501D01*
X702675Y1392446D01*
X702663Y1392409D01*
X702663Y1392405D01*
X702664Y1392369D01*
X702656Y1392315D01*
X702656Y1388505D01*
X702667Y1388441D01*
X702669Y1388375D01*
X702687Y1388331D01*
X702695Y1388285D01*
X702729Y1388228D01*
X702754Y1388167D01*
X702785Y1388132D01*
X702810Y1388091D01*
X702861Y1388050D01*
X702905Y1388001D01*
X702947Y1387980D01*
X702984Y1387950D01*
X703046Y1387929D01*
X703105Y1387899D01*
X703159Y1387891D01*
X703196Y1387878D01*
X703236Y1387879D01*
X703290Y1387871D01*
X708878Y1387871D01*
X708943Y1387883D01*
G37*
G36*
X163859Y1127380D02*
X163859Y1127380D01*
X163925Y1127382D01*
X163968Y1127400D01*
X164015Y1127408D01*
X164072Y1127442D01*
X164132Y1127467D01*
X164167Y1127498D01*
X164208Y1127523D01*
X164250Y1127574D01*
X164298Y1127618D01*
X164320Y1127660D01*
X164349Y1127697D01*
X164370Y1127759D01*
X164401Y1127818D01*
X164409Y1127872D01*
X164421Y1127909D01*
X164420Y1127949D01*
X164428Y1128003D01*
X164428Y1131813D01*
X164417Y1131878D01*
X164415Y1131944D01*
X164397Y1131987D01*
X164389Y1132034D01*
X164355Y1132091D01*
X164330Y1132151D01*
X164299Y1132186D01*
X164274Y1132227D01*
X164223Y1132269D01*
X164179Y1132317D01*
X164137Y1132339D01*
X164100Y1132368D01*
X164038Y1132389D01*
X163979Y1132420D01*
X163925Y1132428D01*
X163888Y1132440D01*
X163848Y1132439D01*
X163794Y1132447D01*
X158206Y1132447D01*
X158141Y1132436D01*
X158075Y1132434D01*
X158032Y1132416D01*
X157985Y1132408D01*
X157928Y1132374D01*
X157868Y1132349D01*
X157833Y1132318D01*
X157792Y1132293D01*
X157751Y1132242D01*
X157702Y1132198D01*
X157680Y1132156D01*
X157651Y1132119D01*
X157630Y1132057D01*
X157599Y1131998D01*
X157591Y1131944D01*
X157579Y1131907D01*
X157579Y1131903D01*
X157579Y1131902D01*
X157580Y1131867D01*
X157572Y1131813D01*
X157572Y1128003D01*
X157583Y1127938D01*
X157585Y1127872D01*
X157603Y1127829D01*
X157611Y1127782D01*
X157645Y1127725D01*
X157670Y1127665D01*
X157701Y1127630D01*
X157726Y1127589D01*
X157777Y1127548D01*
X157821Y1127499D01*
X157863Y1127477D01*
X157900Y1127448D01*
X157962Y1127427D01*
X158021Y1127396D01*
X158075Y1127388D01*
X158112Y1127376D01*
X158152Y1127377D01*
X158206Y1127369D01*
X163794Y1127369D01*
X163859Y1127380D01*
G37*
G36*
X163859Y606426D02*
X163859Y606426D01*
X163925Y606428D01*
X163968Y606446D01*
X164015Y606454D01*
X164072Y606488D01*
X164132Y606513D01*
X164167Y606544D01*
X164208Y606569D01*
X164250Y606620D01*
X164298Y606664D01*
X164320Y606706D01*
X164349Y606743D01*
X164370Y606805D01*
X164401Y606864D01*
X164409Y606918D01*
X164421Y606955D01*
X164420Y606995D01*
X164428Y607049D01*
X164428Y610859D01*
X164417Y610924D01*
X164415Y610990D01*
X164397Y611033D01*
X164389Y611080D01*
X164355Y611137D01*
X164330Y611197D01*
X164299Y611232D01*
X164274Y611273D01*
X164223Y611315D01*
X164179Y611363D01*
X164137Y611385D01*
X164100Y611414D01*
X164038Y611435D01*
X163979Y611466D01*
X163925Y611474D01*
X163888Y611486D01*
X163848Y611485D01*
X163794Y611493D01*
X158206Y611493D01*
X158141Y611482D01*
X158075Y611480D01*
X158032Y611462D01*
X157985Y611454D01*
X157928Y611420D01*
X157868Y611395D01*
X157833Y611364D01*
X157792Y611339D01*
X157751Y611288D01*
X157702Y611244D01*
X157680Y611202D01*
X157651Y611165D01*
X157630Y611103D01*
X157599Y611044D01*
X157591Y610990D01*
X157579Y610953D01*
X157579Y610949D01*
X157579Y610948D01*
X157580Y610913D01*
X157572Y610859D01*
X157572Y607049D01*
X157583Y606984D01*
X157585Y606918D01*
X157603Y606875D01*
X157611Y606828D01*
X157645Y606771D01*
X157670Y606711D01*
X157701Y606676D01*
X157726Y606635D01*
X157777Y606594D01*
X157821Y606545D01*
X157863Y606523D01*
X157900Y606494D01*
X157962Y606473D01*
X158021Y606442D01*
X158075Y606434D01*
X158112Y606422D01*
X158152Y606423D01*
X158206Y606415D01*
X163794Y606415D01*
X163859Y606426D01*
G37*
G36*
X163859Y866903D02*
X163859Y866903D01*
X163925Y866905D01*
X163968Y866923D01*
X164015Y866931D01*
X164072Y866965D01*
X164132Y866990D01*
X164167Y867021D01*
X164208Y867046D01*
X164250Y867097D01*
X164298Y867141D01*
X164320Y867183D01*
X164349Y867220D01*
X164370Y867282D01*
X164401Y867341D01*
X164409Y867395D01*
X164421Y867432D01*
X164420Y867472D01*
X164428Y867526D01*
X164428Y871336D01*
X164417Y871401D01*
X164415Y871467D01*
X164397Y871510D01*
X164389Y871557D01*
X164355Y871614D01*
X164330Y871674D01*
X164299Y871709D01*
X164274Y871750D01*
X164223Y871792D01*
X164179Y871840D01*
X164137Y871862D01*
X164100Y871891D01*
X164038Y871912D01*
X163979Y871943D01*
X163925Y871951D01*
X163888Y871963D01*
X163848Y871962D01*
X163794Y871970D01*
X158206Y871970D01*
X158141Y871959D01*
X158075Y871957D01*
X158032Y871939D01*
X157985Y871931D01*
X157928Y871897D01*
X157868Y871872D01*
X157833Y871841D01*
X157792Y871816D01*
X157751Y871765D01*
X157702Y871721D01*
X157680Y871679D01*
X157651Y871642D01*
X157630Y871580D01*
X157599Y871521D01*
X157591Y871467D01*
X157579Y871430D01*
X157579Y871426D01*
X157579Y871425D01*
X157580Y871390D01*
X157572Y871336D01*
X157572Y867526D01*
X157583Y867461D01*
X157585Y867395D01*
X157603Y867352D01*
X157611Y867305D01*
X157645Y867248D01*
X157670Y867188D01*
X157701Y867153D01*
X157726Y867112D01*
X157777Y867071D01*
X157821Y867022D01*
X157863Y867000D01*
X157900Y866971D01*
X157962Y866950D01*
X158021Y866919D01*
X158075Y866911D01*
X158112Y866899D01*
X158152Y866900D01*
X158206Y866892D01*
X163794Y866892D01*
X163859Y866903D01*
G37*
G36*
X708943Y606426D02*
X708943Y606426D01*
X709009Y606428D01*
X709052Y606446D01*
X709099Y606454D01*
X709156Y606488D01*
X709216Y606513D01*
X709251Y606544D01*
X709292Y606569D01*
X709334Y606620D01*
X709382Y606664D01*
X709404Y606706D01*
X709433Y606743D01*
X709454Y606805D01*
X709485Y606864D01*
X709493Y606918D01*
X709505Y606955D01*
X709504Y606995D01*
X709512Y607049D01*
X709512Y610859D01*
X709501Y610924D01*
X709499Y610990D01*
X709481Y611033D01*
X709473Y611080D01*
X709439Y611137D01*
X709414Y611197D01*
X709383Y611232D01*
X709358Y611273D01*
X709307Y611315D01*
X709263Y611363D01*
X709221Y611385D01*
X709184Y611414D01*
X709122Y611435D01*
X709063Y611466D01*
X709009Y611474D01*
X708972Y611486D01*
X708932Y611485D01*
X708878Y611493D01*
X703290Y611493D01*
X703225Y611482D01*
X703159Y611480D01*
X703116Y611462D01*
X703069Y611454D01*
X703012Y611420D01*
X702952Y611395D01*
X702917Y611364D01*
X702876Y611339D01*
X702835Y611288D01*
X702786Y611244D01*
X702764Y611202D01*
X702735Y611165D01*
X702714Y611103D01*
X702683Y611044D01*
X702675Y610990D01*
X702663Y610953D01*
X702663Y610949D01*
X702663Y610948D01*
X702664Y610913D01*
X702656Y610859D01*
X702656Y607049D01*
X702667Y606984D01*
X702669Y606918D01*
X702687Y606875D01*
X702695Y606828D01*
X702729Y606771D01*
X702754Y606711D01*
X702785Y606676D01*
X702810Y606635D01*
X702861Y606594D01*
X702905Y606545D01*
X702947Y606523D01*
X702984Y606494D01*
X703046Y606473D01*
X703105Y606442D01*
X703159Y606434D01*
X703196Y606422D01*
X703236Y606423D01*
X703290Y606415D01*
X708878Y606415D01*
X708943Y606426D01*
G37*
G36*
X163859Y85472D02*
X163859Y85472D01*
X163925Y85474D01*
X163968Y85492D01*
X164015Y85500D01*
X164072Y85534D01*
X164132Y85559D01*
X164167Y85590D01*
X164208Y85615D01*
X164250Y85666D01*
X164298Y85710D01*
X164320Y85752D01*
X164349Y85789D01*
X164370Y85851D01*
X164401Y85910D01*
X164409Y85964D01*
X164421Y86001D01*
X164420Y86041D01*
X164428Y86095D01*
X164428Y89905D01*
X164417Y89970D01*
X164415Y90036D01*
X164397Y90079D01*
X164389Y90126D01*
X164355Y90183D01*
X164330Y90243D01*
X164299Y90278D01*
X164274Y90319D01*
X164223Y90361D01*
X164179Y90409D01*
X164137Y90431D01*
X164100Y90460D01*
X164038Y90481D01*
X163979Y90512D01*
X163925Y90520D01*
X163888Y90532D01*
X163848Y90531D01*
X163794Y90539D01*
X158206Y90539D01*
X158141Y90528D01*
X158075Y90526D01*
X158032Y90508D01*
X157985Y90500D01*
X157928Y90466D01*
X157868Y90441D01*
X157833Y90410D01*
X157792Y90385D01*
X157751Y90334D01*
X157702Y90290D01*
X157680Y90248D01*
X157651Y90211D01*
X157630Y90149D01*
X157599Y90090D01*
X157591Y90036D01*
X157579Y89999D01*
X157579Y89995D01*
X157579Y89994D01*
X157580Y89959D01*
X157572Y89905D01*
X157572Y86095D01*
X157583Y86030D01*
X157585Y85964D01*
X157603Y85921D01*
X157611Y85874D01*
X157645Y85817D01*
X157670Y85757D01*
X157701Y85722D01*
X157726Y85681D01*
X157777Y85640D01*
X157821Y85591D01*
X157863Y85569D01*
X157900Y85540D01*
X157962Y85519D01*
X158021Y85488D01*
X158075Y85480D01*
X158112Y85468D01*
X158152Y85469D01*
X158206Y85461D01*
X163794Y85461D01*
X163859Y85472D01*
G37*
G36*
X708943Y866903D02*
X708943Y866903D01*
X709009Y866905D01*
X709052Y866923D01*
X709099Y866931D01*
X709156Y866965D01*
X709216Y866990D01*
X709251Y867021D01*
X709292Y867046D01*
X709334Y867097D01*
X709382Y867141D01*
X709404Y867183D01*
X709433Y867220D01*
X709454Y867282D01*
X709485Y867341D01*
X709493Y867395D01*
X709505Y867432D01*
X709504Y867472D01*
X709512Y867526D01*
X709512Y871336D01*
X709501Y871401D01*
X709499Y871467D01*
X709481Y871510D01*
X709473Y871557D01*
X709439Y871614D01*
X709414Y871674D01*
X709383Y871709D01*
X709358Y871750D01*
X709307Y871792D01*
X709263Y871840D01*
X709221Y871862D01*
X709184Y871891D01*
X709122Y871912D01*
X709063Y871943D01*
X709009Y871951D01*
X708972Y871963D01*
X708932Y871962D01*
X708878Y871970D01*
X703290Y871970D01*
X703225Y871959D01*
X703159Y871957D01*
X703116Y871939D01*
X703069Y871931D01*
X703012Y871897D01*
X702952Y871872D01*
X702917Y871841D01*
X702876Y871816D01*
X702835Y871765D01*
X702786Y871721D01*
X702764Y871679D01*
X702735Y871642D01*
X702714Y871580D01*
X702683Y871521D01*
X702675Y871467D01*
X702663Y871430D01*
X702663Y871426D01*
X702663Y871425D01*
X702664Y871390D01*
X702656Y871336D01*
X702656Y867526D01*
X702667Y867461D01*
X702669Y867395D01*
X702687Y867352D01*
X702695Y867305D01*
X702729Y867248D01*
X702754Y867188D01*
X702785Y867153D01*
X702810Y867112D01*
X702861Y867071D01*
X702905Y867022D01*
X702947Y867000D01*
X702984Y866971D01*
X703046Y866950D01*
X703105Y866919D01*
X703159Y866911D01*
X703196Y866899D01*
X703236Y866900D01*
X703290Y866892D01*
X708878Y866892D01*
X708943Y866903D01*
G37*
G36*
X708943Y85472D02*
X708943Y85472D01*
X709009Y85474D01*
X709052Y85492D01*
X709099Y85500D01*
X709156Y85534D01*
X709216Y85559D01*
X709251Y85590D01*
X709292Y85615D01*
X709334Y85666D01*
X709382Y85710D01*
X709404Y85752D01*
X709433Y85789D01*
X709454Y85851D01*
X709485Y85910D01*
X709493Y85964D01*
X709505Y86001D01*
X709504Y86041D01*
X709512Y86095D01*
X709512Y89905D01*
X709501Y89970D01*
X709499Y90036D01*
X709481Y90079D01*
X709473Y90126D01*
X709439Y90183D01*
X709414Y90243D01*
X709383Y90278D01*
X709358Y90319D01*
X709307Y90361D01*
X709263Y90409D01*
X709221Y90431D01*
X709184Y90460D01*
X709122Y90481D01*
X709063Y90512D01*
X709009Y90520D01*
X708972Y90532D01*
X708932Y90531D01*
X708878Y90539D01*
X703290Y90539D01*
X703225Y90528D01*
X703159Y90526D01*
X703116Y90508D01*
X703069Y90500D01*
X703012Y90466D01*
X702952Y90441D01*
X702917Y90410D01*
X702876Y90385D01*
X702835Y90334D01*
X702786Y90290D01*
X702764Y90248D01*
X702735Y90211D01*
X702714Y90149D01*
X702683Y90090D01*
X702675Y90036D01*
X702663Y89999D01*
X702663Y89995D01*
X702663Y89994D01*
X702664Y89959D01*
X702656Y89905D01*
X702656Y86095D01*
X702667Y86030D01*
X702669Y85964D01*
X702687Y85921D01*
X702695Y85874D01*
X702729Y85817D01*
X702754Y85757D01*
X702785Y85722D01*
X702810Y85681D01*
X702861Y85640D01*
X702905Y85591D01*
X702947Y85569D01*
X702984Y85540D01*
X703046Y85519D01*
X703105Y85488D01*
X703159Y85480D01*
X703196Y85468D01*
X703236Y85469D01*
X703290Y85461D01*
X708878Y85461D01*
X708943Y85472D01*
G37*
D10*
X530000Y10000D03*
X10000Y190000D03*
D11*
X302000Y11250D03*
X358000Y11250D03*
D12*
X315000Y48000D03*
X325000Y48000D03*
X335000Y48000D03*
X345000Y48000D03*
D13*
X230000Y108500D03*
X230000Y91500D03*
X190000Y108500D03*
X190000Y91500D03*
D14*
X217500Y56600D03*
X212500Y56600D03*
D15*
X242250Y56600D03*
X234500Y56600D03*
D14*
X227500Y56600D03*
X222500Y56600D03*
X202500Y56600D03*
X207500Y56600D03*
D15*
X177750Y56600D03*
X185500Y56600D03*
D14*
X192500Y56600D03*
X197500Y56600D03*
D16*
X181100Y45550D03*
X238900Y45550D03*
D17*
X205000Y105950D03*
D18*
X210000Y105700D03*
X215000Y105700D03*
X215000Y114300D03*
X210000Y114300D03*
X205000Y114300D03*
D19*
X61250Y47000D03*
D20*
X117250Y15000D03*
X42750Y15000D03*
D19*
X73750Y47000D03*
X86250Y47000D03*
X98750Y47000D03*
X441250Y47000D03*
D20*
X497250Y15000D03*
X422750Y15000D03*
D19*
X453750Y47000D03*
X466250Y47000D03*
X478750Y47000D03*
D21*
X120000Y70000D03*
X94600Y70000D03*
X69200Y70000D03*
X43800Y70000D03*
X500000Y70000D03*
X474600Y70000D03*
X449200Y70000D03*
X423800Y70000D03*
D22*
X161000Y82920D03*
X161000Y93080D03*
D21*
X161000Y75300D03*
X161000Y100700D03*
D23*
X30000Y101000D03*
X30000Y119000D03*
D24*
X395000Y130000D03*
X425000Y130000D03*
D25*
X477500Y156500D03*
X472500Y156500D03*
D26*
X487500Y181500D03*
X412500Y181500D03*
D25*
X467500Y156500D03*
X462500Y156500D03*
X457500Y156500D03*
X452500Y156500D03*
X447500Y156500D03*
X442500Y156500D03*
X437500Y156500D03*
X432500Y156500D03*
X427500Y156500D03*
X422500Y156500D03*
X387500Y156500D03*
X382500Y156500D03*
D26*
X397500Y181500D03*
X322500Y181500D03*
D25*
X377500Y156500D03*
X372500Y156500D03*
X367500Y156500D03*
X362500Y156500D03*
X357500Y156500D03*
X352500Y156500D03*
X347500Y156500D03*
X342500Y156500D03*
X337500Y156500D03*
X332500Y156500D03*
D10*
X1075084Y10000D03*
X555084Y190000D03*
D11*
X847084Y11250D03*
X903084Y11250D03*
D12*
X860084Y48000D03*
X870084Y48000D03*
X880084Y48000D03*
X890084Y48000D03*
D13*
X775084Y108500D03*
X775084Y91500D03*
X735084Y108500D03*
X735084Y91500D03*
D14*
X762584Y56600D03*
X757584Y56600D03*
D15*
X787334Y56600D03*
X779584Y56600D03*
D14*
X772584Y56600D03*
X767584Y56600D03*
X747584Y56600D03*
X752584Y56600D03*
D15*
X722834Y56600D03*
X730584Y56600D03*
D14*
X737584Y56600D03*
X742584Y56600D03*
D16*
X726184Y45550D03*
X783984Y45550D03*
D17*
X750084Y105950D03*
D18*
X755084Y105700D03*
X760084Y105700D03*
X760084Y114300D03*
X755084Y114300D03*
X750084Y114300D03*
D19*
X606334Y47000D03*
D20*
X662334Y15000D03*
X587834Y15000D03*
D19*
X618834Y47000D03*
X631334Y47000D03*
X643834Y47000D03*
X986334Y47000D03*
D20*
X1042334Y15000D03*
X967834Y15000D03*
D19*
X998834Y47000D03*
X1011334Y47000D03*
X1023834Y47000D03*
D21*
X665084Y70000D03*
X639684Y70000D03*
X614284Y70000D03*
X588884Y70000D03*
X1045084Y70000D03*
X1019684Y70000D03*
X994284Y70000D03*
X968884Y70000D03*
D22*
X706084Y82920D03*
X706084Y93080D03*
D21*
X706084Y75300D03*
X706084Y100700D03*
D23*
X575084Y101000D03*
X575084Y119000D03*
D24*
X940084Y130000D03*
X970084Y130000D03*
D25*
X1022584Y156500D03*
X1017584Y156500D03*
D26*
X1032584Y181500D03*
X957584Y181500D03*
D25*
X1012584Y156500D03*
X1007584Y156500D03*
X1002584Y156500D03*
X997584Y156500D03*
X992584Y156500D03*
X987584Y156500D03*
X982584Y156500D03*
X977584Y156500D03*
X972584Y156500D03*
X967584Y156500D03*
X932584Y156500D03*
X927584Y156500D03*
D26*
X942584Y181500D03*
X867584Y181500D03*
D25*
X922584Y156500D03*
X917584Y156500D03*
X912584Y156500D03*
X907584Y156500D03*
X902584Y156500D03*
X897584Y156500D03*
X892584Y156500D03*
X887584Y156500D03*
X882584Y156500D03*
X877584Y156500D03*
D10*
X530000Y270477D03*
X10000Y450477D03*
D11*
X302000Y271727D03*
X358000Y271727D03*
D12*
X315000Y308477D03*
X325000Y308477D03*
X335000Y308477D03*
X345000Y308477D03*
D13*
X230000Y368977D03*
X230000Y351977D03*
X190000Y368977D03*
X190000Y351977D03*
D14*
X217500Y317077D03*
X212500Y317077D03*
D15*
X242250Y317077D03*
X234500Y317077D03*
D14*
X227500Y317077D03*
X222500Y317077D03*
X202500Y317077D03*
X207500Y317077D03*
D15*
X177750Y317077D03*
X185500Y317077D03*
D14*
X192500Y317077D03*
X197500Y317077D03*
D16*
X181100Y306027D03*
X238900Y306027D03*
D17*
X205000Y366427D03*
D18*
X210000Y366177D03*
X215000Y366177D03*
X215000Y374777D03*
X210000Y374777D03*
X205000Y374777D03*
D19*
X61250Y307477D03*
D20*
X117250Y275477D03*
X42750Y275477D03*
D19*
X73750Y307477D03*
X86250Y307477D03*
X98750Y307477D03*
X441250Y307477D03*
D20*
X497250Y275477D03*
X422750Y275477D03*
D19*
X453750Y307477D03*
X466250Y307477D03*
X478750Y307477D03*
D21*
X120000Y330477D03*
X94600Y330477D03*
X69200Y330477D03*
X43800Y330477D03*
X500000Y330477D03*
X474600Y330477D03*
X449200Y330477D03*
X423800Y330477D03*
D22*
X161000Y343397D03*
X161000Y353557D03*
D21*
X161000Y335777D03*
X161000Y361177D03*
D23*
X30000Y361477D03*
X30000Y379477D03*
D24*
X395000Y390477D03*
X425000Y390477D03*
D25*
X477500Y416977D03*
X472500Y416977D03*
D26*
X487500Y441977D03*
X412500Y441977D03*
D25*
X467500Y416977D03*
X462500Y416977D03*
X457500Y416977D03*
X452500Y416977D03*
X447500Y416977D03*
X442500Y416977D03*
X437500Y416977D03*
X432500Y416977D03*
X427500Y416977D03*
X422500Y416977D03*
X387500Y416977D03*
X382500Y416977D03*
D26*
X397500Y441977D03*
X322500Y441977D03*
D25*
X377500Y416977D03*
X372500Y416977D03*
X367500Y416977D03*
X362500Y416977D03*
X357500Y416977D03*
X352500Y416977D03*
X347500Y416977D03*
X342500Y416977D03*
X337500Y416977D03*
X332500Y416977D03*
D10*
X1075084Y270477D03*
X555084Y450477D03*
D11*
X847084Y271727D03*
X903084Y271727D03*
D12*
X860084Y308477D03*
X870084Y308477D03*
X880084Y308477D03*
X890084Y308477D03*
D13*
X775084Y368977D03*
X775084Y351977D03*
X735084Y368977D03*
X735084Y351977D03*
D14*
X762584Y317077D03*
X757584Y317077D03*
D15*
X787334Y317077D03*
X779584Y317077D03*
D14*
X772584Y317077D03*
X767584Y317077D03*
X747584Y317077D03*
X752584Y317077D03*
D15*
X722834Y317077D03*
X730584Y317077D03*
D14*
X737584Y317077D03*
X742584Y317077D03*
D16*
X726184Y306027D03*
X783984Y306027D03*
D17*
X750084Y366427D03*
D18*
X755084Y366177D03*
X760084Y366177D03*
X760084Y374777D03*
X755084Y374777D03*
X750084Y374777D03*
D19*
X606334Y307477D03*
D20*
X662334Y275477D03*
X587834Y275477D03*
D19*
X618834Y307477D03*
X631334Y307477D03*
X643834Y307477D03*
X986334Y307477D03*
D20*
X1042334Y275477D03*
X967834Y275477D03*
D19*
X998834Y307477D03*
X1011334Y307477D03*
X1023834Y307477D03*
D21*
X665084Y330477D03*
X639684Y330477D03*
X614284Y330477D03*
X588884Y330477D03*
X1045084Y330477D03*
X1019684Y330477D03*
X994284Y330477D03*
X968884Y330477D03*
D22*
X706084Y343397D03*
X706084Y353557D03*
D21*
X706084Y335777D03*
X706084Y361177D03*
D23*
X575084Y361477D03*
X575084Y379477D03*
D24*
X940084Y390477D03*
X970084Y390477D03*
D25*
X1022584Y416977D03*
X1017584Y416977D03*
D26*
X1032584Y441977D03*
X957584Y441977D03*
D25*
X1012584Y416977D03*
X1007584Y416977D03*
X1002584Y416977D03*
X997584Y416977D03*
X992584Y416977D03*
X987584Y416977D03*
X982584Y416977D03*
X977584Y416977D03*
X972584Y416977D03*
X967584Y416977D03*
X932584Y416977D03*
X927584Y416977D03*
D26*
X942584Y441977D03*
X867584Y441977D03*
D25*
X922584Y416977D03*
X917584Y416977D03*
X912584Y416977D03*
X907584Y416977D03*
X902584Y416977D03*
X897584Y416977D03*
X892584Y416977D03*
X887584Y416977D03*
X882584Y416977D03*
X877584Y416977D03*
D10*
X530000Y530954D03*
X10000Y710954D03*
D11*
X302000Y532204D03*
X358000Y532204D03*
D12*
X315000Y568954D03*
X325000Y568954D03*
X335000Y568954D03*
X345000Y568954D03*
D13*
X230000Y629454D03*
X230000Y612454D03*
X190000Y629454D03*
X190000Y612454D03*
D14*
X217500Y577554D03*
X212500Y577554D03*
D15*
X242250Y577554D03*
X234500Y577554D03*
D14*
X227500Y577554D03*
X222500Y577554D03*
X202500Y577554D03*
X207500Y577554D03*
D15*
X177750Y577554D03*
X185500Y577554D03*
D14*
X192500Y577554D03*
X197500Y577554D03*
D16*
X181100Y566504D03*
X238900Y566504D03*
D17*
X205000Y626904D03*
D18*
X210000Y626654D03*
X215000Y626654D03*
X215000Y635254D03*
X210000Y635254D03*
X205000Y635254D03*
D19*
X61250Y567954D03*
D20*
X117250Y535954D03*
X42750Y535954D03*
D19*
X73750Y567954D03*
X86250Y567954D03*
X98750Y567954D03*
X441250Y567954D03*
D20*
X497250Y535954D03*
X422750Y535954D03*
D19*
X453750Y567954D03*
X466250Y567954D03*
X478750Y567954D03*
D21*
X120000Y590954D03*
X94600Y590954D03*
X69200Y590954D03*
X43800Y590954D03*
X500000Y590954D03*
X474600Y590954D03*
X449200Y590954D03*
X423800Y590954D03*
D22*
X161000Y603874D03*
X161000Y614034D03*
D21*
X161000Y596254D03*
X161000Y621654D03*
D23*
X30000Y621954D03*
X30000Y639954D03*
D24*
X395000Y650954D03*
X425000Y650954D03*
D25*
X477500Y677454D03*
X472500Y677454D03*
D26*
X487500Y702454D03*
X412500Y702454D03*
D25*
X467500Y677454D03*
X462500Y677454D03*
X457500Y677454D03*
X452500Y677454D03*
X447500Y677454D03*
X442500Y677454D03*
X437500Y677454D03*
X432500Y677454D03*
X427500Y677454D03*
X422500Y677454D03*
X387500Y677454D03*
X382500Y677454D03*
D26*
X397500Y702454D03*
X322500Y702454D03*
D25*
X377500Y677454D03*
X372500Y677454D03*
X367500Y677454D03*
X362500Y677454D03*
X357500Y677454D03*
X352500Y677454D03*
X347500Y677454D03*
X342500Y677454D03*
X337500Y677454D03*
X332500Y677454D03*
D10*
X1075084Y530954D03*
X555084Y710954D03*
D11*
X847084Y532204D03*
X903084Y532204D03*
D12*
X860084Y568954D03*
X870084Y568954D03*
X880084Y568954D03*
X890084Y568954D03*
D13*
X775084Y629454D03*
X775084Y612454D03*
X735084Y629454D03*
X735084Y612454D03*
D14*
X762584Y577554D03*
X757584Y577554D03*
D15*
X787334Y577554D03*
X779584Y577554D03*
D14*
X772584Y577554D03*
X767584Y577554D03*
X747584Y577554D03*
X752584Y577554D03*
D15*
X722834Y577554D03*
X730584Y577554D03*
D14*
X737584Y577554D03*
X742584Y577554D03*
D16*
X726184Y566504D03*
X783984Y566504D03*
D17*
X750084Y626904D03*
D18*
X755084Y626654D03*
X760084Y626654D03*
X760084Y635254D03*
X755084Y635254D03*
X750084Y635254D03*
D19*
X606334Y567954D03*
D20*
X662334Y535954D03*
X587834Y535954D03*
D19*
X618834Y567954D03*
X631334Y567954D03*
X643834Y567954D03*
X986334Y567954D03*
D20*
X1042334Y535954D03*
X967834Y535954D03*
D19*
X998834Y567954D03*
X1011334Y567954D03*
X1023834Y567954D03*
D21*
X665084Y590954D03*
X639684Y590954D03*
X614284Y590954D03*
X588884Y590954D03*
X1045084Y590954D03*
X1019684Y590954D03*
X994284Y590954D03*
X968884Y590954D03*
D22*
X706084Y603874D03*
X706084Y614034D03*
D21*
X706084Y596254D03*
X706084Y621654D03*
D23*
X575084Y621954D03*
X575084Y639954D03*
D24*
X940084Y650954D03*
X970084Y650954D03*
D25*
X1022584Y677454D03*
X1017584Y677454D03*
D26*
X1032584Y702454D03*
X957584Y702454D03*
D25*
X1012584Y677454D03*
X1007584Y677454D03*
X1002584Y677454D03*
X997584Y677454D03*
X992584Y677454D03*
X987584Y677454D03*
X982584Y677454D03*
X977584Y677454D03*
X972584Y677454D03*
X967584Y677454D03*
X932584Y677454D03*
X927584Y677454D03*
D26*
X942584Y702454D03*
X867584Y702454D03*
D25*
X922584Y677454D03*
X917584Y677454D03*
X912584Y677454D03*
X907584Y677454D03*
X902584Y677454D03*
X897584Y677454D03*
X892584Y677454D03*
X887584Y677454D03*
X882584Y677454D03*
X877584Y677454D03*
D10*
X530000Y791431D03*
X10000Y971431D03*
D11*
X302000Y792681D03*
X358000Y792681D03*
D12*
X315000Y829431D03*
X325000Y829431D03*
X335000Y829431D03*
X345000Y829431D03*
D13*
X230000Y889931D03*
X230000Y872931D03*
X190000Y889931D03*
X190000Y872931D03*
D14*
X217500Y838031D03*
X212500Y838031D03*
D15*
X242250Y838031D03*
X234500Y838031D03*
D14*
X227500Y838031D03*
X222500Y838031D03*
X202500Y838031D03*
X207500Y838031D03*
D15*
X177750Y838031D03*
X185500Y838031D03*
D14*
X192500Y838031D03*
X197500Y838031D03*
D16*
X181100Y826981D03*
X238900Y826981D03*
D17*
X205000Y887381D03*
D18*
X210000Y887131D03*
X215000Y887131D03*
X215000Y895731D03*
X210000Y895731D03*
X205000Y895731D03*
D19*
X61250Y828431D03*
D20*
X117250Y796431D03*
X42750Y796431D03*
D19*
X73750Y828431D03*
X86250Y828431D03*
X98750Y828431D03*
X441250Y828431D03*
D20*
X497250Y796431D03*
X422750Y796431D03*
D19*
X453750Y828431D03*
X466250Y828431D03*
X478750Y828431D03*
D21*
X120000Y851431D03*
X94600Y851431D03*
X69200Y851431D03*
X43800Y851431D03*
X500000Y851431D03*
X474600Y851431D03*
X449200Y851431D03*
X423800Y851431D03*
D22*
X161000Y864351D03*
X161000Y874511D03*
D21*
X161000Y856731D03*
X161000Y882131D03*
D23*
X30000Y882431D03*
X30000Y900431D03*
D24*
X395000Y911431D03*
X425000Y911431D03*
D25*
X477500Y937931D03*
X472500Y937931D03*
D26*
X487500Y962931D03*
X412500Y962931D03*
D25*
X467500Y937931D03*
X462500Y937931D03*
X457500Y937931D03*
X452500Y937931D03*
X447500Y937931D03*
X442500Y937931D03*
X437500Y937931D03*
X432500Y937931D03*
X427500Y937931D03*
X422500Y937931D03*
X387500Y937931D03*
X382500Y937931D03*
D26*
X397500Y962931D03*
X322500Y962931D03*
D25*
X377500Y937931D03*
X372500Y937931D03*
X367500Y937931D03*
X362500Y937931D03*
X357500Y937931D03*
X352500Y937931D03*
X347500Y937931D03*
X342500Y937931D03*
X337500Y937931D03*
X332500Y937931D03*
D10*
X1075084Y791431D03*
X555084Y971431D03*
D11*
X847084Y792681D03*
X903084Y792681D03*
D12*
X860084Y829431D03*
X870084Y829431D03*
X880084Y829431D03*
X890084Y829431D03*
D13*
X775084Y889931D03*
X775084Y872931D03*
X735084Y889931D03*
X735084Y872931D03*
D14*
X762584Y838031D03*
X757584Y838031D03*
D15*
X787334Y838031D03*
X779584Y838031D03*
D14*
X772584Y838031D03*
X767584Y838031D03*
X747584Y838031D03*
X752584Y838031D03*
D15*
X722834Y838031D03*
X730584Y838031D03*
D14*
X737584Y838031D03*
X742584Y838031D03*
D16*
X726184Y826981D03*
X783984Y826981D03*
D17*
X750084Y887381D03*
D18*
X755084Y887131D03*
X760084Y887131D03*
X760084Y895731D03*
X755084Y895731D03*
X750084Y895731D03*
D19*
X606334Y828431D03*
D20*
X662334Y796431D03*
X587834Y796431D03*
D19*
X618834Y828431D03*
X631334Y828431D03*
X643834Y828431D03*
X986334Y828431D03*
D20*
X1042334Y796431D03*
X967834Y796431D03*
D19*
X998834Y828431D03*
X1011334Y828431D03*
X1023834Y828431D03*
D21*
X665084Y851431D03*
X639684Y851431D03*
X614284Y851431D03*
X588884Y851431D03*
X1045084Y851431D03*
X1019684Y851431D03*
X994284Y851431D03*
X968884Y851431D03*
D22*
X706084Y864351D03*
X706084Y874511D03*
D21*
X706084Y856731D03*
X706084Y882131D03*
D23*
X575084Y882431D03*
X575084Y900431D03*
D24*
X940084Y911431D03*
X970084Y911431D03*
D25*
X1022584Y937931D03*
X1017584Y937931D03*
D26*
X1032584Y962931D03*
X957584Y962931D03*
D25*
X1012584Y937931D03*
X1007584Y937931D03*
X1002584Y937931D03*
X997584Y937931D03*
X992584Y937931D03*
X987584Y937931D03*
X982584Y937931D03*
X977584Y937931D03*
X972584Y937931D03*
X967584Y937931D03*
X932584Y937931D03*
X927584Y937931D03*
D26*
X942584Y962931D03*
X867584Y962931D03*
D25*
X922584Y937931D03*
X917584Y937931D03*
X912584Y937931D03*
X907584Y937931D03*
X902584Y937931D03*
X897584Y937931D03*
X892584Y937931D03*
X887584Y937931D03*
X882584Y937931D03*
X877584Y937931D03*
D10*
X530000Y1051908D03*
X10000Y1231908D03*
D11*
X302000Y1053158D03*
X358000Y1053158D03*
D12*
X315000Y1089908D03*
X325000Y1089908D03*
X335000Y1089908D03*
X345000Y1089908D03*
D13*
X230000Y1150408D03*
X230000Y1133408D03*
X190000Y1150408D03*
X190000Y1133408D03*
D14*
X217500Y1098508D03*
X212500Y1098508D03*
D15*
X242250Y1098508D03*
X234500Y1098508D03*
D14*
X227500Y1098508D03*
X222500Y1098508D03*
X202500Y1098508D03*
X207500Y1098508D03*
D15*
X177750Y1098508D03*
X185500Y1098508D03*
D14*
X192500Y1098508D03*
X197500Y1098508D03*
D16*
X181100Y1087458D03*
X238900Y1087458D03*
D17*
X205000Y1147858D03*
D18*
X210000Y1147608D03*
X215000Y1147608D03*
X215000Y1156208D03*
X210000Y1156208D03*
X205000Y1156208D03*
D19*
X61250Y1088908D03*
D20*
X117250Y1056908D03*
X42750Y1056908D03*
D19*
X73750Y1088908D03*
X86250Y1088908D03*
X98750Y1088908D03*
X441250Y1088908D03*
D20*
X497250Y1056908D03*
X422750Y1056908D03*
D19*
X453750Y1088908D03*
X466250Y1088908D03*
X478750Y1088908D03*
D21*
X120000Y1111908D03*
X94600Y1111908D03*
X69200Y1111908D03*
X43800Y1111908D03*
X500000Y1111908D03*
X474600Y1111908D03*
X449200Y1111908D03*
X423800Y1111908D03*
D22*
X161000Y1124828D03*
X161000Y1134988D03*
D21*
X161000Y1117208D03*
X161000Y1142608D03*
D23*
X30000Y1142908D03*
X30000Y1160908D03*
D24*
X395000Y1171908D03*
X425000Y1171908D03*
D25*
X477500Y1198408D03*
X472500Y1198408D03*
D26*
X487500Y1223408D03*
X412500Y1223408D03*
D25*
X467500Y1198408D03*
X462500Y1198408D03*
X457500Y1198408D03*
X452500Y1198408D03*
X447500Y1198408D03*
X442500Y1198408D03*
X437500Y1198408D03*
X432500Y1198408D03*
X427500Y1198408D03*
X422500Y1198408D03*
X387500Y1198408D03*
X382500Y1198408D03*
D26*
X397500Y1223408D03*
X322500Y1223408D03*
D25*
X377500Y1198408D03*
X372500Y1198408D03*
X367500Y1198408D03*
X362500Y1198408D03*
X357500Y1198408D03*
X352500Y1198408D03*
X347500Y1198408D03*
X342500Y1198408D03*
X337500Y1198408D03*
X332500Y1198408D03*
D10*
X1075084Y1051908D03*
X555084Y1231908D03*
D11*
X847084Y1053158D03*
X903084Y1053158D03*
D12*
X860084Y1089908D03*
X870084Y1089908D03*
X880084Y1089908D03*
X890084Y1089908D03*
D13*
X775084Y1150408D03*
X775084Y1133408D03*
X735084Y1150408D03*
X735084Y1133408D03*
D14*
X762584Y1098508D03*
X757584Y1098508D03*
D15*
X787334Y1098508D03*
X779584Y1098508D03*
D14*
X772584Y1098508D03*
X767584Y1098508D03*
X747584Y1098508D03*
X752584Y1098508D03*
D15*
X722834Y1098508D03*
X730584Y1098508D03*
D14*
X737584Y1098508D03*
X742584Y1098508D03*
D16*
X726184Y1087458D03*
X783984Y1087458D03*
D17*
X750084Y1147858D03*
D18*
X755084Y1147608D03*
X760084Y1147608D03*
X760084Y1156208D03*
X755084Y1156208D03*
X750084Y1156208D03*
D19*
X606334Y1088908D03*
D20*
X662334Y1056908D03*
X587834Y1056908D03*
D19*
X618834Y1088908D03*
X631334Y1088908D03*
X643834Y1088908D03*
X986334Y1088908D03*
D20*
X1042334Y1056908D03*
X967834Y1056908D03*
D19*
X998834Y1088908D03*
X1011334Y1088908D03*
X1023834Y1088908D03*
D21*
X665084Y1111908D03*
X639684Y1111908D03*
X614284Y1111908D03*
X588884Y1111908D03*
X1045084Y1111908D03*
X1019684Y1111908D03*
X994284Y1111908D03*
X968884Y1111908D03*
D22*
X706084Y1124828D03*
X706084Y1134988D03*
D21*
X706084Y1117208D03*
X706084Y1142608D03*
D23*
X575084Y1142908D03*
X575084Y1160908D03*
D24*
X940084Y1171908D03*
X970084Y1171908D03*
D25*
X1022584Y1198408D03*
X1017584Y1198408D03*
D26*
X1032584Y1223408D03*
X957584Y1223408D03*
D25*
X1012584Y1198408D03*
X1007584Y1198408D03*
X1002584Y1198408D03*
X997584Y1198408D03*
X992584Y1198408D03*
X987584Y1198408D03*
X982584Y1198408D03*
X977584Y1198408D03*
X972584Y1198408D03*
X967584Y1198408D03*
X932584Y1198408D03*
X927584Y1198408D03*
D26*
X942584Y1223408D03*
X867584Y1223408D03*
D25*
X922584Y1198408D03*
X917584Y1198408D03*
X912584Y1198408D03*
X907584Y1198408D03*
X902584Y1198408D03*
X897584Y1198408D03*
X892584Y1198408D03*
X887584Y1198408D03*
X882584Y1198408D03*
X877584Y1198408D03*
D10*
X530000Y1312410D03*
X10000Y1492410D03*
D11*
X302000Y1313660D03*
X358000Y1313660D03*
D12*
X315000Y1350410D03*
X325000Y1350410D03*
X335000Y1350410D03*
X345000Y1350410D03*
D13*
X230000Y1410910D03*
X230000Y1393910D03*
X190000Y1410910D03*
X190000Y1393910D03*
D14*
X217500Y1359010D03*
X212500Y1359010D03*
D15*
X242250Y1359010D03*
X234500Y1359010D03*
D14*
X227500Y1359010D03*
X222500Y1359010D03*
X202500Y1359010D03*
X207500Y1359010D03*
D15*
X177750Y1359010D03*
X185500Y1359010D03*
D14*
X192500Y1359010D03*
X197500Y1359010D03*
D16*
X181100Y1347960D03*
X238900Y1347960D03*
D17*
X205000Y1408360D03*
D18*
X210000Y1408110D03*
X215000Y1408110D03*
X215000Y1416710D03*
X210000Y1416710D03*
X205000Y1416710D03*
D19*
X61250Y1349410D03*
D20*
X117250Y1317410D03*
X42750Y1317410D03*
D19*
X73750Y1349410D03*
X86250Y1349410D03*
X98750Y1349410D03*
X441250Y1349410D03*
D20*
X497250Y1317410D03*
X422750Y1317410D03*
D19*
X453750Y1349410D03*
X466250Y1349410D03*
X478750Y1349410D03*
D21*
X120000Y1372410D03*
X94600Y1372410D03*
X69200Y1372410D03*
X43800Y1372410D03*
X500000Y1372410D03*
X474600Y1372410D03*
X449200Y1372410D03*
X423800Y1372410D03*
D22*
X161000Y1385330D03*
X161000Y1395490D03*
D21*
X161000Y1377710D03*
X161000Y1403110D03*
D23*
X30000Y1403410D03*
X30000Y1421410D03*
D24*
X395000Y1432410D03*
X425000Y1432410D03*
D25*
X477500Y1458910D03*
X472500Y1458910D03*
D26*
X487500Y1483910D03*
X412500Y1483910D03*
D25*
X467500Y1458910D03*
X462500Y1458910D03*
X457500Y1458910D03*
X452500Y1458910D03*
X447500Y1458910D03*
X442500Y1458910D03*
X437500Y1458910D03*
X432500Y1458910D03*
X427500Y1458910D03*
X422500Y1458910D03*
X387500Y1458910D03*
X382500Y1458910D03*
D26*
X397500Y1483910D03*
X322500Y1483910D03*
D25*
X377500Y1458910D03*
X372500Y1458910D03*
X367500Y1458910D03*
X362500Y1458910D03*
X357500Y1458910D03*
X352500Y1458910D03*
X347500Y1458910D03*
X342500Y1458910D03*
X337500Y1458910D03*
X332500Y1458910D03*
D10*
X1075084Y1312410D03*
X555084Y1492410D03*
D11*
X847084Y1313660D03*
X903084Y1313660D03*
D12*
X860084Y1350410D03*
X870084Y1350410D03*
X880084Y1350410D03*
X890084Y1350410D03*
D13*
X775084Y1410910D03*
X775084Y1393910D03*
X735084Y1410910D03*
X735084Y1393910D03*
D14*
X762584Y1359010D03*
X757584Y1359010D03*
D15*
X787334Y1359010D03*
X779584Y1359010D03*
D14*
X772584Y1359010D03*
X767584Y1359010D03*
X747584Y1359010D03*
X752584Y1359010D03*
D15*
X722834Y1359010D03*
X730584Y1359010D03*
D14*
X737584Y1359010D03*
X742584Y1359010D03*
D16*
X726184Y1347960D03*
X783984Y1347960D03*
D17*
X750084Y1408360D03*
D18*
X755084Y1408110D03*
X760084Y1408110D03*
X760084Y1416710D03*
X755084Y1416710D03*
X750084Y1416710D03*
D19*
X606334Y1349410D03*
D20*
X662334Y1317410D03*
X587834Y1317410D03*
D19*
X618834Y1349410D03*
X631334Y1349410D03*
X643834Y1349410D03*
X986334Y1349410D03*
D20*
X1042334Y1317410D03*
X967834Y1317410D03*
D19*
X998834Y1349410D03*
X1011334Y1349410D03*
X1023834Y1349410D03*
D21*
X665084Y1372410D03*
X639684Y1372410D03*
X614284Y1372410D03*
X588884Y1372410D03*
X1045084Y1372410D03*
X1019684Y1372410D03*
X994284Y1372410D03*
X968884Y1372410D03*
D22*
X706084Y1385330D03*
X706084Y1395490D03*
D21*
X706084Y1377710D03*
X706084Y1403110D03*
D23*
X575084Y1403410D03*
X575084Y1421410D03*
D24*
X940084Y1432410D03*
X970084Y1432410D03*
D25*
X1022584Y1458910D03*
X1017584Y1458910D03*
D26*
X1032584Y1483910D03*
X957584Y1483910D03*
D25*
X1012584Y1458910D03*
X1007584Y1458910D03*
X1002584Y1458910D03*
X997584Y1458910D03*
X992584Y1458910D03*
X987584Y1458910D03*
X982584Y1458910D03*
X977584Y1458910D03*
X972584Y1458910D03*
X967584Y1458910D03*
X932584Y1458910D03*
X927584Y1458910D03*
D26*
X942584Y1483910D03*
X867584Y1483910D03*
D25*
X922584Y1458910D03*
X917584Y1458910D03*
X912584Y1458910D03*
X907584Y1458910D03*
X902584Y1458910D03*
X897584Y1458910D03*
X892584Y1458910D03*
X887584Y1458910D03*
X882584Y1458910D03*
X877584Y1458910D03*
D10*
X530000Y1572887D03*
X10000Y1752887D03*
D11*
X302000Y1574137D03*
X358000Y1574137D03*
D12*
X315000Y1610887D03*
X325000Y1610887D03*
X335000Y1610887D03*
X345000Y1610887D03*
D13*
X230000Y1671387D03*
X230000Y1654387D03*
X190000Y1671387D03*
X190000Y1654387D03*
D14*
X217500Y1619487D03*
X212500Y1619487D03*
D15*
X242250Y1619487D03*
X234500Y1619487D03*
D14*
X227500Y1619487D03*
X222500Y1619487D03*
X202500Y1619487D03*
X207500Y1619487D03*
D15*
X177750Y1619487D03*
X185500Y1619487D03*
D14*
X192500Y1619487D03*
X197500Y1619487D03*
D16*
X181100Y1608437D03*
X238900Y1608437D03*
D17*
X205000Y1668837D03*
D18*
X210000Y1668587D03*
X215000Y1668587D03*
X215000Y1677187D03*
X210000Y1677187D03*
X205000Y1677187D03*
D19*
X61250Y1609887D03*
D20*
X117250Y1577887D03*
X42750Y1577887D03*
D19*
X73750Y1609887D03*
X86250Y1609887D03*
X98750Y1609887D03*
X441250Y1609887D03*
D20*
X497250Y1577887D03*
X422750Y1577887D03*
D19*
X453750Y1609887D03*
X466250Y1609887D03*
X478750Y1609887D03*
D21*
X120000Y1632887D03*
X94600Y1632887D03*
X69200Y1632887D03*
X43800Y1632887D03*
X500000Y1632887D03*
X474600Y1632887D03*
X449200Y1632887D03*
X423800Y1632887D03*
D22*
X161000Y1645807D03*
X161000Y1655967D03*
D21*
X161000Y1638187D03*
X161000Y1663587D03*
D23*
X30000Y1663887D03*
X30000Y1681887D03*
D24*
X395000Y1692887D03*
X425000Y1692887D03*
D25*
X477500Y1719387D03*
X472500Y1719387D03*
D26*
X487500Y1744387D03*
X412500Y1744387D03*
D25*
X467500Y1719387D03*
X462500Y1719387D03*
X457500Y1719387D03*
X452500Y1719387D03*
X447500Y1719387D03*
X442500Y1719387D03*
X437500Y1719387D03*
X432500Y1719387D03*
X427500Y1719387D03*
X422500Y1719387D03*
X387500Y1719387D03*
X382500Y1719387D03*
D26*
X397500Y1744387D03*
X322500Y1744387D03*
D25*
X377500Y1719387D03*
X372500Y1719387D03*
X367500Y1719387D03*
X362500Y1719387D03*
X357500Y1719387D03*
X352500Y1719387D03*
X347500Y1719387D03*
X342500Y1719387D03*
X337500Y1719387D03*
X332500Y1719387D03*
D10*
X1075084Y1572887D03*
X555084Y1752887D03*
D11*
X847084Y1574137D03*
X903084Y1574137D03*
D12*
X860084Y1610887D03*
X870084Y1610887D03*
X880084Y1610887D03*
X890084Y1610887D03*
D13*
X775084Y1671387D03*
X775084Y1654387D03*
X735084Y1671387D03*
X735084Y1654387D03*
D14*
X762584Y1619487D03*
X757584Y1619487D03*
D15*
X787334Y1619487D03*
X779584Y1619487D03*
D14*
X772584Y1619487D03*
X767584Y1619487D03*
X747584Y1619487D03*
X752584Y1619487D03*
D15*
X722834Y1619487D03*
X730584Y1619487D03*
D14*
X737584Y1619487D03*
X742584Y1619487D03*
D16*
X726184Y1608437D03*
X783984Y1608437D03*
D17*
X750084Y1668837D03*
D18*
X755084Y1668587D03*
X760084Y1668587D03*
X760084Y1677187D03*
X755084Y1677187D03*
X750084Y1677187D03*
D19*
X606334Y1609887D03*
D20*
X662334Y1577887D03*
X587834Y1577887D03*
D19*
X618834Y1609887D03*
X631334Y1609887D03*
X643834Y1609887D03*
X986334Y1609887D03*
D20*
X1042334Y1577887D03*
X967834Y1577887D03*
D19*
X998834Y1609887D03*
X1011334Y1609887D03*
X1023834Y1609887D03*
D21*
X665084Y1632887D03*
X639684Y1632887D03*
X614284Y1632887D03*
X588884Y1632887D03*
X1045084Y1632887D03*
X1019684Y1632887D03*
X994284Y1632887D03*
X968884Y1632887D03*
D22*
X706084Y1645807D03*
X706084Y1655967D03*
D21*
X706084Y1638187D03*
X706084Y1663587D03*
D23*
X575084Y1663887D03*
X575084Y1681887D03*
D24*
X940084Y1692887D03*
X970084Y1692887D03*
D25*
X1022584Y1719387D03*
X1017584Y1719387D03*
D26*
X1032584Y1744387D03*
X957584Y1744387D03*
D25*
X1012584Y1719387D03*
X1007584Y1719387D03*
X1002584Y1719387D03*
X997584Y1719387D03*
X992584Y1719387D03*
X987584Y1719387D03*
X982584Y1719387D03*
X977584Y1719387D03*
X972584Y1719387D03*
X967584Y1719387D03*
X932584Y1719387D03*
X927584Y1719387D03*
D26*
X942584Y1744387D03*
X867584Y1744387D03*
D25*
X922584Y1719387D03*
X917584Y1719387D03*
X912584Y1719387D03*
X907584Y1719387D03*
X902584Y1719387D03*
X897584Y1719387D03*
X892584Y1719387D03*
X887584Y1719387D03*
X882584Y1719387D03*
X877584Y1719387D03*
D27*
X-26238Y1791614D03*
X1111326Y1791614D03*
D28*
X-35293Y63500D02*
X-35290Y63722D01*
X-35282Y63944D01*
X-35268Y64166D01*
X-35249Y64388D01*
X-35225Y64608D01*
X-35195Y64829D01*
X-35160Y65048D01*
X-35119Y65267D01*
X-35073Y65484D01*
X-35022Y65700D01*
X-34965Y65915D01*
X-34903Y66129D01*
X-34836Y66340D01*
X-34764Y66551D01*
X-34686Y66759D01*
X-34604Y66965D01*
X-34516Y67169D01*
X-34424Y67372D01*
X-34326Y67571D01*
X-34224Y67768D01*
X-34117Y67963D01*
X-34005Y68155D01*
X-33888Y68344D01*
X-33767Y68531D01*
X-33641Y68714D01*
X-33511Y68894D01*
X-33376Y69071D01*
X-33238Y69244D01*
X-33095Y69414D01*
X-32947Y69581D01*
X-32796Y69744D01*
X-32641Y69903D01*
X-32482Y70058D01*
X-32319Y70209D01*
X-32152Y70357D01*
X-31982Y70500D01*
X-31809Y70638D01*
X-31632Y70773D01*
X-31452Y70903D01*
X-31269Y71029D01*
X-31082Y71150D01*
X-30893Y71267D01*
X-30701Y71379D01*
X-30506Y71486D01*
X-30309Y71588D01*
X-30110Y71686D01*
X-29907Y71778D01*
X-29703Y71866D01*
X-29497Y71948D01*
X-29289Y72026D01*
X-29078Y72098D01*
X-28867Y72165D01*
X-28653Y72227D01*
X-28438Y72284D01*
X-28222Y72335D01*
X-28005Y72381D01*
X-27786Y72422D01*
X-27567Y72457D01*
X-27346Y72487D01*
X-27126Y72511D01*
X-26904Y72530D01*
X-26682Y72544D01*
X-26460Y72552D01*
X-26238Y72555D01*
X-26016Y72552D01*
X-25794Y72544D01*
X-25572Y72530D01*
X-25350Y72511D01*
X-25130Y72487D01*
X-24909Y72457D01*
X-24690Y72422D01*
X-24471Y72381D01*
X-24254Y72335D01*
X-24038Y72284D01*
X-23823Y72227D01*
X-23609Y72165D01*
X-23398Y72098D01*
X-23187Y72026D01*
X-22979Y71948D01*
X-22773Y71866D01*
X-22569Y71778D01*
X-22366Y71686D01*
X-22167Y71588D01*
X-21970Y71486D01*
X-21775Y71379D01*
X-21583Y71267D01*
X-21394Y71150D01*
X-21207Y71029D01*
X-21024Y70903D01*
X-20844Y70773D01*
X-20667Y70638D01*
X-20494Y70500D01*
X-20324Y70357D01*
X-20157Y70209D01*
X-19994Y70058D01*
X-19835Y69903D01*
X-19680Y69744D01*
X-19529Y69581D01*
X-19381Y69414D01*
X-19238Y69244D01*
X-19100Y69071D01*
X-18965Y68894D01*
X-18835Y68714D01*
X-18709Y68531D01*
X-18588Y68344D01*
X-18471Y68155D01*
X-18359Y67963D01*
X-18252Y67768D01*
X-18150Y67571D01*
X-18052Y67372D01*
X-17960Y67169D01*
X-17872Y66965D01*
X-17790Y66759D01*
X-17712Y66551D01*
X-17640Y66340D01*
X-17573Y66129D01*
X-17511Y65915D01*
X-17454Y65700D01*
X-17403Y65484D01*
X-17357Y65267D01*
X-17316Y65048D01*
X-17281Y64829D01*
X-17251Y64608D01*
X-17227Y64388D01*
X-17208Y64166D01*
X-17194Y63944D01*
X-17186Y63722D01*
X-17183Y63500D01*
X-17186Y63278D01*
X-17194Y63056D01*
X-17208Y62834D01*
X-17227Y62612D01*
X-17251Y62392D01*
X-17281Y62171D01*
X-17316Y61952D01*
X-17357Y61733D01*
X-17403Y61516D01*
X-17454Y61300D01*
X-17511Y61085D01*
X-17573Y60871D01*
X-17640Y60660D01*
X-17712Y60449D01*
X-17790Y60241D01*
X-17872Y60035D01*
X-17960Y59831D01*
X-18052Y59628D01*
X-18150Y59429D01*
X-18252Y59232D01*
X-18359Y59037D01*
X-18471Y58845D01*
X-18588Y58656D01*
X-18709Y58469D01*
X-18835Y58286D01*
X-18965Y58106D01*
X-19100Y57929D01*
X-19238Y57756D01*
X-19381Y57586D01*
X-19529Y57419D01*
X-19680Y57256D01*
X-19835Y57097D01*
X-19994Y56942D01*
X-20157Y56791D01*
X-20324Y56643D01*
X-20494Y56500D01*
X-20667Y56362D01*
X-20844Y56227D01*
X-21024Y56097D01*
X-21207Y55971D01*
X-21394Y55850D01*
X-21583Y55733D01*
X-21775Y55621D01*
X-21970Y55514D01*
X-22167Y55412D01*
X-22366Y55314D01*
X-22569Y55222D01*
X-22773Y55134D01*
X-22979Y55052D01*
X-23187Y54974D01*
X-23398Y54902D01*
X-23609Y54835D01*
X-23823Y54773D01*
X-24038Y54716D01*
X-24254Y54665D01*
X-24471Y54619D01*
X-24690Y54578D01*
X-24909Y54543D01*
X-25130Y54513D01*
X-25350Y54489D01*
X-25572Y54470D01*
X-25794Y54456D01*
X-26016Y54448D01*
X-26238Y54445D01*
X-26460Y54448D01*
X-26682Y54456D01*
X-26904Y54470D01*
X-27126Y54489D01*
X-27346Y54513D01*
X-27567Y54543D01*
X-27786Y54578D01*
X-28005Y54619D01*
X-28222Y54665D01*
X-28438Y54716D01*
X-28653Y54773D01*
X-28867Y54835D01*
X-29078Y54902D01*
X-29289Y54974D01*
X-29497Y55052D01*
X-29703Y55134D01*
X-29907Y55222D01*
X-30110Y55314D01*
X-30309Y55412D01*
X-30506Y55514D01*
X-30701Y55621D01*
X-30893Y55733D01*
X-31082Y55850D01*
X-31269Y55971D01*
X-31452Y56097D01*
X-31632Y56227D01*
X-31809Y56362D01*
X-31982Y56500D01*
X-32152Y56643D01*
X-32319Y56791D01*
X-32482Y56942D01*
X-32641Y57097D01*
X-32796Y57256D01*
X-32947Y57419D01*
X-33095Y57586D01*
X-33238Y57756D01*
X-33376Y57929D01*
X-33511Y58106D01*
X-33641Y58286D01*
X-33767Y58469D01*
X-33888Y58656D01*
X-34005Y58845D01*
X-34117Y59037D01*
X-34224Y59232D01*
X-34326Y59429D01*
X-34424Y59628D01*
X-34516Y59831D01*
X-34604Y60035D01*
X-34686Y60241D01*
X-34764Y60449D01*
X-34836Y60660D01*
X-34903Y60871D01*
X-34965Y61085D01*
X-35022Y61300D01*
X-35073Y61516D01*
X-35119Y61733D01*
X-35160Y61952D01*
X-35195Y62171D01*
X-35225Y62392D01*
X-35249Y62612D01*
X-35268Y62834D01*
X-35282Y63056D01*
X-35290Y63278D01*
X-35293Y63500D01*
D29*
X-26238Y63500D03*
M02*
