G04 EAGLE Gerber RS-274X export*
G75*
%MOMM*%
%FSLAX34Y34*%
%LPD*%
%INSoldermask Top*%
%IPPOS*%
%AMOC8*
5,1,8,0,0,1.08239X$1,22.5*%
G01*
%ADD10C,0.838200*%
%ADD11R,1.403200X2.203200*%
%ADD12R,0.803200X1.553200*%
%ADD13R,1.203200X1.303200*%
%ADD14R,0.503200X1.203200*%
%ADD15R,0.803200X1.203200*%
%ADD16C,0.853200*%
%ADD17R,0.453200X0.813200*%
%ADD18R,0.453200X0.763200*%
%ADD19R,0.803200X1.903200*%
%ADD20R,1.203200X2.903200*%
%ADD21C,2.082800*%
%ADD22R,1.473200X0.838200*%
%ADD23R,1.403200X1.003200*%
%ADD24R,1.203200X3.003200*%
%ADD25R,0.503200X1.003200*%
%ADD26R,0.603200X1.003200*%
%ADD27C,1.203200*%
%ADD28C,1.270000*%
%ADD29C,1.703200*%

G36*
X163084Y1081291D02*
X163084Y1081291D01*
X163090Y1081297D01*
X163095Y1081293D01*
X164325Y1081658D01*
X164330Y1081665D01*
X164335Y1081663D01*
X165454Y1082293D01*
X165457Y1082300D01*
X165463Y1082299D01*
X166413Y1083162D01*
X166414Y1083170D01*
X166420Y1083170D01*
X167154Y1084223D01*
X167154Y1084231D01*
X167159Y1084233D01*
X167641Y1085423D01*
X167639Y1085428D01*
X167643Y1085431D01*
X167642Y1085432D01*
X167644Y1085433D01*
X167849Y1086700D01*
X167846Y1086705D01*
X167849Y1086708D01*
X167849Y1098708D01*
X167846Y1098712D01*
X167849Y1098715D01*
X167694Y1099837D01*
X167689Y1099842D01*
X167692Y1099846D01*
X167321Y1100917D01*
X167315Y1100921D01*
X167317Y1100926D01*
X166744Y1101903D01*
X166738Y1101906D01*
X166739Y1101911D01*
X165986Y1102758D01*
X165979Y1102760D01*
X165979Y1102765D01*
X165076Y1103449D01*
X165069Y1103449D01*
X165068Y1103454D01*
X164049Y1103949D01*
X164042Y1103947D01*
X164040Y1103952D01*
X162943Y1104239D01*
X162937Y1104236D01*
X162934Y1104240D01*
X161803Y1104307D01*
X161797Y1104307D01*
X160666Y1104240D01*
X160661Y1104235D01*
X160657Y1104239D01*
X159560Y1103952D01*
X159556Y1103946D01*
X159551Y1103949D01*
X158532Y1103454D01*
X158529Y1103448D01*
X158524Y1103449D01*
X157621Y1102765D01*
X157619Y1102758D01*
X157614Y1102758D01*
X156861Y1101911D01*
X156861Y1101904D01*
X156856Y1101903D01*
X156283Y1100926D01*
X156284Y1100923D01*
X156283Y1100922D01*
X156284Y1100921D01*
X156284Y1100919D01*
X156279Y1100917D01*
X155908Y1099846D01*
X155910Y1099841D01*
X155907Y1099839D01*
X155907Y1099838D01*
X155906Y1099837D01*
X155751Y1098715D01*
X155754Y1098710D01*
X155751Y1098708D01*
X155751Y1086708D01*
X155754Y1086703D01*
X155751Y1086700D01*
X155956Y1085433D01*
X155962Y1085427D01*
X155959Y1085423D01*
X156441Y1084233D01*
X156448Y1084229D01*
X156446Y1084223D01*
X157180Y1083170D01*
X157188Y1083168D01*
X157187Y1083162D01*
X158137Y1082299D01*
X158146Y1082298D01*
X158146Y1082293D01*
X159265Y1081663D01*
X159273Y1081664D01*
X159275Y1081658D01*
X160505Y1081293D01*
X160513Y1081296D01*
X160516Y1081291D01*
X161797Y1081209D01*
X161801Y1081212D01*
X161803Y1081209D01*
X163084Y1081291D01*
G37*
G36*
X698160Y39383D02*
X698160Y39383D01*
X698167Y39389D01*
X698171Y39385D01*
X699402Y39750D01*
X699407Y39757D01*
X699412Y39755D01*
X700530Y40385D01*
X700533Y40392D01*
X700539Y40391D01*
X701489Y41254D01*
X701491Y41262D01*
X701496Y41262D01*
X702231Y42315D01*
X702230Y42323D01*
X702236Y42325D01*
X702717Y43515D01*
X702716Y43520D01*
X702720Y43523D01*
X702719Y43524D01*
X702720Y43525D01*
X702925Y44792D01*
X702922Y44797D01*
X702926Y44800D01*
X702926Y56800D01*
X702923Y56804D01*
X702925Y56807D01*
X702770Y57929D01*
X702765Y57934D01*
X702768Y57938D01*
X702397Y59009D01*
X702391Y59013D01*
X702393Y59018D01*
X701821Y59995D01*
X701814Y59998D01*
X701815Y60003D01*
X701063Y60850D01*
X701056Y60852D01*
X701056Y60857D01*
X700153Y61541D01*
X700145Y61541D01*
X700144Y61546D01*
X699125Y62041D01*
X699118Y62039D01*
X699116Y62044D01*
X698020Y62331D01*
X698013Y62328D01*
X698010Y62332D01*
X696879Y62399D01*
X696874Y62399D01*
X695743Y62332D01*
X695737Y62327D01*
X695733Y62331D01*
X694637Y62044D01*
X694632Y62038D01*
X694628Y62041D01*
X693609Y61546D01*
X693605Y61540D01*
X693600Y61541D01*
X692697Y60857D01*
X692695Y60850D01*
X692690Y60850D01*
X691938Y60003D01*
X691937Y59996D01*
X691932Y59995D01*
X691360Y59018D01*
X691360Y59015D01*
X691359Y59014D01*
X691360Y59013D01*
X691360Y59011D01*
X691356Y59009D01*
X690985Y57938D01*
X690987Y57933D01*
X690983Y57931D01*
X690984Y57930D01*
X690983Y57929D01*
X690828Y56807D01*
X690830Y56802D01*
X690827Y56800D01*
X690827Y44800D01*
X690831Y44795D01*
X690828Y44792D01*
X691033Y43525D01*
X691038Y43519D01*
X691035Y43515D01*
X691517Y42325D01*
X691524Y42321D01*
X691522Y42315D01*
X692256Y41262D01*
X692264Y41260D01*
X692264Y41254D01*
X693214Y40391D01*
X693222Y40390D01*
X693223Y40385D01*
X694341Y39755D01*
X694349Y39756D01*
X694351Y39750D01*
X695582Y39385D01*
X695589Y39388D01*
X695592Y39383D01*
X696873Y39301D01*
X696877Y39304D01*
X696880Y39301D01*
X698160Y39383D01*
G37*
G36*
X784560Y1602271D02*
X784560Y1602271D01*
X784567Y1602276D01*
X784571Y1602273D01*
X785802Y1602638D01*
X785807Y1602644D01*
X785812Y1602642D01*
X786930Y1603272D01*
X786933Y1603280D01*
X786939Y1603279D01*
X787889Y1604141D01*
X787891Y1604150D01*
X787896Y1604150D01*
X788631Y1605202D01*
X788630Y1605211D01*
X788636Y1605212D01*
X789117Y1606402D01*
X789116Y1606407D01*
X789120Y1606410D01*
X789119Y1606412D01*
X789120Y1606413D01*
X789325Y1607680D01*
X789322Y1607685D01*
X789326Y1607687D01*
X789326Y1619687D01*
X789323Y1619692D01*
X789325Y1619694D01*
X789170Y1620816D01*
X789165Y1620822D01*
X789168Y1620826D01*
X788797Y1621896D01*
X788791Y1621900D01*
X788793Y1621905D01*
X788221Y1622883D01*
X788214Y1622886D01*
X788215Y1622891D01*
X787463Y1623738D01*
X787456Y1623739D01*
X787456Y1623744D01*
X786553Y1624428D01*
X786545Y1624428D01*
X786544Y1624433D01*
X785525Y1624928D01*
X785518Y1624927D01*
X785516Y1624932D01*
X784420Y1625218D01*
X784413Y1625215D01*
X784410Y1625220D01*
X783279Y1625287D01*
X783279Y1625286D01*
X783274Y1625286D01*
X783274Y1625287D01*
X782143Y1625220D01*
X782137Y1625215D01*
X782133Y1625218D01*
X781037Y1624932D01*
X781032Y1624926D01*
X781028Y1624928D01*
X780009Y1624433D01*
X780005Y1624427D01*
X780000Y1624428D01*
X779097Y1623744D01*
X779095Y1623737D01*
X779090Y1623738D01*
X778338Y1622891D01*
X778337Y1622883D01*
X778332Y1622883D01*
X777760Y1621905D01*
X777760Y1621902D01*
X777759Y1621901D01*
X777760Y1621900D01*
X777760Y1621898D01*
X777756Y1621896D01*
X777385Y1620826D01*
X777387Y1620821D01*
X777383Y1620818D01*
X777384Y1620817D01*
X777383Y1620816D01*
X777228Y1619694D01*
X777230Y1619690D01*
X777227Y1619687D01*
X777227Y1607687D01*
X777231Y1607683D01*
X777228Y1607680D01*
X777433Y1606413D01*
X777438Y1606407D01*
X777435Y1606402D01*
X777917Y1605212D01*
X777924Y1605208D01*
X777922Y1605202D01*
X778656Y1604150D01*
X778664Y1604147D01*
X778664Y1604141D01*
X779614Y1603279D01*
X779622Y1603278D01*
X779623Y1603272D01*
X780741Y1602642D01*
X780749Y1602643D01*
X780751Y1602638D01*
X781982Y1602273D01*
X781989Y1602275D01*
X781992Y1602271D01*
X783273Y1602188D01*
X783277Y1602191D01*
X783280Y1602188D01*
X784560Y1602271D01*
G37*
G36*
X698160Y1602271D02*
X698160Y1602271D01*
X698167Y1602276D01*
X698171Y1602273D01*
X699402Y1602638D01*
X699407Y1602644D01*
X699412Y1602642D01*
X700530Y1603272D01*
X700533Y1603280D01*
X700539Y1603279D01*
X701489Y1604141D01*
X701491Y1604150D01*
X701496Y1604150D01*
X702231Y1605202D01*
X702230Y1605211D01*
X702236Y1605212D01*
X702717Y1606402D01*
X702716Y1606407D01*
X702720Y1606410D01*
X702719Y1606412D01*
X702720Y1606413D01*
X702925Y1607680D01*
X702922Y1607685D01*
X702926Y1607687D01*
X702926Y1619687D01*
X702923Y1619692D01*
X702925Y1619694D01*
X702770Y1620816D01*
X702765Y1620822D01*
X702768Y1620826D01*
X702397Y1621896D01*
X702391Y1621900D01*
X702393Y1621905D01*
X701821Y1622883D01*
X701814Y1622886D01*
X701815Y1622891D01*
X701063Y1623738D01*
X701056Y1623739D01*
X701056Y1623744D01*
X700153Y1624428D01*
X700145Y1624428D01*
X700144Y1624433D01*
X699125Y1624928D01*
X699118Y1624927D01*
X699116Y1624932D01*
X698020Y1625218D01*
X698013Y1625215D01*
X698010Y1625220D01*
X696879Y1625287D01*
X696879Y1625286D01*
X696874Y1625286D01*
X696874Y1625287D01*
X695743Y1625220D01*
X695737Y1625215D01*
X695733Y1625218D01*
X694637Y1624932D01*
X694632Y1624926D01*
X694628Y1624928D01*
X693609Y1624433D01*
X693605Y1624427D01*
X693600Y1624428D01*
X692697Y1623744D01*
X692695Y1623737D01*
X692690Y1623738D01*
X691938Y1622891D01*
X691937Y1622883D01*
X691932Y1622883D01*
X691360Y1621905D01*
X691360Y1621902D01*
X691359Y1621901D01*
X691360Y1621900D01*
X691360Y1621898D01*
X691356Y1621896D01*
X690985Y1620826D01*
X690987Y1620821D01*
X690983Y1620818D01*
X690984Y1620817D01*
X690983Y1620816D01*
X690828Y1619694D01*
X690830Y1619690D01*
X690827Y1619687D01*
X690827Y1607687D01*
X690831Y1607683D01*
X690828Y1607680D01*
X691033Y1606413D01*
X691038Y1606407D01*
X691035Y1606402D01*
X691517Y1605212D01*
X691524Y1605208D01*
X691522Y1605202D01*
X692256Y1604150D01*
X692264Y1604147D01*
X692264Y1604141D01*
X693214Y1603279D01*
X693222Y1603278D01*
X693223Y1603272D01*
X694341Y1602642D01*
X694349Y1602643D01*
X694351Y1602638D01*
X695582Y1602273D01*
X695589Y1602275D01*
X695592Y1602271D01*
X696873Y1602188D01*
X696877Y1602191D01*
X696880Y1602188D01*
X698160Y1602271D01*
G37*
G36*
X249484Y1602271D02*
X249484Y1602271D01*
X249490Y1602276D01*
X249495Y1602273D01*
X250725Y1602638D01*
X250730Y1602644D01*
X250735Y1602642D01*
X251854Y1603272D01*
X251857Y1603280D01*
X251863Y1603279D01*
X252813Y1604141D01*
X252814Y1604150D01*
X252820Y1604150D01*
X253554Y1605202D01*
X253554Y1605211D01*
X253559Y1605212D01*
X254041Y1606402D01*
X254039Y1606407D01*
X254043Y1606410D01*
X254042Y1606412D01*
X254044Y1606413D01*
X254249Y1607680D01*
X254246Y1607685D01*
X254249Y1607687D01*
X254249Y1619687D01*
X254246Y1619692D01*
X254249Y1619694D01*
X254094Y1620816D01*
X254089Y1620822D01*
X254092Y1620826D01*
X253721Y1621896D01*
X253715Y1621900D01*
X253717Y1621905D01*
X253144Y1622883D01*
X253138Y1622886D01*
X253139Y1622891D01*
X252386Y1623738D01*
X252379Y1623739D01*
X252379Y1623744D01*
X251476Y1624428D01*
X251469Y1624428D01*
X251468Y1624433D01*
X250449Y1624928D01*
X250442Y1624927D01*
X250440Y1624932D01*
X249343Y1625218D01*
X249337Y1625215D01*
X249334Y1625220D01*
X248203Y1625287D01*
X248203Y1625286D01*
X248197Y1625286D01*
X248197Y1625287D01*
X247066Y1625220D01*
X247061Y1625215D01*
X247057Y1625218D01*
X245960Y1624932D01*
X245956Y1624926D01*
X245951Y1624928D01*
X244932Y1624433D01*
X244929Y1624427D01*
X244924Y1624428D01*
X244021Y1623744D01*
X244019Y1623737D01*
X244014Y1623738D01*
X243261Y1622891D01*
X243261Y1622883D01*
X243256Y1622883D01*
X242683Y1621905D01*
X242684Y1621902D01*
X242683Y1621901D01*
X242684Y1621900D01*
X242684Y1621898D01*
X242679Y1621896D01*
X242308Y1620826D01*
X242310Y1620821D01*
X242307Y1620818D01*
X242307Y1620817D01*
X242306Y1620816D01*
X242151Y1619694D01*
X242154Y1619690D01*
X242151Y1619687D01*
X242151Y1607687D01*
X242154Y1607683D01*
X242151Y1607680D01*
X242356Y1606413D01*
X242362Y1606407D01*
X242359Y1606402D01*
X242841Y1605212D01*
X242848Y1605208D01*
X242846Y1605202D01*
X243580Y1604150D01*
X243588Y1604147D01*
X243587Y1604141D01*
X244537Y1603279D01*
X244546Y1603278D01*
X244546Y1603272D01*
X245665Y1602642D01*
X245673Y1602643D01*
X245675Y1602638D01*
X246905Y1602273D01*
X246913Y1602275D01*
X246916Y1602271D01*
X248197Y1602188D01*
X248201Y1602191D01*
X248203Y1602188D01*
X249484Y1602271D01*
G37*
G36*
X163084Y1602271D02*
X163084Y1602271D01*
X163090Y1602276D01*
X163095Y1602273D01*
X164325Y1602638D01*
X164330Y1602644D01*
X164335Y1602642D01*
X165454Y1603272D01*
X165457Y1603280D01*
X165463Y1603279D01*
X166413Y1604141D01*
X166414Y1604150D01*
X166420Y1604150D01*
X167154Y1605202D01*
X167154Y1605211D01*
X167159Y1605212D01*
X167641Y1606402D01*
X167639Y1606407D01*
X167643Y1606410D01*
X167642Y1606412D01*
X167644Y1606413D01*
X167849Y1607680D01*
X167846Y1607685D01*
X167849Y1607687D01*
X167849Y1619687D01*
X167846Y1619692D01*
X167849Y1619694D01*
X167694Y1620816D01*
X167689Y1620822D01*
X167692Y1620826D01*
X167321Y1621896D01*
X167315Y1621900D01*
X167317Y1621905D01*
X166744Y1622883D01*
X166738Y1622886D01*
X166739Y1622891D01*
X165986Y1623738D01*
X165979Y1623739D01*
X165979Y1623744D01*
X165076Y1624428D01*
X165069Y1624428D01*
X165068Y1624433D01*
X164049Y1624928D01*
X164042Y1624927D01*
X164040Y1624932D01*
X162943Y1625218D01*
X162937Y1625215D01*
X162934Y1625220D01*
X161803Y1625287D01*
X161803Y1625286D01*
X161797Y1625286D01*
X161797Y1625287D01*
X160666Y1625220D01*
X160661Y1625215D01*
X160657Y1625218D01*
X159560Y1624932D01*
X159556Y1624926D01*
X159551Y1624928D01*
X158532Y1624433D01*
X158529Y1624427D01*
X158524Y1624428D01*
X157621Y1623744D01*
X157619Y1623737D01*
X157614Y1623738D01*
X156861Y1622891D01*
X156861Y1622883D01*
X156856Y1622883D01*
X156283Y1621905D01*
X156284Y1621902D01*
X156283Y1621901D01*
X156284Y1621900D01*
X156284Y1621898D01*
X156279Y1621896D01*
X155908Y1620826D01*
X155910Y1620821D01*
X155907Y1620818D01*
X155907Y1620817D01*
X155906Y1620816D01*
X155751Y1619694D01*
X155754Y1619690D01*
X155751Y1619687D01*
X155751Y1607687D01*
X155754Y1607683D01*
X155751Y1607680D01*
X155956Y1606413D01*
X155962Y1606407D01*
X155959Y1606402D01*
X156441Y1605212D01*
X156448Y1605208D01*
X156446Y1605202D01*
X157180Y1604150D01*
X157188Y1604147D01*
X157187Y1604141D01*
X158137Y1603279D01*
X158146Y1603278D01*
X158146Y1603272D01*
X159265Y1602642D01*
X159273Y1602643D01*
X159275Y1602638D01*
X160505Y1602273D01*
X160513Y1602275D01*
X160516Y1602271D01*
X161797Y1602188D01*
X161801Y1602191D01*
X161803Y1602188D01*
X163084Y1602271D01*
G37*
G36*
X163084Y820814D02*
X163084Y820814D01*
X163090Y820820D01*
X163095Y820816D01*
X164325Y821181D01*
X164330Y821188D01*
X164335Y821186D01*
X165454Y821816D01*
X165457Y821823D01*
X165463Y821822D01*
X166413Y822685D01*
X166414Y822693D01*
X166420Y822693D01*
X167154Y823746D01*
X167154Y823754D01*
X167159Y823756D01*
X167641Y824946D01*
X167639Y824951D01*
X167643Y824954D01*
X167642Y824955D01*
X167644Y824956D01*
X167849Y826223D01*
X167846Y826228D01*
X167849Y826231D01*
X167849Y838231D01*
X167846Y838235D01*
X167849Y838238D01*
X167694Y839360D01*
X167689Y839365D01*
X167692Y839369D01*
X167321Y840440D01*
X167315Y840444D01*
X167317Y840449D01*
X166744Y841426D01*
X166738Y841429D01*
X166739Y841434D01*
X165986Y842281D01*
X165979Y842283D01*
X165979Y842288D01*
X165076Y842972D01*
X165069Y842972D01*
X165068Y842977D01*
X164049Y843472D01*
X164042Y843470D01*
X164040Y843475D01*
X162943Y843762D01*
X162937Y843759D01*
X162934Y843763D01*
X161803Y843830D01*
X161797Y843830D01*
X160666Y843763D01*
X160661Y843758D01*
X160657Y843762D01*
X159560Y843475D01*
X159556Y843469D01*
X159551Y843472D01*
X158532Y842977D01*
X158529Y842971D01*
X158524Y842972D01*
X157621Y842288D01*
X157619Y842281D01*
X157614Y842281D01*
X156861Y841434D01*
X156861Y841427D01*
X156856Y841426D01*
X156283Y840449D01*
X156284Y840446D01*
X156283Y840445D01*
X156284Y840444D01*
X156284Y840442D01*
X156279Y840440D01*
X155908Y839369D01*
X155910Y839364D01*
X155907Y839362D01*
X155907Y839361D01*
X155906Y839360D01*
X155751Y838238D01*
X155754Y838233D01*
X155751Y838231D01*
X155751Y826231D01*
X155754Y826226D01*
X155751Y826223D01*
X155956Y824956D01*
X155962Y824950D01*
X155959Y824946D01*
X156441Y823756D01*
X156448Y823752D01*
X156446Y823746D01*
X157180Y822693D01*
X157188Y822691D01*
X157187Y822685D01*
X158137Y821822D01*
X158146Y821821D01*
X158146Y821816D01*
X159265Y821186D01*
X159273Y821187D01*
X159275Y821181D01*
X160505Y820816D01*
X160513Y820819D01*
X160516Y820814D01*
X161797Y820732D01*
X161801Y820735D01*
X161803Y820732D01*
X163084Y820814D01*
G37*
G36*
X784560Y820814D02*
X784560Y820814D01*
X784567Y820820D01*
X784571Y820816D01*
X785802Y821181D01*
X785807Y821188D01*
X785812Y821186D01*
X786930Y821816D01*
X786933Y821823D01*
X786939Y821822D01*
X787889Y822685D01*
X787891Y822693D01*
X787896Y822693D01*
X788631Y823746D01*
X788630Y823754D01*
X788636Y823756D01*
X789117Y824946D01*
X789116Y824951D01*
X789120Y824954D01*
X789119Y824955D01*
X789120Y824956D01*
X789325Y826223D01*
X789322Y826228D01*
X789326Y826231D01*
X789326Y838231D01*
X789323Y838235D01*
X789325Y838238D01*
X789170Y839360D01*
X789165Y839365D01*
X789168Y839369D01*
X788797Y840440D01*
X788791Y840444D01*
X788793Y840449D01*
X788221Y841426D01*
X788214Y841429D01*
X788215Y841434D01*
X787463Y842281D01*
X787456Y842283D01*
X787456Y842288D01*
X786553Y842972D01*
X786545Y842972D01*
X786544Y842977D01*
X785525Y843472D01*
X785518Y843470D01*
X785516Y843475D01*
X784420Y843762D01*
X784413Y843759D01*
X784410Y843763D01*
X783279Y843830D01*
X783274Y843830D01*
X782143Y843763D01*
X782137Y843758D01*
X782133Y843762D01*
X781037Y843475D01*
X781032Y843469D01*
X781028Y843472D01*
X780009Y842977D01*
X780005Y842971D01*
X780000Y842972D01*
X779097Y842288D01*
X779095Y842281D01*
X779090Y842281D01*
X778338Y841434D01*
X778337Y841427D01*
X778332Y841426D01*
X777760Y840449D01*
X777760Y840446D01*
X777759Y840445D01*
X777760Y840444D01*
X777760Y840442D01*
X777756Y840440D01*
X777385Y839369D01*
X777387Y839364D01*
X777383Y839362D01*
X777384Y839361D01*
X777383Y839360D01*
X777228Y838238D01*
X777230Y838233D01*
X777227Y838231D01*
X777227Y826231D01*
X777231Y826226D01*
X777228Y826223D01*
X777433Y824956D01*
X777438Y824950D01*
X777435Y824946D01*
X777917Y823756D01*
X777924Y823752D01*
X777922Y823746D01*
X778656Y822693D01*
X778664Y822691D01*
X778664Y822685D01*
X779614Y821822D01*
X779622Y821821D01*
X779623Y821816D01*
X780741Y821186D01*
X780749Y821187D01*
X780751Y821181D01*
X781982Y820816D01*
X781989Y820819D01*
X781992Y820814D01*
X783273Y820732D01*
X783277Y820735D01*
X783280Y820732D01*
X784560Y820814D01*
G37*
G36*
X784560Y560337D02*
X784560Y560337D01*
X784567Y560343D01*
X784571Y560339D01*
X785802Y560704D01*
X785807Y560711D01*
X785812Y560709D01*
X786930Y561339D01*
X786933Y561346D01*
X786939Y561345D01*
X787889Y562208D01*
X787891Y562216D01*
X787896Y562216D01*
X788631Y563269D01*
X788630Y563277D01*
X788636Y563279D01*
X789117Y564469D01*
X789116Y564474D01*
X789120Y564477D01*
X789119Y564478D01*
X789120Y564479D01*
X789325Y565746D01*
X789322Y565751D01*
X789326Y565754D01*
X789326Y577754D01*
X789323Y577758D01*
X789325Y577761D01*
X789170Y578883D01*
X789165Y578888D01*
X789168Y578892D01*
X788797Y579963D01*
X788791Y579967D01*
X788793Y579972D01*
X788221Y580949D01*
X788214Y580952D01*
X788215Y580957D01*
X787463Y581804D01*
X787456Y581806D01*
X787456Y581811D01*
X786553Y582495D01*
X786545Y582495D01*
X786544Y582500D01*
X785525Y582995D01*
X785518Y582993D01*
X785516Y582998D01*
X784420Y583285D01*
X784413Y583282D01*
X784410Y583286D01*
X783279Y583353D01*
X783274Y583353D01*
X782143Y583286D01*
X782137Y583281D01*
X782133Y583285D01*
X781037Y582998D01*
X781032Y582992D01*
X781028Y582995D01*
X780009Y582500D01*
X780005Y582494D01*
X780000Y582495D01*
X779097Y581811D01*
X779095Y581804D01*
X779090Y581804D01*
X778338Y580957D01*
X778337Y580950D01*
X778332Y580949D01*
X777760Y579972D01*
X777760Y579969D01*
X777759Y579968D01*
X777760Y579967D01*
X777760Y579965D01*
X777756Y579963D01*
X777385Y578892D01*
X777387Y578887D01*
X777383Y578885D01*
X777384Y578884D01*
X777383Y578883D01*
X777228Y577761D01*
X777230Y577756D01*
X777227Y577754D01*
X777227Y565754D01*
X777231Y565749D01*
X777228Y565746D01*
X777433Y564479D01*
X777438Y564473D01*
X777435Y564469D01*
X777917Y563279D01*
X777924Y563275D01*
X777922Y563269D01*
X778656Y562216D01*
X778664Y562214D01*
X778664Y562208D01*
X779614Y561345D01*
X779622Y561344D01*
X779623Y561339D01*
X780741Y560709D01*
X780749Y560710D01*
X780751Y560704D01*
X781982Y560339D01*
X781989Y560342D01*
X781992Y560337D01*
X783273Y560255D01*
X783277Y560258D01*
X783280Y560255D01*
X784560Y560337D01*
G37*
G36*
X249484Y820814D02*
X249484Y820814D01*
X249490Y820820D01*
X249495Y820816D01*
X250725Y821181D01*
X250730Y821188D01*
X250735Y821186D01*
X251854Y821816D01*
X251857Y821823D01*
X251863Y821822D01*
X252813Y822685D01*
X252814Y822693D01*
X252820Y822693D01*
X253554Y823746D01*
X253554Y823754D01*
X253559Y823756D01*
X254041Y824946D01*
X254039Y824951D01*
X254043Y824954D01*
X254042Y824955D01*
X254044Y824956D01*
X254249Y826223D01*
X254246Y826228D01*
X254249Y826231D01*
X254249Y838231D01*
X254246Y838235D01*
X254249Y838238D01*
X254094Y839360D01*
X254089Y839365D01*
X254092Y839369D01*
X253721Y840440D01*
X253715Y840444D01*
X253717Y840449D01*
X253144Y841426D01*
X253138Y841429D01*
X253139Y841434D01*
X252386Y842281D01*
X252379Y842283D01*
X252379Y842288D01*
X251476Y842972D01*
X251469Y842972D01*
X251468Y842977D01*
X250449Y843472D01*
X250442Y843470D01*
X250440Y843475D01*
X249343Y843762D01*
X249337Y843759D01*
X249334Y843763D01*
X248203Y843830D01*
X248197Y843830D01*
X247066Y843763D01*
X247061Y843758D01*
X247057Y843762D01*
X245960Y843475D01*
X245956Y843469D01*
X245951Y843472D01*
X244932Y842977D01*
X244929Y842971D01*
X244924Y842972D01*
X244021Y842288D01*
X244019Y842281D01*
X244014Y842281D01*
X243261Y841434D01*
X243261Y841427D01*
X243256Y841426D01*
X242683Y840449D01*
X242684Y840446D01*
X242683Y840445D01*
X242684Y840444D01*
X242684Y840442D01*
X242679Y840440D01*
X242308Y839369D01*
X242310Y839364D01*
X242307Y839362D01*
X242307Y839361D01*
X242306Y839360D01*
X242151Y838238D01*
X242154Y838233D01*
X242151Y838231D01*
X242151Y826231D01*
X242154Y826226D01*
X242151Y826223D01*
X242356Y824956D01*
X242362Y824950D01*
X242359Y824946D01*
X242841Y823756D01*
X242848Y823752D01*
X242846Y823746D01*
X243580Y822693D01*
X243588Y822691D01*
X243587Y822685D01*
X244537Y821822D01*
X244546Y821821D01*
X244546Y821816D01*
X245665Y821186D01*
X245673Y821187D01*
X245675Y821181D01*
X246905Y820816D01*
X246913Y820819D01*
X246916Y820814D01*
X248197Y820732D01*
X248201Y820735D01*
X248203Y820732D01*
X249484Y820814D01*
G37*
G36*
X698160Y299860D02*
X698160Y299860D01*
X698167Y299866D01*
X698171Y299862D01*
X699402Y300227D01*
X699407Y300234D01*
X699412Y300232D01*
X700530Y300862D01*
X700533Y300869D01*
X700539Y300868D01*
X701489Y301731D01*
X701491Y301739D01*
X701496Y301739D01*
X702231Y302792D01*
X702230Y302800D01*
X702236Y302802D01*
X702717Y303992D01*
X702716Y303997D01*
X702720Y304000D01*
X702719Y304001D01*
X702720Y304002D01*
X702925Y305269D01*
X702922Y305274D01*
X702926Y305277D01*
X702926Y317277D01*
X702923Y317281D01*
X702925Y317284D01*
X702770Y318406D01*
X702765Y318411D01*
X702768Y318415D01*
X702397Y319486D01*
X702391Y319490D01*
X702393Y319495D01*
X701821Y320472D01*
X701814Y320475D01*
X701815Y320480D01*
X701063Y321327D01*
X701056Y321329D01*
X701056Y321334D01*
X700153Y322018D01*
X700145Y322018D01*
X700144Y322023D01*
X699125Y322518D01*
X699118Y322516D01*
X699116Y322521D01*
X698020Y322808D01*
X698013Y322805D01*
X698010Y322809D01*
X696879Y322876D01*
X696874Y322876D01*
X695743Y322809D01*
X695737Y322804D01*
X695733Y322808D01*
X694637Y322521D01*
X694632Y322515D01*
X694628Y322518D01*
X693609Y322023D01*
X693605Y322017D01*
X693600Y322018D01*
X692697Y321334D01*
X692695Y321327D01*
X692690Y321327D01*
X691938Y320480D01*
X691937Y320473D01*
X691932Y320472D01*
X691360Y319495D01*
X691360Y319492D01*
X691359Y319491D01*
X691360Y319490D01*
X691360Y319488D01*
X691356Y319486D01*
X690985Y318415D01*
X690987Y318410D01*
X690983Y318408D01*
X690984Y318407D01*
X690983Y318406D01*
X690828Y317284D01*
X690830Y317279D01*
X690827Y317277D01*
X690827Y305277D01*
X690831Y305272D01*
X690828Y305269D01*
X691033Y304002D01*
X691038Y303996D01*
X691035Y303992D01*
X691517Y302802D01*
X691524Y302798D01*
X691522Y302792D01*
X692256Y301739D01*
X692264Y301737D01*
X692264Y301731D01*
X693214Y300868D01*
X693222Y300867D01*
X693223Y300862D01*
X694341Y300232D01*
X694349Y300233D01*
X694351Y300227D01*
X695582Y299862D01*
X695589Y299865D01*
X695592Y299860D01*
X696873Y299778D01*
X696877Y299781D01*
X696880Y299778D01*
X698160Y299860D01*
G37*
G36*
X784560Y299860D02*
X784560Y299860D01*
X784567Y299866D01*
X784571Y299862D01*
X785802Y300227D01*
X785807Y300234D01*
X785812Y300232D01*
X786930Y300862D01*
X786933Y300869D01*
X786939Y300868D01*
X787889Y301731D01*
X787891Y301739D01*
X787896Y301739D01*
X788631Y302792D01*
X788630Y302800D01*
X788636Y302802D01*
X789117Y303992D01*
X789116Y303997D01*
X789120Y304000D01*
X789119Y304001D01*
X789120Y304002D01*
X789325Y305269D01*
X789322Y305274D01*
X789326Y305277D01*
X789326Y317277D01*
X789323Y317281D01*
X789325Y317284D01*
X789170Y318406D01*
X789165Y318411D01*
X789168Y318415D01*
X788797Y319486D01*
X788791Y319490D01*
X788793Y319495D01*
X788221Y320472D01*
X788214Y320475D01*
X788215Y320480D01*
X787463Y321327D01*
X787456Y321329D01*
X787456Y321334D01*
X786553Y322018D01*
X786545Y322018D01*
X786544Y322023D01*
X785525Y322518D01*
X785518Y322516D01*
X785516Y322521D01*
X784420Y322808D01*
X784413Y322805D01*
X784410Y322809D01*
X783279Y322876D01*
X783274Y322876D01*
X782143Y322809D01*
X782137Y322804D01*
X782133Y322808D01*
X781037Y322521D01*
X781032Y322515D01*
X781028Y322518D01*
X780009Y322023D01*
X780005Y322017D01*
X780000Y322018D01*
X779097Y321334D01*
X779095Y321327D01*
X779090Y321327D01*
X778338Y320480D01*
X778337Y320473D01*
X778332Y320472D01*
X777760Y319495D01*
X777760Y319492D01*
X777759Y319491D01*
X777760Y319490D01*
X777760Y319488D01*
X777756Y319486D01*
X777385Y318415D01*
X777387Y318410D01*
X777383Y318408D01*
X777384Y318407D01*
X777383Y318406D01*
X777228Y317284D01*
X777230Y317279D01*
X777227Y317277D01*
X777227Y305277D01*
X777231Y305272D01*
X777228Y305269D01*
X777433Y304002D01*
X777438Y303996D01*
X777435Y303992D01*
X777917Y302802D01*
X777924Y302798D01*
X777922Y302792D01*
X778656Y301739D01*
X778664Y301737D01*
X778664Y301731D01*
X779614Y300868D01*
X779622Y300867D01*
X779623Y300862D01*
X780741Y300232D01*
X780749Y300233D01*
X780751Y300227D01*
X781982Y299862D01*
X781989Y299865D01*
X781992Y299860D01*
X783273Y299778D01*
X783277Y299781D01*
X783280Y299778D01*
X784560Y299860D01*
G37*
G36*
X784560Y1341794D02*
X784560Y1341794D01*
X784567Y1341799D01*
X784571Y1341796D01*
X785802Y1342161D01*
X785807Y1342167D01*
X785812Y1342165D01*
X786930Y1342795D01*
X786933Y1342803D01*
X786939Y1342802D01*
X787889Y1343664D01*
X787891Y1343673D01*
X787896Y1343673D01*
X788631Y1344725D01*
X788630Y1344734D01*
X788636Y1344735D01*
X789117Y1345925D01*
X789116Y1345930D01*
X789120Y1345933D01*
X789119Y1345935D01*
X789120Y1345936D01*
X789325Y1347203D01*
X789322Y1347208D01*
X789326Y1347210D01*
X789326Y1359210D01*
X789323Y1359215D01*
X789325Y1359217D01*
X789170Y1360339D01*
X789165Y1360345D01*
X789168Y1360349D01*
X788797Y1361419D01*
X788791Y1361423D01*
X788793Y1361428D01*
X788221Y1362406D01*
X788214Y1362409D01*
X788215Y1362414D01*
X787463Y1363261D01*
X787456Y1363262D01*
X787456Y1363267D01*
X786553Y1363951D01*
X786545Y1363951D01*
X786544Y1363956D01*
X785525Y1364451D01*
X785518Y1364450D01*
X785516Y1364455D01*
X784420Y1364741D01*
X784413Y1364738D01*
X784410Y1364743D01*
X783279Y1364810D01*
X783279Y1364809D01*
X783274Y1364809D01*
X783274Y1364810D01*
X782143Y1364743D01*
X782137Y1364738D01*
X782133Y1364741D01*
X781037Y1364455D01*
X781032Y1364449D01*
X781028Y1364451D01*
X780009Y1363956D01*
X780005Y1363950D01*
X780000Y1363951D01*
X779097Y1363267D01*
X779095Y1363260D01*
X779090Y1363261D01*
X778338Y1362414D01*
X778337Y1362406D01*
X778332Y1362406D01*
X777760Y1361428D01*
X777760Y1361425D01*
X777759Y1361424D01*
X777760Y1361423D01*
X777760Y1361421D01*
X777756Y1361419D01*
X777385Y1360349D01*
X777387Y1360344D01*
X777383Y1360341D01*
X777384Y1360340D01*
X777383Y1360339D01*
X777228Y1359217D01*
X777230Y1359213D01*
X777227Y1359210D01*
X777227Y1347210D01*
X777231Y1347206D01*
X777228Y1347203D01*
X777433Y1345936D01*
X777438Y1345930D01*
X777435Y1345925D01*
X777917Y1344735D01*
X777924Y1344731D01*
X777922Y1344725D01*
X778656Y1343673D01*
X778664Y1343670D01*
X778664Y1343664D01*
X779614Y1342802D01*
X779622Y1342801D01*
X779623Y1342795D01*
X780741Y1342165D01*
X780749Y1342166D01*
X780751Y1342161D01*
X781982Y1341796D01*
X781989Y1341798D01*
X781992Y1341794D01*
X783273Y1341711D01*
X783277Y1341714D01*
X783280Y1341711D01*
X784560Y1341794D01*
G37*
G36*
X249484Y1341794D02*
X249484Y1341794D01*
X249490Y1341799D01*
X249495Y1341796D01*
X250725Y1342161D01*
X250730Y1342167D01*
X250735Y1342165D01*
X251854Y1342795D01*
X251857Y1342803D01*
X251863Y1342802D01*
X252813Y1343664D01*
X252814Y1343673D01*
X252820Y1343673D01*
X253554Y1344725D01*
X253554Y1344734D01*
X253559Y1344735D01*
X254041Y1345925D01*
X254039Y1345930D01*
X254043Y1345933D01*
X254042Y1345935D01*
X254044Y1345936D01*
X254249Y1347203D01*
X254246Y1347208D01*
X254249Y1347210D01*
X254249Y1359210D01*
X254246Y1359215D01*
X254249Y1359217D01*
X254094Y1360339D01*
X254089Y1360345D01*
X254092Y1360349D01*
X253721Y1361419D01*
X253715Y1361423D01*
X253717Y1361428D01*
X253144Y1362406D01*
X253138Y1362409D01*
X253139Y1362414D01*
X252386Y1363261D01*
X252379Y1363262D01*
X252379Y1363267D01*
X251476Y1363951D01*
X251469Y1363951D01*
X251468Y1363956D01*
X250449Y1364451D01*
X250442Y1364450D01*
X250440Y1364455D01*
X249343Y1364741D01*
X249337Y1364738D01*
X249334Y1364743D01*
X248203Y1364810D01*
X248203Y1364809D01*
X248197Y1364809D01*
X248197Y1364810D01*
X247066Y1364743D01*
X247061Y1364738D01*
X247057Y1364741D01*
X245960Y1364455D01*
X245956Y1364449D01*
X245951Y1364451D01*
X244932Y1363956D01*
X244929Y1363950D01*
X244924Y1363951D01*
X244021Y1363267D01*
X244019Y1363260D01*
X244014Y1363261D01*
X243261Y1362414D01*
X243261Y1362406D01*
X243256Y1362406D01*
X242683Y1361428D01*
X242684Y1361425D01*
X242683Y1361424D01*
X242684Y1361423D01*
X242684Y1361421D01*
X242679Y1361419D01*
X242308Y1360349D01*
X242310Y1360344D01*
X242307Y1360341D01*
X242307Y1360340D01*
X242306Y1360339D01*
X242151Y1359217D01*
X242154Y1359213D01*
X242151Y1359210D01*
X242151Y1347210D01*
X242154Y1347206D01*
X242151Y1347203D01*
X242356Y1345936D01*
X242362Y1345930D01*
X242359Y1345925D01*
X242841Y1344735D01*
X242848Y1344731D01*
X242846Y1344725D01*
X243580Y1343673D01*
X243588Y1343670D01*
X243587Y1343664D01*
X244537Y1342802D01*
X244546Y1342801D01*
X244546Y1342795D01*
X245665Y1342165D01*
X245673Y1342166D01*
X245675Y1342161D01*
X246905Y1341796D01*
X246913Y1341798D01*
X246916Y1341794D01*
X248197Y1341711D01*
X248201Y1341714D01*
X248203Y1341711D01*
X249484Y1341794D01*
G37*
G36*
X163084Y1341794D02*
X163084Y1341794D01*
X163090Y1341799D01*
X163095Y1341796D01*
X164325Y1342161D01*
X164330Y1342167D01*
X164335Y1342165D01*
X165454Y1342795D01*
X165457Y1342803D01*
X165463Y1342802D01*
X166413Y1343664D01*
X166414Y1343673D01*
X166420Y1343673D01*
X167154Y1344725D01*
X167154Y1344734D01*
X167159Y1344735D01*
X167641Y1345925D01*
X167639Y1345930D01*
X167643Y1345933D01*
X167642Y1345935D01*
X167644Y1345936D01*
X167849Y1347203D01*
X167846Y1347208D01*
X167849Y1347210D01*
X167849Y1359210D01*
X167846Y1359215D01*
X167849Y1359217D01*
X167694Y1360339D01*
X167689Y1360345D01*
X167692Y1360349D01*
X167321Y1361419D01*
X167315Y1361423D01*
X167317Y1361428D01*
X166744Y1362406D01*
X166738Y1362409D01*
X166739Y1362414D01*
X165986Y1363261D01*
X165979Y1363262D01*
X165979Y1363267D01*
X165076Y1363951D01*
X165069Y1363951D01*
X165068Y1363956D01*
X164049Y1364451D01*
X164042Y1364450D01*
X164040Y1364455D01*
X162943Y1364741D01*
X162937Y1364738D01*
X162934Y1364743D01*
X161803Y1364810D01*
X161803Y1364809D01*
X161797Y1364809D01*
X161797Y1364810D01*
X160666Y1364743D01*
X160661Y1364738D01*
X160657Y1364741D01*
X159560Y1364455D01*
X159556Y1364449D01*
X159551Y1364451D01*
X158532Y1363956D01*
X158529Y1363950D01*
X158524Y1363951D01*
X157621Y1363267D01*
X157619Y1363260D01*
X157614Y1363261D01*
X156861Y1362414D01*
X156861Y1362406D01*
X156856Y1362406D01*
X156283Y1361428D01*
X156284Y1361425D01*
X156283Y1361424D01*
X156284Y1361423D01*
X156284Y1361421D01*
X156279Y1361419D01*
X155908Y1360349D01*
X155910Y1360344D01*
X155907Y1360341D01*
X155907Y1360340D01*
X155906Y1360339D01*
X155751Y1359217D01*
X155754Y1359213D01*
X155751Y1359210D01*
X155751Y1347210D01*
X155754Y1347206D01*
X155751Y1347203D01*
X155956Y1345936D01*
X155962Y1345930D01*
X155959Y1345925D01*
X156441Y1344735D01*
X156448Y1344731D01*
X156446Y1344725D01*
X157180Y1343673D01*
X157188Y1343670D01*
X157187Y1343664D01*
X158137Y1342802D01*
X158146Y1342801D01*
X158146Y1342795D01*
X159265Y1342165D01*
X159273Y1342166D01*
X159275Y1342161D01*
X160505Y1341796D01*
X160513Y1341798D01*
X160516Y1341794D01*
X161797Y1341711D01*
X161801Y1341714D01*
X161803Y1341711D01*
X163084Y1341794D01*
G37*
G36*
X698160Y1341794D02*
X698160Y1341794D01*
X698167Y1341799D01*
X698171Y1341796D01*
X699402Y1342161D01*
X699407Y1342167D01*
X699412Y1342165D01*
X700530Y1342795D01*
X700533Y1342803D01*
X700539Y1342802D01*
X701489Y1343664D01*
X701491Y1343673D01*
X701496Y1343673D01*
X702231Y1344725D01*
X702230Y1344734D01*
X702236Y1344735D01*
X702717Y1345925D01*
X702716Y1345930D01*
X702720Y1345933D01*
X702719Y1345935D01*
X702720Y1345936D01*
X702925Y1347203D01*
X702922Y1347208D01*
X702926Y1347210D01*
X702926Y1359210D01*
X702923Y1359215D01*
X702925Y1359217D01*
X702770Y1360339D01*
X702765Y1360345D01*
X702768Y1360349D01*
X702397Y1361419D01*
X702391Y1361423D01*
X702393Y1361428D01*
X701821Y1362406D01*
X701814Y1362409D01*
X701815Y1362414D01*
X701063Y1363261D01*
X701056Y1363262D01*
X701056Y1363267D01*
X700153Y1363951D01*
X700145Y1363951D01*
X700144Y1363956D01*
X699125Y1364451D01*
X699118Y1364450D01*
X699116Y1364455D01*
X698020Y1364741D01*
X698013Y1364738D01*
X698010Y1364743D01*
X696879Y1364810D01*
X696879Y1364809D01*
X696874Y1364809D01*
X696874Y1364810D01*
X695743Y1364743D01*
X695737Y1364738D01*
X695733Y1364741D01*
X694637Y1364455D01*
X694632Y1364449D01*
X694628Y1364451D01*
X693609Y1363956D01*
X693605Y1363950D01*
X693600Y1363951D01*
X692697Y1363267D01*
X692695Y1363260D01*
X692690Y1363261D01*
X691938Y1362414D01*
X691937Y1362406D01*
X691932Y1362406D01*
X691360Y1361428D01*
X691360Y1361425D01*
X691359Y1361424D01*
X691360Y1361423D01*
X691360Y1361421D01*
X691356Y1361419D01*
X690985Y1360349D01*
X690987Y1360344D01*
X690983Y1360341D01*
X690984Y1360340D01*
X690983Y1360339D01*
X690828Y1359217D01*
X690830Y1359213D01*
X690827Y1359210D01*
X690827Y1347210D01*
X690831Y1347206D01*
X690828Y1347203D01*
X691033Y1345936D01*
X691038Y1345930D01*
X691035Y1345925D01*
X691517Y1344735D01*
X691524Y1344731D01*
X691522Y1344725D01*
X692256Y1343673D01*
X692264Y1343670D01*
X692264Y1343664D01*
X693214Y1342802D01*
X693222Y1342801D01*
X693223Y1342795D01*
X694341Y1342165D01*
X694349Y1342166D01*
X694351Y1342161D01*
X695582Y1341796D01*
X695589Y1341798D01*
X695592Y1341794D01*
X696873Y1341711D01*
X696877Y1341714D01*
X696880Y1341711D01*
X698160Y1341794D01*
G37*
G36*
X249484Y299860D02*
X249484Y299860D01*
X249490Y299866D01*
X249495Y299862D01*
X250725Y300227D01*
X250730Y300234D01*
X250735Y300232D01*
X251854Y300862D01*
X251857Y300869D01*
X251863Y300868D01*
X252813Y301731D01*
X252814Y301739D01*
X252820Y301739D01*
X253554Y302792D01*
X253554Y302800D01*
X253559Y302802D01*
X254041Y303992D01*
X254039Y303997D01*
X254043Y304000D01*
X254042Y304001D01*
X254044Y304002D01*
X254249Y305269D01*
X254246Y305274D01*
X254249Y305277D01*
X254249Y317277D01*
X254246Y317281D01*
X254249Y317284D01*
X254094Y318406D01*
X254089Y318411D01*
X254092Y318415D01*
X253721Y319486D01*
X253715Y319490D01*
X253717Y319495D01*
X253144Y320472D01*
X253138Y320475D01*
X253139Y320480D01*
X252386Y321327D01*
X252379Y321329D01*
X252379Y321334D01*
X251476Y322018D01*
X251469Y322018D01*
X251468Y322023D01*
X250449Y322518D01*
X250442Y322516D01*
X250440Y322521D01*
X249343Y322808D01*
X249337Y322805D01*
X249334Y322809D01*
X248203Y322876D01*
X248197Y322876D01*
X247066Y322809D01*
X247061Y322804D01*
X247057Y322808D01*
X245960Y322521D01*
X245956Y322515D01*
X245951Y322518D01*
X244932Y322023D01*
X244929Y322017D01*
X244924Y322018D01*
X244021Y321334D01*
X244019Y321327D01*
X244014Y321327D01*
X243261Y320480D01*
X243261Y320473D01*
X243256Y320472D01*
X242683Y319495D01*
X242684Y319492D01*
X242683Y319491D01*
X242684Y319490D01*
X242684Y319488D01*
X242679Y319486D01*
X242308Y318415D01*
X242310Y318410D01*
X242307Y318408D01*
X242307Y318407D01*
X242306Y318406D01*
X242151Y317284D01*
X242154Y317279D01*
X242151Y317277D01*
X242151Y305277D01*
X242154Y305272D01*
X242151Y305269D01*
X242356Y304002D01*
X242362Y303996D01*
X242359Y303992D01*
X242841Y302802D01*
X242848Y302798D01*
X242846Y302792D01*
X243580Y301739D01*
X243588Y301737D01*
X243587Y301731D01*
X244537Y300868D01*
X244546Y300867D01*
X244546Y300862D01*
X245665Y300232D01*
X245673Y300233D01*
X245675Y300227D01*
X246905Y299862D01*
X246913Y299865D01*
X246916Y299860D01*
X248197Y299778D01*
X248201Y299781D01*
X248203Y299778D01*
X249484Y299860D01*
G37*
G36*
X698160Y820814D02*
X698160Y820814D01*
X698167Y820820D01*
X698171Y820816D01*
X699402Y821181D01*
X699407Y821188D01*
X699412Y821186D01*
X700530Y821816D01*
X700533Y821823D01*
X700539Y821822D01*
X701489Y822685D01*
X701491Y822693D01*
X701496Y822693D01*
X702231Y823746D01*
X702230Y823754D01*
X702236Y823756D01*
X702717Y824946D01*
X702716Y824951D01*
X702720Y824954D01*
X702719Y824955D01*
X702720Y824956D01*
X702925Y826223D01*
X702922Y826228D01*
X702926Y826231D01*
X702926Y838231D01*
X702923Y838235D01*
X702925Y838238D01*
X702770Y839360D01*
X702765Y839365D01*
X702768Y839369D01*
X702397Y840440D01*
X702391Y840444D01*
X702393Y840449D01*
X701821Y841426D01*
X701814Y841429D01*
X701815Y841434D01*
X701063Y842281D01*
X701056Y842283D01*
X701056Y842288D01*
X700153Y842972D01*
X700145Y842972D01*
X700144Y842977D01*
X699125Y843472D01*
X699118Y843470D01*
X699116Y843475D01*
X698020Y843762D01*
X698013Y843759D01*
X698010Y843763D01*
X696879Y843830D01*
X696874Y843830D01*
X695743Y843763D01*
X695737Y843758D01*
X695733Y843762D01*
X694637Y843475D01*
X694632Y843469D01*
X694628Y843472D01*
X693609Y842977D01*
X693605Y842971D01*
X693600Y842972D01*
X692697Y842288D01*
X692695Y842281D01*
X692690Y842281D01*
X691938Y841434D01*
X691937Y841427D01*
X691932Y841426D01*
X691360Y840449D01*
X691360Y840446D01*
X691359Y840445D01*
X691360Y840444D01*
X691360Y840442D01*
X691356Y840440D01*
X690985Y839369D01*
X690987Y839364D01*
X690983Y839362D01*
X690984Y839361D01*
X690983Y839360D01*
X690828Y838238D01*
X690830Y838233D01*
X690827Y838231D01*
X690827Y826231D01*
X690831Y826226D01*
X690828Y826223D01*
X691033Y824956D01*
X691038Y824950D01*
X691035Y824946D01*
X691517Y823756D01*
X691524Y823752D01*
X691522Y823746D01*
X692256Y822693D01*
X692264Y822691D01*
X692264Y822685D01*
X693214Y821822D01*
X693222Y821821D01*
X693223Y821816D01*
X694341Y821186D01*
X694349Y821187D01*
X694351Y821181D01*
X695582Y820816D01*
X695589Y820819D01*
X695592Y820814D01*
X696873Y820732D01*
X696877Y820735D01*
X696880Y820732D01*
X698160Y820814D01*
G37*
G36*
X698160Y560337D02*
X698160Y560337D01*
X698167Y560343D01*
X698171Y560339D01*
X699402Y560704D01*
X699407Y560711D01*
X699412Y560709D01*
X700530Y561339D01*
X700533Y561346D01*
X700539Y561345D01*
X701489Y562208D01*
X701491Y562216D01*
X701496Y562216D01*
X702231Y563269D01*
X702230Y563277D01*
X702236Y563279D01*
X702717Y564469D01*
X702716Y564474D01*
X702720Y564477D01*
X702719Y564478D01*
X702720Y564479D01*
X702925Y565746D01*
X702922Y565751D01*
X702926Y565754D01*
X702926Y577754D01*
X702923Y577758D01*
X702925Y577761D01*
X702770Y578883D01*
X702765Y578888D01*
X702768Y578892D01*
X702397Y579963D01*
X702391Y579967D01*
X702393Y579972D01*
X701821Y580949D01*
X701814Y580952D01*
X701815Y580957D01*
X701063Y581804D01*
X701056Y581806D01*
X701056Y581811D01*
X700153Y582495D01*
X700145Y582495D01*
X700144Y582500D01*
X699125Y582995D01*
X699118Y582993D01*
X699116Y582998D01*
X698020Y583285D01*
X698013Y583282D01*
X698010Y583286D01*
X696879Y583353D01*
X696874Y583353D01*
X695743Y583286D01*
X695737Y583281D01*
X695733Y583285D01*
X694637Y582998D01*
X694632Y582992D01*
X694628Y582995D01*
X693609Y582500D01*
X693605Y582494D01*
X693600Y582495D01*
X692697Y581811D01*
X692695Y581804D01*
X692690Y581804D01*
X691938Y580957D01*
X691937Y580950D01*
X691932Y580949D01*
X691360Y579972D01*
X691360Y579969D01*
X691359Y579968D01*
X691360Y579967D01*
X691360Y579965D01*
X691356Y579963D01*
X690985Y578892D01*
X690987Y578887D01*
X690983Y578885D01*
X690984Y578884D01*
X690983Y578883D01*
X690828Y577761D01*
X690830Y577756D01*
X690827Y577754D01*
X690827Y565754D01*
X690831Y565749D01*
X690828Y565746D01*
X691033Y564479D01*
X691038Y564473D01*
X691035Y564469D01*
X691517Y563279D01*
X691524Y563275D01*
X691522Y563269D01*
X692256Y562216D01*
X692264Y562214D01*
X692264Y562208D01*
X693214Y561345D01*
X693222Y561344D01*
X693223Y561339D01*
X694341Y560709D01*
X694349Y560710D01*
X694351Y560704D01*
X695582Y560339D01*
X695589Y560342D01*
X695592Y560337D01*
X696873Y560255D01*
X696877Y560258D01*
X696880Y560255D01*
X698160Y560337D01*
G37*
G36*
X163084Y560337D02*
X163084Y560337D01*
X163090Y560343D01*
X163095Y560339D01*
X164325Y560704D01*
X164330Y560711D01*
X164335Y560709D01*
X165454Y561339D01*
X165457Y561346D01*
X165463Y561345D01*
X166413Y562208D01*
X166414Y562216D01*
X166420Y562216D01*
X167154Y563269D01*
X167154Y563277D01*
X167159Y563279D01*
X167641Y564469D01*
X167639Y564474D01*
X167643Y564477D01*
X167642Y564478D01*
X167644Y564479D01*
X167849Y565746D01*
X167846Y565751D01*
X167849Y565754D01*
X167849Y577754D01*
X167846Y577758D01*
X167849Y577761D01*
X167694Y578883D01*
X167689Y578888D01*
X167692Y578892D01*
X167321Y579963D01*
X167315Y579967D01*
X167317Y579972D01*
X166744Y580949D01*
X166738Y580952D01*
X166739Y580957D01*
X165986Y581804D01*
X165979Y581806D01*
X165979Y581811D01*
X165076Y582495D01*
X165069Y582495D01*
X165068Y582500D01*
X164049Y582995D01*
X164042Y582993D01*
X164040Y582998D01*
X162943Y583285D01*
X162937Y583282D01*
X162934Y583286D01*
X161803Y583353D01*
X161797Y583353D01*
X160666Y583286D01*
X160661Y583281D01*
X160657Y583285D01*
X159560Y582998D01*
X159556Y582992D01*
X159551Y582995D01*
X158532Y582500D01*
X158529Y582494D01*
X158524Y582495D01*
X157621Y581811D01*
X157619Y581804D01*
X157614Y581804D01*
X156861Y580957D01*
X156861Y580950D01*
X156856Y580949D01*
X156283Y579972D01*
X156284Y579969D01*
X156283Y579968D01*
X156284Y579967D01*
X156284Y579965D01*
X156279Y579963D01*
X155908Y578892D01*
X155910Y578887D01*
X155907Y578885D01*
X155907Y578884D01*
X155906Y578883D01*
X155751Y577761D01*
X155754Y577756D01*
X155751Y577754D01*
X155751Y565754D01*
X155754Y565749D01*
X155751Y565746D01*
X155956Y564479D01*
X155962Y564473D01*
X155959Y564469D01*
X156441Y563279D01*
X156448Y563275D01*
X156446Y563269D01*
X157180Y562216D01*
X157188Y562214D01*
X157187Y562208D01*
X158137Y561345D01*
X158146Y561344D01*
X158146Y561339D01*
X159265Y560709D01*
X159273Y560710D01*
X159275Y560704D01*
X160505Y560339D01*
X160513Y560342D01*
X160516Y560337D01*
X161797Y560255D01*
X161801Y560258D01*
X161803Y560255D01*
X163084Y560337D01*
G37*
G36*
X163084Y299860D02*
X163084Y299860D01*
X163090Y299866D01*
X163095Y299862D01*
X164325Y300227D01*
X164330Y300234D01*
X164335Y300232D01*
X165454Y300862D01*
X165457Y300869D01*
X165463Y300868D01*
X166413Y301731D01*
X166414Y301739D01*
X166420Y301739D01*
X167154Y302792D01*
X167154Y302800D01*
X167159Y302802D01*
X167641Y303992D01*
X167639Y303997D01*
X167643Y304000D01*
X167642Y304001D01*
X167644Y304002D01*
X167849Y305269D01*
X167846Y305274D01*
X167849Y305277D01*
X167849Y317277D01*
X167846Y317281D01*
X167849Y317284D01*
X167694Y318406D01*
X167689Y318411D01*
X167692Y318415D01*
X167321Y319486D01*
X167315Y319490D01*
X167317Y319495D01*
X166744Y320472D01*
X166738Y320475D01*
X166739Y320480D01*
X165986Y321327D01*
X165979Y321329D01*
X165979Y321334D01*
X165076Y322018D01*
X165069Y322018D01*
X165068Y322023D01*
X164049Y322518D01*
X164042Y322516D01*
X164040Y322521D01*
X162943Y322808D01*
X162937Y322805D01*
X162934Y322809D01*
X161803Y322876D01*
X161797Y322876D01*
X160666Y322809D01*
X160661Y322804D01*
X160657Y322808D01*
X159560Y322521D01*
X159556Y322515D01*
X159551Y322518D01*
X158532Y322023D01*
X158529Y322017D01*
X158524Y322018D01*
X157621Y321334D01*
X157619Y321327D01*
X157614Y321327D01*
X156861Y320480D01*
X156861Y320473D01*
X156856Y320472D01*
X156283Y319495D01*
X156284Y319492D01*
X156283Y319491D01*
X156284Y319490D01*
X156284Y319488D01*
X156279Y319486D01*
X155908Y318415D01*
X155910Y318410D01*
X155907Y318408D01*
X155907Y318407D01*
X155906Y318406D01*
X155751Y317284D01*
X155754Y317279D01*
X155751Y317277D01*
X155751Y305277D01*
X155754Y305272D01*
X155751Y305269D01*
X155956Y304002D01*
X155962Y303996D01*
X155959Y303992D01*
X156441Y302802D01*
X156448Y302798D01*
X156446Y302792D01*
X157180Y301739D01*
X157188Y301737D01*
X157187Y301731D01*
X158137Y300868D01*
X158146Y300867D01*
X158146Y300862D01*
X159265Y300232D01*
X159273Y300233D01*
X159275Y300227D01*
X160505Y299862D01*
X160513Y299865D01*
X160516Y299860D01*
X161797Y299778D01*
X161801Y299781D01*
X161803Y299778D01*
X163084Y299860D01*
G37*
G36*
X249484Y560337D02*
X249484Y560337D01*
X249490Y560343D01*
X249495Y560339D01*
X250725Y560704D01*
X250730Y560711D01*
X250735Y560709D01*
X251854Y561339D01*
X251857Y561346D01*
X251863Y561345D01*
X252813Y562208D01*
X252814Y562216D01*
X252820Y562216D01*
X253554Y563269D01*
X253554Y563277D01*
X253559Y563279D01*
X254041Y564469D01*
X254039Y564474D01*
X254043Y564477D01*
X254042Y564478D01*
X254044Y564479D01*
X254249Y565746D01*
X254246Y565751D01*
X254249Y565754D01*
X254249Y577754D01*
X254246Y577758D01*
X254249Y577761D01*
X254094Y578883D01*
X254089Y578888D01*
X254092Y578892D01*
X253721Y579963D01*
X253715Y579967D01*
X253717Y579972D01*
X253144Y580949D01*
X253138Y580952D01*
X253139Y580957D01*
X252386Y581804D01*
X252379Y581806D01*
X252379Y581811D01*
X251476Y582495D01*
X251469Y582495D01*
X251468Y582500D01*
X250449Y582995D01*
X250442Y582993D01*
X250440Y582998D01*
X249343Y583285D01*
X249337Y583282D01*
X249334Y583286D01*
X248203Y583353D01*
X248197Y583353D01*
X247066Y583286D01*
X247061Y583281D01*
X247057Y583285D01*
X245960Y582998D01*
X245956Y582992D01*
X245951Y582995D01*
X244932Y582500D01*
X244929Y582494D01*
X244924Y582495D01*
X244021Y581811D01*
X244019Y581804D01*
X244014Y581804D01*
X243261Y580957D01*
X243261Y580950D01*
X243256Y580949D01*
X242683Y579972D01*
X242684Y579969D01*
X242683Y579968D01*
X242684Y579967D01*
X242684Y579965D01*
X242679Y579963D01*
X242308Y578892D01*
X242310Y578887D01*
X242307Y578885D01*
X242307Y578884D01*
X242306Y578883D01*
X242151Y577761D01*
X242154Y577756D01*
X242151Y577754D01*
X242151Y565754D01*
X242154Y565749D01*
X242151Y565746D01*
X242356Y564479D01*
X242362Y564473D01*
X242359Y564469D01*
X242841Y563279D01*
X242848Y563275D01*
X242846Y563269D01*
X243580Y562216D01*
X243588Y562214D01*
X243587Y562208D01*
X244537Y561345D01*
X244546Y561344D01*
X244546Y561339D01*
X245665Y560709D01*
X245673Y560710D01*
X245675Y560704D01*
X246905Y560339D01*
X246913Y560342D01*
X246916Y560337D01*
X248197Y560255D01*
X248201Y560258D01*
X248203Y560255D01*
X249484Y560337D01*
G37*
G36*
X249484Y1081291D02*
X249484Y1081291D01*
X249490Y1081297D01*
X249495Y1081293D01*
X250725Y1081658D01*
X250730Y1081665D01*
X250735Y1081663D01*
X251854Y1082293D01*
X251857Y1082300D01*
X251863Y1082299D01*
X252813Y1083162D01*
X252814Y1083170D01*
X252820Y1083170D01*
X253554Y1084223D01*
X253554Y1084231D01*
X253559Y1084233D01*
X254041Y1085423D01*
X254039Y1085428D01*
X254043Y1085431D01*
X254042Y1085432D01*
X254044Y1085433D01*
X254249Y1086700D01*
X254246Y1086705D01*
X254249Y1086708D01*
X254249Y1098708D01*
X254246Y1098712D01*
X254249Y1098715D01*
X254094Y1099837D01*
X254089Y1099842D01*
X254092Y1099846D01*
X253721Y1100917D01*
X253715Y1100921D01*
X253717Y1100926D01*
X253144Y1101903D01*
X253138Y1101906D01*
X253139Y1101911D01*
X252386Y1102758D01*
X252379Y1102760D01*
X252379Y1102765D01*
X251476Y1103449D01*
X251469Y1103449D01*
X251468Y1103454D01*
X250449Y1103949D01*
X250442Y1103947D01*
X250440Y1103952D01*
X249343Y1104239D01*
X249337Y1104236D01*
X249334Y1104240D01*
X248203Y1104307D01*
X248197Y1104307D01*
X247066Y1104240D01*
X247061Y1104235D01*
X247057Y1104239D01*
X245960Y1103952D01*
X245956Y1103946D01*
X245951Y1103949D01*
X244932Y1103454D01*
X244929Y1103448D01*
X244924Y1103449D01*
X244021Y1102765D01*
X244019Y1102758D01*
X244014Y1102758D01*
X243261Y1101911D01*
X243261Y1101904D01*
X243256Y1101903D01*
X242683Y1100926D01*
X242684Y1100923D01*
X242683Y1100922D01*
X242684Y1100921D01*
X242684Y1100919D01*
X242679Y1100917D01*
X242308Y1099846D01*
X242310Y1099841D01*
X242307Y1099839D01*
X242307Y1099838D01*
X242306Y1099837D01*
X242151Y1098715D01*
X242154Y1098710D01*
X242151Y1098708D01*
X242151Y1086708D01*
X242154Y1086703D01*
X242151Y1086700D01*
X242356Y1085433D01*
X242362Y1085427D01*
X242359Y1085423D01*
X242841Y1084233D01*
X242848Y1084229D01*
X242846Y1084223D01*
X243580Y1083170D01*
X243588Y1083168D01*
X243587Y1083162D01*
X244537Y1082299D01*
X244546Y1082298D01*
X244546Y1082293D01*
X245665Y1081663D01*
X245673Y1081664D01*
X245675Y1081658D01*
X246905Y1081293D01*
X246913Y1081296D01*
X246916Y1081291D01*
X248197Y1081209D01*
X248201Y1081212D01*
X248203Y1081209D01*
X249484Y1081291D01*
G37*
G36*
X698160Y1081291D02*
X698160Y1081291D01*
X698167Y1081297D01*
X698171Y1081293D01*
X699402Y1081658D01*
X699407Y1081665D01*
X699412Y1081663D01*
X700530Y1082293D01*
X700533Y1082300D01*
X700539Y1082299D01*
X701489Y1083162D01*
X701491Y1083170D01*
X701496Y1083170D01*
X702231Y1084223D01*
X702230Y1084231D01*
X702236Y1084233D01*
X702717Y1085423D01*
X702716Y1085428D01*
X702720Y1085431D01*
X702719Y1085432D01*
X702720Y1085433D01*
X702925Y1086700D01*
X702922Y1086705D01*
X702926Y1086708D01*
X702926Y1098708D01*
X702923Y1098712D01*
X702925Y1098715D01*
X702770Y1099837D01*
X702765Y1099842D01*
X702768Y1099846D01*
X702397Y1100917D01*
X702391Y1100921D01*
X702393Y1100926D01*
X701821Y1101903D01*
X701814Y1101906D01*
X701815Y1101911D01*
X701063Y1102758D01*
X701056Y1102760D01*
X701056Y1102765D01*
X700153Y1103449D01*
X700145Y1103449D01*
X700144Y1103454D01*
X699125Y1103949D01*
X699118Y1103947D01*
X699116Y1103952D01*
X698020Y1104239D01*
X698013Y1104236D01*
X698010Y1104240D01*
X696879Y1104307D01*
X696874Y1104307D01*
X695743Y1104240D01*
X695737Y1104235D01*
X695733Y1104239D01*
X694637Y1103952D01*
X694632Y1103946D01*
X694628Y1103949D01*
X693609Y1103454D01*
X693605Y1103448D01*
X693600Y1103449D01*
X692697Y1102765D01*
X692695Y1102758D01*
X692690Y1102758D01*
X691938Y1101911D01*
X691937Y1101904D01*
X691932Y1101903D01*
X691360Y1100926D01*
X691360Y1100923D01*
X691359Y1100922D01*
X691360Y1100921D01*
X691360Y1100919D01*
X691356Y1100917D01*
X690985Y1099846D01*
X690987Y1099841D01*
X690983Y1099839D01*
X690984Y1099838D01*
X690983Y1099837D01*
X690828Y1098715D01*
X690830Y1098710D01*
X690827Y1098708D01*
X690827Y1086708D01*
X690831Y1086703D01*
X690828Y1086700D01*
X691033Y1085433D01*
X691038Y1085427D01*
X691035Y1085423D01*
X691517Y1084233D01*
X691524Y1084229D01*
X691522Y1084223D01*
X692256Y1083170D01*
X692264Y1083168D01*
X692264Y1083162D01*
X693214Y1082299D01*
X693222Y1082298D01*
X693223Y1082293D01*
X694341Y1081663D01*
X694349Y1081664D01*
X694351Y1081658D01*
X695582Y1081293D01*
X695589Y1081296D01*
X695592Y1081291D01*
X696873Y1081209D01*
X696877Y1081212D01*
X696880Y1081209D01*
X698160Y1081291D01*
G37*
G36*
X784560Y1081291D02*
X784560Y1081291D01*
X784567Y1081297D01*
X784571Y1081293D01*
X785802Y1081658D01*
X785807Y1081665D01*
X785812Y1081663D01*
X786930Y1082293D01*
X786933Y1082300D01*
X786939Y1082299D01*
X787889Y1083162D01*
X787891Y1083170D01*
X787896Y1083170D01*
X788631Y1084223D01*
X788630Y1084231D01*
X788636Y1084233D01*
X789117Y1085423D01*
X789116Y1085428D01*
X789120Y1085431D01*
X789119Y1085432D01*
X789120Y1085433D01*
X789325Y1086700D01*
X789322Y1086705D01*
X789326Y1086708D01*
X789326Y1098708D01*
X789323Y1098712D01*
X789325Y1098715D01*
X789170Y1099837D01*
X789165Y1099842D01*
X789168Y1099846D01*
X788797Y1100917D01*
X788791Y1100921D01*
X788793Y1100926D01*
X788221Y1101903D01*
X788214Y1101906D01*
X788215Y1101911D01*
X787463Y1102758D01*
X787456Y1102760D01*
X787456Y1102765D01*
X786553Y1103449D01*
X786545Y1103449D01*
X786544Y1103454D01*
X785525Y1103949D01*
X785518Y1103947D01*
X785516Y1103952D01*
X784420Y1104239D01*
X784413Y1104236D01*
X784410Y1104240D01*
X783279Y1104307D01*
X783274Y1104307D01*
X782143Y1104240D01*
X782137Y1104235D01*
X782133Y1104239D01*
X781037Y1103952D01*
X781032Y1103946D01*
X781028Y1103949D01*
X780009Y1103454D01*
X780005Y1103448D01*
X780000Y1103449D01*
X779097Y1102765D01*
X779095Y1102758D01*
X779090Y1102758D01*
X778338Y1101911D01*
X778337Y1101904D01*
X778332Y1101903D01*
X777760Y1100926D01*
X777760Y1100923D01*
X777759Y1100922D01*
X777760Y1100921D01*
X777760Y1100919D01*
X777756Y1100917D01*
X777385Y1099846D01*
X777387Y1099841D01*
X777383Y1099839D01*
X777384Y1099838D01*
X777383Y1099837D01*
X777228Y1098715D01*
X777230Y1098710D01*
X777227Y1098708D01*
X777227Y1086708D01*
X777231Y1086703D01*
X777228Y1086700D01*
X777433Y1085433D01*
X777438Y1085427D01*
X777435Y1085423D01*
X777917Y1084233D01*
X777924Y1084229D01*
X777922Y1084223D01*
X778656Y1083170D01*
X778664Y1083168D01*
X778664Y1083162D01*
X779614Y1082299D01*
X779622Y1082298D01*
X779623Y1082293D01*
X780741Y1081663D01*
X780749Y1081664D01*
X780751Y1081658D01*
X781982Y1081293D01*
X781989Y1081296D01*
X781992Y1081291D01*
X783273Y1081209D01*
X783277Y1081212D01*
X783280Y1081209D01*
X784560Y1081291D01*
G37*
G36*
X784560Y39383D02*
X784560Y39383D01*
X784567Y39389D01*
X784571Y39385D01*
X785802Y39750D01*
X785807Y39757D01*
X785812Y39755D01*
X786930Y40385D01*
X786933Y40392D01*
X786939Y40391D01*
X787889Y41254D01*
X787891Y41262D01*
X787896Y41262D01*
X788631Y42315D01*
X788630Y42323D01*
X788636Y42325D01*
X789117Y43515D01*
X789116Y43520D01*
X789120Y43523D01*
X789119Y43524D01*
X789120Y43525D01*
X789325Y44792D01*
X789322Y44797D01*
X789326Y44800D01*
X789326Y56800D01*
X789323Y56804D01*
X789325Y56807D01*
X789170Y57929D01*
X789165Y57934D01*
X789168Y57938D01*
X788797Y59009D01*
X788791Y59013D01*
X788793Y59018D01*
X788221Y59995D01*
X788214Y59998D01*
X788215Y60003D01*
X787463Y60850D01*
X787456Y60852D01*
X787456Y60857D01*
X786553Y61541D01*
X786545Y61541D01*
X786544Y61546D01*
X785525Y62041D01*
X785518Y62039D01*
X785516Y62044D01*
X784420Y62331D01*
X784413Y62328D01*
X784410Y62332D01*
X783279Y62399D01*
X783274Y62399D01*
X782143Y62332D01*
X782137Y62327D01*
X782133Y62331D01*
X781037Y62044D01*
X781032Y62038D01*
X781028Y62041D01*
X780009Y61546D01*
X780005Y61540D01*
X780000Y61541D01*
X779097Y60857D01*
X779095Y60850D01*
X779090Y60850D01*
X778338Y60003D01*
X778337Y59996D01*
X778332Y59995D01*
X777760Y59018D01*
X777760Y59015D01*
X777759Y59014D01*
X777760Y59013D01*
X777760Y59011D01*
X777756Y59009D01*
X777385Y57938D01*
X777387Y57933D01*
X777383Y57931D01*
X777384Y57930D01*
X777383Y57929D01*
X777228Y56807D01*
X777230Y56802D01*
X777227Y56800D01*
X777227Y44800D01*
X777231Y44795D01*
X777228Y44792D01*
X777433Y43525D01*
X777438Y43519D01*
X777435Y43515D01*
X777917Y42325D01*
X777924Y42321D01*
X777922Y42315D01*
X778656Y41262D01*
X778664Y41260D01*
X778664Y41254D01*
X779614Y40391D01*
X779622Y40390D01*
X779623Y40385D01*
X780741Y39755D01*
X780749Y39756D01*
X780751Y39750D01*
X781982Y39385D01*
X781989Y39388D01*
X781992Y39383D01*
X783273Y39301D01*
X783277Y39304D01*
X783280Y39301D01*
X784560Y39383D01*
G37*
G36*
X249484Y39383D02*
X249484Y39383D01*
X249490Y39389D01*
X249495Y39385D01*
X250725Y39750D01*
X250730Y39757D01*
X250735Y39755D01*
X251854Y40385D01*
X251857Y40392D01*
X251863Y40391D01*
X252813Y41254D01*
X252814Y41262D01*
X252820Y41262D01*
X253554Y42315D01*
X253554Y42323D01*
X253559Y42325D01*
X254041Y43515D01*
X254039Y43520D01*
X254043Y43523D01*
X254042Y43524D01*
X254044Y43525D01*
X254249Y44792D01*
X254246Y44797D01*
X254249Y44800D01*
X254249Y56800D01*
X254246Y56804D01*
X254249Y56807D01*
X254094Y57929D01*
X254089Y57934D01*
X254092Y57938D01*
X253721Y59009D01*
X253715Y59013D01*
X253717Y59018D01*
X253144Y59995D01*
X253138Y59998D01*
X253139Y60003D01*
X252386Y60850D01*
X252379Y60852D01*
X252379Y60857D01*
X251476Y61541D01*
X251469Y61541D01*
X251468Y61546D01*
X250449Y62041D01*
X250442Y62039D01*
X250440Y62044D01*
X249343Y62331D01*
X249337Y62328D01*
X249334Y62332D01*
X248203Y62399D01*
X248197Y62399D01*
X247066Y62332D01*
X247061Y62327D01*
X247057Y62331D01*
X245960Y62044D01*
X245956Y62038D01*
X245951Y62041D01*
X244932Y61546D01*
X244929Y61540D01*
X244924Y61541D01*
X244021Y60857D01*
X244019Y60850D01*
X244014Y60850D01*
X243261Y60003D01*
X243261Y59996D01*
X243256Y59995D01*
X242683Y59018D01*
X242684Y59015D01*
X242683Y59014D01*
X242684Y59013D01*
X242684Y59011D01*
X242679Y59009D01*
X242308Y57938D01*
X242310Y57933D01*
X242307Y57931D01*
X242307Y57930D01*
X242306Y57929D01*
X242151Y56807D01*
X242154Y56802D01*
X242151Y56800D01*
X242151Y44800D01*
X242154Y44795D01*
X242151Y44792D01*
X242356Y43525D01*
X242362Y43519D01*
X242359Y43515D01*
X242841Y42325D01*
X242848Y42321D01*
X242846Y42315D01*
X243580Y41262D01*
X243588Y41260D01*
X243587Y41254D01*
X244537Y40391D01*
X244546Y40390D01*
X244546Y40385D01*
X245665Y39755D01*
X245673Y39756D01*
X245675Y39750D01*
X246905Y39385D01*
X246913Y39388D01*
X246916Y39383D01*
X248197Y39301D01*
X248201Y39304D01*
X248203Y39301D01*
X249484Y39383D01*
G37*
G36*
X163084Y39383D02*
X163084Y39383D01*
X163090Y39389D01*
X163095Y39385D01*
X164325Y39750D01*
X164330Y39757D01*
X164335Y39755D01*
X165454Y40385D01*
X165457Y40392D01*
X165463Y40391D01*
X166413Y41254D01*
X166414Y41262D01*
X166420Y41262D01*
X167154Y42315D01*
X167154Y42323D01*
X167159Y42325D01*
X167641Y43515D01*
X167639Y43520D01*
X167643Y43523D01*
X167642Y43524D01*
X167644Y43525D01*
X167849Y44792D01*
X167846Y44797D01*
X167849Y44800D01*
X167849Y56800D01*
X167846Y56804D01*
X167849Y56807D01*
X167694Y57929D01*
X167689Y57934D01*
X167692Y57938D01*
X167321Y59009D01*
X167315Y59013D01*
X167317Y59018D01*
X166744Y59995D01*
X166738Y59998D01*
X166739Y60003D01*
X165986Y60850D01*
X165979Y60852D01*
X165979Y60857D01*
X165076Y61541D01*
X165069Y61541D01*
X165068Y61546D01*
X164049Y62041D01*
X164042Y62039D01*
X164040Y62044D01*
X162943Y62331D01*
X162937Y62328D01*
X162934Y62332D01*
X161803Y62399D01*
X161797Y62399D01*
X160666Y62332D01*
X160661Y62327D01*
X160657Y62331D01*
X159560Y62044D01*
X159556Y62038D01*
X159551Y62041D01*
X158532Y61546D01*
X158529Y61540D01*
X158524Y61541D01*
X157621Y60857D01*
X157619Y60850D01*
X157614Y60850D01*
X156861Y60003D01*
X156861Y59996D01*
X156856Y59995D01*
X156283Y59018D01*
X156284Y59015D01*
X156283Y59014D01*
X156284Y59013D01*
X156284Y59011D01*
X156279Y59009D01*
X155908Y57938D01*
X155910Y57933D01*
X155907Y57931D01*
X155907Y57930D01*
X155906Y57929D01*
X155751Y56807D01*
X155754Y56802D01*
X155751Y56800D01*
X155751Y44800D01*
X155754Y44795D01*
X155751Y44792D01*
X155956Y43525D01*
X155962Y43519D01*
X155959Y43515D01*
X156441Y42325D01*
X156448Y42321D01*
X156446Y42315D01*
X157180Y41262D01*
X157188Y41260D01*
X157187Y41254D01*
X158137Y40391D01*
X158146Y40390D01*
X158146Y40385D01*
X159265Y39755D01*
X159273Y39756D01*
X159275Y39750D01*
X160505Y39385D01*
X160513Y39388D01*
X160516Y39383D01*
X161797Y39301D01*
X161801Y39304D01*
X161803Y39301D01*
X163084Y39383D01*
G37*
G36*
X249371Y1562998D02*
X249371Y1562998D01*
X249376Y1563003D01*
X249380Y1563000D01*
X250503Y1563335D01*
X250507Y1563341D01*
X250511Y1563339D01*
X251547Y1563887D01*
X251550Y1563894D01*
X251555Y1563892D01*
X252463Y1564632D01*
X252465Y1564639D01*
X252470Y1564638D01*
X253217Y1565541D01*
X253217Y1565548D01*
X253223Y1565549D01*
X253779Y1566579D01*
X253778Y1566587D01*
X253783Y1566588D01*
X254127Y1567708D01*
X254125Y1567715D01*
X254129Y1567717D01*
X254249Y1568882D01*
X254247Y1568886D01*
X254249Y1568887D01*
X254249Y1574887D01*
X254247Y1574890D01*
X254249Y1574892D01*
X254138Y1576068D01*
X254133Y1576073D01*
X254136Y1576077D01*
X253798Y1577209D01*
X253792Y1577213D01*
X253794Y1577218D01*
X253242Y1578262D01*
X253235Y1578265D01*
X253237Y1578270D01*
X252491Y1579186D01*
X252484Y1579188D01*
X252484Y1579193D01*
X251575Y1579946D01*
X251567Y1579946D01*
X251567Y1579951D01*
X250527Y1580513D01*
X250520Y1580511D01*
X250518Y1580516D01*
X249389Y1580864D01*
X249383Y1580861D01*
X249380Y1580866D01*
X248205Y1580986D01*
X248198Y1580982D01*
X248194Y1580986D01*
X246854Y1580830D01*
X246848Y1580824D01*
X246843Y1580827D01*
X245572Y1580376D01*
X245567Y1580369D01*
X245562Y1580372D01*
X244423Y1579649D01*
X244420Y1579641D01*
X244414Y1579642D01*
X243464Y1578684D01*
X243463Y1578676D01*
X243457Y1578675D01*
X242744Y1577530D01*
X242745Y1577522D01*
X242739Y1577520D01*
X242299Y1576245D01*
X242301Y1576237D01*
X242297Y1576234D01*
X242151Y1574893D01*
X242153Y1574889D01*
X242151Y1574887D01*
X242151Y1568887D01*
X242153Y1568884D01*
X242151Y1568882D01*
X242306Y1567553D01*
X242312Y1567547D01*
X242309Y1567542D01*
X242756Y1566281D01*
X242763Y1566276D01*
X242761Y1566271D01*
X243478Y1565141D01*
X243485Y1565138D01*
X243484Y1565133D01*
X244435Y1564190D01*
X244443Y1564189D01*
X244443Y1564184D01*
X245579Y1563476D01*
X245587Y1563477D01*
X245589Y1563472D01*
X246854Y1563035D01*
X246859Y1563037D01*
X246860Y1563036D01*
X246863Y1563036D01*
X246865Y1563033D01*
X248195Y1562888D01*
X248201Y1562892D01*
X248205Y1562888D01*
X249371Y1562998D01*
G37*
G36*
X162971Y1302521D02*
X162971Y1302521D01*
X162976Y1302526D01*
X162980Y1302523D01*
X164103Y1302858D01*
X164107Y1302864D01*
X164111Y1302862D01*
X165147Y1303410D01*
X165150Y1303417D01*
X165155Y1303415D01*
X166063Y1304155D01*
X166065Y1304162D01*
X166070Y1304161D01*
X166817Y1305064D01*
X166817Y1305071D01*
X166823Y1305072D01*
X167379Y1306102D01*
X167378Y1306110D01*
X167383Y1306111D01*
X167727Y1307231D01*
X167725Y1307238D01*
X167729Y1307240D01*
X167849Y1308405D01*
X167847Y1308409D01*
X167849Y1308410D01*
X167849Y1314410D01*
X167847Y1314413D01*
X167849Y1314415D01*
X167738Y1315591D01*
X167733Y1315596D01*
X167736Y1315600D01*
X167398Y1316732D01*
X167392Y1316736D01*
X167394Y1316741D01*
X166842Y1317785D01*
X166835Y1317788D01*
X166837Y1317793D01*
X166091Y1318709D01*
X166084Y1318711D01*
X166084Y1318716D01*
X165175Y1319469D01*
X165167Y1319469D01*
X165167Y1319474D01*
X164127Y1320036D01*
X164120Y1320034D01*
X164118Y1320039D01*
X162989Y1320387D01*
X162983Y1320384D01*
X162980Y1320389D01*
X161805Y1320509D01*
X161798Y1320505D01*
X161794Y1320509D01*
X160454Y1320353D01*
X160448Y1320347D01*
X160443Y1320350D01*
X159172Y1319899D01*
X159167Y1319892D01*
X159162Y1319895D01*
X158023Y1319172D01*
X158020Y1319164D01*
X158014Y1319165D01*
X157064Y1318207D01*
X157063Y1318199D01*
X157057Y1318198D01*
X156344Y1317053D01*
X156345Y1317045D01*
X156339Y1317043D01*
X155899Y1315768D01*
X155901Y1315760D01*
X155897Y1315757D01*
X155751Y1314416D01*
X155753Y1314412D01*
X155751Y1314410D01*
X155751Y1308410D01*
X155753Y1308407D01*
X155751Y1308405D01*
X155906Y1307076D01*
X155912Y1307070D01*
X155909Y1307065D01*
X156356Y1305804D01*
X156363Y1305799D01*
X156361Y1305794D01*
X157078Y1304664D01*
X157085Y1304661D01*
X157084Y1304656D01*
X158035Y1303713D01*
X158043Y1303712D01*
X158043Y1303707D01*
X159179Y1302999D01*
X159187Y1303000D01*
X159189Y1302995D01*
X160454Y1302558D01*
X160459Y1302560D01*
X160460Y1302559D01*
X160463Y1302559D01*
X160465Y1302556D01*
X161795Y1302411D01*
X161801Y1302415D01*
X161805Y1302411D01*
X162971Y1302521D01*
G37*
G36*
X698047Y1302521D02*
X698047Y1302521D01*
X698053Y1302526D01*
X698057Y1302523D01*
X699179Y1302858D01*
X699183Y1302864D01*
X699188Y1302862D01*
X700223Y1303410D01*
X700226Y1303417D01*
X700231Y1303415D01*
X701140Y1304155D01*
X701142Y1304162D01*
X701147Y1304161D01*
X701894Y1305064D01*
X701894Y1305071D01*
X701899Y1305072D01*
X702455Y1306102D01*
X702454Y1306110D01*
X702459Y1306111D01*
X702804Y1307231D01*
X702801Y1307238D01*
X702806Y1307240D01*
X702925Y1308405D01*
X702923Y1308409D01*
X702926Y1308410D01*
X702926Y1314410D01*
X702924Y1314413D01*
X702925Y1314415D01*
X702815Y1315591D01*
X702810Y1315596D01*
X702813Y1315600D01*
X702475Y1316732D01*
X702469Y1316736D01*
X702471Y1316741D01*
X701918Y1317785D01*
X701912Y1317788D01*
X701913Y1317793D01*
X701168Y1318709D01*
X701161Y1318711D01*
X701161Y1318716D01*
X700251Y1319469D01*
X700244Y1319469D01*
X700243Y1319474D01*
X699204Y1320036D01*
X699196Y1320034D01*
X699195Y1320039D01*
X698066Y1320387D01*
X698059Y1320384D01*
X698056Y1320389D01*
X696881Y1320509D01*
X696875Y1320505D01*
X696871Y1320509D01*
X695531Y1320353D01*
X695525Y1320347D01*
X695520Y1320350D01*
X694248Y1319899D01*
X694244Y1319892D01*
X694238Y1319895D01*
X693099Y1319172D01*
X693096Y1319164D01*
X693090Y1319165D01*
X692140Y1318207D01*
X692139Y1318199D01*
X692133Y1318198D01*
X691420Y1317053D01*
X691421Y1317045D01*
X691416Y1317043D01*
X690975Y1315768D01*
X690978Y1315760D01*
X690973Y1315757D01*
X690827Y1314416D01*
X690830Y1314412D01*
X690827Y1314410D01*
X690827Y1308410D01*
X690830Y1308407D01*
X690828Y1308405D01*
X690983Y1307076D01*
X690989Y1307070D01*
X690985Y1307065D01*
X691433Y1305804D01*
X691439Y1305799D01*
X691437Y1305794D01*
X692154Y1304664D01*
X692162Y1304661D01*
X692161Y1304656D01*
X693111Y1303713D01*
X693119Y1303712D01*
X693120Y1303707D01*
X694255Y1302999D01*
X694264Y1303000D01*
X694265Y1302995D01*
X695530Y1302558D01*
X695535Y1302560D01*
X695536Y1302559D01*
X695539Y1302559D01*
X695541Y1302556D01*
X696871Y1302411D01*
X696877Y1302415D01*
X696881Y1302411D01*
X698047Y1302521D01*
G37*
G36*
X784447Y1302521D02*
X784447Y1302521D01*
X784453Y1302526D01*
X784457Y1302523D01*
X785579Y1302858D01*
X785583Y1302864D01*
X785588Y1302862D01*
X786623Y1303410D01*
X786626Y1303417D01*
X786631Y1303415D01*
X787540Y1304155D01*
X787542Y1304162D01*
X787547Y1304161D01*
X788294Y1305064D01*
X788294Y1305071D01*
X788299Y1305072D01*
X788855Y1306102D01*
X788854Y1306110D01*
X788859Y1306111D01*
X789204Y1307231D01*
X789201Y1307238D01*
X789206Y1307240D01*
X789325Y1308405D01*
X789323Y1308409D01*
X789326Y1308410D01*
X789326Y1314410D01*
X789324Y1314413D01*
X789325Y1314415D01*
X789215Y1315591D01*
X789210Y1315596D01*
X789213Y1315600D01*
X788875Y1316732D01*
X788869Y1316736D01*
X788871Y1316741D01*
X788318Y1317785D01*
X788312Y1317788D01*
X788313Y1317793D01*
X787568Y1318709D01*
X787561Y1318711D01*
X787561Y1318716D01*
X786651Y1319469D01*
X786644Y1319469D01*
X786643Y1319474D01*
X785604Y1320036D01*
X785596Y1320034D01*
X785595Y1320039D01*
X784466Y1320387D01*
X784459Y1320384D01*
X784456Y1320389D01*
X783281Y1320509D01*
X783275Y1320505D01*
X783271Y1320509D01*
X781931Y1320353D01*
X781925Y1320347D01*
X781920Y1320350D01*
X780648Y1319899D01*
X780644Y1319892D01*
X780638Y1319895D01*
X779499Y1319172D01*
X779496Y1319164D01*
X779490Y1319165D01*
X778540Y1318207D01*
X778539Y1318199D01*
X778533Y1318198D01*
X777820Y1317053D01*
X777821Y1317045D01*
X777816Y1317043D01*
X777375Y1315768D01*
X777378Y1315760D01*
X777373Y1315757D01*
X777227Y1314416D01*
X777230Y1314412D01*
X777227Y1314410D01*
X777227Y1308410D01*
X777230Y1308407D01*
X777228Y1308405D01*
X777383Y1307076D01*
X777389Y1307070D01*
X777385Y1307065D01*
X777833Y1305804D01*
X777839Y1305799D01*
X777837Y1305794D01*
X778554Y1304664D01*
X778562Y1304661D01*
X778561Y1304656D01*
X779511Y1303713D01*
X779519Y1303712D01*
X779520Y1303707D01*
X780655Y1302999D01*
X780664Y1303000D01*
X780665Y1302995D01*
X781930Y1302558D01*
X781935Y1302560D01*
X781936Y1302559D01*
X781939Y1302559D01*
X781941Y1302556D01*
X783271Y1302411D01*
X783277Y1302415D01*
X783281Y1302411D01*
X784447Y1302521D01*
G37*
G36*
X784447Y1042019D02*
X784447Y1042019D01*
X784453Y1042024D01*
X784457Y1042021D01*
X785579Y1042356D01*
X785583Y1042362D01*
X785588Y1042360D01*
X786623Y1042908D01*
X786626Y1042914D01*
X786631Y1042913D01*
X787540Y1043652D01*
X787542Y1043659D01*
X787547Y1043659D01*
X788294Y1044561D01*
X788294Y1044569D01*
X788299Y1044569D01*
X788855Y1045600D01*
X788854Y1045607D01*
X788859Y1045609D01*
X789204Y1046728D01*
X789201Y1046735D01*
X789206Y1046738D01*
X789325Y1047903D01*
X789323Y1047906D01*
X789326Y1047908D01*
X789326Y1053908D01*
X789324Y1053911D01*
X789325Y1053913D01*
X789215Y1055089D01*
X789210Y1055094D01*
X789213Y1055098D01*
X788875Y1056230D01*
X788869Y1056234D01*
X788871Y1056239D01*
X788318Y1057283D01*
X788312Y1057286D01*
X788313Y1057291D01*
X787568Y1058207D01*
X787561Y1058208D01*
X787561Y1058214D01*
X786651Y1058967D01*
X786644Y1058967D01*
X786643Y1058972D01*
X785604Y1059533D01*
X785596Y1059532D01*
X785595Y1059537D01*
X784466Y1059884D01*
X784459Y1059882D01*
X784456Y1059886D01*
X783281Y1060007D01*
X783275Y1060003D01*
X783271Y1060007D01*
X781931Y1059850D01*
X781925Y1059845D01*
X781920Y1059848D01*
X780648Y1059397D01*
X780644Y1059390D01*
X780638Y1059392D01*
X779499Y1058670D01*
X779496Y1058662D01*
X779490Y1058663D01*
X778540Y1057705D01*
X778539Y1057697D01*
X778533Y1057696D01*
X777820Y1056551D01*
X777821Y1056543D01*
X777816Y1056541D01*
X777375Y1055265D01*
X777378Y1055258D01*
X777373Y1055255D01*
X777227Y1053913D01*
X777230Y1053910D01*
X777227Y1053908D01*
X777227Y1047908D01*
X777230Y1047905D01*
X777228Y1047902D01*
X777383Y1046573D01*
X777389Y1046567D01*
X777385Y1046563D01*
X777833Y1045302D01*
X777839Y1045297D01*
X777837Y1045292D01*
X778554Y1044162D01*
X778562Y1044159D01*
X778561Y1044153D01*
X779511Y1043211D01*
X779519Y1043210D01*
X779520Y1043204D01*
X780655Y1042497D01*
X780664Y1042498D01*
X780665Y1042492D01*
X781930Y1042056D01*
X781935Y1042057D01*
X781936Y1042057D01*
X781939Y1042057D01*
X781941Y1042053D01*
X783271Y1041909D01*
X783277Y1041913D01*
X783281Y1041909D01*
X784447Y1042019D01*
G37*
G36*
X162971Y1042019D02*
X162971Y1042019D01*
X162976Y1042024D01*
X162980Y1042021D01*
X164103Y1042356D01*
X164107Y1042362D01*
X164111Y1042360D01*
X165147Y1042908D01*
X165150Y1042914D01*
X165155Y1042913D01*
X166063Y1043652D01*
X166065Y1043659D01*
X166070Y1043659D01*
X166817Y1044561D01*
X166817Y1044569D01*
X166823Y1044569D01*
X167379Y1045600D01*
X167378Y1045607D01*
X167383Y1045609D01*
X167727Y1046728D01*
X167725Y1046735D01*
X167729Y1046738D01*
X167849Y1047903D01*
X167847Y1047906D01*
X167849Y1047908D01*
X167849Y1053908D01*
X167847Y1053911D01*
X167849Y1053913D01*
X167738Y1055089D01*
X167733Y1055094D01*
X167736Y1055098D01*
X167398Y1056230D01*
X167392Y1056234D01*
X167394Y1056239D01*
X166842Y1057283D01*
X166835Y1057286D01*
X166837Y1057291D01*
X166091Y1058207D01*
X166084Y1058208D01*
X166084Y1058214D01*
X165175Y1058967D01*
X165167Y1058967D01*
X165167Y1058972D01*
X164127Y1059533D01*
X164120Y1059532D01*
X164118Y1059537D01*
X162989Y1059884D01*
X162983Y1059882D01*
X162980Y1059886D01*
X161805Y1060007D01*
X161798Y1060003D01*
X161794Y1060007D01*
X160454Y1059850D01*
X160448Y1059845D01*
X160443Y1059848D01*
X159172Y1059397D01*
X159167Y1059390D01*
X159162Y1059392D01*
X158023Y1058670D01*
X158020Y1058662D01*
X158014Y1058663D01*
X157064Y1057705D01*
X157063Y1057697D01*
X157057Y1057696D01*
X156344Y1056551D01*
X156345Y1056543D01*
X156339Y1056541D01*
X155899Y1055265D01*
X155901Y1055258D01*
X155897Y1055255D01*
X155751Y1053913D01*
X155753Y1053910D01*
X155751Y1053908D01*
X155751Y1047908D01*
X155753Y1047905D01*
X155751Y1047902D01*
X155906Y1046573D01*
X155912Y1046567D01*
X155909Y1046563D01*
X156356Y1045302D01*
X156363Y1045297D01*
X156361Y1045292D01*
X157078Y1044162D01*
X157085Y1044159D01*
X157084Y1044153D01*
X158035Y1043211D01*
X158043Y1043210D01*
X158043Y1043204D01*
X159179Y1042497D01*
X159187Y1042498D01*
X159189Y1042492D01*
X160454Y1042056D01*
X160459Y1042057D01*
X160460Y1042057D01*
X160463Y1042057D01*
X160465Y1042053D01*
X161795Y1041909D01*
X161801Y1041913D01*
X161805Y1041909D01*
X162971Y1042019D01*
G37*
G36*
X698047Y1042019D02*
X698047Y1042019D01*
X698053Y1042024D01*
X698057Y1042021D01*
X699179Y1042356D01*
X699183Y1042362D01*
X699188Y1042360D01*
X700223Y1042908D01*
X700226Y1042914D01*
X700231Y1042913D01*
X701140Y1043652D01*
X701142Y1043659D01*
X701147Y1043659D01*
X701894Y1044561D01*
X701894Y1044569D01*
X701899Y1044569D01*
X702455Y1045600D01*
X702454Y1045607D01*
X702459Y1045609D01*
X702804Y1046728D01*
X702801Y1046735D01*
X702806Y1046738D01*
X702925Y1047903D01*
X702923Y1047906D01*
X702926Y1047908D01*
X702926Y1053908D01*
X702924Y1053911D01*
X702925Y1053913D01*
X702815Y1055089D01*
X702810Y1055094D01*
X702813Y1055098D01*
X702475Y1056230D01*
X702469Y1056234D01*
X702471Y1056239D01*
X701918Y1057283D01*
X701912Y1057286D01*
X701913Y1057291D01*
X701168Y1058207D01*
X701161Y1058208D01*
X701161Y1058214D01*
X700251Y1058967D01*
X700244Y1058967D01*
X700243Y1058972D01*
X699204Y1059533D01*
X699196Y1059532D01*
X699195Y1059537D01*
X698066Y1059884D01*
X698059Y1059882D01*
X698056Y1059886D01*
X696881Y1060007D01*
X696875Y1060003D01*
X696871Y1060007D01*
X695531Y1059850D01*
X695525Y1059845D01*
X695520Y1059848D01*
X694248Y1059397D01*
X694244Y1059390D01*
X694238Y1059392D01*
X693099Y1058670D01*
X693096Y1058662D01*
X693090Y1058663D01*
X692140Y1057705D01*
X692139Y1057697D01*
X692133Y1057696D01*
X691420Y1056551D01*
X691421Y1056543D01*
X691416Y1056541D01*
X690975Y1055265D01*
X690978Y1055258D01*
X690973Y1055255D01*
X690827Y1053913D01*
X690830Y1053910D01*
X690827Y1053908D01*
X690827Y1047908D01*
X690830Y1047905D01*
X690828Y1047902D01*
X690983Y1046573D01*
X690989Y1046567D01*
X690985Y1046563D01*
X691433Y1045302D01*
X691439Y1045297D01*
X691437Y1045292D01*
X692154Y1044162D01*
X692162Y1044159D01*
X692161Y1044153D01*
X693111Y1043211D01*
X693119Y1043210D01*
X693120Y1043204D01*
X694255Y1042497D01*
X694264Y1042498D01*
X694265Y1042492D01*
X695530Y1042056D01*
X695535Y1042057D01*
X695536Y1042057D01*
X695539Y1042057D01*
X695541Y1042053D01*
X696871Y1041909D01*
X696877Y1041913D01*
X696881Y1041909D01*
X698047Y1042019D01*
G37*
G36*
X249371Y1302521D02*
X249371Y1302521D01*
X249376Y1302526D01*
X249380Y1302523D01*
X250503Y1302858D01*
X250507Y1302864D01*
X250511Y1302862D01*
X251547Y1303410D01*
X251550Y1303417D01*
X251555Y1303415D01*
X252463Y1304155D01*
X252465Y1304162D01*
X252470Y1304161D01*
X253217Y1305064D01*
X253217Y1305071D01*
X253223Y1305072D01*
X253779Y1306102D01*
X253778Y1306110D01*
X253783Y1306111D01*
X254127Y1307231D01*
X254125Y1307238D01*
X254129Y1307240D01*
X254249Y1308405D01*
X254247Y1308409D01*
X254249Y1308410D01*
X254249Y1314410D01*
X254247Y1314413D01*
X254249Y1314415D01*
X254138Y1315591D01*
X254133Y1315596D01*
X254136Y1315600D01*
X253798Y1316732D01*
X253792Y1316736D01*
X253794Y1316741D01*
X253242Y1317785D01*
X253235Y1317788D01*
X253237Y1317793D01*
X252491Y1318709D01*
X252484Y1318711D01*
X252484Y1318716D01*
X251575Y1319469D01*
X251567Y1319469D01*
X251567Y1319474D01*
X250527Y1320036D01*
X250520Y1320034D01*
X250518Y1320039D01*
X249389Y1320387D01*
X249383Y1320384D01*
X249380Y1320389D01*
X248205Y1320509D01*
X248198Y1320505D01*
X248194Y1320509D01*
X246854Y1320353D01*
X246848Y1320347D01*
X246843Y1320350D01*
X245572Y1319899D01*
X245567Y1319892D01*
X245562Y1319895D01*
X244423Y1319172D01*
X244420Y1319164D01*
X244414Y1319165D01*
X243464Y1318207D01*
X243463Y1318199D01*
X243457Y1318198D01*
X242744Y1317053D01*
X242745Y1317045D01*
X242739Y1317043D01*
X242299Y1315768D01*
X242301Y1315760D01*
X242297Y1315757D01*
X242151Y1314416D01*
X242153Y1314412D01*
X242151Y1314410D01*
X242151Y1308410D01*
X242153Y1308407D01*
X242151Y1308405D01*
X242306Y1307076D01*
X242312Y1307070D01*
X242309Y1307065D01*
X242756Y1305804D01*
X242763Y1305799D01*
X242761Y1305794D01*
X243478Y1304664D01*
X243485Y1304661D01*
X243484Y1304656D01*
X244435Y1303713D01*
X244443Y1303712D01*
X244443Y1303707D01*
X245579Y1302999D01*
X245587Y1303000D01*
X245589Y1302995D01*
X246854Y1302558D01*
X246859Y1302560D01*
X246860Y1302559D01*
X246863Y1302559D01*
X246865Y1302556D01*
X248195Y1302411D01*
X248201Y1302415D01*
X248205Y1302411D01*
X249371Y1302521D01*
G37*
G36*
X698047Y781542D02*
X698047Y781542D01*
X698053Y781547D01*
X698057Y781544D01*
X699179Y781879D01*
X699183Y781885D01*
X699188Y781883D01*
X700223Y782431D01*
X700226Y782437D01*
X700231Y782436D01*
X701140Y783175D01*
X701142Y783182D01*
X701147Y783182D01*
X701894Y784084D01*
X701894Y784092D01*
X701899Y784092D01*
X702455Y785123D01*
X702454Y785130D01*
X702459Y785132D01*
X702804Y786251D01*
X702801Y786258D01*
X702806Y786261D01*
X702925Y787426D01*
X702923Y787429D01*
X702926Y787431D01*
X702926Y793431D01*
X702924Y793434D01*
X702925Y793436D01*
X702815Y794612D01*
X702810Y794617D01*
X702813Y794621D01*
X702475Y795753D01*
X702469Y795757D01*
X702471Y795762D01*
X701918Y796806D01*
X701912Y796809D01*
X701913Y796814D01*
X701168Y797730D01*
X701161Y797731D01*
X701161Y797737D01*
X700251Y798490D01*
X700244Y798490D01*
X700243Y798495D01*
X699204Y799056D01*
X699196Y799055D01*
X699195Y799060D01*
X698066Y799407D01*
X698059Y799405D01*
X698056Y799409D01*
X696881Y799530D01*
X696875Y799526D01*
X696871Y799530D01*
X695531Y799373D01*
X695525Y799368D01*
X695520Y799371D01*
X694248Y798920D01*
X694244Y798913D01*
X694238Y798915D01*
X693099Y798193D01*
X693096Y798185D01*
X693090Y798186D01*
X692140Y797228D01*
X692139Y797220D01*
X692133Y797219D01*
X691420Y796074D01*
X691421Y796066D01*
X691416Y796064D01*
X690975Y794788D01*
X690978Y794781D01*
X690973Y794778D01*
X690827Y793436D01*
X690830Y793433D01*
X690827Y793431D01*
X690827Y787431D01*
X690830Y787428D01*
X690828Y787425D01*
X690983Y786096D01*
X690989Y786090D01*
X690985Y786086D01*
X691433Y784825D01*
X691439Y784820D01*
X691437Y784815D01*
X692154Y783685D01*
X692162Y783682D01*
X692161Y783676D01*
X693111Y782734D01*
X693119Y782733D01*
X693120Y782727D01*
X694255Y782020D01*
X694264Y782021D01*
X694265Y782015D01*
X695530Y781579D01*
X695535Y781580D01*
X695536Y781580D01*
X695539Y781580D01*
X695541Y781576D01*
X696871Y781432D01*
X696877Y781436D01*
X696881Y781432D01*
X698047Y781542D01*
G37*
G36*
X162971Y781542D02*
X162971Y781542D01*
X162976Y781547D01*
X162980Y781544D01*
X164103Y781879D01*
X164107Y781885D01*
X164111Y781883D01*
X165147Y782431D01*
X165150Y782437D01*
X165155Y782436D01*
X166063Y783175D01*
X166065Y783182D01*
X166070Y783182D01*
X166817Y784084D01*
X166817Y784092D01*
X166823Y784092D01*
X167379Y785123D01*
X167378Y785130D01*
X167383Y785132D01*
X167727Y786251D01*
X167725Y786258D01*
X167729Y786261D01*
X167849Y787426D01*
X167847Y787429D01*
X167849Y787431D01*
X167849Y793431D01*
X167847Y793434D01*
X167849Y793436D01*
X167738Y794612D01*
X167733Y794617D01*
X167736Y794621D01*
X167398Y795753D01*
X167392Y795757D01*
X167394Y795762D01*
X166842Y796806D01*
X166835Y796809D01*
X166837Y796814D01*
X166091Y797730D01*
X166084Y797731D01*
X166084Y797737D01*
X165175Y798490D01*
X165167Y798490D01*
X165167Y798495D01*
X164127Y799056D01*
X164120Y799055D01*
X164118Y799060D01*
X162989Y799407D01*
X162983Y799405D01*
X162980Y799409D01*
X161805Y799530D01*
X161798Y799526D01*
X161794Y799530D01*
X160454Y799373D01*
X160448Y799368D01*
X160443Y799371D01*
X159172Y798920D01*
X159167Y798913D01*
X159162Y798915D01*
X158023Y798193D01*
X158020Y798185D01*
X158014Y798186D01*
X157064Y797228D01*
X157063Y797220D01*
X157057Y797219D01*
X156344Y796074D01*
X156345Y796066D01*
X156339Y796064D01*
X155899Y794788D01*
X155901Y794781D01*
X155897Y794778D01*
X155751Y793436D01*
X155753Y793433D01*
X155751Y793431D01*
X155751Y787431D01*
X155753Y787428D01*
X155751Y787425D01*
X155906Y786096D01*
X155912Y786090D01*
X155909Y786086D01*
X156356Y784825D01*
X156363Y784820D01*
X156361Y784815D01*
X157078Y783685D01*
X157085Y783682D01*
X157084Y783676D01*
X158035Y782734D01*
X158043Y782733D01*
X158043Y782727D01*
X159179Y782020D01*
X159187Y782021D01*
X159189Y782015D01*
X160454Y781579D01*
X160459Y781580D01*
X160460Y781580D01*
X160463Y781580D01*
X160465Y781576D01*
X161795Y781432D01*
X161801Y781436D01*
X161805Y781432D01*
X162971Y781542D01*
G37*
G36*
X784447Y781542D02*
X784447Y781542D01*
X784453Y781547D01*
X784457Y781544D01*
X785579Y781879D01*
X785583Y781885D01*
X785588Y781883D01*
X786623Y782431D01*
X786626Y782437D01*
X786631Y782436D01*
X787540Y783175D01*
X787542Y783182D01*
X787547Y783182D01*
X788294Y784084D01*
X788294Y784092D01*
X788299Y784092D01*
X788855Y785123D01*
X788854Y785130D01*
X788859Y785132D01*
X789204Y786251D01*
X789201Y786258D01*
X789206Y786261D01*
X789325Y787426D01*
X789323Y787429D01*
X789326Y787431D01*
X789326Y793431D01*
X789324Y793434D01*
X789325Y793436D01*
X789215Y794612D01*
X789210Y794617D01*
X789213Y794621D01*
X788875Y795753D01*
X788869Y795757D01*
X788871Y795762D01*
X788318Y796806D01*
X788312Y796809D01*
X788313Y796814D01*
X787568Y797730D01*
X787561Y797731D01*
X787561Y797737D01*
X786651Y798490D01*
X786644Y798490D01*
X786643Y798495D01*
X785604Y799056D01*
X785596Y799055D01*
X785595Y799060D01*
X784466Y799407D01*
X784459Y799405D01*
X784456Y799409D01*
X783281Y799530D01*
X783275Y799526D01*
X783271Y799530D01*
X781931Y799373D01*
X781925Y799368D01*
X781920Y799371D01*
X780648Y798920D01*
X780644Y798913D01*
X780638Y798915D01*
X779499Y798193D01*
X779496Y798185D01*
X779490Y798186D01*
X778540Y797228D01*
X778539Y797220D01*
X778533Y797219D01*
X777820Y796074D01*
X777821Y796066D01*
X777816Y796064D01*
X777375Y794788D01*
X777378Y794781D01*
X777373Y794778D01*
X777227Y793436D01*
X777230Y793433D01*
X777227Y793431D01*
X777227Y787431D01*
X777230Y787428D01*
X777228Y787425D01*
X777383Y786096D01*
X777389Y786090D01*
X777385Y786086D01*
X777833Y784825D01*
X777839Y784820D01*
X777837Y784815D01*
X778554Y783685D01*
X778562Y783682D01*
X778561Y783676D01*
X779511Y782734D01*
X779519Y782733D01*
X779520Y782727D01*
X780655Y782020D01*
X780664Y782021D01*
X780665Y782015D01*
X781930Y781579D01*
X781935Y781580D01*
X781936Y781580D01*
X781939Y781580D01*
X781941Y781576D01*
X783271Y781432D01*
X783277Y781436D01*
X783281Y781432D01*
X784447Y781542D01*
G37*
G36*
X249371Y781542D02*
X249371Y781542D01*
X249376Y781547D01*
X249380Y781544D01*
X250503Y781879D01*
X250507Y781885D01*
X250511Y781883D01*
X251547Y782431D01*
X251550Y782437D01*
X251555Y782436D01*
X252463Y783175D01*
X252465Y783182D01*
X252470Y783182D01*
X253217Y784084D01*
X253217Y784092D01*
X253223Y784092D01*
X253779Y785123D01*
X253778Y785130D01*
X253783Y785132D01*
X254127Y786251D01*
X254125Y786258D01*
X254129Y786261D01*
X254249Y787426D01*
X254247Y787429D01*
X254249Y787431D01*
X254249Y793431D01*
X254247Y793434D01*
X254249Y793436D01*
X254138Y794612D01*
X254133Y794617D01*
X254136Y794621D01*
X253798Y795753D01*
X253792Y795757D01*
X253794Y795762D01*
X253242Y796806D01*
X253235Y796809D01*
X253237Y796814D01*
X252491Y797730D01*
X252484Y797731D01*
X252484Y797737D01*
X251575Y798490D01*
X251567Y798490D01*
X251567Y798495D01*
X250527Y799056D01*
X250520Y799055D01*
X250518Y799060D01*
X249389Y799407D01*
X249383Y799405D01*
X249380Y799409D01*
X248205Y799530D01*
X248198Y799526D01*
X248194Y799530D01*
X246854Y799373D01*
X246848Y799368D01*
X246843Y799371D01*
X245572Y798920D01*
X245567Y798913D01*
X245562Y798915D01*
X244423Y798193D01*
X244420Y798185D01*
X244414Y798186D01*
X243464Y797228D01*
X243463Y797220D01*
X243457Y797219D01*
X242744Y796074D01*
X242745Y796066D01*
X242739Y796064D01*
X242299Y794788D01*
X242301Y794781D01*
X242297Y794778D01*
X242151Y793436D01*
X242153Y793433D01*
X242151Y793431D01*
X242151Y787431D01*
X242153Y787428D01*
X242151Y787425D01*
X242306Y786096D01*
X242312Y786090D01*
X242309Y786086D01*
X242756Y784825D01*
X242763Y784820D01*
X242761Y784815D01*
X243478Y783685D01*
X243485Y783682D01*
X243484Y783676D01*
X244435Y782734D01*
X244443Y782733D01*
X244443Y782727D01*
X245579Y782020D01*
X245587Y782021D01*
X245589Y782015D01*
X246854Y781579D01*
X246859Y781580D01*
X246860Y781580D01*
X246863Y781580D01*
X246865Y781576D01*
X248195Y781432D01*
X248201Y781436D01*
X248205Y781432D01*
X249371Y781542D01*
G37*
G36*
X249371Y1042019D02*
X249371Y1042019D01*
X249376Y1042024D01*
X249380Y1042021D01*
X250503Y1042356D01*
X250507Y1042362D01*
X250511Y1042360D01*
X251547Y1042908D01*
X251550Y1042914D01*
X251555Y1042913D01*
X252463Y1043652D01*
X252465Y1043659D01*
X252470Y1043659D01*
X253217Y1044561D01*
X253217Y1044569D01*
X253223Y1044569D01*
X253779Y1045600D01*
X253778Y1045607D01*
X253783Y1045609D01*
X254127Y1046728D01*
X254125Y1046735D01*
X254129Y1046738D01*
X254249Y1047903D01*
X254247Y1047906D01*
X254249Y1047908D01*
X254249Y1053908D01*
X254247Y1053911D01*
X254249Y1053913D01*
X254138Y1055089D01*
X254133Y1055094D01*
X254136Y1055098D01*
X253798Y1056230D01*
X253792Y1056234D01*
X253794Y1056239D01*
X253242Y1057283D01*
X253235Y1057286D01*
X253237Y1057291D01*
X252491Y1058207D01*
X252484Y1058208D01*
X252484Y1058214D01*
X251575Y1058967D01*
X251567Y1058967D01*
X251567Y1058972D01*
X250527Y1059533D01*
X250520Y1059532D01*
X250518Y1059537D01*
X249389Y1059884D01*
X249383Y1059882D01*
X249380Y1059886D01*
X248205Y1060007D01*
X248198Y1060003D01*
X248194Y1060007D01*
X246854Y1059850D01*
X246848Y1059845D01*
X246843Y1059848D01*
X245572Y1059397D01*
X245567Y1059390D01*
X245562Y1059392D01*
X244423Y1058670D01*
X244420Y1058662D01*
X244414Y1058663D01*
X243464Y1057705D01*
X243463Y1057697D01*
X243457Y1057696D01*
X242744Y1056551D01*
X242745Y1056543D01*
X242739Y1056541D01*
X242299Y1055265D01*
X242301Y1055258D01*
X242297Y1055255D01*
X242151Y1053913D01*
X242153Y1053910D01*
X242151Y1053908D01*
X242151Y1047908D01*
X242153Y1047905D01*
X242151Y1047902D01*
X242306Y1046573D01*
X242312Y1046567D01*
X242309Y1046563D01*
X242756Y1045302D01*
X242763Y1045297D01*
X242761Y1045292D01*
X243478Y1044162D01*
X243485Y1044159D01*
X243484Y1044153D01*
X244435Y1043211D01*
X244443Y1043210D01*
X244443Y1043204D01*
X245579Y1042497D01*
X245587Y1042498D01*
X245589Y1042492D01*
X246854Y1042056D01*
X246859Y1042057D01*
X246860Y1042057D01*
X246863Y1042057D01*
X246865Y1042053D01*
X248195Y1041909D01*
X248201Y1041913D01*
X248205Y1041909D01*
X249371Y1042019D01*
G37*
G36*
X784447Y521065D02*
X784447Y521065D01*
X784453Y521070D01*
X784457Y521067D01*
X785579Y521402D01*
X785583Y521408D01*
X785588Y521406D01*
X786623Y521954D01*
X786626Y521960D01*
X786631Y521959D01*
X787540Y522698D01*
X787542Y522705D01*
X787547Y522705D01*
X788294Y523607D01*
X788294Y523615D01*
X788299Y523615D01*
X788855Y524646D01*
X788854Y524653D01*
X788859Y524655D01*
X789204Y525774D01*
X789201Y525781D01*
X789206Y525784D01*
X789325Y526949D01*
X789323Y526952D01*
X789326Y526954D01*
X789326Y532954D01*
X789324Y532957D01*
X789325Y532959D01*
X789215Y534135D01*
X789210Y534140D01*
X789213Y534144D01*
X788875Y535276D01*
X788869Y535280D01*
X788871Y535285D01*
X788318Y536329D01*
X788312Y536332D01*
X788313Y536337D01*
X787568Y537253D01*
X787561Y537254D01*
X787561Y537260D01*
X786651Y538013D01*
X786644Y538013D01*
X786643Y538018D01*
X785604Y538579D01*
X785596Y538578D01*
X785595Y538583D01*
X784466Y538930D01*
X784459Y538928D01*
X784456Y538932D01*
X783281Y539053D01*
X783275Y539049D01*
X783271Y539053D01*
X781931Y538896D01*
X781925Y538891D01*
X781920Y538894D01*
X780648Y538443D01*
X780644Y538436D01*
X780638Y538438D01*
X779499Y537716D01*
X779496Y537708D01*
X779490Y537709D01*
X778540Y536751D01*
X778539Y536743D01*
X778533Y536742D01*
X777820Y535597D01*
X777821Y535589D01*
X777816Y535587D01*
X777375Y534311D01*
X777378Y534304D01*
X777373Y534301D01*
X777227Y532959D01*
X777230Y532956D01*
X777227Y532954D01*
X777227Y526954D01*
X777230Y526951D01*
X777228Y526948D01*
X777383Y525619D01*
X777389Y525613D01*
X777385Y525609D01*
X777833Y524348D01*
X777839Y524343D01*
X777837Y524338D01*
X778554Y523208D01*
X778562Y523205D01*
X778561Y523199D01*
X779511Y522257D01*
X779519Y522256D01*
X779520Y522250D01*
X780655Y521543D01*
X780664Y521544D01*
X780665Y521538D01*
X781930Y521102D01*
X781935Y521103D01*
X781936Y521103D01*
X781939Y521103D01*
X781941Y521099D01*
X783271Y520955D01*
X783277Y520959D01*
X783281Y520955D01*
X784447Y521065D01*
G37*
G36*
X249371Y521065D02*
X249371Y521065D01*
X249376Y521070D01*
X249380Y521067D01*
X250503Y521402D01*
X250507Y521408D01*
X250511Y521406D01*
X251547Y521954D01*
X251550Y521960D01*
X251555Y521959D01*
X252463Y522698D01*
X252465Y522705D01*
X252470Y522705D01*
X253217Y523607D01*
X253217Y523615D01*
X253223Y523615D01*
X253779Y524646D01*
X253778Y524653D01*
X253783Y524655D01*
X254127Y525774D01*
X254125Y525781D01*
X254129Y525784D01*
X254249Y526949D01*
X254247Y526952D01*
X254249Y526954D01*
X254249Y532954D01*
X254247Y532957D01*
X254249Y532959D01*
X254138Y534135D01*
X254133Y534140D01*
X254136Y534144D01*
X253798Y535276D01*
X253792Y535280D01*
X253794Y535285D01*
X253242Y536329D01*
X253235Y536332D01*
X253237Y536337D01*
X252491Y537253D01*
X252484Y537254D01*
X252484Y537260D01*
X251575Y538013D01*
X251567Y538013D01*
X251567Y538018D01*
X250527Y538579D01*
X250520Y538578D01*
X250518Y538583D01*
X249389Y538930D01*
X249383Y538928D01*
X249380Y538932D01*
X248205Y539053D01*
X248198Y539049D01*
X248194Y539053D01*
X246854Y538896D01*
X246848Y538891D01*
X246843Y538894D01*
X245572Y538443D01*
X245567Y538436D01*
X245562Y538438D01*
X244423Y537716D01*
X244420Y537708D01*
X244414Y537709D01*
X243464Y536751D01*
X243463Y536743D01*
X243457Y536742D01*
X242744Y535597D01*
X242745Y535589D01*
X242739Y535587D01*
X242299Y534311D01*
X242301Y534304D01*
X242297Y534301D01*
X242151Y532959D01*
X242153Y532956D01*
X242151Y532954D01*
X242151Y526954D01*
X242153Y526951D01*
X242151Y526948D01*
X242306Y525619D01*
X242312Y525613D01*
X242309Y525609D01*
X242756Y524348D01*
X242763Y524343D01*
X242761Y524338D01*
X243478Y523208D01*
X243485Y523205D01*
X243484Y523199D01*
X244435Y522257D01*
X244443Y522256D01*
X244443Y522250D01*
X245579Y521543D01*
X245587Y521544D01*
X245589Y521538D01*
X246854Y521102D01*
X246859Y521103D01*
X246860Y521103D01*
X246863Y521103D01*
X246865Y521099D01*
X248195Y520955D01*
X248201Y520959D01*
X248205Y520955D01*
X249371Y521065D01*
G37*
G36*
X162971Y521065D02*
X162971Y521065D01*
X162976Y521070D01*
X162980Y521067D01*
X164103Y521402D01*
X164107Y521408D01*
X164111Y521406D01*
X165147Y521954D01*
X165150Y521960D01*
X165155Y521959D01*
X166063Y522698D01*
X166065Y522705D01*
X166070Y522705D01*
X166817Y523607D01*
X166817Y523615D01*
X166823Y523615D01*
X167379Y524646D01*
X167378Y524653D01*
X167383Y524655D01*
X167727Y525774D01*
X167725Y525781D01*
X167729Y525784D01*
X167849Y526949D01*
X167847Y526952D01*
X167849Y526954D01*
X167849Y532954D01*
X167847Y532957D01*
X167849Y532959D01*
X167738Y534135D01*
X167733Y534140D01*
X167736Y534144D01*
X167398Y535276D01*
X167392Y535280D01*
X167394Y535285D01*
X166842Y536329D01*
X166835Y536332D01*
X166837Y536337D01*
X166091Y537253D01*
X166084Y537254D01*
X166084Y537260D01*
X165175Y538013D01*
X165167Y538013D01*
X165167Y538018D01*
X164127Y538579D01*
X164120Y538578D01*
X164118Y538583D01*
X162989Y538930D01*
X162983Y538928D01*
X162980Y538932D01*
X161805Y539053D01*
X161798Y539049D01*
X161794Y539053D01*
X160454Y538896D01*
X160448Y538891D01*
X160443Y538894D01*
X159172Y538443D01*
X159167Y538436D01*
X159162Y538438D01*
X158023Y537716D01*
X158020Y537708D01*
X158014Y537709D01*
X157064Y536751D01*
X157063Y536743D01*
X157057Y536742D01*
X156344Y535597D01*
X156345Y535589D01*
X156339Y535587D01*
X155899Y534311D01*
X155901Y534304D01*
X155897Y534301D01*
X155751Y532959D01*
X155753Y532956D01*
X155751Y532954D01*
X155751Y526954D01*
X155753Y526951D01*
X155751Y526948D01*
X155906Y525619D01*
X155912Y525613D01*
X155909Y525609D01*
X156356Y524348D01*
X156363Y524343D01*
X156361Y524338D01*
X157078Y523208D01*
X157085Y523205D01*
X157084Y523199D01*
X158035Y522257D01*
X158043Y522256D01*
X158043Y522250D01*
X159179Y521543D01*
X159187Y521544D01*
X159189Y521538D01*
X160454Y521102D01*
X160459Y521103D01*
X160460Y521103D01*
X160463Y521103D01*
X160465Y521099D01*
X161795Y520955D01*
X161801Y520959D01*
X161805Y520955D01*
X162971Y521065D01*
G37*
G36*
X698047Y521065D02*
X698047Y521065D01*
X698053Y521070D01*
X698057Y521067D01*
X699179Y521402D01*
X699183Y521408D01*
X699188Y521406D01*
X700223Y521954D01*
X700226Y521960D01*
X700231Y521959D01*
X701140Y522698D01*
X701142Y522705D01*
X701147Y522705D01*
X701894Y523607D01*
X701894Y523615D01*
X701899Y523615D01*
X702455Y524646D01*
X702454Y524653D01*
X702459Y524655D01*
X702804Y525774D01*
X702801Y525781D01*
X702806Y525784D01*
X702925Y526949D01*
X702923Y526952D01*
X702926Y526954D01*
X702926Y532954D01*
X702924Y532957D01*
X702925Y532959D01*
X702815Y534135D01*
X702810Y534140D01*
X702813Y534144D01*
X702475Y535276D01*
X702469Y535280D01*
X702471Y535285D01*
X701918Y536329D01*
X701912Y536332D01*
X701913Y536337D01*
X701168Y537253D01*
X701161Y537254D01*
X701161Y537260D01*
X700251Y538013D01*
X700244Y538013D01*
X700243Y538018D01*
X699204Y538579D01*
X699196Y538578D01*
X699195Y538583D01*
X698066Y538930D01*
X698059Y538928D01*
X698056Y538932D01*
X696881Y539053D01*
X696875Y539049D01*
X696871Y539053D01*
X695531Y538896D01*
X695525Y538891D01*
X695520Y538894D01*
X694248Y538443D01*
X694244Y538436D01*
X694238Y538438D01*
X693099Y537716D01*
X693096Y537708D01*
X693090Y537709D01*
X692140Y536751D01*
X692139Y536743D01*
X692133Y536742D01*
X691420Y535597D01*
X691421Y535589D01*
X691416Y535587D01*
X690975Y534311D01*
X690978Y534304D01*
X690973Y534301D01*
X690827Y532959D01*
X690830Y532956D01*
X690827Y532954D01*
X690827Y526954D01*
X690830Y526951D01*
X690828Y526948D01*
X690983Y525619D01*
X690989Y525613D01*
X690985Y525609D01*
X691433Y524348D01*
X691439Y524343D01*
X691437Y524338D01*
X692154Y523208D01*
X692162Y523205D01*
X692161Y523199D01*
X693111Y522257D01*
X693119Y522256D01*
X693120Y522250D01*
X694255Y521543D01*
X694264Y521544D01*
X694265Y521538D01*
X695530Y521102D01*
X695535Y521103D01*
X695536Y521103D01*
X695539Y521103D01*
X695541Y521099D01*
X696871Y520955D01*
X696877Y520959D01*
X696881Y520955D01*
X698047Y521065D01*
G37*
G36*
X784447Y260588D02*
X784447Y260588D01*
X784453Y260593D01*
X784457Y260590D01*
X785579Y260925D01*
X785583Y260931D01*
X785588Y260929D01*
X786623Y261477D01*
X786626Y261483D01*
X786631Y261482D01*
X787540Y262221D01*
X787542Y262228D01*
X787547Y262228D01*
X788294Y263130D01*
X788294Y263138D01*
X788299Y263138D01*
X788855Y264169D01*
X788854Y264176D01*
X788859Y264178D01*
X789204Y265297D01*
X789201Y265304D01*
X789206Y265307D01*
X789325Y266472D01*
X789323Y266475D01*
X789326Y266477D01*
X789326Y272477D01*
X789324Y272480D01*
X789325Y272482D01*
X789215Y273658D01*
X789210Y273663D01*
X789213Y273667D01*
X788875Y274799D01*
X788869Y274803D01*
X788871Y274808D01*
X788318Y275852D01*
X788312Y275855D01*
X788313Y275860D01*
X787568Y276776D01*
X787561Y276777D01*
X787561Y276783D01*
X786651Y277536D01*
X786644Y277536D01*
X786643Y277541D01*
X785604Y278102D01*
X785596Y278101D01*
X785595Y278106D01*
X784466Y278453D01*
X784459Y278451D01*
X784456Y278455D01*
X783281Y278576D01*
X783275Y278572D01*
X783271Y278576D01*
X781931Y278419D01*
X781925Y278414D01*
X781920Y278417D01*
X780648Y277966D01*
X780644Y277959D01*
X780638Y277961D01*
X779499Y277239D01*
X779496Y277231D01*
X779490Y277232D01*
X778540Y276274D01*
X778539Y276266D01*
X778533Y276265D01*
X777820Y275120D01*
X777821Y275112D01*
X777816Y275110D01*
X777375Y273834D01*
X777378Y273827D01*
X777373Y273824D01*
X777227Y272482D01*
X777230Y272479D01*
X777227Y272477D01*
X777227Y266477D01*
X777230Y266474D01*
X777228Y266471D01*
X777383Y265142D01*
X777389Y265136D01*
X777385Y265132D01*
X777833Y263871D01*
X777839Y263866D01*
X777837Y263861D01*
X778554Y262731D01*
X778562Y262728D01*
X778561Y262722D01*
X779511Y261780D01*
X779519Y261779D01*
X779520Y261773D01*
X780655Y261066D01*
X780664Y261067D01*
X780665Y261061D01*
X781930Y260625D01*
X781935Y260626D01*
X781936Y260626D01*
X781939Y260626D01*
X781941Y260622D01*
X783271Y260478D01*
X783277Y260482D01*
X783281Y260478D01*
X784447Y260588D01*
G37*
G36*
X162971Y260588D02*
X162971Y260588D01*
X162976Y260593D01*
X162980Y260590D01*
X164103Y260925D01*
X164107Y260931D01*
X164111Y260929D01*
X165147Y261477D01*
X165150Y261483D01*
X165155Y261482D01*
X166063Y262221D01*
X166065Y262228D01*
X166070Y262228D01*
X166817Y263130D01*
X166817Y263138D01*
X166823Y263138D01*
X167379Y264169D01*
X167378Y264176D01*
X167383Y264178D01*
X167727Y265297D01*
X167725Y265304D01*
X167729Y265307D01*
X167849Y266472D01*
X167847Y266475D01*
X167849Y266477D01*
X167849Y272477D01*
X167847Y272480D01*
X167849Y272482D01*
X167738Y273658D01*
X167733Y273663D01*
X167736Y273667D01*
X167398Y274799D01*
X167392Y274803D01*
X167394Y274808D01*
X166842Y275852D01*
X166835Y275855D01*
X166837Y275860D01*
X166091Y276776D01*
X166084Y276777D01*
X166084Y276783D01*
X165175Y277536D01*
X165167Y277536D01*
X165167Y277541D01*
X164127Y278102D01*
X164120Y278101D01*
X164118Y278106D01*
X162989Y278453D01*
X162983Y278451D01*
X162980Y278455D01*
X161805Y278576D01*
X161798Y278572D01*
X161794Y278576D01*
X160454Y278419D01*
X160448Y278414D01*
X160443Y278417D01*
X159172Y277966D01*
X159167Y277959D01*
X159162Y277961D01*
X158023Y277239D01*
X158020Y277231D01*
X158014Y277232D01*
X157064Y276274D01*
X157063Y276266D01*
X157057Y276265D01*
X156344Y275120D01*
X156345Y275112D01*
X156339Y275110D01*
X155899Y273834D01*
X155901Y273827D01*
X155897Y273824D01*
X155751Y272482D01*
X155753Y272479D01*
X155751Y272477D01*
X155751Y266477D01*
X155753Y266474D01*
X155751Y266471D01*
X155906Y265142D01*
X155912Y265136D01*
X155909Y265132D01*
X156356Y263871D01*
X156363Y263866D01*
X156361Y263861D01*
X157078Y262731D01*
X157085Y262728D01*
X157084Y262722D01*
X158035Y261780D01*
X158043Y261779D01*
X158043Y261773D01*
X159179Y261066D01*
X159187Y261067D01*
X159189Y261061D01*
X160454Y260625D01*
X160459Y260626D01*
X160460Y260626D01*
X160463Y260626D01*
X160465Y260622D01*
X161795Y260478D01*
X161801Y260482D01*
X161805Y260478D01*
X162971Y260588D01*
G37*
G36*
X698047Y260588D02*
X698047Y260588D01*
X698053Y260593D01*
X698057Y260590D01*
X699179Y260925D01*
X699183Y260931D01*
X699188Y260929D01*
X700223Y261477D01*
X700226Y261483D01*
X700231Y261482D01*
X701140Y262221D01*
X701142Y262228D01*
X701147Y262228D01*
X701894Y263130D01*
X701894Y263138D01*
X701899Y263138D01*
X702455Y264169D01*
X702454Y264176D01*
X702459Y264178D01*
X702804Y265297D01*
X702801Y265304D01*
X702806Y265307D01*
X702925Y266472D01*
X702923Y266475D01*
X702926Y266477D01*
X702926Y272477D01*
X702924Y272480D01*
X702925Y272482D01*
X702815Y273658D01*
X702810Y273663D01*
X702813Y273667D01*
X702475Y274799D01*
X702469Y274803D01*
X702471Y274808D01*
X701918Y275852D01*
X701912Y275855D01*
X701913Y275860D01*
X701168Y276776D01*
X701161Y276777D01*
X701161Y276783D01*
X700251Y277536D01*
X700244Y277536D01*
X700243Y277541D01*
X699204Y278102D01*
X699196Y278101D01*
X699195Y278106D01*
X698066Y278453D01*
X698059Y278451D01*
X698056Y278455D01*
X696881Y278576D01*
X696875Y278572D01*
X696871Y278576D01*
X695531Y278419D01*
X695525Y278414D01*
X695520Y278417D01*
X694248Y277966D01*
X694244Y277959D01*
X694238Y277961D01*
X693099Y277239D01*
X693096Y277231D01*
X693090Y277232D01*
X692140Y276274D01*
X692139Y276266D01*
X692133Y276265D01*
X691420Y275120D01*
X691421Y275112D01*
X691416Y275110D01*
X690975Y273834D01*
X690978Y273827D01*
X690973Y273824D01*
X690827Y272482D01*
X690830Y272479D01*
X690827Y272477D01*
X690827Y266477D01*
X690830Y266474D01*
X690828Y266471D01*
X690983Y265142D01*
X690989Y265136D01*
X690985Y265132D01*
X691433Y263871D01*
X691439Y263866D01*
X691437Y263861D01*
X692154Y262731D01*
X692162Y262728D01*
X692161Y262722D01*
X693111Y261780D01*
X693119Y261779D01*
X693120Y261773D01*
X694255Y261066D01*
X694264Y261067D01*
X694265Y261061D01*
X695530Y260625D01*
X695535Y260626D01*
X695536Y260626D01*
X695539Y260626D01*
X695541Y260622D01*
X696871Y260478D01*
X696877Y260482D01*
X696881Y260478D01*
X698047Y260588D01*
G37*
G36*
X249371Y260588D02*
X249371Y260588D01*
X249376Y260593D01*
X249380Y260590D01*
X250503Y260925D01*
X250507Y260931D01*
X250511Y260929D01*
X251547Y261477D01*
X251550Y261483D01*
X251555Y261482D01*
X252463Y262221D01*
X252465Y262228D01*
X252470Y262228D01*
X253217Y263130D01*
X253217Y263138D01*
X253223Y263138D01*
X253779Y264169D01*
X253778Y264176D01*
X253783Y264178D01*
X254127Y265297D01*
X254125Y265304D01*
X254129Y265307D01*
X254249Y266472D01*
X254247Y266475D01*
X254249Y266477D01*
X254249Y272477D01*
X254247Y272480D01*
X254249Y272482D01*
X254138Y273658D01*
X254133Y273663D01*
X254136Y273667D01*
X253798Y274799D01*
X253792Y274803D01*
X253794Y274808D01*
X253242Y275852D01*
X253235Y275855D01*
X253237Y275860D01*
X252491Y276776D01*
X252484Y276777D01*
X252484Y276783D01*
X251575Y277536D01*
X251567Y277536D01*
X251567Y277541D01*
X250527Y278102D01*
X250520Y278101D01*
X250518Y278106D01*
X249389Y278453D01*
X249383Y278451D01*
X249380Y278455D01*
X248205Y278576D01*
X248198Y278572D01*
X248194Y278576D01*
X246854Y278419D01*
X246848Y278414D01*
X246843Y278417D01*
X245572Y277966D01*
X245567Y277959D01*
X245562Y277961D01*
X244423Y277239D01*
X244420Y277231D01*
X244414Y277232D01*
X243464Y276274D01*
X243463Y276266D01*
X243457Y276265D01*
X242744Y275120D01*
X242745Y275112D01*
X242739Y275110D01*
X242299Y273834D01*
X242301Y273827D01*
X242297Y273824D01*
X242151Y272482D01*
X242153Y272479D01*
X242151Y272477D01*
X242151Y266477D01*
X242153Y266474D01*
X242151Y266471D01*
X242306Y265142D01*
X242312Y265136D01*
X242309Y265132D01*
X242756Y263871D01*
X242763Y263866D01*
X242761Y263861D01*
X243478Y262731D01*
X243485Y262728D01*
X243484Y262722D01*
X244435Y261780D01*
X244443Y261779D01*
X244443Y261773D01*
X245579Y261066D01*
X245587Y261067D01*
X245589Y261061D01*
X246854Y260625D01*
X246859Y260626D01*
X246860Y260626D01*
X246863Y260626D01*
X246865Y260622D01*
X248195Y260478D01*
X248201Y260482D01*
X248205Y260478D01*
X249371Y260588D01*
G37*
G36*
X698047Y1562998D02*
X698047Y1562998D01*
X698053Y1563003D01*
X698057Y1563000D01*
X699179Y1563335D01*
X699183Y1563341D01*
X699188Y1563339D01*
X700223Y1563887D01*
X700226Y1563894D01*
X700231Y1563892D01*
X701140Y1564632D01*
X701142Y1564639D01*
X701147Y1564638D01*
X701894Y1565541D01*
X701894Y1565548D01*
X701899Y1565549D01*
X702455Y1566579D01*
X702454Y1566587D01*
X702459Y1566588D01*
X702804Y1567708D01*
X702801Y1567715D01*
X702806Y1567717D01*
X702925Y1568882D01*
X702923Y1568886D01*
X702926Y1568887D01*
X702926Y1574887D01*
X702924Y1574890D01*
X702925Y1574892D01*
X702815Y1576068D01*
X702810Y1576073D01*
X702813Y1576077D01*
X702475Y1577209D01*
X702469Y1577213D01*
X702471Y1577218D01*
X701918Y1578262D01*
X701912Y1578265D01*
X701913Y1578270D01*
X701168Y1579186D01*
X701161Y1579188D01*
X701161Y1579193D01*
X700251Y1579946D01*
X700244Y1579946D01*
X700243Y1579951D01*
X699204Y1580513D01*
X699196Y1580511D01*
X699195Y1580516D01*
X698066Y1580864D01*
X698059Y1580861D01*
X698056Y1580866D01*
X696881Y1580986D01*
X696875Y1580982D01*
X696871Y1580986D01*
X695531Y1580830D01*
X695525Y1580824D01*
X695520Y1580827D01*
X694248Y1580376D01*
X694244Y1580369D01*
X694238Y1580372D01*
X693099Y1579649D01*
X693096Y1579641D01*
X693090Y1579642D01*
X692140Y1578684D01*
X692139Y1578676D01*
X692133Y1578675D01*
X691420Y1577530D01*
X691421Y1577522D01*
X691416Y1577520D01*
X690975Y1576245D01*
X690978Y1576237D01*
X690973Y1576234D01*
X690827Y1574893D01*
X690830Y1574889D01*
X690827Y1574887D01*
X690827Y1568887D01*
X690830Y1568884D01*
X690828Y1568882D01*
X690983Y1567553D01*
X690989Y1567547D01*
X690985Y1567542D01*
X691433Y1566281D01*
X691439Y1566276D01*
X691437Y1566271D01*
X692154Y1565141D01*
X692162Y1565138D01*
X692161Y1565133D01*
X693111Y1564190D01*
X693119Y1564189D01*
X693120Y1564184D01*
X694255Y1563476D01*
X694264Y1563477D01*
X694265Y1563472D01*
X695530Y1563035D01*
X695535Y1563037D01*
X695536Y1563036D01*
X695539Y1563036D01*
X695541Y1563033D01*
X696871Y1562888D01*
X696877Y1562892D01*
X696881Y1562888D01*
X698047Y1562998D01*
G37*
G36*
X784447Y1562998D02*
X784447Y1562998D01*
X784453Y1563003D01*
X784457Y1563000D01*
X785579Y1563335D01*
X785583Y1563341D01*
X785588Y1563339D01*
X786623Y1563887D01*
X786626Y1563894D01*
X786631Y1563892D01*
X787540Y1564632D01*
X787542Y1564639D01*
X787547Y1564638D01*
X788294Y1565541D01*
X788294Y1565548D01*
X788299Y1565549D01*
X788855Y1566579D01*
X788854Y1566587D01*
X788859Y1566588D01*
X789204Y1567708D01*
X789201Y1567715D01*
X789206Y1567717D01*
X789325Y1568882D01*
X789323Y1568886D01*
X789326Y1568887D01*
X789326Y1574887D01*
X789324Y1574890D01*
X789325Y1574892D01*
X789215Y1576068D01*
X789210Y1576073D01*
X789213Y1576077D01*
X788875Y1577209D01*
X788869Y1577213D01*
X788871Y1577218D01*
X788318Y1578262D01*
X788312Y1578265D01*
X788313Y1578270D01*
X787568Y1579186D01*
X787561Y1579188D01*
X787561Y1579193D01*
X786651Y1579946D01*
X786644Y1579946D01*
X786643Y1579951D01*
X785604Y1580513D01*
X785596Y1580511D01*
X785595Y1580516D01*
X784466Y1580864D01*
X784459Y1580861D01*
X784456Y1580866D01*
X783281Y1580986D01*
X783275Y1580982D01*
X783271Y1580986D01*
X781931Y1580830D01*
X781925Y1580824D01*
X781920Y1580827D01*
X780648Y1580376D01*
X780644Y1580369D01*
X780638Y1580372D01*
X779499Y1579649D01*
X779496Y1579641D01*
X779490Y1579642D01*
X778540Y1578684D01*
X778539Y1578676D01*
X778533Y1578675D01*
X777820Y1577530D01*
X777821Y1577522D01*
X777816Y1577520D01*
X777375Y1576245D01*
X777378Y1576237D01*
X777373Y1576234D01*
X777227Y1574893D01*
X777230Y1574889D01*
X777227Y1574887D01*
X777227Y1568887D01*
X777230Y1568884D01*
X777228Y1568882D01*
X777383Y1567553D01*
X777389Y1567547D01*
X777385Y1567542D01*
X777833Y1566281D01*
X777839Y1566276D01*
X777837Y1566271D01*
X778554Y1565141D01*
X778562Y1565138D01*
X778561Y1565133D01*
X779511Y1564190D01*
X779519Y1564189D01*
X779520Y1564184D01*
X780655Y1563476D01*
X780664Y1563477D01*
X780665Y1563472D01*
X781930Y1563035D01*
X781935Y1563037D01*
X781936Y1563036D01*
X781939Y1563036D01*
X781941Y1563033D01*
X783271Y1562888D01*
X783277Y1562892D01*
X783281Y1562888D01*
X784447Y1562998D01*
G37*
G36*
X162971Y1562998D02*
X162971Y1562998D01*
X162976Y1563003D01*
X162980Y1563000D01*
X164103Y1563335D01*
X164107Y1563341D01*
X164111Y1563339D01*
X165147Y1563887D01*
X165150Y1563894D01*
X165155Y1563892D01*
X166063Y1564632D01*
X166065Y1564639D01*
X166070Y1564638D01*
X166817Y1565541D01*
X166817Y1565548D01*
X166823Y1565549D01*
X167379Y1566579D01*
X167378Y1566587D01*
X167383Y1566588D01*
X167727Y1567708D01*
X167725Y1567715D01*
X167729Y1567717D01*
X167849Y1568882D01*
X167847Y1568886D01*
X167849Y1568887D01*
X167849Y1574887D01*
X167847Y1574890D01*
X167849Y1574892D01*
X167738Y1576068D01*
X167733Y1576073D01*
X167736Y1576077D01*
X167398Y1577209D01*
X167392Y1577213D01*
X167394Y1577218D01*
X166842Y1578262D01*
X166835Y1578265D01*
X166837Y1578270D01*
X166091Y1579186D01*
X166084Y1579188D01*
X166084Y1579193D01*
X165175Y1579946D01*
X165167Y1579946D01*
X165167Y1579951D01*
X164127Y1580513D01*
X164120Y1580511D01*
X164118Y1580516D01*
X162989Y1580864D01*
X162983Y1580861D01*
X162980Y1580866D01*
X161805Y1580986D01*
X161798Y1580982D01*
X161794Y1580986D01*
X160454Y1580830D01*
X160448Y1580824D01*
X160443Y1580827D01*
X159172Y1580376D01*
X159167Y1580369D01*
X159162Y1580372D01*
X158023Y1579649D01*
X158020Y1579641D01*
X158014Y1579642D01*
X157064Y1578684D01*
X157063Y1578676D01*
X157057Y1578675D01*
X156344Y1577530D01*
X156345Y1577522D01*
X156339Y1577520D01*
X155899Y1576245D01*
X155901Y1576237D01*
X155897Y1576234D01*
X155751Y1574893D01*
X155753Y1574889D01*
X155751Y1574887D01*
X155751Y1568887D01*
X155753Y1568884D01*
X155751Y1568882D01*
X155906Y1567553D01*
X155912Y1567547D01*
X155909Y1567542D01*
X156356Y1566281D01*
X156363Y1566276D01*
X156361Y1566271D01*
X157078Y1565141D01*
X157085Y1565138D01*
X157084Y1565133D01*
X158035Y1564190D01*
X158043Y1564189D01*
X158043Y1564184D01*
X159179Y1563476D01*
X159187Y1563477D01*
X159189Y1563472D01*
X160454Y1563035D01*
X160459Y1563037D01*
X160460Y1563036D01*
X160463Y1563036D01*
X160465Y1563033D01*
X161795Y1562888D01*
X161801Y1562892D01*
X161805Y1562888D01*
X162971Y1562998D01*
G37*
G36*
X249371Y111D02*
X249371Y111D01*
X249376Y116D01*
X249380Y113D01*
X250503Y448D01*
X250507Y454D01*
X250511Y452D01*
X251547Y1000D01*
X251550Y1006D01*
X251555Y1005D01*
X252463Y1744D01*
X252465Y1751D01*
X252470Y1751D01*
X253217Y2653D01*
X253217Y2661D01*
X253223Y2661D01*
X253779Y3692D01*
X253778Y3699D01*
X253783Y3701D01*
X254127Y4820D01*
X254125Y4827D01*
X254129Y4830D01*
X254249Y5995D01*
X254247Y5998D01*
X254249Y6000D01*
X254249Y12000D01*
X254247Y12003D01*
X254249Y12005D01*
X254138Y13181D01*
X254133Y13186D01*
X254136Y13190D01*
X253798Y14322D01*
X253792Y14326D01*
X253794Y14331D01*
X253242Y15375D01*
X253235Y15378D01*
X253237Y15383D01*
X252491Y16299D01*
X252484Y16300D01*
X252484Y16306D01*
X251575Y17059D01*
X251567Y17059D01*
X251567Y17064D01*
X250527Y17625D01*
X250520Y17624D01*
X250518Y17629D01*
X249389Y17976D01*
X249383Y17974D01*
X249380Y17978D01*
X248205Y18099D01*
X248198Y18095D01*
X248194Y18099D01*
X246854Y17942D01*
X246848Y17937D01*
X246843Y17940D01*
X245572Y17489D01*
X245567Y17482D01*
X245562Y17484D01*
X244423Y16762D01*
X244420Y16754D01*
X244414Y16755D01*
X243464Y15797D01*
X243463Y15789D01*
X243457Y15788D01*
X242744Y14643D01*
X242745Y14635D01*
X242739Y14633D01*
X242299Y13357D01*
X242301Y13350D01*
X242297Y13347D01*
X242151Y12005D01*
X242153Y12002D01*
X242151Y12000D01*
X242151Y6000D01*
X242153Y5997D01*
X242151Y5994D01*
X242306Y4665D01*
X242312Y4659D01*
X242309Y4655D01*
X242756Y3394D01*
X242763Y3389D01*
X242761Y3384D01*
X243478Y2254D01*
X243485Y2251D01*
X243484Y2245D01*
X244435Y1303D01*
X244443Y1302D01*
X244443Y1296D01*
X245579Y589D01*
X245587Y590D01*
X245589Y584D01*
X246854Y148D01*
X246859Y149D01*
X246860Y148D01*
X246863Y148D01*
X246865Y145D01*
X248195Y1D01*
X248201Y5D01*
X248205Y1D01*
X249371Y111D01*
G37*
G36*
X698047Y111D02*
X698047Y111D01*
X698053Y116D01*
X698057Y113D01*
X699179Y448D01*
X699183Y454D01*
X699188Y452D01*
X700223Y1000D01*
X700226Y1006D01*
X700231Y1005D01*
X701140Y1744D01*
X701142Y1751D01*
X701147Y1751D01*
X701894Y2653D01*
X701894Y2661D01*
X701899Y2661D01*
X702455Y3692D01*
X702454Y3699D01*
X702459Y3701D01*
X702804Y4820D01*
X702801Y4827D01*
X702806Y4830D01*
X702925Y5995D01*
X702923Y5998D01*
X702926Y6000D01*
X702926Y12000D01*
X702924Y12003D01*
X702925Y12005D01*
X702815Y13181D01*
X702810Y13186D01*
X702813Y13190D01*
X702475Y14322D01*
X702469Y14326D01*
X702471Y14331D01*
X701918Y15375D01*
X701912Y15378D01*
X701913Y15383D01*
X701168Y16299D01*
X701161Y16300D01*
X701161Y16306D01*
X700251Y17059D01*
X700244Y17059D01*
X700243Y17064D01*
X699204Y17625D01*
X699196Y17624D01*
X699195Y17629D01*
X698066Y17976D01*
X698059Y17974D01*
X698056Y17978D01*
X696881Y18099D01*
X696875Y18095D01*
X696871Y18099D01*
X695531Y17942D01*
X695525Y17937D01*
X695520Y17940D01*
X694248Y17489D01*
X694244Y17482D01*
X694238Y17484D01*
X693099Y16762D01*
X693096Y16754D01*
X693090Y16755D01*
X692140Y15797D01*
X692139Y15789D01*
X692133Y15788D01*
X691420Y14643D01*
X691421Y14635D01*
X691416Y14633D01*
X690975Y13357D01*
X690978Y13350D01*
X690973Y13347D01*
X690827Y12005D01*
X690830Y12002D01*
X690827Y12000D01*
X690827Y6000D01*
X690830Y5997D01*
X690828Y5994D01*
X690983Y4665D01*
X690989Y4659D01*
X690985Y4655D01*
X691433Y3394D01*
X691439Y3389D01*
X691437Y3384D01*
X692154Y2254D01*
X692162Y2251D01*
X692161Y2245D01*
X693111Y1303D01*
X693119Y1302D01*
X693120Y1296D01*
X694255Y589D01*
X694264Y590D01*
X694265Y584D01*
X695530Y148D01*
X695535Y149D01*
X695536Y148D01*
X695539Y148D01*
X695541Y145D01*
X696871Y1D01*
X696877Y5D01*
X696881Y1D01*
X698047Y111D01*
G37*
G36*
X784447Y111D02*
X784447Y111D01*
X784453Y116D01*
X784457Y113D01*
X785579Y448D01*
X785583Y454D01*
X785588Y452D01*
X786623Y1000D01*
X786626Y1006D01*
X786631Y1005D01*
X787540Y1744D01*
X787542Y1751D01*
X787547Y1751D01*
X788294Y2653D01*
X788294Y2661D01*
X788299Y2661D01*
X788855Y3692D01*
X788854Y3699D01*
X788859Y3701D01*
X789204Y4820D01*
X789201Y4827D01*
X789206Y4830D01*
X789325Y5995D01*
X789323Y5998D01*
X789326Y6000D01*
X789326Y12000D01*
X789324Y12003D01*
X789325Y12005D01*
X789215Y13181D01*
X789210Y13186D01*
X789213Y13190D01*
X788875Y14322D01*
X788869Y14326D01*
X788871Y14331D01*
X788318Y15375D01*
X788312Y15378D01*
X788313Y15383D01*
X787568Y16299D01*
X787561Y16300D01*
X787561Y16306D01*
X786651Y17059D01*
X786644Y17059D01*
X786643Y17064D01*
X785604Y17625D01*
X785596Y17624D01*
X785595Y17629D01*
X784466Y17976D01*
X784459Y17974D01*
X784456Y17978D01*
X783281Y18099D01*
X783275Y18095D01*
X783271Y18099D01*
X781931Y17942D01*
X781925Y17937D01*
X781920Y17940D01*
X780648Y17489D01*
X780644Y17482D01*
X780638Y17484D01*
X779499Y16762D01*
X779496Y16754D01*
X779490Y16755D01*
X778540Y15797D01*
X778539Y15789D01*
X778533Y15788D01*
X777820Y14643D01*
X777821Y14635D01*
X777816Y14633D01*
X777375Y13357D01*
X777378Y13350D01*
X777373Y13347D01*
X777227Y12005D01*
X777230Y12002D01*
X777227Y12000D01*
X777227Y6000D01*
X777230Y5997D01*
X777228Y5994D01*
X777383Y4665D01*
X777389Y4659D01*
X777385Y4655D01*
X777833Y3394D01*
X777839Y3389D01*
X777837Y3384D01*
X778554Y2254D01*
X778562Y2251D01*
X778561Y2245D01*
X779511Y1303D01*
X779519Y1302D01*
X779520Y1296D01*
X780655Y589D01*
X780664Y590D01*
X780665Y584D01*
X781930Y148D01*
X781935Y149D01*
X781936Y148D01*
X781939Y148D01*
X781941Y145D01*
X783271Y1D01*
X783277Y5D01*
X783281Y1D01*
X784447Y111D01*
G37*
G36*
X162971Y111D02*
X162971Y111D01*
X162976Y116D01*
X162980Y113D01*
X164103Y448D01*
X164107Y454D01*
X164111Y452D01*
X165147Y1000D01*
X165150Y1006D01*
X165155Y1005D01*
X166063Y1744D01*
X166065Y1751D01*
X166070Y1751D01*
X166817Y2653D01*
X166817Y2661D01*
X166823Y2661D01*
X167379Y3692D01*
X167378Y3699D01*
X167383Y3701D01*
X167727Y4820D01*
X167725Y4827D01*
X167729Y4830D01*
X167849Y5995D01*
X167847Y5998D01*
X167849Y6000D01*
X167849Y12000D01*
X167847Y12003D01*
X167849Y12005D01*
X167738Y13181D01*
X167733Y13186D01*
X167736Y13190D01*
X167398Y14322D01*
X167392Y14326D01*
X167394Y14331D01*
X166842Y15375D01*
X166835Y15378D01*
X166837Y15383D01*
X166091Y16299D01*
X166084Y16300D01*
X166084Y16306D01*
X165175Y17059D01*
X165167Y17059D01*
X165167Y17064D01*
X164127Y17625D01*
X164120Y17624D01*
X164118Y17629D01*
X162989Y17976D01*
X162983Y17974D01*
X162980Y17978D01*
X161805Y18099D01*
X161798Y18095D01*
X161794Y18099D01*
X160454Y17942D01*
X160448Y17937D01*
X160443Y17940D01*
X159172Y17489D01*
X159167Y17482D01*
X159162Y17484D01*
X158023Y16762D01*
X158020Y16754D01*
X158014Y16755D01*
X157064Y15797D01*
X157063Y15789D01*
X157057Y15788D01*
X156344Y14643D01*
X156345Y14635D01*
X156339Y14633D01*
X155899Y13357D01*
X155901Y13350D01*
X155897Y13347D01*
X155751Y12005D01*
X155753Y12002D01*
X155751Y12000D01*
X155751Y6000D01*
X155753Y5997D01*
X155751Y5994D01*
X155906Y4665D01*
X155912Y4659D01*
X155909Y4655D01*
X156356Y3394D01*
X156363Y3389D01*
X156361Y3384D01*
X157078Y2254D01*
X157085Y2251D01*
X157084Y2245D01*
X158035Y1303D01*
X158043Y1302D01*
X158043Y1296D01*
X159179Y589D01*
X159187Y590D01*
X159189Y584D01*
X160454Y148D01*
X160459Y149D01*
X160460Y148D01*
X160463Y148D01*
X160465Y145D01*
X161795Y1D01*
X161801Y5D01*
X161805Y1D01*
X162971Y111D01*
G37*
G36*
X693935Y1648360D02*
X693935Y1648360D01*
X694001Y1648362D01*
X694045Y1648379D01*
X694091Y1648388D01*
X694148Y1648421D01*
X694209Y1648446D01*
X694244Y1648478D01*
X694284Y1648502D01*
X694326Y1648553D01*
X694374Y1648597D01*
X694396Y1648640D01*
X694426Y1648676D01*
X694447Y1648738D01*
X694477Y1648797D01*
X694485Y1648851D01*
X694498Y1648889D01*
X694497Y1648928D01*
X694505Y1648982D01*
X694505Y1652792D01*
X694493Y1652857D01*
X694491Y1652923D01*
X694473Y1652967D01*
X694465Y1653013D01*
X694431Y1653070D01*
X694407Y1653131D01*
X694375Y1653166D01*
X694351Y1653206D01*
X694300Y1653248D01*
X694255Y1653296D01*
X694213Y1653318D01*
X694177Y1653348D01*
X694114Y1653369D01*
X694056Y1653399D01*
X694001Y1653407D01*
X693964Y1653420D01*
X693925Y1653419D01*
X693870Y1653427D01*
X688282Y1653427D01*
X688218Y1653415D01*
X688152Y1653413D01*
X688108Y1653395D01*
X688062Y1653387D01*
X688005Y1653353D01*
X687944Y1653329D01*
X687909Y1653297D01*
X687868Y1653273D01*
X687827Y1653222D01*
X687778Y1653177D01*
X687757Y1653135D01*
X687727Y1653099D01*
X687706Y1653036D01*
X687676Y1652978D01*
X687668Y1652923D01*
X687655Y1652886D01*
X687655Y1652882D01*
X687656Y1652846D01*
X687648Y1652792D01*
X687648Y1648982D01*
X687660Y1648918D01*
X687662Y1648852D01*
X687679Y1648808D01*
X687688Y1648762D01*
X687721Y1648705D01*
X687746Y1648644D01*
X687778Y1648609D01*
X687802Y1648568D01*
X687853Y1648527D01*
X687897Y1648478D01*
X687940Y1648457D01*
X687976Y1648427D01*
X688038Y1648406D01*
X688097Y1648376D01*
X688151Y1648368D01*
X688189Y1648355D01*
X688228Y1648356D01*
X688282Y1648348D01*
X693870Y1648348D01*
X693935Y1648360D01*
G37*
G36*
X158859Y1648360D02*
X158859Y1648360D01*
X158925Y1648362D01*
X158968Y1648379D01*
X159015Y1648388D01*
X159072Y1648421D01*
X159132Y1648446D01*
X159167Y1648478D01*
X159208Y1648502D01*
X159250Y1648553D01*
X159298Y1648597D01*
X159320Y1648640D01*
X159349Y1648676D01*
X159370Y1648738D01*
X159401Y1648797D01*
X159409Y1648851D01*
X159421Y1648889D01*
X159420Y1648928D01*
X159428Y1648982D01*
X159428Y1652792D01*
X159417Y1652857D01*
X159415Y1652923D01*
X159397Y1652967D01*
X159389Y1653013D01*
X159355Y1653070D01*
X159330Y1653131D01*
X159299Y1653166D01*
X159274Y1653206D01*
X159223Y1653248D01*
X159179Y1653296D01*
X159137Y1653318D01*
X159100Y1653348D01*
X159038Y1653369D01*
X158979Y1653399D01*
X158925Y1653407D01*
X158888Y1653420D01*
X158848Y1653419D01*
X158794Y1653427D01*
X153206Y1653427D01*
X153141Y1653415D01*
X153075Y1653413D01*
X153032Y1653395D01*
X152985Y1653387D01*
X152928Y1653353D01*
X152868Y1653329D01*
X152833Y1653297D01*
X152792Y1653273D01*
X152751Y1653222D01*
X152702Y1653177D01*
X152680Y1653135D01*
X152651Y1653099D01*
X152630Y1653036D01*
X152599Y1652978D01*
X152591Y1652923D01*
X152579Y1652886D01*
X152579Y1652882D01*
X152580Y1652846D01*
X152572Y1652792D01*
X152572Y1648982D01*
X152583Y1648918D01*
X152585Y1648852D01*
X152603Y1648808D01*
X152611Y1648762D01*
X152645Y1648705D01*
X152670Y1648644D01*
X152701Y1648609D01*
X152726Y1648568D01*
X152777Y1648527D01*
X152821Y1648478D01*
X152863Y1648457D01*
X152900Y1648427D01*
X152962Y1648406D01*
X153021Y1648376D01*
X153075Y1648368D01*
X153112Y1648355D01*
X153152Y1648356D01*
X153206Y1648348D01*
X158794Y1648348D01*
X158859Y1648360D01*
G37*
G36*
X158859Y345949D02*
X158859Y345949D01*
X158925Y345951D01*
X158968Y345969D01*
X159015Y345977D01*
X159072Y346011D01*
X159132Y346036D01*
X159167Y346067D01*
X159208Y346092D01*
X159250Y346143D01*
X159298Y346187D01*
X159320Y346229D01*
X159349Y346266D01*
X159370Y346328D01*
X159401Y346387D01*
X159409Y346441D01*
X159421Y346478D01*
X159420Y346518D01*
X159428Y346572D01*
X159428Y350382D01*
X159417Y350447D01*
X159415Y350513D01*
X159397Y350556D01*
X159389Y350603D01*
X159355Y350660D01*
X159330Y350720D01*
X159299Y350755D01*
X159274Y350796D01*
X159223Y350838D01*
X159179Y350886D01*
X159137Y350908D01*
X159100Y350937D01*
X159038Y350958D01*
X158979Y350989D01*
X158925Y350997D01*
X158888Y351009D01*
X158848Y351008D01*
X158794Y351016D01*
X153206Y351016D01*
X153141Y351005D01*
X153075Y351003D01*
X153032Y350985D01*
X152985Y350977D01*
X152928Y350943D01*
X152868Y350918D01*
X152833Y350887D01*
X152792Y350862D01*
X152751Y350811D01*
X152702Y350767D01*
X152680Y350725D01*
X152651Y350688D01*
X152630Y350626D01*
X152599Y350567D01*
X152591Y350513D01*
X152579Y350476D01*
X152579Y350472D01*
X152579Y350471D01*
X152580Y350436D01*
X152572Y350382D01*
X152572Y346572D01*
X152583Y346507D01*
X152585Y346441D01*
X152603Y346398D01*
X152611Y346351D01*
X152645Y346294D01*
X152670Y346234D01*
X152701Y346199D01*
X152726Y346158D01*
X152777Y346117D01*
X152821Y346068D01*
X152863Y346046D01*
X152900Y346017D01*
X152962Y345996D01*
X153021Y345965D01*
X153075Y345957D01*
X153112Y345945D01*
X153152Y345946D01*
X153206Y345938D01*
X158794Y345938D01*
X158859Y345949D01*
G37*
G36*
X693935Y345949D02*
X693935Y345949D01*
X694001Y345951D01*
X694045Y345969D01*
X694091Y345977D01*
X694148Y346011D01*
X694209Y346036D01*
X694244Y346067D01*
X694284Y346092D01*
X694326Y346143D01*
X694374Y346187D01*
X694396Y346229D01*
X694426Y346266D01*
X694447Y346328D01*
X694477Y346387D01*
X694485Y346441D01*
X694498Y346478D01*
X694497Y346518D01*
X694505Y346572D01*
X694505Y350382D01*
X694493Y350447D01*
X694491Y350513D01*
X694473Y350556D01*
X694465Y350603D01*
X694431Y350660D01*
X694407Y350720D01*
X694375Y350755D01*
X694351Y350796D01*
X694300Y350838D01*
X694255Y350886D01*
X694213Y350908D01*
X694177Y350937D01*
X694114Y350958D01*
X694056Y350989D01*
X694001Y350997D01*
X693964Y351009D01*
X693925Y351008D01*
X693870Y351016D01*
X688282Y351016D01*
X688218Y351005D01*
X688152Y351003D01*
X688108Y350985D01*
X688062Y350977D01*
X688005Y350943D01*
X687944Y350918D01*
X687909Y350887D01*
X687868Y350862D01*
X687827Y350811D01*
X687778Y350767D01*
X687757Y350725D01*
X687727Y350688D01*
X687706Y350626D01*
X687676Y350567D01*
X687668Y350513D01*
X687655Y350476D01*
X687655Y350472D01*
X687655Y350471D01*
X687656Y350436D01*
X687648Y350382D01*
X687648Y346572D01*
X687660Y346507D01*
X687662Y346441D01*
X687679Y346398D01*
X687688Y346351D01*
X687721Y346294D01*
X687746Y346234D01*
X687778Y346199D01*
X687802Y346158D01*
X687853Y346117D01*
X687897Y346068D01*
X687940Y346046D01*
X687976Y346017D01*
X688038Y345996D01*
X688097Y345965D01*
X688151Y345957D01*
X688189Y345945D01*
X688228Y345946D01*
X688282Y345938D01*
X693870Y345938D01*
X693935Y345949D01*
G37*
G36*
X693935Y1127380D02*
X693935Y1127380D01*
X694001Y1127382D01*
X694045Y1127400D01*
X694091Y1127408D01*
X694148Y1127442D01*
X694209Y1127467D01*
X694244Y1127498D01*
X694284Y1127523D01*
X694326Y1127574D01*
X694374Y1127618D01*
X694396Y1127660D01*
X694426Y1127697D01*
X694447Y1127759D01*
X694477Y1127818D01*
X694485Y1127872D01*
X694498Y1127909D01*
X694497Y1127949D01*
X694505Y1128003D01*
X694505Y1131813D01*
X694493Y1131878D01*
X694491Y1131944D01*
X694473Y1131987D01*
X694465Y1132034D01*
X694431Y1132091D01*
X694407Y1132151D01*
X694375Y1132186D01*
X694351Y1132227D01*
X694300Y1132269D01*
X694255Y1132317D01*
X694213Y1132339D01*
X694177Y1132368D01*
X694114Y1132389D01*
X694056Y1132420D01*
X694001Y1132428D01*
X693964Y1132440D01*
X693925Y1132439D01*
X693870Y1132447D01*
X688282Y1132447D01*
X688218Y1132436D01*
X688152Y1132434D01*
X688108Y1132416D01*
X688062Y1132408D01*
X688005Y1132374D01*
X687944Y1132349D01*
X687909Y1132318D01*
X687868Y1132293D01*
X687827Y1132242D01*
X687778Y1132198D01*
X687757Y1132156D01*
X687727Y1132119D01*
X687706Y1132057D01*
X687676Y1131998D01*
X687668Y1131944D01*
X687655Y1131907D01*
X687655Y1131903D01*
X687655Y1131902D01*
X687656Y1131867D01*
X687648Y1131813D01*
X687648Y1128003D01*
X687660Y1127938D01*
X687662Y1127872D01*
X687679Y1127829D01*
X687688Y1127782D01*
X687721Y1127725D01*
X687746Y1127665D01*
X687778Y1127630D01*
X687802Y1127589D01*
X687853Y1127548D01*
X687897Y1127499D01*
X687940Y1127477D01*
X687976Y1127448D01*
X688038Y1127427D01*
X688097Y1127396D01*
X688151Y1127388D01*
X688189Y1127376D01*
X688228Y1127377D01*
X688282Y1127369D01*
X693870Y1127369D01*
X693935Y1127380D01*
G37*
G36*
X158859Y1387883D02*
X158859Y1387883D01*
X158925Y1387885D01*
X158968Y1387902D01*
X159015Y1387911D01*
X159072Y1387944D01*
X159132Y1387969D01*
X159167Y1388001D01*
X159208Y1388025D01*
X159250Y1388076D01*
X159298Y1388120D01*
X159320Y1388163D01*
X159349Y1388199D01*
X159370Y1388261D01*
X159401Y1388320D01*
X159409Y1388374D01*
X159421Y1388412D01*
X159420Y1388451D01*
X159428Y1388505D01*
X159428Y1392315D01*
X159417Y1392380D01*
X159415Y1392446D01*
X159397Y1392490D01*
X159389Y1392536D01*
X159355Y1392593D01*
X159330Y1392654D01*
X159299Y1392689D01*
X159274Y1392729D01*
X159223Y1392771D01*
X159179Y1392819D01*
X159137Y1392841D01*
X159100Y1392871D01*
X159038Y1392892D01*
X158979Y1392922D01*
X158925Y1392930D01*
X158888Y1392943D01*
X158848Y1392942D01*
X158794Y1392950D01*
X153206Y1392950D01*
X153141Y1392938D01*
X153075Y1392936D01*
X153032Y1392918D01*
X152985Y1392910D01*
X152928Y1392876D01*
X152868Y1392852D01*
X152833Y1392820D01*
X152792Y1392796D01*
X152751Y1392745D01*
X152702Y1392700D01*
X152680Y1392658D01*
X152651Y1392622D01*
X152630Y1392559D01*
X152599Y1392501D01*
X152591Y1392446D01*
X152579Y1392409D01*
X152579Y1392405D01*
X152580Y1392369D01*
X152572Y1392315D01*
X152572Y1388505D01*
X152583Y1388441D01*
X152585Y1388375D01*
X152603Y1388331D01*
X152611Y1388285D01*
X152645Y1388228D01*
X152670Y1388167D01*
X152701Y1388132D01*
X152726Y1388091D01*
X152777Y1388050D01*
X152821Y1388001D01*
X152863Y1387980D01*
X152900Y1387950D01*
X152962Y1387929D01*
X153021Y1387899D01*
X153075Y1387891D01*
X153112Y1387878D01*
X153152Y1387879D01*
X153206Y1387871D01*
X158794Y1387871D01*
X158859Y1387883D01*
G37*
G36*
X693935Y1387883D02*
X693935Y1387883D01*
X694001Y1387885D01*
X694045Y1387902D01*
X694091Y1387911D01*
X694148Y1387944D01*
X694209Y1387969D01*
X694244Y1388001D01*
X694284Y1388025D01*
X694326Y1388076D01*
X694374Y1388120D01*
X694396Y1388163D01*
X694426Y1388199D01*
X694447Y1388261D01*
X694477Y1388320D01*
X694485Y1388374D01*
X694498Y1388412D01*
X694497Y1388451D01*
X694505Y1388505D01*
X694505Y1392315D01*
X694493Y1392380D01*
X694491Y1392446D01*
X694473Y1392490D01*
X694465Y1392536D01*
X694431Y1392593D01*
X694407Y1392654D01*
X694375Y1392689D01*
X694351Y1392729D01*
X694300Y1392771D01*
X694255Y1392819D01*
X694213Y1392841D01*
X694177Y1392871D01*
X694114Y1392892D01*
X694056Y1392922D01*
X694001Y1392930D01*
X693964Y1392943D01*
X693925Y1392942D01*
X693870Y1392950D01*
X688282Y1392950D01*
X688218Y1392938D01*
X688152Y1392936D01*
X688108Y1392918D01*
X688062Y1392910D01*
X688005Y1392876D01*
X687944Y1392852D01*
X687909Y1392820D01*
X687868Y1392796D01*
X687827Y1392745D01*
X687778Y1392700D01*
X687757Y1392658D01*
X687727Y1392622D01*
X687706Y1392559D01*
X687676Y1392501D01*
X687668Y1392446D01*
X687655Y1392409D01*
X687655Y1392405D01*
X687656Y1392369D01*
X687648Y1392315D01*
X687648Y1388505D01*
X687660Y1388441D01*
X687662Y1388375D01*
X687679Y1388331D01*
X687688Y1388285D01*
X687721Y1388228D01*
X687746Y1388167D01*
X687778Y1388132D01*
X687802Y1388091D01*
X687853Y1388050D01*
X687897Y1388001D01*
X687940Y1387980D01*
X687976Y1387950D01*
X688038Y1387929D01*
X688097Y1387899D01*
X688151Y1387891D01*
X688189Y1387878D01*
X688228Y1387879D01*
X688282Y1387871D01*
X693870Y1387871D01*
X693935Y1387883D01*
G37*
G36*
X158859Y1127380D02*
X158859Y1127380D01*
X158925Y1127382D01*
X158968Y1127400D01*
X159015Y1127408D01*
X159072Y1127442D01*
X159132Y1127467D01*
X159167Y1127498D01*
X159208Y1127523D01*
X159250Y1127574D01*
X159298Y1127618D01*
X159320Y1127660D01*
X159349Y1127697D01*
X159370Y1127759D01*
X159401Y1127818D01*
X159409Y1127872D01*
X159421Y1127909D01*
X159420Y1127949D01*
X159428Y1128003D01*
X159428Y1131813D01*
X159417Y1131878D01*
X159415Y1131944D01*
X159397Y1131987D01*
X159389Y1132034D01*
X159355Y1132091D01*
X159330Y1132151D01*
X159299Y1132186D01*
X159274Y1132227D01*
X159223Y1132269D01*
X159179Y1132317D01*
X159137Y1132339D01*
X159100Y1132368D01*
X159038Y1132389D01*
X158979Y1132420D01*
X158925Y1132428D01*
X158888Y1132440D01*
X158848Y1132439D01*
X158794Y1132447D01*
X153206Y1132447D01*
X153141Y1132436D01*
X153075Y1132434D01*
X153032Y1132416D01*
X152985Y1132408D01*
X152928Y1132374D01*
X152868Y1132349D01*
X152833Y1132318D01*
X152792Y1132293D01*
X152751Y1132242D01*
X152702Y1132198D01*
X152680Y1132156D01*
X152651Y1132119D01*
X152630Y1132057D01*
X152599Y1131998D01*
X152591Y1131944D01*
X152579Y1131907D01*
X152579Y1131903D01*
X152579Y1131902D01*
X152580Y1131867D01*
X152572Y1131813D01*
X152572Y1128003D01*
X152583Y1127938D01*
X152585Y1127872D01*
X152603Y1127829D01*
X152611Y1127782D01*
X152645Y1127725D01*
X152670Y1127665D01*
X152701Y1127630D01*
X152726Y1127589D01*
X152777Y1127548D01*
X152821Y1127499D01*
X152863Y1127477D01*
X152900Y1127448D01*
X152962Y1127427D01*
X153021Y1127396D01*
X153075Y1127388D01*
X153112Y1127376D01*
X153152Y1127377D01*
X153206Y1127369D01*
X158794Y1127369D01*
X158859Y1127380D01*
G37*
G36*
X158859Y606426D02*
X158859Y606426D01*
X158925Y606428D01*
X158968Y606446D01*
X159015Y606454D01*
X159072Y606488D01*
X159132Y606513D01*
X159167Y606544D01*
X159208Y606569D01*
X159250Y606620D01*
X159298Y606664D01*
X159320Y606706D01*
X159349Y606743D01*
X159370Y606805D01*
X159401Y606864D01*
X159409Y606918D01*
X159421Y606955D01*
X159420Y606995D01*
X159428Y607049D01*
X159428Y610859D01*
X159417Y610924D01*
X159415Y610990D01*
X159397Y611033D01*
X159389Y611080D01*
X159355Y611137D01*
X159330Y611197D01*
X159299Y611232D01*
X159274Y611273D01*
X159223Y611315D01*
X159179Y611363D01*
X159137Y611385D01*
X159100Y611414D01*
X159038Y611435D01*
X158979Y611466D01*
X158925Y611474D01*
X158888Y611486D01*
X158848Y611485D01*
X158794Y611493D01*
X153206Y611493D01*
X153141Y611482D01*
X153075Y611480D01*
X153032Y611462D01*
X152985Y611454D01*
X152928Y611420D01*
X152868Y611395D01*
X152833Y611364D01*
X152792Y611339D01*
X152751Y611288D01*
X152702Y611244D01*
X152680Y611202D01*
X152651Y611165D01*
X152630Y611103D01*
X152599Y611044D01*
X152591Y610990D01*
X152579Y610953D01*
X152579Y610949D01*
X152579Y610948D01*
X152580Y610913D01*
X152572Y610859D01*
X152572Y607049D01*
X152583Y606984D01*
X152585Y606918D01*
X152603Y606875D01*
X152611Y606828D01*
X152645Y606771D01*
X152670Y606711D01*
X152701Y606676D01*
X152726Y606635D01*
X152777Y606594D01*
X152821Y606545D01*
X152863Y606523D01*
X152900Y606494D01*
X152962Y606473D01*
X153021Y606442D01*
X153075Y606434D01*
X153112Y606422D01*
X153152Y606423D01*
X153206Y606415D01*
X158794Y606415D01*
X158859Y606426D01*
G37*
G36*
X158859Y866903D02*
X158859Y866903D01*
X158925Y866905D01*
X158968Y866923D01*
X159015Y866931D01*
X159072Y866965D01*
X159132Y866990D01*
X159167Y867021D01*
X159208Y867046D01*
X159250Y867097D01*
X159298Y867141D01*
X159320Y867183D01*
X159349Y867220D01*
X159370Y867282D01*
X159401Y867341D01*
X159409Y867395D01*
X159421Y867432D01*
X159420Y867472D01*
X159428Y867526D01*
X159428Y871336D01*
X159417Y871401D01*
X159415Y871467D01*
X159397Y871510D01*
X159389Y871557D01*
X159355Y871614D01*
X159330Y871674D01*
X159299Y871709D01*
X159274Y871750D01*
X159223Y871792D01*
X159179Y871840D01*
X159137Y871862D01*
X159100Y871891D01*
X159038Y871912D01*
X158979Y871943D01*
X158925Y871951D01*
X158888Y871963D01*
X158848Y871962D01*
X158794Y871970D01*
X153206Y871970D01*
X153141Y871959D01*
X153075Y871957D01*
X153032Y871939D01*
X152985Y871931D01*
X152928Y871897D01*
X152868Y871872D01*
X152833Y871841D01*
X152792Y871816D01*
X152751Y871765D01*
X152702Y871721D01*
X152680Y871679D01*
X152651Y871642D01*
X152630Y871580D01*
X152599Y871521D01*
X152591Y871467D01*
X152579Y871430D01*
X152579Y871426D01*
X152579Y871425D01*
X152580Y871390D01*
X152572Y871336D01*
X152572Y867526D01*
X152583Y867461D01*
X152585Y867395D01*
X152603Y867352D01*
X152611Y867305D01*
X152645Y867248D01*
X152670Y867188D01*
X152701Y867153D01*
X152726Y867112D01*
X152777Y867071D01*
X152821Y867022D01*
X152863Y867000D01*
X152900Y866971D01*
X152962Y866950D01*
X153021Y866919D01*
X153075Y866911D01*
X153112Y866899D01*
X153152Y866900D01*
X153206Y866892D01*
X158794Y866892D01*
X158859Y866903D01*
G37*
G36*
X693935Y606426D02*
X693935Y606426D01*
X694001Y606428D01*
X694045Y606446D01*
X694091Y606454D01*
X694148Y606488D01*
X694209Y606513D01*
X694244Y606544D01*
X694284Y606569D01*
X694326Y606620D01*
X694374Y606664D01*
X694396Y606706D01*
X694426Y606743D01*
X694447Y606805D01*
X694477Y606864D01*
X694485Y606918D01*
X694498Y606955D01*
X694497Y606995D01*
X694505Y607049D01*
X694505Y610859D01*
X694493Y610924D01*
X694491Y610990D01*
X694473Y611033D01*
X694465Y611080D01*
X694431Y611137D01*
X694407Y611197D01*
X694375Y611232D01*
X694351Y611273D01*
X694300Y611315D01*
X694255Y611363D01*
X694213Y611385D01*
X694177Y611414D01*
X694114Y611435D01*
X694056Y611466D01*
X694001Y611474D01*
X693964Y611486D01*
X693925Y611485D01*
X693870Y611493D01*
X688282Y611493D01*
X688218Y611482D01*
X688152Y611480D01*
X688108Y611462D01*
X688062Y611454D01*
X688005Y611420D01*
X687944Y611395D01*
X687909Y611364D01*
X687868Y611339D01*
X687827Y611288D01*
X687778Y611244D01*
X687757Y611202D01*
X687727Y611165D01*
X687706Y611103D01*
X687676Y611044D01*
X687668Y610990D01*
X687655Y610953D01*
X687655Y610949D01*
X687655Y610948D01*
X687656Y610913D01*
X687648Y610859D01*
X687648Y607049D01*
X687660Y606984D01*
X687662Y606918D01*
X687679Y606875D01*
X687688Y606828D01*
X687721Y606771D01*
X687746Y606711D01*
X687778Y606676D01*
X687802Y606635D01*
X687853Y606594D01*
X687897Y606545D01*
X687940Y606523D01*
X687976Y606494D01*
X688038Y606473D01*
X688097Y606442D01*
X688151Y606434D01*
X688189Y606422D01*
X688228Y606423D01*
X688282Y606415D01*
X693870Y606415D01*
X693935Y606426D01*
G37*
G36*
X158859Y85472D02*
X158859Y85472D01*
X158925Y85474D01*
X158968Y85492D01*
X159015Y85500D01*
X159072Y85534D01*
X159132Y85559D01*
X159167Y85590D01*
X159208Y85615D01*
X159250Y85666D01*
X159298Y85710D01*
X159320Y85752D01*
X159349Y85789D01*
X159370Y85851D01*
X159401Y85910D01*
X159409Y85964D01*
X159421Y86001D01*
X159420Y86041D01*
X159428Y86095D01*
X159428Y89905D01*
X159417Y89970D01*
X159415Y90036D01*
X159397Y90079D01*
X159389Y90126D01*
X159355Y90183D01*
X159330Y90243D01*
X159299Y90278D01*
X159274Y90319D01*
X159223Y90361D01*
X159179Y90409D01*
X159137Y90431D01*
X159100Y90460D01*
X159038Y90481D01*
X158979Y90512D01*
X158925Y90520D01*
X158888Y90532D01*
X158848Y90531D01*
X158794Y90539D01*
X153206Y90539D01*
X153141Y90528D01*
X153075Y90526D01*
X153032Y90508D01*
X152985Y90500D01*
X152928Y90466D01*
X152868Y90441D01*
X152833Y90410D01*
X152792Y90385D01*
X152751Y90334D01*
X152702Y90290D01*
X152680Y90248D01*
X152651Y90211D01*
X152630Y90149D01*
X152599Y90090D01*
X152591Y90036D01*
X152579Y89999D01*
X152579Y89995D01*
X152579Y89994D01*
X152580Y89959D01*
X152572Y89905D01*
X152572Y86095D01*
X152583Y86030D01*
X152585Y85964D01*
X152603Y85921D01*
X152611Y85874D01*
X152645Y85817D01*
X152670Y85757D01*
X152701Y85722D01*
X152726Y85681D01*
X152777Y85640D01*
X152821Y85591D01*
X152863Y85569D01*
X152900Y85540D01*
X152962Y85519D01*
X153021Y85488D01*
X153075Y85480D01*
X153112Y85468D01*
X153152Y85469D01*
X153206Y85461D01*
X158794Y85461D01*
X158859Y85472D01*
G37*
G36*
X693935Y866903D02*
X693935Y866903D01*
X694001Y866905D01*
X694045Y866923D01*
X694091Y866931D01*
X694148Y866965D01*
X694209Y866990D01*
X694244Y867021D01*
X694284Y867046D01*
X694326Y867097D01*
X694374Y867141D01*
X694396Y867183D01*
X694426Y867220D01*
X694447Y867282D01*
X694477Y867341D01*
X694485Y867395D01*
X694498Y867432D01*
X694497Y867472D01*
X694505Y867526D01*
X694505Y871336D01*
X694493Y871401D01*
X694491Y871467D01*
X694473Y871510D01*
X694465Y871557D01*
X694431Y871614D01*
X694407Y871674D01*
X694375Y871709D01*
X694351Y871750D01*
X694300Y871792D01*
X694255Y871840D01*
X694213Y871862D01*
X694177Y871891D01*
X694114Y871912D01*
X694056Y871943D01*
X694001Y871951D01*
X693964Y871963D01*
X693925Y871962D01*
X693870Y871970D01*
X688282Y871970D01*
X688218Y871959D01*
X688152Y871957D01*
X688108Y871939D01*
X688062Y871931D01*
X688005Y871897D01*
X687944Y871872D01*
X687909Y871841D01*
X687868Y871816D01*
X687827Y871765D01*
X687778Y871721D01*
X687757Y871679D01*
X687727Y871642D01*
X687706Y871580D01*
X687676Y871521D01*
X687668Y871467D01*
X687655Y871430D01*
X687655Y871426D01*
X687655Y871425D01*
X687656Y871390D01*
X687648Y871336D01*
X687648Y867526D01*
X687660Y867461D01*
X687662Y867395D01*
X687679Y867352D01*
X687688Y867305D01*
X687721Y867248D01*
X687746Y867188D01*
X687778Y867153D01*
X687802Y867112D01*
X687853Y867071D01*
X687897Y867022D01*
X687940Y867000D01*
X687976Y866971D01*
X688038Y866950D01*
X688097Y866919D01*
X688151Y866911D01*
X688189Y866899D01*
X688228Y866900D01*
X688282Y866892D01*
X693870Y866892D01*
X693935Y866903D01*
G37*
G36*
X693935Y85472D02*
X693935Y85472D01*
X694001Y85474D01*
X694045Y85492D01*
X694091Y85500D01*
X694148Y85534D01*
X694209Y85559D01*
X694244Y85590D01*
X694284Y85615D01*
X694326Y85666D01*
X694374Y85710D01*
X694396Y85752D01*
X694426Y85789D01*
X694447Y85851D01*
X694477Y85910D01*
X694485Y85964D01*
X694498Y86001D01*
X694497Y86041D01*
X694505Y86095D01*
X694505Y89905D01*
X694493Y89970D01*
X694491Y90036D01*
X694473Y90079D01*
X694465Y90126D01*
X694431Y90183D01*
X694407Y90243D01*
X694375Y90278D01*
X694351Y90319D01*
X694300Y90361D01*
X694255Y90409D01*
X694213Y90431D01*
X694177Y90460D01*
X694114Y90481D01*
X694056Y90512D01*
X694001Y90520D01*
X693964Y90532D01*
X693925Y90531D01*
X693870Y90539D01*
X688282Y90539D01*
X688218Y90528D01*
X688152Y90526D01*
X688108Y90508D01*
X688062Y90500D01*
X688005Y90466D01*
X687944Y90441D01*
X687909Y90410D01*
X687868Y90385D01*
X687827Y90334D01*
X687778Y90290D01*
X687757Y90248D01*
X687727Y90211D01*
X687706Y90149D01*
X687676Y90090D01*
X687668Y90036D01*
X687655Y89999D01*
X687655Y89995D01*
X687655Y89994D01*
X687656Y89959D01*
X687648Y89905D01*
X687648Y86095D01*
X687660Y86030D01*
X687662Y85964D01*
X687679Y85921D01*
X687688Y85874D01*
X687721Y85817D01*
X687746Y85757D01*
X687778Y85722D01*
X687802Y85681D01*
X687853Y85640D01*
X687897Y85591D01*
X687940Y85569D01*
X687976Y85540D01*
X688038Y85519D01*
X688097Y85488D01*
X688151Y85480D01*
X688189Y85468D01*
X688228Y85469D01*
X688282Y85461D01*
X693870Y85461D01*
X693935Y85472D01*
G37*
D10*
X520000Y10000D03*
X10000Y190000D03*
D11*
X297000Y11250D03*
X353000Y11250D03*
D12*
X310000Y48000D03*
X320000Y48000D03*
X330000Y48000D03*
X340000Y48000D03*
D13*
X225000Y108500D03*
X225000Y91500D03*
X185000Y108500D03*
X185000Y91500D03*
D14*
X212500Y56600D03*
X207500Y56600D03*
D15*
X237250Y56600D03*
X229500Y56600D03*
D14*
X222500Y56600D03*
X217500Y56600D03*
X197500Y56600D03*
X202500Y56600D03*
D15*
X172750Y56600D03*
X180500Y56600D03*
D14*
X187500Y56600D03*
X192500Y56600D03*
D16*
X176100Y45550D03*
X233900Y45550D03*
D17*
X200000Y105950D03*
D18*
X205000Y105700D03*
X210000Y105700D03*
X210000Y114300D03*
X205000Y114300D03*
X200000Y114300D03*
D19*
X56250Y47000D03*
D20*
X112250Y15000D03*
X37750Y15000D03*
D19*
X68750Y47000D03*
X81250Y47000D03*
X93750Y47000D03*
X436250Y47000D03*
D20*
X492250Y15000D03*
X417750Y15000D03*
D19*
X448750Y47000D03*
X461250Y47000D03*
X473750Y47000D03*
D21*
X115000Y70000D03*
X89600Y70000D03*
X64200Y70000D03*
X38800Y70000D03*
X495000Y70000D03*
X469600Y70000D03*
X444200Y70000D03*
X418800Y70000D03*
D22*
X156000Y82920D03*
X156000Y93080D03*
D21*
X156000Y75300D03*
X156000Y100700D03*
D23*
X25000Y101000D03*
X25000Y119000D03*
D24*
X390000Y130000D03*
X420000Y130000D03*
D25*
X472500Y156500D03*
X467500Y156500D03*
D26*
X482500Y181500D03*
X407500Y181500D03*
D25*
X462500Y156500D03*
X457500Y156500D03*
X452500Y156500D03*
X447500Y156500D03*
X442500Y156500D03*
X437500Y156500D03*
X432500Y156500D03*
X427500Y156500D03*
X422500Y156500D03*
X417500Y156500D03*
X382500Y156500D03*
X377500Y156500D03*
D26*
X392500Y181500D03*
X317500Y181500D03*
D25*
X372500Y156500D03*
X367500Y156500D03*
X362500Y156500D03*
X357500Y156500D03*
X352500Y156500D03*
X347500Y156500D03*
X342500Y156500D03*
X337500Y156500D03*
X332500Y156500D03*
X327500Y156500D03*
D10*
X1055076Y10000D03*
X545076Y190000D03*
D11*
X832076Y11250D03*
X888076Y11250D03*
D12*
X845076Y48000D03*
X855076Y48000D03*
X865076Y48000D03*
X875076Y48000D03*
D13*
X760076Y108500D03*
X760076Y91500D03*
X720076Y108500D03*
X720076Y91500D03*
D14*
X747576Y56600D03*
X742576Y56600D03*
D15*
X772326Y56600D03*
X764576Y56600D03*
D14*
X757576Y56600D03*
X752576Y56600D03*
X732576Y56600D03*
X737576Y56600D03*
D15*
X707826Y56600D03*
X715576Y56600D03*
D14*
X722576Y56600D03*
X727576Y56600D03*
D16*
X711176Y45550D03*
X768976Y45550D03*
D17*
X735076Y105950D03*
D18*
X740076Y105700D03*
X745076Y105700D03*
X745076Y114300D03*
X740076Y114300D03*
X735076Y114300D03*
D19*
X591326Y47000D03*
D20*
X647326Y15000D03*
X572826Y15000D03*
D19*
X603826Y47000D03*
X616326Y47000D03*
X628826Y47000D03*
X971326Y47000D03*
D20*
X1027326Y15000D03*
X952826Y15000D03*
D19*
X983826Y47000D03*
X996326Y47000D03*
X1008826Y47000D03*
D21*
X650076Y70000D03*
X624676Y70000D03*
X599276Y70000D03*
X573876Y70000D03*
X1030076Y70000D03*
X1004676Y70000D03*
X979276Y70000D03*
X953876Y70000D03*
D22*
X691076Y82920D03*
X691076Y93080D03*
D21*
X691076Y75300D03*
X691076Y100700D03*
D23*
X560076Y101000D03*
X560076Y119000D03*
D24*
X925076Y130000D03*
X955076Y130000D03*
D25*
X1007576Y156500D03*
X1002576Y156500D03*
D26*
X1017576Y181500D03*
X942576Y181500D03*
D25*
X997576Y156500D03*
X992576Y156500D03*
X987576Y156500D03*
X982576Y156500D03*
X977576Y156500D03*
X972576Y156500D03*
X967576Y156500D03*
X962576Y156500D03*
X957576Y156500D03*
X952576Y156500D03*
X917576Y156500D03*
X912576Y156500D03*
D26*
X927576Y181500D03*
X852576Y181500D03*
D25*
X907576Y156500D03*
X902576Y156500D03*
X897576Y156500D03*
X892576Y156500D03*
X887576Y156500D03*
X882576Y156500D03*
X877576Y156500D03*
X872576Y156500D03*
X867576Y156500D03*
X862576Y156500D03*
D10*
X520000Y270477D03*
X10000Y450477D03*
D11*
X297000Y271727D03*
X353000Y271727D03*
D12*
X310000Y308477D03*
X320000Y308477D03*
X330000Y308477D03*
X340000Y308477D03*
D13*
X225000Y368977D03*
X225000Y351977D03*
X185000Y368977D03*
X185000Y351977D03*
D14*
X212500Y317077D03*
X207500Y317077D03*
D15*
X237250Y317077D03*
X229500Y317077D03*
D14*
X222500Y317077D03*
X217500Y317077D03*
X197500Y317077D03*
X202500Y317077D03*
D15*
X172750Y317077D03*
X180500Y317077D03*
D14*
X187500Y317077D03*
X192500Y317077D03*
D16*
X176100Y306027D03*
X233900Y306027D03*
D17*
X200000Y366427D03*
D18*
X205000Y366177D03*
X210000Y366177D03*
X210000Y374777D03*
X205000Y374777D03*
X200000Y374777D03*
D19*
X56250Y307477D03*
D20*
X112250Y275477D03*
X37750Y275477D03*
D19*
X68750Y307477D03*
X81250Y307477D03*
X93750Y307477D03*
X436250Y307477D03*
D20*
X492250Y275477D03*
X417750Y275477D03*
D19*
X448750Y307477D03*
X461250Y307477D03*
X473750Y307477D03*
D21*
X115000Y330477D03*
X89600Y330477D03*
X64200Y330477D03*
X38800Y330477D03*
X495000Y330477D03*
X469600Y330477D03*
X444200Y330477D03*
X418800Y330477D03*
D22*
X156000Y343397D03*
X156000Y353557D03*
D21*
X156000Y335777D03*
X156000Y361177D03*
D23*
X25000Y361477D03*
X25000Y379477D03*
D24*
X390000Y390477D03*
X420000Y390477D03*
D25*
X472500Y416977D03*
X467500Y416977D03*
D26*
X482500Y441977D03*
X407500Y441977D03*
D25*
X462500Y416977D03*
X457500Y416977D03*
X452500Y416977D03*
X447500Y416977D03*
X442500Y416977D03*
X437500Y416977D03*
X432500Y416977D03*
X427500Y416977D03*
X422500Y416977D03*
X417500Y416977D03*
X382500Y416977D03*
X377500Y416977D03*
D26*
X392500Y441977D03*
X317500Y441977D03*
D25*
X372500Y416977D03*
X367500Y416977D03*
X362500Y416977D03*
X357500Y416977D03*
X352500Y416977D03*
X347500Y416977D03*
X342500Y416977D03*
X337500Y416977D03*
X332500Y416977D03*
X327500Y416977D03*
D10*
X1055076Y270477D03*
X545076Y450477D03*
D11*
X832076Y271727D03*
X888076Y271727D03*
D12*
X845076Y308477D03*
X855076Y308477D03*
X865076Y308477D03*
X875076Y308477D03*
D13*
X760076Y368977D03*
X760076Y351977D03*
X720076Y368977D03*
X720076Y351977D03*
D14*
X747576Y317077D03*
X742576Y317077D03*
D15*
X772326Y317077D03*
X764576Y317077D03*
D14*
X757576Y317077D03*
X752576Y317077D03*
X732576Y317077D03*
X737576Y317077D03*
D15*
X707826Y317077D03*
X715576Y317077D03*
D14*
X722576Y317077D03*
X727576Y317077D03*
D16*
X711176Y306027D03*
X768976Y306027D03*
D17*
X735076Y366427D03*
D18*
X740076Y366177D03*
X745076Y366177D03*
X745076Y374777D03*
X740076Y374777D03*
X735076Y374777D03*
D19*
X591326Y307477D03*
D20*
X647326Y275477D03*
X572826Y275477D03*
D19*
X603826Y307477D03*
X616326Y307477D03*
X628826Y307477D03*
X971326Y307477D03*
D20*
X1027326Y275477D03*
X952826Y275477D03*
D19*
X983826Y307477D03*
X996326Y307477D03*
X1008826Y307477D03*
D21*
X650076Y330477D03*
X624676Y330477D03*
X599276Y330477D03*
X573876Y330477D03*
X1030076Y330477D03*
X1004676Y330477D03*
X979276Y330477D03*
X953876Y330477D03*
D22*
X691076Y343397D03*
X691076Y353557D03*
D21*
X691076Y335777D03*
X691076Y361177D03*
D23*
X560076Y361477D03*
X560076Y379477D03*
D24*
X925076Y390477D03*
X955076Y390477D03*
D25*
X1007576Y416977D03*
X1002576Y416977D03*
D26*
X1017576Y441977D03*
X942576Y441977D03*
D25*
X997576Y416977D03*
X992576Y416977D03*
X987576Y416977D03*
X982576Y416977D03*
X977576Y416977D03*
X972576Y416977D03*
X967576Y416977D03*
X962576Y416977D03*
X957576Y416977D03*
X952576Y416977D03*
X917576Y416977D03*
X912576Y416977D03*
D26*
X927576Y441977D03*
X852576Y441977D03*
D25*
X907576Y416977D03*
X902576Y416977D03*
X897576Y416977D03*
X892576Y416977D03*
X887576Y416977D03*
X882576Y416977D03*
X877576Y416977D03*
X872576Y416977D03*
X867576Y416977D03*
X862576Y416977D03*
D10*
X520000Y530954D03*
X10000Y710954D03*
D11*
X297000Y532204D03*
X353000Y532204D03*
D12*
X310000Y568954D03*
X320000Y568954D03*
X330000Y568954D03*
X340000Y568954D03*
D13*
X225000Y629454D03*
X225000Y612454D03*
X185000Y629454D03*
X185000Y612454D03*
D14*
X212500Y577554D03*
X207500Y577554D03*
D15*
X237250Y577554D03*
X229500Y577554D03*
D14*
X222500Y577554D03*
X217500Y577554D03*
X197500Y577554D03*
X202500Y577554D03*
D15*
X172750Y577554D03*
X180500Y577554D03*
D14*
X187500Y577554D03*
X192500Y577554D03*
D16*
X176100Y566504D03*
X233900Y566504D03*
D17*
X200000Y626904D03*
D18*
X205000Y626654D03*
X210000Y626654D03*
X210000Y635254D03*
X205000Y635254D03*
X200000Y635254D03*
D19*
X56250Y567954D03*
D20*
X112250Y535954D03*
X37750Y535954D03*
D19*
X68750Y567954D03*
X81250Y567954D03*
X93750Y567954D03*
X436250Y567954D03*
D20*
X492250Y535954D03*
X417750Y535954D03*
D19*
X448750Y567954D03*
X461250Y567954D03*
X473750Y567954D03*
D21*
X115000Y590954D03*
X89600Y590954D03*
X64200Y590954D03*
X38800Y590954D03*
X495000Y590954D03*
X469600Y590954D03*
X444200Y590954D03*
X418800Y590954D03*
D22*
X156000Y603874D03*
X156000Y614034D03*
D21*
X156000Y596254D03*
X156000Y621654D03*
D23*
X25000Y621954D03*
X25000Y639954D03*
D24*
X390000Y650954D03*
X420000Y650954D03*
D25*
X472500Y677454D03*
X467500Y677454D03*
D26*
X482500Y702454D03*
X407500Y702454D03*
D25*
X462500Y677454D03*
X457500Y677454D03*
X452500Y677454D03*
X447500Y677454D03*
X442500Y677454D03*
X437500Y677454D03*
X432500Y677454D03*
X427500Y677454D03*
X422500Y677454D03*
X417500Y677454D03*
X382500Y677454D03*
X377500Y677454D03*
D26*
X392500Y702454D03*
X317500Y702454D03*
D25*
X372500Y677454D03*
X367500Y677454D03*
X362500Y677454D03*
X357500Y677454D03*
X352500Y677454D03*
X347500Y677454D03*
X342500Y677454D03*
X337500Y677454D03*
X332500Y677454D03*
X327500Y677454D03*
D10*
X1055076Y530954D03*
X545076Y710954D03*
D11*
X832076Y532204D03*
X888076Y532204D03*
D12*
X845076Y568954D03*
X855076Y568954D03*
X865076Y568954D03*
X875076Y568954D03*
D13*
X760076Y629454D03*
X760076Y612454D03*
X720076Y629454D03*
X720076Y612454D03*
D14*
X747576Y577554D03*
X742576Y577554D03*
D15*
X772326Y577554D03*
X764576Y577554D03*
D14*
X757576Y577554D03*
X752576Y577554D03*
X732576Y577554D03*
X737576Y577554D03*
D15*
X707826Y577554D03*
X715576Y577554D03*
D14*
X722576Y577554D03*
X727576Y577554D03*
D16*
X711176Y566504D03*
X768976Y566504D03*
D17*
X735076Y626904D03*
D18*
X740076Y626654D03*
X745076Y626654D03*
X745076Y635254D03*
X740076Y635254D03*
X735076Y635254D03*
D19*
X591326Y567954D03*
D20*
X647326Y535954D03*
X572826Y535954D03*
D19*
X603826Y567954D03*
X616326Y567954D03*
X628826Y567954D03*
X971326Y567954D03*
D20*
X1027326Y535954D03*
X952826Y535954D03*
D19*
X983826Y567954D03*
X996326Y567954D03*
X1008826Y567954D03*
D21*
X650076Y590954D03*
X624676Y590954D03*
X599276Y590954D03*
X573876Y590954D03*
X1030076Y590954D03*
X1004676Y590954D03*
X979276Y590954D03*
X953876Y590954D03*
D22*
X691076Y603874D03*
X691076Y614034D03*
D21*
X691076Y596254D03*
X691076Y621654D03*
D23*
X560076Y621954D03*
X560076Y639954D03*
D24*
X925076Y650954D03*
X955076Y650954D03*
D25*
X1007576Y677454D03*
X1002576Y677454D03*
D26*
X1017576Y702454D03*
X942576Y702454D03*
D25*
X997576Y677454D03*
X992576Y677454D03*
X987576Y677454D03*
X982576Y677454D03*
X977576Y677454D03*
X972576Y677454D03*
X967576Y677454D03*
X962576Y677454D03*
X957576Y677454D03*
X952576Y677454D03*
X917576Y677454D03*
X912576Y677454D03*
D26*
X927576Y702454D03*
X852576Y702454D03*
D25*
X907576Y677454D03*
X902576Y677454D03*
X897576Y677454D03*
X892576Y677454D03*
X887576Y677454D03*
X882576Y677454D03*
X877576Y677454D03*
X872576Y677454D03*
X867576Y677454D03*
X862576Y677454D03*
D10*
X520000Y791431D03*
X10000Y971431D03*
D11*
X297000Y792681D03*
X353000Y792681D03*
D12*
X310000Y829431D03*
X320000Y829431D03*
X330000Y829431D03*
X340000Y829431D03*
D13*
X225000Y889931D03*
X225000Y872931D03*
X185000Y889931D03*
X185000Y872931D03*
D14*
X212500Y838031D03*
X207500Y838031D03*
D15*
X237250Y838031D03*
X229500Y838031D03*
D14*
X222500Y838031D03*
X217500Y838031D03*
X197500Y838031D03*
X202500Y838031D03*
D15*
X172750Y838031D03*
X180500Y838031D03*
D14*
X187500Y838031D03*
X192500Y838031D03*
D16*
X176100Y826981D03*
X233900Y826981D03*
D17*
X200000Y887381D03*
D18*
X205000Y887131D03*
X210000Y887131D03*
X210000Y895731D03*
X205000Y895731D03*
X200000Y895731D03*
D19*
X56250Y828431D03*
D20*
X112250Y796431D03*
X37750Y796431D03*
D19*
X68750Y828431D03*
X81250Y828431D03*
X93750Y828431D03*
X436250Y828431D03*
D20*
X492250Y796431D03*
X417750Y796431D03*
D19*
X448750Y828431D03*
X461250Y828431D03*
X473750Y828431D03*
D21*
X115000Y851431D03*
X89600Y851431D03*
X64200Y851431D03*
X38800Y851431D03*
X495000Y851431D03*
X469600Y851431D03*
X444200Y851431D03*
X418800Y851431D03*
D22*
X156000Y864351D03*
X156000Y874511D03*
D21*
X156000Y856731D03*
X156000Y882131D03*
D23*
X25000Y882431D03*
X25000Y900431D03*
D24*
X390000Y911431D03*
X420000Y911431D03*
D25*
X472500Y937931D03*
X467500Y937931D03*
D26*
X482500Y962931D03*
X407500Y962931D03*
D25*
X462500Y937931D03*
X457500Y937931D03*
X452500Y937931D03*
X447500Y937931D03*
X442500Y937931D03*
X437500Y937931D03*
X432500Y937931D03*
X427500Y937931D03*
X422500Y937931D03*
X417500Y937931D03*
X382500Y937931D03*
X377500Y937931D03*
D26*
X392500Y962931D03*
X317500Y962931D03*
D25*
X372500Y937931D03*
X367500Y937931D03*
X362500Y937931D03*
X357500Y937931D03*
X352500Y937931D03*
X347500Y937931D03*
X342500Y937931D03*
X337500Y937931D03*
X332500Y937931D03*
X327500Y937931D03*
D10*
X1055076Y791431D03*
X545076Y971431D03*
D11*
X832076Y792681D03*
X888076Y792681D03*
D12*
X845076Y829431D03*
X855076Y829431D03*
X865076Y829431D03*
X875076Y829431D03*
D13*
X760076Y889931D03*
X760076Y872931D03*
X720076Y889931D03*
X720076Y872931D03*
D14*
X747576Y838031D03*
X742576Y838031D03*
D15*
X772326Y838031D03*
X764576Y838031D03*
D14*
X757576Y838031D03*
X752576Y838031D03*
X732576Y838031D03*
X737576Y838031D03*
D15*
X707826Y838031D03*
X715576Y838031D03*
D14*
X722576Y838031D03*
X727576Y838031D03*
D16*
X711176Y826981D03*
X768976Y826981D03*
D17*
X735076Y887381D03*
D18*
X740076Y887131D03*
X745076Y887131D03*
X745076Y895731D03*
X740076Y895731D03*
X735076Y895731D03*
D19*
X591326Y828431D03*
D20*
X647326Y796431D03*
X572826Y796431D03*
D19*
X603826Y828431D03*
X616326Y828431D03*
X628826Y828431D03*
X971326Y828431D03*
D20*
X1027326Y796431D03*
X952826Y796431D03*
D19*
X983826Y828431D03*
X996326Y828431D03*
X1008826Y828431D03*
D21*
X650076Y851431D03*
X624676Y851431D03*
X599276Y851431D03*
X573876Y851431D03*
X1030076Y851431D03*
X1004676Y851431D03*
X979276Y851431D03*
X953876Y851431D03*
D22*
X691076Y864351D03*
X691076Y874511D03*
D21*
X691076Y856731D03*
X691076Y882131D03*
D23*
X560076Y882431D03*
X560076Y900431D03*
D24*
X925076Y911431D03*
X955076Y911431D03*
D25*
X1007576Y937931D03*
X1002576Y937931D03*
D26*
X1017576Y962931D03*
X942576Y962931D03*
D25*
X997576Y937931D03*
X992576Y937931D03*
X987576Y937931D03*
X982576Y937931D03*
X977576Y937931D03*
X972576Y937931D03*
X967576Y937931D03*
X962576Y937931D03*
X957576Y937931D03*
X952576Y937931D03*
X917576Y937931D03*
X912576Y937931D03*
D26*
X927576Y962931D03*
X852576Y962931D03*
D25*
X907576Y937931D03*
X902576Y937931D03*
X897576Y937931D03*
X892576Y937931D03*
X887576Y937931D03*
X882576Y937931D03*
X877576Y937931D03*
X872576Y937931D03*
X867576Y937931D03*
X862576Y937931D03*
D10*
X520000Y1051908D03*
X10000Y1231908D03*
D11*
X297000Y1053158D03*
X353000Y1053158D03*
D12*
X310000Y1089908D03*
X320000Y1089908D03*
X330000Y1089908D03*
X340000Y1089908D03*
D13*
X225000Y1150408D03*
X225000Y1133408D03*
X185000Y1150408D03*
X185000Y1133408D03*
D14*
X212500Y1098508D03*
X207500Y1098508D03*
D15*
X237250Y1098508D03*
X229500Y1098508D03*
D14*
X222500Y1098508D03*
X217500Y1098508D03*
X197500Y1098508D03*
X202500Y1098508D03*
D15*
X172750Y1098508D03*
X180500Y1098508D03*
D14*
X187500Y1098508D03*
X192500Y1098508D03*
D16*
X176100Y1087458D03*
X233900Y1087458D03*
D17*
X200000Y1147858D03*
D18*
X205000Y1147608D03*
X210000Y1147608D03*
X210000Y1156208D03*
X205000Y1156208D03*
X200000Y1156208D03*
D19*
X56250Y1088908D03*
D20*
X112250Y1056908D03*
X37750Y1056908D03*
D19*
X68750Y1088908D03*
X81250Y1088908D03*
X93750Y1088908D03*
X436250Y1088908D03*
D20*
X492250Y1056908D03*
X417750Y1056908D03*
D19*
X448750Y1088908D03*
X461250Y1088908D03*
X473750Y1088908D03*
D21*
X115000Y1111908D03*
X89600Y1111908D03*
X64200Y1111908D03*
X38800Y1111908D03*
X495000Y1111908D03*
X469600Y1111908D03*
X444200Y1111908D03*
X418800Y1111908D03*
D22*
X156000Y1124828D03*
X156000Y1134988D03*
D21*
X156000Y1117208D03*
X156000Y1142608D03*
D23*
X25000Y1142908D03*
X25000Y1160908D03*
D24*
X390000Y1171908D03*
X420000Y1171908D03*
D25*
X472500Y1198408D03*
X467500Y1198408D03*
D26*
X482500Y1223408D03*
X407500Y1223408D03*
D25*
X462500Y1198408D03*
X457500Y1198408D03*
X452500Y1198408D03*
X447500Y1198408D03*
X442500Y1198408D03*
X437500Y1198408D03*
X432500Y1198408D03*
X427500Y1198408D03*
X422500Y1198408D03*
X417500Y1198408D03*
X382500Y1198408D03*
X377500Y1198408D03*
D26*
X392500Y1223408D03*
X317500Y1223408D03*
D25*
X372500Y1198408D03*
X367500Y1198408D03*
X362500Y1198408D03*
X357500Y1198408D03*
X352500Y1198408D03*
X347500Y1198408D03*
X342500Y1198408D03*
X337500Y1198408D03*
X332500Y1198408D03*
X327500Y1198408D03*
D10*
X1055076Y1051908D03*
X545076Y1231908D03*
D11*
X832076Y1053158D03*
X888076Y1053158D03*
D12*
X845076Y1089908D03*
X855076Y1089908D03*
X865076Y1089908D03*
X875076Y1089908D03*
D13*
X760076Y1150408D03*
X760076Y1133408D03*
X720076Y1150408D03*
X720076Y1133408D03*
D14*
X747576Y1098508D03*
X742576Y1098508D03*
D15*
X772326Y1098508D03*
X764576Y1098508D03*
D14*
X757576Y1098508D03*
X752576Y1098508D03*
X732576Y1098508D03*
X737576Y1098508D03*
D15*
X707826Y1098508D03*
X715576Y1098508D03*
D14*
X722576Y1098508D03*
X727576Y1098508D03*
D16*
X711176Y1087458D03*
X768976Y1087458D03*
D17*
X735076Y1147858D03*
D18*
X740076Y1147608D03*
X745076Y1147608D03*
X745076Y1156208D03*
X740076Y1156208D03*
X735076Y1156208D03*
D19*
X591326Y1088908D03*
D20*
X647326Y1056908D03*
X572826Y1056908D03*
D19*
X603826Y1088908D03*
X616326Y1088908D03*
X628826Y1088908D03*
X971326Y1088908D03*
D20*
X1027326Y1056908D03*
X952826Y1056908D03*
D19*
X983826Y1088908D03*
X996326Y1088908D03*
X1008826Y1088908D03*
D21*
X650076Y1111908D03*
X624676Y1111908D03*
X599276Y1111908D03*
X573876Y1111908D03*
X1030076Y1111908D03*
X1004676Y1111908D03*
X979276Y1111908D03*
X953876Y1111908D03*
D22*
X691076Y1124828D03*
X691076Y1134988D03*
D21*
X691076Y1117208D03*
X691076Y1142608D03*
D23*
X560076Y1142908D03*
X560076Y1160908D03*
D24*
X925076Y1171908D03*
X955076Y1171908D03*
D25*
X1007576Y1198408D03*
X1002576Y1198408D03*
D26*
X1017576Y1223408D03*
X942576Y1223408D03*
D25*
X997576Y1198408D03*
X992576Y1198408D03*
X987576Y1198408D03*
X982576Y1198408D03*
X977576Y1198408D03*
X972576Y1198408D03*
X967576Y1198408D03*
X962576Y1198408D03*
X957576Y1198408D03*
X952576Y1198408D03*
X917576Y1198408D03*
X912576Y1198408D03*
D26*
X927576Y1223408D03*
X852576Y1223408D03*
D25*
X907576Y1198408D03*
X902576Y1198408D03*
X897576Y1198408D03*
X892576Y1198408D03*
X887576Y1198408D03*
X882576Y1198408D03*
X877576Y1198408D03*
X872576Y1198408D03*
X867576Y1198408D03*
X862576Y1198408D03*
D10*
X520000Y1312410D03*
X10000Y1492410D03*
D11*
X297000Y1313660D03*
X353000Y1313660D03*
D12*
X310000Y1350410D03*
X320000Y1350410D03*
X330000Y1350410D03*
X340000Y1350410D03*
D13*
X225000Y1410910D03*
X225000Y1393910D03*
X185000Y1410910D03*
X185000Y1393910D03*
D14*
X212500Y1359010D03*
X207500Y1359010D03*
D15*
X237250Y1359010D03*
X229500Y1359010D03*
D14*
X222500Y1359010D03*
X217500Y1359010D03*
X197500Y1359010D03*
X202500Y1359010D03*
D15*
X172750Y1359010D03*
X180500Y1359010D03*
D14*
X187500Y1359010D03*
X192500Y1359010D03*
D16*
X176100Y1347960D03*
X233900Y1347960D03*
D17*
X200000Y1408360D03*
D18*
X205000Y1408110D03*
X210000Y1408110D03*
X210000Y1416710D03*
X205000Y1416710D03*
X200000Y1416710D03*
D19*
X56250Y1349410D03*
D20*
X112250Y1317410D03*
X37750Y1317410D03*
D19*
X68750Y1349410D03*
X81250Y1349410D03*
X93750Y1349410D03*
X436250Y1349410D03*
D20*
X492250Y1317410D03*
X417750Y1317410D03*
D19*
X448750Y1349410D03*
X461250Y1349410D03*
X473750Y1349410D03*
D21*
X115000Y1372410D03*
X89600Y1372410D03*
X64200Y1372410D03*
X38800Y1372410D03*
X495000Y1372410D03*
X469600Y1372410D03*
X444200Y1372410D03*
X418800Y1372410D03*
D22*
X156000Y1385330D03*
X156000Y1395490D03*
D21*
X156000Y1377710D03*
X156000Y1403110D03*
D23*
X25000Y1403410D03*
X25000Y1421410D03*
D24*
X390000Y1432410D03*
X420000Y1432410D03*
D25*
X472500Y1458910D03*
X467500Y1458910D03*
D26*
X482500Y1483910D03*
X407500Y1483910D03*
D25*
X462500Y1458910D03*
X457500Y1458910D03*
X452500Y1458910D03*
X447500Y1458910D03*
X442500Y1458910D03*
X437500Y1458910D03*
X432500Y1458910D03*
X427500Y1458910D03*
X422500Y1458910D03*
X417500Y1458910D03*
X382500Y1458910D03*
X377500Y1458910D03*
D26*
X392500Y1483910D03*
X317500Y1483910D03*
D25*
X372500Y1458910D03*
X367500Y1458910D03*
X362500Y1458910D03*
X357500Y1458910D03*
X352500Y1458910D03*
X347500Y1458910D03*
X342500Y1458910D03*
X337500Y1458910D03*
X332500Y1458910D03*
X327500Y1458910D03*
D10*
X1055076Y1312410D03*
X545076Y1492410D03*
D11*
X832076Y1313660D03*
X888076Y1313660D03*
D12*
X845076Y1350410D03*
X855076Y1350410D03*
X865076Y1350410D03*
X875076Y1350410D03*
D13*
X760076Y1410910D03*
X760076Y1393910D03*
X720076Y1410910D03*
X720076Y1393910D03*
D14*
X747576Y1359010D03*
X742576Y1359010D03*
D15*
X772326Y1359010D03*
X764576Y1359010D03*
D14*
X757576Y1359010D03*
X752576Y1359010D03*
X732576Y1359010D03*
X737576Y1359010D03*
D15*
X707826Y1359010D03*
X715576Y1359010D03*
D14*
X722576Y1359010D03*
X727576Y1359010D03*
D16*
X711176Y1347960D03*
X768976Y1347960D03*
D17*
X735076Y1408360D03*
D18*
X740076Y1408110D03*
X745076Y1408110D03*
X745076Y1416710D03*
X740076Y1416710D03*
X735076Y1416710D03*
D19*
X591326Y1349410D03*
D20*
X647326Y1317410D03*
X572826Y1317410D03*
D19*
X603826Y1349410D03*
X616326Y1349410D03*
X628826Y1349410D03*
X971326Y1349410D03*
D20*
X1027326Y1317410D03*
X952826Y1317410D03*
D19*
X983826Y1349410D03*
X996326Y1349410D03*
X1008826Y1349410D03*
D21*
X650076Y1372410D03*
X624676Y1372410D03*
X599276Y1372410D03*
X573876Y1372410D03*
X1030076Y1372410D03*
X1004676Y1372410D03*
X979276Y1372410D03*
X953876Y1372410D03*
D22*
X691076Y1385330D03*
X691076Y1395490D03*
D21*
X691076Y1377710D03*
X691076Y1403110D03*
D23*
X560076Y1403410D03*
X560076Y1421410D03*
D24*
X925076Y1432410D03*
X955076Y1432410D03*
D25*
X1007576Y1458910D03*
X1002576Y1458910D03*
D26*
X1017576Y1483910D03*
X942576Y1483910D03*
D25*
X997576Y1458910D03*
X992576Y1458910D03*
X987576Y1458910D03*
X982576Y1458910D03*
X977576Y1458910D03*
X972576Y1458910D03*
X967576Y1458910D03*
X962576Y1458910D03*
X957576Y1458910D03*
X952576Y1458910D03*
X917576Y1458910D03*
X912576Y1458910D03*
D26*
X927576Y1483910D03*
X852576Y1483910D03*
D25*
X907576Y1458910D03*
X902576Y1458910D03*
X897576Y1458910D03*
X892576Y1458910D03*
X887576Y1458910D03*
X882576Y1458910D03*
X877576Y1458910D03*
X872576Y1458910D03*
X867576Y1458910D03*
X862576Y1458910D03*
D10*
X520000Y1572887D03*
X10000Y1752887D03*
D11*
X297000Y1574137D03*
X353000Y1574137D03*
D12*
X310000Y1610887D03*
X320000Y1610887D03*
X330000Y1610887D03*
X340000Y1610887D03*
D13*
X225000Y1671387D03*
X225000Y1654387D03*
X185000Y1671387D03*
X185000Y1654387D03*
D14*
X212500Y1619487D03*
X207500Y1619487D03*
D15*
X237250Y1619487D03*
X229500Y1619487D03*
D14*
X222500Y1619487D03*
X217500Y1619487D03*
X197500Y1619487D03*
X202500Y1619487D03*
D15*
X172750Y1619487D03*
X180500Y1619487D03*
D14*
X187500Y1619487D03*
X192500Y1619487D03*
D16*
X176100Y1608437D03*
X233900Y1608437D03*
D17*
X200000Y1668837D03*
D18*
X205000Y1668587D03*
X210000Y1668587D03*
X210000Y1677187D03*
X205000Y1677187D03*
X200000Y1677187D03*
D19*
X56250Y1609887D03*
D20*
X112250Y1577887D03*
X37750Y1577887D03*
D19*
X68750Y1609887D03*
X81250Y1609887D03*
X93750Y1609887D03*
X436250Y1609887D03*
D20*
X492250Y1577887D03*
X417750Y1577887D03*
D19*
X448750Y1609887D03*
X461250Y1609887D03*
X473750Y1609887D03*
D21*
X115000Y1632887D03*
X89600Y1632887D03*
X64200Y1632887D03*
X38800Y1632887D03*
X495000Y1632887D03*
X469600Y1632887D03*
X444200Y1632887D03*
X418800Y1632887D03*
D22*
X156000Y1645807D03*
X156000Y1655967D03*
D21*
X156000Y1638187D03*
X156000Y1663587D03*
D23*
X25000Y1663887D03*
X25000Y1681887D03*
D24*
X390000Y1692887D03*
X420000Y1692887D03*
D25*
X472500Y1719387D03*
X467500Y1719387D03*
D26*
X482500Y1744387D03*
X407500Y1744387D03*
D25*
X462500Y1719387D03*
X457500Y1719387D03*
X452500Y1719387D03*
X447500Y1719387D03*
X442500Y1719387D03*
X437500Y1719387D03*
X432500Y1719387D03*
X427500Y1719387D03*
X422500Y1719387D03*
X417500Y1719387D03*
X382500Y1719387D03*
X377500Y1719387D03*
D26*
X392500Y1744387D03*
X317500Y1744387D03*
D25*
X372500Y1719387D03*
X367500Y1719387D03*
X362500Y1719387D03*
X357500Y1719387D03*
X352500Y1719387D03*
X347500Y1719387D03*
X342500Y1719387D03*
X337500Y1719387D03*
X332500Y1719387D03*
X327500Y1719387D03*
D10*
X1055076Y1572887D03*
X545076Y1752887D03*
D11*
X832076Y1574137D03*
X888076Y1574137D03*
D12*
X845076Y1610887D03*
X855076Y1610887D03*
X865076Y1610887D03*
X875076Y1610887D03*
D13*
X760076Y1671387D03*
X760076Y1654387D03*
X720076Y1671387D03*
X720076Y1654387D03*
D14*
X747576Y1619487D03*
X742576Y1619487D03*
D15*
X772326Y1619487D03*
X764576Y1619487D03*
D14*
X757576Y1619487D03*
X752576Y1619487D03*
X732576Y1619487D03*
X737576Y1619487D03*
D15*
X707826Y1619487D03*
X715576Y1619487D03*
D14*
X722576Y1619487D03*
X727576Y1619487D03*
D16*
X711176Y1608437D03*
X768976Y1608437D03*
D17*
X735076Y1668837D03*
D18*
X740076Y1668587D03*
X745076Y1668587D03*
X745076Y1677187D03*
X740076Y1677187D03*
X735076Y1677187D03*
D19*
X591326Y1609887D03*
D20*
X647326Y1577887D03*
X572826Y1577887D03*
D19*
X603826Y1609887D03*
X616326Y1609887D03*
X628826Y1609887D03*
X971326Y1609887D03*
D20*
X1027326Y1577887D03*
X952826Y1577887D03*
D19*
X983826Y1609887D03*
X996326Y1609887D03*
X1008826Y1609887D03*
D21*
X650076Y1632887D03*
X624676Y1632887D03*
X599276Y1632887D03*
X573876Y1632887D03*
X1030076Y1632887D03*
X1004676Y1632887D03*
X979276Y1632887D03*
X953876Y1632887D03*
D22*
X691076Y1645807D03*
X691076Y1655967D03*
D21*
X691076Y1638187D03*
X691076Y1663587D03*
D23*
X560076Y1663887D03*
X560076Y1681887D03*
D24*
X925076Y1692887D03*
X955076Y1692887D03*
D25*
X1007576Y1719387D03*
X1002576Y1719387D03*
D26*
X1017576Y1744387D03*
X942576Y1744387D03*
D25*
X997576Y1719387D03*
X992576Y1719387D03*
X987576Y1719387D03*
X982576Y1719387D03*
X977576Y1719387D03*
X972576Y1719387D03*
X967576Y1719387D03*
X962576Y1719387D03*
X957576Y1719387D03*
X952576Y1719387D03*
X917576Y1719387D03*
X912576Y1719387D03*
D26*
X927576Y1744387D03*
X852576Y1744387D03*
D25*
X907576Y1719387D03*
X902576Y1719387D03*
X897576Y1719387D03*
X892576Y1719387D03*
X887576Y1719387D03*
X882576Y1719387D03*
X877576Y1719387D03*
X872576Y1719387D03*
X867576Y1719387D03*
X862576Y1719387D03*
D27*
X-26238Y1791614D03*
X1091336Y1791614D03*
D28*
X-35293Y63500D02*
X-35290Y63722D01*
X-35282Y63944D01*
X-35268Y64166D01*
X-35249Y64388D01*
X-35225Y64608D01*
X-35195Y64829D01*
X-35160Y65048D01*
X-35119Y65267D01*
X-35073Y65484D01*
X-35022Y65700D01*
X-34965Y65915D01*
X-34903Y66129D01*
X-34836Y66340D01*
X-34764Y66551D01*
X-34686Y66759D01*
X-34604Y66965D01*
X-34516Y67169D01*
X-34424Y67372D01*
X-34326Y67571D01*
X-34224Y67768D01*
X-34117Y67963D01*
X-34005Y68155D01*
X-33888Y68344D01*
X-33767Y68531D01*
X-33641Y68714D01*
X-33511Y68894D01*
X-33376Y69071D01*
X-33238Y69244D01*
X-33095Y69414D01*
X-32947Y69581D01*
X-32796Y69744D01*
X-32641Y69903D01*
X-32482Y70058D01*
X-32319Y70209D01*
X-32152Y70357D01*
X-31982Y70500D01*
X-31809Y70638D01*
X-31632Y70773D01*
X-31452Y70903D01*
X-31269Y71029D01*
X-31082Y71150D01*
X-30893Y71267D01*
X-30701Y71379D01*
X-30506Y71486D01*
X-30309Y71588D01*
X-30110Y71686D01*
X-29907Y71778D01*
X-29703Y71866D01*
X-29497Y71948D01*
X-29289Y72026D01*
X-29078Y72098D01*
X-28867Y72165D01*
X-28653Y72227D01*
X-28438Y72284D01*
X-28222Y72335D01*
X-28005Y72381D01*
X-27786Y72422D01*
X-27567Y72457D01*
X-27346Y72487D01*
X-27126Y72511D01*
X-26904Y72530D01*
X-26682Y72544D01*
X-26460Y72552D01*
X-26238Y72555D01*
X-26016Y72552D01*
X-25794Y72544D01*
X-25572Y72530D01*
X-25350Y72511D01*
X-25130Y72487D01*
X-24909Y72457D01*
X-24690Y72422D01*
X-24471Y72381D01*
X-24254Y72335D01*
X-24038Y72284D01*
X-23823Y72227D01*
X-23609Y72165D01*
X-23398Y72098D01*
X-23187Y72026D01*
X-22979Y71948D01*
X-22773Y71866D01*
X-22569Y71778D01*
X-22366Y71686D01*
X-22167Y71588D01*
X-21970Y71486D01*
X-21775Y71379D01*
X-21583Y71267D01*
X-21394Y71150D01*
X-21207Y71029D01*
X-21024Y70903D01*
X-20844Y70773D01*
X-20667Y70638D01*
X-20494Y70500D01*
X-20324Y70357D01*
X-20157Y70209D01*
X-19994Y70058D01*
X-19835Y69903D01*
X-19680Y69744D01*
X-19529Y69581D01*
X-19381Y69414D01*
X-19238Y69244D01*
X-19100Y69071D01*
X-18965Y68894D01*
X-18835Y68714D01*
X-18709Y68531D01*
X-18588Y68344D01*
X-18471Y68155D01*
X-18359Y67963D01*
X-18252Y67768D01*
X-18150Y67571D01*
X-18052Y67372D01*
X-17960Y67169D01*
X-17872Y66965D01*
X-17790Y66759D01*
X-17712Y66551D01*
X-17640Y66340D01*
X-17573Y66129D01*
X-17511Y65915D01*
X-17454Y65700D01*
X-17403Y65484D01*
X-17357Y65267D01*
X-17316Y65048D01*
X-17281Y64829D01*
X-17251Y64608D01*
X-17227Y64388D01*
X-17208Y64166D01*
X-17194Y63944D01*
X-17186Y63722D01*
X-17183Y63500D01*
X-17186Y63278D01*
X-17194Y63056D01*
X-17208Y62834D01*
X-17227Y62612D01*
X-17251Y62392D01*
X-17281Y62171D01*
X-17316Y61952D01*
X-17357Y61733D01*
X-17403Y61516D01*
X-17454Y61300D01*
X-17511Y61085D01*
X-17573Y60871D01*
X-17640Y60660D01*
X-17712Y60449D01*
X-17790Y60241D01*
X-17872Y60035D01*
X-17960Y59831D01*
X-18052Y59628D01*
X-18150Y59429D01*
X-18252Y59232D01*
X-18359Y59037D01*
X-18471Y58845D01*
X-18588Y58656D01*
X-18709Y58469D01*
X-18835Y58286D01*
X-18965Y58106D01*
X-19100Y57929D01*
X-19238Y57756D01*
X-19381Y57586D01*
X-19529Y57419D01*
X-19680Y57256D01*
X-19835Y57097D01*
X-19994Y56942D01*
X-20157Y56791D01*
X-20324Y56643D01*
X-20494Y56500D01*
X-20667Y56362D01*
X-20844Y56227D01*
X-21024Y56097D01*
X-21207Y55971D01*
X-21394Y55850D01*
X-21583Y55733D01*
X-21775Y55621D01*
X-21970Y55514D01*
X-22167Y55412D01*
X-22366Y55314D01*
X-22569Y55222D01*
X-22773Y55134D01*
X-22979Y55052D01*
X-23187Y54974D01*
X-23398Y54902D01*
X-23609Y54835D01*
X-23823Y54773D01*
X-24038Y54716D01*
X-24254Y54665D01*
X-24471Y54619D01*
X-24690Y54578D01*
X-24909Y54543D01*
X-25130Y54513D01*
X-25350Y54489D01*
X-25572Y54470D01*
X-25794Y54456D01*
X-26016Y54448D01*
X-26238Y54445D01*
X-26460Y54448D01*
X-26682Y54456D01*
X-26904Y54470D01*
X-27126Y54489D01*
X-27346Y54513D01*
X-27567Y54543D01*
X-27786Y54578D01*
X-28005Y54619D01*
X-28222Y54665D01*
X-28438Y54716D01*
X-28653Y54773D01*
X-28867Y54835D01*
X-29078Y54902D01*
X-29289Y54974D01*
X-29497Y55052D01*
X-29703Y55134D01*
X-29907Y55222D01*
X-30110Y55314D01*
X-30309Y55412D01*
X-30506Y55514D01*
X-30701Y55621D01*
X-30893Y55733D01*
X-31082Y55850D01*
X-31269Y55971D01*
X-31452Y56097D01*
X-31632Y56227D01*
X-31809Y56362D01*
X-31982Y56500D01*
X-32152Y56643D01*
X-32319Y56791D01*
X-32482Y56942D01*
X-32641Y57097D01*
X-32796Y57256D01*
X-32947Y57419D01*
X-33095Y57586D01*
X-33238Y57756D01*
X-33376Y57929D01*
X-33511Y58106D01*
X-33641Y58286D01*
X-33767Y58469D01*
X-33888Y58656D01*
X-34005Y58845D01*
X-34117Y59037D01*
X-34224Y59232D01*
X-34326Y59429D01*
X-34424Y59628D01*
X-34516Y59831D01*
X-34604Y60035D01*
X-34686Y60241D01*
X-34764Y60449D01*
X-34836Y60660D01*
X-34903Y60871D01*
X-34965Y61085D01*
X-35022Y61300D01*
X-35073Y61516D01*
X-35119Y61733D01*
X-35160Y61952D01*
X-35195Y62171D01*
X-35225Y62392D01*
X-35249Y62612D01*
X-35268Y62834D01*
X-35282Y63056D01*
X-35290Y63278D01*
X-35293Y63500D01*
D29*
X-26238Y63500D03*
M02*
