G04 EAGLE Gerber RS-274X export*
G75*
%MOMM*%
%FSLAX34Y34*%
%LPD*%
%INTop Copper*%
%IPPOS*%
%AMOC8*
5,1,8,0,0,1.08239X$1,22.5*%
G01*
%ADD10C,0.203200*%


D10*
X546983Y11359D02*
X549695Y5936D01*
X552407Y11359D01*
X556338Y11359D02*
X559050Y14071D01*
X559050Y5936D01*
X556338Y5936D02*
X561762Y5936D01*
X565694Y11359D02*
X568405Y14071D01*
X568405Y5936D01*
X565694Y5936D02*
X571117Y5936D01*
X492239Y26016D02*
X492239Y33991D01*
X489581Y33991D02*
X494897Y33991D01*
X500118Y33991D02*
X502776Y33991D01*
X500118Y33991D02*
X498788Y32662D01*
X498788Y27345D01*
X500118Y26016D01*
X502776Y26016D01*
X504105Y27345D01*
X504105Y32662D01*
X502776Y33991D01*
X507996Y33991D02*
X507996Y26016D01*
X507996Y33991D02*
X511984Y33991D01*
X513313Y32662D01*
X513313Y30003D01*
X511984Y28674D01*
X507996Y28674D01*
X517204Y30003D02*
X522521Y30003D01*
X526412Y33991D02*
X526412Y26016D01*
X531729Y26016D01*
X535620Y26016D02*
X535620Y31333D01*
X538278Y33991D01*
X540936Y31333D01*
X540936Y26016D01*
X540936Y30003D02*
X535620Y30003D01*
X544828Y32662D02*
X544828Y33991D01*
X544828Y32662D02*
X547486Y30003D01*
X550144Y32662D01*
X550144Y33991D01*
X547486Y30003D02*
X547486Y26016D01*
X554036Y33991D02*
X559352Y33991D01*
X554036Y33991D02*
X554036Y26016D01*
X559352Y26016D01*
X556694Y30003D02*
X554036Y30003D01*
X563243Y26016D02*
X563243Y33991D01*
X567231Y33991D01*
X568560Y32662D01*
X568560Y30003D01*
X567231Y28674D01*
X563243Y28674D01*
X565902Y28674D02*
X568560Y26016D01*
M02*
