G04 EAGLE Gerber RS-274X export*
G75*
%MOMM*%
%FSLAX34Y34*%
%LPD*%
%INSilkscreen Top*%
%IPPOS*%
%AMOC8*
5,1,8,0,0,1.08239X$1,22.5*%
G01*

G36*
X555103Y321753D02*
X555103Y321753D01*
X555105Y321751D01*
X557905Y322051D01*
X559204Y322151D01*
X559210Y322157D01*
X559216Y322153D01*
X561916Y323053D01*
X561917Y323055D01*
X561918Y323054D01*
X563218Y323554D01*
X563221Y323559D01*
X563225Y323557D01*
X565625Y324957D01*
X565627Y324962D01*
X565630Y324961D01*
X567830Y326661D01*
X567831Y326666D01*
X567835Y326665D01*
X568835Y327665D01*
X568835Y327669D01*
X568838Y327669D01*
X570638Y329869D01*
X570638Y329875D01*
X570643Y329875D01*
X572043Y332275D01*
X572042Y332279D01*
X572045Y332279D01*
X572645Y333579D01*
X572644Y333584D01*
X572647Y333586D01*
X573447Y336186D01*
X573445Y336191D01*
X573449Y336193D01*
X573649Y337593D01*
X573648Y337594D01*
X573649Y337595D01*
X573949Y340395D01*
X573947Y340398D01*
X573949Y340400D01*
X573949Y390700D01*
X573948Y390702D01*
X573949Y390704D01*
X573749Y393504D01*
X573747Y393506D01*
X573749Y393507D01*
X573549Y394907D01*
X573544Y394912D01*
X573547Y394916D01*
X572647Y397616D01*
X572645Y397617D01*
X572646Y397618D01*
X572146Y398918D01*
X572142Y398920D01*
X572143Y398923D01*
X570843Y401323D01*
X570837Y401326D01*
X570838Y401331D01*
X569038Y403531D01*
X569034Y403532D01*
X569035Y403535D01*
X568035Y404535D01*
X568032Y404535D01*
X568032Y404537D01*
X565932Y406337D01*
X565925Y406338D01*
X565925Y406343D01*
X564725Y407043D01*
X564721Y407042D01*
X564721Y407045D01*
X563423Y407644D01*
X562225Y408343D01*
X562216Y408341D01*
X562214Y408347D01*
X559514Y409147D01*
X559509Y409145D01*
X559507Y409149D01*
X558107Y409349D01*
X558106Y409348D01*
X558105Y409349D01*
X555405Y409649D01*
X555402Y409647D01*
X555400Y409649D01*
X504900Y409649D01*
X504897Y409647D01*
X504895Y409649D01*
X502095Y409349D01*
X502094Y409348D01*
X502093Y409349D01*
X500693Y409149D01*
X500689Y409145D01*
X500686Y409147D01*
X498086Y408347D01*
X498084Y408345D01*
X498082Y408346D01*
X496782Y407846D01*
X496780Y407841D01*
X496776Y407843D01*
X494276Y406443D01*
X494273Y406436D01*
X494268Y406437D01*
X492168Y404637D01*
X492168Y404636D01*
X492167Y404637D01*
X491167Y403737D01*
X491166Y403731D01*
X491162Y403731D01*
X489362Y401531D01*
X489362Y401525D01*
X489357Y401525D01*
X487957Y399125D01*
X487958Y399121D01*
X487955Y399121D01*
X487355Y397821D01*
X487356Y397815D01*
X487353Y397814D01*
X486553Y395114D01*
X486555Y395109D01*
X486551Y395108D01*
X486351Y393808D01*
X486352Y393806D01*
X486351Y393805D01*
X486051Y391005D01*
X486053Y391002D01*
X486051Y391000D01*
X486051Y340600D01*
X486053Y340597D01*
X486051Y340595D01*
X486351Y337795D01*
X486352Y337793D01*
X486351Y337793D01*
X486551Y336493D01*
X486555Y336489D01*
X486553Y336486D01*
X487353Y333786D01*
X487355Y333784D01*
X487354Y333782D01*
X487854Y332482D01*
X487859Y332480D01*
X487857Y332476D01*
X489257Y329976D01*
X489264Y329973D01*
X489263Y329968D01*
X491063Y327868D01*
X491064Y327868D01*
X491063Y327867D01*
X491963Y326867D01*
X491969Y326866D01*
X491969Y326862D01*
X494169Y325062D01*
X494175Y325062D01*
X494175Y325057D01*
X496575Y323657D01*
X496579Y323658D01*
X496579Y323655D01*
X497879Y323055D01*
X497885Y323056D01*
X497886Y323053D01*
X500586Y322253D01*
X500591Y322255D01*
X500593Y322251D01*
X501893Y322051D01*
X501894Y322052D01*
X501895Y322051D01*
X504695Y321751D01*
X504698Y321753D01*
X504700Y321751D01*
X555100Y321751D01*
X555103Y321753D01*
G37*
%LPC*%
G36*
X528805Y335749D02*
X528805Y335749D01*
X524608Y336149D01*
X523313Y336448D01*
X519316Y337746D01*
X518020Y338245D01*
X514324Y340243D01*
X513129Y340940D01*
X509932Y343638D01*
X509931Y343638D01*
X508835Y344535D01*
X506139Y347830D01*
X505342Y348927D01*
X502645Y353820D01*
X500948Y359111D01*
X500749Y360506D01*
X500349Y364702D01*
X500349Y366097D01*
X500749Y370195D01*
X500948Y371589D01*
X502546Y376980D01*
X503243Y378175D01*
X503242Y378176D01*
X503243Y378177D01*
X505242Y381874D01*
X506039Y382970D01*
X508736Y386167D01*
X509733Y387163D01*
X513029Y389860D01*
X514125Y390558D01*
X517822Y392556D01*
X519117Y393154D01*
X523112Y394352D01*
X524508Y394651D01*
X530001Y395251D01*
X535591Y394751D01*
X536986Y394353D01*
X540984Y393153D01*
X542279Y392655D01*
X545875Y390658D01*
X547071Y389860D01*
X550368Y387162D01*
X551364Y386266D01*
X554061Y383070D01*
X554858Y381973D01*
X557555Y377081D01*
X559252Y371689D01*
X559451Y370295D01*
X559851Y366197D01*
X559851Y364802D01*
X559451Y360606D01*
X559252Y359211D01*
X557554Y353919D01*
X554958Y349027D01*
X554061Y347831D01*
X551364Y344634D01*
X550368Y343738D01*
X547171Y341040D01*
X545975Y340343D01*
X545952Y340288D01*
X545959Y340285D01*
X545956Y340278D01*
X545974Y340242D01*
X542280Y338245D01*
X540984Y337747D01*
X536986Y336547D01*
X535691Y336149D01*
X530100Y335649D01*
X528805Y335749D01*
G37*
%LPD*%
G36*
X575947Y416587D02*
X575947Y416587D01*
X575942Y416594D01*
X575949Y416600D01*
X575949Y440300D01*
X575930Y440326D01*
X575930Y440339D01*
X575130Y440939D01*
X575108Y440939D01*
X575100Y440949D01*
X484400Y440949D01*
X484353Y440913D01*
X484358Y440906D01*
X484351Y440900D01*
X484351Y417200D01*
X484370Y417174D01*
X484370Y417161D01*
X485170Y416561D01*
X485192Y416561D01*
X485200Y416551D01*
X575900Y416551D01*
X575947Y416587D01*
G37*
G36*
X531507Y139251D02*
X531507Y139251D01*
X531515Y139259D01*
X531522Y139256D01*
X532722Y139856D01*
X532728Y139868D01*
X532736Y139867D01*
X533736Y140967D01*
X533738Y140980D01*
X533746Y140982D01*
X534246Y142282D01*
X534245Y142286D01*
X534247Y142288D01*
X534244Y142293D01*
X534249Y142297D01*
X534349Y143697D01*
X541349Y272097D01*
X541347Y272101D01*
X541349Y272104D01*
X541249Y273504D01*
X541247Y273506D01*
X541249Y273507D01*
X541049Y274907D01*
X541046Y274909D01*
X541048Y274911D01*
X540748Y276211D01*
X540742Y276216D01*
X540745Y276221D01*
X540145Y277521D01*
X540140Y277523D01*
X540141Y277527D01*
X539341Y278727D01*
X539340Y278728D01*
X539340Y278729D01*
X538540Y279829D01*
X538531Y279832D01*
X538531Y279838D01*
X537431Y280738D01*
X537429Y280738D01*
X537429Y280740D01*
X536329Y281540D01*
X536325Y281540D01*
X536325Y281543D01*
X535125Y282243D01*
X535117Y282242D01*
X535114Y282247D01*
X533814Y282647D01*
X533811Y282646D01*
X533810Y282648D01*
X532410Y282948D01*
X532406Y282946D01*
X532404Y282949D01*
X531004Y283049D01*
X530999Y283046D01*
X530997Y283049D01*
X529597Y282949D01*
X529594Y282947D01*
X529593Y282949D01*
X528193Y282749D01*
X528187Y282743D01*
X528182Y282746D01*
X526882Y282246D01*
X526880Y282243D01*
X526878Y282244D01*
X525678Y281644D01*
X525676Y281640D01*
X525673Y281641D01*
X524473Y280841D01*
X524471Y280836D01*
X524467Y280837D01*
X523467Y279937D01*
X523466Y279931D01*
X523462Y279931D01*
X522562Y278831D01*
X522562Y278829D01*
X522560Y278829D01*
X521760Y277729D01*
X521760Y277722D01*
X521755Y277721D01*
X521155Y276421D01*
X521156Y276416D01*
X521153Y276414D01*
X520753Y275114D01*
X520755Y275109D01*
X520751Y275107D01*
X520551Y273707D01*
X520553Y273705D01*
X520551Y273704D01*
X520451Y272304D01*
X520452Y272301D01*
X520451Y272300D01*
X520451Y270900D01*
X520452Y270899D01*
X520451Y270898D01*
X526051Y143798D01*
X526051Y143797D01*
X526151Y142397D01*
X526158Y142389D01*
X526154Y142382D01*
X526654Y141082D01*
X526662Y141077D01*
X526660Y141071D01*
X527460Y139971D01*
X527477Y139966D01*
X527479Y139955D01*
X528779Y139355D01*
X528787Y139357D01*
X528789Y139352D01*
X530089Y139052D01*
X530101Y139057D01*
X530107Y139051D01*
X531507Y139251D01*
G37*
G36*
X515015Y251162D02*
X515015Y251162D01*
X515026Y251158D01*
X515826Y251658D01*
X515834Y251678D01*
X515835Y251679D01*
X515835Y251680D01*
X515840Y251695D01*
X515849Y251702D01*
X514949Y271301D01*
X514949Y272698D01*
X515049Y274095D01*
X515249Y275491D01*
X515548Y276888D01*
X515947Y278184D01*
X516445Y279479D01*
X517142Y280674D01*
X517940Y281871D01*
X518738Y282968D01*
X519734Y283964D01*
X520732Y284862D01*
X521828Y285759D01*
X523024Y286457D01*
X524321Y287155D01*
X525616Y287654D01*
X526912Y288052D01*
X528307Y288351D01*
X529704Y288451D01*
X531000Y288551D01*
X532395Y288451D01*
X533791Y288252D01*
X535188Y287952D01*
X536482Y287554D01*
X537778Y286956D01*
X538975Y286357D01*
X540171Y285560D01*
X541268Y284662D01*
X542265Y283765D01*
X543262Y282669D01*
X544059Y281573D01*
X544757Y280375D01*
X545455Y279179D01*
X545953Y277884D01*
X546352Y276488D01*
X546651Y275193D01*
X546751Y273797D01*
X546851Y272400D01*
X546751Y271004D01*
X546751Y271003D01*
X545651Y251403D01*
X545684Y251353D01*
X545689Y251357D01*
X545692Y251351D01*
X546892Y251151D01*
X546897Y251154D01*
X546900Y251151D01*
X558100Y251151D01*
X558112Y251160D01*
X558121Y251155D01*
X559421Y251755D01*
X559430Y251774D01*
X559443Y251775D01*
X560143Y252975D01*
X560141Y252991D01*
X560149Y252996D01*
X560249Y254296D01*
X560248Y254299D01*
X560249Y254300D01*
X560249Y294900D01*
X560246Y294904D01*
X560249Y294907D01*
X560049Y296307D01*
X560035Y296320D01*
X560038Y296331D01*
X559138Y297431D01*
X559116Y297436D01*
X559111Y297448D01*
X557811Y297748D01*
X557804Y297745D01*
X557800Y297749D01*
X501800Y297749D01*
X501789Y297741D01*
X501784Y297741D01*
X501778Y297744D01*
X500578Y297144D01*
X500569Y297126D01*
X500557Y297125D01*
X499857Y295925D01*
X499859Y295909D01*
X499851Y295904D01*
X499751Y294504D01*
X499752Y294501D01*
X499751Y294500D01*
X499751Y253900D01*
X499755Y253894D01*
X499752Y253890D01*
X500052Y252490D01*
X500066Y252478D01*
X500063Y252467D01*
X500963Y251467D01*
X500984Y251463D01*
X500990Y251452D01*
X502390Y251152D01*
X502397Y251155D01*
X502400Y251151D01*
X515000Y251151D01*
X515015Y251162D01*
G37*
G36*
X624807Y167258D02*
X624807Y167258D01*
X624814Y167253D01*
X626114Y167653D01*
X626122Y167664D01*
X626131Y167662D01*
X627231Y168562D01*
X627233Y168571D01*
X627240Y168571D01*
X628040Y169671D01*
X628040Y169683D01*
X628047Y169686D01*
X628447Y170986D01*
X628443Y170998D01*
X628449Y171004D01*
X628349Y172404D01*
X628341Y172413D01*
X628345Y172421D01*
X627745Y173721D01*
X627739Y173724D01*
X627741Y173728D01*
X566041Y263828D01*
X566036Y263829D01*
X566036Y263834D01*
X566026Y263833D01*
X565984Y263847D01*
X565978Y263828D01*
X565958Y263825D01*
X565658Y263325D01*
X565660Y263307D01*
X565653Y263302D01*
X565653Y263301D01*
X565651Y263300D01*
X565651Y253502D01*
X565551Y252109D01*
X565154Y250818D01*
X564557Y249525D01*
X563763Y248433D01*
X562770Y247539D01*
X561576Y246743D01*
X560284Y246147D01*
X558991Y245848D01*
X557593Y245649D01*
X557571Y245627D01*
X557558Y245625D01*
X557258Y245125D01*
X557263Y245073D01*
X557262Y245068D01*
X621062Y168868D01*
X621069Y168867D01*
X621069Y168862D01*
X622169Y167962D01*
X622177Y167962D01*
X622178Y167956D01*
X623378Y167356D01*
X623392Y167358D01*
X623397Y167351D01*
X624797Y167251D01*
X624807Y167258D01*
G37*
G36*
X436807Y167451D02*
X436807Y167451D01*
X436815Y167459D01*
X436822Y167456D01*
X438022Y168056D01*
X438026Y168065D01*
X438033Y168063D01*
X439033Y168963D01*
X439034Y168969D01*
X439038Y168968D01*
X502938Y245268D01*
X502938Y245269D01*
X502938Y245271D01*
X502941Y245328D01*
X502924Y245329D01*
X502919Y245345D01*
X502219Y245645D01*
X502210Y245643D01*
X502207Y245649D01*
X500811Y245848D01*
X499518Y246246D01*
X498225Y246843D01*
X497132Y247638D01*
X496138Y248632D01*
X495343Y249725D01*
X494747Y251016D01*
X494449Y252307D01*
X494349Y253702D01*
X494349Y263500D01*
X494324Y263533D01*
X494322Y263544D01*
X493922Y263744D01*
X493864Y263733D01*
X493864Y263728D01*
X493859Y263728D01*
X432960Y174629D01*
X432160Y173529D01*
X432160Y173522D01*
X432157Y173519D01*
X432154Y173518D01*
X431654Y172218D01*
X431657Y172207D01*
X431651Y172204D01*
X431551Y170804D01*
X431558Y170793D01*
X431553Y170786D01*
X431953Y169486D01*
X431964Y169478D01*
X431962Y169469D01*
X432862Y168369D01*
X432872Y168366D01*
X432873Y168359D01*
X434073Y167559D01*
X434085Y167560D01*
X434089Y167552D01*
X435389Y167252D01*
X435401Y167257D01*
X435407Y167251D01*
X436807Y167451D01*
G37*
G36*
X617614Y9707D02*
X617614Y9707D01*
X617684Y9713D01*
X617699Y9722D01*
X617716Y9725D01*
X617822Y9797D01*
X617832Y9803D01*
X617833Y9805D01*
X617834Y9806D01*
X620134Y12106D01*
X620142Y12119D01*
X620143Y12120D01*
X620145Y12122D01*
X620147Y12126D01*
X620166Y12142D01*
X620192Y12199D01*
X620225Y12253D01*
X620228Y12277D01*
X620238Y12300D01*
X620236Y12362D01*
X620242Y12425D01*
X620233Y12448D01*
X620232Y12473D01*
X620192Y12555D01*
X620180Y12586D01*
X620174Y12592D01*
X620169Y12601D01*
X618224Y15195D01*
X618234Y15206D01*
X618253Y15236D01*
X618305Y15304D01*
X618405Y15504D01*
X618409Y15520D01*
X618418Y15533D01*
X618444Y15667D01*
X618445Y15672D01*
X618445Y15673D01*
X618445Y15674D01*
X618445Y15684D01*
X618478Y15749D01*
X618534Y15806D01*
X618553Y15836D01*
X618605Y15904D01*
X618705Y16104D01*
X618709Y16120D01*
X618718Y16133D01*
X618744Y16267D01*
X618745Y16272D01*
X618745Y16273D01*
X618745Y16274D01*
X618745Y16284D01*
X618905Y16604D01*
X618909Y16620D01*
X618918Y16633D01*
X618944Y16767D01*
X618945Y16772D01*
X618945Y16773D01*
X618945Y16774D01*
X618945Y16784D01*
X619005Y16904D01*
X619009Y16920D01*
X619018Y16933D01*
X619044Y17067D01*
X619045Y17072D01*
X619045Y17073D01*
X619045Y17074D01*
X619045Y17084D01*
X619105Y17204D01*
X619109Y17220D01*
X619118Y17233D01*
X619138Y17336D01*
X622430Y17900D01*
X622448Y17907D01*
X622467Y17908D01*
X622527Y17941D01*
X622589Y17967D01*
X622602Y17982D01*
X622619Y17991D01*
X622658Y18047D01*
X622702Y18098D01*
X622707Y18117D01*
X622718Y18133D01*
X622740Y18244D01*
X622745Y18266D01*
X622744Y18270D01*
X622745Y18274D01*
X622745Y21474D01*
X622741Y21493D01*
X622743Y21514D01*
X622732Y21546D01*
X622731Y21553D01*
X622726Y21562D01*
X622721Y21577D01*
X622706Y21642D01*
X622693Y21658D01*
X622686Y21677D01*
X622638Y21724D01*
X622596Y21776D01*
X622577Y21784D01*
X622563Y21798D01*
X622461Y21836D01*
X622438Y21846D01*
X622433Y21846D01*
X622428Y21848D01*
X619145Y22395D01*
X619145Y22474D01*
X619128Y22548D01*
X619114Y22623D01*
X619108Y22633D01*
X619106Y22642D01*
X619083Y22670D01*
X619045Y22725D01*
X619045Y22774D01*
X619028Y22848D01*
X619014Y22923D01*
X619008Y22933D01*
X619006Y22942D01*
X618983Y22970D01*
X618934Y23042D01*
X618878Y23098D01*
X618845Y23163D01*
X618845Y23274D01*
X618828Y23348D01*
X618814Y23423D01*
X618808Y23433D01*
X618806Y23442D01*
X618783Y23470D01*
X618745Y23525D01*
X618745Y23574D01*
X618728Y23648D01*
X618714Y23723D01*
X618708Y23733D01*
X618706Y23742D01*
X618683Y23770D01*
X618634Y23842D01*
X618578Y23898D01*
X618505Y24043D01*
X618482Y24071D01*
X618445Y24125D01*
X618445Y24174D01*
X618428Y24248D01*
X618414Y24323D01*
X618408Y24333D01*
X618406Y24342D01*
X618383Y24370D01*
X618334Y24442D01*
X618278Y24498D01*
X618238Y24578D01*
X620173Y27251D01*
X620183Y27275D01*
X620200Y27294D01*
X620216Y27354D01*
X620240Y27411D01*
X620238Y27436D01*
X620245Y27461D01*
X620233Y27522D01*
X620229Y27584D01*
X620216Y27606D01*
X620211Y27631D01*
X620160Y27703D01*
X620142Y27733D01*
X620135Y27738D01*
X620128Y27748D01*
X617828Y29948D01*
X617817Y29954D01*
X617809Y29965D01*
X617743Y29998D01*
X617679Y30036D01*
X617666Y30037D01*
X617655Y30042D01*
X617581Y30043D01*
X617507Y30048D01*
X617495Y30043D01*
X617482Y30043D01*
X617351Y29986D01*
X614677Y28142D01*
X614536Y28213D01*
X614520Y28217D01*
X614507Y28226D01*
X614373Y28252D01*
X614367Y28253D01*
X614366Y28253D01*
X614356Y28253D01*
X614291Y28285D01*
X614234Y28342D01*
X614204Y28361D01*
X614136Y28413D01*
X613936Y28513D01*
X613920Y28517D01*
X613907Y28526D01*
X613773Y28552D01*
X613767Y28553D01*
X613766Y28553D01*
X613756Y28553D01*
X613691Y28585D01*
X613634Y28642D01*
X613569Y28682D01*
X613507Y28726D01*
X613495Y28728D01*
X613487Y28733D01*
X613452Y28736D01*
X613366Y28753D01*
X613256Y28753D01*
X613136Y28813D01*
X613120Y28817D01*
X613107Y28826D01*
X612973Y28852D01*
X612967Y28853D01*
X612966Y28853D01*
X612956Y28853D01*
X612836Y28913D01*
X612820Y28917D01*
X612807Y28926D01*
X612673Y28952D01*
X612667Y28953D01*
X612666Y28953D01*
X612656Y28953D01*
X612536Y29013D01*
X612520Y29017D01*
X612507Y29026D01*
X612490Y29029D01*
X611940Y32238D01*
X611932Y32256D01*
X611931Y32275D01*
X611899Y32334D01*
X611872Y32397D01*
X611858Y32410D01*
X611848Y32427D01*
X611793Y32466D01*
X611741Y32510D01*
X611722Y32515D01*
X611707Y32526D01*
X611596Y32547D01*
X611574Y32553D01*
X611570Y32552D01*
X611566Y32553D01*
X608366Y32553D01*
X608347Y32549D01*
X608328Y32551D01*
X608264Y32529D01*
X608198Y32513D01*
X608183Y32501D01*
X608164Y32495D01*
X608117Y32447D01*
X608064Y32403D01*
X608056Y32386D01*
X608043Y32372D01*
X608003Y32266D01*
X607994Y32245D01*
X607994Y32242D01*
X607992Y32238D01*
X607434Y28982D01*
X607376Y28953D01*
X607266Y28953D01*
X607192Y28936D01*
X607116Y28922D01*
X607107Y28916D01*
X607098Y28913D01*
X607070Y28891D01*
X607014Y28853D01*
X606966Y28853D01*
X606950Y28849D01*
X606934Y28852D01*
X606803Y28815D01*
X606798Y28813D01*
X606797Y28813D01*
X606796Y28813D01*
X606676Y28753D01*
X606666Y28753D01*
X606650Y28749D01*
X606634Y28752D01*
X606503Y28715D01*
X606498Y28713D01*
X606497Y28713D01*
X606496Y28713D01*
X606296Y28613D01*
X606269Y28590D01*
X606214Y28553D01*
X606166Y28553D01*
X606092Y28536D01*
X606016Y28522D01*
X606007Y28516D01*
X605998Y28513D01*
X605970Y28491D01*
X605898Y28442D01*
X605841Y28385D01*
X605696Y28313D01*
X605669Y28290D01*
X605614Y28253D01*
X605566Y28253D01*
X605492Y28236D01*
X605416Y28222D01*
X605407Y28216D01*
X605398Y28213D01*
X605370Y28191D01*
X605298Y28142D01*
X605280Y28124D01*
X602581Y29986D01*
X602565Y29992D01*
X602553Y30004D01*
X602486Y30023D01*
X602420Y30049D01*
X602403Y30048D01*
X602387Y30052D01*
X602318Y30040D01*
X602248Y30034D01*
X602233Y30025D01*
X602216Y30022D01*
X602110Y29950D01*
X602100Y29944D01*
X602099Y29943D01*
X602098Y29942D01*
X599898Y27742D01*
X599889Y27727D01*
X599875Y27717D01*
X599844Y27654D01*
X599807Y27595D01*
X599805Y27578D01*
X599797Y27563D01*
X599797Y27492D01*
X599790Y27423D01*
X599796Y27407D01*
X599796Y27389D01*
X599848Y27272D01*
X599852Y27261D01*
X599853Y27260D01*
X599854Y27258D01*
X601705Y24575D01*
X601703Y24560D01*
X601687Y24474D01*
X601687Y24424D01*
X601679Y24411D01*
X601627Y24343D01*
X601554Y24198D01*
X601498Y24142D01*
X601458Y24077D01*
X601414Y24014D01*
X601412Y24003D01*
X601407Y23995D01*
X601403Y23960D01*
X601387Y23874D01*
X601387Y23824D01*
X601379Y23811D01*
X601327Y23743D01*
X601227Y23543D01*
X601223Y23528D01*
X601214Y23514D01*
X601197Y23427D01*
X601194Y23419D01*
X601194Y23411D01*
X601188Y23380D01*
X601187Y23375D01*
X601187Y23374D01*
X601187Y23363D01*
X601027Y23043D01*
X601023Y23028D01*
X601014Y23014D01*
X600988Y22880D01*
X600987Y22875D01*
X600987Y22874D01*
X600987Y22863D01*
X600927Y22743D01*
X600923Y22728D01*
X600914Y22714D01*
X600905Y22669D01*
X600901Y22661D01*
X600902Y22651D01*
X600888Y22580D01*
X600887Y22575D01*
X600887Y22574D01*
X600887Y22563D01*
X600827Y22443D01*
X600823Y22428D01*
X600814Y22414D01*
X600811Y22398D01*
X597602Y21848D01*
X597584Y21840D01*
X597565Y21839D01*
X597505Y21807D01*
X597443Y21780D01*
X597430Y21765D01*
X597413Y21756D01*
X597374Y21701D01*
X597330Y21649D01*
X597325Y21630D01*
X597314Y21614D01*
X597298Y21533D01*
X597294Y21523D01*
X597294Y21512D01*
X597292Y21503D01*
X597287Y21481D01*
X597288Y21478D01*
X597287Y21474D01*
X597287Y18274D01*
X597291Y18255D01*
X597289Y18236D01*
X597311Y18171D01*
X597326Y18105D01*
X597339Y18090D01*
X597345Y18072D01*
X597393Y18024D01*
X597436Y17972D01*
X597454Y17964D01*
X597468Y17950D01*
X597574Y17910D01*
X597594Y17901D01*
X597598Y17901D01*
X597602Y17900D01*
X600858Y17342D01*
X600887Y17284D01*
X600887Y17174D01*
X600904Y17099D01*
X600918Y17024D01*
X600924Y17014D01*
X600926Y17005D01*
X600949Y16978D01*
X600987Y16922D01*
X600987Y16874D01*
X601000Y16818D01*
X601001Y16799D01*
X601006Y16789D01*
X601018Y16724D01*
X601024Y16714D01*
X601026Y16705D01*
X601049Y16678D01*
X601098Y16606D01*
X601154Y16549D01*
X601187Y16484D01*
X601187Y16374D01*
X601204Y16299D01*
X601218Y16224D01*
X601224Y16214D01*
X601226Y16205D01*
X601249Y16178D01*
X601287Y16122D01*
X601287Y16074D01*
X601304Y15999D01*
X601318Y15924D01*
X601324Y15914D01*
X601326Y15905D01*
X601349Y15878D01*
X601398Y15806D01*
X601454Y15749D01*
X601527Y15604D01*
X601550Y15576D01*
X601593Y15513D01*
X601595Y15509D01*
X601596Y15509D01*
X601598Y15506D01*
X601654Y15449D01*
X601687Y15384D01*
X601687Y15374D01*
X601690Y15358D01*
X601688Y15342D01*
X601700Y15300D01*
X601701Y15282D01*
X601710Y15265D01*
X601725Y15211D01*
X601725Y15209D01*
X599857Y12594D01*
X599851Y12579D01*
X599840Y12568D01*
X599819Y12500D01*
X599792Y12434D01*
X599793Y12418D01*
X599788Y12403D01*
X599799Y12333D01*
X599804Y12261D01*
X599812Y12248D01*
X599814Y12232D01*
X599889Y12116D01*
X599891Y12112D01*
X599892Y12112D01*
X602092Y9812D01*
X602110Y9800D01*
X602123Y9783D01*
X602182Y9753D01*
X602237Y9717D01*
X602258Y9715D01*
X602277Y9705D01*
X602343Y9705D01*
X602409Y9697D01*
X602429Y9704D01*
X602450Y9704D01*
X602545Y9746D01*
X602572Y9755D01*
X602575Y9759D01*
X602581Y9761D01*
X605302Y11638D01*
X605325Y11621D01*
X605337Y11619D01*
X605345Y11614D01*
X605380Y11611D01*
X605395Y11608D01*
X605398Y11606D01*
X605463Y11565D01*
X605525Y11521D01*
X605537Y11519D01*
X605545Y11514D01*
X605580Y11511D01*
X605595Y11508D01*
X605598Y11506D01*
X605663Y11465D01*
X605725Y11421D01*
X605737Y11419D01*
X605745Y11414D01*
X605780Y11411D01*
X605795Y11408D01*
X605798Y11406D01*
X605863Y11365D01*
X605925Y11321D01*
X605937Y11319D01*
X605945Y11314D01*
X605980Y11311D01*
X605995Y11308D01*
X605998Y11306D01*
X606063Y11265D01*
X606125Y11221D01*
X606137Y11219D01*
X606145Y11214D01*
X606180Y11211D01*
X606195Y11208D01*
X606198Y11206D01*
X606263Y11165D01*
X606325Y11121D01*
X606337Y11119D01*
X606345Y11114D01*
X606380Y11111D01*
X606466Y11094D01*
X606516Y11094D01*
X606537Y11081D01*
X606570Y11049D01*
X606609Y11036D01*
X606645Y11014D01*
X606690Y11010D01*
X606734Y10996D01*
X606776Y11002D01*
X606817Y10998D01*
X606860Y11014D01*
X606905Y11021D01*
X606940Y11045D01*
X606979Y11060D01*
X607010Y11093D01*
X607047Y11120D01*
X607073Y11162D01*
X607096Y11187D01*
X607103Y11212D01*
X607122Y11242D01*
X609122Y16642D01*
X609129Y16699D01*
X609145Y16754D01*
X609139Y16784D01*
X609143Y16814D01*
X609124Y16868D01*
X609114Y16925D01*
X609096Y16949D01*
X609086Y16977D01*
X609045Y17017D01*
X609011Y17063D01*
X608981Y17080D01*
X608962Y17098D01*
X608930Y17108D01*
X608886Y17133D01*
X608612Y17225D01*
X608291Y17385D01*
X608134Y17542D01*
X608104Y17561D01*
X608036Y17613D01*
X607891Y17685D01*
X607778Y17798D01*
X607705Y17943D01*
X607682Y17971D01*
X607634Y18042D01*
X607478Y18198D01*
X607317Y18519D01*
X607226Y18794D01*
X607214Y18813D01*
X607205Y18843D01*
X607045Y19163D01*
X607045Y19374D01*
X607037Y19409D01*
X607026Y19494D01*
X606945Y19735D01*
X606945Y20212D01*
X607310Y21306D01*
X607661Y21832D01*
X607808Y21979D01*
X608076Y22158D01*
X608098Y22181D01*
X608134Y22206D01*
X608308Y22379D01*
X608534Y22530D01*
X608786Y22614D01*
X608804Y22625D01*
X608818Y22628D01*
X608831Y22639D01*
X608876Y22658D01*
X609081Y22794D01*
X609266Y22794D01*
X609301Y22803D01*
X609358Y22806D01*
X609713Y22894D01*
X610304Y22894D01*
X610546Y22814D01*
X610582Y22811D01*
X610666Y22794D01*
X610851Y22794D01*
X611056Y22658D01*
X611091Y22645D01*
X611140Y22617D01*
X611142Y22616D01*
X611143Y22616D01*
X611146Y22614D01*
X611398Y22530D01*
X611925Y22179D01*
X612271Y21832D01*
X612622Y21306D01*
X612706Y21054D01*
X612726Y21022D01*
X612750Y20963D01*
X612887Y20759D01*
X612887Y20574D01*
X612895Y20539D01*
X612906Y20454D01*
X612987Y20212D01*
X612987Y19435D01*
X612906Y19194D01*
X612903Y19158D01*
X612887Y19074D01*
X612887Y18963D01*
X612827Y18843D01*
X612821Y18821D01*
X612806Y18794D01*
X612715Y18519D01*
X612654Y18398D01*
X612498Y18242D01*
X612479Y18211D01*
X612427Y18143D01*
X612354Y17998D01*
X612041Y17685D01*
X611896Y17613D01*
X611869Y17590D01*
X611798Y17542D01*
X611641Y17385D01*
X611096Y17113D01*
X611073Y17093D01*
X611044Y17081D01*
X611007Y17038D01*
X610963Y17002D01*
X610951Y16974D01*
X610931Y16951D01*
X610916Y16896D01*
X610893Y16844D01*
X610895Y16813D01*
X610887Y16783D01*
X610899Y16709D01*
X610901Y16671D01*
X610908Y16659D01*
X610910Y16642D01*
X612910Y11242D01*
X612922Y11225D01*
X612926Y11205D01*
X612969Y11154D01*
X613006Y11098D01*
X613024Y11087D01*
X613036Y11072D01*
X613098Y11045D01*
X613156Y11011D01*
X613176Y11010D01*
X613194Y11001D01*
X613261Y11004D01*
X613328Y11000D01*
X613347Y11007D01*
X613367Y11008D01*
X613426Y11040D01*
X613488Y11066D01*
X613501Y11082D01*
X613519Y11091D01*
X613532Y11110D01*
X613540Y11112D01*
X613616Y11125D01*
X613625Y11132D01*
X613634Y11134D01*
X613662Y11157D01*
X613734Y11206D01*
X613741Y11212D01*
X613816Y11225D01*
X613825Y11232D01*
X613834Y11234D01*
X613862Y11257D01*
X613934Y11306D01*
X613941Y11312D01*
X614016Y11325D01*
X614025Y11332D01*
X614034Y11334D01*
X614062Y11357D01*
X614118Y11394D01*
X614166Y11394D01*
X614240Y11412D01*
X614316Y11425D01*
X614325Y11432D01*
X614334Y11434D01*
X614362Y11457D01*
X614434Y11506D01*
X614441Y11512D01*
X614516Y11525D01*
X614525Y11532D01*
X614534Y11534D01*
X614562Y11557D01*
X614634Y11606D01*
X614652Y11623D01*
X617351Y9761D01*
X617367Y9755D01*
X617379Y9744D01*
X617447Y9724D01*
X617512Y9698D01*
X617529Y9700D01*
X617545Y9695D01*
X617614Y9707D01*
G37*
G36*
X542447Y303787D02*
X542447Y303787D01*
X542442Y303794D01*
X542449Y303800D01*
X542449Y315000D01*
X542443Y315008D01*
X542448Y315013D01*
X542148Y316113D01*
X542100Y316149D01*
X518300Y316149D01*
X518279Y316133D01*
X518265Y316135D01*
X517565Y315435D01*
X517562Y315408D01*
X517551Y315400D01*
X517551Y304200D01*
X517580Y304162D01*
X517582Y304154D01*
X518582Y303754D01*
X518595Y303758D01*
X518600Y303751D01*
X542400Y303751D01*
X542447Y303787D01*
G37*
G36*
X539036Y110886D02*
X539036Y110886D01*
X539063Y110883D01*
X539120Y110905D01*
X539179Y110919D01*
X539199Y110936D01*
X539225Y110946D01*
X539283Y111005D01*
X539312Y111029D01*
X539317Y111039D01*
X539326Y111049D01*
X539506Y111318D01*
X539779Y111591D01*
X539791Y111611D01*
X539814Y111632D01*
X540098Y112010D01*
X540579Y112491D01*
X540587Y112504D01*
X540602Y112517D01*
X541091Y113103D01*
X541679Y113691D01*
X541693Y113714D01*
X541719Y113739D01*
X542201Y114413D01*
X543479Y115691D01*
X543487Y115704D01*
X543502Y115717D01*
X543978Y116287D01*
X544928Y117047D01*
X545344Y117297D01*
X545841Y117380D01*
X547710Y117380D01*
X547736Y117386D01*
X547773Y117385D01*
X548973Y117585D01*
X548988Y117592D01*
X549010Y117593D01*
X550110Y117893D01*
X550127Y117902D01*
X550151Y117907D01*
X551151Y118307D01*
X551173Y118322D01*
X551206Y118334D01*
X552206Y118934D01*
X552226Y118954D01*
X552260Y118974D01*
X553060Y119674D01*
X553067Y119683D01*
X553079Y119691D01*
X553879Y120491D01*
X553890Y120509D01*
X553910Y120527D01*
X554610Y121427D01*
X554621Y121450D01*
X554642Y121475D01*
X555642Y123275D01*
X555652Y123310D01*
X555676Y123358D01*
X556176Y125158D01*
X556178Y125192D01*
X556190Y125239D01*
X556290Y127039D01*
X556283Y127075D01*
X556284Y127130D01*
X555984Y128730D01*
X555973Y128754D01*
X555968Y128788D01*
X555468Y130188D01*
X555452Y130213D01*
X555438Y130252D01*
X554738Y131452D01*
X554717Y131474D01*
X554694Y131513D01*
X553894Y132413D01*
X553890Y132416D01*
X553780Y132500D01*
X552980Y132900D01*
X552970Y132902D01*
X552964Y132907D01*
X552925Y132914D01*
X552882Y132933D01*
X552847Y132932D01*
X552812Y132940D01*
X552761Y132929D01*
X552709Y132927D01*
X552678Y132910D01*
X552643Y132901D01*
X552603Y132869D01*
X552557Y132844D01*
X552536Y132815D01*
X552509Y132792D01*
X552487Y132745D01*
X552457Y132702D01*
X552449Y132661D01*
X552437Y132634D01*
X552437Y132628D01*
X552437Y132626D01*
X552438Y132601D01*
X552430Y132560D01*
X552430Y131822D01*
X552291Y131404D01*
X552142Y131305D01*
X551948Y131240D01*
X551400Y131240D01*
X550701Y131590D01*
X550430Y131771D01*
X550038Y132064D01*
X550029Y132068D01*
X550021Y132076D01*
X549752Y132256D01*
X549523Y132485D01*
X549350Y132830D01*
X549337Y132846D01*
X549326Y132871D01*
X549163Y133116D01*
X549079Y133452D01*
X549073Y133464D01*
X549071Y133480D01*
X549011Y133660D01*
X549062Y133814D01*
X549150Y133990D01*
X549156Y134013D01*
X549171Y134040D01*
X549255Y134292D01*
X549390Y134495D01*
X549711Y134735D01*
X549990Y134875D01*
X550034Y134897D01*
X550485Y134987D01*
X550492Y134991D01*
X550502Y134991D01*
X550857Y135080D01*
X551048Y135080D01*
X551290Y134999D01*
X551327Y134996D01*
X551410Y134980D01*
X551710Y134980D01*
X551735Y134986D01*
X551761Y134983D01*
X551819Y135005D01*
X551879Y135019D01*
X551899Y135036D01*
X551923Y135045D01*
X551965Y135090D01*
X552012Y135129D01*
X552023Y135153D01*
X552040Y135172D01*
X552058Y135231D01*
X552083Y135288D01*
X552082Y135313D01*
X552090Y135338D01*
X552079Y135399D01*
X552077Y135461D01*
X552064Y135483D01*
X552060Y135509D01*
X552012Y135580D01*
X551994Y135613D01*
X551986Y135619D01*
X551979Y135629D01*
X551879Y135729D01*
X551859Y135741D01*
X551838Y135764D01*
X551438Y136064D01*
X551412Y136076D01*
X551380Y136100D01*
X550780Y136400D01*
X550763Y136404D01*
X550744Y136416D01*
X549944Y136716D01*
X549937Y136717D01*
X549930Y136721D01*
X549030Y137021D01*
X548993Y137024D01*
X548910Y137040D01*
X547910Y137040D01*
X547882Y137034D01*
X547842Y137034D01*
X546742Y136834D01*
X546707Y136819D01*
X546628Y136794D01*
X545528Y136194D01*
X545502Y136171D01*
X545457Y136144D01*
X544557Y135344D01*
X544538Y135316D01*
X544501Y135281D01*
X544001Y134581D01*
X543986Y134545D01*
X543949Y134480D01*
X543649Y133580D01*
X543646Y133543D01*
X543630Y133460D01*
X543630Y132660D01*
X543637Y132627D01*
X543639Y132578D01*
X543839Y131678D01*
X543856Y131642D01*
X543878Y131575D01*
X544378Y130675D01*
X544400Y130651D01*
X544424Y130610D01*
X545124Y129810D01*
X545125Y129809D01*
X545126Y129807D01*
X545924Y128909D01*
X546584Y128155D01*
X546830Y127582D01*
X546830Y127022D01*
X546671Y126545D01*
X546350Y126144D01*
X545854Y125813D01*
X545163Y125640D01*
X544448Y125640D01*
X544019Y125726D01*
X543588Y125898D01*
X543352Y126056D01*
X543123Y126285D01*
X542962Y126606D01*
X542890Y126822D01*
X542890Y126998D01*
X542955Y127192D01*
X543106Y127418D01*
X543415Y127728D01*
X543630Y127799D01*
X543650Y127812D01*
X543680Y127820D01*
X544080Y128020D01*
X544109Y128044D01*
X544179Y128091D01*
X544279Y128191D01*
X544292Y128212D01*
X544311Y128228D01*
X544337Y128285D01*
X544370Y128338D01*
X544373Y128363D01*
X544383Y128386D01*
X544381Y128449D01*
X544387Y128511D01*
X544378Y128534D01*
X544377Y128559D01*
X544347Y128614D01*
X544325Y128673D01*
X544307Y128690D01*
X544295Y128712D01*
X544225Y128766D01*
X544198Y128790D01*
X544189Y128793D01*
X544180Y128800D01*
X543980Y128900D01*
X543965Y128904D01*
X543952Y128913D01*
X543818Y128939D01*
X543812Y128940D01*
X543811Y128940D01*
X543810Y128940D01*
X543657Y128940D01*
X543302Y129029D01*
X543266Y129029D01*
X543210Y129040D01*
X542410Y129040D01*
X542384Y129034D01*
X542348Y129035D01*
X541748Y128935D01*
X541717Y128922D01*
X541669Y128913D01*
X540669Y128513D01*
X540638Y128491D01*
X540582Y128464D01*
X540198Y128176D01*
X539714Y127886D01*
X539700Y127872D01*
X539681Y127863D01*
X539611Y127786D01*
X539590Y127765D01*
X539588Y127760D01*
X539584Y127756D01*
X539284Y127256D01*
X539280Y127243D01*
X539270Y127230D01*
X538970Y126630D01*
X538964Y126607D01*
X538949Y126580D01*
X538749Y125980D01*
X538746Y125947D01*
X538732Y125902D01*
X538532Y124102D01*
X538534Y124083D01*
X538530Y124060D01*
X538530Y111260D01*
X538541Y111210D01*
X538543Y111159D01*
X538561Y111127D01*
X538569Y111091D01*
X538602Y111052D01*
X538626Y111007D01*
X538656Y110986D01*
X538679Y110958D01*
X538726Y110937D01*
X538768Y110907D01*
X538810Y110899D01*
X538838Y110887D01*
X538868Y110888D01*
X538910Y110880D01*
X539010Y110880D01*
X539036Y110886D01*
G37*
G36*
X493285Y85392D02*
X493285Y85392D01*
X493311Y85393D01*
X493365Y85423D01*
X493423Y85445D01*
X493440Y85464D01*
X493463Y85476D01*
X493498Y85527D01*
X493540Y85572D01*
X493548Y85597D01*
X493563Y85618D01*
X493579Y85702D01*
X493590Y85738D01*
X493588Y85748D01*
X493590Y85760D01*
X493590Y95001D01*
X493813Y94722D01*
X493836Y94705D01*
X493914Y94634D01*
X494914Y94034D01*
X494927Y94030D01*
X494940Y94020D01*
X495540Y93720D01*
X495578Y93711D01*
X495648Y93685D01*
X497448Y93385D01*
X497486Y93387D01*
X497560Y93383D01*
X499060Y93583D01*
X499088Y93594D01*
X499130Y93599D01*
X500330Y93999D01*
X500363Y94020D01*
X500434Y94052D01*
X501534Y94852D01*
X501551Y94872D01*
X501579Y94891D01*
X502479Y95791D01*
X502499Y95824D01*
X502544Y95878D01*
X503144Y96978D01*
X503149Y96995D01*
X503161Y97014D01*
X503661Y98214D01*
X503666Y98241D01*
X503681Y98275D01*
X503981Y99575D01*
X503980Y99600D01*
X503989Y99633D01*
X504089Y101033D01*
X504086Y101056D01*
X504089Y101085D01*
X503989Y102585D01*
X503982Y102608D01*
X503982Y102640D01*
X503682Y104040D01*
X503675Y104053D01*
X503673Y104072D01*
X503273Y105372D01*
X503254Y105405D01*
X503231Y105464D01*
X502531Y106564D01*
X502511Y106583D01*
X502493Y106614D01*
X501593Y107614D01*
X501561Y107636D01*
X501514Y107681D01*
X500414Y108381D01*
X500382Y108392D01*
X500338Y108418D01*
X498938Y108918D01*
X498899Y108922D01*
X498835Y108939D01*
X497335Y109039D01*
X497324Y109038D01*
X497310Y109040D01*
X496610Y109040D01*
X496584Y109034D01*
X496548Y109035D01*
X495348Y108835D01*
X495336Y108830D01*
X495214Y108786D01*
X494214Y108186D01*
X494198Y108171D01*
X494172Y108157D01*
X493672Y107757D01*
X493661Y107742D01*
X493641Y107729D01*
X493490Y107578D01*
X493490Y108360D01*
X493490Y108361D01*
X493490Y108362D01*
X493470Y108445D01*
X493451Y108529D01*
X493450Y108530D01*
X493450Y108531D01*
X493396Y108595D01*
X493341Y108662D01*
X493340Y108663D01*
X493339Y108664D01*
X493260Y108699D01*
X493182Y108733D01*
X493181Y108733D01*
X493180Y108734D01*
X493035Y108733D01*
X492035Y108533D01*
X492028Y108529D01*
X492018Y108529D01*
X491627Y108431D01*
X491135Y108333D01*
X491128Y108329D01*
X491118Y108329D01*
X490763Y108240D01*
X490310Y108240D01*
X490280Y108233D01*
X490235Y108233D01*
X489735Y108133D01*
X489728Y108129D01*
X489718Y108129D01*
X489318Y108029D01*
X489314Y108027D01*
X489309Y108027D01*
X489237Y107987D01*
X489164Y107950D01*
X489161Y107946D01*
X489157Y107944D01*
X489110Y107877D01*
X489061Y107810D01*
X489060Y107806D01*
X489057Y107802D01*
X489030Y107660D01*
X489030Y89160D01*
X489032Y89150D01*
X489030Y89140D01*
X489043Y89097D01*
X489043Y89082D01*
X489052Y89066D01*
X489069Y88991D01*
X489076Y88983D01*
X489079Y88974D01*
X489172Y88863D01*
X489656Y88476D01*
X490541Y87591D01*
X490557Y87581D01*
X490572Y87563D01*
X492056Y86376D01*
X492941Y85491D01*
X492963Y85478D01*
X492979Y85458D01*
X493036Y85432D01*
X493088Y85400D01*
X493114Y85397D01*
X493138Y85387D01*
X493199Y85389D01*
X493261Y85383D01*
X493285Y85392D01*
G37*
G36*
X522701Y364954D02*
X522701Y364954D01*
X522704Y364951D01*
X524004Y365051D01*
X524009Y365056D01*
X524014Y365053D01*
X525414Y365453D01*
X525418Y365458D01*
X525422Y365456D01*
X526622Y366056D01*
X526624Y366060D01*
X526627Y366059D01*
X527827Y366859D01*
X527830Y366868D01*
X527837Y366867D01*
X528737Y367867D01*
X528737Y367871D01*
X528740Y367871D01*
X529540Y368971D01*
X529540Y368978D01*
X529545Y368979D01*
X530145Y370279D01*
X530144Y370284D01*
X530147Y370286D01*
X530547Y371586D01*
X530546Y371587D01*
X530544Y371593D01*
X530549Y371597D01*
X530649Y372997D01*
X530646Y373001D01*
X530649Y373004D01*
X530549Y374404D01*
X530544Y374410D01*
X530547Y374414D01*
X530147Y375714D01*
X530142Y375718D01*
X530144Y375722D01*
X529544Y376922D01*
X529540Y376924D01*
X529541Y376927D01*
X528741Y378127D01*
X528736Y378129D01*
X528737Y378133D01*
X527837Y379133D01*
X527828Y379135D01*
X527827Y379141D01*
X526627Y379941D01*
X526620Y379941D01*
X526619Y379945D01*
X525419Y380445D01*
X525415Y380444D01*
X525414Y380447D01*
X524014Y380847D01*
X524009Y380846D01*
X524008Y380849D01*
X522708Y381049D01*
X522698Y381044D01*
X522693Y381049D01*
X521293Y380849D01*
X521289Y380845D01*
X521286Y380847D01*
X519886Y380447D01*
X519884Y380444D01*
X519881Y380445D01*
X518681Y379945D01*
X518677Y379939D01*
X518673Y379941D01*
X517473Y379141D01*
X517470Y379132D01*
X517463Y379133D01*
X516563Y378133D01*
X516563Y378128D01*
X516559Y378127D01*
X515759Y376927D01*
X515759Y376923D01*
X515756Y376922D01*
X515156Y375722D01*
X515157Y375716D01*
X515153Y375714D01*
X514753Y374414D01*
X514756Y374407D01*
X514751Y374404D01*
X514651Y373004D01*
X514654Y372999D01*
X514651Y372997D01*
X514751Y371597D01*
X514756Y371590D01*
X514753Y371586D01*
X515153Y370286D01*
X515157Y370283D01*
X515155Y370279D01*
X515755Y368979D01*
X515762Y368976D01*
X515760Y368971D01*
X516560Y367871D01*
X516564Y367870D01*
X516563Y367867D01*
X517463Y366867D01*
X517472Y366865D01*
X517473Y366859D01*
X518673Y366059D01*
X518677Y366059D01*
X518678Y366056D01*
X519878Y365456D01*
X519885Y365457D01*
X519886Y365453D01*
X521286Y365053D01*
X521294Y365055D01*
X521297Y365051D01*
X522697Y364951D01*
X522701Y364954D01*
G37*
G36*
X510347Y93388D02*
X510347Y93388D01*
X510430Y93399D01*
X510672Y93480D01*
X511010Y93480D01*
X511047Y93488D01*
X511130Y93499D01*
X511372Y93580D01*
X511610Y93580D01*
X511647Y93588D01*
X511730Y93599D01*
X512930Y93999D01*
X512963Y94019D01*
X513021Y94044D01*
X513279Y94215D01*
X513530Y94299D01*
X513563Y94319D01*
X513621Y94344D01*
X513921Y94544D01*
X513942Y94567D01*
X513979Y94591D01*
X514116Y94728D01*
X514130Y94708D01*
X514130Y94560D01*
X514147Y94486D01*
X514160Y94411D01*
X514167Y94401D01*
X514169Y94391D01*
X514193Y94362D01*
X514241Y94291D01*
X514247Y94285D01*
X514260Y94211D01*
X514267Y94201D01*
X514269Y94191D01*
X514293Y94162D01*
X514341Y94091D01*
X514342Y94090D01*
X514343Y94059D01*
X514361Y94027D01*
X514369Y93991D01*
X514402Y93952D01*
X514426Y93907D01*
X514456Y93886D01*
X514479Y93858D01*
X514526Y93837D01*
X514568Y93807D01*
X514610Y93799D01*
X514638Y93787D01*
X514668Y93788D01*
X514710Y93780D01*
X518610Y93780D01*
X518660Y93791D01*
X518711Y93793D01*
X518743Y93811D01*
X518779Y93819D01*
X518818Y93852D01*
X518863Y93876D01*
X518884Y93906D01*
X518912Y93929D01*
X518933Y93976D01*
X518963Y94018D01*
X518971Y94060D01*
X518983Y94088D01*
X518982Y94118D01*
X518990Y94160D01*
X518990Y94260D01*
X518973Y94334D01*
X518960Y94409D01*
X518953Y94419D01*
X518951Y94429D01*
X518927Y94458D01*
X518879Y94529D01*
X518823Y94585D01*
X518790Y94650D01*
X518790Y94860D01*
X518787Y94875D01*
X518789Y94890D01*
X518752Y95022D01*
X518751Y95029D01*
X518750Y95029D01*
X518750Y95030D01*
X518690Y95150D01*
X518690Y95260D01*
X518687Y95275D01*
X518689Y95290D01*
X518667Y95371D01*
X518666Y95382D01*
X518661Y95392D01*
X518652Y95422D01*
X518651Y95429D01*
X518650Y95429D01*
X518650Y95430D01*
X518590Y95550D01*
X518590Y96360D01*
X518587Y96375D01*
X518589Y96390D01*
X518552Y96522D01*
X518551Y96529D01*
X518550Y96529D01*
X518550Y96530D01*
X518490Y96650D01*
X518490Y105260D01*
X518483Y105290D01*
X518483Y105335D01*
X518383Y105835D01*
X518371Y105861D01*
X518363Y105901D01*
X518163Y106401D01*
X518155Y106413D01*
X518150Y106430D01*
X517950Y106830D01*
X517932Y106852D01*
X517914Y106888D01*
X517614Y107288D01*
X517589Y107309D01*
X517582Y107322D01*
X517567Y107333D01*
X517538Y107364D01*
X516338Y108264D01*
X516303Y108279D01*
X516251Y108313D01*
X515751Y108513D01*
X515722Y108517D01*
X515685Y108533D01*
X515219Y108626D01*
X514751Y108813D01*
X514722Y108817D01*
X514685Y108833D01*
X514185Y108933D01*
X514153Y108932D01*
X514110Y108940D01*
X513548Y108940D01*
X513085Y109033D01*
X513053Y109032D01*
X513010Y109040D01*
X510710Y109040D01*
X510680Y109033D01*
X510635Y109033D01*
X510141Y108934D01*
X509548Y108835D01*
X509524Y108825D01*
X509490Y108821D01*
X508912Y108628D01*
X508435Y108533D01*
X508409Y108521D01*
X508369Y108513D01*
X507869Y108313D01*
X507847Y108298D01*
X507814Y108286D01*
X506814Y107686D01*
X506802Y107674D01*
X506782Y107664D01*
X506382Y107364D01*
X506357Y107334D01*
X506306Y107288D01*
X506006Y106888D01*
X505999Y106872D01*
X505984Y106856D01*
X505694Y106372D01*
X505406Y105988D01*
X505391Y105954D01*
X505349Y105880D01*
X505149Y105280D01*
X505147Y105258D01*
X505139Y105240D01*
X505139Y105235D01*
X505135Y105223D01*
X504935Y104023D01*
X504940Y103941D01*
X504943Y103859D01*
X504946Y103855D01*
X504946Y103850D01*
X504987Y103779D01*
X505026Y103707D01*
X505030Y103704D01*
X505033Y103700D01*
X505101Y103654D01*
X505168Y103607D01*
X505173Y103606D01*
X505177Y103604D01*
X505205Y103600D01*
X505310Y103580D01*
X509210Y103580D01*
X509260Y103591D01*
X509311Y103593D01*
X509343Y103611D01*
X509379Y103619D01*
X509418Y103652D01*
X509463Y103676D01*
X509484Y103706D01*
X509512Y103729D01*
X509533Y103776D01*
X509563Y103818D01*
X509571Y103860D01*
X509583Y103888D01*
X509582Y103918D01*
X509590Y103960D01*
X509590Y104370D01*
X509650Y104490D01*
X509656Y104513D01*
X509671Y104540D01*
X509762Y104814D01*
X509823Y104935D01*
X510135Y105248D01*
X510815Y105587D01*
X511000Y105680D01*
X512620Y105680D01*
X512740Y105620D01*
X512755Y105616D01*
X512768Y105607D01*
X512902Y105581D01*
X512909Y105580D01*
X512910Y105580D01*
X513020Y105580D01*
X513427Y105377D01*
X513470Y105290D01*
X513494Y105261D01*
X513541Y105191D01*
X513598Y105135D01*
X513830Y104670D01*
X513830Y103787D01*
X513651Y103548D01*
X513250Y103308D01*
X512697Y103123D01*
X512031Y102933D01*
X511362Y102837D01*
X509568Y102638D01*
X508668Y102538D01*
X508647Y102530D01*
X508618Y102529D01*
X507818Y102329D01*
X507801Y102320D01*
X507777Y102316D01*
X506977Y102016D01*
X506955Y102001D01*
X506921Y101990D01*
X506221Y101590D01*
X506199Y101570D01*
X506163Y101549D01*
X505463Y100949D01*
X505443Y100922D01*
X505380Y100849D01*
X504980Y100149D01*
X504971Y100119D01*
X504949Y100080D01*
X504649Y99180D01*
X504648Y99163D01*
X504645Y99156D01*
X504645Y99151D01*
X504636Y99128D01*
X504436Y98028D01*
X504436Y98018D01*
X504437Y97885D01*
X504530Y97422D01*
X504530Y96960D01*
X504533Y96945D01*
X504531Y96930D01*
X504568Y96798D01*
X504569Y96791D01*
X504570Y96791D01*
X504570Y96790D01*
X504747Y96436D01*
X504837Y95985D01*
X504838Y95984D01*
X504838Y95983D01*
X504894Y95849D01*
X505094Y95549D01*
X505101Y95542D01*
X505106Y95532D01*
X505400Y95140D01*
X505594Y94849D01*
X505617Y94828D01*
X505641Y94791D01*
X505941Y94491D01*
X505973Y94471D01*
X506040Y94420D01*
X506419Y94231D01*
X506699Y94044D01*
X506719Y94036D01*
X506740Y94020D01*
X507140Y93820D01*
X507154Y93817D01*
X507169Y93807D01*
X507669Y93607D01*
X507691Y93604D01*
X507718Y93591D01*
X508118Y93491D01*
X508154Y93491D01*
X508210Y93480D01*
X508672Y93480D01*
X509135Y93387D01*
X509167Y93388D01*
X509210Y93380D01*
X510310Y93380D01*
X510347Y93388D01*
G37*
G36*
X534860Y93791D02*
X534860Y93791D01*
X534911Y93793D01*
X534943Y93811D01*
X534979Y93819D01*
X535018Y93852D01*
X535063Y93876D01*
X535084Y93906D01*
X535112Y93929D01*
X535133Y93976D01*
X535163Y94018D01*
X535171Y94060D01*
X535183Y94088D01*
X535182Y94118D01*
X535190Y94160D01*
X535190Y98895D01*
X536231Y99866D01*
X539887Y93960D01*
X539910Y93936D01*
X539926Y93907D01*
X539971Y93876D01*
X540009Y93837D01*
X540041Y93827D01*
X540068Y93807D01*
X540136Y93794D01*
X540173Y93782D01*
X540190Y93784D01*
X540210Y93780D01*
X544910Y93780D01*
X544982Y93797D01*
X545054Y93808D01*
X545065Y93816D01*
X545079Y93819D01*
X545135Y93866D01*
X545195Y93909D01*
X545202Y93921D01*
X545212Y93929D01*
X545242Y93997D01*
X545277Y94061D01*
X545278Y94075D01*
X545283Y94088D01*
X545280Y94161D01*
X545283Y94234D01*
X545277Y94248D01*
X545277Y94261D01*
X545258Y94295D01*
X545228Y94368D01*
X539499Y103107D01*
X544576Y108089D01*
X544591Y108112D01*
X544612Y108129D01*
X544637Y108184D01*
X544669Y108235D01*
X544672Y108262D01*
X544683Y108288D01*
X544681Y108348D01*
X544687Y108407D01*
X544678Y108433D01*
X544677Y108461D01*
X544648Y108513D01*
X544627Y108570D01*
X544607Y108589D01*
X544594Y108613D01*
X544545Y108647D01*
X544501Y108689D01*
X544475Y108697D01*
X544452Y108713D01*
X544372Y108728D01*
X544336Y108739D01*
X544324Y108738D01*
X544310Y108740D01*
X539710Y108740D01*
X539632Y108722D01*
X539554Y108707D01*
X539548Y108702D01*
X539541Y108701D01*
X539516Y108680D01*
X539436Y108623D01*
X535190Y104205D01*
X535190Y113660D01*
X535177Y113716D01*
X535173Y113773D01*
X535158Y113799D01*
X535151Y113829D01*
X535114Y113873D01*
X535085Y113923D01*
X535060Y113939D01*
X535041Y113962D01*
X534988Y113986D01*
X534940Y114017D01*
X534910Y114021D01*
X534882Y114033D01*
X534825Y114031D01*
X534768Y114038D01*
X534735Y114028D01*
X534709Y114027D01*
X534679Y114010D01*
X534630Y113995D01*
X530730Y111895D01*
X530696Y111865D01*
X530657Y111844D01*
X530632Y111809D01*
X530600Y111780D01*
X530583Y111739D01*
X530557Y111702D01*
X530548Y111652D01*
X530534Y111620D01*
X530536Y111594D01*
X530530Y111560D01*
X530530Y94160D01*
X530541Y94110D01*
X530543Y94059D01*
X530561Y94027D01*
X530569Y93991D01*
X530602Y93952D01*
X530626Y93907D01*
X530656Y93886D01*
X530679Y93858D01*
X530726Y93837D01*
X530768Y93807D01*
X530810Y93799D01*
X530838Y93787D01*
X530868Y93788D01*
X530910Y93780D01*
X534810Y93780D01*
X534860Y93791D01*
G37*
G36*
X574260Y93791D02*
X574260Y93791D01*
X574311Y93793D01*
X574343Y93811D01*
X574379Y93819D01*
X574418Y93852D01*
X574463Y93876D01*
X574484Y93906D01*
X574512Y93929D01*
X574533Y93976D01*
X574563Y94018D01*
X574571Y94060D01*
X574583Y94088D01*
X574582Y94118D01*
X574590Y94160D01*
X574590Y102539D01*
X574682Y103362D01*
X574949Y103986D01*
X575223Y104442D01*
X575564Y104869D01*
X575944Y105097D01*
X576465Y105184D01*
X577202Y105276D01*
X577741Y105186D01*
X578171Y105100D01*
X578551Y104872D01*
X578794Y104548D01*
X579047Y104126D01*
X579134Y103603D01*
X579233Y102909D01*
X579330Y102136D01*
X579330Y94160D01*
X579341Y94110D01*
X579343Y94059D01*
X579361Y94027D01*
X579369Y93991D01*
X579402Y93952D01*
X579426Y93907D01*
X579456Y93886D01*
X579479Y93858D01*
X579526Y93837D01*
X579568Y93807D01*
X579610Y93799D01*
X579638Y93787D01*
X579668Y93788D01*
X579710Y93780D01*
X583610Y93780D01*
X583660Y93791D01*
X583711Y93793D01*
X583743Y93811D01*
X583779Y93819D01*
X583818Y93852D01*
X583863Y93876D01*
X583884Y93906D01*
X583912Y93929D01*
X583933Y93976D01*
X583963Y94018D01*
X583971Y94060D01*
X583983Y94088D01*
X583982Y94118D01*
X583990Y94160D01*
X583990Y102860D01*
X583987Y102873D01*
X583989Y102889D01*
X583889Y104189D01*
X583884Y104206D01*
X583884Y104228D01*
X583684Y105328D01*
X583677Y105345D01*
X583674Y105369D01*
X583374Y106369D01*
X583355Y106402D01*
X583332Y106462D01*
X582832Y107262D01*
X582808Y107286D01*
X582779Y107329D01*
X582079Y108029D01*
X582046Y108049D01*
X581995Y108092D01*
X581095Y108592D01*
X581060Y108602D01*
X581010Y108627D01*
X579910Y108927D01*
X579879Y108928D01*
X579837Y108939D01*
X578437Y109039D01*
X578425Y109037D01*
X578410Y109040D01*
X577810Y109040D01*
X577784Y109034D01*
X577748Y109035D01*
X577148Y108935D01*
X577124Y108925D01*
X577090Y108921D01*
X575890Y108521D01*
X575857Y108501D01*
X575799Y108476D01*
X575199Y108076D01*
X575189Y108066D01*
X575172Y108057D01*
X574672Y107657D01*
X574661Y107642D01*
X574641Y107629D01*
X574390Y107378D01*
X574390Y108360D01*
X574379Y108410D01*
X574377Y108461D01*
X574359Y108493D01*
X574351Y108529D01*
X574318Y108568D01*
X574294Y108613D01*
X574264Y108634D01*
X574241Y108662D01*
X574194Y108683D01*
X574152Y108713D01*
X574110Y108721D01*
X574082Y108733D01*
X574052Y108732D01*
X574010Y108740D01*
X570310Y108740D01*
X570260Y108729D01*
X570209Y108727D01*
X570177Y108709D01*
X570141Y108701D01*
X570102Y108668D01*
X570057Y108644D01*
X570036Y108614D01*
X570008Y108591D01*
X569987Y108544D01*
X569957Y108502D01*
X569949Y108460D01*
X569937Y108432D01*
X569938Y108402D01*
X569930Y108360D01*
X569930Y94160D01*
X569941Y94110D01*
X569943Y94059D01*
X569961Y94027D01*
X569969Y93991D01*
X570002Y93952D01*
X570026Y93907D01*
X570056Y93886D01*
X570079Y93858D01*
X570126Y93837D01*
X570168Y93807D01*
X570210Y93799D01*
X570238Y93787D01*
X570268Y93788D01*
X570310Y93780D01*
X574210Y93780D01*
X574260Y93791D01*
G37*
G36*
X560118Y93386D02*
X560118Y93386D01*
X560173Y93385D01*
X560767Y93484D01*
X561464Y93584D01*
X561491Y93594D01*
X561530Y93599D01*
X562130Y93799D01*
X562139Y93805D01*
X562151Y93807D01*
X562651Y94007D01*
X562663Y94015D01*
X562680Y94020D01*
X563000Y94180D01*
X563280Y94320D01*
X563305Y94341D01*
X563348Y94363D01*
X563848Y94763D01*
X563869Y94790D01*
X563907Y94822D01*
X564130Y95101D01*
X564130Y94160D01*
X564141Y94110D01*
X564143Y94059D01*
X564161Y94027D01*
X564169Y93991D01*
X564202Y93952D01*
X564226Y93907D01*
X564256Y93886D01*
X564279Y93858D01*
X564326Y93837D01*
X564368Y93807D01*
X564410Y93799D01*
X564438Y93787D01*
X564468Y93788D01*
X564510Y93780D01*
X568210Y93780D01*
X568260Y93791D01*
X568311Y93793D01*
X568343Y93811D01*
X568379Y93819D01*
X568418Y93852D01*
X568463Y93876D01*
X568484Y93906D01*
X568512Y93929D01*
X568533Y93976D01*
X568563Y94018D01*
X568571Y94060D01*
X568583Y94088D01*
X568582Y94118D01*
X568590Y94160D01*
X568590Y108360D01*
X568579Y108410D01*
X568577Y108461D01*
X568559Y108493D01*
X568551Y108529D01*
X568518Y108568D01*
X568494Y108613D01*
X568464Y108634D01*
X568441Y108662D01*
X568394Y108683D01*
X568352Y108713D01*
X568310Y108721D01*
X568282Y108733D01*
X568252Y108732D01*
X568210Y108740D01*
X564310Y108740D01*
X564260Y108729D01*
X564209Y108727D01*
X564177Y108709D01*
X564141Y108701D01*
X564102Y108668D01*
X564057Y108644D01*
X564036Y108614D01*
X564008Y108591D01*
X563987Y108544D01*
X563957Y108502D01*
X563949Y108460D01*
X563937Y108432D01*
X563938Y108402D01*
X563930Y108360D01*
X563930Y99884D01*
X563839Y99160D01*
X563565Y98520D01*
X563298Y97985D01*
X562974Y97662D01*
X562576Y97423D01*
X562055Y97336D01*
X561318Y97244D01*
X560779Y97334D01*
X560349Y97420D01*
X559970Y97648D01*
X559470Y98314D01*
X559386Y98815D01*
X559190Y100384D01*
X559190Y108360D01*
X559179Y108410D01*
X559177Y108461D01*
X559159Y108493D01*
X559151Y108529D01*
X559118Y108568D01*
X559094Y108613D01*
X559064Y108634D01*
X559041Y108662D01*
X558994Y108683D01*
X558952Y108713D01*
X558910Y108721D01*
X558882Y108733D01*
X558852Y108732D01*
X558810Y108740D01*
X555010Y108740D01*
X554960Y108729D01*
X554909Y108727D01*
X554877Y108709D01*
X554841Y108701D01*
X554802Y108668D01*
X554757Y108644D01*
X554736Y108614D01*
X554708Y108591D01*
X554687Y108544D01*
X554657Y108502D01*
X554649Y108460D01*
X554637Y108432D01*
X554638Y108402D01*
X554630Y108360D01*
X554630Y98360D01*
X554636Y98332D01*
X554636Y98292D01*
X554836Y97192D01*
X554843Y97175D01*
X554846Y97151D01*
X555146Y96151D01*
X555162Y96122D01*
X555178Y96075D01*
X555678Y95175D01*
X555697Y95154D01*
X555763Y95071D01*
X556463Y94471D01*
X556491Y94457D01*
X556525Y94428D01*
X557425Y93928D01*
X557450Y93920D01*
X557480Y93903D01*
X558580Y93503D01*
X558619Y93498D01*
X558683Y93481D01*
X560083Y93381D01*
X560118Y93386D01*
G37*
G36*
X482542Y93481D02*
X482542Y93481D01*
X482555Y93485D01*
X482573Y93485D01*
X483773Y93685D01*
X483788Y93692D01*
X483810Y93693D01*
X484910Y93993D01*
X484938Y94008D01*
X484980Y94020D01*
X485300Y94180D01*
X485980Y94520D01*
X486009Y94544D01*
X486060Y94574D01*
X486860Y95274D01*
X486879Y95300D01*
X486914Y95332D01*
X487514Y96132D01*
X487530Y96168D01*
X487567Y96230D01*
X487967Y97330D01*
X487971Y97361D01*
X487986Y97402D01*
X488186Y98702D01*
X488183Y98740D01*
X488188Y98802D01*
X488088Y99702D01*
X488075Y99739D01*
X488060Y99810D01*
X487760Y100510D01*
X487742Y100534D01*
X487726Y100571D01*
X487326Y101171D01*
X487298Y101198D01*
X487253Y101252D01*
X486653Y101752D01*
X486628Y101765D01*
X486599Y101790D01*
X485199Y102590D01*
X485161Y102601D01*
X485093Y102631D01*
X484198Y102830D01*
X481802Y103429D01*
X481782Y103429D01*
X481757Y103437D01*
X480995Y103533D01*
X480456Y103712D01*
X479911Y103985D01*
X479582Y104232D01*
X479360Y104527D01*
X479290Y104807D01*
X479290Y105045D01*
X479554Y105441D01*
X479716Y105495D01*
X480102Y105591D01*
X480114Y105597D01*
X480130Y105599D01*
X480372Y105680D01*
X481937Y105680D01*
X482354Y105513D01*
X482719Y105331D01*
X482936Y105186D01*
X483072Y104982D01*
X483244Y104551D01*
X483337Y104085D01*
X483343Y104073D01*
X483343Y104059D01*
X483379Y103995D01*
X483409Y103928D01*
X483420Y103919D01*
X483426Y103907D01*
X483486Y103865D01*
X483543Y103818D01*
X483557Y103815D01*
X483568Y103807D01*
X483710Y103780D01*
X487410Y103780D01*
X487490Y103798D01*
X487570Y103815D01*
X487574Y103818D01*
X487579Y103819D01*
X487642Y103872D01*
X487706Y103922D01*
X487708Y103926D01*
X487712Y103929D01*
X487746Y104004D01*
X487781Y104078D01*
X487781Y104083D01*
X487783Y104088D01*
X487782Y104115D01*
X487785Y104223D01*
X487585Y105423D01*
X487570Y105459D01*
X487550Y105530D01*
X487050Y106530D01*
X487032Y106552D01*
X487014Y106588D01*
X486414Y107388D01*
X486384Y107413D01*
X486338Y107464D01*
X485538Y108064D01*
X485506Y108078D01*
X485464Y108107D01*
X484564Y108507D01*
X484544Y108511D01*
X484519Y108524D01*
X483519Y108824D01*
X483500Y108825D01*
X483478Y108834D01*
X482378Y109034D01*
X482349Y109033D01*
X482310Y109040D01*
X480010Y109040D01*
X479982Y109034D01*
X479942Y109034D01*
X478842Y108834D01*
X478839Y108833D01*
X478835Y108833D01*
X477835Y108633D01*
X477801Y108617D01*
X477740Y108600D01*
X477640Y108550D01*
X476880Y108170D01*
X476740Y108100D01*
X476712Y108077D01*
X476663Y108049D01*
X475963Y107449D01*
X475948Y107430D01*
X475924Y107410D01*
X475224Y106610D01*
X475208Y106580D01*
X475157Y106501D01*
X474757Y105501D01*
X474751Y105462D01*
X474731Y105392D01*
X474631Y104192D01*
X474636Y104161D01*
X474632Y104118D01*
X474732Y103218D01*
X474742Y103191D01*
X474743Y103166D01*
X474752Y103148D01*
X474761Y103110D01*
X475061Y102410D01*
X475078Y102387D01*
X475094Y102349D01*
X475494Y101749D01*
X475495Y101748D01*
X475496Y101746D01*
X475599Y101644D01*
X476199Y101244D01*
X476210Y101239D01*
X476221Y101230D01*
X476921Y100830D01*
X476940Y100824D01*
X476960Y100811D01*
X477660Y100511D01*
X477668Y100509D01*
X477677Y100504D01*
X478477Y100204D01*
X478500Y100201D01*
X478528Y100189D01*
X479428Y99989D01*
X479431Y99989D01*
X479435Y99987D01*
X480427Y99789D01*
X482004Y99395D01*
X482550Y99212D01*
X482998Y98944D01*
X483310Y98710D01*
X483451Y98427D01*
X483518Y98160D01*
X483367Y97554D01*
X483160Y97348D01*
X482809Y97085D01*
X482477Y96919D01*
X482163Y96840D01*
X481810Y96840D01*
X481774Y96832D01*
X481718Y96829D01*
X481394Y96748D01*
X480879Y96834D01*
X480385Y96933D01*
X480379Y96933D01*
X480373Y96935D01*
X479864Y97020D01*
X479182Y97532D01*
X478944Y97848D01*
X478790Y98233D01*
X478790Y98760D01*
X478779Y98810D01*
X478777Y98861D01*
X478759Y98893D01*
X478751Y98929D01*
X478718Y98968D01*
X478694Y99013D01*
X478664Y99034D01*
X478641Y99062D01*
X478594Y99083D01*
X478552Y99113D01*
X478510Y99121D01*
X478482Y99133D01*
X478452Y99132D01*
X478410Y99140D01*
X474710Y99140D01*
X474633Y99122D01*
X474555Y99107D01*
X474549Y99103D01*
X474541Y99101D01*
X474480Y99050D01*
X474417Y99002D01*
X474413Y98995D01*
X474408Y98991D01*
X474375Y98918D01*
X474340Y98847D01*
X474340Y98839D01*
X474337Y98832D01*
X474338Y98799D01*
X474334Y98702D01*
X474534Y97402D01*
X474547Y97370D01*
X474557Y97319D01*
X474957Y96319D01*
X474979Y96287D01*
X475010Y96227D01*
X475710Y95327D01*
X475734Y95307D01*
X475760Y95274D01*
X476560Y94574D01*
X476593Y94556D01*
X476640Y94520D01*
X477640Y94020D01*
X477670Y94013D01*
X477710Y93993D01*
X478810Y93693D01*
X478827Y93693D01*
X478848Y93685D01*
X480048Y93485D01*
X480062Y93486D01*
X480078Y93481D01*
X481278Y93381D01*
X481305Y93385D01*
X481342Y93381D01*
X482542Y93481D01*
G37*
G36*
X551160Y93791D02*
X551160Y93791D01*
X551211Y93793D01*
X551243Y93811D01*
X551279Y93819D01*
X551318Y93852D01*
X551363Y93876D01*
X551384Y93906D01*
X551412Y93929D01*
X551433Y93976D01*
X551463Y94018D01*
X551471Y94060D01*
X551483Y94088D01*
X551482Y94118D01*
X551490Y94160D01*
X551490Y105380D01*
X553810Y105380D01*
X553860Y105391D01*
X553911Y105393D01*
X553943Y105411D01*
X553979Y105419D01*
X554018Y105452D01*
X554063Y105476D01*
X554084Y105506D01*
X554112Y105529D01*
X554133Y105576D01*
X554163Y105618D01*
X554171Y105660D01*
X554183Y105688D01*
X554182Y105718D01*
X554190Y105760D01*
X554190Y108360D01*
X554179Y108410D01*
X554177Y108461D01*
X554159Y108493D01*
X554151Y108529D01*
X554118Y108568D01*
X554094Y108613D01*
X554064Y108634D01*
X554041Y108662D01*
X553994Y108683D01*
X553952Y108713D01*
X553910Y108721D01*
X553882Y108733D01*
X553852Y108732D01*
X553810Y108740D01*
X551490Y108740D01*
X551490Y109113D01*
X551579Y109468D01*
X551579Y109504D01*
X551590Y109560D01*
X551590Y109870D01*
X551640Y109969D01*
X551770Y110165D01*
X551780Y110170D01*
X552043Y110301D01*
X552357Y110380D01*
X554010Y110380D01*
X554060Y110391D01*
X554111Y110393D01*
X554143Y110411D01*
X554179Y110419D01*
X554218Y110452D01*
X554263Y110476D01*
X554284Y110506D01*
X554312Y110529D01*
X554333Y110576D01*
X554363Y110618D01*
X554371Y110660D01*
X554383Y110688D01*
X554382Y110718D01*
X554390Y110760D01*
X554390Y113560D01*
X554379Y113609D01*
X554377Y113659D01*
X554359Y113692D01*
X554351Y113729D01*
X554319Y113768D01*
X554295Y113812D01*
X554260Y113838D01*
X554241Y113862D01*
X554213Y113875D01*
X554180Y113900D01*
X553980Y114000D01*
X553965Y114004D01*
X553952Y114013D01*
X553818Y114039D01*
X553812Y114040D01*
X553811Y114040D01*
X553810Y114040D01*
X550910Y114040D01*
X550872Y114031D01*
X550801Y114024D01*
X549801Y113724D01*
X549777Y113710D01*
X549740Y113700D01*
X549366Y113513D01*
X548940Y113300D01*
X548920Y113284D01*
X548889Y113269D01*
X548189Y112769D01*
X548164Y112741D01*
X548118Y112703D01*
X547618Y112103D01*
X547600Y112068D01*
X547561Y112010D01*
X547261Y111310D01*
X547259Y111302D01*
X547254Y111294D01*
X546954Y110494D01*
X546951Y110467D01*
X546930Y110360D01*
X546930Y108740D01*
X546110Y108740D01*
X546094Y108737D01*
X546078Y108739D01*
X546011Y108717D01*
X545941Y108701D01*
X545929Y108690D01*
X545913Y108685D01*
X545817Y108598D01*
X545808Y108591D01*
X545807Y108589D01*
X545806Y108588D01*
X545538Y108232D01*
X545182Y107964D01*
X545167Y107946D01*
X545141Y107929D01*
X543560Y106348D01*
X543182Y106064D01*
X543148Y106024D01*
X543108Y105991D01*
X543093Y105958D01*
X543071Y105931D01*
X543058Y105880D01*
X543037Y105832D01*
X543038Y105797D01*
X543030Y105763D01*
X543041Y105712D01*
X543043Y105659D01*
X543060Y105628D01*
X543068Y105594D01*
X543101Y105553D01*
X543126Y105507D01*
X543155Y105487D01*
X543177Y105459D01*
X543225Y105438D01*
X543268Y105407D01*
X543308Y105400D01*
X543335Y105387D01*
X543366Y105388D01*
X543410Y105380D01*
X546930Y105380D01*
X546930Y94160D01*
X546941Y94110D01*
X546943Y94059D01*
X546961Y94027D01*
X546969Y93991D01*
X547002Y93952D01*
X547026Y93907D01*
X547056Y93886D01*
X547079Y93858D01*
X547126Y93837D01*
X547168Y93807D01*
X547210Y93799D01*
X547238Y93787D01*
X547268Y93788D01*
X547310Y93780D01*
X551110Y93780D01*
X551160Y93791D01*
G37*
G36*
X524260Y93791D02*
X524260Y93791D01*
X524311Y93793D01*
X524343Y93811D01*
X524379Y93819D01*
X524418Y93852D01*
X524463Y93876D01*
X524484Y93906D01*
X524512Y93929D01*
X524533Y93976D01*
X524563Y94018D01*
X524571Y94060D01*
X524583Y94088D01*
X524582Y94118D01*
X524590Y94160D01*
X524590Y101418D01*
X524779Y102266D01*
X524963Y102911D01*
X525324Y103542D01*
X525758Y104064D01*
X526353Y104404D01*
X527075Y104584D01*
X528029Y104680D01*
X529020Y104680D01*
X529140Y104620D01*
X529155Y104616D01*
X529168Y104607D01*
X529302Y104581D01*
X529309Y104580D01*
X529310Y104580D01*
X529410Y104580D01*
X529460Y104591D01*
X529511Y104593D01*
X529543Y104611D01*
X529579Y104619D01*
X529618Y104652D01*
X529663Y104676D01*
X529684Y104706D01*
X529712Y104729D01*
X529733Y104776D01*
X529763Y104818D01*
X529771Y104860D01*
X529783Y104888D01*
X529782Y104918D01*
X529790Y104960D01*
X529790Y108560D01*
X529779Y108610D01*
X529777Y108661D01*
X529759Y108693D01*
X529751Y108729D01*
X529718Y108768D01*
X529694Y108813D01*
X529664Y108834D01*
X529641Y108862D01*
X529594Y108883D01*
X529552Y108913D01*
X529510Y108921D01*
X529482Y108933D01*
X529472Y108933D01*
X529414Y108969D01*
X529352Y109013D01*
X529340Y109015D01*
X529332Y109020D01*
X529295Y109024D01*
X529210Y109040D01*
X527810Y109040D01*
X527772Y109031D01*
X527706Y109026D01*
X527006Y108826D01*
X526999Y108822D01*
X526990Y108821D01*
X526390Y108621D01*
X526363Y108604D01*
X526321Y108590D01*
X525621Y108190D01*
X525603Y108173D01*
X525572Y108157D01*
X525072Y107757D01*
X525053Y107732D01*
X525018Y107703D01*
X524518Y107103D01*
X524516Y107100D01*
X524513Y107098D01*
X524390Y106944D01*
X524390Y108360D01*
X524388Y108370D01*
X524390Y108380D01*
X524368Y108454D01*
X524351Y108529D01*
X524344Y108537D01*
X524341Y108547D01*
X524290Y108603D01*
X524241Y108662D01*
X524231Y108667D01*
X524224Y108674D01*
X524153Y108702D01*
X524082Y108733D01*
X524072Y108733D01*
X524062Y108737D01*
X523918Y108729D01*
X523527Y108631D01*
X522535Y108433D01*
X522528Y108429D01*
X522518Y108429D01*
X522127Y108331D01*
X521672Y108240D01*
X521210Y108240D01*
X521174Y108232D01*
X521118Y108229D01*
X520727Y108131D01*
X520235Y108033D01*
X520223Y108027D01*
X520209Y108027D01*
X520145Y107992D01*
X520078Y107961D01*
X520069Y107950D01*
X520057Y107944D01*
X520015Y107884D01*
X519968Y107827D01*
X519965Y107813D01*
X519957Y107802D01*
X519930Y107660D01*
X519930Y94160D01*
X519941Y94110D01*
X519943Y94059D01*
X519961Y94027D01*
X519969Y93991D01*
X520002Y93952D01*
X520026Y93907D01*
X520056Y93886D01*
X520079Y93858D01*
X520126Y93837D01*
X520168Y93807D01*
X520210Y93799D01*
X520238Y93787D01*
X520268Y93788D01*
X520310Y93780D01*
X524210Y93780D01*
X524260Y93791D01*
G37*
G36*
X494306Y75351D02*
X494306Y75351D01*
X494322Y75367D01*
X494335Y75365D01*
X494735Y75765D01*
X494736Y75777D01*
X494740Y75779D01*
X494737Y75783D01*
X494738Y75786D01*
X494749Y75792D01*
X494849Y76392D01*
X494846Y76397D01*
X494849Y76400D01*
X494849Y77767D01*
X495309Y77951D01*
X496673Y77951D01*
X497156Y77177D01*
X497855Y75580D01*
X497873Y75570D01*
X497875Y75558D01*
X498375Y75258D01*
X498399Y75260D01*
X498408Y75251D01*
X499008Y75351D01*
X499017Y75361D01*
X499024Y75357D01*
X499724Y75757D01*
X499731Y75773D01*
X499742Y75775D01*
X500042Y76275D01*
X500039Y76303D01*
X500047Y76314D01*
X499847Y77014D01*
X499839Y77020D01*
X499841Y77027D01*
X499644Y77323D01*
X499147Y78614D01*
X499053Y79087D01*
X499438Y79569D01*
X499439Y79577D01*
X499444Y79578D01*
X499744Y80178D01*
X499743Y80185D01*
X499747Y80186D01*
X499947Y80886D01*
X499944Y80896D01*
X499949Y80900D01*
X499949Y81600D01*
X499946Y81604D01*
X499949Y81607D01*
X499849Y82307D01*
X499844Y82312D01*
X499847Y82316D01*
X499647Y82916D01*
X499639Y82921D01*
X499641Y82927D01*
X499241Y83527D01*
X499231Y83531D01*
X499231Y83538D01*
X498731Y83938D01*
X498712Y83939D01*
X498737Y83967D01*
X498741Y84027D01*
X498728Y84028D01*
X498727Y84041D01*
X498127Y84441D01*
X498123Y84441D01*
X498122Y84444D01*
X497522Y84744D01*
X497512Y84742D01*
X497508Y84749D01*
X496908Y84849D01*
X496907Y84848D01*
X496907Y84849D01*
X496207Y84949D01*
X496202Y84946D01*
X496200Y84949D01*
X493500Y84949D01*
X493492Y84943D01*
X493486Y84947D01*
X492786Y84747D01*
X492771Y84727D01*
X492758Y84725D01*
X492458Y84225D01*
X492460Y84207D01*
X492451Y84200D01*
X492451Y76000D01*
X492462Y75985D01*
X492458Y75975D01*
X492758Y75475D01*
X492782Y75465D01*
X492786Y75453D01*
X493486Y75253D01*
X493500Y75258D01*
X493506Y75251D01*
X494306Y75351D01*
G37*
G36*
X474005Y55351D02*
X474005Y55351D01*
X474022Y55367D01*
X474035Y55365D01*
X474435Y55765D01*
X474436Y55777D01*
X474440Y55779D01*
X474437Y55783D01*
X474438Y55786D01*
X474449Y55792D01*
X474549Y56392D01*
X474546Y56397D01*
X474549Y56400D01*
X474549Y57767D01*
X475009Y57951D01*
X476370Y57951D01*
X476755Y57179D01*
X477455Y55580D01*
X477476Y55569D01*
X477478Y55556D01*
X478078Y55256D01*
X478099Y55260D01*
X478108Y55251D01*
X478708Y55351D01*
X478717Y55361D01*
X478724Y55357D01*
X479424Y55757D01*
X479433Y55778D01*
X479446Y55782D01*
X479646Y56282D01*
X479640Y56303D01*
X479647Y56314D01*
X479447Y57014D01*
X479446Y57015D01*
X479447Y57016D01*
X479347Y57316D01*
X479343Y57318D01*
X479345Y57321D01*
X478749Y58611D01*
X478749Y59083D01*
X479138Y59569D01*
X479139Y59577D01*
X479144Y59578D01*
X479444Y60178D01*
X479442Y60189D01*
X479449Y60193D01*
X479649Y61593D01*
X479644Y61602D01*
X479649Y61607D01*
X479549Y62307D01*
X479541Y62315D01*
X479544Y62322D01*
X478944Y63522D01*
X478931Y63529D01*
X478931Y63538D01*
X478431Y63938D01*
X478412Y63939D01*
X478437Y63967D01*
X478441Y64027D01*
X478428Y64028D01*
X478427Y64041D01*
X477827Y64441D01*
X477823Y64441D01*
X477822Y64444D01*
X477222Y64744D01*
X477212Y64742D01*
X477208Y64749D01*
X476608Y64849D01*
X476607Y64848D01*
X476607Y64849D01*
X475907Y64949D01*
X475902Y64946D01*
X475900Y64949D01*
X473100Y64949D01*
X473091Y64942D01*
X473084Y64947D01*
X472484Y64747D01*
X472471Y64727D01*
X472458Y64725D01*
X472158Y64225D01*
X472160Y64207D01*
X472151Y64200D01*
X472151Y56000D01*
X472159Y55989D01*
X472154Y55982D01*
X472354Y55482D01*
X472382Y55465D01*
X472386Y55453D01*
X473086Y55253D01*
X473099Y55258D01*
X473105Y55251D01*
X474005Y55351D01*
G37*
G36*
X550521Y55267D02*
X550521Y55267D01*
X550535Y55265D01*
X550935Y55665D01*
X550936Y55677D01*
X550941Y55681D01*
X550938Y55686D01*
X550949Y55692D01*
X551049Y56292D01*
X551046Y56297D01*
X551049Y56300D01*
X551049Y57667D01*
X551509Y57851D01*
X552800Y57851D01*
X552804Y57854D01*
X552807Y57851D01*
X553507Y57951D01*
X553512Y57956D01*
X553516Y57953D01*
X554116Y58153D01*
X554121Y58161D01*
X554127Y58159D01*
X554727Y58559D01*
X554728Y58562D01*
X554731Y58562D01*
X555231Y58962D01*
X555233Y58969D01*
X555238Y58969D01*
X555638Y59469D01*
X555639Y59479D01*
X555645Y59481D01*
X555945Y60181D01*
X555945Y60184D01*
X555947Y60184D01*
X556147Y60784D01*
X556143Y60795D01*
X556149Y60800D01*
X556149Y62200D01*
X556140Y62213D01*
X556144Y62222D01*
X555744Y63022D01*
X555737Y63025D01*
X555738Y63031D01*
X555338Y63531D01*
X555334Y63532D01*
X555335Y63535D01*
X554835Y64035D01*
X554828Y64036D01*
X554827Y64041D01*
X554227Y64441D01*
X554223Y64441D01*
X554222Y64444D01*
X553622Y64744D01*
X553612Y64742D01*
X553608Y64749D01*
X553008Y64849D01*
X553003Y64846D01*
X553000Y64849D01*
X549500Y64849D01*
X549491Y64842D01*
X549484Y64847D01*
X548884Y64647D01*
X548867Y64622D01*
X548854Y64618D01*
X548654Y64118D01*
X548658Y64105D01*
X548651Y64100D01*
X548651Y56600D01*
X548654Y56596D01*
X548651Y56593D01*
X548751Y55893D01*
X548759Y55885D01*
X548756Y55878D01*
X548956Y55478D01*
X548982Y55465D01*
X548986Y55453D01*
X549686Y55253D01*
X549696Y55256D01*
X549700Y55251D01*
X550500Y55251D01*
X550521Y55267D01*
G37*
G36*
X519211Y75262D02*
X519211Y75262D01*
X519222Y75256D01*
X519822Y75556D01*
X519828Y75569D01*
X519838Y75568D01*
X520338Y76168D01*
X520339Y76186D01*
X520348Y76190D01*
X520448Y76690D01*
X520437Y76715D01*
X520441Y76727D01*
X520041Y77327D01*
X520034Y77330D01*
X520035Y77335D01*
X518836Y78534D01*
X517272Y80195D01*
X517731Y80562D01*
X517732Y80567D01*
X517736Y80567D01*
X518836Y81766D01*
X519735Y82665D01*
X519736Y82670D01*
X519739Y82670D01*
X520039Y83070D01*
X520039Y83073D01*
X520041Y83073D01*
X520441Y83673D01*
X520439Y83700D01*
X520448Y83710D01*
X520348Y84210D01*
X520333Y84223D01*
X520335Y84235D01*
X519735Y84835D01*
X519726Y84836D01*
X519725Y84842D01*
X519225Y85142D01*
X519193Y85139D01*
X519182Y85146D01*
X518682Y84946D01*
X518676Y84936D01*
X518668Y84938D01*
X518068Y84438D01*
X518067Y84432D01*
X518063Y84432D01*
X516863Y83032D01*
X516863Y83031D01*
X516862Y83031D01*
X515531Y81415D01*
X515449Y81904D01*
X515449Y83900D01*
X515446Y83904D01*
X515449Y83907D01*
X515349Y84607D01*
X515327Y84629D01*
X515325Y84642D01*
X514825Y84942D01*
X514807Y84940D01*
X514800Y84949D01*
X513900Y84949D01*
X513891Y84942D01*
X513884Y84947D01*
X513284Y84747D01*
X513267Y84722D01*
X513254Y84718D01*
X513054Y84218D01*
X513058Y84205D01*
X513051Y84200D01*
X513051Y76000D01*
X513064Y75982D01*
X513061Y75970D01*
X513361Y75570D01*
X513381Y75565D01*
X513384Y75553D01*
X513984Y75353D01*
X513999Y75358D01*
X514005Y75351D01*
X514905Y75451D01*
X514919Y75464D01*
X514930Y75461D01*
X515330Y75761D01*
X515334Y75777D01*
X515337Y75779D01*
X515336Y75782D01*
X515337Y75786D01*
X515349Y75792D01*
X515449Y76392D01*
X515446Y76397D01*
X515449Y76400D01*
X515449Y78495D01*
X515528Y78890D01*
X518062Y75868D01*
X518069Y75867D01*
X518068Y75862D01*
X518668Y75362D01*
X518686Y75361D01*
X518690Y75352D01*
X519190Y75252D01*
X519211Y75262D01*
G37*
G36*
X527102Y75256D02*
X527102Y75256D01*
X527107Y75251D01*
X527807Y75351D01*
X527829Y75373D01*
X527842Y75375D01*
X528142Y75875D01*
X528142Y75878D01*
X528140Y75893D01*
X528149Y75900D01*
X528149Y78567D01*
X528609Y78751D01*
X530600Y78751D01*
X530604Y78754D01*
X530607Y78751D01*
X531307Y78851D01*
X531322Y78867D01*
X531335Y78865D01*
X531735Y79265D01*
X531736Y79276D01*
X531737Y79276D01*
X531736Y79276D01*
X531738Y79288D01*
X531749Y79294D01*
X531849Y80094D01*
X531842Y80106D01*
X531847Y80114D01*
X531647Y80814D01*
X531633Y80824D01*
X531635Y80835D01*
X531235Y81235D01*
X531208Y81239D01*
X531200Y81249D01*
X528516Y81249D01*
X528149Y81525D01*
X528149Y82175D01*
X528516Y82451D01*
X532600Y82451D01*
X532618Y82465D01*
X532631Y82462D01*
X533131Y82862D01*
X533136Y82881D01*
X533147Y82884D01*
X533347Y83484D01*
X533342Y83500D01*
X533349Y83507D01*
X533249Y84207D01*
X533236Y84220D01*
X533238Y84231D01*
X532838Y84731D01*
X532813Y84737D01*
X532807Y84749D01*
X532107Y84849D01*
X532102Y84846D01*
X532100Y84849D01*
X526600Y84849D01*
X526589Y84841D01*
X526582Y84846D01*
X526082Y84646D01*
X526066Y84620D01*
X526053Y84616D01*
X525853Y84016D01*
X525855Y84009D01*
X525851Y84007D01*
X525751Y83307D01*
X525754Y83302D01*
X525751Y83300D01*
X525751Y76500D01*
X525754Y76496D01*
X525751Y76493D01*
X525851Y75793D01*
X525864Y75781D01*
X525861Y75770D01*
X526161Y75370D01*
X526188Y75363D01*
X526195Y75351D01*
X527095Y75251D01*
X527102Y75256D01*
G37*
G36*
X567008Y55257D02*
X567008Y55257D01*
X567014Y55253D01*
X567714Y55453D01*
X567726Y55470D01*
X567738Y55469D01*
X568094Y55914D01*
X568358Y55475D01*
X568380Y55466D01*
X568384Y55453D01*
X568984Y55253D01*
X568995Y55257D01*
X569000Y55251D01*
X569800Y55251D01*
X569815Y55262D01*
X569825Y55258D01*
X570325Y55558D01*
X570333Y55577D01*
X570340Y55582D01*
X570337Y55586D01*
X570349Y55593D01*
X570449Y56293D01*
X570446Y56298D01*
X570449Y56300D01*
X570449Y61100D01*
X570446Y61105D01*
X570449Y61108D01*
X570349Y61708D01*
X570330Y61725D01*
X570331Y61738D01*
X569831Y62138D01*
X569809Y62139D01*
X569804Y62146D01*
X569803Y62146D01*
X569800Y62149D01*
X569000Y62149D01*
X568995Y62146D01*
X568990Y62146D01*
X568988Y62144D01*
X568984Y62147D01*
X568384Y61947D01*
X568371Y61927D01*
X568358Y61925D01*
X568090Y61479D01*
X568035Y61535D01*
X568031Y61535D01*
X568031Y61538D01*
X567531Y61938D01*
X567517Y61939D01*
X567514Y61947D01*
X566814Y62147D01*
X566809Y62146D01*
X566803Y62146D01*
X566800Y62149D01*
X566200Y62149D01*
X566195Y62146D01*
X566190Y62146D01*
X566188Y62144D01*
X566184Y62147D01*
X565584Y61947D01*
X565581Y61942D01*
X565578Y61944D01*
X564978Y61644D01*
X564974Y61637D01*
X564968Y61638D01*
X564368Y61138D01*
X564366Y61128D01*
X564359Y61127D01*
X563959Y60527D01*
X563959Y60523D01*
X563956Y60522D01*
X563656Y59922D01*
X563657Y59917D01*
X563653Y59916D01*
X563453Y59316D01*
X563457Y59306D01*
X563453Y59303D01*
X563453Y59302D01*
X563451Y59300D01*
X563451Y58600D01*
X563454Y58596D01*
X563451Y58593D01*
X563551Y57893D01*
X563556Y57888D01*
X563553Y57884D01*
X563753Y57284D01*
X563758Y57281D01*
X563756Y57278D01*
X564056Y56678D01*
X564066Y56673D01*
X564065Y56665D01*
X565065Y55665D01*
X565077Y55664D01*
X565078Y55656D01*
X565678Y55356D01*
X565689Y55358D01*
X565692Y55351D01*
X566292Y55251D01*
X566297Y55254D01*
X566300Y55251D01*
X567000Y55251D01*
X567008Y55257D01*
G37*
G36*
X538709Y75258D02*
X538709Y75258D01*
X538716Y75253D01*
X539316Y75453D01*
X539325Y75467D01*
X539335Y75465D01*
X539782Y75912D01*
X539954Y75482D01*
X539980Y75466D01*
X539984Y75453D01*
X540584Y75253D01*
X540595Y75257D01*
X540600Y75251D01*
X541400Y75251D01*
X541415Y75262D01*
X541425Y75258D01*
X541925Y75558D01*
X541933Y75577D01*
X541940Y75582D01*
X541937Y75586D01*
X541949Y75593D01*
X542049Y76293D01*
X542046Y76298D01*
X542049Y76300D01*
X542049Y81100D01*
X542046Y81105D01*
X542049Y81108D01*
X541949Y81708D01*
X541930Y81725D01*
X541931Y81738D01*
X541431Y82138D01*
X541409Y82139D01*
X541404Y82146D01*
X541403Y82146D01*
X541400Y82149D01*
X540600Y82149D01*
X540595Y82146D01*
X540590Y82146D01*
X540588Y82144D01*
X540584Y82147D01*
X539984Y81947D01*
X539971Y81927D01*
X539958Y81925D01*
X539690Y81479D01*
X539635Y81535D01*
X539631Y81535D01*
X539631Y81538D01*
X539131Y81938D01*
X539118Y81939D01*
X539116Y81947D01*
X538516Y82147D01*
X538511Y82145D01*
X538511Y82146D01*
X538503Y82146D01*
X538500Y82149D01*
X537800Y82149D01*
X537795Y82146D01*
X537790Y82146D01*
X537788Y82144D01*
X537784Y82147D01*
X537184Y81947D01*
X537181Y81942D01*
X537178Y81944D01*
X536578Y81644D01*
X536573Y81634D01*
X536565Y81635D01*
X536065Y81135D01*
X536065Y81131D01*
X536062Y81132D01*
X535562Y80532D01*
X535562Y80523D01*
X535556Y80522D01*
X535256Y79922D01*
X535258Y79912D01*
X535251Y79908D01*
X535151Y79308D01*
X535152Y79307D01*
X535151Y79307D01*
X535051Y78607D01*
X535056Y78598D01*
X535051Y78593D01*
X535151Y77893D01*
X535156Y77888D01*
X535153Y77884D01*
X535353Y77284D01*
X535358Y77281D01*
X535356Y77278D01*
X535656Y76678D01*
X535666Y76673D01*
X535665Y76665D01*
X536165Y76165D01*
X536169Y76165D01*
X536168Y76162D01*
X536768Y75662D01*
X536774Y75662D01*
X536775Y75658D01*
X537275Y75358D01*
X537289Y75359D01*
X537293Y75351D01*
X537993Y75251D01*
X537998Y75254D01*
X538000Y75251D01*
X538700Y75251D01*
X538709Y75258D01*
G37*
G36*
X531104Y55254D02*
X531104Y55254D01*
X531107Y55251D01*
X531807Y55351D01*
X531815Y55359D01*
X531822Y55356D01*
X532422Y55656D01*
X532425Y55663D01*
X532431Y55662D01*
X533431Y56462D01*
X533433Y56472D01*
X533441Y56473D01*
X533841Y57073D01*
X533841Y57077D01*
X533844Y57078D01*
X534144Y57678D01*
X534142Y57689D01*
X534149Y57693D01*
X534249Y58393D01*
X534246Y58398D01*
X534249Y58400D01*
X534249Y59100D01*
X534246Y59104D01*
X534249Y59107D01*
X534149Y59807D01*
X534144Y59812D01*
X534147Y59816D01*
X533947Y60416D01*
X533939Y60421D01*
X533941Y60427D01*
X533541Y61027D01*
X533538Y61028D01*
X533538Y61031D01*
X533138Y61531D01*
X533128Y61533D01*
X533127Y61541D01*
X532527Y61941D01*
X532523Y61941D01*
X532522Y61944D01*
X531922Y62244D01*
X531912Y62242D01*
X531911Y62243D01*
X531908Y62249D01*
X531308Y62349D01*
X531307Y62348D01*
X531307Y62349D01*
X530607Y62449D01*
X530598Y62444D01*
X530593Y62449D01*
X529893Y62349D01*
X529888Y62344D01*
X529884Y62347D01*
X529284Y62147D01*
X529281Y62142D01*
X529278Y62144D01*
X528678Y61844D01*
X528674Y61837D01*
X528668Y61838D01*
X528068Y61338D01*
X528068Y61336D01*
X528067Y61337D01*
X527067Y60437D01*
X527062Y60408D01*
X527051Y60400D01*
X527051Y58900D01*
X527054Y58895D01*
X527051Y58892D01*
X527151Y58292D01*
X527251Y57593D01*
X527259Y57585D01*
X527256Y57578D01*
X527556Y56978D01*
X527564Y56974D01*
X527562Y56968D01*
X528062Y56368D01*
X528069Y56367D01*
X528069Y56362D01*
X529069Y55562D01*
X529083Y55561D01*
X529086Y55553D01*
X529786Y55353D01*
X529790Y55354D01*
X529792Y55351D01*
X530392Y55251D01*
X530397Y55254D01*
X530400Y55251D01*
X531100Y55251D01*
X531104Y55254D01*
G37*
%LPC*%
G36*
X495684Y97234D02*
X495684Y97234D01*
X495092Y97404D01*
X494567Y97841D01*
X494131Y98277D01*
X493872Y98882D01*
X493490Y100407D01*
X493490Y102036D01*
X493582Y102768D01*
X493863Y103518D01*
X494138Y104159D01*
X494578Y104687D01*
X495000Y105025D01*
X495702Y105288D01*
X496413Y105377D01*
X497212Y105288D01*
X497828Y105024D01*
X498353Y104674D01*
X498782Y104159D01*
X499057Y103518D01*
X499338Y102768D01*
X499430Y102036D01*
X499430Y100384D01*
X499338Y99652D01*
X499057Y98902D01*
X498781Y98257D01*
X498437Y97828D01*
X497933Y97408D01*
X497240Y97234D01*
X496507Y97143D01*
X495684Y97234D01*
G37*
%LPD*%
G36*
X584707Y55256D02*
X584707Y55256D01*
X584712Y55252D01*
X585512Y55452D01*
X585519Y55461D01*
X585525Y55458D01*
X586025Y55758D01*
X586029Y55766D01*
X586035Y55765D01*
X586335Y56065D01*
X586339Y56092D01*
X586349Y56100D01*
X586349Y56600D01*
X586338Y56614D01*
X586343Y56624D01*
X585943Y57324D01*
X585927Y57331D01*
X585925Y57342D01*
X585425Y57642D01*
X585396Y57639D01*
X585384Y57647D01*
X584192Y57249D01*
X583408Y57249D01*
X582827Y57443D01*
X582388Y57882D01*
X582809Y58051D01*
X585600Y58051D01*
X585610Y58058D01*
X585615Y58058D01*
X585616Y58059D01*
X585622Y58056D01*
X586222Y58356D01*
X586225Y58363D01*
X586231Y58362D01*
X586731Y58762D01*
X586735Y58777D01*
X586743Y58783D01*
X586738Y58790D01*
X586738Y58792D01*
X586749Y58800D01*
X586749Y59600D01*
X586746Y59604D01*
X586749Y59607D01*
X586649Y60307D01*
X586644Y60312D01*
X586647Y60316D01*
X586447Y60916D01*
X586436Y60923D01*
X586438Y60931D01*
X586038Y61431D01*
X586034Y61432D01*
X586035Y61435D01*
X585535Y61935D01*
X585523Y61936D01*
X585522Y61944D01*
X584922Y62244D01*
X584912Y62242D01*
X584910Y62244D01*
X584909Y62244D01*
X584907Y62249D01*
X583507Y62449D01*
X583498Y62444D01*
X583493Y62449D01*
X582793Y62349D01*
X582789Y62345D01*
X582786Y62347D01*
X582086Y62147D01*
X582082Y62142D01*
X582078Y62144D01*
X581478Y61844D01*
X581475Y61837D01*
X581469Y61838D01*
X580469Y61038D01*
X580466Y61024D01*
X580456Y61022D01*
X580156Y60422D01*
X580157Y60417D01*
X580153Y60416D01*
X579953Y59816D01*
X579955Y59809D01*
X579951Y59807D01*
X579851Y59107D01*
X579854Y59102D01*
X579851Y59100D01*
X579851Y58400D01*
X579854Y58396D01*
X579851Y58393D01*
X579951Y57693D01*
X579959Y57685D01*
X579956Y57678D01*
X580556Y56478D01*
X580566Y56473D01*
X580565Y56465D01*
X581065Y55965D01*
X581072Y55964D01*
X581073Y55959D01*
X581673Y55559D01*
X581682Y55560D01*
X581684Y55553D01*
X582284Y55353D01*
X582291Y55355D01*
X582293Y55351D01*
X582993Y55251D01*
X582998Y55254D01*
X583000Y55251D01*
X584700Y55251D01*
X584707Y55256D01*
G37*
G36*
X557008Y75257D02*
X557008Y75257D01*
X557014Y75253D01*
X557714Y75453D01*
X557719Y75460D01*
X557725Y75458D01*
X558225Y75758D01*
X558229Y75766D01*
X558235Y75765D01*
X558535Y76065D01*
X558539Y76092D01*
X558549Y76100D01*
X558549Y76600D01*
X558541Y76611D01*
X558545Y76619D01*
X558245Y77319D01*
X558227Y77330D01*
X558225Y77342D01*
X557725Y77642D01*
X557697Y77639D01*
X557686Y77647D01*
X556986Y77447D01*
X556985Y77446D01*
X556984Y77447D01*
X556392Y77249D01*
X555707Y77249D01*
X555029Y77443D01*
X554680Y77879D01*
X555109Y78051D01*
X557800Y78051D01*
X557810Y78058D01*
X557815Y78058D01*
X557816Y78059D01*
X557822Y78056D01*
X558422Y78356D01*
X558425Y78363D01*
X558431Y78362D01*
X558931Y78762D01*
X558935Y78777D01*
X558943Y78783D01*
X558938Y78790D01*
X558938Y78792D01*
X558949Y78800D01*
X558949Y79600D01*
X558946Y79604D01*
X558949Y79607D01*
X558849Y80307D01*
X558844Y80312D01*
X558847Y80316D01*
X558647Y80916D01*
X558636Y80923D01*
X558638Y80931D01*
X558238Y81431D01*
X558234Y81432D01*
X558235Y81435D01*
X557735Y81935D01*
X557723Y81936D01*
X557722Y81944D01*
X557122Y82244D01*
X557112Y82242D01*
X557111Y82243D01*
X557108Y82249D01*
X556508Y82349D01*
X556507Y82348D01*
X556506Y82349D01*
X555706Y82449D01*
X555698Y82444D01*
X555693Y82449D01*
X554993Y82349D01*
X554989Y82345D01*
X554986Y82347D01*
X554286Y82147D01*
X554281Y82140D01*
X554275Y82142D01*
X553775Y81842D01*
X553774Y81841D01*
X553773Y81841D01*
X553173Y81441D01*
X553170Y81434D01*
X553165Y81435D01*
X552765Y81035D01*
X552764Y81028D01*
X552759Y81027D01*
X552359Y80427D01*
X552360Y80418D01*
X552353Y80416D01*
X552153Y79816D01*
X552155Y79809D01*
X552151Y79807D01*
X552051Y79107D01*
X552054Y79102D01*
X552051Y79100D01*
X552051Y78400D01*
X552057Y78392D01*
X552053Y78386D01*
X552253Y77686D01*
X552254Y77685D01*
X552253Y77684D01*
X552453Y77084D01*
X552461Y77079D01*
X552459Y77073D01*
X552859Y76473D01*
X552862Y76472D01*
X552862Y76469D01*
X553262Y75969D01*
X553272Y75967D01*
X553273Y75959D01*
X553873Y75559D01*
X553882Y75560D01*
X553884Y75553D01*
X554484Y75353D01*
X554491Y75355D01*
X554493Y75351D01*
X555193Y75251D01*
X555198Y75254D01*
X555200Y75251D01*
X557000Y75251D01*
X557008Y75257D01*
G37*
G36*
X502608Y55257D02*
X502608Y55257D01*
X502614Y55253D01*
X503314Y55453D01*
X503319Y55460D01*
X503325Y55458D01*
X503825Y55758D01*
X503829Y55766D01*
X503835Y55765D01*
X504135Y56065D01*
X504139Y56092D01*
X504149Y56100D01*
X504149Y56600D01*
X504141Y56611D01*
X504145Y56619D01*
X503845Y57319D01*
X503827Y57330D01*
X503825Y57342D01*
X503325Y57642D01*
X503297Y57639D01*
X503286Y57647D01*
X502586Y57447D01*
X502585Y57446D01*
X502584Y57447D01*
X501992Y57249D01*
X501307Y57249D01*
X500629Y57443D01*
X500280Y57879D01*
X500709Y58051D01*
X503400Y58051D01*
X503410Y58058D01*
X503415Y58058D01*
X503416Y58059D01*
X503422Y58056D01*
X504022Y58356D01*
X504025Y58363D01*
X504031Y58362D01*
X504531Y58762D01*
X504535Y58777D01*
X504543Y58783D01*
X504538Y58790D01*
X504538Y58792D01*
X504549Y58800D01*
X504549Y59600D01*
X504546Y59604D01*
X504549Y59607D01*
X504449Y60307D01*
X504444Y60312D01*
X504447Y60316D01*
X504247Y60916D01*
X504236Y60923D01*
X504238Y60931D01*
X503838Y61431D01*
X503834Y61432D01*
X503835Y61435D01*
X503335Y61935D01*
X503323Y61936D01*
X503322Y61944D01*
X502722Y62244D01*
X502712Y62242D01*
X502711Y62243D01*
X502708Y62249D01*
X502108Y62349D01*
X502107Y62348D01*
X502106Y62349D01*
X501306Y62449D01*
X501298Y62444D01*
X501293Y62449D01*
X500593Y62349D01*
X500588Y62344D01*
X500584Y62347D01*
X499984Y62147D01*
X499981Y62142D01*
X499978Y62144D01*
X499378Y61844D01*
X499376Y61840D01*
X499373Y61841D01*
X498773Y61441D01*
X498770Y61434D01*
X498765Y61435D01*
X498365Y61035D01*
X498364Y61023D01*
X498356Y61022D01*
X497756Y59822D01*
X497758Y59811D01*
X497751Y59807D01*
X497651Y59107D01*
X497654Y59102D01*
X497651Y59100D01*
X497651Y58400D01*
X497657Y58392D01*
X497653Y58386D01*
X497853Y57686D01*
X497854Y57685D01*
X497853Y57684D01*
X498053Y57084D01*
X498061Y57079D01*
X498059Y57073D01*
X498459Y56473D01*
X498462Y56472D01*
X498462Y56469D01*
X498862Y55969D01*
X498872Y55967D01*
X498873Y55959D01*
X499473Y55559D01*
X499482Y55560D01*
X499484Y55553D01*
X500084Y55353D01*
X500091Y55355D01*
X500093Y55351D01*
X500793Y55251D01*
X500798Y55254D01*
X500800Y55251D01*
X502600Y55251D01*
X502608Y55257D01*
G37*
G36*
X486307Y55256D02*
X486307Y55256D01*
X486312Y55252D01*
X487112Y55452D01*
X487119Y55461D01*
X487125Y55458D01*
X487625Y55758D01*
X487629Y55766D01*
X487635Y55765D01*
X487935Y56065D01*
X487939Y56092D01*
X487949Y56100D01*
X487949Y56600D01*
X487938Y56614D01*
X487943Y56624D01*
X487543Y57324D01*
X487527Y57331D01*
X487525Y57342D01*
X487025Y57642D01*
X486996Y57639D01*
X486984Y57647D01*
X485792Y57249D01*
X485008Y57249D01*
X484427Y57443D01*
X483988Y57882D01*
X484409Y58051D01*
X487100Y58051D01*
X487110Y58058D01*
X487114Y58058D01*
X487119Y58055D01*
X487819Y58355D01*
X487826Y58366D01*
X487835Y58365D01*
X488235Y58765D01*
X488237Y58778D01*
X488244Y58783D01*
X488238Y58791D01*
X488239Y58792D01*
X488249Y58800D01*
X488249Y60300D01*
X488240Y60313D01*
X488244Y60322D01*
X487944Y60922D01*
X487937Y60925D01*
X487938Y60931D01*
X487138Y61931D01*
X487124Y61934D01*
X487122Y61944D01*
X486522Y62244D01*
X486512Y62242D01*
X486510Y62244D01*
X486509Y62244D01*
X486507Y62249D01*
X485107Y62449D01*
X485099Y62444D01*
X485094Y62449D01*
X484294Y62349D01*
X484289Y62344D01*
X484284Y62347D01*
X483684Y62147D01*
X483681Y62142D01*
X483678Y62144D01*
X483078Y61844D01*
X483075Y61837D01*
X483069Y61838D01*
X482069Y61038D01*
X482066Y61024D01*
X482056Y61022D01*
X481756Y60422D01*
X481757Y60417D01*
X481753Y60416D01*
X481553Y59816D01*
X481555Y59809D01*
X481551Y59807D01*
X481451Y59107D01*
X481454Y59102D01*
X481451Y59100D01*
X481451Y58400D01*
X481454Y58396D01*
X481451Y58393D01*
X481551Y57693D01*
X481559Y57685D01*
X481556Y57678D01*
X482156Y56478D01*
X482166Y56473D01*
X482165Y56465D01*
X482665Y55965D01*
X482672Y55964D01*
X482673Y55959D01*
X483273Y55559D01*
X483282Y55560D01*
X483284Y55553D01*
X483884Y55353D01*
X483890Y55355D01*
X483892Y55351D01*
X484492Y55251D01*
X484497Y55254D01*
X484500Y55251D01*
X486300Y55251D01*
X486307Y55256D01*
G37*
G36*
X508418Y55264D02*
X508418Y55264D01*
X508430Y55261D01*
X508830Y55561D01*
X508834Y55577D01*
X508841Y55582D01*
X508841Y55583D01*
X508847Y55584D01*
X509047Y56184D01*
X509043Y56195D01*
X509049Y56200D01*
X509049Y58888D01*
X509337Y59463D01*
X509912Y59751D01*
X510583Y59751D01*
X511057Y59371D01*
X511251Y58693D01*
X511251Y56000D01*
X511259Y55989D01*
X511254Y55982D01*
X511454Y55482D01*
X511480Y55466D01*
X511484Y55453D01*
X512084Y55253D01*
X512095Y55257D01*
X512100Y55251D01*
X513000Y55251D01*
X513018Y55265D01*
X513031Y55262D01*
X513531Y55662D01*
X513535Y55677D01*
X513540Y55681D01*
X513537Y55685D01*
X513537Y55686D01*
X513549Y55692D01*
X513649Y56292D01*
X513646Y56297D01*
X513649Y56300D01*
X513649Y59100D01*
X513642Y59109D01*
X513647Y59116D01*
X513447Y59715D01*
X513247Y60414D01*
X513240Y60419D01*
X513242Y60425D01*
X512942Y60925D01*
X512934Y60929D01*
X512935Y60935D01*
X512435Y61435D01*
X512428Y61436D01*
X512427Y61441D01*
X511827Y61841D01*
X511818Y61840D01*
X511816Y61847D01*
X511216Y62047D01*
X511209Y62045D01*
X511207Y62049D01*
X510507Y62149D01*
X510502Y62146D01*
X510495Y62146D01*
X510492Y62149D01*
X509892Y62049D01*
X509882Y62038D01*
X509873Y62041D01*
X509280Y61646D01*
X508923Y61557D01*
X508642Y62025D01*
X508614Y62037D01*
X508607Y62049D01*
X507907Y62149D01*
X507902Y62146D01*
X507897Y62146D01*
X507894Y62149D01*
X507094Y62049D01*
X507078Y62033D01*
X507065Y62035D01*
X506665Y61635D01*
X506664Y61623D01*
X506657Y61617D01*
X506662Y61610D01*
X506662Y61608D01*
X506651Y61600D01*
X506651Y56100D01*
X506658Y56091D01*
X506653Y56084D01*
X506853Y55484D01*
X506880Y55466D01*
X506884Y55453D01*
X507484Y55253D01*
X507495Y55257D01*
X507500Y55251D01*
X508400Y55251D01*
X508418Y55264D01*
G37*
G36*
X506405Y75254D02*
X506405Y75254D01*
X506408Y75251D01*
X507008Y75351D01*
X507031Y75376D01*
X507044Y75378D01*
X507344Y75978D01*
X507341Y75994D01*
X507349Y76000D01*
X507349Y82757D01*
X508003Y82851D01*
X510100Y82851D01*
X510115Y82862D01*
X510125Y82858D01*
X510625Y83158D01*
X510637Y83186D01*
X510649Y83192D01*
X510749Y83792D01*
X510746Y83797D01*
X510749Y83800D01*
X510749Y84500D01*
X510724Y84533D01*
X510722Y84544D01*
X510122Y84844D01*
X510106Y84841D01*
X510100Y84849D01*
X502600Y84849D01*
X502596Y84846D01*
X502593Y84849D01*
X501893Y84749D01*
X501864Y84719D01*
X501853Y84716D01*
X501653Y84116D01*
X501657Y84105D01*
X501651Y84100D01*
X501651Y83400D01*
X501667Y83379D01*
X501665Y83365D01*
X502065Y82965D01*
X502087Y82962D01*
X502093Y82951D01*
X502793Y82851D01*
X502798Y82854D01*
X502800Y82851D01*
X504870Y82851D01*
X505051Y82488D01*
X505051Y76300D01*
X505054Y76295D01*
X505051Y76292D01*
X505151Y75692D01*
X505170Y75675D01*
X505169Y75662D01*
X505669Y75262D01*
X505692Y75261D01*
X505700Y75251D01*
X506400Y75251D01*
X506405Y75254D01*
G37*
G36*
X538115Y55262D02*
X538115Y55262D01*
X538125Y55258D01*
X538625Y55558D01*
X538633Y55577D01*
X538640Y55582D01*
X538637Y55586D01*
X538649Y55592D01*
X538749Y56192D01*
X538746Y56197D01*
X538749Y56200D01*
X538749Y58888D01*
X539037Y59463D01*
X539612Y59751D01*
X540283Y59751D01*
X540757Y59371D01*
X540951Y58693D01*
X540951Y56000D01*
X540959Y55989D01*
X540954Y55982D01*
X541154Y55482D01*
X541182Y55465D01*
X541186Y55453D01*
X541886Y55253D01*
X541896Y55256D01*
X541900Y55251D01*
X542700Y55251D01*
X542718Y55265D01*
X542731Y55262D01*
X543231Y55662D01*
X543235Y55677D01*
X543240Y55681D01*
X543237Y55685D01*
X543237Y55686D01*
X543249Y55692D01*
X543349Y56292D01*
X543346Y56297D01*
X543349Y56300D01*
X543349Y59100D01*
X543346Y59105D01*
X543349Y59108D01*
X543249Y59708D01*
X543242Y59714D01*
X543245Y59719D01*
X542945Y60419D01*
X542941Y60422D01*
X542942Y60425D01*
X542642Y60925D01*
X542634Y60929D01*
X542635Y60935D01*
X542135Y61435D01*
X542131Y61435D01*
X542131Y61438D01*
X541631Y61838D01*
X541617Y61839D01*
X541614Y61847D01*
X540914Y62047D01*
X540910Y62046D01*
X540908Y62049D01*
X540308Y62149D01*
X540303Y62146D01*
X540296Y62146D01*
X540293Y62149D01*
X539593Y62049D01*
X539582Y62038D01*
X539573Y62041D01*
X538978Y61645D01*
X538722Y61559D01*
X538442Y62025D01*
X538413Y62037D01*
X538406Y62049D01*
X537606Y62149D01*
X537601Y62146D01*
X537597Y62146D01*
X537594Y62149D01*
X536794Y62049D01*
X536774Y62030D01*
X536761Y62030D01*
X536461Y61630D01*
X536461Y61621D01*
X536456Y61617D01*
X536461Y61611D01*
X536461Y61608D01*
X536451Y61600D01*
X536451Y56100D01*
X536454Y56095D01*
X536451Y56092D01*
X536551Y55492D01*
X536581Y55464D01*
X536584Y55453D01*
X537184Y55253D01*
X537195Y55257D01*
X537200Y55251D01*
X538100Y55251D01*
X538115Y55262D01*
G37*
G36*
X576818Y55265D02*
X576818Y55265D01*
X576831Y55262D01*
X577331Y55662D01*
X577335Y55677D01*
X577340Y55681D01*
X577337Y55685D01*
X577337Y55687D01*
X577349Y55693D01*
X577449Y56393D01*
X577442Y56406D01*
X577447Y56414D01*
X577247Y57114D01*
X577227Y57129D01*
X577225Y57142D01*
X576725Y57442D01*
X576711Y57441D01*
X576707Y57449D01*
X576035Y57545D01*
X575849Y58009D01*
X575849Y59296D01*
X575941Y59844D01*
X576593Y59751D01*
X576603Y59757D01*
X576608Y59751D01*
X577208Y59851D01*
X577220Y59863D01*
X577230Y59861D01*
X577630Y60161D01*
X577637Y60188D01*
X577649Y60195D01*
X577749Y61095D01*
X577744Y61102D01*
X577749Y61107D01*
X577649Y61807D01*
X577627Y61829D01*
X577625Y61842D01*
X577125Y62142D01*
X577110Y62141D01*
X577106Y62146D01*
X577103Y62146D01*
X577100Y62149D01*
X576500Y62149D01*
X576496Y62146D01*
X576493Y62149D01*
X575849Y62057D01*
X575849Y63400D01*
X575846Y63405D01*
X575849Y63408D01*
X575749Y64008D01*
X575730Y64025D01*
X575731Y64038D01*
X575231Y64438D01*
X575212Y64439D01*
X575206Y64449D01*
X574406Y64549D01*
X574393Y64541D01*
X574384Y64547D01*
X573784Y64347D01*
X573771Y64327D01*
X573758Y64325D01*
X573458Y63825D01*
X573460Y63807D01*
X573451Y63800D01*
X573451Y62420D01*
X573173Y62143D01*
X572584Y61947D01*
X572571Y61927D01*
X572558Y61925D01*
X572258Y61425D01*
X572258Y61421D01*
X572257Y61420D01*
X572259Y61418D01*
X572260Y61407D01*
X572251Y61400D01*
X572251Y60600D01*
X572258Y60591D01*
X572253Y60584D01*
X572453Y59984D01*
X572478Y59967D01*
X572482Y59954D01*
X573451Y59567D01*
X573451Y57500D01*
X573457Y57492D01*
X573453Y57486D01*
X573653Y56786D01*
X573654Y56785D01*
X573653Y56784D01*
X573853Y56184D01*
X573867Y56175D01*
X573865Y56165D01*
X574265Y55765D01*
X574274Y55764D01*
X574275Y55758D01*
X574775Y55458D01*
X574783Y55459D01*
X574784Y55453D01*
X575384Y55253D01*
X575395Y55257D01*
X575400Y55251D01*
X576800Y55251D01*
X576818Y55265D01*
G37*
G36*
X494721Y55267D02*
X494721Y55267D01*
X494735Y55265D01*
X495135Y55665D01*
X495136Y55677D01*
X495141Y55681D01*
X495138Y55686D01*
X495138Y55687D01*
X495149Y55693D01*
X495249Y56393D01*
X495244Y56402D01*
X495249Y56407D01*
X495149Y57107D01*
X495127Y57129D01*
X495125Y57142D01*
X494625Y57442D01*
X494611Y57441D01*
X494607Y57449D01*
X493930Y57545D01*
X493649Y58014D01*
X493649Y59296D01*
X493741Y59844D01*
X494393Y59751D01*
X494402Y59756D01*
X494407Y59751D01*
X495107Y59851D01*
X495119Y59864D01*
X495130Y59861D01*
X495530Y60161D01*
X495537Y60188D01*
X495549Y60195D01*
X495649Y61095D01*
X495642Y61106D01*
X495647Y61114D01*
X495447Y61814D01*
X495427Y61829D01*
X495425Y61842D01*
X494925Y62142D01*
X494910Y62141D01*
X494906Y62146D01*
X494903Y62146D01*
X494900Y62149D01*
X494300Y62149D01*
X494296Y62146D01*
X494293Y62149D01*
X493649Y62057D01*
X493649Y63400D01*
X493646Y63405D01*
X493649Y63408D01*
X493549Y64008D01*
X493533Y64023D01*
X493535Y64035D01*
X493135Y64435D01*
X493112Y64438D01*
X493105Y64449D01*
X492205Y64549D01*
X492192Y64541D01*
X492184Y64547D01*
X491584Y64347D01*
X491567Y64322D01*
X491554Y64318D01*
X491354Y63818D01*
X491358Y63805D01*
X491351Y63800D01*
X491351Y62420D01*
X491074Y62144D01*
X490386Y61947D01*
X490371Y61927D01*
X490363Y61921D01*
X490354Y61918D01*
X490154Y61418D01*
X490157Y61409D01*
X490151Y61406D01*
X490051Y60606D01*
X490059Y60593D01*
X490053Y60584D01*
X490253Y59984D01*
X490279Y59967D01*
X490283Y59954D01*
X491351Y59566D01*
X491351Y57500D01*
X491354Y57496D01*
X491351Y57493D01*
X491451Y56793D01*
X491456Y56788D01*
X491453Y56784D01*
X491653Y56184D01*
X491667Y56175D01*
X491665Y56165D01*
X492065Y55765D01*
X492074Y55764D01*
X492075Y55758D01*
X492575Y55458D01*
X492583Y55459D01*
X492584Y55453D01*
X493184Y55253D01*
X493195Y55257D01*
X493200Y55251D01*
X494700Y55251D01*
X494721Y55267D01*
G37*
G36*
X565321Y75267D02*
X565321Y75267D01*
X565335Y75265D01*
X565735Y75665D01*
X565736Y75677D01*
X565741Y75681D01*
X565739Y75683D01*
X565747Y75686D01*
X565947Y76386D01*
X565940Y76404D01*
X565947Y76414D01*
X565747Y77114D01*
X565727Y77129D01*
X565725Y77142D01*
X565225Y77442D01*
X565211Y77441D01*
X565207Y77449D01*
X564530Y77545D01*
X564249Y78014D01*
X564249Y79292D01*
X564434Y79845D01*
X565093Y79751D01*
X565103Y79757D01*
X565108Y79751D01*
X565708Y79851D01*
X565720Y79863D01*
X565730Y79861D01*
X566130Y80161D01*
X566137Y80188D01*
X566149Y80195D01*
X566249Y81095D01*
X566244Y81102D01*
X566249Y81107D01*
X566149Y81807D01*
X566127Y81829D01*
X566125Y81842D01*
X565625Y82142D01*
X565610Y82141D01*
X565606Y82146D01*
X565603Y82146D01*
X565600Y82149D01*
X564900Y82149D01*
X564896Y82146D01*
X564893Y82149D01*
X564249Y82057D01*
X564249Y84000D01*
X564230Y84025D01*
X564231Y84038D01*
X563731Y84438D01*
X563712Y84439D01*
X563706Y84449D01*
X562906Y84549D01*
X562894Y84542D01*
X562886Y84547D01*
X562186Y84347D01*
X562167Y84322D01*
X562154Y84318D01*
X561954Y83818D01*
X561958Y83805D01*
X561951Y83800D01*
X561951Y82420D01*
X561673Y82143D01*
X561084Y81947D01*
X561071Y81927D01*
X561058Y81925D01*
X560758Y81425D01*
X560758Y81421D01*
X560757Y81420D01*
X560759Y81418D01*
X560760Y81407D01*
X560751Y81400D01*
X560751Y80600D01*
X560758Y80591D01*
X560753Y80584D01*
X560953Y79984D01*
X560978Y79967D01*
X560982Y79954D01*
X561951Y79567D01*
X561951Y77500D01*
X561954Y77496D01*
X561951Y77493D01*
X562051Y76793D01*
X562059Y76785D01*
X562056Y76778D01*
X562356Y76178D01*
X562362Y76175D01*
X562361Y76170D01*
X562661Y75770D01*
X562674Y75767D01*
X562675Y75758D01*
X563175Y75458D01*
X563184Y75459D01*
X563186Y75453D01*
X563886Y75253D01*
X563896Y75256D01*
X563900Y75251D01*
X565300Y75251D01*
X565321Y75267D01*
G37*
G36*
X519821Y55267D02*
X519821Y55267D01*
X519835Y55265D01*
X520235Y55665D01*
X520236Y55677D01*
X520241Y55681D01*
X520238Y55686D01*
X520238Y55687D01*
X520249Y55693D01*
X520349Y56393D01*
X520344Y56402D01*
X520349Y56407D01*
X520249Y57107D01*
X520227Y57129D01*
X520225Y57142D01*
X519725Y57442D01*
X519711Y57441D01*
X519707Y57449D01*
X519030Y57545D01*
X518749Y58014D01*
X518749Y59292D01*
X518933Y59845D01*
X519492Y59751D01*
X519502Y59757D01*
X519507Y59751D01*
X520207Y59851D01*
X520219Y59864D01*
X520230Y59861D01*
X520630Y60161D01*
X520637Y60188D01*
X520649Y60195D01*
X520749Y61095D01*
X520742Y61106D01*
X520747Y61114D01*
X520547Y61814D01*
X520530Y61827D01*
X520530Y61839D01*
X520130Y62139D01*
X520110Y62139D01*
X520105Y62146D01*
X520103Y62146D01*
X520100Y62149D01*
X519400Y62149D01*
X519396Y62146D01*
X519393Y62149D01*
X518749Y62057D01*
X518749Y63400D01*
X518746Y63405D01*
X518749Y63408D01*
X518649Y64008D01*
X518633Y64023D01*
X518635Y64035D01*
X518235Y64435D01*
X518212Y64438D01*
X518206Y64449D01*
X517406Y64549D01*
X517394Y64542D01*
X517386Y64547D01*
X516686Y64347D01*
X516667Y64322D01*
X516654Y64318D01*
X516454Y63818D01*
X516458Y63805D01*
X516451Y63800D01*
X516451Y62420D01*
X516173Y62143D01*
X515584Y61947D01*
X515571Y61927D01*
X515558Y61925D01*
X515258Y61425D01*
X515258Y61421D01*
X515257Y61420D01*
X515259Y61418D01*
X515260Y61407D01*
X515251Y61400D01*
X515251Y60600D01*
X515254Y60595D01*
X515251Y60592D01*
X515351Y59992D01*
X515380Y59965D01*
X515383Y59954D01*
X516451Y59566D01*
X516451Y57500D01*
X516454Y57496D01*
X516451Y57493D01*
X516551Y56793D01*
X516559Y56785D01*
X516556Y56778D01*
X516856Y56178D01*
X516862Y56175D01*
X516861Y56170D01*
X517161Y55770D01*
X517174Y55767D01*
X517175Y55758D01*
X517675Y55458D01*
X517684Y55459D01*
X517686Y55453D01*
X518386Y55253D01*
X518396Y55256D01*
X518400Y55251D01*
X519800Y55251D01*
X519821Y55267D01*
G37*
G36*
X548004Y75254D02*
X548004Y75254D01*
X548007Y75251D01*
X548707Y75351D01*
X548715Y75359D01*
X548722Y75356D01*
X549322Y75656D01*
X549326Y75664D01*
X549332Y75662D01*
X549932Y76162D01*
X549935Y76179D01*
X549946Y76182D01*
X550146Y76682D01*
X550138Y76710D01*
X550144Y76722D01*
X549844Y77322D01*
X549837Y77326D01*
X549838Y77332D01*
X549338Y77932D01*
X549321Y77935D01*
X549318Y77946D01*
X548818Y78146D01*
X548790Y78138D01*
X548778Y78144D01*
X548182Y77846D01*
X547497Y77650D01*
X546924Y77746D01*
X546449Y78220D01*
X546449Y78892D01*
X546641Y79468D01*
X547215Y79851D01*
X547790Y79851D01*
X548481Y79555D01*
X548482Y79555D01*
X548482Y79554D01*
X548982Y79354D01*
X549013Y79363D01*
X549025Y79358D01*
X549525Y79658D01*
X549531Y79671D01*
X549540Y79671D01*
X550040Y80371D01*
X550040Y80387D01*
X550049Y80392D01*
X550149Y80992D01*
X550135Y81018D01*
X550138Y81031D01*
X549738Y81531D01*
X549728Y81533D01*
X549727Y81541D01*
X549127Y81941D01*
X549116Y81940D01*
X549114Y81947D01*
X548414Y82147D01*
X548409Y82146D01*
X548407Y82149D01*
X547707Y82249D01*
X547702Y82246D01*
X547700Y82249D01*
X547100Y82249D01*
X547093Y82244D01*
X547091Y82244D01*
X547086Y82247D01*
X546386Y82047D01*
X546385Y82046D01*
X546384Y82047D01*
X545784Y81847D01*
X545779Y81839D01*
X545773Y81841D01*
X545173Y81441D01*
X545169Y81431D01*
X545162Y81431D01*
X544762Y80931D01*
X544761Y80927D01*
X544759Y80927D01*
X544359Y80327D01*
X544360Y80318D01*
X544353Y80316D01*
X544153Y79716D01*
X544155Y79709D01*
X544151Y79707D01*
X544051Y79007D01*
X544054Y79002D01*
X544051Y79000D01*
X544051Y78300D01*
X544054Y78296D01*
X544051Y78293D01*
X544151Y77593D01*
X544159Y77585D01*
X544156Y77578D01*
X544456Y76978D01*
X544463Y76975D01*
X544462Y76969D01*
X544862Y76469D01*
X544866Y76468D01*
X544865Y76465D01*
X545365Y75965D01*
X545372Y75964D01*
X545373Y75959D01*
X545973Y75559D01*
X545984Y75560D01*
X545986Y75553D01*
X546686Y75353D01*
X546690Y75354D01*
X546692Y75351D01*
X547292Y75251D01*
X547297Y75254D01*
X547300Y75251D01*
X548000Y75251D01*
X548004Y75254D01*
G37*
G36*
X561007Y55256D02*
X561007Y55256D01*
X561012Y55252D01*
X561412Y55352D01*
X561434Y55379D01*
X561435Y55381D01*
X561447Y55384D01*
X561647Y55984D01*
X561643Y55995D01*
X561649Y56000D01*
X561649Y56900D01*
X561640Y56913D01*
X561644Y56922D01*
X561444Y57322D01*
X561418Y57335D01*
X561414Y57347D01*
X560730Y57543D01*
X560449Y57916D01*
X560449Y64700D01*
X560438Y64715D01*
X560442Y64725D01*
X560142Y65225D01*
X560118Y65235D01*
X560114Y65247D01*
X559414Y65447D01*
X559409Y65446D01*
X559397Y65446D01*
X559394Y65449D01*
X558594Y65349D01*
X558578Y65333D01*
X558565Y65335D01*
X558165Y64935D01*
X558164Y64922D01*
X558156Y64917D01*
X558160Y64912D01*
X558151Y64907D01*
X558051Y64207D01*
X558054Y64202D01*
X558051Y64200D01*
X558051Y58100D01*
X558054Y58096D01*
X558051Y58094D01*
X558151Y57294D01*
X558152Y57293D01*
X558151Y57293D01*
X558251Y56593D01*
X558253Y56592D01*
X558252Y56590D01*
X558352Y56090D01*
X558367Y56077D01*
X558365Y56065D01*
X558765Y55665D01*
X558777Y55664D01*
X558778Y55656D01*
X559378Y55356D01*
X559390Y55358D01*
X559395Y55351D01*
X560295Y55251D01*
X560298Y55253D01*
X560300Y55251D01*
X561000Y55251D01*
X561007Y55256D01*
G37*
G36*
X524409Y55258D02*
X524409Y55258D01*
X524416Y55253D01*
X525016Y55453D01*
X525029Y55473D01*
X525042Y55475D01*
X525342Y55975D01*
X525340Y55993D01*
X525349Y56000D01*
X525349Y61500D01*
X525338Y61515D01*
X525342Y61525D01*
X525042Y62025D01*
X525014Y62037D01*
X525007Y62049D01*
X524307Y62149D01*
X524302Y62146D01*
X524297Y62146D01*
X524294Y62149D01*
X523494Y62049D01*
X523478Y62033D01*
X523465Y62035D01*
X523065Y61635D01*
X523064Y61623D01*
X523057Y61617D01*
X523062Y61610D01*
X523062Y61608D01*
X523051Y61600D01*
X523051Y55700D01*
X523067Y55679D01*
X523065Y55665D01*
X523465Y55265D01*
X523492Y55262D01*
X523500Y55251D01*
X524400Y55251D01*
X524409Y55258D01*
G37*
%LPC*%
G36*
X510700Y96740D02*
X510700Y96740D01*
X510580Y96800D01*
X510565Y96804D01*
X510552Y96813D01*
X510418Y96839D01*
X510412Y96840D01*
X510411Y96840D01*
X510410Y96840D01*
X510300Y96840D01*
X510180Y96900D01*
X510165Y96904D01*
X510152Y96913D01*
X510018Y96939D01*
X510012Y96940D01*
X510011Y96940D01*
X510010Y96940D01*
X509900Y96940D01*
X509635Y97073D01*
X509579Y97129D01*
X509547Y97149D01*
X509480Y97200D01*
X509393Y97243D01*
X509350Y97330D01*
X509326Y97359D01*
X509279Y97429D01*
X509223Y97485D01*
X509190Y97550D01*
X509190Y97660D01*
X509182Y97697D01*
X509171Y97780D01*
X509090Y98022D01*
X509090Y98370D01*
X509150Y98490D01*
X509154Y98505D01*
X509163Y98518D01*
X509189Y98652D01*
X509190Y98659D01*
X509190Y98660D01*
X509190Y98770D01*
X509393Y99177D01*
X509480Y99220D01*
X509509Y99244D01*
X509579Y99291D01*
X509635Y99348D01*
X509947Y99503D01*
X509980Y99520D01*
X510009Y99544D01*
X510079Y99591D01*
X510135Y99648D01*
X510256Y99708D01*
X510472Y99780D01*
X510610Y99780D01*
X510625Y99783D01*
X510640Y99781D01*
X510772Y99818D01*
X510779Y99819D01*
X510779Y99820D01*
X510780Y99820D01*
X510900Y99880D01*
X511210Y99880D01*
X511247Y99888D01*
X511330Y99899D01*
X511572Y99980D01*
X511910Y99980D01*
X511947Y99988D01*
X512030Y99999D01*
X512272Y100080D01*
X512410Y100080D01*
X512425Y100083D01*
X512440Y100081D01*
X512572Y100118D01*
X512579Y100119D01*
X512579Y100120D01*
X512580Y100120D01*
X512700Y100180D01*
X513010Y100180D01*
X513025Y100183D01*
X513040Y100181D01*
X513172Y100218D01*
X513179Y100219D01*
X513179Y100220D01*
X513180Y100220D01*
X513268Y100264D01*
X513300Y100280D01*
X513410Y100280D01*
X513425Y100283D01*
X513440Y100281D01*
X513572Y100318D01*
X513579Y100319D01*
X513579Y100320D01*
X513580Y100320D01*
X513830Y100445D01*
X513830Y98822D01*
X513758Y98606D01*
X513670Y98430D01*
X513664Y98407D01*
X513649Y98380D01*
X513478Y97865D01*
X513341Y97729D01*
X513325Y97702D01*
X513294Y97671D01*
X513115Y97402D01*
X512968Y97256D01*
X512754Y97113D01*
X512418Y97029D01*
X512388Y97013D01*
X512340Y97000D01*
X512020Y96840D01*
X511610Y96840D01*
X511580Y96833D01*
X511535Y96833D01*
X511072Y96740D01*
X510700Y96740D01*
G37*
%LPD*%
%LPC*%
G36*
X551049Y60249D02*
X551049Y60249D01*
X551049Y62175D01*
X551416Y62451D01*
X552792Y62451D01*
X553368Y62259D01*
X553751Y61685D01*
X553751Y61017D01*
X553363Y60533D01*
X553080Y60249D01*
X551049Y60249D01*
G37*
%LPD*%
%LPC*%
G36*
X494849Y80349D02*
X494849Y80349D01*
X494849Y82275D01*
X495216Y82551D01*
X496588Y82551D01*
X497163Y82263D01*
X497451Y81688D01*
X497451Y81014D01*
X497168Y80542D01*
X496493Y80349D01*
X494849Y80349D01*
G37*
%LPD*%
%LPC*%
G36*
X474549Y60349D02*
X474549Y60349D01*
X474549Y62275D01*
X474916Y62551D01*
X476288Y62551D01*
X476863Y62263D01*
X477151Y61688D01*
X477151Y61017D01*
X476771Y60542D01*
X476192Y60349D01*
X474549Y60349D01*
G37*
%LPD*%
G36*
X524907Y63051D02*
X524907Y63051D01*
X524915Y63059D01*
X524922Y63056D01*
X525122Y63156D01*
X525132Y63177D01*
X525139Y63182D01*
X525147Y63184D01*
X525347Y63784D01*
X525343Y63795D01*
X525349Y63800D01*
X525349Y64500D01*
X525342Y64509D01*
X525347Y64516D01*
X525147Y65116D01*
X525120Y65134D01*
X525116Y65147D01*
X524516Y65347D01*
X524501Y65342D01*
X524495Y65349D01*
X523595Y65249D01*
X523584Y65239D01*
X523575Y65242D01*
X523075Y64942D01*
X523061Y64908D01*
X523051Y64900D01*
X523051Y63600D01*
X523065Y63582D01*
X523062Y63569D01*
X523462Y63069D01*
X523487Y63063D01*
X523493Y63051D01*
X524193Y62951D01*
X524202Y62956D01*
X524207Y62951D01*
X524907Y63051D01*
G37*
%LPC*%
G36*
X530217Y57649D02*
X530217Y57649D01*
X529739Y58032D01*
X529451Y58608D01*
X529547Y59280D01*
X529932Y59761D01*
X530512Y60051D01*
X531085Y60051D01*
X531659Y59668D01*
X531850Y59095D01*
X531753Y58320D01*
X531371Y57842D01*
X530792Y57649D01*
X530217Y57649D01*
G37*
%LPD*%
%LPC*%
G36*
X538312Y77649D02*
X538312Y77649D01*
X537726Y77942D01*
X537353Y78222D01*
X537448Y78885D01*
X537737Y79463D01*
X538312Y79751D01*
X538900Y79751D01*
X538933Y79776D01*
X538944Y79778D01*
X538958Y79806D01*
X538966Y79773D01*
X538965Y79765D01*
X539358Y79372D01*
X539647Y78698D01*
X539457Y78127D01*
X538980Y77649D01*
X538312Y77649D01*
G37*
%LPD*%
%LPC*%
G36*
X566712Y57649D02*
X566712Y57649D01*
X566126Y57942D01*
X565753Y58222D01*
X565848Y58885D01*
X566138Y59465D01*
X566614Y59751D01*
X567283Y59751D01*
X567757Y59371D01*
X567950Y58697D01*
X567854Y58124D01*
X567380Y57649D01*
X566712Y57649D01*
G37*
%LPD*%
%LPC*%
G36*
X484226Y59349D02*
X484226Y59349D01*
X484063Y59594D01*
X484527Y60057D01*
X485105Y60250D01*
X485763Y60156D01*
X485941Y59622D01*
X485486Y59349D01*
X484226Y59349D01*
G37*
%LPD*%
%LPC*%
G36*
X582626Y59349D02*
X582626Y59349D01*
X582463Y59594D01*
X582927Y60057D01*
X583505Y60250D01*
X584163Y60156D01*
X584341Y59622D01*
X583886Y59349D01*
X582626Y59349D01*
G37*
%LPD*%
%LPC*%
G36*
X500436Y59349D02*
X500436Y59349D01*
X500356Y59587D01*
X500827Y60057D01*
X501404Y60249D01*
X501967Y60156D01*
X502236Y59619D01*
X501786Y59349D01*
X500436Y59349D01*
G37*
%LPD*%
%LPC*%
G36*
X554826Y79349D02*
X554826Y79349D01*
X554666Y79590D01*
X555224Y80056D01*
X555804Y80249D01*
X556363Y80156D01*
X556542Y79618D01*
X556184Y79349D01*
X554826Y79349D01*
G37*
%LPD*%
M02*
