G04 EAGLE Gerber RS-274X export*
G75*
%MOMM*%
%FSLAX34Y34*%
%LPD*%
%INSilkscreen Top*%
%IPPOS*%
%AMOC8*
5,1,8,0,0,1.08239X$1,22.5*%
G01*

G36*
X520403Y323853D02*
X520403Y323853D01*
X520405Y323851D01*
X523205Y324151D01*
X524504Y324251D01*
X524510Y324257D01*
X524516Y324253D01*
X527216Y325153D01*
X527217Y325155D01*
X527218Y325154D01*
X528518Y325654D01*
X528521Y325659D01*
X528525Y325657D01*
X530925Y327057D01*
X530927Y327062D01*
X530930Y327061D01*
X533130Y328761D01*
X533131Y328766D01*
X533135Y328765D01*
X534135Y329765D01*
X534135Y329769D01*
X534138Y329769D01*
X535938Y331969D01*
X535938Y331975D01*
X535943Y331975D01*
X537343Y334375D01*
X537342Y334379D01*
X537345Y334379D01*
X537945Y335679D01*
X537944Y335684D01*
X537947Y335686D01*
X538747Y338286D01*
X538745Y338291D01*
X538749Y338293D01*
X538949Y339693D01*
X538948Y339694D01*
X538949Y339695D01*
X539249Y342495D01*
X539247Y342498D01*
X539249Y342500D01*
X539249Y392800D01*
X539248Y392802D01*
X539249Y392804D01*
X539049Y395604D01*
X539047Y395606D01*
X539049Y395607D01*
X538849Y397007D01*
X538844Y397012D01*
X538847Y397016D01*
X537947Y399716D01*
X537945Y399717D01*
X537946Y399718D01*
X537446Y401018D01*
X537442Y401020D01*
X537443Y401023D01*
X536143Y403423D01*
X536137Y403426D01*
X536138Y403431D01*
X534338Y405631D01*
X534334Y405632D01*
X534335Y405635D01*
X533335Y406635D01*
X533332Y406635D01*
X533332Y406637D01*
X531232Y408437D01*
X531225Y408438D01*
X531225Y408443D01*
X530025Y409143D01*
X530021Y409142D01*
X530021Y409145D01*
X528723Y409744D01*
X527525Y410443D01*
X527516Y410441D01*
X527514Y410447D01*
X524814Y411247D01*
X524809Y411245D01*
X524807Y411249D01*
X523407Y411449D01*
X523406Y411448D01*
X523405Y411449D01*
X520705Y411749D01*
X520702Y411747D01*
X520700Y411749D01*
X470200Y411749D01*
X470197Y411747D01*
X470195Y411749D01*
X467395Y411449D01*
X467394Y411448D01*
X467393Y411449D01*
X465993Y411249D01*
X465989Y411245D01*
X465986Y411247D01*
X463386Y410447D01*
X463384Y410445D01*
X463382Y410446D01*
X462082Y409946D01*
X462080Y409941D01*
X462076Y409943D01*
X459576Y408543D01*
X459573Y408536D01*
X459568Y408537D01*
X457468Y406737D01*
X457468Y406736D01*
X457467Y406737D01*
X456467Y405837D01*
X456466Y405831D01*
X456462Y405831D01*
X454662Y403631D01*
X454662Y403625D01*
X454657Y403625D01*
X453257Y401225D01*
X453258Y401221D01*
X453255Y401221D01*
X452655Y399921D01*
X452656Y399915D01*
X452653Y399914D01*
X451853Y397214D01*
X451855Y397209D01*
X451851Y397208D01*
X451651Y395908D01*
X451652Y395906D01*
X451651Y395905D01*
X451351Y393105D01*
X451353Y393102D01*
X451351Y393100D01*
X451351Y342700D01*
X451353Y342697D01*
X451351Y342695D01*
X451651Y339895D01*
X451652Y339893D01*
X451651Y339893D01*
X451851Y338593D01*
X451855Y338589D01*
X451853Y338586D01*
X452653Y335886D01*
X452655Y335884D01*
X452654Y335882D01*
X453154Y334582D01*
X453159Y334580D01*
X453157Y334576D01*
X454557Y332076D01*
X454564Y332073D01*
X454563Y332068D01*
X456363Y329968D01*
X456364Y329968D01*
X456363Y329967D01*
X457263Y328967D01*
X457269Y328966D01*
X457269Y328962D01*
X459469Y327162D01*
X459475Y327162D01*
X459475Y327157D01*
X461875Y325757D01*
X461879Y325758D01*
X461879Y325755D01*
X463179Y325155D01*
X463185Y325156D01*
X463186Y325153D01*
X465886Y324353D01*
X465891Y324355D01*
X465893Y324351D01*
X467193Y324151D01*
X467194Y324152D01*
X467195Y324151D01*
X469995Y323851D01*
X469998Y323853D01*
X470000Y323851D01*
X520400Y323851D01*
X520403Y323853D01*
G37*
%LPC*%
G36*
X494105Y337849D02*
X494105Y337849D01*
X489908Y338249D01*
X488613Y338548D01*
X484616Y339846D01*
X483320Y340345D01*
X479624Y342343D01*
X478429Y343040D01*
X475232Y345738D01*
X475231Y345738D01*
X474135Y346635D01*
X471439Y349930D01*
X470642Y351027D01*
X467945Y355920D01*
X466248Y361211D01*
X466049Y362606D01*
X465649Y366802D01*
X465649Y368197D01*
X466049Y372295D01*
X466248Y373689D01*
X467846Y379080D01*
X468543Y380275D01*
X468542Y380276D01*
X468543Y380277D01*
X470542Y383974D01*
X471339Y385070D01*
X474036Y388267D01*
X475033Y389263D01*
X478329Y391960D01*
X479425Y392658D01*
X483122Y394656D01*
X484417Y395254D01*
X488412Y396452D01*
X489808Y396751D01*
X495301Y397351D01*
X500891Y396851D01*
X502286Y396453D01*
X506284Y395253D01*
X507579Y394755D01*
X511175Y392758D01*
X512371Y391960D01*
X515668Y389262D01*
X516664Y388366D01*
X519361Y385170D01*
X520158Y384073D01*
X522855Y379181D01*
X524552Y373789D01*
X524751Y372395D01*
X525151Y368297D01*
X525151Y366902D01*
X524751Y362706D01*
X524552Y361311D01*
X522854Y356019D01*
X520258Y351127D01*
X519361Y349931D01*
X516664Y346734D01*
X515668Y345838D01*
X512471Y343140D01*
X511275Y342443D01*
X511252Y342388D01*
X511259Y342385D01*
X511256Y342378D01*
X511274Y342342D01*
X507580Y340345D01*
X506284Y339847D01*
X502286Y338647D01*
X500991Y338249D01*
X495400Y337749D01*
X494105Y337849D01*
G37*
%LPD*%
G36*
X541247Y418687D02*
X541247Y418687D01*
X541242Y418694D01*
X541249Y418700D01*
X541249Y442400D01*
X541230Y442426D01*
X541230Y442439D01*
X540430Y443039D01*
X540408Y443039D01*
X540400Y443049D01*
X449700Y443049D01*
X449653Y443013D01*
X449658Y443006D01*
X449651Y443000D01*
X449651Y419300D01*
X449670Y419274D01*
X449670Y419261D01*
X450470Y418661D01*
X450492Y418661D01*
X450500Y418651D01*
X541200Y418651D01*
X541247Y418687D01*
G37*
G36*
X496807Y141351D02*
X496807Y141351D01*
X496815Y141359D01*
X496822Y141356D01*
X498022Y141956D01*
X498028Y141968D01*
X498036Y141967D01*
X499036Y143067D01*
X499038Y143080D01*
X499046Y143082D01*
X499546Y144382D01*
X499545Y144386D01*
X499547Y144388D01*
X499544Y144393D01*
X499549Y144397D01*
X499649Y145797D01*
X506649Y274197D01*
X506647Y274201D01*
X506649Y274204D01*
X506549Y275604D01*
X506547Y275606D01*
X506549Y275607D01*
X506349Y277007D01*
X506346Y277009D01*
X506348Y277011D01*
X506048Y278311D01*
X506042Y278316D01*
X506045Y278321D01*
X505445Y279621D01*
X505440Y279623D01*
X505441Y279627D01*
X504641Y280827D01*
X504640Y280828D01*
X504640Y280829D01*
X503840Y281929D01*
X503831Y281932D01*
X503831Y281938D01*
X502731Y282838D01*
X502729Y282838D01*
X502729Y282840D01*
X501629Y283640D01*
X501625Y283640D01*
X501625Y283643D01*
X500425Y284343D01*
X500417Y284342D01*
X500414Y284347D01*
X499114Y284747D01*
X499111Y284746D01*
X499110Y284748D01*
X497710Y285048D01*
X497706Y285046D01*
X497704Y285049D01*
X496304Y285149D01*
X496299Y285146D01*
X496297Y285149D01*
X494897Y285049D01*
X494894Y285047D01*
X494893Y285049D01*
X493493Y284849D01*
X493487Y284843D01*
X493482Y284846D01*
X492182Y284346D01*
X492180Y284343D01*
X492178Y284344D01*
X490978Y283744D01*
X490976Y283740D01*
X490973Y283741D01*
X489773Y282941D01*
X489771Y282936D01*
X489767Y282937D01*
X488767Y282037D01*
X488766Y282031D01*
X488762Y282031D01*
X487862Y280931D01*
X487862Y280929D01*
X487860Y280929D01*
X487060Y279829D01*
X487060Y279822D01*
X487055Y279821D01*
X486455Y278521D01*
X486456Y278516D01*
X486453Y278514D01*
X486053Y277214D01*
X486055Y277209D01*
X486051Y277207D01*
X485851Y275807D01*
X485853Y275805D01*
X485851Y275804D01*
X485751Y274404D01*
X485752Y274401D01*
X485751Y274400D01*
X485751Y273000D01*
X485752Y272999D01*
X485751Y272998D01*
X491351Y145898D01*
X491351Y145897D01*
X491451Y144497D01*
X491458Y144489D01*
X491454Y144482D01*
X491954Y143182D01*
X491962Y143177D01*
X491960Y143171D01*
X492760Y142071D01*
X492777Y142066D01*
X492779Y142055D01*
X494079Y141455D01*
X494087Y141457D01*
X494089Y141452D01*
X495389Y141152D01*
X495401Y141157D01*
X495407Y141151D01*
X496807Y141351D01*
G37*
G36*
X480315Y253262D02*
X480315Y253262D01*
X480326Y253258D01*
X481126Y253758D01*
X481134Y253778D01*
X481135Y253779D01*
X481135Y253780D01*
X481140Y253795D01*
X481149Y253802D01*
X480249Y273401D01*
X480249Y274798D01*
X480349Y276195D01*
X480549Y277591D01*
X480848Y278988D01*
X481247Y280284D01*
X481745Y281579D01*
X482442Y282774D01*
X483240Y283971D01*
X484038Y285068D01*
X485034Y286064D01*
X486032Y286962D01*
X487128Y287859D01*
X488324Y288557D01*
X489621Y289255D01*
X490916Y289754D01*
X492212Y290152D01*
X493607Y290451D01*
X495004Y290551D01*
X496300Y290651D01*
X497695Y290551D01*
X499091Y290352D01*
X500488Y290052D01*
X501782Y289654D01*
X503078Y289056D01*
X504275Y288457D01*
X505471Y287660D01*
X506568Y286762D01*
X507565Y285865D01*
X508562Y284769D01*
X509359Y283673D01*
X510057Y282475D01*
X510755Y281279D01*
X511253Y279984D01*
X511652Y278588D01*
X511951Y277293D01*
X512051Y275897D01*
X512151Y274500D01*
X512051Y273104D01*
X512051Y273103D01*
X510951Y253503D01*
X510984Y253453D01*
X510989Y253457D01*
X510992Y253451D01*
X512192Y253251D01*
X512197Y253254D01*
X512200Y253251D01*
X523400Y253251D01*
X523412Y253260D01*
X523421Y253255D01*
X524721Y253855D01*
X524730Y253874D01*
X524743Y253875D01*
X525443Y255075D01*
X525441Y255091D01*
X525449Y255096D01*
X525549Y256396D01*
X525548Y256399D01*
X525549Y256400D01*
X525549Y297000D01*
X525546Y297004D01*
X525549Y297007D01*
X525349Y298407D01*
X525335Y298420D01*
X525338Y298431D01*
X524438Y299531D01*
X524416Y299536D01*
X524411Y299548D01*
X523111Y299848D01*
X523104Y299845D01*
X523100Y299849D01*
X467100Y299849D01*
X467089Y299841D01*
X467084Y299841D01*
X467078Y299844D01*
X465878Y299244D01*
X465869Y299226D01*
X465857Y299225D01*
X465157Y298025D01*
X465159Y298009D01*
X465151Y298004D01*
X465051Y296604D01*
X465052Y296601D01*
X465051Y296600D01*
X465051Y256000D01*
X465055Y255994D01*
X465052Y255990D01*
X465352Y254590D01*
X465366Y254578D01*
X465363Y254567D01*
X466263Y253567D01*
X466284Y253563D01*
X466290Y253552D01*
X467690Y253252D01*
X467697Y253255D01*
X467700Y253251D01*
X480300Y253251D01*
X480315Y253262D01*
G37*
G36*
X590107Y169358D02*
X590107Y169358D01*
X590114Y169353D01*
X591414Y169753D01*
X591422Y169764D01*
X591431Y169762D01*
X592531Y170662D01*
X592533Y170671D01*
X592540Y170671D01*
X593340Y171771D01*
X593340Y171783D01*
X593347Y171786D01*
X593747Y173086D01*
X593743Y173098D01*
X593749Y173104D01*
X593649Y174504D01*
X593641Y174513D01*
X593645Y174521D01*
X593045Y175821D01*
X593039Y175824D01*
X593041Y175828D01*
X531341Y265928D01*
X531336Y265929D01*
X531336Y265934D01*
X531326Y265933D01*
X531284Y265947D01*
X531278Y265928D01*
X531258Y265925D01*
X530958Y265425D01*
X530960Y265407D01*
X530953Y265402D01*
X530953Y265401D01*
X530951Y265400D01*
X530951Y255602D01*
X530851Y254209D01*
X530454Y252918D01*
X529857Y251625D01*
X529063Y250533D01*
X528070Y249639D01*
X526876Y248843D01*
X525584Y248247D01*
X524291Y247948D01*
X522893Y247749D01*
X522871Y247727D01*
X522858Y247725D01*
X522558Y247225D01*
X522563Y247173D01*
X522562Y247168D01*
X586362Y170968D01*
X586369Y170967D01*
X586369Y170962D01*
X587469Y170062D01*
X587477Y170062D01*
X587478Y170056D01*
X588678Y169456D01*
X588692Y169458D01*
X588697Y169451D01*
X590097Y169351D01*
X590107Y169358D01*
G37*
G36*
X402107Y169551D02*
X402107Y169551D01*
X402115Y169559D01*
X402122Y169556D01*
X403322Y170156D01*
X403326Y170165D01*
X403333Y170163D01*
X404333Y171063D01*
X404334Y171069D01*
X404338Y171068D01*
X468238Y247368D01*
X468238Y247369D01*
X468238Y247371D01*
X468241Y247428D01*
X468224Y247429D01*
X468219Y247445D01*
X467519Y247745D01*
X467510Y247743D01*
X467507Y247749D01*
X466111Y247948D01*
X464818Y248346D01*
X463525Y248943D01*
X462432Y249738D01*
X461438Y250732D01*
X460643Y251825D01*
X460047Y253116D01*
X459749Y254407D01*
X459649Y255802D01*
X459649Y265600D01*
X459624Y265633D01*
X459622Y265644D01*
X459222Y265844D01*
X459164Y265833D01*
X459164Y265828D01*
X459159Y265828D01*
X398260Y176729D01*
X397460Y175629D01*
X397460Y175622D01*
X397457Y175619D01*
X397454Y175618D01*
X396954Y174318D01*
X396957Y174307D01*
X396951Y174304D01*
X396851Y172904D01*
X396858Y172893D01*
X396853Y172886D01*
X397253Y171586D01*
X397264Y171578D01*
X397262Y171569D01*
X398162Y170469D01*
X398172Y170466D01*
X398173Y170459D01*
X399373Y169659D01*
X399385Y169660D01*
X399389Y169652D01*
X400689Y169352D01*
X400701Y169357D01*
X400707Y169351D01*
X402107Y169551D01*
G37*
G36*
X587614Y9707D02*
X587614Y9707D01*
X587684Y9713D01*
X587699Y9722D01*
X587716Y9725D01*
X587822Y9797D01*
X587832Y9803D01*
X587833Y9805D01*
X587834Y9806D01*
X590134Y12106D01*
X590142Y12119D01*
X590143Y12120D01*
X590145Y12122D01*
X590147Y12126D01*
X590166Y12142D01*
X590192Y12199D01*
X590225Y12253D01*
X590228Y12277D01*
X590238Y12300D01*
X590236Y12362D01*
X590242Y12425D01*
X590233Y12448D01*
X590232Y12473D01*
X590192Y12555D01*
X590180Y12586D01*
X590174Y12592D01*
X590169Y12601D01*
X588224Y15195D01*
X588234Y15206D01*
X588253Y15236D01*
X588305Y15304D01*
X588405Y15504D01*
X588409Y15520D01*
X588418Y15533D01*
X588444Y15667D01*
X588445Y15672D01*
X588445Y15673D01*
X588445Y15674D01*
X588445Y15684D01*
X588478Y15749D01*
X588534Y15806D01*
X588553Y15836D01*
X588605Y15904D01*
X588705Y16104D01*
X588709Y16120D01*
X588718Y16133D01*
X588744Y16267D01*
X588745Y16272D01*
X588745Y16273D01*
X588745Y16274D01*
X588745Y16284D01*
X588905Y16604D01*
X588909Y16620D01*
X588918Y16633D01*
X588944Y16767D01*
X588945Y16772D01*
X588945Y16773D01*
X588945Y16774D01*
X588945Y16784D01*
X589005Y16904D01*
X589009Y16920D01*
X589018Y16933D01*
X589044Y17067D01*
X589045Y17072D01*
X589045Y17073D01*
X589045Y17074D01*
X589045Y17084D01*
X589105Y17204D01*
X589109Y17220D01*
X589118Y17233D01*
X589138Y17336D01*
X592430Y17900D01*
X592448Y17907D01*
X592467Y17908D01*
X592527Y17941D01*
X592589Y17967D01*
X592602Y17982D01*
X592619Y17991D01*
X592658Y18047D01*
X592702Y18098D01*
X592707Y18117D01*
X592718Y18133D01*
X592740Y18244D01*
X592745Y18266D01*
X592744Y18270D01*
X592745Y18274D01*
X592745Y21474D01*
X592741Y21493D01*
X592743Y21514D01*
X592732Y21546D01*
X592731Y21553D01*
X592726Y21562D01*
X592721Y21577D01*
X592706Y21642D01*
X592693Y21658D01*
X592686Y21677D01*
X592638Y21724D01*
X592596Y21776D01*
X592577Y21784D01*
X592563Y21798D01*
X592461Y21836D01*
X592438Y21846D01*
X592433Y21846D01*
X592428Y21848D01*
X589145Y22395D01*
X589145Y22474D01*
X589128Y22548D01*
X589114Y22623D01*
X589108Y22633D01*
X589106Y22642D01*
X589083Y22670D01*
X589045Y22725D01*
X589045Y22774D01*
X589028Y22848D01*
X589014Y22923D01*
X589008Y22933D01*
X589006Y22942D01*
X588983Y22970D01*
X588934Y23042D01*
X588878Y23098D01*
X588845Y23163D01*
X588845Y23274D01*
X588828Y23348D01*
X588814Y23423D01*
X588808Y23433D01*
X588806Y23442D01*
X588783Y23470D01*
X588745Y23525D01*
X588745Y23574D01*
X588728Y23648D01*
X588714Y23723D01*
X588708Y23733D01*
X588706Y23742D01*
X588683Y23770D01*
X588634Y23842D01*
X588578Y23898D01*
X588505Y24043D01*
X588482Y24071D01*
X588445Y24125D01*
X588445Y24174D01*
X588428Y24248D01*
X588414Y24323D01*
X588408Y24333D01*
X588406Y24342D01*
X588383Y24370D01*
X588334Y24442D01*
X588278Y24498D01*
X588238Y24578D01*
X590173Y27251D01*
X590183Y27275D01*
X590200Y27294D01*
X590216Y27354D01*
X590240Y27411D01*
X590238Y27436D01*
X590245Y27461D01*
X590233Y27522D01*
X590229Y27584D01*
X590216Y27606D01*
X590211Y27631D01*
X590160Y27703D01*
X590142Y27733D01*
X590135Y27738D01*
X590128Y27748D01*
X587828Y29948D01*
X587817Y29954D01*
X587809Y29965D01*
X587743Y29998D01*
X587679Y30036D01*
X587666Y30037D01*
X587655Y30042D01*
X587581Y30043D01*
X587507Y30048D01*
X587495Y30043D01*
X587482Y30043D01*
X587351Y29986D01*
X584677Y28142D01*
X584536Y28213D01*
X584520Y28217D01*
X584507Y28226D01*
X584373Y28252D01*
X584367Y28253D01*
X584366Y28253D01*
X584356Y28253D01*
X584291Y28285D01*
X584234Y28342D01*
X584204Y28361D01*
X584136Y28413D01*
X583936Y28513D01*
X583920Y28517D01*
X583907Y28526D01*
X583773Y28552D01*
X583767Y28553D01*
X583766Y28553D01*
X583756Y28553D01*
X583691Y28585D01*
X583634Y28642D01*
X583569Y28682D01*
X583507Y28726D01*
X583495Y28728D01*
X583487Y28733D01*
X583452Y28736D01*
X583366Y28753D01*
X583256Y28753D01*
X583136Y28813D01*
X583120Y28817D01*
X583107Y28826D01*
X582973Y28852D01*
X582967Y28853D01*
X582966Y28853D01*
X582956Y28853D01*
X582836Y28913D01*
X582820Y28917D01*
X582807Y28926D01*
X582673Y28952D01*
X582667Y28953D01*
X582666Y28953D01*
X582656Y28953D01*
X582536Y29013D01*
X582520Y29017D01*
X582507Y29026D01*
X582490Y29029D01*
X581940Y32238D01*
X581932Y32256D01*
X581931Y32275D01*
X581899Y32334D01*
X581872Y32397D01*
X581858Y32410D01*
X581848Y32427D01*
X581793Y32466D01*
X581741Y32510D01*
X581722Y32515D01*
X581707Y32526D01*
X581596Y32547D01*
X581574Y32553D01*
X581570Y32552D01*
X581566Y32553D01*
X578366Y32553D01*
X578347Y32549D01*
X578328Y32551D01*
X578264Y32529D01*
X578198Y32513D01*
X578183Y32501D01*
X578164Y32495D01*
X578117Y32447D01*
X578064Y32403D01*
X578056Y32386D01*
X578043Y32372D01*
X578003Y32266D01*
X577994Y32245D01*
X577994Y32242D01*
X577992Y32238D01*
X577434Y28982D01*
X577376Y28953D01*
X577266Y28953D01*
X577192Y28936D01*
X577116Y28922D01*
X577107Y28916D01*
X577098Y28913D01*
X577070Y28891D01*
X577014Y28853D01*
X576966Y28853D01*
X576950Y28849D01*
X576934Y28852D01*
X576803Y28815D01*
X576798Y28813D01*
X576797Y28813D01*
X576796Y28813D01*
X576676Y28753D01*
X576666Y28753D01*
X576650Y28749D01*
X576634Y28752D01*
X576503Y28715D01*
X576498Y28713D01*
X576497Y28713D01*
X576496Y28713D01*
X576296Y28613D01*
X576269Y28590D01*
X576214Y28553D01*
X576166Y28553D01*
X576092Y28536D01*
X576016Y28522D01*
X576007Y28516D01*
X575998Y28513D01*
X575970Y28491D01*
X575898Y28442D01*
X575841Y28385D01*
X575696Y28313D01*
X575669Y28290D01*
X575614Y28253D01*
X575566Y28253D01*
X575492Y28236D01*
X575416Y28222D01*
X575407Y28216D01*
X575398Y28213D01*
X575370Y28191D01*
X575298Y28142D01*
X575280Y28124D01*
X572581Y29986D01*
X572565Y29992D01*
X572553Y30004D01*
X572486Y30023D01*
X572420Y30049D01*
X572403Y30048D01*
X572387Y30052D01*
X572318Y30040D01*
X572248Y30034D01*
X572233Y30025D01*
X572216Y30022D01*
X572110Y29950D01*
X572100Y29944D01*
X572099Y29943D01*
X572098Y29942D01*
X569898Y27742D01*
X569889Y27727D01*
X569875Y27717D01*
X569844Y27654D01*
X569807Y27595D01*
X569805Y27578D01*
X569797Y27563D01*
X569797Y27492D01*
X569790Y27423D01*
X569796Y27407D01*
X569796Y27389D01*
X569848Y27272D01*
X569852Y27261D01*
X569853Y27260D01*
X569854Y27258D01*
X571705Y24575D01*
X571703Y24560D01*
X571687Y24474D01*
X571687Y24424D01*
X571679Y24411D01*
X571627Y24343D01*
X571554Y24198D01*
X571498Y24142D01*
X571458Y24077D01*
X571414Y24014D01*
X571412Y24003D01*
X571407Y23995D01*
X571403Y23960D01*
X571387Y23874D01*
X571387Y23824D01*
X571379Y23811D01*
X571327Y23743D01*
X571227Y23543D01*
X571223Y23528D01*
X571214Y23514D01*
X571197Y23427D01*
X571194Y23419D01*
X571194Y23411D01*
X571188Y23380D01*
X571187Y23375D01*
X571187Y23374D01*
X571187Y23363D01*
X571027Y23043D01*
X571023Y23028D01*
X571014Y23014D01*
X570988Y22880D01*
X570987Y22875D01*
X570987Y22874D01*
X570987Y22863D01*
X570927Y22743D01*
X570923Y22728D01*
X570914Y22714D01*
X570905Y22669D01*
X570901Y22661D01*
X570902Y22651D01*
X570888Y22580D01*
X570887Y22575D01*
X570887Y22574D01*
X570887Y22563D01*
X570827Y22443D01*
X570823Y22428D01*
X570814Y22414D01*
X570811Y22398D01*
X567602Y21848D01*
X567584Y21840D01*
X567565Y21839D01*
X567505Y21807D01*
X567443Y21780D01*
X567430Y21765D01*
X567413Y21756D01*
X567374Y21701D01*
X567330Y21649D01*
X567325Y21630D01*
X567314Y21614D01*
X567298Y21533D01*
X567294Y21523D01*
X567294Y21512D01*
X567292Y21503D01*
X567287Y21481D01*
X567288Y21478D01*
X567287Y21474D01*
X567287Y18274D01*
X567291Y18255D01*
X567289Y18236D01*
X567311Y18171D01*
X567326Y18105D01*
X567339Y18090D01*
X567345Y18072D01*
X567393Y18024D01*
X567436Y17972D01*
X567454Y17964D01*
X567468Y17950D01*
X567574Y17910D01*
X567594Y17901D01*
X567598Y17901D01*
X567602Y17900D01*
X570858Y17342D01*
X570887Y17284D01*
X570887Y17174D01*
X570904Y17099D01*
X570918Y17024D01*
X570924Y17014D01*
X570926Y17005D01*
X570949Y16978D01*
X570987Y16922D01*
X570987Y16874D01*
X571000Y16818D01*
X571001Y16799D01*
X571006Y16789D01*
X571018Y16724D01*
X571024Y16714D01*
X571026Y16705D01*
X571049Y16678D01*
X571098Y16606D01*
X571154Y16549D01*
X571187Y16484D01*
X571187Y16374D01*
X571204Y16299D01*
X571218Y16224D01*
X571224Y16214D01*
X571226Y16205D01*
X571249Y16178D01*
X571287Y16122D01*
X571287Y16074D01*
X571304Y15999D01*
X571318Y15924D01*
X571324Y15914D01*
X571326Y15905D01*
X571349Y15878D01*
X571398Y15806D01*
X571454Y15749D01*
X571527Y15604D01*
X571550Y15576D01*
X571593Y15513D01*
X571595Y15509D01*
X571596Y15509D01*
X571598Y15506D01*
X571654Y15449D01*
X571687Y15384D01*
X571687Y15374D01*
X571690Y15358D01*
X571688Y15342D01*
X571700Y15300D01*
X571701Y15282D01*
X571710Y15265D01*
X571725Y15211D01*
X571725Y15209D01*
X569857Y12594D01*
X569851Y12579D01*
X569840Y12568D01*
X569819Y12500D01*
X569792Y12434D01*
X569793Y12418D01*
X569788Y12403D01*
X569799Y12333D01*
X569804Y12261D01*
X569812Y12248D01*
X569814Y12232D01*
X569889Y12116D01*
X569891Y12112D01*
X569892Y12112D01*
X572092Y9812D01*
X572110Y9800D01*
X572123Y9783D01*
X572182Y9753D01*
X572237Y9717D01*
X572258Y9715D01*
X572277Y9705D01*
X572343Y9705D01*
X572409Y9697D01*
X572429Y9704D01*
X572450Y9704D01*
X572545Y9746D01*
X572572Y9755D01*
X572575Y9759D01*
X572581Y9761D01*
X575302Y11638D01*
X575325Y11621D01*
X575337Y11619D01*
X575345Y11614D01*
X575380Y11611D01*
X575395Y11608D01*
X575398Y11606D01*
X575463Y11565D01*
X575525Y11521D01*
X575537Y11519D01*
X575545Y11514D01*
X575580Y11511D01*
X575595Y11508D01*
X575598Y11506D01*
X575663Y11465D01*
X575725Y11421D01*
X575737Y11419D01*
X575745Y11414D01*
X575780Y11411D01*
X575795Y11408D01*
X575798Y11406D01*
X575863Y11365D01*
X575925Y11321D01*
X575937Y11319D01*
X575945Y11314D01*
X575980Y11311D01*
X575995Y11308D01*
X575998Y11306D01*
X576063Y11265D01*
X576125Y11221D01*
X576137Y11219D01*
X576145Y11214D01*
X576180Y11211D01*
X576195Y11208D01*
X576198Y11206D01*
X576263Y11165D01*
X576325Y11121D01*
X576337Y11119D01*
X576345Y11114D01*
X576380Y11111D01*
X576466Y11094D01*
X576516Y11094D01*
X576537Y11081D01*
X576570Y11049D01*
X576609Y11036D01*
X576645Y11014D01*
X576690Y11010D01*
X576734Y10996D01*
X576776Y11002D01*
X576817Y10998D01*
X576860Y11014D01*
X576905Y11021D01*
X576940Y11045D01*
X576979Y11060D01*
X577010Y11093D01*
X577047Y11120D01*
X577073Y11162D01*
X577096Y11187D01*
X577103Y11212D01*
X577122Y11242D01*
X579122Y16642D01*
X579129Y16699D01*
X579145Y16754D01*
X579139Y16784D01*
X579143Y16814D01*
X579124Y16868D01*
X579114Y16925D01*
X579096Y16949D01*
X579086Y16977D01*
X579045Y17017D01*
X579011Y17063D01*
X578981Y17080D01*
X578962Y17098D01*
X578930Y17108D01*
X578886Y17133D01*
X578612Y17225D01*
X578291Y17385D01*
X578134Y17542D01*
X578104Y17561D01*
X578036Y17613D01*
X577891Y17685D01*
X577778Y17798D01*
X577705Y17943D01*
X577682Y17971D01*
X577634Y18042D01*
X577478Y18198D01*
X577317Y18519D01*
X577226Y18794D01*
X577214Y18813D01*
X577205Y18843D01*
X577045Y19163D01*
X577045Y19374D01*
X577037Y19409D01*
X577026Y19494D01*
X576945Y19735D01*
X576945Y20212D01*
X577310Y21306D01*
X577661Y21832D01*
X577808Y21979D01*
X578076Y22158D01*
X578098Y22181D01*
X578134Y22206D01*
X578308Y22379D01*
X578534Y22530D01*
X578786Y22614D01*
X578804Y22625D01*
X578818Y22628D01*
X578831Y22639D01*
X578876Y22658D01*
X579081Y22794D01*
X579266Y22794D01*
X579301Y22803D01*
X579358Y22806D01*
X579713Y22894D01*
X580304Y22894D01*
X580546Y22814D01*
X580582Y22811D01*
X580666Y22794D01*
X580851Y22794D01*
X581056Y22658D01*
X581091Y22645D01*
X581140Y22617D01*
X581142Y22616D01*
X581143Y22616D01*
X581146Y22614D01*
X581398Y22530D01*
X581925Y22179D01*
X582271Y21832D01*
X582622Y21306D01*
X582706Y21054D01*
X582726Y21022D01*
X582750Y20963D01*
X582887Y20759D01*
X582887Y20574D01*
X582895Y20539D01*
X582906Y20454D01*
X582987Y20212D01*
X582987Y19435D01*
X582906Y19194D01*
X582903Y19158D01*
X582887Y19074D01*
X582887Y18963D01*
X582827Y18843D01*
X582821Y18821D01*
X582806Y18794D01*
X582715Y18519D01*
X582654Y18398D01*
X582498Y18242D01*
X582479Y18211D01*
X582427Y18143D01*
X582354Y17998D01*
X582041Y17685D01*
X581896Y17613D01*
X581869Y17590D01*
X581798Y17542D01*
X581641Y17385D01*
X581096Y17113D01*
X581073Y17093D01*
X581044Y17081D01*
X581007Y17038D01*
X580963Y17002D01*
X580951Y16974D01*
X580931Y16951D01*
X580916Y16896D01*
X580893Y16844D01*
X580895Y16813D01*
X580887Y16783D01*
X580899Y16709D01*
X580901Y16671D01*
X580908Y16659D01*
X580910Y16642D01*
X582910Y11242D01*
X582922Y11225D01*
X582926Y11205D01*
X582969Y11154D01*
X583006Y11098D01*
X583024Y11087D01*
X583036Y11072D01*
X583098Y11045D01*
X583156Y11011D01*
X583176Y11010D01*
X583194Y11001D01*
X583261Y11004D01*
X583328Y11000D01*
X583347Y11007D01*
X583367Y11008D01*
X583426Y11040D01*
X583488Y11066D01*
X583501Y11082D01*
X583519Y11091D01*
X583532Y11110D01*
X583540Y11112D01*
X583616Y11125D01*
X583625Y11132D01*
X583634Y11134D01*
X583662Y11157D01*
X583734Y11206D01*
X583741Y11212D01*
X583816Y11225D01*
X583825Y11232D01*
X583834Y11234D01*
X583862Y11257D01*
X583934Y11306D01*
X583941Y11312D01*
X584016Y11325D01*
X584025Y11332D01*
X584034Y11334D01*
X584062Y11357D01*
X584118Y11394D01*
X584166Y11394D01*
X584240Y11412D01*
X584316Y11425D01*
X584325Y11432D01*
X584334Y11434D01*
X584362Y11457D01*
X584434Y11506D01*
X584441Y11512D01*
X584516Y11525D01*
X584525Y11532D01*
X584534Y11534D01*
X584562Y11557D01*
X584634Y11606D01*
X584652Y11623D01*
X587351Y9761D01*
X587367Y9755D01*
X587379Y9744D01*
X587447Y9724D01*
X587512Y9698D01*
X587529Y9700D01*
X587545Y9695D01*
X587614Y9707D01*
G37*
G36*
X507747Y305887D02*
X507747Y305887D01*
X507742Y305894D01*
X507749Y305900D01*
X507749Y317100D01*
X507743Y317108D01*
X507748Y317113D01*
X507448Y318213D01*
X507400Y318249D01*
X483600Y318249D01*
X483579Y318233D01*
X483565Y318235D01*
X482865Y317535D01*
X482862Y317508D01*
X482851Y317500D01*
X482851Y306300D01*
X482880Y306262D01*
X482882Y306254D01*
X483882Y305854D01*
X483895Y305858D01*
X483900Y305851D01*
X507700Y305851D01*
X507747Y305887D01*
G37*
G36*
X509036Y110886D02*
X509036Y110886D01*
X509063Y110883D01*
X509120Y110905D01*
X509179Y110919D01*
X509199Y110936D01*
X509225Y110946D01*
X509283Y111005D01*
X509312Y111029D01*
X509317Y111039D01*
X509326Y111049D01*
X509506Y111318D01*
X509779Y111591D01*
X509791Y111611D01*
X509814Y111632D01*
X510098Y112010D01*
X510579Y112491D01*
X510587Y112504D01*
X510602Y112517D01*
X511091Y113103D01*
X511679Y113691D01*
X511693Y113714D01*
X511719Y113739D01*
X512201Y114413D01*
X513479Y115691D01*
X513487Y115704D01*
X513502Y115717D01*
X513978Y116287D01*
X514928Y117047D01*
X515344Y117297D01*
X515841Y117380D01*
X517710Y117380D01*
X517736Y117386D01*
X517773Y117385D01*
X518973Y117585D01*
X518988Y117592D01*
X519010Y117593D01*
X520110Y117893D01*
X520127Y117902D01*
X520151Y117907D01*
X521151Y118307D01*
X521173Y118322D01*
X521206Y118334D01*
X522206Y118934D01*
X522226Y118954D01*
X522260Y118974D01*
X523060Y119674D01*
X523067Y119683D01*
X523079Y119691D01*
X523879Y120491D01*
X523890Y120509D01*
X523910Y120527D01*
X524610Y121427D01*
X524621Y121450D01*
X524642Y121475D01*
X525642Y123275D01*
X525652Y123310D01*
X525676Y123358D01*
X526176Y125158D01*
X526178Y125192D01*
X526190Y125239D01*
X526290Y127039D01*
X526283Y127075D01*
X526284Y127130D01*
X525984Y128730D01*
X525973Y128754D01*
X525968Y128788D01*
X525468Y130188D01*
X525452Y130213D01*
X525438Y130252D01*
X524738Y131452D01*
X524717Y131474D01*
X524694Y131513D01*
X523894Y132413D01*
X523890Y132416D01*
X523780Y132500D01*
X522980Y132900D01*
X522970Y132902D01*
X522964Y132907D01*
X522925Y132914D01*
X522882Y132933D01*
X522847Y132932D01*
X522812Y132940D01*
X522761Y132929D01*
X522709Y132927D01*
X522678Y132910D01*
X522643Y132901D01*
X522603Y132869D01*
X522557Y132844D01*
X522536Y132815D01*
X522509Y132792D01*
X522487Y132745D01*
X522457Y132702D01*
X522449Y132661D01*
X522437Y132634D01*
X522437Y132628D01*
X522437Y132626D01*
X522438Y132601D01*
X522430Y132560D01*
X522430Y131822D01*
X522291Y131404D01*
X522142Y131305D01*
X521948Y131240D01*
X521400Y131240D01*
X520701Y131590D01*
X520430Y131771D01*
X520038Y132064D01*
X520029Y132068D01*
X520021Y132076D01*
X519752Y132256D01*
X519523Y132485D01*
X519350Y132830D01*
X519337Y132846D01*
X519326Y132871D01*
X519163Y133116D01*
X519079Y133452D01*
X519073Y133464D01*
X519071Y133480D01*
X519011Y133660D01*
X519062Y133814D01*
X519150Y133990D01*
X519156Y134013D01*
X519171Y134040D01*
X519255Y134292D01*
X519390Y134495D01*
X519711Y134735D01*
X519990Y134875D01*
X520034Y134897D01*
X520485Y134987D01*
X520492Y134991D01*
X520502Y134991D01*
X520857Y135080D01*
X521048Y135080D01*
X521290Y134999D01*
X521327Y134996D01*
X521410Y134980D01*
X521710Y134980D01*
X521735Y134986D01*
X521761Y134983D01*
X521819Y135005D01*
X521879Y135019D01*
X521899Y135036D01*
X521923Y135045D01*
X521965Y135090D01*
X522012Y135129D01*
X522023Y135153D01*
X522040Y135172D01*
X522058Y135231D01*
X522083Y135288D01*
X522082Y135313D01*
X522090Y135338D01*
X522079Y135399D01*
X522077Y135461D01*
X522064Y135483D01*
X522060Y135509D01*
X522012Y135580D01*
X521994Y135613D01*
X521986Y135619D01*
X521979Y135629D01*
X521879Y135729D01*
X521859Y135741D01*
X521838Y135764D01*
X521438Y136064D01*
X521412Y136076D01*
X521380Y136100D01*
X520780Y136400D01*
X520763Y136404D01*
X520744Y136416D01*
X519944Y136716D01*
X519937Y136717D01*
X519930Y136721D01*
X519030Y137021D01*
X518993Y137024D01*
X518910Y137040D01*
X517910Y137040D01*
X517882Y137034D01*
X517842Y137034D01*
X516742Y136834D01*
X516707Y136819D01*
X516628Y136794D01*
X515528Y136194D01*
X515502Y136171D01*
X515457Y136144D01*
X514557Y135344D01*
X514538Y135316D01*
X514501Y135281D01*
X514001Y134581D01*
X513986Y134545D01*
X513949Y134480D01*
X513649Y133580D01*
X513646Y133543D01*
X513630Y133460D01*
X513630Y132660D01*
X513637Y132627D01*
X513639Y132578D01*
X513839Y131678D01*
X513856Y131642D01*
X513878Y131575D01*
X514378Y130675D01*
X514400Y130651D01*
X514424Y130610D01*
X515124Y129810D01*
X515125Y129809D01*
X515126Y129807D01*
X515924Y128909D01*
X516584Y128155D01*
X516830Y127582D01*
X516830Y127022D01*
X516671Y126545D01*
X516350Y126144D01*
X515854Y125813D01*
X515163Y125640D01*
X514448Y125640D01*
X514019Y125726D01*
X513588Y125898D01*
X513352Y126056D01*
X513123Y126285D01*
X512962Y126606D01*
X512890Y126822D01*
X512890Y126998D01*
X512955Y127192D01*
X513106Y127418D01*
X513415Y127728D01*
X513630Y127799D01*
X513650Y127812D01*
X513680Y127820D01*
X514080Y128020D01*
X514109Y128044D01*
X514179Y128091D01*
X514279Y128191D01*
X514292Y128212D01*
X514311Y128228D01*
X514337Y128285D01*
X514370Y128338D01*
X514373Y128363D01*
X514383Y128386D01*
X514381Y128449D01*
X514387Y128511D01*
X514378Y128534D01*
X514377Y128559D01*
X514347Y128614D01*
X514325Y128673D01*
X514307Y128690D01*
X514295Y128712D01*
X514225Y128766D01*
X514198Y128790D01*
X514189Y128793D01*
X514180Y128800D01*
X513980Y128900D01*
X513965Y128904D01*
X513952Y128913D01*
X513818Y128939D01*
X513812Y128940D01*
X513811Y128940D01*
X513810Y128940D01*
X513657Y128940D01*
X513302Y129029D01*
X513266Y129029D01*
X513210Y129040D01*
X512410Y129040D01*
X512384Y129034D01*
X512348Y129035D01*
X511748Y128935D01*
X511717Y128922D01*
X511669Y128913D01*
X510669Y128513D01*
X510638Y128491D01*
X510582Y128464D01*
X510198Y128176D01*
X509714Y127886D01*
X509700Y127872D01*
X509681Y127863D01*
X509611Y127786D01*
X509590Y127765D01*
X509588Y127760D01*
X509584Y127756D01*
X509284Y127256D01*
X509280Y127243D01*
X509270Y127230D01*
X508970Y126630D01*
X508964Y126607D01*
X508949Y126580D01*
X508749Y125980D01*
X508746Y125947D01*
X508732Y125902D01*
X508532Y124102D01*
X508534Y124083D01*
X508530Y124060D01*
X508530Y111260D01*
X508541Y111210D01*
X508543Y111159D01*
X508561Y111127D01*
X508569Y111091D01*
X508602Y111052D01*
X508626Y111007D01*
X508656Y110986D01*
X508679Y110958D01*
X508726Y110937D01*
X508768Y110907D01*
X508810Y110899D01*
X508838Y110887D01*
X508868Y110888D01*
X508910Y110880D01*
X509010Y110880D01*
X509036Y110886D01*
G37*
G36*
X463285Y85392D02*
X463285Y85392D01*
X463311Y85393D01*
X463365Y85423D01*
X463423Y85445D01*
X463440Y85464D01*
X463463Y85476D01*
X463498Y85527D01*
X463540Y85572D01*
X463548Y85597D01*
X463563Y85618D01*
X463579Y85702D01*
X463590Y85738D01*
X463588Y85748D01*
X463590Y85760D01*
X463590Y95001D01*
X463813Y94722D01*
X463836Y94705D01*
X463914Y94634D01*
X464914Y94034D01*
X464927Y94030D01*
X464940Y94020D01*
X465540Y93720D01*
X465578Y93711D01*
X465648Y93685D01*
X467448Y93385D01*
X467486Y93387D01*
X467560Y93383D01*
X469060Y93583D01*
X469088Y93594D01*
X469130Y93599D01*
X470330Y93999D01*
X470363Y94020D01*
X470434Y94052D01*
X471534Y94852D01*
X471551Y94872D01*
X471579Y94891D01*
X472479Y95791D01*
X472499Y95824D01*
X472544Y95878D01*
X473144Y96978D01*
X473149Y96995D01*
X473161Y97014D01*
X473661Y98214D01*
X473666Y98241D01*
X473681Y98275D01*
X473981Y99575D01*
X473980Y99600D01*
X473989Y99633D01*
X474089Y101033D01*
X474086Y101056D01*
X474089Y101085D01*
X473989Y102585D01*
X473982Y102608D01*
X473982Y102640D01*
X473682Y104040D01*
X473675Y104053D01*
X473673Y104072D01*
X473273Y105372D01*
X473254Y105405D01*
X473231Y105464D01*
X472531Y106564D01*
X472511Y106583D01*
X472493Y106614D01*
X471593Y107614D01*
X471561Y107636D01*
X471514Y107681D01*
X470414Y108381D01*
X470382Y108392D01*
X470338Y108418D01*
X468938Y108918D01*
X468899Y108922D01*
X468835Y108939D01*
X467335Y109039D01*
X467324Y109038D01*
X467310Y109040D01*
X466610Y109040D01*
X466584Y109034D01*
X466548Y109035D01*
X465348Y108835D01*
X465336Y108830D01*
X465214Y108786D01*
X464214Y108186D01*
X464198Y108171D01*
X464172Y108157D01*
X463672Y107757D01*
X463661Y107742D01*
X463641Y107729D01*
X463490Y107578D01*
X463490Y108360D01*
X463490Y108361D01*
X463490Y108362D01*
X463470Y108445D01*
X463451Y108529D01*
X463450Y108530D01*
X463450Y108531D01*
X463396Y108595D01*
X463341Y108662D01*
X463340Y108663D01*
X463339Y108664D01*
X463260Y108699D01*
X463182Y108733D01*
X463181Y108733D01*
X463180Y108734D01*
X463035Y108733D01*
X462035Y108533D01*
X462028Y108529D01*
X462018Y108529D01*
X461627Y108431D01*
X461135Y108333D01*
X461128Y108329D01*
X461118Y108329D01*
X460763Y108240D01*
X460310Y108240D01*
X460280Y108233D01*
X460235Y108233D01*
X459735Y108133D01*
X459728Y108129D01*
X459718Y108129D01*
X459318Y108029D01*
X459314Y108027D01*
X459309Y108027D01*
X459237Y107987D01*
X459164Y107950D01*
X459161Y107946D01*
X459157Y107944D01*
X459110Y107877D01*
X459061Y107810D01*
X459060Y107806D01*
X459057Y107802D01*
X459030Y107660D01*
X459030Y89160D01*
X459032Y89150D01*
X459030Y89140D01*
X459043Y89097D01*
X459043Y89082D01*
X459052Y89066D01*
X459069Y88991D01*
X459076Y88983D01*
X459079Y88974D01*
X459172Y88863D01*
X459656Y88476D01*
X460541Y87591D01*
X460557Y87581D01*
X460572Y87563D01*
X462056Y86376D01*
X462941Y85491D01*
X462963Y85478D01*
X462979Y85458D01*
X463036Y85432D01*
X463088Y85400D01*
X463114Y85397D01*
X463138Y85387D01*
X463199Y85389D01*
X463261Y85383D01*
X463285Y85392D01*
G37*
G36*
X488001Y367054D02*
X488001Y367054D01*
X488004Y367051D01*
X489304Y367151D01*
X489309Y367156D01*
X489314Y367153D01*
X490714Y367553D01*
X490718Y367558D01*
X490722Y367556D01*
X491922Y368156D01*
X491924Y368160D01*
X491927Y368159D01*
X493127Y368959D01*
X493130Y368968D01*
X493137Y368967D01*
X494037Y369967D01*
X494037Y369971D01*
X494040Y369971D01*
X494840Y371071D01*
X494840Y371078D01*
X494845Y371079D01*
X495445Y372379D01*
X495444Y372384D01*
X495447Y372386D01*
X495847Y373686D01*
X495846Y373687D01*
X495844Y373693D01*
X495849Y373697D01*
X495949Y375097D01*
X495946Y375101D01*
X495949Y375104D01*
X495849Y376504D01*
X495844Y376510D01*
X495847Y376514D01*
X495447Y377814D01*
X495442Y377818D01*
X495444Y377822D01*
X494844Y379022D01*
X494840Y379024D01*
X494841Y379027D01*
X494041Y380227D01*
X494036Y380229D01*
X494037Y380233D01*
X493137Y381233D01*
X493128Y381235D01*
X493127Y381241D01*
X491927Y382041D01*
X491920Y382041D01*
X491919Y382045D01*
X490719Y382545D01*
X490715Y382544D01*
X490714Y382547D01*
X489314Y382947D01*
X489309Y382946D01*
X489308Y382949D01*
X488008Y383149D01*
X487998Y383144D01*
X487993Y383149D01*
X486593Y382949D01*
X486589Y382945D01*
X486586Y382947D01*
X485186Y382547D01*
X485184Y382544D01*
X485181Y382545D01*
X483981Y382045D01*
X483977Y382039D01*
X483973Y382041D01*
X482773Y381241D01*
X482770Y381232D01*
X482763Y381233D01*
X481863Y380233D01*
X481863Y380228D01*
X481859Y380227D01*
X481059Y379027D01*
X481059Y379023D01*
X481056Y379022D01*
X480456Y377822D01*
X480457Y377816D01*
X480453Y377814D01*
X480053Y376514D01*
X480056Y376507D01*
X480051Y376504D01*
X479951Y375104D01*
X479954Y375099D01*
X479951Y375097D01*
X480051Y373697D01*
X480056Y373690D01*
X480053Y373686D01*
X480453Y372386D01*
X480457Y372383D01*
X480455Y372379D01*
X481055Y371079D01*
X481062Y371076D01*
X481060Y371071D01*
X481860Y369971D01*
X481864Y369970D01*
X481863Y369967D01*
X482763Y368967D01*
X482772Y368965D01*
X482773Y368959D01*
X483973Y368159D01*
X483977Y368159D01*
X483978Y368156D01*
X485178Y367556D01*
X485185Y367557D01*
X485186Y367553D01*
X486586Y367153D01*
X486594Y367155D01*
X486597Y367151D01*
X487997Y367051D01*
X488001Y367054D01*
G37*
G36*
X480347Y93388D02*
X480347Y93388D01*
X480430Y93399D01*
X480672Y93480D01*
X481010Y93480D01*
X481047Y93488D01*
X481130Y93499D01*
X481372Y93580D01*
X481610Y93580D01*
X481647Y93588D01*
X481730Y93599D01*
X482930Y93999D01*
X482963Y94019D01*
X483021Y94044D01*
X483279Y94215D01*
X483530Y94299D01*
X483563Y94319D01*
X483621Y94344D01*
X483921Y94544D01*
X483942Y94567D01*
X483979Y94591D01*
X484116Y94728D01*
X484130Y94708D01*
X484130Y94560D01*
X484147Y94486D01*
X484160Y94411D01*
X484167Y94401D01*
X484169Y94391D01*
X484193Y94362D01*
X484241Y94291D01*
X484247Y94285D01*
X484260Y94211D01*
X484267Y94201D01*
X484269Y94191D01*
X484293Y94162D01*
X484341Y94091D01*
X484342Y94090D01*
X484343Y94059D01*
X484361Y94027D01*
X484369Y93991D01*
X484402Y93952D01*
X484426Y93907D01*
X484456Y93886D01*
X484479Y93858D01*
X484526Y93837D01*
X484568Y93807D01*
X484610Y93799D01*
X484638Y93787D01*
X484668Y93788D01*
X484710Y93780D01*
X488610Y93780D01*
X488660Y93791D01*
X488711Y93793D01*
X488743Y93811D01*
X488779Y93819D01*
X488818Y93852D01*
X488863Y93876D01*
X488884Y93906D01*
X488912Y93929D01*
X488933Y93976D01*
X488963Y94018D01*
X488971Y94060D01*
X488983Y94088D01*
X488982Y94118D01*
X488990Y94160D01*
X488990Y94260D01*
X488973Y94334D01*
X488960Y94409D01*
X488953Y94419D01*
X488951Y94429D01*
X488927Y94458D01*
X488879Y94529D01*
X488823Y94585D01*
X488790Y94650D01*
X488790Y94860D01*
X488787Y94875D01*
X488789Y94890D01*
X488752Y95022D01*
X488751Y95029D01*
X488750Y95029D01*
X488750Y95030D01*
X488690Y95150D01*
X488690Y95260D01*
X488687Y95275D01*
X488689Y95290D01*
X488667Y95371D01*
X488666Y95382D01*
X488661Y95392D01*
X488652Y95422D01*
X488651Y95429D01*
X488650Y95429D01*
X488650Y95430D01*
X488590Y95550D01*
X488590Y96360D01*
X488587Y96375D01*
X488589Y96390D01*
X488552Y96522D01*
X488551Y96529D01*
X488550Y96529D01*
X488550Y96530D01*
X488490Y96650D01*
X488490Y105260D01*
X488483Y105290D01*
X488483Y105335D01*
X488383Y105835D01*
X488371Y105861D01*
X488363Y105901D01*
X488163Y106401D01*
X488155Y106413D01*
X488150Y106430D01*
X487950Y106830D01*
X487932Y106852D01*
X487914Y106888D01*
X487614Y107288D01*
X487589Y107309D01*
X487582Y107322D01*
X487567Y107333D01*
X487538Y107364D01*
X486338Y108264D01*
X486303Y108279D01*
X486251Y108313D01*
X485751Y108513D01*
X485722Y108517D01*
X485685Y108533D01*
X485219Y108626D01*
X484751Y108813D01*
X484722Y108817D01*
X484685Y108833D01*
X484185Y108933D01*
X484153Y108932D01*
X484110Y108940D01*
X483548Y108940D01*
X483085Y109033D01*
X483053Y109032D01*
X483010Y109040D01*
X480710Y109040D01*
X480680Y109033D01*
X480635Y109033D01*
X480141Y108934D01*
X479548Y108835D01*
X479524Y108825D01*
X479490Y108821D01*
X478912Y108628D01*
X478435Y108533D01*
X478409Y108521D01*
X478369Y108513D01*
X477869Y108313D01*
X477847Y108298D01*
X477814Y108286D01*
X476814Y107686D01*
X476802Y107674D01*
X476782Y107664D01*
X476382Y107364D01*
X476357Y107334D01*
X476306Y107288D01*
X476006Y106888D01*
X475999Y106872D01*
X475984Y106856D01*
X475694Y106372D01*
X475406Y105988D01*
X475391Y105954D01*
X475349Y105880D01*
X475149Y105280D01*
X475147Y105258D01*
X475139Y105240D01*
X475139Y105235D01*
X475135Y105223D01*
X474935Y104023D01*
X474940Y103941D01*
X474943Y103859D01*
X474946Y103855D01*
X474946Y103850D01*
X474987Y103779D01*
X475026Y103707D01*
X475030Y103704D01*
X475033Y103700D01*
X475101Y103654D01*
X475168Y103607D01*
X475173Y103606D01*
X475177Y103604D01*
X475205Y103600D01*
X475310Y103580D01*
X479210Y103580D01*
X479260Y103591D01*
X479311Y103593D01*
X479343Y103611D01*
X479379Y103619D01*
X479418Y103652D01*
X479463Y103676D01*
X479484Y103706D01*
X479512Y103729D01*
X479533Y103776D01*
X479563Y103818D01*
X479571Y103860D01*
X479583Y103888D01*
X479582Y103918D01*
X479590Y103960D01*
X479590Y104370D01*
X479650Y104490D01*
X479656Y104513D01*
X479671Y104540D01*
X479762Y104814D01*
X479823Y104935D01*
X480135Y105248D01*
X480815Y105587D01*
X481000Y105680D01*
X482620Y105680D01*
X482740Y105620D01*
X482755Y105616D01*
X482768Y105607D01*
X482902Y105581D01*
X482909Y105580D01*
X482910Y105580D01*
X483020Y105580D01*
X483427Y105377D01*
X483470Y105290D01*
X483494Y105261D01*
X483541Y105191D01*
X483598Y105135D01*
X483830Y104670D01*
X483830Y103787D01*
X483651Y103548D01*
X483250Y103308D01*
X482697Y103123D01*
X482031Y102933D01*
X481362Y102837D01*
X479568Y102638D01*
X478668Y102538D01*
X478647Y102530D01*
X478618Y102529D01*
X477818Y102329D01*
X477801Y102320D01*
X477777Y102316D01*
X476977Y102016D01*
X476955Y102001D01*
X476921Y101990D01*
X476221Y101590D01*
X476199Y101570D01*
X476163Y101549D01*
X475463Y100949D01*
X475443Y100922D01*
X475380Y100849D01*
X474980Y100149D01*
X474971Y100119D01*
X474949Y100080D01*
X474649Y99180D01*
X474648Y99163D01*
X474645Y99156D01*
X474645Y99151D01*
X474636Y99128D01*
X474436Y98028D01*
X474436Y98018D01*
X474437Y97885D01*
X474530Y97422D01*
X474530Y96960D01*
X474533Y96945D01*
X474531Y96930D01*
X474568Y96798D01*
X474569Y96791D01*
X474570Y96791D01*
X474570Y96790D01*
X474747Y96436D01*
X474837Y95985D01*
X474838Y95984D01*
X474838Y95983D01*
X474894Y95849D01*
X475094Y95549D01*
X475101Y95542D01*
X475106Y95532D01*
X475400Y95140D01*
X475594Y94849D01*
X475617Y94828D01*
X475641Y94791D01*
X475941Y94491D01*
X475973Y94471D01*
X476040Y94420D01*
X476419Y94231D01*
X476699Y94044D01*
X476719Y94036D01*
X476740Y94020D01*
X477140Y93820D01*
X477154Y93817D01*
X477169Y93807D01*
X477669Y93607D01*
X477691Y93604D01*
X477718Y93591D01*
X478118Y93491D01*
X478154Y93491D01*
X478210Y93480D01*
X478672Y93480D01*
X479135Y93387D01*
X479167Y93388D01*
X479210Y93380D01*
X480310Y93380D01*
X480347Y93388D01*
G37*
G36*
X504860Y93791D02*
X504860Y93791D01*
X504911Y93793D01*
X504943Y93811D01*
X504979Y93819D01*
X505018Y93852D01*
X505063Y93876D01*
X505084Y93906D01*
X505112Y93929D01*
X505133Y93976D01*
X505163Y94018D01*
X505171Y94060D01*
X505183Y94088D01*
X505182Y94118D01*
X505190Y94160D01*
X505190Y98895D01*
X506231Y99866D01*
X509887Y93960D01*
X509910Y93936D01*
X509926Y93907D01*
X509971Y93876D01*
X510009Y93837D01*
X510041Y93827D01*
X510068Y93807D01*
X510136Y93794D01*
X510173Y93782D01*
X510190Y93784D01*
X510210Y93780D01*
X514910Y93780D01*
X514982Y93797D01*
X515054Y93808D01*
X515065Y93816D01*
X515079Y93819D01*
X515135Y93866D01*
X515195Y93909D01*
X515202Y93921D01*
X515212Y93929D01*
X515242Y93997D01*
X515277Y94061D01*
X515278Y94075D01*
X515283Y94088D01*
X515280Y94161D01*
X515283Y94234D01*
X515277Y94248D01*
X515277Y94261D01*
X515258Y94295D01*
X515228Y94368D01*
X509499Y103107D01*
X514576Y108089D01*
X514591Y108112D01*
X514612Y108129D01*
X514637Y108184D01*
X514669Y108235D01*
X514672Y108262D01*
X514683Y108288D01*
X514681Y108348D01*
X514687Y108407D01*
X514678Y108433D01*
X514677Y108461D01*
X514648Y108513D01*
X514627Y108570D01*
X514607Y108589D01*
X514594Y108613D01*
X514545Y108647D01*
X514501Y108689D01*
X514475Y108697D01*
X514452Y108713D01*
X514372Y108728D01*
X514336Y108739D01*
X514324Y108738D01*
X514310Y108740D01*
X509710Y108740D01*
X509632Y108722D01*
X509554Y108707D01*
X509548Y108702D01*
X509541Y108701D01*
X509516Y108680D01*
X509436Y108623D01*
X505190Y104205D01*
X505190Y113660D01*
X505177Y113716D01*
X505173Y113773D01*
X505158Y113799D01*
X505151Y113829D01*
X505114Y113873D01*
X505085Y113923D01*
X505060Y113939D01*
X505041Y113962D01*
X504988Y113986D01*
X504940Y114017D01*
X504910Y114021D01*
X504882Y114033D01*
X504825Y114031D01*
X504768Y114038D01*
X504735Y114028D01*
X504709Y114027D01*
X504679Y114010D01*
X504630Y113995D01*
X500730Y111895D01*
X500696Y111865D01*
X500657Y111844D01*
X500632Y111809D01*
X500600Y111780D01*
X500583Y111739D01*
X500557Y111702D01*
X500548Y111652D01*
X500534Y111620D01*
X500536Y111594D01*
X500530Y111560D01*
X500530Y94160D01*
X500541Y94110D01*
X500543Y94059D01*
X500561Y94027D01*
X500569Y93991D01*
X500602Y93952D01*
X500626Y93907D01*
X500656Y93886D01*
X500679Y93858D01*
X500726Y93837D01*
X500768Y93807D01*
X500810Y93799D01*
X500838Y93787D01*
X500868Y93788D01*
X500910Y93780D01*
X504810Y93780D01*
X504860Y93791D01*
G37*
G36*
X544260Y93791D02*
X544260Y93791D01*
X544311Y93793D01*
X544343Y93811D01*
X544379Y93819D01*
X544418Y93852D01*
X544463Y93876D01*
X544484Y93906D01*
X544512Y93929D01*
X544533Y93976D01*
X544563Y94018D01*
X544571Y94060D01*
X544583Y94088D01*
X544582Y94118D01*
X544590Y94160D01*
X544590Y102539D01*
X544682Y103362D01*
X544949Y103987D01*
X545223Y104442D01*
X545564Y104869D01*
X545944Y105097D01*
X546465Y105184D01*
X547202Y105276D01*
X547741Y105186D01*
X548171Y105100D01*
X548551Y104872D01*
X548794Y104548D01*
X549047Y104126D01*
X549134Y103603D01*
X549233Y102909D01*
X549330Y102136D01*
X549330Y94160D01*
X549341Y94110D01*
X549343Y94059D01*
X549361Y94027D01*
X549369Y93991D01*
X549402Y93952D01*
X549426Y93907D01*
X549456Y93886D01*
X549479Y93858D01*
X549526Y93837D01*
X549568Y93807D01*
X549610Y93799D01*
X549638Y93787D01*
X549668Y93788D01*
X549710Y93780D01*
X553610Y93780D01*
X553660Y93791D01*
X553711Y93793D01*
X553743Y93811D01*
X553779Y93819D01*
X553818Y93852D01*
X553863Y93876D01*
X553884Y93906D01*
X553912Y93929D01*
X553933Y93976D01*
X553963Y94018D01*
X553971Y94060D01*
X553983Y94088D01*
X553982Y94118D01*
X553990Y94160D01*
X553990Y102860D01*
X553987Y102873D01*
X553989Y102889D01*
X553889Y104189D01*
X553884Y104206D01*
X553884Y104228D01*
X553684Y105328D01*
X553677Y105345D01*
X553674Y105369D01*
X553374Y106369D01*
X553355Y106402D01*
X553332Y106462D01*
X552832Y107262D01*
X552808Y107286D01*
X552779Y107329D01*
X552079Y108029D01*
X552046Y108049D01*
X551995Y108092D01*
X551095Y108592D01*
X551060Y108602D01*
X551010Y108627D01*
X549910Y108927D01*
X549879Y108928D01*
X549837Y108939D01*
X548437Y109039D01*
X548425Y109037D01*
X548410Y109040D01*
X547810Y109040D01*
X547784Y109034D01*
X547748Y109035D01*
X547148Y108935D01*
X547124Y108925D01*
X547090Y108921D01*
X545890Y108521D01*
X545857Y108501D01*
X545799Y108476D01*
X545199Y108076D01*
X545189Y108066D01*
X545172Y108057D01*
X544672Y107657D01*
X544661Y107642D01*
X544641Y107629D01*
X544390Y107378D01*
X544390Y108360D01*
X544379Y108410D01*
X544377Y108461D01*
X544359Y108493D01*
X544351Y108529D01*
X544318Y108568D01*
X544294Y108613D01*
X544264Y108634D01*
X544241Y108662D01*
X544194Y108683D01*
X544152Y108713D01*
X544110Y108721D01*
X544082Y108733D01*
X544052Y108732D01*
X544010Y108740D01*
X540310Y108740D01*
X540260Y108729D01*
X540209Y108727D01*
X540177Y108709D01*
X540141Y108701D01*
X540102Y108668D01*
X540057Y108644D01*
X540036Y108614D01*
X540008Y108591D01*
X539987Y108544D01*
X539957Y108502D01*
X539949Y108460D01*
X539937Y108432D01*
X539938Y108402D01*
X539930Y108360D01*
X539930Y94160D01*
X539941Y94110D01*
X539943Y94059D01*
X539961Y94027D01*
X539969Y93991D01*
X540002Y93952D01*
X540026Y93907D01*
X540056Y93886D01*
X540079Y93858D01*
X540126Y93837D01*
X540168Y93807D01*
X540210Y93799D01*
X540238Y93787D01*
X540268Y93788D01*
X540310Y93780D01*
X544210Y93780D01*
X544260Y93791D01*
G37*
G36*
X530118Y93386D02*
X530118Y93386D01*
X530173Y93385D01*
X530767Y93484D01*
X531464Y93584D01*
X531491Y93594D01*
X531530Y93599D01*
X532130Y93799D01*
X532139Y93805D01*
X532151Y93807D01*
X532651Y94007D01*
X532663Y94015D01*
X532680Y94020D01*
X533000Y94180D01*
X533280Y94320D01*
X533305Y94341D01*
X533348Y94363D01*
X533848Y94763D01*
X533869Y94790D01*
X533907Y94822D01*
X534130Y95101D01*
X534130Y94160D01*
X534141Y94110D01*
X534143Y94059D01*
X534161Y94027D01*
X534169Y93991D01*
X534202Y93952D01*
X534226Y93907D01*
X534256Y93886D01*
X534279Y93858D01*
X534326Y93837D01*
X534368Y93807D01*
X534410Y93799D01*
X534438Y93787D01*
X534468Y93788D01*
X534510Y93780D01*
X538210Y93780D01*
X538260Y93791D01*
X538311Y93793D01*
X538343Y93811D01*
X538379Y93819D01*
X538418Y93852D01*
X538463Y93876D01*
X538484Y93906D01*
X538512Y93929D01*
X538533Y93976D01*
X538563Y94018D01*
X538571Y94060D01*
X538583Y94088D01*
X538582Y94118D01*
X538590Y94160D01*
X538590Y108360D01*
X538579Y108410D01*
X538577Y108461D01*
X538559Y108493D01*
X538551Y108529D01*
X538518Y108568D01*
X538494Y108613D01*
X538464Y108634D01*
X538441Y108662D01*
X538394Y108683D01*
X538352Y108713D01*
X538310Y108721D01*
X538282Y108733D01*
X538252Y108732D01*
X538210Y108740D01*
X534310Y108740D01*
X534260Y108729D01*
X534209Y108727D01*
X534177Y108709D01*
X534141Y108701D01*
X534102Y108668D01*
X534057Y108644D01*
X534036Y108614D01*
X534008Y108591D01*
X533987Y108544D01*
X533957Y108502D01*
X533949Y108460D01*
X533937Y108432D01*
X533938Y108402D01*
X533930Y108360D01*
X533930Y99884D01*
X533839Y99160D01*
X533565Y98520D01*
X533298Y97985D01*
X532974Y97662D01*
X532576Y97423D01*
X532055Y97336D01*
X531318Y97244D01*
X530779Y97334D01*
X530349Y97420D01*
X529970Y97648D01*
X529470Y98314D01*
X529386Y98815D01*
X529190Y100384D01*
X529190Y108360D01*
X529179Y108410D01*
X529177Y108461D01*
X529159Y108493D01*
X529151Y108529D01*
X529118Y108568D01*
X529094Y108613D01*
X529064Y108634D01*
X529041Y108662D01*
X528994Y108683D01*
X528952Y108713D01*
X528910Y108721D01*
X528882Y108733D01*
X528852Y108732D01*
X528810Y108740D01*
X525010Y108740D01*
X524960Y108729D01*
X524909Y108727D01*
X524877Y108709D01*
X524841Y108701D01*
X524802Y108668D01*
X524757Y108644D01*
X524736Y108614D01*
X524708Y108591D01*
X524687Y108544D01*
X524657Y108502D01*
X524649Y108460D01*
X524637Y108432D01*
X524638Y108402D01*
X524630Y108360D01*
X524630Y98360D01*
X524636Y98332D01*
X524636Y98292D01*
X524836Y97192D01*
X524843Y97175D01*
X524846Y97151D01*
X525146Y96151D01*
X525162Y96122D01*
X525178Y96075D01*
X525678Y95175D01*
X525697Y95154D01*
X525763Y95071D01*
X526463Y94471D01*
X526491Y94457D01*
X526525Y94428D01*
X527425Y93928D01*
X527450Y93920D01*
X527480Y93903D01*
X528580Y93503D01*
X528619Y93498D01*
X528683Y93481D01*
X530083Y93381D01*
X530118Y93386D01*
G37*
G36*
X452542Y93481D02*
X452542Y93481D01*
X452555Y93485D01*
X452573Y93485D01*
X453773Y93685D01*
X453788Y93692D01*
X453810Y93693D01*
X454910Y93993D01*
X454938Y94008D01*
X454980Y94020D01*
X455300Y94180D01*
X455980Y94520D01*
X456009Y94544D01*
X456060Y94574D01*
X456860Y95274D01*
X456879Y95300D01*
X456914Y95332D01*
X457514Y96132D01*
X457530Y96168D01*
X457567Y96230D01*
X457967Y97330D01*
X457971Y97361D01*
X457986Y97402D01*
X458186Y98702D01*
X458183Y98740D01*
X458188Y98802D01*
X458088Y99702D01*
X458075Y99739D01*
X458060Y99810D01*
X457760Y100510D01*
X457742Y100534D01*
X457726Y100571D01*
X457326Y101171D01*
X457298Y101198D01*
X457253Y101252D01*
X456653Y101752D01*
X456628Y101765D01*
X456599Y101790D01*
X455199Y102590D01*
X455161Y102601D01*
X455093Y102631D01*
X454198Y102830D01*
X451802Y103429D01*
X451782Y103429D01*
X451757Y103437D01*
X450995Y103533D01*
X450456Y103712D01*
X449911Y103985D01*
X449582Y104232D01*
X449360Y104527D01*
X449290Y104807D01*
X449290Y105045D01*
X449554Y105441D01*
X449716Y105495D01*
X450102Y105591D01*
X450114Y105597D01*
X450130Y105599D01*
X450372Y105680D01*
X451937Y105680D01*
X452354Y105513D01*
X452719Y105331D01*
X452936Y105186D01*
X453072Y104982D01*
X453244Y104551D01*
X453337Y104085D01*
X453343Y104073D01*
X453343Y104059D01*
X453379Y103995D01*
X453409Y103928D01*
X453420Y103919D01*
X453426Y103907D01*
X453486Y103865D01*
X453543Y103818D01*
X453557Y103815D01*
X453568Y103807D01*
X453710Y103780D01*
X457410Y103780D01*
X457490Y103798D01*
X457570Y103815D01*
X457574Y103818D01*
X457579Y103819D01*
X457642Y103872D01*
X457706Y103922D01*
X457708Y103926D01*
X457712Y103929D01*
X457746Y104004D01*
X457781Y104078D01*
X457781Y104083D01*
X457783Y104088D01*
X457782Y104115D01*
X457785Y104223D01*
X457585Y105423D01*
X457570Y105459D01*
X457550Y105530D01*
X457050Y106530D01*
X457032Y106552D01*
X457014Y106588D01*
X456414Y107388D01*
X456384Y107413D01*
X456338Y107464D01*
X455538Y108064D01*
X455506Y108078D01*
X455464Y108107D01*
X454564Y108507D01*
X454544Y108511D01*
X454519Y108524D01*
X453519Y108824D01*
X453500Y108825D01*
X453478Y108834D01*
X452378Y109034D01*
X452349Y109033D01*
X452310Y109040D01*
X450010Y109040D01*
X449982Y109034D01*
X449942Y109034D01*
X448842Y108834D01*
X448839Y108833D01*
X448835Y108833D01*
X447835Y108633D01*
X447801Y108617D01*
X447740Y108600D01*
X447640Y108550D01*
X446880Y108170D01*
X446740Y108100D01*
X446712Y108077D01*
X446663Y108049D01*
X445963Y107449D01*
X445948Y107430D01*
X445924Y107410D01*
X445224Y106610D01*
X445208Y106580D01*
X445157Y106501D01*
X444757Y105501D01*
X444751Y105462D01*
X444731Y105392D01*
X444631Y104192D01*
X444636Y104161D01*
X444632Y104118D01*
X444732Y103218D01*
X444742Y103191D01*
X444743Y103166D01*
X444752Y103148D01*
X444761Y103110D01*
X445061Y102410D01*
X445078Y102387D01*
X445094Y102349D01*
X445494Y101749D01*
X445495Y101748D01*
X445496Y101746D01*
X445599Y101644D01*
X446199Y101244D01*
X446210Y101239D01*
X446221Y101230D01*
X446921Y100830D01*
X446940Y100824D01*
X446960Y100811D01*
X447660Y100511D01*
X447668Y100509D01*
X447677Y100504D01*
X448477Y100204D01*
X448500Y100201D01*
X448528Y100189D01*
X449428Y99989D01*
X449431Y99989D01*
X449435Y99987D01*
X450427Y99789D01*
X452004Y99395D01*
X452550Y99212D01*
X452998Y98944D01*
X453310Y98710D01*
X453451Y98427D01*
X453518Y98160D01*
X453367Y97554D01*
X453160Y97348D01*
X452809Y97085D01*
X452477Y96919D01*
X452163Y96840D01*
X451810Y96840D01*
X451774Y96832D01*
X451718Y96829D01*
X451394Y96748D01*
X450879Y96834D01*
X450385Y96933D01*
X450379Y96933D01*
X450373Y96935D01*
X449864Y97020D01*
X449182Y97532D01*
X448944Y97848D01*
X448790Y98233D01*
X448790Y98760D01*
X448779Y98810D01*
X448777Y98861D01*
X448759Y98893D01*
X448751Y98929D01*
X448718Y98968D01*
X448694Y99013D01*
X448664Y99034D01*
X448641Y99062D01*
X448594Y99083D01*
X448552Y99113D01*
X448510Y99121D01*
X448482Y99133D01*
X448452Y99132D01*
X448410Y99140D01*
X444710Y99140D01*
X444633Y99122D01*
X444555Y99107D01*
X444549Y99103D01*
X444541Y99101D01*
X444480Y99050D01*
X444417Y99002D01*
X444413Y98995D01*
X444408Y98991D01*
X444375Y98918D01*
X444340Y98847D01*
X444340Y98839D01*
X444337Y98832D01*
X444338Y98799D01*
X444334Y98702D01*
X444534Y97402D01*
X444547Y97370D01*
X444557Y97319D01*
X444957Y96319D01*
X444979Y96287D01*
X445010Y96227D01*
X445710Y95327D01*
X445734Y95307D01*
X445760Y95274D01*
X446560Y94574D01*
X446593Y94556D01*
X446640Y94520D01*
X447640Y94020D01*
X447670Y94013D01*
X447710Y93993D01*
X448810Y93693D01*
X448827Y93693D01*
X448848Y93685D01*
X450048Y93485D01*
X450062Y93486D01*
X450078Y93481D01*
X451278Y93381D01*
X451305Y93385D01*
X451342Y93381D01*
X452542Y93481D01*
G37*
G36*
X521160Y93791D02*
X521160Y93791D01*
X521211Y93793D01*
X521243Y93811D01*
X521279Y93819D01*
X521318Y93852D01*
X521363Y93876D01*
X521384Y93906D01*
X521412Y93929D01*
X521433Y93976D01*
X521463Y94018D01*
X521471Y94060D01*
X521483Y94088D01*
X521482Y94118D01*
X521490Y94160D01*
X521490Y105380D01*
X523810Y105380D01*
X523860Y105391D01*
X523911Y105393D01*
X523943Y105411D01*
X523979Y105419D01*
X524018Y105452D01*
X524063Y105476D01*
X524084Y105506D01*
X524112Y105529D01*
X524133Y105576D01*
X524163Y105618D01*
X524171Y105660D01*
X524183Y105688D01*
X524182Y105718D01*
X524190Y105760D01*
X524190Y108360D01*
X524179Y108410D01*
X524177Y108461D01*
X524159Y108493D01*
X524151Y108529D01*
X524118Y108568D01*
X524094Y108613D01*
X524064Y108634D01*
X524041Y108662D01*
X523994Y108683D01*
X523952Y108713D01*
X523910Y108721D01*
X523882Y108733D01*
X523852Y108732D01*
X523810Y108740D01*
X521490Y108740D01*
X521490Y109113D01*
X521579Y109468D01*
X521579Y109504D01*
X521590Y109560D01*
X521590Y109870D01*
X521640Y109969D01*
X521770Y110165D01*
X521780Y110170D01*
X522043Y110301D01*
X522357Y110380D01*
X524010Y110380D01*
X524060Y110391D01*
X524111Y110393D01*
X524143Y110411D01*
X524179Y110419D01*
X524218Y110452D01*
X524263Y110476D01*
X524284Y110506D01*
X524312Y110529D01*
X524333Y110576D01*
X524363Y110618D01*
X524371Y110660D01*
X524383Y110688D01*
X524382Y110718D01*
X524390Y110760D01*
X524390Y113560D01*
X524379Y113609D01*
X524377Y113659D01*
X524359Y113692D01*
X524351Y113729D01*
X524319Y113768D01*
X524295Y113812D01*
X524260Y113838D01*
X524241Y113862D01*
X524213Y113875D01*
X524180Y113900D01*
X523980Y114000D01*
X523965Y114004D01*
X523952Y114013D01*
X523818Y114039D01*
X523812Y114040D01*
X523811Y114040D01*
X523810Y114040D01*
X520910Y114040D01*
X520872Y114031D01*
X520801Y114024D01*
X519801Y113724D01*
X519777Y113710D01*
X519740Y113700D01*
X519366Y113513D01*
X518940Y113300D01*
X518920Y113284D01*
X518889Y113269D01*
X518189Y112769D01*
X518164Y112741D01*
X518118Y112703D01*
X517618Y112103D01*
X517600Y112068D01*
X517561Y112010D01*
X517261Y111310D01*
X517259Y111302D01*
X517254Y111294D01*
X516954Y110494D01*
X516951Y110467D01*
X516930Y110360D01*
X516930Y108740D01*
X516110Y108740D01*
X516094Y108737D01*
X516078Y108739D01*
X516011Y108717D01*
X515941Y108701D01*
X515929Y108690D01*
X515913Y108685D01*
X515817Y108598D01*
X515808Y108591D01*
X515807Y108589D01*
X515806Y108588D01*
X515538Y108232D01*
X515182Y107964D01*
X515167Y107946D01*
X515141Y107929D01*
X513560Y106348D01*
X513182Y106064D01*
X513148Y106024D01*
X513108Y105991D01*
X513093Y105958D01*
X513071Y105931D01*
X513058Y105880D01*
X513037Y105832D01*
X513038Y105797D01*
X513030Y105763D01*
X513041Y105712D01*
X513043Y105659D01*
X513060Y105628D01*
X513068Y105594D01*
X513101Y105553D01*
X513126Y105507D01*
X513155Y105487D01*
X513177Y105459D01*
X513225Y105438D01*
X513268Y105407D01*
X513308Y105400D01*
X513335Y105387D01*
X513366Y105388D01*
X513410Y105380D01*
X516930Y105380D01*
X516930Y94160D01*
X516941Y94110D01*
X516943Y94059D01*
X516961Y94027D01*
X516969Y93991D01*
X517002Y93952D01*
X517026Y93907D01*
X517056Y93886D01*
X517079Y93858D01*
X517126Y93837D01*
X517168Y93807D01*
X517210Y93799D01*
X517238Y93787D01*
X517268Y93788D01*
X517310Y93780D01*
X521110Y93780D01*
X521160Y93791D01*
G37*
G36*
X494260Y93791D02*
X494260Y93791D01*
X494311Y93793D01*
X494343Y93811D01*
X494379Y93819D01*
X494418Y93852D01*
X494463Y93876D01*
X494484Y93906D01*
X494512Y93929D01*
X494533Y93976D01*
X494563Y94018D01*
X494571Y94060D01*
X494583Y94088D01*
X494582Y94118D01*
X494590Y94160D01*
X494590Y101418D01*
X494779Y102266D01*
X494963Y102911D01*
X495324Y103542D01*
X495758Y104064D01*
X496353Y104404D01*
X497075Y104584D01*
X498029Y104680D01*
X499020Y104680D01*
X499140Y104620D01*
X499155Y104616D01*
X499168Y104607D01*
X499302Y104581D01*
X499309Y104580D01*
X499310Y104580D01*
X499410Y104580D01*
X499460Y104591D01*
X499511Y104593D01*
X499543Y104611D01*
X499579Y104619D01*
X499618Y104652D01*
X499663Y104676D01*
X499684Y104706D01*
X499712Y104729D01*
X499733Y104776D01*
X499763Y104818D01*
X499771Y104860D01*
X499783Y104888D01*
X499782Y104918D01*
X499790Y104960D01*
X499790Y108560D01*
X499779Y108610D01*
X499777Y108661D01*
X499759Y108693D01*
X499751Y108729D01*
X499718Y108768D01*
X499694Y108813D01*
X499664Y108834D01*
X499641Y108862D01*
X499594Y108883D01*
X499552Y108913D01*
X499510Y108921D01*
X499482Y108933D01*
X499472Y108933D01*
X499414Y108969D01*
X499352Y109013D01*
X499340Y109015D01*
X499332Y109020D01*
X499295Y109024D01*
X499210Y109040D01*
X497810Y109040D01*
X497772Y109031D01*
X497706Y109026D01*
X497006Y108826D01*
X496999Y108822D01*
X496990Y108821D01*
X496390Y108621D01*
X496363Y108604D01*
X496321Y108590D01*
X495621Y108190D01*
X495603Y108173D01*
X495572Y108157D01*
X495072Y107757D01*
X495053Y107732D01*
X495018Y107703D01*
X494518Y107103D01*
X494516Y107100D01*
X494513Y107098D01*
X494390Y106944D01*
X494390Y108360D01*
X494388Y108370D01*
X494390Y108380D01*
X494368Y108454D01*
X494351Y108529D01*
X494344Y108537D01*
X494341Y108547D01*
X494290Y108603D01*
X494241Y108662D01*
X494231Y108667D01*
X494224Y108674D01*
X494153Y108702D01*
X494082Y108733D01*
X494072Y108733D01*
X494062Y108737D01*
X493918Y108729D01*
X493527Y108631D01*
X492535Y108433D01*
X492528Y108429D01*
X492518Y108429D01*
X492127Y108331D01*
X491672Y108240D01*
X491210Y108240D01*
X491174Y108232D01*
X491118Y108229D01*
X490727Y108131D01*
X490235Y108033D01*
X490223Y108027D01*
X490209Y108027D01*
X490145Y107992D01*
X490078Y107961D01*
X490069Y107950D01*
X490057Y107944D01*
X490015Y107884D01*
X489968Y107827D01*
X489965Y107813D01*
X489957Y107802D01*
X489930Y107660D01*
X489930Y94160D01*
X489941Y94110D01*
X489943Y94059D01*
X489961Y94027D01*
X489969Y93991D01*
X490002Y93952D01*
X490026Y93907D01*
X490056Y93886D01*
X490079Y93858D01*
X490126Y93837D01*
X490168Y93807D01*
X490210Y93799D01*
X490238Y93787D01*
X490268Y93788D01*
X490310Y93780D01*
X494210Y93780D01*
X494260Y93791D01*
G37*
G36*
X464306Y75351D02*
X464306Y75351D01*
X464322Y75367D01*
X464335Y75365D01*
X464735Y75765D01*
X464736Y75777D01*
X464740Y75779D01*
X464737Y75783D01*
X464738Y75786D01*
X464749Y75792D01*
X464849Y76392D01*
X464846Y76397D01*
X464849Y76400D01*
X464849Y77767D01*
X465309Y77951D01*
X466673Y77951D01*
X467156Y77177D01*
X467855Y75580D01*
X467873Y75570D01*
X467875Y75558D01*
X468375Y75258D01*
X468399Y75260D01*
X468408Y75251D01*
X469008Y75351D01*
X469017Y75361D01*
X469024Y75357D01*
X469724Y75757D01*
X469731Y75773D01*
X469742Y75775D01*
X470042Y76275D01*
X470039Y76303D01*
X470047Y76314D01*
X469847Y77014D01*
X469839Y77020D01*
X469841Y77027D01*
X469644Y77323D01*
X469147Y78614D01*
X469053Y79087D01*
X469438Y79569D01*
X469439Y79577D01*
X469444Y79578D01*
X469744Y80178D01*
X469743Y80185D01*
X469747Y80186D01*
X469947Y80886D01*
X469944Y80896D01*
X469949Y80900D01*
X469949Y81600D01*
X469946Y81604D01*
X469949Y81607D01*
X469849Y82307D01*
X469844Y82312D01*
X469847Y82316D01*
X469647Y82916D01*
X469639Y82921D01*
X469641Y82927D01*
X469241Y83527D01*
X469231Y83531D01*
X469231Y83538D01*
X468731Y83938D01*
X468712Y83939D01*
X468737Y83967D01*
X468741Y84027D01*
X468728Y84028D01*
X468727Y84041D01*
X468127Y84441D01*
X468123Y84441D01*
X468122Y84444D01*
X467522Y84744D01*
X467512Y84742D01*
X467508Y84749D01*
X466908Y84849D01*
X466907Y84848D01*
X466907Y84849D01*
X466207Y84949D01*
X466202Y84946D01*
X466200Y84949D01*
X463500Y84949D01*
X463492Y84943D01*
X463486Y84947D01*
X462786Y84747D01*
X462771Y84727D01*
X462758Y84725D01*
X462458Y84225D01*
X462460Y84207D01*
X462451Y84200D01*
X462451Y76000D01*
X462462Y75985D01*
X462458Y75975D01*
X462758Y75475D01*
X462782Y75465D01*
X462786Y75453D01*
X463486Y75253D01*
X463500Y75258D01*
X463506Y75251D01*
X464306Y75351D01*
G37*
G36*
X444005Y55351D02*
X444005Y55351D01*
X444022Y55367D01*
X444035Y55365D01*
X444435Y55765D01*
X444436Y55777D01*
X444440Y55779D01*
X444437Y55783D01*
X444438Y55786D01*
X444449Y55792D01*
X444549Y56392D01*
X444546Y56397D01*
X444549Y56400D01*
X444549Y57767D01*
X445009Y57951D01*
X446370Y57951D01*
X446755Y57179D01*
X447455Y55580D01*
X447476Y55569D01*
X447478Y55556D01*
X448078Y55256D01*
X448099Y55260D01*
X448108Y55251D01*
X448708Y55351D01*
X448717Y55361D01*
X448724Y55357D01*
X449424Y55757D01*
X449433Y55778D01*
X449446Y55782D01*
X449646Y56282D01*
X449640Y56303D01*
X449647Y56314D01*
X449447Y57014D01*
X449446Y57015D01*
X449447Y57016D01*
X449347Y57316D01*
X449343Y57318D01*
X449345Y57321D01*
X448749Y58611D01*
X448749Y59083D01*
X449138Y59569D01*
X449139Y59577D01*
X449144Y59578D01*
X449444Y60178D01*
X449442Y60189D01*
X449449Y60193D01*
X449649Y61593D01*
X449644Y61602D01*
X449649Y61607D01*
X449549Y62307D01*
X449541Y62315D01*
X449544Y62322D01*
X448944Y63522D01*
X448931Y63529D01*
X448931Y63538D01*
X448431Y63938D01*
X448412Y63939D01*
X448437Y63967D01*
X448441Y64027D01*
X448428Y64028D01*
X448427Y64041D01*
X447827Y64441D01*
X447823Y64441D01*
X447822Y64444D01*
X447222Y64744D01*
X447212Y64742D01*
X447208Y64749D01*
X446608Y64849D01*
X446607Y64848D01*
X446607Y64849D01*
X445907Y64949D01*
X445902Y64946D01*
X445900Y64949D01*
X443100Y64949D01*
X443091Y64942D01*
X443084Y64947D01*
X442484Y64747D01*
X442471Y64727D01*
X442458Y64725D01*
X442158Y64225D01*
X442160Y64207D01*
X442151Y64200D01*
X442151Y56000D01*
X442159Y55989D01*
X442154Y55982D01*
X442354Y55482D01*
X442382Y55465D01*
X442386Y55453D01*
X443086Y55253D01*
X443099Y55258D01*
X443105Y55251D01*
X444005Y55351D01*
G37*
G36*
X520521Y55267D02*
X520521Y55267D01*
X520535Y55265D01*
X520935Y55665D01*
X520936Y55677D01*
X520941Y55681D01*
X520938Y55686D01*
X520949Y55692D01*
X521049Y56292D01*
X521046Y56297D01*
X521049Y56300D01*
X521049Y57667D01*
X521509Y57851D01*
X522800Y57851D01*
X522804Y57854D01*
X522807Y57851D01*
X523507Y57951D01*
X523512Y57956D01*
X523516Y57953D01*
X524116Y58153D01*
X524121Y58161D01*
X524127Y58159D01*
X524727Y58559D01*
X524728Y58562D01*
X524731Y58562D01*
X525231Y58962D01*
X525233Y58969D01*
X525238Y58969D01*
X525638Y59469D01*
X525639Y59479D01*
X525645Y59481D01*
X525945Y60181D01*
X525945Y60184D01*
X525947Y60184D01*
X526147Y60784D01*
X526143Y60795D01*
X526149Y60800D01*
X526149Y62200D01*
X526140Y62213D01*
X526144Y62222D01*
X525744Y63022D01*
X525737Y63025D01*
X525738Y63031D01*
X525338Y63531D01*
X525334Y63532D01*
X525335Y63535D01*
X524835Y64035D01*
X524828Y64036D01*
X524827Y64041D01*
X524227Y64441D01*
X524223Y64441D01*
X524222Y64444D01*
X523622Y64744D01*
X523612Y64742D01*
X523608Y64749D01*
X523008Y64849D01*
X523003Y64846D01*
X523000Y64849D01*
X519500Y64849D01*
X519491Y64842D01*
X519484Y64847D01*
X518884Y64647D01*
X518867Y64622D01*
X518854Y64618D01*
X518654Y64118D01*
X518658Y64105D01*
X518651Y64100D01*
X518651Y56600D01*
X518654Y56596D01*
X518651Y56593D01*
X518751Y55893D01*
X518759Y55885D01*
X518756Y55878D01*
X518956Y55478D01*
X518982Y55465D01*
X518986Y55453D01*
X519686Y55253D01*
X519696Y55256D01*
X519700Y55251D01*
X520500Y55251D01*
X520521Y55267D01*
G37*
G36*
X489211Y75262D02*
X489211Y75262D01*
X489222Y75256D01*
X489822Y75556D01*
X489828Y75569D01*
X489838Y75568D01*
X490338Y76168D01*
X490339Y76186D01*
X490348Y76190D01*
X490448Y76690D01*
X490437Y76715D01*
X490441Y76727D01*
X490041Y77327D01*
X490034Y77330D01*
X490035Y77335D01*
X488836Y78534D01*
X487272Y80195D01*
X487731Y80562D01*
X487732Y80567D01*
X487736Y80567D01*
X488836Y81766D01*
X489735Y82665D01*
X489736Y82670D01*
X489739Y82670D01*
X490039Y83070D01*
X490039Y83073D01*
X490041Y83073D01*
X490441Y83673D01*
X490439Y83700D01*
X490448Y83710D01*
X490348Y84210D01*
X490333Y84223D01*
X490335Y84235D01*
X489735Y84835D01*
X489726Y84836D01*
X489725Y84842D01*
X489225Y85142D01*
X489193Y85139D01*
X489182Y85146D01*
X488682Y84946D01*
X488676Y84936D01*
X488668Y84938D01*
X488068Y84438D01*
X488067Y84432D01*
X488063Y84432D01*
X486863Y83032D01*
X486863Y83031D01*
X486862Y83031D01*
X485531Y81415D01*
X485449Y81904D01*
X485449Y83900D01*
X485446Y83904D01*
X485449Y83907D01*
X485349Y84607D01*
X485327Y84629D01*
X485325Y84642D01*
X484825Y84942D01*
X484807Y84940D01*
X484800Y84949D01*
X483900Y84949D01*
X483891Y84942D01*
X483884Y84947D01*
X483284Y84747D01*
X483267Y84722D01*
X483254Y84718D01*
X483054Y84218D01*
X483058Y84205D01*
X483051Y84200D01*
X483051Y76000D01*
X483064Y75982D01*
X483061Y75970D01*
X483361Y75570D01*
X483381Y75565D01*
X483384Y75553D01*
X483984Y75353D01*
X483999Y75358D01*
X484005Y75351D01*
X484905Y75451D01*
X484919Y75464D01*
X484930Y75461D01*
X485330Y75761D01*
X485334Y75777D01*
X485337Y75779D01*
X485336Y75782D01*
X485337Y75786D01*
X485349Y75792D01*
X485449Y76392D01*
X485446Y76397D01*
X485449Y76400D01*
X485449Y78495D01*
X485528Y78890D01*
X488062Y75868D01*
X488069Y75867D01*
X488068Y75862D01*
X488668Y75362D01*
X488686Y75361D01*
X488690Y75352D01*
X489190Y75252D01*
X489211Y75262D01*
G37*
G36*
X497102Y75256D02*
X497102Y75256D01*
X497107Y75251D01*
X497807Y75351D01*
X497829Y75373D01*
X497842Y75375D01*
X498142Y75875D01*
X498142Y75878D01*
X498140Y75893D01*
X498149Y75900D01*
X498149Y78567D01*
X498609Y78751D01*
X500600Y78751D01*
X500604Y78754D01*
X500607Y78751D01*
X501307Y78851D01*
X501322Y78867D01*
X501335Y78865D01*
X501735Y79265D01*
X501736Y79276D01*
X501737Y79276D01*
X501736Y79276D01*
X501738Y79288D01*
X501749Y79294D01*
X501849Y80094D01*
X501842Y80106D01*
X501847Y80114D01*
X501647Y80814D01*
X501633Y80824D01*
X501635Y80835D01*
X501235Y81235D01*
X501208Y81239D01*
X501200Y81249D01*
X498516Y81249D01*
X498149Y81525D01*
X498149Y82175D01*
X498516Y82451D01*
X502600Y82451D01*
X502618Y82465D01*
X502631Y82462D01*
X503131Y82862D01*
X503136Y82881D01*
X503147Y82884D01*
X503347Y83484D01*
X503342Y83500D01*
X503349Y83507D01*
X503249Y84207D01*
X503236Y84220D01*
X503238Y84231D01*
X502838Y84731D01*
X502813Y84737D01*
X502807Y84749D01*
X502107Y84849D01*
X502102Y84846D01*
X502100Y84849D01*
X496600Y84849D01*
X496589Y84841D01*
X496582Y84846D01*
X496082Y84646D01*
X496066Y84620D01*
X496053Y84616D01*
X495853Y84016D01*
X495855Y84009D01*
X495851Y84007D01*
X495751Y83307D01*
X495754Y83302D01*
X495751Y83300D01*
X495751Y76500D01*
X495754Y76496D01*
X495751Y76493D01*
X495851Y75793D01*
X495864Y75781D01*
X495861Y75770D01*
X496161Y75370D01*
X496188Y75363D01*
X496195Y75351D01*
X497095Y75251D01*
X497102Y75256D01*
G37*
G36*
X537008Y55257D02*
X537008Y55257D01*
X537014Y55253D01*
X537714Y55453D01*
X537726Y55470D01*
X537738Y55469D01*
X538094Y55914D01*
X538358Y55475D01*
X538380Y55466D01*
X538384Y55453D01*
X538984Y55253D01*
X538995Y55257D01*
X539000Y55251D01*
X539800Y55251D01*
X539815Y55262D01*
X539825Y55258D01*
X540325Y55558D01*
X540333Y55577D01*
X540340Y55582D01*
X540337Y55586D01*
X540349Y55593D01*
X540449Y56293D01*
X540446Y56298D01*
X540449Y56300D01*
X540449Y61100D01*
X540446Y61105D01*
X540449Y61108D01*
X540349Y61708D01*
X540330Y61725D01*
X540331Y61738D01*
X539831Y62138D01*
X539809Y62139D01*
X539804Y62146D01*
X539803Y62146D01*
X539800Y62149D01*
X539000Y62149D01*
X538995Y62146D01*
X538990Y62146D01*
X538988Y62144D01*
X538984Y62147D01*
X538384Y61947D01*
X538371Y61927D01*
X538358Y61925D01*
X538090Y61479D01*
X538035Y61535D01*
X538031Y61535D01*
X538031Y61538D01*
X537531Y61938D01*
X537517Y61939D01*
X537514Y61947D01*
X536814Y62147D01*
X536809Y62146D01*
X536803Y62146D01*
X536800Y62149D01*
X536200Y62149D01*
X536195Y62146D01*
X536190Y62146D01*
X536188Y62144D01*
X536184Y62147D01*
X535584Y61947D01*
X535581Y61942D01*
X535578Y61944D01*
X534978Y61644D01*
X534974Y61637D01*
X534968Y61638D01*
X534368Y61138D01*
X534366Y61128D01*
X534359Y61127D01*
X533959Y60527D01*
X533959Y60523D01*
X533956Y60522D01*
X533656Y59922D01*
X533657Y59917D01*
X533653Y59916D01*
X533453Y59316D01*
X533457Y59306D01*
X533453Y59303D01*
X533453Y59302D01*
X533451Y59300D01*
X533451Y58600D01*
X533454Y58596D01*
X533451Y58593D01*
X533551Y57893D01*
X533556Y57888D01*
X533553Y57884D01*
X533753Y57284D01*
X533758Y57281D01*
X533756Y57278D01*
X534056Y56678D01*
X534066Y56673D01*
X534065Y56665D01*
X535065Y55665D01*
X535077Y55664D01*
X535078Y55656D01*
X535678Y55356D01*
X535689Y55358D01*
X535692Y55351D01*
X536292Y55251D01*
X536297Y55254D01*
X536300Y55251D01*
X537000Y55251D01*
X537008Y55257D01*
G37*
G36*
X508709Y75258D02*
X508709Y75258D01*
X508716Y75253D01*
X509316Y75453D01*
X509325Y75467D01*
X509335Y75465D01*
X509782Y75912D01*
X509954Y75482D01*
X509980Y75466D01*
X509984Y75453D01*
X510584Y75253D01*
X510595Y75257D01*
X510600Y75251D01*
X511400Y75251D01*
X511415Y75262D01*
X511425Y75258D01*
X511925Y75558D01*
X511933Y75577D01*
X511940Y75582D01*
X511937Y75586D01*
X511949Y75593D01*
X512049Y76293D01*
X512046Y76298D01*
X512049Y76300D01*
X512049Y81100D01*
X512046Y81105D01*
X512049Y81108D01*
X511949Y81708D01*
X511930Y81725D01*
X511931Y81738D01*
X511431Y82138D01*
X511409Y82139D01*
X511404Y82146D01*
X511403Y82146D01*
X511400Y82149D01*
X510600Y82149D01*
X510595Y82146D01*
X510590Y82146D01*
X510588Y82144D01*
X510584Y82147D01*
X509984Y81947D01*
X509971Y81927D01*
X509958Y81925D01*
X509690Y81479D01*
X509635Y81535D01*
X509631Y81535D01*
X509631Y81538D01*
X509131Y81938D01*
X509118Y81939D01*
X509116Y81947D01*
X508516Y82147D01*
X508511Y82145D01*
X508511Y82146D01*
X508503Y82146D01*
X508500Y82149D01*
X507800Y82149D01*
X507795Y82146D01*
X507790Y82146D01*
X507788Y82144D01*
X507784Y82147D01*
X507184Y81947D01*
X507181Y81942D01*
X507178Y81944D01*
X506578Y81644D01*
X506573Y81634D01*
X506565Y81635D01*
X506065Y81135D01*
X506065Y81131D01*
X506062Y81132D01*
X505562Y80532D01*
X505562Y80523D01*
X505556Y80522D01*
X505256Y79922D01*
X505258Y79912D01*
X505251Y79908D01*
X505151Y79308D01*
X505152Y79307D01*
X505151Y79307D01*
X505051Y78607D01*
X505056Y78598D01*
X505051Y78593D01*
X505151Y77893D01*
X505156Y77888D01*
X505153Y77884D01*
X505353Y77284D01*
X505358Y77281D01*
X505356Y77278D01*
X505656Y76678D01*
X505666Y76673D01*
X505665Y76665D01*
X506165Y76165D01*
X506169Y76165D01*
X506168Y76162D01*
X506768Y75662D01*
X506774Y75662D01*
X506775Y75658D01*
X507275Y75358D01*
X507289Y75359D01*
X507293Y75351D01*
X507993Y75251D01*
X507998Y75254D01*
X508000Y75251D01*
X508700Y75251D01*
X508709Y75258D01*
G37*
G36*
X501104Y55254D02*
X501104Y55254D01*
X501107Y55251D01*
X501807Y55351D01*
X501815Y55359D01*
X501822Y55356D01*
X502422Y55656D01*
X502425Y55663D01*
X502431Y55662D01*
X503431Y56462D01*
X503433Y56472D01*
X503441Y56473D01*
X503841Y57073D01*
X503841Y57077D01*
X503844Y57078D01*
X504144Y57678D01*
X504142Y57689D01*
X504149Y57693D01*
X504249Y58393D01*
X504246Y58398D01*
X504249Y58400D01*
X504249Y59100D01*
X504246Y59104D01*
X504249Y59107D01*
X504149Y59807D01*
X504144Y59812D01*
X504147Y59816D01*
X503947Y60416D01*
X503939Y60421D01*
X503941Y60427D01*
X503541Y61027D01*
X503538Y61028D01*
X503538Y61031D01*
X503138Y61531D01*
X503128Y61533D01*
X503127Y61541D01*
X502527Y61941D01*
X502523Y61941D01*
X502522Y61944D01*
X501922Y62244D01*
X501912Y62242D01*
X501911Y62243D01*
X501908Y62249D01*
X501308Y62349D01*
X501307Y62348D01*
X501307Y62349D01*
X500607Y62449D01*
X500598Y62444D01*
X500593Y62449D01*
X499893Y62349D01*
X499888Y62344D01*
X499884Y62347D01*
X499284Y62147D01*
X499281Y62142D01*
X499278Y62144D01*
X498678Y61844D01*
X498674Y61837D01*
X498668Y61838D01*
X498068Y61338D01*
X498068Y61336D01*
X498067Y61337D01*
X497067Y60437D01*
X497062Y60408D01*
X497051Y60400D01*
X497051Y58900D01*
X497054Y58895D01*
X497051Y58892D01*
X497151Y58292D01*
X497251Y57593D01*
X497259Y57585D01*
X497256Y57578D01*
X497556Y56978D01*
X497564Y56974D01*
X497562Y56968D01*
X498062Y56368D01*
X498069Y56367D01*
X498069Y56362D01*
X499069Y55562D01*
X499083Y55561D01*
X499086Y55553D01*
X499786Y55353D01*
X499790Y55354D01*
X499792Y55351D01*
X500392Y55251D01*
X500397Y55254D01*
X500400Y55251D01*
X501100Y55251D01*
X501104Y55254D01*
G37*
%LPC*%
G36*
X465684Y97234D02*
X465684Y97234D01*
X465092Y97404D01*
X464567Y97841D01*
X464131Y98277D01*
X463872Y98882D01*
X463490Y100407D01*
X463490Y102036D01*
X463582Y102768D01*
X463863Y103518D01*
X464138Y104159D01*
X464578Y104687D01*
X465000Y105025D01*
X465702Y105288D01*
X466413Y105377D01*
X467212Y105288D01*
X467828Y105024D01*
X468353Y104674D01*
X468782Y104159D01*
X469057Y103518D01*
X469338Y102768D01*
X469430Y102036D01*
X469430Y100384D01*
X469338Y99652D01*
X469057Y98902D01*
X468781Y98257D01*
X468437Y97828D01*
X467933Y97408D01*
X467240Y97234D01*
X466507Y97143D01*
X465684Y97234D01*
G37*
%LPD*%
G36*
X554707Y55256D02*
X554707Y55256D01*
X554712Y55252D01*
X555512Y55452D01*
X555519Y55461D01*
X555525Y55458D01*
X556025Y55758D01*
X556029Y55766D01*
X556035Y55765D01*
X556335Y56065D01*
X556339Y56092D01*
X556349Y56100D01*
X556349Y56600D01*
X556338Y56614D01*
X556343Y56624D01*
X555943Y57324D01*
X555927Y57331D01*
X555925Y57342D01*
X555425Y57642D01*
X555396Y57639D01*
X555384Y57647D01*
X554192Y57249D01*
X553408Y57249D01*
X552827Y57443D01*
X552388Y57882D01*
X552809Y58051D01*
X555600Y58051D01*
X555610Y58058D01*
X555615Y58058D01*
X555616Y58059D01*
X555622Y58056D01*
X556222Y58356D01*
X556225Y58363D01*
X556231Y58362D01*
X556731Y58762D01*
X556735Y58777D01*
X556743Y58783D01*
X556738Y58790D01*
X556738Y58792D01*
X556749Y58800D01*
X556749Y59600D01*
X556746Y59604D01*
X556749Y59607D01*
X556649Y60307D01*
X556644Y60312D01*
X556647Y60316D01*
X556447Y60916D01*
X556436Y60923D01*
X556438Y60931D01*
X556038Y61431D01*
X556034Y61432D01*
X556035Y61435D01*
X555535Y61935D01*
X555523Y61936D01*
X555522Y61944D01*
X554922Y62244D01*
X554912Y62242D01*
X554910Y62244D01*
X554909Y62244D01*
X554907Y62249D01*
X553507Y62449D01*
X553498Y62444D01*
X553493Y62449D01*
X552793Y62349D01*
X552789Y62345D01*
X552786Y62347D01*
X552086Y62147D01*
X552082Y62142D01*
X552078Y62144D01*
X551478Y61844D01*
X551475Y61837D01*
X551469Y61838D01*
X550469Y61038D01*
X550466Y61024D01*
X550456Y61022D01*
X550156Y60422D01*
X550157Y60417D01*
X550153Y60416D01*
X549953Y59816D01*
X549955Y59809D01*
X549951Y59807D01*
X549851Y59107D01*
X549854Y59102D01*
X549851Y59100D01*
X549851Y58400D01*
X549854Y58396D01*
X549851Y58393D01*
X549951Y57693D01*
X549959Y57685D01*
X549956Y57678D01*
X550556Y56478D01*
X550566Y56473D01*
X550565Y56465D01*
X551065Y55965D01*
X551072Y55964D01*
X551073Y55959D01*
X551673Y55559D01*
X551682Y55560D01*
X551684Y55553D01*
X552284Y55353D01*
X552291Y55355D01*
X552293Y55351D01*
X552993Y55251D01*
X552998Y55254D01*
X553000Y55251D01*
X554700Y55251D01*
X554707Y55256D01*
G37*
G36*
X527008Y75257D02*
X527008Y75257D01*
X527014Y75253D01*
X527714Y75453D01*
X527719Y75460D01*
X527725Y75458D01*
X528225Y75758D01*
X528229Y75766D01*
X528235Y75765D01*
X528535Y76065D01*
X528539Y76092D01*
X528549Y76100D01*
X528549Y76600D01*
X528541Y76611D01*
X528545Y76619D01*
X528245Y77319D01*
X528227Y77330D01*
X528225Y77342D01*
X527725Y77642D01*
X527697Y77639D01*
X527686Y77647D01*
X526986Y77447D01*
X526985Y77446D01*
X526984Y77447D01*
X526392Y77249D01*
X525707Y77249D01*
X525029Y77443D01*
X524680Y77879D01*
X525109Y78051D01*
X527800Y78051D01*
X527810Y78058D01*
X527815Y78058D01*
X527816Y78059D01*
X527822Y78056D01*
X528422Y78356D01*
X528425Y78363D01*
X528431Y78362D01*
X528931Y78762D01*
X528935Y78777D01*
X528943Y78783D01*
X528938Y78790D01*
X528938Y78792D01*
X528949Y78800D01*
X528949Y79600D01*
X528946Y79604D01*
X528949Y79607D01*
X528849Y80307D01*
X528844Y80312D01*
X528847Y80316D01*
X528647Y80916D01*
X528636Y80923D01*
X528638Y80931D01*
X528238Y81431D01*
X528234Y81432D01*
X528235Y81435D01*
X527735Y81935D01*
X527723Y81936D01*
X527722Y81944D01*
X527122Y82244D01*
X527112Y82242D01*
X527111Y82243D01*
X527108Y82249D01*
X526508Y82349D01*
X526507Y82348D01*
X526506Y82349D01*
X525706Y82449D01*
X525698Y82444D01*
X525693Y82449D01*
X524993Y82349D01*
X524989Y82345D01*
X524986Y82347D01*
X524286Y82147D01*
X524281Y82140D01*
X524275Y82142D01*
X523775Y81842D01*
X523774Y81841D01*
X523773Y81841D01*
X523173Y81441D01*
X523170Y81434D01*
X523165Y81435D01*
X522765Y81035D01*
X522764Y81028D01*
X522759Y81027D01*
X522359Y80427D01*
X522360Y80418D01*
X522353Y80416D01*
X522153Y79816D01*
X522155Y79809D01*
X522151Y79807D01*
X522051Y79107D01*
X522054Y79102D01*
X522051Y79100D01*
X522051Y78400D01*
X522057Y78392D01*
X522053Y78386D01*
X522253Y77686D01*
X522254Y77685D01*
X522253Y77684D01*
X522453Y77084D01*
X522461Y77079D01*
X522459Y77073D01*
X522859Y76473D01*
X522862Y76472D01*
X522862Y76469D01*
X523262Y75969D01*
X523272Y75967D01*
X523273Y75959D01*
X523873Y75559D01*
X523882Y75560D01*
X523884Y75553D01*
X524484Y75353D01*
X524491Y75355D01*
X524493Y75351D01*
X525193Y75251D01*
X525198Y75254D01*
X525200Y75251D01*
X527000Y75251D01*
X527008Y75257D01*
G37*
G36*
X472608Y55257D02*
X472608Y55257D01*
X472614Y55253D01*
X473314Y55453D01*
X473319Y55460D01*
X473325Y55458D01*
X473825Y55758D01*
X473829Y55766D01*
X473835Y55765D01*
X474135Y56065D01*
X474139Y56092D01*
X474149Y56100D01*
X474149Y56600D01*
X474141Y56611D01*
X474145Y56619D01*
X473845Y57319D01*
X473827Y57330D01*
X473825Y57342D01*
X473325Y57642D01*
X473297Y57639D01*
X473286Y57647D01*
X472586Y57447D01*
X472585Y57446D01*
X472584Y57447D01*
X471992Y57249D01*
X471307Y57249D01*
X470629Y57443D01*
X470280Y57879D01*
X470709Y58051D01*
X473400Y58051D01*
X473410Y58058D01*
X473415Y58058D01*
X473416Y58059D01*
X473422Y58056D01*
X474022Y58356D01*
X474025Y58363D01*
X474031Y58362D01*
X474531Y58762D01*
X474535Y58777D01*
X474543Y58783D01*
X474538Y58790D01*
X474538Y58792D01*
X474549Y58800D01*
X474549Y59600D01*
X474546Y59604D01*
X474549Y59607D01*
X474449Y60307D01*
X474444Y60312D01*
X474447Y60316D01*
X474247Y60916D01*
X474236Y60923D01*
X474238Y60931D01*
X473838Y61431D01*
X473834Y61432D01*
X473835Y61435D01*
X473335Y61935D01*
X473323Y61936D01*
X473322Y61944D01*
X472722Y62244D01*
X472712Y62242D01*
X472711Y62243D01*
X472708Y62249D01*
X472108Y62349D01*
X472107Y62348D01*
X472106Y62349D01*
X471306Y62449D01*
X471298Y62444D01*
X471293Y62449D01*
X470593Y62349D01*
X470588Y62344D01*
X470584Y62347D01*
X469984Y62147D01*
X469981Y62142D01*
X469978Y62144D01*
X469378Y61844D01*
X469376Y61840D01*
X469373Y61841D01*
X468773Y61441D01*
X468770Y61434D01*
X468765Y61435D01*
X468365Y61035D01*
X468364Y61023D01*
X468356Y61022D01*
X467756Y59822D01*
X467758Y59811D01*
X467751Y59807D01*
X467651Y59107D01*
X467654Y59102D01*
X467651Y59100D01*
X467651Y58400D01*
X467657Y58392D01*
X467653Y58386D01*
X467853Y57686D01*
X467854Y57685D01*
X467853Y57684D01*
X468053Y57084D01*
X468061Y57079D01*
X468059Y57073D01*
X468459Y56473D01*
X468462Y56472D01*
X468462Y56469D01*
X468862Y55969D01*
X468872Y55967D01*
X468873Y55959D01*
X469473Y55559D01*
X469482Y55560D01*
X469484Y55553D01*
X470084Y55353D01*
X470091Y55355D01*
X470093Y55351D01*
X470793Y55251D01*
X470798Y55254D01*
X470800Y55251D01*
X472600Y55251D01*
X472608Y55257D01*
G37*
G36*
X456307Y55256D02*
X456307Y55256D01*
X456312Y55252D01*
X457112Y55452D01*
X457119Y55461D01*
X457125Y55458D01*
X457625Y55758D01*
X457629Y55766D01*
X457635Y55765D01*
X457935Y56065D01*
X457939Y56092D01*
X457949Y56100D01*
X457949Y56600D01*
X457938Y56614D01*
X457943Y56624D01*
X457543Y57324D01*
X457527Y57331D01*
X457525Y57342D01*
X457025Y57642D01*
X456996Y57639D01*
X456984Y57647D01*
X455792Y57249D01*
X455008Y57249D01*
X454427Y57443D01*
X453988Y57882D01*
X454409Y58051D01*
X457100Y58051D01*
X457110Y58058D01*
X457114Y58058D01*
X457119Y58055D01*
X457819Y58355D01*
X457826Y58366D01*
X457835Y58365D01*
X458235Y58765D01*
X458237Y58778D01*
X458244Y58783D01*
X458238Y58791D01*
X458239Y58792D01*
X458249Y58800D01*
X458249Y60300D01*
X458240Y60313D01*
X458244Y60322D01*
X457944Y60922D01*
X457937Y60925D01*
X457938Y60931D01*
X457138Y61931D01*
X457124Y61934D01*
X457122Y61944D01*
X456522Y62244D01*
X456512Y62242D01*
X456510Y62244D01*
X456509Y62244D01*
X456507Y62249D01*
X455107Y62449D01*
X455099Y62444D01*
X455094Y62449D01*
X454294Y62349D01*
X454289Y62344D01*
X454284Y62347D01*
X453684Y62147D01*
X453681Y62142D01*
X453678Y62144D01*
X453078Y61844D01*
X453075Y61837D01*
X453069Y61838D01*
X452069Y61038D01*
X452066Y61024D01*
X452056Y61022D01*
X451756Y60422D01*
X451757Y60417D01*
X451753Y60416D01*
X451553Y59816D01*
X451555Y59809D01*
X451551Y59807D01*
X451451Y59107D01*
X451454Y59102D01*
X451451Y59100D01*
X451451Y58400D01*
X451454Y58396D01*
X451451Y58393D01*
X451551Y57693D01*
X451559Y57685D01*
X451556Y57678D01*
X452156Y56478D01*
X452166Y56473D01*
X452165Y56465D01*
X452665Y55965D01*
X452672Y55964D01*
X452673Y55959D01*
X453273Y55559D01*
X453282Y55560D01*
X453284Y55553D01*
X453884Y55353D01*
X453890Y55355D01*
X453892Y55351D01*
X454492Y55251D01*
X454497Y55254D01*
X454500Y55251D01*
X456300Y55251D01*
X456307Y55256D01*
G37*
G36*
X478418Y55264D02*
X478418Y55264D01*
X478430Y55261D01*
X478830Y55561D01*
X478834Y55577D01*
X478841Y55582D01*
X478841Y55583D01*
X478847Y55584D01*
X479047Y56184D01*
X479043Y56195D01*
X479049Y56200D01*
X479049Y58888D01*
X479337Y59463D01*
X479912Y59751D01*
X480583Y59751D01*
X481057Y59371D01*
X481251Y58693D01*
X481251Y56000D01*
X481259Y55989D01*
X481254Y55982D01*
X481454Y55482D01*
X481480Y55466D01*
X481484Y55453D01*
X482084Y55253D01*
X482095Y55257D01*
X482100Y55251D01*
X483000Y55251D01*
X483018Y55265D01*
X483031Y55262D01*
X483531Y55662D01*
X483535Y55677D01*
X483540Y55681D01*
X483537Y55685D01*
X483537Y55686D01*
X483549Y55692D01*
X483649Y56292D01*
X483646Y56297D01*
X483649Y56300D01*
X483649Y59100D01*
X483642Y59109D01*
X483647Y59116D01*
X483447Y59715D01*
X483247Y60414D01*
X483240Y60419D01*
X483242Y60425D01*
X482942Y60925D01*
X482934Y60929D01*
X482935Y60935D01*
X482435Y61435D01*
X482428Y61436D01*
X482427Y61441D01*
X481827Y61841D01*
X481818Y61840D01*
X481816Y61847D01*
X481216Y62047D01*
X481209Y62045D01*
X481207Y62049D01*
X480507Y62149D01*
X480502Y62146D01*
X480495Y62146D01*
X480492Y62149D01*
X479892Y62049D01*
X479882Y62038D01*
X479873Y62041D01*
X479280Y61646D01*
X478923Y61557D01*
X478642Y62025D01*
X478614Y62037D01*
X478607Y62049D01*
X477907Y62149D01*
X477902Y62146D01*
X477897Y62146D01*
X477894Y62149D01*
X477094Y62049D01*
X477078Y62033D01*
X477065Y62035D01*
X476665Y61635D01*
X476664Y61623D01*
X476657Y61617D01*
X476662Y61610D01*
X476662Y61608D01*
X476651Y61600D01*
X476651Y56100D01*
X476658Y56091D01*
X476653Y56084D01*
X476853Y55484D01*
X476880Y55466D01*
X476884Y55453D01*
X477484Y55253D01*
X477495Y55257D01*
X477500Y55251D01*
X478400Y55251D01*
X478418Y55264D01*
G37*
G36*
X476405Y75254D02*
X476405Y75254D01*
X476408Y75251D01*
X477008Y75351D01*
X477031Y75376D01*
X477044Y75378D01*
X477344Y75978D01*
X477341Y75994D01*
X477349Y76000D01*
X477349Y82757D01*
X478003Y82851D01*
X480100Y82851D01*
X480115Y82862D01*
X480125Y82858D01*
X480625Y83158D01*
X480637Y83186D01*
X480649Y83192D01*
X480749Y83792D01*
X480746Y83797D01*
X480749Y83800D01*
X480749Y84500D01*
X480724Y84533D01*
X480722Y84544D01*
X480122Y84844D01*
X480106Y84841D01*
X480100Y84849D01*
X472600Y84849D01*
X472596Y84846D01*
X472593Y84849D01*
X471893Y84749D01*
X471864Y84719D01*
X471853Y84716D01*
X471653Y84116D01*
X471657Y84105D01*
X471651Y84100D01*
X471651Y83400D01*
X471667Y83379D01*
X471665Y83365D01*
X472065Y82965D01*
X472087Y82962D01*
X472093Y82951D01*
X472793Y82851D01*
X472798Y82854D01*
X472800Y82851D01*
X474870Y82851D01*
X475051Y82488D01*
X475051Y76300D01*
X475054Y76295D01*
X475051Y76292D01*
X475151Y75692D01*
X475170Y75675D01*
X475169Y75662D01*
X475669Y75262D01*
X475692Y75261D01*
X475700Y75251D01*
X476400Y75251D01*
X476405Y75254D01*
G37*
G36*
X508115Y55262D02*
X508115Y55262D01*
X508125Y55258D01*
X508625Y55558D01*
X508633Y55577D01*
X508640Y55582D01*
X508637Y55586D01*
X508649Y55592D01*
X508749Y56192D01*
X508746Y56197D01*
X508749Y56200D01*
X508749Y58888D01*
X509037Y59463D01*
X509612Y59751D01*
X510283Y59751D01*
X510757Y59371D01*
X510951Y58693D01*
X510951Y56000D01*
X510959Y55989D01*
X510954Y55982D01*
X511154Y55482D01*
X511182Y55465D01*
X511186Y55453D01*
X511886Y55253D01*
X511896Y55256D01*
X511900Y55251D01*
X512700Y55251D01*
X512718Y55265D01*
X512731Y55262D01*
X513231Y55662D01*
X513235Y55677D01*
X513240Y55681D01*
X513237Y55685D01*
X513237Y55686D01*
X513249Y55692D01*
X513349Y56292D01*
X513346Y56297D01*
X513349Y56300D01*
X513349Y59100D01*
X513346Y59105D01*
X513349Y59108D01*
X513249Y59708D01*
X513242Y59714D01*
X513245Y59719D01*
X512945Y60419D01*
X512941Y60422D01*
X512942Y60425D01*
X512642Y60925D01*
X512634Y60929D01*
X512635Y60935D01*
X512135Y61435D01*
X512131Y61435D01*
X512131Y61438D01*
X511631Y61838D01*
X511617Y61839D01*
X511614Y61847D01*
X510914Y62047D01*
X510910Y62046D01*
X510908Y62049D01*
X510308Y62149D01*
X510303Y62146D01*
X510296Y62146D01*
X510293Y62149D01*
X509593Y62049D01*
X509582Y62038D01*
X509573Y62041D01*
X508978Y61645D01*
X508722Y61559D01*
X508442Y62025D01*
X508413Y62037D01*
X508406Y62049D01*
X507606Y62149D01*
X507601Y62146D01*
X507597Y62146D01*
X507594Y62149D01*
X506794Y62049D01*
X506774Y62030D01*
X506761Y62030D01*
X506461Y61630D01*
X506461Y61621D01*
X506456Y61617D01*
X506461Y61611D01*
X506461Y61608D01*
X506451Y61600D01*
X506451Y56100D01*
X506454Y56095D01*
X506451Y56092D01*
X506551Y55492D01*
X506581Y55464D01*
X506584Y55453D01*
X507184Y55253D01*
X507195Y55257D01*
X507200Y55251D01*
X508100Y55251D01*
X508115Y55262D01*
G37*
G36*
X546818Y55265D02*
X546818Y55265D01*
X546831Y55262D01*
X547331Y55662D01*
X547335Y55677D01*
X547340Y55681D01*
X547337Y55685D01*
X547337Y55687D01*
X547349Y55693D01*
X547449Y56393D01*
X547442Y56406D01*
X547447Y56414D01*
X547247Y57114D01*
X547227Y57129D01*
X547225Y57142D01*
X546725Y57442D01*
X546711Y57441D01*
X546707Y57449D01*
X546035Y57545D01*
X545849Y58009D01*
X545849Y59296D01*
X545941Y59844D01*
X546593Y59751D01*
X546603Y59757D01*
X546608Y59751D01*
X547208Y59851D01*
X547220Y59863D01*
X547230Y59861D01*
X547630Y60161D01*
X547637Y60188D01*
X547649Y60195D01*
X547749Y61095D01*
X547744Y61102D01*
X547749Y61107D01*
X547649Y61807D01*
X547627Y61829D01*
X547625Y61842D01*
X547125Y62142D01*
X547110Y62141D01*
X547106Y62146D01*
X547103Y62146D01*
X547100Y62149D01*
X546500Y62149D01*
X546496Y62146D01*
X546493Y62149D01*
X545849Y62057D01*
X545849Y63400D01*
X545846Y63405D01*
X545849Y63408D01*
X545749Y64008D01*
X545730Y64025D01*
X545731Y64038D01*
X545231Y64438D01*
X545212Y64439D01*
X545206Y64449D01*
X544406Y64549D01*
X544393Y64541D01*
X544384Y64547D01*
X543784Y64347D01*
X543771Y64327D01*
X543758Y64325D01*
X543458Y63825D01*
X543460Y63807D01*
X543451Y63800D01*
X543451Y62420D01*
X543173Y62143D01*
X542584Y61947D01*
X542571Y61927D01*
X542558Y61925D01*
X542258Y61425D01*
X542258Y61421D01*
X542257Y61420D01*
X542259Y61418D01*
X542260Y61407D01*
X542251Y61400D01*
X542251Y60600D01*
X542258Y60591D01*
X542253Y60584D01*
X542453Y59984D01*
X542478Y59967D01*
X542482Y59954D01*
X543451Y59567D01*
X543451Y57500D01*
X543457Y57492D01*
X543453Y57486D01*
X543653Y56786D01*
X543654Y56785D01*
X543653Y56784D01*
X543853Y56184D01*
X543867Y56175D01*
X543865Y56165D01*
X544265Y55765D01*
X544274Y55764D01*
X544275Y55758D01*
X544775Y55458D01*
X544783Y55459D01*
X544784Y55453D01*
X545384Y55253D01*
X545395Y55257D01*
X545400Y55251D01*
X546800Y55251D01*
X546818Y55265D01*
G37*
G36*
X464721Y55267D02*
X464721Y55267D01*
X464735Y55265D01*
X465135Y55665D01*
X465136Y55677D01*
X465141Y55681D01*
X465138Y55686D01*
X465138Y55687D01*
X465149Y55693D01*
X465249Y56393D01*
X465244Y56402D01*
X465249Y56407D01*
X465149Y57107D01*
X465127Y57129D01*
X465125Y57142D01*
X464625Y57442D01*
X464611Y57441D01*
X464607Y57449D01*
X463930Y57545D01*
X463649Y58014D01*
X463649Y59296D01*
X463741Y59844D01*
X464393Y59751D01*
X464402Y59756D01*
X464407Y59751D01*
X465107Y59851D01*
X465119Y59864D01*
X465130Y59861D01*
X465530Y60161D01*
X465537Y60188D01*
X465549Y60195D01*
X465649Y61095D01*
X465642Y61106D01*
X465647Y61114D01*
X465447Y61814D01*
X465427Y61829D01*
X465425Y61842D01*
X464925Y62142D01*
X464910Y62141D01*
X464906Y62146D01*
X464903Y62146D01*
X464900Y62149D01*
X464300Y62149D01*
X464296Y62146D01*
X464293Y62149D01*
X463649Y62057D01*
X463649Y63400D01*
X463646Y63405D01*
X463649Y63408D01*
X463549Y64008D01*
X463533Y64023D01*
X463535Y64035D01*
X463135Y64435D01*
X463112Y64438D01*
X463105Y64449D01*
X462205Y64549D01*
X462192Y64541D01*
X462184Y64547D01*
X461584Y64347D01*
X461567Y64322D01*
X461554Y64318D01*
X461354Y63818D01*
X461358Y63805D01*
X461351Y63800D01*
X461351Y62420D01*
X461074Y62144D01*
X460386Y61947D01*
X460371Y61927D01*
X460363Y61921D01*
X460354Y61918D01*
X460154Y61418D01*
X460157Y61409D01*
X460151Y61406D01*
X460051Y60606D01*
X460059Y60593D01*
X460053Y60584D01*
X460253Y59984D01*
X460279Y59967D01*
X460283Y59954D01*
X461351Y59566D01*
X461351Y57500D01*
X461354Y57496D01*
X461351Y57493D01*
X461451Y56793D01*
X461456Y56788D01*
X461453Y56784D01*
X461653Y56184D01*
X461667Y56175D01*
X461665Y56165D01*
X462065Y55765D01*
X462074Y55764D01*
X462075Y55758D01*
X462575Y55458D01*
X462583Y55459D01*
X462584Y55453D01*
X463184Y55253D01*
X463195Y55257D01*
X463200Y55251D01*
X464700Y55251D01*
X464721Y55267D01*
G37*
G36*
X535321Y75267D02*
X535321Y75267D01*
X535335Y75265D01*
X535735Y75665D01*
X535736Y75677D01*
X535741Y75681D01*
X535739Y75683D01*
X535747Y75686D01*
X535947Y76386D01*
X535940Y76404D01*
X535947Y76414D01*
X535747Y77114D01*
X535727Y77129D01*
X535725Y77142D01*
X535225Y77442D01*
X535211Y77441D01*
X535207Y77449D01*
X534530Y77545D01*
X534249Y78014D01*
X534249Y79292D01*
X534434Y79845D01*
X535093Y79751D01*
X535103Y79757D01*
X535108Y79751D01*
X535708Y79851D01*
X535720Y79863D01*
X535730Y79861D01*
X536130Y80161D01*
X536137Y80188D01*
X536149Y80195D01*
X536249Y81095D01*
X536244Y81102D01*
X536249Y81107D01*
X536149Y81807D01*
X536127Y81829D01*
X536125Y81842D01*
X535625Y82142D01*
X535610Y82141D01*
X535606Y82146D01*
X535603Y82146D01*
X535600Y82149D01*
X534900Y82149D01*
X534896Y82146D01*
X534893Y82149D01*
X534249Y82057D01*
X534249Y84000D01*
X534230Y84025D01*
X534231Y84038D01*
X533731Y84438D01*
X533712Y84439D01*
X533706Y84449D01*
X532906Y84549D01*
X532894Y84542D01*
X532886Y84547D01*
X532186Y84347D01*
X532167Y84322D01*
X532154Y84318D01*
X531954Y83818D01*
X531958Y83805D01*
X531951Y83800D01*
X531951Y82420D01*
X531673Y82143D01*
X531084Y81947D01*
X531071Y81927D01*
X531058Y81925D01*
X530758Y81425D01*
X530758Y81421D01*
X530757Y81420D01*
X530759Y81418D01*
X530760Y81407D01*
X530751Y81400D01*
X530751Y80600D01*
X530758Y80591D01*
X530753Y80584D01*
X530953Y79984D01*
X530978Y79967D01*
X530982Y79954D01*
X531951Y79567D01*
X531951Y77500D01*
X531954Y77496D01*
X531951Y77493D01*
X532051Y76793D01*
X532059Y76785D01*
X532056Y76778D01*
X532356Y76178D01*
X532362Y76175D01*
X532361Y76170D01*
X532661Y75770D01*
X532674Y75767D01*
X532675Y75758D01*
X533175Y75458D01*
X533184Y75459D01*
X533186Y75453D01*
X533886Y75253D01*
X533896Y75256D01*
X533900Y75251D01*
X535300Y75251D01*
X535321Y75267D01*
G37*
G36*
X489821Y55267D02*
X489821Y55267D01*
X489835Y55265D01*
X490235Y55665D01*
X490236Y55677D01*
X490241Y55681D01*
X490238Y55686D01*
X490238Y55687D01*
X490249Y55693D01*
X490349Y56393D01*
X490344Y56402D01*
X490349Y56407D01*
X490249Y57107D01*
X490227Y57129D01*
X490225Y57142D01*
X489725Y57442D01*
X489711Y57441D01*
X489707Y57449D01*
X489030Y57545D01*
X488749Y58014D01*
X488749Y59292D01*
X488933Y59845D01*
X489492Y59751D01*
X489502Y59757D01*
X489507Y59751D01*
X490207Y59851D01*
X490219Y59864D01*
X490230Y59861D01*
X490630Y60161D01*
X490637Y60188D01*
X490649Y60195D01*
X490749Y61095D01*
X490742Y61106D01*
X490747Y61114D01*
X490547Y61814D01*
X490530Y61827D01*
X490530Y61839D01*
X490130Y62139D01*
X490110Y62139D01*
X490105Y62146D01*
X490103Y62146D01*
X490100Y62149D01*
X489400Y62149D01*
X489396Y62146D01*
X489393Y62149D01*
X488749Y62057D01*
X488749Y63400D01*
X488746Y63405D01*
X488749Y63408D01*
X488649Y64008D01*
X488633Y64023D01*
X488635Y64035D01*
X488235Y64435D01*
X488212Y64438D01*
X488206Y64449D01*
X487406Y64549D01*
X487394Y64542D01*
X487386Y64547D01*
X486686Y64347D01*
X486667Y64322D01*
X486654Y64318D01*
X486454Y63818D01*
X486458Y63805D01*
X486451Y63800D01*
X486451Y62420D01*
X486173Y62143D01*
X485584Y61947D01*
X485571Y61927D01*
X485558Y61925D01*
X485258Y61425D01*
X485258Y61421D01*
X485257Y61420D01*
X485259Y61418D01*
X485260Y61407D01*
X485251Y61400D01*
X485251Y60600D01*
X485254Y60595D01*
X485251Y60592D01*
X485351Y59992D01*
X485380Y59965D01*
X485383Y59954D01*
X486451Y59566D01*
X486451Y57500D01*
X486454Y57496D01*
X486451Y57493D01*
X486551Y56793D01*
X486559Y56785D01*
X486556Y56778D01*
X486856Y56178D01*
X486862Y56175D01*
X486861Y56170D01*
X487161Y55770D01*
X487174Y55767D01*
X487175Y55758D01*
X487675Y55458D01*
X487684Y55459D01*
X487686Y55453D01*
X488386Y55253D01*
X488396Y55256D01*
X488400Y55251D01*
X489800Y55251D01*
X489821Y55267D01*
G37*
G36*
X518004Y75254D02*
X518004Y75254D01*
X518007Y75251D01*
X518707Y75351D01*
X518715Y75359D01*
X518722Y75356D01*
X519322Y75656D01*
X519326Y75664D01*
X519332Y75662D01*
X519932Y76162D01*
X519935Y76179D01*
X519946Y76182D01*
X520146Y76682D01*
X520138Y76710D01*
X520144Y76722D01*
X519844Y77322D01*
X519837Y77326D01*
X519838Y77332D01*
X519338Y77932D01*
X519321Y77935D01*
X519318Y77946D01*
X518818Y78146D01*
X518790Y78138D01*
X518778Y78144D01*
X518182Y77846D01*
X517497Y77650D01*
X516924Y77746D01*
X516449Y78220D01*
X516449Y78892D01*
X516641Y79468D01*
X517215Y79851D01*
X517790Y79851D01*
X518481Y79555D01*
X518482Y79555D01*
X518482Y79554D01*
X518982Y79354D01*
X519013Y79363D01*
X519025Y79358D01*
X519525Y79658D01*
X519531Y79671D01*
X519540Y79671D01*
X520040Y80371D01*
X520040Y80387D01*
X520049Y80392D01*
X520149Y80992D01*
X520135Y81018D01*
X520138Y81031D01*
X519738Y81531D01*
X519728Y81533D01*
X519727Y81541D01*
X519127Y81941D01*
X519116Y81940D01*
X519114Y81947D01*
X518414Y82147D01*
X518409Y82146D01*
X518407Y82149D01*
X517707Y82249D01*
X517702Y82246D01*
X517700Y82249D01*
X517100Y82249D01*
X517093Y82244D01*
X517091Y82244D01*
X517086Y82247D01*
X516386Y82047D01*
X516385Y82046D01*
X516384Y82047D01*
X515784Y81847D01*
X515779Y81839D01*
X515773Y81841D01*
X515173Y81441D01*
X515169Y81431D01*
X515162Y81431D01*
X514762Y80931D01*
X514761Y80927D01*
X514759Y80927D01*
X514359Y80327D01*
X514360Y80318D01*
X514353Y80316D01*
X514153Y79716D01*
X514155Y79709D01*
X514151Y79707D01*
X514051Y79007D01*
X514054Y79002D01*
X514051Y79000D01*
X514051Y78300D01*
X514054Y78296D01*
X514051Y78293D01*
X514151Y77593D01*
X514159Y77585D01*
X514156Y77578D01*
X514456Y76978D01*
X514463Y76975D01*
X514462Y76969D01*
X514862Y76469D01*
X514866Y76468D01*
X514865Y76465D01*
X515365Y75965D01*
X515372Y75964D01*
X515373Y75959D01*
X515973Y75559D01*
X515984Y75560D01*
X515986Y75553D01*
X516686Y75353D01*
X516690Y75354D01*
X516692Y75351D01*
X517292Y75251D01*
X517297Y75254D01*
X517300Y75251D01*
X518000Y75251D01*
X518004Y75254D01*
G37*
G36*
X531007Y55256D02*
X531007Y55256D01*
X531012Y55252D01*
X531412Y55352D01*
X531434Y55379D01*
X531435Y55381D01*
X531447Y55384D01*
X531647Y55984D01*
X531643Y55995D01*
X531649Y56000D01*
X531649Y56900D01*
X531640Y56913D01*
X531644Y56922D01*
X531444Y57322D01*
X531418Y57335D01*
X531414Y57347D01*
X530730Y57543D01*
X530449Y57916D01*
X530449Y64700D01*
X530438Y64715D01*
X530442Y64725D01*
X530142Y65225D01*
X530118Y65235D01*
X530114Y65247D01*
X529414Y65447D01*
X529409Y65446D01*
X529397Y65446D01*
X529394Y65449D01*
X528594Y65349D01*
X528578Y65333D01*
X528565Y65335D01*
X528165Y64935D01*
X528164Y64922D01*
X528156Y64917D01*
X528160Y64912D01*
X528151Y64907D01*
X528051Y64207D01*
X528054Y64202D01*
X528051Y64200D01*
X528051Y58100D01*
X528054Y58096D01*
X528051Y58094D01*
X528151Y57294D01*
X528152Y57293D01*
X528151Y57293D01*
X528251Y56593D01*
X528253Y56592D01*
X528252Y56590D01*
X528352Y56090D01*
X528367Y56077D01*
X528365Y56065D01*
X528765Y55665D01*
X528777Y55664D01*
X528778Y55656D01*
X529378Y55356D01*
X529390Y55358D01*
X529395Y55351D01*
X530295Y55251D01*
X530298Y55253D01*
X530300Y55251D01*
X531000Y55251D01*
X531007Y55256D01*
G37*
G36*
X494409Y55258D02*
X494409Y55258D01*
X494416Y55253D01*
X495016Y55453D01*
X495029Y55473D01*
X495042Y55475D01*
X495342Y55975D01*
X495340Y55993D01*
X495349Y56000D01*
X495349Y61500D01*
X495338Y61515D01*
X495342Y61525D01*
X495042Y62025D01*
X495014Y62037D01*
X495007Y62049D01*
X494307Y62149D01*
X494302Y62146D01*
X494297Y62146D01*
X494294Y62149D01*
X493494Y62049D01*
X493478Y62033D01*
X493465Y62035D01*
X493065Y61635D01*
X493064Y61623D01*
X493057Y61617D01*
X493062Y61610D01*
X493062Y61608D01*
X493051Y61600D01*
X493051Y55700D01*
X493067Y55679D01*
X493065Y55665D01*
X493465Y55265D01*
X493492Y55262D01*
X493500Y55251D01*
X494400Y55251D01*
X494409Y55258D01*
G37*
%LPC*%
G36*
X480700Y96740D02*
X480700Y96740D01*
X480580Y96800D01*
X480565Y96804D01*
X480552Y96813D01*
X480418Y96839D01*
X480412Y96840D01*
X480411Y96840D01*
X480410Y96840D01*
X480300Y96840D01*
X480180Y96900D01*
X480165Y96904D01*
X480152Y96913D01*
X480018Y96939D01*
X480012Y96940D01*
X480011Y96940D01*
X480010Y96940D01*
X479900Y96940D01*
X479635Y97073D01*
X479579Y97129D01*
X479547Y97149D01*
X479480Y97200D01*
X479393Y97243D01*
X479350Y97330D01*
X479326Y97359D01*
X479279Y97429D01*
X479223Y97485D01*
X479190Y97550D01*
X479190Y97660D01*
X479182Y97697D01*
X479171Y97780D01*
X479090Y98022D01*
X479090Y98370D01*
X479150Y98490D01*
X479154Y98505D01*
X479163Y98518D01*
X479189Y98652D01*
X479190Y98659D01*
X479190Y98660D01*
X479190Y98770D01*
X479393Y99177D01*
X479480Y99220D01*
X479509Y99244D01*
X479579Y99291D01*
X479635Y99348D01*
X479947Y99503D01*
X479980Y99520D01*
X480009Y99544D01*
X480079Y99591D01*
X480135Y99648D01*
X480256Y99708D01*
X480472Y99780D01*
X480610Y99780D01*
X480625Y99783D01*
X480640Y99781D01*
X480772Y99818D01*
X480779Y99819D01*
X480779Y99820D01*
X480780Y99820D01*
X480900Y99880D01*
X481210Y99880D01*
X481247Y99888D01*
X481330Y99899D01*
X481572Y99980D01*
X481910Y99980D01*
X481947Y99988D01*
X482030Y99999D01*
X482272Y100080D01*
X482410Y100080D01*
X482425Y100083D01*
X482440Y100081D01*
X482572Y100118D01*
X482579Y100119D01*
X482579Y100120D01*
X482580Y100120D01*
X482700Y100180D01*
X483010Y100180D01*
X483025Y100183D01*
X483040Y100181D01*
X483172Y100218D01*
X483179Y100219D01*
X483179Y100220D01*
X483180Y100220D01*
X483268Y100264D01*
X483300Y100280D01*
X483410Y100280D01*
X483425Y100283D01*
X483440Y100281D01*
X483572Y100318D01*
X483579Y100319D01*
X483579Y100320D01*
X483580Y100320D01*
X483830Y100445D01*
X483830Y98822D01*
X483758Y98606D01*
X483670Y98430D01*
X483664Y98407D01*
X483649Y98380D01*
X483478Y97865D01*
X483341Y97729D01*
X483325Y97702D01*
X483294Y97671D01*
X483115Y97402D01*
X482968Y97256D01*
X482754Y97113D01*
X482418Y97029D01*
X482388Y97013D01*
X482340Y97000D01*
X482020Y96840D01*
X481610Y96840D01*
X481580Y96833D01*
X481535Y96833D01*
X481072Y96740D01*
X480700Y96740D01*
G37*
%LPD*%
%LPC*%
G36*
X521049Y60249D02*
X521049Y60249D01*
X521049Y62175D01*
X521416Y62451D01*
X522792Y62451D01*
X523368Y62259D01*
X523751Y61685D01*
X523751Y61017D01*
X523363Y60533D01*
X523080Y60249D01*
X521049Y60249D01*
G37*
%LPD*%
%LPC*%
G36*
X464849Y80349D02*
X464849Y80349D01*
X464849Y82275D01*
X465216Y82551D01*
X466588Y82551D01*
X467163Y82263D01*
X467451Y81688D01*
X467451Y81014D01*
X467168Y80542D01*
X466493Y80349D01*
X464849Y80349D01*
G37*
%LPD*%
%LPC*%
G36*
X444549Y60349D02*
X444549Y60349D01*
X444549Y62275D01*
X444916Y62551D01*
X446288Y62551D01*
X446863Y62263D01*
X447151Y61688D01*
X447151Y61017D01*
X446771Y60542D01*
X446192Y60349D01*
X444549Y60349D01*
G37*
%LPD*%
G36*
X494907Y63051D02*
X494907Y63051D01*
X494915Y63059D01*
X494922Y63056D01*
X495122Y63156D01*
X495132Y63177D01*
X495139Y63182D01*
X495147Y63184D01*
X495347Y63784D01*
X495343Y63795D01*
X495349Y63800D01*
X495349Y64500D01*
X495342Y64509D01*
X495347Y64516D01*
X495147Y65116D01*
X495120Y65134D01*
X495116Y65147D01*
X494516Y65347D01*
X494501Y65342D01*
X494495Y65349D01*
X493595Y65249D01*
X493584Y65239D01*
X493575Y65242D01*
X493075Y64942D01*
X493061Y64908D01*
X493051Y64900D01*
X493051Y63600D01*
X493065Y63582D01*
X493062Y63569D01*
X493462Y63069D01*
X493487Y63063D01*
X493493Y63051D01*
X494193Y62951D01*
X494202Y62956D01*
X494207Y62951D01*
X494907Y63051D01*
G37*
%LPC*%
G36*
X500217Y57649D02*
X500217Y57649D01*
X499739Y58032D01*
X499451Y58608D01*
X499547Y59280D01*
X499932Y59761D01*
X500512Y60051D01*
X501085Y60051D01*
X501659Y59668D01*
X501850Y59095D01*
X501753Y58320D01*
X501371Y57842D01*
X500792Y57649D01*
X500217Y57649D01*
G37*
%LPD*%
%LPC*%
G36*
X508312Y77649D02*
X508312Y77649D01*
X507726Y77942D01*
X507353Y78222D01*
X507448Y78885D01*
X507737Y79463D01*
X508312Y79751D01*
X508900Y79751D01*
X508933Y79776D01*
X508944Y79778D01*
X508958Y79806D01*
X508966Y79773D01*
X508965Y79765D01*
X509358Y79372D01*
X509647Y78698D01*
X509457Y78127D01*
X508980Y77649D01*
X508312Y77649D01*
G37*
%LPD*%
%LPC*%
G36*
X536712Y57649D02*
X536712Y57649D01*
X536126Y57942D01*
X535753Y58222D01*
X535848Y58885D01*
X536138Y59465D01*
X536614Y59751D01*
X537283Y59751D01*
X537757Y59371D01*
X537950Y58697D01*
X537854Y58124D01*
X537380Y57649D01*
X536712Y57649D01*
G37*
%LPD*%
%LPC*%
G36*
X454226Y59349D02*
X454226Y59349D01*
X454063Y59594D01*
X454527Y60057D01*
X455105Y60250D01*
X455763Y60156D01*
X455941Y59622D01*
X455486Y59349D01*
X454226Y59349D01*
G37*
%LPD*%
%LPC*%
G36*
X552626Y59349D02*
X552626Y59349D01*
X552463Y59594D01*
X552927Y60057D01*
X553505Y60250D01*
X554163Y60156D01*
X554341Y59622D01*
X553886Y59349D01*
X552626Y59349D01*
G37*
%LPD*%
%LPC*%
G36*
X470436Y59349D02*
X470436Y59349D01*
X470356Y59587D01*
X470827Y60057D01*
X471404Y60249D01*
X471967Y60156D01*
X472236Y59619D01*
X471786Y59349D01*
X470436Y59349D01*
G37*
%LPD*%
%LPC*%
G36*
X524826Y79349D02*
X524826Y79349D01*
X524666Y79590D01*
X525224Y80056D01*
X525804Y80249D01*
X526363Y80156D01*
X526542Y79618D01*
X526184Y79349D01*
X524826Y79349D01*
G37*
%LPD*%
M02*
