G04 EAGLE Gerber RS-274X export*
G75*
%MOMM*%
%FSLAX34Y34*%
%LPD*%
%INBottom Copper*%
%IPPOS*%
%AMOC8*
5,1,8,0,0,1.08239X$1,22.5*%
G01*
%ADD10C,0.203200*%


D10*
X584231Y26016D02*
X584231Y33991D01*
X580244Y33991D01*
X578915Y32662D01*
X578915Y31333D01*
X580244Y30003D01*
X578915Y28674D01*
X578915Y27345D01*
X580244Y26016D01*
X584231Y26016D01*
X584231Y30003D02*
X580244Y30003D01*
X573694Y33991D02*
X571036Y33991D01*
X573694Y33991D02*
X575023Y32662D01*
X575023Y27345D01*
X573694Y26016D01*
X571036Y26016D01*
X569707Y27345D01*
X569707Y32662D01*
X571036Y33991D01*
X563157Y33991D02*
X563157Y26016D01*
X565816Y33991D02*
X560499Y33991D01*
X553949Y33991D02*
X553949Y26016D01*
X556608Y33991D02*
X551291Y33991D01*
X546071Y33991D02*
X543412Y33991D01*
X546071Y33991D02*
X547400Y32662D01*
X547400Y27345D01*
X546071Y26016D01*
X543412Y26016D01*
X542083Y27345D01*
X542083Y32662D01*
X543412Y33991D01*
X538192Y33991D02*
X538192Y26016D01*
X535534Y31333D02*
X538192Y33991D01*
X535534Y31333D02*
X532875Y33991D01*
X532875Y26016D01*
X528984Y30003D02*
X523668Y30003D01*
X519776Y26016D02*
X519776Y33991D01*
X519776Y26016D02*
X514460Y26016D01*
X510568Y26016D02*
X510568Y31333D01*
X507910Y33991D01*
X505252Y31333D01*
X505252Y26016D01*
X505252Y30003D02*
X510568Y30003D01*
X501361Y32662D02*
X501361Y33991D01*
X501361Y32662D02*
X498702Y30003D01*
X496044Y32662D01*
X496044Y33991D01*
X498702Y30003D02*
X498702Y26016D01*
X492153Y33991D02*
X486836Y33991D01*
X492153Y33991D02*
X492153Y26016D01*
X486836Y26016D01*
X489495Y30003D02*
X492153Y30003D01*
X482945Y26016D02*
X482945Y33991D01*
X478958Y33991D01*
X477628Y32662D01*
X477628Y30003D01*
X478958Y28674D01*
X482945Y28674D01*
X480287Y28674D02*
X477628Y26016D01*
M02*
