G04 EAGLE Gerber RS-274X export*
G75*
%MOMM*%
%FSLAX34Y34*%
%LPD*%
%IN*%
%IPPOS*%
%AMOC8*
5,1,8,0,0,1.08239X$1,22.5*%
G01*
%ADD10C,0.050000*%
%ADD11C,0.000000*%
%ADD12C,0.254000*%


D10*
X0Y0D02*
X0Y580000D01*
X1000000Y580000D01*
X1000000Y0D01*
X0Y0D01*
D11*
X928300Y40000D02*
X928303Y40282D01*
X928314Y40564D01*
X928331Y40846D01*
X928355Y41127D01*
X928386Y41408D01*
X928424Y41687D01*
X928469Y41966D01*
X928521Y42244D01*
X928579Y42520D01*
X928645Y42794D01*
X928717Y43067D01*
X928795Y43338D01*
X928880Y43607D01*
X928972Y43874D01*
X929071Y44139D01*
X929175Y44401D01*
X929287Y44660D01*
X929404Y44917D01*
X929528Y45171D01*
X929658Y45421D01*
X929794Y45668D01*
X929936Y45912D01*
X930084Y46152D01*
X930238Y46389D01*
X930398Y46622D01*
X930563Y46851D01*
X930734Y47075D01*
X930910Y47296D01*
X931092Y47511D01*
X931279Y47723D01*
X931471Y47930D01*
X931668Y48132D01*
X931870Y48329D01*
X932077Y48521D01*
X932289Y48708D01*
X932504Y48890D01*
X932725Y49066D01*
X932949Y49237D01*
X933178Y49402D01*
X933411Y49562D01*
X933648Y49716D01*
X933888Y49864D01*
X934132Y50006D01*
X934379Y50142D01*
X934629Y50272D01*
X934883Y50396D01*
X935140Y50513D01*
X935399Y50625D01*
X935661Y50729D01*
X935926Y50828D01*
X936193Y50920D01*
X936462Y51005D01*
X936733Y51083D01*
X937006Y51155D01*
X937280Y51221D01*
X937556Y51279D01*
X937834Y51331D01*
X938113Y51376D01*
X938392Y51414D01*
X938673Y51445D01*
X938954Y51469D01*
X939236Y51486D01*
X939518Y51497D01*
X939800Y51500D01*
X940082Y51497D01*
X940364Y51486D01*
X940646Y51469D01*
X940927Y51445D01*
X941208Y51414D01*
X941487Y51376D01*
X941766Y51331D01*
X942044Y51279D01*
X942320Y51221D01*
X942594Y51155D01*
X942867Y51083D01*
X943138Y51005D01*
X943407Y50920D01*
X943674Y50828D01*
X943939Y50729D01*
X944201Y50625D01*
X944460Y50513D01*
X944717Y50396D01*
X944971Y50272D01*
X945221Y50142D01*
X945468Y50006D01*
X945712Y49864D01*
X945952Y49716D01*
X946189Y49562D01*
X946422Y49402D01*
X946651Y49237D01*
X946875Y49066D01*
X947096Y48890D01*
X947311Y48708D01*
X947523Y48521D01*
X947730Y48329D01*
X947932Y48132D01*
X948129Y47930D01*
X948321Y47723D01*
X948508Y47511D01*
X948690Y47296D01*
X948866Y47075D01*
X949037Y46851D01*
X949202Y46622D01*
X949362Y46389D01*
X949516Y46152D01*
X949664Y45912D01*
X949806Y45668D01*
X949942Y45421D01*
X950072Y45171D01*
X950196Y44917D01*
X950313Y44660D01*
X950425Y44401D01*
X950529Y44139D01*
X950628Y43874D01*
X950720Y43607D01*
X950805Y43338D01*
X950883Y43067D01*
X950955Y42794D01*
X951021Y42520D01*
X951079Y42244D01*
X951131Y41966D01*
X951176Y41687D01*
X951214Y41408D01*
X951245Y41127D01*
X951269Y40846D01*
X951286Y40564D01*
X951297Y40282D01*
X951300Y40000D01*
X951297Y39718D01*
X951286Y39436D01*
X951269Y39154D01*
X951245Y38873D01*
X951214Y38592D01*
X951176Y38313D01*
X951131Y38034D01*
X951079Y37756D01*
X951021Y37480D01*
X950955Y37206D01*
X950883Y36933D01*
X950805Y36662D01*
X950720Y36393D01*
X950628Y36126D01*
X950529Y35861D01*
X950425Y35599D01*
X950313Y35340D01*
X950196Y35083D01*
X950072Y34829D01*
X949942Y34579D01*
X949806Y34332D01*
X949664Y34088D01*
X949516Y33848D01*
X949362Y33611D01*
X949202Y33378D01*
X949037Y33149D01*
X948866Y32925D01*
X948690Y32704D01*
X948508Y32489D01*
X948321Y32277D01*
X948129Y32070D01*
X947932Y31868D01*
X947730Y31671D01*
X947523Y31479D01*
X947311Y31292D01*
X947096Y31110D01*
X946875Y30934D01*
X946651Y30763D01*
X946422Y30598D01*
X946189Y30438D01*
X945952Y30284D01*
X945712Y30136D01*
X945468Y29994D01*
X945221Y29858D01*
X944971Y29728D01*
X944717Y29604D01*
X944460Y29487D01*
X944201Y29375D01*
X943939Y29271D01*
X943674Y29172D01*
X943407Y29080D01*
X943138Y28995D01*
X942867Y28917D01*
X942594Y28845D01*
X942320Y28779D01*
X942044Y28721D01*
X941766Y28669D01*
X941487Y28624D01*
X941208Y28586D01*
X940927Y28555D01*
X940646Y28531D01*
X940364Y28514D01*
X940082Y28503D01*
X939800Y28500D01*
X939518Y28503D01*
X939236Y28514D01*
X938954Y28531D01*
X938673Y28555D01*
X938392Y28586D01*
X938113Y28624D01*
X937834Y28669D01*
X937556Y28721D01*
X937280Y28779D01*
X937006Y28845D01*
X936733Y28917D01*
X936462Y28995D01*
X936193Y29080D01*
X935926Y29172D01*
X935661Y29271D01*
X935399Y29375D01*
X935140Y29487D01*
X934883Y29604D01*
X934629Y29728D01*
X934379Y29858D01*
X934132Y29994D01*
X933888Y30136D01*
X933648Y30284D01*
X933411Y30438D01*
X933178Y30598D01*
X932949Y30763D01*
X932725Y30934D01*
X932504Y31110D01*
X932289Y31292D01*
X932077Y31479D01*
X931870Y31671D01*
X931668Y31868D01*
X931471Y32070D01*
X931279Y32277D01*
X931092Y32489D01*
X930910Y32704D01*
X930734Y32925D01*
X930563Y33149D01*
X930398Y33378D01*
X930238Y33611D01*
X930084Y33848D01*
X929936Y34088D01*
X929794Y34332D01*
X929658Y34579D01*
X929528Y34829D01*
X929404Y35083D01*
X929287Y35340D01*
X929175Y35599D01*
X929071Y35861D01*
X928972Y36126D01*
X928880Y36393D01*
X928795Y36662D01*
X928717Y36933D01*
X928645Y37206D01*
X928579Y37480D01*
X928521Y37756D01*
X928469Y38034D01*
X928424Y38313D01*
X928386Y38592D01*
X928355Y38873D01*
X928331Y39154D01*
X928314Y39436D01*
X928303Y39718D01*
X928300Y40000D01*
X89500Y40000D02*
X89503Y40282D01*
X89514Y40564D01*
X89531Y40846D01*
X89555Y41127D01*
X89586Y41408D01*
X89624Y41687D01*
X89669Y41966D01*
X89721Y42244D01*
X89779Y42520D01*
X89845Y42794D01*
X89917Y43067D01*
X89995Y43338D01*
X90080Y43607D01*
X90172Y43874D01*
X90271Y44139D01*
X90375Y44401D01*
X90487Y44660D01*
X90604Y44917D01*
X90728Y45171D01*
X90858Y45421D01*
X90994Y45668D01*
X91136Y45912D01*
X91284Y46152D01*
X91438Y46389D01*
X91598Y46622D01*
X91763Y46851D01*
X91934Y47075D01*
X92110Y47296D01*
X92292Y47511D01*
X92479Y47723D01*
X92671Y47930D01*
X92868Y48132D01*
X93070Y48329D01*
X93277Y48521D01*
X93489Y48708D01*
X93704Y48890D01*
X93925Y49066D01*
X94149Y49237D01*
X94378Y49402D01*
X94611Y49562D01*
X94848Y49716D01*
X95088Y49864D01*
X95332Y50006D01*
X95579Y50142D01*
X95829Y50272D01*
X96083Y50396D01*
X96340Y50513D01*
X96599Y50625D01*
X96861Y50729D01*
X97126Y50828D01*
X97393Y50920D01*
X97662Y51005D01*
X97933Y51083D01*
X98206Y51155D01*
X98480Y51221D01*
X98756Y51279D01*
X99034Y51331D01*
X99313Y51376D01*
X99592Y51414D01*
X99873Y51445D01*
X100154Y51469D01*
X100436Y51486D01*
X100718Y51497D01*
X101000Y51500D01*
X101282Y51497D01*
X101564Y51486D01*
X101846Y51469D01*
X102127Y51445D01*
X102408Y51414D01*
X102687Y51376D01*
X102966Y51331D01*
X103244Y51279D01*
X103520Y51221D01*
X103794Y51155D01*
X104067Y51083D01*
X104338Y51005D01*
X104607Y50920D01*
X104874Y50828D01*
X105139Y50729D01*
X105401Y50625D01*
X105660Y50513D01*
X105917Y50396D01*
X106171Y50272D01*
X106421Y50142D01*
X106668Y50006D01*
X106912Y49864D01*
X107152Y49716D01*
X107389Y49562D01*
X107622Y49402D01*
X107851Y49237D01*
X108075Y49066D01*
X108296Y48890D01*
X108511Y48708D01*
X108723Y48521D01*
X108930Y48329D01*
X109132Y48132D01*
X109329Y47930D01*
X109521Y47723D01*
X109708Y47511D01*
X109890Y47296D01*
X110066Y47075D01*
X110237Y46851D01*
X110402Y46622D01*
X110562Y46389D01*
X110716Y46152D01*
X110864Y45912D01*
X111006Y45668D01*
X111142Y45421D01*
X111272Y45171D01*
X111396Y44917D01*
X111513Y44660D01*
X111625Y44401D01*
X111729Y44139D01*
X111828Y43874D01*
X111920Y43607D01*
X112005Y43338D01*
X112083Y43067D01*
X112155Y42794D01*
X112221Y42520D01*
X112279Y42244D01*
X112331Y41966D01*
X112376Y41687D01*
X112414Y41408D01*
X112445Y41127D01*
X112469Y40846D01*
X112486Y40564D01*
X112497Y40282D01*
X112500Y40000D01*
X112497Y39718D01*
X112486Y39436D01*
X112469Y39154D01*
X112445Y38873D01*
X112414Y38592D01*
X112376Y38313D01*
X112331Y38034D01*
X112279Y37756D01*
X112221Y37480D01*
X112155Y37206D01*
X112083Y36933D01*
X112005Y36662D01*
X111920Y36393D01*
X111828Y36126D01*
X111729Y35861D01*
X111625Y35599D01*
X111513Y35340D01*
X111396Y35083D01*
X111272Y34829D01*
X111142Y34579D01*
X111006Y34332D01*
X110864Y34088D01*
X110716Y33848D01*
X110562Y33611D01*
X110402Y33378D01*
X110237Y33149D01*
X110066Y32925D01*
X109890Y32704D01*
X109708Y32489D01*
X109521Y32277D01*
X109329Y32070D01*
X109132Y31868D01*
X108930Y31671D01*
X108723Y31479D01*
X108511Y31292D01*
X108296Y31110D01*
X108075Y30934D01*
X107851Y30763D01*
X107622Y30598D01*
X107389Y30438D01*
X107152Y30284D01*
X106912Y30136D01*
X106668Y29994D01*
X106421Y29858D01*
X106171Y29728D01*
X105917Y29604D01*
X105660Y29487D01*
X105401Y29375D01*
X105139Y29271D01*
X104874Y29172D01*
X104607Y29080D01*
X104338Y28995D01*
X104067Y28917D01*
X103794Y28845D01*
X103520Y28779D01*
X103244Y28721D01*
X102966Y28669D01*
X102687Y28624D01*
X102408Y28586D01*
X102127Y28555D01*
X101846Y28531D01*
X101564Y28514D01*
X101282Y28503D01*
X101000Y28500D01*
X100718Y28503D01*
X100436Y28514D01*
X100154Y28531D01*
X99873Y28555D01*
X99592Y28586D01*
X99313Y28624D01*
X99034Y28669D01*
X98756Y28721D01*
X98480Y28779D01*
X98206Y28845D01*
X97933Y28917D01*
X97662Y28995D01*
X97393Y29080D01*
X97126Y29172D01*
X96861Y29271D01*
X96599Y29375D01*
X96340Y29487D01*
X96083Y29604D01*
X95829Y29728D01*
X95579Y29858D01*
X95332Y29994D01*
X95088Y30136D01*
X94848Y30284D01*
X94611Y30438D01*
X94378Y30598D01*
X94149Y30763D01*
X93925Y30934D01*
X93704Y31110D01*
X93489Y31292D01*
X93277Y31479D01*
X93070Y31671D01*
X92868Y31868D01*
X92671Y32070D01*
X92479Y32277D01*
X92292Y32489D01*
X92110Y32704D01*
X91934Y32925D01*
X91763Y33149D01*
X91598Y33378D01*
X91438Y33611D01*
X91284Y33848D01*
X91136Y34088D01*
X90994Y34332D01*
X90858Y34579D01*
X90728Y34829D01*
X90604Y35083D01*
X90487Y35340D01*
X90375Y35599D01*
X90271Y35861D01*
X90172Y36126D01*
X90080Y36393D01*
X89995Y36662D01*
X89917Y36933D01*
X89845Y37206D01*
X89779Y37480D01*
X89721Y37756D01*
X89669Y38034D01*
X89624Y38313D01*
X89586Y38592D01*
X89555Y38873D01*
X89531Y39154D01*
X89514Y39436D01*
X89503Y39718D01*
X89500Y40000D01*
X89500Y540000D02*
X89503Y540282D01*
X89514Y540564D01*
X89531Y540846D01*
X89555Y541127D01*
X89586Y541408D01*
X89624Y541687D01*
X89669Y541966D01*
X89721Y542244D01*
X89779Y542520D01*
X89845Y542794D01*
X89917Y543067D01*
X89995Y543338D01*
X90080Y543607D01*
X90172Y543874D01*
X90271Y544139D01*
X90375Y544401D01*
X90487Y544660D01*
X90604Y544917D01*
X90728Y545171D01*
X90858Y545421D01*
X90994Y545668D01*
X91136Y545912D01*
X91284Y546152D01*
X91438Y546389D01*
X91598Y546622D01*
X91763Y546851D01*
X91934Y547075D01*
X92110Y547296D01*
X92292Y547511D01*
X92479Y547723D01*
X92671Y547930D01*
X92868Y548132D01*
X93070Y548329D01*
X93277Y548521D01*
X93489Y548708D01*
X93704Y548890D01*
X93925Y549066D01*
X94149Y549237D01*
X94378Y549402D01*
X94611Y549562D01*
X94848Y549716D01*
X95088Y549864D01*
X95332Y550006D01*
X95579Y550142D01*
X95829Y550272D01*
X96083Y550396D01*
X96340Y550513D01*
X96599Y550625D01*
X96861Y550729D01*
X97126Y550828D01*
X97393Y550920D01*
X97662Y551005D01*
X97933Y551083D01*
X98206Y551155D01*
X98480Y551221D01*
X98756Y551279D01*
X99034Y551331D01*
X99313Y551376D01*
X99592Y551414D01*
X99873Y551445D01*
X100154Y551469D01*
X100436Y551486D01*
X100718Y551497D01*
X101000Y551500D01*
X101282Y551497D01*
X101564Y551486D01*
X101846Y551469D01*
X102127Y551445D01*
X102408Y551414D01*
X102687Y551376D01*
X102966Y551331D01*
X103244Y551279D01*
X103520Y551221D01*
X103794Y551155D01*
X104067Y551083D01*
X104338Y551005D01*
X104607Y550920D01*
X104874Y550828D01*
X105139Y550729D01*
X105401Y550625D01*
X105660Y550513D01*
X105917Y550396D01*
X106171Y550272D01*
X106421Y550142D01*
X106668Y550006D01*
X106912Y549864D01*
X107152Y549716D01*
X107389Y549562D01*
X107622Y549402D01*
X107851Y549237D01*
X108075Y549066D01*
X108296Y548890D01*
X108511Y548708D01*
X108723Y548521D01*
X108930Y548329D01*
X109132Y548132D01*
X109329Y547930D01*
X109521Y547723D01*
X109708Y547511D01*
X109890Y547296D01*
X110066Y547075D01*
X110237Y546851D01*
X110402Y546622D01*
X110562Y546389D01*
X110716Y546152D01*
X110864Y545912D01*
X111006Y545668D01*
X111142Y545421D01*
X111272Y545171D01*
X111396Y544917D01*
X111513Y544660D01*
X111625Y544401D01*
X111729Y544139D01*
X111828Y543874D01*
X111920Y543607D01*
X112005Y543338D01*
X112083Y543067D01*
X112155Y542794D01*
X112221Y542520D01*
X112279Y542244D01*
X112331Y541966D01*
X112376Y541687D01*
X112414Y541408D01*
X112445Y541127D01*
X112469Y540846D01*
X112486Y540564D01*
X112497Y540282D01*
X112500Y540000D01*
X112497Y539718D01*
X112486Y539436D01*
X112469Y539154D01*
X112445Y538873D01*
X112414Y538592D01*
X112376Y538313D01*
X112331Y538034D01*
X112279Y537756D01*
X112221Y537480D01*
X112155Y537206D01*
X112083Y536933D01*
X112005Y536662D01*
X111920Y536393D01*
X111828Y536126D01*
X111729Y535861D01*
X111625Y535599D01*
X111513Y535340D01*
X111396Y535083D01*
X111272Y534829D01*
X111142Y534579D01*
X111006Y534332D01*
X110864Y534088D01*
X110716Y533848D01*
X110562Y533611D01*
X110402Y533378D01*
X110237Y533149D01*
X110066Y532925D01*
X109890Y532704D01*
X109708Y532489D01*
X109521Y532277D01*
X109329Y532070D01*
X109132Y531868D01*
X108930Y531671D01*
X108723Y531479D01*
X108511Y531292D01*
X108296Y531110D01*
X108075Y530934D01*
X107851Y530763D01*
X107622Y530598D01*
X107389Y530438D01*
X107152Y530284D01*
X106912Y530136D01*
X106668Y529994D01*
X106421Y529858D01*
X106171Y529728D01*
X105917Y529604D01*
X105660Y529487D01*
X105401Y529375D01*
X105139Y529271D01*
X104874Y529172D01*
X104607Y529080D01*
X104338Y528995D01*
X104067Y528917D01*
X103794Y528845D01*
X103520Y528779D01*
X103244Y528721D01*
X102966Y528669D01*
X102687Y528624D01*
X102408Y528586D01*
X102127Y528555D01*
X101846Y528531D01*
X101564Y528514D01*
X101282Y528503D01*
X101000Y528500D01*
X100718Y528503D01*
X100436Y528514D01*
X100154Y528531D01*
X99873Y528555D01*
X99592Y528586D01*
X99313Y528624D01*
X99034Y528669D01*
X98756Y528721D01*
X98480Y528779D01*
X98206Y528845D01*
X97933Y528917D01*
X97662Y528995D01*
X97393Y529080D01*
X97126Y529172D01*
X96861Y529271D01*
X96599Y529375D01*
X96340Y529487D01*
X96083Y529604D01*
X95829Y529728D01*
X95579Y529858D01*
X95332Y529994D01*
X95088Y530136D01*
X94848Y530284D01*
X94611Y530438D01*
X94378Y530598D01*
X94149Y530763D01*
X93925Y530934D01*
X93704Y531110D01*
X93489Y531292D01*
X93277Y531479D01*
X93070Y531671D01*
X92868Y531868D01*
X92671Y532070D01*
X92479Y532277D01*
X92292Y532489D01*
X92110Y532704D01*
X91934Y532925D01*
X91763Y533149D01*
X91598Y533378D01*
X91438Y533611D01*
X91284Y533848D01*
X91136Y534088D01*
X90994Y534332D01*
X90858Y534579D01*
X90728Y534829D01*
X90604Y535083D01*
X90487Y535340D01*
X90375Y535599D01*
X90271Y535861D01*
X90172Y536126D01*
X90080Y536393D01*
X89995Y536662D01*
X89917Y536933D01*
X89845Y537206D01*
X89779Y537480D01*
X89721Y537756D01*
X89669Y538034D01*
X89624Y538313D01*
X89586Y538592D01*
X89555Y538873D01*
X89531Y539154D01*
X89514Y539436D01*
X89503Y539718D01*
X89500Y540000D01*
X928300Y540000D02*
X928303Y540282D01*
X928314Y540564D01*
X928331Y540846D01*
X928355Y541127D01*
X928386Y541408D01*
X928424Y541687D01*
X928469Y541966D01*
X928521Y542244D01*
X928579Y542520D01*
X928645Y542794D01*
X928717Y543067D01*
X928795Y543338D01*
X928880Y543607D01*
X928972Y543874D01*
X929071Y544139D01*
X929175Y544401D01*
X929287Y544660D01*
X929404Y544917D01*
X929528Y545171D01*
X929658Y545421D01*
X929794Y545668D01*
X929936Y545912D01*
X930084Y546152D01*
X930238Y546389D01*
X930398Y546622D01*
X930563Y546851D01*
X930734Y547075D01*
X930910Y547296D01*
X931092Y547511D01*
X931279Y547723D01*
X931471Y547930D01*
X931668Y548132D01*
X931870Y548329D01*
X932077Y548521D01*
X932289Y548708D01*
X932504Y548890D01*
X932725Y549066D01*
X932949Y549237D01*
X933178Y549402D01*
X933411Y549562D01*
X933648Y549716D01*
X933888Y549864D01*
X934132Y550006D01*
X934379Y550142D01*
X934629Y550272D01*
X934883Y550396D01*
X935140Y550513D01*
X935399Y550625D01*
X935661Y550729D01*
X935926Y550828D01*
X936193Y550920D01*
X936462Y551005D01*
X936733Y551083D01*
X937006Y551155D01*
X937280Y551221D01*
X937556Y551279D01*
X937834Y551331D01*
X938113Y551376D01*
X938392Y551414D01*
X938673Y551445D01*
X938954Y551469D01*
X939236Y551486D01*
X939518Y551497D01*
X939800Y551500D01*
X940082Y551497D01*
X940364Y551486D01*
X940646Y551469D01*
X940927Y551445D01*
X941208Y551414D01*
X941487Y551376D01*
X941766Y551331D01*
X942044Y551279D01*
X942320Y551221D01*
X942594Y551155D01*
X942867Y551083D01*
X943138Y551005D01*
X943407Y550920D01*
X943674Y550828D01*
X943939Y550729D01*
X944201Y550625D01*
X944460Y550513D01*
X944717Y550396D01*
X944971Y550272D01*
X945221Y550142D01*
X945468Y550006D01*
X945712Y549864D01*
X945952Y549716D01*
X946189Y549562D01*
X946422Y549402D01*
X946651Y549237D01*
X946875Y549066D01*
X947096Y548890D01*
X947311Y548708D01*
X947523Y548521D01*
X947730Y548329D01*
X947932Y548132D01*
X948129Y547930D01*
X948321Y547723D01*
X948508Y547511D01*
X948690Y547296D01*
X948866Y547075D01*
X949037Y546851D01*
X949202Y546622D01*
X949362Y546389D01*
X949516Y546152D01*
X949664Y545912D01*
X949806Y545668D01*
X949942Y545421D01*
X950072Y545171D01*
X950196Y544917D01*
X950313Y544660D01*
X950425Y544401D01*
X950529Y544139D01*
X950628Y543874D01*
X950720Y543607D01*
X950805Y543338D01*
X950883Y543067D01*
X950955Y542794D01*
X951021Y542520D01*
X951079Y542244D01*
X951131Y541966D01*
X951176Y541687D01*
X951214Y541408D01*
X951245Y541127D01*
X951269Y540846D01*
X951286Y540564D01*
X951297Y540282D01*
X951300Y540000D01*
X951297Y539718D01*
X951286Y539436D01*
X951269Y539154D01*
X951245Y538873D01*
X951214Y538592D01*
X951176Y538313D01*
X951131Y538034D01*
X951079Y537756D01*
X951021Y537480D01*
X950955Y537206D01*
X950883Y536933D01*
X950805Y536662D01*
X950720Y536393D01*
X950628Y536126D01*
X950529Y535861D01*
X950425Y535599D01*
X950313Y535340D01*
X950196Y535083D01*
X950072Y534829D01*
X949942Y534579D01*
X949806Y534332D01*
X949664Y534088D01*
X949516Y533848D01*
X949362Y533611D01*
X949202Y533378D01*
X949037Y533149D01*
X948866Y532925D01*
X948690Y532704D01*
X948508Y532489D01*
X948321Y532277D01*
X948129Y532070D01*
X947932Y531868D01*
X947730Y531671D01*
X947523Y531479D01*
X947311Y531292D01*
X947096Y531110D01*
X946875Y530934D01*
X946651Y530763D01*
X946422Y530598D01*
X946189Y530438D01*
X945952Y530284D01*
X945712Y530136D01*
X945468Y529994D01*
X945221Y529858D01*
X944971Y529728D01*
X944717Y529604D01*
X944460Y529487D01*
X944201Y529375D01*
X943939Y529271D01*
X943674Y529172D01*
X943407Y529080D01*
X943138Y528995D01*
X942867Y528917D01*
X942594Y528845D01*
X942320Y528779D01*
X942044Y528721D01*
X941766Y528669D01*
X941487Y528624D01*
X941208Y528586D01*
X940927Y528555D01*
X940646Y528531D01*
X940364Y528514D01*
X940082Y528503D01*
X939800Y528500D01*
X939518Y528503D01*
X939236Y528514D01*
X938954Y528531D01*
X938673Y528555D01*
X938392Y528586D01*
X938113Y528624D01*
X937834Y528669D01*
X937556Y528721D01*
X937280Y528779D01*
X937006Y528845D01*
X936733Y528917D01*
X936462Y528995D01*
X936193Y529080D01*
X935926Y529172D01*
X935661Y529271D01*
X935399Y529375D01*
X935140Y529487D01*
X934883Y529604D01*
X934629Y529728D01*
X934379Y529858D01*
X934132Y529994D01*
X933888Y530136D01*
X933648Y530284D01*
X933411Y530438D01*
X933178Y530598D01*
X932949Y530763D01*
X932725Y530934D01*
X932504Y531110D01*
X932289Y531292D01*
X932077Y531479D01*
X931870Y531671D01*
X931668Y531868D01*
X931471Y532070D01*
X931279Y532277D01*
X931092Y532489D01*
X930910Y532704D01*
X930734Y532925D01*
X930563Y533149D01*
X930398Y533378D01*
X930238Y533611D01*
X930084Y533848D01*
X929936Y534088D01*
X929794Y534332D01*
X929658Y534579D01*
X929528Y534829D01*
X929404Y535083D01*
X929287Y535340D01*
X929175Y535599D01*
X929071Y535861D01*
X928972Y536126D01*
X928880Y536393D01*
X928795Y536662D01*
X928717Y536933D01*
X928645Y537206D01*
X928579Y537480D01*
X928521Y537756D01*
X928469Y538034D01*
X928424Y538313D01*
X928386Y538592D01*
X928355Y538873D01*
X928331Y539154D01*
X928314Y539436D01*
X928303Y539718D01*
X928300Y540000D01*
D12*
X0Y0D02*
X1000000Y0D01*
X1000000Y580000D01*
X0Y580000D01*
X0Y0D01*
X951300Y39548D02*
X951229Y38647D01*
X951088Y37755D01*
X950877Y36876D01*
X950598Y36017D01*
X950252Y35182D01*
X949841Y34377D01*
X949369Y33606D01*
X948838Y32875D01*
X948251Y32188D01*
X947612Y31549D01*
X946925Y30962D01*
X946194Y30431D01*
X945423Y29959D01*
X944618Y29548D01*
X943783Y29202D01*
X942924Y28923D01*
X942045Y28712D01*
X941153Y28571D01*
X940252Y28500D01*
X939348Y28500D01*
X938447Y28571D01*
X937555Y28712D01*
X936676Y28923D01*
X935817Y29202D01*
X934982Y29548D01*
X934177Y29959D01*
X933406Y30431D01*
X932675Y30962D01*
X931988Y31549D01*
X931349Y32188D01*
X930762Y32875D01*
X930231Y33606D01*
X929759Y34377D01*
X929348Y35182D01*
X929002Y36017D01*
X928723Y36876D01*
X928512Y37755D01*
X928371Y38647D01*
X928300Y39548D01*
X928300Y40452D01*
X928371Y41353D01*
X928512Y42245D01*
X928723Y43124D01*
X929002Y43983D01*
X929348Y44818D01*
X929759Y45623D01*
X930231Y46394D01*
X930762Y47125D01*
X931349Y47812D01*
X931988Y48451D01*
X932675Y49038D01*
X933406Y49569D01*
X934177Y50041D01*
X934982Y50452D01*
X935817Y50798D01*
X936676Y51077D01*
X937555Y51288D01*
X938447Y51429D01*
X939348Y51500D01*
X940252Y51500D01*
X941153Y51429D01*
X942045Y51288D01*
X942924Y51077D01*
X943783Y50798D01*
X944618Y50452D01*
X945423Y50041D01*
X946194Y49569D01*
X946925Y49038D01*
X947612Y48451D01*
X948251Y47812D01*
X948838Y47125D01*
X949369Y46394D01*
X949841Y45623D01*
X950252Y44818D01*
X950598Y43983D01*
X950877Y43124D01*
X951088Y42245D01*
X951229Y41353D01*
X951300Y40452D01*
X951300Y39548D01*
X112500Y39548D02*
X112429Y38647D01*
X112288Y37755D01*
X112077Y36876D01*
X111798Y36017D01*
X111452Y35182D01*
X111041Y34377D01*
X110569Y33606D01*
X110038Y32875D01*
X109451Y32188D01*
X108812Y31549D01*
X108125Y30962D01*
X107394Y30431D01*
X106623Y29959D01*
X105818Y29548D01*
X104983Y29202D01*
X104124Y28923D01*
X103245Y28712D01*
X102353Y28571D01*
X101452Y28500D01*
X100548Y28500D01*
X99647Y28571D01*
X98755Y28712D01*
X97876Y28923D01*
X97017Y29202D01*
X96182Y29548D01*
X95377Y29959D01*
X94606Y30431D01*
X93875Y30962D01*
X93188Y31549D01*
X92549Y32188D01*
X91962Y32875D01*
X91431Y33606D01*
X90959Y34377D01*
X90548Y35182D01*
X90202Y36017D01*
X89923Y36876D01*
X89712Y37755D01*
X89571Y38647D01*
X89500Y39548D01*
X89500Y40452D01*
X89571Y41353D01*
X89712Y42245D01*
X89923Y43124D01*
X90202Y43983D01*
X90548Y44818D01*
X90959Y45623D01*
X91431Y46394D01*
X91962Y47125D01*
X92549Y47812D01*
X93188Y48451D01*
X93875Y49038D01*
X94606Y49569D01*
X95377Y50041D01*
X96182Y50452D01*
X97017Y50798D01*
X97876Y51077D01*
X98755Y51288D01*
X99647Y51429D01*
X100548Y51500D01*
X101452Y51500D01*
X102353Y51429D01*
X103245Y51288D01*
X104124Y51077D01*
X104983Y50798D01*
X105818Y50452D01*
X106623Y50041D01*
X107394Y49569D01*
X108125Y49038D01*
X108812Y48451D01*
X109451Y47812D01*
X110038Y47125D01*
X110569Y46394D01*
X111041Y45623D01*
X111452Y44818D01*
X111798Y43983D01*
X112077Y43124D01*
X112288Y42245D01*
X112429Y41353D01*
X112500Y40452D01*
X112500Y39548D01*
X112500Y539548D02*
X112429Y538647D01*
X112288Y537755D01*
X112077Y536876D01*
X111798Y536017D01*
X111452Y535182D01*
X111041Y534377D01*
X110569Y533606D01*
X110038Y532875D01*
X109451Y532188D01*
X108812Y531549D01*
X108125Y530962D01*
X107394Y530431D01*
X106623Y529959D01*
X105818Y529548D01*
X104983Y529202D01*
X104124Y528923D01*
X103245Y528712D01*
X102353Y528571D01*
X101452Y528500D01*
X100548Y528500D01*
X99647Y528571D01*
X98755Y528712D01*
X97876Y528923D01*
X97017Y529202D01*
X96182Y529548D01*
X95377Y529959D01*
X94606Y530431D01*
X93875Y530962D01*
X93188Y531549D01*
X92549Y532188D01*
X91962Y532875D01*
X91431Y533606D01*
X90959Y534377D01*
X90548Y535182D01*
X90202Y536017D01*
X89923Y536876D01*
X89712Y537755D01*
X89571Y538647D01*
X89500Y539548D01*
X89500Y540452D01*
X89571Y541353D01*
X89712Y542245D01*
X89923Y543124D01*
X90202Y543983D01*
X90548Y544818D01*
X90959Y545623D01*
X91431Y546394D01*
X91962Y547125D01*
X92549Y547812D01*
X93188Y548451D01*
X93875Y549038D01*
X94606Y549569D01*
X95377Y550041D01*
X96182Y550452D01*
X97017Y550798D01*
X97876Y551077D01*
X98755Y551288D01*
X99647Y551429D01*
X100548Y551500D01*
X101452Y551500D01*
X102353Y551429D01*
X103245Y551288D01*
X104124Y551077D01*
X104983Y550798D01*
X105818Y550452D01*
X106623Y550041D01*
X107394Y549569D01*
X108125Y549038D01*
X108812Y548451D01*
X109451Y547812D01*
X110038Y547125D01*
X110569Y546394D01*
X111041Y545623D01*
X111452Y544818D01*
X111798Y543983D01*
X112077Y543124D01*
X112288Y542245D01*
X112429Y541353D01*
X112500Y540452D01*
X112500Y539548D01*
X951300Y539548D02*
X951229Y538647D01*
X951088Y537755D01*
X950877Y536876D01*
X950598Y536017D01*
X950252Y535182D01*
X949841Y534377D01*
X949369Y533606D01*
X948838Y532875D01*
X948251Y532188D01*
X947612Y531549D01*
X946925Y530962D01*
X946194Y530431D01*
X945423Y529959D01*
X944618Y529548D01*
X943783Y529202D01*
X942924Y528923D01*
X942045Y528712D01*
X941153Y528571D01*
X940252Y528500D01*
X939348Y528500D01*
X938447Y528571D01*
X937555Y528712D01*
X936676Y528923D01*
X935817Y529202D01*
X934982Y529548D01*
X934177Y529959D01*
X933406Y530431D01*
X932675Y530962D01*
X931988Y531549D01*
X931349Y532188D01*
X930762Y532875D01*
X930231Y533606D01*
X929759Y534377D01*
X929348Y535182D01*
X929002Y536017D01*
X928723Y536876D01*
X928512Y537755D01*
X928371Y538647D01*
X928300Y539548D01*
X928300Y540452D01*
X928371Y541353D01*
X928512Y542245D01*
X928723Y543124D01*
X929002Y543983D01*
X929348Y544818D01*
X929759Y545623D01*
X930231Y546394D01*
X930762Y547125D01*
X931349Y547812D01*
X931988Y548451D01*
X932675Y549038D01*
X933406Y549569D01*
X934177Y550041D01*
X934982Y550452D01*
X935817Y550798D01*
X936676Y551077D01*
X937555Y551288D01*
X938447Y551429D01*
X939348Y551500D01*
X940252Y551500D01*
X941153Y551429D01*
X942045Y551288D01*
X942924Y551077D01*
X943783Y550798D01*
X944618Y550452D01*
X945423Y550041D01*
X946194Y549569D01*
X946925Y549038D01*
X947612Y548451D01*
X948251Y547812D01*
X948838Y547125D01*
X949369Y546394D01*
X949841Y545623D01*
X950252Y544818D01*
X950598Y543983D01*
X950877Y543124D01*
X951088Y542245D01*
X951229Y541353D01*
X951300Y540452D01*
X951300Y539548D01*
M02*
