G04 EAGLE Gerber RS-274X export*
G75*
%MOMM*%
%FSLAX34Y34*%
%LPD*%
%INTop Copper*%
%IPPOS*%
%AMOC8*
5,1,8,0,0,1.08239X$1,22.5*%
G01*
%ADD10C,0.203200*%


D10*
X516983Y11359D02*
X519695Y5936D01*
X522407Y11359D01*
X526338Y11359D02*
X529050Y14071D01*
X529050Y5936D01*
X526338Y5936D02*
X531762Y5936D01*
X535694Y7292D02*
X535694Y12715D01*
X537049Y14071D01*
X539761Y14071D01*
X541117Y12715D01*
X541117Y7292D01*
X539761Y5936D01*
X537049Y5936D01*
X535694Y7292D01*
X541117Y12715D01*
X462239Y26016D02*
X462239Y33991D01*
X459581Y33991D02*
X464897Y33991D01*
X470118Y33991D02*
X472776Y33991D01*
X470118Y33991D02*
X468788Y32662D01*
X468788Y27345D01*
X470118Y26016D01*
X472776Y26016D01*
X474105Y27345D01*
X474105Y32662D01*
X472776Y33991D01*
X477996Y33991D02*
X477996Y26016D01*
X477996Y33991D02*
X481984Y33991D01*
X483313Y32662D01*
X483313Y30003D01*
X481984Y28674D01*
X477996Y28674D01*
X487204Y30003D02*
X492521Y30003D01*
X496412Y33991D02*
X496412Y26016D01*
X501729Y26016D01*
X505620Y26016D02*
X505620Y31333D01*
X508278Y33991D01*
X510936Y31333D01*
X510936Y26016D01*
X510936Y30003D02*
X505620Y30003D01*
X514828Y32662D02*
X514828Y33991D01*
X514828Y32662D02*
X517486Y30003D01*
X520144Y32662D01*
X520144Y33991D01*
X517486Y30003D02*
X517486Y26016D01*
X524036Y33991D02*
X529352Y33991D01*
X524036Y33991D02*
X524036Y26016D01*
X529352Y26016D01*
X526694Y30003D02*
X524036Y30003D01*
X533243Y26016D02*
X533243Y33991D01*
X537231Y33991D01*
X538560Y32662D01*
X538560Y30003D01*
X537231Y28674D01*
X533243Y28674D01*
X535902Y28674D02*
X538560Y26016D01*
M02*
