G04 EAGLE Gerber RS-274X export*
G75*
%MOMM*%
%FSLAX34Y34*%
%LPD*%
%INBottom Copper*%
%IPPOS*%
%AMOC8*
5,1,8,0,0,1.08239X$1,22.5*%
G01*
%ADD10C,0.203200*%


D10*
X554231Y26016D02*
X554231Y33991D01*
X550244Y33991D01*
X548915Y32662D01*
X548915Y31333D01*
X550244Y30003D01*
X548915Y28674D01*
X548915Y27345D01*
X550244Y26016D01*
X554231Y26016D01*
X554231Y30003D02*
X550244Y30003D01*
X543694Y33991D02*
X541036Y33991D01*
X543694Y33991D02*
X545023Y32662D01*
X545023Y27345D01*
X543694Y26016D01*
X541036Y26016D01*
X539707Y27345D01*
X539707Y32662D01*
X541036Y33991D01*
X533157Y33991D02*
X533157Y26016D01*
X535816Y33991D02*
X530499Y33991D01*
X523949Y33991D02*
X523949Y26016D01*
X526608Y33991D02*
X521291Y33991D01*
X516071Y33991D02*
X513412Y33991D01*
X516071Y33991D02*
X517400Y32662D01*
X517400Y27345D01*
X516071Y26016D01*
X513412Y26016D01*
X512083Y27345D01*
X512083Y32662D01*
X513412Y33991D01*
X508192Y33991D02*
X508192Y26016D01*
X505534Y31333D02*
X508192Y33991D01*
X505534Y31333D02*
X502875Y33991D01*
X502875Y26016D01*
X498984Y30003D02*
X493668Y30003D01*
X489776Y26016D02*
X489776Y33991D01*
X489776Y26016D02*
X484460Y26016D01*
X480568Y26016D02*
X480568Y31333D01*
X477910Y33991D01*
X475252Y31333D01*
X475252Y26016D01*
X475252Y30003D02*
X480568Y30003D01*
X471361Y32662D02*
X471361Y33991D01*
X471361Y32662D02*
X468702Y30003D01*
X466044Y32662D01*
X466044Y33991D01*
X468702Y30003D02*
X468702Y26016D01*
X462153Y33991D02*
X456836Y33991D01*
X462153Y33991D02*
X462153Y26016D01*
X456836Y26016D01*
X459495Y30003D02*
X462153Y30003D01*
X452945Y26016D02*
X452945Y33991D01*
X448958Y33991D01*
X447628Y32662D01*
X447628Y30003D01*
X448958Y28674D01*
X452945Y28674D01*
X450287Y28674D02*
X447628Y26016D01*
M02*
