G04 EAGLE Gerber RS-274X export*
G75*
%MOMM*%
%FSLAX34Y34*%
%LPD*%
%INInner Layer 15*%
%IPPOS*%
%AMOC8*
5,1,8,0,0,1.08239X$1,22.5*%
G01*
%ADD10C,1.524000*%
%ADD11C,0.352400*%
%ADD12C,0.127000*%
%ADD13C,0.457200*%
%ADD14C,0.304800*%

G36*
X597484Y1778D02*
X597484Y1778D01*
X597503Y1776D01*
X597605Y1798D01*
X597707Y1814D01*
X597724Y1824D01*
X597744Y1828D01*
X597833Y1881D01*
X597924Y1930D01*
X597938Y1944D01*
X597955Y1954D01*
X598022Y2033D01*
X598094Y2108D01*
X598102Y2126D01*
X598115Y2141D01*
X598154Y2237D01*
X598197Y2331D01*
X598199Y2351D01*
X598207Y2369D01*
X598225Y2536D01*
X598225Y400000D01*
X598222Y400020D01*
X598224Y400039D01*
X598202Y400141D01*
X598186Y400243D01*
X598176Y400260D01*
X598172Y400280D01*
X598119Y400369D01*
X598070Y400460D01*
X598056Y400474D01*
X598046Y400491D01*
X597967Y400558D01*
X597892Y400630D01*
X597874Y400638D01*
X597859Y400651D01*
X597763Y400690D01*
X597669Y400733D01*
X597649Y400735D01*
X597631Y400743D01*
X597464Y400761D01*
X2536Y400761D01*
X2516Y400758D01*
X2497Y400760D01*
X2395Y400738D01*
X2293Y400722D01*
X2276Y400712D01*
X2256Y400708D01*
X2167Y400655D01*
X2076Y400606D01*
X2062Y400592D01*
X2045Y400582D01*
X1978Y400503D01*
X1906Y400428D01*
X1898Y400410D01*
X1885Y400395D01*
X1846Y400299D01*
X1803Y400205D01*
X1801Y400185D01*
X1793Y400167D01*
X1775Y400000D01*
X1775Y66397D01*
X1778Y66377D01*
X1776Y66358D01*
X1798Y66256D01*
X1814Y66154D01*
X1824Y66137D01*
X1828Y66117D01*
X1881Y66028D01*
X1930Y65937D01*
X1944Y65923D01*
X1954Y65906D01*
X2033Y65839D01*
X2108Y65767D01*
X2126Y65759D01*
X2141Y65746D01*
X2237Y65707D01*
X2331Y65664D01*
X2351Y65662D01*
X2369Y65654D01*
X2536Y65636D01*
X72952Y65636D01*
X72972Y65639D01*
X72991Y65637D01*
X73093Y65659D01*
X73195Y65675D01*
X73212Y65685D01*
X73232Y65689D01*
X73321Y65742D01*
X73412Y65791D01*
X73426Y65805D01*
X73443Y65815D01*
X73510Y65894D01*
X73582Y65969D01*
X73590Y65987D01*
X73603Y66002D01*
X73642Y66098D01*
X73685Y66192D01*
X73687Y66212D01*
X73695Y66230D01*
X73709Y66357D01*
X73728Y66376D01*
X73781Y66450D01*
X73841Y66520D01*
X73853Y66550D01*
X73872Y66576D01*
X73899Y66663D01*
X73933Y66748D01*
X73937Y66789D01*
X73944Y66811D01*
X73943Y66843D01*
X73951Y66915D01*
X73951Y81465D01*
X73940Y81536D01*
X73938Y81608D01*
X73920Y81657D01*
X73912Y81708D01*
X73878Y81771D01*
X73853Y81839D01*
X73821Y81879D01*
X73796Y81925D01*
X73744Y81975D01*
X73700Y82031D01*
X73656Y82059D01*
X73618Y82095D01*
X73553Y82125D01*
X73493Y82164D01*
X73442Y82177D01*
X73395Y82198D01*
X73324Y82206D01*
X73254Y82224D01*
X73202Y82220D01*
X73151Y82226D01*
X73080Y82210D01*
X73009Y82205D01*
X72961Y82184D01*
X72910Y82173D01*
X72849Y82136D01*
X72783Y82108D01*
X72727Y82064D01*
X72699Y82047D01*
X72684Y82029D01*
X72652Y82004D01*
X71361Y80713D01*
X68639Y80713D01*
X66713Y82639D01*
X66713Y85361D01*
X67617Y86265D01*
X67670Y86339D01*
X67730Y86409D01*
X67742Y86439D01*
X67761Y86465D01*
X67788Y86552D01*
X67822Y86637D01*
X67826Y86678D01*
X67833Y86700D01*
X67832Y86732D01*
X67840Y86804D01*
X67840Y212196D01*
X67826Y212286D01*
X67818Y212377D01*
X67806Y212407D01*
X67801Y212439D01*
X67758Y212520D01*
X67722Y212604D01*
X67696Y212636D01*
X67685Y212656D01*
X67662Y212679D01*
X67617Y212735D01*
X66713Y213639D01*
X66713Y216361D01*
X68639Y218287D01*
X71361Y218287D01*
X71541Y218107D01*
X71599Y218066D01*
X71651Y218016D01*
X71698Y217994D01*
X71740Y217964D01*
X71809Y217943D01*
X71874Y217913D01*
X71926Y217907D01*
X71976Y217891D01*
X72047Y217893D01*
X72118Y217885D01*
X72169Y217897D01*
X72221Y217898D01*
X72289Y217922D01*
X72359Y217938D01*
X72404Y217964D01*
X72452Y217982D01*
X72508Y218027D01*
X72570Y218064D01*
X72604Y218103D01*
X72644Y218136D01*
X72683Y218196D01*
X72730Y218251D01*
X72749Y218299D01*
X72777Y218343D01*
X72795Y218412D01*
X72822Y218479D01*
X72830Y218550D01*
X72838Y218581D01*
X72836Y218605D01*
X72840Y218646D01*
X72840Y222196D01*
X72826Y222286D01*
X72818Y222377D01*
X72806Y222407D01*
X72801Y222439D01*
X72758Y222520D01*
X72722Y222604D01*
X72696Y222636D01*
X72685Y222656D01*
X72662Y222679D01*
X72617Y222735D01*
X71713Y223639D01*
X71713Y226361D01*
X73024Y227672D01*
X73035Y227688D01*
X73051Y227701D01*
X73107Y227788D01*
X73167Y227872D01*
X73173Y227891D01*
X73184Y227908D01*
X73209Y228008D01*
X73240Y228107D01*
X73239Y228127D01*
X73244Y228146D01*
X73236Y228249D01*
X73233Y228353D01*
X73227Y228372D01*
X73225Y228391D01*
X73185Y228486D01*
X73149Y228584D01*
X73136Y228599D01*
X73129Y228618D01*
X73024Y228749D01*
X66951Y234821D01*
X66951Y328085D01*
X66937Y328175D01*
X66929Y328266D01*
X66917Y328296D01*
X66912Y328328D01*
X66869Y328409D01*
X66833Y328493D01*
X66807Y328525D01*
X66796Y328545D01*
X66773Y328568D01*
X66728Y328624D01*
X66713Y328639D01*
X66713Y331361D01*
X68639Y333287D01*
X71361Y333287D01*
X73287Y331361D01*
X73287Y328639D01*
X73272Y328624D01*
X73219Y328550D01*
X73159Y328480D01*
X73147Y328450D01*
X73128Y328424D01*
X73101Y328337D01*
X73067Y328252D01*
X73063Y328211D01*
X73056Y328189D01*
X73057Y328157D01*
X73049Y328085D01*
X73049Y237662D01*
X73063Y237572D01*
X73071Y237481D01*
X73083Y237451D01*
X73088Y237419D01*
X73131Y237339D01*
X73167Y237255D01*
X73193Y237223D01*
X73204Y237202D01*
X73227Y237180D01*
X73272Y237124D01*
X82351Y228045D01*
X82351Y157955D01*
X80272Y155876D01*
X80219Y155802D01*
X80159Y155733D01*
X80147Y155703D01*
X80128Y155676D01*
X80101Y155589D01*
X80067Y155505D01*
X80063Y155464D01*
X80056Y155441D01*
X80057Y155409D01*
X80049Y155338D01*
X80049Y66915D01*
X80063Y66825D01*
X80071Y66734D01*
X80083Y66704D01*
X80088Y66672D01*
X80131Y66591D01*
X80167Y66507D01*
X80193Y66475D01*
X80204Y66455D01*
X80227Y66432D01*
X80272Y66376D01*
X80288Y66360D01*
X80288Y66358D01*
X80310Y66256D01*
X80326Y66154D01*
X80336Y66137D01*
X80340Y66117D01*
X80393Y66028D01*
X80442Y65937D01*
X80456Y65923D01*
X80466Y65906D01*
X80545Y65839D01*
X80620Y65767D01*
X80638Y65759D01*
X80653Y65746D01*
X80749Y65707D01*
X80843Y65664D01*
X80863Y65662D01*
X80881Y65654D01*
X81048Y65636D01*
X267808Y65636D01*
X267828Y65639D01*
X267847Y65637D01*
X267949Y65659D01*
X268051Y65675D01*
X268068Y65685D01*
X268088Y65689D01*
X268177Y65742D01*
X268268Y65791D01*
X268282Y65805D01*
X268299Y65815D01*
X268366Y65894D01*
X268438Y65969D01*
X268446Y65987D01*
X268459Y66002D01*
X268498Y66098D01*
X268541Y66192D01*
X268543Y66212D01*
X268551Y66230D01*
X268569Y66397D01*
X268569Y74735D01*
X270030Y76196D01*
X270083Y76270D01*
X270143Y76339D01*
X270155Y76369D01*
X270174Y76396D01*
X270201Y76483D01*
X270235Y76567D01*
X270239Y76608D01*
X270246Y76631D01*
X270245Y76663D01*
X270253Y76734D01*
X270253Y101952D01*
X270250Y101972D01*
X270252Y101991D01*
X270230Y102093D01*
X270214Y102195D01*
X270204Y102212D01*
X270200Y102232D01*
X270147Y102321D01*
X270098Y102412D01*
X270084Y102426D01*
X270074Y102443D01*
X269995Y102510D01*
X269920Y102582D01*
X269902Y102590D01*
X269887Y102603D01*
X269791Y102642D01*
X269697Y102685D01*
X269677Y102687D01*
X269659Y102695D01*
X269492Y102713D01*
X267639Y102713D01*
X267538Y102814D01*
X267522Y102825D01*
X267510Y102841D01*
X267439Y102886D01*
X267410Y102911D01*
X267394Y102917D01*
X267339Y102957D01*
X267320Y102963D01*
X267303Y102974D01*
X267202Y102999D01*
X267104Y103029D01*
X267084Y103029D01*
X267064Y103034D01*
X266961Y103026D01*
X266858Y103023D01*
X266839Y103016D01*
X266819Y103015D01*
X266724Y102974D01*
X266627Y102939D01*
X266611Y102926D01*
X266593Y102918D01*
X266534Y102871D01*
X266524Y102866D01*
X266514Y102856D01*
X266462Y102814D01*
X265361Y101713D01*
X262639Y101713D01*
X260713Y103639D01*
X260713Y104511D01*
X260699Y104601D01*
X260691Y104692D01*
X260679Y104722D01*
X260674Y104754D01*
X260631Y104834D01*
X260595Y104918D01*
X260569Y104950D01*
X260558Y104971D01*
X260535Y104993D01*
X260490Y105049D01*
X260141Y105398D01*
X260141Y313952D01*
X260138Y313972D01*
X260140Y313991D01*
X260118Y314093D01*
X260102Y314195D01*
X260092Y314212D01*
X260088Y314232D01*
X260035Y314321D01*
X259986Y314412D01*
X259972Y314426D01*
X259962Y314443D01*
X259883Y314510D01*
X259808Y314582D01*
X259790Y314590D01*
X259775Y314603D01*
X259679Y314642D01*
X259585Y314685D01*
X259565Y314687D01*
X259547Y314695D01*
X259380Y314713D01*
X256639Y314713D01*
X254713Y316639D01*
X254713Y319361D01*
X256639Y321287D01*
X257952Y321287D01*
X257972Y321290D01*
X257991Y321288D01*
X258093Y321310D01*
X258195Y321326D01*
X258212Y321336D01*
X258232Y321340D01*
X258321Y321393D01*
X258412Y321442D01*
X258426Y321456D01*
X258443Y321466D01*
X258510Y321545D01*
X258582Y321620D01*
X258590Y321638D01*
X258603Y321653D01*
X258642Y321749D01*
X258685Y321843D01*
X258687Y321863D01*
X258695Y321881D01*
X258713Y322048D01*
X258713Y322488D01*
X260639Y324414D01*
X263079Y324414D01*
X263099Y324417D01*
X263118Y324415D01*
X263220Y324437D01*
X263322Y324453D01*
X263339Y324463D01*
X263359Y324467D01*
X263448Y324520D01*
X263539Y324569D01*
X263553Y324583D01*
X263570Y324593D01*
X263637Y324672D01*
X263709Y324747D01*
X263717Y324765D01*
X263730Y324780D01*
X263769Y324876D01*
X263812Y324970D01*
X263814Y324990D01*
X263822Y325008D01*
X263840Y325175D01*
X263840Y327196D01*
X263826Y327286D01*
X263818Y327377D01*
X263806Y327407D01*
X263801Y327439D01*
X263758Y327520D01*
X263722Y327604D01*
X263696Y327636D01*
X263685Y327656D01*
X263662Y327679D01*
X263617Y327735D01*
X262713Y328639D01*
X262713Y331361D01*
X264639Y333287D01*
X267361Y333287D01*
X269287Y331361D01*
X269287Y328639D01*
X268383Y327735D01*
X268330Y327661D01*
X268270Y327591D01*
X268258Y327561D01*
X268239Y327535D01*
X268212Y327448D01*
X268178Y327363D01*
X268174Y327322D01*
X268167Y327300D01*
X268168Y327268D01*
X268160Y327196D01*
X268160Y317932D01*
X266970Y316742D01*
X266917Y316668D01*
X266857Y316599D01*
X266845Y316569D01*
X266826Y316542D01*
X266799Y316455D01*
X266765Y316371D01*
X266761Y316330D01*
X266754Y316307D01*
X266755Y316275D01*
X266747Y316204D01*
X266747Y259048D01*
X266748Y259040D01*
X266748Y259038D01*
X266750Y259028D01*
X266748Y259009D01*
X266770Y258907D01*
X266786Y258805D01*
X266796Y258788D01*
X266800Y258768D01*
X266853Y258679D01*
X266902Y258588D01*
X266916Y258574D01*
X266926Y258557D01*
X267005Y258490D01*
X267080Y258418D01*
X267098Y258410D01*
X267113Y258397D01*
X267209Y258358D01*
X267303Y258315D01*
X267323Y258313D01*
X267341Y258305D01*
X267508Y258287D01*
X269365Y258287D01*
X269374Y258276D01*
X269461Y258220D01*
X269545Y258159D01*
X269564Y258154D01*
X269581Y258143D01*
X269681Y258117D01*
X269780Y258087D01*
X269800Y258088D01*
X269819Y258083D01*
X269922Y258091D01*
X270026Y258093D01*
X270045Y258100D01*
X270065Y258102D01*
X270159Y258142D01*
X270257Y258178D01*
X270273Y258190D01*
X270291Y258198D01*
X270422Y258303D01*
X271617Y259498D01*
X271670Y259572D01*
X271730Y259642D01*
X271742Y259672D01*
X271761Y259698D01*
X271788Y259785D01*
X271822Y259870D01*
X271826Y259911D01*
X271833Y259933D01*
X271832Y259965D01*
X271840Y260037D01*
X271840Y263196D01*
X271826Y263286D01*
X271818Y263377D01*
X271806Y263407D01*
X271801Y263439D01*
X271758Y263520D01*
X271722Y263604D01*
X271696Y263636D01*
X271685Y263656D01*
X271662Y263679D01*
X271617Y263735D01*
X270713Y264639D01*
X270713Y267361D01*
X272639Y269287D01*
X275361Y269287D01*
X277287Y267361D01*
X277287Y264639D01*
X276383Y263735D01*
X276330Y263661D01*
X276270Y263591D01*
X276258Y263561D01*
X276239Y263535D01*
X276212Y263448D01*
X276178Y263363D01*
X276174Y263322D01*
X276167Y263300D01*
X276168Y263268D01*
X276160Y263196D01*
X276160Y258804D01*
X276174Y258714D01*
X276182Y258623D01*
X276194Y258593D01*
X276199Y258561D01*
X276242Y258480D01*
X276278Y258396D01*
X276304Y258364D01*
X276315Y258344D01*
X276338Y258321D01*
X276383Y258265D01*
X276962Y257686D01*
X276978Y257675D01*
X276990Y257659D01*
X277078Y257603D01*
X277161Y257543D01*
X277180Y257537D01*
X277197Y257526D01*
X277298Y257501D01*
X277397Y257471D01*
X277416Y257471D01*
X277436Y257466D01*
X277539Y257474D01*
X277642Y257477D01*
X277661Y257484D01*
X277681Y257485D01*
X277776Y257526D01*
X277873Y257561D01*
X277889Y257574D01*
X277907Y257582D01*
X278038Y257686D01*
X278639Y258287D01*
X281361Y258287D01*
X281962Y257686D01*
X281978Y257675D01*
X281990Y257659D01*
X282078Y257603D01*
X282161Y257543D01*
X282180Y257537D01*
X282197Y257526D01*
X282298Y257501D01*
X282397Y257471D01*
X282416Y257471D01*
X282436Y257466D01*
X282539Y257474D01*
X282642Y257477D01*
X282661Y257484D01*
X282681Y257485D01*
X282776Y257526D01*
X282873Y257561D01*
X282889Y257574D01*
X282907Y257582D01*
X283038Y257686D01*
X283639Y258287D01*
X286361Y258287D01*
X288287Y256361D01*
X288287Y253639D01*
X287383Y252735D01*
X287336Y252670D01*
X287321Y252654D01*
X287318Y252647D01*
X287270Y252591D01*
X287258Y252561D01*
X287239Y252535D01*
X287212Y252448D01*
X287178Y252363D01*
X287174Y252322D01*
X287167Y252300D01*
X287168Y252268D01*
X287160Y252196D01*
X287160Y244646D01*
X287171Y244575D01*
X287173Y244503D01*
X287191Y244454D01*
X287199Y244403D01*
X287233Y244340D01*
X287258Y244272D01*
X287290Y244232D01*
X287315Y244186D01*
X287366Y244136D01*
X287411Y244080D01*
X287455Y244052D01*
X287493Y244016D01*
X287558Y243986D01*
X287618Y243947D01*
X287669Y243934D01*
X287716Y243913D01*
X287787Y243905D01*
X287857Y243887D01*
X287909Y243891D01*
X287960Y243885D01*
X288031Y243901D01*
X288102Y243906D01*
X288150Y243927D01*
X288201Y243938D01*
X288262Y243975D01*
X288328Y244003D01*
X288384Y244047D01*
X288412Y244064D01*
X288427Y244082D01*
X288459Y244107D01*
X288639Y244287D01*
X289227Y244287D01*
X289298Y244298D01*
X289370Y244300D01*
X289419Y244318D01*
X289470Y244326D01*
X289533Y244360D01*
X289601Y244385D01*
X289641Y244417D01*
X289687Y244442D01*
X289737Y244494D01*
X289793Y244538D01*
X289821Y244582D01*
X289857Y244620D01*
X289887Y244685D01*
X289926Y244745D01*
X289939Y244796D01*
X289960Y244843D01*
X289968Y244914D01*
X289986Y244984D01*
X289982Y245036D01*
X289988Y245087D01*
X289972Y245158D01*
X289967Y245229D01*
X289946Y245277D01*
X289935Y245328D01*
X289898Y245389D01*
X289870Y245455D01*
X289826Y245511D01*
X289809Y245539D01*
X289791Y245554D01*
X289766Y245586D01*
X288713Y246639D01*
X288713Y249361D01*
X289617Y250265D01*
X289670Y250339D01*
X289730Y250409D01*
X289742Y250439D01*
X289761Y250465D01*
X289788Y250552D01*
X289822Y250637D01*
X289826Y250678D01*
X289833Y250700D01*
X289832Y250732D01*
X289840Y250804D01*
X289840Y264354D01*
X289829Y264425D01*
X289827Y264497D01*
X289809Y264546D01*
X289801Y264597D01*
X289767Y264660D01*
X289742Y264728D01*
X289710Y264768D01*
X289685Y264814D01*
X289633Y264864D01*
X289589Y264920D01*
X289545Y264948D01*
X289507Y264984D01*
X289442Y265014D01*
X289382Y265053D01*
X289331Y265066D01*
X289284Y265087D01*
X289213Y265095D01*
X289143Y265113D01*
X289091Y265109D01*
X289040Y265115D01*
X288969Y265099D01*
X288898Y265094D01*
X288850Y265073D01*
X288799Y265062D01*
X288738Y265025D01*
X288672Y264997D01*
X288616Y264953D01*
X288588Y264936D01*
X288573Y264918D01*
X288541Y264893D01*
X287361Y263713D01*
X284639Y263713D01*
X282713Y265639D01*
X282713Y268361D01*
X284639Y270287D01*
X287361Y270287D01*
X288541Y269107D01*
X288599Y269066D01*
X288651Y269016D01*
X288698Y268994D01*
X288740Y268964D01*
X288809Y268943D01*
X288874Y268913D01*
X288926Y268907D01*
X288976Y268891D01*
X289047Y268893D01*
X289118Y268885D01*
X289169Y268897D01*
X289221Y268898D01*
X289289Y268922D01*
X289359Y268938D01*
X289404Y268964D01*
X289452Y268982D01*
X289508Y269027D01*
X289570Y269064D01*
X289604Y269103D01*
X289644Y269136D01*
X289683Y269196D01*
X289730Y269251D01*
X289749Y269299D01*
X289777Y269343D01*
X289795Y269412D01*
X289822Y269479D01*
X289830Y269550D01*
X289838Y269581D01*
X289836Y269605D01*
X289840Y269646D01*
X289840Y273354D01*
X289829Y273425D01*
X289827Y273497D01*
X289809Y273546D01*
X289801Y273597D01*
X289767Y273660D01*
X289742Y273728D01*
X289710Y273768D01*
X289685Y273814D01*
X289633Y273864D01*
X289589Y273920D01*
X289545Y273948D01*
X289507Y273984D01*
X289442Y274014D01*
X289382Y274053D01*
X289331Y274066D01*
X289284Y274087D01*
X289213Y274095D01*
X289143Y274113D01*
X289091Y274109D01*
X289040Y274115D01*
X288969Y274099D01*
X288898Y274094D01*
X288850Y274073D01*
X288799Y274062D01*
X288738Y274025D01*
X288672Y273997D01*
X288616Y273953D01*
X288588Y273936D01*
X288573Y273918D01*
X288541Y273893D01*
X287361Y272713D01*
X284639Y272713D01*
X282713Y274639D01*
X282713Y277361D01*
X284639Y279287D01*
X287361Y279287D01*
X288541Y278107D01*
X288599Y278066D01*
X288651Y278016D01*
X288698Y277994D01*
X288740Y277964D01*
X288809Y277943D01*
X288874Y277913D01*
X288926Y277907D01*
X288976Y277891D01*
X289047Y277893D01*
X289118Y277885D01*
X289169Y277897D01*
X289221Y277898D01*
X289289Y277922D01*
X289359Y277938D01*
X289404Y277964D01*
X289452Y277982D01*
X289508Y278027D01*
X289570Y278064D01*
X289604Y278103D01*
X289644Y278136D01*
X289683Y278196D01*
X289730Y278251D01*
X289749Y278299D01*
X289777Y278343D01*
X289795Y278412D01*
X289822Y278479D01*
X289830Y278550D01*
X289838Y278581D01*
X289836Y278605D01*
X289840Y278646D01*
X289840Y296354D01*
X289829Y296425D01*
X289827Y296497D01*
X289809Y296546D01*
X289801Y296597D01*
X289767Y296660D01*
X289742Y296728D01*
X289710Y296768D01*
X289685Y296814D01*
X289634Y296864D01*
X289589Y296920D01*
X289545Y296948D01*
X289507Y296984D01*
X289442Y297014D01*
X289382Y297053D01*
X289331Y297066D01*
X289284Y297087D01*
X289213Y297095D01*
X289143Y297113D01*
X289091Y297109D01*
X289040Y297115D01*
X288969Y297099D01*
X288898Y297094D01*
X288850Y297073D01*
X288799Y297062D01*
X288738Y297025D01*
X288672Y296997D01*
X288616Y296953D01*
X288588Y296936D01*
X288573Y296918D01*
X288541Y296893D01*
X288361Y296713D01*
X285639Y296713D01*
X283713Y298639D01*
X283713Y301361D01*
X285639Y303287D01*
X288361Y303287D01*
X288541Y303107D01*
X288599Y303066D01*
X288651Y303016D01*
X288698Y302994D01*
X288740Y302964D01*
X288809Y302943D01*
X288874Y302913D01*
X288926Y302907D01*
X288976Y302891D01*
X289047Y302893D01*
X289118Y302885D01*
X289169Y302897D01*
X289221Y302898D01*
X289289Y302922D01*
X289359Y302938D01*
X289404Y302964D01*
X289452Y302982D01*
X289508Y303027D01*
X289570Y303064D01*
X289604Y303103D01*
X289644Y303136D01*
X289683Y303196D01*
X289730Y303251D01*
X289749Y303299D01*
X289777Y303343D01*
X289795Y303412D01*
X289822Y303479D01*
X289830Y303550D01*
X289838Y303581D01*
X289836Y303605D01*
X289840Y303646D01*
X289840Y348790D01*
X289826Y348880D01*
X289818Y348971D01*
X289806Y349001D01*
X289801Y349033D01*
X289758Y349114D01*
X289722Y349197D01*
X289696Y349230D01*
X289685Y349250D01*
X289662Y349272D01*
X289617Y349328D01*
X257840Y381105D01*
X257840Y390609D01*
X257826Y390699D01*
X257818Y390790D01*
X257806Y390820D01*
X257801Y390852D01*
X257758Y390933D01*
X257722Y391017D01*
X257696Y391049D01*
X257685Y391069D01*
X257662Y391092D01*
X257617Y391148D01*
X256713Y392052D01*
X256713Y394774D01*
X258639Y396700D01*
X261361Y396700D01*
X263287Y394774D01*
X263287Y392052D01*
X262383Y391148D01*
X262330Y391074D01*
X262270Y391004D01*
X262258Y390974D01*
X262239Y390948D01*
X262212Y390861D01*
X262178Y390776D01*
X262174Y390735D01*
X262167Y390713D01*
X262168Y390681D01*
X262160Y390609D01*
X262160Y383210D01*
X262174Y383120D01*
X262182Y383029D01*
X262194Y382999D01*
X262199Y382967D01*
X262242Y382886D01*
X262278Y382803D01*
X262304Y382770D01*
X262315Y382750D01*
X262338Y382728D01*
X262383Y382672D01*
X266541Y378514D01*
X266599Y378472D01*
X266651Y378422D01*
X266698Y378400D01*
X266740Y378370D01*
X266809Y378349D01*
X266874Y378319D01*
X266926Y378313D01*
X266976Y378298D01*
X267047Y378300D01*
X267118Y378292D01*
X267169Y378303D01*
X267221Y378304D01*
X267289Y378329D01*
X267359Y378344D01*
X267404Y378371D01*
X267452Y378388D01*
X267508Y378433D01*
X267570Y378470D01*
X267604Y378510D01*
X267644Y378542D01*
X267683Y378602D01*
X267730Y378657D01*
X267749Y378705D01*
X267777Y378749D01*
X267795Y378819D01*
X267822Y378885D01*
X267830Y378956D01*
X267838Y378988D01*
X267836Y379011D01*
X267840Y379052D01*
X267840Y387196D01*
X267826Y387286D01*
X267818Y387377D01*
X267806Y387407D01*
X267801Y387439D01*
X267758Y387520D01*
X267722Y387604D01*
X267696Y387636D01*
X267685Y387656D01*
X267662Y387679D01*
X267617Y387735D01*
X266713Y388639D01*
X266713Y391361D01*
X268639Y393287D01*
X271361Y393287D01*
X273287Y391361D01*
X273287Y388639D01*
X272383Y387735D01*
X272330Y387661D01*
X272270Y387591D01*
X272258Y387561D01*
X272239Y387535D01*
X272212Y387448D01*
X272178Y387363D01*
X272174Y387322D01*
X272167Y387300D01*
X272168Y387268D01*
X272160Y387196D01*
X272160Y378210D01*
X272174Y378120D01*
X272182Y378029D01*
X272194Y377999D01*
X272199Y377967D01*
X272242Y377886D01*
X272278Y377803D01*
X272304Y377770D01*
X272315Y377750D01*
X272338Y377728D01*
X272383Y377672D01*
X299160Y350895D01*
X299160Y258804D01*
X299174Y258714D01*
X299182Y258623D01*
X299194Y258593D01*
X299199Y258561D01*
X299242Y258480D01*
X299278Y258396D01*
X299304Y258364D01*
X299315Y258344D01*
X299338Y258321D01*
X299383Y258265D01*
X300287Y257361D01*
X300287Y254639D01*
X298361Y252713D01*
X295639Y252713D01*
X295459Y252893D01*
X295401Y252934D01*
X295349Y252984D01*
X295302Y253006D01*
X295260Y253036D01*
X295191Y253057D01*
X295126Y253087D01*
X295074Y253093D01*
X295024Y253109D01*
X294953Y253107D01*
X294882Y253115D01*
X294831Y253103D01*
X294779Y253102D01*
X294711Y253078D01*
X294641Y253062D01*
X294596Y253036D01*
X294548Y253018D01*
X294492Y252973D01*
X294430Y252936D01*
X294396Y252897D01*
X294356Y252864D01*
X294317Y252804D01*
X294270Y252749D01*
X294251Y252701D01*
X294223Y252657D01*
X294205Y252588D01*
X294178Y252521D01*
X294170Y252450D01*
X294162Y252419D01*
X294164Y252395D01*
X294160Y252354D01*
X294160Y250804D01*
X294174Y250714D01*
X294182Y250623D01*
X294194Y250593D01*
X294199Y250561D01*
X294242Y250480D01*
X294278Y250396D01*
X294304Y250364D01*
X294315Y250344D01*
X294338Y250321D01*
X294383Y250265D01*
X295287Y249361D01*
X295287Y246639D01*
X293361Y244713D01*
X292773Y244713D01*
X292702Y244702D01*
X292630Y244700D01*
X292581Y244682D01*
X292530Y244674D01*
X292467Y244640D01*
X292399Y244615D01*
X292359Y244583D01*
X292313Y244558D01*
X292263Y244506D01*
X292207Y244462D01*
X292179Y244418D01*
X292143Y244380D01*
X292113Y244315D01*
X292074Y244255D01*
X292061Y244204D01*
X292040Y244157D01*
X292032Y244086D01*
X292014Y244016D01*
X292018Y243964D01*
X292012Y243913D01*
X292028Y243842D01*
X292033Y243771D01*
X292054Y243723D01*
X292065Y243672D01*
X292102Y243611D01*
X292130Y243545D01*
X292174Y243489D01*
X292191Y243461D01*
X292209Y243446D01*
X292234Y243414D01*
X293287Y242361D01*
X293287Y239639D01*
X292383Y238735D01*
X292330Y238661D01*
X292270Y238591D01*
X292258Y238561D01*
X292239Y238535D01*
X292212Y238448D01*
X292178Y238363D01*
X292174Y238322D01*
X292167Y238300D01*
X292168Y238268D01*
X292160Y238196D01*
X292160Y192804D01*
X292174Y192714D01*
X292182Y192623D01*
X292194Y192593D01*
X292199Y192561D01*
X292242Y192480D01*
X292278Y192396D01*
X292304Y192364D01*
X292315Y192344D01*
X292338Y192321D01*
X292383Y192265D01*
X293287Y191361D01*
X293287Y188639D01*
X291361Y186713D01*
X288639Y186713D01*
X288459Y186893D01*
X288401Y186934D01*
X288349Y186984D01*
X288302Y187006D01*
X288260Y187036D01*
X288191Y187057D01*
X288126Y187087D01*
X288074Y187093D01*
X288024Y187109D01*
X287953Y187107D01*
X287882Y187115D01*
X287831Y187103D01*
X287779Y187102D01*
X287711Y187078D01*
X287641Y187062D01*
X287596Y187036D01*
X287548Y187018D01*
X287492Y186973D01*
X287430Y186936D01*
X287396Y186897D01*
X287356Y186864D01*
X287317Y186804D01*
X287270Y186749D01*
X287251Y186701D01*
X287223Y186657D01*
X287205Y186588D01*
X287178Y186521D01*
X287170Y186450D01*
X287162Y186419D01*
X287164Y186395D01*
X287160Y186354D01*
X287160Y150646D01*
X287171Y150575D01*
X287173Y150503D01*
X287191Y150454D01*
X287199Y150403D01*
X287233Y150340D01*
X287258Y150272D01*
X287290Y150232D01*
X287315Y150186D01*
X287367Y150136D01*
X287411Y150080D01*
X287455Y150052D01*
X287493Y150016D01*
X287558Y149986D01*
X287618Y149947D01*
X287669Y149934D01*
X287716Y149913D01*
X287787Y149905D01*
X287857Y149887D01*
X287909Y149891D01*
X287960Y149885D01*
X288031Y149901D01*
X288102Y149906D01*
X288150Y149927D01*
X288201Y149938D01*
X288262Y149975D01*
X288328Y150003D01*
X288384Y150047D01*
X288412Y150064D01*
X288427Y150082D01*
X288459Y150107D01*
X289639Y151287D01*
X292361Y151287D01*
X294287Y149361D01*
X294287Y146639D01*
X292361Y144713D01*
X289639Y144713D01*
X288459Y145893D01*
X288401Y145934D01*
X288349Y145984D01*
X288302Y146006D01*
X288260Y146036D01*
X288191Y146057D01*
X288126Y146087D01*
X288074Y146093D01*
X288024Y146109D01*
X287953Y146107D01*
X287882Y146115D01*
X287831Y146103D01*
X287779Y146102D01*
X287711Y146078D01*
X287641Y146062D01*
X287596Y146036D01*
X287548Y146018D01*
X287492Y145973D01*
X287430Y145936D01*
X287396Y145897D01*
X287356Y145864D01*
X287317Y145804D01*
X287270Y145749D01*
X287251Y145701D01*
X287223Y145657D01*
X287205Y145588D01*
X287178Y145521D01*
X287170Y145450D01*
X287162Y145419D01*
X287164Y145395D01*
X287160Y145354D01*
X287160Y116646D01*
X287171Y116575D01*
X287173Y116503D01*
X287191Y116454D01*
X287199Y116403D01*
X287233Y116340D01*
X287258Y116272D01*
X287290Y116232D01*
X287315Y116186D01*
X287366Y116136D01*
X287411Y116080D01*
X287455Y116052D01*
X287493Y116016D01*
X287558Y115986D01*
X287618Y115947D01*
X287669Y115934D01*
X287716Y115913D01*
X287787Y115905D01*
X287857Y115887D01*
X287909Y115891D01*
X287960Y115885D01*
X288031Y115901D01*
X288102Y115906D01*
X288150Y115927D01*
X288201Y115938D01*
X288262Y115975D01*
X288328Y116003D01*
X288384Y116047D01*
X288412Y116064D01*
X288427Y116082D01*
X288459Y116107D01*
X288639Y116287D01*
X291361Y116287D01*
X293287Y114361D01*
X293287Y111639D01*
X291361Y109713D01*
X288639Y109713D01*
X288459Y109893D01*
X288401Y109934D01*
X288349Y109984D01*
X288302Y110006D01*
X288260Y110036D01*
X288191Y110057D01*
X288126Y110087D01*
X288074Y110093D01*
X288024Y110109D01*
X287953Y110107D01*
X287882Y110115D01*
X287831Y110103D01*
X287779Y110102D01*
X287711Y110078D01*
X287641Y110062D01*
X287596Y110036D01*
X287548Y110018D01*
X287492Y109973D01*
X287430Y109936D01*
X287396Y109897D01*
X287356Y109864D01*
X287317Y109804D01*
X287270Y109749D01*
X287251Y109701D01*
X287223Y109657D01*
X287205Y109588D01*
X287178Y109521D01*
X287170Y109450D01*
X287162Y109419D01*
X287164Y109395D01*
X287160Y109354D01*
X287160Y104037D01*
X287174Y103947D01*
X287182Y103856D01*
X287194Y103826D01*
X287199Y103794D01*
X287242Y103713D01*
X287278Y103629D01*
X287304Y103597D01*
X287315Y103577D01*
X287338Y103554D01*
X287383Y103498D01*
X287578Y103303D01*
X287594Y103291D01*
X287607Y103276D01*
X287694Y103220D01*
X287778Y103159D01*
X287797Y103153D01*
X287814Y103143D01*
X287914Y103117D01*
X288013Y103087D01*
X288033Y103088D01*
X288052Y103083D01*
X288155Y103091D01*
X288259Y103093D01*
X288278Y103100D01*
X288298Y103102D01*
X288392Y103142D01*
X288490Y103178D01*
X288506Y103190D01*
X288524Y103198D01*
X288635Y103287D01*
X291361Y103287D01*
X293287Y101361D01*
X293287Y98639D01*
X291361Y96713D01*
X288639Y96713D01*
X287735Y97617D01*
X287661Y97670D01*
X287591Y97730D01*
X287561Y97742D01*
X287535Y97761D01*
X287448Y97788D01*
X287363Y97822D01*
X287322Y97826D01*
X287300Y97833D01*
X287268Y97832D01*
X287196Y97840D01*
X286932Y97840D01*
X282840Y101932D01*
X282840Y180164D01*
X282829Y180235D01*
X282827Y180307D01*
X282809Y180356D01*
X282801Y180407D01*
X282767Y180470D01*
X282742Y180538D01*
X282710Y180578D01*
X282685Y180624D01*
X282634Y180674D01*
X282589Y180730D01*
X282545Y180758D01*
X282507Y180794D01*
X282442Y180824D01*
X282382Y180863D01*
X282331Y180876D01*
X282284Y180897D01*
X282213Y180905D01*
X282143Y180923D01*
X282091Y180919D01*
X282040Y180925D01*
X281969Y180909D01*
X281898Y180904D01*
X281850Y180883D01*
X281799Y180872D01*
X281738Y180835D01*
X281672Y180807D01*
X281616Y180763D01*
X281588Y180746D01*
X281573Y180728D01*
X281541Y180703D01*
X281361Y180523D01*
X278639Y180523D01*
X278459Y180703D01*
X278401Y180744D01*
X278349Y180794D01*
X278302Y180816D01*
X278260Y180846D01*
X278191Y180867D01*
X278126Y180897D01*
X278074Y180903D01*
X278024Y180919D01*
X277953Y180917D01*
X277882Y180925D01*
X277831Y180913D01*
X277779Y180912D01*
X277711Y180888D01*
X277641Y180872D01*
X277596Y180846D01*
X277548Y180828D01*
X277492Y180783D01*
X277430Y180746D01*
X277396Y180707D01*
X277356Y180674D01*
X277317Y180614D01*
X277270Y180559D01*
X277251Y180511D01*
X277223Y180467D01*
X277205Y180398D01*
X277178Y180331D01*
X277170Y180260D01*
X277162Y180229D01*
X277164Y180205D01*
X277160Y180164D01*
X277160Y164518D01*
X275672Y163030D01*
X275510Y162868D01*
X275457Y162794D01*
X275397Y162725D01*
X275385Y162695D01*
X275366Y162669D01*
X275339Y162582D01*
X275305Y162497D01*
X275301Y162456D01*
X275294Y162434D01*
X275295Y162401D01*
X275287Y162330D01*
X275287Y161052D01*
X273976Y159741D01*
X273965Y159725D01*
X273949Y159712D01*
X273893Y159625D01*
X273833Y159541D01*
X273827Y159522D01*
X273816Y159505D01*
X273791Y159405D01*
X273760Y159306D01*
X273761Y159286D01*
X273756Y159267D01*
X273764Y159164D01*
X273767Y159060D01*
X273773Y159042D01*
X273775Y159022D01*
X273815Y158927D01*
X273851Y158829D01*
X273864Y158814D01*
X273871Y158795D01*
X273976Y158664D01*
X274160Y158481D01*
X274160Y109037D01*
X274174Y108947D01*
X274182Y108856D01*
X274194Y108826D01*
X274199Y108794D01*
X274242Y108713D01*
X274278Y108629D01*
X274304Y108597D01*
X274315Y108577D01*
X274338Y108554D01*
X274383Y108498D01*
X274573Y108308D01*
X274573Y78789D01*
X274580Y78744D01*
X274578Y78698D01*
X274600Y78623D01*
X274612Y78547D01*
X274634Y78506D01*
X274647Y78462D01*
X274691Y78398D01*
X274728Y78329D01*
X274761Y78298D01*
X274787Y78260D01*
X274850Y78213D01*
X274906Y78160D01*
X274948Y78141D01*
X274984Y78113D01*
X275058Y78089D01*
X275129Y78056D01*
X275175Y78051D01*
X275218Y78037D01*
X275296Y78038D01*
X275373Y78029D01*
X275418Y78039D01*
X275464Y78039D01*
X275596Y78077D01*
X275614Y78081D01*
X275618Y78084D01*
X275625Y78086D01*
X278181Y79145D01*
X281819Y79145D01*
X285180Y77753D01*
X287753Y75180D01*
X289145Y71819D01*
X289145Y68181D01*
X288526Y66688D01*
X288516Y66644D01*
X288497Y66602D01*
X288488Y66525D01*
X288470Y66449D01*
X288475Y66403D01*
X288470Y66358D01*
X288486Y66281D01*
X288493Y66204D01*
X288512Y66162D01*
X288522Y66117D01*
X288562Y66050D01*
X288593Y65979D01*
X288624Y65945D01*
X288648Y65906D01*
X288707Y65855D01*
X288760Y65798D01*
X288800Y65776D01*
X288835Y65746D01*
X288907Y65717D01*
X288975Y65680D01*
X289020Y65671D01*
X289063Y65654D01*
X289199Y65639D01*
X289217Y65636D01*
X289222Y65637D01*
X289230Y65636D01*
X296170Y65636D01*
X296216Y65643D01*
X296261Y65641D01*
X296336Y65663D01*
X296413Y65675D01*
X296454Y65697D01*
X296498Y65710D01*
X296562Y65754D01*
X296630Y65791D01*
X296662Y65824D01*
X296700Y65850D01*
X296746Y65913D01*
X296800Y65969D01*
X296819Y66011D01*
X296846Y66047D01*
X296871Y66121D01*
X296903Y66192D01*
X296908Y66238D01*
X296923Y66281D01*
X296922Y66359D01*
X296930Y66436D01*
X296921Y66481D01*
X296920Y66527D01*
X296882Y66659D01*
X296878Y66677D01*
X296876Y66681D01*
X296874Y66688D01*
X296255Y68181D01*
X296255Y71819D01*
X297647Y75180D01*
X300220Y77753D01*
X303581Y79145D01*
X307219Y79145D01*
X310580Y77753D01*
X313153Y75180D01*
X314545Y71819D01*
X314545Y68181D01*
X313926Y66688D01*
X313916Y66644D01*
X313897Y66602D01*
X313888Y66525D01*
X313870Y66449D01*
X313875Y66403D01*
X313870Y66358D01*
X313886Y66281D01*
X313893Y66204D01*
X313912Y66162D01*
X313922Y66117D01*
X313962Y66050D01*
X313993Y65979D01*
X314024Y65945D01*
X314048Y65906D01*
X314107Y65855D01*
X314160Y65798D01*
X314200Y65776D01*
X314235Y65746D01*
X314307Y65717D01*
X314375Y65680D01*
X314420Y65671D01*
X314463Y65654D01*
X314599Y65639D01*
X314617Y65636D01*
X314622Y65637D01*
X314630Y65636D01*
X330263Y65636D01*
X330636Y65263D01*
X330636Y2536D01*
X330639Y2516D01*
X330637Y2497D01*
X330659Y2395D01*
X330675Y2293D01*
X330685Y2276D01*
X330689Y2256D01*
X330742Y2167D01*
X330791Y2076D01*
X330805Y2062D01*
X330815Y2045D01*
X330894Y1978D01*
X330969Y1906D01*
X330987Y1898D01*
X331002Y1885D01*
X331098Y1846D01*
X331192Y1803D01*
X331212Y1801D01*
X331230Y1793D01*
X331397Y1775D01*
X597464Y1775D01*
X597484Y1778D01*
G37*
%LPC*%
G36*
X568639Y298713D02*
X568639Y298713D01*
X566713Y300639D01*
X566713Y303361D01*
X568617Y305265D01*
X568670Y305339D01*
X568730Y305409D01*
X568742Y305439D01*
X568761Y305465D01*
X568788Y305552D01*
X568822Y305637D01*
X568826Y305678D01*
X568833Y305700D01*
X568832Y305732D01*
X568840Y305804D01*
X568840Y343354D01*
X568829Y343425D01*
X568827Y343497D01*
X568809Y343546D01*
X568801Y343597D01*
X568767Y343660D01*
X568742Y343728D01*
X568710Y343768D01*
X568685Y343814D01*
X568633Y343864D01*
X568589Y343920D01*
X568545Y343948D01*
X568507Y343984D01*
X568442Y344014D01*
X568382Y344053D01*
X568331Y344066D01*
X568284Y344087D01*
X568213Y344095D01*
X568143Y344113D01*
X568091Y344109D01*
X568040Y344115D01*
X567969Y344099D01*
X567898Y344094D01*
X567850Y344073D01*
X567799Y344062D01*
X567738Y344025D01*
X567672Y343997D01*
X567616Y343953D01*
X567588Y343936D01*
X567573Y343918D01*
X567541Y343893D01*
X566361Y342713D01*
X563639Y342713D01*
X561713Y344639D01*
X561713Y347361D01*
X563639Y349287D01*
X566361Y349287D01*
X567541Y348107D01*
X567599Y348066D01*
X567651Y348016D01*
X567698Y347994D01*
X567740Y347964D01*
X567809Y347943D01*
X567874Y347913D01*
X567926Y347907D01*
X567976Y347891D01*
X568047Y347893D01*
X568118Y347885D01*
X568169Y347897D01*
X568221Y347898D01*
X568289Y347922D01*
X568359Y347938D01*
X568404Y347964D01*
X568452Y347982D01*
X568508Y348027D01*
X568570Y348064D01*
X568604Y348103D01*
X568644Y348136D01*
X568683Y348196D01*
X568730Y348251D01*
X568749Y348299D01*
X568777Y348343D01*
X568795Y348412D01*
X568822Y348479D01*
X568830Y348550D01*
X568838Y348581D01*
X568836Y348605D01*
X568840Y348646D01*
X568840Y363354D01*
X568829Y363425D01*
X568827Y363497D01*
X568809Y363546D01*
X568801Y363597D01*
X568767Y363660D01*
X568742Y363728D01*
X568710Y363768D01*
X568685Y363814D01*
X568633Y363864D01*
X568589Y363920D01*
X568545Y363948D01*
X568507Y363984D01*
X568442Y364014D01*
X568382Y364053D01*
X568331Y364066D01*
X568284Y364087D01*
X568213Y364095D01*
X568143Y364113D01*
X568091Y364109D01*
X568040Y364115D01*
X567969Y364099D01*
X567898Y364094D01*
X567850Y364073D01*
X567799Y364062D01*
X567738Y364025D01*
X567672Y363997D01*
X567616Y363953D01*
X567588Y363936D01*
X567573Y363918D01*
X567541Y363893D01*
X566361Y362713D01*
X563639Y362713D01*
X561713Y364639D01*
X561713Y367361D01*
X563639Y369287D01*
X566361Y369287D01*
X567541Y368107D01*
X567599Y368066D01*
X567651Y368016D01*
X567698Y367994D01*
X567740Y367964D01*
X567809Y367943D01*
X567874Y367913D01*
X567926Y367907D01*
X567976Y367891D01*
X568047Y367893D01*
X568118Y367885D01*
X568169Y367897D01*
X568221Y367898D01*
X568289Y367922D01*
X568359Y367938D01*
X568404Y367964D01*
X568452Y367982D01*
X568508Y368027D01*
X568570Y368064D01*
X568604Y368103D01*
X568644Y368136D01*
X568683Y368196D01*
X568730Y368251D01*
X568749Y368299D01*
X568777Y368343D01*
X568795Y368412D01*
X568822Y368479D01*
X568830Y368550D01*
X568838Y368581D01*
X568836Y368605D01*
X568840Y368646D01*
X568840Y380504D01*
X568826Y380594D01*
X568818Y380685D01*
X568806Y380715D01*
X568801Y380747D01*
X568758Y380828D01*
X568722Y380911D01*
X568696Y380944D01*
X568685Y380964D01*
X568662Y380986D01*
X568617Y381042D01*
X561328Y388331D01*
X561254Y388384D01*
X561185Y388444D01*
X561155Y388456D01*
X561129Y388475D01*
X561042Y388502D01*
X560957Y388536D01*
X560916Y388540D01*
X560894Y388547D01*
X560861Y388546D01*
X560790Y388554D01*
X525932Y388554D01*
X525861Y388543D01*
X525789Y388541D01*
X525740Y388523D01*
X525689Y388515D01*
X525626Y388481D01*
X525558Y388456D01*
X525518Y388424D01*
X525472Y388399D01*
X525422Y388347D01*
X525366Y388303D01*
X525338Y388259D01*
X525302Y388221D01*
X525272Y388156D01*
X525233Y388096D01*
X525220Y388045D01*
X525199Y387998D01*
X525191Y387927D01*
X525173Y387857D01*
X525177Y387805D01*
X525171Y387754D01*
X525187Y387683D01*
X525192Y387612D01*
X525213Y387564D01*
X525224Y387513D01*
X525261Y387452D01*
X525289Y387386D01*
X525333Y387330D01*
X525350Y387302D01*
X525368Y387287D01*
X525393Y387255D01*
X527287Y385361D01*
X527287Y382639D01*
X525234Y380586D01*
X525193Y380528D01*
X525143Y380476D01*
X525121Y380429D01*
X525091Y380387D01*
X525070Y380318D01*
X525040Y380253D01*
X525034Y380201D01*
X525018Y380151D01*
X525020Y380080D01*
X525012Y380009D01*
X525024Y379958D01*
X525025Y379906D01*
X525049Y379838D01*
X525065Y379768D01*
X525091Y379723D01*
X525109Y379675D01*
X525154Y379619D01*
X525191Y379557D01*
X525230Y379523D01*
X525263Y379483D01*
X525323Y379444D01*
X525378Y379397D01*
X525426Y379378D01*
X525470Y379350D01*
X525539Y379332D01*
X525606Y379305D01*
X525677Y379297D01*
X525708Y379289D01*
X525732Y379291D01*
X525773Y379287D01*
X528361Y379287D01*
X530287Y377361D01*
X530287Y374639D01*
X528361Y372713D01*
X525773Y372713D01*
X525702Y372702D01*
X525630Y372700D01*
X525581Y372682D01*
X525530Y372674D01*
X525467Y372640D01*
X525399Y372615D01*
X525359Y372583D01*
X525313Y372558D01*
X525263Y372507D01*
X525207Y372462D01*
X525179Y372418D01*
X525143Y372380D01*
X525113Y372315D01*
X525074Y372255D01*
X525061Y372204D01*
X525040Y372157D01*
X525032Y372086D01*
X525014Y372016D01*
X525018Y371964D01*
X525012Y371913D01*
X525028Y371842D01*
X525033Y371771D01*
X525054Y371723D01*
X525065Y371672D01*
X525101Y371611D01*
X525130Y371545D01*
X525174Y371489D01*
X525191Y371461D01*
X525209Y371446D01*
X525234Y371414D01*
X525287Y371361D01*
X525287Y368639D01*
X523686Y367038D01*
X523675Y367022D01*
X523659Y367010D01*
X523603Y366922D01*
X523543Y366839D01*
X523537Y366820D01*
X523526Y366803D01*
X523501Y366702D01*
X523471Y366603D01*
X523471Y366584D01*
X523466Y366564D01*
X523474Y366461D01*
X523477Y366358D01*
X523484Y366339D01*
X523485Y366319D01*
X523526Y366224D01*
X523561Y366127D01*
X523574Y366111D01*
X523582Y366093D01*
X523686Y365962D01*
X525287Y364361D01*
X525287Y361639D01*
X523361Y359713D01*
X520639Y359713D01*
X518713Y361639D01*
X518713Y364361D01*
X520314Y365962D01*
X520325Y365978D01*
X520341Y365990D01*
X520397Y366078D01*
X520457Y366161D01*
X520463Y366180D01*
X520474Y366197D01*
X520499Y366298D01*
X520529Y366397D01*
X520529Y366416D01*
X520534Y366436D01*
X520526Y366539D01*
X520523Y366642D01*
X520516Y366661D01*
X520515Y366681D01*
X520474Y366776D01*
X520439Y366873D01*
X520426Y366889D01*
X520418Y366907D01*
X520314Y367038D01*
X518713Y368639D01*
X518713Y371361D01*
X520814Y373462D01*
X520825Y373478D01*
X520841Y373490D01*
X520897Y373578D01*
X520957Y373661D01*
X520963Y373680D01*
X520974Y373697D01*
X520999Y373798D01*
X521029Y373897D01*
X521029Y373916D01*
X521034Y373936D01*
X521026Y374039D01*
X521023Y374142D01*
X521016Y374161D01*
X521015Y374181D01*
X520974Y374276D01*
X520939Y374373D01*
X520926Y374389D01*
X520918Y374407D01*
X520832Y374515D01*
X520831Y374517D01*
X520830Y374518D01*
X520814Y374538D01*
X518713Y376639D01*
X518713Y379361D01*
X520814Y381462D01*
X520825Y381478D01*
X520841Y381490D01*
X520897Y381578D01*
X520957Y381661D01*
X520963Y381680D01*
X520974Y381697D01*
X520999Y381798D01*
X521029Y381897D01*
X521029Y381916D01*
X521034Y381936D01*
X521026Y382039D01*
X521023Y382142D01*
X521016Y382161D01*
X521015Y382181D01*
X520974Y382276D01*
X520939Y382373D01*
X520926Y382389D01*
X520918Y382407D01*
X520814Y382538D01*
X520713Y382639D01*
X520713Y383227D01*
X520702Y383298D01*
X520700Y383370D01*
X520682Y383419D01*
X520674Y383470D01*
X520640Y383533D01*
X520615Y383601D01*
X520583Y383641D01*
X520558Y383687D01*
X520506Y383737D01*
X520462Y383793D01*
X520418Y383821D01*
X520380Y383857D01*
X520315Y383887D01*
X520255Y383926D01*
X520204Y383939D01*
X520157Y383960D01*
X520086Y383968D01*
X520016Y383986D01*
X519964Y383982D01*
X519913Y383988D01*
X519842Y383972D01*
X519771Y383967D01*
X519723Y383946D01*
X519672Y383935D01*
X519611Y383898D01*
X519545Y383870D01*
X519489Y383826D01*
X519461Y383809D01*
X519446Y383791D01*
X519414Y383766D01*
X517361Y381713D01*
X514639Y381713D01*
X514038Y382314D01*
X514022Y382325D01*
X514010Y382341D01*
X513922Y382397D01*
X513839Y382457D01*
X513820Y382463D01*
X513803Y382474D01*
X513702Y382499D01*
X513603Y382529D01*
X513584Y382529D01*
X513564Y382534D01*
X513461Y382526D01*
X513358Y382523D01*
X513339Y382516D01*
X513319Y382515D01*
X513224Y382474D01*
X513127Y382439D01*
X513111Y382426D01*
X513093Y382418D01*
X512962Y382314D01*
X511361Y380713D01*
X508639Y380713D01*
X506713Y382639D01*
X506713Y385361D01*
X508607Y387255D01*
X508648Y387313D01*
X508698Y387365D01*
X508720Y387412D01*
X508750Y387454D01*
X508771Y387523D01*
X508801Y387588D01*
X508807Y387640D01*
X508823Y387690D01*
X508821Y387761D01*
X508829Y387832D01*
X508817Y387883D01*
X508816Y387935D01*
X508792Y388003D01*
X508776Y388073D01*
X508750Y388118D01*
X508732Y388166D01*
X508687Y388222D01*
X508650Y388284D01*
X508611Y388318D01*
X508578Y388358D01*
X508518Y388397D01*
X508463Y388444D01*
X508415Y388463D01*
X508371Y388491D01*
X508302Y388509D01*
X508235Y388536D01*
X508164Y388544D01*
X508133Y388552D01*
X508109Y388550D01*
X508068Y388554D01*
X492932Y388554D01*
X492861Y388543D01*
X492789Y388541D01*
X492740Y388523D01*
X492689Y388515D01*
X492626Y388481D01*
X492558Y388456D01*
X492518Y388424D01*
X492472Y388399D01*
X492422Y388347D01*
X492366Y388303D01*
X492338Y388259D01*
X492302Y388221D01*
X492272Y388156D01*
X492233Y388096D01*
X492220Y388045D01*
X492199Y387998D01*
X492191Y387927D01*
X492173Y387857D01*
X492177Y387805D01*
X492171Y387754D01*
X492187Y387683D01*
X492192Y387612D01*
X492213Y387564D01*
X492224Y387513D01*
X492261Y387452D01*
X492289Y387386D01*
X492333Y387330D01*
X492350Y387302D01*
X492368Y387287D01*
X492393Y387255D01*
X494287Y385361D01*
X494287Y382639D01*
X492361Y380713D01*
X489639Y380713D01*
X488538Y381814D01*
X488522Y381825D01*
X488510Y381841D01*
X488422Y381897D01*
X488339Y381957D01*
X488320Y381963D01*
X488303Y381974D01*
X488202Y381999D01*
X488103Y382029D01*
X488084Y382029D01*
X488064Y382034D01*
X487961Y382026D01*
X487858Y382023D01*
X487839Y382016D01*
X487819Y382015D01*
X487724Y381974D01*
X487627Y381939D01*
X487611Y381926D01*
X487593Y381918D01*
X487462Y381814D01*
X486361Y380713D01*
X483639Y380713D01*
X482038Y382314D01*
X482022Y382325D01*
X482010Y382341D01*
X481922Y382397D01*
X481839Y382457D01*
X481820Y382463D01*
X481803Y382474D01*
X481702Y382499D01*
X481603Y382529D01*
X481584Y382529D01*
X481564Y382534D01*
X481461Y382526D01*
X481358Y382523D01*
X481339Y382516D01*
X481319Y382515D01*
X481224Y382474D01*
X481127Y382439D01*
X481111Y382426D01*
X481093Y382418D01*
X480962Y382314D01*
X479686Y381038D01*
X479675Y381022D01*
X479659Y381010D01*
X479603Y380923D01*
X479543Y380839D01*
X479537Y380819D01*
X479526Y380803D01*
X479501Y380702D01*
X479471Y380603D01*
X479471Y380584D01*
X479466Y380564D01*
X479474Y380461D01*
X479477Y380358D01*
X479484Y380339D01*
X479485Y380319D01*
X479526Y380224D01*
X479561Y380127D01*
X479574Y380111D01*
X479582Y380093D01*
X479686Y379962D01*
X481287Y378361D01*
X481287Y375639D01*
X479686Y374038D01*
X479675Y374022D01*
X479659Y374010D01*
X479603Y373922D01*
X479543Y373839D01*
X479537Y373820D01*
X479526Y373803D01*
X479501Y373702D01*
X479471Y373603D01*
X479471Y373584D01*
X479466Y373564D01*
X479474Y373461D01*
X479477Y373358D01*
X479484Y373339D01*
X479485Y373319D01*
X479526Y373224D01*
X479561Y373127D01*
X479574Y373111D01*
X479582Y373093D01*
X479686Y372962D01*
X481287Y371361D01*
X481287Y368639D01*
X479361Y366713D01*
X479048Y366713D01*
X479028Y366710D01*
X479009Y366712D01*
X478907Y366690D01*
X478805Y366674D01*
X478788Y366664D01*
X478768Y366660D01*
X478679Y366607D01*
X478588Y366558D01*
X478574Y366544D01*
X478557Y366534D01*
X478490Y366455D01*
X478418Y366380D01*
X478410Y366362D01*
X478397Y366347D01*
X478358Y366251D01*
X478315Y366157D01*
X478313Y366137D01*
X478305Y366119D01*
X478287Y365952D01*
X478287Y363639D01*
X476361Y361713D01*
X473639Y361713D01*
X471713Y363639D01*
X471713Y366361D01*
X473639Y368287D01*
X473952Y368287D01*
X473972Y368290D01*
X473991Y368288D01*
X474093Y368310D01*
X474195Y368326D01*
X474212Y368336D01*
X474232Y368340D01*
X474321Y368393D01*
X474412Y368442D01*
X474426Y368456D01*
X474443Y368466D01*
X474510Y368545D01*
X474582Y368620D01*
X474590Y368638D01*
X474603Y368653D01*
X474642Y368749D01*
X474685Y368843D01*
X474687Y368863D01*
X474695Y368881D01*
X474713Y369048D01*
X474713Y371361D01*
X476314Y372962D01*
X476325Y372978D01*
X476341Y372990D01*
X476397Y373078D01*
X476457Y373161D01*
X476463Y373180D01*
X476474Y373197D01*
X476499Y373298D01*
X476529Y373397D01*
X476529Y373416D01*
X476534Y373436D01*
X476526Y373539D01*
X476523Y373642D01*
X476516Y373661D01*
X476515Y373681D01*
X476474Y373776D01*
X476439Y373873D01*
X476426Y373889D01*
X476418Y373907D01*
X476314Y374038D01*
X474713Y375639D01*
X474713Y378361D01*
X476314Y379962D01*
X476325Y379978D01*
X476341Y379990D01*
X476397Y380078D01*
X476457Y380161D01*
X476463Y380180D01*
X476474Y380197D01*
X476499Y380298D01*
X476529Y380397D01*
X476529Y380416D01*
X476534Y380436D01*
X476526Y380539D01*
X476523Y380642D01*
X476516Y380661D01*
X476515Y380681D01*
X476474Y380776D01*
X476439Y380873D01*
X476426Y380889D01*
X476418Y380907D01*
X476314Y381038D01*
X474713Y382639D01*
X474713Y385361D01*
X476607Y387255D01*
X476648Y387313D01*
X476698Y387365D01*
X476720Y387412D01*
X476750Y387454D01*
X476771Y387523D01*
X476801Y387588D01*
X476807Y387640D01*
X476823Y387690D01*
X476821Y387761D01*
X476829Y387832D01*
X476817Y387883D01*
X476816Y387935D01*
X476792Y388003D01*
X476776Y388073D01*
X476750Y388118D01*
X476732Y388166D01*
X476687Y388222D01*
X476650Y388284D01*
X476611Y388318D01*
X476578Y388358D01*
X476518Y388397D01*
X476463Y388444D01*
X476415Y388463D01*
X476371Y388491D01*
X476302Y388509D01*
X476235Y388536D01*
X476164Y388544D01*
X476133Y388552D01*
X476109Y388550D01*
X476068Y388554D01*
X370051Y388554D01*
X369961Y388540D01*
X369870Y388532D01*
X369840Y388520D01*
X369808Y388515D01*
X369727Y388472D01*
X369644Y388436D01*
X369611Y388410D01*
X369591Y388399D01*
X369569Y388376D01*
X369513Y388331D01*
X369224Y388042D01*
X369171Y387968D01*
X369111Y387899D01*
X369099Y387869D01*
X369080Y387843D01*
X369053Y387756D01*
X369019Y387671D01*
X369015Y387630D01*
X369008Y387608D01*
X369009Y387575D01*
X369001Y387504D01*
X369001Y386226D01*
X367075Y384300D01*
X364353Y384300D01*
X362427Y386226D01*
X362427Y388948D01*
X364020Y390541D01*
X364061Y390599D01*
X364111Y390651D01*
X364133Y390698D01*
X364163Y390740D01*
X364184Y390809D01*
X364214Y390874D01*
X364220Y390926D01*
X364236Y390976D01*
X364234Y391047D01*
X364242Y391118D01*
X364230Y391169D01*
X364229Y391221D01*
X364205Y391289D01*
X364189Y391359D01*
X364163Y391404D01*
X364145Y391452D01*
X364100Y391508D01*
X364063Y391570D01*
X364024Y391604D01*
X363991Y391644D01*
X363931Y391683D01*
X363876Y391730D01*
X363828Y391749D01*
X363784Y391777D01*
X363715Y391795D01*
X363648Y391822D01*
X363577Y391830D01*
X363546Y391838D01*
X363522Y391836D01*
X363481Y391840D01*
X341210Y391840D01*
X341120Y391826D01*
X341029Y391818D01*
X340999Y391806D01*
X340967Y391801D01*
X340886Y391758D01*
X340803Y391722D01*
X340770Y391696D01*
X340750Y391685D01*
X340728Y391662D01*
X340672Y391617D01*
X325383Y376328D01*
X325330Y376254D01*
X325270Y376185D01*
X325258Y376155D01*
X325239Y376129D01*
X325212Y376042D01*
X325178Y375957D01*
X325174Y375916D01*
X325167Y375894D01*
X325168Y375861D01*
X325160Y375790D01*
X325160Y340048D01*
X325163Y340028D01*
X325161Y340009D01*
X325183Y339907D01*
X325199Y339805D01*
X325209Y339788D01*
X325213Y339768D01*
X325266Y339679D01*
X325315Y339588D01*
X325329Y339574D01*
X325339Y339557D01*
X325418Y339490D01*
X325493Y339418D01*
X325511Y339410D01*
X325526Y339397D01*
X325622Y339358D01*
X325716Y339315D01*
X325736Y339313D01*
X325754Y339305D01*
X325921Y339287D01*
X328361Y339287D01*
X330287Y337361D01*
X330287Y334639D01*
X328361Y332713D01*
X325921Y332713D01*
X325901Y332710D01*
X325882Y332712D01*
X325780Y332690D01*
X325678Y332674D01*
X325661Y332664D01*
X325641Y332660D01*
X325552Y332607D01*
X325461Y332558D01*
X325447Y332544D01*
X325430Y332534D01*
X325363Y332455D01*
X325291Y332380D01*
X325283Y332362D01*
X325270Y332347D01*
X325231Y332251D01*
X325188Y332157D01*
X325186Y332137D01*
X325178Y332119D01*
X325160Y331952D01*
X325160Y327646D01*
X325171Y327575D01*
X325173Y327503D01*
X325191Y327454D01*
X325199Y327403D01*
X325233Y327340D01*
X325258Y327272D01*
X325290Y327232D01*
X325315Y327186D01*
X325366Y327136D01*
X325411Y327080D01*
X325455Y327052D01*
X325493Y327016D01*
X325558Y326986D01*
X325618Y326947D01*
X325669Y326934D01*
X325716Y326913D01*
X325787Y326905D01*
X325857Y326887D01*
X325909Y326891D01*
X325960Y326885D01*
X326031Y326901D01*
X326102Y326906D01*
X326150Y326927D01*
X326201Y326938D01*
X326262Y326975D01*
X326328Y327003D01*
X326384Y327047D01*
X326412Y327064D01*
X326427Y327082D01*
X326459Y327107D01*
X326639Y327287D01*
X329361Y327287D01*
X330414Y326234D01*
X330472Y326193D01*
X330524Y326143D01*
X330571Y326121D01*
X330613Y326091D01*
X330682Y326070D01*
X330747Y326040D01*
X330799Y326034D01*
X330849Y326018D01*
X330920Y326020D01*
X330991Y326012D01*
X331042Y326024D01*
X331094Y326025D01*
X331162Y326049D01*
X331232Y326065D01*
X331277Y326091D01*
X331325Y326109D01*
X331381Y326154D01*
X331443Y326191D01*
X331477Y326230D01*
X331517Y326263D01*
X331556Y326323D01*
X331603Y326378D01*
X331622Y326426D01*
X331650Y326470D01*
X331668Y326539D01*
X331695Y326606D01*
X331703Y326677D01*
X331711Y326708D01*
X331709Y326732D01*
X331713Y326773D01*
X331713Y329361D01*
X333639Y331287D01*
X336361Y331287D01*
X338287Y329361D01*
X338287Y326639D01*
X336361Y324713D01*
X333639Y324713D01*
X332586Y325766D01*
X332528Y325807D01*
X332476Y325857D01*
X332429Y325879D01*
X332387Y325909D01*
X332318Y325930D01*
X332253Y325960D01*
X332201Y325966D01*
X332151Y325982D01*
X332080Y325980D01*
X332009Y325988D01*
X331958Y325976D01*
X331906Y325975D01*
X331838Y325951D01*
X331768Y325935D01*
X331723Y325909D01*
X331675Y325891D01*
X331619Y325846D01*
X331557Y325809D01*
X331523Y325770D01*
X331483Y325737D01*
X331444Y325677D01*
X331397Y325622D01*
X331378Y325574D01*
X331350Y325530D01*
X331332Y325461D01*
X331305Y325394D01*
X331297Y325323D01*
X331289Y325292D01*
X331291Y325268D01*
X331287Y325227D01*
X331287Y322639D01*
X329361Y320713D01*
X326639Y320713D01*
X326038Y321314D01*
X326022Y321325D01*
X326010Y321341D01*
X325922Y321397D01*
X325839Y321457D01*
X325820Y321463D01*
X325803Y321474D01*
X325702Y321499D01*
X325603Y321529D01*
X325584Y321529D01*
X325564Y321534D01*
X325461Y321526D01*
X325358Y321523D01*
X325339Y321516D01*
X325319Y321515D01*
X325224Y321474D01*
X325127Y321439D01*
X325111Y321426D01*
X325093Y321418D01*
X324962Y321314D01*
X324361Y320713D01*
X324048Y320713D01*
X324028Y320710D01*
X324009Y320712D01*
X323907Y320690D01*
X323805Y320674D01*
X323788Y320664D01*
X323768Y320660D01*
X323679Y320607D01*
X323588Y320558D01*
X323574Y320544D01*
X323557Y320534D01*
X323490Y320455D01*
X323418Y320380D01*
X323410Y320362D01*
X323397Y320347D01*
X323358Y320251D01*
X323315Y320157D01*
X323313Y320137D01*
X323305Y320119D01*
X323287Y319952D01*
X323287Y318639D01*
X321361Y316713D01*
X318639Y316713D01*
X316713Y318639D01*
X316713Y321361D01*
X318639Y323287D01*
X318952Y323287D01*
X318972Y323290D01*
X318991Y323288D01*
X319093Y323310D01*
X319195Y323326D01*
X319212Y323336D01*
X319232Y323340D01*
X319321Y323393D01*
X319412Y323442D01*
X319426Y323456D01*
X319443Y323466D01*
X319510Y323545D01*
X319582Y323620D01*
X319590Y323638D01*
X319603Y323653D01*
X319642Y323749D01*
X319685Y323843D01*
X319687Y323863D01*
X319695Y323881D01*
X319713Y324048D01*
X319713Y325361D01*
X320617Y326265D01*
X320670Y326339D01*
X320730Y326409D01*
X320742Y326439D01*
X320761Y326465D01*
X320788Y326552D01*
X320822Y326637D01*
X320826Y326678D01*
X320833Y326700D01*
X320832Y326732D01*
X320840Y326804D01*
X320840Y377670D01*
X320829Y377741D01*
X320827Y377812D01*
X320809Y377861D01*
X320801Y377913D01*
X320767Y377976D01*
X320742Y378043D01*
X320710Y378084D01*
X320685Y378130D01*
X320633Y378179D01*
X320589Y378235D01*
X320545Y378264D01*
X320507Y378299D01*
X320442Y378330D01*
X320382Y378368D01*
X320331Y378381D01*
X320284Y378403D01*
X320213Y378411D01*
X320143Y378428D01*
X320091Y378424D01*
X320040Y378430D01*
X319969Y378415D01*
X319898Y378409D01*
X319850Y378389D01*
X319799Y378378D01*
X319738Y378341D01*
X319672Y378313D01*
X319616Y378268D01*
X319588Y378252D01*
X319573Y378234D01*
X319541Y378208D01*
X317580Y376247D01*
X314219Y374855D01*
X310581Y374855D01*
X307220Y376247D01*
X304647Y378820D01*
X303255Y382181D01*
X303255Y385819D01*
X304647Y389180D01*
X307220Y391753D01*
X310581Y393145D01*
X314219Y393145D01*
X317580Y391753D01*
X320153Y389180D01*
X321545Y385819D01*
X321545Y382181D01*
X320476Y379602D01*
X320468Y379567D01*
X320465Y379560D01*
X320463Y379546D01*
X320454Y379507D01*
X320426Y379414D01*
X320426Y379388D01*
X320420Y379362D01*
X320429Y379266D01*
X320432Y379168D01*
X320441Y379144D01*
X320443Y379118D01*
X320483Y379029D01*
X320516Y378937D01*
X320533Y378917D01*
X320543Y378893D01*
X320609Y378821D01*
X320670Y378745D01*
X320692Y378731D01*
X320710Y378712D01*
X320795Y378665D01*
X320877Y378612D01*
X320902Y378606D01*
X320925Y378593D01*
X321021Y378576D01*
X321116Y378552D01*
X321142Y378554D01*
X321167Y378549D01*
X321264Y378564D01*
X321361Y378571D01*
X321385Y378581D01*
X321411Y378585D01*
X321498Y378630D01*
X321587Y378668D01*
X321612Y378688D01*
X321630Y378697D01*
X321653Y378720D01*
X321718Y378772D01*
X339105Y396160D01*
X566895Y396160D01*
X568383Y394672D01*
X580573Y382482D01*
X580573Y353692D01*
X578383Y351502D01*
X578330Y351428D01*
X578270Y351358D01*
X578258Y351328D01*
X578239Y351302D01*
X578212Y351215D01*
X578178Y351130D01*
X578174Y351089D01*
X578167Y351067D01*
X578168Y351035D01*
X578160Y350963D01*
X578160Y310804D01*
X578174Y310714D01*
X578182Y310623D01*
X578194Y310593D01*
X578199Y310561D01*
X578242Y310480D01*
X578278Y310396D01*
X578304Y310364D01*
X578315Y310344D01*
X578338Y310321D01*
X578383Y310265D01*
X579287Y309361D01*
X579287Y306639D01*
X577361Y304713D01*
X574639Y304713D01*
X574459Y304893D01*
X574401Y304934D01*
X574349Y304984D01*
X574302Y305006D01*
X574260Y305036D01*
X574191Y305057D01*
X574126Y305087D01*
X574074Y305093D01*
X574024Y305109D01*
X573953Y305107D01*
X573882Y305115D01*
X573831Y305103D01*
X573779Y305102D01*
X573711Y305078D01*
X573641Y305062D01*
X573596Y305036D01*
X573548Y305018D01*
X573492Y304973D01*
X573430Y304936D01*
X573396Y304897D01*
X573356Y304864D01*
X573317Y304804D01*
X573270Y304749D01*
X573251Y304701D01*
X573223Y304657D01*
X573205Y304588D01*
X573178Y304521D01*
X573170Y304450D01*
X573162Y304419D01*
X573164Y304395D01*
X573160Y304354D01*
X573160Y303804D01*
X573174Y303714D01*
X573182Y303623D01*
X573194Y303593D01*
X573199Y303561D01*
X573242Y303480D01*
X573278Y303396D01*
X573287Y303385D01*
X573287Y300639D01*
X571361Y298713D01*
X568639Y298713D01*
G37*
%LPD*%
%LPC*%
G36*
X58639Y76713D02*
X58639Y76713D01*
X56713Y78639D01*
X56713Y81361D01*
X57617Y82265D01*
X57670Y82339D01*
X57730Y82409D01*
X57742Y82439D01*
X57761Y82465D01*
X57788Y82552D01*
X57822Y82637D01*
X57826Y82678D01*
X57833Y82700D01*
X57832Y82732D01*
X57840Y82804D01*
X57840Y115952D01*
X57837Y115972D01*
X57839Y115991D01*
X57817Y116093D01*
X57801Y116195D01*
X57791Y116212D01*
X57787Y116232D01*
X57734Y116321D01*
X57685Y116412D01*
X57671Y116426D01*
X57661Y116443D01*
X57582Y116510D01*
X57507Y116582D01*
X57489Y116590D01*
X57474Y116603D01*
X57378Y116642D01*
X57284Y116685D01*
X57264Y116687D01*
X57246Y116695D01*
X57079Y116713D01*
X54639Y116713D01*
X52713Y118639D01*
X52713Y121361D01*
X53553Y122201D01*
X53606Y122275D01*
X53666Y122345D01*
X53678Y122375D01*
X53697Y122401D01*
X53724Y122488D01*
X53758Y122573D01*
X53762Y122614D01*
X53769Y122636D01*
X53768Y122668D01*
X53776Y122740D01*
X53776Y195513D01*
X53762Y195603D01*
X53754Y195694D01*
X53742Y195724D01*
X53737Y195756D01*
X53694Y195836D01*
X53658Y195920D01*
X53632Y195952D01*
X53621Y195973D01*
X53598Y195995D01*
X53553Y196051D01*
X52649Y196955D01*
X52649Y203045D01*
X57728Y208124D01*
X57781Y208198D01*
X57841Y208267D01*
X57853Y208297D01*
X57872Y208324D01*
X57899Y208411D01*
X57933Y208495D01*
X57937Y208536D01*
X57944Y208559D01*
X57943Y208591D01*
X57951Y208662D01*
X57951Y327810D01*
X57940Y327880D01*
X57938Y327952D01*
X57920Y328001D01*
X57912Y328052D01*
X57878Y328116D01*
X57853Y328183D01*
X57821Y328224D01*
X57796Y328270D01*
X57744Y328319D01*
X57700Y328375D01*
X57656Y328403D01*
X57618Y328439D01*
X57553Y328469D01*
X57493Y328508D01*
X57442Y328521D01*
X57395Y328543D01*
X57324Y328551D01*
X57254Y328568D01*
X57202Y328564D01*
X57151Y328570D01*
X57080Y328554D01*
X57009Y328549D01*
X56961Y328529D01*
X56910Y328517D01*
X56849Y328481D01*
X56783Y328453D01*
X56727Y328408D01*
X56699Y328391D01*
X56684Y328374D01*
X56652Y328348D01*
X55097Y326793D01*
X52374Y326793D01*
X50449Y328719D01*
X50449Y331441D01*
X52374Y333367D01*
X55097Y333367D01*
X56652Y331812D01*
X56710Y331770D01*
X56762Y331721D01*
X56809Y331699D01*
X56851Y331669D01*
X56920Y331648D01*
X56985Y331617D01*
X57037Y331612D01*
X57087Y331596D01*
X57158Y331598D01*
X57229Y331590D01*
X57280Y331601D01*
X57332Y331603D01*
X57400Y331627D01*
X57470Y331643D01*
X57515Y331669D01*
X57563Y331687D01*
X57619Y331732D01*
X57681Y331769D01*
X57715Y331808D01*
X57755Y331841D01*
X57794Y331901D01*
X57841Y331956D01*
X57860Y332004D01*
X57888Y332048D01*
X57906Y332117D01*
X57933Y332184D01*
X57941Y332255D01*
X57949Y332286D01*
X57947Y332310D01*
X57951Y332350D01*
X57951Y378344D01*
X57937Y378434D01*
X57929Y378525D01*
X57917Y378555D01*
X57912Y378587D01*
X57869Y378668D01*
X57833Y378752D01*
X57807Y378784D01*
X57796Y378804D01*
X57773Y378827D01*
X57728Y378882D01*
X57189Y379422D01*
X57189Y382578D01*
X59422Y384811D01*
X62578Y384811D01*
X64811Y382578D01*
X64811Y379422D01*
X64272Y378882D01*
X64219Y378809D01*
X64159Y378739D01*
X64147Y378709D01*
X64128Y378683D01*
X64101Y378596D01*
X64067Y378511D01*
X64063Y378470D01*
X64056Y378448D01*
X64057Y378415D01*
X64049Y378344D01*
X64049Y205821D01*
X61976Y203749D01*
X61965Y203732D01*
X61949Y203720D01*
X61893Y203633D01*
X61833Y203549D01*
X61827Y203530D01*
X61816Y203513D01*
X61791Y203413D01*
X61760Y203314D01*
X61761Y203294D01*
X61756Y203275D01*
X61764Y203172D01*
X61767Y203068D01*
X61773Y203049D01*
X61775Y203029D01*
X61815Y202934D01*
X61851Y202837D01*
X61864Y202821D01*
X61871Y202803D01*
X61976Y202672D01*
X63287Y201361D01*
X63287Y200083D01*
X63301Y199993D01*
X63309Y199902D01*
X63321Y199872D01*
X63326Y199840D01*
X63369Y199759D01*
X63405Y199676D01*
X63431Y199643D01*
X63442Y199623D01*
X63465Y199601D01*
X63510Y199545D01*
X65874Y197181D01*
X65874Y152819D01*
X62383Y149328D01*
X62330Y149254D01*
X62270Y149185D01*
X62258Y149155D01*
X62239Y149129D01*
X62212Y149042D01*
X62178Y148957D01*
X62174Y148916D01*
X62167Y148894D01*
X62168Y148861D01*
X62160Y148790D01*
X62160Y82804D01*
X62174Y82714D01*
X62182Y82623D01*
X62194Y82593D01*
X62199Y82561D01*
X62242Y82480D01*
X62278Y82396D01*
X62304Y82364D01*
X62315Y82344D01*
X62338Y82321D01*
X62383Y82265D01*
X63287Y81361D01*
X63287Y78639D01*
X61361Y76713D01*
X58639Y76713D01*
G37*
%LPD*%
%LPC*%
G36*
X184639Y116635D02*
X184639Y116635D01*
X182713Y118561D01*
X182713Y121283D01*
X183617Y122187D01*
X183670Y122261D01*
X183730Y122331D01*
X183742Y122361D01*
X183761Y122387D01*
X183788Y122474D01*
X183822Y122559D01*
X183826Y122600D01*
X183833Y122622D01*
X183832Y122654D01*
X183840Y122726D01*
X183840Y169354D01*
X183829Y169425D01*
X183827Y169497D01*
X183809Y169546D01*
X183801Y169597D01*
X183767Y169660D01*
X183742Y169728D01*
X183710Y169768D01*
X183685Y169814D01*
X183633Y169864D01*
X183589Y169920D01*
X183545Y169948D01*
X183507Y169984D01*
X183442Y170014D01*
X183382Y170053D01*
X183331Y170066D01*
X183284Y170087D01*
X183213Y170095D01*
X183143Y170113D01*
X183091Y170109D01*
X183040Y170115D01*
X182969Y170099D01*
X182898Y170094D01*
X182850Y170073D01*
X182799Y170062D01*
X182738Y170025D01*
X182672Y169997D01*
X182616Y169953D01*
X182588Y169936D01*
X182573Y169918D01*
X182541Y169893D01*
X181361Y168713D01*
X178639Y168713D01*
X176713Y170639D01*
X176713Y173361D01*
X178639Y175287D01*
X181361Y175287D01*
X182541Y174107D01*
X182599Y174066D01*
X182651Y174016D01*
X182698Y173994D01*
X182740Y173964D01*
X182809Y173943D01*
X182874Y173913D01*
X182926Y173907D01*
X182976Y173891D01*
X183047Y173893D01*
X183118Y173885D01*
X183169Y173897D01*
X183221Y173898D01*
X183289Y173922D01*
X183359Y173938D01*
X183404Y173964D01*
X183452Y173982D01*
X183508Y174027D01*
X183570Y174064D01*
X183604Y174103D01*
X183644Y174136D01*
X183683Y174196D01*
X183730Y174251D01*
X183749Y174299D01*
X183777Y174343D01*
X183795Y174412D01*
X183822Y174479D01*
X183830Y174550D01*
X183838Y174581D01*
X183836Y174605D01*
X183840Y174646D01*
X183840Y267354D01*
X183829Y267425D01*
X183827Y267497D01*
X183809Y267546D01*
X183801Y267597D01*
X183767Y267660D01*
X183742Y267728D01*
X183710Y267768D01*
X183685Y267814D01*
X183633Y267864D01*
X183589Y267920D01*
X183545Y267948D01*
X183507Y267984D01*
X183442Y268014D01*
X183382Y268053D01*
X183331Y268066D01*
X183284Y268087D01*
X183213Y268095D01*
X183143Y268113D01*
X183091Y268109D01*
X183040Y268115D01*
X182969Y268099D01*
X182898Y268094D01*
X182850Y268073D01*
X182799Y268062D01*
X182738Y268025D01*
X182672Y267997D01*
X182616Y267953D01*
X182588Y267936D01*
X182573Y267918D01*
X182541Y267893D01*
X181361Y266713D01*
X178639Y266713D01*
X176713Y268639D01*
X176713Y271389D01*
X176730Y271409D01*
X176742Y271439D01*
X176761Y271465D01*
X176788Y271552D01*
X176822Y271637D01*
X176826Y271678D01*
X176833Y271700D01*
X176832Y271732D01*
X176840Y271804D01*
X176840Y360196D01*
X176826Y360286D01*
X176818Y360377D01*
X176806Y360407D01*
X176801Y360439D01*
X176758Y360520D01*
X176722Y360604D01*
X176696Y360636D01*
X176685Y360656D01*
X176662Y360679D01*
X176617Y360735D01*
X175713Y361639D01*
X175713Y364361D01*
X177639Y366287D01*
X180361Y366287D01*
X182287Y364361D01*
X182287Y361639D01*
X181383Y360735D01*
X181330Y360661D01*
X181270Y360591D01*
X181258Y360561D01*
X181239Y360535D01*
X181212Y360448D01*
X181178Y360363D01*
X181174Y360322D01*
X181167Y360300D01*
X181168Y360268D01*
X181160Y360196D01*
X181160Y273804D01*
X181174Y273714D01*
X181182Y273623D01*
X181194Y273593D01*
X181199Y273561D01*
X181242Y273481D01*
X181278Y273396D01*
X181304Y273364D01*
X181315Y273344D01*
X181338Y273321D01*
X181383Y273265D01*
X182541Y272107D01*
X182599Y272066D01*
X182651Y272016D01*
X182698Y271994D01*
X182740Y271964D01*
X182809Y271943D01*
X182874Y271913D01*
X182926Y271907D01*
X182976Y271891D01*
X183047Y271893D01*
X183118Y271885D01*
X183169Y271897D01*
X183221Y271898D01*
X183289Y271922D01*
X183359Y271938D01*
X183404Y271964D01*
X183452Y271982D01*
X183508Y272027D01*
X183570Y272064D01*
X183604Y272103D01*
X183644Y272136D01*
X183683Y272196D01*
X183730Y272251D01*
X183749Y272299D01*
X183777Y272343D01*
X183795Y272412D01*
X183822Y272479D01*
X183830Y272550D01*
X183838Y272581D01*
X183836Y272605D01*
X183840Y272646D01*
X183840Y298895D01*
X190105Y305160D01*
X204196Y305160D01*
X204286Y305174D01*
X204377Y305182D01*
X204407Y305194D01*
X204439Y305199D01*
X204520Y305242D01*
X204604Y305278D01*
X204636Y305304D01*
X204656Y305315D01*
X204679Y305338D01*
X204735Y305383D01*
X205639Y306287D01*
X208361Y306287D01*
X208541Y306107D01*
X208599Y306066D01*
X208651Y306016D01*
X208698Y305994D01*
X208740Y305964D01*
X208809Y305943D01*
X208874Y305913D01*
X208926Y305907D01*
X208976Y305891D01*
X209047Y305893D01*
X209118Y305885D01*
X209169Y305897D01*
X209221Y305898D01*
X209289Y305922D01*
X209359Y305938D01*
X209404Y305964D01*
X209452Y305982D01*
X209508Y306027D01*
X209570Y306064D01*
X209604Y306103D01*
X209644Y306136D01*
X209683Y306196D01*
X209730Y306251D01*
X209749Y306299D01*
X209777Y306343D01*
X209795Y306412D01*
X209822Y306479D01*
X209830Y306550D01*
X209838Y306581D01*
X209836Y306605D01*
X209840Y306646D01*
X209840Y346528D01*
X209829Y346598D01*
X209827Y346670D01*
X209809Y346719D01*
X209801Y346770D01*
X209767Y346834D01*
X209742Y346901D01*
X209710Y346942D01*
X209685Y346988D01*
X209633Y347037D01*
X209589Y347093D01*
X209545Y347121D01*
X209507Y347157D01*
X209442Y347187D01*
X209382Y347226D01*
X209331Y347239D01*
X209284Y347261D01*
X209213Y347269D01*
X209143Y347286D01*
X209091Y347282D01*
X209040Y347288D01*
X208969Y347273D01*
X208898Y347267D01*
X208850Y347247D01*
X208799Y347236D01*
X208738Y347199D01*
X208672Y347171D01*
X208616Y347126D01*
X208588Y347109D01*
X208573Y347092D01*
X208541Y347066D01*
X206775Y345300D01*
X204052Y345300D01*
X203038Y346314D01*
X203022Y346325D01*
X203010Y346341D01*
X202922Y346397D01*
X202839Y346457D01*
X202820Y346463D01*
X202803Y346474D01*
X202702Y346499D01*
X202603Y346529D01*
X202584Y346529D01*
X202564Y346534D01*
X202461Y346526D01*
X202358Y346523D01*
X202339Y346516D01*
X202319Y346515D01*
X202224Y346474D01*
X202127Y346439D01*
X202111Y346426D01*
X202093Y346418D01*
X201962Y346314D01*
X201361Y345713D01*
X198639Y345713D01*
X196713Y347639D01*
X196713Y350361D01*
X198639Y352287D01*
X201361Y352287D01*
X202375Y351273D01*
X202391Y351261D01*
X202404Y351246D01*
X202491Y351190D01*
X202575Y351130D01*
X202594Y351124D01*
X202611Y351113D01*
X202711Y351088D01*
X202810Y351057D01*
X202830Y351058D01*
X202849Y351053D01*
X202952Y351061D01*
X203056Y351064D01*
X203075Y351070D01*
X203094Y351072D01*
X203189Y351112D01*
X203287Y351148D01*
X203302Y351160D01*
X203321Y351168D01*
X203452Y351273D01*
X204052Y351873D01*
X206775Y351873D01*
X208541Y350107D01*
X208599Y350066D01*
X208651Y350016D01*
X208698Y349994D01*
X208740Y349964D01*
X208809Y349943D01*
X208874Y349913D01*
X208926Y349907D01*
X208976Y349891D01*
X209047Y349893D01*
X209118Y349885D01*
X209169Y349897D01*
X209221Y349898D01*
X209289Y349922D01*
X209359Y349938D01*
X209404Y349964D01*
X209452Y349982D01*
X209508Y350027D01*
X209570Y350064D01*
X209604Y350103D01*
X209644Y350136D01*
X209683Y350196D01*
X209730Y350251D01*
X209749Y350299D01*
X209777Y350343D01*
X209795Y350412D01*
X209822Y350479D01*
X209830Y350550D01*
X209838Y350581D01*
X209836Y350605D01*
X209840Y350646D01*
X209840Y376895D01*
X216490Y383545D01*
X216543Y383619D01*
X216603Y383688D01*
X216615Y383718D01*
X216634Y383744D01*
X216661Y383831D01*
X216695Y383916D01*
X216699Y383957D01*
X216706Y383979D01*
X216705Y384012D01*
X216713Y384083D01*
X216713Y385361D01*
X218639Y387287D01*
X221361Y387287D01*
X223287Y385361D01*
X223287Y382639D01*
X221361Y380713D01*
X220083Y380713D01*
X219993Y380699D01*
X219902Y380691D01*
X219872Y380679D01*
X219840Y380674D01*
X219759Y380631D01*
X219676Y380595D01*
X219643Y380569D01*
X219623Y380558D01*
X219601Y380535D01*
X219545Y380490D01*
X214383Y375328D01*
X214332Y375258D01*
X214291Y375215D01*
X214286Y375203D01*
X214270Y375185D01*
X214258Y375155D01*
X214239Y375129D01*
X214216Y375052D01*
X214188Y374992D01*
X214186Y374976D01*
X214178Y374957D01*
X214174Y374916D01*
X214167Y374894D01*
X214168Y374861D01*
X214160Y374790D01*
X214160Y297804D01*
X214174Y297714D01*
X214182Y297623D01*
X214194Y297593D01*
X214199Y297561D01*
X214242Y297480D01*
X214278Y297396D01*
X214304Y297364D01*
X214315Y297344D01*
X214338Y297321D01*
X214383Y297265D01*
X215287Y296361D01*
X215287Y293639D01*
X213361Y291713D01*
X210639Y291713D01*
X208713Y293639D01*
X208713Y294412D01*
X208710Y294432D01*
X208712Y294451D01*
X208690Y294553D01*
X208674Y294655D01*
X208664Y294672D01*
X208660Y294692D01*
X208607Y294781D01*
X208558Y294872D01*
X208544Y294886D01*
X208534Y294903D01*
X208455Y294970D01*
X208380Y295042D01*
X208362Y295050D01*
X208347Y295063D01*
X208251Y295102D01*
X208157Y295145D01*
X208137Y295147D01*
X208119Y295155D01*
X207952Y295173D01*
X205639Y295173D01*
X203713Y297099D01*
X203713Y300079D01*
X203710Y300099D01*
X203712Y300118D01*
X203690Y300220D01*
X203674Y300322D01*
X203664Y300339D01*
X203660Y300359D01*
X203607Y300448D01*
X203558Y300539D01*
X203544Y300553D01*
X203534Y300570D01*
X203455Y300637D01*
X203380Y300709D01*
X203362Y300717D01*
X203347Y300730D01*
X203251Y300769D01*
X203157Y300812D01*
X203137Y300814D01*
X203119Y300822D01*
X202952Y300840D01*
X192210Y300840D01*
X192120Y300826D01*
X192029Y300818D01*
X191999Y300806D01*
X191967Y300801D01*
X191886Y300758D01*
X191803Y300722D01*
X191770Y300696D01*
X191750Y300685D01*
X191728Y300662D01*
X191672Y300617D01*
X188383Y297328D01*
X188330Y297254D01*
X188270Y297185D01*
X188258Y297155D01*
X188239Y297129D01*
X188212Y297042D01*
X188178Y296957D01*
X188174Y296916D01*
X188167Y296894D01*
X188168Y296861D01*
X188160Y296790D01*
X188160Y122726D01*
X188174Y122636D01*
X188182Y122545D01*
X188194Y122515D01*
X188199Y122483D01*
X188242Y122402D01*
X188278Y122318D01*
X188304Y122286D01*
X188315Y122266D01*
X188338Y122243D01*
X188383Y122187D01*
X189287Y121283D01*
X189287Y118561D01*
X187361Y116635D01*
X184639Y116635D01*
G37*
%LPD*%
%LPC*%
G36*
X558639Y126713D02*
X558639Y126713D01*
X556713Y128639D01*
X556713Y129917D01*
X556699Y130007D01*
X556691Y130098D01*
X556679Y130128D01*
X556674Y130160D01*
X556631Y130241D01*
X556595Y130324D01*
X556569Y130357D01*
X556558Y130377D01*
X556535Y130399D01*
X556490Y130455D01*
X554840Y132105D01*
X554840Y232196D01*
X554826Y232286D01*
X554818Y232377D01*
X554806Y232407D01*
X554801Y232439D01*
X554758Y232520D01*
X554722Y232604D01*
X554696Y232636D01*
X554685Y232656D01*
X554662Y232679D01*
X554617Y232735D01*
X553713Y233639D01*
X553713Y236361D01*
X555639Y238287D01*
X558227Y238287D01*
X558298Y238298D01*
X558370Y238300D01*
X558419Y238318D01*
X558470Y238326D01*
X558533Y238360D01*
X558601Y238385D01*
X558641Y238417D01*
X558687Y238442D01*
X558737Y238493D01*
X558793Y238538D01*
X558821Y238582D01*
X558857Y238620D01*
X558887Y238685D01*
X558926Y238745D01*
X558939Y238796D01*
X558960Y238843D01*
X558968Y238914D01*
X558986Y238984D01*
X558982Y239036D01*
X558988Y239087D01*
X558972Y239158D01*
X558967Y239229D01*
X558946Y239277D01*
X558935Y239328D01*
X558899Y239389D01*
X558870Y239455D01*
X558826Y239511D01*
X558809Y239539D01*
X558791Y239554D01*
X558766Y239586D01*
X558713Y239639D01*
X558713Y242361D01*
X560639Y244287D01*
X563361Y244287D01*
X565287Y242361D01*
X565287Y239639D01*
X564383Y238735D01*
X564330Y238661D01*
X564270Y238591D01*
X564258Y238561D01*
X564239Y238535D01*
X564212Y238448D01*
X564178Y238363D01*
X564174Y238322D01*
X564167Y238300D01*
X564168Y238268D01*
X564160Y238196D01*
X564160Y158217D01*
X564174Y158127D01*
X564182Y158036D01*
X564194Y158006D01*
X564199Y157974D01*
X564242Y157893D01*
X564278Y157809D01*
X564287Y157798D01*
X564287Y156006D01*
X564298Y155935D01*
X564300Y155863D01*
X564318Y155814D01*
X564326Y155763D01*
X564360Y155700D01*
X564385Y155632D01*
X564417Y155592D01*
X564442Y155545D01*
X564494Y155496D01*
X564538Y155440D01*
X564582Y155412D01*
X564620Y155376D01*
X564685Y155346D01*
X564745Y155307D01*
X564796Y155294D01*
X564843Y155272D01*
X564914Y155265D01*
X564984Y155247D01*
X565036Y155251D01*
X565087Y155245D01*
X565158Y155261D01*
X565229Y155266D01*
X565277Y155287D01*
X565328Y155298D01*
X565389Y155334D01*
X565455Y155363D01*
X565511Y155407D01*
X565539Y155424D01*
X565554Y155442D01*
X565586Y155467D01*
X566915Y156796D01*
X567617Y157498D01*
X567670Y157572D01*
X567730Y157642D01*
X567742Y157672D01*
X567761Y157698D01*
X567788Y157785D01*
X567822Y157870D01*
X567826Y157911D01*
X567833Y157933D01*
X567832Y157965D01*
X567840Y158037D01*
X567840Y256196D01*
X567826Y256286D01*
X567818Y256377D01*
X567806Y256407D01*
X567801Y256439D01*
X567758Y256520D01*
X567722Y256604D01*
X567696Y256636D01*
X567685Y256656D01*
X567662Y256679D01*
X567617Y256735D01*
X566713Y257639D01*
X566713Y260361D01*
X568639Y262287D01*
X571361Y262287D01*
X573287Y260361D01*
X573287Y257639D01*
X572383Y256735D01*
X572330Y256661D01*
X572270Y256591D01*
X572258Y256561D01*
X572239Y256535D01*
X572212Y256448D01*
X572178Y256363D01*
X572174Y256322D01*
X572167Y256300D01*
X572168Y256268D01*
X572160Y256196D01*
X572160Y156804D01*
X572174Y156714D01*
X572182Y156623D01*
X572194Y156593D01*
X572199Y156561D01*
X572242Y156480D01*
X572278Y156396D01*
X572304Y156364D01*
X572315Y156344D01*
X572338Y156321D01*
X572383Y156265D01*
X574287Y154361D01*
X574287Y151639D01*
X572361Y149713D01*
X570508Y149713D01*
X570488Y149710D01*
X570469Y149712D01*
X570367Y149690D01*
X570265Y149674D01*
X570248Y149664D01*
X570228Y149660D01*
X570139Y149607D01*
X570048Y149558D01*
X570034Y149544D01*
X570017Y149534D01*
X569950Y149455D01*
X569878Y149380D01*
X569870Y149362D01*
X569857Y149347D01*
X569818Y149251D01*
X569775Y149157D01*
X569773Y149137D01*
X569765Y149119D01*
X569747Y148952D01*
X569747Y145623D01*
X569748Y145615D01*
X569748Y145612D01*
X569751Y145596D01*
X569761Y145533D01*
X569769Y145442D01*
X569781Y145412D01*
X569786Y145380D01*
X569829Y145299D01*
X569865Y145216D01*
X569891Y145183D01*
X569902Y145163D01*
X569925Y145141D01*
X569970Y145085D01*
X571545Y143510D01*
X571619Y143457D01*
X571688Y143397D01*
X571718Y143385D01*
X571744Y143366D01*
X571831Y143339D01*
X571916Y143305D01*
X571957Y143301D01*
X571979Y143294D01*
X572012Y143295D01*
X572083Y143287D01*
X573361Y143287D01*
X575287Y141361D01*
X575287Y138639D01*
X573361Y136713D01*
X570639Y136713D01*
X568713Y138639D01*
X568713Y139917D01*
X568699Y140007D01*
X568691Y140098D01*
X568679Y140128D01*
X568674Y140160D01*
X568631Y140241D01*
X568595Y140324D01*
X568569Y140357D01*
X568558Y140377D01*
X568535Y140399D01*
X568490Y140455D01*
X565427Y143518D01*
X565427Y154354D01*
X565416Y154425D01*
X565414Y154497D01*
X565396Y154546D01*
X565388Y154597D01*
X565354Y154660D01*
X565329Y154728D01*
X565297Y154768D01*
X565272Y154814D01*
X565220Y154864D01*
X565176Y154920D01*
X565132Y154948D01*
X565094Y154984D01*
X565029Y155014D01*
X564969Y155053D01*
X564918Y155066D01*
X564871Y155087D01*
X564800Y155095D01*
X564730Y155113D01*
X564678Y155109D01*
X564627Y155115D01*
X564556Y155099D01*
X564485Y155094D01*
X564437Y155073D01*
X564386Y155062D01*
X564325Y155025D01*
X564259Y154997D01*
X564203Y154953D01*
X564175Y154936D01*
X564160Y154918D01*
X564128Y154893D01*
X562361Y153126D01*
X559921Y153126D01*
X559901Y153123D01*
X559882Y153125D01*
X559780Y153103D01*
X559678Y153087D01*
X559661Y153077D01*
X559641Y153073D01*
X559552Y153020D01*
X559461Y152971D01*
X559447Y152957D01*
X559430Y152947D01*
X559363Y152868D01*
X559291Y152793D01*
X559283Y152775D01*
X559270Y152760D01*
X559231Y152664D01*
X559188Y152570D01*
X559186Y152550D01*
X559178Y152532D01*
X559160Y152365D01*
X559160Y134210D01*
X559161Y134199D01*
X559161Y134193D01*
X559168Y134160D01*
X559174Y134120D01*
X559182Y134029D01*
X559194Y133999D01*
X559199Y133967D01*
X559242Y133886D01*
X559278Y133803D01*
X559304Y133770D01*
X559315Y133750D01*
X559338Y133728D01*
X559383Y133672D01*
X559545Y133510D01*
X559619Y133457D01*
X559688Y133397D01*
X559718Y133385D01*
X559744Y133366D01*
X559831Y133339D01*
X559916Y133305D01*
X559957Y133301D01*
X559979Y133294D01*
X560012Y133295D01*
X560083Y133287D01*
X561361Y133287D01*
X563287Y131361D01*
X563287Y128639D01*
X561361Y126713D01*
X558639Y126713D01*
G37*
%LPD*%
%LPC*%
G36*
X127639Y101713D02*
X127639Y101713D01*
X125713Y103639D01*
X125713Y106361D01*
X126617Y107265D01*
X126670Y107339D01*
X126730Y107409D01*
X126742Y107439D01*
X126761Y107465D01*
X126788Y107552D01*
X126822Y107637D01*
X126826Y107678D01*
X126833Y107700D01*
X126832Y107732D01*
X126840Y107804D01*
X126840Y137196D01*
X126826Y137286D01*
X126818Y137377D01*
X126806Y137407D01*
X126801Y137439D01*
X126758Y137520D01*
X126722Y137604D01*
X126696Y137636D01*
X126685Y137656D01*
X126662Y137679D01*
X126617Y137735D01*
X125713Y138639D01*
X125713Y141361D01*
X126617Y142265D01*
X126670Y142339D01*
X126730Y142409D01*
X126742Y142439D01*
X126761Y142465D01*
X126788Y142552D01*
X126822Y142637D01*
X126826Y142678D01*
X126833Y142700D01*
X126832Y142732D01*
X126840Y142804D01*
X126840Y268196D01*
X126826Y268286D01*
X126818Y268377D01*
X126806Y268407D01*
X126801Y268439D01*
X126758Y268520D01*
X126722Y268604D01*
X126696Y268636D01*
X126685Y268656D01*
X126662Y268679D01*
X126652Y268691D01*
X126645Y268703D01*
X126637Y268710D01*
X126617Y268735D01*
X125713Y269639D01*
X125713Y272361D01*
X127639Y274287D01*
X130361Y274287D01*
X131962Y272686D01*
X131978Y272675D01*
X131990Y272659D01*
X132078Y272603D01*
X132161Y272543D01*
X132180Y272537D01*
X132197Y272526D01*
X132298Y272501D01*
X132397Y272471D01*
X132416Y272471D01*
X132436Y272466D01*
X132539Y272474D01*
X132642Y272477D01*
X132661Y272484D01*
X132681Y272485D01*
X132776Y272526D01*
X132873Y272561D01*
X132889Y272574D01*
X132907Y272582D01*
X133038Y272686D01*
X134639Y274287D01*
X137361Y274287D01*
X139287Y272361D01*
X139287Y269639D01*
X137383Y267735D01*
X137330Y267661D01*
X137270Y267591D01*
X137258Y267561D01*
X137239Y267535D01*
X137212Y267448D01*
X137178Y267363D01*
X137174Y267322D01*
X137167Y267300D01*
X137168Y267268D01*
X137160Y267196D01*
X137160Y192804D01*
X137174Y192714D01*
X137182Y192623D01*
X137194Y192593D01*
X137199Y192561D01*
X137242Y192480D01*
X137278Y192396D01*
X137304Y192364D01*
X137315Y192344D01*
X137338Y192321D01*
X137383Y192265D01*
X138287Y191361D01*
X138287Y188639D01*
X136361Y186713D01*
X133639Y186713D01*
X132459Y187893D01*
X132401Y187934D01*
X132349Y187984D01*
X132302Y188006D01*
X132260Y188036D01*
X132191Y188057D01*
X132126Y188087D01*
X132074Y188093D01*
X132024Y188109D01*
X131953Y188107D01*
X131882Y188115D01*
X131831Y188103D01*
X131779Y188102D01*
X131711Y188078D01*
X131641Y188062D01*
X131596Y188036D01*
X131548Y188018D01*
X131492Y187973D01*
X131430Y187936D01*
X131396Y187897D01*
X131356Y187864D01*
X131317Y187804D01*
X131270Y187749D01*
X131251Y187701D01*
X131223Y187657D01*
X131205Y187588D01*
X131178Y187521D01*
X131170Y187450D01*
X131162Y187419D01*
X131164Y187395D01*
X131160Y187354D01*
X131160Y142804D01*
X131174Y142714D01*
X131182Y142623D01*
X131194Y142593D01*
X131199Y142561D01*
X131242Y142480D01*
X131278Y142396D01*
X131304Y142364D01*
X131315Y142344D01*
X131338Y142321D01*
X131383Y142265D01*
X132287Y141361D01*
X132287Y138639D01*
X131383Y137735D01*
X131330Y137661D01*
X131270Y137591D01*
X131258Y137561D01*
X131239Y137535D01*
X131212Y137448D01*
X131178Y137363D01*
X131174Y137322D01*
X131167Y137300D01*
X131168Y137268D01*
X131160Y137196D01*
X131160Y107804D01*
X131174Y107714D01*
X131182Y107623D01*
X131194Y107593D01*
X131199Y107561D01*
X131242Y107480D01*
X131278Y107396D01*
X131304Y107364D01*
X131315Y107344D01*
X131338Y107321D01*
X131383Y107265D01*
X132287Y106361D01*
X132287Y103639D01*
X130361Y101713D01*
X127639Y101713D01*
G37*
%LPD*%
%LPC*%
G36*
X99639Y98713D02*
X99639Y98713D01*
X97713Y100639D01*
X97713Y103361D01*
X98617Y104265D01*
X98670Y104339D01*
X98730Y104409D01*
X98742Y104439D01*
X98761Y104465D01*
X98788Y104552D01*
X98822Y104637D01*
X98826Y104678D01*
X98833Y104700D01*
X98832Y104732D01*
X98840Y104804D01*
X98840Y153196D01*
X98826Y153286D01*
X98818Y153377D01*
X98806Y153407D01*
X98801Y153439D01*
X98758Y153520D01*
X98722Y153604D01*
X98696Y153636D01*
X98685Y153656D01*
X98662Y153679D01*
X98617Y153735D01*
X97713Y154639D01*
X97713Y157361D01*
X98617Y158265D01*
X98670Y158339D01*
X98730Y158409D01*
X98742Y158439D01*
X98761Y158465D01*
X98788Y158552D01*
X98822Y158637D01*
X98826Y158678D01*
X98833Y158700D01*
X98832Y158732D01*
X98840Y158804D01*
X98840Y250963D01*
X98826Y251053D01*
X98818Y251144D01*
X98806Y251174D01*
X98801Y251206D01*
X98758Y251287D01*
X98722Y251371D01*
X98696Y251403D01*
X98685Y251423D01*
X98662Y251446D01*
X98617Y251502D01*
X96427Y253692D01*
X96427Y258308D01*
X96617Y258498D01*
X96670Y258572D01*
X96730Y258642D01*
X96742Y258672D01*
X96761Y258698D01*
X96788Y258785D01*
X96822Y258870D01*
X96826Y258911D01*
X96833Y258933D01*
X96832Y258965D01*
X96840Y259037D01*
X96840Y281196D01*
X96826Y281286D01*
X96818Y281377D01*
X96806Y281407D01*
X96801Y281439D01*
X96758Y281520D01*
X96722Y281604D01*
X96696Y281636D01*
X96685Y281656D01*
X96662Y281679D01*
X96617Y281735D01*
X95713Y282639D01*
X95713Y285361D01*
X97639Y287287D01*
X100361Y287287D01*
X102287Y285361D01*
X102287Y282639D01*
X101383Y281735D01*
X101330Y281661D01*
X101270Y281591D01*
X101258Y281561D01*
X101239Y281535D01*
X101212Y281448D01*
X101178Y281363D01*
X101174Y281322D01*
X101167Y281300D01*
X101168Y281268D01*
X101160Y281196D01*
X101160Y260048D01*
X101163Y260028D01*
X101161Y260009D01*
X101183Y259907D01*
X101199Y259805D01*
X101209Y259788D01*
X101213Y259768D01*
X101266Y259679D01*
X101315Y259588D01*
X101329Y259574D01*
X101339Y259557D01*
X101418Y259490D01*
X101493Y259418D01*
X101511Y259410D01*
X101526Y259397D01*
X101622Y259358D01*
X101716Y259315D01*
X101736Y259313D01*
X101754Y259305D01*
X101921Y259287D01*
X103361Y259287D01*
X105287Y257361D01*
X105287Y254639D01*
X103383Y252735D01*
X103336Y252670D01*
X103321Y252654D01*
X103318Y252647D01*
X103270Y252591D01*
X103258Y252561D01*
X103239Y252535D01*
X103212Y252448D01*
X103178Y252363D01*
X103174Y252322D01*
X103167Y252300D01*
X103168Y252268D01*
X103160Y252196D01*
X103160Y179646D01*
X103171Y179575D01*
X103173Y179503D01*
X103191Y179454D01*
X103199Y179403D01*
X103233Y179340D01*
X103258Y179272D01*
X103290Y179232D01*
X103315Y179186D01*
X103367Y179136D01*
X103411Y179080D01*
X103455Y179052D01*
X103493Y179016D01*
X103558Y178986D01*
X103618Y178947D01*
X103669Y178934D01*
X103716Y178913D01*
X103787Y178905D01*
X103857Y178887D01*
X103909Y178891D01*
X103960Y178885D01*
X104031Y178901D01*
X104102Y178906D01*
X104150Y178927D01*
X104201Y178938D01*
X104262Y178975D01*
X104328Y179003D01*
X104384Y179047D01*
X104412Y179064D01*
X104427Y179082D01*
X104459Y179107D01*
X105639Y180287D01*
X108361Y180287D01*
X110287Y178361D01*
X110287Y175639D01*
X108361Y173713D01*
X105639Y173713D01*
X104459Y174893D01*
X104401Y174934D01*
X104349Y174984D01*
X104302Y175006D01*
X104260Y175036D01*
X104191Y175057D01*
X104126Y175087D01*
X104074Y175093D01*
X104024Y175109D01*
X103953Y175107D01*
X103882Y175115D01*
X103831Y175103D01*
X103779Y175102D01*
X103711Y175078D01*
X103641Y175062D01*
X103596Y175036D01*
X103548Y175018D01*
X103492Y174973D01*
X103430Y174936D01*
X103396Y174897D01*
X103356Y174864D01*
X103317Y174804D01*
X103270Y174749D01*
X103251Y174701D01*
X103223Y174657D01*
X103205Y174588D01*
X103178Y174521D01*
X103170Y174450D01*
X103162Y174419D01*
X103164Y174395D01*
X103160Y174354D01*
X103160Y169646D01*
X103171Y169575D01*
X103173Y169503D01*
X103191Y169454D01*
X103199Y169403D01*
X103233Y169340D01*
X103258Y169272D01*
X103290Y169232D01*
X103315Y169186D01*
X103367Y169136D01*
X103411Y169080D01*
X103455Y169052D01*
X103493Y169016D01*
X103558Y168986D01*
X103618Y168947D01*
X103669Y168934D01*
X103716Y168913D01*
X103787Y168905D01*
X103857Y168887D01*
X103909Y168891D01*
X103960Y168885D01*
X104031Y168901D01*
X104102Y168906D01*
X104150Y168927D01*
X104201Y168938D01*
X104262Y168975D01*
X104328Y169003D01*
X104384Y169047D01*
X104412Y169064D01*
X104427Y169082D01*
X104459Y169107D01*
X105639Y170287D01*
X108361Y170287D01*
X110287Y168361D01*
X110287Y165639D01*
X108361Y163713D01*
X105639Y163713D01*
X104459Y164893D01*
X104401Y164934D01*
X104349Y164984D01*
X104302Y165006D01*
X104260Y165036D01*
X104191Y165057D01*
X104126Y165087D01*
X104074Y165093D01*
X104024Y165109D01*
X103953Y165107D01*
X103882Y165115D01*
X103831Y165103D01*
X103779Y165102D01*
X103711Y165078D01*
X103641Y165062D01*
X103596Y165036D01*
X103548Y165018D01*
X103492Y164973D01*
X103430Y164936D01*
X103396Y164897D01*
X103356Y164864D01*
X103317Y164804D01*
X103270Y164749D01*
X103251Y164701D01*
X103223Y164657D01*
X103205Y164588D01*
X103178Y164521D01*
X103170Y164450D01*
X103162Y164419D01*
X103164Y164395D01*
X103160Y164354D01*
X103160Y158804D01*
X103174Y158714D01*
X103182Y158623D01*
X103194Y158593D01*
X103199Y158561D01*
X103242Y158480D01*
X103278Y158396D01*
X103304Y158364D01*
X103315Y158344D01*
X103338Y158321D01*
X103383Y158265D01*
X104287Y157361D01*
X104287Y154639D01*
X103383Y153735D01*
X103330Y153661D01*
X103270Y153591D01*
X103258Y153561D01*
X103239Y153535D01*
X103212Y153448D01*
X103178Y153363D01*
X103174Y153322D01*
X103167Y153300D01*
X103168Y153268D01*
X103160Y153196D01*
X103160Y104804D01*
X103174Y104714D01*
X103182Y104623D01*
X103194Y104593D01*
X103199Y104561D01*
X103242Y104480D01*
X103278Y104396D01*
X103304Y104364D01*
X103315Y104344D01*
X103338Y104321D01*
X103383Y104265D01*
X104287Y103361D01*
X104287Y100639D01*
X102361Y98713D01*
X99639Y98713D01*
G37*
%LPD*%
%LPC*%
G36*
X28639Y306713D02*
X28639Y306713D01*
X26713Y308639D01*
X26713Y311361D01*
X28617Y313265D01*
X28670Y313339D01*
X28730Y313409D01*
X28742Y313439D01*
X28761Y313465D01*
X28788Y313552D01*
X28822Y313637D01*
X28826Y313678D01*
X28833Y313700D01*
X28832Y313732D01*
X28840Y313804D01*
X28840Y372196D01*
X28826Y372286D01*
X28818Y372377D01*
X28806Y372407D01*
X28801Y372439D01*
X28758Y372520D01*
X28722Y372604D01*
X28696Y372636D01*
X28685Y372656D01*
X28662Y372679D01*
X28617Y372735D01*
X27713Y373639D01*
X27713Y376361D01*
X29639Y378287D01*
X32361Y378287D01*
X34287Y376361D01*
X34287Y373639D01*
X33383Y372735D01*
X33330Y372661D01*
X33270Y372591D01*
X33258Y372561D01*
X33239Y372535D01*
X33212Y372448D01*
X33178Y372363D01*
X33174Y372322D01*
X33167Y372300D01*
X33168Y372268D01*
X33160Y372196D01*
X33160Y357048D01*
X33163Y357028D01*
X33161Y357009D01*
X33183Y356907D01*
X33199Y356805D01*
X33209Y356788D01*
X33213Y356768D01*
X33266Y356679D01*
X33315Y356588D01*
X33329Y356574D01*
X33339Y356557D01*
X33418Y356490D01*
X33493Y356418D01*
X33511Y356410D01*
X33526Y356397D01*
X33622Y356358D01*
X33716Y356315D01*
X33736Y356313D01*
X33754Y356305D01*
X33921Y356287D01*
X36361Y356287D01*
X38287Y354361D01*
X38287Y351639D01*
X36361Y349713D01*
X33921Y349713D01*
X33901Y349710D01*
X33882Y349712D01*
X33780Y349690D01*
X33678Y349674D01*
X33661Y349664D01*
X33641Y349660D01*
X33552Y349607D01*
X33461Y349558D01*
X33447Y349544D01*
X33430Y349534D01*
X33363Y349455D01*
X33291Y349380D01*
X33283Y349362D01*
X33270Y349347D01*
X33231Y349251D01*
X33188Y349157D01*
X33186Y349137D01*
X33178Y349119D01*
X33160Y348952D01*
X33160Y311804D01*
X33174Y311714D01*
X33182Y311623D01*
X33194Y311593D01*
X33199Y311561D01*
X33242Y311480D01*
X33278Y311396D01*
X33287Y311385D01*
X33287Y308639D01*
X31361Y306713D01*
X28639Y306713D01*
G37*
%LPD*%
%LPC*%
G36*
X159639Y204713D02*
X159639Y204713D01*
X157713Y206639D01*
X157713Y209361D01*
X158617Y210265D01*
X158670Y210339D01*
X158730Y210409D01*
X158742Y210439D01*
X158761Y210465D01*
X158788Y210552D01*
X158822Y210637D01*
X158826Y210678D01*
X158833Y210700D01*
X158832Y210732D01*
X158840Y210804D01*
X158840Y266952D01*
X158837Y266972D01*
X158839Y266991D01*
X158817Y267093D01*
X158801Y267195D01*
X158791Y267212D01*
X158787Y267232D01*
X158734Y267321D01*
X158685Y267412D01*
X158671Y267426D01*
X158661Y267443D01*
X158582Y267510D01*
X158507Y267582D01*
X158489Y267590D01*
X158474Y267603D01*
X158378Y267642D01*
X158284Y267685D01*
X158264Y267687D01*
X158246Y267695D01*
X158079Y267713D01*
X157639Y267713D01*
X155713Y269639D01*
X155713Y272361D01*
X157639Y274287D01*
X160361Y274287D01*
X162287Y272361D01*
X162287Y271083D01*
X162301Y270993D01*
X162309Y270902D01*
X162321Y270872D01*
X162326Y270840D01*
X162369Y270759D01*
X162405Y270676D01*
X162431Y270643D01*
X162442Y270623D01*
X162465Y270601D01*
X162510Y270545D01*
X163160Y269895D01*
X163160Y210804D01*
X163174Y210714D01*
X163182Y210623D01*
X163194Y210593D01*
X163199Y210561D01*
X163242Y210480D01*
X163278Y210396D01*
X163304Y210364D01*
X163315Y210344D01*
X163338Y210321D01*
X163383Y210265D01*
X164287Y209361D01*
X164287Y206639D01*
X162361Y204713D01*
X159639Y204713D01*
G37*
%LPD*%
%LPC*%
G36*
X38181Y110855D02*
X38181Y110855D01*
X34820Y112247D01*
X32247Y114820D01*
X30855Y118181D01*
X30855Y121819D01*
X32247Y125180D01*
X34820Y127753D01*
X38181Y129145D01*
X41819Y129145D01*
X45180Y127753D01*
X47753Y125180D01*
X49145Y121819D01*
X49145Y118181D01*
X47753Y114820D01*
X45180Y112247D01*
X41819Y110855D01*
X38181Y110855D01*
G37*
%LPD*%
%LPC*%
G36*
X38181Y136255D02*
X38181Y136255D01*
X34820Y137647D01*
X32247Y140220D01*
X30855Y143581D01*
X30855Y147219D01*
X32247Y150580D01*
X34820Y153153D01*
X38181Y154545D01*
X41819Y154545D01*
X45180Y153153D01*
X47753Y150580D01*
X49145Y147219D01*
X49145Y143581D01*
X47753Y140220D01*
X45180Y137647D01*
X41819Y136255D01*
X38181Y136255D01*
G37*
%LPD*%
%LPC*%
G36*
X38181Y187055D02*
X38181Y187055D01*
X34820Y188447D01*
X32247Y191020D01*
X30855Y194381D01*
X30855Y198019D01*
X32247Y201380D01*
X34820Y203953D01*
X38181Y205345D01*
X41819Y205345D01*
X45180Y203953D01*
X47753Y201380D01*
X49145Y198019D01*
X49145Y194381D01*
X47753Y191020D01*
X45180Y188447D01*
X41819Y187055D01*
X38181Y187055D01*
G37*
%LPD*%
%LPC*%
G36*
X38181Y161655D02*
X38181Y161655D01*
X34820Y163047D01*
X32247Y165620D01*
X30855Y168981D01*
X30855Y172619D01*
X32247Y175980D01*
X34820Y178553D01*
X38181Y179945D01*
X41819Y179945D01*
X45180Y178553D01*
X47753Y175980D01*
X49145Y172619D01*
X49145Y168981D01*
X47753Y165620D01*
X45180Y163047D01*
X41819Y161655D01*
X38181Y161655D01*
G37*
%LPD*%
%LPC*%
G36*
X380881Y90855D02*
X380881Y90855D01*
X377520Y92247D01*
X374947Y94820D01*
X373555Y98181D01*
X373555Y101819D01*
X374947Y105180D01*
X377520Y107753D01*
X380881Y109145D01*
X384519Y109145D01*
X387880Y107753D01*
X390453Y105180D01*
X391845Y101819D01*
X391845Y98181D01*
X390453Y94820D01*
X387880Y92247D01*
X384519Y90855D01*
X380881Y90855D01*
G37*
%LPD*%
%LPC*%
G36*
X355481Y90855D02*
X355481Y90855D01*
X352120Y92247D01*
X349547Y94820D01*
X348155Y98181D01*
X348155Y101819D01*
X349547Y105180D01*
X352120Y107753D01*
X355481Y109145D01*
X359119Y109145D01*
X362480Y107753D01*
X365053Y105180D01*
X366445Y101819D01*
X366445Y98181D01*
X365053Y94820D01*
X362480Y92247D01*
X359119Y90855D01*
X355481Y90855D01*
G37*
%LPD*%
%LPC*%
G36*
X133639Y311713D02*
X133639Y311713D01*
X131713Y313639D01*
X131713Y316361D01*
X133639Y318287D01*
X134917Y318287D01*
X135007Y318301D01*
X135098Y318309D01*
X135128Y318321D01*
X135160Y318326D01*
X135241Y318369D01*
X135324Y318405D01*
X135357Y318431D01*
X135377Y318442D01*
X135399Y318465D01*
X135455Y318510D01*
X147617Y330672D01*
X147670Y330746D01*
X147730Y330815D01*
X147742Y330845D01*
X147761Y330871D01*
X147788Y330958D01*
X147822Y331043D01*
X147826Y331084D01*
X147833Y331106D01*
X147832Y331138D01*
X147840Y331210D01*
X147840Y357895D01*
X148490Y358545D01*
X148543Y358619D01*
X148603Y358688D01*
X148615Y358718D01*
X148634Y358744D01*
X148661Y358831D01*
X148695Y358916D01*
X148699Y358957D01*
X148706Y358979D01*
X148705Y359012D01*
X148713Y359083D01*
X148713Y360361D01*
X150639Y362287D01*
X153361Y362287D01*
X155287Y360361D01*
X155287Y357639D01*
X153361Y355713D01*
X152921Y355713D01*
X152901Y355710D01*
X152882Y355712D01*
X152780Y355690D01*
X152678Y355674D01*
X152661Y355664D01*
X152641Y355660D01*
X152552Y355607D01*
X152461Y355558D01*
X152447Y355544D01*
X152430Y355534D01*
X152363Y355455D01*
X152291Y355380D01*
X152283Y355362D01*
X152270Y355347D01*
X152231Y355251D01*
X152188Y355157D01*
X152186Y355137D01*
X152178Y355119D01*
X152160Y354952D01*
X152160Y329105D01*
X138510Y315455D01*
X138457Y315381D01*
X138397Y315312D01*
X138385Y315282D01*
X138366Y315256D01*
X138339Y315169D01*
X138305Y315084D01*
X138301Y315043D01*
X138294Y315021D01*
X138295Y314988D01*
X138287Y314917D01*
X138287Y313639D01*
X136361Y311713D01*
X133639Y311713D01*
G37*
%LPD*%
G36*
X267618Y166134D02*
X267618Y166134D01*
X267689Y166139D01*
X267737Y166160D01*
X267788Y166171D01*
X267849Y166207D01*
X267915Y166236D01*
X267971Y166280D01*
X267999Y166297D01*
X268014Y166315D01*
X268046Y166340D01*
X269617Y167911D01*
X269670Y167985D01*
X269730Y168055D01*
X269742Y168085D01*
X269761Y168111D01*
X269788Y168198D01*
X269822Y168283D01*
X269826Y168324D01*
X269833Y168346D01*
X269832Y168378D01*
X269840Y168450D01*
X269840Y250952D01*
X269837Y250972D01*
X269839Y250991D01*
X269817Y251093D01*
X269801Y251195D01*
X269791Y251212D01*
X269787Y251232D01*
X269734Y251321D01*
X269685Y251412D01*
X269671Y251426D01*
X269661Y251443D01*
X269582Y251510D01*
X269507Y251582D01*
X269489Y251590D01*
X269474Y251603D01*
X269378Y251642D01*
X269284Y251685D01*
X269264Y251687D01*
X269246Y251695D01*
X269079Y251713D01*
X267508Y251713D01*
X267488Y251710D01*
X267469Y251712D01*
X267367Y251690D01*
X267265Y251674D01*
X267248Y251664D01*
X267228Y251660D01*
X267139Y251607D01*
X267048Y251558D01*
X267034Y251544D01*
X267017Y251534D01*
X266950Y251455D01*
X266878Y251380D01*
X266870Y251362D01*
X266857Y251347D01*
X266818Y251251D01*
X266775Y251157D01*
X266773Y251137D01*
X266765Y251119D01*
X266747Y250952D01*
X266747Y166879D01*
X266758Y166808D01*
X266760Y166736D01*
X266778Y166687D01*
X266786Y166636D01*
X266820Y166573D01*
X266845Y166505D01*
X266877Y166464D01*
X266902Y166418D01*
X266953Y166369D01*
X266998Y166313D01*
X267042Y166285D01*
X267080Y166249D01*
X267145Y166219D01*
X267205Y166180D01*
X267256Y166167D01*
X267303Y166145D01*
X267374Y166138D01*
X267444Y166120D01*
X267496Y166124D01*
X267547Y166118D01*
X267618Y166134D01*
G37*
%LPC*%
G36*
X221639Y344713D02*
X221639Y344713D01*
X219713Y346639D01*
X219713Y349361D01*
X220617Y350265D01*
X220670Y350339D01*
X220730Y350409D01*
X220742Y350439D01*
X220761Y350465D01*
X220788Y350552D01*
X220822Y350637D01*
X220826Y350678D01*
X220833Y350700D01*
X220832Y350732D01*
X220840Y350804D01*
X220840Y366497D01*
X220826Y366587D01*
X220818Y366678D01*
X220806Y366708D01*
X220801Y366740D01*
X220758Y366820D01*
X220722Y366904D01*
X220696Y366936D01*
X220685Y366957D01*
X220662Y366979D01*
X220617Y367035D01*
X220162Y367490D01*
X220088Y367543D01*
X220019Y367603D01*
X219989Y367615D01*
X219962Y367634D01*
X219875Y367661D01*
X219791Y367695D01*
X219750Y367699D01*
X219727Y367706D01*
X219695Y367705D01*
X219624Y367713D01*
X218639Y367713D01*
X216713Y369639D01*
X216713Y372361D01*
X218639Y374287D01*
X221361Y374287D01*
X223287Y372361D01*
X223287Y370790D01*
X223301Y370700D01*
X223309Y370609D01*
X223321Y370579D01*
X223326Y370547D01*
X223369Y370466D01*
X223405Y370382D01*
X223431Y370350D01*
X223442Y370330D01*
X223465Y370307D01*
X223510Y370251D01*
X225160Y368601D01*
X225160Y350804D01*
X225174Y350714D01*
X225182Y350623D01*
X225194Y350593D01*
X225199Y350561D01*
X225242Y350480D01*
X225278Y350396D01*
X225304Y350364D01*
X225315Y350344D01*
X225338Y350321D01*
X225383Y350265D01*
X226287Y349361D01*
X226287Y346639D01*
X224361Y344713D01*
X221639Y344713D01*
G37*
%LPD*%
G36*
X269169Y109303D02*
X269169Y109303D01*
X269221Y109304D01*
X269289Y109329D01*
X269359Y109344D01*
X269404Y109371D01*
X269452Y109388D01*
X269508Y109433D01*
X269570Y109470D01*
X269604Y109510D01*
X269644Y109542D01*
X269683Y109602D01*
X269730Y109657D01*
X269749Y109705D01*
X269777Y109749D01*
X269795Y109819D01*
X269822Y109885D01*
X269830Y109956D01*
X269838Y109988D01*
X269836Y110011D01*
X269840Y110052D01*
X269840Y156376D01*
X269826Y156466D01*
X269818Y156557D01*
X269806Y156587D01*
X269801Y156619D01*
X269758Y156700D01*
X269722Y156784D01*
X269696Y156816D01*
X269685Y156836D01*
X269662Y156859D01*
X269617Y156915D01*
X268046Y158486D01*
X267988Y158527D01*
X267936Y158577D01*
X267889Y158599D01*
X267847Y158629D01*
X267778Y158650D01*
X267713Y158681D01*
X267661Y158686D01*
X267611Y158702D01*
X267540Y158700D01*
X267469Y158708D01*
X267418Y158697D01*
X267366Y158695D01*
X267298Y158671D01*
X267228Y158655D01*
X267184Y158629D01*
X267135Y158611D01*
X267079Y158566D01*
X267017Y158529D01*
X266983Y158490D01*
X266943Y158457D01*
X266904Y158397D01*
X266857Y158342D01*
X266838Y158294D01*
X266810Y158250D01*
X266792Y158181D01*
X266765Y158114D01*
X266757Y158043D01*
X266749Y158012D01*
X266751Y157988D01*
X266747Y157947D01*
X266747Y111623D01*
X266761Y111533D01*
X266769Y111442D01*
X266781Y111412D01*
X266786Y111380D01*
X266829Y111300D01*
X266865Y111216D01*
X266891Y111183D01*
X266902Y111163D01*
X266925Y111141D01*
X266970Y111085D01*
X268541Y109514D01*
X268599Y109472D01*
X268651Y109422D01*
X268698Y109400D01*
X268740Y109370D01*
X268809Y109349D01*
X268874Y109319D01*
X268926Y109313D01*
X268976Y109298D01*
X269047Y109300D01*
X269118Y109292D01*
X269169Y109303D01*
G37*
%LPC*%
G36*
X251639Y360713D02*
X251639Y360713D01*
X249713Y362639D01*
X249713Y365361D01*
X249728Y365376D01*
X249781Y365450D01*
X249841Y365520D01*
X249853Y365550D01*
X249872Y365576D01*
X249899Y365663D01*
X249933Y365748D01*
X249937Y365789D01*
X249944Y365811D01*
X249943Y365843D01*
X249951Y365915D01*
X249951Y378085D01*
X249937Y378175D01*
X249929Y378266D01*
X249917Y378296D01*
X249912Y378328D01*
X249869Y378409D01*
X249833Y378493D01*
X249807Y378525D01*
X249796Y378545D01*
X249773Y378568D01*
X249728Y378624D01*
X249713Y378639D01*
X249713Y381361D01*
X251639Y383287D01*
X254361Y383287D01*
X256287Y381361D01*
X256287Y378639D01*
X256272Y378624D01*
X256219Y378550D01*
X256159Y378480D01*
X256147Y378450D01*
X256128Y378424D01*
X256101Y378337D01*
X256067Y378252D01*
X256063Y378211D01*
X256056Y378189D01*
X256057Y378157D01*
X256049Y378085D01*
X256049Y365915D01*
X256063Y365825D01*
X256071Y365734D01*
X256083Y365704D01*
X256088Y365672D01*
X256131Y365591D01*
X256167Y365507D01*
X256193Y365475D01*
X256204Y365455D01*
X256227Y365432D01*
X256272Y365376D01*
X256287Y365361D01*
X256287Y362639D01*
X254361Y360713D01*
X251639Y360713D01*
G37*
%LPD*%
G36*
X132031Y191901D02*
X132031Y191901D01*
X132102Y191906D01*
X132150Y191927D01*
X132201Y191938D01*
X132262Y191975D01*
X132328Y192003D01*
X132384Y192047D01*
X132412Y192064D01*
X132427Y192082D01*
X132459Y192107D01*
X132617Y192266D01*
X132671Y192340D01*
X132730Y192409D01*
X132742Y192439D01*
X132761Y192465D01*
X132788Y192552D01*
X132822Y192637D01*
X132826Y192678D01*
X132833Y192700D01*
X132832Y192732D01*
X132840Y192804D01*
X132840Y268354D01*
X132829Y268425D01*
X132827Y268497D01*
X132809Y268546D01*
X132801Y268597D01*
X132767Y268660D01*
X132742Y268728D01*
X132710Y268768D01*
X132685Y268814D01*
X132634Y268864D01*
X132589Y268920D01*
X132545Y268948D01*
X132507Y268984D01*
X132442Y269014D01*
X132382Y269053D01*
X132331Y269066D01*
X132284Y269087D01*
X132213Y269095D01*
X132143Y269113D01*
X132091Y269109D01*
X132040Y269115D01*
X131969Y269099D01*
X131898Y269094D01*
X131850Y269073D01*
X131799Y269062D01*
X131738Y269025D01*
X131672Y268997D01*
X131616Y268953D01*
X131588Y268936D01*
X131573Y268918D01*
X131541Y268893D01*
X131383Y268735D01*
X131338Y268673D01*
X131307Y268640D01*
X131302Y268628D01*
X131270Y268591D01*
X131258Y268561D01*
X131239Y268535D01*
X131212Y268448D01*
X131178Y268363D01*
X131174Y268322D01*
X131167Y268300D01*
X131168Y268268D01*
X131160Y268196D01*
X131160Y192646D01*
X131171Y192575D01*
X131173Y192503D01*
X131191Y192454D01*
X131199Y192403D01*
X131233Y192340D01*
X131258Y192272D01*
X131290Y192232D01*
X131315Y192186D01*
X131367Y192136D01*
X131411Y192080D01*
X131455Y192052D01*
X131493Y192016D01*
X131558Y191986D01*
X131618Y191947D01*
X131669Y191934D01*
X131716Y191913D01*
X131787Y191905D01*
X131857Y191887D01*
X131909Y191891D01*
X131960Y191885D01*
X132031Y191901D01*
G37*
G36*
X73280Y85786D02*
X73280Y85786D01*
X73332Y85787D01*
X73400Y85811D01*
X73470Y85827D01*
X73515Y85853D01*
X73563Y85871D01*
X73619Y85916D01*
X73681Y85953D01*
X73715Y85992D01*
X73755Y86025D01*
X73794Y86085D01*
X73841Y86140D01*
X73860Y86188D01*
X73888Y86232D01*
X73906Y86301D01*
X73933Y86368D01*
X73941Y86439D01*
X73949Y86470D01*
X73947Y86494D01*
X73951Y86535D01*
X73951Y157085D01*
X73949Y157099D01*
X73950Y157109D01*
X73939Y157163D01*
X73937Y157175D01*
X73929Y157266D01*
X73917Y157296D01*
X73912Y157328D01*
X73869Y157409D01*
X73833Y157493D01*
X73807Y157525D01*
X73796Y157545D01*
X73773Y157568D01*
X73728Y157624D01*
X73459Y157893D01*
X73401Y157934D01*
X73349Y157984D01*
X73302Y158006D01*
X73260Y158036D01*
X73191Y158057D01*
X73126Y158087D01*
X73074Y158093D01*
X73024Y158109D01*
X72953Y158107D01*
X72882Y158115D01*
X72831Y158103D01*
X72779Y158102D01*
X72711Y158078D01*
X72641Y158062D01*
X72596Y158036D01*
X72548Y158018D01*
X72492Y157973D01*
X72430Y157936D01*
X72396Y157897D01*
X72356Y157864D01*
X72317Y157804D01*
X72270Y157749D01*
X72251Y157701D01*
X72223Y157657D01*
X72205Y157588D01*
X72178Y157521D01*
X72170Y157450D01*
X72162Y157419D01*
X72164Y157395D01*
X72160Y157354D01*
X72160Y86804D01*
X72174Y86714D01*
X72182Y86623D01*
X72194Y86593D01*
X72199Y86561D01*
X72242Y86480D01*
X72278Y86396D01*
X72304Y86364D01*
X72315Y86344D01*
X72338Y86321D01*
X72383Y86265D01*
X72652Y85996D01*
X72710Y85955D01*
X72762Y85905D01*
X72809Y85883D01*
X72851Y85853D01*
X72920Y85832D01*
X72985Y85802D01*
X73037Y85796D01*
X73087Y85780D01*
X73158Y85782D01*
X73229Y85774D01*
X73280Y85786D01*
G37*
%LPC*%
G36*
X407639Y149300D02*
X407639Y149300D01*
X405713Y151226D01*
X405713Y152640D01*
X405702Y152711D01*
X405700Y152783D01*
X405682Y152832D01*
X405674Y152883D01*
X405640Y152946D01*
X405615Y153014D01*
X405583Y153054D01*
X405558Y153100D01*
X405507Y153150D01*
X405462Y153206D01*
X405418Y153234D01*
X405380Y153270D01*
X405315Y153300D01*
X405255Y153339D01*
X405204Y153352D01*
X405157Y153373D01*
X405086Y153381D01*
X405016Y153399D01*
X404964Y153395D01*
X404913Y153401D01*
X404842Y153385D01*
X404771Y153380D01*
X404723Y153359D01*
X404672Y153348D01*
X404611Y153312D01*
X404545Y153283D01*
X404489Y153239D01*
X404461Y153222D01*
X404446Y153204D01*
X404414Y153179D01*
X404361Y153126D01*
X401639Y153126D01*
X399713Y155052D01*
X399713Y157774D01*
X400353Y158414D01*
X400394Y158472D01*
X400444Y158524D01*
X400466Y158571D01*
X400496Y158613D01*
X400517Y158682D01*
X400547Y158747D01*
X400553Y158799D01*
X400569Y158849D01*
X400567Y158920D01*
X400575Y158991D01*
X400563Y159042D01*
X400562Y159094D01*
X400538Y159162D01*
X400522Y159232D01*
X400496Y159277D01*
X400478Y159325D01*
X400433Y159381D01*
X400396Y159443D01*
X400357Y159477D01*
X400324Y159517D01*
X400264Y159556D01*
X400209Y159603D01*
X400161Y159622D01*
X400117Y159650D01*
X400048Y159668D01*
X399981Y159695D01*
X399910Y159703D01*
X399879Y159711D01*
X399855Y159709D01*
X399814Y159713D01*
X398639Y159713D01*
X396713Y161639D01*
X396713Y164361D01*
X398639Y166287D01*
X401361Y166287D01*
X403287Y164361D01*
X403287Y161639D01*
X402647Y160999D01*
X402606Y160941D01*
X402556Y160889D01*
X402534Y160842D01*
X402504Y160800D01*
X402483Y160731D01*
X402453Y160666D01*
X402447Y160614D01*
X402431Y160564D01*
X402433Y160493D01*
X402425Y160422D01*
X402437Y160371D01*
X402438Y160319D01*
X402462Y160251D01*
X402478Y160181D01*
X402504Y160136D01*
X402522Y160088D01*
X402567Y160032D01*
X402604Y159970D01*
X402643Y159936D01*
X402676Y159896D01*
X402736Y159857D01*
X402791Y159810D01*
X402839Y159791D01*
X402883Y159763D01*
X402952Y159745D01*
X403019Y159718D01*
X403090Y159710D01*
X403121Y159702D01*
X403145Y159704D01*
X403186Y159700D01*
X404361Y159700D01*
X406287Y157774D01*
X406287Y156360D01*
X406298Y156289D01*
X406300Y156217D01*
X406318Y156168D01*
X406326Y156117D01*
X406360Y156054D01*
X406385Y155986D01*
X406417Y155946D01*
X406442Y155900D01*
X406493Y155850D01*
X406538Y155794D01*
X406582Y155766D01*
X406620Y155730D01*
X406685Y155700D01*
X406745Y155661D01*
X406796Y155648D01*
X406843Y155627D01*
X406914Y155619D01*
X406984Y155601D01*
X407036Y155605D01*
X407087Y155599D01*
X407158Y155615D01*
X407229Y155620D01*
X407277Y155641D01*
X407328Y155652D01*
X407389Y155688D01*
X407455Y155717D01*
X407511Y155761D01*
X407539Y155778D01*
X407554Y155796D01*
X407586Y155821D01*
X407639Y155874D01*
X410361Y155874D01*
X412287Y153948D01*
X412287Y151226D01*
X410361Y149300D01*
X407639Y149300D01*
G37*
%LPD*%
%LPC*%
G36*
X327639Y281713D02*
X327639Y281713D01*
X325713Y283639D01*
X325713Y286361D01*
X327814Y288462D01*
X327825Y288478D01*
X327841Y288490D01*
X327897Y288578D01*
X327957Y288661D01*
X327963Y288680D01*
X327974Y288697D01*
X327999Y288798D01*
X328029Y288897D01*
X328029Y288916D01*
X328034Y288936D01*
X328026Y289039D01*
X328023Y289142D01*
X328016Y289161D01*
X328015Y289181D01*
X327974Y289276D01*
X327939Y289373D01*
X327926Y289389D01*
X327918Y289407D01*
X327814Y289538D01*
X325713Y291639D01*
X325713Y294361D01*
X327639Y296287D01*
X330361Y296287D01*
X332287Y294361D01*
X332287Y291639D01*
X330186Y289538D01*
X330175Y289522D01*
X330159Y289510D01*
X330103Y289422D01*
X330043Y289339D01*
X330037Y289320D01*
X330026Y289303D01*
X330001Y289202D01*
X329971Y289103D01*
X329971Y289084D01*
X329966Y289064D01*
X329974Y288961D01*
X329977Y288858D01*
X329984Y288839D01*
X329985Y288819D01*
X330026Y288724D01*
X330061Y288627D01*
X330074Y288611D01*
X330082Y288593D01*
X330186Y288462D01*
X332287Y286361D01*
X332287Y283639D01*
X330361Y281713D01*
X327639Y281713D01*
G37*
%LPD*%
%LPC*%
G36*
X127639Y334713D02*
X127639Y334713D01*
X125713Y336639D01*
X125713Y339361D01*
X127814Y341462D01*
X127825Y341478D01*
X127841Y341490D01*
X127897Y341578D01*
X127957Y341661D01*
X127963Y341680D01*
X127974Y341697D01*
X127999Y341798D01*
X128029Y341897D01*
X128029Y341916D01*
X128034Y341936D01*
X128026Y342039D01*
X128023Y342142D01*
X128016Y342161D01*
X128015Y342181D01*
X127974Y342276D01*
X127939Y342373D01*
X127926Y342389D01*
X127918Y342407D01*
X127814Y342538D01*
X125713Y344639D01*
X125713Y347361D01*
X127639Y349287D01*
X130361Y349287D01*
X132287Y347361D01*
X132287Y344639D01*
X130186Y342538D01*
X130175Y342522D01*
X130159Y342510D01*
X130103Y342422D01*
X130043Y342339D01*
X130037Y342320D01*
X130026Y342303D01*
X130001Y342202D01*
X129971Y342103D01*
X129971Y342084D01*
X129966Y342064D01*
X129974Y341961D01*
X129977Y341858D01*
X129984Y341839D01*
X129985Y341819D01*
X130026Y341724D01*
X130061Y341627D01*
X130074Y341611D01*
X130082Y341593D01*
X130186Y341462D01*
X132287Y339361D01*
X132287Y336639D01*
X130361Y334713D01*
X127639Y334713D01*
G37*
%LPD*%
%LPC*%
G36*
X242639Y336713D02*
X242639Y336713D01*
X240713Y338639D01*
X240713Y341361D01*
X242639Y343287D01*
X245361Y343287D01*
X245414Y343234D01*
X245472Y343193D01*
X245524Y343143D01*
X245571Y343121D01*
X245613Y343091D01*
X245682Y343070D01*
X245747Y343040D01*
X245799Y343034D01*
X245849Y343018D01*
X245920Y343020D01*
X245991Y343012D01*
X246042Y343024D01*
X246094Y343025D01*
X246162Y343049D01*
X246232Y343065D01*
X246277Y343091D01*
X246325Y343109D01*
X246381Y343154D01*
X246443Y343191D01*
X246477Y343230D01*
X246517Y343263D01*
X246556Y343323D01*
X246603Y343378D01*
X246622Y343426D01*
X246650Y343470D01*
X246668Y343539D01*
X246695Y343606D01*
X246703Y343677D01*
X246711Y343708D01*
X246709Y343732D01*
X246713Y343773D01*
X246713Y345361D01*
X248639Y347287D01*
X251361Y347287D01*
X253287Y345361D01*
X253287Y342639D01*
X251361Y340713D01*
X248639Y340713D01*
X248586Y340766D01*
X248528Y340807D01*
X248476Y340857D01*
X248429Y340879D01*
X248387Y340909D01*
X248318Y340930D01*
X248253Y340960D01*
X248201Y340966D01*
X248151Y340982D01*
X248080Y340980D01*
X248009Y340988D01*
X247958Y340976D01*
X247906Y340975D01*
X247838Y340951D01*
X247768Y340935D01*
X247723Y340909D01*
X247675Y340891D01*
X247619Y340846D01*
X247557Y340809D01*
X247523Y340770D01*
X247483Y340737D01*
X247444Y340677D01*
X247397Y340622D01*
X247378Y340574D01*
X247350Y340530D01*
X247332Y340461D01*
X247305Y340394D01*
X247297Y340323D01*
X247289Y340292D01*
X247291Y340268D01*
X247287Y340227D01*
X247287Y338639D01*
X245361Y336713D01*
X242639Y336713D01*
G37*
%LPD*%
%LPC*%
G36*
X508639Y347713D02*
X508639Y347713D01*
X506713Y349639D01*
X506713Y352361D01*
X508639Y354287D01*
X510952Y354287D01*
X510972Y354290D01*
X510991Y354288D01*
X511093Y354310D01*
X511195Y354326D01*
X511212Y354336D01*
X511232Y354340D01*
X511321Y354393D01*
X511412Y354442D01*
X511426Y354456D01*
X511443Y354466D01*
X511510Y354545D01*
X511582Y354620D01*
X511590Y354638D01*
X511603Y354653D01*
X511642Y354749D01*
X511685Y354843D01*
X511687Y354863D01*
X511695Y354881D01*
X511713Y355048D01*
X511713Y357361D01*
X513639Y359287D01*
X516361Y359287D01*
X518287Y357361D01*
X518287Y354639D01*
X516361Y352713D01*
X514048Y352713D01*
X514028Y352710D01*
X514009Y352712D01*
X513907Y352690D01*
X513805Y352674D01*
X513788Y352664D01*
X513768Y352660D01*
X513679Y352607D01*
X513588Y352558D01*
X513574Y352544D01*
X513557Y352534D01*
X513490Y352455D01*
X513418Y352380D01*
X513410Y352362D01*
X513397Y352347D01*
X513358Y352251D01*
X513315Y352157D01*
X513313Y352137D01*
X513305Y352119D01*
X513287Y351952D01*
X513287Y349639D01*
X511361Y347713D01*
X508639Y347713D01*
G37*
%LPD*%
%LPC*%
G36*
X158639Y344713D02*
X158639Y344713D01*
X156713Y346639D01*
X156713Y349361D01*
X158639Y351287D01*
X160952Y351287D01*
X160972Y351290D01*
X160991Y351288D01*
X161093Y351310D01*
X161195Y351326D01*
X161212Y351336D01*
X161232Y351340D01*
X161321Y351393D01*
X161412Y351442D01*
X161426Y351456D01*
X161443Y351466D01*
X161510Y351545D01*
X161582Y351620D01*
X161590Y351638D01*
X161603Y351653D01*
X161642Y351749D01*
X161685Y351843D01*
X161687Y351863D01*
X161695Y351881D01*
X161713Y352048D01*
X161713Y354361D01*
X163639Y356287D01*
X166361Y356287D01*
X168287Y354361D01*
X168287Y351639D01*
X166361Y349713D01*
X164048Y349713D01*
X164028Y349710D01*
X164009Y349712D01*
X163907Y349690D01*
X163805Y349674D01*
X163788Y349664D01*
X163768Y349660D01*
X163679Y349607D01*
X163588Y349558D01*
X163574Y349544D01*
X163557Y349534D01*
X163490Y349455D01*
X163418Y349380D01*
X163410Y349362D01*
X163397Y349347D01*
X163358Y349251D01*
X163315Y349157D01*
X163313Y349137D01*
X163305Y349119D01*
X163287Y348952D01*
X163287Y346639D01*
X161361Y344713D01*
X158639Y344713D01*
G37*
%LPD*%
%LPC*%
G36*
X548639Y319713D02*
X548639Y319713D01*
X546713Y321639D01*
X546713Y323952D01*
X546710Y323972D01*
X546712Y323991D01*
X546690Y324093D01*
X546674Y324195D01*
X546664Y324212D01*
X546660Y324232D01*
X546607Y324321D01*
X546558Y324412D01*
X546544Y324426D01*
X546534Y324443D01*
X546455Y324510D01*
X546380Y324582D01*
X546362Y324590D01*
X546347Y324603D01*
X546251Y324642D01*
X546157Y324685D01*
X546137Y324687D01*
X546119Y324695D01*
X545952Y324713D01*
X543639Y324713D01*
X541713Y326639D01*
X541713Y329361D01*
X543639Y331287D01*
X546361Y331287D01*
X548287Y329361D01*
X548287Y327048D01*
X548290Y327028D01*
X548288Y327009D01*
X548310Y326907D01*
X548326Y326805D01*
X548336Y326788D01*
X548340Y326768D01*
X548393Y326679D01*
X548442Y326588D01*
X548456Y326574D01*
X548466Y326557D01*
X548545Y326490D01*
X548620Y326418D01*
X548638Y326410D01*
X548653Y326397D01*
X548749Y326358D01*
X548843Y326315D01*
X548863Y326313D01*
X548881Y326305D01*
X549048Y326287D01*
X551361Y326287D01*
X553287Y324361D01*
X553287Y321639D01*
X551361Y319713D01*
X548639Y319713D01*
G37*
%LPD*%
%LPC*%
G36*
X353639Y324713D02*
X353639Y324713D01*
X351713Y326639D01*
X351713Y329361D01*
X353639Y331287D01*
X355227Y331287D01*
X355298Y331298D01*
X355370Y331300D01*
X355419Y331318D01*
X355470Y331326D01*
X355533Y331360D01*
X355601Y331385D01*
X355641Y331417D01*
X355687Y331442D01*
X355737Y331494D01*
X355793Y331538D01*
X355821Y331582D01*
X355857Y331620D01*
X355887Y331685D01*
X355926Y331745D01*
X355939Y331796D01*
X355960Y331843D01*
X355968Y331914D01*
X355986Y331984D01*
X355982Y332036D01*
X355988Y332087D01*
X355972Y332158D01*
X355967Y332229D01*
X355946Y332277D01*
X355935Y332328D01*
X355898Y332389D01*
X355870Y332455D01*
X355826Y332511D01*
X355809Y332539D01*
X355791Y332554D01*
X355766Y332586D01*
X353713Y334639D01*
X353713Y337361D01*
X355639Y339287D01*
X358361Y339287D01*
X360287Y337361D01*
X360287Y334639D01*
X358361Y332713D01*
X356773Y332713D01*
X356702Y332702D01*
X356630Y332700D01*
X356581Y332682D01*
X356530Y332674D01*
X356467Y332640D01*
X356399Y332615D01*
X356359Y332583D01*
X356313Y332558D01*
X356263Y332506D01*
X356207Y332462D01*
X356179Y332418D01*
X356143Y332380D01*
X356113Y332315D01*
X356074Y332255D01*
X356061Y332204D01*
X356040Y332157D01*
X356032Y332086D01*
X356014Y332016D01*
X356018Y331964D01*
X356012Y331913D01*
X356028Y331842D01*
X356033Y331771D01*
X356054Y331723D01*
X356065Y331672D01*
X356102Y331611D01*
X356130Y331545D01*
X356174Y331489D01*
X356191Y331461D01*
X356209Y331446D01*
X356234Y331414D01*
X358287Y329361D01*
X358287Y326639D01*
X356361Y324713D01*
X353639Y324713D01*
G37*
%LPD*%
%LPC*%
G36*
X489639Y347713D02*
X489639Y347713D01*
X487713Y349639D01*
X487713Y350952D01*
X487710Y350972D01*
X487712Y350991D01*
X487690Y351093D01*
X487674Y351195D01*
X487664Y351212D01*
X487660Y351232D01*
X487607Y351321D01*
X487558Y351412D01*
X487544Y351426D01*
X487534Y351443D01*
X487455Y351510D01*
X487380Y351582D01*
X487362Y351590D01*
X487347Y351603D01*
X487251Y351642D01*
X487157Y351685D01*
X487137Y351687D01*
X487119Y351695D01*
X486952Y351713D01*
X484639Y351713D01*
X482713Y353639D01*
X482713Y356361D01*
X484639Y358287D01*
X487361Y358287D01*
X489287Y356361D01*
X489287Y355048D01*
X489290Y355028D01*
X489288Y355009D01*
X489310Y354907D01*
X489326Y354805D01*
X489336Y354788D01*
X489340Y354768D01*
X489393Y354679D01*
X489442Y354588D01*
X489456Y354574D01*
X489466Y354557D01*
X489545Y354490D01*
X489620Y354418D01*
X489638Y354410D01*
X489653Y354397D01*
X489749Y354358D01*
X489843Y354315D01*
X489863Y354313D01*
X489881Y354305D01*
X490048Y354287D01*
X492361Y354287D01*
X494287Y352361D01*
X494287Y349639D01*
X492361Y347713D01*
X489639Y347713D01*
G37*
%LPD*%
%LPC*%
G36*
X501639Y303713D02*
X501639Y303713D01*
X499713Y305639D01*
X499713Y308361D01*
X500814Y309462D01*
X500825Y309478D01*
X500841Y309490D01*
X500897Y309578D01*
X500957Y309661D01*
X500963Y309680D01*
X500974Y309697D01*
X500999Y309798D01*
X501029Y309897D01*
X501029Y309916D01*
X501034Y309936D01*
X501026Y310039D01*
X501023Y310142D01*
X501016Y310161D01*
X501015Y310181D01*
X500974Y310276D01*
X500939Y310373D01*
X500926Y310389D01*
X500918Y310407D01*
X500814Y310538D01*
X499713Y311639D01*
X499713Y314361D01*
X501639Y316287D01*
X504361Y316287D01*
X506287Y314361D01*
X506287Y311639D01*
X505186Y310538D01*
X505175Y310522D01*
X505159Y310510D01*
X505103Y310422D01*
X505043Y310339D01*
X505037Y310320D01*
X505026Y310303D01*
X505001Y310202D01*
X504971Y310103D01*
X504971Y310084D01*
X504966Y310064D01*
X504974Y309961D01*
X504977Y309858D01*
X504984Y309839D01*
X504985Y309819D01*
X505026Y309724D01*
X505061Y309627D01*
X505074Y309611D01*
X505082Y309593D01*
X505186Y309462D01*
X506287Y308361D01*
X506287Y305639D01*
X504361Y303713D01*
X501639Y303713D01*
G37*
%LPD*%
%LPC*%
G36*
X523639Y303713D02*
X523639Y303713D01*
X521713Y305639D01*
X521713Y308361D01*
X522814Y309462D01*
X522825Y309478D01*
X522841Y309490D01*
X522897Y309578D01*
X522957Y309661D01*
X522963Y309680D01*
X522974Y309697D01*
X522999Y309798D01*
X523029Y309897D01*
X523029Y309916D01*
X523034Y309936D01*
X523026Y310039D01*
X523023Y310142D01*
X523016Y310161D01*
X523015Y310181D01*
X522974Y310276D01*
X522939Y310373D01*
X522926Y310389D01*
X522918Y310407D01*
X522814Y310538D01*
X521713Y311639D01*
X521713Y314361D01*
X523639Y316287D01*
X526361Y316287D01*
X528287Y314361D01*
X528287Y311639D01*
X527186Y310538D01*
X527175Y310522D01*
X527159Y310510D01*
X527103Y310422D01*
X527043Y310339D01*
X527037Y310320D01*
X527026Y310303D01*
X527001Y310202D01*
X526971Y310103D01*
X526971Y310084D01*
X526966Y310064D01*
X526974Y309961D01*
X526977Y309858D01*
X526984Y309839D01*
X526985Y309819D01*
X527026Y309724D01*
X527061Y309627D01*
X527074Y309611D01*
X527082Y309593D01*
X527186Y309462D01*
X528287Y308361D01*
X528287Y305639D01*
X526361Y303713D01*
X523639Y303713D01*
G37*
%LPD*%
%LPC*%
G36*
X375639Y303713D02*
X375639Y303713D01*
X373713Y305639D01*
X373713Y308361D01*
X374814Y309462D01*
X374825Y309478D01*
X374841Y309490D01*
X374897Y309578D01*
X374957Y309661D01*
X374963Y309680D01*
X374974Y309697D01*
X374999Y309798D01*
X375029Y309897D01*
X375029Y309916D01*
X375034Y309936D01*
X375026Y310039D01*
X375023Y310142D01*
X375016Y310161D01*
X375015Y310181D01*
X374974Y310276D01*
X374939Y310373D01*
X374926Y310389D01*
X374918Y310407D01*
X374814Y310538D01*
X373713Y311639D01*
X373713Y314361D01*
X375639Y316287D01*
X378361Y316287D01*
X380287Y314361D01*
X380287Y311639D01*
X379186Y310538D01*
X379175Y310522D01*
X379159Y310510D01*
X379103Y310422D01*
X379043Y310339D01*
X379037Y310320D01*
X379026Y310303D01*
X379001Y310202D01*
X378971Y310103D01*
X378971Y310084D01*
X378966Y310064D01*
X378974Y309961D01*
X378977Y309858D01*
X378984Y309839D01*
X378985Y309819D01*
X379026Y309724D01*
X379061Y309627D01*
X379074Y309611D01*
X379082Y309593D01*
X379186Y309462D01*
X380287Y308361D01*
X380287Y305639D01*
X378361Y303713D01*
X375639Y303713D01*
G37*
%LPD*%
%LPC*%
G36*
X353639Y303713D02*
X353639Y303713D01*
X351713Y305639D01*
X351713Y308361D01*
X352814Y309462D01*
X352825Y309478D01*
X352841Y309490D01*
X352897Y309578D01*
X352957Y309661D01*
X352963Y309680D01*
X352974Y309697D01*
X352999Y309798D01*
X353029Y309897D01*
X353029Y309916D01*
X353034Y309936D01*
X353026Y310039D01*
X353023Y310142D01*
X353016Y310161D01*
X353015Y310181D01*
X352974Y310276D01*
X352939Y310373D01*
X352926Y310389D01*
X352918Y310407D01*
X352814Y310538D01*
X351713Y311639D01*
X351713Y314361D01*
X353639Y316287D01*
X356361Y316287D01*
X358287Y314361D01*
X358287Y311639D01*
X357186Y310538D01*
X357175Y310522D01*
X357159Y310510D01*
X357103Y310422D01*
X357043Y310339D01*
X357037Y310320D01*
X357026Y310303D01*
X357001Y310202D01*
X356971Y310103D01*
X356971Y310084D01*
X356966Y310064D01*
X356974Y309961D01*
X356977Y309858D01*
X356984Y309839D01*
X356985Y309819D01*
X357026Y309724D01*
X357061Y309627D01*
X357074Y309611D01*
X357082Y309593D01*
X357186Y309462D01*
X358287Y308361D01*
X358287Y305639D01*
X356361Y303713D01*
X353639Y303713D01*
G37*
%LPD*%
%LPC*%
G36*
X417639Y303713D02*
X417639Y303713D01*
X415713Y305639D01*
X415713Y308361D01*
X416814Y309462D01*
X416825Y309478D01*
X416841Y309490D01*
X416897Y309578D01*
X416957Y309661D01*
X416963Y309680D01*
X416974Y309697D01*
X416999Y309798D01*
X417029Y309897D01*
X417029Y309916D01*
X417034Y309936D01*
X417026Y310039D01*
X417023Y310142D01*
X417016Y310161D01*
X417015Y310181D01*
X416974Y310276D01*
X416939Y310373D01*
X416926Y310389D01*
X416918Y310407D01*
X416814Y310538D01*
X415713Y311639D01*
X415713Y314361D01*
X417639Y316287D01*
X420361Y316287D01*
X422287Y314361D01*
X422287Y311639D01*
X421186Y310538D01*
X421175Y310522D01*
X421159Y310510D01*
X421103Y310422D01*
X421043Y310339D01*
X421037Y310320D01*
X421026Y310303D01*
X421001Y310202D01*
X420971Y310103D01*
X420971Y310084D01*
X420966Y310064D01*
X420974Y309961D01*
X420977Y309858D01*
X420984Y309839D01*
X420985Y309819D01*
X421026Y309724D01*
X421061Y309627D01*
X421074Y309611D01*
X421082Y309593D01*
X421186Y309462D01*
X422287Y308361D01*
X422287Y305639D01*
X420361Y303713D01*
X417639Y303713D01*
G37*
%LPD*%
%LPC*%
G36*
X396639Y303713D02*
X396639Y303713D01*
X394713Y305639D01*
X394713Y308361D01*
X395814Y309462D01*
X395825Y309478D01*
X395841Y309490D01*
X395897Y309578D01*
X395957Y309661D01*
X395963Y309680D01*
X395974Y309697D01*
X395999Y309798D01*
X396029Y309897D01*
X396029Y309916D01*
X396034Y309936D01*
X396026Y310039D01*
X396023Y310142D01*
X396016Y310161D01*
X396015Y310181D01*
X395974Y310276D01*
X395939Y310373D01*
X395926Y310389D01*
X395918Y310407D01*
X395814Y310538D01*
X394713Y311639D01*
X394713Y314361D01*
X396639Y316287D01*
X399361Y316287D01*
X401287Y314361D01*
X401287Y311639D01*
X400186Y310538D01*
X400175Y310522D01*
X400159Y310510D01*
X400103Y310422D01*
X400043Y310339D01*
X400037Y310320D01*
X400026Y310303D01*
X400001Y310202D01*
X399971Y310103D01*
X399971Y310084D01*
X399966Y310064D01*
X399974Y309961D01*
X399977Y309858D01*
X399984Y309839D01*
X399985Y309819D01*
X400026Y309724D01*
X400061Y309627D01*
X400074Y309611D01*
X400082Y309593D01*
X400186Y309462D01*
X401287Y308361D01*
X401287Y305639D01*
X399361Y303713D01*
X396639Y303713D01*
G37*
%LPD*%
%LPC*%
G36*
X438639Y303713D02*
X438639Y303713D01*
X436713Y305639D01*
X436713Y308361D01*
X437814Y309462D01*
X437825Y309478D01*
X437841Y309490D01*
X437897Y309578D01*
X437957Y309661D01*
X437963Y309680D01*
X437974Y309697D01*
X437999Y309798D01*
X438029Y309897D01*
X438029Y309916D01*
X438034Y309936D01*
X438026Y310039D01*
X438023Y310142D01*
X438016Y310161D01*
X438015Y310181D01*
X437974Y310276D01*
X437939Y310373D01*
X437926Y310389D01*
X437918Y310407D01*
X437814Y310538D01*
X436713Y311639D01*
X436713Y314361D01*
X438639Y316287D01*
X441361Y316287D01*
X443287Y314361D01*
X443287Y311639D01*
X442186Y310538D01*
X442175Y310522D01*
X442159Y310510D01*
X442103Y310422D01*
X442043Y310339D01*
X442037Y310320D01*
X442026Y310303D01*
X442001Y310202D01*
X441971Y310103D01*
X441971Y310084D01*
X441966Y310064D01*
X441974Y309961D01*
X441977Y309858D01*
X441984Y309839D01*
X441985Y309819D01*
X442026Y309724D01*
X442061Y309627D01*
X442074Y309611D01*
X442082Y309593D01*
X442186Y309462D01*
X443287Y308361D01*
X443287Y305639D01*
X441361Y303713D01*
X438639Y303713D01*
G37*
%LPD*%
%LPC*%
G36*
X459639Y303713D02*
X459639Y303713D01*
X457713Y305639D01*
X457713Y308361D01*
X458814Y309462D01*
X458825Y309478D01*
X458841Y309490D01*
X458897Y309578D01*
X458957Y309661D01*
X458963Y309680D01*
X458974Y309697D01*
X458999Y309798D01*
X459029Y309897D01*
X459029Y309916D01*
X459034Y309936D01*
X459026Y310039D01*
X459023Y310142D01*
X459016Y310161D01*
X459015Y310181D01*
X458974Y310276D01*
X458939Y310373D01*
X458926Y310389D01*
X458918Y310407D01*
X458814Y310538D01*
X457713Y311639D01*
X457713Y314361D01*
X459639Y316287D01*
X462361Y316287D01*
X464287Y314361D01*
X464287Y311639D01*
X463186Y310538D01*
X463175Y310522D01*
X463159Y310510D01*
X463103Y310422D01*
X463043Y310339D01*
X463037Y310320D01*
X463026Y310303D01*
X463001Y310202D01*
X462971Y310103D01*
X462971Y310084D01*
X462966Y310064D01*
X462974Y309961D01*
X462977Y309858D01*
X462984Y309839D01*
X462985Y309819D01*
X463026Y309724D01*
X463061Y309627D01*
X463074Y309611D01*
X463082Y309593D01*
X463186Y309462D01*
X464287Y308361D01*
X464287Y305639D01*
X462361Y303713D01*
X459639Y303713D01*
G37*
%LPD*%
%LPC*%
G36*
X480639Y303713D02*
X480639Y303713D01*
X478713Y305639D01*
X478713Y308361D01*
X479814Y309462D01*
X479825Y309478D01*
X479841Y309490D01*
X479897Y309578D01*
X479957Y309661D01*
X479963Y309680D01*
X479974Y309697D01*
X479999Y309798D01*
X480029Y309897D01*
X480029Y309916D01*
X480034Y309936D01*
X480026Y310039D01*
X480023Y310142D01*
X480016Y310161D01*
X480015Y310181D01*
X479974Y310276D01*
X479939Y310373D01*
X479926Y310389D01*
X479918Y310407D01*
X479814Y310538D01*
X478713Y311639D01*
X478713Y314361D01*
X480639Y316287D01*
X483361Y316287D01*
X485287Y314361D01*
X485287Y311639D01*
X484186Y310538D01*
X484175Y310522D01*
X484159Y310510D01*
X484103Y310422D01*
X484043Y310339D01*
X484037Y310320D01*
X484026Y310303D01*
X484001Y310202D01*
X483971Y310103D01*
X483971Y310084D01*
X483966Y310064D01*
X483974Y309961D01*
X483977Y309858D01*
X483984Y309839D01*
X483985Y309819D01*
X484026Y309724D01*
X484061Y309627D01*
X484074Y309611D01*
X484082Y309593D01*
X484186Y309462D01*
X485287Y308361D01*
X485287Y305639D01*
X483361Y303713D01*
X480639Y303713D01*
G37*
%LPD*%
%LPC*%
G36*
X338639Y20713D02*
X338639Y20713D01*
X336713Y22639D01*
X336713Y25361D01*
X337814Y26462D01*
X337825Y26478D01*
X337841Y26490D01*
X337897Y26578D01*
X337957Y26661D01*
X337963Y26680D01*
X337974Y26697D01*
X337999Y26798D01*
X338029Y26897D01*
X338029Y26916D01*
X338034Y26936D01*
X338026Y27039D01*
X338023Y27142D01*
X338016Y27161D01*
X338015Y27181D01*
X337974Y27276D01*
X337939Y27373D01*
X337926Y27389D01*
X337918Y27407D01*
X337814Y27538D01*
X336713Y28639D01*
X336713Y31361D01*
X338639Y33287D01*
X341361Y33287D01*
X343287Y31361D01*
X343287Y28639D01*
X342186Y27538D01*
X342175Y27522D01*
X342159Y27510D01*
X342103Y27422D01*
X342043Y27339D01*
X342037Y27320D01*
X342026Y27303D01*
X342001Y27202D01*
X341971Y27103D01*
X341971Y27084D01*
X341966Y27064D01*
X341974Y26961D01*
X341977Y26858D01*
X341984Y26839D01*
X341985Y26819D01*
X342026Y26724D01*
X342061Y26627D01*
X342074Y26611D01*
X342082Y26593D01*
X342186Y26462D01*
X343287Y25361D01*
X343287Y22639D01*
X341361Y20713D01*
X338639Y20713D01*
G37*
%LPD*%
G36*
X60745Y154021D02*
X60745Y154021D01*
X60816Y154026D01*
X60864Y154047D01*
X60915Y154058D01*
X60976Y154095D01*
X61042Y154123D01*
X61098Y154168D01*
X61126Y154184D01*
X61141Y154202D01*
X61173Y154228D01*
X61331Y154386D01*
X61385Y154460D01*
X61444Y154529D01*
X61456Y154559D01*
X61475Y154585D01*
X61502Y154673D01*
X61536Y154757D01*
X61540Y154798D01*
X61547Y154821D01*
X61546Y154853D01*
X61554Y154924D01*
X61554Y195076D01*
X61540Y195166D01*
X61532Y195257D01*
X61520Y195287D01*
X61515Y195319D01*
X61472Y195399D01*
X61436Y195483D01*
X61410Y195516D01*
X61399Y195536D01*
X61376Y195558D01*
X61331Y195614D01*
X61173Y195772D01*
X61115Y195814D01*
X61063Y195864D01*
X61016Y195886D01*
X60974Y195916D01*
X60905Y195937D01*
X60840Y195967D01*
X60788Y195973D01*
X60739Y195988D01*
X60667Y195986D01*
X60596Y195994D01*
X60545Y195983D01*
X60493Y195982D01*
X60425Y195957D01*
X60355Y195942D01*
X60310Y195915D01*
X60262Y195898D01*
X60206Y195853D01*
X60144Y195816D01*
X60110Y195776D01*
X60070Y195744D01*
X60031Y195684D01*
X59984Y195629D01*
X59965Y195581D01*
X59937Y195537D01*
X59919Y195467D01*
X59892Y195401D01*
X59884Y195330D01*
X59876Y195298D01*
X59878Y195275D01*
X59874Y195234D01*
X59874Y154766D01*
X59876Y154754D01*
X59875Y154747D01*
X59883Y154707D01*
X59885Y154695D01*
X59887Y154623D01*
X59905Y154575D01*
X59913Y154523D01*
X59947Y154460D01*
X59972Y154392D01*
X60004Y154352D01*
X60029Y154306D01*
X60081Y154256D01*
X60125Y154200D01*
X60169Y154172D01*
X60207Y154136D01*
X60272Y154106D01*
X60332Y154067D01*
X60383Y154055D01*
X60430Y154033D01*
X60501Y154025D01*
X60571Y154007D01*
X60623Y154011D01*
X60674Y154006D01*
X60745Y154021D01*
G37*
%LPC*%
G36*
X88639Y316713D02*
X88639Y316713D01*
X86713Y318639D01*
X86713Y321361D01*
X87084Y321732D01*
X87095Y321748D01*
X87111Y321760D01*
X87140Y321806D01*
X87166Y321833D01*
X87183Y321870D01*
X87227Y321931D01*
X87233Y321950D01*
X87244Y321967D01*
X87262Y322040D01*
X87269Y322056D01*
X87272Y322076D01*
X87299Y322167D01*
X87299Y322186D01*
X87304Y322206D01*
X87296Y322300D01*
X87297Y322300D01*
X87296Y322301D01*
X87296Y322309D01*
X87293Y322412D01*
X87286Y322431D01*
X87285Y322451D01*
X87244Y322546D01*
X87209Y322643D01*
X87196Y322659D01*
X87188Y322677D01*
X87084Y322808D01*
X86713Y323179D01*
X86713Y325901D01*
X88639Y327827D01*
X91361Y327827D01*
X93287Y325901D01*
X93287Y323179D01*
X92916Y322808D01*
X92905Y322792D01*
X92889Y322780D01*
X92833Y322693D01*
X92773Y322609D01*
X92767Y322590D01*
X92756Y322573D01*
X92731Y322472D01*
X92701Y322373D01*
X92701Y322354D01*
X92696Y322334D01*
X92704Y322231D01*
X92704Y322228D01*
X92704Y322222D01*
X92705Y322217D01*
X92707Y322128D01*
X92714Y322109D01*
X92715Y322089D01*
X92750Y322007D01*
X92756Y321981D01*
X92768Y321961D01*
X92791Y321897D01*
X92804Y321881D01*
X92812Y321863D01*
X92871Y321789D01*
X92882Y321770D01*
X92894Y321760D01*
X92916Y321732D01*
X93287Y321361D01*
X93287Y318639D01*
X91361Y316713D01*
X88639Y316713D01*
G37*
%LPD*%
%LPC*%
G36*
X288523Y385523D02*
X288523Y385523D01*
X288523Y394046D01*
X289379Y393911D01*
X290900Y393416D01*
X292325Y392690D01*
X293619Y391750D01*
X294750Y390619D01*
X295690Y389325D01*
X296416Y387900D01*
X296911Y386379D01*
X297046Y385523D01*
X288523Y385523D01*
G37*
%LPD*%
%LPC*%
G36*
X288523Y382477D02*
X288523Y382477D01*
X297046Y382477D01*
X296911Y381621D01*
X296416Y380100D01*
X295690Y378675D01*
X294750Y377381D01*
X293619Y376250D01*
X292325Y375310D01*
X290900Y374584D01*
X289379Y374089D01*
X288523Y373954D01*
X288523Y382477D01*
G37*
%LPD*%
%LPC*%
G36*
X276954Y385523D02*
X276954Y385523D01*
X277089Y386379D01*
X277584Y387900D01*
X278310Y389325D01*
X279250Y390619D01*
X280381Y391750D01*
X281675Y392690D01*
X283100Y393416D01*
X284621Y393911D01*
X285477Y394046D01*
X285477Y385523D01*
X276954Y385523D01*
G37*
%LPD*%
%LPC*%
G36*
X284621Y374089D02*
X284621Y374089D01*
X283100Y374584D01*
X281675Y375310D01*
X280381Y376250D01*
X279250Y377381D01*
X278310Y378675D01*
X277584Y380100D01*
X277089Y381621D01*
X276954Y382477D01*
X285477Y382477D01*
X285477Y373954D01*
X284621Y374089D01*
G37*
%LPD*%
%LPC*%
G36*
X87422Y376189D02*
X87422Y376189D01*
X85189Y378422D01*
X85189Y381578D01*
X87422Y383811D01*
X90578Y383811D01*
X92811Y381578D01*
X92811Y378422D01*
X90578Y376189D01*
X87422Y376189D01*
G37*
%LPD*%
G36*
X575512Y359290D02*
X575512Y359290D01*
X575531Y359288D01*
X575633Y359310D01*
X575735Y359326D01*
X575752Y359336D01*
X575772Y359340D01*
X575861Y359393D01*
X575952Y359442D01*
X575966Y359456D01*
X575983Y359466D01*
X576050Y359545D01*
X576122Y359620D01*
X576130Y359638D01*
X576143Y359653D01*
X576182Y359749D01*
X576225Y359843D01*
X576227Y359863D01*
X576235Y359881D01*
X576253Y360048D01*
X576253Y371952D01*
X576250Y371972D01*
X576252Y371991D01*
X576230Y372093D01*
X576214Y372195D01*
X576204Y372212D01*
X576200Y372232D01*
X576147Y372321D01*
X576098Y372412D01*
X576084Y372426D01*
X576074Y372443D01*
X575995Y372510D01*
X575920Y372582D01*
X575902Y372590D01*
X575887Y372603D01*
X575791Y372642D01*
X575697Y372685D01*
X575677Y372687D01*
X575659Y372695D01*
X575492Y372713D01*
X573921Y372713D01*
X573901Y372710D01*
X573882Y372712D01*
X573780Y372690D01*
X573678Y372674D01*
X573661Y372664D01*
X573641Y372660D01*
X573552Y372607D01*
X573461Y372558D01*
X573447Y372544D01*
X573430Y372534D01*
X573363Y372455D01*
X573291Y372380D01*
X573283Y372362D01*
X573270Y372347D01*
X573231Y372251D01*
X573188Y372157D01*
X573186Y372137D01*
X573178Y372119D01*
X573160Y371952D01*
X573160Y360048D01*
X573163Y360028D01*
X573161Y360009D01*
X573183Y359907D01*
X573199Y359805D01*
X573209Y359788D01*
X573213Y359768D01*
X573266Y359679D01*
X573315Y359588D01*
X573329Y359574D01*
X573339Y359557D01*
X573418Y359490D01*
X573493Y359418D01*
X573511Y359410D01*
X573526Y359397D01*
X573622Y359358D01*
X573716Y359315D01*
X573736Y359313D01*
X573754Y359305D01*
X573921Y359287D01*
X575492Y359287D01*
X575512Y359290D01*
G37*
%LPC*%
G36*
X238713Y99639D02*
X238713Y99639D01*
X238713Y102361D01*
X240639Y104287D01*
X243361Y104287D01*
X245287Y102361D01*
X245287Y99639D01*
X243361Y97713D01*
X240773Y97713D01*
X240702Y97702D01*
X240651Y97700D01*
X238713Y99639D01*
G37*
%LPD*%
%LPC*%
G36*
X237639Y89713D02*
X237639Y89713D01*
X235713Y91639D01*
X235713Y94361D01*
X237639Y96287D01*
X240227Y96287D01*
X240298Y96298D01*
X240349Y96300D01*
X242287Y94361D01*
X242287Y91639D01*
X240361Y89713D01*
X237639Y89713D01*
G37*
%LPD*%
%LPC*%
G36*
X238639Y371713D02*
X238639Y371713D01*
X236713Y373639D01*
X236713Y376361D01*
X238639Y378287D01*
X241361Y378287D01*
X243287Y376361D01*
X243287Y373639D01*
X241361Y371713D01*
X238639Y371713D01*
G37*
%LPD*%
%LPC*%
G36*
X411639Y368713D02*
X411639Y368713D01*
X409713Y370639D01*
X409713Y373361D01*
X411639Y375287D01*
X414361Y375287D01*
X416287Y373361D01*
X416287Y370639D01*
X414361Y368713D01*
X411639Y368713D01*
G37*
%LPD*%
%LPC*%
G36*
X530639Y362713D02*
X530639Y362713D01*
X528713Y364639D01*
X528713Y367361D01*
X530639Y369287D01*
X533361Y369287D01*
X535287Y367361D01*
X535287Y364639D01*
X533361Y362713D01*
X530639Y362713D01*
G37*
%LPD*%
%LPC*%
G36*
X548639Y362713D02*
X548639Y362713D01*
X546713Y364639D01*
X546713Y367361D01*
X548639Y369287D01*
X551361Y369287D01*
X553287Y367361D01*
X553287Y364639D01*
X551361Y362713D01*
X548639Y362713D01*
G37*
%LPD*%
%LPC*%
G36*
X453639Y362713D02*
X453639Y362713D01*
X451713Y364639D01*
X451713Y367361D01*
X453639Y369287D01*
X456361Y369287D01*
X458287Y367361D01*
X458287Y364639D01*
X456361Y362713D01*
X453639Y362713D01*
G37*
%LPD*%
%LPC*%
G36*
X438639Y362713D02*
X438639Y362713D01*
X436713Y364639D01*
X436713Y367361D01*
X438639Y369287D01*
X441361Y369287D01*
X443287Y367361D01*
X443287Y364639D01*
X441361Y362713D01*
X438639Y362713D01*
G37*
%LPD*%
%LPC*%
G36*
X371139Y362213D02*
X371139Y362213D01*
X369213Y364139D01*
X369213Y366861D01*
X371139Y368787D01*
X373861Y368787D01*
X375787Y366861D01*
X375787Y364139D01*
X373861Y362213D01*
X371139Y362213D01*
G37*
%LPD*%
%LPC*%
G36*
X91639Y360713D02*
X91639Y360713D01*
X89713Y362639D01*
X89713Y365361D01*
X91639Y367287D01*
X94361Y367287D01*
X96287Y365361D01*
X96287Y362639D01*
X94361Y360713D01*
X91639Y360713D01*
G37*
%LPD*%
%LPC*%
G36*
X242639Y359713D02*
X242639Y359713D01*
X240713Y361639D01*
X240713Y364361D01*
X242639Y366287D01*
X245361Y366287D01*
X247287Y364361D01*
X247287Y361639D01*
X245361Y359713D01*
X242639Y359713D01*
G37*
%LPD*%
%LPC*%
G36*
X558639Y352713D02*
X558639Y352713D01*
X556713Y354639D01*
X556713Y357361D01*
X558639Y359287D01*
X561361Y359287D01*
X563287Y357361D01*
X563287Y354639D01*
X561361Y352713D01*
X558639Y352713D01*
G37*
%LPD*%
%LPC*%
G36*
X448639Y352713D02*
X448639Y352713D01*
X446713Y354639D01*
X446713Y357361D01*
X448639Y359287D01*
X451361Y359287D01*
X453287Y357361D01*
X453287Y354639D01*
X451361Y352713D01*
X448639Y352713D01*
G37*
%LPD*%
%LPC*%
G36*
X463639Y352713D02*
X463639Y352713D01*
X461713Y354639D01*
X461713Y357361D01*
X463639Y359287D01*
X466361Y359287D01*
X468287Y357361D01*
X468287Y354639D01*
X466361Y352713D01*
X463639Y352713D01*
G37*
%LPD*%
%LPC*%
G36*
X528639Y352713D02*
X528639Y352713D01*
X526713Y354639D01*
X526713Y357361D01*
X528639Y359287D01*
X531361Y359287D01*
X533287Y357361D01*
X533287Y354639D01*
X531361Y352713D01*
X528639Y352713D01*
G37*
%LPD*%
%LPC*%
G36*
X433639Y352713D02*
X433639Y352713D01*
X431713Y354639D01*
X431713Y357361D01*
X433639Y359287D01*
X436361Y359287D01*
X438287Y357361D01*
X438287Y354639D01*
X436361Y352713D01*
X433639Y352713D01*
G37*
%LPD*%
%LPC*%
G36*
X543639Y352713D02*
X543639Y352713D01*
X541713Y354639D01*
X541713Y357361D01*
X543639Y359287D01*
X546361Y359287D01*
X548287Y357361D01*
X548287Y354639D01*
X546361Y352713D01*
X543639Y352713D01*
G37*
%LPD*%
%LPC*%
G36*
X242639Y347713D02*
X242639Y347713D01*
X240713Y349639D01*
X240713Y352361D01*
X242639Y354287D01*
X245361Y354287D01*
X247287Y352361D01*
X247287Y349639D01*
X245361Y347713D01*
X242639Y347713D01*
G37*
%LPD*%
%LPC*%
G36*
X408639Y342713D02*
X408639Y342713D01*
X406713Y344639D01*
X406713Y347361D01*
X408639Y349287D01*
X411361Y349287D01*
X413287Y347361D01*
X413287Y344639D01*
X411361Y342713D01*
X408639Y342713D01*
G37*
%LPD*%
%LPC*%
G36*
X51639Y342713D02*
X51639Y342713D01*
X49713Y344639D01*
X49713Y347361D01*
X51639Y349287D01*
X54361Y349287D01*
X56287Y347361D01*
X56287Y344639D01*
X54361Y342713D01*
X51639Y342713D01*
G37*
%LPD*%
%LPC*%
G36*
X423639Y342713D02*
X423639Y342713D01*
X421713Y344639D01*
X421713Y347361D01*
X423639Y349287D01*
X426361Y349287D01*
X428287Y347361D01*
X428287Y344639D01*
X426361Y342713D01*
X423639Y342713D01*
G37*
%LPD*%
%LPC*%
G36*
X515639Y342713D02*
X515639Y342713D01*
X513713Y344639D01*
X513713Y347361D01*
X515639Y349287D01*
X518361Y349287D01*
X520287Y347361D01*
X520287Y344639D01*
X518361Y342713D01*
X515639Y342713D01*
G37*
%LPD*%
%LPC*%
G36*
X530639Y342713D02*
X530639Y342713D01*
X528713Y344639D01*
X528713Y347361D01*
X530639Y349287D01*
X533361Y349287D01*
X535287Y347361D01*
X535287Y344639D01*
X533361Y342713D01*
X530639Y342713D01*
G37*
%LPD*%
%LPC*%
G36*
X548639Y342713D02*
X548639Y342713D01*
X546713Y344639D01*
X546713Y347361D01*
X548639Y349287D01*
X551361Y349287D01*
X553287Y347361D01*
X553287Y344639D01*
X551361Y342713D01*
X548639Y342713D01*
G37*
%LPD*%
%LPC*%
G36*
X89639Y336713D02*
X89639Y336713D01*
X87713Y338639D01*
X87713Y341361D01*
X89639Y343287D01*
X92361Y343287D01*
X94287Y341361D01*
X94287Y338639D01*
X92361Y336713D01*
X89639Y336713D01*
G37*
%LPD*%
%LPC*%
G36*
X268639Y336713D02*
X268639Y336713D01*
X266713Y338639D01*
X266713Y341361D01*
X268639Y343287D01*
X271361Y343287D01*
X273287Y341361D01*
X273287Y338639D01*
X271361Y336713D01*
X268639Y336713D01*
G37*
%LPD*%
%LPC*%
G36*
X203639Y336713D02*
X203639Y336713D01*
X201713Y338639D01*
X201713Y341361D01*
X203639Y343287D01*
X206361Y343287D01*
X208287Y341361D01*
X208287Y338639D01*
X206361Y336713D01*
X203639Y336713D01*
G37*
%LPD*%
%LPC*%
G36*
X518639Y332713D02*
X518639Y332713D01*
X516713Y334639D01*
X516713Y337361D01*
X518639Y339287D01*
X521361Y339287D01*
X523287Y337361D01*
X523287Y334639D01*
X521361Y332713D01*
X518639Y332713D01*
G37*
%LPD*%
%LPC*%
G36*
X528639Y332713D02*
X528639Y332713D01*
X526713Y334639D01*
X526713Y337361D01*
X528639Y339287D01*
X531361Y339287D01*
X533287Y337361D01*
X533287Y334639D01*
X531361Y332713D01*
X528639Y332713D01*
G37*
%LPD*%
%LPC*%
G36*
X509639Y332713D02*
X509639Y332713D01*
X507713Y334639D01*
X507713Y337361D01*
X509639Y339287D01*
X512361Y339287D01*
X514287Y337361D01*
X514287Y334639D01*
X512361Y332713D01*
X509639Y332713D01*
G37*
%LPD*%
%LPC*%
G36*
X418639Y332713D02*
X418639Y332713D01*
X416713Y334639D01*
X416713Y337361D01*
X418639Y339287D01*
X421361Y339287D01*
X423287Y337361D01*
X423287Y334639D01*
X421361Y332713D01*
X418639Y332713D01*
G37*
%LPD*%
%LPC*%
G36*
X433639Y332713D02*
X433639Y332713D01*
X431713Y334639D01*
X431713Y337361D01*
X433639Y339287D01*
X436361Y339287D01*
X438287Y337361D01*
X438287Y334639D01*
X436361Y332713D01*
X433639Y332713D01*
G37*
%LPD*%
%LPC*%
G36*
X338639Y332713D02*
X338639Y332713D01*
X336713Y334639D01*
X336713Y337361D01*
X338639Y339287D01*
X341361Y339287D01*
X343287Y337361D01*
X343287Y334639D01*
X341361Y332713D01*
X338639Y332713D01*
G37*
%LPD*%
%LPC*%
G36*
X488639Y332713D02*
X488639Y332713D01*
X486713Y334639D01*
X486713Y337361D01*
X488639Y339287D01*
X491361Y339287D01*
X493287Y337361D01*
X493287Y334639D01*
X491361Y332713D01*
X488639Y332713D01*
G37*
%LPD*%
%LPC*%
G36*
X400639Y332713D02*
X400639Y332713D01*
X398713Y334639D01*
X398713Y337361D01*
X400639Y339287D01*
X403361Y339287D01*
X405287Y337361D01*
X405287Y334639D01*
X403361Y332713D01*
X400639Y332713D01*
G37*
%LPD*%
%LPC*%
G36*
X368639Y332713D02*
X368639Y332713D01*
X366713Y334639D01*
X366713Y337361D01*
X368639Y339287D01*
X371361Y339287D01*
X373287Y337361D01*
X373287Y334639D01*
X371361Y332713D01*
X368639Y332713D01*
G37*
%LPD*%
%LPC*%
G36*
X385639Y332713D02*
X385639Y332713D01*
X383713Y334639D01*
X383713Y337361D01*
X385639Y339287D01*
X388361Y339287D01*
X390287Y337361D01*
X390287Y334639D01*
X388361Y332713D01*
X385639Y332713D01*
G37*
%LPD*%
%LPC*%
G36*
X450639Y332713D02*
X450639Y332713D01*
X448713Y334639D01*
X448713Y337361D01*
X450639Y339287D01*
X453361Y339287D01*
X455287Y337361D01*
X455287Y334639D01*
X453361Y332713D01*
X450639Y332713D01*
G37*
%LPD*%
%LPC*%
G36*
X548639Y332713D02*
X548639Y332713D01*
X546713Y334639D01*
X546713Y337361D01*
X548639Y339287D01*
X551361Y339287D01*
X553287Y337361D01*
X553287Y334639D01*
X551361Y332713D01*
X548639Y332713D01*
G37*
%LPD*%
%LPC*%
G36*
X538639Y332713D02*
X538639Y332713D01*
X536713Y334639D01*
X536713Y337361D01*
X538639Y339287D01*
X541361Y339287D01*
X543287Y337361D01*
X543287Y334639D01*
X541361Y332713D01*
X538639Y332713D01*
G37*
%LPD*%
%LPC*%
G36*
X468639Y332713D02*
X468639Y332713D01*
X466713Y334639D01*
X466713Y337361D01*
X468639Y339287D01*
X471361Y339287D01*
X473287Y337361D01*
X473287Y334639D01*
X471361Y332713D01*
X468639Y332713D01*
G37*
%LPD*%
%LPC*%
G36*
X523639Y324713D02*
X523639Y324713D01*
X521713Y326639D01*
X521713Y329361D01*
X523639Y331287D01*
X526361Y331287D01*
X528287Y329361D01*
X528287Y326639D01*
X526361Y324713D01*
X523639Y324713D01*
G37*
%LPD*%
%LPC*%
G36*
X343639Y324713D02*
X343639Y324713D01*
X341713Y326639D01*
X341713Y329361D01*
X343639Y331287D01*
X346361Y331287D01*
X348287Y329361D01*
X348287Y326639D01*
X346361Y324713D01*
X343639Y324713D01*
G37*
%LPD*%
%LPC*%
G36*
X533639Y324713D02*
X533639Y324713D01*
X531713Y326639D01*
X531713Y329361D01*
X533639Y331287D01*
X536361Y331287D01*
X538287Y329361D01*
X538287Y326639D01*
X536361Y324713D01*
X533639Y324713D01*
G37*
%LPD*%
%LPC*%
G36*
X327639Y311713D02*
X327639Y311713D01*
X325713Y313639D01*
X325713Y316361D01*
X327639Y318287D01*
X330361Y318287D01*
X332287Y316361D01*
X332287Y313639D01*
X330361Y311713D01*
X327639Y311713D01*
G37*
%LPD*%
%LPC*%
G36*
X88639Y306713D02*
X88639Y306713D01*
X86713Y308639D01*
X86713Y311361D01*
X88639Y313287D01*
X91361Y313287D01*
X93287Y311361D01*
X93287Y308639D01*
X91361Y306713D01*
X88639Y306713D01*
G37*
%LPD*%
%LPC*%
G36*
X158639Y306713D02*
X158639Y306713D01*
X156713Y308639D01*
X156713Y311361D01*
X158639Y313287D01*
X161361Y313287D01*
X163287Y311361D01*
X163287Y308639D01*
X161361Y306713D01*
X158639Y306713D01*
G37*
%LPD*%
%LPC*%
G36*
X168639Y306713D02*
X168639Y306713D01*
X166713Y308639D01*
X166713Y311361D01*
X168639Y313287D01*
X171361Y313287D01*
X173287Y311361D01*
X173287Y308639D01*
X171361Y306713D01*
X168639Y306713D01*
G37*
%LPD*%
%LPC*%
G36*
X327639Y300713D02*
X327639Y300713D01*
X325713Y302639D01*
X325713Y305361D01*
X327639Y307287D01*
X330361Y307287D01*
X332287Y305361D01*
X332287Y302639D01*
X330361Y300713D01*
X327639Y300713D01*
G37*
%LPD*%
%LPC*%
G36*
X228639Y296713D02*
X228639Y296713D01*
X226713Y298639D01*
X226713Y301361D01*
X228639Y303287D01*
X231361Y303287D01*
X233287Y301361D01*
X233287Y298639D01*
X231361Y296713D01*
X228639Y296713D01*
G37*
%LPD*%
%LPC*%
G36*
X158639Y296713D02*
X158639Y296713D01*
X156713Y298639D01*
X156713Y301361D01*
X158639Y303287D01*
X161361Y303287D01*
X163287Y301361D01*
X163287Y298639D01*
X161361Y296713D01*
X158639Y296713D01*
G37*
%LPD*%
%LPC*%
G36*
X168639Y296713D02*
X168639Y296713D01*
X166713Y298639D01*
X166713Y301361D01*
X168639Y303287D01*
X171361Y303287D01*
X173287Y301361D01*
X173287Y298639D01*
X171361Y296713D01*
X168639Y296713D01*
G37*
%LPD*%
%LPC*%
G36*
X438639Y294713D02*
X438639Y294713D01*
X436713Y296639D01*
X436713Y299361D01*
X438639Y301287D01*
X441361Y301287D01*
X443287Y299361D01*
X443287Y296639D01*
X441361Y294713D01*
X438639Y294713D01*
G37*
%LPD*%
%LPC*%
G36*
X417639Y294713D02*
X417639Y294713D01*
X415713Y296639D01*
X415713Y299361D01*
X417639Y301287D01*
X420361Y301287D01*
X422287Y299361D01*
X422287Y296639D01*
X420361Y294713D01*
X417639Y294713D01*
G37*
%LPD*%
%LPC*%
G36*
X396639Y294713D02*
X396639Y294713D01*
X394713Y296639D01*
X394713Y299361D01*
X396639Y301287D01*
X399361Y301287D01*
X401287Y299361D01*
X401287Y296639D01*
X399361Y294713D01*
X396639Y294713D01*
G37*
%LPD*%
%LPC*%
G36*
X375639Y294713D02*
X375639Y294713D01*
X373713Y296639D01*
X373713Y299361D01*
X375639Y301287D01*
X378361Y301287D01*
X380287Y299361D01*
X380287Y296639D01*
X378361Y294713D01*
X375639Y294713D01*
G37*
%LPD*%
%LPC*%
G36*
X480639Y294713D02*
X480639Y294713D01*
X478713Y296639D01*
X478713Y299361D01*
X480639Y301287D01*
X483361Y301287D01*
X485287Y299361D01*
X485287Y296639D01*
X483361Y294713D01*
X480639Y294713D01*
G37*
%LPD*%
%LPC*%
G36*
X353639Y294713D02*
X353639Y294713D01*
X351713Y296639D01*
X351713Y299361D01*
X353639Y301287D01*
X356361Y301287D01*
X358287Y299361D01*
X358287Y296639D01*
X356361Y294713D01*
X353639Y294713D01*
G37*
%LPD*%
%LPC*%
G36*
X523639Y294713D02*
X523639Y294713D01*
X521713Y296639D01*
X521713Y299361D01*
X523639Y301287D01*
X526361Y301287D01*
X528287Y299361D01*
X528287Y296639D01*
X526361Y294713D01*
X523639Y294713D01*
G37*
%LPD*%
%LPC*%
G36*
X459639Y294713D02*
X459639Y294713D01*
X457713Y296639D01*
X457713Y299361D01*
X459639Y301287D01*
X462361Y301287D01*
X464287Y299361D01*
X464287Y296639D01*
X462361Y294713D01*
X459639Y294713D01*
G37*
%LPD*%
%LPC*%
G36*
X501639Y294713D02*
X501639Y294713D01*
X499713Y296639D01*
X499713Y299361D01*
X501639Y301287D01*
X504361Y301287D01*
X506287Y299361D01*
X506287Y296639D01*
X504361Y294713D01*
X501639Y294713D01*
G37*
%LPD*%
%LPC*%
G36*
X88639Y291713D02*
X88639Y291713D01*
X86713Y293639D01*
X86713Y296361D01*
X88639Y298287D01*
X91361Y298287D01*
X93287Y296361D01*
X93287Y293639D01*
X91361Y291713D01*
X88639Y291713D01*
G37*
%LPD*%
%LPC*%
G36*
X49639Y286713D02*
X49639Y286713D01*
X47713Y288639D01*
X47713Y291361D01*
X49639Y293287D01*
X52361Y293287D01*
X54287Y291361D01*
X54287Y288639D01*
X52361Y286713D01*
X49639Y286713D01*
G37*
%LPD*%
%LPC*%
G36*
X78639Y286713D02*
X78639Y286713D01*
X76713Y288639D01*
X76713Y291361D01*
X78639Y293287D01*
X81361Y293287D01*
X83287Y291361D01*
X83287Y288639D01*
X81361Y286713D01*
X78639Y286713D01*
G37*
%LPD*%
%LPC*%
G36*
X480639Y284713D02*
X480639Y284713D01*
X478713Y286639D01*
X478713Y289361D01*
X480639Y291287D01*
X483361Y291287D01*
X485287Y289361D01*
X485287Y286639D01*
X483361Y284713D01*
X480639Y284713D01*
G37*
%LPD*%
%LPC*%
G36*
X438639Y284713D02*
X438639Y284713D01*
X436713Y286639D01*
X436713Y289361D01*
X438639Y291287D01*
X441361Y291287D01*
X443287Y289361D01*
X443287Y286639D01*
X441361Y284713D01*
X438639Y284713D01*
G37*
%LPD*%
%LPC*%
G36*
X417639Y284713D02*
X417639Y284713D01*
X415713Y286639D01*
X415713Y289361D01*
X417639Y291287D01*
X420361Y291287D01*
X422287Y289361D01*
X422287Y286639D01*
X420361Y284713D01*
X417639Y284713D01*
G37*
%LPD*%
%LPC*%
G36*
X375639Y284713D02*
X375639Y284713D01*
X373713Y286639D01*
X373713Y289361D01*
X375639Y291287D01*
X378361Y291287D01*
X380287Y289361D01*
X380287Y286639D01*
X378361Y284713D01*
X375639Y284713D01*
G37*
%LPD*%
%LPC*%
G36*
X396639Y284713D02*
X396639Y284713D01*
X394713Y286639D01*
X394713Y289361D01*
X396639Y291287D01*
X399361Y291287D01*
X401287Y289361D01*
X401287Y286639D01*
X399361Y284713D01*
X396639Y284713D01*
G37*
%LPD*%
%LPC*%
G36*
X501639Y284713D02*
X501639Y284713D01*
X499713Y286639D01*
X499713Y289361D01*
X501639Y291287D01*
X504361Y291287D01*
X506287Y289361D01*
X506287Y286639D01*
X504361Y284713D01*
X501639Y284713D01*
G37*
%LPD*%
%LPC*%
G36*
X459639Y284713D02*
X459639Y284713D01*
X457713Y286639D01*
X457713Y289361D01*
X459639Y291287D01*
X462361Y291287D01*
X464287Y289361D01*
X464287Y286639D01*
X462361Y284713D01*
X459639Y284713D01*
G37*
%LPD*%
%LPC*%
G36*
X353639Y284713D02*
X353639Y284713D01*
X351713Y286639D01*
X351713Y289361D01*
X353639Y291287D01*
X356361Y291287D01*
X358287Y289361D01*
X358287Y286639D01*
X356361Y284713D01*
X353639Y284713D01*
G37*
%LPD*%
%LPC*%
G36*
X523639Y284713D02*
X523639Y284713D01*
X521713Y286639D01*
X521713Y289361D01*
X523639Y291287D01*
X526361Y291287D01*
X528287Y289361D01*
X528287Y286639D01*
X526361Y284713D01*
X523639Y284713D01*
G37*
%LPD*%
%LPC*%
G36*
X375639Y274713D02*
X375639Y274713D01*
X373713Y276639D01*
X373713Y279361D01*
X375639Y281287D01*
X378361Y281287D01*
X380287Y279361D01*
X380287Y276639D01*
X378361Y274713D01*
X375639Y274713D01*
G37*
%LPD*%
%LPC*%
G36*
X396639Y274713D02*
X396639Y274713D01*
X394713Y276639D01*
X394713Y279361D01*
X396639Y281287D01*
X399361Y281287D01*
X401287Y279361D01*
X401287Y276639D01*
X399361Y274713D01*
X396639Y274713D01*
G37*
%LPD*%
%LPC*%
G36*
X417639Y274713D02*
X417639Y274713D01*
X415713Y276639D01*
X415713Y279361D01*
X417639Y281287D01*
X420361Y281287D01*
X422287Y279361D01*
X422287Y276639D01*
X420361Y274713D01*
X417639Y274713D01*
G37*
%LPD*%
%LPC*%
G36*
X438639Y274713D02*
X438639Y274713D01*
X436713Y276639D01*
X436713Y279361D01*
X438639Y281287D01*
X441361Y281287D01*
X443287Y279361D01*
X443287Y276639D01*
X441361Y274713D01*
X438639Y274713D01*
G37*
%LPD*%
%LPC*%
G36*
X353639Y274713D02*
X353639Y274713D01*
X351713Y276639D01*
X351713Y279361D01*
X353639Y281287D01*
X356361Y281287D01*
X358287Y279361D01*
X358287Y276639D01*
X356361Y274713D01*
X353639Y274713D01*
G37*
%LPD*%
%LPC*%
G36*
X501639Y274713D02*
X501639Y274713D01*
X499713Y276639D01*
X499713Y279361D01*
X501639Y281287D01*
X504361Y281287D01*
X506287Y279361D01*
X506287Y276639D01*
X504361Y274713D01*
X501639Y274713D01*
G37*
%LPD*%
%LPC*%
G36*
X459639Y274713D02*
X459639Y274713D01*
X457713Y276639D01*
X457713Y279361D01*
X459639Y281287D01*
X462361Y281287D01*
X464287Y279361D01*
X464287Y276639D01*
X462361Y274713D01*
X459639Y274713D01*
G37*
%LPD*%
%LPC*%
G36*
X480639Y274713D02*
X480639Y274713D01*
X478713Y276639D01*
X478713Y279361D01*
X480639Y281287D01*
X483361Y281287D01*
X485287Y279361D01*
X485287Y276639D01*
X483361Y274713D01*
X480639Y274713D01*
G37*
%LPD*%
%LPC*%
G36*
X523639Y274713D02*
X523639Y274713D01*
X521713Y276639D01*
X521713Y279361D01*
X523639Y281287D01*
X526361Y281287D01*
X528287Y279361D01*
X528287Y276639D01*
X526361Y274713D01*
X523639Y274713D01*
G37*
%LPD*%
%LPC*%
G36*
X220639Y268713D02*
X220639Y268713D01*
X218713Y270639D01*
X218713Y273361D01*
X220639Y275287D01*
X223361Y275287D01*
X225287Y273361D01*
X225287Y270639D01*
X223361Y268713D01*
X220639Y268713D01*
G37*
%LPD*%
%LPC*%
G36*
X353639Y264713D02*
X353639Y264713D01*
X351713Y266639D01*
X351713Y269361D01*
X353639Y271287D01*
X356361Y271287D01*
X358287Y269361D01*
X358287Y266639D01*
X356361Y264713D01*
X353639Y264713D01*
G37*
%LPD*%
%LPC*%
G36*
X523639Y264713D02*
X523639Y264713D01*
X521713Y266639D01*
X521713Y269361D01*
X523639Y271287D01*
X526361Y271287D01*
X528287Y269361D01*
X528287Y266639D01*
X526361Y264713D01*
X523639Y264713D01*
G37*
%LPD*%
%LPC*%
G36*
X501639Y264713D02*
X501639Y264713D01*
X499713Y266639D01*
X499713Y269361D01*
X501639Y271287D01*
X504361Y271287D01*
X506287Y269361D01*
X506287Y266639D01*
X504361Y264713D01*
X501639Y264713D01*
G37*
%LPD*%
%LPC*%
G36*
X459639Y264713D02*
X459639Y264713D01*
X457713Y266639D01*
X457713Y269361D01*
X459639Y271287D01*
X462361Y271287D01*
X464287Y269361D01*
X464287Y266639D01*
X462361Y264713D01*
X459639Y264713D01*
G37*
%LPD*%
%LPC*%
G36*
X480639Y264713D02*
X480639Y264713D01*
X478713Y266639D01*
X478713Y269361D01*
X480639Y271287D01*
X483361Y271287D01*
X485287Y269361D01*
X485287Y266639D01*
X483361Y264713D01*
X480639Y264713D01*
G37*
%LPD*%
%LPC*%
G36*
X438639Y264713D02*
X438639Y264713D01*
X436713Y266639D01*
X436713Y269361D01*
X438639Y271287D01*
X441361Y271287D01*
X443287Y269361D01*
X443287Y266639D01*
X441361Y264713D01*
X438639Y264713D01*
G37*
%LPD*%
%LPC*%
G36*
X417639Y264713D02*
X417639Y264713D01*
X415713Y266639D01*
X415713Y269361D01*
X417639Y271287D01*
X420361Y271287D01*
X422287Y269361D01*
X422287Y266639D01*
X420361Y264713D01*
X417639Y264713D01*
G37*
%LPD*%
%LPC*%
G36*
X396639Y264713D02*
X396639Y264713D01*
X394713Y266639D01*
X394713Y269361D01*
X396639Y271287D01*
X399361Y271287D01*
X401287Y269361D01*
X401287Y266639D01*
X399361Y264713D01*
X396639Y264713D01*
G37*
%LPD*%
%LPC*%
G36*
X375639Y264713D02*
X375639Y264713D01*
X373713Y266639D01*
X373713Y269361D01*
X375639Y271287D01*
X378361Y271287D01*
X380287Y269361D01*
X380287Y266639D01*
X378361Y264713D01*
X375639Y264713D01*
G37*
%LPD*%
%LPC*%
G36*
X78639Y256713D02*
X78639Y256713D01*
X76713Y258639D01*
X76713Y261361D01*
X78639Y263287D01*
X81361Y263287D01*
X83287Y261361D01*
X83287Y258639D01*
X81361Y256713D01*
X78639Y256713D01*
G37*
%LPD*%
%LPC*%
G36*
X39639Y255213D02*
X39639Y255213D01*
X37713Y257139D01*
X37713Y259861D01*
X39639Y261787D01*
X42361Y261787D01*
X44287Y259861D01*
X44287Y257139D01*
X42361Y255213D01*
X39639Y255213D01*
G37*
%LPD*%
%LPC*%
G36*
X501639Y254713D02*
X501639Y254713D01*
X499713Y256639D01*
X499713Y259361D01*
X501639Y261287D01*
X504361Y261287D01*
X506287Y259361D01*
X506287Y256639D01*
X504361Y254713D01*
X501639Y254713D01*
G37*
%LPD*%
%LPC*%
G36*
X375639Y254713D02*
X375639Y254713D01*
X373713Y256639D01*
X373713Y259361D01*
X375639Y261287D01*
X378361Y261287D01*
X380287Y259361D01*
X380287Y256639D01*
X378361Y254713D01*
X375639Y254713D01*
G37*
%LPD*%
%LPC*%
G36*
X523639Y254713D02*
X523639Y254713D01*
X521713Y256639D01*
X521713Y259361D01*
X523639Y261287D01*
X526361Y261287D01*
X528287Y259361D01*
X528287Y256639D01*
X526361Y254713D01*
X523639Y254713D01*
G37*
%LPD*%
%LPC*%
G36*
X417639Y254713D02*
X417639Y254713D01*
X415713Y256639D01*
X415713Y259361D01*
X417639Y261287D01*
X420361Y261287D01*
X422287Y259361D01*
X422287Y256639D01*
X420361Y254713D01*
X417639Y254713D01*
G37*
%LPD*%
%LPC*%
G36*
X353639Y254713D02*
X353639Y254713D01*
X351713Y256639D01*
X351713Y259361D01*
X353639Y261287D01*
X356361Y261287D01*
X358287Y259361D01*
X358287Y256639D01*
X356361Y254713D01*
X353639Y254713D01*
G37*
%LPD*%
%LPC*%
G36*
X438639Y254713D02*
X438639Y254713D01*
X436713Y256639D01*
X436713Y259361D01*
X438639Y261287D01*
X441361Y261287D01*
X443287Y259361D01*
X443287Y256639D01*
X441361Y254713D01*
X438639Y254713D01*
G37*
%LPD*%
%LPC*%
G36*
X396639Y254713D02*
X396639Y254713D01*
X394713Y256639D01*
X394713Y259361D01*
X396639Y261287D01*
X399361Y261287D01*
X401287Y259361D01*
X401287Y256639D01*
X399361Y254713D01*
X396639Y254713D01*
G37*
%LPD*%
%LPC*%
G36*
X480639Y254713D02*
X480639Y254713D01*
X478713Y256639D01*
X478713Y259361D01*
X480639Y261287D01*
X483361Y261287D01*
X485287Y259361D01*
X485287Y256639D01*
X483361Y254713D01*
X480639Y254713D01*
G37*
%LPD*%
%LPC*%
G36*
X459639Y254713D02*
X459639Y254713D01*
X457713Y256639D01*
X457713Y259361D01*
X459639Y261287D01*
X462361Y261287D01*
X464287Y259361D01*
X464287Y256639D01*
X462361Y254713D01*
X459639Y254713D01*
G37*
%LPD*%
%LPC*%
G36*
X323639Y247713D02*
X323639Y247713D01*
X321713Y249639D01*
X321713Y252361D01*
X323639Y254287D01*
X326361Y254287D01*
X328287Y252361D01*
X328287Y249639D01*
X326361Y247713D01*
X323639Y247713D01*
G37*
%LPD*%
%LPC*%
G36*
X353639Y244713D02*
X353639Y244713D01*
X351713Y246639D01*
X351713Y249361D01*
X353639Y251287D01*
X356361Y251287D01*
X358287Y249361D01*
X358287Y246639D01*
X356361Y244713D01*
X353639Y244713D01*
G37*
%LPD*%
%LPC*%
G36*
X396639Y244713D02*
X396639Y244713D01*
X394713Y246639D01*
X394713Y249361D01*
X396639Y251287D01*
X399361Y251287D01*
X401287Y249361D01*
X401287Y246639D01*
X399361Y244713D01*
X396639Y244713D01*
G37*
%LPD*%
%LPC*%
G36*
X375639Y244713D02*
X375639Y244713D01*
X373713Y246639D01*
X373713Y249361D01*
X375639Y251287D01*
X378361Y251287D01*
X380287Y249361D01*
X380287Y246639D01*
X378361Y244713D01*
X375639Y244713D01*
G37*
%LPD*%
%LPC*%
G36*
X438639Y244713D02*
X438639Y244713D01*
X436713Y246639D01*
X436713Y249361D01*
X438639Y251287D01*
X441361Y251287D01*
X443287Y249361D01*
X443287Y246639D01*
X441361Y244713D01*
X438639Y244713D01*
G37*
%LPD*%
%LPC*%
G36*
X417639Y244713D02*
X417639Y244713D01*
X415713Y246639D01*
X415713Y249361D01*
X417639Y251287D01*
X420361Y251287D01*
X422287Y249361D01*
X422287Y246639D01*
X420361Y244713D01*
X417639Y244713D01*
G37*
%LPD*%
%LPC*%
G36*
X459639Y244713D02*
X459639Y244713D01*
X457713Y246639D01*
X457713Y249361D01*
X459639Y251287D01*
X462361Y251287D01*
X464287Y249361D01*
X464287Y246639D01*
X462361Y244713D01*
X459639Y244713D01*
G37*
%LPD*%
%LPC*%
G36*
X501639Y244713D02*
X501639Y244713D01*
X499713Y246639D01*
X499713Y249361D01*
X501639Y251287D01*
X504361Y251287D01*
X506287Y249361D01*
X506287Y246639D01*
X504361Y244713D01*
X501639Y244713D01*
G37*
%LPD*%
%LPC*%
G36*
X480639Y244713D02*
X480639Y244713D01*
X478713Y246639D01*
X478713Y249361D01*
X480639Y251287D01*
X483361Y251287D01*
X485287Y249361D01*
X485287Y246639D01*
X483361Y244713D01*
X480639Y244713D01*
G37*
%LPD*%
%LPC*%
G36*
X523639Y244713D02*
X523639Y244713D01*
X521713Y246639D01*
X521713Y249361D01*
X523639Y251287D01*
X526361Y251287D01*
X528287Y249361D01*
X528287Y246639D01*
X526361Y244713D01*
X523639Y244713D01*
G37*
%LPD*%
%LPC*%
G36*
X212639Y236713D02*
X212639Y236713D01*
X210713Y238639D01*
X210713Y241361D01*
X212639Y243287D01*
X215361Y243287D01*
X217287Y241361D01*
X217287Y238639D01*
X215361Y236713D01*
X212639Y236713D01*
G37*
%LPD*%
%LPC*%
G36*
X298639Y235713D02*
X298639Y235713D01*
X296713Y237639D01*
X296713Y240361D01*
X298639Y242287D01*
X301361Y242287D01*
X303287Y240361D01*
X303287Y237639D01*
X301361Y235713D01*
X298639Y235713D01*
G37*
%LPD*%
%LPC*%
G36*
X417639Y234713D02*
X417639Y234713D01*
X415713Y236639D01*
X415713Y239361D01*
X417639Y241287D01*
X420361Y241287D01*
X422287Y239361D01*
X422287Y236639D01*
X420361Y234713D01*
X417639Y234713D01*
G37*
%LPD*%
%LPC*%
G36*
X523639Y234713D02*
X523639Y234713D01*
X521713Y236639D01*
X521713Y239361D01*
X523639Y241287D01*
X526361Y241287D01*
X528287Y239361D01*
X528287Y236639D01*
X526361Y234713D01*
X523639Y234713D01*
G37*
%LPD*%
%LPC*%
G36*
X501639Y234713D02*
X501639Y234713D01*
X499713Y236639D01*
X499713Y239361D01*
X501639Y241287D01*
X504361Y241287D01*
X506287Y239361D01*
X506287Y236639D01*
X504361Y234713D01*
X501639Y234713D01*
G37*
%LPD*%
%LPC*%
G36*
X480639Y234713D02*
X480639Y234713D01*
X478713Y236639D01*
X478713Y239361D01*
X480639Y241287D01*
X483361Y241287D01*
X485287Y239361D01*
X485287Y236639D01*
X483361Y234713D01*
X480639Y234713D01*
G37*
%LPD*%
%LPC*%
G36*
X459639Y234713D02*
X459639Y234713D01*
X457713Y236639D01*
X457713Y239361D01*
X459639Y241287D01*
X462361Y241287D01*
X464287Y239361D01*
X464287Y236639D01*
X462361Y234713D01*
X459639Y234713D01*
G37*
%LPD*%
%LPC*%
G36*
X438639Y234713D02*
X438639Y234713D01*
X436713Y236639D01*
X436713Y239361D01*
X438639Y241287D01*
X441361Y241287D01*
X443287Y239361D01*
X443287Y236639D01*
X441361Y234713D01*
X438639Y234713D01*
G37*
%LPD*%
%LPC*%
G36*
X396639Y234713D02*
X396639Y234713D01*
X394713Y236639D01*
X394713Y239361D01*
X396639Y241287D01*
X399361Y241287D01*
X401287Y239361D01*
X401287Y236639D01*
X399361Y234713D01*
X396639Y234713D01*
G37*
%LPD*%
%LPC*%
G36*
X375639Y234713D02*
X375639Y234713D01*
X373713Y236639D01*
X373713Y239361D01*
X375639Y241287D01*
X378361Y241287D01*
X380287Y239361D01*
X380287Y236639D01*
X378361Y234713D01*
X375639Y234713D01*
G37*
%LPD*%
%LPC*%
G36*
X353639Y234713D02*
X353639Y234713D01*
X351713Y236639D01*
X351713Y239361D01*
X353639Y241287D01*
X356361Y241287D01*
X358287Y239361D01*
X358287Y236639D01*
X356361Y234713D01*
X353639Y234713D01*
G37*
%LPD*%
%LPC*%
G36*
X50639Y225713D02*
X50639Y225713D01*
X48713Y227639D01*
X48713Y230361D01*
X50639Y232287D01*
X53361Y232287D01*
X55287Y230361D01*
X55287Y227639D01*
X53361Y225713D01*
X50639Y225713D01*
G37*
%LPD*%
%LPC*%
G36*
X396639Y224713D02*
X396639Y224713D01*
X394713Y226639D01*
X394713Y229361D01*
X396639Y231287D01*
X399361Y231287D01*
X401287Y229361D01*
X401287Y226639D01*
X399361Y224713D01*
X396639Y224713D01*
G37*
%LPD*%
%LPC*%
G36*
X375639Y224713D02*
X375639Y224713D01*
X373713Y226639D01*
X373713Y229361D01*
X375639Y231287D01*
X378361Y231287D01*
X380287Y229361D01*
X380287Y226639D01*
X378361Y224713D01*
X375639Y224713D01*
G37*
%LPD*%
%LPC*%
G36*
X353639Y224713D02*
X353639Y224713D01*
X351713Y226639D01*
X351713Y229361D01*
X353639Y231287D01*
X356361Y231287D01*
X358287Y229361D01*
X358287Y226639D01*
X356361Y224713D01*
X353639Y224713D01*
G37*
%LPD*%
%LPC*%
G36*
X459639Y224713D02*
X459639Y224713D01*
X457713Y226639D01*
X457713Y229361D01*
X459639Y231287D01*
X462361Y231287D01*
X464287Y229361D01*
X464287Y226639D01*
X462361Y224713D01*
X459639Y224713D01*
G37*
%LPD*%
%LPC*%
G36*
X438639Y224713D02*
X438639Y224713D01*
X436713Y226639D01*
X436713Y229361D01*
X438639Y231287D01*
X441361Y231287D01*
X443287Y229361D01*
X443287Y226639D01*
X441361Y224713D01*
X438639Y224713D01*
G37*
%LPD*%
%LPC*%
G36*
X417639Y224713D02*
X417639Y224713D01*
X415713Y226639D01*
X415713Y229361D01*
X417639Y231287D01*
X420361Y231287D01*
X422287Y229361D01*
X422287Y226639D01*
X420361Y224713D01*
X417639Y224713D01*
G37*
%LPD*%
%LPC*%
G36*
X523639Y224713D02*
X523639Y224713D01*
X521713Y226639D01*
X521713Y229361D01*
X523639Y231287D01*
X526361Y231287D01*
X528287Y229361D01*
X528287Y226639D01*
X526361Y224713D01*
X523639Y224713D01*
G37*
%LPD*%
%LPC*%
G36*
X501639Y224713D02*
X501639Y224713D01*
X499713Y226639D01*
X499713Y229361D01*
X501639Y231287D01*
X504361Y231287D01*
X506287Y229361D01*
X506287Y226639D01*
X504361Y224713D01*
X501639Y224713D01*
G37*
%LPD*%
%LPC*%
G36*
X480639Y224713D02*
X480639Y224713D01*
X478713Y226639D01*
X478713Y229361D01*
X480639Y231287D01*
X483361Y231287D01*
X485287Y229361D01*
X485287Y226639D01*
X483361Y224713D01*
X480639Y224713D01*
G37*
%LPD*%
%LPC*%
G36*
X417639Y214713D02*
X417639Y214713D01*
X415713Y216639D01*
X415713Y219361D01*
X417639Y221287D01*
X420361Y221287D01*
X422287Y219361D01*
X422287Y216639D01*
X420361Y214713D01*
X417639Y214713D01*
G37*
%LPD*%
%LPC*%
G36*
X438639Y214713D02*
X438639Y214713D01*
X436713Y216639D01*
X436713Y219361D01*
X438639Y221287D01*
X441361Y221287D01*
X443287Y219361D01*
X443287Y216639D01*
X441361Y214713D01*
X438639Y214713D01*
G37*
%LPD*%
%LPC*%
G36*
X459639Y214713D02*
X459639Y214713D01*
X457713Y216639D01*
X457713Y219361D01*
X459639Y221287D01*
X462361Y221287D01*
X464287Y219361D01*
X464287Y216639D01*
X462361Y214713D01*
X459639Y214713D01*
G37*
%LPD*%
%LPC*%
G36*
X480639Y214713D02*
X480639Y214713D01*
X478713Y216639D01*
X478713Y219361D01*
X480639Y221287D01*
X483361Y221287D01*
X485287Y219361D01*
X485287Y216639D01*
X483361Y214713D01*
X480639Y214713D01*
G37*
%LPD*%
%LPC*%
G36*
X501639Y214713D02*
X501639Y214713D01*
X499713Y216639D01*
X499713Y219361D01*
X501639Y221287D01*
X504361Y221287D01*
X506287Y219361D01*
X506287Y216639D01*
X504361Y214713D01*
X501639Y214713D01*
G37*
%LPD*%
%LPC*%
G36*
X523639Y214713D02*
X523639Y214713D01*
X521713Y216639D01*
X521713Y219361D01*
X523639Y221287D01*
X526361Y221287D01*
X528287Y219361D01*
X528287Y216639D01*
X526361Y214713D01*
X523639Y214713D01*
G37*
%LPD*%
%LPC*%
G36*
X353639Y214713D02*
X353639Y214713D01*
X351713Y216639D01*
X351713Y219361D01*
X353639Y221287D01*
X356361Y221287D01*
X358287Y219361D01*
X358287Y216639D01*
X356361Y214713D01*
X353639Y214713D01*
G37*
%LPD*%
%LPC*%
G36*
X375639Y214713D02*
X375639Y214713D01*
X373713Y216639D01*
X373713Y219361D01*
X375639Y221287D01*
X378361Y221287D01*
X380287Y219361D01*
X380287Y216639D01*
X378361Y214713D01*
X375639Y214713D01*
G37*
%LPD*%
%LPC*%
G36*
X396639Y214713D02*
X396639Y214713D01*
X394713Y216639D01*
X394713Y219361D01*
X396639Y221287D01*
X399361Y221287D01*
X401287Y219361D01*
X401287Y216639D01*
X399361Y214713D01*
X396639Y214713D01*
G37*
%LPD*%
%LPC*%
G36*
X206639Y206713D02*
X206639Y206713D01*
X204713Y208639D01*
X204713Y211361D01*
X206639Y213287D01*
X209361Y213287D01*
X211287Y211361D01*
X211287Y208639D01*
X209361Y206713D01*
X206639Y206713D01*
G37*
%LPD*%
%LPC*%
G36*
X219639Y205713D02*
X219639Y205713D01*
X217713Y207639D01*
X217713Y210361D01*
X219639Y212287D01*
X222361Y212287D01*
X224287Y210361D01*
X224287Y207639D01*
X222361Y205713D01*
X219639Y205713D01*
G37*
%LPD*%
%LPC*%
G36*
X459639Y204713D02*
X459639Y204713D01*
X457713Y206639D01*
X457713Y209361D01*
X459639Y211287D01*
X462361Y211287D01*
X464287Y209361D01*
X464287Y206639D01*
X462361Y204713D01*
X459639Y204713D01*
G37*
%LPD*%
%LPC*%
G36*
X438639Y204713D02*
X438639Y204713D01*
X436713Y206639D01*
X436713Y209361D01*
X438639Y211287D01*
X441361Y211287D01*
X443287Y209361D01*
X443287Y206639D01*
X441361Y204713D01*
X438639Y204713D01*
G37*
%LPD*%
%LPC*%
G36*
X375639Y204713D02*
X375639Y204713D01*
X373713Y206639D01*
X373713Y209361D01*
X375639Y211287D01*
X378361Y211287D01*
X380287Y209361D01*
X380287Y206639D01*
X378361Y204713D01*
X375639Y204713D01*
G37*
%LPD*%
%LPC*%
G36*
X480639Y204713D02*
X480639Y204713D01*
X478713Y206639D01*
X478713Y209361D01*
X480639Y211287D01*
X483361Y211287D01*
X485287Y209361D01*
X485287Y206639D01*
X483361Y204713D01*
X480639Y204713D01*
G37*
%LPD*%
%LPC*%
G36*
X353639Y204713D02*
X353639Y204713D01*
X351713Y206639D01*
X351713Y209361D01*
X353639Y211287D01*
X356361Y211287D01*
X358287Y209361D01*
X358287Y206639D01*
X356361Y204713D01*
X353639Y204713D01*
G37*
%LPD*%
%LPC*%
G36*
X523639Y204713D02*
X523639Y204713D01*
X521713Y206639D01*
X521713Y209361D01*
X523639Y211287D01*
X526361Y211287D01*
X528287Y209361D01*
X528287Y206639D01*
X526361Y204713D01*
X523639Y204713D01*
G37*
%LPD*%
%LPC*%
G36*
X417639Y204713D02*
X417639Y204713D01*
X415713Y206639D01*
X415713Y209361D01*
X417639Y211287D01*
X420361Y211287D01*
X422287Y209361D01*
X422287Y206639D01*
X420361Y204713D01*
X417639Y204713D01*
G37*
%LPD*%
%LPC*%
G36*
X501639Y204713D02*
X501639Y204713D01*
X499713Y206639D01*
X499713Y209361D01*
X501639Y211287D01*
X504361Y211287D01*
X506287Y209361D01*
X506287Y206639D01*
X504361Y204713D01*
X501639Y204713D01*
G37*
%LPD*%
%LPC*%
G36*
X396639Y204713D02*
X396639Y204713D01*
X394713Y206639D01*
X394713Y209361D01*
X396639Y211287D01*
X399361Y211287D01*
X401287Y209361D01*
X401287Y206639D01*
X399361Y204713D01*
X396639Y204713D01*
G37*
%LPD*%
%LPC*%
G36*
X232639Y199713D02*
X232639Y199713D01*
X230713Y201639D01*
X230713Y204361D01*
X232639Y206287D01*
X235361Y206287D01*
X237287Y204361D01*
X237287Y201639D01*
X235361Y199713D01*
X232639Y199713D01*
G37*
%LPD*%
%LPC*%
G36*
X353639Y194713D02*
X353639Y194713D01*
X351713Y196639D01*
X351713Y199361D01*
X353639Y201287D01*
X356361Y201287D01*
X358287Y199361D01*
X358287Y196639D01*
X356361Y194713D01*
X353639Y194713D01*
G37*
%LPD*%
%LPC*%
G36*
X480639Y194713D02*
X480639Y194713D01*
X478713Y196639D01*
X478713Y199361D01*
X480639Y201287D01*
X483361Y201287D01*
X485287Y199361D01*
X485287Y196639D01*
X483361Y194713D01*
X480639Y194713D01*
G37*
%LPD*%
%LPC*%
G36*
X523639Y194713D02*
X523639Y194713D01*
X521713Y196639D01*
X521713Y199361D01*
X523639Y201287D01*
X526361Y201287D01*
X528287Y199361D01*
X528287Y196639D01*
X526361Y194713D01*
X523639Y194713D01*
G37*
%LPD*%
%LPC*%
G36*
X501639Y194713D02*
X501639Y194713D01*
X499713Y196639D01*
X499713Y199361D01*
X501639Y201287D01*
X504361Y201287D01*
X506287Y199361D01*
X506287Y196639D01*
X504361Y194713D01*
X501639Y194713D01*
G37*
%LPD*%
%LPC*%
G36*
X438639Y194713D02*
X438639Y194713D01*
X436713Y196639D01*
X436713Y199361D01*
X438639Y201287D01*
X441361Y201287D01*
X443287Y199361D01*
X443287Y196639D01*
X441361Y194713D01*
X438639Y194713D01*
G37*
%LPD*%
%LPC*%
G36*
X459639Y194713D02*
X459639Y194713D01*
X457713Y196639D01*
X457713Y199361D01*
X459639Y201287D01*
X462361Y201287D01*
X464287Y199361D01*
X464287Y196639D01*
X462361Y194713D01*
X459639Y194713D01*
G37*
%LPD*%
%LPC*%
G36*
X417639Y194713D02*
X417639Y194713D01*
X415713Y196639D01*
X415713Y199361D01*
X417639Y201287D01*
X420361Y201287D01*
X422287Y199361D01*
X422287Y196639D01*
X420361Y194713D01*
X417639Y194713D01*
G37*
%LPD*%
%LPC*%
G36*
X396639Y194713D02*
X396639Y194713D01*
X394713Y196639D01*
X394713Y199361D01*
X396639Y201287D01*
X399361Y201287D01*
X401287Y199361D01*
X401287Y196639D01*
X399361Y194713D01*
X396639Y194713D01*
G37*
%LPD*%
%LPC*%
G36*
X375639Y194713D02*
X375639Y194713D01*
X373713Y196639D01*
X373713Y199361D01*
X375639Y201287D01*
X378361Y201287D01*
X380287Y199361D01*
X380287Y196639D01*
X378361Y194713D01*
X375639Y194713D01*
G37*
%LPD*%
%LPC*%
G36*
X459639Y184713D02*
X459639Y184713D01*
X457713Y186639D01*
X457713Y189361D01*
X459639Y191287D01*
X462361Y191287D01*
X464287Y189361D01*
X464287Y186639D01*
X462361Y184713D01*
X459639Y184713D01*
G37*
%LPD*%
%LPC*%
G36*
X438639Y184713D02*
X438639Y184713D01*
X436713Y186639D01*
X436713Y189361D01*
X438639Y191287D01*
X441361Y191287D01*
X443287Y189361D01*
X443287Y186639D01*
X441361Y184713D01*
X438639Y184713D01*
G37*
%LPD*%
%LPC*%
G36*
X480639Y184713D02*
X480639Y184713D01*
X478713Y186639D01*
X478713Y189361D01*
X480639Y191287D01*
X483361Y191287D01*
X485287Y189361D01*
X485287Y186639D01*
X483361Y184713D01*
X480639Y184713D01*
G37*
%LPD*%
%LPC*%
G36*
X501639Y184713D02*
X501639Y184713D01*
X499713Y186639D01*
X499713Y189361D01*
X501639Y191287D01*
X504361Y191287D01*
X506287Y189361D01*
X506287Y186639D01*
X504361Y184713D01*
X501639Y184713D01*
G37*
%LPD*%
%LPC*%
G36*
X523639Y184713D02*
X523639Y184713D01*
X521713Y186639D01*
X521713Y189361D01*
X523639Y191287D01*
X526361Y191287D01*
X528287Y189361D01*
X528287Y186639D01*
X526361Y184713D01*
X523639Y184713D01*
G37*
%LPD*%
%LPC*%
G36*
X353639Y184713D02*
X353639Y184713D01*
X351713Y186639D01*
X351713Y189361D01*
X353639Y191287D01*
X356361Y191287D01*
X358287Y189361D01*
X358287Y186639D01*
X356361Y184713D01*
X353639Y184713D01*
G37*
%LPD*%
%LPC*%
G36*
X375639Y184713D02*
X375639Y184713D01*
X373713Y186639D01*
X373713Y189361D01*
X375639Y191287D01*
X378361Y191287D01*
X380287Y189361D01*
X380287Y186639D01*
X378361Y184713D01*
X375639Y184713D01*
G37*
%LPD*%
%LPC*%
G36*
X396639Y184713D02*
X396639Y184713D01*
X394713Y186639D01*
X394713Y189361D01*
X396639Y191287D01*
X399361Y191287D01*
X401287Y189361D01*
X401287Y186639D01*
X399361Y184713D01*
X396639Y184713D01*
G37*
%LPD*%
%LPC*%
G36*
X417639Y184713D02*
X417639Y184713D01*
X415713Y186639D01*
X415713Y189361D01*
X417639Y191287D01*
X420361Y191287D01*
X422287Y189361D01*
X422287Y186639D01*
X420361Y184713D01*
X417639Y184713D01*
G37*
%LPD*%
%LPC*%
G36*
X328639Y173713D02*
X328639Y173713D01*
X326713Y175639D01*
X326713Y178361D01*
X328639Y180287D01*
X331361Y180287D01*
X333287Y178361D01*
X333287Y175639D01*
X331361Y173713D01*
X328639Y173713D01*
G37*
%LPD*%
%LPC*%
G36*
X518639Y171713D02*
X518639Y171713D01*
X516713Y173639D01*
X516713Y176361D01*
X518639Y178287D01*
X521361Y178287D01*
X523287Y176361D01*
X523287Y173639D01*
X521361Y171713D01*
X518639Y171713D01*
G37*
%LPD*%
%LPC*%
G36*
X528639Y171713D02*
X528639Y171713D01*
X526713Y173639D01*
X526713Y176361D01*
X528639Y178287D01*
X531361Y178287D01*
X533287Y176361D01*
X533287Y173639D01*
X531361Y171713D01*
X528639Y171713D01*
G37*
%LPD*%
%LPC*%
G36*
X538639Y171713D02*
X538639Y171713D01*
X536713Y173639D01*
X536713Y176361D01*
X538639Y178287D01*
X541361Y178287D01*
X543287Y176361D01*
X543287Y173639D01*
X541361Y171713D01*
X538639Y171713D01*
G37*
%LPD*%
%LPC*%
G36*
X343639Y170713D02*
X343639Y170713D01*
X341713Y172639D01*
X341713Y175361D01*
X343639Y177287D01*
X346361Y177287D01*
X348287Y175361D01*
X348287Y172639D01*
X346361Y170713D01*
X343639Y170713D01*
G37*
%LPD*%
%LPC*%
G36*
X358639Y170713D02*
X358639Y170713D01*
X356713Y172639D01*
X356713Y175361D01*
X358639Y177287D01*
X361361Y177287D01*
X363287Y175361D01*
X363287Y172639D01*
X361361Y170713D01*
X358639Y170713D01*
G37*
%LPD*%
%LPC*%
G36*
X548639Y170713D02*
X548639Y170713D01*
X546713Y172639D01*
X546713Y175361D01*
X548639Y177287D01*
X551361Y177287D01*
X553287Y175361D01*
X553287Y172639D01*
X551361Y170713D01*
X548639Y170713D01*
G37*
%LPD*%
%LPC*%
G36*
X233511Y168713D02*
X233511Y168713D01*
X231585Y170639D01*
X231585Y173361D01*
X233511Y175287D01*
X236233Y175287D01*
X238159Y173361D01*
X238159Y170639D01*
X236233Y168713D01*
X233511Y168713D01*
G37*
%LPD*%
%LPC*%
G36*
X158639Y168713D02*
X158639Y168713D01*
X156713Y170639D01*
X156713Y173361D01*
X158639Y175287D01*
X161361Y175287D01*
X163287Y173361D01*
X163287Y170639D01*
X161361Y168713D01*
X158639Y168713D01*
G37*
%LPD*%
%LPC*%
G36*
X148639Y168713D02*
X148639Y168713D01*
X146713Y170639D01*
X146713Y173361D01*
X148639Y175287D01*
X151361Y175287D01*
X153287Y173361D01*
X153287Y170639D01*
X151361Y168713D01*
X148639Y168713D01*
G37*
%LPD*%
%LPC*%
G36*
X192639Y167713D02*
X192639Y167713D01*
X190713Y169639D01*
X190713Y172361D01*
X192639Y174287D01*
X195361Y174287D01*
X197287Y172361D01*
X197287Y169639D01*
X195361Y167713D01*
X192639Y167713D01*
G37*
%LPD*%
%LPC*%
G36*
X330639Y163713D02*
X330639Y163713D01*
X328713Y165639D01*
X328713Y168361D01*
X330639Y170287D01*
X333361Y170287D01*
X335287Y168361D01*
X335287Y165639D01*
X333361Y163713D01*
X330639Y163713D01*
G37*
%LPD*%
%LPC*%
G36*
X518639Y161713D02*
X518639Y161713D01*
X516713Y163639D01*
X516713Y166361D01*
X518639Y168287D01*
X521361Y168287D01*
X523287Y166361D01*
X523287Y163639D01*
X521361Y161713D01*
X518639Y161713D01*
G37*
%LPD*%
%LPC*%
G36*
X548639Y161713D02*
X548639Y161713D01*
X546713Y163639D01*
X546713Y166361D01*
X548639Y168287D01*
X551361Y168287D01*
X553287Y166361D01*
X553287Y163639D01*
X551361Y161713D01*
X548639Y161713D01*
G37*
%LPD*%
%LPC*%
G36*
X538639Y161713D02*
X538639Y161713D01*
X536713Y163639D01*
X536713Y166361D01*
X538639Y168287D01*
X541361Y168287D01*
X543287Y166361D01*
X543287Y163639D01*
X541361Y161713D01*
X538639Y161713D01*
G37*
%LPD*%
%LPC*%
G36*
X528639Y161713D02*
X528639Y161713D01*
X526713Y163639D01*
X526713Y166361D01*
X528639Y168287D01*
X531361Y168287D01*
X533287Y166361D01*
X533287Y163639D01*
X531361Y161713D01*
X528639Y161713D01*
G37*
%LPD*%
%LPC*%
G36*
X463639Y160713D02*
X463639Y160713D01*
X461713Y162639D01*
X461713Y165361D01*
X463639Y167287D01*
X466361Y167287D01*
X468287Y165361D01*
X468287Y162639D01*
X466361Y160713D01*
X463639Y160713D01*
G37*
%LPD*%
%LPC*%
G36*
X447639Y160713D02*
X447639Y160713D01*
X445713Y162639D01*
X445713Y165361D01*
X447639Y167287D01*
X450361Y167287D01*
X452287Y165361D01*
X452287Y162639D01*
X450361Y160713D01*
X447639Y160713D01*
G37*
%LPD*%
%LPC*%
G36*
X358639Y160713D02*
X358639Y160713D01*
X356713Y162639D01*
X356713Y165361D01*
X358639Y167287D01*
X361361Y167287D01*
X363287Y165361D01*
X363287Y162639D01*
X361361Y160713D01*
X358639Y160713D01*
G37*
%LPD*%
%LPC*%
G36*
X343639Y160713D02*
X343639Y160713D01*
X341713Y162639D01*
X341713Y165361D01*
X343639Y167287D01*
X346361Y167287D01*
X348287Y165361D01*
X348287Y162639D01*
X346361Y160713D01*
X343639Y160713D01*
G37*
%LPD*%
%LPC*%
G36*
X509639Y160713D02*
X509639Y160713D01*
X507713Y162639D01*
X507713Y165361D01*
X509639Y167287D01*
X512361Y167287D01*
X514287Y165361D01*
X514287Y162639D01*
X512361Y160713D01*
X509639Y160713D01*
G37*
%LPD*%
%LPC*%
G36*
X408639Y159713D02*
X408639Y159713D01*
X406713Y161639D01*
X406713Y164361D01*
X408639Y166287D01*
X411361Y166287D01*
X413287Y164361D01*
X413287Y161639D01*
X411361Y159713D01*
X408639Y159713D01*
G37*
%LPD*%
%LPC*%
G36*
X368639Y159713D02*
X368639Y159713D01*
X366713Y161639D01*
X366713Y164361D01*
X368639Y166287D01*
X371361Y166287D01*
X373287Y164361D01*
X373287Y161639D01*
X371361Y159713D01*
X368639Y159713D01*
G37*
%LPD*%
%LPC*%
G36*
X378639Y159713D02*
X378639Y159713D01*
X376713Y161639D01*
X376713Y164361D01*
X378639Y166287D01*
X381361Y166287D01*
X383287Y164361D01*
X383287Y161639D01*
X381361Y159713D01*
X378639Y159713D01*
G37*
%LPD*%
%LPC*%
G36*
X388639Y159713D02*
X388639Y159713D01*
X386713Y161639D01*
X386713Y164361D01*
X388639Y166287D01*
X391361Y166287D01*
X393287Y164361D01*
X393287Y161639D01*
X391361Y159713D01*
X388639Y159713D01*
G37*
%LPD*%
%LPC*%
G36*
X234639Y157713D02*
X234639Y157713D01*
X232713Y159639D01*
X232713Y162361D01*
X234639Y164287D01*
X237361Y164287D01*
X239287Y162361D01*
X239287Y159639D01*
X237361Y157713D01*
X234639Y157713D01*
G37*
%LPD*%
%LPC*%
G36*
X318639Y156713D02*
X318639Y156713D01*
X316713Y158639D01*
X316713Y161361D01*
X318639Y163287D01*
X321361Y163287D01*
X323287Y161361D01*
X323287Y158639D01*
X321361Y156713D01*
X318639Y156713D01*
G37*
%LPD*%
%LPC*%
G36*
X298639Y156713D02*
X298639Y156713D01*
X296713Y158639D01*
X296713Y161361D01*
X298639Y163287D01*
X301361Y163287D01*
X303287Y161361D01*
X303287Y158639D01*
X301361Y156713D01*
X298639Y156713D01*
G37*
%LPD*%
%LPC*%
G36*
X118639Y390713D02*
X118639Y390713D01*
X116713Y392639D01*
X116713Y395361D01*
X118639Y397287D01*
X121361Y397287D01*
X123287Y395361D01*
X123287Y392639D01*
X121361Y390713D01*
X118639Y390713D01*
G37*
%LPD*%
%LPC*%
G36*
X199639Y381713D02*
X199639Y381713D01*
X197713Y383639D01*
X197713Y386361D01*
X199639Y388287D01*
X202361Y388287D01*
X204287Y386361D01*
X204287Y383639D01*
X202361Y381713D01*
X199639Y381713D01*
G37*
%LPD*%
%LPC*%
G36*
X386639Y144713D02*
X386639Y144713D01*
X384713Y146639D01*
X384713Y149361D01*
X386639Y151287D01*
X389361Y151287D01*
X391287Y149361D01*
X391287Y146639D01*
X389361Y144713D01*
X386639Y144713D01*
G37*
%LPD*%
%LPC*%
G36*
X368639Y144713D02*
X368639Y144713D01*
X366713Y146639D01*
X366713Y149361D01*
X368639Y151287D01*
X371361Y151287D01*
X373287Y149361D01*
X373287Y146639D01*
X371361Y144713D01*
X368639Y144713D01*
G37*
%LPD*%
%LPC*%
G36*
X397639Y144713D02*
X397639Y144713D01*
X395713Y146639D01*
X395713Y149361D01*
X397639Y151287D01*
X400361Y151287D01*
X402287Y149361D01*
X402287Y146639D01*
X400361Y144713D01*
X397639Y144713D01*
G37*
%LPD*%
%LPC*%
G36*
X308639Y141713D02*
X308639Y141713D01*
X306713Y143639D01*
X306713Y146361D01*
X308639Y148287D01*
X311361Y148287D01*
X313287Y146361D01*
X313287Y143639D01*
X311361Y141713D01*
X308639Y141713D01*
G37*
%LPD*%
%LPC*%
G36*
X192639Y136713D02*
X192639Y136713D01*
X190713Y138639D01*
X190713Y141361D01*
X192639Y143287D01*
X195361Y143287D01*
X197287Y141361D01*
X197287Y138639D01*
X195361Y136713D01*
X192639Y136713D01*
G37*
%LPD*%
%LPC*%
G36*
X168639Y136713D02*
X168639Y136713D01*
X166713Y138639D01*
X166713Y141361D01*
X168639Y143287D01*
X171361Y143287D01*
X173287Y141361D01*
X173287Y138639D01*
X171361Y136713D01*
X168639Y136713D01*
G37*
%LPD*%
%LPC*%
G36*
X148639Y136713D02*
X148639Y136713D01*
X146713Y138639D01*
X146713Y141361D01*
X148639Y143287D01*
X151361Y143287D01*
X153287Y141361D01*
X153287Y138639D01*
X151361Y136713D01*
X148639Y136713D01*
G37*
%LPD*%
%LPC*%
G36*
X348639Y126713D02*
X348639Y126713D01*
X346713Y128639D01*
X346713Y131361D01*
X348639Y133287D01*
X351361Y133287D01*
X353287Y131361D01*
X353287Y128639D01*
X351361Y126713D01*
X348639Y126713D01*
G37*
%LPD*%
%LPC*%
G36*
X168639Y126713D02*
X168639Y126713D01*
X166713Y128639D01*
X166713Y131361D01*
X168639Y133287D01*
X171361Y133287D01*
X173287Y131361D01*
X173287Y128639D01*
X171361Y126713D01*
X168639Y126713D01*
G37*
%LPD*%
%LPC*%
G36*
X148639Y126713D02*
X148639Y126713D01*
X146713Y128639D01*
X146713Y131361D01*
X148639Y133287D01*
X151361Y133287D01*
X153287Y131361D01*
X153287Y128639D01*
X151361Y126713D01*
X148639Y126713D01*
G37*
%LPD*%
%LPC*%
G36*
X558639Y372713D02*
X558639Y372713D01*
X556713Y374639D01*
X556713Y377361D01*
X558639Y379287D01*
X561361Y379287D01*
X563287Y377361D01*
X563287Y374639D01*
X561361Y372713D01*
X558639Y372713D01*
G37*
%LPD*%
%LPC*%
G36*
X488639Y117713D02*
X488639Y117713D01*
X486713Y119639D01*
X486713Y122361D01*
X488639Y124287D01*
X491361Y124287D01*
X493287Y122361D01*
X493287Y119639D01*
X491361Y117713D01*
X488639Y117713D01*
G37*
%LPD*%
%LPC*%
G36*
X508639Y116713D02*
X508639Y116713D01*
X506713Y118639D01*
X506713Y121361D01*
X508639Y123287D01*
X511361Y123287D01*
X513287Y121361D01*
X513287Y118639D01*
X511361Y116713D01*
X508639Y116713D01*
G37*
%LPD*%
%LPC*%
G36*
X468639Y116713D02*
X468639Y116713D01*
X466713Y118639D01*
X466713Y121361D01*
X468639Y123287D01*
X471361Y123287D01*
X473287Y121361D01*
X473287Y118639D01*
X471361Y116713D01*
X468639Y116713D01*
G37*
%LPD*%
%LPC*%
G36*
X518639Y116713D02*
X518639Y116713D01*
X516713Y118639D01*
X516713Y121361D01*
X518639Y123287D01*
X521361Y123287D01*
X523287Y121361D01*
X523287Y118639D01*
X521361Y116713D01*
X518639Y116713D01*
G37*
%LPD*%
%LPC*%
G36*
X438639Y116713D02*
X438639Y116713D01*
X436713Y118639D01*
X436713Y121361D01*
X438639Y123287D01*
X441361Y123287D01*
X443287Y121361D01*
X443287Y118639D01*
X441361Y116713D01*
X438639Y116713D01*
G37*
%LPD*%
%LPC*%
G36*
X418639Y116713D02*
X418639Y116713D01*
X416713Y118639D01*
X416713Y121361D01*
X418639Y123287D01*
X421361Y123287D01*
X423287Y121361D01*
X423287Y118639D01*
X421361Y116713D01*
X418639Y116713D01*
G37*
%LPD*%
%LPC*%
G36*
X230639Y116713D02*
X230639Y116713D01*
X228713Y118639D01*
X228713Y121361D01*
X230639Y123287D01*
X233361Y123287D01*
X235287Y121361D01*
X235287Y118639D01*
X233361Y116713D01*
X230639Y116713D01*
G37*
%LPD*%
%LPC*%
G36*
X388639Y114713D02*
X388639Y114713D01*
X386713Y116639D01*
X386713Y119361D01*
X388639Y121287D01*
X391361Y121287D01*
X393287Y119361D01*
X393287Y116639D01*
X391361Y114713D01*
X388639Y114713D01*
G37*
%LPD*%
%LPC*%
G36*
X328639Y111713D02*
X328639Y111713D01*
X326713Y113639D01*
X326713Y116361D01*
X328639Y118287D01*
X331361Y118287D01*
X333287Y116361D01*
X333287Y113639D01*
X331361Y111713D01*
X328639Y111713D01*
G37*
%LPD*%
%LPC*%
G36*
X463639Y372713D02*
X463639Y372713D01*
X461713Y374639D01*
X461713Y377361D01*
X463639Y379287D01*
X466361Y379287D01*
X468287Y377361D01*
X468287Y374639D01*
X466361Y372713D01*
X463639Y372713D01*
G37*
%LPD*%
%LPC*%
G36*
X448639Y372713D02*
X448639Y372713D01*
X446713Y374639D01*
X446713Y377361D01*
X448639Y379287D01*
X451361Y379287D01*
X453287Y377361D01*
X453287Y374639D01*
X451361Y372713D01*
X448639Y372713D01*
G37*
%LPD*%
%LPC*%
G36*
X430639Y372713D02*
X430639Y372713D01*
X428713Y374639D01*
X428713Y377361D01*
X430639Y379287D01*
X433361Y379287D01*
X435287Y377361D01*
X435287Y374639D01*
X433361Y372713D01*
X430639Y372713D01*
G37*
%LPD*%
%LPC*%
G36*
X490639Y90713D02*
X490639Y90713D01*
X488713Y92639D01*
X488713Y95361D01*
X490639Y97287D01*
X493361Y97287D01*
X495287Y95361D01*
X495287Y92639D01*
X493361Y90713D01*
X490639Y90713D01*
G37*
%LPD*%
%LPC*%
G36*
X540639Y372713D02*
X540639Y372713D01*
X538713Y374639D01*
X538713Y377361D01*
X540639Y379287D01*
X543361Y379287D01*
X545287Y377361D01*
X545287Y374639D01*
X543361Y372713D01*
X540639Y372713D01*
G37*
%LPD*%
%LPC*%
G36*
X308639Y87713D02*
X308639Y87713D01*
X306713Y89639D01*
X306713Y92361D01*
X308639Y94287D01*
X311361Y94287D01*
X313287Y92361D01*
X313287Y89639D01*
X311361Y87713D01*
X308639Y87713D01*
G37*
%LPD*%
%LPC*%
G36*
X548639Y76713D02*
X548639Y76713D01*
X546713Y78639D01*
X546713Y81361D01*
X548639Y83287D01*
X551361Y83287D01*
X553287Y81361D01*
X553287Y78639D01*
X551361Y76713D01*
X548639Y76713D01*
G37*
%LPD*%
%LPC*%
G36*
X262639Y76713D02*
X262639Y76713D01*
X260713Y78639D01*
X260713Y81361D01*
X262639Y83287D01*
X265361Y83287D01*
X267287Y81361D01*
X267287Y78639D01*
X265361Y76713D01*
X262639Y76713D01*
G37*
%LPD*%
%LPC*%
G36*
X238639Y76713D02*
X238639Y76713D01*
X236713Y78639D01*
X236713Y81361D01*
X238639Y83287D01*
X241361Y83287D01*
X243287Y81361D01*
X243287Y78639D01*
X241361Y76713D01*
X238639Y76713D01*
G37*
%LPD*%
%LPC*%
G36*
X99639Y72713D02*
X99639Y72713D01*
X97713Y74639D01*
X97713Y77361D01*
X99639Y79287D01*
X102361Y79287D01*
X104287Y77361D01*
X104287Y74639D01*
X102361Y72713D01*
X99639Y72713D01*
G37*
%LPD*%
%LPC*%
G36*
X67639Y71713D02*
X67639Y71713D01*
X65713Y73639D01*
X65713Y76361D01*
X67639Y78287D01*
X70361Y78287D01*
X72287Y76361D01*
X72287Y73639D01*
X70361Y71713D01*
X67639Y71713D01*
G37*
%LPD*%
%LPC*%
G36*
X562639Y70713D02*
X562639Y70713D01*
X560713Y72639D01*
X560713Y75361D01*
X562639Y77287D01*
X565361Y77287D01*
X567287Y75361D01*
X567287Y72639D01*
X565361Y70713D01*
X562639Y70713D01*
G37*
%LPD*%
%LPC*%
G36*
X378639Y56713D02*
X378639Y56713D01*
X376713Y58639D01*
X376713Y61361D01*
X378639Y63287D01*
X381361Y63287D01*
X383287Y61361D01*
X383287Y58639D01*
X381361Y56713D01*
X378639Y56713D01*
G37*
%LPD*%
%LPC*%
G36*
X488639Y46713D02*
X488639Y46713D01*
X486713Y48639D01*
X486713Y51361D01*
X488639Y53287D01*
X491361Y53287D01*
X493287Y51361D01*
X493287Y48639D01*
X491361Y46713D01*
X488639Y46713D01*
G37*
%LPD*%
%LPC*%
G36*
X428639Y46713D02*
X428639Y46713D01*
X426713Y48639D01*
X426713Y51361D01*
X428639Y53287D01*
X431361Y53287D01*
X433287Y51361D01*
X433287Y48639D01*
X431361Y46713D01*
X428639Y46713D01*
G37*
%LPD*%
%LPC*%
G36*
X368639Y36713D02*
X368639Y36713D01*
X366713Y38639D01*
X366713Y41361D01*
X368639Y43287D01*
X371361Y43287D01*
X373287Y41361D01*
X373287Y38639D01*
X371361Y36713D01*
X368639Y36713D01*
G37*
%LPD*%
%LPC*%
G36*
X358639Y36713D02*
X358639Y36713D01*
X356713Y38639D01*
X356713Y41361D01*
X358639Y43287D01*
X361361Y43287D01*
X363287Y41361D01*
X363287Y38639D01*
X361361Y36713D01*
X358639Y36713D01*
G37*
%LPD*%
%LPC*%
G36*
X348639Y36713D02*
X348639Y36713D01*
X346713Y38639D01*
X346713Y41361D01*
X348639Y43287D01*
X351361Y43287D01*
X353287Y41361D01*
X353287Y38639D01*
X351361Y36713D01*
X348639Y36713D01*
G37*
%LPD*%
%LPC*%
G36*
X338639Y36713D02*
X338639Y36713D01*
X336713Y38639D01*
X336713Y41361D01*
X338639Y43287D01*
X341361Y43287D01*
X343287Y41361D01*
X343287Y38639D01*
X341361Y36713D01*
X338639Y36713D01*
G37*
%LPD*%
%LPC*%
G36*
X370639Y372126D02*
X370639Y372126D01*
X368713Y374052D01*
X368713Y376774D01*
X370639Y378700D01*
X373361Y378700D01*
X375287Y376774D01*
X375287Y374052D01*
X373361Y372126D01*
X370639Y372126D01*
G37*
%LPD*%
%LPC*%
G36*
X378639Y6713D02*
X378639Y6713D01*
X376713Y8639D01*
X376713Y11361D01*
X378639Y13287D01*
X381361Y13287D01*
X383287Y11361D01*
X383287Y8639D01*
X381361Y6713D01*
X378639Y6713D01*
G37*
%LPD*%
%LPC*%
G36*
X340639Y6713D02*
X340639Y6713D01*
X338713Y8639D01*
X338713Y11361D01*
X340639Y13287D01*
X343361Y13287D01*
X345287Y11361D01*
X345287Y8639D01*
X343361Y6713D01*
X340639Y6713D01*
G37*
%LPD*%
G36*
X520158Y385028D02*
X520158Y385028D01*
X520229Y385033D01*
X520277Y385054D01*
X520328Y385065D01*
X520389Y385102D01*
X520455Y385130D01*
X520511Y385174D01*
X520539Y385191D01*
X520554Y385209D01*
X520586Y385234D01*
X522607Y387255D01*
X522648Y387313D01*
X522698Y387365D01*
X522720Y387412D01*
X522750Y387454D01*
X522771Y387523D01*
X522801Y387588D01*
X522807Y387640D01*
X522823Y387690D01*
X522821Y387761D01*
X522829Y387832D01*
X522817Y387883D01*
X522816Y387935D01*
X522792Y388003D01*
X522776Y388073D01*
X522750Y388117D01*
X522732Y388166D01*
X522687Y388222D01*
X522650Y388284D01*
X522611Y388318D01*
X522578Y388358D01*
X522518Y388397D01*
X522463Y388444D01*
X522415Y388463D01*
X522371Y388491D01*
X522302Y388509D01*
X522235Y388536D01*
X522164Y388544D01*
X522133Y388552D01*
X522109Y388550D01*
X522068Y388554D01*
X518932Y388554D01*
X518861Y388543D01*
X518789Y388541D01*
X518740Y388523D01*
X518689Y388515D01*
X518626Y388481D01*
X518558Y388456D01*
X518518Y388424D01*
X518472Y388399D01*
X518422Y388347D01*
X518366Y388303D01*
X518338Y388259D01*
X518302Y388221D01*
X518272Y388156D01*
X518233Y388096D01*
X518220Y388045D01*
X518199Y387998D01*
X518191Y387927D01*
X518173Y387857D01*
X518177Y387805D01*
X518171Y387754D01*
X518187Y387683D01*
X518192Y387612D01*
X518213Y387564D01*
X518224Y387513D01*
X518261Y387452D01*
X518289Y387386D01*
X518333Y387330D01*
X518350Y387302D01*
X518368Y387287D01*
X518393Y387255D01*
X519287Y386361D01*
X519287Y385773D01*
X519298Y385702D01*
X519300Y385630D01*
X519318Y385581D01*
X519326Y385530D01*
X519360Y385467D01*
X519385Y385399D01*
X519417Y385358D01*
X519442Y385313D01*
X519493Y385263D01*
X519538Y385207D01*
X519582Y385179D01*
X519620Y385143D01*
X519685Y385113D01*
X519745Y385074D01*
X519796Y385061D01*
X519843Y385040D01*
X519914Y385032D01*
X519984Y385014D01*
X520036Y385018D01*
X520087Y385012D01*
X520158Y385028D01*
G37*
G36*
X481539Y385474D02*
X481539Y385474D01*
X481642Y385477D01*
X481661Y385484D01*
X481681Y385485D01*
X481776Y385526D01*
X481873Y385561D01*
X481889Y385574D01*
X481907Y385582D01*
X482038Y385686D01*
X483607Y387255D01*
X483648Y387313D01*
X483698Y387365D01*
X483720Y387412D01*
X483750Y387454D01*
X483771Y387523D01*
X483801Y387588D01*
X483807Y387640D01*
X483823Y387690D01*
X483821Y387761D01*
X483829Y387832D01*
X483817Y387883D01*
X483816Y387935D01*
X483792Y388003D01*
X483776Y388073D01*
X483750Y388118D01*
X483732Y388166D01*
X483687Y388222D01*
X483650Y388284D01*
X483611Y388318D01*
X483578Y388358D01*
X483518Y388397D01*
X483463Y388444D01*
X483415Y388463D01*
X483371Y388491D01*
X483302Y388509D01*
X483235Y388536D01*
X483164Y388544D01*
X483133Y388552D01*
X483109Y388550D01*
X483068Y388554D01*
X479932Y388554D01*
X479861Y388543D01*
X479789Y388541D01*
X479740Y388523D01*
X479689Y388515D01*
X479626Y388481D01*
X479558Y388456D01*
X479517Y388424D01*
X479472Y388399D01*
X479422Y388348D01*
X479366Y388303D01*
X479338Y388259D01*
X479302Y388221D01*
X479272Y388156D01*
X479233Y388096D01*
X479220Y388045D01*
X479199Y387998D01*
X479191Y387927D01*
X479173Y387857D01*
X479177Y387805D01*
X479171Y387754D01*
X479187Y387683D01*
X479192Y387612D01*
X479213Y387564D01*
X479224Y387513D01*
X479261Y387452D01*
X479289Y387386D01*
X479333Y387330D01*
X479350Y387302D01*
X479368Y387287D01*
X479393Y387255D01*
X480962Y385686D01*
X480978Y385675D01*
X480990Y385659D01*
X481078Y385603D01*
X481161Y385543D01*
X481180Y385537D01*
X481197Y385526D01*
X481298Y385501D01*
X481397Y385471D01*
X481416Y385471D01*
X481436Y385466D01*
X481539Y385474D01*
G37*
G36*
X575512Y379290D02*
X575512Y379290D01*
X575531Y379288D01*
X575633Y379310D01*
X575735Y379326D01*
X575752Y379336D01*
X575772Y379340D01*
X575861Y379393D01*
X575952Y379442D01*
X575966Y379456D01*
X575983Y379466D01*
X576050Y379545D01*
X576122Y379620D01*
X576130Y379638D01*
X576143Y379653D01*
X576182Y379749D01*
X576225Y379843D01*
X576227Y379863D01*
X576235Y379881D01*
X576253Y380048D01*
X576253Y380377D01*
X576239Y380467D01*
X576231Y380558D01*
X576219Y380588D01*
X576214Y380620D01*
X576171Y380700D01*
X576135Y380784D01*
X576109Y380817D01*
X576098Y380837D01*
X576075Y380859D01*
X576030Y380915D01*
X574459Y382486D01*
X574401Y382528D01*
X574349Y382578D01*
X574302Y382600D01*
X574260Y382630D01*
X574191Y382651D01*
X574126Y382681D01*
X574074Y382687D01*
X574024Y382702D01*
X573953Y382700D01*
X573882Y382708D01*
X573831Y382697D01*
X573779Y382696D01*
X573711Y382671D01*
X573641Y382656D01*
X573596Y382629D01*
X573548Y382612D01*
X573492Y382567D01*
X573430Y382530D01*
X573396Y382490D01*
X573356Y382458D01*
X573317Y382398D01*
X573270Y382343D01*
X573251Y382295D01*
X573223Y382251D01*
X573205Y382181D01*
X573178Y382115D01*
X573170Y382044D01*
X573162Y382012D01*
X573164Y381989D01*
X573160Y381948D01*
X573160Y380048D01*
X573163Y380028D01*
X573161Y380009D01*
X573183Y379907D01*
X573199Y379805D01*
X573209Y379788D01*
X573213Y379768D01*
X573266Y379679D01*
X573315Y379588D01*
X573329Y379574D01*
X573339Y379557D01*
X573418Y379490D01*
X573493Y379418D01*
X573511Y379410D01*
X573526Y379397D01*
X573622Y379358D01*
X573716Y379315D01*
X573736Y379313D01*
X573754Y379305D01*
X573921Y379287D01*
X575492Y379287D01*
X575512Y379290D01*
G37*
G36*
X488039Y385974D02*
X488039Y385974D01*
X488142Y385977D01*
X488161Y385984D01*
X488181Y385985D01*
X488276Y386026D01*
X488373Y386061D01*
X488389Y386074D01*
X488407Y386082D01*
X488538Y386186D01*
X489607Y387255D01*
X489648Y387313D01*
X489698Y387365D01*
X489720Y387412D01*
X489750Y387454D01*
X489771Y387523D01*
X489801Y387588D01*
X489807Y387640D01*
X489823Y387690D01*
X489821Y387761D01*
X489829Y387832D01*
X489817Y387883D01*
X489816Y387935D01*
X489792Y388003D01*
X489776Y388073D01*
X489750Y388118D01*
X489732Y388166D01*
X489687Y388222D01*
X489650Y388284D01*
X489611Y388318D01*
X489578Y388358D01*
X489518Y388397D01*
X489463Y388444D01*
X489415Y388463D01*
X489371Y388491D01*
X489302Y388509D01*
X489235Y388536D01*
X489164Y388544D01*
X489133Y388552D01*
X489109Y388550D01*
X489068Y388554D01*
X486932Y388554D01*
X486861Y388543D01*
X486789Y388541D01*
X486740Y388523D01*
X486689Y388515D01*
X486626Y388481D01*
X486558Y388456D01*
X486517Y388424D01*
X486472Y388399D01*
X486422Y388348D01*
X486366Y388303D01*
X486338Y388259D01*
X486302Y388221D01*
X486272Y388156D01*
X486233Y388096D01*
X486220Y388045D01*
X486199Y387998D01*
X486191Y387927D01*
X486173Y387857D01*
X486177Y387805D01*
X486171Y387754D01*
X486187Y387683D01*
X486192Y387612D01*
X486213Y387564D01*
X486224Y387513D01*
X486261Y387452D01*
X486289Y387386D01*
X486333Y387330D01*
X486350Y387302D01*
X486368Y387287D01*
X486393Y387255D01*
X487462Y386186D01*
X487478Y386175D01*
X487490Y386159D01*
X487578Y386103D01*
X487661Y386043D01*
X487680Y386037D01*
X487697Y386026D01*
X487798Y386001D01*
X487897Y385971D01*
X487916Y385971D01*
X487936Y385966D01*
X488039Y385974D01*
G37*
G36*
X512539Y386474D02*
X512539Y386474D01*
X512642Y386477D01*
X512661Y386484D01*
X512681Y386485D01*
X512776Y386526D01*
X512873Y386561D01*
X512889Y386574D01*
X512907Y386582D01*
X513038Y386686D01*
X513607Y387255D01*
X513649Y387313D01*
X513698Y387365D01*
X513720Y387412D01*
X513750Y387454D01*
X513771Y387523D01*
X513801Y387588D01*
X513807Y387640D01*
X513823Y387690D01*
X513821Y387761D01*
X513829Y387832D01*
X513817Y387883D01*
X513816Y387935D01*
X513792Y388003D01*
X513776Y388073D01*
X513750Y388118D01*
X513732Y388166D01*
X513687Y388222D01*
X513650Y388284D01*
X513610Y388318D01*
X513578Y388358D01*
X513518Y388397D01*
X513463Y388444D01*
X513415Y388463D01*
X513371Y388491D01*
X513302Y388509D01*
X513235Y388536D01*
X513164Y388544D01*
X513133Y388552D01*
X513109Y388550D01*
X513068Y388554D01*
X511932Y388554D01*
X511861Y388543D01*
X511789Y388541D01*
X511740Y388523D01*
X511689Y388515D01*
X511626Y388481D01*
X511558Y388456D01*
X511517Y388424D01*
X511472Y388399D01*
X511422Y388348D01*
X511366Y388303D01*
X511338Y388259D01*
X511302Y388221D01*
X511272Y388156D01*
X511233Y388096D01*
X511220Y388045D01*
X511199Y387998D01*
X511191Y387927D01*
X511173Y387857D01*
X511177Y387805D01*
X511171Y387754D01*
X511187Y387683D01*
X511192Y387612D01*
X511213Y387564D01*
X511224Y387513D01*
X511261Y387452D01*
X511289Y387386D01*
X511333Y387330D01*
X511350Y387302D01*
X511368Y387287D01*
X511393Y387255D01*
X511962Y386686D01*
X511978Y386675D01*
X511990Y386659D01*
X512077Y386603D01*
X512161Y386543D01*
X512180Y386537D01*
X512197Y386526D01*
X512298Y386501D01*
X512397Y386471D01*
X512416Y386471D01*
X512436Y386466D01*
X512539Y386474D01*
G37*
%LPC*%
G36*
X286999Y383999D02*
X286999Y383999D01*
X286999Y384001D01*
X287001Y384001D01*
X287001Y383999D01*
X286999Y383999D01*
G37*
%LPD*%
D10*
X280000Y70000D03*
X305400Y70000D03*
X382700Y100000D03*
X357300Y100000D03*
X40000Y120000D03*
X40000Y145400D03*
X40000Y170800D03*
X40000Y196200D03*
X287000Y384000D03*
X312400Y384000D03*
D11*
X165000Y270000D03*
X190000Y270000D03*
X207000Y310000D03*
X155000Y346278D03*
X192000Y345000D03*
X135000Y310000D03*
X420000Y161000D03*
X440000Y160000D03*
X470000Y160000D03*
X196000Y190000D03*
X231000Y282000D03*
X227000Y240000D03*
X90000Y330000D03*
X310000Y333000D03*
X217440Y364440D03*
X150000Y95000D03*
X208000Y100000D03*
X403000Y367000D03*
X90000Y310000D03*
X90000Y295000D03*
X160000Y300000D03*
X170000Y300000D03*
X170000Y310000D03*
X160000Y310000D03*
X129000Y338000D03*
X129000Y346000D03*
X93000Y364000D03*
X120000Y394000D03*
X201000Y385000D03*
X240000Y375000D03*
X270000Y340000D03*
X258000Y318000D03*
X287000Y300000D03*
X286000Y276000D03*
X286000Y267000D03*
X222000Y272000D03*
X80000Y290000D03*
X35000Y353000D03*
X53000Y346000D03*
X69000Y75000D03*
X101000Y76000D03*
X240000Y80000D03*
X264000Y80000D03*
X290000Y113000D03*
X300000Y160000D03*
X320000Y160000D03*
X330000Y115000D03*
X370000Y148000D03*
X388000Y148000D03*
X420000Y120000D03*
X440000Y120000D03*
X470000Y120000D03*
X492000Y94000D03*
X520000Y120000D03*
X490000Y50000D03*
X430000Y50000D03*
X380000Y60000D03*
X342000Y10000D03*
X150000Y130000D03*
X150000Y140000D03*
X170000Y140000D03*
X170000Y130000D03*
X194000Y140000D03*
X194000Y171000D03*
X180000Y172000D03*
X160000Y172000D03*
X150000Y172000D03*
X300000Y239000D03*
X320000Y320000D03*
X478000Y370000D03*
X475000Y365000D03*
X486000Y355000D03*
X491000Y351000D03*
X510000Y351000D03*
X515000Y356000D03*
X522000Y370000D03*
X522000Y363000D03*
X522000Y378000D03*
X490000Y336000D03*
X511000Y336000D03*
X520000Y336000D03*
X530000Y336000D03*
X540000Y336000D03*
X550000Y336000D03*
X550000Y323000D03*
X470000Y336000D03*
X452000Y336000D03*
X435000Y336000D03*
X420000Y336000D03*
X402000Y336000D03*
X387000Y336000D03*
X370000Y336000D03*
X357000Y336000D03*
X340000Y336000D03*
X327000Y336000D03*
X328000Y324000D03*
X329000Y315000D03*
X329000Y304000D03*
X329000Y293000D03*
X329000Y285000D03*
X330000Y177000D03*
X332000Y167000D03*
X345000Y164000D03*
X360000Y164000D03*
X370000Y163000D03*
X380000Y163000D03*
X390000Y163000D03*
X400000Y163000D03*
X410000Y163000D03*
X449000Y164000D03*
X465000Y164000D03*
X511000Y164000D03*
X520000Y165000D03*
X530000Y165000D03*
X540000Y165000D03*
X550000Y165000D03*
X550000Y174000D03*
X503000Y198000D03*
X482000Y198000D03*
X461000Y198000D03*
X440000Y198000D03*
X419000Y198000D03*
X398000Y198000D03*
X377000Y198000D03*
X355000Y198000D03*
X525000Y198000D03*
X503000Y307000D03*
X482000Y307000D03*
X461000Y307000D03*
X440000Y307000D03*
X419000Y307000D03*
X398000Y307000D03*
X377000Y307000D03*
X355000Y307000D03*
X525000Y307000D03*
X503000Y298000D03*
X482000Y298000D03*
X461000Y298000D03*
X440000Y298000D03*
X419000Y298000D03*
X398000Y298000D03*
X377000Y298000D03*
X355000Y298000D03*
X525000Y298000D03*
X503000Y288000D03*
X482000Y288000D03*
X461000Y288000D03*
X440000Y288000D03*
X419000Y288000D03*
X398000Y288000D03*
X377000Y288000D03*
X355000Y288000D03*
X525000Y288000D03*
X503000Y278000D03*
X482000Y278000D03*
X461000Y278000D03*
X440000Y278000D03*
X419000Y278000D03*
X398000Y278000D03*
X377000Y278000D03*
X355000Y278000D03*
X525000Y278000D03*
X503000Y268000D03*
X482000Y268000D03*
X461000Y268000D03*
X440000Y268000D03*
X419000Y268000D03*
X398000Y268000D03*
X377000Y268000D03*
X355000Y268000D03*
X525000Y268000D03*
X503000Y258000D03*
X482000Y258000D03*
X461000Y258000D03*
X440000Y258000D03*
X419000Y258000D03*
X398000Y258000D03*
X377000Y258000D03*
X355000Y258000D03*
X525000Y258000D03*
X503000Y248000D03*
X482000Y248000D03*
X461000Y248000D03*
X440000Y248000D03*
X419000Y248000D03*
X398000Y248000D03*
X377000Y248000D03*
X355000Y248000D03*
X525000Y248000D03*
X503000Y238000D03*
X482000Y238000D03*
X461000Y238000D03*
X440000Y238000D03*
X419000Y238000D03*
X398000Y238000D03*
X377000Y238000D03*
X355000Y238000D03*
X525000Y238000D03*
X503000Y228000D03*
X482000Y228000D03*
X461000Y228000D03*
X440000Y228000D03*
X419000Y228000D03*
X398000Y228000D03*
X377000Y228000D03*
X355000Y228000D03*
X525000Y228000D03*
X503000Y218000D03*
X482000Y218000D03*
X461000Y218000D03*
X440000Y218000D03*
X419000Y218000D03*
X398000Y218000D03*
X377000Y218000D03*
X355000Y218000D03*
X525000Y218000D03*
X503000Y208000D03*
X482000Y208000D03*
X461000Y208000D03*
X440000Y208000D03*
X419000Y208000D03*
X398000Y208000D03*
X377000Y208000D03*
X355000Y208000D03*
X525000Y208000D03*
X503000Y188000D03*
X482000Y188000D03*
X461000Y188000D03*
X440000Y188000D03*
X419000Y188000D03*
X398000Y188000D03*
X377000Y188000D03*
X355000Y188000D03*
X525000Y188000D03*
X503000Y313000D03*
X482000Y313000D03*
X461000Y313000D03*
X440000Y313000D03*
X419000Y313000D03*
X398000Y313000D03*
X377000Y313000D03*
X355000Y313000D03*
X525000Y313000D03*
X345000Y174000D03*
X360000Y174000D03*
X520000Y175000D03*
X530000Y175000D03*
X540000Y175000D03*
X355000Y328000D03*
X345000Y328000D03*
X335000Y328000D03*
X525000Y328000D03*
X535000Y328000D03*
X545000Y328000D03*
X465000Y376000D03*
X450000Y376000D03*
X432000Y376000D03*
X450000Y356000D03*
X455000Y366000D03*
X440000Y366000D03*
X435000Y356000D03*
X425000Y346000D03*
X410000Y346000D03*
X465000Y356000D03*
X565000Y346000D03*
X550000Y346000D03*
X532000Y346000D03*
X517000Y346000D03*
X575000Y376000D03*
X560000Y376000D03*
X542000Y376000D03*
X527000Y376000D03*
X560000Y356000D03*
X565000Y366000D03*
X550000Y366000D03*
X532000Y366000D03*
X545000Y356000D03*
X530000Y356000D03*
X575000Y356000D03*
X390000Y118000D03*
X360000Y40000D03*
X350000Y40000D03*
X370000Y40000D03*
X340000Y40000D03*
X340000Y30000D03*
X340000Y24000D03*
X478000Y377000D03*
X478000Y384000D03*
X485000Y384000D03*
X491000Y384000D03*
X510000Y384000D03*
X516000Y385000D03*
X524000Y384000D03*
X135000Y315000D03*
X101000Y102000D03*
X99000Y284000D03*
D12*
X98587Y257414D02*
X98587Y254586D01*
X101000Y156000D02*
X101000Y102000D01*
X101000Y156000D02*
X101000Y252173D01*
X98587Y254586D01*
X98587Y257414D02*
X99000Y257827D01*
X99000Y284000D01*
D11*
X101000Y156000D03*
X562000Y241000D03*
D12*
X562000Y157413D01*
X561000Y156413D01*
D11*
X561000Y156413D03*
X403000Y156413D03*
X152000Y359000D03*
D12*
X150000Y357000D01*
X150000Y330000D01*
X135000Y315000D01*
D11*
X244000Y363000D03*
X179000Y363000D03*
D12*
X179000Y271000D01*
X180000Y270000D01*
D11*
X180000Y270000D03*
X129000Y140000D03*
X129000Y271000D03*
X571000Y153000D03*
X409000Y152587D03*
D12*
X129000Y140000D02*
X129000Y271000D01*
D11*
X220000Y371000D03*
X223000Y348000D03*
D12*
X223000Y367707D02*
X220000Y370707D01*
X220000Y371000D01*
D11*
X129000Y105000D03*
D12*
X129000Y140000D01*
X223000Y348000D02*
X223000Y367707D01*
D11*
X372000Y375413D03*
X372500Y365500D03*
X212000Y295000D03*
D12*
X212000Y376000D01*
X220000Y384000D01*
D11*
X220000Y384000D03*
X570000Y302000D03*
D12*
X571000Y303000D01*
X571000Y381714D01*
X562000Y390714D01*
D11*
X365714Y387587D03*
D12*
X368841Y390714D01*
X562000Y390714D01*
D11*
X292000Y248000D03*
D12*
X292000Y350000D01*
D11*
X260000Y393413D03*
D12*
X260000Y382000D01*
X292000Y350000D01*
D11*
X297000Y256000D03*
X270000Y390000D03*
D12*
X297000Y350000D02*
X297000Y256000D01*
X297000Y350000D02*
X270000Y377000D01*
X270000Y390000D01*
D11*
X274000Y266000D03*
D12*
X271587Y256414D02*
X271587Y253586D01*
X274000Y258827D02*
X274000Y266000D01*
X274000Y258827D02*
X271587Y256414D01*
X271587Y253586D02*
X272000Y253173D01*
X268587Y163827D02*
X268587Y160999D01*
X268587Y163827D02*
X272000Y167240D01*
X268587Y160999D02*
X272000Y157586D01*
D11*
X270000Y20000D03*
D12*
X272413Y107414D02*
X272000Y107827D01*
X270729Y20729D02*
X270000Y20000D01*
X270729Y20729D02*
X270729Y73840D01*
X272413Y75524D02*
X272413Y107414D01*
X272413Y75524D02*
X270729Y73840D01*
X272000Y167240D02*
X272000Y253173D01*
X272000Y157586D02*
X272000Y107827D01*
D13*
X61000Y381000D03*
D11*
X56000Y120000D03*
D14*
X55698Y198218D02*
X55698Y201782D01*
X56825Y120825D02*
X56000Y120000D01*
X61000Y207084D02*
X61000Y381000D01*
X61000Y207084D02*
X55698Y201782D01*
X56825Y197091D02*
X56825Y120825D01*
X56825Y197091D02*
X55698Y198218D01*
D11*
X244000Y340000D03*
X205000Y340000D03*
X230000Y300000D03*
X207000Y298460D03*
X208000Y210000D03*
X236000Y161000D03*
X75000Y161000D03*
D12*
X75000Y225000D01*
D11*
X75000Y225000D03*
X242000Y101000D03*
X221000Y209000D03*
X234000Y203000D03*
X161000Y208000D03*
D12*
X161000Y269000D01*
X159000Y271000D01*
D11*
X159000Y271000D03*
X290000Y241000D03*
D12*
X290000Y190000D01*
D11*
X290000Y190000D03*
X310000Y145000D03*
X570000Y259000D03*
X572000Y140000D03*
D12*
X570000Y156827D02*
X570000Y259000D01*
X570000Y156827D02*
X567587Y154414D01*
X567587Y144413D01*
X572000Y140000D01*
D11*
X107000Y177000D03*
X280000Y255000D03*
D12*
X280000Y183810D01*
D11*
X280000Y183810D03*
X135000Y190000D03*
D12*
X135000Y270000D01*
X136000Y271000D01*
D11*
X136000Y271000D03*
X399000Y148000D03*
X232000Y120000D03*
X186000Y119922D03*
X207000Y303000D03*
D12*
X191000Y303000D01*
X186000Y298000D01*
X186000Y119922D01*
D11*
X107000Y167000D03*
X275000Y255000D03*
D12*
X275000Y165413D01*
X272000Y162413D01*
D11*
X272000Y162413D03*
X239000Y93000D03*
X285000Y255000D03*
X290000Y100000D03*
D12*
X285000Y102827D02*
X285000Y255000D01*
X287827Y100000D02*
X290000Y100000D01*
X287827Y100000D02*
X285000Y102827D01*
D11*
X350000Y130000D03*
X557000Y235000D03*
D12*
X557000Y133000D01*
X560000Y130000D01*
D11*
X560000Y130000D03*
X291000Y148000D03*
X510000Y120000D03*
X262000Y321127D03*
D12*
X262301Y320826D01*
X262301Y106293D01*
X263594Y105000D01*
X264000Y105000D01*
D11*
X264000Y105000D03*
X70000Y84000D03*
X70000Y215000D03*
D12*
X70000Y84000D01*
D11*
X550000Y80000D03*
X60000Y80000D03*
D12*
X60000Y150000D01*
X63714Y153714D01*
X63714Y196286D01*
X60000Y200000D01*
D11*
X60000Y200000D03*
X564000Y74000D03*
X90000Y324540D03*
X323000Y324000D03*
X576000Y308000D03*
D12*
X576000Y352173D01*
X578413Y354586D01*
X578413Y381587D01*
X566000Y394000D01*
X323000Y377000D02*
X323000Y324000D01*
X323000Y377000D02*
X340000Y394000D01*
X566000Y394000D01*
D11*
X205413Y348587D03*
X200000Y349000D03*
X41000Y258500D03*
X214000Y240000D03*
X52000Y229000D03*
X90000Y320000D03*
X53736Y330080D03*
X51000Y290000D03*
X91000Y340000D03*
X30000Y310000D03*
X31000Y375000D03*
D12*
X31000Y311000D01*
X30000Y310000D01*
D11*
X413000Y372000D03*
X70000Y330000D03*
X77000Y65000D03*
D14*
X79302Y159218D02*
X79302Y226782D01*
X79302Y159218D02*
X77000Y156916D01*
X77000Y65000D01*
X70000Y236084D02*
X70000Y330000D01*
X70000Y236084D02*
X79302Y226782D01*
D11*
X380000Y10000D03*
X80000Y260000D03*
X325000Y251000D03*
D13*
X89000Y380000D03*
D11*
X253000Y380000D03*
X253000Y364000D03*
D14*
X253000Y380000D01*
D11*
X102000Y256000D03*
X268000Y255000D03*
X234872Y172000D03*
X310000Y91000D03*
X266000Y330000D03*
X269000Y106000D03*
D12*
X266000Y318827D02*
X266000Y330000D01*
X266000Y318827D02*
X264587Y317414D01*
X264587Y110413D01*
X269000Y106000D01*
D11*
X490000Y121000D03*
X250000Y344000D03*
X160000Y348000D03*
X244000Y351000D03*
X165000Y353000D03*
M02*
