G04 EAGLE Gerber RS-274X export*
G75*
%MOMM*%
%FSLAX34Y34*%
%LPD*%
%INSoldermask Top*%
%IPPOS*%
%AMOC8*
5,1,8,0,0,1.08239X$1,22.5*%
G01*
%ADD10C,0.838200*%
%ADD11R,1.403200X2.203200*%
%ADD12R,0.803200X1.553200*%
%ADD13R,1.203200X1.303200*%
%ADD14R,0.503200X1.203200*%
%ADD15R,0.803200X1.203200*%
%ADD16C,0.853200*%
%ADD17R,0.453200X0.813200*%
%ADD18R,0.453200X0.763200*%
%ADD19R,0.803200X1.903200*%
%ADD20R,1.203200X2.903200*%
%ADD21C,2.082800*%
%ADD22R,1.473200X0.838200*%
%ADD23R,1.403200X1.003200*%
%ADD24R,1.203200X3.003200*%
%ADD25R,0.503200X1.003200*%
%ADD26R,0.603200X1.003200*%

G36*
X254484Y39383D02*
X254484Y39383D01*
X254490Y39389D01*
X254495Y39385D01*
X255725Y39750D01*
X255730Y39757D01*
X255735Y39755D01*
X256854Y40385D01*
X256857Y40392D01*
X256863Y40391D01*
X257813Y41254D01*
X257814Y41262D01*
X257820Y41262D01*
X258554Y42315D01*
X258554Y42323D01*
X258559Y42325D01*
X259041Y43515D01*
X259039Y43520D01*
X259043Y43523D01*
X259042Y43524D01*
X259044Y43525D01*
X259249Y44792D01*
X259246Y44797D01*
X259249Y44800D01*
X259249Y56800D01*
X259246Y56804D01*
X259249Y56807D01*
X259094Y57929D01*
X259089Y57934D01*
X259092Y57938D01*
X258721Y59009D01*
X258715Y59013D01*
X258717Y59018D01*
X258144Y59995D01*
X258138Y59998D01*
X258139Y60003D01*
X257386Y60850D01*
X257379Y60852D01*
X257379Y60857D01*
X256476Y61541D01*
X256469Y61541D01*
X256468Y61546D01*
X255449Y62041D01*
X255442Y62039D01*
X255440Y62044D01*
X254343Y62331D01*
X254337Y62328D01*
X254334Y62332D01*
X253203Y62399D01*
X253197Y62399D01*
X252066Y62332D01*
X252061Y62327D01*
X252057Y62331D01*
X250960Y62044D01*
X250956Y62038D01*
X250951Y62041D01*
X249932Y61546D01*
X249929Y61540D01*
X249924Y61541D01*
X249021Y60857D01*
X249019Y60850D01*
X249014Y60850D01*
X248261Y60003D01*
X248261Y59996D01*
X248256Y59995D01*
X247683Y59018D01*
X247684Y59015D01*
X247683Y59014D01*
X247684Y59013D01*
X247684Y59011D01*
X247679Y59009D01*
X247308Y57938D01*
X247310Y57933D01*
X247307Y57931D01*
X247307Y57930D01*
X247306Y57929D01*
X247151Y56807D01*
X247154Y56802D01*
X247151Y56800D01*
X247151Y44800D01*
X247154Y44795D01*
X247151Y44792D01*
X247356Y43525D01*
X247362Y43519D01*
X247359Y43515D01*
X247841Y42325D01*
X247848Y42321D01*
X247846Y42315D01*
X248580Y41262D01*
X248588Y41260D01*
X248587Y41254D01*
X249537Y40391D01*
X249546Y40390D01*
X249546Y40385D01*
X250665Y39755D01*
X250673Y39756D01*
X250675Y39750D01*
X251905Y39385D01*
X251913Y39388D01*
X251916Y39383D01*
X253197Y39301D01*
X253201Y39304D01*
X253203Y39301D01*
X254484Y39383D01*
G37*
G36*
X168084Y39383D02*
X168084Y39383D01*
X168090Y39389D01*
X168095Y39385D01*
X169325Y39750D01*
X169330Y39757D01*
X169335Y39755D01*
X170454Y40385D01*
X170457Y40392D01*
X170463Y40391D01*
X171413Y41254D01*
X171414Y41262D01*
X171420Y41262D01*
X172154Y42315D01*
X172154Y42323D01*
X172159Y42325D01*
X172641Y43515D01*
X172639Y43520D01*
X172643Y43523D01*
X172642Y43524D01*
X172644Y43525D01*
X172849Y44792D01*
X172846Y44797D01*
X172849Y44800D01*
X172849Y56800D01*
X172846Y56804D01*
X172849Y56807D01*
X172694Y57929D01*
X172689Y57934D01*
X172692Y57938D01*
X172321Y59009D01*
X172315Y59013D01*
X172317Y59018D01*
X171744Y59995D01*
X171738Y59998D01*
X171739Y60003D01*
X170986Y60850D01*
X170979Y60852D01*
X170979Y60857D01*
X170076Y61541D01*
X170069Y61541D01*
X170068Y61546D01*
X169049Y62041D01*
X169042Y62039D01*
X169040Y62044D01*
X167943Y62331D01*
X167937Y62328D01*
X167934Y62332D01*
X166803Y62399D01*
X166797Y62399D01*
X165666Y62332D01*
X165661Y62327D01*
X165657Y62331D01*
X164560Y62044D01*
X164556Y62038D01*
X164551Y62041D01*
X163532Y61546D01*
X163529Y61540D01*
X163524Y61541D01*
X162621Y60857D01*
X162619Y60850D01*
X162614Y60850D01*
X161861Y60003D01*
X161861Y59996D01*
X161856Y59995D01*
X161283Y59018D01*
X161284Y59015D01*
X161283Y59014D01*
X161284Y59013D01*
X161284Y59011D01*
X161279Y59009D01*
X160908Y57938D01*
X160910Y57933D01*
X160907Y57931D01*
X160907Y57930D01*
X160906Y57929D01*
X160751Y56807D01*
X160754Y56802D01*
X160751Y56800D01*
X160751Y44800D01*
X160754Y44795D01*
X160751Y44792D01*
X160956Y43525D01*
X160962Y43519D01*
X160959Y43515D01*
X161441Y42325D01*
X161448Y42321D01*
X161446Y42315D01*
X162180Y41262D01*
X162188Y41260D01*
X162187Y41254D01*
X163137Y40391D01*
X163146Y40390D01*
X163146Y40385D01*
X164265Y39755D01*
X164273Y39756D01*
X164275Y39750D01*
X165505Y39385D01*
X165513Y39388D01*
X165516Y39383D01*
X166797Y39301D01*
X166801Y39304D01*
X166803Y39301D01*
X168084Y39383D01*
G37*
G36*
X167971Y111D02*
X167971Y111D01*
X167976Y116D01*
X167980Y113D01*
X169103Y448D01*
X169107Y454D01*
X169111Y452D01*
X170147Y1000D01*
X170150Y1006D01*
X170155Y1005D01*
X171063Y1744D01*
X171065Y1751D01*
X171070Y1751D01*
X171817Y2653D01*
X171817Y2661D01*
X171823Y2661D01*
X172379Y3692D01*
X172378Y3699D01*
X172383Y3701D01*
X172727Y4820D01*
X172725Y4827D01*
X172729Y4830D01*
X172849Y5995D01*
X172847Y5998D01*
X172849Y6000D01*
X172849Y12000D01*
X172847Y12003D01*
X172849Y12005D01*
X172738Y13181D01*
X172733Y13186D01*
X172736Y13190D01*
X172398Y14322D01*
X172392Y14326D01*
X172394Y14331D01*
X171842Y15375D01*
X171835Y15378D01*
X171837Y15383D01*
X171091Y16299D01*
X171084Y16300D01*
X171084Y16306D01*
X170175Y17059D01*
X170167Y17059D01*
X170167Y17064D01*
X169127Y17625D01*
X169120Y17624D01*
X169118Y17629D01*
X167989Y17976D01*
X167983Y17974D01*
X167980Y17978D01*
X166805Y18099D01*
X166798Y18095D01*
X166794Y18099D01*
X165454Y17942D01*
X165448Y17937D01*
X165443Y17940D01*
X164172Y17489D01*
X164167Y17482D01*
X164162Y17484D01*
X163023Y16762D01*
X163020Y16754D01*
X163014Y16755D01*
X162064Y15797D01*
X162063Y15789D01*
X162057Y15788D01*
X161344Y14643D01*
X161345Y14635D01*
X161339Y14633D01*
X160899Y13357D01*
X160901Y13350D01*
X160897Y13347D01*
X160751Y12005D01*
X160753Y12002D01*
X160751Y12000D01*
X160751Y6000D01*
X160753Y5997D01*
X160751Y5994D01*
X160906Y4665D01*
X160912Y4659D01*
X160909Y4655D01*
X161356Y3394D01*
X161363Y3389D01*
X161361Y3384D01*
X162078Y2254D01*
X162085Y2251D01*
X162084Y2245D01*
X163035Y1303D01*
X163043Y1302D01*
X163043Y1296D01*
X164179Y589D01*
X164187Y590D01*
X164189Y584D01*
X165454Y148D01*
X165459Y149D01*
X165460Y148D01*
X165463Y148D01*
X165465Y145D01*
X166795Y1D01*
X166801Y5D01*
X166805Y1D01*
X167971Y111D01*
G37*
G36*
X254371Y111D02*
X254371Y111D01*
X254376Y116D01*
X254380Y113D01*
X255503Y448D01*
X255507Y454D01*
X255511Y452D01*
X256547Y1000D01*
X256550Y1006D01*
X256555Y1005D01*
X257463Y1744D01*
X257465Y1751D01*
X257470Y1751D01*
X258217Y2653D01*
X258217Y2661D01*
X258223Y2661D01*
X258779Y3692D01*
X258778Y3699D01*
X258783Y3701D01*
X259127Y4820D01*
X259125Y4827D01*
X259129Y4830D01*
X259249Y5995D01*
X259247Y5998D01*
X259249Y6000D01*
X259249Y12000D01*
X259247Y12003D01*
X259249Y12005D01*
X259138Y13181D01*
X259133Y13186D01*
X259136Y13190D01*
X258798Y14322D01*
X258792Y14326D01*
X258794Y14331D01*
X258242Y15375D01*
X258235Y15378D01*
X258237Y15383D01*
X257491Y16299D01*
X257484Y16300D01*
X257484Y16306D01*
X256575Y17059D01*
X256567Y17059D01*
X256567Y17064D01*
X255527Y17625D01*
X255520Y17624D01*
X255518Y17629D01*
X254389Y17976D01*
X254383Y17974D01*
X254380Y17978D01*
X253205Y18099D01*
X253198Y18095D01*
X253194Y18099D01*
X251854Y17942D01*
X251848Y17937D01*
X251843Y17940D01*
X250572Y17489D01*
X250567Y17482D01*
X250562Y17484D01*
X249423Y16762D01*
X249420Y16754D01*
X249414Y16755D01*
X248464Y15797D01*
X248463Y15789D01*
X248457Y15788D01*
X247744Y14643D01*
X247745Y14635D01*
X247739Y14633D01*
X247299Y13357D01*
X247301Y13350D01*
X247297Y13347D01*
X247151Y12005D01*
X247153Y12002D01*
X247151Y12000D01*
X247151Y6000D01*
X247153Y5997D01*
X247151Y5994D01*
X247306Y4665D01*
X247312Y4659D01*
X247309Y4655D01*
X247756Y3394D01*
X247763Y3389D01*
X247761Y3384D01*
X248478Y2254D01*
X248485Y2251D01*
X248484Y2245D01*
X249435Y1303D01*
X249443Y1302D01*
X249443Y1296D01*
X250579Y589D01*
X250587Y590D01*
X250589Y584D01*
X251854Y148D01*
X251859Y149D01*
X251860Y148D01*
X251863Y148D01*
X251865Y145D01*
X253195Y1D01*
X253201Y5D01*
X253205Y1D01*
X254371Y111D01*
G37*
G36*
X163859Y85472D02*
X163859Y85472D01*
X163925Y85474D01*
X163968Y85492D01*
X164015Y85500D01*
X164072Y85534D01*
X164132Y85559D01*
X164167Y85590D01*
X164208Y85615D01*
X164250Y85666D01*
X164298Y85710D01*
X164320Y85752D01*
X164349Y85789D01*
X164370Y85851D01*
X164401Y85910D01*
X164409Y85964D01*
X164421Y86001D01*
X164420Y86041D01*
X164428Y86095D01*
X164428Y89905D01*
X164417Y89970D01*
X164415Y90036D01*
X164397Y90079D01*
X164389Y90126D01*
X164355Y90183D01*
X164330Y90243D01*
X164299Y90278D01*
X164274Y90319D01*
X164223Y90361D01*
X164179Y90409D01*
X164137Y90431D01*
X164100Y90460D01*
X164038Y90481D01*
X163979Y90512D01*
X163925Y90520D01*
X163888Y90532D01*
X163848Y90531D01*
X163794Y90539D01*
X158206Y90539D01*
X158141Y90528D01*
X158075Y90526D01*
X158032Y90508D01*
X157985Y90500D01*
X157928Y90466D01*
X157868Y90441D01*
X157833Y90410D01*
X157792Y90385D01*
X157751Y90334D01*
X157702Y90290D01*
X157680Y90248D01*
X157651Y90211D01*
X157630Y90149D01*
X157599Y90090D01*
X157591Y90036D01*
X157579Y89999D01*
X157579Y89995D01*
X157579Y89994D01*
X157580Y89959D01*
X157572Y89905D01*
X157572Y86095D01*
X157583Y86030D01*
X157585Y85964D01*
X157603Y85921D01*
X157611Y85874D01*
X157645Y85817D01*
X157670Y85757D01*
X157701Y85722D01*
X157726Y85681D01*
X157777Y85640D01*
X157821Y85591D01*
X157863Y85569D01*
X157900Y85540D01*
X157962Y85519D01*
X158021Y85488D01*
X158075Y85480D01*
X158112Y85468D01*
X158152Y85469D01*
X158206Y85461D01*
X163794Y85461D01*
X163859Y85472D01*
G37*
D10*
X530000Y10000D03*
X10000Y190000D03*
D11*
X302000Y11250D03*
X358000Y11250D03*
D12*
X315000Y48000D03*
X325000Y48000D03*
X335000Y48000D03*
X345000Y48000D03*
D13*
X230000Y108500D03*
X230000Y91500D03*
X190000Y108500D03*
X190000Y91500D03*
D14*
X217500Y56600D03*
X212500Y56600D03*
D15*
X242250Y56600D03*
X234500Y56600D03*
D14*
X227500Y56600D03*
X222500Y56600D03*
X202500Y56600D03*
X207500Y56600D03*
D15*
X177750Y56600D03*
X185500Y56600D03*
D14*
X192500Y56600D03*
X197500Y56600D03*
D16*
X181100Y45550D03*
X238900Y45550D03*
D17*
X205000Y105950D03*
D18*
X210000Y105700D03*
X215000Y105700D03*
X215000Y114300D03*
X210000Y114300D03*
X205000Y114300D03*
D19*
X61250Y47000D03*
D20*
X117250Y15000D03*
X42750Y15000D03*
D19*
X73750Y47000D03*
X86250Y47000D03*
X98750Y47000D03*
X441250Y47000D03*
D20*
X497250Y15000D03*
X422750Y15000D03*
D19*
X453750Y47000D03*
X466250Y47000D03*
X478750Y47000D03*
D21*
X120000Y70000D03*
X94600Y70000D03*
X69200Y70000D03*
X43800Y70000D03*
X500000Y70000D03*
X474600Y70000D03*
X449200Y70000D03*
X423800Y70000D03*
D22*
X161000Y82920D03*
X161000Y93080D03*
D21*
X161000Y75300D03*
X161000Y100700D03*
D23*
X30000Y101000D03*
X30000Y119000D03*
D24*
X395000Y130000D03*
X425000Y130000D03*
D25*
X477500Y156500D03*
X472500Y156500D03*
D26*
X487500Y181500D03*
X412500Y181500D03*
D25*
X467500Y156500D03*
X462500Y156500D03*
X457500Y156500D03*
X452500Y156500D03*
X447500Y156500D03*
X442500Y156500D03*
X437500Y156500D03*
X432500Y156500D03*
X427500Y156500D03*
X422500Y156500D03*
X387500Y156500D03*
X382500Y156500D03*
D26*
X397500Y181500D03*
X322500Y181500D03*
D25*
X377500Y156500D03*
X372500Y156500D03*
X367500Y156500D03*
X362500Y156500D03*
X357500Y156500D03*
X352500Y156500D03*
X347500Y156500D03*
X342500Y156500D03*
X337500Y156500D03*
X332500Y156500D03*
M02*
