M48
;GenerationSoftware,Autodesk,EAGLE,9.6.2*%
;CreationDate,2021-02-16T20:42:46Z*%
FMAT,2
ICI,OFF
METRIC,TZ,000.000
T3C0.200
T2C0.305
T1C1.016
%
G90
M71
T1
X31240Y38400
X28000Y7000
X30540Y7000
X38270Y10000
X35730Y10000
X4000Y12000
X4000Y14540
X4000Y17080
X4000Y19620
X28700Y38400
T2
X6100Y38100
X8900Y38000
T3
X9000Y33000
X31000Y33300
X21744Y36444
X15000Y9500
X20800Y10000
X40300Y36700
X9000Y31000
X9000Y29500
X16000Y30000
X17000Y30000
X17000Y31000
X16000Y31000
X12900Y33800
X12900Y34600
X9300Y36400
X12000Y39400
X20100Y38500
X24000Y37500
X27000Y34000
X25800Y31800
X28700Y30000
X28600Y27600
X28600Y26700
X22200Y27200
X8000Y29000
X3500Y35300
X5300Y34600
X6900Y7500
X10100Y7600
X24000Y8000
X26400Y8000
X29000Y11300
X30000Y16000
X32000Y16000
X33000Y11500
X37000Y14800
X38800Y14800
X42000Y12000
X44000Y12000
X47000Y12000
X49200Y9400
X52000Y12000
X49000Y5000
X43000Y5000
X38000Y6000
X34200Y1000
X15000Y13000
X15000Y14000
X17000Y14000
X17000Y13000
X19400Y14000
X19400Y17100
X18000Y17200
X16000Y17200
X15000Y17200
X30000Y23900
X32000Y32000
X47800Y37000
X47500Y36500
X48600Y35500
X49100Y35100
X51000Y35100
X51500Y35600
X52200Y37000
X52200Y36300
X52200Y37800
X49000Y33600
X51100Y33600
X52000Y33600
X53000Y33600
X54000Y33600
X55000Y33600
X55000Y32300
X47000Y33600
X45200Y33600
X43500Y33600
X42000Y33600
X40200Y33600
X38700Y33600
X37000Y33600
X35700Y33600
X34000Y33600
X32700Y33600
X32800Y32400
X32900Y31500
X32900Y30400
X32900Y29300
X32900Y28500
X33000Y17700
X33200Y16700
X34500Y16400
X36000Y16400
X37000Y16300
X38000Y16300
X39000Y16300
X40000Y16300
X41000Y16300
X44900Y16400
X46500Y16400
X51100Y16400
X52000Y16500
X53000Y16500
X54000Y16500
X55000Y16500
X55000Y17400
X50300Y19800
X48200Y19800
X46100Y19800
X44000Y19800
X41900Y19800
X39800Y19800
X37700Y19800
X35500Y19800
X52500Y19800
X50300Y30700
X48200Y30700
X46100Y30700
X44000Y30700
X41900Y30700
X39800Y30700
X37700Y30700
X35500Y30700
X52500Y30700
X50300Y29800
X48200Y29800
X46100Y29800
X44000Y29800
X41900Y29800
X39800Y29800
X37700Y29800
X35500Y29800
X52500Y29800
X50300Y28800
X48200Y28800
X46100Y28800
X44000Y28800
X41900Y28800
X39800Y28800
X37700Y28800
X35500Y28800
X52500Y28800
X50300Y27800
X48200Y27800
X46100Y27800
X44000Y27800
X41900Y27800
X39800Y27800
X37700Y27800
X35500Y27800
X52500Y27800
X50300Y26800
X48200Y26800
X46100Y26800
X44000Y26800
X41900Y26800
X39800Y26800
X37700Y26800
X35500Y26800
X52500Y26800
X50300Y25800
X48200Y25800
X46100Y25800
X44000Y25800
X41900Y25800
X39800Y25800
X37700Y25800
X35500Y25800
X52500Y25800
X50300Y24800
X48200Y24800
X46100Y24800
X44000Y24800
X41900Y24800
X39800Y24800
X37700Y24800
X35500Y24800
X52500Y24800
X50300Y23800
X48200Y23800
X46100Y23800
X44000Y23800
X41900Y23800
X39800Y23800
X37700Y23800
X35500Y23800
X52500Y23800
X50300Y22800
X48200Y22800
X46100Y22800
X44000Y22800
X41900Y22800
X39800Y22800
X37700Y22800
X35500Y22800
X52500Y22800
X50300Y21800
X48200Y21800
X46100Y21800
X44000Y21800
X41900Y21800
X39800Y21800
X37700Y21800
X35500Y21800
X52500Y21800
X50300Y20800
X48200Y20800
X46100Y20800
X44000Y20800
X41900Y20800
X39800Y20800
X37700Y20800
X35500Y20800
X52500Y20800
X50300Y18800
X48200Y18800
X46100Y18800
X44000Y18800
X41900Y18800
X39800Y18800
X37700Y18800
X35500Y18800
X52500Y18800
X50300Y31300
X48200Y31300
X46100Y31300
X44000Y31300
X41900Y31300
X39800Y31300
X37700Y31300
X35500Y31300
X52500Y31300
X34500Y17400
X36000Y17400
X52000Y17500
X53000Y17500
X54000Y17500
X35500Y32800
X34500Y32800
X33500Y32800
X52500Y32800
X53500Y32800
X54500Y32800
X46500Y37600
X45000Y37600
X43200Y37600
X45000Y35600
X45500Y36600
X44000Y36600
X43500Y35600
X42500Y34600
X41000Y34600
X46500Y35600
X56500Y34600
X55000Y34600
X53200Y34600
X51700Y34600
X57500Y37600
X56000Y37600
X54200Y37600
X52700Y37600
X56000Y35600
X56500Y36600
X55000Y36600
X53200Y36600
X54500Y35600
X53000Y35600
X57500Y35600
X39000Y11800
X36000Y4000
X35000Y4000
X37000Y4000
X34000Y4000
X34000Y3000
X34000Y2400
X47800Y37700
X47800Y38400
X48500Y38400
X49100Y38400
X51000Y38400
X51600Y38500
X52400Y38400
X13500Y31500
X10100Y10200
X9900Y28400
X10100Y15600
X56200Y24100
X56100Y15641
X40300Y15641
X15200Y35900
X24400Y36300
X17900Y36300
X18000Y27000
X12900Y14000
X12900Y27100
X57100Y15300
X40900Y15259
X22000Y37100
X22300Y34800
X12900Y10500
X37200Y37541
X16500Y27000
X21200Y29500
X22000Y38400
X57000Y30200
X36571Y38759
X29200Y24800
X26000Y39341
X29700Y25600
X27000Y39000
X27400Y26600
X27000Y2000
X19000Y27000
X5600Y12000
X24400Y34000
X20500Y34000
X23000Y30000
X20700Y29846
X20800Y21000
X23600Y16100
X7500Y16100
X7500Y22500
X24200Y10100
X22100Y20900
X23400Y20300
X16100Y20800
X15900Y27100
X29000Y24100
X29000Y19000
X31000Y14500
X57000Y25900
X57200Y14000
X10700Y17700
X28000Y25500
X28000Y18381
X13500Y19000
X13600Y27100
X39900Y14800
X23200Y12000
X18600Y11992
X20700Y30300
X10700Y16700
X27500Y25500
X27200Y16241
X23900Y9300
X28500Y25500
X29000Y10000
X35000Y13000
X55700Y23500
X56000Y13000
X29100Y14800
X51000Y12000
X37250Y36550
X26400Y10500
X7000Y8400
X7000Y21500
X55000Y8000
X6000Y8000
X6000Y20000
X56400Y7400
X9000Y32454
X32300Y32400
X57600Y30800
X20541Y34859
X20000Y34900
X4100Y25850
X21400Y24000
X5200Y22900
X9000Y32000
X5374Y33008
X5100Y29000
X9100Y34000
X3000Y31000
X3100Y37500
X41300Y37200
X7000Y33000
X7700Y6500
X38000Y1000
X8000Y26000
X32500Y25100
X20700Y31000
X25300Y38000
X25300Y36400
X10200Y25600
X26800Y25500
X23487Y17200
X31000Y9100
X26600Y33000
X26900Y10600
X49000Y12100
X25000Y34400
X16000Y34800
X24400Y35100
X16500Y35300
X15500Y34628
X19200Y34500
X13500Y31000
X42000Y16100
X44000Y16000
X47000Y16000
X19600Y19000
X23100Y28200
X22700Y24000
X26200Y32113
M30