G04 EAGLE Gerber RS-274X export*
G75*
%MOMM*%
%FSLAX34Y34*%
%LPD*%
%INSoldermask Bottom*%
%IPPOS*%
%AMOC8*
5,1,8,0,0,1.08239X$1,22.5*%
G01*
%ADD10C,1.003200*%
%ADD11R,1.403200X1.003200*%
%ADD12R,1.203200X1.303200*%
%ADD13R,2.003200X1.803200*%
%ADD14C,1.203200*%
%ADD15R,1.303200X1.203200*%
%ADD16R,1.703200X1.803200*%
%ADD17C,2.503200*%
%ADD18R,0.503200X1.003200*%
%ADD19R,0.603200X1.003200*%
%ADD20R,0.453200X0.478200*%
%ADD21R,0.478200X0.453200*%
%ADD22R,1.727200X0.965200*%
%ADD23R,0.903200X1.803200*%
%ADD24R,1.403200X2.403200*%
%ADD25R,1.803200X1.603200*%
%ADD26R,1.403200X1.803200*%
%ADD27R,0.803200X2.203200*%
%ADD28C,2.082800*%


D10*
X318850Y63000D03*
X151350Y63000D03*
D11*
X365100Y59000D03*
X365100Y41000D03*
X175100Y119000D03*
X175100Y101000D03*
X175100Y61000D03*
X175100Y79000D03*
D12*
X285100Y68500D03*
X285100Y51500D03*
D13*
X335100Y64000D03*
X335100Y36000D03*
D12*
X305100Y51500D03*
X305100Y68500D03*
X180100Y28500D03*
X180100Y11500D03*
X290100Y171500D03*
X290100Y188500D03*
X330100Y171500D03*
X330100Y188500D03*
X310100Y188500D03*
X310100Y171500D03*
D14*
X100Y210000D03*
X470100Y10000D03*
D12*
X95100Y181500D03*
X95100Y198500D03*
D15*
X43600Y160000D03*
X26600Y160000D03*
D16*
X53100Y190000D03*
X17100Y190000D03*
D17*
X35100Y190000D03*
D12*
X75100Y181500D03*
X75100Y198500D03*
D18*
X117600Y176500D03*
X122600Y176500D03*
D19*
X107600Y201500D03*
X182600Y201500D03*
D18*
X127600Y176500D03*
X132600Y176500D03*
X137600Y176500D03*
X142600Y176500D03*
X147600Y176500D03*
X152600Y176500D03*
X157600Y176500D03*
X162600Y176500D03*
X167600Y176500D03*
X172600Y176500D03*
D20*
X417600Y122500D03*
X412600Y122500D03*
X412600Y137500D03*
X417600Y137500D03*
D21*
X422600Y137500D03*
X422600Y132500D03*
X422600Y122500D03*
X422600Y127500D03*
X407600Y122500D03*
X407600Y127500D03*
X407600Y132500D03*
X407600Y137500D03*
D12*
X445100Y121500D03*
X445100Y138500D03*
X385100Y121500D03*
X385100Y138500D03*
D22*
X387160Y170950D03*
X443040Y170950D03*
X387160Y209050D03*
X443040Y209050D03*
D23*
X84600Y145000D03*
X73600Y145000D03*
X62600Y145000D03*
X95600Y145000D03*
X106600Y145000D03*
X117600Y145000D03*
X128600Y145000D03*
X139600Y145000D03*
X150600Y145000D03*
D14*
X54600Y40000D03*
X134600Y40000D03*
D24*
X7600Y44000D03*
X162600Y44000D03*
D25*
X16600Y140000D03*
D26*
X162600Y139000D03*
D27*
X210100Y13800D03*
X220100Y13800D03*
X230100Y13800D03*
X240100Y13800D03*
X250100Y13800D03*
X260100Y13800D03*
D28*
X469900Y38100D03*
X469900Y63500D03*
X469900Y88900D03*
X469900Y114300D03*
M02*
