G04 EAGLE Gerber RS-274X export*
G75*
%MOMM*%
%FSLAX34Y34*%
%LPD*%
%INSolderpaste Bottom*%
%IPPOS*%
%AMOC8*
5,1,8,0,0,1.08239X$1,22.5*%
G01*
%ADD10R,1.200000X0.800000*%
%ADD11R,1.000000X1.100000*%
%ADD12R,1.800000X1.600000*%
%ADD13R,1.100000X1.000000*%
%ADD14R,1.500000X1.600000*%
%ADD15R,0.400000X0.800000*%
%ADD16R,0.250000X0.650000*%
%ADD17R,0.250000X0.275000*%
%ADD18R,0.275000X0.250000*%
%ADD19R,1.524000X0.762000*%
%ADD20R,0.700000X1.600000*%
%ADD21R,1.200000X2.200000*%
%ADD22R,1.600000X1.400000*%
%ADD23R,1.200000X1.600000*%
%ADD24R,0.600000X2.000000*%


D10*
X365100Y59000D03*
X365100Y41000D03*
X175100Y119000D03*
X175100Y101000D03*
X175100Y61000D03*
X175100Y79000D03*
D11*
X285100Y68500D03*
X285100Y51500D03*
D12*
X335100Y64000D03*
X335100Y36000D03*
D11*
X305100Y51500D03*
X305100Y68500D03*
X180100Y28500D03*
X180100Y11500D03*
X290100Y171500D03*
X290100Y188500D03*
X330100Y171500D03*
X330100Y188500D03*
X310100Y188500D03*
X310100Y171500D03*
X95100Y181500D03*
X95100Y198500D03*
D13*
X43600Y160000D03*
X26600Y160000D03*
D14*
X53100Y190000D03*
X17100Y190000D03*
D11*
X75100Y181500D03*
X75100Y198500D03*
D15*
X107600Y201500D03*
D16*
X117600Y176500D03*
X122600Y176500D03*
D15*
X182600Y201500D03*
D16*
X127600Y176500D03*
X132600Y176500D03*
X137600Y176500D03*
X142600Y176500D03*
X147600Y176500D03*
X152600Y176500D03*
X157600Y176500D03*
X162600Y176500D03*
X167600Y176500D03*
X172600Y176500D03*
D17*
X417600Y122500D03*
X412600Y122500D03*
X412600Y137500D03*
X417600Y137500D03*
D18*
X422600Y137500D03*
X422600Y132500D03*
X422600Y122500D03*
X422600Y127500D03*
X407600Y122500D03*
X407600Y127500D03*
X407600Y132500D03*
X407600Y137500D03*
D11*
X445100Y121500D03*
X445100Y138500D03*
X385100Y121500D03*
X385100Y138500D03*
D19*
X387160Y170950D03*
X443040Y170950D03*
X387160Y209050D03*
X443040Y209050D03*
D20*
X84600Y145000D03*
X73600Y145000D03*
X62600Y145000D03*
X95600Y145000D03*
X106600Y145000D03*
X117600Y145000D03*
X128600Y145000D03*
X139600Y145000D03*
X150600Y145000D03*
D21*
X7600Y44000D03*
X162600Y44000D03*
D22*
X16600Y140000D03*
D23*
X162600Y139000D03*
D24*
X210100Y13800D03*
X220100Y13800D03*
X230100Y13800D03*
X240100Y13800D03*
X250100Y13800D03*
X260100Y13800D03*
M02*
