G04 EAGLE Gerber RS-274X export*
G75*
%MOMM*%
%FSLAX34Y34*%
%LPD*%
%INSilkscreen Bottom*%
%IPPOS*%
%AMOC8*
5,1,8,0,0,1.08239X$1,22.5*%
G01*

G36*
X437805Y162354D02*
X437805Y162354D01*
X437808Y162351D01*
X438408Y162451D01*
X438412Y162456D01*
X438416Y162453D01*
X439016Y162653D01*
X439019Y162658D01*
X439022Y162656D01*
X439822Y163056D01*
X439829Y163069D01*
X439838Y163069D01*
X440238Y163569D01*
X440239Y163592D01*
X440249Y163600D01*
X440249Y164100D01*
X440240Y164113D01*
X440244Y164122D01*
X439944Y164722D01*
X439928Y164730D01*
X439927Y164741D01*
X439327Y165141D01*
X439296Y165139D01*
X439284Y165147D01*
X438684Y164947D01*
X438681Y164942D01*
X438678Y164944D01*
X438081Y164646D01*
X437499Y164452D01*
X436831Y164642D01*
X436447Y165218D01*
X436349Y165804D01*
X436349Y166098D01*
X436769Y165762D01*
X436782Y165761D01*
X436784Y165753D01*
X437384Y165553D01*
X437391Y165555D01*
X437393Y165551D01*
X438093Y165451D01*
X438097Y165454D01*
X438108Y165454D01*
X438112Y165456D01*
X438116Y165453D01*
X438716Y165653D01*
X438719Y165658D01*
X438722Y165656D01*
X439322Y165956D01*
X439326Y165964D01*
X439332Y165962D01*
X439932Y166462D01*
X439933Y166469D01*
X439938Y166469D01*
X440338Y166969D01*
X440339Y166977D01*
X440344Y166978D01*
X440644Y167578D01*
X440643Y167583D01*
X440647Y167584D01*
X440847Y168184D01*
X440845Y168191D01*
X440849Y168193D01*
X440949Y168893D01*
X440944Y168902D01*
X440949Y168907D01*
X440849Y169607D01*
X440844Y169612D01*
X440847Y169616D01*
X440647Y170216D01*
X440639Y170221D01*
X440641Y170227D01*
X440241Y170827D01*
X440238Y170828D01*
X440238Y170831D01*
X439838Y171331D01*
X439831Y171333D01*
X439832Y171338D01*
X439232Y171838D01*
X439218Y171838D01*
X439216Y171847D01*
X438016Y172247D01*
X438000Y172242D01*
X437993Y172249D01*
X437293Y172149D01*
X437285Y172141D01*
X437278Y172144D01*
X436683Y171846D01*
X436315Y171755D01*
X435935Y172135D01*
X435912Y172138D01*
X435906Y172149D01*
X435106Y172249D01*
X435097Y172244D01*
X435092Y172249D01*
X434492Y172149D01*
X434475Y172130D01*
X434462Y172131D01*
X434062Y171631D01*
X434061Y171624D01*
X434060Y171623D01*
X434061Y171622D01*
X434061Y171608D01*
X434051Y171600D01*
X434051Y165500D01*
X434054Y165496D01*
X434051Y165493D01*
X434151Y164793D01*
X434156Y164788D01*
X434153Y164784D01*
X434353Y164184D01*
X434361Y164179D01*
X434359Y164173D01*
X434759Y163573D01*
X434769Y163569D01*
X434769Y163562D01*
X435769Y162762D01*
X435777Y162761D01*
X435778Y162756D01*
X436378Y162456D01*
X436389Y162458D01*
X436393Y162451D01*
X437093Y162351D01*
X437098Y162354D01*
X437100Y162351D01*
X437800Y162351D01*
X437805Y162354D01*
G37*
G36*
X471909Y165258D02*
X471909Y165258D01*
X471916Y165253D01*
X473116Y165653D01*
X473117Y165656D01*
X473119Y165655D01*
X473819Y165955D01*
X473824Y165963D01*
X473831Y165962D01*
X474331Y166362D01*
X474332Y166366D01*
X474335Y166365D01*
X474835Y166865D01*
X474835Y166869D01*
X474838Y166869D01*
X475638Y167869D01*
X475639Y167883D01*
X475647Y167886D01*
X475678Y167995D01*
X475679Y167995D01*
X475678Y167995D01*
X475721Y168143D01*
X475735Y168192D01*
X475777Y168340D01*
X475819Y168488D01*
X475833Y168537D01*
X475847Y168585D01*
X476047Y169184D01*
X476045Y169191D01*
X476049Y169193D01*
X476149Y169893D01*
X476146Y169898D01*
X476149Y169900D01*
X476149Y170600D01*
X476146Y170604D01*
X476149Y170607D01*
X476049Y171307D01*
X476044Y171312D01*
X476047Y171316D01*
X475847Y171916D01*
X475842Y171919D01*
X475844Y171922D01*
X475544Y172522D01*
X475540Y172524D01*
X475541Y172527D01*
X475141Y173127D01*
X475138Y173128D01*
X475138Y173131D01*
X474738Y173631D01*
X474731Y173633D01*
X474731Y173638D01*
X474231Y174038D01*
X474227Y174039D01*
X474227Y174041D01*
X473627Y174441D01*
X473623Y174441D01*
X473622Y174444D01*
X473022Y174744D01*
X473015Y174743D01*
X473014Y174747D01*
X472314Y174947D01*
X472310Y174946D01*
X472308Y174949D01*
X471708Y175049D01*
X471703Y175046D01*
X471700Y175049D01*
X471000Y175049D01*
X470995Y175046D01*
X470992Y175049D01*
X470392Y174949D01*
X469693Y174849D01*
X469686Y174842D01*
X469681Y174845D01*
X468981Y174545D01*
X468978Y174541D01*
X468975Y174542D01*
X468475Y174242D01*
X468471Y174234D01*
X468465Y174235D01*
X467965Y173735D01*
X467962Y173714D01*
X467951Y173708D01*
X467851Y173108D01*
X467863Y173085D01*
X467859Y173073D01*
X468259Y172473D01*
X468269Y172469D01*
X468268Y172462D01*
X468868Y171962D01*
X468892Y171961D01*
X468900Y171951D01*
X469300Y171951D01*
X469316Y171963D01*
X469327Y171959D01*
X469922Y172355D01*
X470511Y172552D01*
X471299Y172650D01*
X471885Y172553D01*
X472478Y172256D01*
X473066Y171962D01*
X473455Y171378D01*
X473652Y170789D01*
X473750Y170100D01*
X473652Y169411D01*
X473457Y168827D01*
X472967Y168337D01*
X472474Y167943D01*
X471790Y167649D01*
X470512Y167649D01*
X469923Y167944D01*
X469224Y168343D01*
X469199Y168339D01*
X469188Y168348D01*
X468788Y168248D01*
X468776Y168233D01*
X468765Y168235D01*
X468265Y167735D01*
X468263Y167722D01*
X468255Y167719D01*
X467955Y167019D01*
X467959Y167000D01*
X467951Y166992D01*
X468051Y166392D01*
X468072Y166373D01*
X468073Y166359D01*
X468671Y165960D01*
X469070Y165661D01*
X469084Y165661D01*
X469088Y165652D01*
X469888Y165452D01*
X470586Y165253D01*
X470596Y165256D01*
X470600Y165251D01*
X471900Y165251D01*
X471909Y165258D01*
G37*
G36*
X451611Y165259D02*
X451611Y165259D01*
X451618Y165254D01*
X452118Y165454D01*
X452130Y165473D01*
X452142Y165475D01*
X452410Y165921D01*
X452865Y165465D01*
X452881Y165463D01*
X452884Y165453D01*
X453484Y165253D01*
X453495Y165257D01*
X453500Y165251D01*
X454200Y165251D01*
X454205Y165254D01*
X454208Y165251D01*
X454808Y165351D01*
X454815Y165359D01*
X454822Y165356D01*
X455422Y165656D01*
X455426Y165664D01*
X455432Y165662D01*
X456032Y166162D01*
X456033Y166169D01*
X456038Y166169D01*
X456438Y166669D01*
X456439Y166673D01*
X456441Y166673D01*
X456841Y167273D01*
X456840Y167282D01*
X456847Y167284D01*
X457047Y167884D01*
X457044Y167894D01*
X457047Y167897D01*
X457047Y167898D01*
X457049Y167900D01*
X457049Y169300D01*
X457042Y169309D01*
X457047Y169316D01*
X456847Y169916D01*
X456842Y169919D01*
X456844Y169922D01*
X456544Y170522D01*
X456540Y170524D01*
X456541Y170527D01*
X456141Y171127D01*
X456134Y171130D01*
X456135Y171135D01*
X455635Y171635D01*
X455623Y171636D01*
X455622Y171644D01*
X455022Y171944D01*
X455017Y171943D01*
X455016Y171947D01*
X454416Y172147D01*
X454411Y172145D01*
X454411Y172146D01*
X454403Y172146D01*
X454400Y172149D01*
X453700Y172149D01*
X453695Y172146D01*
X453689Y172146D01*
X453686Y172147D01*
X452986Y171947D01*
X452978Y171936D01*
X452969Y171938D01*
X452469Y171538D01*
X452468Y171534D01*
X452465Y171535D01*
X452418Y171488D01*
X452246Y171918D01*
X452218Y171935D01*
X452214Y171947D01*
X451514Y172147D01*
X451509Y172146D01*
X451503Y172146D01*
X451500Y172149D01*
X450800Y172149D01*
X450782Y172135D01*
X450769Y172138D01*
X450269Y171738D01*
X450265Y171723D01*
X450257Y171717D01*
X450253Y171716D01*
X450053Y171116D01*
X450057Y171105D01*
X450051Y171100D01*
X450051Y166300D01*
X450057Y166292D01*
X450053Y166286D01*
X450253Y165586D01*
X450270Y165573D01*
X450270Y165561D01*
X450670Y165261D01*
X450692Y165261D01*
X450700Y165251D01*
X451600Y165251D01*
X451611Y165259D01*
G37*
G36*
X460309Y165258D02*
X460309Y165258D01*
X460316Y165253D01*
X460916Y165453D01*
X460934Y165480D01*
X460947Y165484D01*
X461147Y166084D01*
X461143Y166095D01*
X461149Y166100D01*
X461149Y168888D01*
X461438Y169465D01*
X461910Y169749D01*
X462585Y169652D01*
X463159Y169366D01*
X463351Y168693D01*
X463351Y166000D01*
X463359Y165989D01*
X463354Y165982D01*
X463554Y165482D01*
X463580Y165466D01*
X463584Y165453D01*
X464184Y165253D01*
X464195Y165257D01*
X464200Y165251D01*
X465100Y165251D01*
X465118Y165265D01*
X465131Y165262D01*
X465631Y165662D01*
X465635Y165677D01*
X465640Y165681D01*
X465637Y165685D01*
X465638Y165692D01*
X465649Y165700D01*
X465649Y174500D01*
X465642Y174509D01*
X465647Y174516D01*
X465447Y175116D01*
X465420Y175134D01*
X465416Y175147D01*
X464816Y175347D01*
X464809Y175344D01*
X464807Y175347D01*
X464796Y175347D01*
X464795Y175349D01*
X463895Y175249D01*
X463881Y175236D01*
X463870Y175239D01*
X463470Y174939D01*
X463466Y174923D01*
X463458Y174917D01*
X463461Y174912D01*
X463451Y174907D01*
X463351Y174207D01*
X463354Y174202D01*
X463351Y174200D01*
X463351Y171568D01*
X463122Y171645D01*
X462527Y172041D01*
X462513Y172040D01*
X462508Y172049D01*
X461908Y172149D01*
X461903Y172146D01*
X461896Y172146D01*
X461893Y172149D01*
X461193Y172049D01*
X461189Y172045D01*
X461186Y172047D01*
X460486Y171847D01*
X460478Y171836D01*
X460469Y171838D01*
X459969Y171438D01*
X459968Y171434D01*
X459965Y171435D01*
X459465Y170935D01*
X459464Y170923D01*
X459456Y170922D01*
X459156Y170322D01*
X459157Y170317D01*
X459153Y170316D01*
X458953Y169716D01*
X458955Y169709D01*
X458951Y169707D01*
X458851Y169007D01*
X458854Y169002D01*
X458851Y169000D01*
X458851Y166200D01*
X458854Y166195D01*
X458851Y166192D01*
X458951Y165592D01*
X458973Y165571D01*
X458975Y165558D01*
X459475Y165258D01*
X459493Y165260D01*
X459500Y165251D01*
X460300Y165251D01*
X460309Y165258D01*
G37*
G36*
X429005Y165254D02*
X429005Y165254D01*
X429008Y165251D01*
X429608Y165351D01*
X429611Y165355D01*
X429614Y165353D01*
X430314Y165553D01*
X430320Y165562D01*
X430327Y165559D01*
X430927Y165959D01*
X430931Y165969D01*
X430938Y165969D01*
X431338Y166469D01*
X431339Y166473D01*
X431341Y166473D01*
X431741Y167073D01*
X431740Y167082D01*
X431747Y167084D01*
X431947Y167684D01*
X431945Y167691D01*
X431949Y167693D01*
X432049Y168393D01*
X432046Y168398D01*
X432049Y168400D01*
X432049Y169100D01*
X432046Y169104D01*
X432049Y169107D01*
X431949Y169807D01*
X431944Y169812D01*
X431947Y169816D01*
X431747Y170416D01*
X431742Y170419D01*
X431744Y170422D01*
X431444Y171022D01*
X431431Y171029D01*
X431431Y171038D01*
X430431Y171838D01*
X430423Y171839D01*
X430422Y171844D01*
X429822Y172144D01*
X429817Y172143D01*
X429816Y172147D01*
X429216Y172347D01*
X429209Y172345D01*
X429207Y172349D01*
X428507Y172449D01*
X428499Y172444D01*
X428494Y172449D01*
X427694Y172349D01*
X427693Y172348D01*
X427693Y172349D01*
X426993Y172249D01*
X426983Y172239D01*
X426975Y172242D01*
X426475Y171942D01*
X426471Y171934D01*
X426465Y171935D01*
X425965Y171435D01*
X425965Y171431D01*
X425962Y171431D01*
X425562Y170931D01*
X425561Y170923D01*
X425556Y170922D01*
X425256Y170322D01*
X425259Y170306D01*
X425251Y170300D01*
X425251Y168800D01*
X425270Y168775D01*
X425269Y168762D01*
X425769Y168362D01*
X425777Y168361D01*
X425778Y168356D01*
X426378Y168056D01*
X426389Y168058D01*
X426395Y168058D01*
X426400Y168051D01*
X429091Y168051D01*
X429512Y167882D01*
X429073Y167443D01*
X428492Y167249D01*
X427808Y167249D01*
X427216Y167447D01*
X427214Y167446D01*
X427214Y167447D01*
X426514Y167647D01*
X426487Y167637D01*
X426475Y167642D01*
X425975Y167342D01*
X425968Y167326D01*
X425957Y167324D01*
X425557Y166624D01*
X425560Y166600D01*
X425552Y166590D01*
X425652Y166090D01*
X425662Y166081D01*
X425659Y166073D01*
X425859Y165773D01*
X425876Y165767D01*
X425878Y165756D01*
X426478Y165456D01*
X426485Y165457D01*
X426486Y165453D01*
X427186Y165253D01*
X427196Y165256D01*
X427200Y165251D01*
X429000Y165251D01*
X429005Y165254D01*
G37*
G36*
X446902Y165256D02*
X446902Y165256D01*
X446907Y165251D01*
X447607Y165351D01*
X447629Y165373D01*
X447642Y165375D01*
X447942Y165875D01*
X447942Y165878D01*
X447940Y165893D01*
X447949Y165900D01*
X447949Y171300D01*
X447942Y171309D01*
X447947Y171316D01*
X447747Y171916D01*
X447720Y171934D01*
X447716Y171947D01*
X447116Y172147D01*
X447111Y172145D01*
X447111Y172146D01*
X447103Y172146D01*
X447100Y172149D01*
X446200Y172149D01*
X446195Y172146D01*
X446182Y172136D01*
X446170Y172139D01*
X445770Y171839D01*
X445769Y171834D01*
X445765Y171835D01*
X445496Y171566D01*
X445031Y171938D01*
X445021Y171939D01*
X445019Y171945D01*
X444319Y172245D01*
X444312Y172244D01*
X444297Y172244D01*
X444292Y172249D01*
X443692Y172149D01*
X442993Y172049D01*
X442969Y172025D01*
X442969Y172024D01*
X442956Y172022D01*
X442656Y171422D01*
X442656Y171420D01*
X442659Y171406D01*
X442651Y171400D01*
X442651Y170800D01*
X442659Y170789D01*
X442655Y170781D01*
X442955Y170081D01*
X442970Y170072D01*
X442969Y170062D01*
X443469Y169662D01*
X443503Y169661D01*
X443514Y169653D01*
X444211Y169852D01*
X444792Y169949D01*
X445363Y169663D01*
X445651Y169088D01*
X445651Y165700D01*
X445670Y165674D01*
X445670Y165661D01*
X446070Y165361D01*
X446088Y165361D01*
X446094Y165351D01*
X446894Y165251D01*
X446902Y165256D01*
G37*
%LPC*%
G36*
X453220Y167649D02*
X453220Y167649D01*
X452743Y168127D01*
X452552Y168701D01*
X452561Y168734D01*
X452603Y168882D01*
X452617Y168931D01*
X452659Y169079D01*
X452660Y169079D01*
X452659Y169079D01*
X452702Y169227D01*
X452716Y169276D01*
X452743Y169371D01*
X453217Y169751D01*
X453888Y169751D01*
X454463Y169463D01*
X454751Y168888D01*
X454751Y168225D01*
X454372Y167941D01*
X453886Y167649D01*
X453220Y167649D01*
G37*
%LPD*%
%LPC*%
G36*
X437217Y167849D02*
X437217Y167849D01*
X436739Y168232D01*
X436451Y168808D01*
X436546Y169376D01*
X437023Y169854D01*
X437692Y169949D01*
X438263Y169663D01*
X438551Y169088D01*
X438551Y168420D01*
X438367Y168237D01*
X437883Y167849D01*
X437217Y167849D01*
G37*
%LPD*%
%LPC*%
G36*
X429321Y169345D02*
X429321Y169345D01*
X429308Y169338D01*
X429300Y169349D01*
X428014Y169349D01*
X427559Y169622D01*
X427737Y170156D01*
X428395Y170250D01*
X428973Y170057D01*
X429444Y169587D01*
X429353Y169316D01*
X429354Y169313D01*
X429352Y169312D01*
X429348Y169294D01*
X429321Y169345D01*
G37*
%LPD*%
M02*
