M48
;GenerationSoftware,Autodesk,EAGLE,9.6.2*%
;CreationDate,2021-02-16T20:48:46Z*%
FMAT,2
ICI,OFF
METRIC,TZ,000.000
T3C0.381
T2C0.800
T1C2.300
%
G90
M71
T1
X4000Y18000
T2
X16625Y5300
X33375Y5300
T3
X18000Y12000
X13000Y20000
X36700Y6700
X33800Y6600
X16500Y3500
X29900Y6600
X27200Y6800
X14000Y11000
X16000Y13000
X19000Y20000
X17700Y6500
X19000Y6500
X26000Y6500
X32400Y6500
X30000Y12000
X14000Y6700
X27800Y16600
X33500Y10900
X31400Y6500
X13000Y15000
X39000Y3000
X28000Y5700
X35797Y16635
X23800Y20200
X31800Y19000
X7000Y21000
X15300Y20100
X24025Y13900
X23300Y15000
X22400Y19265
X31300Y16500
X10000Y20265
X28000Y12000
X20000Y12000
X24685Y12500
M30