M48
;GenerationSoftware,Autodesk,EAGLE,9.6.2*%
;CreationDate,2021-05-14T20:34:41Z*%
FMAT,2
ICI,OFF
METRIC,TZ,000.000
T3C0.381
T2C0.800
T1C2.300
%
G90
M71
T1
X45000Y19000
T2
X16625Y6300
X33375Y6300
T3
X20000Y12000
X13000Y2000
X12000Y14000
X2000Y14000
X38000Y17000
X35000Y13000
X36700Y6700
X14000Y8700
X34900Y7300
X18100Y12100
X18810Y11500
X27000Y6028
X32500Y11600
X31000Y6000
X17000Y12000
X25000Y7800
X26000Y3000
X36000Y2000
X31200Y11900
X28000Y4000
X35000Y11000
X38000Y11000
X46000Y21000
X32000Y20000
X27000Y20000
X32000Y15000
X24010Y12000
X24010Y15000
X6000Y15000
X32000Y16000
X22000Y12000
X22000Y16000
X6100Y10900
X36000Y19000
X23000Y19000
X28000Y2000
X30000Y12000
X33300Y5000
M30