G04 EAGLE Gerber RS-274X export*
G75*
%MOMM*%
%FSLAX34Y34*%
%LPD*%
%INSilkscreen Top*%
%IPPOS*%
%AMOC8*
5,1,8,0,0,1.08239X$1,22.5*%
G01*
%ADD10C,0.203200*%
%ADD11C,0.508000*%
%ADD12C,0.152400*%
%ADD13C,0.127000*%
%ADD14C,0.508000*%

G36*
X228615Y23162D02*
X228615Y23162D01*
X228625Y23158D01*
X229125Y23458D01*
X229133Y23477D01*
X229140Y23482D01*
X229137Y23486D01*
X229139Y23492D01*
X229149Y23500D01*
X229149Y36300D01*
X229138Y36315D01*
X229142Y36325D01*
X228842Y36825D01*
X228808Y36839D01*
X228800Y36849D01*
X194200Y36849D01*
X194195Y36846D01*
X194192Y36849D01*
X193592Y36749D01*
X192893Y36649D01*
X192890Y36645D01*
X192889Y36645D01*
X192886Y36647D01*
X192186Y36447D01*
X192185Y36446D01*
X192184Y36447D01*
X191584Y36247D01*
X191581Y36242D01*
X191578Y36244D01*
X190978Y35944D01*
X190976Y35940D01*
X190973Y35941D01*
X190373Y35541D01*
X190372Y35538D01*
X190369Y35538D01*
X189369Y34738D01*
X189367Y34731D01*
X189362Y34731D01*
X188962Y34231D01*
X188961Y34227D01*
X188959Y34227D01*
X188559Y33627D01*
X188559Y33623D01*
X188556Y33622D01*
X187956Y32422D01*
X187957Y32415D01*
X187953Y32414D01*
X187753Y31715D01*
X187553Y31116D01*
X187557Y31105D01*
X187551Y31100D01*
X187551Y29100D01*
X187554Y29096D01*
X187551Y29093D01*
X187651Y28393D01*
X187655Y28389D01*
X187653Y28386D01*
X187853Y27686D01*
X187858Y27682D01*
X187856Y27678D01*
X188456Y26478D01*
X188463Y26475D01*
X188462Y26469D01*
X188860Y25971D01*
X189259Y25373D01*
X189269Y25369D01*
X189269Y25362D01*
X189767Y24963D01*
X190265Y24465D01*
X190277Y24464D01*
X190278Y24456D01*
X190875Y24157D01*
X191473Y23759D01*
X191482Y23760D01*
X191484Y23753D01*
X192084Y23553D01*
X192086Y23554D01*
X192086Y23553D01*
X192786Y23353D01*
X192790Y23354D01*
X192792Y23351D01*
X193392Y23251D01*
X193393Y23252D01*
X193393Y23251D01*
X194093Y23151D01*
X194098Y23154D01*
X194100Y23151D01*
X228600Y23151D01*
X228615Y23162D01*
G37*
G36*
X175403Y166753D02*
X175403Y166753D01*
X175405Y166751D01*
X176305Y166851D01*
X176313Y166858D01*
X176318Y166854D01*
X176817Y167054D01*
X177116Y167153D01*
X177120Y167160D01*
X177125Y167158D01*
X177625Y167458D01*
X177627Y167462D01*
X177631Y167462D01*
X178131Y167862D01*
X178132Y167866D01*
X178135Y167865D01*
X178735Y168465D01*
X178736Y168477D01*
X178744Y168478D01*
X179144Y169278D01*
X179143Y169283D01*
X179147Y169284D01*
X179347Y169884D01*
X179346Y169888D01*
X179347Y169889D01*
X179343Y169895D01*
X179349Y169900D01*
X179349Y170196D01*
X179449Y170792D01*
X179446Y170797D01*
X179449Y170800D01*
X179449Y181600D01*
X179447Y181603D01*
X179449Y181605D01*
X179349Y182505D01*
X179344Y182511D01*
X179347Y182516D01*
X179147Y183116D01*
X179142Y183119D01*
X179144Y183122D01*
X178744Y183922D01*
X178738Y183925D01*
X178739Y183930D01*
X178439Y184330D01*
X178428Y184333D01*
X178427Y184341D01*
X178131Y184538D01*
X177735Y184935D01*
X177726Y184936D01*
X177725Y184942D01*
X177225Y185242D01*
X177217Y185241D01*
X177216Y185247D01*
X176016Y185647D01*
X176005Y185643D01*
X176000Y185649D01*
X164000Y185649D01*
X163991Y185642D01*
X163984Y185647D01*
X163687Y185548D01*
X163190Y185448D01*
X163181Y185438D01*
X163173Y185441D01*
X162874Y185242D01*
X161875Y184642D01*
X161871Y184634D01*
X161865Y184635D01*
X161665Y184435D01*
X161665Y184431D01*
X161662Y184431D01*
X161262Y183931D01*
X161261Y183926D01*
X161258Y183925D01*
X160958Y183425D01*
X160959Y183417D01*
X160953Y183416D01*
X160653Y182516D01*
X160657Y182505D01*
X160651Y182500D01*
X160651Y182204D01*
X160551Y181608D01*
X160554Y181603D01*
X160551Y181600D01*
X160551Y170800D01*
X160554Y170796D01*
X160551Y170794D01*
X160651Y169994D01*
X160656Y169989D01*
X160653Y169984D01*
X160953Y169084D01*
X160960Y169080D01*
X160958Y169075D01*
X161258Y168575D01*
X161262Y168573D01*
X161262Y168569D01*
X161662Y168069D01*
X161666Y168068D01*
X161665Y168065D01*
X162265Y167465D01*
X162274Y167464D01*
X162275Y167458D01*
X162775Y167158D01*
X162783Y167159D01*
X162784Y167153D01*
X163684Y166853D01*
X163695Y166857D01*
X163700Y166851D01*
X163996Y166851D01*
X164592Y166751D01*
X164597Y166754D01*
X164600Y166751D01*
X175400Y166751D01*
X175403Y166753D01*
G37*
G36*
X87614Y19707D02*
X87614Y19707D01*
X87684Y19713D01*
X87699Y19722D01*
X87716Y19725D01*
X87822Y19797D01*
X87832Y19803D01*
X87833Y19805D01*
X87834Y19806D01*
X90134Y22106D01*
X90142Y22119D01*
X90143Y22120D01*
X90145Y22122D01*
X90147Y22126D01*
X90166Y22142D01*
X90192Y22199D01*
X90225Y22253D01*
X90228Y22277D01*
X90238Y22300D01*
X90236Y22362D01*
X90242Y22425D01*
X90233Y22448D01*
X90232Y22473D01*
X90192Y22555D01*
X90180Y22586D01*
X90174Y22592D01*
X90169Y22601D01*
X88224Y25195D01*
X88234Y25206D01*
X88253Y25236D01*
X88305Y25304D01*
X88405Y25504D01*
X88409Y25520D01*
X88418Y25533D01*
X88444Y25667D01*
X88445Y25672D01*
X88445Y25673D01*
X88445Y25674D01*
X88445Y25684D01*
X88478Y25749D01*
X88534Y25806D01*
X88553Y25836D01*
X88605Y25904D01*
X88705Y26104D01*
X88709Y26120D01*
X88718Y26133D01*
X88744Y26267D01*
X88745Y26272D01*
X88745Y26273D01*
X88745Y26274D01*
X88745Y26284D01*
X88905Y26604D01*
X88909Y26620D01*
X88918Y26633D01*
X88944Y26767D01*
X88945Y26772D01*
X88945Y26773D01*
X88945Y26774D01*
X88945Y26784D01*
X89005Y26904D01*
X89009Y26920D01*
X89018Y26933D01*
X89044Y27067D01*
X89045Y27072D01*
X89045Y27073D01*
X89045Y27074D01*
X89045Y27084D01*
X89105Y27204D01*
X89109Y27220D01*
X89118Y27233D01*
X89138Y27336D01*
X92430Y27900D01*
X92448Y27907D01*
X92467Y27908D01*
X92527Y27941D01*
X92589Y27967D01*
X92602Y27982D01*
X92619Y27991D01*
X92658Y28047D01*
X92702Y28098D01*
X92707Y28117D01*
X92718Y28133D01*
X92740Y28244D01*
X92745Y28266D01*
X92744Y28270D01*
X92745Y28274D01*
X92745Y31474D01*
X92741Y31493D01*
X92743Y31514D01*
X92732Y31546D01*
X92731Y31553D01*
X92726Y31562D01*
X92721Y31577D01*
X92706Y31642D01*
X92693Y31658D01*
X92686Y31677D01*
X92638Y31724D01*
X92596Y31776D01*
X92577Y31784D01*
X92563Y31798D01*
X92461Y31836D01*
X92438Y31846D01*
X92433Y31846D01*
X92428Y31848D01*
X89145Y32395D01*
X89145Y32474D01*
X89128Y32548D01*
X89114Y32623D01*
X89108Y32633D01*
X89106Y32642D01*
X89083Y32670D01*
X89045Y32725D01*
X89045Y32774D01*
X89028Y32848D01*
X89014Y32923D01*
X89008Y32933D01*
X89006Y32942D01*
X88983Y32970D01*
X88934Y33042D01*
X88878Y33098D01*
X88845Y33163D01*
X88845Y33274D01*
X88828Y33348D01*
X88814Y33423D01*
X88808Y33433D01*
X88806Y33442D01*
X88783Y33470D01*
X88745Y33525D01*
X88745Y33574D01*
X88728Y33648D01*
X88714Y33723D01*
X88708Y33733D01*
X88706Y33742D01*
X88683Y33770D01*
X88634Y33842D01*
X88578Y33898D01*
X88505Y34043D01*
X88482Y34071D01*
X88445Y34125D01*
X88445Y34174D01*
X88428Y34248D01*
X88414Y34323D01*
X88408Y34333D01*
X88406Y34342D01*
X88383Y34370D01*
X88334Y34442D01*
X88278Y34498D01*
X88238Y34578D01*
X90173Y37251D01*
X90183Y37275D01*
X90200Y37294D01*
X90216Y37354D01*
X90240Y37411D01*
X90238Y37436D01*
X90245Y37461D01*
X90233Y37522D01*
X90229Y37584D01*
X90216Y37606D01*
X90211Y37631D01*
X90160Y37703D01*
X90142Y37733D01*
X90135Y37738D01*
X90128Y37748D01*
X87828Y39948D01*
X87817Y39954D01*
X87809Y39965D01*
X87743Y39998D01*
X87679Y40036D01*
X87666Y40037D01*
X87655Y40042D01*
X87581Y40043D01*
X87507Y40048D01*
X87495Y40043D01*
X87482Y40043D01*
X87351Y39986D01*
X84677Y38142D01*
X84536Y38213D01*
X84520Y38217D01*
X84507Y38226D01*
X84373Y38252D01*
X84367Y38253D01*
X84366Y38253D01*
X84356Y38253D01*
X84291Y38285D01*
X84234Y38342D01*
X84204Y38361D01*
X84136Y38413D01*
X83936Y38513D01*
X83920Y38517D01*
X83907Y38526D01*
X83773Y38552D01*
X83767Y38553D01*
X83766Y38553D01*
X83756Y38553D01*
X83691Y38585D01*
X83634Y38642D01*
X83569Y38682D01*
X83507Y38726D01*
X83495Y38728D01*
X83487Y38733D01*
X83452Y38736D01*
X83366Y38753D01*
X83256Y38753D01*
X83136Y38813D01*
X83120Y38817D01*
X83107Y38826D01*
X82973Y38852D01*
X82967Y38853D01*
X82966Y38853D01*
X82956Y38853D01*
X82836Y38913D01*
X82820Y38917D01*
X82807Y38926D01*
X82673Y38952D01*
X82667Y38953D01*
X82666Y38953D01*
X82656Y38953D01*
X82536Y39013D01*
X82520Y39017D01*
X82507Y39026D01*
X82490Y39029D01*
X81940Y42238D01*
X81932Y42256D01*
X81931Y42275D01*
X81899Y42334D01*
X81872Y42397D01*
X81858Y42410D01*
X81848Y42427D01*
X81793Y42466D01*
X81741Y42510D01*
X81722Y42515D01*
X81707Y42526D01*
X81596Y42547D01*
X81574Y42553D01*
X81570Y42552D01*
X81566Y42553D01*
X78366Y42553D01*
X78347Y42549D01*
X78328Y42551D01*
X78264Y42529D01*
X78198Y42513D01*
X78183Y42501D01*
X78164Y42495D01*
X78117Y42447D01*
X78064Y42403D01*
X78056Y42386D01*
X78043Y42372D01*
X78003Y42266D01*
X77994Y42245D01*
X77994Y42242D01*
X77992Y42238D01*
X77434Y38982D01*
X77376Y38953D01*
X77266Y38953D01*
X77192Y38936D01*
X77116Y38922D01*
X77107Y38916D01*
X77098Y38913D01*
X77070Y38891D01*
X77014Y38853D01*
X76966Y38853D01*
X76950Y38849D01*
X76934Y38852D01*
X76803Y38815D01*
X76798Y38813D01*
X76797Y38813D01*
X76796Y38813D01*
X76676Y38753D01*
X76666Y38753D01*
X76650Y38749D01*
X76634Y38752D01*
X76503Y38715D01*
X76498Y38713D01*
X76497Y38713D01*
X76496Y38713D01*
X76296Y38613D01*
X76269Y38590D01*
X76214Y38553D01*
X76166Y38553D01*
X76092Y38536D01*
X76016Y38522D01*
X76007Y38516D01*
X75998Y38513D01*
X75970Y38491D01*
X75898Y38442D01*
X75841Y38385D01*
X75696Y38313D01*
X75669Y38290D01*
X75614Y38253D01*
X75566Y38253D01*
X75492Y38236D01*
X75416Y38222D01*
X75407Y38216D01*
X75398Y38213D01*
X75370Y38191D01*
X75298Y38142D01*
X75280Y38124D01*
X72581Y39986D01*
X72565Y39992D01*
X72553Y40004D01*
X72486Y40023D01*
X72420Y40049D01*
X72403Y40048D01*
X72387Y40052D01*
X72318Y40040D01*
X72248Y40034D01*
X72233Y40025D01*
X72216Y40022D01*
X72110Y39950D01*
X72100Y39944D01*
X72099Y39943D01*
X72098Y39942D01*
X69898Y37742D01*
X69889Y37727D01*
X69875Y37717D01*
X69844Y37654D01*
X69807Y37595D01*
X69805Y37578D01*
X69797Y37563D01*
X69797Y37492D01*
X69790Y37423D01*
X69796Y37407D01*
X69796Y37389D01*
X69848Y37272D01*
X69852Y37261D01*
X69853Y37260D01*
X69854Y37258D01*
X71705Y34575D01*
X71703Y34560D01*
X71687Y34474D01*
X71687Y34424D01*
X71679Y34411D01*
X71627Y34343D01*
X71554Y34198D01*
X71498Y34142D01*
X71458Y34077D01*
X71414Y34014D01*
X71412Y34003D01*
X71407Y33995D01*
X71403Y33960D01*
X71387Y33874D01*
X71387Y33824D01*
X71379Y33811D01*
X71327Y33743D01*
X71227Y33543D01*
X71223Y33528D01*
X71214Y33514D01*
X71197Y33427D01*
X71194Y33419D01*
X71194Y33411D01*
X71188Y33380D01*
X71187Y33375D01*
X71187Y33374D01*
X71187Y33363D01*
X71027Y33043D01*
X71023Y33028D01*
X71014Y33014D01*
X70988Y32880D01*
X70987Y32875D01*
X70987Y32874D01*
X70987Y32863D01*
X70927Y32743D01*
X70923Y32728D01*
X70914Y32714D01*
X70905Y32669D01*
X70901Y32661D01*
X70902Y32651D01*
X70888Y32580D01*
X70887Y32575D01*
X70887Y32574D01*
X70887Y32563D01*
X70827Y32443D01*
X70823Y32428D01*
X70814Y32414D01*
X70811Y32398D01*
X67602Y31848D01*
X67584Y31840D01*
X67565Y31839D01*
X67505Y31807D01*
X67443Y31780D01*
X67430Y31765D01*
X67413Y31756D01*
X67374Y31701D01*
X67330Y31649D01*
X67325Y31630D01*
X67314Y31614D01*
X67298Y31533D01*
X67294Y31523D01*
X67294Y31512D01*
X67292Y31503D01*
X67287Y31481D01*
X67288Y31478D01*
X67287Y31474D01*
X67287Y28274D01*
X67291Y28255D01*
X67289Y28236D01*
X67311Y28171D01*
X67326Y28105D01*
X67339Y28090D01*
X67345Y28072D01*
X67393Y28024D01*
X67436Y27972D01*
X67454Y27964D01*
X67468Y27950D01*
X67574Y27910D01*
X67594Y27901D01*
X67598Y27901D01*
X67602Y27900D01*
X70858Y27342D01*
X70887Y27284D01*
X70887Y27174D01*
X70904Y27099D01*
X70918Y27024D01*
X70924Y27014D01*
X70926Y27005D01*
X70949Y26978D01*
X70987Y26922D01*
X70987Y26874D01*
X71000Y26818D01*
X71001Y26799D01*
X71006Y26789D01*
X71018Y26724D01*
X71024Y26714D01*
X71026Y26705D01*
X71049Y26678D01*
X71098Y26606D01*
X71154Y26549D01*
X71187Y26484D01*
X71187Y26374D01*
X71204Y26299D01*
X71218Y26224D01*
X71224Y26214D01*
X71226Y26205D01*
X71249Y26178D01*
X71287Y26122D01*
X71287Y26074D01*
X71304Y25999D01*
X71318Y25924D01*
X71324Y25914D01*
X71326Y25905D01*
X71349Y25878D01*
X71398Y25806D01*
X71454Y25749D01*
X71527Y25604D01*
X71550Y25576D01*
X71593Y25513D01*
X71595Y25509D01*
X71596Y25509D01*
X71598Y25506D01*
X71654Y25449D01*
X71687Y25384D01*
X71687Y25374D01*
X71690Y25358D01*
X71688Y25342D01*
X71700Y25300D01*
X71701Y25282D01*
X71710Y25265D01*
X71725Y25211D01*
X71725Y25209D01*
X69857Y22594D01*
X69851Y22579D01*
X69840Y22568D01*
X69819Y22500D01*
X69792Y22434D01*
X69793Y22418D01*
X69788Y22403D01*
X69799Y22333D01*
X69804Y22261D01*
X69812Y22248D01*
X69814Y22232D01*
X69889Y22116D01*
X69891Y22112D01*
X69892Y22112D01*
X72092Y19812D01*
X72110Y19800D01*
X72123Y19783D01*
X72182Y19753D01*
X72237Y19717D01*
X72258Y19715D01*
X72277Y19705D01*
X72343Y19705D01*
X72409Y19697D01*
X72429Y19704D01*
X72450Y19704D01*
X72545Y19746D01*
X72572Y19755D01*
X72575Y19759D01*
X72581Y19761D01*
X75302Y21638D01*
X75325Y21621D01*
X75337Y21619D01*
X75345Y21614D01*
X75380Y21611D01*
X75395Y21608D01*
X75398Y21606D01*
X75463Y21565D01*
X75525Y21521D01*
X75537Y21519D01*
X75545Y21514D01*
X75580Y21511D01*
X75595Y21508D01*
X75598Y21506D01*
X75663Y21465D01*
X75725Y21421D01*
X75737Y21419D01*
X75745Y21414D01*
X75780Y21411D01*
X75795Y21408D01*
X75798Y21406D01*
X75863Y21365D01*
X75925Y21321D01*
X75937Y21319D01*
X75945Y21314D01*
X75980Y21311D01*
X75995Y21308D01*
X75998Y21306D01*
X76063Y21265D01*
X76125Y21221D01*
X76137Y21219D01*
X76145Y21214D01*
X76180Y21211D01*
X76195Y21208D01*
X76198Y21206D01*
X76263Y21165D01*
X76325Y21121D01*
X76337Y21119D01*
X76345Y21114D01*
X76380Y21111D01*
X76466Y21094D01*
X76516Y21094D01*
X76537Y21081D01*
X76570Y21049D01*
X76609Y21036D01*
X76645Y21014D01*
X76690Y21010D01*
X76734Y20996D01*
X76776Y21002D01*
X76817Y20998D01*
X76860Y21014D01*
X76905Y21021D01*
X76940Y21045D01*
X76979Y21060D01*
X77010Y21093D01*
X77047Y21120D01*
X77073Y21162D01*
X77096Y21187D01*
X77103Y21212D01*
X77122Y21242D01*
X79122Y26642D01*
X79129Y26699D01*
X79145Y26754D01*
X79139Y26784D01*
X79143Y26814D01*
X79124Y26868D01*
X79114Y26925D01*
X79096Y26949D01*
X79086Y26977D01*
X79045Y27017D01*
X79011Y27063D01*
X78981Y27080D01*
X78962Y27098D01*
X78930Y27108D01*
X78886Y27133D01*
X78612Y27225D01*
X78291Y27385D01*
X78134Y27542D01*
X78104Y27561D01*
X78036Y27613D01*
X77891Y27685D01*
X77778Y27798D01*
X77705Y27943D01*
X77682Y27971D01*
X77634Y28042D01*
X77478Y28198D01*
X77317Y28519D01*
X77226Y28794D01*
X77214Y28813D01*
X77205Y28843D01*
X77045Y29163D01*
X77045Y29374D01*
X77037Y29409D01*
X77026Y29494D01*
X76945Y29735D01*
X76945Y30212D01*
X77310Y31306D01*
X77661Y31832D01*
X77808Y31979D01*
X78076Y32158D01*
X78098Y32181D01*
X78134Y32206D01*
X78308Y32379D01*
X78534Y32530D01*
X78786Y32614D01*
X78804Y32625D01*
X78818Y32628D01*
X78831Y32639D01*
X78876Y32658D01*
X79081Y32794D01*
X79266Y32794D01*
X79301Y32803D01*
X79358Y32806D01*
X79713Y32894D01*
X80304Y32894D01*
X80546Y32814D01*
X80582Y32811D01*
X80666Y32794D01*
X80851Y32794D01*
X81056Y32658D01*
X81091Y32645D01*
X81140Y32617D01*
X81142Y32616D01*
X81143Y32616D01*
X81146Y32614D01*
X81398Y32530D01*
X81925Y32179D01*
X82271Y31832D01*
X82622Y31306D01*
X82706Y31054D01*
X82726Y31022D01*
X82750Y30963D01*
X82887Y30759D01*
X82887Y30574D01*
X82895Y30539D01*
X82906Y30454D01*
X82987Y30212D01*
X82987Y29435D01*
X82906Y29194D01*
X82903Y29158D01*
X82887Y29074D01*
X82887Y28963D01*
X82827Y28843D01*
X82821Y28821D01*
X82806Y28794D01*
X82715Y28519D01*
X82654Y28398D01*
X82498Y28242D01*
X82479Y28211D01*
X82427Y28143D01*
X82354Y27998D01*
X82041Y27685D01*
X81896Y27613D01*
X81869Y27590D01*
X81798Y27542D01*
X81641Y27385D01*
X81096Y27113D01*
X81073Y27093D01*
X81044Y27081D01*
X81007Y27038D01*
X80963Y27002D01*
X80951Y26974D01*
X80931Y26951D01*
X80916Y26896D01*
X80893Y26844D01*
X80895Y26813D01*
X80887Y26783D01*
X80899Y26709D01*
X80901Y26671D01*
X80908Y26659D01*
X80910Y26642D01*
X82910Y21242D01*
X82922Y21225D01*
X82926Y21205D01*
X82969Y21154D01*
X83006Y21098D01*
X83024Y21087D01*
X83036Y21072D01*
X83098Y21045D01*
X83156Y21011D01*
X83176Y21010D01*
X83194Y21001D01*
X83261Y21004D01*
X83328Y21000D01*
X83347Y21007D01*
X83367Y21008D01*
X83426Y21040D01*
X83488Y21066D01*
X83501Y21082D01*
X83519Y21091D01*
X83532Y21110D01*
X83540Y21112D01*
X83616Y21125D01*
X83625Y21132D01*
X83634Y21134D01*
X83662Y21157D01*
X83734Y21206D01*
X83741Y21212D01*
X83816Y21225D01*
X83825Y21232D01*
X83834Y21234D01*
X83862Y21257D01*
X83934Y21306D01*
X83941Y21312D01*
X84016Y21325D01*
X84025Y21332D01*
X84034Y21334D01*
X84062Y21357D01*
X84118Y21394D01*
X84166Y21394D01*
X84240Y21412D01*
X84316Y21425D01*
X84325Y21432D01*
X84334Y21434D01*
X84362Y21457D01*
X84434Y21506D01*
X84441Y21512D01*
X84516Y21525D01*
X84525Y21532D01*
X84534Y21534D01*
X84562Y21557D01*
X84634Y21606D01*
X84652Y21623D01*
X87351Y19761D01*
X87367Y19755D01*
X87379Y19744D01*
X87447Y19724D01*
X87512Y19698D01*
X87529Y19700D01*
X87545Y19695D01*
X87614Y19707D01*
G37*
G36*
X259036Y170886D02*
X259036Y170886D01*
X259063Y170883D01*
X259120Y170905D01*
X259179Y170919D01*
X259199Y170936D01*
X259225Y170946D01*
X259283Y171005D01*
X259312Y171029D01*
X259317Y171039D01*
X259326Y171049D01*
X259506Y171318D01*
X259779Y171591D01*
X259791Y171611D01*
X259814Y171632D01*
X260098Y172010D01*
X260579Y172491D01*
X260587Y172504D01*
X260602Y172517D01*
X261091Y173103D01*
X261679Y173691D01*
X261693Y173714D01*
X261719Y173739D01*
X262201Y174413D01*
X263479Y175691D01*
X263487Y175704D01*
X263502Y175717D01*
X263978Y176287D01*
X264928Y177047D01*
X265344Y177297D01*
X265841Y177380D01*
X267710Y177380D01*
X267736Y177386D01*
X267773Y177385D01*
X268973Y177585D01*
X268988Y177592D01*
X269010Y177593D01*
X270110Y177893D01*
X270127Y177902D01*
X270151Y177907D01*
X271151Y178307D01*
X271173Y178322D01*
X271206Y178334D01*
X272206Y178934D01*
X272226Y178954D01*
X272260Y178974D01*
X273060Y179674D01*
X273067Y179683D01*
X273079Y179691D01*
X273879Y180491D01*
X273890Y180509D01*
X273910Y180527D01*
X274610Y181427D01*
X274621Y181450D01*
X274642Y181475D01*
X275642Y183275D01*
X275652Y183310D01*
X275676Y183358D01*
X276176Y185158D01*
X276178Y185192D01*
X276190Y185239D01*
X276290Y187039D01*
X276283Y187075D01*
X276284Y187130D01*
X275984Y188730D01*
X275973Y188754D01*
X275968Y188788D01*
X275468Y190188D01*
X275452Y190213D01*
X275438Y190252D01*
X274738Y191452D01*
X274717Y191474D01*
X274694Y191513D01*
X273894Y192413D01*
X273890Y192416D01*
X273780Y192500D01*
X272980Y192900D01*
X272970Y192902D01*
X272964Y192907D01*
X272925Y192914D01*
X272882Y192933D01*
X272847Y192932D01*
X272812Y192940D01*
X272761Y192929D01*
X272709Y192927D01*
X272678Y192910D01*
X272643Y192901D01*
X272603Y192869D01*
X272557Y192844D01*
X272536Y192815D01*
X272509Y192792D01*
X272487Y192745D01*
X272457Y192702D01*
X272449Y192661D01*
X272437Y192634D01*
X272437Y192628D01*
X272437Y192626D01*
X272438Y192601D01*
X272430Y192560D01*
X272430Y191822D01*
X272291Y191404D01*
X272142Y191305D01*
X271948Y191240D01*
X271400Y191240D01*
X270701Y191590D01*
X270430Y191771D01*
X270038Y192064D01*
X270029Y192068D01*
X270021Y192076D01*
X269752Y192256D01*
X269523Y192485D01*
X269350Y192830D01*
X269337Y192846D01*
X269326Y192871D01*
X269163Y193116D01*
X269079Y193452D01*
X269073Y193464D01*
X269071Y193480D01*
X269011Y193660D01*
X269062Y193814D01*
X269150Y193990D01*
X269156Y194013D01*
X269171Y194040D01*
X269255Y194292D01*
X269390Y194495D01*
X269711Y194735D01*
X269990Y194875D01*
X270034Y194897D01*
X270485Y194987D01*
X270492Y194991D01*
X270502Y194991D01*
X270857Y195080D01*
X271048Y195080D01*
X271290Y194999D01*
X271327Y194996D01*
X271410Y194980D01*
X271710Y194980D01*
X271735Y194986D01*
X271761Y194983D01*
X271819Y195005D01*
X271879Y195019D01*
X271899Y195036D01*
X271923Y195045D01*
X271965Y195090D01*
X272012Y195129D01*
X272023Y195153D01*
X272040Y195172D01*
X272058Y195231D01*
X272083Y195288D01*
X272082Y195313D01*
X272090Y195338D01*
X272079Y195399D01*
X272077Y195461D01*
X272064Y195483D01*
X272060Y195509D01*
X272012Y195580D01*
X271994Y195613D01*
X271986Y195619D01*
X271979Y195629D01*
X271879Y195729D01*
X271859Y195741D01*
X271838Y195764D01*
X271438Y196064D01*
X271412Y196076D01*
X271380Y196100D01*
X270780Y196400D01*
X270763Y196404D01*
X270744Y196416D01*
X269944Y196716D01*
X269937Y196717D01*
X269930Y196721D01*
X269030Y197021D01*
X268993Y197024D01*
X268910Y197040D01*
X267910Y197040D01*
X267882Y197034D01*
X267842Y197034D01*
X266742Y196834D01*
X266707Y196819D01*
X266628Y196794D01*
X265528Y196194D01*
X265502Y196171D01*
X265457Y196144D01*
X264557Y195344D01*
X264538Y195316D01*
X264501Y195281D01*
X264001Y194581D01*
X263986Y194545D01*
X263949Y194480D01*
X263649Y193580D01*
X263646Y193543D01*
X263630Y193460D01*
X263630Y192660D01*
X263637Y192627D01*
X263639Y192578D01*
X263839Y191678D01*
X263856Y191642D01*
X263878Y191575D01*
X264378Y190675D01*
X264400Y190651D01*
X264424Y190610D01*
X265124Y189810D01*
X265125Y189809D01*
X265126Y189807D01*
X265275Y189639D01*
X265613Y189259D01*
X265924Y188909D01*
X266584Y188155D01*
X266830Y187582D01*
X266830Y187022D01*
X266671Y186545D01*
X266350Y186144D01*
X265854Y185813D01*
X265163Y185640D01*
X264448Y185640D01*
X264019Y185726D01*
X263588Y185898D01*
X263352Y186056D01*
X263123Y186285D01*
X262962Y186606D01*
X262890Y186822D01*
X262890Y186998D01*
X262955Y187192D01*
X263106Y187418D01*
X263415Y187728D01*
X263630Y187799D01*
X263650Y187812D01*
X263680Y187820D01*
X264080Y188020D01*
X264109Y188044D01*
X264179Y188091D01*
X264279Y188191D01*
X264292Y188212D01*
X264311Y188228D01*
X264337Y188285D01*
X264370Y188338D01*
X264373Y188363D01*
X264383Y188386D01*
X264381Y188449D01*
X264387Y188511D01*
X264378Y188534D01*
X264377Y188559D01*
X264347Y188614D01*
X264325Y188673D01*
X264307Y188690D01*
X264295Y188712D01*
X264225Y188766D01*
X264198Y188790D01*
X264189Y188793D01*
X264180Y188800D01*
X263980Y188900D01*
X263965Y188904D01*
X263952Y188913D01*
X263818Y188939D01*
X263812Y188940D01*
X263811Y188940D01*
X263810Y188940D01*
X263657Y188940D01*
X263302Y189029D01*
X263266Y189029D01*
X263210Y189040D01*
X262410Y189040D01*
X262384Y189034D01*
X262348Y189035D01*
X261748Y188935D01*
X261717Y188922D01*
X261669Y188913D01*
X260669Y188513D01*
X260638Y188491D01*
X260582Y188464D01*
X260198Y188176D01*
X259714Y187886D01*
X259700Y187872D01*
X259681Y187863D01*
X259611Y187786D01*
X259590Y187765D01*
X259588Y187760D01*
X259584Y187756D01*
X259284Y187256D01*
X259280Y187243D01*
X259270Y187230D01*
X258970Y186630D01*
X258964Y186607D01*
X258949Y186580D01*
X258749Y185980D01*
X258746Y185947D01*
X258732Y185902D01*
X258532Y184102D01*
X258534Y184083D01*
X258530Y184060D01*
X258530Y171260D01*
X258541Y171210D01*
X258543Y171159D01*
X258561Y171127D01*
X258569Y171091D01*
X258602Y171052D01*
X258626Y171007D01*
X258656Y170986D01*
X258679Y170958D01*
X258726Y170937D01*
X258768Y170907D01*
X258810Y170899D01*
X258838Y170887D01*
X258868Y170888D01*
X258910Y170880D01*
X259010Y170880D01*
X259036Y170886D01*
G37*
G36*
X213285Y145392D02*
X213285Y145392D01*
X213311Y145393D01*
X213365Y145423D01*
X213423Y145445D01*
X213440Y145464D01*
X213463Y145476D01*
X213498Y145527D01*
X213540Y145572D01*
X213548Y145597D01*
X213563Y145618D01*
X213579Y145702D01*
X213590Y145738D01*
X213588Y145748D01*
X213590Y145760D01*
X213590Y155001D01*
X213813Y154722D01*
X213836Y154705D01*
X213914Y154634D01*
X214914Y154034D01*
X214927Y154030D01*
X214940Y154020D01*
X215540Y153720D01*
X215578Y153711D01*
X215648Y153685D01*
X217448Y153385D01*
X217486Y153387D01*
X217560Y153383D01*
X219060Y153583D01*
X219088Y153594D01*
X219130Y153599D01*
X220330Y153999D01*
X220363Y154020D01*
X220434Y154052D01*
X221534Y154852D01*
X221551Y154872D01*
X221579Y154891D01*
X222479Y155791D01*
X222499Y155824D01*
X222544Y155878D01*
X223144Y156978D01*
X223149Y156995D01*
X223161Y157014D01*
X223661Y158214D01*
X223666Y158241D01*
X223681Y158275D01*
X223981Y159575D01*
X223980Y159600D01*
X223989Y159633D01*
X224089Y161033D01*
X224086Y161056D01*
X224089Y161085D01*
X223989Y162585D01*
X223982Y162608D01*
X223982Y162640D01*
X223682Y164040D01*
X223675Y164053D01*
X223673Y164072D01*
X223273Y165372D01*
X223254Y165405D01*
X223231Y165464D01*
X222531Y166564D01*
X222511Y166583D01*
X222493Y166614D01*
X221593Y167614D01*
X221561Y167636D01*
X221514Y167681D01*
X220414Y168381D01*
X220382Y168392D01*
X220338Y168418D01*
X218938Y168918D01*
X218899Y168922D01*
X218835Y168939D01*
X217335Y169039D01*
X217324Y169038D01*
X217310Y169040D01*
X216610Y169040D01*
X216584Y169034D01*
X216548Y169035D01*
X215348Y168835D01*
X215336Y168830D01*
X215214Y168786D01*
X214214Y168186D01*
X214198Y168171D01*
X214172Y168157D01*
X213672Y167757D01*
X213661Y167742D01*
X213641Y167729D01*
X213490Y167578D01*
X213490Y168360D01*
X213490Y168361D01*
X213490Y168362D01*
X213470Y168445D01*
X213451Y168529D01*
X213450Y168530D01*
X213450Y168531D01*
X213396Y168595D01*
X213341Y168662D01*
X213340Y168663D01*
X213339Y168664D01*
X213260Y168699D01*
X213182Y168733D01*
X213181Y168733D01*
X213180Y168734D01*
X213035Y168733D01*
X212035Y168533D01*
X212028Y168529D01*
X212018Y168529D01*
X211627Y168431D01*
X211135Y168333D01*
X211128Y168329D01*
X211118Y168329D01*
X210763Y168240D01*
X210310Y168240D01*
X210280Y168233D01*
X210235Y168233D01*
X209735Y168133D01*
X209728Y168129D01*
X209718Y168129D01*
X209318Y168029D01*
X209314Y168027D01*
X209309Y168027D01*
X209237Y167987D01*
X209164Y167950D01*
X209161Y167946D01*
X209157Y167944D01*
X209110Y167877D01*
X209061Y167810D01*
X209060Y167806D01*
X209057Y167802D01*
X209030Y167660D01*
X209030Y149160D01*
X209032Y149150D01*
X209030Y149140D01*
X209043Y149097D01*
X209043Y149082D01*
X209052Y149066D01*
X209069Y148991D01*
X209076Y148983D01*
X209079Y148974D01*
X209172Y148863D01*
X209656Y148476D01*
X210541Y147591D01*
X210557Y147581D01*
X210572Y147563D01*
X212056Y146376D01*
X212941Y145491D01*
X212963Y145478D01*
X212979Y145458D01*
X213036Y145432D01*
X213088Y145400D01*
X213114Y145397D01*
X213138Y145387D01*
X213199Y145389D01*
X213261Y145383D01*
X213285Y145392D01*
G37*
G36*
X230347Y153388D02*
X230347Y153388D01*
X230430Y153399D01*
X230672Y153480D01*
X231010Y153480D01*
X231047Y153488D01*
X231130Y153499D01*
X231372Y153580D01*
X231610Y153580D01*
X231647Y153588D01*
X231730Y153599D01*
X232930Y153999D01*
X232963Y154019D01*
X233021Y154044D01*
X233279Y154215D01*
X233530Y154299D01*
X233563Y154319D01*
X233621Y154344D01*
X233921Y154544D01*
X233942Y154567D01*
X233979Y154591D01*
X234116Y154728D01*
X234130Y154708D01*
X234130Y154560D01*
X234147Y154486D01*
X234160Y154411D01*
X234167Y154401D01*
X234169Y154391D01*
X234193Y154362D01*
X234241Y154291D01*
X234247Y154285D01*
X234260Y154211D01*
X234267Y154201D01*
X234269Y154191D01*
X234293Y154162D01*
X234341Y154091D01*
X234342Y154090D01*
X234343Y154059D01*
X234361Y154027D01*
X234369Y153991D01*
X234402Y153952D01*
X234426Y153907D01*
X234456Y153886D01*
X234479Y153858D01*
X234526Y153837D01*
X234568Y153807D01*
X234610Y153799D01*
X234638Y153787D01*
X234668Y153788D01*
X234710Y153780D01*
X238610Y153780D01*
X238660Y153791D01*
X238711Y153793D01*
X238743Y153811D01*
X238779Y153819D01*
X238818Y153852D01*
X238863Y153876D01*
X238884Y153906D01*
X238912Y153929D01*
X238933Y153976D01*
X238963Y154018D01*
X238971Y154060D01*
X238983Y154088D01*
X238982Y154118D01*
X238990Y154160D01*
X238990Y154260D01*
X238973Y154334D01*
X238960Y154409D01*
X238953Y154419D01*
X238951Y154429D01*
X238927Y154458D01*
X238879Y154529D01*
X238823Y154585D01*
X238790Y154650D01*
X238790Y154860D01*
X238787Y154875D01*
X238789Y154890D01*
X238752Y155022D01*
X238751Y155029D01*
X238750Y155029D01*
X238750Y155030D01*
X238690Y155150D01*
X238690Y155260D01*
X238687Y155275D01*
X238689Y155290D01*
X238667Y155371D01*
X238666Y155382D01*
X238661Y155392D01*
X238652Y155422D01*
X238651Y155429D01*
X238650Y155429D01*
X238650Y155430D01*
X238590Y155550D01*
X238590Y156360D01*
X238587Y156375D01*
X238589Y156390D01*
X238552Y156522D01*
X238551Y156529D01*
X238550Y156529D01*
X238550Y156530D01*
X238490Y156650D01*
X238490Y165260D01*
X238483Y165290D01*
X238483Y165335D01*
X238383Y165835D01*
X238371Y165861D01*
X238363Y165901D01*
X238163Y166401D01*
X238155Y166413D01*
X238150Y166430D01*
X237950Y166830D01*
X237932Y166852D01*
X237914Y166888D01*
X237614Y167288D01*
X237589Y167309D01*
X237582Y167322D01*
X237567Y167333D01*
X237538Y167364D01*
X236338Y168264D01*
X236303Y168279D01*
X236251Y168313D01*
X235751Y168513D01*
X235722Y168517D01*
X235685Y168533D01*
X235219Y168626D01*
X234751Y168813D01*
X234722Y168817D01*
X234685Y168833D01*
X234185Y168933D01*
X234153Y168932D01*
X234110Y168940D01*
X233548Y168940D01*
X233085Y169033D01*
X233053Y169032D01*
X233010Y169040D01*
X230710Y169040D01*
X230680Y169033D01*
X230635Y169033D01*
X230141Y168934D01*
X229548Y168835D01*
X229524Y168825D01*
X229490Y168821D01*
X228912Y168628D01*
X228435Y168533D01*
X228409Y168521D01*
X228369Y168513D01*
X227869Y168313D01*
X227847Y168298D01*
X227814Y168286D01*
X226814Y167686D01*
X226802Y167674D01*
X226782Y167664D01*
X226382Y167364D01*
X226357Y167334D01*
X226306Y167288D01*
X226006Y166888D01*
X225999Y166872D01*
X225984Y166856D01*
X225694Y166372D01*
X225406Y165988D01*
X225391Y165954D01*
X225349Y165880D01*
X225149Y165280D01*
X225147Y165258D01*
X225139Y165240D01*
X225139Y165235D01*
X225135Y165223D01*
X224935Y164023D01*
X224940Y163941D01*
X224943Y163859D01*
X224946Y163855D01*
X224946Y163850D01*
X224987Y163779D01*
X225026Y163707D01*
X225030Y163704D01*
X225033Y163700D01*
X225101Y163654D01*
X225168Y163607D01*
X225173Y163606D01*
X225177Y163604D01*
X225205Y163600D01*
X225310Y163580D01*
X229210Y163580D01*
X229260Y163591D01*
X229311Y163593D01*
X229343Y163611D01*
X229379Y163619D01*
X229418Y163652D01*
X229463Y163676D01*
X229484Y163706D01*
X229512Y163729D01*
X229533Y163776D01*
X229563Y163818D01*
X229571Y163860D01*
X229583Y163888D01*
X229582Y163918D01*
X229590Y163960D01*
X229590Y164370D01*
X229650Y164490D01*
X229656Y164513D01*
X229671Y164540D01*
X229762Y164814D01*
X229823Y164935D01*
X230135Y165248D01*
X230815Y165587D01*
X231000Y165680D01*
X232620Y165680D01*
X232740Y165620D01*
X232755Y165616D01*
X232768Y165607D01*
X232902Y165581D01*
X232909Y165580D01*
X232910Y165580D01*
X233020Y165580D01*
X233427Y165377D01*
X233470Y165290D01*
X233494Y165261D01*
X233541Y165191D01*
X233598Y165135D01*
X233830Y164670D01*
X233830Y163787D01*
X233651Y163548D01*
X233250Y163308D01*
X232697Y163123D01*
X232031Y162933D01*
X231362Y162837D01*
X229568Y162638D01*
X228668Y162538D01*
X228647Y162530D01*
X228618Y162529D01*
X227818Y162329D01*
X227801Y162320D01*
X227777Y162316D01*
X226977Y162016D01*
X226955Y162001D01*
X226921Y161990D01*
X226221Y161590D01*
X226199Y161570D01*
X226163Y161549D01*
X225463Y160949D01*
X225443Y160922D01*
X225380Y160849D01*
X224980Y160149D01*
X224971Y160119D01*
X224949Y160080D01*
X224649Y159180D01*
X224648Y159163D01*
X224645Y159156D01*
X224645Y159151D01*
X224636Y159128D01*
X224436Y158028D01*
X224436Y158018D01*
X224437Y157885D01*
X224530Y157422D01*
X224530Y156960D01*
X224533Y156945D01*
X224531Y156930D01*
X224568Y156798D01*
X224569Y156791D01*
X224570Y156791D01*
X224570Y156790D01*
X224747Y156436D01*
X224837Y155985D01*
X224838Y155984D01*
X224838Y155983D01*
X224894Y155849D01*
X225094Y155549D01*
X225101Y155542D01*
X225106Y155532D01*
X225400Y155140D01*
X225594Y154849D01*
X225617Y154828D01*
X225641Y154791D01*
X225941Y154491D01*
X225973Y154471D01*
X226040Y154420D01*
X226419Y154231D01*
X226699Y154044D01*
X226719Y154036D01*
X226740Y154020D01*
X227140Y153820D01*
X227154Y153817D01*
X227169Y153807D01*
X227669Y153607D01*
X227691Y153604D01*
X227718Y153591D01*
X228118Y153491D01*
X228154Y153491D01*
X228210Y153480D01*
X228672Y153480D01*
X229135Y153387D01*
X229167Y153388D01*
X229210Y153380D01*
X230310Y153380D01*
X230347Y153388D01*
G37*
G36*
X254860Y153791D02*
X254860Y153791D01*
X254911Y153793D01*
X254943Y153811D01*
X254979Y153819D01*
X255018Y153852D01*
X255063Y153876D01*
X255084Y153906D01*
X255112Y153929D01*
X255133Y153976D01*
X255163Y154018D01*
X255171Y154060D01*
X255183Y154088D01*
X255182Y154118D01*
X255190Y154160D01*
X255190Y158895D01*
X256231Y159866D01*
X259887Y153960D01*
X259910Y153936D01*
X259926Y153907D01*
X259971Y153876D01*
X260009Y153837D01*
X260041Y153827D01*
X260068Y153807D01*
X260136Y153794D01*
X260173Y153782D01*
X260190Y153784D01*
X260210Y153780D01*
X264910Y153780D01*
X264982Y153797D01*
X265054Y153808D01*
X265065Y153816D01*
X265079Y153819D01*
X265135Y153866D01*
X265195Y153909D01*
X265202Y153921D01*
X265212Y153929D01*
X265242Y153997D01*
X265277Y154061D01*
X265278Y154075D01*
X265283Y154088D01*
X265280Y154161D01*
X265283Y154234D01*
X265277Y154248D01*
X265277Y154261D01*
X265258Y154295D01*
X265228Y154368D01*
X259499Y163107D01*
X264576Y168089D01*
X264591Y168112D01*
X264612Y168129D01*
X264637Y168184D01*
X264669Y168235D01*
X264672Y168262D01*
X264683Y168288D01*
X264681Y168348D01*
X264687Y168407D01*
X264678Y168433D01*
X264677Y168461D01*
X264648Y168513D01*
X264627Y168570D01*
X264607Y168589D01*
X264594Y168613D01*
X264545Y168647D01*
X264501Y168689D01*
X264475Y168697D01*
X264452Y168713D01*
X264372Y168728D01*
X264336Y168739D01*
X264324Y168738D01*
X264310Y168740D01*
X259710Y168740D01*
X259632Y168722D01*
X259554Y168707D01*
X259548Y168702D01*
X259541Y168701D01*
X259516Y168680D01*
X259436Y168623D01*
X255190Y164205D01*
X255190Y173660D01*
X255177Y173716D01*
X255173Y173773D01*
X255158Y173799D01*
X255151Y173829D01*
X255114Y173873D01*
X255085Y173923D01*
X255060Y173939D01*
X255041Y173962D01*
X254988Y173986D01*
X254940Y174017D01*
X254910Y174021D01*
X254882Y174033D01*
X254825Y174031D01*
X254768Y174038D01*
X254735Y174028D01*
X254709Y174027D01*
X254679Y174010D01*
X254630Y173995D01*
X250730Y171895D01*
X250696Y171865D01*
X250657Y171844D01*
X250632Y171809D01*
X250600Y171780D01*
X250583Y171739D01*
X250557Y171702D01*
X250548Y171652D01*
X250534Y171620D01*
X250536Y171594D01*
X250530Y171560D01*
X250530Y154160D01*
X250541Y154110D01*
X250543Y154059D01*
X250561Y154027D01*
X250569Y153991D01*
X250602Y153952D01*
X250626Y153907D01*
X250656Y153886D01*
X250679Y153858D01*
X250726Y153837D01*
X250768Y153807D01*
X250810Y153799D01*
X250838Y153787D01*
X250868Y153788D01*
X250910Y153780D01*
X254810Y153780D01*
X254860Y153791D01*
G37*
G36*
X294260Y153791D02*
X294260Y153791D01*
X294311Y153793D01*
X294343Y153811D01*
X294379Y153819D01*
X294418Y153852D01*
X294463Y153876D01*
X294484Y153906D01*
X294512Y153929D01*
X294533Y153976D01*
X294563Y154018D01*
X294571Y154060D01*
X294583Y154088D01*
X294582Y154118D01*
X294590Y154160D01*
X294590Y162539D01*
X294682Y163362D01*
X294949Y163987D01*
X295223Y164442D01*
X295564Y164869D01*
X295944Y165097D01*
X296465Y165184D01*
X297202Y165276D01*
X297741Y165186D01*
X298171Y165100D01*
X298551Y164872D01*
X298794Y164548D01*
X299047Y164126D01*
X299134Y163603D01*
X299233Y162909D01*
X299330Y162136D01*
X299330Y154160D01*
X299341Y154110D01*
X299343Y154059D01*
X299361Y154027D01*
X299369Y153991D01*
X299402Y153952D01*
X299426Y153907D01*
X299456Y153886D01*
X299479Y153858D01*
X299526Y153837D01*
X299568Y153807D01*
X299610Y153799D01*
X299638Y153787D01*
X299668Y153788D01*
X299710Y153780D01*
X303610Y153780D01*
X303660Y153791D01*
X303711Y153793D01*
X303743Y153811D01*
X303779Y153819D01*
X303818Y153852D01*
X303863Y153876D01*
X303884Y153906D01*
X303912Y153929D01*
X303933Y153976D01*
X303963Y154018D01*
X303971Y154060D01*
X303983Y154088D01*
X303982Y154118D01*
X303990Y154160D01*
X303990Y162860D01*
X303987Y162873D01*
X303989Y162889D01*
X303889Y164189D01*
X303884Y164206D01*
X303884Y164228D01*
X303684Y165328D01*
X303677Y165345D01*
X303674Y165369D01*
X303374Y166369D01*
X303355Y166402D01*
X303332Y166462D01*
X302832Y167262D01*
X302808Y167286D01*
X302779Y167329D01*
X302079Y168029D01*
X302046Y168049D01*
X301995Y168092D01*
X301095Y168592D01*
X301060Y168602D01*
X301010Y168627D01*
X299910Y168927D01*
X299879Y168928D01*
X299837Y168939D01*
X298437Y169039D01*
X298425Y169037D01*
X298410Y169040D01*
X297810Y169040D01*
X297784Y169034D01*
X297748Y169035D01*
X297148Y168935D01*
X297124Y168925D01*
X297090Y168921D01*
X295890Y168521D01*
X295857Y168501D01*
X295799Y168476D01*
X295199Y168076D01*
X295189Y168066D01*
X295172Y168057D01*
X294672Y167657D01*
X294661Y167642D01*
X294641Y167629D01*
X294390Y167378D01*
X294390Y168360D01*
X294379Y168410D01*
X294377Y168461D01*
X294359Y168493D01*
X294351Y168529D01*
X294318Y168568D01*
X294294Y168613D01*
X294264Y168634D01*
X294241Y168662D01*
X294194Y168683D01*
X294152Y168713D01*
X294110Y168721D01*
X294082Y168733D01*
X294052Y168732D01*
X294010Y168740D01*
X290310Y168740D01*
X290260Y168729D01*
X290209Y168727D01*
X290177Y168709D01*
X290141Y168701D01*
X290102Y168668D01*
X290057Y168644D01*
X290036Y168614D01*
X290008Y168591D01*
X289987Y168544D01*
X289957Y168502D01*
X289949Y168460D01*
X289937Y168432D01*
X289938Y168402D01*
X289930Y168360D01*
X289930Y154160D01*
X289941Y154110D01*
X289943Y154059D01*
X289961Y154027D01*
X289969Y153991D01*
X290002Y153952D01*
X290026Y153907D01*
X290056Y153886D01*
X290079Y153858D01*
X290126Y153837D01*
X290168Y153807D01*
X290210Y153799D01*
X290238Y153787D01*
X290268Y153788D01*
X290310Y153780D01*
X294210Y153780D01*
X294260Y153791D01*
G37*
G36*
X280118Y153386D02*
X280118Y153386D01*
X280173Y153385D01*
X280767Y153484D01*
X281464Y153584D01*
X281491Y153594D01*
X281530Y153599D01*
X282130Y153799D01*
X282139Y153805D01*
X282151Y153807D01*
X282651Y154007D01*
X282663Y154015D01*
X282680Y154020D01*
X283000Y154180D01*
X283280Y154320D01*
X283305Y154341D01*
X283348Y154363D01*
X283848Y154763D01*
X283869Y154790D01*
X283907Y154822D01*
X284130Y155101D01*
X284130Y154160D01*
X284141Y154110D01*
X284143Y154059D01*
X284161Y154027D01*
X284169Y153991D01*
X284202Y153952D01*
X284226Y153907D01*
X284256Y153886D01*
X284279Y153858D01*
X284326Y153837D01*
X284368Y153807D01*
X284410Y153799D01*
X284438Y153787D01*
X284468Y153788D01*
X284510Y153780D01*
X288210Y153780D01*
X288260Y153791D01*
X288311Y153793D01*
X288343Y153811D01*
X288379Y153819D01*
X288418Y153852D01*
X288463Y153876D01*
X288484Y153906D01*
X288512Y153929D01*
X288533Y153976D01*
X288563Y154018D01*
X288571Y154060D01*
X288583Y154088D01*
X288582Y154118D01*
X288590Y154160D01*
X288590Y168360D01*
X288579Y168410D01*
X288577Y168461D01*
X288559Y168493D01*
X288551Y168529D01*
X288518Y168568D01*
X288494Y168613D01*
X288464Y168634D01*
X288441Y168662D01*
X288394Y168683D01*
X288352Y168713D01*
X288310Y168721D01*
X288282Y168733D01*
X288252Y168732D01*
X288210Y168740D01*
X284310Y168740D01*
X284260Y168729D01*
X284209Y168727D01*
X284177Y168709D01*
X284141Y168701D01*
X284102Y168668D01*
X284057Y168644D01*
X284036Y168614D01*
X284008Y168591D01*
X283987Y168544D01*
X283957Y168502D01*
X283949Y168460D01*
X283937Y168432D01*
X283938Y168402D01*
X283930Y168360D01*
X283930Y159884D01*
X283839Y159160D01*
X283565Y158520D01*
X283298Y157985D01*
X282974Y157662D01*
X282576Y157423D01*
X282055Y157336D01*
X281318Y157244D01*
X280779Y157334D01*
X280349Y157420D01*
X279970Y157648D01*
X279470Y158314D01*
X279386Y158815D01*
X279190Y160384D01*
X279190Y168360D01*
X279179Y168410D01*
X279177Y168461D01*
X279159Y168493D01*
X279151Y168529D01*
X279118Y168568D01*
X279094Y168613D01*
X279064Y168634D01*
X279041Y168662D01*
X278994Y168683D01*
X278952Y168713D01*
X278910Y168721D01*
X278882Y168733D01*
X278852Y168732D01*
X278810Y168740D01*
X275010Y168740D01*
X274960Y168729D01*
X274909Y168727D01*
X274877Y168709D01*
X274841Y168701D01*
X274802Y168668D01*
X274757Y168644D01*
X274736Y168614D01*
X274708Y168591D01*
X274687Y168544D01*
X274657Y168502D01*
X274649Y168460D01*
X274637Y168432D01*
X274638Y168402D01*
X274630Y168360D01*
X274630Y158360D01*
X274636Y158332D01*
X274636Y158292D01*
X274836Y157192D01*
X274843Y157175D01*
X274846Y157151D01*
X275146Y156151D01*
X275162Y156122D01*
X275178Y156075D01*
X275678Y155175D01*
X275697Y155154D01*
X275763Y155071D01*
X276463Y154471D01*
X276491Y154457D01*
X276525Y154428D01*
X277425Y153928D01*
X277450Y153920D01*
X277480Y153903D01*
X278580Y153503D01*
X278619Y153498D01*
X278683Y153481D01*
X280083Y153381D01*
X280118Y153386D01*
G37*
G36*
X202542Y153481D02*
X202542Y153481D01*
X202555Y153485D01*
X202573Y153485D01*
X203773Y153685D01*
X203788Y153692D01*
X203810Y153693D01*
X204910Y153993D01*
X204938Y154008D01*
X204980Y154020D01*
X205300Y154180D01*
X205980Y154520D01*
X206009Y154544D01*
X206060Y154574D01*
X206860Y155274D01*
X206879Y155300D01*
X206914Y155332D01*
X207514Y156132D01*
X207530Y156168D01*
X207567Y156230D01*
X207967Y157330D01*
X207971Y157361D01*
X207986Y157402D01*
X208186Y158702D01*
X208183Y158740D01*
X208188Y158802D01*
X208088Y159702D01*
X208075Y159739D01*
X208060Y159810D01*
X207760Y160510D01*
X207742Y160534D01*
X207726Y160571D01*
X207326Y161171D01*
X207298Y161198D01*
X207253Y161252D01*
X206653Y161752D01*
X206628Y161765D01*
X206599Y161790D01*
X205199Y162590D01*
X205161Y162601D01*
X205093Y162631D01*
X204198Y162830D01*
X201802Y163429D01*
X201782Y163429D01*
X201757Y163437D01*
X200995Y163533D01*
X200456Y163712D01*
X199911Y163985D01*
X199582Y164232D01*
X199360Y164527D01*
X199290Y164807D01*
X199290Y165045D01*
X199554Y165441D01*
X199716Y165495D01*
X200102Y165591D01*
X200114Y165597D01*
X200130Y165599D01*
X200372Y165680D01*
X201937Y165680D01*
X202354Y165513D01*
X202719Y165331D01*
X202936Y165186D01*
X203072Y164982D01*
X203244Y164551D01*
X203337Y164085D01*
X203343Y164073D01*
X203343Y164059D01*
X203379Y163995D01*
X203409Y163928D01*
X203420Y163919D01*
X203426Y163907D01*
X203486Y163865D01*
X203543Y163818D01*
X203557Y163815D01*
X203568Y163807D01*
X203710Y163780D01*
X207410Y163780D01*
X207490Y163798D01*
X207570Y163815D01*
X207574Y163818D01*
X207579Y163819D01*
X207642Y163872D01*
X207706Y163922D01*
X207708Y163926D01*
X207712Y163929D01*
X207746Y164004D01*
X207781Y164078D01*
X207781Y164083D01*
X207783Y164088D01*
X207782Y164115D01*
X207785Y164223D01*
X207585Y165423D01*
X207570Y165459D01*
X207550Y165530D01*
X207050Y166530D01*
X207032Y166552D01*
X207014Y166588D01*
X206414Y167388D01*
X206384Y167413D01*
X206338Y167464D01*
X205538Y168064D01*
X205506Y168078D01*
X205464Y168107D01*
X204564Y168507D01*
X204544Y168511D01*
X204519Y168524D01*
X203519Y168824D01*
X203500Y168825D01*
X203478Y168834D01*
X202378Y169034D01*
X202349Y169033D01*
X202310Y169040D01*
X200010Y169040D01*
X199982Y169034D01*
X199942Y169034D01*
X198842Y168834D01*
X198839Y168833D01*
X198835Y168833D01*
X197835Y168633D01*
X197801Y168617D01*
X197740Y168600D01*
X197640Y168550D01*
X196880Y168170D01*
X196740Y168100D01*
X196712Y168077D01*
X196663Y168049D01*
X195963Y167449D01*
X195948Y167430D01*
X195924Y167410D01*
X195224Y166610D01*
X195208Y166580D01*
X195157Y166501D01*
X194757Y165501D01*
X194751Y165462D01*
X194731Y165392D01*
X194631Y164192D01*
X194636Y164161D01*
X194632Y164118D01*
X194732Y163218D01*
X194742Y163191D01*
X194743Y163166D01*
X194752Y163148D01*
X194761Y163110D01*
X195061Y162410D01*
X195078Y162387D01*
X195094Y162349D01*
X195494Y161749D01*
X195495Y161748D01*
X195496Y161746D01*
X195599Y161644D01*
X196199Y161244D01*
X196210Y161239D01*
X196221Y161230D01*
X196921Y160830D01*
X196940Y160824D01*
X196960Y160811D01*
X197660Y160511D01*
X197668Y160509D01*
X197677Y160504D01*
X198477Y160204D01*
X198500Y160201D01*
X198528Y160189D01*
X199428Y159989D01*
X199431Y159989D01*
X199435Y159987D01*
X200427Y159789D01*
X202004Y159395D01*
X202550Y159212D01*
X202998Y158944D01*
X203310Y158710D01*
X203451Y158427D01*
X203518Y158160D01*
X203367Y157554D01*
X203160Y157348D01*
X202809Y157085D01*
X202477Y156919D01*
X202163Y156840D01*
X201810Y156840D01*
X201774Y156832D01*
X201718Y156829D01*
X201394Y156748D01*
X200879Y156834D01*
X200385Y156933D01*
X200379Y156933D01*
X200373Y156935D01*
X199864Y157020D01*
X199182Y157532D01*
X198944Y157848D01*
X198790Y158233D01*
X198790Y158760D01*
X198779Y158810D01*
X198777Y158861D01*
X198759Y158893D01*
X198751Y158929D01*
X198718Y158968D01*
X198694Y159013D01*
X198664Y159034D01*
X198641Y159062D01*
X198594Y159083D01*
X198552Y159113D01*
X198510Y159121D01*
X198482Y159133D01*
X198452Y159132D01*
X198410Y159140D01*
X194710Y159140D01*
X194633Y159122D01*
X194555Y159107D01*
X194549Y159103D01*
X194541Y159101D01*
X194480Y159050D01*
X194417Y159002D01*
X194413Y158995D01*
X194408Y158991D01*
X194375Y158918D01*
X194340Y158847D01*
X194340Y158839D01*
X194337Y158832D01*
X194338Y158799D01*
X194334Y158702D01*
X194534Y157402D01*
X194547Y157370D01*
X194557Y157319D01*
X194957Y156319D01*
X194979Y156287D01*
X195010Y156227D01*
X195710Y155327D01*
X195734Y155307D01*
X195760Y155274D01*
X196560Y154574D01*
X196593Y154556D01*
X196640Y154520D01*
X197640Y154020D01*
X197670Y154013D01*
X197710Y153993D01*
X198810Y153693D01*
X198827Y153693D01*
X198848Y153685D01*
X200048Y153485D01*
X200062Y153486D01*
X200078Y153481D01*
X201278Y153381D01*
X201305Y153385D01*
X201342Y153381D01*
X202542Y153481D01*
G37*
%LPC*%
G36*
X169703Y169849D02*
X169703Y169849D01*
X168805Y169949D01*
X168802Y169947D01*
X168800Y169949D01*
X168608Y169949D01*
X167421Y170345D01*
X166626Y170842D01*
X166623Y170841D01*
X166622Y170844D01*
X166428Y170941D01*
X165535Y171735D01*
X164741Y172628D01*
X164146Y173719D01*
X163848Y174810D01*
X163649Y176004D01*
X163649Y176296D01*
X163848Y177490D01*
X164146Y178581D01*
X164741Y179673D01*
X165434Y180564D01*
X165727Y180759D01*
X165729Y180763D01*
X165732Y180763D01*
X166432Y181363D01*
X166433Y181365D01*
X166435Y181365D01*
X166629Y181559D01*
X167419Y181954D01*
X167716Y182053D01*
X167716Y182054D01*
X167717Y182054D01*
X168509Y182351D01*
X168800Y182351D01*
X168805Y182354D01*
X168808Y182351D01*
X170000Y182550D01*
X171192Y182351D01*
X171197Y182354D01*
X171200Y182351D01*
X171491Y182351D01*
X172283Y182054D01*
X172284Y182054D01*
X172284Y182053D01*
X172581Y181954D01*
X173375Y181557D01*
X173670Y181361D01*
X174564Y180566D01*
X175259Y179672D01*
X175855Y178679D01*
X176251Y177490D01*
X176351Y176298D01*
X176351Y176002D01*
X176251Y174811D01*
X175855Y173720D01*
X175259Y172627D01*
X174564Y171734D01*
X173675Y170944D01*
X173384Y170847D01*
X173380Y170840D01*
X173374Y170842D01*
X172576Y170343D01*
X172383Y170247D01*
X171489Y170048D01*
X171487Y170045D01*
X171484Y170047D01*
X171190Y169949D01*
X169998Y169849D01*
X169703Y169849D01*
G37*
%LPD*%
G36*
X271160Y153791D02*
X271160Y153791D01*
X271211Y153793D01*
X271243Y153811D01*
X271279Y153819D01*
X271318Y153852D01*
X271363Y153876D01*
X271384Y153906D01*
X271412Y153929D01*
X271433Y153976D01*
X271463Y154018D01*
X271471Y154060D01*
X271483Y154088D01*
X271482Y154118D01*
X271490Y154160D01*
X271490Y165380D01*
X273810Y165380D01*
X273860Y165391D01*
X273911Y165393D01*
X273943Y165411D01*
X273979Y165419D01*
X274018Y165452D01*
X274063Y165476D01*
X274084Y165506D01*
X274112Y165529D01*
X274133Y165576D01*
X274163Y165618D01*
X274171Y165660D01*
X274183Y165688D01*
X274182Y165718D01*
X274190Y165760D01*
X274190Y168360D01*
X274179Y168410D01*
X274177Y168461D01*
X274159Y168493D01*
X274151Y168529D01*
X274118Y168568D01*
X274094Y168613D01*
X274064Y168634D01*
X274041Y168662D01*
X273994Y168683D01*
X273952Y168713D01*
X273910Y168721D01*
X273882Y168733D01*
X273852Y168732D01*
X273810Y168740D01*
X271490Y168740D01*
X271490Y169113D01*
X271579Y169468D01*
X271579Y169504D01*
X271590Y169560D01*
X271590Y169870D01*
X271640Y169969D01*
X271770Y170165D01*
X271780Y170170D01*
X272043Y170301D01*
X272357Y170380D01*
X274010Y170380D01*
X274060Y170391D01*
X274111Y170393D01*
X274143Y170411D01*
X274179Y170419D01*
X274218Y170452D01*
X274263Y170476D01*
X274284Y170506D01*
X274312Y170529D01*
X274333Y170576D01*
X274363Y170618D01*
X274371Y170660D01*
X274383Y170688D01*
X274382Y170718D01*
X274390Y170760D01*
X274390Y173560D01*
X274379Y173609D01*
X274377Y173659D01*
X274359Y173692D01*
X274351Y173729D01*
X274319Y173768D01*
X274295Y173812D01*
X274260Y173838D01*
X274241Y173862D01*
X274213Y173875D01*
X274180Y173900D01*
X273980Y174000D01*
X273965Y174004D01*
X273952Y174013D01*
X273818Y174039D01*
X273812Y174040D01*
X273811Y174040D01*
X273810Y174040D01*
X270910Y174040D01*
X270872Y174031D01*
X270801Y174024D01*
X269801Y173724D01*
X269777Y173710D01*
X269740Y173700D01*
X269366Y173513D01*
X268940Y173300D01*
X268920Y173284D01*
X268889Y173269D01*
X268189Y172769D01*
X268164Y172741D01*
X268118Y172703D01*
X267618Y172103D01*
X267600Y172068D01*
X267561Y172010D01*
X267261Y171310D01*
X267259Y171302D01*
X267254Y171294D01*
X266954Y170494D01*
X266951Y170467D01*
X266930Y170360D01*
X266930Y168740D01*
X266110Y168740D01*
X266094Y168737D01*
X266078Y168739D01*
X266011Y168717D01*
X265941Y168701D01*
X265929Y168690D01*
X265913Y168685D01*
X265817Y168598D01*
X265808Y168591D01*
X265807Y168589D01*
X265806Y168588D01*
X265538Y168232D01*
X265182Y167964D01*
X265167Y167946D01*
X265141Y167929D01*
X263560Y166348D01*
X263182Y166064D01*
X263148Y166024D01*
X263108Y165991D01*
X263093Y165958D01*
X263071Y165931D01*
X263058Y165880D01*
X263037Y165832D01*
X263038Y165797D01*
X263030Y165763D01*
X263041Y165712D01*
X263043Y165659D01*
X263060Y165628D01*
X263068Y165594D01*
X263101Y165553D01*
X263126Y165507D01*
X263155Y165487D01*
X263177Y165459D01*
X263225Y165438D01*
X263268Y165407D01*
X263308Y165400D01*
X263335Y165387D01*
X263366Y165388D01*
X263410Y165380D01*
X266930Y165380D01*
X266930Y154160D01*
X266941Y154110D01*
X266943Y154059D01*
X266961Y154027D01*
X266969Y153991D01*
X267002Y153952D01*
X267026Y153907D01*
X267056Y153886D01*
X267079Y153858D01*
X267126Y153837D01*
X267168Y153807D01*
X267210Y153799D01*
X267238Y153787D01*
X267268Y153788D01*
X267310Y153780D01*
X271110Y153780D01*
X271160Y153791D01*
G37*
G36*
X179847Y187087D02*
X179847Y187087D01*
X179842Y187094D01*
X179849Y187100D01*
X179849Y192200D01*
X179833Y192221D01*
X179835Y192235D01*
X179735Y192335D01*
X179708Y192339D01*
X179700Y192349D01*
X160200Y192349D01*
X160153Y192313D01*
X160158Y192306D01*
X160151Y192300D01*
X160151Y187200D01*
X160176Y187167D01*
X160178Y187156D01*
X160378Y187056D01*
X160394Y187059D01*
X160400Y187051D01*
X179800Y187051D01*
X179847Y187087D01*
G37*
G36*
X170309Y127658D02*
X170309Y127658D01*
X170316Y127653D01*
X170616Y127753D01*
X170628Y127772D01*
X170641Y127773D01*
X170841Y128073D01*
X170841Y128077D01*
X170844Y128078D01*
X170944Y128278D01*
X170941Y128294D01*
X170949Y128300D01*
X170949Y128598D01*
X172449Y156197D01*
X172448Y156199D01*
X172449Y156200D01*
X172449Y156800D01*
X172440Y156813D01*
X172444Y156822D01*
X172346Y157019D01*
X172247Y157316D01*
X172239Y157321D01*
X172241Y157327D01*
X172041Y157627D01*
X172034Y157630D01*
X172035Y157635D01*
X171635Y158035D01*
X171628Y158036D01*
X171627Y158041D01*
X171327Y158241D01*
X171323Y158241D01*
X171322Y158244D01*
X171122Y158344D01*
X171117Y158343D01*
X171116Y158347D01*
X170516Y158547D01*
X170505Y158543D01*
X170500Y158549D01*
X169900Y158549D01*
X169891Y158542D01*
X169884Y158547D01*
X169284Y158347D01*
X169281Y158342D01*
X169278Y158344D01*
X169078Y158244D01*
X169076Y158240D01*
X169073Y158241D01*
X168773Y158041D01*
X168770Y158034D01*
X168765Y158035D01*
X168165Y157435D01*
X168163Y157420D01*
X168161Y157418D01*
X168153Y157416D01*
X167953Y156816D01*
X167957Y156805D01*
X167951Y156800D01*
X167951Y156200D01*
X167952Y156199D01*
X167951Y156198D01*
X169151Y128698D01*
X169151Y128400D01*
X169158Y128391D01*
X169153Y128384D01*
X169253Y128084D01*
X169267Y128075D01*
X169265Y128065D01*
X169665Y127665D01*
X169692Y127662D01*
X169700Y127651D01*
X170300Y127651D01*
X170309Y127658D01*
G37*
G36*
X244260Y153791D02*
X244260Y153791D01*
X244311Y153793D01*
X244343Y153811D01*
X244379Y153819D01*
X244418Y153852D01*
X244463Y153876D01*
X244484Y153906D01*
X244512Y153929D01*
X244533Y153976D01*
X244563Y154018D01*
X244571Y154060D01*
X244583Y154088D01*
X244582Y154118D01*
X244590Y154160D01*
X244590Y161418D01*
X244779Y162266D01*
X244963Y162911D01*
X245324Y163542D01*
X245758Y164064D01*
X246353Y164404D01*
X247075Y164584D01*
X248029Y164680D01*
X249020Y164680D01*
X249140Y164620D01*
X249155Y164616D01*
X249168Y164607D01*
X249302Y164581D01*
X249309Y164580D01*
X249310Y164580D01*
X249410Y164580D01*
X249460Y164591D01*
X249511Y164593D01*
X249543Y164611D01*
X249579Y164619D01*
X249618Y164652D01*
X249663Y164676D01*
X249684Y164706D01*
X249712Y164729D01*
X249733Y164776D01*
X249763Y164818D01*
X249771Y164860D01*
X249783Y164888D01*
X249782Y164918D01*
X249790Y164960D01*
X249790Y168560D01*
X249779Y168610D01*
X249777Y168661D01*
X249759Y168693D01*
X249751Y168729D01*
X249718Y168768D01*
X249694Y168813D01*
X249664Y168834D01*
X249641Y168862D01*
X249594Y168883D01*
X249552Y168913D01*
X249510Y168921D01*
X249482Y168933D01*
X249472Y168933D01*
X249414Y168969D01*
X249352Y169013D01*
X249340Y169015D01*
X249332Y169020D01*
X249295Y169024D01*
X249210Y169040D01*
X247810Y169040D01*
X247772Y169031D01*
X247706Y169026D01*
X247006Y168826D01*
X246999Y168822D01*
X246990Y168821D01*
X246390Y168621D01*
X246363Y168604D01*
X246321Y168590D01*
X245621Y168190D01*
X245603Y168173D01*
X245572Y168157D01*
X245072Y167757D01*
X245053Y167732D01*
X245018Y167703D01*
X244518Y167103D01*
X244516Y167100D01*
X244513Y167098D01*
X244390Y166944D01*
X244390Y168360D01*
X244388Y168370D01*
X244390Y168380D01*
X244368Y168454D01*
X244351Y168529D01*
X244344Y168537D01*
X244341Y168547D01*
X244290Y168603D01*
X244241Y168662D01*
X244231Y168667D01*
X244224Y168674D01*
X244153Y168702D01*
X244082Y168733D01*
X244072Y168733D01*
X244062Y168737D01*
X243918Y168729D01*
X243527Y168631D01*
X242535Y168433D01*
X242528Y168429D01*
X242518Y168429D01*
X242127Y168331D01*
X241672Y168240D01*
X241210Y168240D01*
X241174Y168232D01*
X241118Y168229D01*
X240727Y168131D01*
X240235Y168033D01*
X240223Y168027D01*
X240209Y168027D01*
X240145Y167992D01*
X240078Y167961D01*
X240069Y167950D01*
X240057Y167944D01*
X240015Y167884D01*
X239968Y167827D01*
X239965Y167813D01*
X239957Y167802D01*
X239930Y167660D01*
X239930Y154160D01*
X239941Y154110D01*
X239943Y154059D01*
X239961Y154027D01*
X239969Y153991D01*
X240002Y153952D01*
X240026Y153907D01*
X240056Y153886D01*
X240079Y153858D01*
X240126Y153837D01*
X240168Y153807D01*
X240210Y153799D01*
X240238Y153787D01*
X240268Y153788D01*
X240310Y153780D01*
X244210Y153780D01*
X244260Y153791D01*
G37*
G36*
X166813Y151660D02*
X166813Y151660D01*
X166822Y151656D01*
X167022Y151756D01*
X167032Y151776D01*
X167044Y151785D01*
X167040Y151792D01*
X167042Y151796D01*
X167049Y151802D01*
X166849Y156301D01*
X166849Y156892D01*
X167046Y157481D01*
X167144Y157678D01*
X167143Y157683D01*
X167147Y157684D01*
X167245Y157978D01*
X167438Y158269D01*
X168231Y159062D01*
X168522Y159255D01*
X168816Y159353D01*
X168819Y159358D01*
X168822Y159356D01*
X169019Y159454D01*
X169608Y159651D01*
X170492Y159651D01*
X170784Y159553D01*
X170795Y159557D01*
X170800Y159551D01*
X171092Y159551D01*
X171384Y159453D01*
X171673Y159357D01*
X171865Y159165D01*
X171881Y159163D01*
X171884Y159153D01*
X172173Y159057D01*
X172365Y158865D01*
X172562Y158669D01*
X172759Y158373D01*
X172766Y158370D01*
X172765Y158365D01*
X172962Y158169D01*
X173157Y157875D01*
X173254Y157681D01*
X173551Y156792D01*
X173551Y156201D01*
X173351Y151702D01*
X173385Y151653D01*
X173393Y151659D01*
X173400Y151651D01*
X176000Y151651D01*
X176009Y151658D01*
X176016Y151653D01*
X176316Y151753D01*
X176328Y151772D01*
X176341Y151773D01*
X176541Y152073D01*
X176541Y152079D01*
X176543Y152081D01*
X176540Y152085D01*
X176540Y152093D01*
X176549Y152100D01*
X176549Y161100D01*
X176542Y161109D01*
X176547Y161116D01*
X176447Y161416D01*
X176433Y161425D01*
X176435Y161435D01*
X176235Y161635D01*
X176223Y161636D01*
X176222Y161644D01*
X176022Y161744D01*
X176009Y161742D01*
X176005Y161747D01*
X176002Y161747D01*
X176000Y161749D01*
X164000Y161749D01*
X163997Y161747D01*
X163984Y161737D01*
X163973Y161741D01*
X163673Y161541D01*
X163670Y161534D01*
X163665Y161535D01*
X163465Y161335D01*
X163464Y161322D01*
X163456Y161317D01*
X163462Y161310D01*
X163462Y161308D01*
X163451Y161300D01*
X163451Y152300D01*
X163458Y152291D01*
X163453Y152284D01*
X163553Y151984D01*
X163567Y151975D01*
X163565Y151965D01*
X163765Y151765D01*
X163781Y151763D01*
X163784Y151753D01*
X164084Y151653D01*
X164095Y151657D01*
X164100Y151651D01*
X166800Y151651D01*
X166813Y151660D01*
G37*
G36*
X225208Y81257D02*
X225208Y81257D01*
X225214Y81253D01*
X225914Y81453D01*
X225918Y81458D01*
X225922Y81456D01*
X226522Y81756D01*
X226523Y81759D01*
X226525Y81758D01*
X227025Y82058D01*
X227027Y82063D01*
X227032Y82062D01*
X227632Y82562D01*
X227633Y82569D01*
X227638Y82569D01*
X228038Y83069D01*
X228039Y83073D01*
X228041Y83073D01*
X228441Y83673D01*
X228441Y83677D01*
X228444Y83678D01*
X228744Y84278D01*
X228743Y84283D01*
X228747Y84284D01*
X228947Y84884D01*
X228945Y84891D01*
X228949Y84893D01*
X229049Y85593D01*
X229046Y85598D01*
X229049Y85600D01*
X229049Y87000D01*
X229042Y87009D01*
X229047Y87016D01*
X228647Y88216D01*
X228642Y88219D01*
X228644Y88222D01*
X228344Y88822D01*
X228340Y88824D01*
X228341Y88827D01*
X227941Y89427D01*
X227931Y89431D01*
X227931Y89438D01*
X227431Y89838D01*
X226832Y90338D01*
X226823Y90338D01*
X226822Y90344D01*
X226222Y90644D01*
X226217Y90643D01*
X226216Y90647D01*
X225016Y91047D01*
X225005Y91043D01*
X225000Y91049D01*
X223900Y91049D01*
X223896Y91046D01*
X223893Y91049D01*
X223193Y90949D01*
X223188Y90944D01*
X223184Y90947D01*
X222584Y90747D01*
X222581Y90742D01*
X222578Y90744D01*
X221978Y90444D01*
X221976Y90440D01*
X221973Y90441D01*
X221373Y90041D01*
X221370Y90034D01*
X221365Y90035D01*
X220865Y89535D01*
X220865Y89531D01*
X220862Y89531D01*
X220462Y89031D01*
X220461Y89027D01*
X220459Y89027D01*
X220059Y88427D01*
X220060Y88418D01*
X220053Y88416D01*
X219653Y87216D01*
X219655Y87209D01*
X219651Y87207D01*
X219551Y86507D01*
X219554Y86502D01*
X219551Y86500D01*
X219551Y85800D01*
X219554Y85796D01*
X219551Y85793D01*
X219651Y85093D01*
X219656Y85088D01*
X219653Y85084D01*
X220053Y83884D01*
X220061Y83879D01*
X220059Y83873D01*
X220459Y83273D01*
X220462Y83272D01*
X220462Y83269D01*
X220862Y82769D01*
X220866Y82768D01*
X220865Y82765D01*
X221365Y82265D01*
X221372Y82264D01*
X221373Y82259D01*
X221973Y81859D01*
X221977Y81859D01*
X221978Y81856D01*
X222578Y81556D01*
X222583Y81557D01*
X222584Y81553D01*
X223184Y81353D01*
X223191Y81355D01*
X223193Y81351D01*
X223893Y81251D01*
X223898Y81254D01*
X223900Y81251D01*
X225200Y81251D01*
X225208Y81257D01*
G37*
G36*
X240005Y5254D02*
X240005Y5254D01*
X240008Y5251D01*
X240608Y5351D01*
X240611Y5355D01*
X240614Y5353D01*
X241314Y5553D01*
X241318Y5558D01*
X241322Y5556D01*
X241922Y5856D01*
X241923Y5859D01*
X241925Y5858D01*
X242425Y6158D01*
X242429Y6166D01*
X242435Y6165D01*
X243435Y7165D01*
X243436Y7172D01*
X243441Y7173D01*
X243841Y7773D01*
X243840Y7782D01*
X243847Y7784D01*
X244247Y8984D01*
X244245Y8991D01*
X244249Y8993D01*
X244349Y9693D01*
X244346Y9698D01*
X244349Y9700D01*
X244349Y10400D01*
X244346Y10404D01*
X244349Y10407D01*
X244249Y11107D01*
X244245Y11111D01*
X244247Y11114D01*
X244047Y11814D01*
X244040Y11819D01*
X244042Y11825D01*
X243743Y12323D01*
X243444Y12922D01*
X243434Y12927D01*
X243435Y12935D01*
X242435Y13935D01*
X242423Y13936D01*
X242422Y13944D01*
X241222Y14544D01*
X241217Y14543D01*
X241216Y14547D01*
X240616Y14747D01*
X240609Y14745D01*
X240607Y14749D01*
X239907Y14849D01*
X239902Y14846D01*
X239900Y14849D01*
X236700Y14849D01*
X236685Y14838D01*
X236675Y14842D01*
X236175Y14542D01*
X236166Y14520D01*
X236153Y14516D01*
X235953Y13916D01*
X235957Y13905D01*
X235951Y13900D01*
X235951Y6400D01*
X235954Y6396D01*
X235951Y6393D01*
X236051Y5693D01*
X236070Y5674D01*
X236070Y5661D01*
X236470Y5361D01*
X236488Y5361D01*
X236494Y5351D01*
X237294Y5251D01*
X237298Y5253D01*
X237300Y5251D01*
X240000Y5251D01*
X240005Y5254D01*
G37*
G36*
X328205Y162254D02*
X328205Y162254D01*
X328208Y162251D01*
X328808Y162351D01*
X328811Y162355D01*
X328814Y162353D01*
X329514Y162553D01*
X329518Y162558D01*
X329522Y162556D01*
X330122Y162856D01*
X330123Y162859D01*
X330125Y162858D01*
X330625Y163158D01*
X330629Y163166D01*
X330635Y163165D01*
X331635Y164165D01*
X331636Y164177D01*
X331644Y164178D01*
X332244Y165378D01*
X332243Y165383D01*
X332247Y165384D01*
X332447Y165984D01*
X332445Y165991D01*
X332449Y165993D01*
X332549Y166693D01*
X332546Y166698D01*
X332549Y166700D01*
X332549Y167400D01*
X332546Y167404D01*
X332549Y167407D01*
X332449Y168107D01*
X332445Y168111D01*
X332447Y168114D01*
X332247Y168814D01*
X332240Y168819D01*
X332242Y168825D01*
X331943Y169323D01*
X331644Y169922D01*
X331634Y169927D01*
X331635Y169935D01*
X330635Y170935D01*
X330623Y170936D01*
X330622Y170944D01*
X329422Y171544D01*
X329417Y171543D01*
X329416Y171547D01*
X328816Y171747D01*
X328809Y171745D01*
X328807Y171749D01*
X328107Y171849D01*
X328102Y171846D01*
X328100Y171849D01*
X324900Y171849D01*
X324885Y171838D01*
X324875Y171842D01*
X324375Y171542D01*
X324366Y171520D01*
X324353Y171516D01*
X324153Y170916D01*
X324157Y170905D01*
X324151Y170900D01*
X324151Y163400D01*
X324154Y163396D01*
X324151Y163393D01*
X324251Y162693D01*
X324270Y162674D01*
X324270Y162661D01*
X324670Y162361D01*
X324688Y162361D01*
X324693Y162351D01*
X325393Y162251D01*
X325398Y162254D01*
X325400Y162251D01*
X328200Y162251D01*
X328205Y162254D01*
G37*
G36*
X345404Y162254D02*
X345404Y162254D01*
X345407Y162251D01*
X346107Y162351D01*
X346112Y162356D01*
X346116Y162353D01*
X346716Y162553D01*
X346747Y162599D01*
X346754Y162582D01*
X346805Y162551D01*
X346812Y162563D01*
X346825Y162558D01*
X347323Y162857D01*
X347922Y163156D01*
X347927Y163166D01*
X347935Y163165D01*
X348935Y164165D01*
X348936Y164177D01*
X348944Y164178D01*
X349544Y165378D01*
X349543Y165383D01*
X349547Y165384D01*
X349747Y165984D01*
X349745Y165991D01*
X349749Y165993D01*
X349849Y166693D01*
X349846Y166698D01*
X349849Y166700D01*
X349849Y167400D01*
X349846Y167404D01*
X349849Y167407D01*
X349749Y168107D01*
X349745Y168111D01*
X349747Y168114D01*
X349547Y168814D01*
X349540Y168819D01*
X349542Y168825D01*
X349242Y169325D01*
X349241Y169326D01*
X349241Y169327D01*
X348841Y169927D01*
X348838Y169928D01*
X348838Y169931D01*
X348438Y170431D01*
X348431Y170433D01*
X348432Y170438D01*
X347832Y170938D01*
X347826Y170938D01*
X347825Y170942D01*
X347325Y171242D01*
X347322Y171242D01*
X347322Y171244D01*
X346722Y171544D01*
X346715Y171543D01*
X346714Y171547D01*
X346014Y171747D01*
X346010Y171746D01*
X346008Y171749D01*
X345408Y171849D01*
X345403Y171846D01*
X345400Y171849D01*
X342100Y171849D01*
X342082Y171836D01*
X342070Y171839D01*
X341670Y171539D01*
X341666Y171523D01*
X341665Y171519D01*
X341653Y171516D01*
X341453Y170916D01*
X341457Y170905D01*
X341451Y170900D01*
X341451Y163400D01*
X341454Y163396D01*
X341451Y163393D01*
X341551Y162693D01*
X341567Y162678D01*
X341565Y162665D01*
X341865Y162365D01*
X341888Y162362D01*
X341894Y162351D01*
X342694Y162251D01*
X342698Y162253D01*
X342700Y162251D01*
X345400Y162251D01*
X345404Y162254D01*
G37*
G36*
X223804Y5254D02*
X223804Y5254D01*
X223807Y5251D01*
X224507Y5351D01*
X224512Y5356D01*
X224516Y5353D01*
X225116Y5553D01*
X225119Y5558D01*
X225122Y5556D01*
X226322Y6156D01*
X226327Y6166D01*
X226335Y6165D01*
X226835Y6665D01*
X226835Y6669D01*
X226838Y6669D01*
X227238Y7169D01*
X227239Y7173D01*
X227241Y7173D01*
X227641Y7773D01*
X227640Y7782D01*
X227647Y7784D01*
X228047Y8984D01*
X228045Y8991D01*
X228049Y8993D01*
X228149Y9693D01*
X228146Y9698D01*
X228149Y9700D01*
X228149Y10400D01*
X228146Y10404D01*
X228149Y10407D01*
X228049Y11107D01*
X228045Y11111D01*
X228047Y11114D01*
X227847Y11814D01*
X227844Y11816D01*
X227846Y11818D01*
X227646Y12318D01*
X227639Y12322D01*
X227641Y12327D01*
X227241Y12927D01*
X227234Y12930D01*
X227235Y12935D01*
X226235Y13935D01*
X226223Y13936D01*
X226222Y13944D01*
X225022Y14544D01*
X225017Y14543D01*
X225016Y14547D01*
X224416Y14747D01*
X224409Y14745D01*
X224407Y14749D01*
X223707Y14849D01*
X223702Y14846D01*
X223700Y14849D01*
X220500Y14849D01*
X220485Y14838D01*
X220475Y14842D01*
X219975Y14542D01*
X219964Y14514D01*
X219951Y14508D01*
X219851Y13908D01*
X219854Y13903D01*
X219851Y13900D01*
X219851Y5700D01*
X219870Y5674D01*
X219870Y5661D01*
X220270Y5361D01*
X220288Y5361D01*
X220294Y5351D01*
X221094Y5251D01*
X221098Y5253D01*
X221100Y5251D01*
X223800Y5251D01*
X223804Y5254D01*
G37*
G36*
X190309Y133658D02*
X190309Y133658D01*
X190316Y133653D01*
X190616Y133753D01*
X190625Y133767D01*
X190635Y133765D01*
X191035Y134165D01*
X191036Y134177D01*
X191040Y134179D01*
X191038Y134182D01*
X191047Y134184D01*
X191147Y134484D01*
X191143Y134495D01*
X191149Y134500D01*
X191149Y134800D01*
X191137Y134816D01*
X191141Y134827D01*
X190941Y135127D01*
X190941Y135128D01*
X177741Y154428D01*
X177724Y154433D01*
X177713Y154447D01*
X177704Y154440D01*
X177684Y154447D01*
X177675Y154418D01*
X177651Y154400D01*
X177651Y152208D01*
X177453Y151616D01*
X177357Y151327D01*
X176773Y150743D01*
X176484Y150647D01*
X176192Y150549D01*
X175900Y150549D01*
X175879Y150533D01*
X175865Y150535D01*
X175765Y150435D01*
X175762Y150414D01*
X175756Y150409D01*
X175761Y150403D01*
X175757Y150376D01*
X175764Y150375D01*
X175762Y150368D01*
X189462Y133968D01*
X189472Y133966D01*
X189473Y133959D01*
X189773Y133759D01*
X189777Y133759D01*
X189778Y133756D01*
X189978Y133656D01*
X189994Y133659D01*
X190000Y133651D01*
X190300Y133651D01*
X190309Y133658D01*
G37*
G36*
X150016Y133663D02*
X150016Y133663D01*
X150027Y133659D01*
X150327Y133859D01*
X150330Y133866D01*
X150335Y133865D01*
X150535Y134065D01*
X150535Y134068D01*
X150538Y134068D01*
X164238Y150368D01*
X164238Y150378D01*
X164244Y150382D01*
X164239Y150389D01*
X164241Y150428D01*
X164225Y150429D01*
X164222Y150444D01*
X164022Y150544D01*
X164012Y150542D01*
X164012Y150544D01*
X164004Y150544D01*
X164000Y150549D01*
X163712Y150549D01*
X163522Y150644D01*
X163517Y150643D01*
X163516Y150647D01*
X163222Y150745D01*
X162931Y150938D01*
X162743Y151127D01*
X162647Y151416D01*
X162633Y151425D01*
X162635Y151435D01*
X162449Y151620D01*
X162449Y151900D01*
X162442Y151909D01*
X162447Y151916D01*
X162349Y152208D01*
X162349Y154400D01*
X162339Y154414D01*
X162338Y154432D01*
X162326Y154431D01*
X162313Y154447D01*
X162296Y154434D01*
X162290Y154434D01*
X162283Y154429D01*
X162259Y154428D01*
X148959Y135028D01*
X148960Y135023D01*
X148956Y135022D01*
X148856Y134822D01*
X148859Y134806D01*
X148851Y134800D01*
X148851Y134500D01*
X148858Y134491D01*
X148853Y134484D01*
X148953Y134184D01*
X148961Y134179D01*
X148959Y134173D01*
X149159Y133873D01*
X149176Y133867D01*
X149178Y133856D01*
X149378Y133756D01*
X149383Y133757D01*
X149384Y133753D01*
X149684Y133653D01*
X149695Y133657D01*
X149700Y133651D01*
X150000Y133651D01*
X150016Y133663D01*
G37*
G36*
X224306Y140351D02*
X224306Y140351D01*
X224322Y140367D01*
X224335Y140365D01*
X224735Y140765D01*
X224736Y140777D01*
X224740Y140779D01*
X224737Y140783D01*
X224738Y140786D01*
X224749Y140792D01*
X224849Y141392D01*
X224846Y141397D01*
X224849Y141400D01*
X224849Y142767D01*
X225309Y142951D01*
X226673Y142951D01*
X227156Y142177D01*
X227855Y140580D01*
X227873Y140570D01*
X227875Y140558D01*
X228375Y140258D01*
X228399Y140260D01*
X228408Y140251D01*
X229008Y140351D01*
X229017Y140361D01*
X229024Y140357D01*
X229724Y140757D01*
X229731Y140773D01*
X229742Y140775D01*
X230042Y141275D01*
X230039Y141303D01*
X230047Y141314D01*
X229847Y142014D01*
X229839Y142020D01*
X229841Y142027D01*
X229644Y142323D01*
X229147Y143614D01*
X229053Y144087D01*
X229438Y144569D01*
X229439Y144577D01*
X229444Y144578D01*
X229744Y145178D01*
X229743Y145185D01*
X229747Y145186D01*
X229947Y145886D01*
X229944Y145896D01*
X229949Y145900D01*
X229949Y146600D01*
X229946Y146604D01*
X229949Y146607D01*
X229849Y147307D01*
X229844Y147312D01*
X229847Y147316D01*
X229647Y147916D01*
X229639Y147921D01*
X229641Y147927D01*
X229241Y148527D01*
X229231Y148531D01*
X229231Y148538D01*
X228731Y148938D01*
X228712Y148939D01*
X228737Y148967D01*
X228741Y149027D01*
X228728Y149028D01*
X228727Y149041D01*
X228127Y149441D01*
X228123Y149441D01*
X228122Y149444D01*
X227522Y149744D01*
X227512Y149742D01*
X227508Y149749D01*
X226908Y149849D01*
X226907Y149848D01*
X226907Y149849D01*
X226207Y149949D01*
X226202Y149946D01*
X226200Y149949D01*
X223500Y149949D01*
X223492Y149943D01*
X223486Y149947D01*
X222786Y149747D01*
X222771Y149727D01*
X222758Y149725D01*
X222458Y149225D01*
X222460Y149207D01*
X222451Y149200D01*
X222451Y141000D01*
X222462Y140985D01*
X222458Y140975D01*
X222758Y140475D01*
X222782Y140465D01*
X222786Y140453D01*
X223486Y140253D01*
X223500Y140258D01*
X223506Y140251D01*
X224306Y140351D01*
G37*
G36*
X49121Y151267D02*
X49121Y151267D01*
X49135Y151265D01*
X49535Y151665D01*
X49536Y151677D01*
X49541Y151681D01*
X49538Y151686D01*
X49549Y151692D01*
X49649Y152292D01*
X49646Y152297D01*
X49649Y152300D01*
X49649Y153670D01*
X50012Y153851D01*
X51400Y153851D01*
X51405Y153854D01*
X51408Y153851D01*
X52008Y153951D01*
X52012Y153956D01*
X52016Y153953D01*
X52616Y154153D01*
X52621Y154161D01*
X52627Y154159D01*
X53827Y154959D01*
X53831Y154969D01*
X53838Y154969D01*
X54238Y155469D01*
X54239Y155479D01*
X54245Y155481D01*
X54545Y156181D01*
X54543Y156189D01*
X54549Y156192D01*
X54649Y156792D01*
X54648Y156793D01*
X54649Y156793D01*
X54749Y157493D01*
X54746Y157498D01*
X54749Y157500D01*
X54749Y158200D01*
X54740Y158213D01*
X54744Y158222D01*
X54344Y159022D01*
X54337Y159025D01*
X54338Y159031D01*
X53938Y159531D01*
X53934Y159532D01*
X53935Y159535D01*
X53435Y160035D01*
X53428Y160036D01*
X53427Y160041D01*
X52827Y160441D01*
X52823Y160441D01*
X52822Y160444D01*
X52222Y160744D01*
X52211Y160742D01*
X52207Y160749D01*
X51507Y160849D01*
X51502Y160846D01*
X51500Y160849D01*
X48100Y160849D01*
X48091Y160842D01*
X48084Y160847D01*
X47484Y160647D01*
X47467Y160622D01*
X47454Y160618D01*
X47254Y160118D01*
X47258Y160105D01*
X47251Y160100D01*
X47251Y151900D01*
X47260Y151887D01*
X47256Y151878D01*
X47456Y151478D01*
X47482Y151465D01*
X47486Y151453D01*
X48186Y151253D01*
X48196Y151256D01*
X48200Y151251D01*
X49100Y151251D01*
X49121Y151267D01*
G37*
G36*
X73716Y75053D02*
X73716Y75053D01*
X73725Y75067D01*
X73735Y75065D01*
X74335Y75665D01*
X74338Y75685D01*
X74348Y75690D01*
X74448Y76190D01*
X74438Y76211D01*
X74444Y76222D01*
X74144Y76822D01*
X74135Y76827D01*
X74136Y76833D01*
X71838Y79332D01*
X71465Y79798D01*
X73736Y82267D01*
X73736Y82269D01*
X73738Y82268D01*
X74238Y82868D01*
X74238Y82882D01*
X74247Y82884D01*
X74447Y83484D01*
X74440Y83505D01*
X74439Y83506D01*
X74439Y83507D01*
X74446Y83518D01*
X74246Y84018D01*
X74231Y84027D01*
X74232Y84038D01*
X73632Y84538D01*
X73618Y84538D01*
X73616Y84547D01*
X73016Y84747D01*
X72993Y84739D01*
X72982Y84746D01*
X72482Y84546D01*
X72473Y84531D01*
X72462Y84532D01*
X71963Y83932D01*
X70164Y81833D01*
X69803Y81472D01*
X67137Y84532D01*
X67119Y84536D01*
X67116Y84547D01*
X66516Y84747D01*
X66493Y84739D01*
X66482Y84746D01*
X65982Y84546D01*
X65974Y84534D01*
X65965Y84535D01*
X65365Y83935D01*
X65363Y83921D01*
X65354Y83918D01*
X65154Y83418D01*
X65162Y83390D01*
X65156Y83378D01*
X65456Y82778D01*
X65466Y82773D01*
X65465Y82765D01*
X65964Y82266D01*
X68233Y79800D01*
X65464Y76834D01*
X65463Y76823D01*
X65456Y76822D01*
X65156Y76222D01*
X65161Y76196D01*
X65160Y76195D01*
X65159Y76194D01*
X65159Y76193D01*
X65153Y76184D01*
X65353Y75584D01*
X65369Y75574D01*
X65368Y75562D01*
X65968Y75062D01*
X65980Y75062D01*
X65982Y75054D01*
X66482Y74854D01*
X66505Y74861D01*
X66516Y74853D01*
X67116Y75053D01*
X67126Y75069D01*
X67138Y75068D01*
X67638Y75668D01*
X69437Y77667D01*
X69437Y77669D01*
X69438Y77669D01*
X69801Y78122D01*
X71962Y75568D01*
X71969Y75567D01*
X71968Y75562D01*
X72568Y75062D01*
X72580Y75062D01*
X72582Y75054D01*
X73082Y74854D01*
X73105Y74861D01*
X73116Y74853D01*
X73716Y75053D01*
G37*
G36*
X57813Y101160D02*
X57813Y101160D01*
X57822Y101156D01*
X58422Y101456D01*
X58433Y101478D01*
X58438Y101482D01*
X58436Y101485D01*
X58437Y101486D01*
X58449Y101492D01*
X58549Y102092D01*
X58546Y102097D01*
X58549Y102100D01*
X58549Y103000D01*
X58533Y103021D01*
X58535Y103035D01*
X58135Y103435D01*
X58108Y103439D01*
X58100Y103449D01*
X54726Y103449D01*
X54560Y103699D01*
X58440Y109071D01*
X58440Y109088D01*
X58449Y109093D01*
X58549Y109793D01*
X58539Y109811D01*
X58544Y109822D01*
X58244Y110422D01*
X58227Y110431D01*
X58225Y110442D01*
X57725Y110742D01*
X57707Y110740D01*
X57700Y110749D01*
X51500Y110749D01*
X51485Y110738D01*
X51475Y110742D01*
X50975Y110442D01*
X50966Y110420D01*
X50953Y110416D01*
X50753Y109816D01*
X50758Y109800D01*
X50751Y109793D01*
X50851Y109093D01*
X50864Y109080D01*
X50862Y109069D01*
X51262Y108569D01*
X51287Y108563D01*
X51293Y108551D01*
X51993Y108451D01*
X51998Y108454D01*
X52000Y108451D01*
X54694Y108451D01*
X55017Y108370D01*
X51160Y103029D01*
X51160Y103017D01*
X51153Y103014D01*
X50953Y102314D01*
X50959Y102297D01*
X50958Y102297D01*
X50960Y102294D01*
X50953Y102284D01*
X51153Y101684D01*
X51172Y101672D01*
X51173Y101659D01*
X51773Y101259D01*
X51787Y101260D01*
X51792Y101251D01*
X52392Y101151D01*
X52397Y101154D01*
X52400Y101151D01*
X57800Y101151D01*
X57813Y101160D01*
G37*
G36*
X249211Y140262D02*
X249211Y140262D01*
X249222Y140256D01*
X249822Y140556D01*
X249828Y140569D01*
X249838Y140568D01*
X250338Y141168D01*
X250339Y141186D01*
X250348Y141190D01*
X250448Y141690D01*
X250437Y141715D01*
X250441Y141727D01*
X250041Y142327D01*
X250034Y142330D01*
X250035Y142335D01*
X248836Y143534D01*
X247272Y145195D01*
X247731Y145562D01*
X247732Y145567D01*
X247736Y145567D01*
X248836Y146766D01*
X249735Y147665D01*
X249736Y147670D01*
X249739Y147670D01*
X250039Y148070D01*
X250039Y148073D01*
X250041Y148073D01*
X250441Y148673D01*
X250439Y148700D01*
X250448Y148710D01*
X250348Y149210D01*
X250333Y149223D01*
X250335Y149235D01*
X249735Y149835D01*
X249726Y149836D01*
X249725Y149842D01*
X249225Y150142D01*
X249193Y150139D01*
X249182Y150146D01*
X248682Y149946D01*
X248676Y149936D01*
X248668Y149938D01*
X248068Y149438D01*
X248067Y149432D01*
X248063Y149432D01*
X246863Y148032D01*
X246863Y148031D01*
X246862Y148031D01*
X245531Y146415D01*
X245449Y146904D01*
X245449Y148900D01*
X245446Y148904D01*
X245449Y148907D01*
X245349Y149607D01*
X245327Y149629D01*
X245325Y149642D01*
X244825Y149942D01*
X244807Y149940D01*
X244800Y149949D01*
X243900Y149949D01*
X243891Y149942D01*
X243884Y149947D01*
X243284Y149747D01*
X243267Y149722D01*
X243254Y149718D01*
X243054Y149218D01*
X243058Y149205D01*
X243051Y149200D01*
X243051Y141000D01*
X243064Y140982D01*
X243061Y140970D01*
X243361Y140570D01*
X243381Y140565D01*
X243384Y140553D01*
X243984Y140353D01*
X243999Y140358D01*
X244005Y140351D01*
X244905Y140451D01*
X244919Y140464D01*
X244930Y140461D01*
X245330Y140761D01*
X245334Y140777D01*
X245337Y140779D01*
X245336Y140782D01*
X245337Y140786D01*
X245349Y140792D01*
X245449Y141392D01*
X245446Y141397D01*
X245449Y141400D01*
X245449Y143495D01*
X245528Y143890D01*
X248062Y140868D01*
X248069Y140867D01*
X248068Y140862D01*
X248668Y140362D01*
X248686Y140361D01*
X248690Y140352D01*
X249190Y140252D01*
X249211Y140262D01*
G37*
G36*
X259915Y2362D02*
X259915Y2362D01*
X259925Y2358D01*
X260425Y2658D01*
X260433Y2677D01*
X260440Y2682D01*
X260447Y2684D01*
X260647Y3284D01*
X260643Y3295D01*
X260649Y3300D01*
X260649Y6002D01*
X260970Y5761D01*
X260982Y5761D01*
X260984Y5753D01*
X261584Y5553D01*
X261591Y5555D01*
X261593Y5551D01*
X262293Y5451D01*
X262297Y5454D01*
X262308Y5454D01*
X262312Y5456D01*
X262316Y5453D01*
X262916Y5653D01*
X262919Y5658D01*
X262922Y5656D01*
X263522Y5956D01*
X263526Y5964D01*
X263532Y5962D01*
X264132Y6462D01*
X264133Y6469D01*
X264138Y6469D01*
X264538Y6969D01*
X264539Y6977D01*
X264544Y6978D01*
X264844Y7578D01*
X264843Y7583D01*
X264847Y7584D01*
X265047Y8184D01*
X265043Y8195D01*
X265047Y8198D01*
X265049Y8200D01*
X265049Y8900D01*
X265046Y8904D01*
X265049Y8907D01*
X264949Y9607D01*
X264944Y9612D01*
X264947Y9616D01*
X264747Y10216D01*
X264742Y10219D01*
X264744Y10222D01*
X264444Y10822D01*
X264434Y10827D01*
X264435Y10835D01*
X263935Y11335D01*
X263931Y11335D01*
X263932Y11338D01*
X263332Y11838D01*
X263326Y11838D01*
X263325Y11842D01*
X262825Y12142D01*
X262812Y12141D01*
X262808Y12149D01*
X262208Y12249D01*
X262198Y12243D01*
X262193Y12249D01*
X261493Y12149D01*
X261485Y12141D01*
X261478Y12144D01*
X260514Y11662D01*
X260138Y12131D01*
X260113Y12137D01*
X260107Y12149D01*
X259407Y12249D01*
X259394Y12242D01*
X259386Y12247D01*
X258686Y12047D01*
X258674Y12030D01*
X258662Y12031D01*
X258262Y11531D01*
X258261Y11508D01*
X258251Y11500D01*
X258251Y3100D01*
X258259Y3089D01*
X258254Y3082D01*
X258454Y2582D01*
X258482Y2565D01*
X258486Y2553D01*
X259186Y2353D01*
X259196Y2356D01*
X259200Y2351D01*
X259900Y2351D01*
X259915Y2362D01*
G37*
G36*
X72513Y151263D02*
X72513Y151263D01*
X72525Y151258D01*
X73025Y151558D01*
X73030Y151569D01*
X73038Y151569D01*
X73438Y152069D01*
X73439Y152080D01*
X73446Y152081D01*
X74745Y155281D01*
X75245Y156481D01*
X75244Y156485D01*
X75247Y156486D01*
X75447Y157186D01*
X75443Y157197D01*
X75439Y157207D01*
X75446Y157218D01*
X75246Y157718D01*
X75228Y157729D01*
X75227Y157741D01*
X74627Y158141D01*
X74612Y158140D01*
X74607Y158149D01*
X73907Y158249D01*
X73899Y158244D01*
X73892Y158244D01*
X73884Y158238D01*
X73875Y158242D01*
X73375Y157942D01*
X73367Y157924D01*
X73356Y157922D01*
X73056Y157322D01*
X73057Y157318D01*
X73054Y157317D01*
X72373Y155469D01*
X72241Y155535D01*
X71847Y156814D01*
X71842Y156818D01*
X71844Y156822D01*
X71444Y157622D01*
X71434Y157627D01*
X71435Y157635D01*
X70935Y158135D01*
X70914Y158138D01*
X70908Y158149D01*
X70308Y158249D01*
X70300Y158244D01*
X70291Y158244D01*
X70284Y158239D01*
X70276Y158243D01*
X69576Y157843D01*
X69569Y157827D01*
X69558Y157825D01*
X69258Y157325D01*
X69258Y157322D01*
X69258Y157321D01*
X69259Y157318D01*
X69254Y157317D01*
X68593Y155524D01*
X68345Y156019D01*
X67746Y157716D01*
X67737Y157723D01*
X67738Y157731D01*
X67338Y158231D01*
X67308Y158238D01*
X67304Y158244D01*
X67300Y158249D01*
X66600Y158249D01*
X66593Y158244D01*
X66588Y158244D01*
X66586Y158242D01*
X66581Y158245D01*
X65881Y157945D01*
X65872Y157931D01*
X65862Y157931D01*
X65462Y157431D01*
X65461Y157423D01*
X65458Y157420D01*
X65461Y157416D01*
X65461Y157401D01*
X65452Y157390D01*
X65552Y156890D01*
X65557Y156885D01*
X65555Y156881D01*
X67655Y151881D01*
X67663Y151876D01*
X67662Y151869D01*
X68062Y151369D01*
X68087Y151363D01*
X68093Y151351D01*
X68793Y151251D01*
X68811Y151261D01*
X68822Y151256D01*
X69422Y151556D01*
X69431Y151573D01*
X69442Y151575D01*
X69742Y152075D01*
X69741Y152082D01*
X69747Y152084D01*
X70408Y153974D01*
X70655Y153479D01*
X71355Y151880D01*
X71363Y151876D01*
X71362Y151869D01*
X71762Y151369D01*
X71787Y151363D01*
X71793Y151351D01*
X72493Y151251D01*
X72513Y151263D01*
G37*
G36*
X319004Y162254D02*
X319004Y162254D01*
X319007Y162251D01*
X319707Y162351D01*
X319715Y162359D01*
X319722Y162356D01*
X320922Y162956D01*
X320927Y162966D01*
X320935Y162965D01*
X321335Y163365D01*
X321336Y163372D01*
X321341Y163373D01*
X321741Y163973D01*
X321740Y163982D01*
X321747Y163984D01*
X321947Y164584D01*
X321945Y164591D01*
X321949Y164593D01*
X322049Y165293D01*
X322044Y165301D01*
X322049Y165306D01*
X321949Y166106D01*
X321944Y166111D01*
X321947Y166116D01*
X321747Y166716D01*
X321740Y166720D01*
X321742Y166725D01*
X321442Y167225D01*
X321431Y167230D01*
X321431Y167238D01*
X320931Y167638D01*
X320923Y167639D01*
X320922Y167644D01*
X320322Y167944D01*
X320315Y167943D01*
X320314Y167947D01*
X319614Y168147D01*
X319612Y168147D01*
X319611Y168148D01*
X318320Y168446D01*
X317741Y168832D01*
X317555Y169390D01*
X317926Y169854D01*
X318595Y169950D01*
X319176Y169756D01*
X319768Y169262D01*
X319792Y169261D01*
X319800Y169251D01*
X320400Y169251D01*
X320415Y169262D01*
X320425Y169258D01*
X320925Y169558D01*
X320931Y169571D01*
X320940Y169571D01*
X321440Y170271D01*
X321439Y170293D01*
X321449Y170300D01*
X321449Y170800D01*
X321433Y170821D01*
X321435Y170835D01*
X320935Y171335D01*
X320931Y171335D01*
X320931Y171338D01*
X320431Y171738D01*
X320417Y171739D01*
X320414Y171747D01*
X319714Y171947D01*
X319710Y171946D01*
X319708Y171949D01*
X319108Y172049D01*
X319107Y172048D01*
X319107Y172049D01*
X318407Y172149D01*
X318399Y172144D01*
X318394Y172149D01*
X317594Y172049D01*
X317589Y172044D01*
X317584Y172047D01*
X316984Y171847D01*
X316981Y171842D01*
X316978Y171844D01*
X316378Y171544D01*
X316375Y171537D01*
X316369Y171538D01*
X315869Y171138D01*
X315867Y171128D01*
X315859Y171127D01*
X315459Y170527D01*
X315460Y170518D01*
X315453Y170516D01*
X315253Y169916D01*
X315255Y169910D01*
X315251Y169908D01*
X315151Y169308D01*
X315157Y169298D01*
X315151Y169293D01*
X315251Y168593D01*
X315255Y168589D01*
X315253Y168586D01*
X315453Y167886D01*
X315464Y167878D01*
X315462Y167869D01*
X315862Y167369D01*
X315869Y167367D01*
X315869Y167362D01*
X316369Y166962D01*
X316377Y166961D01*
X316378Y166956D01*
X317578Y166356D01*
X317585Y166357D01*
X317586Y166353D01*
X318286Y166153D01*
X318290Y166154D01*
X318292Y166151D01*
X318885Y166053D01*
X319460Y165765D01*
X319646Y165206D01*
X319365Y164738D01*
X318792Y164451D01*
X318118Y164547D01*
X317530Y164939D01*
X316932Y165438D01*
X316920Y165438D01*
X316918Y165446D01*
X316418Y165646D01*
X316406Y165642D01*
X316401Y165649D01*
X316398Y165649D01*
X316395Y165647D01*
X316393Y165649D01*
X315693Y165549D01*
X315675Y165531D01*
X315662Y165532D01*
X315162Y164932D01*
X315162Y164924D01*
X315161Y164924D01*
X315162Y164923D01*
X315161Y164914D01*
X315152Y164910D01*
X315052Y164410D01*
X315061Y164391D01*
X315055Y164381D01*
X315355Y163681D01*
X315366Y163674D01*
X315365Y163665D01*
X315765Y163265D01*
X315772Y163264D01*
X315773Y163259D01*
X316973Y162459D01*
X316982Y162460D01*
X316984Y162453D01*
X317584Y162253D01*
X317595Y162257D01*
X317600Y162251D01*
X319000Y162251D01*
X319004Y162254D01*
G37*
G36*
X214604Y5254D02*
X214604Y5254D01*
X214607Y5251D01*
X215307Y5351D01*
X215315Y5359D01*
X215322Y5356D01*
X216522Y5956D01*
X216525Y5963D01*
X216531Y5962D01*
X217031Y6362D01*
X217034Y6376D01*
X217044Y6378D01*
X217644Y7578D01*
X217641Y7594D01*
X217649Y7600D01*
X217649Y9100D01*
X217642Y9109D01*
X217647Y9116D01*
X217447Y9716D01*
X217436Y9723D01*
X217438Y9731D01*
X217038Y10231D01*
X217031Y10233D01*
X217031Y10238D01*
X216531Y10638D01*
X216523Y10639D01*
X216522Y10644D01*
X215922Y10944D01*
X215915Y10943D01*
X215914Y10947D01*
X215214Y11147D01*
X215212Y11147D01*
X215211Y11148D01*
X213920Y11446D01*
X213345Y11829D01*
X213252Y12386D01*
X213626Y12854D01*
X214295Y12950D01*
X214876Y12756D01*
X215468Y12262D01*
X215492Y12261D01*
X215500Y12251D01*
X216000Y12251D01*
X216013Y12260D01*
X216022Y12256D01*
X216622Y12556D01*
X216631Y12574D01*
X216643Y12576D01*
X217043Y13276D01*
X217040Y13293D01*
X217049Y13300D01*
X217049Y13800D01*
X217033Y13821D01*
X217035Y13835D01*
X216135Y14735D01*
X216116Y14737D01*
X216112Y14748D01*
X215312Y14948D01*
X215309Y14947D01*
X215308Y14949D01*
X214708Y15049D01*
X214707Y15048D01*
X214707Y15049D01*
X214007Y15149D01*
X213998Y15144D01*
X213993Y15149D01*
X213293Y15049D01*
X213289Y15045D01*
X213286Y15047D01*
X212586Y14847D01*
X212581Y14840D01*
X212575Y14842D01*
X212075Y14542D01*
X212073Y14538D01*
X212069Y14538D01*
X211569Y14138D01*
X211567Y14128D01*
X211559Y14127D01*
X211159Y13527D01*
X211159Y13523D01*
X211156Y13522D01*
X210856Y12922D01*
X210859Y12906D01*
X210851Y12900D01*
X210851Y11600D01*
X210857Y11592D01*
X210853Y11586D01*
X211053Y10886D01*
X211064Y10878D01*
X211062Y10869D01*
X211462Y10369D01*
X211469Y10367D01*
X211469Y10362D01*
X211969Y9962D01*
X211977Y9961D01*
X211978Y9956D01*
X212578Y9656D01*
X212580Y9656D01*
X212581Y9655D01*
X213281Y9355D01*
X213284Y9356D01*
X213284Y9353D01*
X213884Y9153D01*
X213891Y9155D01*
X213893Y9151D01*
X214585Y9052D01*
X215156Y8767D01*
X215248Y8210D01*
X214965Y7738D01*
X214392Y7451D01*
X213718Y7547D01*
X213130Y7939D01*
X212532Y8438D01*
X212520Y8438D01*
X212518Y8446D01*
X212018Y8646D01*
X212006Y8642D01*
X212001Y8649D01*
X211999Y8649D01*
X211995Y8646D01*
X211992Y8649D01*
X211392Y8549D01*
X211377Y8533D01*
X211365Y8535D01*
X210765Y7935D01*
X210764Y7924D01*
X210763Y7924D01*
X210764Y7923D01*
X210762Y7915D01*
X210752Y7910D01*
X210652Y7410D01*
X210662Y7388D01*
X210657Y7376D01*
X211057Y6676D01*
X211066Y6672D01*
X211065Y6665D01*
X211465Y6265D01*
X211469Y6265D01*
X211469Y6262D01*
X211969Y5862D01*
X211973Y5861D01*
X211973Y5859D01*
X212573Y5459D01*
X212584Y5460D01*
X212586Y5453D01*
X213286Y5253D01*
X213296Y5256D01*
X213300Y5251D01*
X214600Y5251D01*
X214604Y5254D01*
G37*
G36*
X257102Y140256D02*
X257102Y140256D01*
X257107Y140251D01*
X257807Y140351D01*
X257829Y140373D01*
X257842Y140375D01*
X258142Y140875D01*
X258142Y140878D01*
X258140Y140893D01*
X258149Y140900D01*
X258149Y143567D01*
X258609Y143751D01*
X260600Y143751D01*
X260604Y143754D01*
X260607Y143751D01*
X261307Y143851D01*
X261322Y143867D01*
X261335Y143865D01*
X261735Y144265D01*
X261736Y144276D01*
X261737Y144276D01*
X261736Y144276D01*
X261738Y144288D01*
X261749Y144294D01*
X261849Y145094D01*
X261842Y145106D01*
X261847Y145114D01*
X261647Y145814D01*
X261633Y145824D01*
X261635Y145835D01*
X261235Y146235D01*
X261208Y146239D01*
X261200Y146249D01*
X258516Y146249D01*
X258149Y146525D01*
X258149Y147175D01*
X258516Y147451D01*
X262600Y147451D01*
X262618Y147465D01*
X262631Y147462D01*
X263131Y147862D01*
X263136Y147881D01*
X263147Y147884D01*
X263347Y148484D01*
X263342Y148500D01*
X263349Y148507D01*
X263249Y149207D01*
X263236Y149220D01*
X263238Y149231D01*
X262838Y149731D01*
X262813Y149737D01*
X262807Y149749D01*
X262107Y149849D01*
X262102Y149846D01*
X262100Y149849D01*
X256600Y149849D01*
X256589Y149841D01*
X256582Y149846D01*
X256082Y149646D01*
X256066Y149620D01*
X256053Y149616D01*
X255853Y149016D01*
X255855Y149009D01*
X255851Y149007D01*
X255751Y148307D01*
X255754Y148302D01*
X255751Y148300D01*
X255751Y141500D01*
X255754Y141496D01*
X255751Y141493D01*
X255851Y140793D01*
X255864Y140781D01*
X255861Y140770D01*
X256161Y140370D01*
X256188Y140363D01*
X256195Y140351D01*
X257095Y140251D01*
X257102Y140256D01*
G37*
G36*
X268709Y140258D02*
X268709Y140258D01*
X268716Y140253D01*
X269316Y140453D01*
X269325Y140467D01*
X269335Y140465D01*
X269782Y140912D01*
X269954Y140482D01*
X269980Y140466D01*
X269984Y140453D01*
X270584Y140253D01*
X270595Y140257D01*
X270600Y140251D01*
X271400Y140251D01*
X271415Y140262D01*
X271425Y140258D01*
X271925Y140558D01*
X271933Y140577D01*
X271940Y140582D01*
X271937Y140586D01*
X271949Y140593D01*
X272049Y141293D01*
X272046Y141298D01*
X272049Y141300D01*
X272049Y146100D01*
X272046Y146105D01*
X272049Y146108D01*
X271949Y146708D01*
X271930Y146725D01*
X271931Y146738D01*
X271431Y147138D01*
X271409Y147139D01*
X271404Y147146D01*
X271403Y147146D01*
X271400Y147149D01*
X270600Y147149D01*
X270595Y147146D01*
X270590Y147146D01*
X270588Y147144D01*
X270584Y147147D01*
X269984Y146947D01*
X269971Y146927D01*
X269958Y146925D01*
X269690Y146479D01*
X269635Y146535D01*
X269631Y146535D01*
X269631Y146538D01*
X269131Y146938D01*
X269118Y146939D01*
X269116Y146947D01*
X268516Y147147D01*
X268511Y147145D01*
X268511Y147146D01*
X268503Y147146D01*
X268500Y147149D01*
X267800Y147149D01*
X267795Y147146D01*
X267790Y147146D01*
X267788Y147144D01*
X267784Y147147D01*
X267184Y146947D01*
X267181Y146942D01*
X267178Y146944D01*
X266578Y146644D01*
X266573Y146634D01*
X266565Y146635D01*
X266065Y146135D01*
X266065Y146131D01*
X266062Y146132D01*
X265562Y145532D01*
X265562Y145523D01*
X265556Y145522D01*
X265256Y144922D01*
X265258Y144912D01*
X265251Y144908D01*
X265151Y144308D01*
X265152Y144307D01*
X265151Y144307D01*
X265051Y143607D01*
X265056Y143598D01*
X265051Y143593D01*
X265151Y142893D01*
X265156Y142888D01*
X265153Y142884D01*
X265353Y142284D01*
X265358Y142281D01*
X265356Y142278D01*
X265656Y141678D01*
X265666Y141673D01*
X265665Y141665D01*
X266165Y141165D01*
X266169Y141165D01*
X266168Y141162D01*
X266768Y140662D01*
X266774Y140662D01*
X266775Y140658D01*
X267275Y140358D01*
X267289Y140359D01*
X267293Y140351D01*
X267993Y140251D01*
X267998Y140254D01*
X268000Y140251D01*
X268700Y140251D01*
X268709Y140258D01*
G37*
G36*
X276009Y5258D02*
X276009Y5258D01*
X276016Y5253D01*
X276616Y5453D01*
X276625Y5467D01*
X276635Y5465D01*
X277082Y5912D01*
X277254Y5482D01*
X277280Y5466D01*
X277284Y5453D01*
X277884Y5253D01*
X277895Y5257D01*
X277900Y5251D01*
X278700Y5251D01*
X278715Y5262D01*
X278725Y5258D01*
X279225Y5558D01*
X279233Y5577D01*
X279240Y5582D01*
X279237Y5586D01*
X279249Y5593D01*
X279349Y6293D01*
X279346Y6298D01*
X279349Y6300D01*
X279349Y11100D01*
X279346Y11105D01*
X279349Y11108D01*
X279249Y11708D01*
X279230Y11725D01*
X279231Y11738D01*
X278731Y12138D01*
X278709Y12139D01*
X278704Y12146D01*
X278703Y12146D01*
X278700Y12149D01*
X277900Y12149D01*
X277895Y12146D01*
X277890Y12146D01*
X277888Y12144D01*
X277884Y12147D01*
X277284Y11947D01*
X277271Y11927D01*
X277258Y11925D01*
X276990Y11479D01*
X276935Y11535D01*
X276931Y11535D01*
X276931Y11538D01*
X276431Y11938D01*
X276418Y11939D01*
X276416Y11947D01*
X275816Y12147D01*
X275811Y12145D01*
X275811Y12146D01*
X275803Y12146D01*
X275800Y12149D01*
X275100Y12149D01*
X275095Y12146D01*
X275090Y12146D01*
X275088Y12144D01*
X275084Y12147D01*
X274484Y11947D01*
X274481Y11942D01*
X274478Y11944D01*
X273878Y11644D01*
X273873Y11634D01*
X273865Y11635D01*
X273365Y11135D01*
X273365Y11131D01*
X273362Y11132D01*
X272862Y10532D01*
X272862Y10523D01*
X272856Y10522D01*
X272556Y9922D01*
X272558Y9912D01*
X272551Y9908D01*
X272451Y9308D01*
X272452Y9307D01*
X272451Y9307D01*
X272351Y8607D01*
X272356Y8598D01*
X272351Y8593D01*
X272451Y7893D01*
X272456Y7888D01*
X272453Y7884D01*
X272653Y7284D01*
X272658Y7281D01*
X272656Y7278D01*
X272956Y6678D01*
X272966Y6673D01*
X272965Y6665D01*
X273465Y6165D01*
X273469Y6165D01*
X273468Y6162D01*
X274068Y5662D01*
X274074Y5662D01*
X274075Y5658D01*
X274575Y5358D01*
X274589Y5359D01*
X274593Y5351D01*
X275293Y5251D01*
X275298Y5254D01*
X275300Y5251D01*
X276000Y5251D01*
X276009Y5258D01*
G37*
G36*
X266209Y81258D02*
X266209Y81258D01*
X266216Y81253D01*
X266816Y81453D01*
X266825Y81467D01*
X266835Y81465D01*
X267282Y81912D01*
X267454Y81482D01*
X267480Y81466D01*
X267484Y81453D01*
X268084Y81253D01*
X268095Y81257D01*
X268100Y81251D01*
X269000Y81251D01*
X269018Y81264D01*
X269030Y81261D01*
X269430Y81561D01*
X269434Y81577D01*
X269441Y81582D01*
X269438Y81587D01*
X269449Y81593D01*
X269549Y82293D01*
X269546Y82298D01*
X269549Y82300D01*
X269549Y87100D01*
X269546Y87105D01*
X269549Y87108D01*
X269449Y87708D01*
X269430Y87725D01*
X269431Y87738D01*
X268931Y88138D01*
X268909Y88139D01*
X268904Y88146D01*
X268903Y88146D01*
X268900Y88149D01*
X268200Y88149D01*
X268195Y88146D01*
X268189Y88146D01*
X268186Y88147D01*
X267486Y87947D01*
X267471Y87927D01*
X267458Y87925D01*
X267227Y87541D01*
X266627Y87941D01*
X266618Y87940D01*
X266616Y87947D01*
X266016Y88147D01*
X266011Y88145D01*
X266011Y88146D01*
X266003Y88146D01*
X266000Y88149D01*
X265300Y88149D01*
X265295Y88146D01*
X265290Y88146D01*
X265288Y88144D01*
X265284Y88147D01*
X264684Y87947D01*
X264681Y87942D01*
X264678Y87944D01*
X264078Y87644D01*
X264073Y87634D01*
X264065Y87635D01*
X263565Y87135D01*
X263565Y87131D01*
X263562Y87132D01*
X263062Y86532D01*
X263062Y86523D01*
X263056Y86522D01*
X262756Y85922D01*
X262758Y85912D01*
X262751Y85908D01*
X262651Y85308D01*
X262652Y85307D01*
X262651Y85307D01*
X262551Y84607D01*
X262556Y84598D01*
X262551Y84593D01*
X262651Y83893D01*
X262656Y83888D01*
X262653Y83884D01*
X262853Y83284D01*
X262861Y83279D01*
X262859Y83273D01*
X263259Y82673D01*
X263262Y82672D01*
X263262Y82669D01*
X263662Y82169D01*
X263669Y82167D01*
X263668Y82162D01*
X264268Y81662D01*
X264277Y81662D01*
X264278Y81656D01*
X264878Y81356D01*
X264889Y81358D01*
X264892Y81351D01*
X265492Y81251D01*
X265497Y81254D01*
X265500Y81251D01*
X266200Y81251D01*
X266209Y81258D01*
G37*
G36*
X60505Y151254D02*
X60505Y151254D01*
X60508Y151251D01*
X61108Y151351D01*
X61114Y151358D01*
X61119Y151355D01*
X61819Y151655D01*
X61824Y151663D01*
X61831Y151662D01*
X62831Y152462D01*
X62833Y152472D01*
X62841Y152473D01*
X63241Y153073D01*
X63240Y153082D01*
X63247Y153084D01*
X63447Y153684D01*
X63446Y153686D01*
X63447Y153686D01*
X63647Y154386D01*
X63646Y154389D01*
X63647Y154389D01*
X63645Y154393D01*
X63644Y154396D01*
X63649Y154400D01*
X63649Y155100D01*
X63646Y155104D01*
X63649Y155107D01*
X63549Y155807D01*
X63544Y155812D01*
X63547Y155816D01*
X63347Y156416D01*
X63339Y156421D01*
X63341Y156427D01*
X62941Y157027D01*
X62934Y157030D01*
X62935Y157035D01*
X62435Y157535D01*
X62431Y157535D01*
X62431Y157538D01*
X61931Y157938D01*
X61923Y157939D01*
X61922Y157944D01*
X61322Y158244D01*
X61312Y158242D01*
X61310Y158244D01*
X61309Y158244D01*
X61307Y158249D01*
X59907Y158449D01*
X59897Y158443D01*
X59892Y158449D01*
X59292Y158349D01*
X59289Y158345D01*
X59286Y158347D01*
X58586Y158147D01*
X58582Y158142D01*
X58578Y158144D01*
X57978Y157844D01*
X57973Y157834D01*
X57965Y157835D01*
X57466Y157336D01*
X56467Y156437D01*
X56462Y156408D01*
X56451Y156400D01*
X56451Y154300D01*
X56457Y154292D01*
X56453Y154286D01*
X56653Y153586D01*
X56658Y153582D01*
X56656Y153578D01*
X56956Y152978D01*
X56960Y152976D01*
X56959Y152973D01*
X57359Y152373D01*
X57369Y152369D01*
X57369Y152362D01*
X57869Y151962D01*
X57873Y151961D01*
X57873Y151959D01*
X58473Y151559D01*
X58482Y151560D01*
X58484Y151553D01*
X59084Y151353D01*
X59091Y151355D01*
X59093Y151351D01*
X59793Y151251D01*
X59798Y151254D01*
X59800Y151251D01*
X60500Y151251D01*
X60505Y151254D01*
G37*
%LPC*%
G36*
X215684Y157234D02*
X215684Y157234D01*
X215092Y157404D01*
X214567Y157841D01*
X214131Y158277D01*
X213872Y158882D01*
X213490Y160407D01*
X213490Y162036D01*
X213582Y162768D01*
X213863Y163518D01*
X214138Y164159D01*
X214578Y164687D01*
X215000Y165025D01*
X215702Y165288D01*
X216413Y165377D01*
X217212Y165288D01*
X217828Y165024D01*
X218353Y164674D01*
X218782Y164159D01*
X219057Y163518D01*
X219338Y162768D01*
X219430Y162036D01*
X219430Y160384D01*
X219338Y159652D01*
X219057Y158902D01*
X218781Y158257D01*
X218437Y157828D01*
X217933Y157408D01*
X217240Y157234D01*
X216507Y157143D01*
X215684Y157234D01*
G37*
%LPD*%
%LPC*%
G36*
X211058Y27593D02*
X211058Y27593D01*
X211437Y28067D01*
X211935Y28565D01*
X211936Y28574D01*
X211942Y28575D01*
X212242Y29075D01*
X212241Y29084D01*
X212247Y29086D01*
X212250Y29097D01*
X212292Y29244D01*
X212293Y29244D01*
X212292Y29244D01*
X212335Y29392D01*
X212349Y29441D01*
X212391Y29589D01*
X212433Y29737D01*
X212447Y29786D01*
X212444Y29796D01*
X212449Y29800D01*
X212449Y30500D01*
X212442Y30509D01*
X212447Y30516D01*
X212247Y31116D01*
X212239Y31121D01*
X212241Y31127D01*
X211841Y31727D01*
X211831Y31731D01*
X211831Y31738D01*
X211331Y32138D01*
X211323Y32139D01*
X211322Y32144D01*
X210722Y32444D01*
X210711Y32442D01*
X210707Y32449D01*
X210007Y32549D01*
X210002Y32546D01*
X210000Y32549D01*
X209300Y32549D01*
X209295Y32546D01*
X209292Y32549D01*
X208692Y32449D01*
X208651Y32405D01*
X208654Y32403D01*
X208651Y32400D01*
X208651Y27738D01*
X206535Y27198D01*
X206449Y33597D01*
X206547Y34281D01*
X206826Y34653D01*
X208002Y34751D01*
X210097Y34751D01*
X210792Y34651D01*
X211385Y34553D01*
X212573Y33958D01*
X213067Y33563D01*
X213562Y33069D01*
X213958Y32474D01*
X214256Y31978D01*
X214552Y31286D01*
X214651Y30696D01*
X214651Y30003D01*
X214452Y28611D01*
X214255Y28022D01*
X213860Y27429D01*
X213463Y26933D01*
X212967Y26437D01*
X212473Y26042D01*
X211923Y25767D01*
X211058Y27593D01*
G37*
%LPD*%
%LPC*%
G36*
X195223Y25644D02*
X195223Y25644D01*
X194649Y26026D01*
X194649Y26493D01*
X194846Y27182D01*
X198144Y33878D01*
X198438Y34466D01*
X199015Y34851D01*
X199683Y34851D01*
X200161Y34468D01*
X200456Y33878D01*
X203754Y27182D01*
X203951Y26493D01*
X203951Y26023D01*
X203376Y25544D01*
X202701Y25352D01*
X202133Y25541D01*
X201843Y26023D01*
X201244Y27222D01*
X201222Y27233D01*
X201218Y27246D01*
X200740Y27437D01*
X200147Y29414D01*
X200142Y29418D01*
X200144Y29422D01*
X199544Y30622D01*
X199524Y30632D01*
X199522Y30644D01*
X199122Y30844D01*
X199064Y30833D01*
X199066Y30822D01*
X199055Y30819D01*
X198555Y29619D01*
X198555Y29617D01*
X198554Y29616D01*
X198556Y29612D01*
X198566Y29573D01*
X198565Y29565D01*
X198837Y29294D01*
X197489Y27289D01*
X197382Y27246D01*
X197369Y27224D01*
X197356Y27222D01*
X197100Y26710D01*
X196230Y25416D01*
X195905Y25351D01*
X195223Y25644D01*
G37*
%LPD*%
G36*
X287008Y140257D02*
X287008Y140257D01*
X287014Y140253D01*
X287714Y140453D01*
X287719Y140460D01*
X287725Y140458D01*
X288225Y140758D01*
X288229Y140766D01*
X288235Y140765D01*
X288535Y141065D01*
X288539Y141092D01*
X288549Y141100D01*
X288549Y141600D01*
X288541Y141611D01*
X288545Y141619D01*
X288245Y142319D01*
X288227Y142330D01*
X288225Y142342D01*
X287725Y142642D01*
X287697Y142639D01*
X287686Y142647D01*
X286986Y142447D01*
X286985Y142446D01*
X286984Y142447D01*
X286392Y142249D01*
X285707Y142249D01*
X285029Y142443D01*
X284680Y142879D01*
X285109Y143051D01*
X287800Y143051D01*
X287810Y143058D01*
X287815Y143058D01*
X287816Y143059D01*
X287822Y143056D01*
X288422Y143356D01*
X288425Y143363D01*
X288431Y143362D01*
X288931Y143762D01*
X288935Y143777D01*
X288943Y143783D01*
X288938Y143790D01*
X288938Y143792D01*
X288949Y143800D01*
X288949Y144600D01*
X288946Y144604D01*
X288949Y144607D01*
X288849Y145307D01*
X288844Y145312D01*
X288847Y145316D01*
X288647Y145916D01*
X288636Y145923D01*
X288638Y145931D01*
X288238Y146431D01*
X288234Y146432D01*
X288235Y146435D01*
X287735Y146935D01*
X287723Y146936D01*
X287722Y146944D01*
X287122Y147244D01*
X287112Y147242D01*
X287111Y147243D01*
X287108Y147249D01*
X286508Y147349D01*
X286507Y147348D01*
X286506Y147349D01*
X285706Y147449D01*
X285698Y147444D01*
X285693Y147449D01*
X284993Y147349D01*
X284989Y147345D01*
X284986Y147347D01*
X284286Y147147D01*
X284281Y147140D01*
X284275Y147142D01*
X283775Y146842D01*
X283774Y146841D01*
X283773Y146841D01*
X283173Y146441D01*
X283170Y146434D01*
X283165Y146435D01*
X282765Y146035D01*
X282764Y146028D01*
X282759Y146027D01*
X282359Y145427D01*
X282360Y145418D01*
X282353Y145416D01*
X282153Y144816D01*
X282155Y144809D01*
X282151Y144807D01*
X282051Y144107D01*
X282054Y144102D01*
X282051Y144100D01*
X282051Y143400D01*
X282057Y143392D01*
X282053Y143386D01*
X282253Y142686D01*
X282254Y142685D01*
X282253Y142684D01*
X282453Y142084D01*
X282461Y142079D01*
X282459Y142073D01*
X282859Y141473D01*
X282862Y141472D01*
X282862Y141469D01*
X283262Y140969D01*
X283272Y140967D01*
X283273Y140959D01*
X283873Y140559D01*
X283882Y140560D01*
X283884Y140553D01*
X284484Y140353D01*
X284491Y140355D01*
X284493Y140351D01*
X285193Y140251D01*
X285198Y140254D01*
X285200Y140251D01*
X287000Y140251D01*
X287008Y140257D01*
G37*
G36*
X245908Y81257D02*
X245908Y81257D01*
X245914Y81253D01*
X246614Y81453D01*
X246619Y81460D01*
X246625Y81458D01*
X247125Y81758D01*
X247129Y81766D01*
X247135Y81765D01*
X247435Y82065D01*
X247439Y82092D01*
X247449Y82100D01*
X247449Y82600D01*
X247441Y82611D01*
X247445Y82619D01*
X247145Y83319D01*
X247127Y83330D01*
X247125Y83342D01*
X246625Y83642D01*
X246597Y83639D01*
X246586Y83647D01*
X245886Y83447D01*
X245885Y83446D01*
X245884Y83447D01*
X245292Y83249D01*
X244607Y83249D01*
X243929Y83443D01*
X243580Y83879D01*
X244009Y84051D01*
X246700Y84051D01*
X246710Y84058D01*
X246715Y84058D01*
X246716Y84059D01*
X246722Y84056D01*
X247322Y84356D01*
X247325Y84363D01*
X247331Y84362D01*
X247831Y84762D01*
X247835Y84777D01*
X247843Y84783D01*
X247838Y84790D01*
X247838Y84792D01*
X247849Y84800D01*
X247849Y85600D01*
X247846Y85604D01*
X247849Y85607D01*
X247749Y86307D01*
X247744Y86312D01*
X247747Y86316D01*
X247547Y86916D01*
X247536Y86923D01*
X247538Y86931D01*
X247138Y87431D01*
X247134Y87432D01*
X247135Y87435D01*
X246635Y87935D01*
X246623Y87936D01*
X246622Y87944D01*
X246022Y88244D01*
X246012Y88242D01*
X246011Y88243D01*
X246008Y88249D01*
X245408Y88349D01*
X245407Y88348D01*
X245406Y88349D01*
X244606Y88449D01*
X244598Y88444D01*
X244593Y88449D01*
X243893Y88349D01*
X243888Y88344D01*
X243884Y88347D01*
X243284Y88147D01*
X243281Y88142D01*
X243278Y88144D01*
X242678Y87844D01*
X242676Y87840D01*
X242673Y87841D01*
X242073Y87441D01*
X242070Y87434D01*
X242065Y87435D01*
X241665Y87035D01*
X241664Y87023D01*
X241656Y87022D01*
X241056Y85822D01*
X241058Y85811D01*
X241051Y85807D01*
X240951Y85107D01*
X240954Y85102D01*
X240951Y85100D01*
X240951Y84400D01*
X240957Y84392D01*
X240953Y84386D01*
X241153Y83686D01*
X241154Y83685D01*
X241153Y83684D01*
X241353Y83084D01*
X241361Y83079D01*
X241359Y83073D01*
X241759Y82473D01*
X241762Y82472D01*
X241762Y82469D01*
X242162Y81969D01*
X242172Y81967D01*
X242173Y81959D01*
X242773Y81559D01*
X242782Y81560D01*
X242784Y81553D01*
X243384Y81353D01*
X243391Y81355D01*
X243393Y81351D01*
X244093Y81251D01*
X244098Y81254D01*
X244100Y81251D01*
X245900Y81251D01*
X245908Y81257D01*
G37*
G36*
X82407Y151256D02*
X82407Y151256D01*
X82412Y151252D01*
X83212Y151452D01*
X83219Y151461D01*
X83225Y151458D01*
X83725Y151758D01*
X83731Y151772D01*
X83741Y151773D01*
X83941Y152073D01*
X83940Y152086D01*
X83948Y152090D01*
X84048Y152590D01*
X84038Y152612D01*
X84043Y152624D01*
X83643Y153324D01*
X83627Y153331D01*
X83625Y153342D01*
X83125Y153642D01*
X83097Y153639D01*
X83086Y153647D01*
X82386Y153447D01*
X82384Y153444D01*
X82382Y153446D01*
X81891Y153249D01*
X81108Y153249D01*
X80527Y153443D01*
X80088Y153882D01*
X80509Y154051D01*
X83200Y154051D01*
X83210Y154058D01*
X83215Y154058D01*
X83216Y154059D01*
X83222Y154056D01*
X83822Y154356D01*
X83825Y154363D01*
X83831Y154362D01*
X84331Y154762D01*
X84335Y154777D01*
X84343Y154783D01*
X84338Y154790D01*
X84338Y154792D01*
X84349Y154800D01*
X84349Y156300D01*
X84340Y156313D01*
X84344Y156322D01*
X84044Y156922D01*
X84037Y156925D01*
X84038Y156931D01*
X83638Y157431D01*
X83634Y157432D01*
X83635Y157435D01*
X83135Y157935D01*
X83126Y157936D01*
X83125Y157942D01*
X82625Y158242D01*
X82611Y158241D01*
X82607Y158249D01*
X81907Y158349D01*
X81906Y158348D01*
X81906Y158349D01*
X81106Y158449D01*
X81098Y158444D01*
X81093Y158449D01*
X80393Y158349D01*
X80388Y158344D01*
X80384Y158347D01*
X79784Y158147D01*
X79781Y158142D01*
X79778Y158144D01*
X79178Y157844D01*
X79175Y157837D01*
X79169Y157838D01*
X78169Y157038D01*
X78166Y157024D01*
X78156Y157022D01*
X77856Y156422D01*
X77857Y156417D01*
X77853Y156416D01*
X77653Y155816D01*
X77655Y155809D01*
X77651Y155807D01*
X77551Y155107D01*
X77554Y155102D01*
X77551Y155100D01*
X77551Y154400D01*
X77554Y154396D01*
X77551Y154393D01*
X77651Y153693D01*
X77656Y153688D01*
X77653Y153684D01*
X77853Y153084D01*
X77861Y153079D01*
X77859Y153073D01*
X78259Y152473D01*
X78266Y152470D01*
X78265Y152465D01*
X78765Y151965D01*
X78769Y151965D01*
X78769Y151962D01*
X79269Y151562D01*
X79283Y151561D01*
X79286Y151553D01*
X79986Y151353D01*
X79990Y151354D01*
X79992Y151351D01*
X80592Y151251D01*
X80597Y151254D01*
X80600Y151251D01*
X82400Y151251D01*
X82407Y151256D01*
G37*
G36*
X284210Y2262D02*
X284210Y2262D01*
X284222Y2256D01*
X284822Y2556D01*
X284832Y2576D01*
X284844Y2578D01*
X285144Y3178D01*
X285144Y3179D01*
X285145Y3180D01*
X288445Y10480D01*
X288445Y10481D01*
X288745Y11181D01*
X288740Y11200D01*
X288742Y11201D01*
X288739Y11204D01*
X288739Y11207D01*
X288746Y11218D01*
X288546Y11718D01*
X288531Y11727D01*
X288532Y11738D01*
X287932Y12238D01*
X287918Y12238D01*
X287916Y12247D01*
X287316Y12447D01*
X287311Y12445D01*
X287311Y12446D01*
X287293Y12446D01*
X287286Y12440D01*
X287278Y12444D01*
X286678Y12144D01*
X286670Y12128D01*
X286659Y12127D01*
X286459Y11827D01*
X286459Y11823D01*
X286456Y11822D01*
X286156Y11222D01*
X286156Y11220D01*
X286155Y11220D01*
X285355Y9420D01*
X285355Y9419D01*
X285354Y9418D01*
X285182Y8988D01*
X285039Y9130D01*
X284343Y10324D01*
X283343Y12124D01*
X283324Y12132D01*
X283322Y12144D01*
X282722Y12444D01*
X282710Y12442D01*
X282708Y12446D01*
X282689Y12446D01*
X282688Y12445D01*
X282684Y12447D01*
X282084Y12247D01*
X282080Y12241D01*
X282076Y12243D01*
X281376Y11843D01*
X281367Y11822D01*
X281365Y11821D01*
X281354Y11818D01*
X281154Y11318D01*
X281161Y11292D01*
X281155Y11281D01*
X281455Y10581D01*
X281459Y10578D01*
X281458Y10575D01*
X283849Y6589D01*
X283752Y5813D01*
X283055Y4220D01*
X283055Y4219D01*
X283054Y4218D01*
X282854Y3718D01*
X282855Y3716D01*
X282853Y3716D01*
X282753Y3416D01*
X282759Y3399D01*
X282757Y3397D01*
X282758Y3395D01*
X282752Y3388D01*
X282852Y2988D01*
X282872Y2972D01*
X282873Y2959D01*
X283473Y2559D01*
X283479Y2559D01*
X283481Y2555D01*
X284181Y2255D01*
X284210Y2262D01*
G37*
G36*
X274410Y78262D02*
X274410Y78262D01*
X274422Y78256D01*
X275022Y78556D01*
X275032Y78576D01*
X275044Y78578D01*
X275344Y79178D01*
X275344Y79179D01*
X275345Y79180D01*
X278645Y86480D01*
X278645Y86481D01*
X278945Y87181D01*
X278941Y87198D01*
X278945Y87201D01*
X278943Y87203D01*
X278948Y87210D01*
X278848Y87710D01*
X278829Y87727D01*
X278829Y87740D01*
X278129Y88240D01*
X278118Y88240D01*
X278116Y88247D01*
X277516Y88447D01*
X277511Y88445D01*
X277511Y88446D01*
X277493Y88446D01*
X277486Y88440D01*
X277478Y88444D01*
X276878Y88144D01*
X276870Y88128D01*
X276859Y88127D01*
X276659Y87827D01*
X276659Y87823D01*
X276656Y87822D01*
X276356Y87222D01*
X276356Y87220D01*
X276355Y87220D01*
X275555Y85420D01*
X275555Y85419D01*
X275554Y85418D01*
X275382Y84988D01*
X275239Y85130D01*
X274543Y86324D01*
X273543Y88124D01*
X273527Y88131D01*
X273525Y88142D01*
X273025Y88442D01*
X273010Y88441D01*
X273006Y88446D01*
X272989Y88446D01*
X272988Y88445D01*
X272984Y88447D01*
X272384Y88247D01*
X272380Y88241D01*
X272376Y88243D01*
X271676Y87843D01*
X271669Y87827D01*
X271658Y87825D01*
X271358Y87325D01*
X271361Y87292D01*
X271355Y87281D01*
X271655Y86581D01*
X271659Y86578D01*
X271658Y86575D01*
X274049Y82589D01*
X273952Y81813D01*
X273255Y80220D01*
X273255Y80219D01*
X273254Y80218D01*
X273054Y79718D01*
X273055Y79716D01*
X273053Y79716D01*
X272953Y79416D01*
X272959Y79399D01*
X272957Y79397D01*
X272958Y79395D01*
X272952Y79388D01*
X273052Y78988D01*
X273072Y78972D01*
X273073Y78959D01*
X273673Y78559D01*
X273679Y78559D01*
X273681Y78555D01*
X274381Y78255D01*
X274410Y78262D01*
G37*
G36*
X94613Y102260D02*
X94613Y102260D01*
X94622Y102256D01*
X95222Y102556D01*
X95233Y102578D01*
X95238Y102582D01*
X95236Y102585D01*
X95237Y102586D01*
X95249Y102592D01*
X95349Y103192D01*
X95346Y103197D01*
X95349Y103200D01*
X95349Y105297D01*
X95447Y105982D01*
X98041Y109873D01*
X98041Y109875D01*
X98043Y109876D01*
X98443Y110576D01*
X98440Y110600D01*
X98448Y110610D01*
X98348Y111110D01*
X98333Y111123D01*
X98335Y111135D01*
X97835Y111635D01*
X97822Y111637D01*
X97819Y111645D01*
X97119Y111945D01*
X97099Y111940D01*
X97090Y111948D01*
X96590Y111848D01*
X96573Y111828D01*
X96559Y111827D01*
X96159Y111227D01*
X94280Y108359D01*
X94032Y108441D01*
X92141Y111327D01*
X92138Y111328D01*
X92138Y111331D01*
X91738Y111831D01*
X91714Y111837D01*
X91708Y111849D01*
X91108Y111949D01*
X91087Y111938D01*
X91076Y111943D01*
X90376Y111543D01*
X90370Y111531D01*
X90362Y111531D01*
X89962Y111031D01*
X89961Y111008D01*
X89951Y111000D01*
X89951Y110400D01*
X89963Y110384D01*
X89959Y110373D01*
X90359Y109773D01*
X90359Y109772D01*
X92657Y106375D01*
X92951Y105788D01*
X92951Y103000D01*
X92959Y102989D01*
X92954Y102982D01*
X93154Y102482D01*
X93182Y102465D01*
X93186Y102453D01*
X93886Y102253D01*
X93896Y102256D01*
X93900Y102251D01*
X94600Y102251D01*
X94613Y102260D01*
G37*
G36*
X236405Y140254D02*
X236405Y140254D01*
X236408Y140251D01*
X237008Y140351D01*
X237031Y140376D01*
X237044Y140378D01*
X237344Y140978D01*
X237341Y140994D01*
X237349Y141000D01*
X237349Y147757D01*
X238003Y147851D01*
X240100Y147851D01*
X240115Y147862D01*
X240125Y147858D01*
X240625Y148158D01*
X240637Y148186D01*
X240649Y148192D01*
X240749Y148792D01*
X240746Y148797D01*
X240749Y148800D01*
X240749Y149500D01*
X240724Y149533D01*
X240722Y149544D01*
X240122Y149844D01*
X240106Y149841D01*
X240100Y149849D01*
X232600Y149849D01*
X232596Y149846D01*
X232593Y149849D01*
X231893Y149749D01*
X231864Y149719D01*
X231853Y149716D01*
X231653Y149116D01*
X231657Y149105D01*
X231651Y149100D01*
X231651Y148400D01*
X231667Y148379D01*
X231665Y148365D01*
X232065Y147965D01*
X232087Y147962D01*
X232093Y147951D01*
X232793Y147851D01*
X232798Y147854D01*
X232800Y147851D01*
X234870Y147851D01*
X235051Y147488D01*
X235051Y141300D01*
X235054Y141295D01*
X235051Y141292D01*
X235151Y140692D01*
X235170Y140675D01*
X235169Y140662D01*
X235669Y140262D01*
X235692Y140261D01*
X235700Y140251D01*
X236400Y140251D01*
X236405Y140254D01*
G37*
%LPC*%
G36*
X217034Y25542D02*
X217034Y25542D01*
X216848Y25915D01*
X216749Y26603D01*
X216749Y30555D01*
X218998Y30451D01*
X219004Y30455D01*
X219069Y30452D01*
X219156Y30278D01*
X219193Y30260D01*
X219200Y30251D01*
X220600Y30251D01*
X220605Y30254D01*
X220608Y30251D01*
X221208Y30351D01*
X221220Y30364D01*
X221231Y30362D01*
X221731Y30762D01*
X221737Y30787D01*
X221749Y30793D01*
X221849Y31493D01*
X221841Y31507D01*
X221847Y31516D01*
X221657Y32085D01*
X223290Y33526D01*
X223657Y32975D01*
X223952Y32385D01*
X224051Y31697D01*
X224051Y31004D01*
X223952Y30414D01*
X223657Y29726D01*
X223262Y29231D01*
X223261Y29223D01*
X223259Y29222D01*
X223261Y29219D01*
X223261Y29214D01*
X223252Y29210D01*
X223152Y28710D01*
X223162Y28689D01*
X223156Y28678D01*
X223755Y27480D01*
X223953Y26984D01*
X224148Y26303D01*
X223961Y25834D01*
X223284Y25447D01*
X222610Y25351D01*
X222139Y25634D01*
X221445Y27220D01*
X221440Y27222D01*
X221442Y27226D01*
X220942Y28026D01*
X220908Y28039D01*
X220900Y28049D01*
X219600Y28049D01*
X219591Y28042D01*
X219584Y28047D01*
X218984Y27847D01*
X218954Y27803D01*
X218951Y27800D01*
X218951Y25820D01*
X218577Y25447D01*
X217803Y25350D01*
X217034Y25542D01*
G37*
%LPD*%
G36*
X253905Y5254D02*
X253905Y5254D01*
X253908Y5251D01*
X254508Y5351D01*
X254512Y5356D01*
X254516Y5353D01*
X255116Y5553D01*
X255125Y5567D01*
X255135Y5565D01*
X255635Y6065D01*
X255636Y6074D01*
X255642Y6075D01*
X255942Y6575D01*
X255941Y6584D01*
X255947Y6586D01*
X256147Y7286D01*
X256144Y7296D01*
X256149Y7300D01*
X256149Y8000D01*
X256142Y8009D01*
X256147Y8016D01*
X255947Y8616D01*
X255936Y8623D01*
X255938Y8631D01*
X255538Y9131D01*
X255528Y9133D01*
X255527Y9141D01*
X254927Y9541D01*
X254918Y9540D01*
X254916Y9547D01*
X254316Y9747D01*
X254309Y9745D01*
X254307Y9749D01*
X253610Y9848D01*
X252841Y10041D01*
X252759Y10368D01*
X253305Y10550D01*
X253990Y10452D01*
X254686Y10253D01*
X254696Y10256D01*
X254700Y10251D01*
X255200Y10251D01*
X255224Y10269D01*
X255238Y10268D01*
X255738Y10868D01*
X255739Y10887D01*
X255749Y10892D01*
X255849Y11492D01*
X255835Y11518D01*
X255838Y11531D01*
X255438Y12031D01*
X255418Y12036D01*
X255414Y12047D01*
X254714Y12247D01*
X254709Y12246D01*
X254707Y12249D01*
X254008Y12349D01*
X253408Y12449D01*
X253399Y12444D01*
X253395Y12449D01*
X252495Y12349D01*
X252490Y12345D01*
X252486Y12347D01*
X251786Y12147D01*
X251781Y12140D01*
X251775Y12142D01*
X251275Y11842D01*
X251271Y11834D01*
X251265Y11835D01*
X250865Y11435D01*
X250864Y11423D01*
X250860Y11420D01*
X250854Y11418D01*
X250654Y10918D01*
X250657Y10910D01*
X250651Y10907D01*
X250551Y10207D01*
X250557Y10197D01*
X250551Y10192D01*
X250651Y9592D01*
X250658Y9586D01*
X250655Y9581D01*
X250955Y8881D01*
X250963Y8876D01*
X250962Y8869D01*
X251362Y8369D01*
X251376Y8366D01*
X251378Y8356D01*
X251978Y8056D01*
X251983Y8057D01*
X251984Y8053D01*
X252584Y7853D01*
X252587Y7854D01*
X252588Y7852D01*
X253386Y7653D01*
X253923Y7474D01*
X253772Y7246D01*
X253005Y7150D01*
X252420Y7345D01*
X251724Y7743D01*
X251707Y7740D01*
X251700Y7749D01*
X251100Y7749D01*
X251076Y7731D01*
X251062Y7732D01*
X250562Y7132D01*
X250562Y7120D01*
X250554Y7118D01*
X250354Y6618D01*
X250361Y6595D01*
X250360Y6595D01*
X250359Y6594D01*
X250359Y6593D01*
X250353Y6584D01*
X250553Y5984D01*
X250575Y5969D01*
X250578Y5956D01*
X251178Y5656D01*
X251180Y5656D01*
X251181Y5655D01*
X251881Y5355D01*
X251889Y5357D01*
X251892Y5351D01*
X252492Y5251D01*
X252497Y5254D01*
X252500Y5251D01*
X253900Y5251D01*
X253905Y5254D01*
G37*
G36*
X359405Y162254D02*
X359405Y162254D01*
X359408Y162251D01*
X360008Y162351D01*
X360012Y162356D01*
X360016Y162353D01*
X360616Y162553D01*
X360625Y162567D01*
X360635Y162565D01*
X361135Y163065D01*
X361136Y163074D01*
X361142Y163075D01*
X361442Y163575D01*
X361441Y163589D01*
X361449Y163593D01*
X361549Y164293D01*
X361546Y164298D01*
X361549Y164300D01*
X361549Y165000D01*
X361542Y165009D01*
X361547Y165016D01*
X361347Y165616D01*
X361336Y165623D01*
X361338Y165631D01*
X360938Y166131D01*
X360931Y166133D01*
X360931Y166138D01*
X360431Y166538D01*
X360417Y166539D01*
X360414Y166547D01*
X359714Y166747D01*
X359710Y166746D01*
X359708Y166749D01*
X359110Y166848D01*
X358334Y167042D01*
X358169Y167371D01*
X358705Y167550D01*
X359490Y167452D01*
X360186Y167253D01*
X360196Y167256D01*
X360200Y167251D01*
X360700Y167251D01*
X360728Y167272D01*
X360741Y167273D01*
X361141Y167873D01*
X361140Y167882D01*
X361147Y167884D01*
X361347Y168484D01*
X361333Y168524D01*
X361335Y168535D01*
X360835Y169035D01*
X360819Y169037D01*
X360816Y169047D01*
X360216Y169247D01*
X360209Y169245D01*
X360207Y169249D01*
X358807Y169449D01*
X358799Y169444D01*
X358794Y169449D01*
X357994Y169349D01*
X357990Y169345D01*
X357986Y169347D01*
X357286Y169147D01*
X357282Y169142D01*
X357278Y169144D01*
X356678Y168844D01*
X356673Y168834D01*
X356665Y168835D01*
X356265Y168435D01*
X356264Y168423D01*
X356260Y168420D01*
X356254Y168418D01*
X356054Y167918D01*
X356058Y167905D01*
X356051Y167900D01*
X356051Y167200D01*
X356054Y167195D01*
X356051Y167192D01*
X356151Y166592D01*
X356158Y166586D01*
X356155Y166581D01*
X356455Y165881D01*
X356463Y165876D01*
X356462Y165869D01*
X356862Y165369D01*
X356876Y165366D01*
X356878Y165356D01*
X357478Y165056D01*
X357483Y165057D01*
X357484Y165053D01*
X358084Y164853D01*
X358086Y164854D01*
X358086Y164853D01*
X358785Y164653D01*
X359323Y164474D01*
X359171Y164246D01*
X358503Y164150D01*
X357821Y164345D01*
X357227Y164741D01*
X357207Y164740D01*
X357200Y164749D01*
X356600Y164749D01*
X356576Y164731D01*
X356562Y164732D01*
X356062Y164132D01*
X356062Y164120D01*
X356054Y164118D01*
X355854Y163618D01*
X355861Y163595D01*
X355860Y163595D01*
X355859Y163594D01*
X355859Y163593D01*
X355853Y163584D01*
X356053Y162984D01*
X356075Y162969D01*
X356078Y162956D01*
X357278Y162356D01*
X357289Y162358D01*
X357293Y162351D01*
X357993Y162251D01*
X357998Y162254D01*
X358000Y162251D01*
X359400Y162251D01*
X359405Y162254D01*
G37*
G36*
X295321Y140267D02*
X295321Y140267D01*
X295335Y140265D01*
X295735Y140665D01*
X295736Y140677D01*
X295741Y140681D01*
X295739Y140683D01*
X295747Y140686D01*
X295947Y141386D01*
X295940Y141404D01*
X295947Y141414D01*
X295747Y142114D01*
X295727Y142129D01*
X295725Y142142D01*
X295225Y142442D01*
X295211Y142441D01*
X295207Y142449D01*
X294530Y142545D01*
X294249Y143014D01*
X294249Y144292D01*
X294434Y144845D01*
X295093Y144751D01*
X295103Y144757D01*
X295108Y144751D01*
X295708Y144851D01*
X295720Y144863D01*
X295730Y144861D01*
X296130Y145161D01*
X296137Y145188D01*
X296149Y145195D01*
X296249Y146095D01*
X296244Y146102D01*
X296249Y146107D01*
X296149Y146807D01*
X296127Y146829D01*
X296125Y146842D01*
X295625Y147142D01*
X295610Y147141D01*
X295606Y147146D01*
X295603Y147146D01*
X295600Y147149D01*
X294900Y147149D01*
X294896Y147146D01*
X294893Y147149D01*
X294249Y147057D01*
X294249Y149000D01*
X294230Y149025D01*
X294231Y149038D01*
X293731Y149438D01*
X293712Y149439D01*
X293706Y149449D01*
X292906Y149549D01*
X292894Y149542D01*
X292886Y149547D01*
X292186Y149347D01*
X292167Y149322D01*
X292154Y149318D01*
X291954Y148818D01*
X291958Y148805D01*
X291951Y148800D01*
X291951Y147420D01*
X291673Y147143D01*
X291084Y146947D01*
X291071Y146927D01*
X291058Y146925D01*
X290758Y146425D01*
X290758Y146421D01*
X290757Y146420D01*
X290759Y146418D01*
X290760Y146407D01*
X290751Y146400D01*
X290751Y145600D01*
X290758Y145591D01*
X290753Y145584D01*
X290953Y144984D01*
X290978Y144967D01*
X290982Y144954D01*
X291951Y144567D01*
X291951Y142500D01*
X291954Y142496D01*
X291951Y142493D01*
X292051Y141793D01*
X292059Y141785D01*
X292056Y141778D01*
X292356Y141178D01*
X292362Y141175D01*
X292361Y141170D01*
X292661Y140770D01*
X292674Y140767D01*
X292675Y140758D01*
X293175Y140458D01*
X293184Y140459D01*
X293186Y140453D01*
X293886Y140253D01*
X293896Y140256D01*
X293900Y140251D01*
X295300Y140251D01*
X295321Y140267D01*
G37*
G36*
X235318Y81265D02*
X235318Y81265D01*
X235331Y81262D01*
X235831Y81662D01*
X235834Y81674D01*
X235843Y81675D01*
X238543Y86375D01*
X238542Y86378D01*
X238544Y86378D01*
X238844Y86978D01*
X238841Y86997D01*
X238845Y87000D01*
X238842Y87003D01*
X238848Y87010D01*
X238748Y87510D01*
X238733Y87523D01*
X238735Y87535D01*
X238235Y88035D01*
X238222Y88037D01*
X238219Y88045D01*
X237519Y88345D01*
X237509Y88343D01*
X237490Y88343D01*
X237484Y88347D01*
X236884Y88147D01*
X236873Y88130D01*
X236862Y88131D01*
X236462Y87631D01*
X236461Y87623D01*
X236456Y87622D01*
X234970Y84649D01*
X234730Y84649D01*
X233244Y87622D01*
X233240Y87624D01*
X233241Y87627D01*
X232841Y88227D01*
X232814Y88237D01*
X232808Y88249D01*
X232208Y88349D01*
X232197Y88343D01*
X232185Y88343D01*
X232181Y88345D01*
X231481Y88045D01*
X231474Y88034D01*
X231465Y88035D01*
X230965Y87535D01*
X230964Y87523D01*
X230958Y87519D01*
X230962Y87513D01*
X230962Y87508D01*
X230951Y87500D01*
X230951Y86900D01*
X230960Y86887D01*
X230956Y86878D01*
X231256Y86278D01*
X231258Y86277D01*
X231257Y86275D01*
X233957Y81575D01*
X233976Y81568D01*
X233978Y81556D01*
X234578Y81256D01*
X234594Y81259D01*
X234600Y81251D01*
X235300Y81251D01*
X235318Y81265D01*
G37*
G36*
X278004Y140254D02*
X278004Y140254D01*
X278007Y140251D01*
X278707Y140351D01*
X278715Y140359D01*
X278722Y140356D01*
X279322Y140656D01*
X279326Y140664D01*
X279332Y140662D01*
X279932Y141162D01*
X279935Y141179D01*
X279946Y141182D01*
X280146Y141682D01*
X280138Y141710D01*
X280144Y141722D01*
X279844Y142322D01*
X279837Y142326D01*
X279838Y142332D01*
X279338Y142932D01*
X279321Y142935D01*
X279318Y142946D01*
X278818Y143146D01*
X278790Y143138D01*
X278778Y143144D01*
X278182Y142846D01*
X277497Y142650D01*
X276924Y142746D01*
X276449Y143220D01*
X276449Y143892D01*
X276641Y144468D01*
X277215Y144851D01*
X277790Y144851D01*
X278481Y144555D01*
X278482Y144555D01*
X278482Y144554D01*
X278982Y144354D01*
X279013Y144363D01*
X279025Y144358D01*
X279525Y144658D01*
X279531Y144671D01*
X279540Y144671D01*
X280040Y145371D01*
X280040Y145387D01*
X280049Y145392D01*
X280149Y145992D01*
X280135Y146018D01*
X280138Y146031D01*
X279738Y146531D01*
X279728Y146533D01*
X279727Y146541D01*
X279127Y146941D01*
X279116Y146940D01*
X279114Y146947D01*
X278414Y147147D01*
X278409Y147146D01*
X278407Y147149D01*
X277707Y147249D01*
X277702Y147246D01*
X277700Y147249D01*
X277100Y147249D01*
X277093Y147244D01*
X277091Y147244D01*
X277086Y147247D01*
X276386Y147047D01*
X276385Y147046D01*
X276384Y147047D01*
X275784Y146847D01*
X275779Y146839D01*
X275773Y146841D01*
X275173Y146441D01*
X275169Y146431D01*
X275162Y146431D01*
X274762Y145931D01*
X274761Y145927D01*
X274759Y145927D01*
X274359Y145327D01*
X274360Y145318D01*
X274353Y145316D01*
X274153Y144716D01*
X274155Y144709D01*
X274151Y144707D01*
X274051Y144007D01*
X274054Y144002D01*
X274051Y144000D01*
X274051Y143300D01*
X274054Y143296D01*
X274051Y143293D01*
X274151Y142593D01*
X274159Y142585D01*
X274156Y142578D01*
X274456Y141978D01*
X274463Y141975D01*
X274462Y141969D01*
X274862Y141469D01*
X274866Y141468D01*
X274865Y141465D01*
X275365Y140965D01*
X275372Y140964D01*
X275373Y140959D01*
X275973Y140559D01*
X275984Y140560D01*
X275986Y140553D01*
X276686Y140353D01*
X276690Y140354D01*
X276692Y140351D01*
X277292Y140251D01*
X277297Y140254D01*
X277300Y140251D01*
X278000Y140251D01*
X278004Y140254D01*
G37*
G36*
X260106Y81255D02*
X260106Y81255D01*
X260110Y81252D01*
X260610Y81352D01*
X260635Y81381D01*
X260647Y81384D01*
X260847Y81984D01*
X260843Y81995D01*
X260849Y82000D01*
X260849Y82900D01*
X260836Y82918D01*
X260839Y82930D01*
X260539Y83330D01*
X260518Y83336D01*
X260514Y83347D01*
X259830Y83543D01*
X259549Y83916D01*
X259549Y90700D01*
X259538Y90715D01*
X259542Y90725D01*
X259242Y91225D01*
X259218Y91235D01*
X259214Y91247D01*
X258514Y91447D01*
X258509Y91446D01*
X258497Y91446D01*
X258494Y91449D01*
X257694Y91349D01*
X257678Y91333D01*
X257665Y91335D01*
X257265Y90935D01*
X257264Y90922D01*
X257256Y90917D01*
X257262Y90910D01*
X257262Y90908D01*
X257251Y90900D01*
X257251Y83300D01*
X257254Y83296D01*
X257251Y83293D01*
X257351Y82593D01*
X257357Y82587D01*
X257354Y82582D01*
X257554Y82082D01*
X257562Y82077D01*
X257561Y82070D01*
X257861Y81670D01*
X257876Y81666D01*
X257878Y81656D01*
X258478Y81356D01*
X258490Y81358D01*
X258495Y81351D01*
X259395Y81251D01*
X259398Y81253D01*
X259400Y81251D01*
X260100Y81251D01*
X260106Y81255D01*
G37*
G36*
X269907Y5256D02*
X269907Y5256D01*
X269912Y5252D01*
X270312Y5352D01*
X270331Y5375D01*
X270344Y5378D01*
X270644Y5978D01*
X270641Y5994D01*
X270649Y6000D01*
X270649Y6900D01*
X270636Y6918D01*
X270639Y6930D01*
X270339Y7330D01*
X270318Y7336D01*
X270314Y7347D01*
X269630Y7543D01*
X269349Y7916D01*
X269349Y14700D01*
X269338Y14715D01*
X269342Y14725D01*
X269042Y15225D01*
X269018Y15235D01*
X269014Y15247D01*
X268314Y15447D01*
X268309Y15446D01*
X268297Y15446D01*
X268294Y15449D01*
X267494Y15349D01*
X267478Y15333D01*
X267465Y15335D01*
X267065Y14935D01*
X267064Y14922D01*
X267056Y14917D01*
X267062Y14910D01*
X267062Y14908D01*
X267051Y14900D01*
X267051Y7300D01*
X267054Y7296D01*
X267051Y7293D01*
X267151Y6593D01*
X267157Y6587D01*
X267154Y6582D01*
X267354Y6082D01*
X267362Y6077D01*
X267361Y6070D01*
X267661Y5670D01*
X267676Y5666D01*
X267678Y5656D01*
X268278Y5356D01*
X268290Y5358D01*
X268295Y5351D01*
X269195Y5251D01*
X269198Y5253D01*
X269200Y5251D01*
X269900Y5251D01*
X269907Y5256D01*
G37*
G36*
X251806Y81351D02*
X251806Y81351D01*
X251819Y81364D01*
X251830Y81361D01*
X252230Y81661D01*
X252234Y81677D01*
X252239Y81681D01*
X252236Y81685D01*
X252237Y81687D01*
X252249Y81693D01*
X252349Y82393D01*
X252346Y82398D01*
X252349Y82400D01*
X252349Y85092D01*
X252540Y85665D01*
X253108Y85949D01*
X253789Y85852D01*
X254384Y85653D01*
X254418Y85665D01*
X254431Y85662D01*
X254931Y86062D01*
X254935Y86078D01*
X254945Y86081D01*
X255245Y86781D01*
X255242Y86794D01*
X255249Y86800D01*
X255249Y87400D01*
X255240Y87413D01*
X255244Y87422D01*
X254944Y88022D01*
X254914Y88037D01*
X254908Y88049D01*
X254308Y88149D01*
X254307Y88148D01*
X254307Y88149D01*
X253607Y88249D01*
X253599Y88244D01*
X253588Y88244D01*
X253586Y88242D01*
X253581Y88245D01*
X252881Y87945D01*
X252876Y87937D01*
X252869Y87938D01*
X252411Y87572D01*
X252241Y87827D01*
X252226Y87832D01*
X252225Y87842D01*
X251725Y88142D01*
X251710Y88141D01*
X251706Y88146D01*
X251703Y88146D01*
X251700Y88149D01*
X250800Y88149D01*
X250795Y88146D01*
X250790Y88146D01*
X250788Y88144D01*
X250784Y88147D01*
X250184Y87947D01*
X250171Y87927D01*
X250158Y87917D01*
X250153Y87916D01*
X249953Y87316D01*
X249957Y87305D01*
X249951Y87300D01*
X249951Y81900D01*
X249962Y81885D01*
X249958Y81875D01*
X250258Y81375D01*
X250286Y81363D01*
X250293Y81351D01*
X250993Y81251D01*
X251001Y81256D01*
X251006Y81251D01*
X251806Y81351D01*
G37*
G36*
X88306Y151351D02*
X88306Y151351D01*
X88319Y151364D01*
X88330Y151361D01*
X88730Y151661D01*
X88734Y151677D01*
X88739Y151681D01*
X88736Y151685D01*
X88737Y151687D01*
X88749Y151693D01*
X88849Y152393D01*
X88846Y152398D01*
X88849Y152400D01*
X88849Y155092D01*
X89040Y155665D01*
X89608Y155949D01*
X90289Y155852D01*
X90884Y155653D01*
X90915Y155663D01*
X90927Y155659D01*
X91527Y156059D01*
X91535Y156082D01*
X91547Y156086D01*
X91747Y156786D01*
X91746Y156790D01*
X91749Y156792D01*
X91849Y157392D01*
X91837Y157415D01*
X91841Y157427D01*
X91441Y158027D01*
X91414Y158037D01*
X91408Y158049D01*
X90808Y158149D01*
X90807Y158148D01*
X90807Y158149D01*
X90107Y158249D01*
X90099Y158244D01*
X90090Y158244D01*
X90085Y158241D01*
X90078Y158244D01*
X89478Y157944D01*
X89476Y157940D01*
X89473Y157941D01*
X88914Y157568D01*
X88741Y157827D01*
X88726Y157832D01*
X88725Y157842D01*
X88225Y158142D01*
X88210Y158141D01*
X88206Y158146D01*
X88203Y158146D01*
X88200Y158149D01*
X87300Y158149D01*
X87295Y158146D01*
X87291Y158146D01*
X87287Y158143D01*
X87282Y158146D01*
X86782Y157946D01*
X86770Y157926D01*
X86758Y157917D01*
X86753Y157916D01*
X86553Y157316D01*
X86557Y157305D01*
X86551Y157300D01*
X86551Y151900D01*
X86562Y151885D01*
X86558Y151875D01*
X86858Y151375D01*
X86886Y151364D01*
X86892Y151351D01*
X87492Y151251D01*
X87501Y151256D01*
X87506Y151251D01*
X88306Y151351D01*
G37*
%LPC*%
G36*
X223810Y83649D02*
X223810Y83649D01*
X223126Y83943D01*
X222633Y84337D01*
X221949Y85020D01*
X221949Y86392D01*
X222147Y86984D01*
X222343Y87573D01*
X222831Y88062D01*
X223422Y88455D01*
X224008Y88651D01*
X224692Y88651D01*
X225278Y88455D01*
X225866Y88063D01*
X226258Y87573D01*
X226553Y86985D01*
X226651Y86396D01*
X226651Y85608D01*
X226454Y85019D01*
X226162Y84434D01*
X225575Y84043D01*
X224985Y83747D01*
X224396Y83649D01*
X223810Y83649D01*
G37*
%LPD*%
%LPC*%
G36*
X216749Y30656D02*
X216749Y30656D01*
X216749Y34091D01*
X216939Y34564D01*
X217512Y34851D01*
X220992Y34851D01*
X221581Y34654D01*
X222177Y34356D01*
X222870Y33961D01*
X223227Y33604D01*
X221593Y32258D01*
X221022Y32544D01*
X221011Y32542D01*
X221007Y32549D01*
X220307Y32649D01*
X220302Y32646D01*
X220300Y32649D01*
X219700Y32649D01*
X219696Y32646D01*
X219693Y32649D01*
X218993Y32549D01*
X218951Y32506D01*
X218955Y32503D01*
X218951Y32500D01*
X218951Y30556D01*
X216749Y30656D01*
G37*
%LPD*%
G36*
X247709Y5258D02*
X247709Y5258D01*
X247716Y5253D01*
X248316Y5453D01*
X248329Y5473D01*
X248342Y5475D01*
X248642Y5975D01*
X248640Y5993D01*
X248649Y6000D01*
X248649Y11500D01*
X248638Y11515D01*
X248642Y11525D01*
X248342Y12025D01*
X248314Y12037D01*
X248307Y12049D01*
X247607Y12149D01*
X247602Y12146D01*
X247597Y12146D01*
X247594Y12149D01*
X246794Y12049D01*
X246778Y12033D01*
X246765Y12035D01*
X246365Y11635D01*
X246364Y11623D01*
X246357Y11617D01*
X246361Y11612D01*
X246351Y11607D01*
X246251Y10907D01*
X246254Y10902D01*
X246251Y10900D01*
X246251Y6400D01*
X246254Y6396D01*
X246251Y6393D01*
X246351Y5693D01*
X246367Y5678D01*
X246365Y5665D01*
X246765Y5265D01*
X246792Y5262D01*
X246800Y5251D01*
X247700Y5251D01*
X247709Y5258D01*
G37*
G36*
X353108Y162257D02*
X353108Y162257D01*
X353114Y162253D01*
X353814Y162453D01*
X353833Y162478D01*
X353846Y162482D01*
X354046Y162982D01*
X354042Y162995D01*
X354049Y163000D01*
X354049Y168500D01*
X354038Y168515D01*
X354042Y168525D01*
X353742Y169025D01*
X353714Y169037D01*
X353708Y169049D01*
X353108Y169149D01*
X353103Y169146D01*
X353098Y169146D01*
X353095Y169149D01*
X352195Y169049D01*
X352178Y169033D01*
X352165Y169035D01*
X351765Y168635D01*
X351764Y168623D01*
X351757Y168617D01*
X351762Y168610D01*
X351762Y168608D01*
X351751Y168600D01*
X351751Y163400D01*
X351754Y163396D01*
X351751Y163393D01*
X351851Y162693D01*
X351867Y162678D01*
X351865Y162665D01*
X352265Y162265D01*
X352292Y162262D01*
X352300Y162251D01*
X353100Y162251D01*
X353108Y162257D01*
G37*
%LPC*%
G36*
X238533Y7649D02*
X238533Y7649D01*
X238349Y8109D01*
X238349Y12175D01*
X238716Y12451D01*
X240088Y12451D01*
X240677Y12157D01*
X241167Y11862D01*
X241656Y11276D01*
X241852Y10689D01*
X241950Y10001D01*
X241852Y9412D01*
X241656Y8824D01*
X241165Y8235D01*
X240669Y7838D01*
X240668Y7834D01*
X240665Y7835D01*
X240480Y7649D01*
X238533Y7649D01*
G37*
%LPD*%
G36*
X172747Y162987D02*
X172747Y162987D01*
X172742Y162994D01*
X172749Y163000D01*
X172749Y165400D01*
X172740Y165413D01*
X172744Y165422D01*
X172644Y165622D01*
X172607Y165641D01*
X172600Y165649D01*
X167500Y165649D01*
X167479Y165633D01*
X167465Y165635D01*
X167265Y165435D01*
X167262Y165408D01*
X167251Y165400D01*
X167251Y163000D01*
X167287Y162953D01*
X167294Y162958D01*
X167300Y162951D01*
X172700Y162951D01*
X172747Y162987D01*
G37*
%LPC*%
G36*
X326733Y164649D02*
X326733Y164649D01*
X326549Y165109D01*
X326549Y169175D01*
X326916Y169451D01*
X328190Y169451D01*
X328878Y169156D01*
X329365Y168863D01*
X329757Y168275D01*
X330052Y167685D01*
X330150Y167001D01*
X330053Y166415D01*
X329757Y165825D01*
X329363Y165234D01*
X328869Y164838D01*
X328868Y164834D01*
X328865Y164835D01*
X328680Y164649D01*
X326733Y164649D01*
G37*
%LPD*%
%LPC*%
G36*
X343940Y164649D02*
X343940Y164649D01*
X343849Y165105D01*
X343849Y169175D01*
X344216Y169451D01*
X345488Y169451D01*
X346078Y169156D01*
X346666Y168862D01*
X347057Y168275D01*
X347352Y167685D01*
X347450Y167001D01*
X347353Y166415D01*
X347057Y165825D01*
X346663Y165234D01*
X346169Y164838D01*
X346168Y164834D01*
X346165Y164835D01*
X345980Y164649D01*
X343940Y164649D01*
G37*
%LPD*%
%LPC*%
G36*
X222340Y7649D02*
X222340Y7649D01*
X222249Y8105D01*
X222249Y12180D01*
X222520Y12451D01*
X223888Y12451D01*
X224477Y12157D01*
X224967Y11862D01*
X225456Y11276D01*
X225652Y10689D01*
X225750Y10001D01*
X225652Y9412D01*
X225456Y8824D01*
X224965Y8235D01*
X224469Y7838D01*
X224468Y7834D01*
X224465Y7835D01*
X224280Y7649D01*
X222340Y7649D01*
G37*
%LPD*%
%LPC*%
G36*
X230700Y156740D02*
X230700Y156740D01*
X230580Y156800D01*
X230565Y156804D01*
X230552Y156813D01*
X230418Y156839D01*
X230412Y156840D01*
X230411Y156840D01*
X230410Y156840D01*
X230300Y156840D01*
X230180Y156900D01*
X230165Y156904D01*
X230152Y156913D01*
X230018Y156939D01*
X230012Y156940D01*
X230011Y156940D01*
X230010Y156940D01*
X229900Y156940D01*
X229635Y157073D01*
X229579Y157129D01*
X229547Y157149D01*
X229480Y157200D01*
X229393Y157243D01*
X229350Y157330D01*
X229326Y157359D01*
X229279Y157429D01*
X229223Y157485D01*
X229190Y157550D01*
X229190Y157660D01*
X229182Y157697D01*
X229171Y157780D01*
X229090Y158022D01*
X229090Y158370D01*
X229150Y158490D01*
X229154Y158505D01*
X229163Y158518D01*
X229189Y158652D01*
X229190Y158659D01*
X229190Y158660D01*
X229190Y158770D01*
X229393Y159177D01*
X229480Y159220D01*
X229509Y159244D01*
X229579Y159291D01*
X229635Y159348D01*
X229947Y159503D01*
X229980Y159520D01*
X230009Y159544D01*
X230079Y159591D01*
X230135Y159648D01*
X230256Y159708D01*
X230472Y159780D01*
X230610Y159780D01*
X230625Y159783D01*
X230640Y159781D01*
X230772Y159818D01*
X230779Y159819D01*
X230779Y159820D01*
X230780Y159820D01*
X230900Y159880D01*
X231210Y159880D01*
X231247Y159888D01*
X231330Y159899D01*
X231572Y159980D01*
X231910Y159980D01*
X231947Y159988D01*
X232030Y159999D01*
X232272Y160080D01*
X232410Y160080D01*
X232425Y160083D01*
X232440Y160081D01*
X232572Y160118D01*
X232579Y160119D01*
X232579Y160120D01*
X232580Y160120D01*
X232700Y160180D01*
X233010Y160180D01*
X233025Y160183D01*
X233040Y160181D01*
X233172Y160218D01*
X233179Y160219D01*
X233179Y160220D01*
X233180Y160220D01*
X233268Y160264D01*
X233300Y160280D01*
X233410Y160280D01*
X233425Y160283D01*
X233440Y160281D01*
X233572Y160318D01*
X233579Y160319D01*
X233579Y160320D01*
X233580Y160320D01*
X233830Y160445D01*
X233830Y158822D01*
X233758Y158606D01*
X233670Y158430D01*
X233664Y158407D01*
X233649Y158380D01*
X233478Y157865D01*
X233341Y157729D01*
X233325Y157702D01*
X233294Y157671D01*
X233115Y157402D01*
X232968Y157256D01*
X232754Y157113D01*
X232418Y157029D01*
X232388Y157013D01*
X232340Y157000D01*
X232020Y156840D01*
X231610Y156840D01*
X231580Y156833D01*
X231535Y156833D01*
X231072Y156740D01*
X230700Y156740D01*
G37*
%LPD*%
G36*
X339033Y165976D02*
X339033Y165976D01*
X339044Y165978D01*
X339344Y166578D01*
X339341Y166594D01*
X339349Y166600D01*
X339349Y167300D01*
X339340Y167313D01*
X339344Y167322D01*
X339044Y167922D01*
X339013Y167937D01*
X339007Y167949D01*
X338307Y168049D01*
X338302Y168046D01*
X338300Y168049D01*
X334900Y168049D01*
X334885Y168038D01*
X334875Y168042D01*
X334375Y167742D01*
X334363Y167714D01*
X334351Y167707D01*
X334251Y167007D01*
X334256Y166999D01*
X334255Y166998D01*
X334255Y166997D01*
X334251Y166993D01*
X334351Y166293D01*
X334373Y166271D01*
X334375Y166258D01*
X334875Y165958D01*
X334893Y165960D01*
X334900Y165951D01*
X339000Y165951D01*
X339033Y165976D01*
G37*
%LPC*%
G36*
X207114Y25349D02*
X207114Y25349D01*
X206644Y25631D01*
X206549Y26105D01*
X206536Y27083D01*
X208801Y27650D01*
X209290Y27552D01*
X209297Y27555D01*
X209300Y27551D01*
X210870Y27551D01*
X211833Y25722D01*
X211285Y25448D01*
X210597Y25349D01*
X207114Y25349D01*
G37*
%LPD*%
G36*
X168709Y176058D02*
X168709Y176058D01*
X168716Y176053D01*
X169316Y176253D01*
X169325Y176267D01*
X169335Y176265D01*
X169935Y176865D01*
X169937Y176881D01*
X169947Y176884D01*
X170147Y177484D01*
X170143Y177495D01*
X170149Y177500D01*
X170149Y178100D01*
X170142Y178109D01*
X170147Y178116D01*
X170047Y178416D01*
X170042Y178419D01*
X170044Y178422D01*
X169944Y178622D01*
X169940Y178624D01*
X169941Y178627D01*
X169741Y178927D01*
X169734Y178930D01*
X169735Y178935D01*
X169335Y179335D01*
X169319Y179337D01*
X169316Y179347D01*
X168716Y179547D01*
X168708Y179544D01*
X168705Y179548D01*
X168701Y179548D01*
X168700Y179549D01*
X168100Y179549D01*
X168098Y179548D01*
X168095Y179548D01*
X168089Y179543D01*
X168084Y179547D01*
X167784Y179447D01*
X167781Y179442D01*
X167778Y179444D01*
X167578Y179344D01*
X167576Y179340D01*
X167573Y179341D01*
X167273Y179141D01*
X167270Y179134D01*
X167265Y179135D01*
X167065Y178935D01*
X167064Y178923D01*
X167060Y178921D01*
X167062Y178918D01*
X167053Y178916D01*
X166957Y178627D01*
X166765Y178435D01*
X166763Y178419D01*
X166753Y178416D01*
X166653Y178116D01*
X166657Y178105D01*
X166651Y178100D01*
X166651Y177500D01*
X166658Y177491D01*
X166653Y177484D01*
X166753Y177184D01*
X166761Y177179D01*
X166759Y177173D01*
X166957Y176875D01*
X167056Y176678D01*
X167066Y176673D01*
X167065Y176665D01*
X167265Y176465D01*
X167272Y176464D01*
X167273Y176459D01*
X167573Y176259D01*
X167577Y176259D01*
X167578Y176256D01*
X167778Y176156D01*
X167783Y176157D01*
X167784Y176153D01*
X168084Y176053D01*
X168095Y176057D01*
X168100Y176051D01*
X168700Y176051D01*
X168709Y176058D01*
G37*
%LPC*%
G36*
X224849Y145349D02*
X224849Y145349D01*
X224849Y147275D01*
X225216Y147551D01*
X226588Y147551D01*
X227163Y147263D01*
X227451Y146688D01*
X227451Y146014D01*
X227168Y145542D01*
X226493Y145349D01*
X224849Y145349D01*
G37*
%LPD*%
%LPC*%
G36*
X49649Y156249D02*
X49649Y156249D01*
X49649Y158175D01*
X50016Y158451D01*
X51292Y158451D01*
X51868Y158259D01*
X52251Y157685D01*
X52251Y157014D01*
X51963Y156534D01*
X51584Y156249D01*
X49649Y156249D01*
G37*
%LPD*%
G36*
X248207Y13051D02*
X248207Y13051D01*
X248215Y13059D01*
X248222Y13056D01*
X248422Y13156D01*
X248432Y13177D01*
X248439Y13182D01*
X248447Y13184D01*
X248647Y13784D01*
X248643Y13795D01*
X248649Y13800D01*
X248649Y14500D01*
X248642Y14509D01*
X248647Y14516D01*
X248447Y15116D01*
X248418Y15135D01*
X248414Y15147D01*
X247714Y15347D01*
X247701Y15342D01*
X247695Y15349D01*
X246795Y15249D01*
X246781Y15236D01*
X246770Y15239D01*
X246370Y14939D01*
X246363Y14914D01*
X246351Y14908D01*
X246251Y14308D01*
X246257Y14298D01*
X246251Y14293D01*
X246351Y13593D01*
X246364Y13580D01*
X246362Y13569D01*
X246762Y13069D01*
X246787Y13063D01*
X246793Y13051D01*
X247493Y12951D01*
X247502Y12956D01*
X247507Y12951D01*
X248207Y13051D01*
G37*
G36*
X353003Y169957D02*
X353003Y169957D01*
X353008Y169951D01*
X353608Y170051D01*
X353615Y170059D01*
X353622Y170056D01*
X353822Y170156D01*
X353832Y170177D01*
X353839Y170182D01*
X353847Y170184D01*
X354047Y170784D01*
X354043Y170795D01*
X354049Y170800D01*
X354049Y171500D01*
X354042Y171509D01*
X354047Y171516D01*
X353847Y172116D01*
X353820Y172134D01*
X353816Y172147D01*
X353216Y172347D01*
X353201Y172342D01*
X353195Y172349D01*
X352295Y172249D01*
X352281Y172236D01*
X352270Y172239D01*
X351870Y171939D01*
X351863Y171914D01*
X351851Y171908D01*
X351751Y171308D01*
X351754Y171303D01*
X351751Y171300D01*
X351751Y170600D01*
X351767Y170579D01*
X351765Y170565D01*
X352265Y170065D01*
X352287Y170062D01*
X352293Y170051D01*
X352993Y169951D01*
X353003Y169957D01*
G37*
%LPC*%
G36*
X59617Y153649D02*
X59617Y153649D01*
X59139Y154032D01*
X58851Y154608D01*
X58947Y155283D01*
X59235Y155762D01*
X59812Y156051D01*
X60483Y156051D01*
X60961Y155668D01*
X61249Y155091D01*
X61153Y154320D01*
X60771Y153842D01*
X60192Y153649D01*
X59617Y153649D01*
G37*
%LPD*%
%LPC*%
G36*
X275612Y7649D02*
X275612Y7649D01*
X275029Y7941D01*
X274749Y8220D01*
X274749Y8888D01*
X275037Y9463D01*
X275612Y9751D01*
X276200Y9751D01*
X276233Y9776D01*
X276244Y9778D01*
X276258Y9806D01*
X276269Y9762D01*
X276757Y9371D01*
X276948Y8701D01*
X276757Y8127D01*
X276280Y7649D01*
X275612Y7649D01*
G37*
%LPD*%
%LPC*%
G36*
X265812Y83649D02*
X265812Y83649D01*
X265229Y83941D01*
X264949Y84220D01*
X264949Y84888D01*
X265237Y85463D01*
X265812Y85751D01*
X266483Y85751D01*
X266957Y85371D01*
X267148Y84701D01*
X266957Y84127D01*
X266480Y83649D01*
X265812Y83649D01*
G37*
%LPD*%
%LPC*%
G36*
X268312Y142649D02*
X268312Y142649D01*
X267726Y142942D01*
X267353Y143222D01*
X267448Y143885D01*
X267737Y144463D01*
X268312Y144751D01*
X268900Y144751D01*
X268933Y144776D01*
X268944Y144778D01*
X268958Y144806D01*
X268966Y144773D01*
X268965Y144765D01*
X269358Y144372D01*
X269647Y143698D01*
X269457Y143127D01*
X268980Y142649D01*
X268312Y142649D01*
G37*
%LPD*%
%LPC*%
G36*
X198926Y29251D02*
X198926Y29251D01*
X199500Y29251D01*
X199505Y29254D01*
X199508Y29251D01*
X200063Y29344D01*
X200537Y27449D01*
X197900Y27449D01*
X197889Y27441D01*
X197882Y27446D01*
X197651Y27353D01*
X198926Y29251D01*
G37*
%LPD*%
%LPC*%
G36*
X261223Y7846D02*
X261223Y7846D01*
X260746Y8324D01*
X260649Y8904D01*
X260649Y9280D01*
X261026Y9656D01*
X261703Y9850D01*
X262271Y9755D01*
X262653Y9182D01*
X262748Y8611D01*
X262365Y8037D01*
X261890Y7751D01*
X261223Y7846D01*
G37*
%LPD*%
%LPC*%
G36*
X80326Y155349D02*
X80326Y155349D01*
X80163Y155594D01*
X80627Y156057D01*
X81205Y156250D01*
X81863Y156156D01*
X82041Y155622D01*
X81586Y155349D01*
X80326Y155349D01*
G37*
%LPD*%
%LPC*%
G36*
X243736Y85349D02*
X243736Y85349D01*
X243656Y85587D01*
X244127Y86057D01*
X244704Y86249D01*
X245267Y86156D01*
X245536Y85619D01*
X245086Y85349D01*
X243736Y85349D01*
G37*
%LPD*%
%LPC*%
G36*
X284826Y144349D02*
X284826Y144349D01*
X284666Y144590D01*
X285224Y145056D01*
X285804Y145249D01*
X286363Y145156D01*
X286542Y144618D01*
X286184Y144349D01*
X284826Y144349D01*
G37*
%LPD*%
%LPC*%
G36*
X196682Y25912D02*
X196682Y25912D01*
X196370Y25444D01*
X196367Y25444D01*
X196682Y25912D01*
G37*
%LPD*%
%LPC*%
G36*
X346741Y162608D02*
X346741Y162608D01*
X346743Y162611D01*
X346745Y162605D01*
X346741Y162608D01*
G37*
%LPD*%
D10*
X70160Y106980D02*
X70160Y87580D01*
X65080Y92660D01*
X70160Y87580D02*
X75240Y92660D01*
X62128Y105710D02*
X62130Y105907D01*
X62138Y106104D01*
X62150Y106301D01*
X62167Y106497D01*
X62188Y106693D01*
X62215Y106889D01*
X62246Y107083D01*
X62282Y107277D01*
X62323Y107470D01*
X62369Y107662D01*
X62419Y107852D01*
X62474Y108042D01*
X62533Y108229D01*
X62598Y108416D01*
X62666Y108601D01*
X62739Y108784D01*
X62817Y108965D01*
X62899Y109144D01*
X62986Y109321D01*
X63076Y109496D01*
X63171Y109669D01*
X63271Y109839D01*
X63374Y110007D01*
X63482Y110172D01*
X63593Y110335D01*
X63709Y110495D01*
X63828Y110652D01*
X63951Y110805D01*
X64078Y110956D01*
X64209Y111104D01*
X64343Y111248D01*
X64481Y111389D01*
X64622Y111527D01*
X64766Y111661D01*
X64914Y111792D01*
X65065Y111919D01*
X65218Y112042D01*
X65375Y112161D01*
X65535Y112277D01*
X65698Y112388D01*
X65863Y112496D01*
X66031Y112599D01*
X66201Y112699D01*
X66374Y112794D01*
X66549Y112884D01*
X66726Y112971D01*
X66905Y113053D01*
X67086Y113131D01*
X67269Y113204D01*
X67454Y113272D01*
X67641Y113337D01*
X67828Y113396D01*
X68018Y113451D01*
X68208Y113501D01*
X68400Y113547D01*
X68593Y113588D01*
X68787Y113624D01*
X68981Y113655D01*
X69177Y113682D01*
X69373Y113703D01*
X69569Y113720D01*
X69766Y113732D01*
X69963Y113740D01*
X70160Y113742D01*
X70357Y113740D01*
X70554Y113732D01*
X70751Y113720D01*
X70947Y113703D01*
X71143Y113682D01*
X71339Y113655D01*
X71533Y113624D01*
X71727Y113588D01*
X71920Y113547D01*
X72112Y113501D01*
X72302Y113451D01*
X72492Y113396D01*
X72679Y113337D01*
X72866Y113272D01*
X73051Y113204D01*
X73234Y113131D01*
X73415Y113053D01*
X73594Y112971D01*
X73771Y112884D01*
X73946Y112794D01*
X74119Y112699D01*
X74289Y112599D01*
X74457Y112496D01*
X74622Y112388D01*
X74785Y112277D01*
X74945Y112161D01*
X75102Y112042D01*
X75255Y111919D01*
X75406Y111792D01*
X75554Y111661D01*
X75698Y111527D01*
X75839Y111389D01*
X75977Y111248D01*
X76111Y111104D01*
X76242Y110956D01*
X76369Y110805D01*
X76492Y110652D01*
X76611Y110495D01*
X76727Y110335D01*
X76838Y110172D01*
X76946Y110007D01*
X77049Y109839D01*
X77149Y109669D01*
X77244Y109496D01*
X77334Y109321D01*
X77421Y109144D01*
X77503Y108965D01*
X77581Y108784D01*
X77654Y108601D01*
X77722Y108416D01*
X77787Y108229D01*
X77846Y108042D01*
X77901Y107852D01*
X77951Y107662D01*
X77997Y107470D01*
X78038Y107277D01*
X78074Y107083D01*
X78105Y106889D01*
X78132Y106693D01*
X78153Y106497D01*
X78170Y106301D01*
X78182Y106104D01*
X78190Y105907D01*
X78192Y105710D01*
X78190Y105513D01*
X78182Y105316D01*
X78170Y105119D01*
X78153Y104923D01*
X78132Y104727D01*
X78105Y104531D01*
X78074Y104337D01*
X78038Y104143D01*
X77997Y103950D01*
X77951Y103758D01*
X77901Y103568D01*
X77846Y103378D01*
X77787Y103191D01*
X77722Y103004D01*
X77654Y102819D01*
X77581Y102636D01*
X77503Y102455D01*
X77421Y102276D01*
X77334Y102099D01*
X77244Y101924D01*
X77149Y101751D01*
X77049Y101581D01*
X76946Y101413D01*
X76838Y101248D01*
X76727Y101085D01*
X76611Y100925D01*
X76492Y100768D01*
X76369Y100615D01*
X76242Y100464D01*
X76111Y100316D01*
X75977Y100172D01*
X75839Y100031D01*
X75698Y99893D01*
X75554Y99759D01*
X75406Y99628D01*
X75255Y99501D01*
X75102Y99378D01*
X74945Y99259D01*
X74785Y99143D01*
X74622Y99032D01*
X74457Y98924D01*
X74289Y98821D01*
X74119Y98721D01*
X73946Y98626D01*
X73771Y98536D01*
X73594Y98449D01*
X73415Y98367D01*
X73234Y98289D01*
X73051Y98216D01*
X72866Y98148D01*
X72679Y98083D01*
X72492Y98024D01*
X72302Y97969D01*
X72112Y97919D01*
X71920Y97873D01*
X71727Y97832D01*
X71533Y97796D01*
X71339Y97765D01*
X71143Y97738D01*
X70947Y97717D01*
X70751Y97700D01*
X70554Y97688D01*
X70357Y97680D01*
X70160Y97678D01*
X69963Y97680D01*
X69766Y97688D01*
X69569Y97700D01*
X69373Y97717D01*
X69177Y97738D01*
X68981Y97765D01*
X68787Y97796D01*
X68593Y97832D01*
X68400Y97873D01*
X68208Y97919D01*
X68018Y97969D01*
X67828Y98024D01*
X67641Y98083D01*
X67454Y98148D01*
X67269Y98216D01*
X67086Y98289D01*
X66905Y98367D01*
X66726Y98449D01*
X66549Y98536D01*
X66374Y98626D01*
X66201Y98721D01*
X66031Y98821D01*
X65863Y98924D01*
X65698Y99032D01*
X65535Y99143D01*
X65375Y99259D01*
X65218Y99378D01*
X65065Y99501D01*
X64914Y99628D01*
X64766Y99759D01*
X64622Y99893D01*
X64481Y100031D01*
X64343Y100172D01*
X64209Y100316D01*
X64078Y100464D01*
X63951Y100615D01*
X63828Y100768D01*
X63709Y100925D01*
X63593Y101085D01*
X63482Y101248D01*
X63374Y101413D01*
X63271Y101581D01*
X63171Y101751D01*
X63076Y101924D01*
X62986Y102099D01*
X62899Y102276D01*
X62817Y102455D01*
X62739Y102636D01*
X62666Y102819D01*
X62598Y103004D01*
X62533Y103191D01*
X62474Y103378D01*
X62419Y103568D01*
X62369Y103758D01*
X62323Y103950D01*
X62282Y104143D01*
X62246Y104337D01*
X62215Y104531D01*
X62188Y104727D01*
X62167Y104923D01*
X62150Y105119D01*
X62138Y105316D01*
X62130Y105513D01*
X62128Y105710D01*
D11*
X68890Y105710D02*
X68892Y105781D01*
X68898Y105852D01*
X68908Y105923D01*
X68922Y105993D01*
X68940Y106062D01*
X68961Y106129D01*
X68987Y106196D01*
X69016Y106261D01*
X69048Y106324D01*
X69085Y106386D01*
X69124Y106445D01*
X69167Y106502D01*
X69213Y106556D01*
X69262Y106608D01*
X69314Y106657D01*
X69368Y106703D01*
X69425Y106746D01*
X69484Y106785D01*
X69546Y106822D01*
X69609Y106854D01*
X69674Y106883D01*
X69741Y106909D01*
X69808Y106930D01*
X69877Y106948D01*
X69947Y106962D01*
X70018Y106972D01*
X70089Y106978D01*
X70160Y106980D01*
X70231Y106978D01*
X70302Y106972D01*
X70373Y106962D01*
X70443Y106948D01*
X70512Y106930D01*
X70579Y106909D01*
X70646Y106883D01*
X70711Y106854D01*
X70774Y106822D01*
X70836Y106785D01*
X70895Y106746D01*
X70952Y106703D01*
X71006Y106657D01*
X71058Y106608D01*
X71107Y106556D01*
X71153Y106502D01*
X71196Y106445D01*
X71235Y106386D01*
X71272Y106324D01*
X71304Y106261D01*
X71333Y106196D01*
X71359Y106129D01*
X71380Y106062D01*
X71398Y105993D01*
X71412Y105923D01*
X71422Y105852D01*
X71428Y105781D01*
X71430Y105710D01*
X71428Y105639D01*
X71422Y105568D01*
X71412Y105497D01*
X71398Y105427D01*
X71380Y105358D01*
X71359Y105291D01*
X71333Y105224D01*
X71304Y105159D01*
X71272Y105096D01*
X71235Y105034D01*
X71196Y104975D01*
X71153Y104918D01*
X71107Y104864D01*
X71058Y104812D01*
X71006Y104763D01*
X70952Y104717D01*
X70895Y104674D01*
X70836Y104635D01*
X70774Y104598D01*
X70711Y104566D01*
X70646Y104537D01*
X70579Y104511D01*
X70512Y104490D01*
X70443Y104472D01*
X70373Y104458D01*
X70302Y104448D01*
X70231Y104442D01*
X70160Y104440D01*
X70089Y104442D01*
X70018Y104448D01*
X69947Y104458D01*
X69877Y104472D01*
X69808Y104490D01*
X69741Y104511D01*
X69674Y104537D01*
X69609Y104566D01*
X69546Y104598D01*
X69484Y104635D01*
X69425Y104674D01*
X69368Y104717D01*
X69314Y104763D01*
X69262Y104812D01*
X69213Y104864D01*
X69167Y104918D01*
X69124Y104975D01*
X69085Y105034D01*
X69048Y105096D01*
X69016Y105159D01*
X68987Y105224D01*
X68961Y105291D01*
X68940Y105358D01*
X68922Y105427D01*
X68908Y105497D01*
X68898Y105568D01*
X68892Y105639D01*
X68890Y105710D01*
D10*
X70160Y105980D02*
X88560Y105980D01*
X83480Y100900D01*
X88560Y105980D02*
X83480Y111060D01*
D12*
X231364Y19840D02*
X248636Y19840D01*
X251176Y37620D02*
X251174Y37720D01*
X251168Y37819D01*
X251158Y37919D01*
X251145Y38017D01*
X251127Y38116D01*
X251106Y38213D01*
X251081Y38309D01*
X251052Y38405D01*
X251019Y38499D01*
X250983Y38592D01*
X250943Y38683D01*
X250899Y38773D01*
X250852Y38861D01*
X250802Y38947D01*
X250748Y39031D01*
X250691Y39113D01*
X250631Y39192D01*
X250567Y39270D01*
X250501Y39344D01*
X250432Y39416D01*
X250360Y39485D01*
X250286Y39551D01*
X250208Y39615D01*
X250129Y39675D01*
X250047Y39732D01*
X249963Y39786D01*
X249877Y39836D01*
X249789Y39883D01*
X249699Y39927D01*
X249608Y39967D01*
X249515Y40003D01*
X249421Y40036D01*
X249325Y40065D01*
X249229Y40090D01*
X249132Y40111D01*
X249033Y40129D01*
X248935Y40142D01*
X248835Y40152D01*
X248736Y40158D01*
X248636Y40160D01*
X231364Y40160D02*
X231264Y40158D01*
X231165Y40152D01*
X231065Y40142D01*
X230967Y40129D01*
X230868Y40111D01*
X230771Y40090D01*
X230675Y40065D01*
X230579Y40036D01*
X230485Y40003D01*
X230392Y39967D01*
X230301Y39927D01*
X230211Y39883D01*
X230123Y39836D01*
X230037Y39786D01*
X229953Y39732D01*
X229871Y39675D01*
X229792Y39615D01*
X229714Y39551D01*
X229640Y39485D01*
X229568Y39416D01*
X229499Y39344D01*
X229433Y39270D01*
X229369Y39192D01*
X229309Y39113D01*
X229252Y39031D01*
X229198Y38947D01*
X229148Y38861D01*
X229101Y38773D01*
X229057Y38683D01*
X229017Y38592D01*
X228981Y38499D01*
X228948Y38405D01*
X228919Y38309D01*
X228894Y38213D01*
X228873Y38116D01*
X228855Y38017D01*
X228842Y37919D01*
X228832Y37819D01*
X228826Y37720D01*
X228824Y37620D01*
X228824Y22380D02*
X228826Y22280D01*
X228832Y22181D01*
X228842Y22081D01*
X228855Y21983D01*
X228873Y21884D01*
X228894Y21787D01*
X228919Y21691D01*
X228948Y21595D01*
X228981Y21501D01*
X229017Y21408D01*
X229057Y21317D01*
X229101Y21227D01*
X229148Y21139D01*
X229198Y21053D01*
X229252Y20969D01*
X229309Y20887D01*
X229369Y20808D01*
X229433Y20730D01*
X229499Y20656D01*
X229568Y20584D01*
X229640Y20515D01*
X229714Y20449D01*
X229792Y20385D01*
X229871Y20325D01*
X229953Y20268D01*
X230037Y20214D01*
X230123Y20164D01*
X230211Y20117D01*
X230301Y20073D01*
X230392Y20033D01*
X230485Y19997D01*
X230579Y19964D01*
X230675Y19935D01*
X230771Y19910D01*
X230868Y19889D01*
X230967Y19871D01*
X231065Y19858D01*
X231165Y19848D01*
X231264Y19842D01*
X231364Y19840D01*
X248636Y19840D02*
X248736Y19842D01*
X248835Y19848D01*
X248935Y19858D01*
X249033Y19871D01*
X249132Y19889D01*
X249229Y19910D01*
X249325Y19935D01*
X249421Y19964D01*
X249515Y19997D01*
X249608Y20033D01*
X249699Y20073D01*
X249789Y20117D01*
X249877Y20164D01*
X249963Y20214D01*
X250047Y20268D01*
X250129Y20325D01*
X250208Y20385D01*
X250286Y20449D01*
X250360Y20515D01*
X250432Y20584D01*
X250501Y20656D01*
X250567Y20730D01*
X250631Y20808D01*
X250691Y20887D01*
X250748Y20969D01*
X250802Y21053D01*
X250852Y21139D01*
X250899Y21227D01*
X250943Y21317D01*
X250983Y21408D01*
X251019Y21501D01*
X251052Y21595D01*
X251081Y21691D01*
X251106Y21787D01*
X251127Y21884D01*
X251145Y21983D01*
X251158Y22081D01*
X251168Y22181D01*
X251174Y22280D01*
X251176Y22380D01*
X251176Y37620D01*
X228824Y37620D02*
X228824Y22380D01*
X231364Y40160D02*
X248636Y40160D01*
D10*
X473000Y25000D02*
X473000Y157000D01*
X333000Y157000D02*
X333000Y36000D01*
X339000Y4000D02*
X458000Y4000D01*
X473000Y157000D02*
X424000Y157000D01*
X397000Y157000D02*
X367000Y157000D01*
X340000Y157000D02*
X333000Y157000D01*
X333000Y10000D02*
X333002Y9848D01*
X333008Y9696D01*
X333017Y9544D01*
X333031Y9393D01*
X333048Y9242D01*
X333069Y9091D01*
X333094Y8941D01*
X333123Y8792D01*
X333155Y8644D01*
X333192Y8496D01*
X333231Y8349D01*
X333275Y8204D01*
X333323Y8059D01*
X333373Y7916D01*
X333428Y7774D01*
X333486Y7634D01*
X333548Y7495D01*
X333613Y7358D01*
X333682Y7222D01*
X333754Y7088D01*
X333829Y6956D01*
X333908Y6826D01*
X333990Y6698D01*
X334075Y6572D01*
X334164Y6449D01*
X334255Y6327D01*
X334350Y6208D01*
X334447Y6092D01*
X334548Y5978D01*
X334651Y5866D01*
X334757Y5757D01*
X334866Y5651D01*
X334978Y5548D01*
X335092Y5447D01*
X335208Y5350D01*
X335327Y5255D01*
X335449Y5164D01*
X335572Y5075D01*
X335698Y4990D01*
X335826Y4908D01*
X335956Y4829D01*
X336088Y4754D01*
X336222Y4682D01*
X336358Y4613D01*
X336495Y4548D01*
X336634Y4486D01*
X336774Y4428D01*
X336916Y4373D01*
X337059Y4323D01*
X337204Y4275D01*
X337349Y4231D01*
X337496Y4192D01*
X337644Y4155D01*
X337792Y4123D01*
X337941Y4094D01*
X338091Y4069D01*
X338242Y4048D01*
X338393Y4031D01*
X338544Y4017D01*
X338696Y4008D01*
X338848Y4002D01*
X339000Y4000D01*
D13*
X477686Y179840D02*
X477686Y200160D01*
D12*
X380000Y178500D02*
X371000Y178500D01*
X380000Y178500D02*
X380000Y194500D01*
X374000Y207500D02*
X306000Y207500D01*
X300000Y194500D02*
X300000Y178500D01*
X309000Y178500D01*
D10*
X58984Y141016D02*
X58984Y118984D01*
X58984Y141016D02*
X81016Y141016D01*
X81016Y118984D01*
X58984Y118984D01*
D14*
X56984Y143016D03*
D10*
X95400Y177300D02*
X95400Y202400D01*
X85400Y164600D02*
X54600Y164600D01*
X44600Y177600D02*
X44600Y202400D01*
X54600Y215400D02*
X85400Y215400D01*
X57300Y190000D02*
X57304Y190312D01*
X57315Y190623D01*
X57334Y190934D01*
X57361Y191245D01*
X57396Y191555D01*
X57437Y191863D01*
X57487Y192171D01*
X57544Y192478D01*
X57609Y192783D01*
X57681Y193086D01*
X57760Y193387D01*
X57847Y193687D01*
X57941Y193984D01*
X58042Y194279D01*
X58151Y194571D01*
X58267Y194860D01*
X58390Y195147D01*
X58519Y195430D01*
X58656Y195710D01*
X58800Y195987D01*
X58950Y196260D01*
X59107Y196529D01*
X59270Y196794D01*
X59440Y197056D01*
X59617Y197313D01*
X59799Y197565D01*
X59988Y197813D01*
X60183Y198057D01*
X60383Y198295D01*
X60590Y198529D01*
X60802Y198757D01*
X61020Y198980D01*
X61243Y199198D01*
X61471Y199410D01*
X61705Y199617D01*
X61943Y199817D01*
X62187Y200012D01*
X62435Y200201D01*
X62687Y200383D01*
X62944Y200560D01*
X63206Y200730D01*
X63471Y200893D01*
X63740Y201050D01*
X64013Y201200D01*
X64290Y201344D01*
X64570Y201481D01*
X64853Y201610D01*
X65140Y201733D01*
X65429Y201849D01*
X65721Y201958D01*
X66016Y202059D01*
X66313Y202153D01*
X66613Y202240D01*
X66914Y202319D01*
X67217Y202391D01*
X67522Y202456D01*
X67829Y202513D01*
X68137Y202563D01*
X68445Y202604D01*
X68755Y202639D01*
X69066Y202666D01*
X69377Y202685D01*
X69688Y202696D01*
X70000Y202700D01*
X70312Y202696D01*
X70623Y202685D01*
X70934Y202666D01*
X71245Y202639D01*
X71555Y202604D01*
X71863Y202563D01*
X72171Y202513D01*
X72478Y202456D01*
X72783Y202391D01*
X73086Y202319D01*
X73387Y202240D01*
X73687Y202153D01*
X73984Y202059D01*
X74279Y201958D01*
X74571Y201849D01*
X74860Y201733D01*
X75147Y201610D01*
X75430Y201481D01*
X75710Y201344D01*
X75987Y201200D01*
X76260Y201050D01*
X76529Y200893D01*
X76794Y200730D01*
X77056Y200560D01*
X77313Y200383D01*
X77565Y200201D01*
X77813Y200012D01*
X78057Y199817D01*
X78295Y199617D01*
X78529Y199410D01*
X78757Y199198D01*
X78980Y198980D01*
X79198Y198757D01*
X79410Y198529D01*
X79617Y198295D01*
X79817Y198057D01*
X80012Y197813D01*
X80201Y197565D01*
X80383Y197313D01*
X80560Y197056D01*
X80730Y196794D01*
X80893Y196529D01*
X81050Y196260D01*
X81200Y195987D01*
X81344Y195710D01*
X81481Y195430D01*
X81610Y195147D01*
X81733Y194860D01*
X81849Y194571D01*
X81958Y194279D01*
X82059Y193984D01*
X82153Y193687D01*
X82240Y193387D01*
X82319Y193086D01*
X82391Y192783D01*
X82456Y192478D01*
X82513Y192171D01*
X82563Y191863D01*
X82604Y191555D01*
X82639Y191245D01*
X82666Y190934D01*
X82685Y190623D01*
X82696Y190312D01*
X82700Y190000D01*
X82696Y189688D01*
X82685Y189377D01*
X82666Y189066D01*
X82639Y188755D01*
X82604Y188445D01*
X82563Y188137D01*
X82513Y187829D01*
X82456Y187522D01*
X82391Y187217D01*
X82319Y186914D01*
X82240Y186613D01*
X82153Y186313D01*
X82059Y186016D01*
X81958Y185721D01*
X81849Y185429D01*
X81733Y185140D01*
X81610Y184853D01*
X81481Y184570D01*
X81344Y184290D01*
X81200Y184013D01*
X81050Y183740D01*
X80893Y183471D01*
X80730Y183206D01*
X80560Y182944D01*
X80383Y182687D01*
X80201Y182435D01*
X80012Y182187D01*
X79817Y181943D01*
X79617Y181705D01*
X79410Y181471D01*
X79198Y181243D01*
X78980Y181020D01*
X78757Y180802D01*
X78529Y180590D01*
X78295Y180383D01*
X78057Y180183D01*
X77813Y179988D01*
X77565Y179799D01*
X77313Y179617D01*
X77056Y179440D01*
X76794Y179270D01*
X76529Y179107D01*
X76260Y178950D01*
X75987Y178800D01*
X75710Y178656D01*
X75430Y178519D01*
X75147Y178390D01*
X74860Y178267D01*
X74571Y178151D01*
X74279Y178042D01*
X73984Y177941D01*
X73687Y177847D01*
X73387Y177760D01*
X73086Y177681D01*
X72783Y177609D01*
X72478Y177544D01*
X72171Y177487D01*
X71863Y177437D01*
X71555Y177396D01*
X71245Y177361D01*
X70934Y177334D01*
X70623Y177315D01*
X70312Y177304D01*
X70000Y177300D01*
X69688Y177304D01*
X69377Y177315D01*
X69066Y177334D01*
X68755Y177361D01*
X68445Y177396D01*
X68137Y177437D01*
X67829Y177487D01*
X67522Y177544D01*
X67217Y177609D01*
X66914Y177681D01*
X66613Y177760D01*
X66313Y177847D01*
X66016Y177941D01*
X65721Y178042D01*
X65429Y178151D01*
X65140Y178267D01*
X64853Y178390D01*
X64570Y178519D01*
X64290Y178656D01*
X64013Y178800D01*
X63740Y178950D01*
X63471Y179107D01*
X63206Y179270D01*
X62944Y179440D01*
X62687Y179617D01*
X62435Y179799D01*
X62187Y179988D01*
X61943Y180183D01*
X61705Y180383D01*
X61471Y180590D01*
X61243Y180802D01*
X61020Y181020D01*
X60802Y181243D01*
X60590Y181471D01*
X60383Y181705D01*
X60183Y181943D01*
X59988Y182187D01*
X59799Y182435D01*
X59617Y182687D01*
X59440Y182944D01*
X59270Y183206D01*
X59107Y183471D01*
X58950Y183740D01*
X58800Y184013D01*
X58656Y184290D01*
X58519Y184570D01*
X58390Y184853D01*
X58267Y185140D01*
X58151Y185429D01*
X58042Y185721D01*
X57941Y186016D01*
X57847Y186313D01*
X57760Y186613D01*
X57681Y186914D01*
X57609Y187217D01*
X57544Y187522D01*
X57487Y187829D01*
X57437Y188137D01*
X57396Y188445D01*
X57361Y188755D01*
X57334Y189066D01*
X57315Y189377D01*
X57304Y189688D01*
X57300Y190000D01*
D12*
X281000Y98500D02*
X290000Y98500D01*
X290000Y114500D01*
X284000Y127500D02*
X216000Y127500D01*
X210000Y114500D02*
X210000Y98500D01*
X219000Y98500D01*
M02*
