G04 EAGLE Gerber RS-274X export*
G75*
%MOMM*%
%FSLAX34Y34*%
%LPD*%
%INBottom Copper*%
%IPPOS*%
%AMOC8*
5,1,8,0,0,1.08239X$1,22.5*%
G01*
%ADD10R,0.350000X2.000000*%
%ADD11C,1.000000*%
%ADD12C,0.736600*%
%ADD13C,0.177800*%
%ADD14C,0.254000*%

G36*
X497230Y2032D02*
X497230Y2032D01*
X497249Y2030D01*
X497351Y2052D01*
X497453Y2068D01*
X497470Y2078D01*
X497490Y2082D01*
X497579Y2135D01*
X497670Y2184D01*
X497684Y2198D01*
X497701Y2208D01*
X497768Y2287D01*
X497840Y2362D01*
X497848Y2380D01*
X497861Y2395D01*
X497900Y2491D01*
X497943Y2585D01*
X497945Y2605D01*
X497953Y2623D01*
X497971Y2790D01*
X497971Y207704D01*
X497956Y207800D01*
X497946Y207897D01*
X497936Y207921D01*
X497932Y207946D01*
X497886Y208032D01*
X497846Y208121D01*
X497829Y208141D01*
X497816Y208164D01*
X497746Y208231D01*
X497680Y208303D01*
X497657Y208315D01*
X497638Y208333D01*
X497550Y208374D01*
X497464Y208421D01*
X497439Y208426D01*
X497415Y208437D01*
X497318Y208448D01*
X497222Y208465D01*
X497196Y208461D01*
X497171Y208464D01*
X497075Y208443D01*
X496979Y208429D01*
X496956Y208417D01*
X496930Y208412D01*
X496847Y208362D01*
X496760Y208318D01*
X496741Y208299D01*
X496719Y208285D01*
X496656Y208212D01*
X496588Y208142D01*
X496572Y208113D01*
X496559Y208099D01*
X496547Y208068D01*
X496507Y207995D01*
X495747Y206160D01*
X493840Y204253D01*
X491348Y203221D01*
X488652Y203221D01*
X486160Y204253D01*
X484253Y206160D01*
X483221Y208652D01*
X483221Y211348D01*
X484253Y213840D01*
X486160Y215747D01*
X488652Y216779D01*
X491348Y216779D01*
X493840Y215747D01*
X495747Y213840D01*
X496507Y212005D01*
X496558Y211922D01*
X496604Y211836D01*
X496622Y211818D01*
X496636Y211796D01*
X496712Y211734D01*
X496782Y211667D01*
X496806Y211656D01*
X496826Y211639D01*
X496917Y211604D01*
X497005Y211563D01*
X497031Y211560D01*
X497055Y211551D01*
X497153Y211547D01*
X497249Y211536D01*
X497275Y211542D01*
X497301Y211541D01*
X497395Y211568D01*
X497490Y211588D01*
X497512Y211602D01*
X497537Y211609D01*
X497617Y211665D01*
X497701Y211715D01*
X497718Y211734D01*
X497739Y211749D01*
X497798Y211827D01*
X497861Y211901D01*
X497871Y211926D01*
X497886Y211947D01*
X497916Y212039D01*
X497953Y212130D01*
X497956Y212162D01*
X497962Y212181D01*
X497962Y212214D01*
X497971Y212296D01*
X497971Y227210D01*
X497968Y227230D01*
X497970Y227249D01*
X497948Y227351D01*
X497932Y227453D01*
X497922Y227470D01*
X497918Y227490D01*
X497865Y227579D01*
X497816Y227670D01*
X497802Y227684D01*
X497792Y227701D01*
X497713Y227768D01*
X497638Y227840D01*
X497620Y227848D01*
X497605Y227861D01*
X497509Y227900D01*
X497415Y227943D01*
X497395Y227945D01*
X497377Y227953D01*
X497210Y227971D01*
X302790Y227971D01*
X302770Y227968D01*
X302751Y227970D01*
X302649Y227948D01*
X302547Y227932D01*
X302530Y227922D01*
X302510Y227918D01*
X302421Y227865D01*
X302330Y227816D01*
X302316Y227802D01*
X302299Y227792D01*
X302232Y227713D01*
X302160Y227638D01*
X302152Y227620D01*
X302139Y227605D01*
X302100Y227509D01*
X302057Y227415D01*
X302055Y227395D01*
X302047Y227377D01*
X302029Y227210D01*
X302029Y209160D01*
X300840Y207971D01*
X199160Y207971D01*
X197971Y209160D01*
X197971Y227210D01*
X197968Y227230D01*
X197970Y227249D01*
X197948Y227351D01*
X197932Y227453D01*
X197922Y227470D01*
X197918Y227490D01*
X197865Y227579D01*
X197816Y227670D01*
X197802Y227684D01*
X197792Y227701D01*
X197713Y227768D01*
X197638Y227840D01*
X197620Y227848D01*
X197605Y227861D01*
X197509Y227900D01*
X197415Y227943D01*
X197395Y227945D01*
X197377Y227953D01*
X197210Y227971D01*
X2790Y227971D01*
X2770Y227968D01*
X2751Y227970D01*
X2649Y227948D01*
X2547Y227932D01*
X2530Y227922D01*
X2510Y227918D01*
X2421Y227865D01*
X2330Y227816D01*
X2316Y227802D01*
X2299Y227792D01*
X2232Y227713D01*
X2160Y227638D01*
X2152Y227620D01*
X2139Y227605D01*
X2100Y227509D01*
X2057Y227415D01*
X2055Y227395D01*
X2047Y227377D01*
X2029Y227210D01*
X2029Y12296D01*
X2044Y12200D01*
X2054Y12103D01*
X2064Y12079D01*
X2068Y12054D01*
X2114Y11968D01*
X2154Y11879D01*
X2171Y11859D01*
X2184Y11836D01*
X2254Y11769D01*
X2320Y11697D01*
X2343Y11685D01*
X2362Y11667D01*
X2450Y11626D01*
X2536Y11579D01*
X2561Y11574D01*
X2585Y11563D01*
X2682Y11552D01*
X2778Y11535D01*
X2804Y11539D01*
X2829Y11536D01*
X2925Y11557D01*
X3021Y11571D01*
X3044Y11583D01*
X3070Y11588D01*
X3153Y11638D01*
X3240Y11682D01*
X3259Y11701D01*
X3281Y11715D01*
X3344Y11788D01*
X3412Y11858D01*
X3428Y11887D01*
X3441Y11901D01*
X3453Y11932D01*
X3493Y12005D01*
X4253Y13840D01*
X6160Y15747D01*
X8652Y16779D01*
X11348Y16779D01*
X13840Y15747D01*
X15747Y13840D01*
X16779Y11348D01*
X16779Y8652D01*
X15747Y6160D01*
X13840Y4253D01*
X12005Y3493D01*
X11922Y3442D01*
X11836Y3396D01*
X11818Y3378D01*
X11796Y3364D01*
X11734Y3288D01*
X11667Y3218D01*
X11656Y3194D01*
X11639Y3174D01*
X11604Y3083D01*
X11563Y2995D01*
X11560Y2969D01*
X11551Y2945D01*
X11547Y2847D01*
X11536Y2751D01*
X11542Y2725D01*
X11541Y2699D01*
X11568Y2605D01*
X11588Y2510D01*
X11602Y2488D01*
X11609Y2463D01*
X11665Y2383D01*
X11715Y2299D01*
X11734Y2282D01*
X11749Y2261D01*
X11827Y2202D01*
X11901Y2139D01*
X11926Y2129D01*
X11947Y2114D01*
X12039Y2084D01*
X12130Y2047D01*
X12162Y2044D01*
X12181Y2038D01*
X12214Y2038D01*
X12296Y2029D01*
X497210Y2029D01*
X497230Y2032D01*
G37*
%LPC*%
G36*
X59914Y103538D02*
X59914Y103538D01*
X57906Y104370D01*
X56370Y105906D01*
X55538Y107914D01*
X55538Y110120D01*
X55547Y110155D01*
X55575Y110270D01*
X55575Y110276D01*
X55576Y110282D01*
X55565Y110399D01*
X55556Y110515D01*
X55554Y110521D01*
X55553Y110527D01*
X55505Y110634D01*
X55460Y110741D01*
X55455Y110747D01*
X55453Y110752D01*
X55441Y110765D01*
X55355Y110872D01*
X49332Y116895D01*
X49332Y155105D01*
X56895Y162668D01*
X214685Y162668D01*
X214800Y162687D01*
X214916Y162704D01*
X214921Y162706D01*
X214927Y162707D01*
X215030Y162762D01*
X215135Y162815D01*
X215139Y162820D01*
X215145Y162823D01*
X215225Y162907D01*
X215307Y162991D01*
X215311Y162997D01*
X215314Y163001D01*
X215322Y163018D01*
X215356Y163081D01*
X216906Y164630D01*
X218914Y165462D01*
X221086Y165462D01*
X223094Y164630D01*
X224654Y163070D01*
X224673Y163039D01*
X224734Y162938D01*
X224738Y162934D01*
X224742Y162929D01*
X224831Y162854D01*
X224921Y162778D01*
X224926Y162776D01*
X224931Y162772D01*
X225040Y162730D01*
X225149Y162686D01*
X225156Y162685D01*
X225161Y162684D01*
X225179Y162683D01*
X225315Y162668D01*
X314685Y162668D01*
X314800Y162687D01*
X314916Y162704D01*
X314921Y162706D01*
X314927Y162707D01*
X315030Y162762D01*
X315135Y162815D01*
X315139Y162820D01*
X315145Y162823D01*
X315225Y162907D01*
X315307Y162991D01*
X315311Y162997D01*
X315314Y163001D01*
X315322Y163018D01*
X315356Y163081D01*
X316906Y164630D01*
X318914Y165462D01*
X321086Y165462D01*
X323094Y164630D01*
X324630Y163094D01*
X325462Y161086D01*
X325462Y158914D01*
X324630Y156906D01*
X323262Y155538D01*
X323251Y155522D01*
X323235Y155510D01*
X323179Y155422D01*
X323119Y155339D01*
X323113Y155320D01*
X323102Y155303D01*
X323077Y155202D01*
X323046Y155103D01*
X323047Y155084D01*
X323042Y155064D01*
X323050Y154961D01*
X323053Y154858D01*
X323060Y154839D01*
X323061Y154819D01*
X323102Y154724D01*
X323137Y154627D01*
X323150Y154611D01*
X323158Y154593D01*
X323262Y154462D01*
X324630Y153094D01*
X325462Y151086D01*
X325462Y148914D01*
X324630Y146906D01*
X323094Y145370D01*
X321086Y144538D01*
X318914Y144538D01*
X316906Y145370D01*
X315346Y146930D01*
X315327Y146961D01*
X315266Y147062D01*
X315262Y147066D01*
X315258Y147071D01*
X315169Y147146D01*
X315079Y147222D01*
X315074Y147224D01*
X315069Y147228D01*
X314960Y147270D01*
X314851Y147314D01*
X314844Y147315D01*
X314839Y147316D01*
X314821Y147317D01*
X314685Y147332D01*
X245415Y147332D01*
X245300Y147313D01*
X245184Y147296D01*
X245179Y147294D01*
X245173Y147293D01*
X245070Y147238D01*
X244965Y147185D01*
X244961Y147180D01*
X244955Y147177D01*
X244875Y147093D01*
X244793Y147009D01*
X244789Y147003D01*
X244786Y146999D01*
X244778Y146982D01*
X244744Y146919D01*
X243194Y145370D01*
X241186Y144538D01*
X239014Y144538D01*
X237006Y145370D01*
X235446Y146930D01*
X235427Y146961D01*
X235366Y147062D01*
X235362Y147066D01*
X235358Y147071D01*
X235269Y147146D01*
X235179Y147222D01*
X235174Y147224D01*
X235169Y147228D01*
X235060Y147270D01*
X234951Y147314D01*
X234944Y147315D01*
X234939Y147316D01*
X234921Y147317D01*
X234785Y147332D01*
X65315Y147332D01*
X65200Y147313D01*
X65084Y147296D01*
X65079Y147294D01*
X65073Y147293D01*
X64970Y147238D01*
X64865Y147185D01*
X64861Y147180D01*
X64855Y147177D01*
X64775Y147093D01*
X64693Y147009D01*
X64689Y147003D01*
X64686Y146999D01*
X64678Y146982D01*
X64644Y146919D01*
X63094Y145370D01*
X61086Y144538D01*
X58914Y144538D01*
X56906Y145370D01*
X55967Y146309D01*
X55909Y146351D01*
X55857Y146400D01*
X55810Y146422D01*
X55768Y146452D01*
X55699Y146473D01*
X55634Y146504D01*
X55582Y146509D01*
X55532Y146525D01*
X55461Y146523D01*
X55390Y146531D01*
X55339Y146520D01*
X55287Y146518D01*
X55219Y146494D01*
X55149Y146478D01*
X55104Y146452D01*
X55056Y146434D01*
X55000Y146389D01*
X54938Y146352D01*
X54904Y146313D01*
X54864Y146280D01*
X54825Y146220D01*
X54778Y146165D01*
X54759Y146117D01*
X54731Y146073D01*
X54713Y146004D01*
X54686Y145937D01*
X54678Y145866D01*
X54670Y145835D01*
X54672Y145811D01*
X54668Y145770D01*
X54668Y119420D01*
X54682Y119330D01*
X54690Y119239D01*
X54702Y119210D01*
X54707Y119178D01*
X54750Y119097D01*
X54786Y119013D01*
X54812Y118981D01*
X54823Y118960D01*
X54846Y118938D01*
X54891Y118882D01*
X59128Y114645D01*
X59223Y114576D01*
X59317Y114507D01*
X59323Y114505D01*
X59328Y114501D01*
X59439Y114467D01*
X59551Y114431D01*
X59557Y114431D01*
X59563Y114429D01*
X59679Y114432D01*
X59796Y114433D01*
X59804Y114435D01*
X59809Y114435D01*
X59826Y114442D01*
X59895Y114462D01*
X62086Y114462D01*
X64094Y113630D01*
X65630Y112094D01*
X66462Y110086D01*
X66462Y107914D01*
X65630Y105906D01*
X64094Y104370D01*
X62086Y103538D01*
X59914Y103538D01*
G37*
%LPD*%
%LPC*%
G36*
X258914Y24538D02*
X258914Y24538D01*
X256906Y25370D01*
X255370Y26906D01*
X254538Y28914D01*
X254538Y31120D01*
X254547Y31156D01*
X254575Y31270D01*
X254575Y31276D01*
X254576Y31282D01*
X254565Y31399D01*
X254556Y31515D01*
X254554Y31521D01*
X254553Y31527D01*
X254505Y31634D01*
X254460Y31741D01*
X254455Y31747D01*
X254453Y31752D01*
X254441Y31765D01*
X254355Y31872D01*
X249118Y37109D01*
X247332Y38895D01*
X247332Y72685D01*
X247313Y72800D01*
X247296Y72916D01*
X247294Y72921D01*
X247293Y72927D01*
X247238Y73030D01*
X247185Y73135D01*
X247180Y73139D01*
X247177Y73145D01*
X247093Y73225D01*
X247009Y73307D01*
X247003Y73311D01*
X246999Y73314D01*
X246982Y73322D01*
X246919Y73356D01*
X245370Y74906D01*
X244538Y76914D01*
X244538Y79086D01*
X245370Y81094D01*
X246906Y82630D01*
X248914Y83462D01*
X251086Y83462D01*
X253094Y82630D01*
X254654Y81070D01*
X254673Y81039D01*
X254734Y80938D01*
X254738Y80934D01*
X254742Y80929D01*
X254831Y80854D01*
X254921Y80778D01*
X254926Y80776D01*
X254931Y80772D01*
X255040Y80730D01*
X255149Y80686D01*
X255156Y80685D01*
X255161Y80684D01*
X255179Y80683D01*
X255315Y80668D01*
X255580Y80668D01*
X255670Y80682D01*
X255761Y80690D01*
X255790Y80702D01*
X255822Y80707D01*
X255903Y80750D01*
X255987Y80786D01*
X256019Y80812D01*
X256040Y80823D01*
X256062Y80846D01*
X256118Y80891D01*
X256859Y81632D01*
X256912Y81706D01*
X256972Y81775D01*
X256984Y81806D01*
X257003Y81832D01*
X257030Y81919D01*
X257064Y82004D01*
X257068Y82045D01*
X257075Y82067D01*
X257074Y82099D01*
X257082Y82170D01*
X257082Y84729D01*
X257071Y84800D01*
X257069Y84871D01*
X257051Y84920D01*
X257043Y84972D01*
X257009Y85035D01*
X256984Y85102D01*
X256952Y85143D01*
X256927Y85189D01*
X256876Y85238D01*
X256831Y85294D01*
X256787Y85323D01*
X256749Y85358D01*
X256684Y85389D01*
X256624Y85427D01*
X256573Y85440D01*
X256526Y85462D01*
X256455Y85470D01*
X256385Y85487D01*
X256333Y85483D01*
X256282Y85489D01*
X256211Y85474D01*
X256140Y85468D01*
X256092Y85448D01*
X256041Y85437D01*
X255980Y85400D01*
X255914Y85372D01*
X255858Y85327D01*
X255830Y85311D01*
X255815Y85293D01*
X255783Y85267D01*
X255737Y85221D01*
X250763Y85221D01*
X250538Y85446D01*
X250522Y85458D01*
X250510Y85473D01*
X250423Y85529D01*
X250339Y85590D01*
X250320Y85596D01*
X250303Y85606D01*
X250202Y85632D01*
X250104Y85662D01*
X250084Y85662D01*
X250064Y85666D01*
X249961Y85658D01*
X249858Y85656D01*
X249839Y85649D01*
X249819Y85647D01*
X249724Y85607D01*
X249627Y85571D01*
X249611Y85559D01*
X249593Y85551D01*
X249462Y85446D01*
X249237Y85221D01*
X244263Y85221D01*
X244038Y85446D01*
X244022Y85458D01*
X244010Y85473D01*
X243923Y85529D01*
X243839Y85590D01*
X243820Y85596D01*
X243803Y85606D01*
X243702Y85632D01*
X243604Y85662D01*
X243584Y85662D01*
X243564Y85666D01*
X243461Y85658D01*
X243358Y85656D01*
X243339Y85649D01*
X243319Y85647D01*
X243224Y85607D01*
X243127Y85571D01*
X243111Y85559D01*
X243093Y85551D01*
X242962Y85446D01*
X242737Y85221D01*
X237763Y85221D01*
X237538Y85446D01*
X237522Y85458D01*
X237510Y85473D01*
X237423Y85529D01*
X237339Y85590D01*
X237320Y85596D01*
X237303Y85606D01*
X237202Y85632D01*
X237104Y85662D01*
X237084Y85662D01*
X237064Y85666D01*
X236961Y85658D01*
X236858Y85656D01*
X236839Y85649D01*
X236819Y85647D01*
X236724Y85607D01*
X236627Y85571D01*
X236611Y85559D01*
X236593Y85551D01*
X236462Y85446D01*
X236237Y85221D01*
X231263Y85221D01*
X231038Y85446D01*
X231022Y85458D01*
X231010Y85473D01*
X230922Y85530D01*
X230839Y85590D01*
X230820Y85596D01*
X230803Y85606D01*
X230702Y85632D01*
X230603Y85662D01*
X230583Y85662D01*
X230564Y85666D01*
X230461Y85658D01*
X230358Y85656D01*
X230339Y85649D01*
X230319Y85647D01*
X230224Y85607D01*
X230127Y85571D01*
X230111Y85559D01*
X230093Y85551D01*
X229962Y85446D01*
X229737Y85221D01*
X224763Y85221D01*
X224538Y85446D01*
X224522Y85458D01*
X224510Y85473D01*
X224423Y85529D01*
X224339Y85590D01*
X224320Y85596D01*
X224303Y85606D01*
X224202Y85632D01*
X224104Y85662D01*
X224084Y85662D01*
X224064Y85666D01*
X223961Y85658D01*
X223858Y85656D01*
X223839Y85649D01*
X223819Y85647D01*
X223724Y85607D01*
X223627Y85571D01*
X223611Y85559D01*
X223593Y85551D01*
X223462Y85446D01*
X223237Y85221D01*
X218263Y85221D01*
X218038Y85446D01*
X218022Y85458D01*
X218010Y85473D01*
X217923Y85529D01*
X217839Y85590D01*
X217820Y85596D01*
X217803Y85606D01*
X217702Y85632D01*
X217604Y85662D01*
X217584Y85662D01*
X217564Y85666D01*
X217461Y85658D01*
X217358Y85656D01*
X217339Y85649D01*
X217319Y85647D01*
X217224Y85607D01*
X217127Y85571D01*
X217111Y85559D01*
X217093Y85551D01*
X216962Y85446D01*
X216737Y85221D01*
X211763Y85221D01*
X211538Y85446D01*
X211522Y85458D01*
X211510Y85473D01*
X211423Y85529D01*
X211339Y85590D01*
X211320Y85596D01*
X211303Y85606D01*
X211202Y85632D01*
X211104Y85662D01*
X211084Y85662D01*
X211064Y85666D01*
X210961Y85658D01*
X210858Y85656D01*
X210839Y85649D01*
X210819Y85647D01*
X210724Y85607D01*
X210627Y85571D01*
X210611Y85559D01*
X210593Y85551D01*
X210462Y85446D01*
X210237Y85221D01*
X205263Y85221D01*
X205038Y85446D01*
X205022Y85458D01*
X205010Y85473D01*
X204923Y85529D01*
X204839Y85590D01*
X204820Y85596D01*
X204803Y85606D01*
X204702Y85632D01*
X204604Y85662D01*
X204584Y85662D01*
X204564Y85666D01*
X204461Y85658D01*
X204358Y85656D01*
X204339Y85649D01*
X204319Y85647D01*
X204224Y85607D01*
X204127Y85571D01*
X204111Y85559D01*
X204093Y85551D01*
X203962Y85446D01*
X203737Y85221D01*
X198763Y85221D01*
X198538Y85446D01*
X198522Y85458D01*
X198510Y85473D01*
X198423Y85529D01*
X198339Y85590D01*
X198320Y85596D01*
X198303Y85606D01*
X198202Y85632D01*
X198104Y85662D01*
X198084Y85662D01*
X198064Y85666D01*
X197961Y85658D01*
X197858Y85656D01*
X197839Y85649D01*
X197819Y85647D01*
X197724Y85607D01*
X197627Y85571D01*
X197611Y85559D01*
X197593Y85551D01*
X197462Y85446D01*
X197237Y85221D01*
X192263Y85221D01*
X192038Y85446D01*
X192022Y85458D01*
X192010Y85473D01*
X191923Y85529D01*
X191839Y85590D01*
X191820Y85596D01*
X191803Y85606D01*
X191702Y85632D01*
X191604Y85662D01*
X191584Y85662D01*
X191564Y85666D01*
X191461Y85658D01*
X191358Y85656D01*
X191339Y85649D01*
X191319Y85647D01*
X191224Y85607D01*
X191127Y85571D01*
X191111Y85559D01*
X191093Y85551D01*
X190962Y85446D01*
X190737Y85221D01*
X185763Y85221D01*
X185538Y85446D01*
X185522Y85458D01*
X185510Y85473D01*
X185423Y85529D01*
X185339Y85590D01*
X185320Y85596D01*
X185303Y85606D01*
X185202Y85632D01*
X185104Y85662D01*
X185084Y85662D01*
X185064Y85666D01*
X184961Y85658D01*
X184858Y85656D01*
X184839Y85649D01*
X184819Y85647D01*
X184724Y85607D01*
X184627Y85571D01*
X184611Y85559D01*
X184593Y85551D01*
X184462Y85446D01*
X184237Y85221D01*
X179263Y85221D01*
X179038Y85446D01*
X179022Y85458D01*
X179010Y85473D01*
X178923Y85529D01*
X178839Y85590D01*
X178820Y85596D01*
X178803Y85606D01*
X178702Y85632D01*
X178604Y85662D01*
X178584Y85662D01*
X178564Y85666D01*
X178461Y85658D01*
X178358Y85656D01*
X178339Y85649D01*
X178319Y85647D01*
X178224Y85607D01*
X178127Y85571D01*
X178111Y85559D01*
X178093Y85551D01*
X177962Y85446D01*
X177737Y85221D01*
X172630Y85221D01*
X172540Y85207D01*
X172449Y85199D01*
X172419Y85187D01*
X172387Y85182D01*
X172306Y85139D01*
X172222Y85103D01*
X172190Y85077D01*
X172170Y85066D01*
X172147Y85043D01*
X172091Y84998D01*
X172060Y84967D01*
X171481Y84632D01*
X170834Y84459D01*
X169624Y84459D01*
X169624Y96887D01*
X169621Y96906D01*
X169623Y96926D01*
X169610Y96986D01*
X169624Y97113D01*
X169624Y109541D01*
X170834Y109541D01*
X171543Y109351D01*
X171616Y109317D01*
X171644Y109314D01*
X171670Y109304D01*
X171766Y109300D01*
X171860Y109290D01*
X171888Y109296D01*
X171916Y109295D01*
X172008Y109322D01*
X172101Y109342D01*
X172125Y109356D01*
X172152Y109364D01*
X172230Y109419D01*
X172312Y109468D01*
X172330Y109490D01*
X172353Y109506D01*
X172410Y109583D01*
X172472Y109655D01*
X172482Y109681D01*
X172499Y109704D01*
X172528Y109795D01*
X172564Y109883D01*
X172568Y109918D01*
X172574Y109938D01*
X172574Y109971D01*
X172582Y110050D01*
X172582Y113330D01*
X172568Y113420D01*
X172560Y113511D01*
X172548Y113541D01*
X172543Y113572D01*
X172500Y113653D01*
X172464Y113737D01*
X172438Y113769D01*
X172427Y113790D01*
X172404Y113812D01*
X172359Y113868D01*
X171872Y114355D01*
X171776Y114424D01*
X171683Y114493D01*
X171677Y114495D01*
X171672Y114499D01*
X171561Y114533D01*
X171449Y114569D01*
X171443Y114569D01*
X171437Y114571D01*
X171321Y114568D01*
X171204Y114567D01*
X171196Y114565D01*
X171191Y114565D01*
X171174Y114558D01*
X171105Y114538D01*
X168914Y114538D01*
X166906Y115370D01*
X165370Y116906D01*
X164538Y118914D01*
X164538Y121086D01*
X165370Y123094D01*
X166906Y124630D01*
X168914Y125462D01*
X171086Y125462D01*
X173094Y124630D01*
X174655Y123069D01*
X174657Y123066D01*
X174692Y123027D01*
X174719Y122983D01*
X174774Y122937D01*
X174823Y122884D01*
X174868Y122859D01*
X174908Y122826D01*
X174975Y122800D01*
X175038Y122766D01*
X175090Y122757D01*
X175138Y122738D01*
X175210Y122735D01*
X175280Y122722D01*
X175332Y122730D01*
X175384Y122727D01*
X175453Y122747D01*
X175524Y122758D01*
X175570Y122781D01*
X175620Y122796D01*
X175679Y122837D01*
X175743Y122869D01*
X175779Y122906D01*
X175822Y122936D01*
X175865Y122994D01*
X175915Y123045D01*
X175950Y123108D01*
X175969Y123133D01*
X175976Y123156D01*
X175996Y123192D01*
X176370Y124094D01*
X177906Y125630D01*
X179914Y126462D01*
X182086Y126462D01*
X184094Y125630D01*
X185630Y124094D01*
X186462Y122086D01*
X186462Y121223D01*
X186465Y121203D01*
X186463Y121184D01*
X186485Y121082D01*
X186501Y120980D01*
X186511Y120963D01*
X186515Y120943D01*
X186568Y120854D01*
X186617Y120763D01*
X186631Y120749D01*
X186641Y120732D01*
X186720Y120665D01*
X186795Y120593D01*
X186813Y120585D01*
X186828Y120572D01*
X186924Y120533D01*
X187018Y120490D01*
X187038Y120488D01*
X187056Y120480D01*
X187223Y120462D01*
X189186Y120462D01*
X191194Y119630D01*
X192730Y118094D01*
X193562Y116086D01*
X193562Y113914D01*
X192730Y111906D01*
X191170Y110346D01*
X191139Y110327D01*
X191038Y110266D01*
X191034Y110262D01*
X191029Y110258D01*
X190954Y110169D01*
X190878Y110079D01*
X190876Y110074D01*
X190872Y110069D01*
X190830Y109960D01*
X190786Y109851D01*
X190785Y109844D01*
X190784Y109839D01*
X190783Y109821D01*
X190768Y109685D01*
X190768Y109121D01*
X190779Y109050D01*
X190781Y108979D01*
X190799Y108930D01*
X190807Y108878D01*
X190841Y108815D01*
X190866Y108748D01*
X190898Y108707D01*
X190923Y108661D01*
X190974Y108612D01*
X191019Y108556D01*
X191063Y108527D01*
X191101Y108492D01*
X191166Y108461D01*
X191226Y108423D01*
X191277Y108410D01*
X191324Y108388D01*
X191395Y108380D01*
X191465Y108363D01*
X191517Y108367D01*
X191568Y108361D01*
X191639Y108376D01*
X191710Y108382D01*
X191758Y108402D01*
X191809Y108413D01*
X191870Y108450D01*
X191936Y108478D01*
X191992Y108523D01*
X192020Y108539D01*
X192035Y108557D01*
X192067Y108583D01*
X192263Y108779D01*
X197237Y108779D01*
X197462Y108554D01*
X197478Y108542D01*
X197490Y108527D01*
X197578Y108470D01*
X197661Y108410D01*
X197680Y108404D01*
X197697Y108394D01*
X197798Y108368D01*
X197897Y108338D01*
X197917Y108338D01*
X197936Y108334D01*
X198039Y108342D01*
X198142Y108344D01*
X198161Y108351D01*
X198181Y108353D01*
X198276Y108393D01*
X198373Y108429D01*
X198389Y108441D01*
X198407Y108449D01*
X198538Y108554D01*
X198763Y108779D01*
X203737Y108779D01*
X203962Y108554D01*
X203978Y108542D01*
X203990Y108527D01*
X204078Y108470D01*
X204161Y108410D01*
X204180Y108404D01*
X204197Y108394D01*
X204298Y108368D01*
X204397Y108338D01*
X204417Y108338D01*
X204436Y108334D01*
X204539Y108342D01*
X204642Y108344D01*
X204661Y108351D01*
X204681Y108353D01*
X204776Y108393D01*
X204873Y108429D01*
X204889Y108441D01*
X204907Y108449D01*
X205038Y108554D01*
X205263Y108779D01*
X210237Y108779D01*
X210462Y108554D01*
X210478Y108542D01*
X210490Y108527D01*
X210578Y108470D01*
X210661Y108410D01*
X210680Y108404D01*
X210697Y108394D01*
X210798Y108368D01*
X210897Y108338D01*
X210917Y108338D01*
X210936Y108334D01*
X211039Y108342D01*
X211142Y108344D01*
X211161Y108351D01*
X211181Y108353D01*
X211276Y108393D01*
X211373Y108429D01*
X211389Y108441D01*
X211407Y108449D01*
X211538Y108554D01*
X211763Y108779D01*
X216737Y108779D01*
X216962Y108554D01*
X216978Y108542D01*
X216990Y108527D01*
X217078Y108470D01*
X217161Y108410D01*
X217180Y108404D01*
X217197Y108394D01*
X217298Y108368D01*
X217397Y108338D01*
X217417Y108338D01*
X217436Y108334D01*
X217539Y108342D01*
X217642Y108344D01*
X217661Y108351D01*
X217681Y108353D01*
X217776Y108393D01*
X217873Y108429D01*
X217889Y108441D01*
X217907Y108449D01*
X218038Y108554D01*
X218263Y108779D01*
X223237Y108779D01*
X223283Y108733D01*
X223341Y108691D01*
X223393Y108642D01*
X223440Y108620D01*
X223482Y108589D01*
X223551Y108568D01*
X223616Y108538D01*
X223668Y108532D01*
X223718Y108517D01*
X223789Y108519D01*
X223860Y108511D01*
X223911Y108522D01*
X223963Y108523D01*
X224031Y108548D01*
X224101Y108563D01*
X224146Y108590D01*
X224194Y108608D01*
X224250Y108652D01*
X224312Y108689D01*
X224346Y108729D01*
X224386Y108761D01*
X224425Y108822D01*
X224472Y108876D01*
X224491Y108925D01*
X224519Y108968D01*
X224537Y109038D01*
X224564Y109104D01*
X224572Y109176D01*
X224580Y109207D01*
X224578Y109230D01*
X224582Y109271D01*
X224582Y111330D01*
X224568Y111420D01*
X224560Y111511D01*
X224548Y111540D01*
X224543Y111572D01*
X224500Y111653D01*
X224464Y111737D01*
X224438Y111769D01*
X224427Y111790D01*
X224404Y111812D01*
X224359Y111868D01*
X221872Y114355D01*
X221777Y114423D01*
X221683Y114493D01*
X221677Y114495D01*
X221672Y114499D01*
X221561Y114533D01*
X221449Y114569D01*
X221443Y114569D01*
X221437Y114571D01*
X221321Y114568D01*
X221204Y114567D01*
X221196Y114565D01*
X221191Y114565D01*
X221174Y114558D01*
X221105Y114538D01*
X218914Y114538D01*
X216906Y115370D01*
X215370Y116906D01*
X214538Y118914D01*
X214538Y121086D01*
X215370Y123094D01*
X216906Y124630D01*
X218914Y125462D01*
X221086Y125462D01*
X223094Y124630D01*
X224630Y123094D01*
X225462Y121086D01*
X225462Y118880D01*
X225453Y118843D01*
X225425Y118730D01*
X225425Y118724D01*
X225424Y118718D01*
X225435Y118601D01*
X225444Y118485D01*
X225446Y118479D01*
X225447Y118473D01*
X225494Y118366D01*
X225540Y118259D01*
X225545Y118253D01*
X225547Y118248D01*
X225559Y118235D01*
X225645Y118128D01*
X227882Y115891D01*
X227956Y115838D01*
X228025Y115778D01*
X228056Y115766D01*
X228082Y115747D01*
X228169Y115720D01*
X228254Y115686D01*
X228295Y115682D01*
X228317Y115675D01*
X228349Y115676D01*
X228420Y115668D01*
X232605Y115668D01*
X236283Y111990D01*
X236341Y111948D01*
X236393Y111899D01*
X236440Y111877D01*
X236482Y111846D01*
X236551Y111825D01*
X236616Y111795D01*
X236668Y111789D01*
X236718Y111774D01*
X236789Y111776D01*
X236860Y111768D01*
X236911Y111779D01*
X236963Y111780D01*
X237031Y111805D01*
X237101Y111820D01*
X237146Y111847D01*
X237194Y111865D01*
X237250Y111910D01*
X237312Y111946D01*
X237346Y111986D01*
X237386Y112019D01*
X237425Y112079D01*
X237472Y112133D01*
X237491Y112182D01*
X237519Y112226D01*
X237537Y112295D01*
X237564Y112362D01*
X237572Y112433D01*
X237580Y112464D01*
X237578Y112487D01*
X237582Y112528D01*
X237582Y114622D01*
X237564Y114737D01*
X237546Y114853D01*
X237544Y114859D01*
X237543Y114865D01*
X237488Y114968D01*
X237435Y115073D01*
X237430Y115077D01*
X237427Y115083D01*
X237343Y115163D01*
X237259Y115245D01*
X237253Y115249D01*
X237249Y115252D01*
X237232Y115260D01*
X237112Y115326D01*
X237006Y115370D01*
X235470Y116906D01*
X234638Y118914D01*
X234638Y121086D01*
X235470Y123094D01*
X237006Y124630D01*
X239014Y125462D01*
X241186Y125462D01*
X243194Y124630D01*
X244730Y123094D01*
X245562Y121086D01*
X245562Y118914D01*
X244730Y116906D01*
X243141Y115317D01*
X243088Y115243D01*
X243028Y115173D01*
X243016Y115143D01*
X242997Y115117D01*
X242970Y115030D01*
X242936Y114945D01*
X242932Y114904D01*
X242925Y114882D01*
X242926Y114850D01*
X242918Y114778D01*
X242918Y109271D01*
X242929Y109200D01*
X242931Y109129D01*
X242949Y109080D01*
X242957Y109028D01*
X242991Y108965D01*
X243016Y108898D01*
X243048Y108857D01*
X243073Y108811D01*
X243124Y108762D01*
X243169Y108706D01*
X243213Y108677D01*
X243251Y108642D01*
X243316Y108611D01*
X243376Y108573D01*
X243427Y108560D01*
X243474Y108538D01*
X243545Y108530D01*
X243615Y108513D01*
X243667Y108517D01*
X243718Y108511D01*
X243789Y108526D01*
X243860Y108532D01*
X243908Y108552D01*
X243959Y108563D01*
X244020Y108600D01*
X244086Y108628D01*
X244142Y108673D01*
X244170Y108689D01*
X244185Y108707D01*
X244217Y108733D01*
X244263Y108779D01*
X249237Y108779D01*
X249462Y108554D01*
X249478Y108542D01*
X249490Y108527D01*
X249578Y108470D01*
X249661Y108410D01*
X249680Y108404D01*
X249697Y108394D01*
X249798Y108368D01*
X249897Y108338D01*
X249917Y108338D01*
X249936Y108334D01*
X250039Y108342D01*
X250142Y108344D01*
X250161Y108351D01*
X250181Y108353D01*
X250276Y108393D01*
X250373Y108429D01*
X250389Y108441D01*
X250407Y108449D01*
X250538Y108554D01*
X250763Y108779D01*
X255737Y108779D01*
X255962Y108554D01*
X255978Y108542D01*
X255990Y108527D01*
X256078Y108470D01*
X256161Y108410D01*
X256180Y108404D01*
X256197Y108394D01*
X256298Y108368D01*
X256397Y108338D01*
X256417Y108338D01*
X256436Y108334D01*
X256539Y108342D01*
X256642Y108344D01*
X256661Y108351D01*
X256681Y108353D01*
X256776Y108393D01*
X256873Y108429D01*
X256889Y108441D01*
X256907Y108449D01*
X257038Y108554D01*
X257263Y108779D01*
X262237Y108779D01*
X262462Y108554D01*
X262478Y108542D01*
X262490Y108527D01*
X262578Y108470D01*
X262661Y108410D01*
X262680Y108404D01*
X262697Y108394D01*
X262798Y108368D01*
X262897Y108338D01*
X262917Y108338D01*
X262936Y108334D01*
X263039Y108342D01*
X263142Y108344D01*
X263161Y108351D01*
X263181Y108353D01*
X263276Y108393D01*
X263373Y108429D01*
X263389Y108441D01*
X263407Y108449D01*
X263538Y108554D01*
X263763Y108779D01*
X268737Y108779D01*
X268962Y108554D01*
X268978Y108542D01*
X268990Y108527D01*
X269078Y108470D01*
X269161Y108410D01*
X269180Y108404D01*
X269197Y108394D01*
X269298Y108368D01*
X269397Y108338D01*
X269417Y108338D01*
X269436Y108334D01*
X269539Y108342D01*
X269642Y108344D01*
X269661Y108351D01*
X269681Y108353D01*
X269776Y108393D01*
X269873Y108429D01*
X269889Y108441D01*
X269907Y108449D01*
X270038Y108554D01*
X270263Y108779D01*
X275370Y108779D01*
X275460Y108793D01*
X275551Y108801D01*
X275581Y108813D01*
X275613Y108818D01*
X275694Y108861D01*
X275778Y108897D01*
X275810Y108923D01*
X275830Y108934D01*
X275853Y108957D01*
X275909Y109002D01*
X275940Y109033D01*
X276519Y109368D01*
X277166Y109541D01*
X278376Y109541D01*
X278376Y97113D01*
X278379Y97094D01*
X278377Y97074D01*
X278390Y97014D01*
X278376Y96887D01*
X278376Y84459D01*
X277166Y84459D01*
X276519Y84632D01*
X275940Y84967D01*
X275909Y84998D01*
X275835Y85051D01*
X275765Y85111D01*
X275735Y85123D01*
X275709Y85142D01*
X275622Y85169D01*
X275537Y85203D01*
X275496Y85207D01*
X275474Y85214D01*
X275442Y85213D01*
X275370Y85221D01*
X270263Y85221D01*
X270217Y85267D01*
X270159Y85309D01*
X270107Y85358D01*
X270060Y85380D01*
X270018Y85411D01*
X269949Y85432D01*
X269884Y85462D01*
X269832Y85468D01*
X269782Y85483D01*
X269711Y85481D01*
X269640Y85489D01*
X269589Y85478D01*
X269537Y85477D01*
X269469Y85452D01*
X269399Y85437D01*
X269354Y85410D01*
X269306Y85392D01*
X269250Y85348D01*
X269188Y85311D01*
X269154Y85271D01*
X269114Y85239D01*
X269075Y85178D01*
X269028Y85124D01*
X269009Y85075D01*
X268981Y85032D01*
X268963Y84962D01*
X268936Y84896D01*
X268928Y84824D01*
X268920Y84793D01*
X268922Y84770D01*
X268918Y84729D01*
X268918Y66500D01*
X268921Y66480D01*
X268919Y66461D01*
X268941Y66359D01*
X268957Y66257D01*
X268967Y66240D01*
X268971Y66220D01*
X269024Y66131D01*
X269073Y66040D01*
X269087Y66026D01*
X269097Y66009D01*
X269176Y65942D01*
X269251Y65870D01*
X269269Y65862D01*
X269284Y65849D01*
X269380Y65810D01*
X269474Y65767D01*
X269494Y65765D01*
X269512Y65757D01*
X269679Y65739D01*
X271086Y65739D01*
X273094Y64907D01*
X274630Y63371D01*
X275462Y61363D01*
X275462Y59191D01*
X274630Y57183D01*
X273094Y55647D01*
X271086Y54815D01*
X268914Y54815D01*
X266906Y55647D01*
X265370Y57183D01*
X264538Y59191D01*
X264538Y61397D01*
X264547Y61434D01*
X264575Y61547D01*
X264575Y61553D01*
X264576Y61559D01*
X264565Y61676D01*
X264556Y61792D01*
X264554Y61798D01*
X264553Y61804D01*
X264506Y61911D01*
X264460Y62018D01*
X264455Y62024D01*
X264453Y62029D01*
X264441Y62042D01*
X264355Y62149D01*
X263582Y62922D01*
X263582Y78972D01*
X263571Y79042D01*
X263569Y79114D01*
X263551Y79163D01*
X263543Y79214D01*
X263509Y79278D01*
X263484Y79345D01*
X263452Y79386D01*
X263427Y79432D01*
X263375Y79481D01*
X263331Y79537D01*
X263287Y79565D01*
X263249Y79601D01*
X263184Y79631D01*
X263124Y79670D01*
X263073Y79683D01*
X263026Y79705D01*
X262955Y79713D01*
X262885Y79730D01*
X262833Y79726D01*
X262782Y79732D01*
X262711Y79717D01*
X262640Y79711D01*
X262592Y79691D01*
X262541Y79680D01*
X262480Y79643D01*
X262414Y79615D01*
X262358Y79570D01*
X262330Y79554D01*
X262315Y79536D01*
X262283Y79510D01*
X258105Y75332D01*
X255315Y75332D01*
X255200Y75313D01*
X255084Y75296D01*
X255079Y75294D01*
X255073Y75293D01*
X254970Y75238D01*
X254865Y75185D01*
X254861Y75180D01*
X254855Y75177D01*
X254775Y75093D01*
X254693Y75009D01*
X254689Y75003D01*
X254686Y74999D01*
X254678Y74982D01*
X254644Y74919D01*
X253070Y73346D01*
X253039Y73327D01*
X252938Y73266D01*
X252934Y73262D01*
X252929Y73258D01*
X252854Y73169D01*
X252778Y73079D01*
X252776Y73074D01*
X252772Y73069D01*
X252730Y72960D01*
X252686Y72851D01*
X252685Y72844D01*
X252684Y72839D01*
X252683Y72821D01*
X252668Y72685D01*
X252668Y41420D01*
X252682Y41330D01*
X252690Y41239D01*
X252702Y41210D01*
X252707Y41178D01*
X252750Y41097D01*
X252786Y41013D01*
X252812Y40981D01*
X252823Y40960D01*
X252846Y40938D01*
X252891Y40882D01*
X258128Y35645D01*
X258223Y35576D01*
X258317Y35507D01*
X258323Y35505D01*
X258328Y35501D01*
X258439Y35467D01*
X258551Y35431D01*
X258557Y35431D01*
X258563Y35429D01*
X258679Y35432D01*
X258796Y35433D01*
X258804Y35435D01*
X258809Y35435D01*
X258826Y35442D01*
X258895Y35462D01*
X261086Y35462D01*
X263094Y34630D01*
X264630Y33094D01*
X265462Y31086D01*
X265462Y28914D01*
X264630Y26906D01*
X263094Y25370D01*
X261086Y24538D01*
X258914Y24538D01*
G37*
%LPD*%
%LPC*%
G36*
X278914Y34538D02*
X278914Y34538D01*
X276906Y35370D01*
X275370Y36906D01*
X274538Y38914D01*
X274538Y41086D01*
X275370Y43094D01*
X276906Y44630D01*
X278914Y45462D01*
X280835Y45462D01*
X280925Y45476D01*
X281016Y45484D01*
X281046Y45496D01*
X281078Y45501D01*
X281158Y45544D01*
X281242Y45580D01*
X281274Y45606D01*
X281295Y45617D01*
X281317Y45640D01*
X281373Y45685D01*
X282478Y46790D01*
X282531Y46864D01*
X282591Y46933D01*
X282603Y46963D01*
X282622Y46990D01*
X282649Y47077D01*
X282683Y47161D01*
X282687Y47202D01*
X282694Y47225D01*
X282693Y47257D01*
X282701Y47328D01*
X282701Y83833D01*
X282682Y83950D01*
X282664Y84068D01*
X282662Y84072D01*
X282662Y84076D01*
X282606Y84180D01*
X282551Y84287D01*
X282548Y84290D01*
X282546Y84294D01*
X282461Y84375D01*
X282375Y84458D01*
X282371Y84460D01*
X282368Y84463D01*
X282261Y84513D01*
X282153Y84564D01*
X282149Y84565D01*
X282145Y84567D01*
X282029Y84579D01*
X281909Y84594D01*
X281904Y84593D01*
X281901Y84594D01*
X281887Y84591D01*
X281743Y84569D01*
X281334Y84459D01*
X280124Y84459D01*
X280124Y96887D01*
X280121Y96906D01*
X280123Y96926D01*
X280110Y96986D01*
X280124Y97113D01*
X280124Y109541D01*
X281334Y109541D01*
X281981Y109368D01*
X282560Y109033D01*
X282591Y109002D01*
X282665Y108949D01*
X282735Y108889D01*
X282765Y108877D01*
X282791Y108858D01*
X282878Y108831D01*
X282963Y108797D01*
X283004Y108793D01*
X283026Y108786D01*
X283058Y108787D01*
X283130Y108779D01*
X288237Y108779D01*
X288462Y108554D01*
X288478Y108542D01*
X288490Y108527D01*
X288578Y108470D01*
X288661Y108410D01*
X288680Y108404D01*
X288697Y108394D01*
X288798Y108368D01*
X288897Y108338D01*
X288917Y108338D01*
X288936Y108334D01*
X289039Y108342D01*
X289142Y108344D01*
X289161Y108351D01*
X289181Y108353D01*
X289276Y108393D01*
X289373Y108429D01*
X289389Y108441D01*
X289407Y108449D01*
X289538Y108554D01*
X289763Y108779D01*
X294870Y108779D01*
X294960Y108793D01*
X295051Y108801D01*
X295081Y108813D01*
X295113Y108818D01*
X295194Y108861D01*
X295278Y108897D01*
X295310Y108923D01*
X295330Y108934D01*
X295353Y108957D01*
X295409Y109002D01*
X295440Y109033D01*
X296019Y109368D01*
X296666Y109541D01*
X297876Y109541D01*
X297876Y97113D01*
X297879Y97094D01*
X297877Y97074D01*
X297890Y97014D01*
X297876Y96887D01*
X297876Y84459D01*
X296666Y84459D01*
X296257Y84569D01*
X296138Y84581D01*
X296021Y84594D01*
X296016Y84593D01*
X296012Y84593D01*
X295897Y84567D01*
X295780Y84541D01*
X295777Y84539D01*
X295773Y84538D01*
X295671Y84476D01*
X295569Y84415D01*
X295566Y84412D01*
X295563Y84410D01*
X295487Y84319D01*
X295409Y84228D01*
X295408Y84224D01*
X295405Y84221D01*
X295362Y84112D01*
X295317Y84000D01*
X295317Y83995D01*
X295315Y83992D01*
X295315Y83978D01*
X295299Y83833D01*
X295299Y72390D01*
X295302Y72370D01*
X295300Y72351D01*
X295322Y72249D01*
X295338Y72147D01*
X295348Y72130D01*
X295352Y72110D01*
X295405Y72021D01*
X295454Y71930D01*
X295468Y71916D01*
X295478Y71899D01*
X295557Y71832D01*
X295632Y71760D01*
X295650Y71752D01*
X295665Y71739D01*
X295761Y71700D01*
X295855Y71657D01*
X295875Y71655D01*
X295893Y71647D01*
X296060Y71629D01*
X300682Y71629D01*
X300772Y71643D01*
X300863Y71651D01*
X300893Y71663D01*
X300925Y71668D01*
X301005Y71711D01*
X301089Y71747D01*
X301121Y71773D01*
X301142Y71784D01*
X301164Y71807D01*
X301220Y71852D01*
X301978Y72610D01*
X302031Y72684D01*
X302091Y72753D01*
X302103Y72783D01*
X302122Y72810D01*
X302149Y72897D01*
X302183Y72981D01*
X302187Y73022D01*
X302194Y73045D01*
X302193Y73077D01*
X302201Y73148D01*
X302201Y83833D01*
X302182Y83950D01*
X302164Y84068D01*
X302162Y84072D01*
X302162Y84076D01*
X302106Y84180D01*
X302051Y84287D01*
X302048Y84290D01*
X302046Y84294D01*
X301961Y84375D01*
X301875Y84458D01*
X301871Y84460D01*
X301868Y84463D01*
X301761Y84513D01*
X301653Y84564D01*
X301649Y84565D01*
X301645Y84567D01*
X301529Y84579D01*
X301409Y84594D01*
X301404Y84593D01*
X301401Y84594D01*
X301387Y84591D01*
X301243Y84569D01*
X300834Y84459D01*
X299624Y84459D01*
X299624Y96887D01*
X299621Y96906D01*
X299623Y96926D01*
X299610Y96986D01*
X299624Y97113D01*
X299624Y109541D01*
X300834Y109541D01*
X301481Y109368D01*
X302060Y109033D01*
X302091Y109002D01*
X302165Y108949D01*
X302235Y108889D01*
X302265Y108877D01*
X302291Y108858D01*
X302378Y108831D01*
X302463Y108797D01*
X302504Y108793D01*
X302526Y108786D01*
X302558Y108787D01*
X302630Y108779D01*
X307737Y108779D01*
X307783Y108733D01*
X307841Y108691D01*
X307893Y108642D01*
X307940Y108620D01*
X307982Y108589D01*
X308051Y108568D01*
X308116Y108538D01*
X308168Y108532D01*
X308218Y108517D01*
X308289Y108519D01*
X308360Y108511D01*
X308411Y108522D01*
X308463Y108523D01*
X308531Y108548D01*
X308601Y108563D01*
X308646Y108590D01*
X308694Y108608D01*
X308750Y108652D01*
X308812Y108689D01*
X308846Y108729D01*
X308886Y108761D01*
X308925Y108822D01*
X308972Y108876D01*
X308991Y108925D01*
X309019Y108968D01*
X309037Y109038D01*
X309064Y109104D01*
X309072Y109176D01*
X309080Y109207D01*
X309078Y109230D01*
X309082Y109271D01*
X309082Y113878D01*
X309068Y113968D01*
X309060Y114059D01*
X309048Y114089D01*
X309043Y114121D01*
X309000Y114202D01*
X308964Y114286D01*
X308938Y114318D01*
X308927Y114338D01*
X308904Y114361D01*
X308859Y114417D01*
X307370Y115906D01*
X306538Y117914D01*
X306538Y120086D01*
X307370Y122094D01*
X308906Y123630D01*
X310914Y124462D01*
X313086Y124462D01*
X315094Y123630D01*
X316630Y122094D01*
X317462Y120086D01*
X317462Y117914D01*
X316630Y115906D01*
X315094Y114370D01*
X314888Y114284D01*
X314788Y114223D01*
X314688Y114163D01*
X314684Y114158D01*
X314679Y114155D01*
X314604Y114065D01*
X314528Y113976D01*
X314526Y113970D01*
X314522Y113965D01*
X314480Y113857D01*
X314436Y113748D01*
X314435Y113740D01*
X314434Y113736D01*
X314433Y113717D01*
X314418Y113581D01*
X314418Y109271D01*
X314429Y109200D01*
X314431Y109129D01*
X314449Y109080D01*
X314457Y109028D01*
X314491Y108965D01*
X314516Y108898D01*
X314548Y108857D01*
X314573Y108811D01*
X314624Y108762D01*
X314669Y108706D01*
X314713Y108677D01*
X314751Y108642D01*
X314816Y108611D01*
X314876Y108573D01*
X314927Y108560D01*
X314974Y108538D01*
X315045Y108530D01*
X315115Y108513D01*
X315167Y108517D01*
X315218Y108511D01*
X315289Y108526D01*
X315360Y108532D01*
X315408Y108552D01*
X315459Y108563D01*
X315520Y108600D01*
X315586Y108628D01*
X315642Y108673D01*
X315670Y108689D01*
X315685Y108707D01*
X315717Y108733D01*
X315763Y108779D01*
X320737Y108779D01*
X320962Y108554D01*
X320978Y108542D01*
X320990Y108527D01*
X321078Y108470D01*
X321161Y108410D01*
X321180Y108404D01*
X321197Y108394D01*
X321298Y108368D01*
X321397Y108338D01*
X321416Y108338D01*
X321436Y108334D01*
X321539Y108342D01*
X321642Y108344D01*
X321661Y108351D01*
X321681Y108353D01*
X321776Y108393D01*
X321873Y108429D01*
X321889Y108441D01*
X321907Y108449D01*
X322038Y108554D01*
X322109Y108625D01*
X322162Y108699D01*
X322222Y108768D01*
X322234Y108798D01*
X322253Y108825D01*
X322280Y108911D01*
X322314Y108996D01*
X322318Y109037D01*
X322325Y109060D01*
X322324Y109092D01*
X322332Y109163D01*
X322332Y110685D01*
X322313Y110800D01*
X322296Y110916D01*
X322294Y110921D01*
X322293Y110927D01*
X322238Y111030D01*
X322185Y111135D01*
X322180Y111139D01*
X322177Y111145D01*
X322093Y111225D01*
X322009Y111307D01*
X322003Y111311D01*
X321999Y111314D01*
X321982Y111322D01*
X321919Y111356D01*
X320370Y112906D01*
X319538Y114914D01*
X319538Y117086D01*
X320370Y119094D01*
X321906Y120630D01*
X323914Y121462D01*
X326086Y121462D01*
X328094Y120630D01*
X329630Y119094D01*
X330462Y117086D01*
X330462Y114914D01*
X329630Y112906D01*
X328070Y111346D01*
X328039Y111327D01*
X327938Y111266D01*
X327934Y111262D01*
X327929Y111258D01*
X327854Y111169D01*
X327778Y111079D01*
X327776Y111074D01*
X327772Y111069D01*
X327730Y110960D01*
X327686Y110851D01*
X327685Y110844D01*
X327684Y110839D01*
X327683Y110821D01*
X327668Y110685D01*
X327668Y109521D01*
X327679Y109450D01*
X327681Y109378D01*
X327699Y109329D01*
X327707Y109278D01*
X327741Y109215D01*
X327766Y109147D01*
X327798Y109107D01*
X327823Y109061D01*
X327875Y109011D01*
X327920Y108955D01*
X327963Y108927D01*
X328001Y108892D01*
X328066Y108861D01*
X328127Y108822D01*
X328177Y108810D01*
X328224Y108788D01*
X328295Y108780D01*
X328365Y108762D01*
X328417Y108767D01*
X328468Y108761D01*
X328539Y108776D01*
X328572Y108779D01*
X333870Y108779D01*
X333960Y108793D01*
X334051Y108801D01*
X334081Y108813D01*
X334113Y108818D01*
X334194Y108861D01*
X334278Y108897D01*
X334310Y108923D01*
X334330Y108934D01*
X334353Y108957D01*
X334409Y109002D01*
X334440Y109033D01*
X335019Y109368D01*
X335666Y109541D01*
X336876Y109541D01*
X336876Y97113D01*
X336879Y97094D01*
X336877Y97074D01*
X336890Y97014D01*
X336876Y96887D01*
X336876Y84459D01*
X335666Y84459D01*
X334957Y84649D01*
X334884Y84683D01*
X334856Y84686D01*
X334830Y84696D01*
X334734Y84700D01*
X334640Y84710D01*
X334612Y84704D01*
X334584Y84705D01*
X334492Y84678D01*
X334399Y84658D01*
X334375Y84644D01*
X334348Y84636D01*
X334270Y84581D01*
X334188Y84532D01*
X334170Y84510D01*
X334147Y84494D01*
X334090Y84417D01*
X334028Y84345D01*
X334018Y84319D01*
X334001Y84296D01*
X333972Y84205D01*
X333936Y84117D01*
X333932Y84082D01*
X333926Y84062D01*
X333926Y84029D01*
X333918Y83950D01*
X333918Y77895D01*
X327141Y71118D01*
X327088Y71044D01*
X327028Y70975D01*
X327016Y70944D01*
X326997Y70918D01*
X326970Y70831D01*
X326936Y70746D01*
X326932Y70705D01*
X326925Y70683D01*
X326926Y70651D01*
X326918Y70580D01*
X326918Y65433D01*
X326933Y65337D01*
X326943Y65240D01*
X326953Y65216D01*
X326957Y65190D01*
X327003Y65104D01*
X327043Y65015D01*
X327060Y64996D01*
X327073Y64973D01*
X327143Y64906D01*
X327209Y64834D01*
X327232Y64822D01*
X327251Y64804D01*
X327339Y64763D01*
X327425Y64716D01*
X327450Y64711D01*
X327474Y64700D01*
X327571Y64689D01*
X327667Y64672D01*
X327693Y64676D01*
X327718Y64673D01*
X327814Y64693D01*
X327910Y64708D01*
X327933Y64719D01*
X327959Y64725D01*
X328042Y64775D01*
X328129Y64819D01*
X328148Y64838D01*
X328170Y64851D01*
X328233Y64925D01*
X328301Y64995D01*
X328317Y65023D01*
X328330Y65038D01*
X328342Y65069D01*
X328382Y65142D01*
X328851Y66273D01*
X330477Y67899D01*
X332601Y68779D01*
X334899Y68779D01*
X337023Y67899D01*
X338649Y66273D01*
X339529Y64149D01*
X339529Y61851D01*
X338649Y59727D01*
X337023Y58101D01*
X334899Y57221D01*
X332601Y57221D01*
X330931Y57913D01*
X330836Y57935D01*
X330743Y57964D01*
X330717Y57963D01*
X330692Y57969D01*
X330595Y57960D01*
X330497Y57957D01*
X330473Y57948D01*
X330447Y57946D01*
X330358Y57906D01*
X330266Y57873D01*
X330246Y57856D01*
X330222Y57846D01*
X330150Y57780D01*
X330074Y57719D01*
X330060Y57697D01*
X330041Y57679D01*
X329994Y57594D01*
X329941Y57512D01*
X329935Y57487D01*
X329922Y57464D01*
X329905Y57368D01*
X329881Y57274D01*
X329883Y57248D01*
X329879Y57222D01*
X329893Y57125D01*
X329900Y57028D01*
X329911Y57004D01*
X329914Y56979D01*
X329959Y56891D01*
X329997Y56802D01*
X330017Y56777D01*
X330026Y56759D01*
X330050Y56736D01*
X330102Y56671D01*
X331128Y55645D01*
X331223Y55577D01*
X331317Y55507D01*
X331323Y55505D01*
X331328Y55501D01*
X331439Y55467D01*
X331551Y55431D01*
X331557Y55431D01*
X331563Y55429D01*
X331679Y55432D01*
X331796Y55433D01*
X331804Y55435D01*
X331809Y55435D01*
X331826Y55442D01*
X331895Y55462D01*
X334086Y55462D01*
X336094Y54630D01*
X337630Y53094D01*
X338462Y51086D01*
X338462Y48914D01*
X337630Y46906D01*
X336094Y45370D01*
X334086Y44538D01*
X331914Y44538D01*
X329906Y45370D01*
X328370Y46906D01*
X327538Y48914D01*
X327538Y51120D01*
X327547Y51156D01*
X327575Y51270D01*
X327575Y51276D01*
X327576Y51282D01*
X327565Y51399D01*
X327556Y51515D01*
X327554Y51521D01*
X327553Y51527D01*
X327505Y51634D01*
X327460Y51741D01*
X327455Y51747D01*
X327453Y51752D01*
X327441Y51765D01*
X327355Y51872D01*
X321582Y57645D01*
X321582Y65972D01*
X321571Y66042D01*
X321569Y66114D01*
X321551Y66163D01*
X321543Y66214D01*
X321509Y66278D01*
X321484Y66345D01*
X321452Y66386D01*
X321427Y66432D01*
X321376Y66481D01*
X321331Y66537D01*
X321287Y66565D01*
X321249Y66601D01*
X321184Y66631D01*
X321124Y66670D01*
X321073Y66683D01*
X321026Y66705D01*
X320955Y66713D01*
X320885Y66730D01*
X320833Y66726D01*
X320782Y66732D01*
X320711Y66717D01*
X320640Y66711D01*
X320592Y66691D01*
X320541Y66680D01*
X320480Y66643D01*
X320414Y66615D01*
X320358Y66570D01*
X320330Y66554D01*
X320315Y66536D01*
X320283Y66510D01*
X315645Y61872D01*
X315577Y61777D01*
X315507Y61683D01*
X315505Y61677D01*
X315501Y61672D01*
X315467Y61561D01*
X315431Y61449D01*
X315431Y61443D01*
X315429Y61437D01*
X315432Y61321D01*
X315433Y61204D01*
X315435Y61196D01*
X315435Y61191D01*
X315442Y61174D01*
X315462Y61105D01*
X315462Y58914D01*
X314630Y56906D01*
X313094Y55370D01*
X311086Y54538D01*
X308914Y54538D01*
X306906Y55370D01*
X305370Y56906D01*
X304538Y58914D01*
X304538Y61086D01*
X305370Y63094D01*
X306906Y64630D01*
X308914Y65462D01*
X311120Y65462D01*
X311156Y65453D01*
X311270Y65425D01*
X311276Y65425D01*
X311282Y65424D01*
X311399Y65435D01*
X311515Y65444D01*
X311521Y65446D01*
X311527Y65447D01*
X311634Y65494D01*
X311741Y65540D01*
X311747Y65545D01*
X311752Y65547D01*
X311765Y65559D01*
X311872Y65645D01*
X315359Y69132D01*
X315412Y69206D01*
X315472Y69275D01*
X315484Y69306D01*
X315503Y69332D01*
X315530Y69419D01*
X315564Y69504D01*
X315568Y69545D01*
X315575Y69567D01*
X315574Y69599D01*
X315582Y69670D01*
X315582Y84729D01*
X315571Y84800D01*
X315569Y84871D01*
X315551Y84920D01*
X315543Y84972D01*
X315509Y85035D01*
X315484Y85102D01*
X315452Y85143D01*
X315427Y85189D01*
X315376Y85238D01*
X315331Y85294D01*
X315287Y85323D01*
X315249Y85358D01*
X315184Y85389D01*
X315124Y85427D01*
X315073Y85440D01*
X315026Y85462D01*
X314955Y85470D01*
X314885Y85487D01*
X314833Y85483D01*
X314782Y85489D01*
X314711Y85474D01*
X314640Y85468D01*
X314592Y85448D01*
X314541Y85437D01*
X314480Y85400D01*
X314414Y85372D01*
X314358Y85327D01*
X314330Y85311D01*
X314315Y85293D01*
X314283Y85267D01*
X314237Y85221D01*
X309060Y85221D01*
X309040Y85218D01*
X309021Y85220D01*
X308919Y85198D01*
X308817Y85182D01*
X308800Y85172D01*
X308780Y85168D01*
X308691Y85115D01*
X308600Y85066D01*
X308586Y85052D01*
X308569Y85042D01*
X308502Y84963D01*
X308430Y84888D01*
X308422Y84870D01*
X308409Y84855D01*
X308370Y84759D01*
X308327Y84665D01*
X308325Y84645D01*
X308317Y84627D01*
X308299Y84460D01*
X308299Y70307D01*
X303523Y65531D01*
X289560Y65531D01*
X289540Y65528D01*
X289521Y65530D01*
X289419Y65508D01*
X289317Y65492D01*
X289300Y65482D01*
X289280Y65478D01*
X289191Y65425D01*
X289100Y65376D01*
X289086Y65362D01*
X289069Y65352D01*
X289002Y65273D01*
X288930Y65198D01*
X288922Y65180D01*
X288909Y65165D01*
X288870Y65069D01*
X288827Y64975D01*
X288825Y64955D01*
X288817Y64937D01*
X288799Y64770D01*
X288799Y44487D01*
X285685Y41373D01*
X285640Y41311D01*
X285611Y41281D01*
X285606Y41269D01*
X285572Y41230D01*
X285560Y41200D01*
X285541Y41173D01*
X285514Y41086D01*
X285480Y41002D01*
X285476Y40961D01*
X285469Y40938D01*
X285470Y40906D01*
X285462Y40835D01*
X285462Y38914D01*
X284630Y36906D01*
X283094Y35370D01*
X281086Y34538D01*
X278914Y34538D01*
G37*
%LPD*%
%LPC*%
G36*
X268914Y194538D02*
X268914Y194538D01*
X266906Y195370D01*
X265370Y196906D01*
X264538Y198914D01*
X264538Y201086D01*
X265370Y203094D01*
X266906Y204630D01*
X268914Y205462D01*
X271086Y205462D01*
X273094Y204630D01*
X274654Y203070D01*
X274674Y203038D01*
X274734Y202938D01*
X274738Y202934D01*
X274742Y202929D01*
X274832Y202854D01*
X274921Y202778D01*
X274926Y202776D01*
X274931Y202772D01*
X275040Y202730D01*
X275149Y202686D01*
X275156Y202685D01*
X275161Y202684D01*
X275179Y202683D01*
X275315Y202668D01*
X314685Y202668D01*
X314800Y202687D01*
X314916Y202704D01*
X314921Y202706D01*
X314927Y202707D01*
X315030Y202762D01*
X315135Y202815D01*
X315139Y202820D01*
X315145Y202823D01*
X315225Y202907D01*
X315307Y202991D01*
X315311Y202997D01*
X315314Y203001D01*
X315322Y203018D01*
X315356Y203081D01*
X316906Y204630D01*
X318914Y205462D01*
X321120Y205462D01*
X321156Y205453D01*
X321270Y205425D01*
X321276Y205425D01*
X321282Y205424D01*
X321399Y205435D01*
X321515Y205444D01*
X321521Y205446D01*
X321527Y205447D01*
X321634Y205495D01*
X321741Y205540D01*
X321747Y205545D01*
X321752Y205547D01*
X321765Y205559D01*
X321872Y205645D01*
X327109Y210882D01*
X328895Y212668D01*
X454685Y212668D01*
X454800Y212687D01*
X454916Y212704D01*
X454921Y212706D01*
X454927Y212707D01*
X455030Y212762D01*
X455135Y212815D01*
X455139Y212820D01*
X455145Y212823D01*
X455225Y212907D01*
X455307Y212991D01*
X455311Y212997D01*
X455314Y213001D01*
X455322Y213018D01*
X455356Y213081D01*
X456906Y214630D01*
X458914Y215462D01*
X461086Y215462D01*
X463094Y214630D01*
X464630Y213094D01*
X465462Y211086D01*
X465462Y208914D01*
X464630Y206906D01*
X463094Y205370D01*
X461086Y204538D01*
X458914Y204538D01*
X456906Y205370D01*
X455346Y206930D01*
X455327Y206961D01*
X455266Y207062D01*
X455262Y207066D01*
X455258Y207071D01*
X455169Y207146D01*
X455079Y207222D01*
X455074Y207224D01*
X455069Y207228D01*
X454960Y207270D01*
X454851Y207314D01*
X454844Y207315D01*
X454839Y207316D01*
X454821Y207317D01*
X454685Y207332D01*
X331420Y207332D01*
X331330Y207318D01*
X331239Y207310D01*
X331210Y207298D01*
X331178Y207293D01*
X331097Y207250D01*
X331013Y207214D01*
X330981Y207188D01*
X330960Y207177D01*
X330938Y207154D01*
X330882Y207109D01*
X325645Y201872D01*
X325577Y201777D01*
X325507Y201683D01*
X325505Y201677D01*
X325501Y201672D01*
X325467Y201561D01*
X325431Y201449D01*
X325431Y201443D01*
X325429Y201437D01*
X325432Y201321D01*
X325433Y201204D01*
X325435Y201196D01*
X325435Y201191D01*
X325442Y201174D01*
X325462Y201105D01*
X325462Y198914D01*
X324630Y196906D01*
X323094Y195370D01*
X321086Y194538D01*
X318914Y194538D01*
X316906Y195370D01*
X315346Y196930D01*
X315327Y196961D01*
X315266Y197062D01*
X315262Y197066D01*
X315258Y197071D01*
X315169Y197146D01*
X315079Y197222D01*
X315074Y197224D01*
X315069Y197228D01*
X314960Y197270D01*
X314851Y197314D01*
X314844Y197315D01*
X314839Y197316D01*
X314821Y197317D01*
X314685Y197332D01*
X275315Y197332D01*
X275200Y197313D01*
X275084Y197296D01*
X275079Y197294D01*
X275073Y197293D01*
X274970Y197238D01*
X274865Y197185D01*
X274861Y197180D01*
X274855Y197177D01*
X274775Y197093D01*
X274693Y197009D01*
X274689Y197003D01*
X274686Y196999D01*
X274678Y196982D01*
X274644Y196919D01*
X273094Y195370D01*
X271086Y194538D01*
X268914Y194538D01*
G37*
%LPD*%
%LPC*%
G36*
X228914Y184538D02*
X228914Y184538D01*
X226906Y185370D01*
X225370Y186906D01*
X224538Y188914D01*
X224538Y191086D01*
X225370Y193094D01*
X226906Y194630D01*
X228914Y195462D01*
X231086Y195462D01*
X233094Y194630D01*
X234654Y193070D01*
X234673Y193039D01*
X234734Y192938D01*
X234738Y192934D01*
X234742Y192929D01*
X234831Y192854D01*
X234921Y192778D01*
X234926Y192776D01*
X234931Y192772D01*
X235040Y192730D01*
X235149Y192686D01*
X235156Y192685D01*
X235161Y192684D01*
X235179Y192683D01*
X235315Y192668D01*
X354685Y192668D01*
X354800Y192687D01*
X354916Y192704D01*
X354921Y192706D01*
X354927Y192707D01*
X355030Y192762D01*
X355135Y192815D01*
X355139Y192820D01*
X355145Y192823D01*
X355225Y192907D01*
X355307Y192991D01*
X355311Y192997D01*
X355314Y193001D01*
X355322Y193018D01*
X355356Y193081D01*
X356906Y194630D01*
X358914Y195462D01*
X361086Y195462D01*
X363094Y194630D01*
X364630Y193094D01*
X365462Y191086D01*
X365462Y188914D01*
X364630Y186906D01*
X363094Y185370D01*
X361086Y184538D01*
X358914Y184538D01*
X356906Y185370D01*
X355346Y186930D01*
X355327Y186961D01*
X355266Y187062D01*
X355262Y187066D01*
X355258Y187071D01*
X355169Y187146D01*
X355079Y187222D01*
X355074Y187224D01*
X355069Y187228D01*
X354960Y187270D01*
X354851Y187314D01*
X354844Y187315D01*
X354839Y187316D01*
X354821Y187317D01*
X354685Y187332D01*
X235315Y187332D01*
X235200Y187313D01*
X235084Y187296D01*
X235079Y187294D01*
X235073Y187293D01*
X234970Y187238D01*
X234865Y187185D01*
X234861Y187180D01*
X234855Y187177D01*
X234775Y187093D01*
X234693Y187009D01*
X234689Y187003D01*
X234686Y186999D01*
X234678Y186982D01*
X234644Y186919D01*
X233094Y185370D01*
X231086Y184538D01*
X228914Y184538D01*
G37*
%LPD*%
%LPC*%
G36*
X447359Y176721D02*
X447359Y176721D01*
X442478Y178743D01*
X438743Y182478D01*
X436721Y187359D01*
X436721Y192641D01*
X438743Y197522D01*
X442478Y201257D01*
X447359Y203279D01*
X452641Y203279D01*
X457522Y201257D01*
X461257Y197522D01*
X463279Y192641D01*
X463279Y187359D01*
X461257Y182478D01*
X457522Y178743D01*
X452641Y176721D01*
X447359Y176721D01*
G37*
%LPD*%
%LPC*%
G36*
X348914Y104538D02*
X348914Y104538D01*
X346906Y105370D01*
X345370Y106906D01*
X344538Y108914D01*
X344538Y111086D01*
X345370Y113094D01*
X346906Y114630D01*
X348914Y115462D01*
X351086Y115462D01*
X353094Y114630D01*
X354654Y113070D01*
X354673Y113039D01*
X354734Y112938D01*
X354738Y112934D01*
X354742Y112929D01*
X354831Y112854D01*
X354921Y112778D01*
X354926Y112776D01*
X354931Y112772D01*
X355040Y112730D01*
X355149Y112686D01*
X355156Y112685D01*
X355161Y112684D01*
X355179Y112683D01*
X355315Y112668D01*
X374685Y112668D01*
X374800Y112687D01*
X374916Y112704D01*
X374921Y112706D01*
X374927Y112707D01*
X375030Y112762D01*
X375135Y112815D01*
X375139Y112820D01*
X375145Y112823D01*
X375225Y112907D01*
X375307Y112991D01*
X375311Y112997D01*
X375314Y113001D01*
X375322Y113018D01*
X375356Y113081D01*
X376906Y114630D01*
X378914Y115462D01*
X381086Y115462D01*
X383094Y114630D01*
X384630Y113094D01*
X385462Y111086D01*
X385462Y108914D01*
X384630Y106906D01*
X383094Y105370D01*
X381086Y104538D01*
X378914Y104538D01*
X376906Y105370D01*
X375346Y106930D01*
X375327Y106961D01*
X375266Y107062D01*
X375262Y107066D01*
X375258Y107071D01*
X375169Y107146D01*
X375079Y107222D01*
X375074Y107224D01*
X375069Y107228D01*
X374960Y107270D01*
X374851Y107314D01*
X374844Y107315D01*
X374839Y107316D01*
X374821Y107317D01*
X374685Y107332D01*
X355315Y107332D01*
X355200Y107313D01*
X355084Y107296D01*
X355079Y107294D01*
X355073Y107293D01*
X354969Y107238D01*
X354865Y107185D01*
X354861Y107180D01*
X354855Y107177D01*
X354775Y107093D01*
X354693Y107009D01*
X354689Y107003D01*
X354686Y106999D01*
X354678Y106982D01*
X354644Y106919D01*
X353094Y105370D01*
X351086Y104538D01*
X348914Y104538D01*
G37*
%LPD*%
%LPC*%
G36*
X165101Y57221D02*
X165101Y57221D01*
X162977Y58101D01*
X161351Y59727D01*
X160471Y61851D01*
X160471Y64149D01*
X161351Y66273D01*
X162977Y67899D01*
X165101Y68779D01*
X167399Y68779D01*
X169523Y67899D01*
X171149Y66273D01*
X172029Y64149D01*
X172029Y61851D01*
X171149Y59727D01*
X169523Y58101D01*
X167399Y57221D01*
X165101Y57221D01*
G37*
%LPD*%
%LPC*%
G36*
X163124Y97874D02*
X163124Y97874D01*
X163124Y109541D01*
X164334Y109541D01*
X164981Y109368D01*
X165119Y109287D01*
X165183Y109264D01*
X165242Y109231D01*
X165297Y109220D01*
X165349Y109201D01*
X165417Y109198D01*
X165484Y109186D01*
X165539Y109194D01*
X165595Y109192D01*
X165660Y109211D01*
X165727Y109220D01*
X165800Y109252D01*
X165831Y109261D01*
X165848Y109273D01*
X165881Y109288D01*
X166019Y109368D01*
X166666Y109541D01*
X167876Y109541D01*
X167876Y97874D01*
X163124Y97874D01*
G37*
%LPD*%
%LPC*%
G36*
X163124Y84459D02*
X163124Y84459D01*
X163124Y96126D01*
X167876Y96126D01*
X167876Y84459D01*
X166666Y84459D01*
X166019Y84632D01*
X165881Y84712D01*
X165817Y84736D01*
X165758Y84769D01*
X165703Y84780D01*
X165651Y84799D01*
X165583Y84802D01*
X165517Y84814D01*
X165461Y84806D01*
X165405Y84809D01*
X165340Y84789D01*
X165273Y84780D01*
X165200Y84748D01*
X165169Y84739D01*
X165152Y84727D01*
X165119Y84713D01*
X164981Y84632D01*
X164334Y84459D01*
X163124Y84459D01*
G37*
%LPD*%
%LPC*%
G36*
X338624Y97874D02*
X338624Y97874D01*
X338624Y109541D01*
X339834Y109541D01*
X340481Y109368D01*
X341060Y109033D01*
X341533Y108560D01*
X341868Y107981D01*
X342041Y107334D01*
X342041Y97874D01*
X338624Y97874D01*
G37*
%LPD*%
%LPC*%
G36*
X338624Y84459D02*
X338624Y84459D01*
X338624Y96126D01*
X342041Y96126D01*
X342041Y86666D01*
X341868Y86019D01*
X341533Y85440D01*
X341060Y84967D01*
X340481Y84632D01*
X339834Y84459D01*
X338624Y84459D01*
G37*
%LPD*%
%LPC*%
G36*
X157959Y97874D02*
X157959Y97874D01*
X157959Y107334D01*
X158132Y107981D01*
X158467Y108560D01*
X158940Y109033D01*
X159519Y109368D01*
X160166Y109541D01*
X161376Y109541D01*
X161376Y97874D01*
X157959Y97874D01*
G37*
%LPD*%
%LPC*%
G36*
X160166Y84459D02*
X160166Y84459D01*
X159519Y84632D01*
X158940Y84967D01*
X158467Y85440D01*
X158132Y86019D01*
X157959Y86666D01*
X157959Y96126D01*
X161376Y96126D01*
X161376Y84459D01*
X160166Y84459D01*
G37*
%LPD*%
D10*
X337750Y97000D03*
X331250Y97000D03*
X324750Y97000D03*
X318250Y97000D03*
X311750Y97000D03*
X305250Y97000D03*
X298750Y97000D03*
X292250Y97000D03*
X285750Y97000D03*
X279250Y97000D03*
X272750Y97000D03*
X266250Y97000D03*
X259750Y97000D03*
X253250Y97000D03*
X246750Y97000D03*
X240250Y97000D03*
X233750Y97000D03*
X227250Y97000D03*
X220750Y97000D03*
X214250Y97000D03*
X207750Y97000D03*
X201250Y97000D03*
X194750Y97000D03*
X188250Y97000D03*
X181750Y97000D03*
X175250Y97000D03*
X168750Y97000D03*
X162250Y97000D03*
D11*
X10000Y10000D03*
X490000Y210000D03*
D12*
X360000Y20000D03*
X280000Y20000D03*
X300000Y120000D03*
X200000Y120000D03*
X130000Y20000D03*
X120000Y140000D03*
X20000Y140000D03*
X380000Y170000D03*
X350000Y130000D03*
X367000Y67000D03*
X140000Y87000D03*
X349000Y73000D03*
X181000Y121000D03*
D13*
X181750Y120250D02*
X181750Y97000D01*
X181750Y120250D02*
X181000Y121000D01*
D12*
X188100Y115000D03*
D13*
X188100Y97150D01*
X188250Y97000D01*
D12*
X270000Y60277D03*
D13*
X266250Y64027D01*
X266250Y97000D01*
D12*
X325000Y116000D03*
D13*
X325000Y97250D01*
X324750Y97000D01*
D12*
X310000Y60000D03*
D13*
X318250Y68250D02*
X318250Y97000D01*
X318250Y68250D02*
X310000Y60000D01*
X175250Y97000D02*
X175250Y114750D01*
X170000Y120000D01*
D12*
X170000Y120000D03*
X250000Y78000D03*
X260000Y30000D03*
D13*
X250000Y40000D01*
X250000Y78000D01*
X259750Y80750D02*
X259750Y97000D01*
X257000Y78000D02*
X250000Y78000D01*
X257000Y78000D02*
X259750Y80750D01*
D12*
X333000Y50000D03*
D13*
X331250Y79000D02*
X331250Y97000D01*
X331250Y79000D02*
X324250Y72000D01*
X324250Y58750D01*
X333000Y50000D01*
D12*
X312000Y119000D03*
D13*
X311750Y118750D02*
X311750Y97000D01*
X311750Y118750D02*
X312000Y119000D01*
D12*
X280000Y40000D03*
D14*
X285750Y68580D02*
X285750Y97000D01*
X285750Y68580D02*
X285750Y45750D01*
X280000Y40000D01*
X305250Y71570D02*
X305250Y97000D01*
X305250Y71570D02*
X302260Y68580D01*
X292100Y68580D01*
X285750Y68580D01*
X292250Y68730D02*
X292250Y97000D01*
X292250Y68730D02*
X292100Y68580D01*
D12*
X350000Y110000D03*
D13*
X380000Y110000D01*
D12*
X380000Y110000D03*
X460000Y210000D03*
D13*
X330000Y210000D01*
X320000Y200000D01*
D12*
X320000Y200000D03*
X270000Y200000D03*
D13*
X320000Y200000D01*
D12*
X320000Y150000D03*
D13*
X240250Y119850D02*
X240250Y97000D01*
X240250Y119850D02*
X240100Y120000D01*
D12*
X240100Y120000D03*
X240100Y150000D03*
D13*
X320000Y150000D01*
X240100Y150000D02*
X60000Y150000D01*
D12*
X60000Y150000D03*
X320000Y160000D03*
D13*
X234000Y160000D01*
X220000Y160000D01*
X227250Y112750D02*
X227250Y97000D01*
X227250Y112750D02*
X220000Y120000D01*
D12*
X220000Y120000D03*
X220000Y160000D03*
D13*
X233750Y110750D02*
X233750Y97000D01*
X231500Y113000D02*
X227500Y113000D01*
X227250Y112750D01*
X231500Y113000D02*
X233750Y110750D01*
X220000Y160000D02*
X58000Y160000D01*
X52000Y154000D01*
X52000Y118000D01*
X61000Y109000D01*
D12*
X61000Y109000D03*
X360000Y190000D03*
D13*
X230000Y190000D01*
D12*
X230000Y190000D03*
M02*
