G04 EAGLE Gerber RS-274X export*
G75*
%MOMM*%
%FSLAX34Y34*%
%LPD*%
%INSilkscreen Bottom*%
%IPPOS*%
%AMOC8*
5,1,8,0,0,1.08239X$1,22.5*%
G01*
%ADD10C,0.203200*%
%ADD11C,0.508000*%
%ADD12C,0.127000*%
%ADD13C,0.152400*%
%ADD14C,0.508000*%

G36*
X355505Y156754D02*
X355505Y156754D01*
X355508Y156751D01*
X356104Y156851D01*
X356400Y156851D01*
X356409Y156858D01*
X356416Y156853D01*
X357316Y157153D01*
X357320Y157160D01*
X357325Y157158D01*
X357825Y157458D01*
X357829Y157466D01*
X357835Y157465D01*
X358435Y158065D01*
X358435Y158069D01*
X358438Y158069D01*
X358838Y158569D01*
X358839Y158574D01*
X358842Y158575D01*
X359142Y159075D01*
X359141Y159083D01*
X359147Y159084D01*
X359447Y159984D01*
X359446Y159987D01*
X359448Y159988D01*
X359445Y159992D01*
X359449Y159994D01*
X359549Y160794D01*
X359547Y160798D01*
X359549Y160800D01*
X359549Y171600D01*
X359546Y171605D01*
X359549Y171608D01*
X359449Y172204D01*
X359449Y172500D01*
X359442Y172509D01*
X359447Y172516D01*
X359147Y173416D01*
X359140Y173420D01*
X359142Y173425D01*
X358842Y173925D01*
X358838Y173927D01*
X358838Y173931D01*
X358438Y174431D01*
X358434Y174432D01*
X358435Y174435D01*
X358235Y174635D01*
X358226Y174636D01*
X358225Y174642D01*
X357226Y175242D01*
X356927Y175441D01*
X356914Y175440D01*
X356910Y175448D01*
X356413Y175548D01*
X356116Y175647D01*
X356105Y175643D01*
X356100Y175649D01*
X344100Y175649D01*
X344091Y175642D01*
X344084Y175647D01*
X342884Y175247D01*
X342880Y175240D01*
X342875Y175242D01*
X342375Y174942D01*
X342371Y174934D01*
X342365Y174935D01*
X341969Y174538D01*
X341673Y174341D01*
X341669Y174330D01*
X341661Y174330D01*
X341361Y173930D01*
X341361Y173923D01*
X341356Y173922D01*
X340956Y173122D01*
X340957Y173118D01*
X340955Y173116D01*
X340953Y173116D01*
X340753Y172516D01*
X340756Y172508D01*
X340751Y172505D01*
X340651Y171605D01*
X340653Y171602D01*
X340651Y171600D01*
X340651Y160800D01*
X340654Y160795D01*
X340651Y160792D01*
X340751Y160196D01*
X340751Y159900D01*
X340758Y159891D01*
X340753Y159884D01*
X340953Y159284D01*
X340958Y159281D01*
X340956Y159278D01*
X341356Y158478D01*
X341366Y158473D01*
X341365Y158465D01*
X341965Y157865D01*
X341969Y157865D01*
X341969Y157862D01*
X342469Y157462D01*
X342474Y157461D01*
X342475Y157458D01*
X342975Y157158D01*
X342983Y157159D01*
X342984Y157153D01*
X343283Y157054D01*
X343782Y156854D01*
X343791Y156857D01*
X343795Y156851D01*
X344695Y156751D01*
X344698Y156753D01*
X344700Y156751D01*
X355500Y156751D01*
X355505Y156754D01*
G37*
G36*
X410494Y46480D02*
X410494Y46480D01*
X410557Y46480D01*
X410563Y46484D01*
X410570Y46484D01*
X410622Y46520D01*
X410675Y46554D01*
X410678Y46560D01*
X410684Y46565D01*
X410721Y46629D01*
X410845Y46947D01*
X410846Y46956D01*
X410851Y46964D01*
X410862Y47037D01*
X410864Y56318D01*
X410863Y56323D01*
X410864Y56337D01*
X410814Y56997D01*
X410810Y57006D01*
X410808Y57034D01*
X410659Y57679D01*
X410654Y57688D01*
X410642Y57729D01*
X410361Y58328D01*
X410357Y58332D01*
X410324Y58385D01*
X409892Y58884D01*
X409889Y58886D01*
X409839Y58931D01*
X409285Y59290D01*
X409275Y59293D01*
X409233Y59316D01*
X408610Y59538D01*
X408599Y59538D01*
X408556Y59550D01*
X407900Y59631D01*
X407890Y59630D01*
X407846Y59632D01*
X407187Y59570D01*
X407147Y59554D01*
X407105Y59548D01*
X407084Y59529D01*
X407057Y59518D01*
X407032Y59484D01*
X407000Y59456D01*
X406981Y59413D01*
X406976Y59405D01*
X406975Y59399D01*
X406970Y59388D01*
X406910Y59168D01*
X406911Y59121D01*
X406903Y59074D01*
X406912Y59052D01*
X406913Y59028D01*
X406939Y58989D01*
X406957Y58945D01*
X406984Y58921D01*
X406990Y58912D01*
X406997Y58908D01*
X407012Y58895D01*
X407505Y58565D01*
X407717Y58135D01*
X407575Y57672D01*
X407177Y57310D01*
X406640Y57123D01*
X406058Y57112D01*
X405508Y57278D01*
X405065Y57617D01*
X404818Y58094D01*
X404828Y58634D01*
X404920Y58828D01*
X405039Y59077D01*
X405072Y59148D01*
X405486Y59607D01*
X405952Y60069D01*
X405955Y60075D01*
X405968Y60086D01*
X406392Y60595D01*
X406395Y60603D01*
X406410Y60620D01*
X406768Y61177D01*
X406771Y61187D01*
X406788Y61215D01*
X407045Y61825D01*
X407046Y61834D01*
X407061Y61881D01*
X407168Y62533D01*
X407168Y62534D01*
X407168Y62535D01*
X407169Y62609D01*
X407075Y63262D01*
X407074Y63265D01*
X407074Y63267D01*
X407051Y63338D01*
X406757Y63929D01*
X406752Y63934D01*
X406721Y63983D01*
X406282Y64478D01*
X406273Y64484D01*
X406247Y64511D01*
X405722Y64914D01*
X405712Y64918D01*
X405687Y64937D01*
X405101Y65246D01*
X405091Y65248D01*
X405056Y65265D01*
X404421Y65452D01*
X404411Y65452D01*
X404370Y65462D01*
X403711Y65514D01*
X403700Y65512D01*
X403660Y65513D01*
X403004Y65431D01*
X402994Y65427D01*
X402960Y65422D01*
X402328Y65225D01*
X402319Y65220D01*
X402292Y65211D01*
X401698Y64919D01*
X401690Y64912D01*
X401666Y64901D01*
X401121Y64525D01*
X401118Y64521D01*
X401113Y64519D01*
X401073Y64467D01*
X401033Y64416D01*
X401032Y64411D01*
X401029Y64407D01*
X401024Y64342D01*
X401017Y64278D01*
X401019Y64273D01*
X401019Y64268D01*
X401049Y64210D01*
X401078Y64152D01*
X401082Y64149D01*
X401085Y64144D01*
X401142Y64113D01*
X401197Y64079D01*
X401202Y64079D01*
X401207Y64077D01*
X401281Y64071D01*
X401886Y64117D01*
X402451Y64004D01*
X402913Y63698D01*
X403190Y63250D01*
X403173Y62737D01*
X402889Y62249D01*
X402460Y61823D01*
X401953Y61484D01*
X401418Y61275D01*
X400951Y61323D01*
X400705Y61693D01*
X400718Y62273D01*
X400713Y62291D01*
X400713Y62292D01*
X400712Y62295D01*
X400703Y62327D01*
X400696Y62381D01*
X400685Y62393D01*
X400681Y62408D01*
X400641Y62445D01*
X400605Y62487D01*
X400590Y62492D01*
X400578Y62503D01*
X400553Y62507D01*
X400551Y62507D01*
X400524Y62512D01*
X400471Y62528D01*
X400456Y62524D01*
X400440Y62526D01*
X400419Y62518D01*
X400414Y62518D01*
X400344Y62492D01*
X400336Y62490D01*
X400330Y62485D01*
X399766Y62173D01*
X399762Y62169D01*
X399713Y62134D01*
X399239Y61672D01*
X399234Y61663D01*
X399210Y61639D01*
X398824Y61101D01*
X398821Y61092D01*
X398806Y61072D01*
X398497Y60486D01*
X398495Y60478D01*
X398485Y60459D01*
X398247Y59841D01*
X398247Y59833D01*
X398239Y59815D01*
X398071Y59174D01*
X398071Y59166D01*
X398065Y59147D01*
X397968Y58492D01*
X397969Y58484D01*
X397966Y58465D01*
X397940Y57803D01*
X397942Y57796D01*
X397940Y57777D01*
X397982Y57116D01*
X397985Y57109D01*
X397986Y57089D01*
X398099Y56437D01*
X398103Y56430D01*
X398105Y56411D01*
X398287Y55774D01*
X398292Y55767D01*
X398296Y55749D01*
X398543Y55135D01*
X398548Y55129D01*
X398554Y55112D01*
X398862Y54525D01*
X398867Y54520D01*
X398874Y54505D01*
X399236Y53950D01*
X399241Y53946D01*
X399248Y53933D01*
X399657Y53411D01*
X399663Y53407D01*
X399672Y53394D01*
X400125Y52911D01*
X400132Y52907D01*
X400143Y52894D01*
X400641Y52458D01*
X400648Y52454D01*
X400662Y52441D01*
X401204Y52060D01*
X401211Y52057D01*
X401227Y52045D01*
X401808Y51727D01*
X401817Y51725D01*
X401834Y51715D01*
X402448Y51465D01*
X402456Y51464D01*
X402474Y51456D01*
X403112Y51277D01*
X403120Y51277D01*
X403138Y51271D01*
X403792Y51162D01*
X403800Y51163D01*
X403818Y51159D01*
X404479Y51118D01*
X404486Y51120D01*
X404501Y51118D01*
X405149Y51135D01*
X405753Y51084D01*
X406292Y50850D01*
X406776Y50472D01*
X407229Y50017D01*
X409008Y48064D01*
X410300Y46557D01*
X410306Y46553D01*
X410310Y46547D01*
X410364Y46516D01*
X410417Y46481D01*
X410424Y46481D01*
X410431Y46477D01*
X410494Y46480D01*
G37*
G36*
X444279Y27677D02*
X444279Y27677D01*
X444310Y27680D01*
X444374Y27717D01*
X444844Y28098D01*
X444846Y28101D01*
X444852Y28105D01*
X446841Y29874D01*
X446846Y29883D01*
X446869Y29904D01*
X447263Y30392D01*
X447282Y30436D01*
X447308Y30475D01*
X447313Y30511D01*
X447317Y30521D01*
X447316Y30529D01*
X447319Y30549D01*
X447319Y39199D01*
X447319Y43842D01*
X447308Y43879D01*
X447308Y43918D01*
X447289Y43945D01*
X447280Y43977D01*
X447251Y44002D01*
X447230Y44034D01*
X447180Y44064D01*
X447175Y44069D01*
X447172Y44069D01*
X447166Y44072D01*
X446638Y44293D01*
X446627Y44294D01*
X446585Y44309D01*
X444626Y44658D01*
X444581Y44653D01*
X444536Y44657D01*
X444513Y44646D01*
X444487Y44643D01*
X444452Y44615D01*
X444412Y44594D01*
X444386Y44562D01*
X444378Y44555D01*
X444376Y44549D01*
X444366Y44536D01*
X444141Y44141D01*
X444134Y44114D01*
X444119Y44091D01*
X444108Y44018D01*
X444108Y43792D01*
X443811Y44101D01*
X443802Y44107D01*
X443772Y44135D01*
X443225Y44508D01*
X443215Y44511D01*
X443180Y44532D01*
X442569Y44787D01*
X442558Y44788D01*
X442525Y44800D01*
X441877Y44940D01*
X441867Y44939D01*
X441839Y44945D01*
X441177Y44982D01*
X441168Y44979D01*
X441146Y44981D01*
X440485Y44936D01*
X440476Y44933D01*
X440453Y44932D01*
X439803Y44801D01*
X439794Y44796D01*
X439767Y44791D01*
X439144Y44565D01*
X439136Y44559D01*
X439108Y44549D01*
X438529Y44226D01*
X438521Y44219D01*
X438494Y44203D01*
X437977Y43790D01*
X437971Y43782D01*
X437948Y43763D01*
X437502Y43273D01*
X437497Y43264D01*
X437479Y43243D01*
X437110Y42693D01*
X437107Y42684D01*
X437094Y42664D01*
X436801Y42069D01*
X436800Y42061D01*
X436790Y42043D01*
X436567Y41418D01*
X436567Y41411D01*
X436560Y41393D01*
X436404Y40749D01*
X436404Y40742D01*
X436399Y40727D01*
X436303Y40070D01*
X436303Y40064D01*
X436300Y40049D01*
X436260Y39387D01*
X436272Y39336D01*
X436276Y39284D01*
X436287Y39269D01*
X436291Y39251D01*
X436328Y39214D01*
X436360Y39173D01*
X436383Y39160D01*
X436390Y39153D01*
X436400Y39151D01*
X436425Y39137D01*
X436292Y38882D01*
X436285Y38848D01*
X436268Y38817D01*
X436265Y38748D01*
X436264Y38745D01*
X436264Y38743D01*
X436328Y38081D01*
X436331Y38074D01*
X436332Y38057D01*
X436457Y37404D01*
X436461Y37398D01*
X436463Y37380D01*
X436655Y36743D01*
X436660Y36736D01*
X436665Y36716D01*
X436927Y36105D01*
X436933Y36099D01*
X436941Y36078D01*
X437277Y35504D01*
X437284Y35498D01*
X437297Y35476D01*
X437710Y34954D01*
X437718Y34949D01*
X437736Y34926D01*
X438224Y34475D01*
X438233Y34470D01*
X438256Y34450D01*
X438812Y34085D01*
X438822Y34082D01*
X438848Y34065D01*
X439457Y33798D01*
X439467Y33797D01*
X439495Y33785D01*
X440138Y33619D01*
X440148Y33619D01*
X440175Y33612D01*
X440836Y33542D01*
X440845Y33544D01*
X440869Y33541D01*
X441534Y33561D01*
X441543Y33565D01*
X441573Y33566D01*
X442226Y33691D01*
X442235Y33696D01*
X442267Y33702D01*
X442888Y33937D01*
X442897Y33944D01*
X442929Y33957D01*
X443498Y34301D01*
X443505Y34309D01*
X443536Y34329D01*
X443968Y34718D01*
X443968Y27911D01*
X443977Y27881D01*
X443975Y27850D01*
X443996Y27815D01*
X444007Y27777D01*
X444030Y27756D01*
X444046Y27729D01*
X444082Y27711D01*
X444112Y27685D01*
X444143Y27680D01*
X444171Y27666D01*
X444211Y27670D01*
X444250Y27664D01*
X444279Y27677D01*
G37*
%LPC*%
G36*
X350102Y159849D02*
X350102Y159849D01*
X348910Y159949D01*
X348616Y160047D01*
X348612Y160045D01*
X348611Y160048D01*
X347717Y160247D01*
X347524Y160343D01*
X346726Y160842D01*
X346718Y160841D01*
X346716Y160847D01*
X346425Y160944D01*
X345536Y161734D01*
X344841Y162627D01*
X344245Y163720D01*
X343849Y164811D01*
X343749Y166002D01*
X343749Y166298D01*
X343849Y167490D01*
X344245Y168679D01*
X344841Y169672D01*
X345536Y170566D01*
X346430Y171361D01*
X346725Y171557D01*
X347519Y171954D01*
X347816Y172053D01*
X347816Y172054D01*
X347817Y172054D01*
X348609Y172351D01*
X348900Y172351D01*
X348905Y172354D01*
X348908Y172351D01*
X350100Y172550D01*
X351292Y172351D01*
X351297Y172354D01*
X351300Y172351D01*
X351591Y172351D01*
X352383Y172054D01*
X352384Y172054D01*
X352384Y172053D01*
X352681Y171954D01*
X353471Y171559D01*
X353665Y171365D01*
X353668Y171365D01*
X353668Y171363D01*
X354368Y170763D01*
X354373Y170762D01*
X354373Y170759D01*
X354666Y170564D01*
X355359Y169673D01*
X355954Y168581D01*
X356252Y167490D01*
X356451Y166296D01*
X356451Y166004D01*
X356252Y164810D01*
X356233Y164743D01*
X356220Y164693D01*
X356206Y164644D01*
X356153Y164447D01*
X356139Y164398D01*
X356086Y164201D01*
X356072Y164152D01*
X356059Y164102D01*
X356005Y163905D01*
X355992Y163856D01*
X355954Y163719D01*
X355359Y162628D01*
X354565Y161735D01*
X353672Y160941D01*
X353478Y160844D01*
X353476Y160841D01*
X353474Y160842D01*
X352679Y160345D01*
X351492Y159949D01*
X351300Y159949D01*
X351297Y159947D01*
X351295Y159949D01*
X350397Y159849D01*
X350102Y159849D01*
G37*
%LPD*%
G36*
X359713Y177060D02*
X359713Y177060D01*
X359722Y177056D01*
X359922Y177156D01*
X359932Y177176D01*
X359944Y177185D01*
X359940Y177192D01*
X359941Y177193D01*
X359949Y177200D01*
X359949Y182300D01*
X359913Y182347D01*
X359906Y182342D01*
X359900Y182349D01*
X340400Y182349D01*
X340379Y182333D01*
X340365Y182335D01*
X340265Y182235D01*
X340262Y182208D01*
X340251Y182200D01*
X340251Y177100D01*
X340287Y177053D01*
X340294Y177058D01*
X340300Y177051D01*
X359700Y177051D01*
X359713Y177060D01*
G37*
G36*
X350421Y117667D02*
X350421Y117667D01*
X350435Y117665D01*
X350835Y118065D01*
X350836Y118077D01*
X350841Y118081D01*
X350840Y118082D01*
X350847Y118084D01*
X350947Y118384D01*
X350943Y118395D01*
X350949Y118400D01*
X350949Y118698D01*
X352149Y146198D01*
X352148Y146199D01*
X352149Y146200D01*
X352149Y146800D01*
X352142Y146809D01*
X352147Y146816D01*
X351947Y147416D01*
X351933Y147425D01*
X351935Y147435D01*
X351335Y148035D01*
X351328Y148036D01*
X351327Y148041D01*
X351027Y148241D01*
X351023Y148241D01*
X351022Y148244D01*
X350822Y148344D01*
X350817Y148343D01*
X350816Y148347D01*
X350216Y148547D01*
X350205Y148543D01*
X350200Y148549D01*
X349600Y148549D01*
X349591Y148542D01*
X349584Y148547D01*
X348984Y148347D01*
X348981Y148342D01*
X348978Y148344D01*
X348778Y148244D01*
X348776Y148240D01*
X348773Y148241D01*
X348473Y148041D01*
X348470Y148034D01*
X348465Y148035D01*
X348065Y147635D01*
X348064Y147628D01*
X348059Y147627D01*
X347859Y147327D01*
X347860Y147318D01*
X347859Y147317D01*
X347853Y147316D01*
X347754Y147019D01*
X347656Y146822D01*
X347656Y146820D01*
X347656Y146819D01*
X347659Y146806D01*
X347651Y146800D01*
X347651Y146200D01*
X347652Y146198D01*
X347651Y146197D01*
X349151Y118598D01*
X349151Y118300D01*
X349160Y118287D01*
X349156Y118278D01*
X349256Y118078D01*
X349260Y118076D01*
X349259Y118073D01*
X349459Y117773D01*
X349480Y117765D01*
X349484Y117753D01*
X349784Y117653D01*
X349795Y117657D01*
X349800Y117651D01*
X350400Y117651D01*
X350421Y117667D01*
G37*
G36*
X432644Y33559D02*
X432644Y33559D01*
X432653Y33561D01*
X432675Y33562D01*
X433323Y33661D01*
X433332Y33666D01*
X433360Y33670D01*
X433985Y33868D01*
X433993Y33873D01*
X434028Y33886D01*
X434604Y34196D01*
X434611Y34204D01*
X434650Y34229D01*
X435142Y34660D01*
X435146Y34667D01*
X435183Y34707D01*
X435552Y35247D01*
X435555Y35256D01*
X435580Y35301D01*
X435809Y35914D01*
X435810Y35924D01*
X435822Y35964D01*
X435919Y36611D01*
X435918Y36622D01*
X435922Y36655D01*
X435905Y37310D01*
X435903Y37318D01*
X435904Y37326D01*
X435881Y37384D01*
X435863Y37443D01*
X435856Y37448D01*
X435853Y37456D01*
X435799Y37508D01*
X435644Y37616D01*
X435751Y37910D01*
X435755Y37970D01*
X435763Y38031D01*
X435759Y38043D01*
X435760Y38049D01*
X435755Y38058D01*
X435742Y38102D01*
X435458Y38698D01*
X435454Y38702D01*
X435421Y38754D01*
X434988Y39252D01*
X434981Y39257D01*
X434941Y39294D01*
X434397Y39668D01*
X434387Y39671D01*
X434355Y39691D01*
X433748Y39954D01*
X433739Y39955D01*
X433716Y39965D01*
X433080Y40144D01*
X433073Y40144D01*
X433059Y40149D01*
X432409Y40272D01*
X432404Y40271D01*
X432394Y40274D01*
X430433Y40524D01*
X429818Y40647D01*
X429305Y40866D01*
X429036Y41271D01*
X429063Y41790D01*
X429312Y42246D01*
X429787Y42493D01*
X430379Y42572D01*
X430990Y42556D01*
X431548Y42405D01*
X431974Y42067D01*
X432221Y41524D01*
X432224Y41521D01*
X432224Y41518D01*
X432266Y41457D01*
X432613Y41087D01*
X432668Y41055D01*
X432722Y41019D01*
X432730Y41018D01*
X432734Y41016D01*
X432742Y41016D01*
X432795Y41008D01*
X434781Y41008D01*
X434790Y41011D01*
X434815Y41011D01*
X435391Y41091D01*
X435409Y41099D01*
X435428Y41100D01*
X435471Y41128D01*
X435518Y41149D01*
X435529Y41165D01*
X435546Y41176D01*
X435567Y41223D01*
X435595Y41266D01*
X435595Y41285D01*
X435603Y41304D01*
X435602Y41378D01*
X435497Y42030D01*
X435492Y42040D01*
X435485Y42075D01*
X435262Y42697D01*
X435256Y42705D01*
X435239Y42744D01*
X434891Y43305D01*
X434883Y43312D01*
X434858Y43347D01*
X434398Y43822D01*
X434389Y43827D01*
X434361Y43853D01*
X433817Y44228D01*
X433807Y44232D01*
X433782Y44249D01*
X433184Y44531D01*
X433175Y44532D01*
X433153Y44543D01*
X432523Y44743D01*
X432515Y44743D01*
X432497Y44750D01*
X431848Y44881D01*
X431841Y44881D01*
X431827Y44885D01*
X431169Y44958D01*
X431163Y44957D01*
X431150Y44960D01*
X430489Y44982D01*
X430484Y44981D01*
X430473Y44982D01*
X429813Y44965D01*
X429808Y44963D01*
X429798Y44964D01*
X429138Y44907D01*
X429133Y44905D01*
X429119Y44905D01*
X428466Y44796D01*
X428459Y44793D01*
X428441Y44791D01*
X427803Y44615D01*
X427795Y44610D01*
X427770Y44603D01*
X427164Y44338D01*
X427156Y44331D01*
X427121Y44313D01*
X426580Y43935D01*
X426576Y43929D01*
X426533Y43892D01*
X426107Y43388D01*
X426106Y43386D01*
X426069Y43328D01*
X425802Y42725D01*
X425801Y42717D01*
X425784Y42664D01*
X425678Y42012D01*
X425679Y42002D01*
X425675Y41973D01*
X425669Y38002D01*
X425678Y37972D01*
X425677Y37941D01*
X425705Y37873D01*
X425761Y37781D01*
X425757Y37779D01*
X425728Y37735D01*
X425692Y37694D01*
X425690Y37677D01*
X425680Y37663D01*
X425669Y37589D01*
X425668Y36281D01*
X425646Y35639D01*
X425580Y35011D01*
X425436Y34388D01*
X425437Y34374D01*
X425431Y34362D01*
X425440Y34306D01*
X425444Y34248D01*
X425452Y34237D01*
X425454Y34224D01*
X425495Y34163D01*
X425739Y33898D01*
X425795Y33865D01*
X425849Y33829D01*
X425856Y33828D01*
X425859Y33826D01*
X425866Y33827D01*
X425922Y33818D01*
X427890Y33818D01*
X427900Y33821D01*
X427930Y33821D01*
X428516Y33915D01*
X428552Y33932D01*
X428591Y33940D01*
X428613Y33962D01*
X428642Y33975D01*
X428663Y34009D01*
X428692Y34036D01*
X428712Y34087D01*
X428716Y34094D01*
X428716Y34098D01*
X428719Y34105D01*
X428823Y34556D01*
X428855Y34557D01*
X429323Y34227D01*
X429332Y34224D01*
X429358Y34206D01*
X429949Y33922D01*
X429959Y33921D01*
X429983Y33909D01*
X430608Y33714D01*
X430617Y33714D01*
X430638Y33706D01*
X431284Y33590D01*
X431292Y33591D01*
X431310Y33587D01*
X431964Y33540D01*
X431971Y33542D01*
X431989Y33540D01*
X432644Y33559D01*
G37*
G36*
X415996Y33820D02*
X415996Y33820D01*
X416057Y33827D01*
X416578Y33971D01*
X416623Y33999D01*
X416673Y34021D01*
X416682Y34035D01*
X416697Y34045D01*
X416720Y34093D01*
X416750Y34138D01*
X416753Y34162D01*
X416757Y34170D01*
X416756Y34181D01*
X416761Y34211D01*
X416761Y46845D01*
X416760Y46846D01*
X416761Y46847D01*
X416755Y46885D01*
X416755Y46896D01*
X416752Y46902D01*
X416749Y46920D01*
X416749Y46921D01*
X416731Y46948D01*
X416721Y46979D01*
X416702Y46996D01*
X416690Y47019D01*
X416675Y47030D01*
X416671Y47037D01*
X416661Y47041D01*
X416631Y47064D01*
X414299Y48343D01*
X414291Y48345D01*
X414274Y48355D01*
X413754Y48569D01*
X413689Y48576D01*
X413625Y48585D01*
X413620Y48583D01*
X413615Y48584D01*
X413556Y48555D01*
X413498Y48529D01*
X413495Y48524D01*
X413489Y48521D01*
X413456Y48466D01*
X413421Y48412D01*
X413420Y48405D01*
X413418Y48401D01*
X413418Y48394D01*
X413410Y48338D01*
X413410Y41334D01*
X410365Y44499D01*
X410332Y44518D01*
X410306Y44544D01*
X410249Y44565D01*
X410243Y44569D01*
X410241Y44568D01*
X410236Y44570D01*
X409625Y44697D01*
X409614Y44696D01*
X409574Y44702D01*
X406914Y44702D01*
X406865Y44688D01*
X406814Y44681D01*
X406799Y44669D01*
X406780Y44663D01*
X406746Y44625D01*
X406707Y44592D01*
X406701Y44573D01*
X406688Y44558D01*
X406681Y44507D01*
X406665Y44458D01*
X406669Y44430D01*
X406667Y44420D01*
X406671Y44411D01*
X406675Y44385D01*
X406763Y44078D01*
X406777Y44055D01*
X406783Y44028D01*
X406828Y43969D01*
X410108Y40771D01*
X410182Y40445D01*
X406196Y34439D01*
X406192Y34426D01*
X406188Y34421D01*
X406185Y34404D01*
X406178Y34381D01*
X406155Y34324D01*
X406157Y34315D01*
X406154Y34306D01*
X406170Y34247D01*
X406182Y34187D01*
X406190Y34177D01*
X406191Y34171D01*
X406199Y34164D01*
X406226Y34127D01*
X406455Y33893D01*
X406508Y33863D01*
X406559Y33829D01*
X406571Y33827D01*
X406576Y33825D01*
X406586Y33825D01*
X406633Y33818D01*
X409292Y33818D01*
X409302Y33821D01*
X409312Y33819D01*
X409385Y33836D01*
X409929Y34053D01*
X409962Y34079D01*
X410001Y34097D01*
X410031Y34132D01*
X410039Y34139D01*
X410041Y34144D01*
X410049Y34154D01*
X412469Y38094D01*
X412648Y38271D01*
X413363Y37582D01*
X413410Y37044D01*
X413410Y34396D01*
X413427Y34336D01*
X413440Y34276D01*
X413447Y34267D01*
X413449Y34261D01*
X413456Y34255D01*
X413485Y34217D01*
X413822Y33889D01*
X413873Y33861D01*
X413922Y33829D01*
X413939Y33827D01*
X413945Y33823D01*
X413956Y33824D01*
X413996Y33818D01*
X415990Y33818D01*
X415996Y33820D01*
G37*
G36*
X346747Y141687D02*
X346747Y141687D01*
X346741Y141695D01*
X346749Y141702D01*
X346549Y146201D01*
X346549Y146792D01*
X346846Y147681D01*
X346943Y147875D01*
X347138Y148169D01*
X347335Y148365D01*
X347336Y148372D01*
X347341Y148373D01*
X347538Y148669D01*
X347927Y149057D01*
X348216Y149153D01*
X348225Y149167D01*
X348235Y149165D01*
X348427Y149357D01*
X348716Y149453D01*
X349008Y149551D01*
X349300Y149551D01*
X349309Y149558D01*
X349316Y149553D01*
X349608Y149651D01*
X350492Y149651D01*
X351081Y149454D01*
X351278Y149356D01*
X351283Y149357D01*
X351284Y149353D01*
X351578Y149255D01*
X351869Y149062D01*
X352662Y148269D01*
X352855Y147978D01*
X352953Y147684D01*
X352958Y147681D01*
X352956Y147678D01*
X353054Y147481D01*
X353251Y146892D01*
X353251Y146301D01*
X353051Y141802D01*
X353076Y141765D01*
X353078Y141756D01*
X353278Y141656D01*
X353294Y141659D01*
X353300Y141651D01*
X356000Y141651D01*
X356009Y141658D01*
X356016Y141653D01*
X356316Y141753D01*
X356325Y141767D01*
X356335Y141765D01*
X356535Y141965D01*
X356537Y141977D01*
X356543Y141982D01*
X356542Y141983D01*
X356547Y141984D01*
X356647Y142284D01*
X356643Y142295D01*
X356649Y142300D01*
X356649Y151300D01*
X356633Y151321D01*
X356635Y151335D01*
X356435Y151535D01*
X356428Y151536D01*
X356427Y151541D01*
X356127Y151741D01*
X356109Y151740D01*
X356103Y151747D01*
X356102Y151747D01*
X356100Y151749D01*
X344100Y151749D01*
X344097Y151747D01*
X344096Y151747D01*
X344086Y151740D01*
X344078Y151744D01*
X343878Y151644D01*
X343873Y151634D01*
X343865Y151635D01*
X343665Y151435D01*
X343663Y151422D01*
X343656Y151417D01*
X343653Y151416D01*
X343553Y151116D01*
X343557Y151105D01*
X343551Y151100D01*
X343551Y142100D01*
X343563Y142084D01*
X343559Y142073D01*
X343759Y141773D01*
X343780Y141765D01*
X343784Y141753D01*
X344084Y141653D01*
X344095Y141657D01*
X344100Y141651D01*
X346700Y141651D01*
X346747Y141687D01*
G37*
G36*
X395714Y33563D02*
X395714Y33563D01*
X395721Y33566D01*
X395741Y33566D01*
X396396Y33663D01*
X396405Y33667D01*
X396432Y33671D01*
X397064Y33866D01*
X397073Y33871D01*
X397111Y33885D01*
X397691Y34202D01*
X397697Y34208D01*
X397740Y34238D01*
X398225Y34686D01*
X398230Y34693D01*
X398265Y34733D01*
X398625Y35288D01*
X398628Y35298D01*
X398648Y35334D01*
X398886Y35951D01*
X398887Y35961D01*
X398897Y35987D01*
X399039Y36633D01*
X399039Y36641D01*
X399044Y36660D01*
X399116Y37318D01*
X399115Y37324D01*
X399117Y37337D01*
X399140Y37999D01*
X399139Y38001D01*
X399140Y38007D01*
X399140Y43968D01*
X399138Y43974D01*
X399140Y43981D01*
X399125Y44054D01*
X398948Y44539D01*
X398922Y44574D01*
X398904Y44614D01*
X398881Y44629D01*
X398865Y44651D01*
X398824Y44667D01*
X398787Y44691D01*
X398744Y44698D01*
X398734Y44702D01*
X398728Y44700D01*
X398714Y44702D01*
X396064Y44702D01*
X396053Y44699D01*
X396041Y44701D01*
X395987Y44680D01*
X395930Y44663D01*
X395922Y44654D01*
X395911Y44650D01*
X395877Y44602D01*
X395838Y44558D01*
X395836Y44546D01*
X395829Y44537D01*
X395815Y44464D01*
X395788Y43828D01*
X395789Y43825D01*
X395788Y43818D01*
X395787Y38526D01*
X395753Y37888D01*
X395637Y37288D01*
X395388Y36774D01*
X394966Y36431D01*
X394412Y36296D01*
X393815Y36311D01*
X393252Y36464D01*
X392801Y36797D01*
X392503Y37291D01*
X392339Y37876D01*
X392265Y38502D01*
X392250Y39150D01*
X392250Y44445D01*
X392245Y44462D01*
X392248Y44478D01*
X392226Y44528D01*
X392211Y44580D01*
X392198Y44591D01*
X392192Y44606D01*
X392147Y44636D01*
X392106Y44672D01*
X392089Y44674D01*
X392075Y44683D01*
X392002Y44695D01*
X389360Y44702D01*
X389328Y44693D01*
X389294Y44694D01*
X389262Y44674D01*
X389226Y44663D01*
X389203Y44638D01*
X389175Y44621D01*
X389134Y44559D01*
X388922Y44108D01*
X388919Y44091D01*
X388909Y44076D01*
X388898Y44002D01*
X388898Y34067D01*
X388902Y34054D01*
X388900Y34041D01*
X388901Y34037D01*
X388901Y34034D01*
X388922Y33986D01*
X388937Y33933D01*
X388948Y33924D01*
X388953Y33912D01*
X388956Y33909D01*
X388957Y33906D01*
X389001Y33877D01*
X389043Y33841D01*
X389056Y33839D01*
X389067Y33831D01*
X389071Y33831D01*
X389074Y33829D01*
X389148Y33818D01*
X391797Y33818D01*
X391801Y33819D01*
X391804Y33818D01*
X391868Y33839D01*
X391931Y33857D01*
X391934Y33860D01*
X391937Y33861D01*
X391979Y33912D01*
X392023Y33963D01*
X392024Y33966D01*
X392026Y33969D01*
X392045Y34041D01*
X392108Y34640D01*
X392107Y34647D01*
X392110Y34666D01*
X392110Y34859D01*
X392430Y34521D01*
X392439Y34515D01*
X392465Y34490D01*
X393001Y34103D01*
X393011Y34099D01*
X393041Y34079D01*
X393639Y33797D01*
X393650Y33796D01*
X393680Y33782D01*
X394319Y33610D01*
X394330Y33610D01*
X394360Y33602D01*
X395019Y33539D01*
X395028Y33541D01*
X395052Y33538D01*
X395714Y33563D01*
G37*
G36*
X387392Y33828D02*
X387392Y33828D01*
X387426Y33827D01*
X387458Y33847D01*
X387494Y33857D01*
X387516Y33882D01*
X387545Y33900D01*
X387586Y33962D01*
X387798Y34413D01*
X387800Y34430D01*
X387810Y34445D01*
X387821Y34518D01*
X387821Y44453D01*
X387817Y44468D01*
X387819Y44487D01*
X387801Y44528D01*
X387792Y44571D01*
X387784Y44579D01*
X387782Y44587D01*
X387770Y44598D01*
X387763Y44614D01*
X387725Y44639D01*
X387694Y44671D01*
X387683Y44673D01*
X387677Y44679D01*
X387661Y44682D01*
X387646Y44691D01*
X387572Y44702D01*
X384923Y44702D01*
X384919Y44701D01*
X384915Y44702D01*
X384853Y44682D01*
X384789Y44663D01*
X384786Y44660D01*
X384782Y44659D01*
X384741Y44608D01*
X384697Y44558D01*
X384696Y44554D01*
X384694Y44551D01*
X384675Y44479D01*
X384613Y43879D01*
X384615Y43871D01*
X384612Y43853D01*
X384612Y43660D01*
X384289Y44002D01*
X384280Y44007D01*
X384254Y44033D01*
X383717Y44419D01*
X383707Y44423D01*
X383677Y44443D01*
X383079Y44724D01*
X383068Y44726D01*
X383038Y44739D01*
X382399Y44911D01*
X382389Y44911D01*
X382358Y44919D01*
X381699Y44981D01*
X381690Y44980D01*
X381666Y44982D01*
X381005Y44957D01*
X380997Y44955D01*
X380977Y44955D01*
X380323Y44857D01*
X380314Y44853D01*
X380286Y44849D01*
X379654Y44654D01*
X379645Y44649D01*
X379608Y44635D01*
X379028Y44317D01*
X379022Y44311D01*
X378979Y44281D01*
X378494Y43833D01*
X378490Y43825D01*
X378454Y43785D01*
X378095Y43231D01*
X378092Y43221D01*
X378071Y43185D01*
X377834Y42568D01*
X377833Y42558D01*
X377823Y42532D01*
X377681Y41885D01*
X377681Y41877D01*
X377676Y41859D01*
X377604Y41201D01*
X377605Y41195D01*
X377603Y41182D01*
X377581Y40520D01*
X377582Y40517D01*
X377581Y40512D01*
X377581Y34551D01*
X377583Y34544D01*
X377581Y34537D01*
X377596Y34465D01*
X377775Y33981D01*
X377801Y33946D01*
X377819Y33907D01*
X377842Y33891D01*
X377858Y33869D01*
X377899Y33853D01*
X377935Y33830D01*
X377979Y33823D01*
X377989Y33819D01*
X377995Y33821D01*
X378009Y33818D01*
X380658Y33818D01*
X380670Y33822D01*
X380682Y33820D01*
X380736Y33841D01*
X380792Y33858D01*
X380800Y33867D01*
X380812Y33872D01*
X380846Y33919D01*
X380884Y33963D01*
X380886Y33975D01*
X380893Y33985D01*
X380907Y34058D01*
X380931Y34696D01*
X380930Y34699D01*
X380931Y34706D01*
X380932Y39997D01*
X380967Y40634D01*
X381084Y41235D01*
X381334Y41748D01*
X381757Y42090D01*
X382310Y42226D01*
X382907Y42211D01*
X383469Y42057D01*
X383920Y41723D01*
X384217Y41229D01*
X384380Y40644D01*
X384453Y40017D01*
X384468Y39369D01*
X384468Y34074D01*
X384473Y34058D01*
X384471Y34041D01*
X384492Y33992D01*
X384508Y33940D01*
X384520Y33929D01*
X384527Y33913D01*
X384572Y33883D01*
X384613Y33848D01*
X384630Y33845D01*
X384644Y33836D01*
X384717Y33825D01*
X387360Y33818D01*
X387392Y33828D01*
G37*
G36*
X453269Y33545D02*
X453269Y33545D01*
X453282Y33544D01*
X453941Y33591D01*
X453947Y33593D01*
X453962Y33593D01*
X454614Y33695D01*
X454621Y33698D01*
X454638Y33700D01*
X455277Y33866D01*
X455285Y33870D01*
X455306Y33875D01*
X455920Y34117D01*
X455928Y34123D01*
X455954Y34133D01*
X456525Y34462D01*
X456533Y34470D01*
X456562Y34488D01*
X457066Y34914D01*
X457071Y34923D01*
X457101Y34950D01*
X457508Y35469D01*
X457511Y35479D01*
X457535Y35514D01*
X457825Y36106D01*
X457826Y36117D01*
X457842Y36152D01*
X458011Y36789D01*
X458011Y36795D01*
X458019Y36857D01*
X458012Y37446D01*
X458007Y37461D01*
X458009Y37477D01*
X457987Y37527D01*
X457971Y37580D01*
X457959Y37590D01*
X457952Y37604D01*
X457906Y37635D01*
X457864Y37671D01*
X457849Y37673D01*
X457836Y37681D01*
X457762Y37692D01*
X455120Y37692D01*
X455100Y37687D01*
X455081Y37689D01*
X455038Y37669D01*
X454996Y37659D01*
X454992Y37655D01*
X454985Y37653D01*
X454972Y37638D01*
X454954Y37630D01*
X454929Y37589D01*
X454899Y37559D01*
X454897Y37552D01*
X454893Y37548D01*
X454892Y37537D01*
X454887Y37523D01*
X454880Y37512D01*
X454880Y37503D01*
X454875Y37488D01*
X454765Y36896D01*
X454451Y36444D01*
X454137Y36245D01*
X453968Y36139D01*
X453395Y35981D01*
X452790Y35949D01*
X452201Y36044D01*
X451693Y36285D01*
X451377Y36692D01*
X451347Y37170D01*
X451654Y37561D01*
X452176Y37825D01*
X452778Y38020D01*
X453407Y38178D01*
X454694Y38465D01*
X454697Y38467D01*
X454705Y38468D01*
X455342Y38644D01*
X455348Y38647D01*
X455361Y38650D01*
X455982Y38874D01*
X455989Y38880D01*
X456011Y38887D01*
X456598Y39188D01*
X456606Y39196D01*
X456641Y39216D01*
X457154Y39629D01*
X457156Y39632D01*
X457202Y39681D01*
X457577Y40221D01*
X457578Y40223D01*
X457580Y40225D01*
X457611Y40292D01*
X457800Y40923D01*
X457800Y40930D01*
X457810Y40986D01*
X457831Y41645D01*
X457829Y41656D01*
X457829Y41690D01*
X457733Y42342D01*
X457728Y42352D01*
X457720Y42392D01*
X457492Y43011D01*
X457487Y43018D01*
X457465Y43064D01*
X457096Y43610D01*
X457089Y43616D01*
X457056Y43656D01*
X456565Y44096D01*
X456556Y44101D01*
X456523Y44127D01*
X455950Y44454D01*
X455940Y44457D01*
X455913Y44472D01*
X455294Y44701D01*
X455284Y44701D01*
X455263Y44710D01*
X454619Y44857D01*
X454612Y44857D01*
X454595Y44862D01*
X453940Y44946D01*
X453934Y44945D01*
X453921Y44948D01*
X453261Y44981D01*
X453256Y44980D01*
X453245Y44982D01*
X452585Y44971D01*
X452579Y44970D01*
X452565Y44970D01*
X451908Y44909D01*
X451901Y44907D01*
X451885Y44906D01*
X451236Y44784D01*
X451228Y44780D01*
X451208Y44777D01*
X450577Y44581D01*
X450569Y44576D01*
X450543Y44568D01*
X449949Y44281D01*
X449941Y44274D01*
X449910Y44258D01*
X449378Y43868D01*
X449371Y43860D01*
X449338Y43832D01*
X448901Y43339D01*
X448897Y43330D01*
X448869Y43294D01*
X448550Y42717D01*
X448548Y42707D01*
X448530Y42671D01*
X448333Y42042D01*
X448333Y42035D01*
X448330Y42030D01*
X448322Y41956D01*
X448346Y41408D01*
X448350Y41397D01*
X448348Y41386D01*
X448372Y41332D01*
X448391Y41276D01*
X448400Y41269D01*
X448405Y41258D01*
X448454Y41226D01*
X448501Y41189D01*
X448512Y41187D01*
X448522Y41181D01*
X448595Y41170D01*
X450577Y41170D01*
X450582Y41171D01*
X450592Y41170D01*
X451219Y41208D01*
X451261Y41223D01*
X451306Y41230D01*
X451326Y41247D01*
X451350Y41255D01*
X451378Y41291D01*
X451412Y41320D01*
X451429Y41358D01*
X451436Y41366D01*
X451436Y41373D01*
X451443Y41388D01*
X451607Y41957D01*
X451982Y42335D01*
X452517Y42525D01*
X453124Y42577D01*
X453727Y42535D01*
X454227Y42350D01*
X454463Y41964D01*
X454362Y41525D01*
X453942Y41207D01*
X453370Y40999D01*
X452744Y40843D01*
X451458Y40562D01*
X451456Y40561D01*
X451450Y40560D01*
X450810Y40398D01*
X450805Y40396D01*
X450794Y40394D01*
X450166Y40191D01*
X450159Y40187D01*
X450142Y40182D01*
X449537Y39916D01*
X449529Y39910D01*
X449502Y39897D01*
X448949Y39537D01*
X448943Y39529D01*
X448904Y39499D01*
X448453Y39022D01*
X448452Y39021D01*
X448451Y39019D01*
X448410Y38961D01*
X448114Y38373D01*
X448114Y38369D01*
X448092Y38307D01*
X447971Y37660D01*
X447972Y37649D01*
X447966Y37608D01*
X447982Y36948D01*
X447985Y36938D01*
X447987Y36906D01*
X448113Y36259D01*
X448118Y36249D01*
X448128Y36211D01*
X448381Y35602D01*
X448388Y35594D01*
X448408Y35554D01*
X448790Y35016D01*
X448798Y35010D01*
X448826Y34976D01*
X449314Y34533D01*
X449324Y34528D01*
X449352Y34504D01*
X449916Y34162D01*
X449926Y34159D01*
X449951Y34144D01*
X450561Y33893D01*
X450570Y33893D01*
X450591Y33883D01*
X451228Y33711D01*
X451236Y33711D01*
X451253Y33705D01*
X451905Y33598D01*
X451912Y33599D01*
X451926Y33596D01*
X452585Y33545D01*
X452590Y33546D01*
X452603Y33544D01*
X453264Y33543D01*
X453269Y33545D01*
G37*
G36*
X261204Y94054D02*
X261204Y94054D01*
X261207Y94051D01*
X261907Y94151D01*
X261912Y94156D01*
X261916Y94153D01*
X262516Y94353D01*
X262519Y94358D01*
X262522Y94356D01*
X263122Y94656D01*
X263124Y94660D01*
X263127Y94659D01*
X263727Y95059D01*
X263730Y95066D01*
X263735Y95065D01*
X264235Y95565D01*
X264235Y95569D01*
X264238Y95569D01*
X264638Y96069D01*
X264639Y96073D01*
X264641Y96073D01*
X265041Y96673D01*
X265040Y96682D01*
X265047Y96684D01*
X265447Y97884D01*
X265445Y97891D01*
X265449Y97893D01*
X265549Y98593D01*
X265546Y98598D01*
X265549Y98600D01*
X265549Y99300D01*
X265546Y99304D01*
X265549Y99307D01*
X265449Y100007D01*
X265444Y100012D01*
X265447Y100016D01*
X265047Y101216D01*
X265039Y101221D01*
X265041Y101227D01*
X264641Y101827D01*
X264638Y101828D01*
X264638Y101831D01*
X264238Y102331D01*
X264234Y102332D01*
X264235Y102335D01*
X263735Y102835D01*
X263728Y102836D01*
X263727Y102841D01*
X263127Y103241D01*
X263123Y103241D01*
X263122Y103244D01*
X262522Y103544D01*
X262517Y103543D01*
X262516Y103547D01*
X261916Y103747D01*
X261909Y103745D01*
X261907Y103749D01*
X261207Y103849D01*
X261202Y103846D01*
X261200Y103849D01*
X260100Y103849D01*
X260091Y103842D01*
X260084Y103847D01*
X258884Y103447D01*
X258881Y103442D01*
X258878Y103444D01*
X258278Y103144D01*
X258274Y103137D01*
X258268Y103138D01*
X257669Y102638D01*
X257169Y102238D01*
X257167Y102228D01*
X257159Y102227D01*
X256759Y101627D01*
X256759Y101623D01*
X256756Y101622D01*
X256456Y101022D01*
X256457Y101017D01*
X256453Y101016D01*
X256053Y99816D01*
X256057Y99805D01*
X256051Y99800D01*
X256051Y98400D01*
X256054Y98396D01*
X256051Y98393D01*
X256151Y97693D01*
X256156Y97688D01*
X256153Y97684D01*
X256353Y97084D01*
X256358Y97081D01*
X256356Y97078D01*
X256656Y96478D01*
X256660Y96476D01*
X256659Y96473D01*
X257059Y95873D01*
X257062Y95872D01*
X257062Y95869D01*
X257462Y95369D01*
X257469Y95367D01*
X257468Y95362D01*
X258068Y94862D01*
X258074Y94862D01*
X258075Y94858D01*
X258575Y94558D01*
X258578Y94558D01*
X258578Y94556D01*
X259178Y94256D01*
X259185Y94257D01*
X259186Y94253D01*
X259886Y94053D01*
X259896Y94056D01*
X259900Y94051D01*
X261200Y94051D01*
X261204Y94054D01*
G37*
G36*
X400204Y5254D02*
X400204Y5254D01*
X400206Y5251D01*
X401006Y5351D01*
X401019Y5364D01*
X401030Y5361D01*
X401430Y5661D01*
X401434Y5677D01*
X401439Y5681D01*
X401436Y5685D01*
X401437Y5687D01*
X401449Y5693D01*
X401549Y6393D01*
X401546Y6398D01*
X401549Y6400D01*
X401549Y13900D01*
X401542Y13909D01*
X401547Y13916D01*
X401347Y14516D01*
X401327Y14529D01*
X401325Y14542D01*
X400825Y14842D01*
X400807Y14840D01*
X400800Y14849D01*
X397600Y14849D01*
X397596Y14846D01*
X397593Y14849D01*
X396893Y14749D01*
X396888Y14744D01*
X396884Y14747D01*
X396284Y14547D01*
X396281Y14542D01*
X396278Y14544D01*
X395078Y13944D01*
X395073Y13934D01*
X395065Y13935D01*
X394065Y12935D01*
X394064Y12923D01*
X394056Y12922D01*
X393757Y12323D01*
X393458Y11825D01*
X393459Y11818D01*
X393453Y11814D01*
X393454Y11814D01*
X393453Y11814D01*
X393439Y11765D01*
X393425Y11716D01*
X393383Y11568D01*
X393340Y11420D01*
X393326Y11371D01*
X393284Y11223D01*
X393253Y11114D01*
X393255Y11109D01*
X393251Y11107D01*
X393151Y10407D01*
X393154Y10402D01*
X393151Y10400D01*
X393151Y9700D01*
X393154Y9696D01*
X393151Y9693D01*
X393251Y8993D01*
X393256Y8988D01*
X393253Y8984D01*
X393653Y7784D01*
X393661Y7779D01*
X393659Y7773D01*
X394059Y7173D01*
X394066Y7170D01*
X394065Y7165D01*
X395065Y6165D01*
X395074Y6164D01*
X395075Y6158D01*
X395575Y5858D01*
X395578Y5858D01*
X395578Y5856D01*
X396178Y5556D01*
X396185Y5557D01*
X396186Y5553D01*
X396886Y5353D01*
X396890Y5354D01*
X396892Y5351D01*
X397492Y5251D01*
X397497Y5254D01*
X397500Y5251D01*
X400200Y5251D01*
X400204Y5254D01*
G37*
G36*
X158704Y158254D02*
X158704Y158254D01*
X158707Y158251D01*
X159407Y158351D01*
X159419Y158364D01*
X159430Y158361D01*
X159830Y158661D01*
X159834Y158677D01*
X159839Y158681D01*
X159836Y158685D01*
X159837Y158687D01*
X159849Y158693D01*
X159949Y159393D01*
X159946Y159398D01*
X159949Y159400D01*
X159949Y166900D01*
X159942Y166909D01*
X159947Y166916D01*
X159747Y167516D01*
X159727Y167529D01*
X159725Y167542D01*
X159225Y167842D01*
X159207Y167840D01*
X159200Y167849D01*
X156000Y167849D01*
X155996Y167846D01*
X155993Y167849D01*
X155293Y167749D01*
X155288Y167744D01*
X155284Y167747D01*
X154684Y167547D01*
X154681Y167542D01*
X154678Y167544D01*
X153478Y166944D01*
X153473Y166934D01*
X153465Y166935D01*
X152465Y165935D01*
X152464Y165923D01*
X152456Y165922D01*
X152157Y165323D01*
X151858Y164825D01*
X151859Y164818D01*
X151853Y164814D01*
X151854Y164814D01*
X151853Y164814D01*
X151839Y164765D01*
X151825Y164716D01*
X151783Y164568D01*
X151740Y164420D01*
X151726Y164371D01*
X151684Y164223D01*
X151653Y164114D01*
X151655Y164109D01*
X151651Y164107D01*
X151551Y163407D01*
X151554Y163402D01*
X151551Y163400D01*
X151551Y162700D01*
X151554Y162696D01*
X151551Y162693D01*
X151651Y161993D01*
X151656Y161988D01*
X151653Y161984D01*
X151853Y161384D01*
X151858Y161381D01*
X151856Y161378D01*
X152456Y160178D01*
X152466Y160173D01*
X152465Y160165D01*
X153465Y159165D01*
X153474Y159164D01*
X153475Y159158D01*
X153975Y158858D01*
X153978Y158858D01*
X153978Y158856D01*
X154578Y158556D01*
X154585Y158557D01*
X154586Y158553D01*
X155286Y158353D01*
X155290Y158354D01*
X155292Y158351D01*
X155892Y158251D01*
X155897Y158254D01*
X155900Y158251D01*
X158700Y158251D01*
X158704Y158254D01*
G37*
G36*
X141404Y158254D02*
X141404Y158254D01*
X141406Y158251D01*
X142206Y158351D01*
X142222Y158367D01*
X142235Y158365D01*
X142535Y158665D01*
X142536Y158677D01*
X142541Y158681D01*
X142538Y158686D01*
X142538Y158687D01*
X142549Y158693D01*
X142649Y159393D01*
X142646Y159398D01*
X142649Y159400D01*
X142649Y166900D01*
X142642Y166909D01*
X142647Y166916D01*
X142447Y167516D01*
X142430Y167527D01*
X142430Y167539D01*
X142030Y167839D01*
X142008Y167839D01*
X142000Y167849D01*
X138700Y167849D01*
X138695Y167846D01*
X138692Y167849D01*
X138092Y167749D01*
X138089Y167745D01*
X138086Y167747D01*
X137386Y167547D01*
X137382Y167542D01*
X137378Y167544D01*
X136778Y167244D01*
X136777Y167241D01*
X136775Y167242D01*
X136275Y166942D01*
X136273Y166937D01*
X136268Y166938D01*
X135668Y166438D01*
X135667Y166431D01*
X135662Y166431D01*
X135262Y165931D01*
X135261Y165927D01*
X135259Y165927D01*
X134859Y165327D01*
X134859Y165326D01*
X134858Y165325D01*
X134558Y164825D01*
X134559Y164818D01*
X134553Y164814D01*
X134554Y164814D01*
X134553Y164814D01*
X134539Y164765D01*
X134525Y164716D01*
X134483Y164568D01*
X134440Y164420D01*
X134426Y164371D01*
X134384Y164223D01*
X134353Y164114D01*
X134355Y164109D01*
X134351Y164107D01*
X134251Y163407D01*
X134254Y163402D01*
X134251Y163400D01*
X134251Y162700D01*
X134254Y162696D01*
X134251Y162693D01*
X134351Y161993D01*
X134356Y161988D01*
X134353Y161984D01*
X134553Y161384D01*
X134558Y161381D01*
X134556Y161378D01*
X135156Y160178D01*
X135166Y160173D01*
X135165Y160165D01*
X136165Y159165D01*
X136177Y159164D01*
X136178Y159156D01*
X136777Y158857D01*
X137275Y158558D01*
X137334Y158564D01*
X137332Y158578D01*
X137346Y158582D01*
X137356Y158608D01*
X137372Y158560D01*
X137381Y158563D01*
X137384Y158553D01*
X137984Y158353D01*
X137991Y158355D01*
X137993Y158351D01*
X138693Y158251D01*
X138698Y158254D01*
X138700Y158251D01*
X141400Y158251D01*
X141404Y158254D01*
G37*
G36*
X416404Y5254D02*
X416404Y5254D01*
X416406Y5251D01*
X417206Y5351D01*
X417219Y5364D01*
X417230Y5361D01*
X417630Y5661D01*
X417634Y5677D01*
X417639Y5681D01*
X417636Y5685D01*
X417639Y5692D01*
X417649Y5700D01*
X417649Y13900D01*
X417646Y13905D01*
X417649Y13908D01*
X417549Y14508D01*
X417527Y14529D01*
X417525Y14542D01*
X417025Y14842D01*
X417007Y14840D01*
X417000Y14849D01*
X413800Y14849D01*
X413796Y14846D01*
X413793Y14849D01*
X413093Y14749D01*
X413088Y14744D01*
X413084Y14747D01*
X412484Y14547D01*
X412481Y14542D01*
X412478Y14544D01*
X411278Y13944D01*
X411273Y13934D01*
X411265Y13935D01*
X410265Y12935D01*
X410264Y12928D01*
X410259Y12927D01*
X409859Y12327D01*
X409860Y12320D01*
X409854Y12318D01*
X409654Y11818D01*
X409655Y11816D01*
X409653Y11814D01*
X409639Y11765D01*
X409625Y11716D01*
X409583Y11568D01*
X409540Y11420D01*
X409526Y11371D01*
X409484Y11223D01*
X409453Y11114D01*
X409455Y11109D01*
X409451Y11107D01*
X409351Y10407D01*
X409354Y10402D01*
X409351Y10400D01*
X409351Y9700D01*
X409354Y9696D01*
X409351Y9693D01*
X409451Y8993D01*
X409456Y8988D01*
X409453Y8984D01*
X409853Y7784D01*
X409861Y7779D01*
X409859Y7773D01*
X410259Y7173D01*
X410262Y7172D01*
X410262Y7169D01*
X410662Y6669D01*
X410666Y6668D01*
X410665Y6665D01*
X411165Y6165D01*
X411177Y6164D01*
X411178Y6156D01*
X412378Y5556D01*
X412383Y5557D01*
X412384Y5553D01*
X412984Y5353D01*
X412991Y5355D01*
X412993Y5351D01*
X413693Y5251D01*
X413698Y5254D01*
X413700Y5251D01*
X416400Y5251D01*
X416404Y5254D01*
G37*
G36*
X330113Y123660D02*
X330113Y123660D01*
X330122Y123656D01*
X330322Y123756D01*
X330324Y123760D01*
X330327Y123759D01*
X330627Y123959D01*
X330631Y123969D01*
X330638Y123968D01*
X344338Y140368D01*
X344338Y140378D01*
X344344Y140382D01*
X344339Y140389D01*
X344341Y140428D01*
X344334Y140428D01*
X344335Y140435D01*
X344235Y140535D01*
X344210Y140538D01*
X344206Y140544D01*
X344204Y140544D01*
X344200Y140549D01*
X343908Y140549D01*
X343616Y140647D01*
X343327Y140743D01*
X343135Y140935D01*
X342743Y141327D01*
X342647Y141616D01*
X342449Y142208D01*
X342449Y144400D01*
X342439Y144414D01*
X342438Y144432D01*
X342426Y144431D01*
X342413Y144447D01*
X342396Y144434D01*
X342390Y144434D01*
X342383Y144429D01*
X342359Y144428D01*
X329159Y125128D01*
X329159Y125127D01*
X328959Y124827D01*
X328960Y124807D01*
X328951Y124800D01*
X328951Y124500D01*
X328958Y124491D01*
X328953Y124484D01*
X329053Y124184D01*
X329067Y124175D01*
X329065Y124165D01*
X329465Y123765D01*
X329481Y123763D01*
X329484Y123753D01*
X329784Y123653D01*
X329795Y123657D01*
X329800Y123651D01*
X330100Y123651D01*
X330113Y123660D01*
G37*
G36*
X370409Y123658D02*
X370409Y123658D01*
X370416Y123653D01*
X370716Y123753D01*
X370719Y123758D01*
X370722Y123756D01*
X370922Y123856D01*
X370930Y123872D01*
X370941Y123873D01*
X371141Y124173D01*
X371141Y124178D01*
X371142Y124179D01*
X371140Y124182D01*
X371147Y124184D01*
X371247Y124484D01*
X371243Y124495D01*
X371249Y124500D01*
X371249Y124800D01*
X371240Y124813D01*
X371244Y124822D01*
X371144Y125022D01*
X371139Y125024D01*
X371141Y125028D01*
X357841Y144428D01*
X357824Y144433D01*
X357813Y144447D01*
X357804Y144440D01*
X357784Y144447D01*
X357775Y144418D01*
X357751Y144400D01*
X357751Y142208D01*
X357653Y141916D01*
X357657Y141905D01*
X357651Y141900D01*
X357651Y141620D01*
X357465Y141435D01*
X357463Y141419D01*
X357453Y141416D01*
X357357Y141127D01*
X357169Y140938D01*
X356878Y140745D01*
X356584Y140647D01*
X356581Y140642D01*
X356578Y140644D01*
X356388Y140549D01*
X356100Y140549D01*
X356092Y140544D01*
X356089Y140544D01*
X356085Y140541D01*
X356078Y140544D01*
X355878Y140444D01*
X355863Y140415D01*
X355856Y140409D01*
X355859Y140405D01*
X355852Y140391D01*
X355866Y140384D01*
X355862Y140368D01*
X369562Y124068D01*
X369566Y124068D01*
X369565Y124065D01*
X369765Y123865D01*
X369772Y123864D01*
X369773Y123859D01*
X370073Y123659D01*
X370093Y123660D01*
X370100Y123651D01*
X370400Y123651D01*
X370409Y123658D01*
G37*
G36*
X404445Y33817D02*
X404445Y33817D01*
X404447Y33817D01*
X404512Y33837D01*
X404577Y33856D01*
X404579Y33858D01*
X404581Y33858D01*
X404624Y33910D01*
X404669Y33961D01*
X404669Y33963D01*
X404671Y33965D01*
X404690Y34037D01*
X404760Y34625D01*
X404759Y34633D01*
X404762Y34654D01*
X404762Y42296D01*
X407143Y42296D01*
X407209Y42315D01*
X407277Y42335D01*
X407277Y42336D01*
X407322Y42387D01*
X407369Y42440D01*
X407369Y42441D01*
X407378Y42503D01*
X407390Y42579D01*
X407389Y42579D01*
X407390Y42579D01*
X407368Y42651D01*
X407213Y42983D01*
X407208Y42988D01*
X407207Y42996D01*
X407162Y43055D01*
X405754Y44437D01*
X405737Y44446D01*
X405726Y44461D01*
X405660Y44495D01*
X404762Y44801D01*
X404762Y45280D01*
X404760Y45286D01*
X404761Y45301D01*
X404705Y45955D01*
X404701Y45965D01*
X404697Y46000D01*
X404522Y46633D01*
X404517Y46642D01*
X404502Y46684D01*
X404193Y47263D01*
X404187Y47269D01*
X404158Y47313D01*
X403717Y47798D01*
X403710Y47803D01*
X403671Y47838D01*
X403126Y48203D01*
X403116Y48206D01*
X403078Y48227D01*
X402468Y48468D01*
X402457Y48469D01*
X402426Y48480D01*
X401782Y48611D01*
X401773Y48610D01*
X401749Y48616D01*
X401093Y48658D01*
X401086Y48657D01*
X401068Y48659D01*
X400411Y48636D01*
X400409Y48635D01*
X400403Y48635D01*
X399747Y48590D01*
X399730Y48584D01*
X399712Y48585D01*
X399665Y48560D01*
X399616Y48542D01*
X399605Y48528D01*
X399589Y48519D01*
X399544Y48459D01*
X399311Y48023D01*
X399306Y47999D01*
X399292Y47979D01*
X399281Y47905D01*
X399281Y46591D01*
X399293Y46551D01*
X399295Y46510D01*
X399318Y46465D01*
X399320Y46456D01*
X399324Y46453D01*
X399329Y46444D01*
X399593Y46080D01*
X399606Y46070D01*
X399613Y46056D01*
X399661Y46028D01*
X399704Y45995D01*
X399720Y45993D01*
X399734Y45985D01*
X399808Y45978D01*
X400444Y46010D01*
X400990Y45949D01*
X401326Y45626D01*
X401410Y45084D01*
X401405Y44700D01*
X399691Y44688D01*
X399675Y44683D01*
X399659Y44686D01*
X399609Y44663D01*
X399557Y44648D01*
X399546Y44635D01*
X399531Y44629D01*
X399501Y44583D01*
X399466Y44542D01*
X399463Y44526D01*
X399454Y44512D01*
X399443Y44439D01*
X399443Y43124D01*
X399446Y43115D01*
X399445Y43090D01*
X399524Y42511D01*
X399557Y42435D01*
X399580Y42383D01*
X399650Y42337D01*
X399697Y42306D01*
X399771Y42295D01*
X401068Y42295D01*
X401411Y42245D01*
X401411Y34571D01*
X401411Y34569D01*
X401416Y34537D01*
X401415Y34531D01*
X401418Y34525D01*
X401421Y34498D01*
X401574Y33994D01*
X401602Y33951D01*
X401623Y33905D01*
X401640Y33894D01*
X401651Y33877D01*
X401697Y33856D01*
X401739Y33828D01*
X401769Y33823D01*
X401778Y33819D01*
X401788Y33821D01*
X401813Y33817D01*
X404443Y33817D01*
X404445Y33817D01*
G37*
G36*
X436556Y19388D02*
X436556Y19388D01*
X436564Y19383D01*
X437264Y19583D01*
X437279Y19603D01*
X437292Y19605D01*
X437592Y20105D01*
X437590Y20123D01*
X437599Y20130D01*
X437599Y28330D01*
X437588Y28345D01*
X437592Y28355D01*
X437292Y28855D01*
X437268Y28865D01*
X437264Y28877D01*
X436564Y29077D01*
X436554Y29074D01*
X436550Y29079D01*
X433850Y29079D01*
X433846Y29076D01*
X433843Y29079D01*
X433143Y28979D01*
X433142Y28978D01*
X433142Y28979D01*
X432542Y28879D01*
X432535Y28871D01*
X432528Y28874D01*
X431928Y28574D01*
X431926Y28570D01*
X431923Y28571D01*
X431323Y28171D01*
X431303Y28115D01*
X431316Y28110D01*
X431313Y28097D01*
X431335Y28072D01*
X431327Y28074D01*
X431326Y28067D01*
X431319Y28068D01*
X430819Y27668D01*
X430817Y27658D01*
X430809Y27657D01*
X430409Y27057D01*
X430410Y27048D01*
X430403Y27046D01*
X430203Y26446D01*
X430205Y26440D01*
X430204Y26438D01*
X430201Y26437D01*
X430101Y25737D01*
X430104Y25732D01*
X430101Y25730D01*
X430101Y25030D01*
X430107Y25022D01*
X430103Y25016D01*
X430303Y24316D01*
X430308Y24312D01*
X430306Y24308D01*
X430606Y23708D01*
X430613Y23705D01*
X430612Y23699D01*
X430997Y23217D01*
X430903Y22744D01*
X430406Y21453D01*
X430209Y21157D01*
X430210Y21146D01*
X430203Y21144D01*
X430195Y21118D01*
X430181Y21069D01*
X430139Y20921D01*
X430097Y20773D01*
X430083Y20724D01*
X430041Y20576D01*
X430003Y20444D01*
X430013Y20417D01*
X430008Y20405D01*
X430308Y19905D01*
X430324Y19898D01*
X430326Y19887D01*
X431026Y19487D01*
X431038Y19489D01*
X431042Y19481D01*
X431642Y19381D01*
X431663Y19393D01*
X431675Y19388D01*
X432175Y19688D01*
X432183Y19707D01*
X432184Y19708D01*
X432195Y19710D01*
X432894Y21307D01*
X433377Y22081D01*
X434741Y22081D01*
X435201Y21897D01*
X435201Y20530D01*
X435204Y20525D01*
X435201Y20522D01*
X435301Y19922D01*
X435317Y19907D01*
X435315Y19895D01*
X435715Y19495D01*
X435738Y19492D01*
X435744Y19481D01*
X436544Y19381D01*
X436556Y19388D01*
G37*
G36*
X376221Y169029D02*
X376221Y169029D01*
X376228Y169024D01*
X376728Y169224D01*
X376743Y169248D01*
X376746Y169251D01*
X376757Y169254D01*
X376957Y169854D01*
X376953Y169865D01*
X376959Y169870D01*
X376959Y173270D01*
X376956Y173274D01*
X376959Y173277D01*
X376859Y173977D01*
X376851Y173985D01*
X376854Y173992D01*
X376554Y174592D01*
X376550Y174594D01*
X376551Y174597D01*
X376151Y175197D01*
X376144Y175200D01*
X376145Y175205D01*
X375645Y175705D01*
X375641Y175705D01*
X375641Y175708D01*
X375141Y176108D01*
X375133Y176109D01*
X375132Y176114D01*
X374332Y176514D01*
X374316Y176511D01*
X374310Y176519D01*
X373610Y176519D01*
X373606Y176516D01*
X373603Y176519D01*
X372903Y176419D01*
X372902Y176418D01*
X372902Y176419D01*
X372302Y176319D01*
X372296Y176312D01*
X372291Y176315D01*
X371591Y176015D01*
X371586Y176007D01*
X371579Y176008D01*
X371079Y175608D01*
X371077Y175598D01*
X371069Y175597D01*
X370269Y174397D01*
X370270Y174388D01*
X370263Y174386D01*
X370063Y173786D01*
X370065Y173780D01*
X370061Y173778D01*
X369961Y173178D01*
X369964Y173173D01*
X369961Y173170D01*
X369961Y171782D01*
X369780Y171419D01*
X368410Y171419D01*
X368405Y171416D01*
X368402Y171419D01*
X367802Y171319D01*
X367787Y171303D01*
X367775Y171305D01*
X367375Y170905D01*
X367372Y170878D01*
X367361Y170870D01*
X367361Y169970D01*
X367367Y169962D01*
X367363Y169956D01*
X367563Y169256D01*
X367585Y169239D01*
X367588Y169226D01*
X367988Y169026D01*
X368004Y169029D01*
X368010Y169021D01*
X376210Y169021D01*
X376221Y169029D01*
G37*
G36*
X304307Y112961D02*
X304307Y112961D01*
X304318Y112954D01*
X304818Y113154D01*
X304824Y113164D01*
X304832Y113162D01*
X305432Y113662D01*
X305435Y113676D01*
X305436Y113681D01*
X305447Y113684D01*
X305647Y114284D01*
X305638Y114310D01*
X305644Y114322D01*
X305344Y114922D01*
X305335Y114927D01*
X305336Y114934D01*
X302567Y117900D01*
X304836Y120366D01*
X305335Y120865D01*
X305336Y120877D01*
X305344Y120878D01*
X305644Y121478D01*
X305639Y121507D01*
X305646Y121518D01*
X305446Y122018D01*
X305434Y122026D01*
X305435Y122035D01*
X304835Y122635D01*
X304821Y122637D01*
X304818Y122646D01*
X304318Y122846D01*
X304295Y122839D01*
X304284Y122847D01*
X303684Y122647D01*
X303674Y122632D01*
X303663Y122632D01*
X300998Y119572D01*
X300636Y119933D01*
X298837Y122032D01*
X298338Y122632D01*
X298321Y122635D01*
X298318Y122646D01*
X297818Y122846D01*
X297795Y122839D01*
X297784Y122847D01*
X297184Y122647D01*
X297177Y122636D01*
X297168Y122638D01*
X296568Y122138D01*
X296565Y122121D01*
X296554Y122118D01*
X296354Y121618D01*
X296361Y121595D01*
X296353Y121584D01*
X296553Y120984D01*
X296564Y120977D01*
X296562Y120968D01*
X297062Y120368D01*
X297064Y120368D01*
X297064Y120367D01*
X299335Y117898D01*
X298962Y117432D01*
X296664Y114933D01*
X296663Y114923D01*
X296656Y114922D01*
X296356Y114322D01*
X296360Y114300D01*
X296352Y114290D01*
X296452Y113790D01*
X296467Y113777D01*
X296465Y113765D01*
X297065Y113165D01*
X297081Y113163D01*
X297084Y113153D01*
X297684Y112953D01*
X297707Y112961D01*
X297718Y112954D01*
X298218Y113154D01*
X298224Y113164D01*
X298232Y113162D01*
X298832Y113662D01*
X298833Y113668D01*
X298838Y113668D01*
X300999Y116222D01*
X301362Y115769D01*
X301364Y115769D01*
X301363Y115767D01*
X303162Y113768D01*
X303662Y113168D01*
X303681Y113164D01*
X303684Y113153D01*
X304284Y112953D01*
X304307Y112961D01*
G37*
G36*
X318405Y139254D02*
X318405Y139254D01*
X318408Y139251D01*
X319008Y139351D01*
X319018Y139362D01*
X319027Y139359D01*
X319627Y139759D01*
X319634Y139777D01*
X319636Y139779D01*
X319635Y139781D01*
X319647Y139784D01*
X319847Y140384D01*
X319840Y140404D01*
X319847Y140414D01*
X319647Y141114D01*
X319638Y141121D01*
X319640Y141129D01*
X315783Y146470D01*
X316106Y146551D01*
X318800Y146551D01*
X318804Y146554D01*
X318807Y146551D01*
X319507Y146651D01*
X319525Y146670D01*
X319538Y146669D01*
X319938Y147169D01*
X319939Y147188D01*
X319949Y147193D01*
X320049Y147893D01*
X320041Y147907D01*
X320047Y147916D01*
X319847Y148516D01*
X319827Y148529D01*
X319825Y148542D01*
X319325Y148842D01*
X319307Y148840D01*
X319300Y148849D01*
X313100Y148849D01*
X313085Y148838D01*
X313075Y148842D01*
X312575Y148542D01*
X312567Y148524D01*
X312556Y148522D01*
X312256Y147922D01*
X312260Y147902D01*
X312251Y147893D01*
X312351Y147193D01*
X312363Y147181D01*
X312360Y147171D01*
X316240Y141799D01*
X316074Y141549D01*
X312700Y141549D01*
X312679Y141533D01*
X312665Y141535D01*
X312265Y141135D01*
X312262Y141108D01*
X312251Y141100D01*
X312251Y140200D01*
X312254Y140195D01*
X312251Y140192D01*
X312351Y139592D01*
X312376Y139569D01*
X312378Y139556D01*
X312978Y139256D01*
X312994Y139259D01*
X313000Y139251D01*
X318400Y139251D01*
X318405Y139254D01*
G37*
G36*
X411360Y19482D02*
X411360Y19482D01*
X411371Y19495D01*
X411382Y19492D01*
X411982Y19992D01*
X411983Y19999D01*
X411988Y19998D01*
X414522Y23020D01*
X414601Y22625D01*
X414601Y20530D01*
X414604Y20525D01*
X414601Y20522D01*
X414701Y19922D01*
X414720Y19904D01*
X414720Y19891D01*
X415120Y19591D01*
X415139Y19591D01*
X415145Y19581D01*
X416045Y19481D01*
X416058Y19489D01*
X416066Y19483D01*
X416666Y19683D01*
X416677Y19700D01*
X416689Y19700D01*
X416989Y20100D01*
X416989Y20106D01*
X416990Y20106D01*
X416989Y20106D01*
X416989Y20122D01*
X416999Y20130D01*
X416999Y28330D01*
X416991Y28341D01*
X416996Y28348D01*
X416796Y28848D01*
X416770Y28864D01*
X416766Y28877D01*
X416166Y29077D01*
X416155Y29073D01*
X416150Y29079D01*
X415250Y29079D01*
X415235Y29068D01*
X415225Y29072D01*
X414725Y28772D01*
X414716Y28752D01*
X414713Y28744D01*
X414701Y28737D01*
X414601Y28037D01*
X414604Y28032D01*
X414601Y28030D01*
X414601Y26034D01*
X414519Y25545D01*
X413188Y27161D01*
X413187Y27162D01*
X411987Y28562D01*
X411981Y28563D01*
X411982Y28568D01*
X411382Y29068D01*
X411370Y29068D01*
X411368Y29076D01*
X410868Y29276D01*
X410837Y29267D01*
X410825Y29272D01*
X410325Y28972D01*
X410321Y28964D01*
X410315Y28965D01*
X409715Y28365D01*
X409712Y28345D01*
X409702Y28340D01*
X409602Y27840D01*
X409613Y27815D01*
X409609Y27803D01*
X410009Y27203D01*
X410011Y27202D01*
X410011Y27200D01*
X410311Y26800D01*
X410316Y26799D01*
X410315Y26795D01*
X411214Y25896D01*
X412314Y24697D01*
X412319Y24696D01*
X412319Y24692D01*
X412778Y24325D01*
X411214Y22664D01*
X410015Y21465D01*
X410014Y21458D01*
X410009Y21457D01*
X409609Y20857D01*
X409611Y20830D01*
X409602Y20820D01*
X409702Y20320D01*
X409715Y20309D01*
X409712Y20298D01*
X410212Y19698D01*
X410226Y19695D01*
X410228Y19686D01*
X410828Y19386D01*
X410850Y19390D01*
X410860Y19382D01*
X411360Y19482D01*
G37*
G36*
X378308Y2357D02*
X378308Y2357D01*
X378314Y2353D01*
X379014Y2553D01*
X379033Y2578D01*
X379046Y2582D01*
X379246Y3082D01*
X379242Y3095D01*
X379249Y3100D01*
X379249Y11500D01*
X379235Y11518D01*
X379238Y11531D01*
X378838Y12031D01*
X378818Y12036D01*
X378814Y12047D01*
X378114Y12247D01*
X378100Y12242D01*
X378093Y12249D01*
X377393Y12149D01*
X377375Y12130D01*
X377362Y12131D01*
X376986Y11662D01*
X376022Y12144D01*
X376011Y12142D01*
X376007Y12149D01*
X375307Y12249D01*
X375297Y12243D01*
X375292Y12249D01*
X374692Y12149D01*
X374683Y12139D01*
X374675Y12142D01*
X374175Y11842D01*
X374173Y11837D01*
X374168Y11838D01*
X373568Y11338D01*
X373568Y11334D01*
X373565Y11335D01*
X373065Y10835D01*
X373064Y10823D01*
X373056Y10822D01*
X372756Y10222D01*
X372757Y10217D01*
X372753Y10216D01*
X372553Y9616D01*
X372555Y9609D01*
X372551Y9607D01*
X372451Y8907D01*
X372454Y8902D01*
X372451Y8900D01*
X372451Y8200D01*
X372458Y8191D01*
X372453Y8184D01*
X372653Y7584D01*
X372658Y7581D01*
X372656Y7578D01*
X372956Y6978D01*
X372963Y6975D01*
X372962Y6969D01*
X373362Y6469D01*
X373369Y6467D01*
X373368Y6462D01*
X373968Y5962D01*
X373977Y5962D01*
X373978Y5956D01*
X374578Y5656D01*
X374583Y5657D01*
X374584Y5653D01*
X375184Y5453D01*
X375190Y5455D01*
X375192Y5454D01*
X375205Y5454D01*
X375207Y5451D01*
X375907Y5551D01*
X375912Y5556D01*
X375916Y5553D01*
X376516Y5753D01*
X376522Y5763D01*
X376530Y5761D01*
X376851Y6002D01*
X376851Y3300D01*
X376858Y3291D01*
X376853Y3284D01*
X377053Y2684D01*
X377073Y2671D01*
X377075Y2658D01*
X377575Y2358D01*
X377593Y2360D01*
X377600Y2351D01*
X378300Y2351D01*
X378308Y2357D01*
G37*
G36*
X424312Y33824D02*
X424312Y33824D01*
X424329Y33822D01*
X424379Y33844D01*
X424430Y33859D01*
X424442Y33872D01*
X424457Y33878D01*
X424487Y33923D01*
X424522Y33964D01*
X424525Y33981D01*
X424534Y33995D01*
X424545Y34069D01*
X424553Y43970D01*
X424547Y43987D01*
X424550Y44006D01*
X424529Y44051D01*
X424519Y44094D01*
X424515Y44097D01*
X424513Y44104D01*
X424499Y44116D01*
X424492Y44133D01*
X424449Y44161D01*
X424417Y44191D01*
X424412Y44192D01*
X424408Y44196D01*
X424397Y44198D01*
X424386Y44201D01*
X424374Y44209D01*
X424364Y44209D01*
X424347Y44215D01*
X421746Y44679D01*
X421733Y44678D01*
X421720Y44682D01*
X421664Y44670D01*
X421607Y44664D01*
X421596Y44656D01*
X421583Y44653D01*
X421543Y44613D01*
X421498Y44577D01*
X421493Y44564D01*
X421484Y44555D01*
X421458Y44485D01*
X421347Y43957D01*
X421348Y43946D01*
X421342Y43906D01*
X421342Y43372D01*
X421093Y43698D01*
X421091Y43700D01*
X421090Y43701D01*
X421083Y43706D01*
X421062Y43731D01*
X420574Y44175D01*
X420565Y44180D01*
X420539Y44202D01*
X419980Y44552D01*
X419970Y44555D01*
X419941Y44572D01*
X419329Y44818D01*
X419318Y44819D01*
X419285Y44831D01*
X418638Y44961D01*
X418628Y44960D01*
X418586Y44966D01*
X417928Y44958D01*
X417924Y44957D01*
X417920Y44958D01*
X417857Y44936D01*
X417794Y44917D01*
X417791Y44914D01*
X417788Y44913D01*
X417734Y44861D01*
X417416Y44453D01*
X417400Y44411D01*
X417390Y44396D01*
X417387Y44393D01*
X417387Y44391D01*
X417375Y44374D01*
X417369Y44333D01*
X417365Y44323D01*
X417367Y44316D01*
X417364Y44300D01*
X417364Y42318D01*
X417383Y42253D01*
X417401Y42188D01*
X417403Y42186D01*
X417403Y42184D01*
X417406Y42182D01*
X417449Y42131D01*
X417771Y41849D01*
X417826Y41824D01*
X417831Y41821D01*
X417852Y41807D01*
X417857Y41806D01*
X417878Y41794D01*
X417892Y41793D01*
X417898Y41790D01*
X417908Y41792D01*
X417952Y41788D01*
X418594Y41833D01*
X419209Y41789D01*
X419787Y41627D01*
X420290Y41325D01*
X420683Y40888D01*
X420954Y40352D01*
X421115Y39758D01*
X421190Y39135D01*
X421202Y34526D01*
X421206Y34511D01*
X421203Y34497D01*
X421223Y34425D01*
X421426Y33968D01*
X421449Y33940D01*
X421464Y33908D01*
X421493Y33888D01*
X421516Y33861D01*
X421551Y33850D01*
X421580Y33831D01*
X421646Y33821D01*
X421650Y33819D01*
X421651Y33820D01*
X421654Y33819D01*
X424296Y33819D01*
X424312Y33824D01*
G37*
G36*
X373528Y187235D02*
X373528Y187235D01*
X373541Y187232D01*
X374041Y187632D01*
X374045Y187647D01*
X374047Y187649D01*
X374055Y187651D01*
X374355Y188351D01*
X374352Y188364D01*
X374359Y188370D01*
X374359Y189070D01*
X374340Y189095D01*
X374341Y189108D01*
X373841Y189508D01*
X373829Y189509D01*
X373826Y189516D01*
X372129Y190115D01*
X371634Y190363D01*
X373427Y191024D01*
X373431Y191030D01*
X373435Y191028D01*
X373935Y191328D01*
X373942Y191344D01*
X373953Y191346D01*
X374353Y192046D01*
X374350Y192069D01*
X374359Y192078D01*
X374259Y192678D01*
X374243Y192693D01*
X374245Y192705D01*
X373745Y193205D01*
X373733Y193206D01*
X373732Y193214D01*
X372932Y193614D01*
X372926Y193613D01*
X372924Y193617D01*
X371645Y194011D01*
X371579Y194143D01*
X373427Y194824D01*
X373429Y194827D01*
X373432Y194826D01*
X374032Y195126D01*
X374041Y195143D01*
X374052Y195145D01*
X374352Y195645D01*
X374350Y195668D01*
X374359Y195677D01*
X374259Y196377D01*
X374248Y196388D01*
X374251Y196397D01*
X373851Y196997D01*
X373831Y197004D01*
X373828Y197016D01*
X373328Y197216D01*
X373316Y197212D01*
X373312Y197219D01*
X373307Y197219D01*
X373301Y197214D01*
X373296Y197217D01*
X372596Y197017D01*
X372594Y197014D01*
X372591Y197015D01*
X371391Y196515D01*
X368191Y195216D01*
X368186Y195207D01*
X368179Y195208D01*
X367679Y194808D01*
X367676Y194796D01*
X367668Y194795D01*
X367368Y194295D01*
X367369Y194281D01*
X367364Y194277D01*
X367368Y194270D01*
X367361Y194263D01*
X367461Y193563D01*
X367480Y193545D01*
X367479Y193532D01*
X367979Y193132D01*
X367989Y193131D01*
X367990Y193125D01*
X369589Y192425D01*
X370084Y192178D01*
X368194Y191517D01*
X368190Y191510D01*
X368185Y191512D01*
X367685Y191212D01*
X367677Y191194D01*
X367666Y191192D01*
X367366Y190592D01*
X367367Y190586D01*
X367363Y190583D01*
X367369Y190574D01*
X367370Y190572D01*
X367361Y190563D01*
X367461Y189863D01*
X367480Y189845D01*
X367479Y189832D01*
X367979Y189432D01*
X367989Y189431D01*
X367991Y189425D01*
X372991Y187325D01*
X372998Y187326D01*
X373000Y187322D01*
X373500Y187222D01*
X373528Y187235D01*
G37*
G36*
X166509Y158258D02*
X166509Y158258D01*
X166516Y158253D01*
X167116Y158453D01*
X167121Y158461D01*
X167127Y158459D01*
X168327Y159259D01*
X168330Y159266D01*
X168335Y159265D01*
X168735Y159665D01*
X168737Y159678D01*
X168745Y159681D01*
X169045Y160381D01*
X169040Y160401D01*
X169043Y160404D01*
X169044Y160404D01*
X169044Y160405D01*
X169048Y160410D01*
X168948Y160910D01*
X168935Y160921D01*
X168938Y160932D01*
X168438Y161532D01*
X168413Y161537D01*
X168407Y161549D01*
X167707Y161649D01*
X167703Y161647D01*
X167702Y161649D01*
X167699Y161649D01*
X167689Y161641D01*
X167682Y161646D01*
X167182Y161446D01*
X167176Y161436D01*
X167168Y161438D01*
X166570Y160939D01*
X165982Y160547D01*
X165308Y160451D01*
X164735Y160738D01*
X164454Y161206D01*
X164640Y161765D01*
X165215Y162053D01*
X165808Y162151D01*
X165811Y162155D01*
X165814Y162153D01*
X166514Y162353D01*
X166518Y162358D01*
X166522Y162356D01*
X167722Y162956D01*
X167725Y162963D01*
X167731Y162962D01*
X168231Y163362D01*
X168233Y163369D01*
X168238Y163369D01*
X168638Y163869D01*
X168639Y163883D01*
X168647Y163886D01*
X168680Y164000D01*
X168694Y164049D01*
X168736Y164197D01*
X168778Y164344D01*
X168792Y164394D01*
X168834Y164541D01*
X168835Y164541D01*
X168834Y164541D01*
X168847Y164586D01*
X168846Y164589D01*
X168848Y164591D01*
X168847Y164592D01*
X168849Y164593D01*
X168949Y165293D01*
X168943Y165303D01*
X168949Y165308D01*
X168849Y165908D01*
X168844Y165912D01*
X168847Y165916D01*
X168647Y166516D01*
X168639Y166521D01*
X168641Y166527D01*
X168241Y167127D01*
X168231Y167131D01*
X168231Y167138D01*
X167731Y167538D01*
X167723Y167539D01*
X167722Y167544D01*
X167122Y167844D01*
X167117Y167843D01*
X167116Y167847D01*
X166516Y168047D01*
X166509Y168044D01*
X166506Y168049D01*
X165706Y168149D01*
X165698Y168144D01*
X165693Y168149D01*
X164993Y168049D01*
X164992Y168048D01*
X164992Y168049D01*
X164392Y167949D01*
X164389Y167945D01*
X164386Y167947D01*
X163686Y167747D01*
X163678Y167736D01*
X163669Y167738D01*
X163169Y167338D01*
X163168Y167334D01*
X163165Y167335D01*
X162665Y166835D01*
X162662Y166808D01*
X162651Y166800D01*
X162651Y166300D01*
X162664Y166283D01*
X162660Y166271D01*
X163160Y165571D01*
X163174Y165567D01*
X163175Y165558D01*
X163675Y165258D01*
X163693Y165260D01*
X163700Y165251D01*
X164300Y165251D01*
X164319Y165265D01*
X164332Y165262D01*
X164924Y165756D01*
X165505Y165950D01*
X166174Y165854D01*
X166545Y165390D01*
X166359Y164832D01*
X165780Y164446D01*
X164489Y164148D01*
X164488Y164146D01*
X164486Y164147D01*
X163786Y163947D01*
X163782Y163942D01*
X163778Y163944D01*
X163178Y163644D01*
X163175Y163637D01*
X163169Y163638D01*
X162669Y163238D01*
X162666Y163226D01*
X162658Y163225D01*
X162358Y162725D01*
X162359Y162717D01*
X162353Y162716D01*
X162153Y162116D01*
X162156Y162109D01*
X162151Y162106D01*
X162051Y161306D01*
X162056Y161298D01*
X162051Y161293D01*
X162151Y160593D01*
X162156Y160588D01*
X162153Y160584D01*
X162353Y159984D01*
X162361Y159979D01*
X162359Y159973D01*
X162759Y159373D01*
X162766Y159370D01*
X162765Y159365D01*
X163165Y158965D01*
X163177Y158964D01*
X163178Y158956D01*
X164378Y158356D01*
X164389Y158358D01*
X164393Y158351D01*
X165093Y158251D01*
X165098Y158254D01*
X165100Y158251D01*
X166500Y158251D01*
X166509Y158258D01*
G37*
G36*
X424208Y5257D02*
X424208Y5257D01*
X424214Y5253D01*
X424914Y5453D01*
X424920Y5462D01*
X424927Y5459D01*
X425527Y5859D01*
X425528Y5862D01*
X425531Y5862D01*
X426031Y6262D01*
X426032Y6266D01*
X426035Y6265D01*
X426435Y6665D01*
X426436Y6675D01*
X426443Y6676D01*
X426843Y7376D01*
X426840Y7400D01*
X426843Y7404D01*
X426844Y7404D01*
X426844Y7405D01*
X426848Y7410D01*
X426748Y7910D01*
X426733Y7923D01*
X426735Y7935D01*
X426135Y8535D01*
X426114Y8538D01*
X426108Y8549D01*
X425508Y8649D01*
X425504Y8646D01*
X425502Y8649D01*
X425499Y8649D01*
X425489Y8641D01*
X425482Y8646D01*
X424982Y8446D01*
X424976Y8436D01*
X424968Y8438D01*
X424370Y7939D01*
X423782Y7547D01*
X423108Y7451D01*
X422535Y7738D01*
X422252Y8210D01*
X422344Y8767D01*
X422915Y9052D01*
X423607Y9151D01*
X423612Y9156D01*
X423616Y9153D01*
X424216Y9353D01*
X424217Y9356D01*
X424219Y9355D01*
X424919Y9655D01*
X424921Y9657D01*
X424922Y9656D01*
X425522Y9956D01*
X425525Y9963D01*
X425531Y9962D01*
X426031Y10362D01*
X426033Y10369D01*
X426038Y10369D01*
X426438Y10869D01*
X426439Y10883D01*
X426447Y10886D01*
X426480Y11000D01*
X426494Y11049D01*
X426536Y11197D01*
X426578Y11344D01*
X426592Y11394D01*
X426634Y11541D01*
X426635Y11541D01*
X426634Y11541D01*
X426647Y11586D01*
X426646Y11590D01*
X426647Y11591D01*
X426644Y11595D01*
X426644Y11596D01*
X426649Y11600D01*
X426649Y12900D01*
X426640Y12913D01*
X426644Y12922D01*
X426344Y13522D01*
X426340Y13524D01*
X426341Y13527D01*
X425941Y14127D01*
X425931Y14131D01*
X425931Y14138D01*
X425431Y14538D01*
X425426Y14539D01*
X425425Y14542D01*
X424925Y14842D01*
X424916Y14841D01*
X424914Y14847D01*
X424214Y15047D01*
X424209Y15046D01*
X424207Y15049D01*
X423507Y15149D01*
X423498Y15144D01*
X423493Y15149D01*
X422793Y15049D01*
X422792Y15048D01*
X422792Y15049D01*
X422192Y14949D01*
X422190Y14946D01*
X422188Y14948D01*
X421388Y14748D01*
X421376Y14733D01*
X421365Y14735D01*
X420465Y13835D01*
X420462Y13808D01*
X420451Y13800D01*
X420451Y13300D01*
X420462Y13286D01*
X420457Y13276D01*
X420857Y12576D01*
X420876Y12568D01*
X420878Y12556D01*
X421478Y12256D01*
X421494Y12259D01*
X421500Y12251D01*
X422000Y12251D01*
X422019Y12265D01*
X422032Y12262D01*
X422624Y12756D01*
X423205Y12950D01*
X423874Y12854D01*
X424248Y12386D01*
X424155Y11829D01*
X423580Y11446D01*
X422289Y11148D01*
X422288Y11146D01*
X422286Y11147D01*
X421586Y10947D01*
X421582Y10942D01*
X421578Y10944D01*
X420978Y10644D01*
X420975Y10637D01*
X420969Y10638D01*
X420469Y10238D01*
X420467Y10231D01*
X420462Y10231D01*
X420062Y9731D01*
X420061Y9718D01*
X420053Y9716D01*
X419853Y9116D01*
X419856Y9108D01*
X419853Y9106D01*
X419855Y9103D01*
X419851Y9100D01*
X419851Y7600D01*
X419860Y7587D01*
X419856Y7578D01*
X420456Y6378D01*
X420469Y6371D01*
X420469Y6362D01*
X420969Y5962D01*
X420977Y5961D01*
X420978Y5956D01*
X422178Y5356D01*
X422189Y5358D01*
X422193Y5351D01*
X422893Y5251D01*
X422898Y5254D01*
X422900Y5251D01*
X424200Y5251D01*
X424208Y5257D01*
G37*
G36*
X403855Y19481D02*
X403855Y19481D01*
X403876Y19500D01*
X403889Y19500D01*
X404189Y19900D01*
X404189Y19907D01*
X404192Y19909D01*
X404189Y19912D01*
X404189Y19918D01*
X404199Y19923D01*
X404299Y20623D01*
X404296Y20628D01*
X404299Y20630D01*
X404299Y27430D01*
X404296Y27434D01*
X404299Y27437D01*
X404199Y28137D01*
X404194Y28142D01*
X404197Y28146D01*
X403997Y28746D01*
X403972Y28763D01*
X403968Y28776D01*
X403468Y28976D01*
X403455Y28972D01*
X403450Y28979D01*
X397950Y28979D01*
X397946Y28976D01*
X397943Y28979D01*
X397243Y28879D01*
X397225Y28860D01*
X397212Y28861D01*
X396812Y28361D01*
X396811Y28342D01*
X396801Y28337D01*
X396701Y27637D01*
X396709Y27623D01*
X396703Y27614D01*
X396903Y27014D01*
X396920Y27003D01*
X396919Y26992D01*
X397419Y26592D01*
X397442Y26591D01*
X397450Y26581D01*
X401534Y26581D01*
X401901Y26305D01*
X401901Y25655D01*
X401534Y25379D01*
X398850Y25379D01*
X398829Y25363D01*
X398815Y25365D01*
X398415Y24965D01*
X398413Y24947D01*
X398403Y24944D01*
X398379Y24861D01*
X398337Y24713D01*
X398323Y24664D01*
X398281Y24516D01*
X398238Y24368D01*
X398224Y24319D01*
X398203Y24244D01*
X398208Y24230D01*
X398201Y24224D01*
X398301Y23424D01*
X398317Y23408D01*
X398315Y23395D01*
X398715Y22995D01*
X398737Y22992D01*
X398743Y22981D01*
X399443Y22881D01*
X399448Y22884D01*
X399450Y22881D01*
X401441Y22881D01*
X401901Y22697D01*
X401901Y20030D01*
X401912Y20015D01*
X401908Y20005D01*
X402208Y19505D01*
X402236Y19493D01*
X402243Y19481D01*
X402943Y19381D01*
X402951Y19386D01*
X402955Y19381D01*
X403855Y19481D01*
G37*
G36*
X359609Y5258D02*
X359609Y5258D01*
X359616Y5253D01*
X360216Y5453D01*
X360233Y5478D01*
X360246Y5482D01*
X360418Y5912D01*
X360865Y5465D01*
X360881Y5463D01*
X360884Y5453D01*
X361484Y5253D01*
X361495Y5257D01*
X361500Y5251D01*
X362200Y5251D01*
X362204Y5254D01*
X362207Y5251D01*
X362907Y5351D01*
X362917Y5361D01*
X362925Y5358D01*
X363425Y5658D01*
X363427Y5663D01*
X363432Y5662D01*
X364032Y6162D01*
X364032Y6166D01*
X364035Y6165D01*
X364535Y6665D01*
X364536Y6677D01*
X364544Y6678D01*
X364844Y7278D01*
X364843Y7283D01*
X364847Y7284D01*
X365047Y7884D01*
X365045Y7891D01*
X365049Y7893D01*
X365149Y8593D01*
X365144Y8602D01*
X365149Y8607D01*
X365049Y9307D01*
X365048Y9308D01*
X365049Y9308D01*
X364949Y9908D01*
X364941Y9915D01*
X364944Y9922D01*
X364644Y10522D01*
X364637Y10526D01*
X364638Y10532D01*
X364138Y11132D01*
X364134Y11132D01*
X364135Y11135D01*
X363635Y11635D01*
X363623Y11636D01*
X363622Y11644D01*
X363022Y11944D01*
X363017Y11943D01*
X363016Y11947D01*
X362416Y12147D01*
X362411Y12145D01*
X362411Y12146D01*
X362403Y12146D01*
X362400Y12149D01*
X361700Y12149D01*
X361695Y12146D01*
X361690Y12146D01*
X361688Y12144D01*
X361684Y12147D01*
X361084Y11947D01*
X361077Y11936D01*
X361069Y11938D01*
X360569Y11538D01*
X360568Y11534D01*
X360565Y11535D01*
X360510Y11479D01*
X360242Y11925D01*
X360220Y11934D01*
X360216Y11947D01*
X359616Y12147D01*
X359611Y12145D01*
X359611Y12146D01*
X359603Y12146D01*
X359600Y12149D01*
X358800Y12149D01*
X358782Y12135D01*
X358769Y12138D01*
X358269Y11738D01*
X358265Y11723D01*
X358256Y11716D01*
X358259Y11712D01*
X358251Y11708D01*
X358151Y11108D01*
X358154Y11103D01*
X358151Y11100D01*
X358151Y6300D01*
X358154Y6296D01*
X358151Y6293D01*
X358251Y5593D01*
X358273Y5571D01*
X358275Y5558D01*
X358775Y5258D01*
X358793Y5260D01*
X358800Y5251D01*
X359600Y5251D01*
X359609Y5258D01*
G37*
G36*
X389459Y19388D02*
X389459Y19388D01*
X389466Y19383D01*
X390066Y19583D01*
X390083Y19608D01*
X390096Y19612D01*
X390268Y20042D01*
X390715Y19595D01*
X390731Y19593D01*
X390734Y19583D01*
X391334Y19383D01*
X391345Y19387D01*
X391350Y19381D01*
X392050Y19381D01*
X392054Y19384D01*
X392057Y19381D01*
X392757Y19481D01*
X392767Y19491D01*
X392775Y19488D01*
X393275Y19788D01*
X393277Y19793D01*
X393282Y19792D01*
X393882Y20292D01*
X393882Y20296D01*
X393885Y20295D01*
X394385Y20795D01*
X394386Y20807D01*
X394394Y20808D01*
X394694Y21408D01*
X394693Y21413D01*
X394697Y21414D01*
X394897Y22014D01*
X394895Y22021D01*
X394899Y22023D01*
X394999Y22723D01*
X394994Y22732D01*
X394999Y22737D01*
X394899Y23437D01*
X394898Y23438D01*
X394899Y23438D01*
X394799Y24038D01*
X394791Y24045D01*
X394794Y24052D01*
X394494Y24652D01*
X394487Y24656D01*
X394488Y24662D01*
X393988Y25262D01*
X393984Y25262D01*
X393985Y25265D01*
X393485Y25765D01*
X393473Y25766D01*
X393472Y25774D01*
X392872Y26074D01*
X392867Y26073D01*
X392866Y26077D01*
X392266Y26277D01*
X392261Y26275D01*
X392261Y26276D01*
X392253Y26276D01*
X392250Y26279D01*
X391550Y26279D01*
X391545Y26276D01*
X391540Y26276D01*
X391538Y26274D01*
X391534Y26277D01*
X390934Y26077D01*
X390927Y26066D01*
X390919Y26068D01*
X390419Y25668D01*
X390418Y25664D01*
X390415Y25665D01*
X390360Y25609D01*
X390092Y26055D01*
X390070Y26064D01*
X390066Y26077D01*
X389466Y26277D01*
X389461Y26275D01*
X389461Y26276D01*
X389453Y26276D01*
X389450Y26279D01*
X388650Y26279D01*
X388632Y26265D01*
X388619Y26268D01*
X388119Y25868D01*
X388115Y25853D01*
X388106Y25846D01*
X388109Y25842D01*
X388101Y25838D01*
X388001Y25238D01*
X388004Y25233D01*
X388001Y25230D01*
X388001Y20430D01*
X388004Y20426D01*
X388001Y20423D01*
X388101Y19723D01*
X388123Y19701D01*
X388125Y19688D01*
X388625Y19388D01*
X388643Y19390D01*
X388650Y19381D01*
X389450Y19381D01*
X389459Y19388D01*
G37*
G36*
X217009Y94058D02*
X217009Y94058D01*
X217016Y94053D01*
X217616Y94253D01*
X217633Y94278D01*
X217646Y94282D01*
X217818Y94712D01*
X218265Y94265D01*
X218281Y94263D01*
X218284Y94253D01*
X218884Y94053D01*
X218895Y94057D01*
X218900Y94051D01*
X219600Y94051D01*
X219605Y94054D01*
X219608Y94051D01*
X220208Y94151D01*
X220215Y94159D01*
X220222Y94156D01*
X220822Y94456D01*
X220826Y94464D01*
X220832Y94462D01*
X221432Y94962D01*
X221433Y94969D01*
X221438Y94969D01*
X221838Y95469D01*
X221839Y95473D01*
X221841Y95473D01*
X222241Y96073D01*
X222240Y96082D01*
X222247Y96084D01*
X222447Y96684D01*
X222445Y96691D01*
X222449Y96693D01*
X222549Y97393D01*
X222544Y97402D01*
X222549Y97407D01*
X222449Y98107D01*
X222448Y98108D01*
X222449Y98108D01*
X222349Y98708D01*
X222341Y98715D01*
X222344Y98722D01*
X222044Y99322D01*
X222037Y99326D01*
X222038Y99332D01*
X221538Y99932D01*
X221534Y99932D01*
X221535Y99935D01*
X221035Y100435D01*
X221023Y100436D01*
X221022Y100444D01*
X220422Y100744D01*
X220417Y100743D01*
X220416Y100747D01*
X219816Y100947D01*
X219811Y100945D01*
X219811Y100946D01*
X219803Y100946D01*
X219800Y100949D01*
X219100Y100949D01*
X219095Y100946D01*
X219090Y100946D01*
X219088Y100944D01*
X219084Y100947D01*
X218484Y100747D01*
X218479Y100739D01*
X218473Y100741D01*
X217873Y100341D01*
X217642Y100725D01*
X217618Y100735D01*
X217614Y100747D01*
X216914Y100947D01*
X216909Y100946D01*
X216903Y100946D01*
X216900Y100949D01*
X216200Y100949D01*
X216182Y100935D01*
X216169Y100938D01*
X215669Y100538D01*
X215665Y100523D01*
X215656Y100516D01*
X215659Y100512D01*
X215651Y100508D01*
X215551Y99908D01*
X215554Y99903D01*
X215551Y99900D01*
X215551Y95100D01*
X215554Y95096D01*
X215551Y95093D01*
X215651Y94393D01*
X215670Y94374D01*
X215670Y94361D01*
X216070Y94061D01*
X216092Y94061D01*
X216100Y94051D01*
X217000Y94051D01*
X217009Y94058D01*
G37*
G36*
X372533Y178238D02*
X372533Y178238D01*
X372547Y178237D01*
X373446Y179236D01*
X373945Y179735D01*
X373946Y179747D01*
X373954Y179748D01*
X374254Y180348D01*
X374253Y180355D01*
X374257Y180356D01*
X374262Y180374D01*
X374263Y180374D01*
X374262Y180374D01*
X374305Y180522D01*
X374319Y180571D01*
X374361Y180719D01*
X374403Y180867D01*
X374417Y180916D01*
X374457Y181056D01*
X374456Y181060D01*
X374459Y181062D01*
X374559Y181662D01*
X374553Y181672D01*
X374559Y181677D01*
X374359Y183077D01*
X374351Y183085D01*
X374354Y183092D01*
X374054Y183692D01*
X374047Y183695D01*
X374048Y183701D01*
X373648Y184201D01*
X373644Y184202D01*
X373645Y184205D01*
X373145Y184705D01*
X373138Y184706D01*
X373137Y184711D01*
X372537Y185111D01*
X372528Y185110D01*
X372526Y185117D01*
X371926Y185317D01*
X371919Y185315D01*
X371917Y185319D01*
X371217Y185419D01*
X371212Y185416D01*
X371210Y185419D01*
X370510Y185419D01*
X370502Y185413D01*
X370496Y185417D01*
X369796Y185217D01*
X369795Y185216D01*
X369794Y185217D01*
X369194Y185017D01*
X369189Y185009D01*
X369183Y185011D01*
X368583Y184611D01*
X368579Y184601D01*
X368572Y184601D01*
X367772Y183601D01*
X367771Y183591D01*
X367765Y183589D01*
X367465Y182889D01*
X367467Y182881D01*
X367461Y182878D01*
X367361Y182278D01*
X367364Y182274D01*
X367363Y182273D01*
X367363Y182272D01*
X367361Y182270D01*
X367361Y181570D01*
X367364Y181566D01*
X367361Y181563D01*
X367461Y180863D01*
X367466Y180858D01*
X367463Y180854D01*
X367663Y180254D01*
X367671Y180249D01*
X367669Y180243D01*
X368069Y179643D01*
X368072Y179642D01*
X368072Y179639D01*
X368472Y179139D01*
X368482Y179137D01*
X368483Y179129D01*
X369083Y178729D01*
X369087Y178729D01*
X369088Y178726D01*
X369688Y178426D01*
X369695Y178427D01*
X369696Y178423D01*
X370396Y178223D01*
X370406Y178226D01*
X370410Y178221D01*
X372510Y178221D01*
X372533Y178238D01*
G37*
G36*
X374854Y19384D02*
X374854Y19384D01*
X374857Y19381D01*
X375557Y19481D01*
X375562Y19486D01*
X375566Y19483D01*
X376166Y19683D01*
X376171Y19691D01*
X376177Y19689D01*
X376777Y20089D01*
X376781Y20099D01*
X376788Y20099D01*
X377188Y20599D01*
X377189Y20603D01*
X377191Y20603D01*
X377591Y21203D01*
X377590Y21212D01*
X377597Y21214D01*
X377797Y21814D01*
X377796Y21816D01*
X377797Y21816D01*
X377801Y21830D01*
X377815Y21879D01*
X377857Y22027D01*
X377858Y22027D01*
X377857Y22027D01*
X377900Y22175D01*
X377914Y22224D01*
X377956Y22372D01*
X377997Y22516D01*
X377996Y22519D01*
X377997Y22519D01*
X377995Y22523D01*
X377994Y22526D01*
X377999Y22530D01*
X377999Y23230D01*
X377996Y23234D01*
X377999Y23237D01*
X377899Y23937D01*
X377894Y23942D01*
X377897Y23946D01*
X377697Y24546D01*
X377689Y24551D01*
X377691Y24557D01*
X377291Y25157D01*
X377284Y25160D01*
X377285Y25165D01*
X376885Y25565D01*
X376878Y25566D01*
X376877Y25571D01*
X376277Y25971D01*
X376276Y25971D01*
X376275Y25972D01*
X375775Y26272D01*
X375766Y26271D01*
X375764Y26277D01*
X375064Y26477D01*
X375059Y26476D01*
X375057Y26479D01*
X374357Y26579D01*
X374349Y26574D01*
X374344Y26579D01*
X373544Y26479D01*
X373543Y26478D01*
X373542Y26479D01*
X372942Y26379D01*
X372935Y26371D01*
X372928Y26374D01*
X372328Y26074D01*
X372323Y26064D01*
X372315Y26065D01*
X371815Y25565D01*
X371815Y25561D01*
X371812Y25561D01*
X371412Y25061D01*
X371411Y25048D01*
X371403Y25046D01*
X371203Y24446D01*
X371205Y24439D01*
X371201Y24437D01*
X371101Y23737D01*
X371104Y23732D01*
X371101Y23730D01*
X371101Y22930D01*
X371120Y22905D01*
X371119Y22892D01*
X371619Y22492D01*
X371627Y22491D01*
X371628Y22486D01*
X372228Y22186D01*
X372239Y22188D01*
X372245Y22188D01*
X372250Y22181D01*
X374941Y22181D01*
X375370Y22009D01*
X375021Y21573D01*
X374343Y21379D01*
X373658Y21379D01*
X373066Y21577D01*
X373064Y21576D01*
X373064Y21577D01*
X372364Y21777D01*
X372337Y21767D01*
X372325Y21772D01*
X371825Y21472D01*
X371817Y21452D01*
X371805Y21449D01*
X371505Y20749D01*
X371508Y20736D01*
X371501Y20730D01*
X371501Y20230D01*
X371517Y20209D01*
X371515Y20195D01*
X371815Y19895D01*
X371824Y19894D01*
X371825Y19888D01*
X372325Y19588D01*
X372334Y19589D01*
X372336Y19583D01*
X373036Y19383D01*
X373046Y19386D01*
X373050Y19381D01*
X374850Y19381D01*
X374854Y19384D01*
G37*
G36*
X241004Y94054D02*
X241004Y94054D01*
X241007Y94051D01*
X241707Y94151D01*
X241712Y94156D01*
X241716Y94153D01*
X242316Y94353D01*
X242321Y94361D01*
X242327Y94359D01*
X242927Y94759D01*
X242931Y94769D01*
X242938Y94769D01*
X243338Y95269D01*
X243339Y95273D01*
X243341Y95273D01*
X243741Y95873D01*
X243740Y95882D01*
X243747Y95884D01*
X243947Y96484D01*
X243946Y96486D01*
X243947Y96486D01*
X243951Y96500D01*
X243965Y96549D01*
X244007Y96697D01*
X244008Y96697D01*
X244007Y96697D01*
X244050Y96845D01*
X244064Y96894D01*
X244106Y97042D01*
X244147Y97186D01*
X244146Y97189D01*
X244147Y97189D01*
X244145Y97193D01*
X244144Y97196D01*
X244149Y97200D01*
X244149Y97900D01*
X244146Y97904D01*
X244149Y97907D01*
X244049Y98607D01*
X244041Y98615D01*
X244044Y98622D01*
X243444Y99822D01*
X243434Y99827D01*
X243435Y99835D01*
X243035Y100235D01*
X243028Y100236D01*
X243027Y100241D01*
X242427Y100641D01*
X242423Y100641D01*
X242422Y100644D01*
X241822Y100944D01*
X241817Y100943D01*
X241816Y100947D01*
X241216Y101147D01*
X241209Y101145D01*
X241207Y101149D01*
X240507Y101249D01*
X240499Y101244D01*
X240494Y101249D01*
X239694Y101149D01*
X239693Y101148D01*
X239692Y101149D01*
X239092Y101049D01*
X239085Y101041D01*
X239078Y101044D01*
X238478Y100744D01*
X238473Y100734D01*
X238465Y100735D01*
X237965Y100235D01*
X237965Y100231D01*
X237962Y100231D01*
X237562Y99731D01*
X237561Y99718D01*
X237553Y99716D01*
X237353Y99116D01*
X237355Y99109D01*
X237351Y99107D01*
X237251Y98407D01*
X237254Y98402D01*
X237251Y98400D01*
X237251Y97600D01*
X237270Y97575D01*
X237269Y97562D01*
X237769Y97162D01*
X237777Y97161D01*
X237778Y97156D01*
X238378Y96856D01*
X238389Y96858D01*
X238395Y96858D01*
X238400Y96851D01*
X241091Y96851D01*
X241520Y96679D01*
X241171Y96243D01*
X240493Y96049D01*
X239808Y96049D01*
X239216Y96247D01*
X239214Y96246D01*
X239214Y96247D01*
X238514Y96447D01*
X238487Y96437D01*
X238475Y96442D01*
X237975Y96142D01*
X237967Y96122D01*
X237955Y96119D01*
X237655Y95419D01*
X237658Y95406D01*
X237651Y95400D01*
X237651Y94900D01*
X237667Y94879D01*
X237665Y94865D01*
X237965Y94565D01*
X237974Y94564D01*
X237975Y94558D01*
X238475Y94258D01*
X238484Y94259D01*
X238486Y94253D01*
X239186Y94053D01*
X239196Y94056D01*
X239200Y94051D01*
X241000Y94051D01*
X241004Y94054D01*
G37*
G36*
X371214Y199324D02*
X371214Y199324D01*
X371217Y199321D01*
X371917Y199421D01*
X371922Y199426D01*
X371926Y199423D01*
X372526Y199623D01*
X372529Y199628D01*
X372532Y199626D01*
X373132Y199926D01*
X373139Y199939D01*
X373148Y199939D01*
X373948Y200939D01*
X373949Y200947D01*
X373954Y200948D01*
X374254Y201548D01*
X374253Y201553D01*
X374257Y201554D01*
X374457Y202154D01*
X374455Y202161D01*
X374459Y202163D01*
X374559Y202863D01*
X374554Y202871D01*
X374559Y202876D01*
X374459Y203676D01*
X374458Y203677D01*
X374459Y203677D01*
X374359Y204377D01*
X374349Y204387D01*
X374352Y204395D01*
X374052Y204895D01*
X374044Y204899D01*
X374045Y204905D01*
X373545Y205405D01*
X373541Y205405D01*
X373541Y205408D01*
X373041Y205808D01*
X373033Y205809D01*
X373032Y205814D01*
X372432Y206114D01*
X372418Y206112D01*
X372414Y206117D01*
X372412Y206117D01*
X372410Y206119D01*
X370910Y206119D01*
X370885Y206100D01*
X370872Y206101D01*
X370472Y205601D01*
X370471Y205593D01*
X370466Y205592D01*
X370166Y204992D01*
X370169Y204976D01*
X370161Y204970D01*
X370161Y202279D01*
X369992Y201858D01*
X369553Y202297D01*
X369359Y202878D01*
X369359Y203661D01*
X369556Y204152D01*
X369555Y204155D01*
X369557Y204156D01*
X369565Y204183D01*
X369607Y204331D01*
X369621Y204380D01*
X369663Y204528D01*
X369664Y204528D01*
X369663Y204528D01*
X369706Y204676D01*
X369720Y204725D01*
X369757Y204856D01*
X369747Y204883D01*
X369752Y204895D01*
X369452Y205395D01*
X369436Y205402D01*
X369434Y205413D01*
X368734Y205813D01*
X368710Y205810D01*
X368700Y205818D01*
X368200Y205718D01*
X368191Y205708D01*
X368183Y205711D01*
X367883Y205511D01*
X367878Y205496D01*
X367868Y205495D01*
X367568Y204995D01*
X367569Y204985D01*
X367562Y204982D01*
X367362Y204182D01*
X367366Y204174D01*
X367361Y204170D01*
X367361Y202370D01*
X367364Y202365D01*
X367361Y202362D01*
X367461Y201762D01*
X367465Y201759D01*
X367463Y201756D01*
X367663Y201056D01*
X367674Y201048D01*
X367672Y201039D01*
X368072Y200539D01*
X368076Y200538D01*
X368075Y200535D01*
X368575Y200035D01*
X368582Y200034D01*
X368583Y200029D01*
X369183Y199629D01*
X369192Y199630D01*
X369194Y199623D01*
X369794Y199423D01*
X369801Y199425D01*
X369803Y199421D01*
X370503Y199321D01*
X370508Y199324D01*
X370510Y199321D01*
X371210Y199321D01*
X371214Y199324D01*
G37*
G36*
X354019Y2555D02*
X354019Y2555D01*
X354023Y2561D01*
X354027Y2559D01*
X354627Y2959D01*
X354636Y2983D01*
X354648Y2988D01*
X354748Y3388D01*
X354740Y3406D01*
X354747Y3416D01*
X354647Y3716D01*
X354645Y3717D01*
X354646Y3718D01*
X354446Y4218D01*
X354445Y4219D01*
X354445Y4220D01*
X353748Y5813D01*
X353651Y6589D01*
X356042Y10575D01*
X356042Y10580D01*
X356045Y10581D01*
X356345Y11281D01*
X356341Y11298D01*
X356342Y11299D01*
X356340Y11303D01*
X356339Y11307D01*
X356346Y11318D01*
X356146Y11818D01*
X356126Y11830D01*
X356124Y11843D01*
X355424Y12243D01*
X355417Y12242D01*
X355416Y12247D01*
X354816Y12447D01*
X354811Y12445D01*
X354811Y12446D01*
X354793Y12446D01*
X354786Y12440D01*
X354778Y12444D01*
X354178Y12144D01*
X354169Y12126D01*
X354157Y12124D01*
X353157Y10324D01*
X352461Y9130D01*
X352318Y8988D01*
X352146Y9418D01*
X352144Y9419D01*
X352145Y9420D01*
X351345Y11220D01*
X351343Y11221D01*
X351344Y11222D01*
X351044Y11822D01*
X351040Y11824D01*
X351041Y11827D01*
X350841Y12127D01*
X350824Y12133D01*
X350822Y12144D01*
X350222Y12444D01*
X350210Y12442D01*
X350208Y12446D01*
X350189Y12446D01*
X350188Y12445D01*
X350184Y12447D01*
X349584Y12247D01*
X349577Y12236D01*
X349568Y12238D01*
X348968Y11738D01*
X348965Y11723D01*
X348961Y11720D01*
X348954Y11718D01*
X348754Y11218D01*
X348761Y11192D01*
X348755Y11181D01*
X349055Y10481D01*
X349055Y10480D01*
X352355Y3180D01*
X352356Y3179D01*
X352356Y3178D01*
X352656Y2578D01*
X352676Y2568D01*
X352678Y2556D01*
X353278Y2256D01*
X353308Y2261D01*
X353319Y2255D01*
X354019Y2555D01*
G37*
G36*
X211419Y91355D02*
X211419Y91355D01*
X211423Y91361D01*
X211427Y91359D01*
X212027Y91759D01*
X212036Y91783D01*
X212048Y91788D01*
X212148Y92188D01*
X212140Y92206D01*
X212147Y92216D01*
X212047Y92516D01*
X212045Y92517D01*
X212046Y92518D01*
X211846Y93018D01*
X211845Y93019D01*
X211845Y93020D01*
X211148Y94613D01*
X211051Y95389D01*
X213442Y99375D01*
X213442Y99380D01*
X213445Y99381D01*
X213745Y100081D01*
X213737Y100113D01*
X213742Y100125D01*
X213442Y100625D01*
X213426Y100632D01*
X213424Y100643D01*
X212724Y101043D01*
X212717Y101042D01*
X212716Y101047D01*
X212116Y101247D01*
X212111Y101245D01*
X212111Y101246D01*
X212094Y101246D01*
X212084Y101238D01*
X212075Y101242D01*
X211575Y100942D01*
X211568Y100925D01*
X211557Y100924D01*
X210557Y99124D01*
X209861Y97930D01*
X209718Y97788D01*
X209546Y98218D01*
X209544Y98219D01*
X209545Y98220D01*
X208745Y100020D01*
X208743Y100021D01*
X208744Y100022D01*
X208444Y100622D01*
X208440Y100624D01*
X208441Y100627D01*
X208241Y100927D01*
X208224Y100933D01*
X208222Y100944D01*
X207622Y101244D01*
X207610Y101242D01*
X207608Y101246D01*
X207589Y101246D01*
X207588Y101245D01*
X207584Y101247D01*
X206984Y101047D01*
X206978Y101038D01*
X206971Y101040D01*
X206271Y100540D01*
X206266Y100523D01*
X206262Y100520D01*
X206264Y100517D01*
X206264Y100515D01*
X206252Y100510D01*
X206152Y100010D01*
X206161Y99991D01*
X206155Y99981D01*
X206455Y99281D01*
X206455Y99280D01*
X209755Y91980D01*
X209756Y91979D01*
X209756Y91978D01*
X210056Y91378D01*
X210076Y91368D01*
X210078Y91356D01*
X210678Y91056D01*
X210708Y91061D01*
X210719Y91055D01*
X211419Y91355D01*
G37*
G36*
X276908Y140357D02*
X276908Y140357D01*
X276914Y140353D01*
X277614Y140553D01*
X277633Y140578D01*
X277646Y140582D01*
X277846Y141082D01*
X277842Y141095D01*
X277849Y141100D01*
X277849Y143888D01*
X278143Y144475D01*
X280441Y147872D01*
X280441Y147873D01*
X280841Y148473D01*
X280840Y148493D01*
X280849Y148500D01*
X280849Y149100D01*
X280835Y149118D01*
X280838Y149131D01*
X280438Y149631D01*
X280426Y149634D01*
X280424Y149643D01*
X279724Y150043D01*
X279701Y150040D01*
X279692Y150049D01*
X279092Y149949D01*
X279075Y149930D01*
X279062Y149931D01*
X278662Y149431D01*
X278661Y149427D01*
X278659Y149427D01*
X276768Y146541D01*
X276520Y146459D01*
X274641Y149327D01*
X274241Y149927D01*
X274216Y149936D01*
X274210Y149948D01*
X273710Y150048D01*
X273691Y150039D01*
X273681Y150045D01*
X272981Y149745D01*
X272974Y149734D01*
X272965Y149735D01*
X272465Y149235D01*
X272462Y149215D01*
X272452Y149210D01*
X272352Y148710D01*
X272362Y148688D01*
X272357Y148676D01*
X272757Y147976D01*
X272760Y147975D01*
X272759Y147973D01*
X275353Y144082D01*
X275451Y143397D01*
X275451Y141300D01*
X275454Y141295D01*
X275451Y141292D01*
X275551Y140692D01*
X275576Y140669D01*
X275578Y140656D01*
X276178Y140356D01*
X276194Y140359D01*
X276200Y140351D01*
X276900Y140351D01*
X276908Y140357D01*
G37*
G36*
X424368Y19395D02*
X424368Y19395D01*
X424381Y19392D01*
X424881Y19792D01*
X424885Y19807D01*
X424890Y19811D01*
X424887Y19815D01*
X424887Y19816D01*
X424899Y19822D01*
X424999Y20422D01*
X424996Y20427D01*
X424999Y20430D01*
X424999Y26618D01*
X425180Y26981D01*
X427250Y26981D01*
X427254Y26984D01*
X427257Y26981D01*
X427957Y27081D01*
X427972Y27097D01*
X427985Y27095D01*
X428385Y27495D01*
X428389Y27522D01*
X428399Y27530D01*
X428399Y28230D01*
X428392Y28239D01*
X428397Y28246D01*
X428197Y28846D01*
X428162Y28869D01*
X428157Y28879D01*
X427457Y28979D01*
X427452Y28976D01*
X427450Y28979D01*
X419950Y28979D01*
X419937Y28970D01*
X419928Y28974D01*
X419328Y28674D01*
X419310Y28637D01*
X419301Y28630D01*
X419301Y27930D01*
X419304Y27925D01*
X419301Y27922D01*
X419401Y27322D01*
X419423Y27301D01*
X419425Y27288D01*
X419925Y26988D01*
X419943Y26990D01*
X419950Y26981D01*
X422047Y26981D01*
X422701Y26887D01*
X422701Y20130D01*
X422710Y20117D01*
X422706Y20108D01*
X423006Y19508D01*
X423036Y19493D01*
X423042Y19481D01*
X423642Y19381D01*
X423647Y19384D01*
X423650Y19381D01*
X424350Y19381D01*
X424368Y19395D01*
G37*
G36*
X385005Y5254D02*
X385005Y5254D01*
X385008Y5251D01*
X385608Y5351D01*
X385614Y5358D01*
X385619Y5355D01*
X386319Y5655D01*
X386321Y5657D01*
X386322Y5656D01*
X386922Y5956D01*
X386934Y5980D01*
X386947Y5984D01*
X387147Y6584D01*
X387139Y6607D01*
X387146Y6618D01*
X386946Y7118D01*
X386936Y7124D01*
X386938Y7132D01*
X386438Y7732D01*
X386408Y7738D01*
X386400Y7749D01*
X385800Y7749D01*
X385786Y7738D01*
X385776Y7743D01*
X385080Y7345D01*
X384495Y7150D01*
X383728Y7246D01*
X383577Y7474D01*
X384114Y7653D01*
X384912Y7852D01*
X384914Y7855D01*
X384916Y7853D01*
X385516Y8053D01*
X385519Y8058D01*
X385522Y8056D01*
X386122Y8356D01*
X386129Y8369D01*
X386138Y8369D01*
X386538Y8869D01*
X386539Y8878D01*
X386540Y8879D01*
X386545Y8881D01*
X386845Y9581D01*
X386843Y9589D01*
X386849Y9592D01*
X386949Y10192D01*
X386943Y10202D01*
X386949Y10207D01*
X386849Y10907D01*
X386843Y10913D01*
X386846Y10918D01*
X386646Y11418D01*
X386634Y11426D01*
X386635Y11435D01*
X386235Y11835D01*
X386226Y11836D01*
X386225Y11842D01*
X385725Y12142D01*
X385716Y12141D01*
X385714Y12147D01*
X385014Y12347D01*
X385008Y12345D01*
X385005Y12349D01*
X384105Y12449D01*
X384097Y12444D01*
X384092Y12449D01*
X383492Y12349D01*
X382793Y12249D01*
X382789Y12245D01*
X382786Y12247D01*
X382086Y12047D01*
X382074Y12030D01*
X382062Y12031D01*
X381662Y11531D01*
X381661Y11522D01*
X381657Y11519D01*
X381661Y11513D01*
X381661Y11502D01*
X381651Y11492D01*
X381751Y10892D01*
X381765Y10879D01*
X381762Y10868D01*
X382262Y10268D01*
X382292Y10262D01*
X382300Y10251D01*
X382800Y10251D01*
X382808Y10257D01*
X382814Y10253D01*
X383510Y10452D01*
X384195Y10550D01*
X384741Y10368D01*
X384659Y10041D01*
X383890Y9848D01*
X383193Y9749D01*
X383188Y9744D01*
X383184Y9747D01*
X382584Y9547D01*
X382579Y9539D01*
X382573Y9541D01*
X381973Y9141D01*
X381969Y9131D01*
X381962Y9131D01*
X381562Y8631D01*
X381561Y8620D01*
X381558Y8617D01*
X381553Y8616D01*
X381353Y8016D01*
X381357Y8005D01*
X381351Y8000D01*
X381351Y7300D01*
X381357Y7292D01*
X381353Y7286D01*
X381553Y6586D01*
X381560Y6581D01*
X381558Y6575D01*
X381858Y6075D01*
X381866Y6071D01*
X381865Y6065D01*
X382365Y5565D01*
X382381Y5563D01*
X382384Y5553D01*
X382984Y5353D01*
X382990Y5355D01*
X382992Y5351D01*
X383592Y5251D01*
X383597Y5254D01*
X383600Y5251D01*
X385000Y5251D01*
X385005Y5254D01*
G37*
G36*
X126104Y158254D02*
X126104Y158254D01*
X126107Y158251D01*
X126807Y158351D01*
X126815Y158359D01*
X126822Y158356D01*
X128022Y158956D01*
X128034Y158980D01*
X128047Y158984D01*
X128247Y159584D01*
X128239Y159607D01*
X128246Y159618D01*
X128046Y160118D01*
X128036Y160124D01*
X128038Y160132D01*
X127538Y160732D01*
X127508Y160738D01*
X127500Y160749D01*
X126900Y160749D01*
X126884Y160737D01*
X126873Y160741D01*
X126279Y160345D01*
X125597Y160150D01*
X124929Y160246D01*
X124777Y160474D01*
X125315Y160653D01*
X126014Y160853D01*
X126015Y160854D01*
X126016Y160853D01*
X126616Y161053D01*
X126619Y161058D01*
X126622Y161056D01*
X127222Y161356D01*
X127229Y161369D01*
X127238Y161369D01*
X127638Y161869D01*
X127639Y161878D01*
X127640Y161879D01*
X127645Y161881D01*
X127945Y162581D01*
X127943Y162589D01*
X127949Y162592D01*
X128049Y163192D01*
X128046Y163197D01*
X128049Y163200D01*
X128049Y163900D01*
X128041Y163911D01*
X128046Y163918D01*
X127846Y164418D01*
X127834Y164426D01*
X127835Y164435D01*
X127435Y164835D01*
X127423Y164836D01*
X127422Y164844D01*
X126822Y165144D01*
X126815Y165143D01*
X126814Y165147D01*
X126114Y165347D01*
X126108Y165345D01*
X126106Y165349D01*
X125306Y165449D01*
X125298Y165444D01*
X125293Y165449D01*
X123893Y165249D01*
X123889Y165244D01*
X123888Y165244D01*
X123884Y165247D01*
X123284Y165047D01*
X123275Y165033D01*
X123265Y165035D01*
X122765Y164535D01*
X122764Y164523D01*
X122758Y164519D01*
X122762Y164513D01*
X122760Y164494D01*
X122753Y164484D01*
X122953Y163884D01*
X122961Y163879D01*
X122959Y163873D01*
X123359Y163273D01*
X123392Y163261D01*
X123400Y163251D01*
X123900Y163251D01*
X123908Y163257D01*
X123914Y163253D01*
X124610Y163452D01*
X125395Y163550D01*
X125931Y163371D01*
X125766Y163042D01*
X124990Y162848D01*
X124392Y162749D01*
X124389Y162745D01*
X124386Y162747D01*
X123686Y162547D01*
X123678Y162536D01*
X123669Y162538D01*
X123169Y162138D01*
X123167Y162131D01*
X123162Y162131D01*
X122762Y161631D01*
X122761Y161620D01*
X122758Y161617D01*
X122753Y161616D01*
X122553Y161016D01*
X122557Y161005D01*
X122551Y161000D01*
X122551Y160300D01*
X122554Y160296D01*
X122551Y160293D01*
X122651Y159593D01*
X122661Y159583D01*
X122658Y159575D01*
X122958Y159075D01*
X122966Y159071D01*
X122965Y159065D01*
X123465Y158565D01*
X123481Y158563D01*
X123484Y158553D01*
X124084Y158353D01*
X124090Y158355D01*
X124092Y158351D01*
X124692Y158251D01*
X124697Y158254D01*
X124700Y158251D01*
X126100Y158251D01*
X126104Y158254D01*
G37*
G36*
X366158Y19387D02*
X366158Y19387D01*
X366164Y19383D01*
X366864Y19583D01*
X366869Y19590D01*
X366875Y19588D01*
X367375Y19888D01*
X367380Y19900D01*
X367389Y19900D01*
X367689Y20300D01*
X367689Y20307D01*
X367694Y20308D01*
X367994Y20908D01*
X367992Y20919D01*
X367999Y20923D01*
X368099Y21623D01*
X368096Y21628D01*
X368099Y21630D01*
X368099Y23697D01*
X369068Y24084D01*
X369084Y24110D01*
X369097Y24114D01*
X369297Y24714D01*
X369293Y24725D01*
X369299Y24730D01*
X369299Y25530D01*
X369288Y25545D01*
X369292Y25555D01*
X368992Y26055D01*
X368970Y26064D01*
X368966Y26077D01*
X368377Y26273D01*
X368099Y26550D01*
X368099Y27930D01*
X368091Y27941D01*
X368096Y27948D01*
X367896Y28448D01*
X367868Y28465D01*
X367864Y28477D01*
X367164Y28677D01*
X367150Y28672D01*
X367144Y28679D01*
X366344Y28579D01*
X366330Y28566D01*
X366319Y28568D01*
X365819Y28168D01*
X365812Y28138D01*
X365801Y28130D01*
X365801Y26187D01*
X365157Y26279D01*
X365152Y26276D01*
X365150Y26279D01*
X364450Y26279D01*
X364445Y26276D01*
X364444Y26276D01*
X364434Y26268D01*
X364425Y26272D01*
X363925Y25972D01*
X363917Y25954D01*
X363904Y25944D01*
X363907Y25940D01*
X363901Y25937D01*
X363801Y25237D01*
X363806Y25229D01*
X363801Y25225D01*
X363901Y24325D01*
X363920Y24304D01*
X363920Y24291D01*
X364320Y23991D01*
X364337Y23991D01*
X364342Y23981D01*
X364942Y23881D01*
X364952Y23887D01*
X364957Y23881D01*
X365616Y23975D01*
X365801Y23422D01*
X365801Y22144D01*
X365520Y21675D01*
X364843Y21579D01*
X364833Y21569D01*
X364825Y21572D01*
X364325Y21272D01*
X364315Y21248D01*
X364303Y21244D01*
X364281Y21167D01*
X364267Y21118D01*
X364225Y20970D01*
X364182Y20822D01*
X364168Y20773D01*
X364126Y20625D01*
X364103Y20544D01*
X364109Y20528D01*
X364107Y20527D01*
X364109Y20525D01*
X364103Y20516D01*
X364303Y19816D01*
X364317Y19806D01*
X364315Y19795D01*
X364715Y19395D01*
X364742Y19392D01*
X364750Y19381D01*
X366150Y19381D01*
X366158Y19387D01*
G37*
G36*
X250513Y94060D02*
X250513Y94060D01*
X250522Y94056D01*
X251122Y94356D01*
X251131Y94374D01*
X251143Y94375D01*
X253843Y99075D01*
X253842Y99078D01*
X253844Y99078D01*
X254144Y99678D01*
X254141Y99694D01*
X254149Y99700D01*
X254149Y100300D01*
X254133Y100321D01*
X254135Y100335D01*
X253635Y100835D01*
X253622Y100837D01*
X253619Y100845D01*
X252919Y101145D01*
X252909Y101143D01*
X252898Y101143D01*
X252892Y101149D01*
X252292Y101049D01*
X252273Y101028D01*
X252259Y101027D01*
X251859Y100427D01*
X251859Y100423D01*
X251856Y100422D01*
X250370Y97449D01*
X250130Y97449D01*
X248644Y100422D01*
X248637Y100425D01*
X248638Y100431D01*
X248238Y100931D01*
X248219Y100936D01*
X248216Y100947D01*
X247616Y101147D01*
X247604Y101143D01*
X247585Y101143D01*
X247581Y101145D01*
X246881Y100845D01*
X246874Y100834D01*
X246865Y100835D01*
X246365Y100335D01*
X246364Y100323D01*
X246358Y100319D01*
X246361Y100314D01*
X246352Y100310D01*
X246252Y99810D01*
X246262Y99789D01*
X246256Y99778D01*
X246556Y99178D01*
X246558Y99177D01*
X246557Y99175D01*
X249257Y94475D01*
X249269Y94470D01*
X249269Y94462D01*
X249769Y94062D01*
X249792Y94061D01*
X249800Y94051D01*
X250500Y94051D01*
X250513Y94060D01*
G37*
G36*
X382755Y19384D02*
X382755Y19384D01*
X382758Y19381D01*
X383358Y19481D01*
X383361Y19485D01*
X383364Y19483D01*
X384064Y19683D01*
X384070Y19692D01*
X384077Y19689D01*
X384677Y20089D01*
X384680Y20096D01*
X384685Y20095D01*
X385185Y20595D01*
X385185Y20599D01*
X385188Y20599D01*
X385588Y21099D01*
X385589Y21107D01*
X385594Y21108D01*
X385894Y21708D01*
X385892Y21719D01*
X385899Y21723D01*
X385999Y22423D01*
X385996Y22428D01*
X385999Y22430D01*
X385999Y23130D01*
X385996Y23134D01*
X385999Y23137D01*
X385899Y23837D01*
X385894Y23842D01*
X385897Y23846D01*
X385697Y24446D01*
X385689Y24451D01*
X385691Y24457D01*
X385291Y25057D01*
X385288Y25058D01*
X385288Y25061D01*
X384888Y25561D01*
X384878Y25563D01*
X384877Y25571D01*
X384277Y25971D01*
X384268Y25970D01*
X384266Y25977D01*
X383666Y26177D01*
X383664Y26176D01*
X383664Y26177D01*
X382964Y26377D01*
X382956Y26374D01*
X382954Y26374D01*
X382950Y26379D01*
X382350Y26379D01*
X382346Y26376D01*
X382343Y26379D01*
X381643Y26279D01*
X381640Y26276D01*
X381639Y26276D01*
X381636Y26277D01*
X380936Y26077D01*
X380930Y26069D01*
X380923Y26071D01*
X380323Y25671D01*
X380319Y25661D01*
X380312Y25661D01*
X379912Y25161D01*
X379911Y25132D01*
X379901Y25122D01*
X380001Y24522D01*
X380013Y24511D01*
X380010Y24501D01*
X380510Y23801D01*
X380524Y23797D01*
X380525Y23788D01*
X381025Y23488D01*
X381057Y23491D01*
X381068Y23484D01*
X381568Y23684D01*
X381569Y23685D01*
X382260Y23981D01*
X382835Y23981D01*
X383409Y23598D01*
X383601Y23022D01*
X383601Y22350D01*
X383126Y21876D01*
X382553Y21780D01*
X381868Y21976D01*
X381272Y22274D01*
X381243Y22269D01*
X381232Y22276D01*
X380732Y22076D01*
X380723Y22061D01*
X380712Y22062D01*
X380212Y21462D01*
X380212Y21453D01*
X380206Y21452D01*
X379906Y20852D01*
X379911Y20823D01*
X379904Y20812D01*
X380104Y20312D01*
X380119Y20303D01*
X380118Y20292D01*
X380718Y19792D01*
X380727Y19792D01*
X380728Y19786D01*
X381328Y19486D01*
X381339Y19488D01*
X381343Y19481D01*
X382043Y19381D01*
X382048Y19384D01*
X382050Y19381D01*
X382750Y19381D01*
X382755Y19384D01*
G37*
G36*
X225703Y94053D02*
X225703Y94053D01*
X225705Y94051D01*
X226605Y94151D01*
X226615Y94160D01*
X226622Y94156D01*
X227222Y94456D01*
X227229Y94470D01*
X227239Y94470D01*
X227539Y94870D01*
X227539Y94880D01*
X227546Y94882D01*
X227746Y95382D01*
X227743Y95390D01*
X227749Y95393D01*
X227849Y96093D01*
X227846Y96098D01*
X227849Y96100D01*
X227849Y103700D01*
X227833Y103721D01*
X227835Y103735D01*
X227435Y104135D01*
X227412Y104138D01*
X227406Y104149D01*
X226606Y104249D01*
X226600Y104246D01*
X226589Y104246D01*
X226586Y104247D01*
X225886Y104047D01*
X225871Y104027D01*
X225858Y104025D01*
X225558Y103525D01*
X225558Y103521D01*
X225557Y103520D01*
X225559Y103517D01*
X225560Y103507D01*
X225551Y103500D01*
X225551Y96716D01*
X225271Y96343D01*
X224586Y96147D01*
X224573Y96130D01*
X224561Y96130D01*
X224261Y95730D01*
X224261Y95708D01*
X224251Y95700D01*
X224251Y94800D01*
X224258Y94791D01*
X224253Y94784D01*
X224453Y94184D01*
X224485Y94163D01*
X224490Y94152D01*
X224990Y94052D01*
X224997Y94055D01*
X225000Y94051D01*
X225700Y94051D01*
X225703Y94053D01*
G37*
G36*
X368303Y5253D02*
X368303Y5253D01*
X368305Y5251D01*
X369205Y5351D01*
X369215Y5360D01*
X369222Y5356D01*
X369822Y5656D01*
X369829Y5670D01*
X369839Y5670D01*
X370139Y6070D01*
X370139Y6080D01*
X370146Y6082D01*
X370346Y6582D01*
X370343Y6590D01*
X370349Y6593D01*
X370449Y7293D01*
X370446Y7298D01*
X370449Y7300D01*
X370449Y14900D01*
X370433Y14921D01*
X370435Y14935D01*
X370035Y15335D01*
X370012Y15338D01*
X370006Y15349D01*
X369206Y15449D01*
X369200Y15446D01*
X369189Y15446D01*
X369186Y15447D01*
X368486Y15247D01*
X368471Y15227D01*
X368458Y15225D01*
X368158Y14725D01*
X368158Y14721D01*
X368157Y14720D01*
X368159Y14717D01*
X368160Y14707D01*
X368151Y14700D01*
X368151Y7916D01*
X367871Y7543D01*
X367186Y7347D01*
X367173Y7330D01*
X367161Y7330D01*
X366861Y6930D01*
X366861Y6908D01*
X366851Y6900D01*
X366851Y6000D01*
X366860Y5987D01*
X366856Y5978D01*
X367156Y5378D01*
X367183Y5365D01*
X367188Y5352D01*
X367588Y5252D01*
X367596Y5256D01*
X367600Y5251D01*
X368300Y5251D01*
X368303Y5253D01*
G37*
%LPC*%
G36*
X441293Y36242D02*
X441293Y36242D01*
X440744Y36452D01*
X440296Y36824D01*
X439970Y37325D01*
X439760Y37903D01*
X439645Y38521D01*
X439606Y39170D01*
X439606Y39171D01*
X439582Y39237D01*
X439559Y39301D01*
X439559Y39302D01*
X439558Y39302D01*
X439534Y39320D01*
X439552Y39345D01*
X439592Y39393D01*
X439594Y39403D01*
X439597Y39407D01*
X439597Y39416D01*
X439610Y39465D01*
X439674Y40109D01*
X439818Y40717D01*
X440057Y41280D01*
X440409Y41762D01*
X440875Y42112D01*
X441430Y42300D01*
X442025Y42329D01*
X442605Y42213D01*
X443113Y41931D01*
X443510Y41498D01*
X443787Y40961D01*
X443959Y40365D01*
X444049Y39726D01*
X444051Y39721D01*
X444052Y39708D01*
X444157Y39216D01*
X444043Y38679D01*
X444043Y38675D01*
X444041Y38668D01*
X443937Y38031D01*
X443743Y37444D01*
X443438Y36925D01*
X443012Y36521D01*
X442481Y36274D01*
X441890Y36188D01*
X441293Y36242D01*
G37*
%LPD*%
G36*
X234102Y94056D02*
X234102Y94056D01*
X234107Y94051D01*
X234807Y94151D01*
X234829Y94173D01*
X234842Y94175D01*
X235142Y94675D01*
X235142Y94678D01*
X235140Y94693D01*
X235149Y94700D01*
X235149Y100100D01*
X235142Y100109D01*
X235147Y100116D01*
X234947Y100716D01*
X234920Y100734D01*
X234916Y100747D01*
X234316Y100947D01*
X234311Y100945D01*
X234311Y100946D01*
X234303Y100946D01*
X234300Y100949D01*
X233400Y100949D01*
X233395Y100946D01*
X233394Y100946D01*
X233384Y100938D01*
X233375Y100942D01*
X232875Y100642D01*
X232869Y100628D01*
X232859Y100627D01*
X232689Y100372D01*
X232231Y100738D01*
X232221Y100739D01*
X232219Y100745D01*
X231519Y101045D01*
X231512Y101044D01*
X231498Y101044D01*
X231493Y101049D01*
X230793Y100949D01*
X230792Y100948D01*
X230792Y100949D01*
X230192Y100849D01*
X230170Y100825D01*
X230169Y100824D01*
X230156Y100822D01*
X229856Y100222D01*
X229856Y100220D01*
X229859Y100206D01*
X229851Y100200D01*
X229851Y99600D01*
X229859Y99589D01*
X229855Y99581D01*
X230155Y98881D01*
X230170Y98872D01*
X230169Y98862D01*
X230669Y98462D01*
X230705Y98461D01*
X230716Y98453D01*
X231311Y98652D01*
X231992Y98749D01*
X232560Y98465D01*
X232751Y97892D01*
X232751Y95200D01*
X232754Y95196D01*
X232751Y95193D01*
X232851Y94493D01*
X232870Y94474D01*
X232870Y94461D01*
X233270Y94161D01*
X233288Y94161D01*
X233294Y94151D01*
X234094Y94051D01*
X234102Y94056D01*
G37*
G36*
X373419Y208328D02*
X373419Y208328D01*
X373426Y208323D01*
X374026Y208523D01*
X374043Y208548D01*
X374056Y208552D01*
X374256Y209052D01*
X374252Y209065D01*
X374259Y209070D01*
X374259Y209970D01*
X374248Y209985D01*
X374252Y209995D01*
X373952Y210495D01*
X373938Y210501D01*
X373937Y210511D01*
X373678Y210684D01*
X374051Y211243D01*
X374051Y211247D01*
X374054Y211248D01*
X374354Y211848D01*
X374353Y211852D01*
X374356Y211853D01*
X374352Y211858D01*
X374350Y211868D01*
X374359Y211877D01*
X374259Y212577D01*
X374258Y212578D01*
X374259Y212578D01*
X374159Y213178D01*
X374138Y213197D01*
X374137Y213211D01*
X373537Y213611D01*
X373512Y213609D01*
X373502Y213619D01*
X372902Y213519D01*
X372899Y213515D01*
X372896Y213517D01*
X372196Y213317D01*
X372182Y213298D01*
X372169Y213297D01*
X371769Y212697D01*
X371771Y212670D01*
X371768Y212668D01*
X371770Y212665D01*
X371763Y212654D01*
X371962Y212059D01*
X372059Y211378D01*
X371775Y210810D01*
X371202Y210619D01*
X368510Y210619D01*
X368506Y210616D01*
X368503Y210619D01*
X367803Y210519D01*
X367784Y210500D01*
X367771Y210500D01*
X367471Y210100D01*
X367471Y210082D01*
X367461Y210076D01*
X367361Y209276D01*
X367366Y209267D01*
X367361Y209262D01*
X367461Y208662D01*
X367483Y208641D01*
X367485Y208628D01*
X367985Y208328D01*
X368003Y208330D01*
X368010Y208321D01*
X373410Y208321D01*
X373419Y208328D01*
G37*
%LPC*%
G36*
X260704Y96449D02*
X260704Y96449D01*
X260115Y96547D01*
X259525Y96843D01*
X258938Y97234D01*
X258646Y97819D01*
X258449Y98408D01*
X258449Y99196D01*
X258547Y99785D01*
X258842Y100373D01*
X259234Y100863D01*
X259822Y101255D01*
X260408Y101451D01*
X261092Y101451D01*
X261678Y101255D01*
X262269Y100862D01*
X262757Y100373D01*
X262953Y99784D01*
X263151Y99192D01*
X263151Y97820D01*
X262467Y97137D01*
X261974Y96743D01*
X261290Y96449D01*
X260704Y96449D01*
G37*
%LPD*%
G36*
X390721Y5267D02*
X390721Y5267D01*
X390735Y5265D01*
X391135Y5665D01*
X391136Y5677D01*
X391141Y5681D01*
X391138Y5686D01*
X391138Y5687D01*
X391149Y5693D01*
X391249Y6393D01*
X391246Y6398D01*
X391249Y6400D01*
X391249Y10900D01*
X391246Y10904D01*
X391249Y10907D01*
X391149Y11607D01*
X391133Y11622D01*
X391135Y11635D01*
X390735Y12035D01*
X390712Y12038D01*
X390706Y12049D01*
X389906Y12149D01*
X389901Y12146D01*
X389896Y12146D01*
X389893Y12149D01*
X389193Y12049D01*
X389171Y12027D01*
X389158Y12025D01*
X388858Y11525D01*
X388858Y11521D01*
X388856Y11519D01*
X388859Y11515D01*
X388860Y11507D01*
X388851Y11500D01*
X388851Y6000D01*
X388862Y5985D01*
X388858Y5975D01*
X389158Y5475D01*
X389180Y5466D01*
X389184Y5453D01*
X389784Y5253D01*
X389795Y5257D01*
X389800Y5251D01*
X390700Y5251D01*
X390721Y5267D01*
G37*
G36*
X131821Y158267D02*
X131821Y158267D01*
X131835Y158265D01*
X132235Y158665D01*
X132236Y158677D01*
X132241Y158681D01*
X132238Y158686D01*
X132238Y158687D01*
X132249Y158693D01*
X132349Y159393D01*
X132346Y159398D01*
X132349Y159400D01*
X132349Y164600D01*
X132333Y164621D01*
X132335Y164635D01*
X131935Y165035D01*
X131912Y165038D01*
X131905Y165049D01*
X131005Y165149D01*
X131000Y165146D01*
X130995Y165146D01*
X130992Y165149D01*
X130392Y165049D01*
X130371Y165027D01*
X130358Y165025D01*
X130058Y164525D01*
X130058Y164521D01*
X130056Y164519D01*
X130059Y164515D01*
X130060Y164507D01*
X130051Y164500D01*
X130051Y159000D01*
X130059Y158989D01*
X130054Y158982D01*
X130254Y158482D01*
X130282Y158465D01*
X130286Y158453D01*
X130986Y158253D01*
X130996Y158256D01*
X131000Y158251D01*
X131800Y158251D01*
X131821Y158267D01*
G37*
%LPC*%
G36*
X397020Y7649D02*
X397020Y7649D01*
X396835Y7835D01*
X396831Y7835D01*
X396831Y7838D01*
X396335Y8235D01*
X395844Y8824D01*
X395648Y9412D01*
X395550Y10001D01*
X395648Y10689D01*
X395844Y11276D01*
X396333Y11862D01*
X396823Y12157D01*
X397412Y12451D01*
X398784Y12451D01*
X399151Y12175D01*
X399151Y8109D01*
X398967Y7649D01*
X397020Y7649D01*
G37*
%LPD*%
G36*
X352847Y152987D02*
X352847Y152987D01*
X352842Y152994D01*
X352849Y153000D01*
X352849Y155400D01*
X352833Y155421D01*
X352835Y155435D01*
X352635Y155635D01*
X352608Y155639D01*
X352600Y155649D01*
X347500Y155649D01*
X347467Y155624D01*
X347456Y155622D01*
X347356Y155422D01*
X347359Y155406D01*
X347351Y155400D01*
X347351Y153000D01*
X347387Y152953D01*
X347394Y152958D01*
X347400Y152951D01*
X352800Y152951D01*
X352847Y152987D01*
G37*
%LPC*%
G36*
X155420Y160649D02*
X155420Y160649D01*
X155235Y160835D01*
X155231Y160835D01*
X155231Y160838D01*
X154737Y161234D01*
X154343Y161825D01*
X154047Y162415D01*
X153950Y163001D01*
X154048Y163685D01*
X154343Y164275D01*
X154735Y164863D01*
X155222Y165156D01*
X155910Y165451D01*
X157184Y165451D01*
X157551Y165175D01*
X157551Y161109D01*
X157367Y160649D01*
X155420Y160649D01*
G37*
%LPD*%
%LPC*%
G36*
X138120Y160649D02*
X138120Y160649D01*
X137935Y160835D01*
X137931Y160835D01*
X137931Y160838D01*
X137437Y161234D01*
X137043Y161825D01*
X136747Y162415D01*
X136650Y163001D01*
X136748Y163685D01*
X137043Y164275D01*
X137434Y164862D01*
X138022Y165156D01*
X138612Y165451D01*
X139884Y165451D01*
X140251Y165175D01*
X140251Y161105D01*
X140160Y160649D01*
X138120Y160649D01*
G37*
%LPD*%
%LPC*%
G36*
X413220Y7649D02*
X413220Y7649D01*
X413035Y7835D01*
X413031Y7835D01*
X413031Y7838D01*
X412535Y8235D01*
X412044Y8824D01*
X411848Y9412D01*
X411750Y10001D01*
X411848Y10689D01*
X412044Y11276D01*
X412533Y11862D01*
X413023Y12157D01*
X413612Y12451D01*
X414980Y12451D01*
X415251Y12180D01*
X415251Y8105D01*
X415160Y7649D01*
X413220Y7649D01*
G37*
%LPD*%
G36*
X149215Y161962D02*
X149215Y161962D01*
X149225Y161958D01*
X149725Y162258D01*
X149733Y162277D01*
X149740Y162282D01*
X149737Y162286D01*
X149749Y162293D01*
X149849Y162993D01*
X149844Y163002D01*
X149849Y163007D01*
X149749Y163707D01*
X149727Y163729D01*
X149725Y163742D01*
X149225Y164042D01*
X149207Y164040D01*
X149200Y164049D01*
X145800Y164049D01*
X145796Y164046D01*
X145793Y164049D01*
X145093Y163949D01*
X145069Y163924D01*
X145056Y163922D01*
X144756Y163322D01*
X144759Y163306D01*
X144751Y163300D01*
X144751Y162600D01*
X144760Y162587D01*
X144756Y162578D01*
X145056Y161978D01*
X145093Y161960D01*
X145100Y161951D01*
X149200Y161951D01*
X149215Y161962D01*
G37*
G36*
X352009Y166058D02*
X352009Y166058D01*
X352016Y166053D01*
X352316Y166153D01*
X352319Y166158D01*
X352322Y166156D01*
X352522Y166256D01*
X352524Y166260D01*
X352527Y166259D01*
X352827Y166459D01*
X352830Y166466D01*
X352835Y166465D01*
X353035Y166665D01*
X353036Y166676D01*
X353037Y166677D01*
X353044Y166678D01*
X353143Y166875D01*
X353341Y167173D01*
X353340Y167182D01*
X353347Y167184D01*
X353447Y167484D01*
X353443Y167495D01*
X353449Y167500D01*
X353449Y168100D01*
X353442Y168109D01*
X353447Y168116D01*
X353347Y168416D01*
X353333Y168425D01*
X353335Y168435D01*
X353143Y168627D01*
X353047Y168916D01*
X353033Y168925D01*
X353035Y168935D01*
X352835Y169135D01*
X352828Y169136D01*
X352827Y169141D01*
X352527Y169341D01*
X352523Y169341D01*
X352522Y169344D01*
X352322Y169444D01*
X352317Y169443D01*
X352316Y169447D01*
X352016Y169547D01*
X352008Y169544D01*
X352005Y169548D01*
X352001Y169548D01*
X352000Y169549D01*
X351400Y169549D01*
X351398Y169548D01*
X351395Y169548D01*
X351389Y169543D01*
X351384Y169547D01*
X350784Y169347D01*
X350775Y169333D01*
X350765Y169335D01*
X350365Y168935D01*
X350364Y168928D01*
X350359Y168927D01*
X350159Y168627D01*
X350159Y168623D01*
X350156Y168622D01*
X350056Y168422D01*
X350057Y168417D01*
X350053Y168416D01*
X349953Y168116D01*
X349957Y168105D01*
X349951Y168100D01*
X349951Y167500D01*
X349958Y167491D01*
X349953Y167484D01*
X350153Y166884D01*
X350167Y166875D01*
X350165Y166865D01*
X350765Y166265D01*
X350781Y166263D01*
X350784Y166253D01*
X351384Y166053D01*
X351395Y166057D01*
X351400Y166051D01*
X352000Y166051D01*
X352009Y166058D01*
G37*
%LPC*%
G36*
X430227Y36063D02*
X430227Y36063D01*
X429715Y36318D01*
X429335Y36732D01*
X429101Y37295D01*
X429101Y37296D01*
X429062Y37360D01*
X428987Y37448D01*
X428995Y37462D01*
X429027Y37499D01*
X429031Y37521D01*
X429042Y37540D01*
X429050Y37613D01*
X429021Y38269D01*
X429021Y38679D01*
X429115Y38680D01*
X429718Y38515D01*
X429726Y38515D01*
X429746Y38509D01*
X431045Y38310D01*
X431650Y38166D01*
X432163Y37912D01*
X432508Y37459D01*
X432569Y36881D01*
X432395Y36396D01*
X431977Y36087D01*
X431417Y35960D01*
X430812Y35955D01*
X430227Y36063D01*
G37*
%LPD*%
%LPC*%
G36*
X433557Y24479D02*
X433557Y24479D01*
X432882Y24672D01*
X432599Y25144D01*
X432599Y25818D01*
X432887Y26393D01*
X433462Y26681D01*
X434834Y26681D01*
X435201Y26405D01*
X435201Y24479D01*
X433557Y24479D01*
G37*
%LPD*%
%LPC*%
G36*
X372359Y171419D02*
X372359Y171419D01*
X372359Y173354D01*
X372644Y173733D01*
X373124Y174021D01*
X373795Y174021D01*
X374369Y173638D01*
X374561Y173062D01*
X374561Y171786D01*
X374285Y171419D01*
X372359Y171419D01*
G37*
%LPD*%
G36*
X390707Y13051D02*
X390707Y13051D01*
X390725Y13070D01*
X390738Y13069D01*
X391138Y13569D01*
X391139Y13577D01*
X391140Y13578D01*
X391139Y13580D01*
X391139Y13588D01*
X391149Y13593D01*
X391249Y14293D01*
X391243Y14303D01*
X391249Y14308D01*
X391149Y14908D01*
X391130Y14926D01*
X391130Y14939D01*
X390730Y15239D01*
X390711Y15239D01*
X390705Y15249D01*
X389805Y15349D01*
X389794Y15342D01*
X389786Y15347D01*
X389086Y15147D01*
X389066Y15120D01*
X389053Y15116D01*
X388853Y14516D01*
X388857Y14505D01*
X388851Y14500D01*
X388851Y13800D01*
X388858Y13791D01*
X388853Y13784D01*
X389053Y13184D01*
X389075Y13169D01*
X389078Y13156D01*
X389278Y13056D01*
X389289Y13058D01*
X389293Y13051D01*
X389993Y12951D01*
X390002Y12956D01*
X390007Y12951D01*
X390707Y13051D01*
G37*
G36*
X131807Y166051D02*
X131807Y166051D01*
X131822Y166067D01*
X131835Y166065D01*
X132335Y166565D01*
X132336Y166576D01*
X132338Y166578D01*
X132337Y166580D01*
X132339Y166592D01*
X132349Y166600D01*
X132349Y167300D01*
X132346Y167305D01*
X132349Y167308D01*
X132249Y167908D01*
X132230Y167926D01*
X132230Y167939D01*
X131830Y168239D01*
X131811Y168239D01*
X131805Y168249D01*
X130905Y168349D01*
X130892Y168341D01*
X130884Y168347D01*
X130284Y168147D01*
X130266Y168120D01*
X130253Y168116D01*
X130053Y167516D01*
X130057Y167505D01*
X130051Y167500D01*
X130051Y166800D01*
X130058Y166791D01*
X130053Y166784D01*
X130253Y166184D01*
X130275Y166169D01*
X130278Y166156D01*
X130478Y166056D01*
X130489Y166058D01*
X130492Y166051D01*
X131092Y165951D01*
X131102Y165957D01*
X131107Y165951D01*
X131807Y166051D01*
G37*
%LPC*%
G36*
X370142Y180909D02*
X370142Y180909D01*
X369759Y181387D01*
X369759Y181962D01*
X369952Y182541D01*
X370430Y182923D01*
X371201Y183019D01*
X371778Y182731D01*
X372161Y182253D01*
X372161Y181582D01*
X371872Y181005D01*
X371393Y180717D01*
X370718Y180621D01*
X370142Y180909D01*
G37*
%LPD*%
%LPC*%
G36*
X361220Y7649D02*
X361220Y7649D01*
X360743Y8127D01*
X360552Y8701D01*
X360561Y8734D01*
X360603Y8882D01*
X360617Y8931D01*
X360659Y9079D01*
X360660Y9079D01*
X360659Y9079D01*
X360702Y9227D01*
X360716Y9276D01*
X360743Y9371D01*
X361231Y9762D01*
X361242Y9806D01*
X361256Y9778D01*
X361293Y9760D01*
X361300Y9751D01*
X361888Y9751D01*
X362463Y9463D01*
X362751Y8888D01*
X362751Y8220D01*
X362471Y7941D01*
X361888Y7649D01*
X361220Y7649D01*
G37*
%LPD*%
%LPC*%
G36*
X218620Y96449D02*
X218620Y96449D01*
X218143Y96927D01*
X217952Y97501D01*
X217961Y97534D01*
X218003Y97682D01*
X218017Y97731D01*
X218059Y97879D01*
X218060Y97879D01*
X218059Y97879D01*
X218102Y98027D01*
X218116Y98076D01*
X218143Y98171D01*
X218617Y98551D01*
X219288Y98551D01*
X219863Y98263D01*
X220151Y97688D01*
X220151Y97020D01*
X219871Y96741D01*
X219288Y96449D01*
X218620Y96449D01*
G37*
%LPD*%
%LPC*%
G36*
X391070Y21779D02*
X391070Y21779D01*
X390593Y22257D01*
X390403Y22828D01*
X390692Y23502D01*
X391085Y23895D01*
X391091Y23938D01*
X391106Y23908D01*
X391143Y23890D01*
X391150Y23881D01*
X391738Y23881D01*
X392313Y23593D01*
X392602Y23015D01*
X392697Y22352D01*
X392324Y22072D01*
X391738Y21779D01*
X391070Y21779D01*
G37*
%LPD*%
%LPC*%
G36*
X375135Y8037D02*
X375135Y8037D01*
X374752Y8611D01*
X374847Y9182D01*
X375229Y9755D01*
X375797Y9850D01*
X376474Y9656D01*
X376851Y9280D01*
X376851Y8904D01*
X376754Y8324D01*
X376277Y7846D01*
X375610Y7751D01*
X375135Y8037D01*
G37*
%LPD*%
%LPC*%
G36*
X371459Y202096D02*
X371459Y202096D01*
X371459Y203356D01*
X371732Y203811D01*
X372266Y203633D01*
X372360Y202975D01*
X372167Y202397D01*
X371704Y201933D01*
X371459Y202096D01*
G37*
%LPD*%
%LPC*%
G36*
X240014Y98149D02*
X240014Y98149D01*
X239564Y98419D01*
X239833Y98956D01*
X240396Y99049D01*
X240973Y98857D01*
X241444Y98387D01*
X241365Y98149D01*
X240014Y98149D01*
G37*
%LPD*%
%LPC*%
G36*
X373866Y23479D02*
X373866Y23479D01*
X373508Y23748D01*
X373687Y24286D01*
X374246Y24379D01*
X374826Y24186D01*
X375384Y23720D01*
X375224Y23479D01*
X373866Y23479D01*
G37*
%LPD*%
D10*
X300640Y145080D02*
X300640Y125680D01*
X305720Y130760D01*
X300640Y125680D02*
X295560Y130760D01*
X292608Y143810D02*
X292610Y144007D01*
X292618Y144204D01*
X292630Y144401D01*
X292647Y144597D01*
X292668Y144793D01*
X292695Y144989D01*
X292726Y145183D01*
X292762Y145377D01*
X292803Y145570D01*
X292849Y145762D01*
X292899Y145952D01*
X292954Y146142D01*
X293013Y146329D01*
X293078Y146516D01*
X293146Y146701D01*
X293219Y146884D01*
X293297Y147065D01*
X293379Y147244D01*
X293466Y147421D01*
X293556Y147596D01*
X293651Y147769D01*
X293751Y147939D01*
X293854Y148107D01*
X293962Y148272D01*
X294073Y148435D01*
X294189Y148595D01*
X294308Y148752D01*
X294431Y148905D01*
X294558Y149056D01*
X294689Y149204D01*
X294823Y149348D01*
X294961Y149489D01*
X295102Y149627D01*
X295246Y149761D01*
X295394Y149892D01*
X295545Y150019D01*
X295698Y150142D01*
X295855Y150261D01*
X296015Y150377D01*
X296178Y150488D01*
X296343Y150596D01*
X296511Y150699D01*
X296681Y150799D01*
X296854Y150894D01*
X297029Y150984D01*
X297206Y151071D01*
X297385Y151153D01*
X297566Y151231D01*
X297749Y151304D01*
X297934Y151372D01*
X298121Y151437D01*
X298308Y151496D01*
X298498Y151551D01*
X298688Y151601D01*
X298880Y151647D01*
X299073Y151688D01*
X299267Y151724D01*
X299461Y151755D01*
X299657Y151782D01*
X299853Y151803D01*
X300049Y151820D01*
X300246Y151832D01*
X300443Y151840D01*
X300640Y151842D01*
X300837Y151840D01*
X301034Y151832D01*
X301231Y151820D01*
X301427Y151803D01*
X301623Y151782D01*
X301819Y151755D01*
X302013Y151724D01*
X302207Y151688D01*
X302400Y151647D01*
X302592Y151601D01*
X302782Y151551D01*
X302972Y151496D01*
X303159Y151437D01*
X303346Y151372D01*
X303531Y151304D01*
X303714Y151231D01*
X303895Y151153D01*
X304074Y151071D01*
X304251Y150984D01*
X304426Y150894D01*
X304599Y150799D01*
X304769Y150699D01*
X304937Y150596D01*
X305102Y150488D01*
X305265Y150377D01*
X305425Y150261D01*
X305582Y150142D01*
X305735Y150019D01*
X305886Y149892D01*
X306034Y149761D01*
X306178Y149627D01*
X306319Y149489D01*
X306457Y149348D01*
X306591Y149204D01*
X306722Y149056D01*
X306849Y148905D01*
X306972Y148752D01*
X307091Y148595D01*
X307207Y148435D01*
X307318Y148272D01*
X307426Y148107D01*
X307529Y147939D01*
X307629Y147769D01*
X307724Y147596D01*
X307814Y147421D01*
X307901Y147244D01*
X307983Y147065D01*
X308061Y146884D01*
X308134Y146701D01*
X308202Y146516D01*
X308267Y146329D01*
X308326Y146142D01*
X308381Y145952D01*
X308431Y145762D01*
X308477Y145570D01*
X308518Y145377D01*
X308554Y145183D01*
X308585Y144989D01*
X308612Y144793D01*
X308633Y144597D01*
X308650Y144401D01*
X308662Y144204D01*
X308670Y144007D01*
X308672Y143810D01*
X308670Y143613D01*
X308662Y143416D01*
X308650Y143219D01*
X308633Y143023D01*
X308612Y142827D01*
X308585Y142631D01*
X308554Y142437D01*
X308518Y142243D01*
X308477Y142050D01*
X308431Y141858D01*
X308381Y141668D01*
X308326Y141478D01*
X308267Y141291D01*
X308202Y141104D01*
X308134Y140919D01*
X308061Y140736D01*
X307983Y140555D01*
X307901Y140376D01*
X307814Y140199D01*
X307724Y140024D01*
X307629Y139851D01*
X307529Y139681D01*
X307426Y139513D01*
X307318Y139348D01*
X307207Y139185D01*
X307091Y139025D01*
X306972Y138868D01*
X306849Y138715D01*
X306722Y138564D01*
X306591Y138416D01*
X306457Y138272D01*
X306319Y138131D01*
X306178Y137993D01*
X306034Y137859D01*
X305886Y137728D01*
X305735Y137601D01*
X305582Y137478D01*
X305425Y137359D01*
X305265Y137243D01*
X305102Y137132D01*
X304937Y137024D01*
X304769Y136921D01*
X304599Y136821D01*
X304426Y136726D01*
X304251Y136636D01*
X304074Y136549D01*
X303895Y136467D01*
X303714Y136389D01*
X303531Y136316D01*
X303346Y136248D01*
X303159Y136183D01*
X302972Y136124D01*
X302782Y136069D01*
X302592Y136019D01*
X302400Y135973D01*
X302207Y135932D01*
X302013Y135896D01*
X301819Y135865D01*
X301623Y135838D01*
X301427Y135817D01*
X301231Y135800D01*
X301034Y135788D01*
X300837Y135780D01*
X300640Y135778D01*
X300443Y135780D01*
X300246Y135788D01*
X300049Y135800D01*
X299853Y135817D01*
X299657Y135838D01*
X299461Y135865D01*
X299267Y135896D01*
X299073Y135932D01*
X298880Y135973D01*
X298688Y136019D01*
X298498Y136069D01*
X298308Y136124D01*
X298121Y136183D01*
X297934Y136248D01*
X297749Y136316D01*
X297566Y136389D01*
X297385Y136467D01*
X297206Y136549D01*
X297029Y136636D01*
X296854Y136726D01*
X296681Y136821D01*
X296511Y136921D01*
X296343Y137024D01*
X296178Y137132D01*
X296015Y137243D01*
X295855Y137359D01*
X295698Y137478D01*
X295545Y137601D01*
X295394Y137728D01*
X295246Y137859D01*
X295102Y137993D01*
X294961Y138131D01*
X294823Y138272D01*
X294689Y138416D01*
X294558Y138564D01*
X294431Y138715D01*
X294308Y138868D01*
X294189Y139025D01*
X294073Y139185D01*
X293962Y139348D01*
X293854Y139513D01*
X293751Y139681D01*
X293651Y139851D01*
X293556Y140024D01*
X293466Y140199D01*
X293379Y140376D01*
X293297Y140555D01*
X293219Y140736D01*
X293146Y140919D01*
X293078Y141104D01*
X293013Y141291D01*
X292954Y141478D01*
X292899Y141668D01*
X292849Y141858D01*
X292803Y142050D01*
X292762Y142243D01*
X292726Y142437D01*
X292695Y142631D01*
X292668Y142827D01*
X292647Y143023D01*
X292630Y143219D01*
X292618Y143416D01*
X292610Y143613D01*
X292608Y143810D01*
D11*
X299370Y143810D02*
X299372Y143881D01*
X299378Y143952D01*
X299388Y144023D01*
X299402Y144093D01*
X299420Y144162D01*
X299441Y144229D01*
X299467Y144296D01*
X299496Y144361D01*
X299528Y144424D01*
X299565Y144486D01*
X299604Y144545D01*
X299647Y144602D01*
X299693Y144656D01*
X299742Y144708D01*
X299794Y144757D01*
X299848Y144803D01*
X299905Y144846D01*
X299964Y144885D01*
X300026Y144922D01*
X300089Y144954D01*
X300154Y144983D01*
X300221Y145009D01*
X300288Y145030D01*
X300357Y145048D01*
X300427Y145062D01*
X300498Y145072D01*
X300569Y145078D01*
X300640Y145080D01*
X300711Y145078D01*
X300782Y145072D01*
X300853Y145062D01*
X300923Y145048D01*
X300992Y145030D01*
X301059Y145009D01*
X301126Y144983D01*
X301191Y144954D01*
X301254Y144922D01*
X301316Y144885D01*
X301375Y144846D01*
X301432Y144803D01*
X301486Y144757D01*
X301538Y144708D01*
X301587Y144656D01*
X301633Y144602D01*
X301676Y144545D01*
X301715Y144486D01*
X301752Y144424D01*
X301784Y144361D01*
X301813Y144296D01*
X301839Y144229D01*
X301860Y144162D01*
X301878Y144093D01*
X301892Y144023D01*
X301902Y143952D01*
X301908Y143881D01*
X301910Y143810D01*
X301908Y143739D01*
X301902Y143668D01*
X301892Y143597D01*
X301878Y143527D01*
X301860Y143458D01*
X301839Y143391D01*
X301813Y143324D01*
X301784Y143259D01*
X301752Y143196D01*
X301715Y143134D01*
X301676Y143075D01*
X301633Y143018D01*
X301587Y142964D01*
X301538Y142912D01*
X301486Y142863D01*
X301432Y142817D01*
X301375Y142774D01*
X301316Y142735D01*
X301254Y142698D01*
X301191Y142666D01*
X301126Y142637D01*
X301059Y142611D01*
X300992Y142590D01*
X300923Y142572D01*
X300853Y142558D01*
X300782Y142548D01*
X300711Y142542D01*
X300640Y142540D01*
X300569Y142542D01*
X300498Y142548D01*
X300427Y142558D01*
X300357Y142572D01*
X300288Y142590D01*
X300221Y142611D01*
X300154Y142637D01*
X300089Y142666D01*
X300026Y142698D01*
X299964Y142735D01*
X299905Y142774D01*
X299848Y142817D01*
X299794Y142863D01*
X299742Y142912D01*
X299693Y142964D01*
X299647Y143018D01*
X299604Y143075D01*
X299565Y143134D01*
X299528Y143196D01*
X299496Y143259D01*
X299467Y143324D01*
X299441Y143391D01*
X299420Y143458D01*
X299402Y143527D01*
X299388Y143597D01*
X299378Y143668D01*
X299372Y143739D01*
X299370Y143810D01*
D10*
X300640Y144080D02*
X282240Y144080D01*
X287320Y139000D01*
X282240Y144080D02*
X287320Y149160D01*
D12*
X7414Y179840D02*
X7414Y200160D01*
D13*
X105100Y178500D02*
X114100Y178500D01*
X105100Y178500D02*
X105100Y194500D01*
X111100Y207500D02*
X179100Y207500D01*
X185100Y194500D02*
X185100Y178500D01*
X176100Y178500D01*
D14*
X431926Y146826D03*
D10*
X389700Y177300D02*
X389700Y202400D01*
X399700Y164600D02*
X430500Y164600D01*
X440500Y177600D02*
X440500Y202400D01*
X430500Y215400D02*
X399700Y215400D01*
X402400Y190000D02*
X402404Y190312D01*
X402415Y190623D01*
X402434Y190934D01*
X402461Y191245D01*
X402496Y191555D01*
X402537Y191863D01*
X402587Y192171D01*
X402644Y192478D01*
X402709Y192783D01*
X402781Y193086D01*
X402860Y193387D01*
X402947Y193687D01*
X403041Y193984D01*
X403142Y194279D01*
X403251Y194571D01*
X403367Y194860D01*
X403490Y195147D01*
X403619Y195430D01*
X403756Y195710D01*
X403900Y195987D01*
X404050Y196260D01*
X404207Y196529D01*
X404370Y196794D01*
X404540Y197056D01*
X404717Y197313D01*
X404899Y197565D01*
X405088Y197813D01*
X405283Y198057D01*
X405483Y198295D01*
X405690Y198529D01*
X405902Y198757D01*
X406120Y198980D01*
X406343Y199198D01*
X406571Y199410D01*
X406805Y199617D01*
X407043Y199817D01*
X407287Y200012D01*
X407535Y200201D01*
X407787Y200383D01*
X408044Y200560D01*
X408306Y200730D01*
X408571Y200893D01*
X408840Y201050D01*
X409113Y201200D01*
X409390Y201344D01*
X409670Y201481D01*
X409953Y201610D01*
X410240Y201733D01*
X410529Y201849D01*
X410821Y201958D01*
X411116Y202059D01*
X411413Y202153D01*
X411713Y202240D01*
X412014Y202319D01*
X412317Y202391D01*
X412622Y202456D01*
X412929Y202513D01*
X413237Y202563D01*
X413545Y202604D01*
X413855Y202639D01*
X414166Y202666D01*
X414477Y202685D01*
X414788Y202696D01*
X415100Y202700D01*
X415412Y202696D01*
X415723Y202685D01*
X416034Y202666D01*
X416345Y202639D01*
X416655Y202604D01*
X416963Y202563D01*
X417271Y202513D01*
X417578Y202456D01*
X417883Y202391D01*
X418186Y202319D01*
X418487Y202240D01*
X418787Y202153D01*
X419084Y202059D01*
X419379Y201958D01*
X419671Y201849D01*
X419960Y201733D01*
X420247Y201610D01*
X420530Y201481D01*
X420810Y201344D01*
X421087Y201200D01*
X421360Y201050D01*
X421629Y200893D01*
X421894Y200730D01*
X422156Y200560D01*
X422413Y200383D01*
X422665Y200201D01*
X422913Y200012D01*
X423157Y199817D01*
X423395Y199617D01*
X423629Y199410D01*
X423857Y199198D01*
X424080Y198980D01*
X424298Y198757D01*
X424510Y198529D01*
X424717Y198295D01*
X424917Y198057D01*
X425112Y197813D01*
X425301Y197565D01*
X425483Y197313D01*
X425660Y197056D01*
X425830Y196794D01*
X425993Y196529D01*
X426150Y196260D01*
X426300Y195987D01*
X426444Y195710D01*
X426581Y195430D01*
X426710Y195147D01*
X426833Y194860D01*
X426949Y194571D01*
X427058Y194279D01*
X427159Y193984D01*
X427253Y193687D01*
X427340Y193387D01*
X427419Y193086D01*
X427491Y192783D01*
X427556Y192478D01*
X427613Y192171D01*
X427663Y191863D01*
X427704Y191555D01*
X427739Y191245D01*
X427766Y190934D01*
X427785Y190623D01*
X427796Y190312D01*
X427800Y190000D01*
X427796Y189688D01*
X427785Y189377D01*
X427766Y189066D01*
X427739Y188755D01*
X427704Y188445D01*
X427663Y188137D01*
X427613Y187829D01*
X427556Y187522D01*
X427491Y187217D01*
X427419Y186914D01*
X427340Y186613D01*
X427253Y186313D01*
X427159Y186016D01*
X427058Y185721D01*
X426949Y185429D01*
X426833Y185140D01*
X426710Y184853D01*
X426581Y184570D01*
X426444Y184290D01*
X426300Y184013D01*
X426150Y183740D01*
X425993Y183471D01*
X425830Y183206D01*
X425660Y182944D01*
X425483Y182687D01*
X425301Y182435D01*
X425112Y182187D01*
X424917Y181943D01*
X424717Y181705D01*
X424510Y181471D01*
X424298Y181243D01*
X424080Y181020D01*
X423857Y180802D01*
X423629Y180590D01*
X423395Y180383D01*
X423157Y180183D01*
X422913Y179988D01*
X422665Y179799D01*
X422413Y179617D01*
X422156Y179440D01*
X421894Y179270D01*
X421629Y179107D01*
X421360Y178950D01*
X421087Y178800D01*
X420810Y178656D01*
X420530Y178519D01*
X420247Y178390D01*
X419960Y178267D01*
X419671Y178151D01*
X419379Y178042D01*
X419084Y177941D01*
X418787Y177847D01*
X418487Y177760D01*
X418186Y177681D01*
X417883Y177609D01*
X417578Y177544D01*
X417271Y177487D01*
X416963Y177437D01*
X416655Y177396D01*
X416345Y177361D01*
X416034Y177334D01*
X415723Y177315D01*
X415412Y177304D01*
X415100Y177300D01*
X414788Y177304D01*
X414477Y177315D01*
X414166Y177334D01*
X413855Y177361D01*
X413545Y177396D01*
X413237Y177437D01*
X412929Y177487D01*
X412622Y177544D01*
X412317Y177609D01*
X412014Y177681D01*
X411713Y177760D01*
X411413Y177847D01*
X411116Y177941D01*
X410821Y178042D01*
X410529Y178151D01*
X410240Y178267D01*
X409953Y178390D01*
X409670Y178519D01*
X409390Y178656D01*
X409113Y178800D01*
X408840Y178950D01*
X408571Y179107D01*
X408306Y179270D01*
X408044Y179440D01*
X407787Y179617D01*
X407535Y179799D01*
X407287Y179988D01*
X407043Y180183D01*
X406805Y180383D01*
X406571Y180590D01*
X406343Y180802D01*
X406120Y181020D01*
X405902Y181243D01*
X405690Y181471D01*
X405483Y181705D01*
X405283Y181943D01*
X405088Y182187D01*
X404899Y182435D01*
X404717Y182687D01*
X404540Y182944D01*
X404370Y183206D01*
X404207Y183471D01*
X404050Y183740D01*
X403900Y184013D01*
X403756Y184290D01*
X403619Y184570D01*
X403490Y184853D01*
X403367Y185140D01*
X403251Y185429D01*
X403142Y185721D01*
X403041Y186016D01*
X402947Y186313D01*
X402860Y186613D01*
X402781Y186914D01*
X402709Y187217D01*
X402644Y187522D01*
X402587Y187829D01*
X402537Y188137D01*
X402496Y188445D01*
X402461Y188755D01*
X402434Y189066D01*
X402415Y189377D01*
X402404Y189688D01*
X402400Y190000D01*
X54100Y145000D02*
X29100Y145000D01*
X13100Y129000D02*
X13100Y60000D01*
X157100Y60000D02*
X157100Y125000D01*
X194460Y23960D02*
X200810Y23960D01*
X194460Y23960D02*
X194460Y72600D01*
X269390Y23960D02*
X275740Y23960D01*
X275740Y72600D01*
M02*
