G04 EAGLE Gerber RS-274X export*
G75*
%MOMM*%
%FSLAX34Y34*%
%LPD*%
%INSilkscreen Top*%
%IPPOS*%
%AMOC8*
5,1,8,0,0,1.08239X$1,22.5*%
G01*
%ADD10C,0.152400*%

G36*
X218715Y43162D02*
X218715Y43162D01*
X218725Y43158D01*
X219225Y43458D01*
X219233Y43477D01*
X219240Y43482D01*
X219237Y43486D01*
X219239Y43492D01*
X219249Y43500D01*
X219249Y56300D01*
X219238Y56315D01*
X219242Y56325D01*
X218942Y56825D01*
X218908Y56839D01*
X218900Y56849D01*
X184300Y56849D01*
X184295Y56846D01*
X184292Y56849D01*
X183692Y56749D01*
X182993Y56649D01*
X182990Y56645D01*
X182989Y56645D01*
X182986Y56647D01*
X182286Y56447D01*
X182285Y56446D01*
X182284Y56447D01*
X181684Y56247D01*
X181681Y56242D01*
X181678Y56244D01*
X181078Y55944D01*
X181076Y55940D01*
X181073Y55941D01*
X180473Y55541D01*
X180472Y55538D01*
X180469Y55538D01*
X179469Y54738D01*
X179467Y54731D01*
X179462Y54731D01*
X179062Y54231D01*
X179061Y54227D01*
X179059Y54227D01*
X178659Y53627D01*
X178659Y53623D01*
X178656Y53622D01*
X178056Y52422D01*
X178057Y52415D01*
X178053Y52414D01*
X177853Y51715D01*
X177653Y51116D01*
X177657Y51105D01*
X177651Y51100D01*
X177651Y49100D01*
X177654Y49096D01*
X177651Y49093D01*
X177751Y48393D01*
X177755Y48389D01*
X177753Y48386D01*
X177953Y47686D01*
X177958Y47682D01*
X177956Y47678D01*
X178556Y46478D01*
X178563Y46475D01*
X178562Y46469D01*
X178960Y45971D01*
X179359Y45373D01*
X179369Y45369D01*
X179369Y45362D01*
X179867Y44963D01*
X180365Y44465D01*
X180377Y44464D01*
X180378Y44456D01*
X180975Y44157D01*
X181573Y43759D01*
X181582Y43760D01*
X181584Y43753D01*
X182184Y43553D01*
X182186Y43554D01*
X182186Y43553D01*
X182886Y43353D01*
X182890Y43354D01*
X182892Y43351D01*
X183492Y43251D01*
X183493Y43252D01*
X183493Y43251D01*
X184193Y43151D01*
X184198Y43154D01*
X184200Y43151D01*
X218700Y43151D01*
X218715Y43162D01*
G37*
G36*
X399214Y21607D02*
X399214Y21607D01*
X399284Y21613D01*
X399299Y21622D01*
X399316Y21625D01*
X399422Y21697D01*
X399432Y21703D01*
X399433Y21705D01*
X399434Y21706D01*
X401734Y24006D01*
X401742Y24019D01*
X401743Y24020D01*
X401745Y24022D01*
X401747Y24026D01*
X401766Y24042D01*
X401792Y24099D01*
X401825Y24153D01*
X401828Y24177D01*
X401838Y24200D01*
X401836Y24262D01*
X401842Y24325D01*
X401833Y24348D01*
X401832Y24373D01*
X401792Y24455D01*
X401780Y24486D01*
X401774Y24492D01*
X401769Y24501D01*
X399824Y27095D01*
X399834Y27106D01*
X399853Y27136D01*
X399905Y27204D01*
X400005Y27404D01*
X400009Y27420D01*
X400018Y27433D01*
X400044Y27567D01*
X400045Y27572D01*
X400045Y27573D01*
X400045Y27574D01*
X400045Y27584D01*
X400078Y27649D01*
X400134Y27706D01*
X400153Y27736D01*
X400205Y27804D01*
X400305Y28004D01*
X400309Y28020D01*
X400318Y28033D01*
X400344Y28167D01*
X400345Y28172D01*
X400345Y28173D01*
X400345Y28174D01*
X400345Y28184D01*
X400505Y28504D01*
X400509Y28520D01*
X400518Y28533D01*
X400544Y28667D01*
X400545Y28672D01*
X400545Y28673D01*
X400545Y28674D01*
X400545Y28684D01*
X400605Y28804D01*
X400609Y28820D01*
X400618Y28833D01*
X400644Y28967D01*
X400645Y28972D01*
X400645Y28973D01*
X400645Y28974D01*
X400645Y28984D01*
X400705Y29104D01*
X400709Y29120D01*
X400718Y29133D01*
X400738Y29236D01*
X404030Y29800D01*
X404048Y29807D01*
X404067Y29808D01*
X404127Y29841D01*
X404189Y29867D01*
X404202Y29882D01*
X404219Y29891D01*
X404258Y29947D01*
X404302Y29998D01*
X404307Y30017D01*
X404318Y30033D01*
X404340Y30144D01*
X404345Y30166D01*
X404344Y30170D01*
X404345Y30174D01*
X404345Y33374D01*
X404341Y33393D01*
X404343Y33414D01*
X404332Y33446D01*
X404331Y33453D01*
X404326Y33462D01*
X404321Y33477D01*
X404306Y33542D01*
X404293Y33558D01*
X404286Y33577D01*
X404238Y33624D01*
X404196Y33676D01*
X404177Y33684D01*
X404163Y33698D01*
X404061Y33736D01*
X404038Y33746D01*
X404033Y33746D01*
X404028Y33748D01*
X400745Y34295D01*
X400745Y34374D01*
X400728Y34448D01*
X400714Y34523D01*
X400708Y34533D01*
X400706Y34542D01*
X400683Y34570D01*
X400645Y34625D01*
X400645Y34674D01*
X400628Y34748D01*
X400614Y34823D01*
X400608Y34833D01*
X400606Y34842D01*
X400583Y34870D01*
X400534Y34942D01*
X400478Y34998D01*
X400445Y35063D01*
X400445Y35174D01*
X400428Y35248D01*
X400414Y35323D01*
X400408Y35333D01*
X400406Y35342D01*
X400383Y35370D01*
X400345Y35425D01*
X400345Y35474D01*
X400328Y35548D01*
X400314Y35623D01*
X400308Y35633D01*
X400306Y35642D01*
X400283Y35670D01*
X400234Y35742D01*
X400178Y35798D01*
X400105Y35943D01*
X400082Y35971D01*
X400045Y36025D01*
X400045Y36074D01*
X400028Y36148D01*
X400014Y36223D01*
X400008Y36233D01*
X400006Y36242D01*
X399983Y36270D01*
X399934Y36342D01*
X399878Y36398D01*
X399838Y36478D01*
X401773Y39151D01*
X401783Y39175D01*
X401800Y39194D01*
X401816Y39254D01*
X401840Y39311D01*
X401838Y39336D01*
X401845Y39361D01*
X401833Y39422D01*
X401829Y39484D01*
X401816Y39506D01*
X401811Y39531D01*
X401760Y39603D01*
X401742Y39633D01*
X401735Y39638D01*
X401728Y39648D01*
X399428Y41848D01*
X399417Y41854D01*
X399409Y41865D01*
X399343Y41898D01*
X399279Y41936D01*
X399266Y41937D01*
X399255Y41942D01*
X399181Y41943D01*
X399107Y41948D01*
X399095Y41943D01*
X399082Y41943D01*
X398951Y41886D01*
X396277Y40042D01*
X396136Y40113D01*
X396120Y40117D01*
X396107Y40126D01*
X395973Y40152D01*
X395967Y40153D01*
X395966Y40153D01*
X395956Y40153D01*
X395891Y40185D01*
X395834Y40242D01*
X395804Y40261D01*
X395736Y40313D01*
X395536Y40413D01*
X395520Y40417D01*
X395507Y40426D01*
X395373Y40452D01*
X395367Y40453D01*
X395366Y40453D01*
X395356Y40453D01*
X395291Y40485D01*
X395234Y40542D01*
X395169Y40582D01*
X395107Y40626D01*
X395095Y40628D01*
X395087Y40633D01*
X395052Y40636D01*
X394966Y40653D01*
X394856Y40653D01*
X394736Y40713D01*
X394720Y40717D01*
X394707Y40726D01*
X394573Y40752D01*
X394567Y40753D01*
X394566Y40753D01*
X394556Y40753D01*
X394436Y40813D01*
X394420Y40817D01*
X394407Y40826D01*
X394273Y40852D01*
X394267Y40853D01*
X394266Y40853D01*
X394256Y40853D01*
X394136Y40913D01*
X394120Y40917D01*
X394107Y40926D01*
X394090Y40929D01*
X393540Y44138D01*
X393532Y44156D01*
X393531Y44175D01*
X393499Y44234D01*
X393472Y44297D01*
X393458Y44310D01*
X393448Y44327D01*
X393393Y44366D01*
X393341Y44410D01*
X393322Y44415D01*
X393307Y44426D01*
X393196Y44447D01*
X393174Y44453D01*
X393170Y44452D01*
X393166Y44453D01*
X389966Y44453D01*
X389947Y44449D01*
X389928Y44451D01*
X389864Y44429D01*
X389798Y44413D01*
X389783Y44401D01*
X389764Y44395D01*
X389717Y44347D01*
X389664Y44303D01*
X389656Y44286D01*
X389643Y44272D01*
X389603Y44166D01*
X389594Y44145D01*
X389594Y44142D01*
X389592Y44138D01*
X389034Y40882D01*
X388976Y40853D01*
X388866Y40853D01*
X388792Y40836D01*
X388716Y40822D01*
X388707Y40816D01*
X388698Y40813D01*
X388670Y40791D01*
X388614Y40753D01*
X388566Y40753D01*
X388550Y40749D01*
X388534Y40752D01*
X388403Y40715D01*
X388398Y40713D01*
X388397Y40713D01*
X388396Y40713D01*
X388276Y40653D01*
X388266Y40653D01*
X388250Y40649D01*
X388234Y40652D01*
X388103Y40615D01*
X388098Y40613D01*
X388097Y40613D01*
X388096Y40613D01*
X387896Y40513D01*
X387869Y40490D01*
X387814Y40453D01*
X387766Y40453D01*
X387692Y40436D01*
X387616Y40422D01*
X387607Y40416D01*
X387598Y40413D01*
X387570Y40391D01*
X387498Y40342D01*
X387441Y40285D01*
X387296Y40213D01*
X387269Y40190D01*
X387214Y40153D01*
X387166Y40153D01*
X387092Y40136D01*
X387016Y40122D01*
X387007Y40116D01*
X386998Y40113D01*
X386970Y40091D01*
X386898Y40042D01*
X386880Y40024D01*
X384181Y41886D01*
X384165Y41892D01*
X384153Y41904D01*
X384086Y41923D01*
X384020Y41949D01*
X384003Y41948D01*
X383987Y41952D01*
X383918Y41940D01*
X383848Y41934D01*
X383833Y41925D01*
X383816Y41922D01*
X383710Y41850D01*
X383700Y41844D01*
X383699Y41843D01*
X383698Y41842D01*
X381498Y39642D01*
X381489Y39627D01*
X381475Y39617D01*
X381444Y39554D01*
X381407Y39495D01*
X381405Y39478D01*
X381397Y39463D01*
X381397Y39392D01*
X381390Y39323D01*
X381396Y39307D01*
X381396Y39289D01*
X381448Y39172D01*
X381452Y39161D01*
X381453Y39160D01*
X381454Y39158D01*
X383305Y36475D01*
X383303Y36460D01*
X383287Y36374D01*
X383287Y36324D01*
X383279Y36311D01*
X383227Y36243D01*
X383154Y36098D01*
X383098Y36042D01*
X383058Y35977D01*
X383014Y35914D01*
X383012Y35903D01*
X383007Y35895D01*
X383003Y35860D01*
X382987Y35774D01*
X382987Y35724D01*
X382979Y35711D01*
X382927Y35643D01*
X382827Y35443D01*
X382823Y35428D01*
X382814Y35414D01*
X382797Y35327D01*
X382794Y35319D01*
X382794Y35311D01*
X382788Y35280D01*
X382787Y35275D01*
X382787Y35274D01*
X382787Y35263D01*
X382627Y34943D01*
X382623Y34928D01*
X382614Y34914D01*
X382588Y34780D01*
X382587Y34775D01*
X382587Y34774D01*
X382587Y34763D01*
X382527Y34643D01*
X382523Y34628D01*
X382514Y34614D01*
X382505Y34569D01*
X382501Y34561D01*
X382502Y34551D01*
X382488Y34480D01*
X382487Y34475D01*
X382487Y34474D01*
X382487Y34463D01*
X382427Y34343D01*
X382423Y34328D01*
X382414Y34314D01*
X382411Y34298D01*
X379202Y33748D01*
X379184Y33740D01*
X379165Y33739D01*
X379105Y33707D01*
X379043Y33680D01*
X379030Y33665D01*
X379013Y33656D01*
X378974Y33601D01*
X378930Y33549D01*
X378925Y33530D01*
X378914Y33514D01*
X378898Y33433D01*
X378894Y33423D01*
X378894Y33412D01*
X378892Y33403D01*
X378887Y33381D01*
X378888Y33378D01*
X378887Y33374D01*
X378887Y30174D01*
X378891Y30155D01*
X378889Y30136D01*
X378911Y30071D01*
X378926Y30005D01*
X378939Y29990D01*
X378945Y29972D01*
X378993Y29924D01*
X379036Y29872D01*
X379054Y29864D01*
X379068Y29850D01*
X379174Y29810D01*
X379194Y29801D01*
X379198Y29801D01*
X379202Y29800D01*
X382458Y29242D01*
X382487Y29184D01*
X382487Y29074D01*
X382504Y28999D01*
X382518Y28924D01*
X382524Y28914D01*
X382526Y28905D01*
X382549Y28878D01*
X382587Y28822D01*
X382587Y28774D01*
X382600Y28718D01*
X382601Y28699D01*
X382606Y28689D01*
X382618Y28624D01*
X382624Y28614D01*
X382626Y28605D01*
X382649Y28578D01*
X382698Y28506D01*
X382754Y28449D01*
X382787Y28384D01*
X382787Y28274D01*
X382804Y28199D01*
X382818Y28124D01*
X382824Y28114D01*
X382826Y28105D01*
X382849Y28078D01*
X382887Y28022D01*
X382887Y27974D01*
X382904Y27899D01*
X382918Y27824D01*
X382924Y27814D01*
X382926Y27805D01*
X382949Y27778D01*
X382998Y27706D01*
X383054Y27649D01*
X383127Y27504D01*
X383150Y27476D01*
X383193Y27413D01*
X383195Y27409D01*
X383196Y27409D01*
X383198Y27406D01*
X383254Y27349D01*
X383287Y27284D01*
X383287Y27274D01*
X383290Y27258D01*
X383288Y27242D01*
X383300Y27200D01*
X383301Y27182D01*
X383310Y27165D01*
X383325Y27111D01*
X383325Y27109D01*
X381457Y24494D01*
X381451Y24479D01*
X381440Y24468D01*
X381419Y24400D01*
X381392Y24334D01*
X381393Y24318D01*
X381388Y24303D01*
X381399Y24233D01*
X381404Y24161D01*
X381412Y24148D01*
X381414Y24132D01*
X381489Y24016D01*
X381491Y24012D01*
X381492Y24012D01*
X383692Y21712D01*
X383710Y21700D01*
X383723Y21683D01*
X383782Y21653D01*
X383837Y21617D01*
X383858Y21615D01*
X383877Y21605D01*
X383943Y21605D01*
X384009Y21597D01*
X384029Y21604D01*
X384050Y21604D01*
X384145Y21646D01*
X384172Y21655D01*
X384175Y21659D01*
X384181Y21661D01*
X386902Y23538D01*
X386925Y23521D01*
X386937Y23519D01*
X386945Y23514D01*
X386980Y23511D01*
X386995Y23508D01*
X386998Y23506D01*
X387063Y23465D01*
X387125Y23421D01*
X387137Y23419D01*
X387145Y23414D01*
X387180Y23411D01*
X387195Y23408D01*
X387198Y23406D01*
X387263Y23365D01*
X387325Y23321D01*
X387337Y23319D01*
X387345Y23314D01*
X387380Y23311D01*
X387395Y23308D01*
X387398Y23306D01*
X387463Y23265D01*
X387525Y23221D01*
X387537Y23219D01*
X387545Y23214D01*
X387580Y23211D01*
X387595Y23208D01*
X387598Y23206D01*
X387663Y23165D01*
X387725Y23121D01*
X387737Y23119D01*
X387745Y23114D01*
X387780Y23111D01*
X387795Y23108D01*
X387798Y23106D01*
X387863Y23065D01*
X387925Y23021D01*
X387937Y23019D01*
X387945Y23014D01*
X387980Y23011D01*
X388066Y22994D01*
X388116Y22994D01*
X388137Y22981D01*
X388170Y22949D01*
X388209Y22936D01*
X388245Y22914D01*
X388290Y22910D01*
X388334Y22896D01*
X388376Y22902D01*
X388417Y22898D01*
X388460Y22914D01*
X388505Y22921D01*
X388540Y22945D01*
X388579Y22960D01*
X388610Y22993D01*
X388647Y23020D01*
X388673Y23062D01*
X388696Y23087D01*
X388703Y23112D01*
X388722Y23142D01*
X390722Y28542D01*
X390729Y28599D01*
X390745Y28654D01*
X390739Y28684D01*
X390743Y28714D01*
X390724Y28768D01*
X390714Y28825D01*
X390696Y28849D01*
X390686Y28877D01*
X390645Y28917D01*
X390611Y28963D01*
X390581Y28980D01*
X390562Y28998D01*
X390530Y29008D01*
X390486Y29033D01*
X390212Y29125D01*
X389891Y29285D01*
X389734Y29442D01*
X389704Y29461D01*
X389636Y29513D01*
X389491Y29585D01*
X389378Y29698D01*
X389305Y29843D01*
X389282Y29871D01*
X389234Y29942D01*
X389078Y30098D01*
X388917Y30419D01*
X388826Y30694D01*
X388814Y30713D01*
X388805Y30743D01*
X388645Y31063D01*
X388645Y31274D01*
X388637Y31309D01*
X388626Y31394D01*
X388545Y31635D01*
X388545Y32112D01*
X388910Y33206D01*
X389261Y33732D01*
X389408Y33879D01*
X389676Y34058D01*
X389698Y34081D01*
X389734Y34106D01*
X389908Y34279D01*
X390134Y34430D01*
X390386Y34514D01*
X390404Y34525D01*
X390418Y34528D01*
X390431Y34539D01*
X390476Y34558D01*
X390681Y34694D01*
X390866Y34694D01*
X390901Y34703D01*
X390958Y34706D01*
X391313Y34794D01*
X391904Y34794D01*
X392146Y34714D01*
X392182Y34711D01*
X392266Y34694D01*
X392451Y34694D01*
X392656Y34558D01*
X392691Y34545D01*
X392740Y34517D01*
X392742Y34516D01*
X392743Y34516D01*
X392746Y34514D01*
X392998Y34430D01*
X393525Y34079D01*
X393871Y33732D01*
X394222Y33206D01*
X394306Y32954D01*
X394326Y32922D01*
X394350Y32863D01*
X394487Y32659D01*
X394487Y32474D01*
X394495Y32439D01*
X394506Y32354D01*
X394587Y32112D01*
X394587Y31335D01*
X394506Y31094D01*
X394503Y31058D01*
X394487Y30974D01*
X394487Y30863D01*
X394427Y30743D01*
X394421Y30721D01*
X394406Y30694D01*
X394315Y30419D01*
X394254Y30298D01*
X394098Y30142D01*
X394079Y30111D01*
X394027Y30043D01*
X393954Y29898D01*
X393641Y29585D01*
X393496Y29513D01*
X393469Y29490D01*
X393398Y29442D01*
X393241Y29285D01*
X392696Y29013D01*
X392673Y28993D01*
X392644Y28981D01*
X392607Y28938D01*
X392563Y28902D01*
X392551Y28874D01*
X392531Y28851D01*
X392516Y28796D01*
X392493Y28744D01*
X392495Y28713D01*
X392487Y28683D01*
X392499Y28609D01*
X392501Y28571D01*
X392508Y28559D01*
X392510Y28542D01*
X394510Y23142D01*
X394522Y23125D01*
X394526Y23105D01*
X394569Y23054D01*
X394606Y22998D01*
X394624Y22987D01*
X394636Y22972D01*
X394698Y22945D01*
X394756Y22911D01*
X394776Y22910D01*
X394794Y22901D01*
X394861Y22904D01*
X394928Y22900D01*
X394947Y22907D01*
X394967Y22908D01*
X395026Y22940D01*
X395088Y22966D01*
X395101Y22982D01*
X395119Y22991D01*
X395132Y23010D01*
X395140Y23012D01*
X395216Y23025D01*
X395225Y23032D01*
X395234Y23034D01*
X395262Y23057D01*
X395334Y23106D01*
X395341Y23112D01*
X395416Y23125D01*
X395425Y23132D01*
X395434Y23134D01*
X395462Y23157D01*
X395534Y23206D01*
X395541Y23212D01*
X395616Y23225D01*
X395625Y23232D01*
X395634Y23234D01*
X395662Y23257D01*
X395718Y23294D01*
X395766Y23294D01*
X395840Y23312D01*
X395916Y23325D01*
X395925Y23332D01*
X395934Y23334D01*
X395962Y23357D01*
X396034Y23406D01*
X396041Y23412D01*
X396116Y23425D01*
X396125Y23432D01*
X396134Y23434D01*
X396162Y23457D01*
X396234Y23506D01*
X396252Y23523D01*
X398951Y21661D01*
X398967Y21655D01*
X398979Y21644D01*
X399047Y21624D01*
X399112Y21598D01*
X399129Y21600D01*
X399145Y21595D01*
X399214Y21607D01*
G37*
G36*
X454204Y33354D02*
X454204Y33354D01*
X454207Y33351D01*
X454907Y33451D01*
X454912Y33456D01*
X454916Y33453D01*
X455516Y33653D01*
X455519Y33658D01*
X455522Y33656D01*
X456722Y34256D01*
X456727Y34266D01*
X456735Y34265D01*
X457235Y34765D01*
X457235Y34769D01*
X457238Y34769D01*
X457638Y35269D01*
X457639Y35273D01*
X457641Y35273D01*
X458041Y35873D01*
X458041Y35877D01*
X458044Y35878D01*
X458344Y36478D01*
X458343Y36486D01*
X458348Y36489D01*
X458347Y36491D01*
X458349Y36492D01*
X458449Y37092D01*
X458448Y37093D01*
X458449Y37093D01*
X458549Y37793D01*
X458546Y37798D01*
X458549Y37800D01*
X458549Y39200D01*
X458543Y39208D01*
X458547Y39214D01*
X458347Y39914D01*
X458340Y39919D01*
X458342Y39925D01*
X458042Y40425D01*
X458041Y40426D01*
X458041Y40427D01*
X457641Y41027D01*
X457638Y41028D01*
X457638Y41031D01*
X457238Y41531D01*
X457231Y41533D01*
X457232Y41538D01*
X456632Y42038D01*
X456626Y42038D01*
X456625Y42042D01*
X456125Y42342D01*
X456122Y42342D01*
X456122Y42344D01*
X455522Y42644D01*
X455515Y42643D01*
X455514Y42647D01*
X454814Y42847D01*
X454810Y42846D01*
X454808Y42849D01*
X454208Y42949D01*
X454203Y42946D01*
X454200Y42949D01*
X450900Y42949D01*
X450885Y42938D01*
X450875Y42942D01*
X450375Y42642D01*
X450364Y42614D01*
X450351Y42608D01*
X450251Y42008D01*
X450254Y42003D01*
X450251Y42000D01*
X450251Y34500D01*
X450254Y34496D01*
X450251Y34493D01*
X450351Y33793D01*
X450367Y33778D01*
X450365Y33765D01*
X450665Y33465D01*
X450688Y33462D01*
X450694Y33451D01*
X451494Y33351D01*
X451498Y33353D01*
X451500Y33351D01*
X454200Y33351D01*
X454204Y33354D01*
G37*
G36*
X442504Y84154D02*
X442504Y84154D01*
X442507Y84151D01*
X443207Y84251D01*
X443212Y84256D01*
X443216Y84253D01*
X443816Y84453D01*
X443819Y84458D01*
X443822Y84456D01*
X445022Y85056D01*
X445027Y85066D01*
X445035Y85065D01*
X445535Y85565D01*
X445535Y85569D01*
X445538Y85569D01*
X445938Y86069D01*
X445939Y86073D01*
X445941Y86073D01*
X446341Y86673D01*
X446341Y86677D01*
X446344Y86678D01*
X446644Y87278D01*
X446643Y87286D01*
X446648Y87289D01*
X446647Y87291D01*
X446649Y87292D01*
X446749Y87892D01*
X446748Y87893D01*
X446749Y87893D01*
X446849Y88593D01*
X446846Y88598D01*
X446849Y88600D01*
X446849Y89300D01*
X446846Y89304D01*
X446849Y89307D01*
X446649Y90707D01*
X446639Y90717D01*
X446642Y90725D01*
X446342Y91225D01*
X446341Y91226D01*
X446341Y91227D01*
X445941Y91827D01*
X445938Y91828D01*
X445938Y91831D01*
X445538Y92331D01*
X445531Y92333D01*
X445532Y92338D01*
X444932Y92838D01*
X444923Y92838D01*
X444922Y92844D01*
X443722Y93444D01*
X443717Y93443D01*
X443716Y93447D01*
X443116Y93647D01*
X443109Y93645D01*
X443107Y93649D01*
X442407Y93749D01*
X442402Y93746D01*
X442400Y93749D01*
X439200Y93749D01*
X439185Y93738D01*
X439175Y93742D01*
X438675Y93442D01*
X438664Y93414D01*
X438651Y93408D01*
X438551Y92808D01*
X438554Y92803D01*
X438551Y92800D01*
X438551Y85300D01*
X438554Y85296D01*
X438551Y85293D01*
X438651Y84593D01*
X438667Y84578D01*
X438665Y84565D01*
X438965Y84265D01*
X438988Y84262D01*
X438994Y84251D01*
X439794Y84151D01*
X439798Y84153D01*
X439800Y84151D01*
X442500Y84151D01*
X442504Y84154D01*
G37*
G36*
X441309Y33358D02*
X441309Y33358D01*
X441316Y33353D01*
X441916Y33553D01*
X441929Y33573D01*
X441942Y33575D01*
X442242Y34075D01*
X442240Y34093D01*
X442249Y34100D01*
X442249Y38652D01*
X445761Y33970D01*
X445763Y33970D01*
X445762Y33968D01*
X446262Y33368D01*
X446292Y33362D01*
X446300Y33351D01*
X447000Y33351D01*
X447004Y33354D01*
X447006Y33351D01*
X447806Y33451D01*
X447822Y33467D01*
X447835Y33465D01*
X448235Y33865D01*
X448236Y33877D01*
X448240Y33879D01*
X448237Y33883D01*
X448238Y33886D01*
X448249Y33892D01*
X448349Y34492D01*
X448346Y34497D01*
X448349Y34500D01*
X448349Y41300D01*
X448346Y41304D01*
X448349Y41307D01*
X448249Y42007D01*
X448248Y42008D01*
X448249Y42008D01*
X448149Y42608D01*
X448125Y42631D01*
X448122Y42644D01*
X447522Y42944D01*
X447506Y42941D01*
X447500Y42949D01*
X446800Y42949D01*
X446791Y42942D01*
X446784Y42947D01*
X446184Y42747D01*
X446166Y42720D01*
X446153Y42716D01*
X445953Y42116D01*
X445957Y42105D01*
X445951Y42100D01*
X445951Y37546D01*
X444439Y39530D01*
X442440Y42229D01*
X442434Y42231D01*
X442435Y42235D01*
X441935Y42735D01*
X441917Y42737D01*
X441914Y42747D01*
X441214Y42947D01*
X441204Y42944D01*
X441200Y42949D01*
X440500Y42949D01*
X440482Y42935D01*
X440469Y42938D01*
X439969Y42538D01*
X439963Y42513D01*
X439951Y42507D01*
X439851Y41807D01*
X439854Y41802D01*
X439851Y41800D01*
X439851Y34400D01*
X439854Y34395D01*
X439851Y34392D01*
X439951Y33792D01*
X439967Y33777D01*
X439965Y33765D01*
X440365Y33365D01*
X440392Y33362D01*
X440400Y33351D01*
X441300Y33351D01*
X441309Y33358D01*
G37*
G36*
X434604Y33354D02*
X434604Y33354D01*
X434607Y33351D01*
X436007Y33551D01*
X436015Y33559D01*
X436022Y33556D01*
X436622Y33856D01*
X436623Y33859D01*
X436625Y33858D01*
X437125Y34158D01*
X437130Y34169D01*
X437138Y34169D01*
X437538Y34669D01*
X437539Y34682D01*
X437547Y34684D01*
X437747Y35284D01*
X437743Y35295D01*
X437749Y35300D01*
X437749Y38100D01*
X437746Y38104D01*
X437749Y38107D01*
X437649Y38807D01*
X437630Y38826D01*
X437630Y38839D01*
X437230Y39139D01*
X437217Y39139D01*
X437214Y39147D01*
X436514Y39347D01*
X436504Y39344D01*
X436500Y39349D01*
X434400Y39349D01*
X434391Y39342D01*
X434384Y39347D01*
X433784Y39147D01*
X433766Y39120D01*
X433753Y39116D01*
X433553Y38516D01*
X433557Y38505D01*
X433551Y38500D01*
X433551Y37800D01*
X433567Y37779D01*
X433565Y37765D01*
X433965Y37365D01*
X433989Y37362D01*
X433997Y37351D01*
X435351Y37254D01*
X435351Y36030D01*
X434788Y35749D01*
X433512Y35749D01*
X432927Y36042D01*
X432335Y36535D01*
X431944Y37024D01*
X431748Y37611D01*
X431650Y38300D01*
X431748Y38990D01*
X431945Y39677D01*
X432334Y40163D01*
X432922Y40555D01*
X433511Y40752D01*
X434200Y40850D01*
X434885Y40752D01*
X436078Y40156D01*
X436100Y40160D01*
X436110Y40152D01*
X436610Y40252D01*
X436623Y40267D01*
X436635Y40265D01*
X437235Y40865D01*
X437237Y40881D01*
X437247Y40884D01*
X437447Y41484D01*
X437440Y41505D01*
X437447Y41516D01*
X437247Y42116D01*
X437228Y42128D01*
X437227Y42141D01*
X436627Y42541D01*
X436623Y42541D01*
X436622Y42544D01*
X436022Y42844D01*
X436015Y42843D01*
X436014Y42847D01*
X435315Y43047D01*
X434716Y43247D01*
X434705Y43243D01*
X434700Y43249D01*
X434000Y43249D01*
X433996Y43246D01*
X433993Y43249D01*
X433293Y43149D01*
X433292Y43148D01*
X433292Y43149D01*
X432692Y43049D01*
X432685Y43041D01*
X432678Y43044D01*
X431478Y42444D01*
X431476Y42440D01*
X431473Y42441D01*
X430873Y42041D01*
X430870Y42034D01*
X430865Y42035D01*
X430365Y41535D01*
X430364Y41528D01*
X430359Y41527D01*
X429959Y40927D01*
X429959Y40926D01*
X429958Y40925D01*
X429658Y40425D01*
X429659Y40416D01*
X429653Y40414D01*
X429453Y39715D01*
X429253Y39116D01*
X429257Y39105D01*
X429251Y39100D01*
X429251Y37700D01*
X429257Y37692D01*
X429253Y37686D01*
X429453Y36986D01*
X429454Y36985D01*
X429453Y36984D01*
X429653Y36384D01*
X429658Y36381D01*
X429656Y36378D01*
X430256Y35178D01*
X430266Y35173D01*
X430265Y35165D01*
X430765Y34665D01*
X430769Y34665D01*
X430769Y34662D01*
X431269Y34262D01*
X431273Y34261D01*
X431273Y34259D01*
X431873Y33859D01*
X431877Y33859D01*
X431878Y33856D01*
X432478Y33556D01*
X432485Y33557D01*
X432486Y33553D01*
X433186Y33353D01*
X433196Y33356D01*
X433200Y33351D01*
X434600Y33351D01*
X434604Y33354D01*
G37*
G36*
X48004Y162354D02*
X48004Y162354D01*
X48007Y162351D01*
X48707Y162451D01*
X48715Y162459D01*
X48722Y162456D01*
X49322Y162756D01*
X49325Y162763D01*
X49331Y162762D01*
X50331Y163562D01*
X50333Y163572D01*
X50341Y163573D01*
X50741Y164173D01*
X50740Y164182D01*
X50747Y164184D01*
X50947Y164784D01*
X50945Y164791D01*
X50949Y164793D01*
X51049Y165493D01*
X51046Y165498D01*
X51049Y165500D01*
X51049Y171600D01*
X51035Y171618D01*
X51038Y171631D01*
X50638Y172131D01*
X50614Y172137D01*
X50608Y172149D01*
X50008Y172249D01*
X49999Y172244D01*
X49994Y172249D01*
X49194Y172149D01*
X49178Y172133D01*
X49165Y172135D01*
X48785Y171755D01*
X48417Y171846D01*
X47822Y172144D01*
X47811Y172142D01*
X47807Y172149D01*
X47107Y172249D01*
X47093Y172241D01*
X47084Y172247D01*
X45884Y171847D01*
X45877Y171836D01*
X45868Y171838D01*
X45268Y171338D01*
X45267Y171331D01*
X45262Y171331D01*
X44862Y170831D01*
X44861Y170827D01*
X44859Y170827D01*
X44459Y170227D01*
X44460Y170218D01*
X44453Y170216D01*
X44253Y169616D01*
X44255Y169609D01*
X44251Y169607D01*
X44151Y168907D01*
X44156Y168898D01*
X44151Y168893D01*
X44251Y168193D01*
X44256Y168188D01*
X44253Y168184D01*
X44453Y167584D01*
X44458Y167581D01*
X44456Y167578D01*
X44756Y166978D01*
X44763Y166975D01*
X44762Y166969D01*
X45162Y166469D01*
X45169Y166467D01*
X45168Y166462D01*
X45768Y165962D01*
X45777Y165962D01*
X45778Y165956D01*
X46378Y165656D01*
X46383Y165657D01*
X46384Y165653D01*
X46984Y165453D01*
X46990Y165455D01*
X46992Y165454D01*
X47005Y165454D01*
X47007Y165451D01*
X47707Y165551D01*
X47712Y165556D01*
X47716Y165553D01*
X48316Y165753D01*
X48323Y165764D01*
X48331Y165762D01*
X48751Y166098D01*
X48751Y165804D01*
X48653Y165218D01*
X48269Y164642D01*
X47601Y164452D01*
X47019Y164646D01*
X46422Y164944D01*
X46417Y164943D01*
X46416Y164947D01*
X45816Y165147D01*
X45785Y165137D01*
X45773Y165141D01*
X45173Y164741D01*
X45167Y164724D01*
X45156Y164722D01*
X44856Y164122D01*
X44859Y164106D01*
X44851Y164100D01*
X44851Y163600D01*
X44865Y163582D01*
X44862Y163569D01*
X45262Y163069D01*
X45276Y163066D01*
X45278Y163056D01*
X46078Y162656D01*
X46083Y162657D01*
X46084Y162653D01*
X46684Y162453D01*
X46690Y162455D01*
X46692Y162451D01*
X47292Y162351D01*
X47297Y162354D01*
X47300Y162351D01*
X48000Y162351D01*
X48004Y162354D01*
G37*
G36*
X457015Y84162D02*
X457015Y84162D01*
X457026Y84158D01*
X457826Y84658D01*
X457832Y84674D01*
X457842Y84675D01*
X458142Y85175D01*
X458139Y85207D01*
X458146Y85218D01*
X457946Y85718D01*
X457944Y85719D01*
X457945Y85721D01*
X454445Y93221D01*
X454434Y93227D01*
X454435Y93235D01*
X454135Y93535D01*
X454123Y93536D01*
X454122Y93544D01*
X453522Y93844D01*
X453501Y93840D01*
X453492Y93849D01*
X452892Y93749D01*
X452882Y93738D01*
X452873Y93741D01*
X452273Y93341D01*
X452267Y93324D01*
X452256Y93322D01*
X451956Y92722D01*
X448656Y85922D01*
X448657Y85917D01*
X448653Y85916D01*
X448453Y85316D01*
X448460Y85297D01*
X448459Y85297D01*
X448460Y85296D01*
X448461Y85293D01*
X448454Y85282D01*
X448654Y84782D01*
X448671Y84772D01*
X448671Y84760D01*
X449371Y84260D01*
X449387Y84260D01*
X449392Y84251D01*
X449992Y84151D01*
X450011Y84161D01*
X450022Y84156D01*
X450622Y84456D01*
X450632Y84476D01*
X450644Y84478D01*
X450944Y85078D01*
X451530Y86251D01*
X454880Y86251D01*
X455259Y85871D01*
X455855Y84579D01*
X455870Y84572D01*
X455869Y84562D01*
X456369Y84162D01*
X456392Y84161D01*
X456400Y84151D01*
X457000Y84151D01*
X457015Y84162D01*
G37*
G36*
X434109Y58758D02*
X434109Y58758D01*
X434116Y58753D01*
X434716Y58953D01*
X434719Y58958D01*
X434722Y58956D01*
X435322Y59256D01*
X435323Y59259D01*
X435325Y59258D01*
X435825Y59558D01*
X435829Y59566D01*
X435835Y59565D01*
X436335Y60065D01*
X436336Y60072D01*
X436341Y60073D01*
X436741Y60673D01*
X436740Y60682D01*
X436747Y60684D01*
X436947Y61284D01*
X436943Y61295D01*
X436947Y61298D01*
X436947Y61299D01*
X436949Y61300D01*
X436949Y62000D01*
X436946Y62005D01*
X436949Y62008D01*
X436849Y62608D01*
X436841Y62615D01*
X436844Y62622D01*
X436544Y63222D01*
X436531Y63228D01*
X436532Y63238D01*
X435949Y63723D01*
X435949Y64076D01*
X436431Y64462D01*
X436434Y64476D01*
X436444Y64478D01*
X436744Y65078D01*
X436742Y65087D01*
X436747Y65091D01*
X436744Y65096D01*
X436749Y65100D01*
X436749Y65800D01*
X436746Y65804D01*
X436749Y65807D01*
X436649Y66507D01*
X436641Y66515D01*
X436644Y66522D01*
X436344Y67122D01*
X436334Y67127D01*
X436335Y67135D01*
X435836Y67634D01*
X434937Y68633D01*
X434908Y68638D01*
X434900Y68649D01*
X432800Y68649D01*
X432791Y68642D01*
X432784Y68647D01*
X432185Y68447D01*
X431486Y68247D01*
X431478Y68236D01*
X431469Y68238D01*
X430969Y67838D01*
X430968Y67834D01*
X430965Y67835D01*
X430465Y67335D01*
X430463Y67322D01*
X430455Y67319D01*
X430155Y66619D01*
X430157Y66612D01*
X430152Y66610D01*
X430052Y66110D01*
X430063Y66087D01*
X430058Y66075D01*
X430358Y65575D01*
X430372Y65569D01*
X430373Y65559D01*
X430973Y65159D01*
X430987Y65160D01*
X430992Y65151D01*
X431592Y65051D01*
X431598Y65055D01*
X431605Y65055D01*
X431618Y65065D01*
X431631Y65062D01*
X432131Y65462D01*
X432133Y65469D01*
X432138Y65469D01*
X432532Y65961D01*
X433112Y66251D01*
X433783Y66251D01*
X434251Y65876D01*
X434251Y65336D01*
X433689Y65148D01*
X432894Y65049D01*
X432885Y65040D01*
X432878Y65044D01*
X432478Y64844D01*
X432468Y64824D01*
X432456Y64822D01*
X432156Y64222D01*
X432160Y64203D01*
X432151Y64195D01*
X432251Y63295D01*
X432267Y63278D01*
X432265Y63265D01*
X432665Y62865D01*
X432686Y62862D01*
X432692Y62851D01*
X433292Y62751D01*
X433293Y62752D01*
X433293Y62751D01*
X433977Y62654D01*
X434454Y62176D01*
X434547Y61620D01*
X434076Y61244D01*
X433495Y61050D01*
X432814Y61148D01*
X432141Y61436D01*
X431947Y62114D01*
X431930Y62127D01*
X431930Y62139D01*
X431530Y62439D01*
X431512Y62439D01*
X431506Y62449D01*
X430706Y62549D01*
X430696Y62543D01*
X430692Y62543D01*
X430686Y62547D01*
X429986Y62347D01*
X429973Y62330D01*
X429961Y62330D01*
X429661Y61930D01*
X429661Y61921D01*
X429655Y61916D01*
X429661Y61908D01*
X429651Y61900D01*
X429651Y61200D01*
X429660Y61187D01*
X429656Y61178D01*
X429956Y60578D01*
X429960Y60576D01*
X429959Y60573D01*
X430359Y59973D01*
X430362Y59972D01*
X430362Y59969D01*
X430762Y59469D01*
X430774Y59466D01*
X430775Y59458D01*
X431275Y59158D01*
X431278Y59158D01*
X431278Y59156D01*
X431878Y58856D01*
X431889Y58858D01*
X431893Y58851D01*
X432593Y58751D01*
X432598Y58754D01*
X432600Y58751D01*
X434100Y58751D01*
X434109Y58758D01*
G37*
G36*
X455108Y58757D02*
X455108Y58757D01*
X455114Y58753D01*
X455814Y58953D01*
X455818Y58958D01*
X455822Y58956D01*
X456422Y59256D01*
X456423Y59259D01*
X456425Y59258D01*
X456925Y59558D01*
X456929Y59566D01*
X456935Y59565D01*
X457435Y60065D01*
X457436Y60077D01*
X457444Y60078D01*
X457744Y60678D01*
X457743Y60683D01*
X457747Y60684D01*
X457947Y61284D01*
X457945Y61291D01*
X457949Y61293D01*
X458049Y61993D01*
X458043Y62003D01*
X458049Y62008D01*
X457949Y62608D01*
X457938Y62618D01*
X457941Y62627D01*
X457541Y63227D01*
X457534Y63230D01*
X457535Y63235D01*
X457049Y63720D01*
X457049Y64076D01*
X457531Y64462D01*
X457536Y64481D01*
X457547Y64484D01*
X457747Y65084D01*
X457745Y65089D01*
X457748Y65091D01*
X457747Y65092D01*
X457749Y65093D01*
X457849Y65793D01*
X457842Y65806D01*
X457847Y65814D01*
X457647Y66514D01*
X457642Y66518D01*
X457644Y66522D01*
X457344Y67122D01*
X457337Y67125D01*
X457338Y67131D01*
X456938Y67631D01*
X456934Y67632D01*
X456935Y67635D01*
X455935Y68635D01*
X455908Y68639D01*
X455900Y68649D01*
X453900Y68649D01*
X453891Y68642D01*
X453884Y68647D01*
X453285Y68447D01*
X452586Y68247D01*
X452578Y68236D01*
X452569Y68238D01*
X452069Y67838D01*
X452068Y67834D01*
X452065Y67835D01*
X451565Y67335D01*
X451564Y67325D01*
X451557Y67324D01*
X451157Y66624D01*
X451159Y66613D01*
X451152Y66610D01*
X451052Y66110D01*
X451063Y66087D01*
X451058Y66075D01*
X451358Y65575D01*
X451374Y65568D01*
X451376Y65557D01*
X452076Y65157D01*
X452088Y65159D01*
X452092Y65151D01*
X452692Y65051D01*
X452698Y65055D01*
X452705Y65055D01*
X452718Y65065D01*
X452731Y65062D01*
X453231Y65462D01*
X453233Y65469D01*
X453238Y65469D01*
X453632Y65961D01*
X454212Y66251D01*
X454883Y66251D01*
X455351Y65876D01*
X455351Y65336D01*
X454789Y65148D01*
X453994Y65049D01*
X453987Y65042D01*
X453982Y65046D01*
X453482Y64846D01*
X453466Y64820D01*
X453453Y64816D01*
X453253Y64216D01*
X453258Y64201D01*
X453251Y64195D01*
X453351Y63295D01*
X453367Y63278D01*
X453365Y63265D01*
X453765Y62865D01*
X453785Y62862D01*
X453790Y62852D01*
X454290Y62752D01*
X454293Y62753D01*
X454294Y62751D01*
X455077Y62653D01*
X455551Y62180D01*
X455551Y61620D01*
X455174Y61244D01*
X454497Y61050D01*
X453815Y61148D01*
X453238Y61436D01*
X452945Y62119D01*
X452930Y62128D01*
X452930Y62139D01*
X452530Y62439D01*
X452512Y62439D01*
X452506Y62449D01*
X451706Y62549D01*
X451696Y62543D01*
X451692Y62543D01*
X451686Y62547D01*
X450986Y62347D01*
X450973Y62330D01*
X450961Y62330D01*
X450661Y61930D01*
X450661Y61921D01*
X450655Y61916D01*
X450661Y61908D01*
X450661Y61903D01*
X450651Y61893D01*
X450751Y61193D01*
X450756Y61188D01*
X450753Y61184D01*
X450953Y60584D01*
X450961Y60579D01*
X450959Y60573D01*
X451359Y59973D01*
X451366Y59970D01*
X451365Y59965D01*
X451865Y59465D01*
X451874Y59464D01*
X451875Y59458D01*
X452375Y59158D01*
X452378Y59158D01*
X452378Y59156D01*
X452978Y58856D01*
X452989Y58858D01*
X452993Y58851D01*
X453693Y58751D01*
X453698Y58754D01*
X453700Y58751D01*
X455100Y58751D01*
X455108Y58757D01*
G37*
G36*
X433304Y84154D02*
X433304Y84154D01*
X433307Y84151D01*
X434007Y84251D01*
X434015Y84259D01*
X434022Y84256D01*
X435222Y84856D01*
X435225Y84863D01*
X435231Y84862D01*
X435731Y85262D01*
X435733Y85272D01*
X435741Y85273D01*
X436141Y85873D01*
X436140Y85882D01*
X436147Y85884D01*
X436347Y86484D01*
X436343Y86495D01*
X436349Y86500D01*
X436349Y88000D01*
X436342Y88009D01*
X436347Y88016D01*
X436147Y88616D01*
X436136Y88623D01*
X436138Y88631D01*
X435738Y89131D01*
X435731Y89133D01*
X435731Y89138D01*
X435231Y89538D01*
X435223Y89539D01*
X435222Y89544D01*
X434622Y89844D01*
X434615Y89843D01*
X434614Y89847D01*
X433914Y90047D01*
X433912Y90047D01*
X433911Y90048D01*
X432620Y90346D01*
X432045Y90729D01*
X431952Y91286D01*
X432326Y91754D01*
X432995Y91850D01*
X433576Y91656D01*
X434168Y91162D01*
X434192Y91161D01*
X434200Y91151D01*
X434700Y91151D01*
X434713Y91160D01*
X434722Y91156D01*
X435322Y91456D01*
X435331Y91474D01*
X435343Y91476D01*
X435743Y92176D01*
X435740Y92193D01*
X435749Y92200D01*
X435749Y92700D01*
X435733Y92721D01*
X435735Y92735D01*
X434835Y93635D01*
X434817Y93637D01*
X434814Y93647D01*
X434114Y93847D01*
X434109Y93846D01*
X434107Y93849D01*
X432707Y94049D01*
X432698Y94044D01*
X432693Y94049D01*
X431993Y93949D01*
X431989Y93945D01*
X431986Y93947D01*
X431286Y93747D01*
X431281Y93740D01*
X431275Y93742D01*
X430775Y93442D01*
X430773Y93438D01*
X430769Y93438D01*
X430269Y93038D01*
X430267Y93028D01*
X430259Y93027D01*
X429859Y92427D01*
X429859Y92423D01*
X429856Y92422D01*
X429556Y91822D01*
X429559Y91806D01*
X429551Y91800D01*
X429551Y90500D01*
X429557Y90492D01*
X429553Y90486D01*
X429753Y89786D01*
X429764Y89778D01*
X429762Y89769D01*
X430162Y89269D01*
X430169Y89267D01*
X430169Y89262D01*
X430669Y88862D01*
X430677Y88861D01*
X430678Y88856D01*
X431278Y88556D01*
X431280Y88556D01*
X431281Y88555D01*
X431981Y88255D01*
X431984Y88256D01*
X431984Y88253D01*
X432584Y88053D01*
X432591Y88055D01*
X432593Y88051D01*
X433285Y87952D01*
X433856Y87667D01*
X433948Y87110D01*
X433665Y86638D01*
X433092Y86351D01*
X432418Y86447D01*
X431830Y86839D01*
X431232Y87338D01*
X431220Y87338D01*
X431218Y87346D01*
X430718Y87546D01*
X430706Y87542D01*
X430701Y87549D01*
X430699Y87549D01*
X430695Y87546D01*
X430692Y87549D01*
X430092Y87449D01*
X430075Y87431D01*
X430062Y87432D01*
X429562Y86832D01*
X429562Y86824D01*
X429561Y86824D01*
X429562Y86823D01*
X429562Y86820D01*
X429554Y86818D01*
X429354Y86318D01*
X429363Y86288D01*
X429357Y86276D01*
X429757Y85576D01*
X429766Y85572D01*
X429765Y85565D01*
X430165Y85165D01*
X430169Y85165D01*
X430169Y85162D01*
X430669Y84762D01*
X430673Y84761D01*
X430673Y84759D01*
X431273Y84359D01*
X431284Y84360D01*
X431286Y84353D01*
X431986Y84153D01*
X431996Y84156D01*
X432000Y84151D01*
X433300Y84151D01*
X433304Y84154D01*
G37*
G36*
X434805Y109554D02*
X434805Y109554D01*
X434808Y109551D01*
X435408Y109651D01*
X435415Y109659D01*
X435422Y109656D01*
X436622Y110256D01*
X436625Y110263D01*
X436631Y110262D01*
X437131Y110662D01*
X437133Y110672D01*
X437141Y110673D01*
X437541Y111273D01*
X437540Y111282D01*
X437547Y111284D01*
X437747Y111884D01*
X437745Y111891D01*
X437749Y111893D01*
X437849Y112593D01*
X437844Y112601D01*
X437849Y112606D01*
X437749Y113406D01*
X437744Y113411D01*
X437747Y113416D01*
X437547Y114016D01*
X437536Y114023D01*
X437538Y114031D01*
X437138Y114531D01*
X437131Y114533D01*
X437131Y114538D01*
X436631Y114938D01*
X436623Y114939D01*
X436622Y114944D01*
X436022Y115244D01*
X436015Y115243D01*
X436014Y115247D01*
X435314Y115447D01*
X435312Y115447D01*
X435311Y115448D01*
X434022Y115745D01*
X433542Y116129D01*
X433355Y116690D01*
X433726Y117154D01*
X434395Y117250D01*
X434976Y117056D01*
X435568Y116562D01*
X435592Y116561D01*
X435600Y116551D01*
X436200Y116551D01*
X436215Y116562D01*
X436225Y116558D01*
X436725Y116858D01*
X436732Y116874D01*
X436743Y116876D01*
X437143Y117576D01*
X437141Y117587D01*
X437148Y117590D01*
X437248Y118090D01*
X437233Y118122D01*
X437235Y118135D01*
X436735Y118635D01*
X436731Y118635D01*
X436731Y118638D01*
X436231Y119038D01*
X436217Y119039D01*
X436214Y119047D01*
X435514Y119247D01*
X435509Y119246D01*
X435507Y119249D01*
X434107Y119449D01*
X434098Y119444D01*
X434093Y119449D01*
X433393Y119349D01*
X433389Y119345D01*
X433386Y119347D01*
X432686Y119147D01*
X432681Y119140D01*
X432675Y119142D01*
X432175Y118842D01*
X432173Y118838D01*
X432169Y118838D01*
X431669Y118438D01*
X431667Y118428D01*
X431659Y118427D01*
X431259Y117827D01*
X431260Y117818D01*
X431253Y117816D01*
X431053Y117216D01*
X431055Y117210D01*
X431051Y117208D01*
X430951Y116608D01*
X430957Y116598D01*
X430951Y116593D01*
X431051Y115893D01*
X431055Y115889D01*
X431053Y115886D01*
X431253Y115186D01*
X431260Y115181D01*
X431258Y115175D01*
X431558Y114675D01*
X431569Y114670D01*
X431569Y114662D01*
X432069Y114262D01*
X432077Y114261D01*
X432078Y114256D01*
X432678Y113956D01*
X432680Y113956D01*
X432681Y113955D01*
X433381Y113655D01*
X433384Y113656D01*
X433384Y113653D01*
X433984Y113453D01*
X433991Y113455D01*
X433993Y113451D01*
X434685Y113352D01*
X435256Y113067D01*
X435349Y112505D01*
X435162Y112037D01*
X434493Y111751D01*
X433818Y111847D01*
X433230Y112239D01*
X432632Y112738D01*
X432620Y112738D01*
X432618Y112746D01*
X432118Y112946D01*
X432106Y112942D01*
X432101Y112949D01*
X432099Y112949D01*
X432095Y112946D01*
X432092Y112949D01*
X431492Y112849D01*
X431475Y112831D01*
X431462Y112832D01*
X430962Y112232D01*
X430962Y112224D01*
X430961Y112224D01*
X430962Y112223D01*
X430961Y112214D01*
X430952Y112210D01*
X430852Y111710D01*
X430861Y111691D01*
X430855Y111681D01*
X431155Y110981D01*
X431166Y110974D01*
X431165Y110965D01*
X431565Y110565D01*
X431572Y110564D01*
X431573Y110559D01*
X432171Y110160D01*
X432669Y109762D01*
X432683Y109761D01*
X432686Y109753D01*
X433386Y109553D01*
X433396Y109556D01*
X433400Y109551D01*
X434800Y109551D01*
X434805Y109554D01*
G37*
G36*
X445308Y109557D02*
X445308Y109557D01*
X445314Y109553D01*
X446714Y109953D01*
X446719Y109960D01*
X446725Y109958D01*
X447225Y110258D01*
X447227Y110262D01*
X447231Y110262D01*
X447731Y110662D01*
X447736Y110681D01*
X447747Y110684D01*
X447947Y111284D01*
X447939Y111308D01*
X447945Y111319D01*
X447645Y112019D01*
X447634Y112026D01*
X447635Y112035D01*
X447135Y112535D01*
X447115Y112538D01*
X447110Y112548D01*
X446610Y112648D01*
X446585Y112637D01*
X446573Y112641D01*
X445977Y112244D01*
X445290Y111949D01*
X444012Y111949D01*
X443425Y112243D01*
X442834Y112637D01*
X442444Y113124D01*
X442248Y113711D01*
X442150Y114400D01*
X442248Y115089D01*
X442445Y115678D01*
X442834Y116262D01*
X443422Y116556D01*
X444015Y116853D01*
X444601Y116950D01*
X445289Y116852D01*
X445880Y116655D01*
X446576Y116257D01*
X446593Y116260D01*
X446600Y116251D01*
X447000Y116251D01*
X447021Y116267D01*
X447035Y116265D01*
X447535Y116765D01*
X447535Y116769D01*
X447538Y116768D01*
X448038Y117368D01*
X448039Y117398D01*
X448049Y117408D01*
X447949Y118008D01*
X447933Y118023D01*
X447935Y118035D01*
X447435Y118535D01*
X447423Y118536D01*
X447422Y118544D01*
X446222Y119144D01*
X446211Y119142D01*
X446207Y119149D01*
X444807Y119349D01*
X444802Y119346D01*
X444800Y119349D01*
X444200Y119349D01*
X444196Y119346D01*
X444193Y119349D01*
X443493Y119249D01*
X443488Y119244D01*
X443484Y119247D01*
X442884Y119047D01*
X442881Y119042D01*
X442878Y119044D01*
X442278Y118744D01*
X442276Y118740D01*
X442273Y118741D01*
X441673Y118341D01*
X441672Y118338D01*
X441669Y118338D01*
X441169Y117938D01*
X441168Y117934D01*
X441165Y117935D01*
X440665Y117435D01*
X440664Y117423D01*
X440656Y117422D01*
X440056Y116222D01*
X440057Y116217D01*
X440053Y116216D01*
X439853Y115616D01*
X439855Y115609D01*
X439851Y115607D01*
X439751Y114907D01*
X439754Y114902D01*
X439751Y114900D01*
X439751Y114200D01*
X439754Y114196D01*
X439751Y114193D01*
X439851Y113493D01*
X439852Y113492D01*
X439851Y113492D01*
X439951Y112892D01*
X439958Y112886D01*
X439955Y112881D01*
X440255Y112181D01*
X440263Y112176D01*
X440262Y112169D01*
X441062Y111169D01*
X441066Y111168D01*
X441065Y111165D01*
X441565Y110665D01*
X441569Y110665D01*
X441569Y110662D01*
X442069Y110262D01*
X442077Y110261D01*
X442078Y110256D01*
X442678Y109956D01*
X442683Y109957D01*
X442684Y109953D01*
X443284Y109753D01*
X443286Y109754D01*
X443286Y109753D01*
X443986Y109553D01*
X443996Y109556D01*
X444000Y109551D01*
X445300Y109551D01*
X445308Y109557D01*
G37*
G36*
X14508Y165257D02*
X14508Y165257D01*
X14514Y165253D01*
X15212Y165452D01*
X16012Y165652D01*
X16021Y165663D01*
X16030Y165661D01*
X16429Y165960D01*
X17027Y166359D01*
X17037Y166386D01*
X17049Y166392D01*
X17149Y166992D01*
X17140Y167009D01*
X17145Y167019D01*
X16845Y167719D01*
X16834Y167726D01*
X16835Y167735D01*
X16335Y168235D01*
X16316Y168237D01*
X16312Y168248D01*
X15912Y168348D01*
X15888Y168338D01*
X15876Y168343D01*
X15177Y167944D01*
X14588Y167649D01*
X13310Y167649D01*
X12626Y167943D01*
X12133Y168337D01*
X11643Y168827D01*
X11448Y169411D01*
X11350Y170100D01*
X11448Y170789D01*
X11645Y171378D01*
X12034Y171962D01*
X12622Y172256D01*
X13215Y172553D01*
X13801Y172650D01*
X14589Y172552D01*
X15178Y172355D01*
X15773Y171959D01*
X15793Y171960D01*
X15800Y171951D01*
X16200Y171951D01*
X16219Y171965D01*
X16232Y171962D01*
X16832Y172462D01*
X16834Y172472D01*
X16841Y172473D01*
X17241Y173073D01*
X17239Y173098D01*
X17249Y173108D01*
X17149Y173708D01*
X17133Y173723D01*
X17135Y173735D01*
X16635Y174235D01*
X16626Y174236D01*
X16625Y174242D01*
X16125Y174542D01*
X16120Y174542D01*
X16119Y174545D01*
X15419Y174845D01*
X15410Y174843D01*
X15407Y174849D01*
X14708Y174949D01*
X14108Y175049D01*
X14103Y175046D01*
X14100Y175049D01*
X13400Y175049D01*
X13395Y175046D01*
X13392Y175049D01*
X12792Y174949D01*
X12789Y174945D01*
X12786Y174947D01*
X12086Y174747D01*
X12082Y174742D01*
X12078Y174744D01*
X11478Y174444D01*
X11476Y174440D01*
X11473Y174441D01*
X10873Y174041D01*
X10872Y174038D01*
X10869Y174038D01*
X10369Y173638D01*
X10367Y173631D01*
X10362Y173631D01*
X9962Y173131D01*
X9961Y173127D01*
X9959Y173127D01*
X9559Y172527D01*
X9559Y172523D01*
X9556Y172522D01*
X9256Y171922D01*
X9257Y171917D01*
X9253Y171916D01*
X9053Y171316D01*
X9055Y171309D01*
X9051Y171307D01*
X8951Y170607D01*
X8954Y170602D01*
X8951Y170600D01*
X8951Y169900D01*
X8954Y169896D01*
X8951Y169893D01*
X9051Y169193D01*
X9056Y169188D01*
X9053Y169184D01*
X9253Y168585D01*
X9453Y167886D01*
X9464Y167878D01*
X9462Y167869D01*
X10262Y166869D01*
X10266Y166868D01*
X10265Y166865D01*
X10765Y166365D01*
X10769Y166365D01*
X10769Y166362D01*
X11269Y165962D01*
X11279Y165961D01*
X11281Y165955D01*
X11981Y165655D01*
X11984Y165656D01*
X11984Y165653D01*
X13184Y165253D01*
X13195Y165257D01*
X13200Y165251D01*
X14500Y165251D01*
X14508Y165257D01*
G37*
G36*
X31609Y165258D02*
X31609Y165258D01*
X31616Y165253D01*
X32216Y165453D01*
X32225Y165467D01*
X32235Y165465D01*
X32690Y165921D01*
X32958Y165475D01*
X32978Y165466D01*
X32982Y165454D01*
X33482Y165254D01*
X33495Y165258D01*
X33500Y165251D01*
X34400Y165251D01*
X34418Y165264D01*
X34430Y165261D01*
X34830Y165561D01*
X34834Y165577D01*
X34841Y165582D01*
X34840Y165584D01*
X34847Y165586D01*
X35047Y166286D01*
X35044Y166296D01*
X35049Y166300D01*
X35049Y171100D01*
X35042Y171109D01*
X35047Y171116D01*
X34847Y171716D01*
X34830Y171727D01*
X34831Y171738D01*
X34331Y172138D01*
X34309Y172139D01*
X34304Y172146D01*
X34303Y172146D01*
X34300Y172149D01*
X33600Y172149D01*
X33595Y172146D01*
X33589Y172146D01*
X33586Y172147D01*
X32886Y171947D01*
X32871Y171927D01*
X32863Y171921D01*
X32854Y171918D01*
X32682Y171488D01*
X32635Y171535D01*
X32631Y171535D01*
X32631Y171538D01*
X32131Y171938D01*
X32117Y171939D01*
X32114Y171947D01*
X31414Y172147D01*
X31409Y172146D01*
X31403Y172146D01*
X31400Y172149D01*
X30700Y172149D01*
X30695Y172146D01*
X30690Y172146D01*
X30688Y172144D01*
X30684Y172147D01*
X30084Y171947D01*
X30081Y171942D01*
X30078Y171944D01*
X29478Y171644D01*
X29473Y171634D01*
X29465Y171635D01*
X28965Y171135D01*
X28964Y171128D01*
X28959Y171127D01*
X28559Y170527D01*
X28559Y170523D01*
X28556Y170522D01*
X28256Y169922D01*
X28257Y169917D01*
X28253Y169916D01*
X28053Y169316D01*
X28057Y169306D01*
X28053Y169303D01*
X28053Y169302D01*
X28051Y169300D01*
X28051Y167900D01*
X28058Y167891D01*
X28053Y167884D01*
X28253Y167284D01*
X28261Y167279D01*
X28259Y167273D01*
X28659Y166673D01*
X28662Y166672D01*
X28662Y166669D01*
X29062Y166169D01*
X29069Y166167D01*
X29068Y166162D01*
X29668Y165662D01*
X29677Y165662D01*
X29678Y165656D01*
X30278Y165356D01*
X30289Y165358D01*
X30292Y165351D01*
X30892Y165251D01*
X30897Y165254D01*
X30900Y165251D01*
X31600Y165251D01*
X31609Y165258D01*
G37*
G36*
X20909Y165258D02*
X20909Y165258D01*
X20916Y165253D01*
X21516Y165453D01*
X21533Y165478D01*
X21546Y165482D01*
X21746Y165982D01*
X21742Y165995D01*
X21749Y166000D01*
X21749Y168693D01*
X21941Y169366D01*
X22515Y169652D01*
X23190Y169749D01*
X23662Y169465D01*
X23951Y168888D01*
X23951Y166100D01*
X23958Y166091D01*
X23953Y166084D01*
X24153Y165484D01*
X24180Y165466D01*
X24184Y165453D01*
X24784Y165253D01*
X24795Y165257D01*
X24800Y165251D01*
X25600Y165251D01*
X25615Y165262D01*
X25625Y165258D01*
X26125Y165558D01*
X26133Y165577D01*
X26140Y165582D01*
X26137Y165586D01*
X26149Y165592D01*
X26249Y166192D01*
X26246Y166197D01*
X26249Y166200D01*
X26249Y169000D01*
X26246Y169004D01*
X26249Y169007D01*
X26149Y169707D01*
X26144Y169712D01*
X26147Y169716D01*
X25947Y170316D01*
X25942Y170319D01*
X25944Y170322D01*
X25644Y170922D01*
X25634Y170927D01*
X25635Y170935D01*
X25135Y171435D01*
X25131Y171435D01*
X25131Y171438D01*
X24631Y171838D01*
X24617Y171839D01*
X24614Y171847D01*
X23914Y172047D01*
X23909Y172046D01*
X23907Y172049D01*
X23207Y172149D01*
X23202Y172146D01*
X23195Y172146D01*
X23192Y172149D01*
X22592Y172049D01*
X22582Y172038D01*
X22573Y172041D01*
X21978Y171645D01*
X21749Y171568D01*
X21749Y174200D01*
X21746Y174204D01*
X21749Y174207D01*
X21649Y174907D01*
X21630Y174926D01*
X21630Y174939D01*
X21230Y175239D01*
X21211Y175239D01*
X21205Y175249D01*
X20305Y175349D01*
X20302Y175347D01*
X20293Y175347D01*
X20289Y175344D01*
X20284Y175347D01*
X19684Y175147D01*
X19670Y175125D01*
X19660Y175118D01*
X19653Y175116D01*
X19453Y174516D01*
X19457Y174505D01*
X19451Y174500D01*
X19451Y165700D01*
X19470Y165675D01*
X19469Y165662D01*
X19969Y165262D01*
X19992Y165261D01*
X20000Y165251D01*
X20900Y165251D01*
X20909Y165258D01*
G37*
G36*
X444208Y58851D02*
X444208Y58851D01*
X444220Y58864D01*
X444231Y58862D01*
X444731Y59262D01*
X444733Y59272D01*
X444741Y59273D01*
X445141Y59873D01*
X445141Y59878D01*
X445144Y59879D01*
X448344Y66479D01*
X448344Y66480D01*
X448345Y66481D01*
X448645Y67181D01*
X448639Y67207D01*
X448646Y67218D01*
X448446Y67718D01*
X448431Y67727D01*
X448432Y67738D01*
X447832Y68238D01*
X447818Y68238D01*
X447816Y68247D01*
X447216Y68447D01*
X447195Y68440D01*
X447184Y68447D01*
X446584Y68247D01*
X446569Y68224D01*
X446556Y68221D01*
X443677Y62167D01*
X443538Y62236D01*
X441245Y67520D01*
X441238Y67524D01*
X441239Y67530D01*
X440939Y67930D01*
X440934Y67931D01*
X440935Y67935D01*
X440435Y68435D01*
X440402Y68439D01*
X440392Y68449D01*
X439792Y68349D01*
X439783Y68339D01*
X439776Y68343D01*
X439076Y67943D01*
X439069Y67927D01*
X439058Y67925D01*
X438758Y67425D01*
X438761Y67396D01*
X438753Y67384D01*
X438953Y66784D01*
X438958Y66782D01*
X438956Y66778D01*
X442556Y59478D01*
X442563Y59475D01*
X442562Y59469D01*
X442962Y58969D01*
X442981Y58964D01*
X442984Y58953D01*
X443584Y58753D01*
X443600Y58759D01*
X443608Y58751D01*
X444208Y58851D01*
G37*
%LPC*%
G36*
X201158Y47593D02*
X201158Y47593D01*
X201537Y48067D01*
X202035Y48565D01*
X202036Y48574D01*
X202042Y48575D01*
X202342Y49075D01*
X202341Y49084D01*
X202347Y49086D01*
X202350Y49097D01*
X202392Y49244D01*
X202393Y49244D01*
X202392Y49244D01*
X202435Y49392D01*
X202449Y49441D01*
X202491Y49589D01*
X202533Y49737D01*
X202547Y49786D01*
X202544Y49796D01*
X202549Y49800D01*
X202549Y50500D01*
X202542Y50509D01*
X202547Y50516D01*
X202347Y51116D01*
X202339Y51121D01*
X202341Y51127D01*
X201941Y51727D01*
X201931Y51731D01*
X201931Y51738D01*
X201431Y52138D01*
X201423Y52139D01*
X201422Y52144D01*
X200822Y52444D01*
X200811Y52442D01*
X200807Y52449D01*
X200107Y52549D01*
X200102Y52546D01*
X200100Y52549D01*
X199400Y52549D01*
X199395Y52546D01*
X199392Y52549D01*
X198792Y52449D01*
X198751Y52405D01*
X198754Y52403D01*
X198751Y52400D01*
X198751Y47738D01*
X196635Y47198D01*
X196549Y53597D01*
X196647Y54281D01*
X196926Y54653D01*
X198102Y54751D01*
X200197Y54751D01*
X200892Y54651D01*
X201485Y54553D01*
X202673Y53958D01*
X203167Y53563D01*
X203662Y53069D01*
X204058Y52474D01*
X204356Y51978D01*
X204652Y51286D01*
X204751Y50696D01*
X204751Y50003D01*
X204552Y48611D01*
X204355Y48022D01*
X203960Y47429D01*
X203563Y46933D01*
X203067Y46437D01*
X202573Y46042D01*
X202023Y45767D01*
X201158Y47593D01*
G37*
%LPD*%
%LPC*%
G36*
X185323Y45644D02*
X185323Y45644D01*
X184749Y46026D01*
X184749Y46493D01*
X184946Y47182D01*
X188244Y53878D01*
X188538Y54466D01*
X189115Y54851D01*
X189783Y54851D01*
X190261Y54468D01*
X190556Y53878D01*
X193854Y47182D01*
X194051Y46493D01*
X194051Y46023D01*
X193476Y45544D01*
X192801Y45352D01*
X192233Y45541D01*
X191943Y46023D01*
X191344Y47222D01*
X191322Y47233D01*
X191318Y47246D01*
X190840Y47437D01*
X190247Y49414D01*
X190242Y49418D01*
X190244Y49422D01*
X189644Y50622D01*
X189624Y50632D01*
X189622Y50644D01*
X189222Y50844D01*
X189164Y50833D01*
X189166Y50822D01*
X189155Y50819D01*
X188655Y49619D01*
X188655Y49617D01*
X188654Y49616D01*
X188656Y49612D01*
X188666Y49573D01*
X188665Y49565D01*
X188937Y49294D01*
X187589Y47289D01*
X187482Y47246D01*
X187469Y47224D01*
X187456Y47222D01*
X187200Y46710D01*
X186330Y45416D01*
X186005Y45351D01*
X185323Y45644D01*
G37*
%LPD*%
G36*
X57908Y165257D02*
X57908Y165257D01*
X57914Y165253D01*
X58614Y165453D01*
X58618Y165458D01*
X58622Y165456D01*
X59222Y165756D01*
X59230Y165772D01*
X59241Y165773D01*
X59441Y166073D01*
X59440Y166086D01*
X59448Y166090D01*
X59548Y166590D01*
X59538Y166612D01*
X59543Y166624D01*
X59143Y167324D01*
X59127Y167331D01*
X59125Y167342D01*
X58625Y167642D01*
X58597Y167639D01*
X58586Y167647D01*
X57886Y167447D01*
X57885Y167446D01*
X57884Y167447D01*
X57292Y167249D01*
X56608Y167249D01*
X56027Y167443D01*
X55588Y167882D01*
X56009Y168051D01*
X58700Y168051D01*
X58710Y168058D01*
X58715Y168058D01*
X58716Y168059D01*
X58722Y168056D01*
X59322Y168356D01*
X59325Y168363D01*
X59331Y168362D01*
X59831Y168762D01*
X59835Y168777D01*
X59843Y168783D01*
X59838Y168790D01*
X59838Y168792D01*
X59849Y168800D01*
X59849Y170300D01*
X59840Y170313D01*
X59844Y170322D01*
X59544Y170922D01*
X59537Y170925D01*
X59538Y170931D01*
X59138Y171431D01*
X59134Y171432D01*
X59135Y171435D01*
X58635Y171935D01*
X58626Y171936D01*
X58625Y171942D01*
X58125Y172242D01*
X58111Y172241D01*
X58107Y172249D01*
X57407Y172349D01*
X57406Y172348D01*
X57406Y172349D01*
X56606Y172449D01*
X56598Y172444D01*
X56593Y172449D01*
X55893Y172349D01*
X55888Y172344D01*
X55884Y172347D01*
X55284Y172147D01*
X55281Y172142D01*
X55278Y172144D01*
X54678Y171844D01*
X54675Y171837D01*
X54669Y171838D01*
X53669Y171038D01*
X53666Y171024D01*
X53656Y171022D01*
X53356Y170422D01*
X53357Y170417D01*
X53353Y170416D01*
X53153Y169816D01*
X53155Y169809D01*
X53151Y169807D01*
X53051Y169107D01*
X53054Y169102D01*
X53051Y169100D01*
X53051Y168400D01*
X53054Y168396D01*
X53051Y168393D01*
X53151Y167693D01*
X53156Y167688D01*
X53153Y167684D01*
X53353Y167084D01*
X53361Y167079D01*
X53359Y167073D01*
X53759Y166473D01*
X53762Y166472D01*
X53762Y166469D01*
X54162Y165969D01*
X54172Y165967D01*
X54173Y165959D01*
X54773Y165559D01*
X54784Y165560D01*
X54786Y165553D01*
X55486Y165353D01*
X55490Y165354D01*
X55492Y165351D01*
X56092Y165251D01*
X56097Y165254D01*
X56100Y165251D01*
X57900Y165251D01*
X57908Y165257D01*
G37*
%LPC*%
G36*
X207134Y45542D02*
X207134Y45542D01*
X206948Y45915D01*
X206849Y46603D01*
X206849Y50555D01*
X209098Y50451D01*
X209104Y50455D01*
X209169Y50452D01*
X209256Y50278D01*
X209293Y50260D01*
X209300Y50251D01*
X210700Y50251D01*
X210705Y50254D01*
X210708Y50251D01*
X211308Y50351D01*
X211320Y50364D01*
X211331Y50362D01*
X211831Y50762D01*
X211837Y50787D01*
X211849Y50793D01*
X211949Y51493D01*
X211941Y51507D01*
X211947Y51516D01*
X211757Y52085D01*
X213390Y53526D01*
X213757Y52975D01*
X214052Y52385D01*
X214151Y51697D01*
X214151Y51004D01*
X214052Y50414D01*
X213757Y49726D01*
X213362Y49231D01*
X213361Y49223D01*
X213359Y49222D01*
X213361Y49219D01*
X213361Y49214D01*
X213352Y49210D01*
X213252Y48710D01*
X213262Y48689D01*
X213256Y48678D01*
X213855Y47480D01*
X214053Y46984D01*
X214248Y46303D01*
X214061Y45834D01*
X213384Y45447D01*
X212710Y45351D01*
X212239Y45634D01*
X211545Y47220D01*
X211540Y47222D01*
X211542Y47226D01*
X211042Y48026D01*
X211008Y48039D01*
X211000Y48049D01*
X209700Y48049D01*
X209691Y48042D01*
X209684Y48047D01*
X209084Y47847D01*
X209054Y47803D01*
X209051Y47800D01*
X209051Y45820D01*
X208677Y45447D01*
X207903Y45350D01*
X207134Y45542D01*
G37*
%LPD*%
G36*
X456004Y109554D02*
X456004Y109554D01*
X456007Y109551D01*
X456707Y109651D01*
X456729Y109673D01*
X456742Y109675D01*
X457042Y110175D01*
X457042Y110178D01*
X457040Y110193D01*
X457049Y110200D01*
X457049Y110900D01*
X457035Y110918D01*
X457038Y110931D01*
X456638Y111431D01*
X456613Y111437D01*
X456607Y111449D01*
X455907Y111549D01*
X455902Y111546D01*
X455900Y111549D01*
X452549Y111549D01*
X452549Y118200D01*
X452546Y118205D01*
X452549Y118208D01*
X452449Y118808D01*
X452425Y118831D01*
X452422Y118844D01*
X451822Y119144D01*
X451806Y119141D01*
X451800Y119149D01*
X450900Y119149D01*
X450885Y119138D01*
X450875Y119142D01*
X450375Y118842D01*
X450366Y118822D01*
X450354Y118818D01*
X450154Y118318D01*
X450158Y118305D01*
X450151Y118300D01*
X450151Y110800D01*
X450154Y110796D01*
X450151Y110793D01*
X450251Y110093D01*
X450264Y110081D01*
X450261Y110070D01*
X450561Y109670D01*
X450587Y109663D01*
X450593Y109651D01*
X451293Y109551D01*
X451298Y109554D01*
X451300Y109551D01*
X456000Y109551D01*
X456004Y109554D01*
G37*
G36*
X39006Y165351D02*
X39006Y165351D01*
X39019Y165364D01*
X39030Y165361D01*
X39430Y165661D01*
X39434Y165677D01*
X39439Y165681D01*
X39436Y165685D01*
X39439Y165692D01*
X39449Y165700D01*
X39449Y169088D01*
X39737Y169663D01*
X40308Y169949D01*
X40889Y169852D01*
X41586Y169653D01*
X41618Y169665D01*
X41631Y169662D01*
X42131Y170062D01*
X42135Y170078D01*
X42145Y170081D01*
X42445Y170781D01*
X42442Y170794D01*
X42449Y170800D01*
X42449Y171400D01*
X42440Y171413D01*
X42444Y171422D01*
X42144Y172022D01*
X42113Y172037D01*
X42107Y172049D01*
X41408Y172149D01*
X40808Y172249D01*
X40800Y172244D01*
X40788Y172244D01*
X40786Y172242D01*
X40781Y172245D01*
X40081Y171945D01*
X40076Y171937D01*
X40069Y171938D01*
X39604Y171566D01*
X39335Y171835D01*
X39330Y171836D01*
X39330Y171839D01*
X38930Y172139D01*
X38910Y172139D01*
X38905Y172146D01*
X38903Y172146D01*
X38900Y172149D01*
X38000Y172149D01*
X37995Y172146D01*
X37990Y172146D01*
X37988Y172144D01*
X37984Y172147D01*
X37384Y171947D01*
X37371Y171927D01*
X37358Y171917D01*
X37353Y171916D01*
X37153Y171316D01*
X37157Y171305D01*
X37151Y171300D01*
X37151Y165900D01*
X37162Y165885D01*
X37158Y165875D01*
X37458Y165375D01*
X37486Y165363D01*
X37493Y165351D01*
X38193Y165251D01*
X38201Y165256D01*
X38206Y165251D01*
X39006Y165351D01*
G37*
%LPC*%
G36*
X206849Y50656D02*
X206849Y50656D01*
X206849Y54091D01*
X207039Y54564D01*
X207612Y54851D01*
X211092Y54851D01*
X211681Y54654D01*
X212277Y54356D01*
X212970Y53961D01*
X213327Y53604D01*
X211693Y52258D01*
X211122Y52544D01*
X211111Y52542D01*
X211107Y52549D01*
X210407Y52649D01*
X210402Y52646D01*
X210400Y52649D01*
X209800Y52649D01*
X209796Y52646D01*
X209793Y52649D01*
X209093Y52549D01*
X209051Y52506D01*
X209055Y52503D01*
X209051Y52500D01*
X209051Y50556D01*
X206849Y50656D01*
G37*
%LPD*%
%LPC*%
G36*
X454746Y35718D02*
X454746Y35718D01*
X454705Y35743D01*
X454700Y35749D01*
X452740Y35749D01*
X452649Y36205D01*
X452649Y40280D01*
X452920Y40551D01*
X454288Y40551D01*
X454878Y40256D01*
X455466Y39962D01*
X455857Y39375D01*
X456152Y38785D01*
X456250Y38101D01*
X456153Y37515D01*
X455857Y36925D01*
X455463Y36334D01*
X454969Y35938D01*
X454968Y35934D01*
X454965Y35935D01*
X454765Y35735D01*
X454759Y35693D01*
X454757Y35689D01*
X454746Y35718D01*
G37*
%LPD*%
%LPC*%
G36*
X443046Y86518D02*
X443046Y86518D01*
X443005Y86543D01*
X443000Y86549D01*
X441040Y86549D01*
X440949Y87005D01*
X440949Y91080D01*
X441220Y91351D01*
X442588Y91351D01*
X443178Y91056D01*
X443766Y90762D01*
X444155Y90178D01*
X444352Y89589D01*
X444450Y88901D01*
X444352Y88312D01*
X444156Y87724D01*
X443663Y87133D01*
X443065Y86535D01*
X443059Y86493D01*
X443057Y86489D01*
X443046Y86518D01*
G37*
%LPD*%
%LPC*%
G36*
X197214Y45349D02*
X197214Y45349D01*
X196744Y45631D01*
X196649Y46105D01*
X196636Y47083D01*
X198901Y47650D01*
X199390Y47552D01*
X199397Y47555D01*
X199400Y47551D01*
X200970Y47551D01*
X201933Y45722D01*
X201385Y45448D01*
X200697Y45349D01*
X197214Y45349D01*
G37*
%LPD*%
%LPC*%
G36*
X31214Y167649D02*
X31214Y167649D01*
X30728Y167941D01*
X30349Y168225D01*
X30349Y168888D01*
X30637Y169463D01*
X31212Y169751D01*
X31883Y169751D01*
X32357Y169371D01*
X32548Y168701D01*
X32357Y168127D01*
X31880Y167649D01*
X31214Y167649D01*
G37*
%LPD*%
%LPC*%
G36*
X189026Y49251D02*
X189026Y49251D01*
X189600Y49251D01*
X189605Y49254D01*
X189608Y49251D01*
X190163Y49344D01*
X190637Y47449D01*
X188000Y47449D01*
X187989Y47441D01*
X187982Y47446D01*
X187751Y47353D01*
X189026Y49251D01*
G37*
%LPD*%
%LPC*%
G36*
X47217Y167849D02*
X47217Y167849D01*
X46733Y168237D01*
X46549Y168420D01*
X46549Y169088D01*
X46837Y169663D01*
X47408Y169949D01*
X48077Y169854D01*
X48554Y169376D01*
X48649Y168808D01*
X48361Y168232D01*
X47883Y167849D01*
X47217Y167849D01*
G37*
%LPD*%
%LPC*%
G36*
X452830Y88249D02*
X452830Y88249D01*
X452655Y88600D01*
X453244Y89778D01*
X453243Y89783D01*
X453247Y89784D01*
X453307Y89966D01*
X453854Y88782D01*
X454032Y88249D01*
X452830Y88249D01*
G37*
%LPD*%
%LPC*%
G36*
X55748Y169312D02*
X55748Y169312D01*
X55746Y169314D01*
X55747Y169316D01*
X55656Y169587D01*
X56127Y170057D01*
X56705Y170250D01*
X57363Y170156D01*
X57541Y169622D01*
X57086Y169349D01*
X55800Y169349D01*
X55753Y169313D01*
X55758Y169306D01*
X55754Y169303D01*
X55758Y169298D01*
X55753Y169293D01*
X55748Y169312D01*
G37*
%LPD*%
%LPC*%
G36*
X186782Y45912D02*
X186782Y45912D01*
X186470Y45444D01*
X186467Y45444D01*
X186782Y45912D01*
G37*
%LPD*%
D10*
X240260Y58636D02*
X240260Y41364D01*
X222480Y61176D02*
X222380Y61174D01*
X222281Y61168D01*
X222181Y61158D01*
X222083Y61145D01*
X221984Y61127D01*
X221887Y61106D01*
X221791Y61081D01*
X221695Y61052D01*
X221601Y61019D01*
X221508Y60983D01*
X221417Y60943D01*
X221327Y60899D01*
X221239Y60852D01*
X221153Y60802D01*
X221069Y60748D01*
X220987Y60691D01*
X220908Y60631D01*
X220830Y60567D01*
X220756Y60501D01*
X220684Y60432D01*
X220615Y60360D01*
X220549Y60286D01*
X220485Y60208D01*
X220425Y60129D01*
X220368Y60047D01*
X220314Y59963D01*
X220264Y59877D01*
X220217Y59789D01*
X220173Y59699D01*
X220133Y59608D01*
X220097Y59515D01*
X220064Y59421D01*
X220035Y59325D01*
X220010Y59229D01*
X219989Y59132D01*
X219971Y59033D01*
X219958Y58935D01*
X219948Y58835D01*
X219942Y58736D01*
X219940Y58636D01*
X219940Y41364D02*
X219942Y41264D01*
X219948Y41165D01*
X219958Y41065D01*
X219971Y40967D01*
X219989Y40868D01*
X220010Y40771D01*
X220035Y40675D01*
X220064Y40579D01*
X220097Y40485D01*
X220133Y40392D01*
X220173Y40301D01*
X220217Y40211D01*
X220264Y40123D01*
X220314Y40037D01*
X220368Y39953D01*
X220425Y39871D01*
X220485Y39792D01*
X220549Y39714D01*
X220615Y39640D01*
X220684Y39568D01*
X220756Y39499D01*
X220830Y39433D01*
X220908Y39369D01*
X220987Y39309D01*
X221069Y39252D01*
X221153Y39198D01*
X221239Y39148D01*
X221327Y39101D01*
X221417Y39057D01*
X221508Y39017D01*
X221601Y38981D01*
X221695Y38948D01*
X221791Y38919D01*
X221887Y38894D01*
X221984Y38873D01*
X222083Y38855D01*
X222181Y38842D01*
X222281Y38832D01*
X222380Y38826D01*
X222480Y38824D01*
X237720Y38824D02*
X237820Y38826D01*
X237919Y38832D01*
X238019Y38842D01*
X238117Y38855D01*
X238216Y38873D01*
X238313Y38894D01*
X238409Y38919D01*
X238505Y38948D01*
X238599Y38981D01*
X238692Y39017D01*
X238783Y39057D01*
X238873Y39101D01*
X238961Y39148D01*
X239047Y39198D01*
X239131Y39252D01*
X239213Y39309D01*
X239292Y39369D01*
X239370Y39433D01*
X239444Y39499D01*
X239516Y39568D01*
X239585Y39640D01*
X239651Y39714D01*
X239715Y39792D01*
X239775Y39871D01*
X239832Y39953D01*
X239886Y40037D01*
X239936Y40123D01*
X239983Y40211D01*
X240027Y40301D01*
X240067Y40392D01*
X240103Y40485D01*
X240136Y40579D01*
X240165Y40675D01*
X240190Y40771D01*
X240211Y40868D01*
X240229Y40967D01*
X240242Y41065D01*
X240252Y41165D01*
X240258Y41264D01*
X240260Y41364D01*
X240260Y58636D02*
X240258Y58736D01*
X240252Y58835D01*
X240242Y58935D01*
X240229Y59033D01*
X240211Y59132D01*
X240190Y59229D01*
X240165Y59325D01*
X240136Y59421D01*
X240103Y59515D01*
X240067Y59608D01*
X240027Y59699D01*
X239983Y59789D01*
X239936Y59877D01*
X239886Y59963D01*
X239832Y60047D01*
X239775Y60129D01*
X239715Y60208D01*
X239651Y60286D01*
X239585Y60360D01*
X239516Y60432D01*
X239444Y60501D01*
X239370Y60567D01*
X239292Y60631D01*
X239213Y60691D01*
X239131Y60748D01*
X239047Y60802D01*
X238961Y60852D01*
X238873Y60899D01*
X238783Y60943D01*
X238692Y60983D01*
X238599Y61019D01*
X238505Y61052D01*
X238409Y61081D01*
X238313Y61106D01*
X238216Y61127D01*
X238117Y61145D01*
X238019Y61158D01*
X237919Y61168D01*
X237820Y61174D01*
X237720Y61176D01*
X222480Y61176D01*
X222480Y38824D02*
X237720Y38824D01*
X219940Y41364D02*
X219940Y58636D01*
M02*
