G04 EAGLE Gerber RS-274X export*
G75*
%MOMM*%
%FSLAX34Y34*%
%LPD*%
%INTop Copper*%
%IPPOS*%
%AMOC8*
5,1,8,0,0,1.08239X$1,22.5*%
G01*
%ADD10R,0.350000X0.500000*%
%ADD11C,1.000000*%
%ADD12R,1.270000X0.635000*%
%ADD13C,1.879600*%
%ADD14C,0.736600*%
%ADD15C,0.177800*%
%ADD16C,0.304800*%

G36*
X467900Y2044D02*
X467900Y2044D01*
X467997Y2054D01*
X468021Y2064D01*
X468046Y2068D01*
X468132Y2114D01*
X468221Y2154D01*
X468241Y2171D01*
X468264Y2184D01*
X468331Y2254D01*
X468403Y2320D01*
X468415Y2343D01*
X468433Y2362D01*
X468474Y2450D01*
X468521Y2536D01*
X468526Y2561D01*
X468537Y2585D01*
X468548Y2682D01*
X468565Y2778D01*
X468561Y2804D01*
X468564Y2829D01*
X468543Y2925D01*
X468529Y3021D01*
X468517Y3044D01*
X468512Y3070D01*
X468462Y3153D01*
X468418Y3240D01*
X468399Y3259D01*
X468385Y3281D01*
X468312Y3344D01*
X468242Y3412D01*
X468213Y3428D01*
X468199Y3441D01*
X468168Y3453D01*
X468095Y3493D01*
X466260Y4253D01*
X464353Y6160D01*
X463321Y8652D01*
X463321Y11348D01*
X464353Y13840D01*
X466260Y15747D01*
X468752Y16779D01*
X471448Y16779D01*
X473940Y15747D01*
X475847Y13840D01*
X476879Y11348D01*
X476879Y8652D01*
X475847Y6160D01*
X473940Y4253D01*
X472105Y3493D01*
X472022Y3442D01*
X471936Y3396D01*
X471918Y3378D01*
X471896Y3364D01*
X471834Y3288D01*
X471767Y3218D01*
X471756Y3194D01*
X471739Y3174D01*
X471704Y3083D01*
X471663Y2995D01*
X471660Y2969D01*
X471651Y2945D01*
X471647Y2847D01*
X471636Y2751D01*
X471642Y2725D01*
X471641Y2699D01*
X471668Y2605D01*
X471688Y2510D01*
X471702Y2488D01*
X471709Y2463D01*
X471765Y2383D01*
X471815Y2299D01*
X471834Y2282D01*
X471849Y2261D01*
X471927Y2202D01*
X472001Y2139D01*
X472026Y2129D01*
X472047Y2114D01*
X472139Y2084D01*
X472230Y2047D01*
X472262Y2044D01*
X472281Y2038D01*
X472314Y2038D01*
X472396Y2029D01*
X479810Y2029D01*
X479830Y2032D01*
X479849Y2030D01*
X479951Y2052D01*
X480053Y2068D01*
X480070Y2078D01*
X480090Y2082D01*
X480179Y2135D01*
X480270Y2184D01*
X480284Y2198D01*
X480301Y2208D01*
X480368Y2287D01*
X480440Y2362D01*
X480448Y2380D01*
X480461Y2395D01*
X480500Y2491D01*
X480543Y2585D01*
X480545Y2605D01*
X480553Y2623D01*
X480571Y2790D01*
X480571Y30133D01*
X480570Y30141D01*
X480571Y30149D01*
X480550Y30263D01*
X480532Y30376D01*
X480528Y30383D01*
X480526Y30391D01*
X480470Y30492D01*
X480416Y30594D01*
X480411Y30599D01*
X480407Y30606D01*
X480321Y30684D01*
X480238Y30763D01*
X480231Y30766D01*
X480225Y30772D01*
X480120Y30818D01*
X480015Y30867D01*
X480007Y30867D01*
X480000Y30871D01*
X479885Y30881D01*
X479771Y30894D01*
X479763Y30892D01*
X479755Y30893D01*
X479642Y30866D01*
X479530Y30841D01*
X479523Y30837D01*
X479516Y30835D01*
X479418Y30774D01*
X479319Y30715D01*
X479314Y30709D01*
X479307Y30705D01*
X479194Y30581D01*
X479006Y30322D01*
X477678Y28994D01*
X476157Y27889D01*
X474483Y27036D01*
X472696Y26455D01*
X471423Y26254D01*
X471423Y37338D01*
X471420Y37358D01*
X471422Y37377D01*
X471400Y37479D01*
X471383Y37581D01*
X471374Y37598D01*
X471370Y37618D01*
X471317Y37707D01*
X471268Y37798D01*
X471254Y37812D01*
X471244Y37829D01*
X471165Y37896D01*
X471090Y37967D01*
X471072Y37976D01*
X471057Y37989D01*
X470961Y38027D01*
X470867Y38071D01*
X470847Y38073D01*
X470829Y38081D01*
X470662Y38099D01*
X469899Y38099D01*
X469899Y38101D01*
X470662Y38101D01*
X470682Y38104D01*
X470701Y38102D01*
X470803Y38124D01*
X470905Y38141D01*
X470922Y38150D01*
X470942Y38154D01*
X471031Y38207D01*
X471122Y38256D01*
X471136Y38270D01*
X471153Y38280D01*
X471220Y38359D01*
X471291Y38434D01*
X471300Y38452D01*
X471313Y38467D01*
X471352Y38563D01*
X471395Y38657D01*
X471397Y38677D01*
X471405Y38695D01*
X471423Y38862D01*
X471423Y49946D01*
X472696Y49745D01*
X474483Y49164D01*
X476157Y48311D01*
X477678Y47206D01*
X479006Y45878D01*
X479194Y45619D01*
X479200Y45613D01*
X479204Y45606D01*
X479287Y45527D01*
X479369Y45446D01*
X479376Y45443D01*
X479382Y45437D01*
X479486Y45389D01*
X479590Y45338D01*
X479598Y45337D01*
X479605Y45333D01*
X479719Y45321D01*
X479834Y45306D01*
X479842Y45307D01*
X479849Y45306D01*
X479962Y45331D01*
X480075Y45353D01*
X480082Y45357D01*
X480090Y45359D01*
X480188Y45418D01*
X480289Y45475D01*
X480294Y45481D01*
X480301Y45485D01*
X480376Y45572D01*
X480452Y45658D01*
X480456Y45665D01*
X480461Y45672D01*
X480504Y45780D01*
X480549Y45884D01*
X480550Y45892D01*
X480553Y45900D01*
X480571Y46067D01*
X480571Y56527D01*
X480560Y56598D01*
X480558Y56670D01*
X480540Y56719D01*
X480532Y56770D01*
X480498Y56833D01*
X480473Y56901D01*
X480441Y56941D01*
X480416Y56987D01*
X480364Y57037D01*
X480320Y57093D01*
X480276Y57121D01*
X480238Y57157D01*
X480173Y57187D01*
X480113Y57226D01*
X480062Y57238D01*
X480015Y57260D01*
X479944Y57268D01*
X479874Y57286D01*
X479822Y57282D01*
X479771Y57287D01*
X479700Y57272D01*
X479629Y57267D01*
X479581Y57246D01*
X479530Y57235D01*
X479469Y57198D01*
X479403Y57170D01*
X479347Y57125D01*
X479319Y57109D01*
X479304Y57091D01*
X479272Y57065D01*
X476231Y54025D01*
X472123Y52323D01*
X467677Y52323D01*
X463569Y54025D01*
X460425Y57169D01*
X458723Y61277D01*
X458723Y65723D01*
X460425Y69831D01*
X463569Y72975D01*
X467677Y74677D01*
X472123Y74677D01*
X476231Y72975D01*
X479272Y69935D01*
X479330Y69893D01*
X479382Y69843D01*
X479429Y69821D01*
X479471Y69791D01*
X479540Y69770D01*
X479605Y69740D01*
X479657Y69734D01*
X479707Y69719D01*
X479778Y69721D01*
X479849Y69713D01*
X479900Y69724D01*
X479952Y69725D01*
X480020Y69750D01*
X480090Y69765D01*
X480135Y69792D01*
X480183Y69809D01*
X480239Y69854D01*
X480301Y69891D01*
X480335Y69931D01*
X480375Y69963D01*
X480414Y70023D01*
X480461Y70078D01*
X480480Y70126D01*
X480508Y70170D01*
X480526Y70240D01*
X480553Y70306D01*
X480561Y70377D01*
X480569Y70409D01*
X480567Y70432D01*
X480571Y70473D01*
X480571Y81927D01*
X480560Y81998D01*
X480558Y82070D01*
X480540Y82119D01*
X480532Y82170D01*
X480498Y82233D01*
X480473Y82301D01*
X480441Y82341D01*
X480416Y82387D01*
X480364Y82437D01*
X480320Y82493D01*
X480276Y82521D01*
X480238Y82557D01*
X480173Y82587D01*
X480113Y82626D01*
X480062Y82638D01*
X480015Y82660D01*
X479944Y82668D01*
X479874Y82686D01*
X479822Y82682D01*
X479771Y82687D01*
X479700Y82672D01*
X479629Y82667D01*
X479581Y82646D01*
X479530Y82635D01*
X479469Y82598D01*
X479403Y82570D01*
X479347Y82525D01*
X479319Y82509D01*
X479304Y82491D01*
X479272Y82465D01*
X476231Y79425D01*
X472123Y77723D01*
X467677Y77723D01*
X463569Y79425D01*
X460425Y82569D01*
X458723Y86677D01*
X458723Y91123D01*
X460425Y95231D01*
X463569Y98375D01*
X467677Y100077D01*
X472123Y100077D01*
X476231Y98375D01*
X479272Y95335D01*
X479330Y95293D01*
X479382Y95243D01*
X479429Y95221D01*
X479471Y95191D01*
X479540Y95170D01*
X479605Y95140D01*
X479657Y95134D01*
X479707Y95119D01*
X479778Y95121D01*
X479849Y95113D01*
X479900Y95124D01*
X479952Y95125D01*
X480020Y95150D01*
X480090Y95165D01*
X480135Y95192D01*
X480183Y95209D01*
X480239Y95254D01*
X480301Y95291D01*
X480335Y95331D01*
X480375Y95363D01*
X480414Y95423D01*
X480461Y95478D01*
X480480Y95526D01*
X480508Y95570D01*
X480526Y95640D01*
X480553Y95706D01*
X480561Y95777D01*
X480569Y95809D01*
X480567Y95832D01*
X480571Y95873D01*
X480571Y107327D01*
X480560Y107398D01*
X480558Y107470D01*
X480540Y107519D01*
X480532Y107570D01*
X480498Y107633D01*
X480473Y107701D01*
X480441Y107741D01*
X480416Y107787D01*
X480364Y107837D01*
X480320Y107893D01*
X480276Y107921D01*
X480238Y107957D01*
X480173Y107987D01*
X480113Y108026D01*
X480062Y108038D01*
X480015Y108060D01*
X479944Y108068D01*
X479874Y108086D01*
X479822Y108082D01*
X479771Y108087D01*
X479700Y108072D01*
X479629Y108067D01*
X479581Y108046D01*
X479530Y108035D01*
X479469Y107998D01*
X479403Y107970D01*
X479347Y107925D01*
X479319Y107909D01*
X479304Y107891D01*
X479272Y107865D01*
X476231Y104825D01*
X472123Y103123D01*
X467677Y103123D01*
X463569Y104825D01*
X462162Y106231D01*
X462104Y106273D01*
X462052Y106323D01*
X462005Y106345D01*
X461963Y106375D01*
X461894Y106396D01*
X461829Y106426D01*
X461777Y106432D01*
X461727Y106447D01*
X461656Y106445D01*
X461585Y106453D01*
X461534Y106442D01*
X461482Y106441D01*
X461414Y106416D01*
X461344Y106401D01*
X461299Y106374D01*
X461251Y106357D01*
X461195Y106312D01*
X461133Y106275D01*
X461099Y106235D01*
X461059Y106203D01*
X461020Y106143D01*
X460973Y106088D01*
X460954Y106040D01*
X460926Y105996D01*
X460908Y105926D01*
X460881Y105860D01*
X460873Y105789D01*
X460865Y105757D01*
X460867Y105734D01*
X460863Y105693D01*
X460863Y99684D01*
X460416Y99237D01*
X369784Y99237D01*
X369337Y99684D01*
X369337Y146571D01*
X369334Y146591D01*
X369336Y146610D01*
X369314Y146712D01*
X369298Y146814D01*
X369288Y146831D01*
X369284Y146851D01*
X369231Y146940D01*
X369182Y147031D01*
X369168Y147045D01*
X369158Y147062D01*
X369079Y147129D01*
X369004Y147201D01*
X368986Y147209D01*
X368971Y147222D01*
X368875Y147261D01*
X368781Y147304D01*
X368761Y147306D01*
X368743Y147314D01*
X368576Y147332D01*
X250315Y147332D01*
X250200Y147313D01*
X250084Y147296D01*
X250079Y147294D01*
X250073Y147293D01*
X249970Y147238D01*
X249865Y147185D01*
X249861Y147180D01*
X249855Y147177D01*
X249775Y147093D01*
X249693Y147009D01*
X249689Y147003D01*
X249686Y146999D01*
X249678Y146982D01*
X249644Y146919D01*
X248094Y145370D01*
X246086Y144538D01*
X243914Y144538D01*
X241906Y145370D01*
X240346Y146930D01*
X240327Y146961D01*
X240266Y147062D01*
X240262Y147066D01*
X240258Y147071D01*
X240169Y147146D01*
X240079Y147222D01*
X240074Y147224D01*
X240069Y147228D01*
X239960Y147270D01*
X239851Y147314D01*
X239844Y147315D01*
X239839Y147316D01*
X239821Y147317D01*
X239685Y147332D01*
X183415Y147332D01*
X183300Y147313D01*
X183184Y147296D01*
X183179Y147294D01*
X183173Y147293D01*
X183070Y147238D01*
X182965Y147185D01*
X182961Y147180D01*
X182955Y147177D01*
X182875Y147093D01*
X182793Y147009D01*
X182789Y147003D01*
X182786Y146999D01*
X182778Y146982D01*
X182744Y146919D01*
X181194Y145370D01*
X179186Y144538D01*
X177014Y144538D01*
X175006Y145370D01*
X173470Y146906D01*
X172638Y148914D01*
X172638Y151086D01*
X173470Y153094D01*
X175006Y154630D01*
X177014Y155462D01*
X179186Y155462D01*
X181194Y154630D01*
X182754Y153070D01*
X182773Y153039D01*
X182834Y152938D01*
X182838Y152934D01*
X182842Y152929D01*
X182931Y152854D01*
X183021Y152778D01*
X183026Y152776D01*
X183031Y152772D01*
X183140Y152730D01*
X183249Y152686D01*
X183256Y152685D01*
X183261Y152684D01*
X183279Y152683D01*
X183415Y152668D01*
X239685Y152668D01*
X239800Y152687D01*
X239916Y152704D01*
X239921Y152706D01*
X239927Y152707D01*
X240030Y152762D01*
X240135Y152815D01*
X240139Y152820D01*
X240145Y152823D01*
X240225Y152907D01*
X240307Y152991D01*
X240311Y152997D01*
X240314Y153001D01*
X240322Y153018D01*
X240356Y153081D01*
X241906Y154630D01*
X243914Y155462D01*
X246086Y155462D01*
X248094Y154630D01*
X249654Y153070D01*
X249673Y153039D01*
X249734Y152938D01*
X249738Y152934D01*
X249742Y152929D01*
X249831Y152854D01*
X249921Y152778D01*
X249926Y152776D01*
X249931Y152772D01*
X250040Y152730D01*
X250149Y152686D01*
X250156Y152685D01*
X250161Y152684D01*
X250179Y152683D01*
X250315Y152668D01*
X368576Y152668D01*
X368596Y152671D01*
X368615Y152669D01*
X368717Y152691D01*
X368819Y152707D01*
X368836Y152717D01*
X368856Y152721D01*
X368945Y152774D01*
X369036Y152823D01*
X369050Y152837D01*
X369067Y152847D01*
X369134Y152926D01*
X369206Y153001D01*
X369214Y153019D01*
X369227Y153034D01*
X369266Y153130D01*
X369309Y153224D01*
X369311Y153244D01*
X369319Y153262D01*
X369337Y153429D01*
X369337Y156571D01*
X369335Y156587D01*
X369336Y156602D01*
X369336Y156605D01*
X369336Y156610D01*
X369314Y156712D01*
X369298Y156814D01*
X369288Y156831D01*
X369284Y156851D01*
X369231Y156940D01*
X369182Y157031D01*
X369168Y157045D01*
X369158Y157062D01*
X369079Y157129D01*
X369004Y157201D01*
X368986Y157209D01*
X368971Y157222D01*
X368875Y157261D01*
X368781Y157304D01*
X368761Y157306D01*
X368743Y157314D01*
X368576Y157332D01*
X270415Y157332D01*
X270300Y157313D01*
X270184Y157296D01*
X270179Y157294D01*
X270173Y157293D01*
X270070Y157238D01*
X269965Y157185D01*
X269961Y157180D01*
X269955Y157177D01*
X269875Y157093D01*
X269793Y157009D01*
X269789Y157003D01*
X269786Y156999D01*
X269778Y156982D01*
X269744Y156919D01*
X268194Y155370D01*
X266186Y154538D01*
X264014Y154538D01*
X262006Y155370D01*
X260446Y156930D01*
X260427Y156961D01*
X260366Y157062D01*
X260362Y157066D01*
X260358Y157071D01*
X260269Y157146D01*
X260179Y157222D01*
X260174Y157224D01*
X260169Y157228D01*
X260060Y157270D01*
X259951Y157314D01*
X259944Y157315D01*
X259939Y157316D01*
X259921Y157317D01*
X259785Y157332D01*
X170415Y157332D01*
X170300Y157313D01*
X170184Y157296D01*
X170179Y157294D01*
X170173Y157293D01*
X170070Y157238D01*
X169965Y157185D01*
X169961Y157180D01*
X169955Y157177D01*
X169875Y157093D01*
X169793Y157009D01*
X169789Y157003D01*
X169786Y156999D01*
X169778Y156982D01*
X169744Y156919D01*
X168194Y155370D01*
X166186Y154538D01*
X164014Y154538D01*
X162006Y155370D01*
X160470Y156906D01*
X159638Y158914D01*
X159638Y161086D01*
X160470Y163094D01*
X162006Y164630D01*
X164014Y165462D01*
X166186Y165462D01*
X168194Y164630D01*
X169754Y163070D01*
X169773Y163039D01*
X169834Y162938D01*
X169838Y162934D01*
X169842Y162929D01*
X169931Y162854D01*
X170021Y162778D01*
X170026Y162776D01*
X170031Y162772D01*
X170140Y162730D01*
X170249Y162686D01*
X170256Y162685D01*
X170261Y162684D01*
X170279Y162683D01*
X170415Y162668D01*
X259785Y162668D01*
X259900Y162687D01*
X260016Y162704D01*
X260021Y162706D01*
X260027Y162707D01*
X260130Y162762D01*
X260235Y162815D01*
X260239Y162820D01*
X260245Y162823D01*
X260325Y162907D01*
X260407Y162991D01*
X260411Y162997D01*
X260414Y163001D01*
X260422Y163018D01*
X260456Y163081D01*
X262006Y164630D01*
X264014Y165462D01*
X266186Y165462D01*
X268194Y164630D01*
X269754Y163070D01*
X269773Y163039D01*
X269834Y162938D01*
X269838Y162934D01*
X269842Y162929D01*
X269931Y162854D01*
X270021Y162778D01*
X270026Y162776D01*
X270031Y162772D01*
X270140Y162730D01*
X270249Y162686D01*
X270256Y162685D01*
X270261Y162684D01*
X270279Y162683D01*
X270415Y162668D01*
X368576Y162668D01*
X368596Y162671D01*
X368615Y162669D01*
X368717Y162691D01*
X368819Y162707D01*
X368836Y162717D01*
X368856Y162721D01*
X368945Y162774D01*
X369036Y162823D01*
X369050Y162837D01*
X369067Y162847D01*
X369134Y162926D01*
X369206Y163001D01*
X369214Y163019D01*
X369227Y163034D01*
X369266Y163130D01*
X369309Y163224D01*
X369311Y163244D01*
X369319Y163262D01*
X369337Y163429D01*
X369337Y170316D01*
X369784Y170763D01*
X460416Y170763D01*
X460863Y170316D01*
X460863Y122907D01*
X460874Y122836D01*
X460876Y122764D01*
X460894Y122715D01*
X460902Y122664D01*
X460936Y122601D01*
X460961Y122533D01*
X460993Y122493D01*
X461018Y122447D01*
X461070Y122397D01*
X461114Y122341D01*
X461158Y122313D01*
X461196Y122277D01*
X461261Y122247D01*
X461321Y122208D01*
X461372Y122196D01*
X461419Y122174D01*
X461490Y122166D01*
X461560Y122148D01*
X461612Y122152D01*
X461663Y122147D01*
X461734Y122162D01*
X461805Y122167D01*
X461853Y122188D01*
X461904Y122199D01*
X461965Y122236D01*
X462031Y122264D01*
X462087Y122309D01*
X462115Y122325D01*
X462130Y122343D01*
X462162Y122369D01*
X463569Y123775D01*
X467677Y125477D01*
X472123Y125477D01*
X476231Y123775D01*
X479272Y120735D01*
X479330Y120693D01*
X479382Y120643D01*
X479429Y120621D01*
X479471Y120591D01*
X479540Y120570D01*
X479605Y120540D01*
X479657Y120534D01*
X479707Y120519D01*
X479778Y120521D01*
X479849Y120513D01*
X479900Y120524D01*
X479952Y120525D01*
X480020Y120550D01*
X480090Y120565D01*
X480135Y120592D01*
X480183Y120609D01*
X480239Y120654D01*
X480301Y120691D01*
X480335Y120731D01*
X480375Y120763D01*
X480414Y120823D01*
X480461Y120878D01*
X480480Y120926D01*
X480508Y120970D01*
X480526Y121040D01*
X480553Y121106D01*
X480561Y121177D01*
X480569Y121209D01*
X480567Y121232D01*
X480571Y121273D01*
X480571Y217210D01*
X480568Y217230D01*
X480570Y217249D01*
X480548Y217351D01*
X480532Y217453D01*
X480522Y217470D01*
X480518Y217490D01*
X480465Y217579D01*
X480416Y217670D01*
X480402Y217684D01*
X480392Y217701D01*
X480313Y217768D01*
X480238Y217840D01*
X480220Y217848D01*
X480205Y217861D01*
X480109Y217900D01*
X480015Y217943D01*
X479995Y217945D01*
X479977Y217953D01*
X479810Y217971D01*
X287890Y217971D01*
X287870Y217968D01*
X287851Y217970D01*
X287749Y217948D01*
X287647Y217932D01*
X287630Y217922D01*
X287610Y217918D01*
X287521Y217865D01*
X287430Y217816D01*
X287416Y217802D01*
X287399Y217792D01*
X287332Y217713D01*
X287260Y217638D01*
X287252Y217620D01*
X287239Y217605D01*
X287200Y217509D01*
X287157Y217415D01*
X287155Y217395D01*
X287147Y217377D01*
X287129Y217210D01*
X287129Y209160D01*
X285940Y207971D01*
X184260Y207971D01*
X183071Y209160D01*
X183071Y217210D01*
X183068Y217230D01*
X183070Y217249D01*
X183048Y217351D01*
X183032Y217453D01*
X183022Y217470D01*
X183018Y217490D01*
X182965Y217579D01*
X182916Y217670D01*
X182902Y217684D01*
X182892Y217701D01*
X182813Y217768D01*
X182738Y217840D01*
X182720Y217848D01*
X182705Y217861D01*
X182609Y217900D01*
X182515Y217943D01*
X182495Y217945D01*
X182477Y217953D01*
X182310Y217971D01*
X2396Y217971D01*
X2300Y217956D01*
X2203Y217946D01*
X2179Y217936D01*
X2154Y217932D01*
X2068Y217886D01*
X1979Y217846D01*
X1959Y217829D01*
X1936Y217816D01*
X1869Y217746D01*
X1797Y217680D01*
X1785Y217657D01*
X1767Y217638D01*
X1726Y217550D01*
X1679Y217464D01*
X1674Y217439D01*
X1663Y217415D01*
X1652Y217318D01*
X1635Y217222D01*
X1639Y217196D01*
X1636Y217171D01*
X1657Y217075D01*
X1671Y216979D01*
X1683Y216956D01*
X1688Y216930D01*
X1738Y216847D01*
X1782Y216760D01*
X1801Y216741D01*
X1815Y216719D01*
X1888Y216656D01*
X1958Y216588D01*
X1987Y216572D01*
X2001Y216559D01*
X2032Y216547D01*
X2105Y216507D01*
X3940Y215747D01*
X5847Y213840D01*
X6879Y211348D01*
X6879Y208652D01*
X5847Y206160D01*
X3940Y204253D01*
X1448Y203221D01*
X-1248Y203221D01*
X-3740Y204253D01*
X-5647Y206160D01*
X-6679Y208652D01*
X-6679Y211348D01*
X-5647Y213840D01*
X-3740Y215747D01*
X-1905Y216507D01*
X-1822Y216558D01*
X-1736Y216604D01*
X-1718Y216622D01*
X-1696Y216636D01*
X-1634Y216712D01*
X-1567Y216782D01*
X-1556Y216806D01*
X-1539Y216826D01*
X-1504Y216917D01*
X-1463Y217005D01*
X-1460Y217031D01*
X-1451Y217055D01*
X-1447Y217153D01*
X-1436Y217249D01*
X-1442Y217275D01*
X-1441Y217301D01*
X-1468Y217395D01*
X-1488Y217490D01*
X-1502Y217512D01*
X-1509Y217537D01*
X-1565Y217617D01*
X-1615Y217701D01*
X-1634Y217718D01*
X-1649Y217739D01*
X-1727Y217798D01*
X-1801Y217861D01*
X-1826Y217871D01*
X-1847Y217886D01*
X-1939Y217916D01*
X-2030Y217953D01*
X-2062Y217956D01*
X-2081Y217962D01*
X-2114Y217962D01*
X-2196Y217971D01*
X-9610Y217971D01*
X-9630Y217968D01*
X-9649Y217970D01*
X-9751Y217948D01*
X-9853Y217932D01*
X-9870Y217922D01*
X-9890Y217918D01*
X-9979Y217865D01*
X-10070Y217816D01*
X-10084Y217802D01*
X-10101Y217792D01*
X-10168Y217713D01*
X-10240Y217638D01*
X-10248Y217620D01*
X-10261Y217605D01*
X-10300Y217509D01*
X-10343Y217415D01*
X-10345Y217395D01*
X-10353Y217377D01*
X-10371Y217210D01*
X-10371Y2790D01*
X-10368Y2770D01*
X-10370Y2751D01*
X-10348Y2649D01*
X-10332Y2547D01*
X-10322Y2530D01*
X-10318Y2510D01*
X-10265Y2421D01*
X-10216Y2330D01*
X-10202Y2316D01*
X-10192Y2299D01*
X-10113Y2232D01*
X-10038Y2160D01*
X-10020Y2152D01*
X-10005Y2139D01*
X-9909Y2100D01*
X-9815Y2057D01*
X-9795Y2055D01*
X-9777Y2047D01*
X-9610Y2029D01*
X467804Y2029D01*
X467900Y2044D01*
G37*
%LPC*%
G36*
X179294Y34638D02*
X179294Y34638D01*
X177286Y35470D01*
X175750Y37006D01*
X174918Y39014D01*
X174918Y40576D01*
X174904Y40666D01*
X174896Y40757D01*
X174884Y40786D01*
X174879Y40818D01*
X174836Y40899D01*
X174800Y40983D01*
X174774Y41015D01*
X174763Y41036D01*
X174740Y41058D01*
X174695Y41114D01*
X170727Y45082D01*
X170727Y77568D01*
X172885Y79726D01*
X176324Y83165D01*
X176377Y83239D01*
X176437Y83308D01*
X176449Y83339D01*
X176468Y83365D01*
X176495Y83452D01*
X176529Y83537D01*
X176533Y83578D01*
X176540Y83600D01*
X176539Y83632D01*
X176547Y83703D01*
X176547Y97960D01*
X176545Y97974D01*
X176546Y97986D01*
X176545Y97990D01*
X176546Y97999D01*
X176524Y98101D01*
X176508Y98203D01*
X176498Y98220D01*
X176494Y98240D01*
X176441Y98329D01*
X176392Y98420D01*
X176378Y98434D01*
X176368Y98451D01*
X176289Y98518D01*
X176214Y98590D01*
X176196Y98598D01*
X176181Y98611D01*
X176085Y98650D01*
X175991Y98693D01*
X175971Y98695D01*
X175953Y98703D01*
X175786Y98721D01*
X170863Y98721D01*
X170638Y98946D01*
X170622Y98958D01*
X170610Y98973D01*
X170522Y99030D01*
X170439Y99090D01*
X170420Y99096D01*
X170403Y99106D01*
X170302Y99132D01*
X170203Y99162D01*
X170183Y99162D01*
X170164Y99166D01*
X170061Y99158D01*
X169958Y99156D01*
X169939Y99149D01*
X169919Y99147D01*
X169824Y99107D01*
X169727Y99071D01*
X169711Y99059D01*
X169693Y99051D01*
X169562Y98946D01*
X169337Y98721D01*
X164363Y98721D01*
X164317Y98767D01*
X164259Y98809D01*
X164207Y98858D01*
X164160Y98880D01*
X164118Y98911D01*
X164049Y98932D01*
X163984Y98962D01*
X163932Y98968D01*
X163882Y98983D01*
X163811Y98981D01*
X163740Y98989D01*
X163689Y98978D01*
X163637Y98977D01*
X163569Y98952D01*
X163499Y98937D01*
X163454Y98910D01*
X163406Y98892D01*
X163350Y98848D01*
X163288Y98811D01*
X163254Y98771D01*
X163214Y98739D01*
X163175Y98678D01*
X163128Y98624D01*
X163109Y98575D01*
X163081Y98532D01*
X163063Y98462D01*
X163036Y98396D01*
X163028Y98324D01*
X163020Y98293D01*
X163022Y98270D01*
X163018Y98229D01*
X163018Y84954D01*
X163037Y84840D01*
X163054Y84723D01*
X163056Y84718D01*
X163057Y84711D01*
X163112Y84609D01*
X163165Y84504D01*
X163170Y84500D01*
X163173Y84494D01*
X163257Y84414D01*
X163341Y84332D01*
X163347Y84328D01*
X163351Y84325D01*
X163368Y84317D01*
X163488Y84251D01*
X165614Y83370D01*
X167150Y81834D01*
X167982Y79826D01*
X167982Y77654D01*
X167150Y75646D01*
X165614Y74110D01*
X163606Y73278D01*
X161434Y73278D01*
X159426Y74110D01*
X157817Y75719D01*
X157759Y75761D01*
X157707Y75810D01*
X157660Y75832D01*
X157618Y75862D01*
X157549Y75883D01*
X157484Y75914D01*
X157432Y75919D01*
X157382Y75935D01*
X157311Y75933D01*
X157240Y75941D01*
X157189Y75930D01*
X157137Y75928D01*
X157069Y75904D01*
X156999Y75888D01*
X156954Y75862D01*
X156906Y75844D01*
X156850Y75799D01*
X156788Y75762D01*
X156754Y75723D01*
X156714Y75690D01*
X156675Y75630D01*
X156628Y75575D01*
X156609Y75527D01*
X156581Y75483D01*
X156563Y75414D01*
X156536Y75347D01*
X156528Y75276D01*
X156520Y75245D01*
X156522Y75221D01*
X156518Y75180D01*
X156518Y72320D01*
X156532Y72230D01*
X156540Y72139D01*
X156552Y72110D01*
X156557Y72078D01*
X156600Y71997D01*
X156636Y71913D01*
X156662Y71881D01*
X156673Y71860D01*
X156696Y71838D01*
X156741Y71782D01*
X160648Y67875D01*
X160743Y67806D01*
X160837Y67737D01*
X160843Y67735D01*
X160848Y67731D01*
X160959Y67697D01*
X161071Y67661D01*
X161077Y67661D01*
X161083Y67659D01*
X161199Y67662D01*
X161316Y67663D01*
X161324Y67665D01*
X161329Y67665D01*
X161346Y67672D01*
X161415Y67692D01*
X163606Y67692D01*
X165614Y66860D01*
X167150Y65324D01*
X167982Y63316D01*
X167982Y61144D01*
X167150Y59136D01*
X165614Y57600D01*
X163606Y56768D01*
X161434Y56768D01*
X159426Y57600D01*
X157890Y59136D01*
X157650Y59714D01*
X157613Y59775D01*
X157583Y59841D01*
X157548Y59879D01*
X157521Y59923D01*
X157466Y59969D01*
X157417Y60022D01*
X157371Y60047D01*
X157331Y60080D01*
X157264Y60106D01*
X157201Y60140D01*
X157150Y60150D01*
X157102Y60168D01*
X157030Y60171D01*
X156959Y60184D01*
X156908Y60176D01*
X156856Y60179D01*
X156787Y60159D01*
X156716Y60148D01*
X156670Y60125D01*
X156620Y60110D01*
X156561Y60069D01*
X156497Y60037D01*
X156460Y59999D01*
X156418Y59970D01*
X156375Y59912D01*
X156325Y59861D01*
X156290Y59798D01*
X156271Y59772D01*
X156264Y59750D01*
X156253Y59730D01*
X154623Y58101D01*
X152499Y57221D01*
X150201Y57221D01*
X148077Y58101D01*
X146451Y59727D01*
X145571Y61851D01*
X145571Y64149D01*
X146451Y66273D01*
X148077Y67899D01*
X150201Y68779D01*
X150421Y68779D01*
X150441Y68782D01*
X150460Y68780D01*
X150562Y68802D01*
X150664Y68818D01*
X150681Y68828D01*
X150701Y68832D01*
X150790Y68885D01*
X150881Y68934D01*
X150895Y68948D01*
X150912Y68958D01*
X150979Y69037D01*
X151051Y69112D01*
X151059Y69130D01*
X151072Y69145D01*
X151111Y69241D01*
X151154Y69335D01*
X151156Y69355D01*
X151164Y69373D01*
X151182Y69540D01*
X151182Y97450D01*
X151167Y97544D01*
X151158Y97639D01*
X151147Y97665D01*
X151143Y97693D01*
X151098Y97777D01*
X151059Y97865D01*
X151041Y97885D01*
X151027Y97910D01*
X150958Y97976D01*
X150894Y98046D01*
X150869Y98060D01*
X150849Y98079D01*
X150763Y98120D01*
X150679Y98166D01*
X150651Y98171D01*
X150626Y98183D01*
X150531Y98194D01*
X150437Y98211D01*
X150409Y98207D01*
X150382Y98210D01*
X150288Y98190D01*
X150194Y98176D01*
X150162Y98162D01*
X150141Y98158D01*
X150113Y98141D01*
X149434Y97959D01*
X148224Y97959D01*
X148224Y102887D01*
X148221Y102906D01*
X148223Y102926D01*
X148210Y102986D01*
X148224Y103113D01*
X148224Y108041D01*
X149435Y108041D01*
X150081Y107868D01*
X150660Y107533D01*
X150691Y107502D01*
X150765Y107449D01*
X150835Y107389D01*
X150865Y107377D01*
X150891Y107358D01*
X150978Y107331D01*
X151063Y107297D01*
X151104Y107293D01*
X151126Y107286D01*
X151158Y107287D01*
X151230Y107279D01*
X156337Y107279D01*
X156562Y107054D01*
X156578Y107042D01*
X156590Y107027D01*
X156677Y106971D01*
X156761Y106910D01*
X156780Y106904D01*
X156797Y106894D01*
X156898Y106868D01*
X156996Y106838D01*
X157016Y106838D01*
X157036Y106834D01*
X157139Y106842D01*
X157242Y106844D01*
X157261Y106851D01*
X157281Y106853D01*
X157376Y106893D01*
X157473Y106929D01*
X157489Y106941D01*
X157507Y106949D01*
X157638Y107054D01*
X157863Y107279D01*
X162837Y107279D01*
X162883Y107233D01*
X162941Y107191D01*
X162993Y107142D01*
X163040Y107120D01*
X163082Y107089D01*
X163151Y107068D01*
X163216Y107038D01*
X163268Y107032D01*
X163318Y107017D01*
X163389Y107019D01*
X163460Y107011D01*
X163511Y107022D01*
X163563Y107023D01*
X163631Y107048D01*
X163701Y107063D01*
X163746Y107090D01*
X163794Y107108D01*
X163850Y107152D01*
X163912Y107189D01*
X163946Y107229D01*
X163986Y107261D01*
X164025Y107322D01*
X164072Y107376D01*
X164091Y107425D01*
X164119Y107468D01*
X164137Y107538D01*
X164164Y107604D01*
X164172Y107676D01*
X164180Y107707D01*
X164178Y107730D01*
X164182Y107771D01*
X164182Y122275D01*
X165968Y124061D01*
X169575Y127668D01*
X169644Y127763D01*
X169713Y127857D01*
X169715Y127863D01*
X169719Y127868D01*
X169753Y127979D01*
X169789Y128091D01*
X169789Y128097D01*
X169791Y128103D01*
X169788Y128219D01*
X169787Y128336D01*
X169785Y128344D01*
X169785Y128349D01*
X169778Y128366D01*
X169758Y128435D01*
X169758Y130626D01*
X170590Y132634D01*
X172126Y134170D01*
X174134Y135002D01*
X176306Y135002D01*
X178314Y134170D01*
X179850Y132634D01*
X180682Y130626D01*
X180682Y128454D01*
X179850Y126446D01*
X178314Y124910D01*
X176306Y124078D01*
X174100Y124078D01*
X174064Y124087D01*
X173950Y124115D01*
X173944Y124115D01*
X173938Y124116D01*
X173821Y124105D01*
X173705Y124096D01*
X173699Y124094D01*
X173693Y124093D01*
X173586Y124046D01*
X173479Y124000D01*
X173473Y123995D01*
X173468Y123993D01*
X173455Y123981D01*
X173348Y123895D01*
X169741Y120288D01*
X169688Y120214D01*
X169628Y120145D01*
X169616Y120114D01*
X169597Y120088D01*
X169570Y120001D01*
X169536Y119916D01*
X169532Y119875D01*
X169525Y119853D01*
X169526Y119821D01*
X169518Y119750D01*
X169518Y111628D01*
X169520Y111617D01*
X169519Y111609D01*
X169527Y111570D01*
X169529Y111558D01*
X169531Y111486D01*
X169549Y111437D01*
X169557Y111386D01*
X169591Y111322D01*
X169616Y111255D01*
X169648Y111214D01*
X169673Y111168D01*
X169725Y111119D01*
X169769Y111063D01*
X169813Y111035D01*
X169851Y110999D01*
X169916Y110969D01*
X169976Y110930D01*
X170027Y110917D01*
X170074Y110895D01*
X170145Y110887D01*
X170215Y110870D01*
X170267Y110874D01*
X170318Y110868D01*
X170389Y110883D01*
X170460Y110889D01*
X170508Y110909D01*
X170559Y110920D01*
X170620Y110957D01*
X170686Y110985D01*
X170742Y111030D01*
X170770Y111046D01*
X170785Y111064D01*
X170817Y111090D01*
X180505Y120778D01*
X182605Y120778D01*
X182720Y120797D01*
X182836Y120814D01*
X182841Y120816D01*
X182847Y120817D01*
X182950Y120872D01*
X183055Y120925D01*
X183059Y120930D01*
X183065Y120933D01*
X183145Y121017D01*
X183227Y121101D01*
X183231Y121107D01*
X183234Y121111D01*
X183242Y121128D01*
X183276Y121191D01*
X184826Y122740D01*
X186834Y123572D01*
X189006Y123572D01*
X191014Y122740D01*
X192594Y121161D01*
X192601Y121147D01*
X192619Y121130D01*
X192633Y121108D01*
X192708Y121045D01*
X192779Y120978D01*
X192802Y120967D01*
X192822Y120951D01*
X192913Y120915D01*
X193002Y120874D01*
X193028Y120871D01*
X193052Y120862D01*
X193149Y120858D01*
X193246Y120847D01*
X193272Y120853D01*
X193297Y120852D01*
X193391Y120879D01*
X193487Y120899D01*
X193509Y120913D01*
X193534Y120920D01*
X193614Y120976D01*
X193698Y121026D01*
X193715Y121045D01*
X193736Y121060D01*
X193794Y121138D01*
X193858Y121213D01*
X193868Y121236D01*
X193883Y121257D01*
X193913Y121350D01*
X193950Y121441D01*
X193953Y121473D01*
X193959Y121491D01*
X193959Y121524D01*
X193968Y121607D01*
X193968Y123006D01*
X194800Y125014D01*
X196336Y126550D01*
X198344Y127382D01*
X200516Y127382D01*
X202524Y126550D01*
X204060Y125014D01*
X204892Y123006D01*
X204892Y120834D01*
X204060Y118826D01*
X202876Y117642D01*
X202823Y117568D01*
X202763Y117498D01*
X202751Y117468D01*
X202732Y117442D01*
X202705Y117355D01*
X202671Y117270D01*
X202667Y117229D01*
X202660Y117207D01*
X202661Y117175D01*
X202653Y117103D01*
X202653Y108735D01*
X202672Y108618D01*
X202690Y108500D01*
X202692Y108496D01*
X202692Y108492D01*
X202748Y108388D01*
X202803Y108281D01*
X202806Y108278D01*
X202808Y108275D01*
X202894Y108193D01*
X202979Y108110D01*
X202983Y108108D01*
X202986Y108105D01*
X203094Y108055D01*
X203201Y108004D01*
X203205Y108003D01*
X203209Y108002D01*
X203327Y107988D01*
X203445Y107974D01*
X203450Y107975D01*
X203453Y107974D01*
X203467Y107977D01*
X203611Y107999D01*
X203766Y108041D01*
X204976Y108041D01*
X204976Y103113D01*
X204979Y103094D01*
X204977Y103074D01*
X204990Y103014D01*
X204976Y102887D01*
X204976Y97959D01*
X203766Y97959D01*
X203611Y98001D01*
X203492Y98013D01*
X203375Y98026D01*
X203370Y98025D01*
X203366Y98025D01*
X203251Y97999D01*
X203134Y97973D01*
X203131Y97971D01*
X203127Y97970D01*
X203025Y97908D01*
X202923Y97847D01*
X202920Y97844D01*
X202917Y97842D01*
X202840Y97751D01*
X202763Y97660D01*
X202762Y97656D01*
X202759Y97653D01*
X202716Y97543D01*
X202671Y97432D01*
X202671Y97427D01*
X202669Y97424D01*
X202669Y97410D01*
X202653Y97265D01*
X202653Y42164D01*
X202656Y42144D01*
X202654Y42125D01*
X202676Y42023D01*
X202692Y41921D01*
X202702Y41904D01*
X202706Y41884D01*
X202759Y41795D01*
X202808Y41704D01*
X202822Y41690D01*
X202832Y41673D01*
X202911Y41606D01*
X202986Y41534D01*
X203004Y41526D01*
X203019Y41513D01*
X203115Y41474D01*
X203209Y41431D01*
X203229Y41429D01*
X203247Y41421D01*
X203414Y41403D01*
X220492Y41403D01*
X220607Y41422D01*
X220726Y41440D01*
X220730Y41442D01*
X220734Y41442D01*
X220839Y41498D01*
X220945Y41553D01*
X220948Y41556D01*
X220952Y41558D01*
X221034Y41644D01*
X221116Y41729D01*
X221118Y41733D01*
X221121Y41736D01*
X221171Y41844D01*
X221222Y41951D01*
X221223Y41955D01*
X221225Y41959D01*
X221238Y42078D01*
X221252Y42195D01*
X221251Y42200D01*
X221252Y42203D01*
X221249Y42217D01*
X221227Y42361D01*
X221209Y42426D01*
X221209Y44413D01*
X229338Y44413D01*
X229358Y44416D01*
X229377Y44414D01*
X229479Y44436D01*
X229581Y44453D01*
X229598Y44462D01*
X229618Y44466D01*
X229707Y44519D01*
X229798Y44568D01*
X229812Y44582D01*
X229829Y44592D01*
X229896Y44671D01*
X229967Y44746D01*
X229976Y44764D01*
X229989Y44779D01*
X230028Y44875D01*
X230071Y44969D01*
X230073Y44989D01*
X230081Y45007D01*
X230099Y45174D01*
X230099Y46698D01*
X230096Y46718D01*
X230098Y46737D01*
X230076Y46839D01*
X230059Y46941D01*
X230050Y46958D01*
X230046Y46978D01*
X229993Y47067D01*
X229944Y47158D01*
X229930Y47172D01*
X229920Y47189D01*
X229841Y47256D01*
X229766Y47327D01*
X229748Y47336D01*
X229733Y47349D01*
X229637Y47388D01*
X229543Y47431D01*
X229523Y47433D01*
X229505Y47441D01*
X229338Y47459D01*
X221209Y47459D01*
X221209Y49445D01*
X221382Y50092D01*
X221717Y50671D01*
X221748Y50702D01*
X221801Y50776D01*
X221861Y50846D01*
X221873Y50876D01*
X221892Y50902D01*
X221919Y50989D01*
X221953Y51074D01*
X221957Y51115D01*
X221964Y51137D01*
X221963Y51169D01*
X221971Y51241D01*
X221971Y57976D01*
X223013Y59018D01*
X226671Y59018D01*
X226691Y59021D01*
X226710Y59019D01*
X226812Y59041D01*
X226914Y59057D01*
X226931Y59067D01*
X226951Y59071D01*
X227040Y59124D01*
X227131Y59173D01*
X227145Y59187D01*
X227162Y59197D01*
X227229Y59276D01*
X227301Y59351D01*
X227309Y59369D01*
X227322Y59384D01*
X227361Y59480D01*
X227404Y59574D01*
X227406Y59594D01*
X227414Y59612D01*
X227432Y59779D01*
X227432Y71580D01*
X227418Y71670D01*
X227410Y71761D01*
X227398Y71790D01*
X227393Y71822D01*
X227350Y71903D01*
X227314Y71987D01*
X227288Y72019D01*
X227277Y72040D01*
X227254Y72062D01*
X227209Y72118D01*
X224468Y74859D01*
X222682Y76645D01*
X222682Y98229D01*
X222671Y98300D01*
X222669Y98371D01*
X222651Y98420D01*
X222643Y98472D01*
X222609Y98535D01*
X222584Y98602D01*
X222552Y98643D01*
X222527Y98689D01*
X222476Y98738D01*
X222431Y98794D01*
X222387Y98823D01*
X222349Y98858D01*
X222284Y98889D01*
X222224Y98927D01*
X222173Y98940D01*
X222126Y98962D01*
X222055Y98970D01*
X221985Y98987D01*
X221933Y98983D01*
X221882Y98989D01*
X221811Y98974D01*
X221740Y98968D01*
X221692Y98948D01*
X221641Y98937D01*
X221580Y98900D01*
X221514Y98872D01*
X221458Y98827D01*
X221430Y98811D01*
X221415Y98793D01*
X221383Y98767D01*
X221337Y98721D01*
X216363Y98721D01*
X216138Y98946D01*
X216122Y98958D01*
X216110Y98973D01*
X216022Y99030D01*
X215939Y99090D01*
X215920Y99096D01*
X215903Y99106D01*
X215802Y99132D01*
X215703Y99162D01*
X215683Y99162D01*
X215664Y99166D01*
X215561Y99158D01*
X215458Y99156D01*
X215439Y99149D01*
X215419Y99147D01*
X215324Y99107D01*
X215227Y99071D01*
X215211Y99059D01*
X215193Y99051D01*
X215062Y98946D01*
X214837Y98721D01*
X209730Y98721D01*
X209640Y98707D01*
X209549Y98699D01*
X209519Y98687D01*
X209487Y98682D01*
X209406Y98639D01*
X209322Y98603D01*
X209290Y98577D01*
X209270Y98566D01*
X209257Y98553D01*
X209256Y98553D01*
X209245Y98541D01*
X209191Y98498D01*
X209160Y98467D01*
X208581Y98132D01*
X207934Y97959D01*
X206724Y97959D01*
X206724Y102887D01*
X206721Y102906D01*
X206723Y102926D01*
X206710Y102986D01*
X206724Y103113D01*
X206724Y108041D01*
X207935Y108041D01*
X208581Y107868D01*
X209160Y107533D01*
X209191Y107502D01*
X209265Y107449D01*
X209335Y107389D01*
X209365Y107377D01*
X209391Y107358D01*
X209478Y107331D01*
X209563Y107297D01*
X209604Y107293D01*
X209626Y107286D01*
X209658Y107287D01*
X209730Y107279D01*
X214837Y107279D01*
X214883Y107233D01*
X214941Y107191D01*
X214993Y107142D01*
X215040Y107120D01*
X215082Y107089D01*
X215151Y107068D01*
X215216Y107038D01*
X215268Y107032D01*
X215318Y107017D01*
X215389Y107019D01*
X215460Y107011D01*
X215511Y107022D01*
X215563Y107023D01*
X215631Y107048D01*
X215701Y107063D01*
X215746Y107090D01*
X215794Y107108D01*
X215850Y107152D01*
X215912Y107189D01*
X215946Y107229D01*
X215986Y107261D01*
X216025Y107322D01*
X216072Y107376D01*
X216091Y107425D01*
X216119Y107468D01*
X216137Y107538D01*
X216164Y107604D01*
X216172Y107676D01*
X216180Y107707D01*
X216178Y107730D01*
X216182Y107771D01*
X216182Y137855D01*
X220995Y142668D01*
X304785Y142668D01*
X304900Y142687D01*
X305016Y142704D01*
X305021Y142706D01*
X305027Y142707D01*
X305130Y142762D01*
X305235Y142815D01*
X305239Y142820D01*
X305245Y142823D01*
X305325Y142907D01*
X305407Y142991D01*
X305411Y142997D01*
X305414Y143001D01*
X305422Y143018D01*
X305456Y143081D01*
X307006Y144630D01*
X309014Y145462D01*
X311186Y145462D01*
X313194Y144630D01*
X314730Y143094D01*
X315562Y141086D01*
X315562Y138914D01*
X314730Y136906D01*
X313194Y135370D01*
X311186Y134538D01*
X309014Y134538D01*
X307006Y135370D01*
X305446Y136930D01*
X305427Y136961D01*
X305366Y137062D01*
X305362Y137066D01*
X305358Y137071D01*
X305269Y137146D01*
X305179Y137222D01*
X305174Y137224D01*
X305169Y137228D01*
X305060Y137270D01*
X304951Y137314D01*
X304944Y137315D01*
X304939Y137316D01*
X304921Y137317D01*
X304785Y137332D01*
X223520Y137332D01*
X223430Y137318D01*
X223339Y137310D01*
X223310Y137298D01*
X223278Y137293D01*
X223197Y137250D01*
X223113Y137214D01*
X223081Y137188D01*
X223060Y137177D01*
X223038Y137154D01*
X222982Y137109D01*
X221741Y135868D01*
X221688Y135794D01*
X221628Y135725D01*
X221616Y135694D01*
X221597Y135668D01*
X221570Y135581D01*
X221536Y135496D01*
X221532Y135455D01*
X221525Y135433D01*
X221526Y135401D01*
X221518Y135330D01*
X221518Y114028D01*
X221529Y113958D01*
X221531Y113886D01*
X221549Y113837D01*
X221557Y113786D01*
X221591Y113722D01*
X221616Y113655D01*
X221648Y113614D01*
X221673Y113568D01*
X221725Y113519D01*
X221769Y113463D01*
X221813Y113435D01*
X221851Y113399D01*
X221916Y113369D01*
X221976Y113330D01*
X222027Y113317D01*
X222074Y113295D01*
X222145Y113287D01*
X222215Y113270D01*
X222267Y113274D01*
X222318Y113268D01*
X222389Y113283D01*
X222460Y113289D01*
X222508Y113309D01*
X222559Y113320D01*
X222620Y113357D01*
X222686Y113385D01*
X222742Y113430D01*
X222770Y113446D01*
X222785Y113464D01*
X222817Y113490D01*
X225813Y116486D01*
X225825Y116502D01*
X225840Y116515D01*
X225896Y116602D01*
X225957Y116686D01*
X225963Y116705D01*
X225973Y116722D01*
X225999Y116822D01*
X226029Y116921D01*
X226029Y116941D01*
X226034Y116960D01*
X226026Y117063D01*
X226023Y117167D01*
X226016Y117186D01*
X226014Y117205D01*
X225974Y117300D01*
X225938Y117398D01*
X225926Y117413D01*
X225918Y117432D01*
X225813Y117563D01*
X225470Y117906D01*
X224638Y119914D01*
X224638Y122086D01*
X225470Y124094D01*
X227006Y125630D01*
X229014Y126462D01*
X231186Y126462D01*
X233194Y125630D01*
X234730Y124094D01*
X235562Y122086D01*
X235562Y119914D01*
X234730Y117906D01*
X233170Y116346D01*
X233139Y116327D01*
X233038Y116266D01*
X233034Y116262D01*
X233029Y116258D01*
X232954Y116169D01*
X232878Y116079D01*
X232876Y116074D01*
X232872Y116069D01*
X232830Y115960D01*
X232828Y115955D01*
X228241Y111368D01*
X228188Y111294D01*
X228128Y111225D01*
X228116Y111194D01*
X228097Y111168D01*
X228070Y111081D01*
X228036Y110996D01*
X228032Y110955D01*
X228025Y110933D01*
X228026Y110901D01*
X228018Y110830D01*
X228018Y107771D01*
X228029Y107700D01*
X228031Y107629D01*
X228049Y107580D01*
X228057Y107528D01*
X228091Y107465D01*
X228116Y107398D01*
X228148Y107357D01*
X228173Y107311D01*
X228224Y107262D01*
X228269Y107206D01*
X228313Y107177D01*
X228351Y107142D01*
X228416Y107111D01*
X228476Y107073D01*
X228527Y107060D01*
X228574Y107038D01*
X228645Y107030D01*
X228715Y107013D01*
X228767Y107017D01*
X228818Y107011D01*
X228889Y107026D01*
X228960Y107032D01*
X229008Y107052D01*
X229059Y107063D01*
X229120Y107100D01*
X229186Y107128D01*
X229242Y107173D01*
X229270Y107189D01*
X229285Y107207D01*
X229317Y107233D01*
X229363Y107279D01*
X234337Y107279D01*
X234562Y107054D01*
X234578Y107042D01*
X234590Y107027D01*
X234677Y106971D01*
X234761Y106910D01*
X234780Y106904D01*
X234797Y106894D01*
X234898Y106868D01*
X234996Y106838D01*
X235016Y106838D01*
X235036Y106834D01*
X235139Y106842D01*
X235242Y106844D01*
X235261Y106851D01*
X235281Y106853D01*
X235376Y106893D01*
X235473Y106929D01*
X235489Y106941D01*
X235507Y106949D01*
X235638Y107054D01*
X235863Y107279D01*
X240837Y107279D01*
X240883Y107233D01*
X240941Y107191D01*
X240993Y107142D01*
X241040Y107120D01*
X241082Y107089D01*
X241151Y107068D01*
X241216Y107038D01*
X241268Y107032D01*
X241318Y107017D01*
X241389Y107019D01*
X241460Y107011D01*
X241511Y107022D01*
X241563Y107023D01*
X241631Y107048D01*
X241701Y107063D01*
X241746Y107090D01*
X241794Y107108D01*
X241850Y107152D01*
X241912Y107189D01*
X241946Y107229D01*
X241986Y107261D01*
X242025Y107322D01*
X242072Y107376D01*
X242091Y107425D01*
X242119Y107468D01*
X242137Y107538D01*
X242164Y107604D01*
X242172Y107676D01*
X242180Y107707D01*
X242178Y107730D01*
X242182Y107771D01*
X242182Y114778D01*
X242168Y114868D01*
X242160Y114959D01*
X242148Y114989D01*
X242143Y115021D01*
X242100Y115102D01*
X242064Y115186D01*
X242038Y115218D01*
X242027Y115238D01*
X242004Y115261D01*
X241959Y115317D01*
X240370Y116906D01*
X239538Y118914D01*
X239538Y121086D01*
X240370Y123094D01*
X241906Y124630D01*
X243914Y125462D01*
X246086Y125462D01*
X248094Y124630D01*
X249630Y123094D01*
X250462Y121086D01*
X250462Y118914D01*
X249630Y116906D01*
X248094Y115370D01*
X247988Y115326D01*
X247889Y115264D01*
X247788Y115204D01*
X247784Y115200D01*
X247779Y115196D01*
X247704Y115106D01*
X247628Y115017D01*
X247626Y115012D01*
X247622Y115007D01*
X247580Y114899D01*
X247536Y114789D01*
X247535Y114782D01*
X247534Y114777D01*
X247533Y114759D01*
X247518Y114622D01*
X247518Y112528D01*
X247529Y112458D01*
X247531Y112386D01*
X247549Y112337D01*
X247557Y112286D01*
X247591Y112222D01*
X247616Y112155D01*
X247648Y112114D01*
X247673Y112068D01*
X247725Y112019D01*
X247769Y111963D01*
X247813Y111935D01*
X247851Y111899D01*
X247916Y111869D01*
X247976Y111830D01*
X248027Y111817D01*
X248074Y111795D01*
X248145Y111787D01*
X248215Y111770D01*
X248267Y111774D01*
X248318Y111768D01*
X248389Y111783D01*
X248460Y111789D01*
X248508Y111809D01*
X248559Y111820D01*
X248620Y111857D01*
X248686Y111885D01*
X248742Y111930D01*
X248770Y111946D01*
X248785Y111964D01*
X248817Y111990D01*
X252495Y115668D01*
X256680Y115668D01*
X256770Y115682D01*
X256861Y115690D01*
X256890Y115702D01*
X256922Y115707D01*
X257003Y115750D01*
X257087Y115786D01*
X257119Y115812D01*
X257140Y115823D01*
X257162Y115846D01*
X257218Y115891D01*
X259455Y118128D01*
X259523Y118223D01*
X259593Y118317D01*
X259595Y118323D01*
X259599Y118328D01*
X259633Y118439D01*
X259669Y118551D01*
X259669Y118557D01*
X259671Y118563D01*
X259668Y118679D01*
X259667Y118796D01*
X259665Y118804D01*
X259665Y118809D01*
X259658Y118826D01*
X259638Y118895D01*
X259638Y121086D01*
X260470Y123094D01*
X262006Y124630D01*
X264014Y125462D01*
X266186Y125462D01*
X268194Y124630D01*
X269730Y123094D01*
X270562Y121086D01*
X270562Y118914D01*
X269730Y116906D01*
X268194Y115370D01*
X266186Y114538D01*
X263980Y114538D01*
X263944Y114547D01*
X263830Y114575D01*
X263824Y114575D01*
X263818Y114576D01*
X263701Y114565D01*
X263585Y114556D01*
X263579Y114554D01*
X263573Y114553D01*
X263466Y114506D01*
X263359Y114460D01*
X263353Y114455D01*
X263348Y114453D01*
X263335Y114441D01*
X263228Y114355D01*
X260741Y111868D01*
X260688Y111794D01*
X260628Y111725D01*
X260616Y111694D01*
X260597Y111668D01*
X260570Y111581D01*
X260536Y111496D01*
X260532Y111455D01*
X260525Y111433D01*
X260526Y111401D01*
X260518Y111330D01*
X260518Y107771D01*
X260529Y107700D01*
X260531Y107629D01*
X260549Y107580D01*
X260557Y107528D01*
X260591Y107465D01*
X260616Y107398D01*
X260648Y107357D01*
X260673Y107311D01*
X260724Y107262D01*
X260769Y107206D01*
X260813Y107177D01*
X260851Y107142D01*
X260916Y107111D01*
X260976Y107073D01*
X261027Y107060D01*
X261074Y107038D01*
X261145Y107030D01*
X261215Y107013D01*
X261267Y107017D01*
X261318Y107011D01*
X261389Y107026D01*
X261460Y107032D01*
X261508Y107052D01*
X261559Y107063D01*
X261620Y107100D01*
X261686Y107128D01*
X261742Y107173D01*
X261770Y107189D01*
X261785Y107207D01*
X261817Y107233D01*
X261863Y107279D01*
X266837Y107279D01*
X267062Y107054D01*
X267078Y107042D01*
X267090Y107027D01*
X267177Y106971D01*
X267261Y106910D01*
X267280Y106904D01*
X267297Y106894D01*
X267398Y106868D01*
X267496Y106838D01*
X267516Y106838D01*
X267536Y106834D01*
X267639Y106842D01*
X267742Y106844D01*
X267761Y106851D01*
X267781Y106853D01*
X267876Y106893D01*
X267973Y106929D01*
X267989Y106941D01*
X268007Y106949D01*
X268138Y107054D01*
X268363Y107279D01*
X273337Y107279D01*
X273562Y107054D01*
X273578Y107042D01*
X273590Y107027D01*
X273677Y106971D01*
X273761Y106910D01*
X273780Y106904D01*
X273797Y106894D01*
X273898Y106868D01*
X273996Y106838D01*
X274016Y106838D01*
X274036Y106834D01*
X274139Y106842D01*
X274242Y106844D01*
X274261Y106851D01*
X274281Y106853D01*
X274376Y106893D01*
X274473Y106929D01*
X274489Y106941D01*
X274507Y106949D01*
X274638Y107054D01*
X274863Y107279D01*
X279837Y107279D01*
X280062Y107054D01*
X280078Y107042D01*
X280090Y107027D01*
X280177Y106971D01*
X280261Y106910D01*
X280280Y106904D01*
X280297Y106894D01*
X280398Y106868D01*
X280496Y106838D01*
X280516Y106838D01*
X280536Y106834D01*
X280639Y106842D01*
X280742Y106844D01*
X280761Y106851D01*
X280781Y106853D01*
X280876Y106893D01*
X280973Y106929D01*
X280989Y106941D01*
X281007Y106949D01*
X281138Y107054D01*
X281363Y107279D01*
X286337Y107279D01*
X286562Y107054D01*
X286578Y107042D01*
X286590Y107027D01*
X286677Y106971D01*
X286761Y106910D01*
X286780Y106904D01*
X286797Y106894D01*
X286898Y106868D01*
X286996Y106838D01*
X287016Y106838D01*
X287036Y106834D01*
X287139Y106842D01*
X287242Y106844D01*
X287261Y106851D01*
X287281Y106853D01*
X287376Y106893D01*
X287473Y106929D01*
X287489Y106941D01*
X287507Y106949D01*
X287638Y107054D01*
X287863Y107279D01*
X292837Y107279D01*
X292883Y107233D01*
X292941Y107191D01*
X292993Y107142D01*
X293040Y107120D01*
X293082Y107089D01*
X293151Y107068D01*
X293216Y107038D01*
X293268Y107032D01*
X293318Y107017D01*
X293389Y107019D01*
X293460Y107011D01*
X293511Y107022D01*
X293563Y107023D01*
X293631Y107048D01*
X293701Y107063D01*
X293746Y107090D01*
X293794Y107108D01*
X293850Y107152D01*
X293912Y107189D01*
X293946Y107229D01*
X293986Y107261D01*
X294025Y107322D01*
X294072Y107376D01*
X294091Y107425D01*
X294119Y107468D01*
X294137Y107538D01*
X294164Y107604D01*
X294172Y107676D01*
X294180Y107707D01*
X294178Y107730D01*
X294182Y107771D01*
X294182Y109778D01*
X294168Y109868D01*
X294160Y109959D01*
X294148Y109989D01*
X294143Y110021D01*
X294100Y110102D01*
X294064Y110186D01*
X294038Y110218D01*
X294027Y110238D01*
X294004Y110261D01*
X293959Y110317D01*
X292370Y111906D01*
X291538Y113914D01*
X291538Y116086D01*
X292370Y118094D01*
X293906Y119630D01*
X295914Y120462D01*
X297877Y120462D01*
X297897Y120465D01*
X297916Y120463D01*
X298018Y120485D01*
X298120Y120501D01*
X298137Y120511D01*
X298157Y120515D01*
X298246Y120568D01*
X298337Y120617D01*
X298351Y120631D01*
X298368Y120641D01*
X298435Y120720D01*
X298507Y120795D01*
X298515Y120813D01*
X298528Y120828D01*
X298567Y120924D01*
X298610Y121018D01*
X298612Y121038D01*
X298620Y121056D01*
X298638Y121223D01*
X298638Y122086D01*
X299470Y124094D01*
X301006Y125630D01*
X303014Y126462D01*
X305186Y126462D01*
X307194Y125630D01*
X308730Y124094D01*
X309104Y123192D01*
X309142Y123131D01*
X309171Y123065D01*
X309206Y123027D01*
X309233Y122983D01*
X309289Y122937D01*
X309337Y122884D01*
X309383Y122859D01*
X309423Y122826D01*
X309490Y122800D01*
X309553Y122766D01*
X309604Y122756D01*
X309653Y122738D01*
X309724Y122735D01*
X309795Y122722D01*
X309846Y122730D01*
X309898Y122727D01*
X309967Y122748D01*
X310038Y122758D01*
X310085Y122782D01*
X310134Y122796D01*
X310194Y122837D01*
X310258Y122870D01*
X310294Y122907D01*
X310337Y122936D01*
X310379Y122994D01*
X310430Y123045D01*
X310440Y123064D01*
X312006Y124630D01*
X314014Y125462D01*
X316186Y125462D01*
X318194Y124630D01*
X319730Y123094D01*
X320562Y121086D01*
X320562Y118914D01*
X319730Y116906D01*
X318194Y115370D01*
X316186Y114538D01*
X313980Y114538D01*
X313943Y114547D01*
X313830Y114575D01*
X313824Y114575D01*
X313818Y114576D01*
X313701Y114565D01*
X313585Y114556D01*
X313579Y114554D01*
X313573Y114553D01*
X313466Y114506D01*
X313359Y114460D01*
X313353Y114455D01*
X313348Y114453D01*
X313335Y114441D01*
X313228Y114355D01*
X312741Y113868D01*
X312687Y113794D01*
X312628Y113725D01*
X312616Y113694D01*
X312597Y113668D01*
X312570Y113581D01*
X312536Y113496D01*
X312532Y113455D01*
X312525Y113433D01*
X312526Y113401D01*
X312518Y113330D01*
X312518Y108550D01*
X312533Y108456D01*
X312542Y108361D01*
X312553Y108335D01*
X312557Y108307D01*
X312602Y108223D01*
X312641Y108135D01*
X312659Y108115D01*
X312673Y108090D01*
X312742Y108024D01*
X312806Y107954D01*
X312831Y107940D01*
X312851Y107921D01*
X312937Y107880D01*
X313021Y107834D01*
X313049Y107829D01*
X313074Y107817D01*
X313169Y107806D01*
X313263Y107789D01*
X313291Y107793D01*
X313318Y107790D01*
X313412Y107810D01*
X313506Y107824D01*
X313538Y107838D01*
X313559Y107842D01*
X313587Y107859D01*
X314266Y108041D01*
X315476Y108041D01*
X315476Y103113D01*
X315479Y103094D01*
X315477Y103074D01*
X315490Y103014D01*
X315476Y102887D01*
X315476Y97959D01*
X314266Y97959D01*
X313619Y98132D01*
X313040Y98467D01*
X313009Y98498D01*
X312935Y98551D01*
X312865Y98611D01*
X312835Y98623D01*
X312809Y98642D01*
X312722Y98669D01*
X312637Y98703D01*
X312596Y98707D01*
X312574Y98714D01*
X312542Y98713D01*
X312470Y98721D01*
X307363Y98721D01*
X307138Y98946D01*
X307122Y98958D01*
X307110Y98973D01*
X307022Y99030D01*
X306939Y99090D01*
X306920Y99096D01*
X306903Y99106D01*
X306802Y99132D01*
X306703Y99162D01*
X306683Y99162D01*
X306664Y99166D01*
X306561Y99158D01*
X306458Y99156D01*
X306439Y99149D01*
X306419Y99147D01*
X306324Y99107D01*
X306227Y99071D01*
X306211Y99059D01*
X306193Y99051D01*
X306062Y98946D01*
X305837Y98721D01*
X300863Y98721D01*
X300638Y98946D01*
X300622Y98958D01*
X300610Y98973D01*
X300522Y99030D01*
X300439Y99090D01*
X300420Y99096D01*
X300403Y99106D01*
X300302Y99132D01*
X300203Y99162D01*
X300183Y99162D01*
X300164Y99166D01*
X300061Y99158D01*
X299958Y99156D01*
X299939Y99149D01*
X299919Y99147D01*
X299824Y99107D01*
X299727Y99071D01*
X299711Y99059D01*
X299693Y99051D01*
X299562Y98946D01*
X299337Y98721D01*
X294363Y98721D01*
X294138Y98946D01*
X294122Y98958D01*
X294110Y98973D01*
X294022Y99030D01*
X293939Y99090D01*
X293920Y99096D01*
X293903Y99106D01*
X293802Y99132D01*
X293703Y99162D01*
X293683Y99162D01*
X293664Y99166D01*
X293561Y99158D01*
X293458Y99156D01*
X293439Y99149D01*
X293419Y99147D01*
X293324Y99107D01*
X293227Y99071D01*
X293211Y99059D01*
X293193Y99051D01*
X293062Y98946D01*
X292837Y98721D01*
X287863Y98721D01*
X287638Y98946D01*
X287622Y98958D01*
X287610Y98973D01*
X287522Y99030D01*
X287439Y99090D01*
X287420Y99096D01*
X287403Y99106D01*
X287302Y99132D01*
X287203Y99162D01*
X287183Y99162D01*
X287164Y99166D01*
X287061Y99158D01*
X286958Y99156D01*
X286939Y99149D01*
X286919Y99147D01*
X286824Y99107D01*
X286727Y99071D01*
X286711Y99059D01*
X286693Y99051D01*
X286562Y98946D01*
X286337Y98721D01*
X281363Y98721D01*
X281138Y98946D01*
X281122Y98958D01*
X281110Y98973D01*
X281022Y99030D01*
X280939Y99090D01*
X280920Y99096D01*
X280903Y99106D01*
X280802Y99132D01*
X280703Y99162D01*
X280683Y99162D01*
X280664Y99166D01*
X280561Y99158D01*
X280458Y99156D01*
X280439Y99149D01*
X280419Y99147D01*
X280324Y99107D01*
X280227Y99071D01*
X280211Y99059D01*
X280193Y99051D01*
X280062Y98946D01*
X279837Y98721D01*
X274863Y98721D01*
X274638Y98946D01*
X274622Y98958D01*
X274610Y98973D01*
X274522Y99030D01*
X274439Y99090D01*
X274420Y99096D01*
X274403Y99106D01*
X274302Y99132D01*
X274203Y99162D01*
X274183Y99162D01*
X274164Y99166D01*
X274061Y99158D01*
X273958Y99156D01*
X273939Y99149D01*
X273919Y99147D01*
X273824Y99107D01*
X273727Y99071D01*
X273711Y99059D01*
X273693Y99051D01*
X273562Y98946D01*
X273337Y98721D01*
X268363Y98721D01*
X268138Y98946D01*
X268122Y98958D01*
X268110Y98973D01*
X268022Y99030D01*
X267939Y99090D01*
X267920Y99096D01*
X267903Y99106D01*
X267802Y99132D01*
X267703Y99162D01*
X267683Y99162D01*
X267664Y99166D01*
X267561Y99158D01*
X267458Y99156D01*
X267439Y99149D01*
X267419Y99147D01*
X267324Y99107D01*
X267227Y99071D01*
X267211Y99059D01*
X267193Y99051D01*
X267062Y98946D01*
X266837Y98721D01*
X261863Y98721D01*
X261638Y98946D01*
X261622Y98958D01*
X261610Y98973D01*
X261522Y99030D01*
X261439Y99090D01*
X261420Y99096D01*
X261403Y99106D01*
X261302Y99132D01*
X261203Y99162D01*
X261183Y99162D01*
X261164Y99166D01*
X261061Y99158D01*
X260958Y99156D01*
X260939Y99149D01*
X260919Y99147D01*
X260824Y99107D01*
X260727Y99071D01*
X260711Y99059D01*
X260693Y99051D01*
X260562Y98946D01*
X260337Y98721D01*
X255363Y98721D01*
X255138Y98946D01*
X255122Y98958D01*
X255110Y98973D01*
X255023Y99029D01*
X254939Y99090D01*
X254920Y99096D01*
X254903Y99106D01*
X254802Y99132D01*
X254704Y99162D01*
X254684Y99162D01*
X254664Y99166D01*
X254561Y99158D01*
X254458Y99156D01*
X254439Y99149D01*
X254419Y99147D01*
X254324Y99107D01*
X254227Y99071D01*
X254211Y99059D01*
X254193Y99051D01*
X254062Y98946D01*
X253837Y98721D01*
X248863Y98721D01*
X248638Y98946D01*
X248622Y98958D01*
X248610Y98973D01*
X248522Y99030D01*
X248439Y99090D01*
X248420Y99096D01*
X248403Y99106D01*
X248302Y99132D01*
X248203Y99162D01*
X248183Y99162D01*
X248164Y99166D01*
X248061Y99158D01*
X247958Y99156D01*
X247939Y99149D01*
X247919Y99147D01*
X247824Y99107D01*
X247727Y99071D01*
X247711Y99059D01*
X247693Y99051D01*
X247562Y98946D01*
X247337Y98721D01*
X242363Y98721D01*
X242138Y98946D01*
X242122Y98958D01*
X242110Y98973D01*
X242022Y99030D01*
X241939Y99090D01*
X241920Y99096D01*
X241903Y99106D01*
X241802Y99132D01*
X241703Y99162D01*
X241683Y99162D01*
X241664Y99166D01*
X241561Y99158D01*
X241458Y99156D01*
X241439Y99149D01*
X241419Y99147D01*
X241324Y99107D01*
X241227Y99071D01*
X241211Y99059D01*
X241193Y99051D01*
X241062Y98946D01*
X240837Y98721D01*
X235863Y98721D01*
X235638Y98946D01*
X235622Y98958D01*
X235610Y98973D01*
X235522Y99030D01*
X235439Y99090D01*
X235420Y99096D01*
X235403Y99106D01*
X235302Y99132D01*
X235203Y99162D01*
X235183Y99162D01*
X235164Y99166D01*
X235061Y99158D01*
X234958Y99156D01*
X234939Y99149D01*
X234919Y99147D01*
X234824Y99107D01*
X234727Y99071D01*
X234711Y99059D01*
X234693Y99051D01*
X234562Y98946D01*
X234337Y98721D01*
X229363Y98721D01*
X229317Y98767D01*
X229259Y98809D01*
X229207Y98858D01*
X229160Y98880D01*
X229118Y98911D01*
X229049Y98932D01*
X228984Y98962D01*
X228932Y98968D01*
X228882Y98983D01*
X228811Y98981D01*
X228740Y98989D01*
X228689Y98978D01*
X228637Y98977D01*
X228569Y98952D01*
X228499Y98937D01*
X228454Y98910D01*
X228406Y98892D01*
X228350Y98848D01*
X228288Y98811D01*
X228254Y98771D01*
X228214Y98739D01*
X228175Y98678D01*
X228128Y98624D01*
X228109Y98575D01*
X228081Y98532D01*
X228063Y98462D01*
X228036Y98396D01*
X228028Y98324D01*
X228020Y98293D01*
X228022Y98270D01*
X228018Y98229D01*
X228018Y79170D01*
X228032Y79080D01*
X228040Y78989D01*
X228052Y78960D01*
X228057Y78928D01*
X228100Y78847D01*
X228136Y78763D01*
X228162Y78731D01*
X228173Y78710D01*
X228196Y78688D01*
X228241Y78632D01*
X230982Y75891D01*
X232768Y74105D01*
X232768Y59779D01*
X232771Y59759D01*
X232769Y59740D01*
X232791Y59638D01*
X232807Y59536D01*
X232817Y59519D01*
X232821Y59499D01*
X232874Y59410D01*
X232923Y59319D01*
X232937Y59305D01*
X232947Y59288D01*
X233026Y59221D01*
X233101Y59149D01*
X233119Y59141D01*
X233134Y59128D01*
X233230Y59089D01*
X233324Y59046D01*
X233344Y59044D01*
X233362Y59036D01*
X233529Y59018D01*
X237187Y59018D01*
X238229Y57976D01*
X238229Y51241D01*
X238243Y51151D01*
X238251Y51060D01*
X238263Y51030D01*
X238268Y50998D01*
X238311Y50917D01*
X238347Y50833D01*
X238373Y50801D01*
X238384Y50781D01*
X238407Y50758D01*
X238452Y50702D01*
X238483Y50671D01*
X238818Y50092D01*
X238991Y49445D01*
X238991Y47459D01*
X230862Y47459D01*
X230842Y47456D01*
X230823Y47458D01*
X230721Y47436D01*
X230619Y47419D01*
X230602Y47410D01*
X230582Y47406D01*
X230493Y47353D01*
X230402Y47304D01*
X230388Y47290D01*
X230371Y47280D01*
X230304Y47201D01*
X230233Y47126D01*
X230224Y47108D01*
X230211Y47093D01*
X230172Y46997D01*
X230129Y46903D01*
X230127Y46883D01*
X230119Y46865D01*
X230101Y46698D01*
X230101Y45174D01*
X230104Y45154D01*
X230102Y45135D01*
X230124Y45033D01*
X230141Y44931D01*
X230150Y44914D01*
X230154Y44894D01*
X230207Y44805D01*
X230256Y44714D01*
X230270Y44700D01*
X230280Y44683D01*
X230359Y44616D01*
X230434Y44545D01*
X230452Y44536D01*
X230467Y44523D01*
X230563Y44484D01*
X230657Y44441D01*
X230677Y44439D01*
X230695Y44431D01*
X230862Y44413D01*
X238991Y44413D01*
X238991Y42426D01*
X238973Y42361D01*
X238961Y42243D01*
X238948Y42125D01*
X238949Y42120D01*
X238949Y42116D01*
X238975Y42001D01*
X239001Y41884D01*
X239003Y41881D01*
X239004Y41877D01*
X239066Y41774D01*
X239127Y41673D01*
X239130Y41670D01*
X239132Y41667D01*
X239224Y41590D01*
X239314Y41513D01*
X239317Y41512D01*
X239321Y41509D01*
X239432Y41466D01*
X239542Y41421D01*
X239547Y41421D01*
X239550Y41419D01*
X239563Y41419D01*
X239708Y41403D01*
X240927Y41403D01*
X241017Y41417D01*
X241108Y41425D01*
X241137Y41437D01*
X241169Y41442D01*
X241250Y41485D01*
X241334Y41521D01*
X241366Y41547D01*
X241387Y41558D01*
X241409Y41581D01*
X241465Y41626D01*
X267405Y67566D01*
X267458Y67640D01*
X267518Y67709D01*
X267530Y67740D01*
X267549Y67766D01*
X267576Y67853D01*
X267610Y67938D01*
X267614Y67979D01*
X267621Y68001D01*
X267620Y68033D01*
X267628Y68104D01*
X267628Y69666D01*
X268460Y71674D01*
X269996Y73210D01*
X272004Y74042D01*
X274176Y74042D01*
X276184Y73210D01*
X277720Y71674D01*
X278552Y69666D01*
X278552Y67494D01*
X277720Y65486D01*
X276184Y63950D01*
X274176Y63118D01*
X272614Y63118D01*
X272524Y63104D01*
X272433Y63096D01*
X272404Y63084D01*
X272372Y63079D01*
X272291Y63036D01*
X272207Y63000D01*
X272175Y62974D01*
X272154Y62963D01*
X272132Y62940D01*
X272076Y62895D01*
X243978Y34797D01*
X182002Y34797D01*
X181937Y34787D01*
X181872Y34786D01*
X181791Y34763D01*
X181759Y34758D01*
X181742Y34748D01*
X181710Y34739D01*
X181466Y34638D01*
X179294Y34638D01*
G37*
%LPD*%
%LPC*%
G36*
X94204Y122808D02*
X94204Y122808D01*
X92196Y123640D01*
X90660Y125176D01*
X89828Y127184D01*
X89828Y129356D01*
X90660Y131364D01*
X91764Y132468D01*
X91817Y132542D01*
X91877Y132612D01*
X91889Y132642D01*
X91908Y132668D01*
X91935Y132755D01*
X91969Y132840D01*
X91973Y132881D01*
X91980Y132903D01*
X91979Y132935D01*
X91987Y133007D01*
X91987Y166398D01*
X91984Y166418D01*
X91986Y166437D01*
X91964Y166539D01*
X91948Y166641D01*
X91938Y166658D01*
X91934Y166678D01*
X91881Y166767D01*
X91832Y166858D01*
X91818Y166872D01*
X91808Y166889D01*
X91729Y166956D01*
X91654Y167028D01*
X91636Y167036D01*
X91621Y167049D01*
X91525Y167088D01*
X91431Y167131D01*
X91411Y167133D01*
X91393Y167141D01*
X91226Y167159D01*
X89867Y167159D01*
X89777Y167145D01*
X89686Y167137D01*
X89656Y167125D01*
X89624Y167120D01*
X89543Y167077D01*
X89459Y167041D01*
X89427Y167015D01*
X89407Y167004D01*
X89384Y166981D01*
X89328Y166936D01*
X88224Y165832D01*
X86216Y165000D01*
X84044Y165000D01*
X82036Y165832D01*
X80500Y167368D01*
X79668Y169376D01*
X79668Y171548D01*
X80500Y173556D01*
X82036Y175092D01*
X84044Y175924D01*
X86216Y175924D01*
X88224Y175092D01*
X89328Y173988D01*
X89402Y173935D01*
X89472Y173875D01*
X89502Y173863D01*
X89528Y173844D01*
X89615Y173817D01*
X89700Y173783D01*
X89741Y173779D01*
X89763Y173772D01*
X89795Y173773D01*
X89867Y173765D01*
X91349Y173765D01*
X91439Y173779D01*
X91530Y173787D01*
X91559Y173799D01*
X91591Y173804D01*
X91672Y173847D01*
X91756Y173883D01*
X91788Y173909D01*
X91809Y173920D01*
X91831Y173943D01*
X91887Y173988D01*
X110432Y192533D01*
X119809Y192533D01*
X119905Y192548D01*
X120002Y192558D01*
X120026Y192568D01*
X120051Y192572D01*
X120137Y192618D01*
X120226Y192658D01*
X120246Y192675D01*
X120269Y192688D01*
X120336Y192758D01*
X120407Y192824D01*
X120420Y192847D01*
X120438Y192866D01*
X120479Y192954D01*
X120526Y193040D01*
X120531Y193065D01*
X120542Y193089D01*
X120552Y193186D01*
X120570Y193282D01*
X120566Y193307D01*
X120569Y193333D01*
X120548Y193428D01*
X120534Y193525D01*
X120522Y193548D01*
X120517Y193574D01*
X120466Y193658D01*
X120422Y193744D01*
X120404Y193762D01*
X120390Y193785D01*
X120316Y193848D01*
X120247Y193916D01*
X120218Y193932D01*
X120203Y193945D01*
X120173Y193957D01*
X120100Y193997D01*
X119466Y194260D01*
X117930Y195796D01*
X117098Y197804D01*
X117098Y199976D01*
X117930Y201984D01*
X119466Y203520D01*
X121474Y204352D01*
X123646Y204352D01*
X125654Y203520D01*
X127214Y201960D01*
X127233Y201929D01*
X127294Y201828D01*
X127298Y201824D01*
X127302Y201819D01*
X127391Y201744D01*
X127481Y201668D01*
X127486Y201666D01*
X127491Y201662D01*
X127600Y201620D01*
X127709Y201576D01*
X127716Y201575D01*
X127721Y201574D01*
X127739Y201573D01*
X127875Y201558D01*
X135095Y201558D01*
X141222Y195431D01*
X141296Y195378D01*
X141365Y195318D01*
X141396Y195306D01*
X141422Y195287D01*
X141509Y195260D01*
X141594Y195226D01*
X141635Y195222D01*
X141657Y195215D01*
X141689Y195216D01*
X141760Y195208D01*
X160330Y195208D01*
X160401Y195219D01*
X160473Y195221D01*
X160522Y195239D01*
X160573Y195247D01*
X160636Y195281D01*
X160704Y195306D01*
X160745Y195338D01*
X160791Y195363D01*
X160840Y195415D01*
X160896Y195459D01*
X160924Y195503D01*
X160960Y195541D01*
X160990Y195606D01*
X161029Y195666D01*
X161042Y195717D01*
X161064Y195764D01*
X161071Y195835D01*
X161089Y195905D01*
X161085Y195957D01*
X161091Y196008D01*
X161075Y196079D01*
X161070Y196150D01*
X161049Y196198D01*
X161038Y196249D01*
X161002Y196310D01*
X160973Y196376D01*
X160929Y196432D01*
X160912Y196460D01*
X160894Y196475D01*
X160869Y196507D01*
X160470Y196906D01*
X159638Y198914D01*
X159638Y201120D01*
X159647Y201156D01*
X159675Y201270D01*
X159675Y201276D01*
X159676Y201282D01*
X159665Y201399D01*
X159656Y201515D01*
X159654Y201521D01*
X159653Y201527D01*
X159605Y201634D01*
X159560Y201741D01*
X159555Y201747D01*
X159553Y201752D01*
X159541Y201765D01*
X159455Y201872D01*
X154218Y207109D01*
X154144Y207162D01*
X154075Y207222D01*
X154044Y207234D01*
X154018Y207253D01*
X153931Y207280D01*
X153846Y207314D01*
X153805Y207318D01*
X153783Y207325D01*
X153751Y207324D01*
X153680Y207332D01*
X30415Y207332D01*
X30300Y207313D01*
X30184Y207296D01*
X30179Y207294D01*
X30173Y207293D01*
X30070Y207238D01*
X29965Y207185D01*
X29961Y207180D01*
X29955Y207177D01*
X29875Y207093D01*
X29793Y207009D01*
X29789Y207003D01*
X29786Y206999D01*
X29778Y206982D01*
X29744Y206919D01*
X28194Y205370D01*
X26186Y204538D01*
X24014Y204538D01*
X22006Y205370D01*
X20470Y206906D01*
X19638Y208914D01*
X19638Y211086D01*
X20470Y213094D01*
X22006Y214630D01*
X24014Y215462D01*
X26186Y215462D01*
X28194Y214630D01*
X29754Y213070D01*
X29773Y213039D01*
X29834Y212938D01*
X29838Y212934D01*
X29842Y212929D01*
X29931Y212854D01*
X30021Y212778D01*
X30026Y212776D01*
X30031Y212772D01*
X30140Y212730D01*
X30249Y212686D01*
X30256Y212685D01*
X30261Y212684D01*
X30279Y212683D01*
X30415Y212668D01*
X156205Y212668D01*
X163228Y205645D01*
X163323Y205576D01*
X163417Y205507D01*
X163423Y205505D01*
X163428Y205501D01*
X163539Y205467D01*
X163651Y205431D01*
X163657Y205431D01*
X163663Y205429D01*
X163779Y205432D01*
X163896Y205433D01*
X163904Y205435D01*
X163909Y205435D01*
X163926Y205442D01*
X163995Y205462D01*
X166186Y205462D01*
X168194Y204630D01*
X169754Y203070D01*
X169774Y203038D01*
X169834Y202938D01*
X169838Y202934D01*
X169842Y202929D01*
X169932Y202854D01*
X170021Y202778D01*
X170026Y202776D01*
X170031Y202772D01*
X170140Y202730D01*
X170249Y202686D01*
X170256Y202685D01*
X170261Y202684D01*
X170279Y202683D01*
X170415Y202668D01*
X209785Y202668D01*
X209900Y202687D01*
X210016Y202704D01*
X210021Y202706D01*
X210027Y202707D01*
X210130Y202762D01*
X210235Y202815D01*
X210239Y202820D01*
X210245Y202823D01*
X210325Y202907D01*
X210407Y202991D01*
X210411Y202997D01*
X210414Y203001D01*
X210422Y203018D01*
X210456Y203081D01*
X212006Y204630D01*
X214014Y205462D01*
X216186Y205462D01*
X218194Y204630D01*
X219730Y203094D01*
X220562Y201086D01*
X220562Y198914D01*
X219730Y196906D01*
X219331Y196507D01*
X219289Y196449D01*
X219240Y196397D01*
X219218Y196350D01*
X219188Y196308D01*
X219167Y196239D01*
X219136Y196174D01*
X219131Y196122D01*
X219115Y196072D01*
X219117Y196001D01*
X219109Y195930D01*
X219120Y195879D01*
X219122Y195827D01*
X219146Y195759D01*
X219162Y195689D01*
X219188Y195644D01*
X219206Y195596D01*
X219251Y195540D01*
X219288Y195478D01*
X219327Y195444D01*
X219360Y195404D01*
X219420Y195365D01*
X219475Y195318D01*
X219523Y195299D01*
X219567Y195271D01*
X219636Y195253D01*
X219703Y195226D01*
X219774Y195218D01*
X219805Y195210D01*
X219829Y195212D01*
X219870Y195208D01*
X253249Y195208D01*
X253314Y195218D01*
X253379Y195219D01*
X253459Y195242D01*
X253492Y195247D01*
X253509Y195257D01*
X253540Y195266D01*
X254014Y195462D01*
X256186Y195462D01*
X258194Y194630D01*
X259730Y193094D01*
X260562Y191086D01*
X260562Y188914D01*
X259867Y187235D01*
X259856Y187191D01*
X259837Y187149D01*
X259828Y187072D01*
X259810Y186996D01*
X259815Y186950D01*
X259810Y186905D01*
X259826Y186828D01*
X259833Y186751D01*
X259852Y186709D01*
X259862Y186664D01*
X259902Y186597D01*
X259933Y186526D01*
X259965Y186492D01*
X259988Y186453D01*
X260047Y186402D01*
X260100Y186345D01*
X260140Y186323D01*
X260175Y186293D01*
X260247Y186264D01*
X260315Y186227D01*
X260361Y186218D01*
X260403Y186201D01*
X260539Y186186D01*
X260557Y186183D01*
X260562Y186184D01*
X260570Y186183D01*
X272163Y186183D01*
X272253Y186197D01*
X272344Y186205D01*
X272374Y186217D01*
X272406Y186222D01*
X272487Y186265D01*
X272571Y186301D01*
X272603Y186327D01*
X272623Y186338D01*
X272646Y186361D01*
X272702Y186406D01*
X273806Y187510D01*
X275814Y188342D01*
X277986Y188342D01*
X279994Y187510D01*
X281530Y185974D01*
X282362Y183966D01*
X282362Y181794D01*
X281530Y179786D01*
X279994Y178250D01*
X278630Y177685D01*
X278569Y177647D01*
X278503Y177618D01*
X278465Y177583D01*
X278421Y177555D01*
X278375Y177500D01*
X278322Y177451D01*
X278297Y177406D01*
X278264Y177366D01*
X278238Y177299D01*
X278204Y177236D01*
X278194Y177185D01*
X278176Y177136D01*
X278173Y177064D01*
X278160Y176994D01*
X278167Y176942D01*
X278165Y176890D01*
X278185Y176821D01*
X278196Y176750D01*
X278219Y176704D01*
X278234Y176654D01*
X278275Y176595D01*
X278307Y176531D01*
X278344Y176495D01*
X278374Y176452D01*
X278432Y176409D01*
X278483Y176359D01*
X278546Y176324D01*
X278571Y176305D01*
X278594Y176298D01*
X278630Y176278D01*
X280194Y175630D01*
X281730Y174094D01*
X282562Y172086D01*
X282562Y169914D01*
X281730Y167906D01*
X280194Y166370D01*
X278186Y165538D01*
X276014Y165538D01*
X274006Y166370D01*
X272446Y167930D01*
X272427Y167961D01*
X272366Y168062D01*
X272362Y168066D01*
X272358Y168071D01*
X272269Y168146D01*
X272179Y168222D01*
X272174Y168224D01*
X272169Y168228D01*
X272060Y168270D01*
X271951Y168314D01*
X271944Y168315D01*
X271939Y168316D01*
X271921Y168317D01*
X271785Y168332D01*
X235830Y168332D01*
X235715Y168313D01*
X235599Y168296D01*
X235593Y168294D01*
X235587Y168293D01*
X235484Y168238D01*
X235379Y168185D01*
X235375Y168180D01*
X235369Y168177D01*
X235290Y168093D01*
X235207Y168009D01*
X235204Y168003D01*
X235200Y167999D01*
X235192Y167982D01*
X235126Y167862D01*
X234730Y166906D01*
X233194Y165370D01*
X231186Y164538D01*
X229014Y164538D01*
X227006Y165370D01*
X225470Y166906D01*
X224638Y168914D01*
X224638Y171086D01*
X225470Y173094D01*
X227006Y174630D01*
X229014Y175462D01*
X231186Y175462D01*
X233194Y174630D01*
X233933Y173891D01*
X234007Y173838D01*
X234077Y173778D01*
X234107Y173766D01*
X234133Y173747D01*
X234220Y173720D01*
X234305Y173686D01*
X234346Y173682D01*
X234368Y173675D01*
X234400Y173676D01*
X234472Y173668D01*
X271785Y173668D01*
X271900Y173687D01*
X272016Y173704D01*
X272021Y173706D01*
X272027Y173707D01*
X272130Y173762D01*
X272235Y173815D01*
X272239Y173820D01*
X272245Y173823D01*
X272325Y173907D01*
X272407Y173991D01*
X272411Y173997D01*
X272414Y174001D01*
X272422Y174018D01*
X272456Y174081D01*
X274006Y175630D01*
X275370Y176195D01*
X275431Y176233D01*
X275497Y176262D01*
X275535Y176297D01*
X275579Y176325D01*
X275625Y176380D01*
X275678Y176429D01*
X275703Y176474D01*
X275736Y176514D01*
X275762Y176581D01*
X275796Y176644D01*
X275806Y176695D01*
X275824Y176744D01*
X275827Y176816D01*
X275840Y176886D01*
X275833Y176938D01*
X275835Y176990D01*
X275815Y177059D01*
X275804Y177130D01*
X275781Y177176D01*
X275766Y177226D01*
X275725Y177285D01*
X275693Y177349D01*
X275656Y177385D01*
X275626Y177428D01*
X275568Y177471D01*
X275517Y177521D01*
X275454Y177556D01*
X275429Y177575D01*
X275406Y177582D01*
X275370Y177602D01*
X273806Y178250D01*
X272702Y179354D01*
X272628Y179407D01*
X272558Y179467D01*
X272528Y179479D01*
X272502Y179498D01*
X272415Y179525D01*
X272330Y179559D01*
X272289Y179563D01*
X272267Y179570D01*
X272235Y179569D01*
X272163Y179577D01*
X204167Y179577D01*
X204077Y179563D01*
X203986Y179555D01*
X203956Y179543D01*
X203924Y179538D01*
X203843Y179495D01*
X203759Y179459D01*
X203727Y179433D01*
X203707Y179422D01*
X203684Y179399D01*
X203628Y179354D01*
X202524Y178250D01*
X200516Y177418D01*
X198344Y177418D01*
X196336Y178250D01*
X194800Y179786D01*
X193968Y181794D01*
X193968Y183356D01*
X193954Y183446D01*
X193946Y183537D01*
X193934Y183566D01*
X193929Y183598D01*
X193886Y183679D01*
X193850Y183763D01*
X193824Y183795D01*
X193813Y183816D01*
X193790Y183838D01*
X193745Y183894D01*
X193205Y184434D01*
X193131Y184487D01*
X193062Y184547D01*
X193031Y184559D01*
X193005Y184578D01*
X192918Y184605D01*
X192833Y184639D01*
X192792Y184643D01*
X192770Y184650D01*
X192738Y184649D01*
X192667Y184657D01*
X136774Y184657D01*
X136709Y184647D01*
X136644Y184646D01*
X136564Y184623D01*
X136531Y184618D01*
X136514Y184608D01*
X136483Y184599D01*
X134476Y183768D01*
X132304Y183768D01*
X130296Y184600D01*
X129192Y185704D01*
X129118Y185757D01*
X129048Y185817D01*
X129018Y185829D01*
X128992Y185848D01*
X128905Y185875D01*
X128820Y185909D01*
X128779Y185913D01*
X128757Y185920D01*
X128725Y185919D01*
X128653Y185927D01*
X113483Y185927D01*
X113393Y185913D01*
X113302Y185905D01*
X113273Y185893D01*
X113241Y185888D01*
X113160Y185845D01*
X113076Y185809D01*
X113044Y185783D01*
X113023Y185772D01*
X113001Y185749D01*
X112945Y185704D01*
X98816Y171575D01*
X98763Y171501D01*
X98703Y171432D01*
X98691Y171401D01*
X98672Y171375D01*
X98645Y171288D01*
X98633Y171257D01*
X98621Y171231D01*
X98620Y171226D01*
X98611Y171203D01*
X98607Y171162D01*
X98600Y171140D01*
X98601Y171108D01*
X98593Y171037D01*
X98593Y133007D01*
X98607Y132917D01*
X98615Y132826D01*
X98627Y132796D01*
X98632Y132764D01*
X98675Y132683D01*
X98711Y132599D01*
X98737Y132567D01*
X98748Y132547D01*
X98771Y132524D01*
X98816Y132468D01*
X99920Y131364D01*
X100752Y129356D01*
X100752Y127184D01*
X99920Y125176D01*
X98384Y123640D01*
X96376Y122808D01*
X94204Y122808D01*
G37*
%LPD*%
G36*
X188806Y41406D02*
X188806Y41406D01*
X188825Y41404D01*
X188927Y41426D01*
X189029Y41442D01*
X189046Y41452D01*
X189066Y41456D01*
X189155Y41509D01*
X189246Y41558D01*
X189260Y41572D01*
X189277Y41582D01*
X189344Y41661D01*
X189416Y41736D01*
X189424Y41754D01*
X189437Y41769D01*
X189476Y41865D01*
X189519Y41959D01*
X189521Y41979D01*
X189529Y41997D01*
X189547Y42164D01*
X189547Y97265D01*
X189528Y97382D01*
X189510Y97500D01*
X189508Y97504D01*
X189508Y97508D01*
X189452Y97612D01*
X189397Y97719D01*
X189394Y97722D01*
X189392Y97725D01*
X189306Y97807D01*
X189221Y97890D01*
X189217Y97892D01*
X189214Y97895D01*
X189106Y97945D01*
X188999Y97996D01*
X188995Y97997D01*
X188991Y97998D01*
X188873Y98012D01*
X188755Y98026D01*
X188750Y98025D01*
X188747Y98026D01*
X188733Y98023D01*
X188589Y98001D01*
X188434Y97959D01*
X187224Y97959D01*
X187224Y102887D01*
X187221Y102906D01*
X187223Y102926D01*
X187210Y102986D01*
X187224Y103113D01*
X187224Y108041D01*
X188435Y108041D01*
X189081Y107868D01*
X189660Y107533D01*
X189691Y107502D01*
X189765Y107449D01*
X189835Y107389D01*
X189865Y107377D01*
X189891Y107358D01*
X189978Y107331D01*
X190063Y107297D01*
X190104Y107293D01*
X190126Y107286D01*
X190158Y107287D01*
X190230Y107279D01*
X195286Y107279D01*
X195306Y107282D01*
X195325Y107280D01*
X195427Y107302D01*
X195529Y107318D01*
X195546Y107328D01*
X195566Y107332D01*
X195655Y107385D01*
X195746Y107434D01*
X195760Y107448D01*
X195777Y107458D01*
X195844Y107537D01*
X195916Y107612D01*
X195924Y107630D01*
X195937Y107645D01*
X195976Y107741D01*
X196019Y107835D01*
X196021Y107855D01*
X196029Y107873D01*
X196047Y108040D01*
X196047Y117263D01*
X196033Y117353D01*
X196025Y117444D01*
X196013Y117474D01*
X196008Y117506D01*
X195965Y117587D01*
X195929Y117671D01*
X195903Y117703D01*
X195892Y117723D01*
X195869Y117746D01*
X195824Y117802D01*
X194756Y118869D01*
X194749Y118883D01*
X194731Y118900D01*
X194717Y118922D01*
X194642Y118985D01*
X194571Y119052D01*
X194548Y119063D01*
X194528Y119079D01*
X194437Y119115D01*
X194348Y119156D01*
X194322Y119159D01*
X194298Y119168D01*
X194201Y119172D01*
X194104Y119183D01*
X194078Y119177D01*
X194053Y119178D01*
X193959Y119151D01*
X193863Y119131D01*
X193841Y119117D01*
X193816Y119110D01*
X193736Y119054D01*
X193652Y119004D01*
X193635Y118985D01*
X193614Y118970D01*
X193556Y118892D01*
X193492Y118817D01*
X193482Y118794D01*
X193467Y118773D01*
X193437Y118680D01*
X193400Y118589D01*
X193397Y118557D01*
X193391Y118539D01*
X193391Y118506D01*
X193382Y118423D01*
X193382Y117024D01*
X192550Y115016D01*
X191014Y113480D01*
X189006Y112648D01*
X186834Y112648D01*
X184826Y113480D01*
X183328Y114978D01*
X183311Y114990D01*
X183299Y115006D01*
X183212Y115062D01*
X183128Y115122D01*
X183109Y115128D01*
X183092Y115139D01*
X182992Y115164D01*
X182893Y115194D01*
X182873Y115194D01*
X182854Y115199D01*
X182751Y115191D01*
X182647Y115188D01*
X182628Y115181D01*
X182608Y115179D01*
X182513Y115139D01*
X182416Y115103D01*
X182400Y115091D01*
X182382Y115083D01*
X182251Y114978D01*
X176241Y108968D01*
X176188Y108894D01*
X176128Y108825D01*
X176116Y108794D01*
X176097Y108768D01*
X176070Y108681D01*
X176036Y108596D01*
X176032Y108555D01*
X176025Y108533D01*
X176026Y108501D01*
X176018Y108430D01*
X176018Y107771D01*
X176029Y107700D01*
X176031Y107629D01*
X176049Y107580D01*
X176057Y107528D01*
X176091Y107465D01*
X176116Y107398D01*
X176148Y107357D01*
X176173Y107311D01*
X176224Y107262D01*
X176269Y107206D01*
X176313Y107177D01*
X176351Y107142D01*
X176416Y107111D01*
X176476Y107073D01*
X176527Y107060D01*
X176574Y107038D01*
X176645Y107030D01*
X176715Y107013D01*
X176767Y107017D01*
X176818Y107011D01*
X176889Y107026D01*
X176960Y107032D01*
X177008Y107052D01*
X177059Y107063D01*
X177120Y107100D01*
X177186Y107128D01*
X177242Y107173D01*
X177270Y107189D01*
X177285Y107207D01*
X177317Y107233D01*
X177363Y107279D01*
X182470Y107279D01*
X182560Y107293D01*
X182651Y107301D01*
X182681Y107313D01*
X182713Y107318D01*
X182794Y107361D01*
X182878Y107397D01*
X182910Y107423D01*
X182930Y107434D01*
X182953Y107457D01*
X183009Y107502D01*
X183040Y107533D01*
X183619Y107868D01*
X184266Y108041D01*
X185476Y108041D01*
X185476Y103113D01*
X185479Y103094D01*
X185477Y103074D01*
X185490Y103014D01*
X185476Y102887D01*
X185476Y97959D01*
X184266Y97959D01*
X184111Y98001D01*
X183992Y98013D01*
X183875Y98026D01*
X183870Y98025D01*
X183866Y98025D01*
X183751Y97999D01*
X183634Y97973D01*
X183631Y97971D01*
X183627Y97970D01*
X183525Y97908D01*
X183423Y97847D01*
X183420Y97844D01*
X183417Y97842D01*
X183340Y97751D01*
X183263Y97660D01*
X183262Y97656D01*
X183259Y97653D01*
X183216Y97543D01*
X183171Y97432D01*
X183171Y97427D01*
X183169Y97424D01*
X183169Y97410D01*
X183153Y97265D01*
X183153Y80652D01*
X180995Y78494D01*
X177556Y75055D01*
X177503Y74981D01*
X177443Y74912D01*
X177431Y74881D01*
X177412Y74855D01*
X177385Y74768D01*
X177351Y74683D01*
X177347Y74642D01*
X177340Y74620D01*
X177341Y74588D01*
X177333Y74517D01*
X177333Y48133D01*
X177347Y48043D01*
X177355Y47952D01*
X177367Y47923D01*
X177372Y47891D01*
X177415Y47810D01*
X177451Y47726D01*
X177477Y47694D01*
X177488Y47673D01*
X177511Y47651D01*
X177556Y47595D01*
X179366Y45785D01*
X179440Y45732D01*
X179509Y45672D01*
X179540Y45660D01*
X179566Y45641D01*
X179653Y45614D01*
X179738Y45580D01*
X179779Y45576D01*
X179801Y45569D01*
X179833Y45570D01*
X179904Y45562D01*
X181466Y45562D01*
X183474Y44730D01*
X185010Y43194D01*
X185557Y41873D01*
X185619Y41773D01*
X185679Y41673D01*
X185684Y41669D01*
X185687Y41664D01*
X185777Y41589D01*
X185866Y41513D01*
X185872Y41511D01*
X185877Y41507D01*
X185985Y41465D01*
X186094Y41421D01*
X186102Y41420D01*
X186106Y41419D01*
X186124Y41418D01*
X186261Y41403D01*
X188786Y41403D01*
X188806Y41406D01*
G37*
%LPC*%
G36*
X32459Y176721D02*
X32459Y176721D01*
X27578Y178743D01*
X23843Y182478D01*
X21821Y187359D01*
X21821Y192641D01*
X23843Y197522D01*
X27578Y201257D01*
X32459Y203279D01*
X37741Y203279D01*
X42622Y201257D01*
X46357Y197522D01*
X48379Y192641D01*
X48379Y187359D01*
X46357Y182478D01*
X42622Y178743D01*
X37741Y176721D01*
X32459Y176721D01*
G37*
%LPD*%
%LPC*%
G36*
X133252Y33221D02*
X133252Y33221D01*
X130760Y34253D01*
X128853Y36160D01*
X127821Y38652D01*
X127821Y41348D01*
X128853Y43840D01*
X130760Y45747D01*
X133252Y46779D01*
X135948Y46779D01*
X138440Y45747D01*
X140347Y43840D01*
X141379Y41348D01*
X141379Y38652D01*
X140347Y36160D01*
X138440Y34253D01*
X135948Y33221D01*
X133252Y33221D01*
G37*
%LPD*%
%LPC*%
G36*
X53252Y33221D02*
X53252Y33221D01*
X50760Y34253D01*
X48853Y36160D01*
X47821Y38652D01*
X47821Y41348D01*
X48853Y43840D01*
X50760Y45747D01*
X53252Y46779D01*
X55948Y46779D01*
X58440Y45747D01*
X60347Y43840D01*
X61379Y41348D01*
X61379Y38652D01*
X60347Y36160D01*
X58440Y34253D01*
X55948Y33221D01*
X53252Y33221D01*
G37*
%LPD*%
%LPC*%
G36*
X317701Y57221D02*
X317701Y57221D01*
X315577Y58101D01*
X313951Y59727D01*
X313071Y61851D01*
X313071Y64149D01*
X313951Y66273D01*
X315577Y67899D01*
X317701Y68779D01*
X319999Y68779D01*
X322123Y67899D01*
X323749Y66273D01*
X324629Y64149D01*
X324629Y61851D01*
X323749Y59727D01*
X322123Y58101D01*
X319999Y57221D01*
X317701Y57221D01*
G37*
%LPD*%
%LPC*%
G36*
X458054Y39623D02*
X458054Y39623D01*
X458255Y40896D01*
X458836Y42683D01*
X459689Y44357D01*
X460794Y45878D01*
X462122Y47206D01*
X463643Y48311D01*
X465317Y49164D01*
X467104Y49745D01*
X468377Y49946D01*
X468377Y39623D01*
X458054Y39623D01*
G37*
%LPD*%
%LPC*%
G36*
X467104Y26455D02*
X467104Y26455D01*
X465317Y27036D01*
X463643Y27889D01*
X462122Y28994D01*
X460794Y30322D01*
X459689Y31843D01*
X458836Y33517D01*
X458255Y35304D01*
X458054Y36577D01*
X468377Y36577D01*
X468377Y26254D01*
X467104Y26455D01*
G37*
%LPD*%
%LPC*%
G36*
X317224Y103874D02*
X317224Y103874D01*
X317224Y108041D01*
X318435Y108041D01*
X319081Y107868D01*
X319219Y107788D01*
X319283Y107764D01*
X319342Y107731D01*
X319397Y107720D01*
X319449Y107701D01*
X319517Y107698D01*
X319583Y107686D01*
X319639Y107694D01*
X319695Y107691D01*
X319760Y107711D01*
X319827Y107720D01*
X319900Y107752D01*
X319931Y107761D01*
X319948Y107773D01*
X319981Y107787D01*
X320119Y107868D01*
X320766Y108041D01*
X321976Y108041D01*
X321976Y103874D01*
X317224Y103874D01*
G37*
%LPD*%
%LPC*%
G36*
X317224Y97959D02*
X317224Y97959D01*
X317224Y102126D01*
X321976Y102126D01*
X321976Y97959D01*
X320766Y97959D01*
X320119Y98132D01*
X319981Y98213D01*
X319917Y98236D01*
X319858Y98269D01*
X319803Y98280D01*
X319751Y98299D01*
X319683Y98302D01*
X319616Y98314D01*
X319561Y98306D01*
X319505Y98308D01*
X319440Y98289D01*
X319373Y98280D01*
X319300Y98248D01*
X319269Y98239D01*
X319252Y98227D01*
X319219Y98212D01*
X319081Y98132D01*
X318434Y97959D01*
X317224Y97959D01*
G37*
%LPD*%
%LPC*%
G36*
X323724Y103874D02*
X323724Y103874D01*
X323724Y108041D01*
X324935Y108041D01*
X325581Y107868D01*
X326160Y107533D01*
X326633Y107060D01*
X326968Y106481D01*
X327141Y105834D01*
X327141Y103874D01*
X323724Y103874D01*
G37*
%LPD*%
%LPC*%
G36*
X323724Y97959D02*
X323724Y97959D01*
X323724Y102126D01*
X327141Y102126D01*
X327141Y100166D01*
X326968Y99519D01*
X326633Y98940D01*
X326160Y98467D01*
X325581Y98132D01*
X324934Y97959D01*
X323724Y97959D01*
G37*
%LPD*%
%LPC*%
G36*
X143059Y103874D02*
X143059Y103874D01*
X143059Y105834D01*
X143232Y106481D01*
X143567Y107060D01*
X144040Y107533D01*
X144619Y107868D01*
X145266Y108041D01*
X146476Y108041D01*
X146476Y103874D01*
X143059Y103874D01*
G37*
%LPD*%
%LPC*%
G36*
X145266Y97959D02*
X145266Y97959D01*
X144619Y98132D01*
X144040Y98467D01*
X143567Y98940D01*
X143232Y99519D01*
X143059Y100166D01*
X143059Y102126D01*
X146476Y102126D01*
X146476Y97959D01*
X145266Y97959D01*
G37*
%LPD*%
D10*
X147350Y103000D03*
X153850Y103000D03*
X160350Y103000D03*
X166850Y103000D03*
X173350Y103000D03*
X179850Y103000D03*
X186350Y103000D03*
X192850Y103000D03*
X199350Y103000D03*
X205850Y103000D03*
X212350Y103000D03*
X218850Y103000D03*
X225350Y103000D03*
X231850Y103000D03*
X238350Y103000D03*
X244850Y103000D03*
X251350Y103000D03*
X257850Y103000D03*
X264350Y103000D03*
X270850Y103000D03*
X277350Y103000D03*
X283850Y103000D03*
X290350Y103000D03*
X296850Y103000D03*
X303350Y103000D03*
X309850Y103000D03*
X316350Y103000D03*
X322850Y103000D03*
D11*
X470100Y10000D03*
X100Y210000D03*
D12*
X230100Y45936D03*
X230100Y54064D03*
D13*
X469900Y38100D03*
X469900Y63500D03*
X469900Y88900D03*
X469900Y114300D03*
D14*
X19100Y26000D03*
X194100Y11000D03*
X285100Y120000D03*
X355100Y20000D03*
X365100Y140000D03*
X470260Y140000D03*
X118100Y130000D03*
X20100Y120000D03*
X345100Y87000D03*
X150100Y129000D03*
X107100Y173000D03*
X296100Y80000D03*
X163590Y25140D03*
X334100Y18000D03*
X305100Y36000D03*
X285100Y36000D03*
X261100Y35000D03*
X185100Y70000D03*
X241100Y68000D03*
X241100Y201000D03*
X399140Y89200D03*
X185660Y137890D03*
X304100Y121000D03*
D15*
X303350Y120250D02*
X303350Y103000D01*
X303350Y120250D02*
X304100Y121000D01*
D14*
X297000Y115000D03*
D15*
X296850Y114850D02*
X296850Y103000D01*
X296850Y114850D02*
X297000Y115000D01*
X218850Y103000D02*
X218850Y136750D01*
X222100Y140000D01*
X310100Y140000D01*
D14*
X310100Y140000D03*
X162520Y78740D03*
D15*
X160350Y80910D01*
X160350Y103000D01*
D14*
X175220Y129540D03*
D15*
X166850Y121170D01*
X166850Y103000D01*
X309850Y103000D02*
X309850Y114750D01*
X315100Y120000D01*
D14*
X315100Y120000D03*
X277100Y171000D03*
D15*
X231100Y171000D01*
X230100Y170000D01*
D14*
X230100Y170000D03*
X230100Y121000D03*
D15*
X230100Y117000D01*
X225350Y112250D02*
X225350Y103000D01*
X225350Y112250D02*
X230100Y117000D01*
X225350Y103000D02*
X225350Y77750D01*
X230100Y73000D01*
X230100Y54064D01*
D14*
X162520Y62230D03*
D15*
X153850Y70900D01*
X153850Y103000D01*
D14*
X187920Y118110D03*
D15*
X173350Y109850D02*
X173350Y103000D01*
X181610Y118110D02*
X187920Y118110D01*
X181610Y118110D02*
X173350Y109850D01*
D16*
X199350Y103000D02*
X199350Y121840D01*
X199430Y121920D01*
D14*
X199430Y121920D03*
X199430Y182880D03*
D16*
X194350Y187960D01*
X134660Y187960D02*
X133390Y189230D01*
X134660Y187960D02*
X194350Y187960D01*
D14*
X133390Y189230D03*
X95290Y128270D03*
X85130Y170462D03*
D16*
X111800Y189230D02*
X133390Y189230D01*
X111800Y189230D02*
X95290Y172720D01*
X95290Y170180D02*
X95290Y128270D01*
X95290Y170180D02*
X95290Y172720D01*
X95008Y170462D02*
X85130Y170462D01*
X95008Y170462D02*
X95290Y170180D01*
D14*
X276900Y182880D03*
D16*
X199430Y182880D01*
D14*
X273090Y68580D03*
D16*
X242610Y38100D01*
X199430Y38100D01*
D14*
X180380Y40100D03*
D16*
X193080Y38100D02*
X199430Y38100D01*
X193080Y38100D02*
X192850Y38330D01*
X199350Y38180D02*
X199350Y103000D01*
X199350Y38180D02*
X199430Y38100D01*
X179850Y82020D02*
X179850Y103000D01*
X179850Y82020D02*
X174030Y76200D01*
X192850Y103000D02*
X192850Y38330D01*
X174030Y46450D02*
X174030Y76200D01*
X174030Y46450D02*
X180380Y40100D01*
X182380Y38100D02*
X193080Y38100D01*
X182380Y38100D02*
X180380Y40100D01*
D14*
X25100Y210000D03*
D15*
X155100Y210000D01*
X165100Y200000D01*
D14*
X165100Y200000D03*
X215100Y200000D03*
D15*
X165100Y200000D01*
D14*
X178100Y150000D03*
D15*
X244850Y119850D02*
X244850Y103000D01*
X244850Y119850D02*
X245000Y120000D01*
D14*
X245000Y120000D03*
X245000Y150000D03*
D15*
X178100Y150000D01*
X245000Y150000D02*
X425100Y150000D01*
D14*
X425100Y150000D03*
X165100Y160000D03*
D15*
X265100Y160000D01*
X257850Y112750D02*
X257850Y103000D01*
X257850Y112750D02*
X265100Y120000D01*
D14*
X265100Y120000D03*
X265100Y160000D03*
D15*
X251350Y110750D02*
X251350Y103000D01*
X253600Y113000D02*
X257600Y113000D01*
X257850Y112750D01*
X253600Y113000D02*
X251350Y110750D01*
X265100Y160000D02*
X427100Y160000D01*
X433100Y154000D01*
X433100Y118000D01*
X424100Y109000D01*
D14*
X424100Y109000D03*
X122560Y198890D03*
D15*
X133990Y198890D01*
X140340Y192540D01*
X252560Y192540D01*
X255100Y190000D01*
D14*
X255100Y190000D03*
M02*
