G04 EAGLE Gerber RS-274X export*
G75*
%MOMM*%
%FSLAX34Y34*%
%LPD*%
%INSoldermask Top*%
%IPPOS*%
%AMOC8*
5,1,8,0,0,1.08239X$1,22.5*%
G01*
%ADD10R,0.553200X0.703200*%
%ADD11C,1.003200*%
%ADD12C,1.203200*%
%ADD13R,1.473200X0.838200*%
%ADD14C,2.503200*%
%ADD15C,2.082800*%


D10*
X147350Y103000D03*
X153850Y103000D03*
X160350Y103000D03*
X166850Y103000D03*
X173350Y103000D03*
X179850Y103000D03*
X186350Y103000D03*
X192850Y103000D03*
X199350Y103000D03*
X205850Y103000D03*
X212350Y103000D03*
X218850Y103000D03*
X225350Y103000D03*
X231850Y103000D03*
X238350Y103000D03*
X244850Y103000D03*
X251350Y103000D03*
X257850Y103000D03*
X264350Y103000D03*
X270850Y103000D03*
X277350Y103000D03*
X283850Y103000D03*
X290350Y103000D03*
X296850Y103000D03*
X303350Y103000D03*
X309850Y103000D03*
X316350Y103000D03*
X322850Y103000D03*
D11*
X318850Y63000D03*
X151350Y63000D03*
D12*
X470100Y10000D03*
X100Y210000D03*
D13*
X230100Y45936D03*
X230100Y54064D03*
D14*
X35100Y190000D03*
D12*
X54600Y40000D03*
X134600Y40000D03*
D15*
X469900Y38100D03*
X469900Y63500D03*
X469900Y88900D03*
X469900Y114300D03*
M02*
