G04 EAGLE Gerber RS-274X export*
G75*
%MOMM*%
%FSLAX34Y34*%
%LPD*%
%INSolderpaste Top*%
%IPPOS*%
%AMOC8*
5,1,8,0,0,1.08239X$1,22.5*%
G01*
%ADD10R,1.200000X0.800000*%
%ADD11R,1.000000X1.100000*%
%ADD12R,1.800000X1.600000*%
%ADD13R,1.800000X1.400000*%
%ADD14R,1.400000X1.900000*%
%ADD15R,0.800000X1.500000*%
%ADD16R,1.600000X1.500000*%
%ADD17R,0.400000X0.800000*%
%ADD18R,0.250000X0.650000*%
%ADD19R,0.250000X0.275000*%
%ADD20R,0.275000X0.250000*%
%ADD21R,0.650000X1.300000*%
%ADD22R,0.480000X1.800000*%
%ADD23R,1.030000X1.000000*%
%ADD24R,1.524000X0.762000*%


D10*
X140000Y81000D03*
X140000Y99000D03*
X300000Y109000D03*
X300000Y91000D03*
X320000Y109000D03*
X320000Y91000D03*
D11*
X200000Y91500D03*
X200000Y108500D03*
D12*
X160000Y86000D03*
X160000Y114000D03*
D11*
X180000Y108500D03*
X180000Y91500D03*
X280000Y91500D03*
X280000Y108500D03*
X240000Y108500D03*
X240000Y91500D03*
X260000Y91500D03*
X260000Y108500D03*
X220000Y91500D03*
X220000Y108500D03*
X300000Y48500D03*
X300000Y31500D03*
X320000Y31500D03*
X320000Y48500D03*
D13*
X410500Y153000D03*
X353500Y153000D03*
D14*
X337500Y21500D03*
X469000Y11500D03*
D15*
X422400Y50000D03*
X411400Y54000D03*
X400400Y50000D03*
X389400Y48000D03*
X378400Y50000D03*
X367400Y48000D03*
X356400Y50000D03*
X345400Y50000D03*
D16*
X40000Y162000D03*
X40000Y198000D03*
D11*
X90000Y161500D03*
X90000Y178500D03*
D17*
X377500Y201500D03*
D18*
X367500Y176500D03*
X362500Y176500D03*
D17*
X302500Y201500D03*
D18*
X357500Y176500D03*
X352500Y176500D03*
X347500Y176500D03*
X342500Y176500D03*
X337500Y176500D03*
X332500Y176500D03*
X327500Y176500D03*
X322500Y176500D03*
X317500Y176500D03*
X312500Y176500D03*
D19*
X157500Y172500D03*
X162500Y172500D03*
X162500Y187500D03*
X157500Y187500D03*
D20*
X152500Y187500D03*
X152500Y182500D03*
X152500Y172500D03*
X152500Y177500D03*
X167500Y172500D03*
X167500Y177500D03*
X167500Y182500D03*
X167500Y187500D03*
D11*
X130000Y171500D03*
X130000Y188500D03*
X190000Y171500D03*
X190000Y188500D03*
D21*
X111750Y132500D03*
X99050Y132500D03*
X86350Y132500D03*
X73650Y132500D03*
X60950Y132500D03*
X48250Y132500D03*
D22*
X33100Y68300D03*
X33100Y125800D03*
X126600Y125800D03*
X126600Y68300D03*
D23*
X35350Y11100D03*
X124650Y11100D03*
D17*
X287500Y201500D03*
D18*
X277500Y176500D03*
X272500Y176500D03*
D17*
X212500Y201500D03*
D18*
X267500Y176500D03*
X262500Y176500D03*
X257500Y176500D03*
X252500Y176500D03*
X247500Y176500D03*
X242500Y176500D03*
X237500Y176500D03*
X232500Y176500D03*
X227500Y176500D03*
X222500Y176500D03*
D24*
X392060Y209050D03*
X447940Y209050D03*
X392060Y170950D03*
X447940Y170950D03*
M02*
