M48
;GenerationSoftware,Autodesk,EAGLE,9.6.2*%
;CreationDate,2024-09-09T23:20:45Z*%
FMAT,2
ICI,OFF
METRIC,TZ,000.000
T5C0.381
T4C0.800
T3C1.000
T2C1.016
T1C2.300
%
G90
M71
T1
X3510Y19000
T2
X46990Y11430
X46990Y3810
X46990Y6350
X46990Y8890
T3
X5460Y4000
X13460Y4000
T4
X15135Y6300
X31885Y6300
T5
X15010Y12900
X10710Y17300
X29610Y8000
X16359Y2514
X33410Y1800
X30510Y3600
X28510Y3600
X26110Y3500
X18510Y7000
X24110Y6800
X24110Y20100
X39914Y8920
X18566Y13789
X30410Y12100
X29700Y11500
X31010Y14000
X16252Y7874
X17522Y12954
X31510Y12000
X27710Y17100
X23010Y17000
X23010Y12100
X2010Y12000
X18792Y11811
X19943Y12192
X19943Y18288
X13339Y18923
X9529Y12827
X8513Y17046
X27690Y18288
X27309Y6858
X18038Y4010
X2510Y21000
X16510Y20000
X21510Y20000
X17810Y15000
X24500Y12000
X24500Y15000
X42510Y15000
X1910Y2600
X26510Y12000
X26510Y16000
X42410Y10900
X12256Y19889
X25510Y19000
X19410Y1100
X16252Y6223
X28510Y12000
X35510Y2000
X36510Y14000
X47026Y14000
X11810Y13000
X34510Y8700
X16510Y16000
M30