G04 EAGLE Gerber RS-274X export*
G75*
%MOMM*%
%FSLAX34Y34*%
%LPD*%
%INTop Copper*%
%IPPOS*%
%AMOC8*
5,1,8,0,0,1.08239X$1,22.5*%
G01*
%ADD10C,0.203200*%
%ADD11R,1.200000X0.800000*%
%ADD12R,1.000000X1.100000*%
%ADD13R,1.800000X1.600000*%
%ADD14R,0.635000X1.270000*%
%ADD15C,1.000000*%
%ADD16R,1.800000X1.400000*%
%ADD17R,1.400000X1.900000*%
%ADD18R,0.800000X1.500000*%
%ADD19R,1.500000X1.600000*%
%ADD20R,0.300000X0.800000*%
%ADD21R,0.400000X0.800000*%
%ADD22R,0.250000X0.275000*%
%ADD23R,0.275000X0.250000*%
%ADD24R,1.524000X0.762000*%
%ADD25C,0.736600*%
%ADD26C,0.177800*%
%ADD27C,0.304800*%

G36*
X27889Y2029D02*
X27889Y2029D01*
X27890Y2029D01*
X28015Y2050D01*
X28131Y2068D01*
X28132Y2069D01*
X28133Y2069D01*
X28246Y2129D01*
X28348Y2184D01*
X28349Y2184D01*
X28350Y2185D01*
X28437Y2277D01*
X28517Y2362D01*
X28518Y2363D01*
X28519Y2364D01*
X28569Y2472D01*
X28621Y2585D01*
X28621Y2586D01*
X28622Y2587D01*
X28634Y2705D01*
X28648Y2829D01*
X28648Y2830D01*
X28648Y2832D01*
X28622Y2950D01*
X28596Y3070D01*
X28595Y3071D01*
X28595Y3072D01*
X28534Y3173D01*
X28470Y3281D01*
X28469Y3282D01*
X28468Y3283D01*
X28375Y3362D01*
X28283Y3441D01*
X28282Y3441D01*
X28281Y3442D01*
X28129Y3512D01*
X27706Y3653D01*
X27703Y3656D01*
X27689Y3691D01*
X27632Y3756D01*
X27581Y3825D01*
X27551Y3847D01*
X27526Y3875D01*
X27411Y3949D01*
X27123Y4813D01*
X27108Y4842D01*
X27082Y4912D01*
X23966Y11145D01*
X24698Y13341D01*
X26769Y14377D01*
X28965Y13645D01*
X29014Y13547D01*
X29024Y13533D01*
X29030Y13516D01*
X29096Y13433D01*
X29158Y13348D01*
X29173Y13337D01*
X29184Y13323D01*
X29272Y13266D01*
X29358Y13205D01*
X29375Y13199D01*
X29390Y13190D01*
X29492Y13164D01*
X29593Y13133D01*
X29611Y13133D01*
X29629Y13129D01*
X29734Y13137D01*
X29839Y13140D01*
X29856Y13146D01*
X29874Y13147D01*
X29971Y13189D01*
X30070Y13225D01*
X30084Y13236D01*
X30100Y13243D01*
X30179Y13313D01*
X30262Y13379D01*
X30271Y13394D01*
X30285Y13406D01*
X30376Y13547D01*
X30425Y13645D01*
X32621Y14377D01*
X33985Y13695D01*
X34005Y13688D01*
X34023Y13677D01*
X34122Y13652D01*
X34220Y13622D01*
X34241Y13622D01*
X34261Y13617D01*
X34363Y13625D01*
X34466Y13627D01*
X34486Y13634D01*
X34507Y13636D01*
X34601Y13676D01*
X34697Y13711D01*
X34714Y13724D01*
X34733Y13732D01*
X34864Y13837D01*
X36032Y15006D01*
X37892Y16866D01*
X40208Y16866D01*
X41845Y15229D01*
X41845Y13301D01*
X41856Y13230D01*
X41858Y13158D01*
X41876Y13109D01*
X41885Y13058D01*
X41918Y12994D01*
X41943Y12927D01*
X41975Y12886D01*
X42000Y12840D01*
X42052Y12791D01*
X42096Y12735D01*
X42140Y12707D01*
X42178Y12671D01*
X42243Y12641D01*
X42303Y12602D01*
X42354Y12589D01*
X42401Y12567D01*
X42472Y12560D01*
X42542Y12542D01*
X42594Y12546D01*
X42645Y12540D01*
X42716Y12556D01*
X42787Y12561D01*
X42835Y12582D01*
X42886Y12593D01*
X42947Y12629D01*
X43013Y12657D01*
X43069Y12702D01*
X43097Y12719D01*
X43112Y12737D01*
X43144Y12762D01*
X45388Y15006D01*
X47248Y16866D01*
X49563Y16866D01*
X51200Y15229D01*
X51200Y9492D01*
X51203Y9472D01*
X51201Y9453D01*
X51223Y9351D01*
X51240Y9249D01*
X51249Y9232D01*
X51253Y9212D01*
X51306Y9123D01*
X51355Y9032D01*
X51369Y9018D01*
X51379Y9001D01*
X51458Y8934D01*
X51533Y8862D01*
X51551Y8854D01*
X51566Y8841D01*
X51663Y8802D01*
X51756Y8759D01*
X51776Y8757D01*
X51794Y8749D01*
X51961Y8731D01*
X52275Y8731D01*
X53912Y7094D01*
X53912Y4778D01*
X52461Y3328D01*
X52420Y3270D01*
X52370Y3218D01*
X52348Y3171D01*
X52318Y3129D01*
X52297Y3060D01*
X52267Y2995D01*
X52261Y2943D01*
X52246Y2893D01*
X52247Y2822D01*
X52240Y2751D01*
X52251Y2700D01*
X52252Y2648D01*
X52277Y2580D01*
X52292Y2510D01*
X52319Y2465D01*
X52336Y2417D01*
X52381Y2361D01*
X52418Y2299D01*
X52458Y2265D01*
X52490Y2225D01*
X52550Y2186D01*
X52605Y2139D01*
X52653Y2120D01*
X52697Y2092D01*
X52766Y2074D01*
X52833Y2047D01*
X52904Y2039D01*
X52936Y2031D01*
X52959Y2033D01*
X53000Y2029D01*
X323361Y2029D01*
X323431Y2040D01*
X323503Y2042D01*
X323552Y2060D01*
X323603Y2068D01*
X323667Y2102D01*
X323734Y2127D01*
X323775Y2159D01*
X323821Y2184D01*
X323870Y2236D01*
X323926Y2280D01*
X323954Y2324D01*
X323990Y2362D01*
X324020Y2427D01*
X324059Y2487D01*
X324072Y2538D01*
X324094Y2585D01*
X324102Y2656D01*
X324119Y2726D01*
X324115Y2778D01*
X324121Y2829D01*
X324106Y2900D01*
X324100Y2971D01*
X324080Y3019D01*
X324069Y3070D01*
X324032Y3131D01*
X324004Y3197D01*
X323959Y3253D01*
X323943Y3281D01*
X323925Y3296D01*
X323899Y3328D01*
X322109Y5118D01*
X317332Y9895D01*
X317332Y11460D01*
X317329Y11480D01*
X317331Y11499D01*
X317309Y11601D01*
X317293Y11703D01*
X317283Y11720D01*
X317279Y11740D01*
X317226Y11829D01*
X317177Y11920D01*
X317163Y11934D01*
X317153Y11951D01*
X317074Y12018D01*
X316999Y12090D01*
X316981Y12098D01*
X316966Y12111D01*
X316870Y12150D01*
X316776Y12193D01*
X316756Y12195D01*
X316738Y12203D01*
X316571Y12221D01*
X314263Y12221D01*
X313221Y13263D01*
X313221Y25737D01*
X314263Y26779D01*
X325737Y26779D01*
X326660Y25856D01*
X326718Y25814D01*
X326770Y25765D01*
X326817Y25743D01*
X326859Y25712D01*
X326928Y25691D01*
X326993Y25661D01*
X327045Y25655D01*
X327095Y25640D01*
X327166Y25642D01*
X327237Y25634D01*
X327288Y25645D01*
X327340Y25646D01*
X327408Y25671D01*
X327478Y25686D01*
X327523Y25713D01*
X327571Y25731D01*
X327627Y25776D01*
X327689Y25812D01*
X327723Y25852D01*
X327763Y25884D01*
X327802Y25945D01*
X327849Y25999D01*
X327868Y26048D01*
X327896Y26091D01*
X327914Y26161D01*
X327941Y26227D01*
X327949Y26299D01*
X327957Y26330D01*
X327955Y26353D01*
X327959Y26394D01*
X327959Y29606D01*
X327948Y29677D01*
X327946Y29748D01*
X327928Y29797D01*
X327920Y29849D01*
X327886Y29912D01*
X327861Y29979D01*
X327829Y30020D01*
X327804Y30066D01*
X327752Y30115D01*
X327708Y30171D01*
X327664Y30200D01*
X327626Y30235D01*
X327561Y30266D01*
X327501Y30304D01*
X327450Y30317D01*
X327403Y30339D01*
X327332Y30347D01*
X327262Y30364D01*
X327210Y30360D01*
X327159Y30366D01*
X327088Y30351D01*
X327017Y30345D01*
X326969Y30325D01*
X326918Y30314D01*
X326857Y30277D01*
X326791Y30249D01*
X326735Y30204D01*
X326707Y30188D01*
X326692Y30170D01*
X326660Y30144D01*
X325737Y29221D01*
X314263Y29221D01*
X313221Y30263D01*
X313221Y32436D01*
X313218Y32456D01*
X313220Y32475D01*
X313198Y32577D01*
X313182Y32679D01*
X313172Y32696D01*
X313168Y32716D01*
X313115Y32805D01*
X313066Y32896D01*
X313052Y32910D01*
X313042Y32927D01*
X312963Y32994D01*
X312888Y33066D01*
X312870Y33074D01*
X312855Y33087D01*
X312759Y33126D01*
X312665Y33169D01*
X312645Y33171D01*
X312627Y33179D01*
X312460Y33197D01*
X307540Y33197D01*
X307520Y33194D01*
X307501Y33196D01*
X307399Y33174D01*
X307297Y33158D01*
X307280Y33148D01*
X307260Y33144D01*
X307171Y33091D01*
X307080Y33042D01*
X307066Y33028D01*
X307049Y33018D01*
X306982Y32939D01*
X306910Y32864D01*
X306902Y32846D01*
X306889Y32831D01*
X306850Y32735D01*
X306807Y32641D01*
X306805Y32621D01*
X306797Y32603D01*
X306779Y32436D01*
X306779Y30263D01*
X305737Y29221D01*
X294263Y29221D01*
X293221Y30263D01*
X293221Y32436D01*
X293218Y32456D01*
X293220Y32475D01*
X293198Y32577D01*
X293182Y32679D01*
X293172Y32696D01*
X293168Y32716D01*
X293115Y32805D01*
X293066Y32896D01*
X293052Y32910D01*
X293042Y32927D01*
X292963Y32994D01*
X292888Y33066D01*
X292870Y33074D01*
X292855Y33087D01*
X292759Y33126D01*
X292665Y33169D01*
X292645Y33171D01*
X292627Y33179D01*
X292460Y33197D01*
X282132Y33197D01*
X281014Y34315D01*
X280940Y34368D01*
X280871Y34428D01*
X280840Y34440D01*
X280814Y34459D01*
X280727Y34486D01*
X280642Y34520D01*
X280601Y34524D01*
X280579Y34531D01*
X280547Y34530D01*
X280476Y34538D01*
X278914Y34538D01*
X276906Y35370D01*
X275802Y36474D01*
X275728Y36527D01*
X275658Y36587D01*
X275628Y36599D01*
X275602Y36618D01*
X275515Y36645D01*
X275430Y36679D01*
X275389Y36683D01*
X275367Y36690D01*
X275335Y36689D01*
X275263Y36697D01*
X261931Y36697D01*
X261835Y36682D01*
X261738Y36672D01*
X261714Y36662D01*
X261688Y36658D01*
X261602Y36612D01*
X261513Y36572D01*
X261493Y36555D01*
X261470Y36542D01*
X261403Y36472D01*
X261332Y36406D01*
X261319Y36383D01*
X261301Y36364D01*
X261260Y36276D01*
X261213Y36190D01*
X261208Y36165D01*
X261197Y36141D01*
X261187Y36044D01*
X261169Y35948D01*
X261173Y35922D01*
X261170Y35897D01*
X261191Y35801D01*
X261205Y35705D01*
X261217Y35682D01*
X261223Y35656D01*
X261273Y35572D01*
X261317Y35486D01*
X261335Y35468D01*
X261349Y35445D01*
X261423Y35382D01*
X261492Y35314D01*
X261521Y35298D01*
X261536Y35285D01*
X261566Y35273D01*
X261639Y35233D01*
X263094Y34630D01*
X264630Y33094D01*
X265462Y31086D01*
X265462Y28914D01*
X264630Y26906D01*
X263094Y25370D01*
X261086Y24538D01*
X258914Y24538D01*
X256906Y25370D01*
X255346Y26930D01*
X255327Y26961D01*
X255266Y27062D01*
X255262Y27066D01*
X255258Y27071D01*
X255169Y27146D01*
X255079Y27222D01*
X255074Y27224D01*
X255069Y27228D01*
X254960Y27270D01*
X254851Y27314D01*
X254844Y27315D01*
X254839Y27316D01*
X254821Y27317D01*
X254685Y27332D01*
X249779Y27332D01*
X249759Y27329D01*
X249740Y27331D01*
X249638Y27309D01*
X249536Y27293D01*
X249519Y27283D01*
X249499Y27279D01*
X249410Y27226D01*
X249319Y27177D01*
X249305Y27163D01*
X249288Y27153D01*
X249221Y27074D01*
X249149Y26999D01*
X249141Y26981D01*
X249128Y26966D01*
X249089Y26870D01*
X249046Y26776D01*
X249044Y26756D01*
X249036Y26738D01*
X249018Y26571D01*
X249018Y22913D01*
X247976Y21871D01*
X241241Y21871D01*
X241151Y21857D01*
X241060Y21849D01*
X241030Y21837D01*
X240998Y21832D01*
X240917Y21789D01*
X240833Y21753D01*
X240801Y21727D01*
X240781Y21716D01*
X240758Y21693D01*
X240702Y21648D01*
X240671Y21617D01*
X240092Y21282D01*
X239445Y21109D01*
X237459Y21109D01*
X237459Y29238D01*
X237456Y29258D01*
X237458Y29277D01*
X237436Y29379D01*
X237419Y29481D01*
X237410Y29498D01*
X237406Y29518D01*
X237353Y29607D01*
X237304Y29698D01*
X237290Y29712D01*
X237280Y29729D01*
X237201Y29796D01*
X237126Y29867D01*
X237108Y29876D01*
X237093Y29889D01*
X236997Y29928D01*
X236903Y29971D01*
X236883Y29973D01*
X236865Y29981D01*
X236698Y29999D01*
X235935Y29999D01*
X235935Y30001D01*
X236698Y30001D01*
X236718Y30004D01*
X236737Y30002D01*
X236839Y30024D01*
X236941Y30041D01*
X236958Y30050D01*
X236978Y30054D01*
X237067Y30107D01*
X237158Y30156D01*
X237172Y30170D01*
X237189Y30180D01*
X237256Y30259D01*
X237327Y30334D01*
X237336Y30352D01*
X237349Y30367D01*
X237388Y30463D01*
X237431Y30557D01*
X237433Y30577D01*
X237441Y30595D01*
X237459Y30762D01*
X237459Y38891D01*
X239445Y38891D01*
X240092Y38718D01*
X240671Y38383D01*
X240702Y38352D01*
X240776Y38299D01*
X240846Y38239D01*
X240876Y38227D01*
X240902Y38208D01*
X240989Y38181D01*
X241074Y38147D01*
X241115Y38143D01*
X241137Y38136D01*
X241169Y38137D01*
X241241Y38129D01*
X246863Y38129D01*
X246933Y38140D01*
X247005Y38142D01*
X247054Y38160D01*
X247105Y38168D01*
X247169Y38202D01*
X247236Y38227D01*
X247277Y38259D01*
X247323Y38284D01*
X247372Y38335D01*
X247428Y38380D01*
X247456Y38424D01*
X247492Y38462D01*
X247522Y38527D01*
X247561Y38587D01*
X247574Y38638D01*
X247596Y38685D01*
X247604Y38756D01*
X247621Y38826D01*
X247617Y38878D01*
X247623Y38929D01*
X247608Y39000D01*
X247602Y39071D01*
X247582Y39119D01*
X247571Y39170D01*
X247534Y39231D01*
X247506Y39297D01*
X247461Y39353D01*
X247444Y39381D01*
X247427Y39396D01*
X247401Y39428D01*
X242831Y43998D01*
X242757Y44051D01*
X242688Y44111D01*
X242657Y44123D01*
X242631Y44142D01*
X242544Y44169D01*
X242459Y44203D01*
X242418Y44207D01*
X242396Y44214D01*
X242364Y44213D01*
X242293Y44221D01*
X234263Y44221D01*
X233221Y45263D01*
X233221Y47436D01*
X233218Y47456D01*
X233220Y47475D01*
X233198Y47577D01*
X233182Y47679D01*
X233172Y47696D01*
X233168Y47716D01*
X233115Y47805D01*
X233066Y47896D01*
X233052Y47910D01*
X233042Y47927D01*
X232963Y47994D01*
X232888Y48066D01*
X232870Y48074D01*
X232855Y48087D01*
X232759Y48126D01*
X232665Y48169D01*
X232645Y48171D01*
X232627Y48179D01*
X232460Y48197D01*
X227540Y48197D01*
X227520Y48194D01*
X227501Y48196D01*
X227399Y48174D01*
X227297Y48158D01*
X227280Y48148D01*
X227260Y48144D01*
X227171Y48091D01*
X227080Y48042D01*
X227066Y48028D01*
X227049Y48018D01*
X226982Y47939D01*
X226910Y47864D01*
X226902Y47846D01*
X226889Y47831D01*
X226850Y47735D01*
X226807Y47641D01*
X226805Y47621D01*
X226797Y47603D01*
X226779Y47436D01*
X226779Y45263D01*
X225737Y44221D01*
X214263Y44221D01*
X213221Y45263D01*
X213221Y47436D01*
X213218Y47456D01*
X213220Y47475D01*
X213198Y47577D01*
X213182Y47679D01*
X213172Y47696D01*
X213168Y47716D01*
X213115Y47805D01*
X213066Y47896D01*
X213052Y47910D01*
X213042Y47927D01*
X212963Y47994D01*
X212888Y48066D01*
X212870Y48074D01*
X212855Y48087D01*
X212759Y48126D01*
X212665Y48169D01*
X212645Y48171D01*
X212627Y48179D01*
X212460Y48197D01*
X207540Y48197D01*
X207520Y48194D01*
X207501Y48196D01*
X207399Y48174D01*
X207297Y48158D01*
X207280Y48148D01*
X207260Y48144D01*
X207171Y48091D01*
X207080Y48042D01*
X207066Y48028D01*
X207049Y48018D01*
X206982Y47939D01*
X206910Y47864D01*
X206902Y47846D01*
X206889Y47831D01*
X206850Y47735D01*
X206807Y47641D01*
X206805Y47621D01*
X206797Y47603D01*
X206779Y47436D01*
X206779Y45263D01*
X205737Y44221D01*
X196809Y44221D01*
X196719Y44207D01*
X196628Y44199D01*
X196599Y44187D01*
X196567Y44182D01*
X196486Y44139D01*
X196402Y44103D01*
X196370Y44077D01*
X196349Y44066D01*
X196327Y44043D01*
X196271Y43998D01*
X187605Y35332D01*
X168895Y35332D01*
X167109Y37118D01*
X162840Y41387D01*
X162782Y41429D01*
X162730Y41478D01*
X162683Y41500D01*
X162641Y41531D01*
X162572Y41552D01*
X162507Y41582D01*
X162455Y41588D01*
X162405Y41603D01*
X162334Y41601D01*
X162263Y41609D01*
X162212Y41598D01*
X162160Y41597D01*
X162092Y41572D01*
X162022Y41557D01*
X161977Y41530D01*
X161929Y41512D01*
X161873Y41467D01*
X161811Y41431D01*
X161777Y41391D01*
X161737Y41358D01*
X161698Y41298D01*
X161651Y41244D01*
X161632Y41195D01*
X161604Y41151D01*
X161586Y41082D01*
X161559Y41015D01*
X161551Y40944D01*
X161543Y40913D01*
X161545Y40890D01*
X161541Y40849D01*
X161541Y37523D01*
X150762Y37523D01*
X150742Y37520D01*
X150723Y37522D01*
X150621Y37500D01*
X150519Y37483D01*
X150502Y37474D01*
X150482Y37470D01*
X150393Y37417D01*
X150302Y37368D01*
X150288Y37354D01*
X150271Y37344D01*
X150204Y37265D01*
X150133Y37190D01*
X150124Y37172D01*
X150111Y37157D01*
X150072Y37061D01*
X150029Y36967D01*
X150027Y36947D01*
X150019Y36929D01*
X150001Y36762D01*
X150001Y35999D01*
X149999Y35999D01*
X149999Y36762D01*
X149996Y36782D01*
X149998Y36801D01*
X149976Y36903D01*
X149959Y37005D01*
X149950Y37022D01*
X149946Y37042D01*
X149893Y37131D01*
X149844Y37222D01*
X149830Y37236D01*
X149820Y37253D01*
X149741Y37320D01*
X149666Y37391D01*
X149648Y37400D01*
X149633Y37413D01*
X149537Y37452D01*
X149443Y37495D01*
X149423Y37497D01*
X149405Y37505D01*
X149238Y37523D01*
X138459Y37523D01*
X138459Y44334D01*
X138632Y44981D01*
X138967Y45560D01*
X139440Y46033D01*
X139482Y46091D01*
X139531Y46143D01*
X139553Y46190D01*
X139583Y46232D01*
X139604Y46301D01*
X139634Y46366D01*
X139640Y46418D01*
X139656Y46468D01*
X139654Y46539D01*
X139662Y46610D01*
X139650Y46661D01*
X139649Y46713D01*
X139625Y46781D01*
X139609Y46851D01*
X139583Y46896D01*
X139565Y46944D01*
X139520Y47000D01*
X139483Y47062D01*
X139443Y47096D01*
X139411Y47136D01*
X139351Y47175D01*
X139296Y47222D01*
X139248Y47241D01*
X139204Y47269D01*
X139135Y47287D01*
X139068Y47314D01*
X138997Y47322D01*
X138966Y47330D01*
X138942Y47328D01*
X138901Y47332D01*
X128906Y47332D01*
X128812Y47317D01*
X128717Y47308D01*
X128691Y47297D01*
X128663Y47293D01*
X128579Y47248D01*
X128491Y47210D01*
X128471Y47191D01*
X128446Y47177D01*
X128380Y47108D01*
X128309Y47044D01*
X128296Y47020D01*
X128276Y46999D01*
X128236Y46913D01*
X128190Y46829D01*
X128184Y46802D01*
X128173Y46776D01*
X128162Y46681D01*
X128145Y46587D01*
X128149Y46560D01*
X128146Y46532D01*
X128166Y46438D01*
X128179Y46344D01*
X128193Y46312D01*
X128198Y46291D01*
X128215Y46263D01*
X128247Y46190D01*
X128368Y45981D01*
X128541Y45334D01*
X128541Y42523D01*
X120762Y42523D01*
X120742Y42520D01*
X120723Y42522D01*
X120621Y42500D01*
X120519Y42483D01*
X120502Y42474D01*
X120482Y42470D01*
X120393Y42417D01*
X120302Y42368D01*
X120288Y42354D01*
X120271Y42344D01*
X120204Y42265D01*
X120133Y42190D01*
X120124Y42172D01*
X120111Y42157D01*
X120072Y42061D01*
X120029Y41967D01*
X120027Y41947D01*
X120019Y41929D01*
X120001Y41762D01*
X120001Y40999D01*
X119999Y40999D01*
X119999Y41762D01*
X119996Y41782D01*
X119998Y41801D01*
X119976Y41903D01*
X119959Y42005D01*
X119950Y42022D01*
X119946Y42042D01*
X119893Y42131D01*
X119844Y42222D01*
X119830Y42236D01*
X119820Y42253D01*
X119741Y42320D01*
X119666Y42391D01*
X119648Y42400D01*
X119633Y42413D01*
X119537Y42452D01*
X119443Y42495D01*
X119423Y42497D01*
X119405Y42505D01*
X119238Y42523D01*
X111459Y42523D01*
X111459Y45334D01*
X111632Y45981D01*
X111753Y46190D01*
X111787Y46279D01*
X111827Y46366D01*
X111830Y46394D01*
X111840Y46420D01*
X111844Y46516D01*
X111854Y46610D01*
X111848Y46638D01*
X111850Y46666D01*
X111822Y46758D01*
X111802Y46851D01*
X111788Y46875D01*
X111780Y46902D01*
X111725Y46980D01*
X111676Y47062D01*
X111655Y47080D01*
X111638Y47103D01*
X111562Y47160D01*
X111489Y47222D01*
X111463Y47232D01*
X111440Y47249D01*
X111350Y47278D01*
X111261Y47314D01*
X111226Y47318D01*
X111206Y47324D01*
X111173Y47324D01*
X111094Y47332D01*
X108895Y47332D01*
X97332Y58895D01*
X97332Y113460D01*
X97329Y113480D01*
X97331Y113499D01*
X97309Y113601D01*
X97293Y113703D01*
X97283Y113720D01*
X97279Y113740D01*
X97226Y113829D01*
X97177Y113920D01*
X97163Y113934D01*
X97153Y113951D01*
X97074Y114018D01*
X96999Y114090D01*
X96981Y114098D01*
X96966Y114111D01*
X96870Y114150D01*
X96776Y114193D01*
X96756Y114195D01*
X96738Y114203D01*
X96571Y114221D01*
X94263Y114221D01*
X93221Y115263D01*
X93221Y124191D01*
X93207Y124281D01*
X93199Y124372D01*
X93187Y124401D01*
X93182Y124433D01*
X93139Y124514D01*
X93103Y124598D01*
X93077Y124630D01*
X93066Y124651D01*
X93043Y124673D01*
X92998Y124729D01*
X88118Y129609D01*
X88044Y129662D01*
X87975Y129722D01*
X87944Y129734D01*
X87918Y129753D01*
X87831Y129780D01*
X87746Y129814D01*
X87705Y129818D01*
X87683Y129825D01*
X87651Y129824D01*
X87580Y129832D01*
X82177Y129832D01*
X82157Y129829D01*
X82138Y129831D01*
X82036Y129809D01*
X81934Y129793D01*
X81917Y129783D01*
X81897Y129779D01*
X81808Y129726D01*
X81717Y129677D01*
X81703Y129663D01*
X81686Y129653D01*
X81619Y129574D01*
X81547Y129499D01*
X81539Y129481D01*
X81526Y129466D01*
X81487Y129370D01*
X81444Y129276D01*
X81442Y129256D01*
X81434Y129238D01*
X81416Y129071D01*
X81416Y128261D01*
X77500Y128261D01*
X73584Y128261D01*
X73584Y129071D01*
X73581Y129091D01*
X73583Y129110D01*
X73561Y129212D01*
X73545Y129314D01*
X73535Y129331D01*
X73531Y129351D01*
X73478Y129440D01*
X73429Y129531D01*
X73415Y129545D01*
X73405Y129562D01*
X73326Y129629D01*
X73251Y129701D01*
X73233Y129709D01*
X73218Y129722D01*
X73122Y129761D01*
X73028Y129804D01*
X73008Y129806D01*
X72990Y129814D01*
X72823Y129832D01*
X66415Y129832D01*
X66395Y129829D01*
X66376Y129831D01*
X66274Y129809D01*
X66172Y129793D01*
X66155Y129783D01*
X66135Y129779D01*
X66046Y129726D01*
X65955Y129677D01*
X65941Y129663D01*
X65924Y129653D01*
X65857Y129574D01*
X65785Y129499D01*
X65777Y129481D01*
X65764Y129466D01*
X65725Y129370D01*
X65682Y129276D01*
X65680Y129256D01*
X65672Y129238D01*
X65654Y129071D01*
X65654Y127177D01*
X65657Y127157D01*
X65655Y127138D01*
X65677Y127036D01*
X65693Y126934D01*
X65703Y126917D01*
X65707Y126897D01*
X65760Y126808D01*
X65809Y126717D01*
X65823Y126703D01*
X65833Y126686D01*
X65912Y126619D01*
X65987Y126547D01*
X66005Y126539D01*
X66020Y126526D01*
X66116Y126487D01*
X66210Y126444D01*
X66230Y126442D01*
X66248Y126434D01*
X66415Y126416D01*
X66739Y126416D01*
X66739Y122500D01*
X66739Y118584D01*
X65929Y118584D01*
X65909Y118581D01*
X65890Y118583D01*
X65788Y118561D01*
X65686Y118545D01*
X65669Y118535D01*
X65649Y118531D01*
X65560Y118478D01*
X65469Y118429D01*
X65455Y118415D01*
X65438Y118405D01*
X65371Y118326D01*
X65299Y118251D01*
X65291Y118233D01*
X65278Y118218D01*
X65239Y118122D01*
X65196Y118028D01*
X65194Y118008D01*
X65186Y117990D01*
X65168Y117823D01*
X65168Y112872D01*
X65182Y112782D01*
X65190Y112691D01*
X65202Y112661D01*
X65207Y112629D01*
X65250Y112548D01*
X65286Y112464D01*
X65312Y112432D01*
X65323Y112412D01*
X65346Y112389D01*
X65391Y112333D01*
X65630Y112094D01*
X66462Y110086D01*
X66462Y107914D01*
X65630Y105906D01*
X64094Y104370D01*
X62086Y103538D01*
X59914Y103538D01*
X57906Y104370D01*
X56370Y105906D01*
X55538Y107914D01*
X55538Y110086D01*
X56370Y112094D01*
X57906Y113630D01*
X59362Y114233D01*
X59462Y114295D01*
X59562Y114355D01*
X59566Y114360D01*
X59571Y114363D01*
X59646Y114454D01*
X59722Y114542D01*
X59724Y114548D01*
X59728Y114552D01*
X59769Y114660D01*
X59814Y114770D01*
X59815Y114778D01*
X59816Y114782D01*
X59817Y114800D01*
X59832Y114937D01*
X59832Y119712D01*
X59818Y119802D01*
X59810Y119893D01*
X59798Y119923D01*
X59793Y119955D01*
X59750Y120035D01*
X59714Y120119D01*
X59688Y120151D01*
X59677Y120172D01*
X59654Y120194D01*
X59609Y120250D01*
X59346Y120513D01*
X59346Y124071D01*
X59343Y124091D01*
X59345Y124110D01*
X59323Y124212D01*
X59307Y124314D01*
X59297Y124331D01*
X59293Y124351D01*
X59240Y124440D01*
X59191Y124531D01*
X59177Y124545D01*
X59167Y124562D01*
X59088Y124629D01*
X59013Y124701D01*
X58995Y124709D01*
X58980Y124722D01*
X58884Y124761D01*
X58790Y124804D01*
X58770Y124806D01*
X58752Y124814D01*
X58585Y124832D01*
X47540Y124832D01*
X47520Y124829D01*
X47501Y124831D01*
X47399Y124809D01*
X47297Y124793D01*
X47280Y124783D01*
X47260Y124779D01*
X47171Y124726D01*
X47080Y124677D01*
X47066Y124663D01*
X47049Y124653D01*
X46982Y124574D01*
X46910Y124499D01*
X46902Y124481D01*
X46889Y124466D01*
X46850Y124370D01*
X46807Y124276D01*
X46805Y124256D01*
X46797Y124238D01*
X46779Y124071D01*
X46779Y115263D01*
X45737Y114221D01*
X34263Y114221D01*
X33221Y115263D01*
X33221Y127737D01*
X34263Y128779D01*
X43191Y128779D01*
X43281Y128793D01*
X43372Y128801D01*
X43401Y128813D01*
X43433Y128818D01*
X43514Y128861D01*
X43598Y128897D01*
X43630Y128923D01*
X43651Y128934D01*
X43673Y128957D01*
X43729Y129002D01*
X43887Y129160D01*
X43929Y129218D01*
X43978Y129270D01*
X44000Y129317D01*
X44031Y129359D01*
X44052Y129428D01*
X44082Y129493D01*
X44088Y129545D01*
X44103Y129594D01*
X44101Y129666D01*
X44109Y129737D01*
X44098Y129788D01*
X44097Y129840D01*
X44072Y129908D01*
X44057Y129978D01*
X44030Y130023D01*
X44012Y130071D01*
X43967Y130127D01*
X43931Y130189D01*
X43891Y130223D01*
X43858Y130263D01*
X43798Y130302D01*
X43744Y130349D01*
X43695Y130368D01*
X43652Y130396D01*
X43582Y130414D01*
X43515Y130441D01*
X43444Y130449D01*
X43413Y130457D01*
X43390Y130455D01*
X43349Y130459D01*
X41523Y130459D01*
X41523Y136977D01*
X47541Y136977D01*
X47541Y132666D01*
X47368Y132019D01*
X47010Y131400D01*
X46969Y131357D01*
X46947Y131310D01*
X46917Y131268D01*
X46896Y131199D01*
X46866Y131134D01*
X46860Y131082D01*
X46845Y131033D01*
X46846Y130961D01*
X46838Y130890D01*
X46849Y130839D01*
X46851Y130787D01*
X46875Y130719D01*
X46891Y130649D01*
X46917Y130605D01*
X46935Y130556D01*
X46980Y130500D01*
X47017Y130438D01*
X47056Y130404D01*
X47089Y130364D01*
X47149Y130325D01*
X47204Y130278D01*
X47252Y130259D01*
X47296Y130231D01*
X47365Y130213D01*
X47432Y130186D01*
X47503Y130178D01*
X47534Y130170D01*
X47558Y130172D01*
X47599Y130168D01*
X58585Y130168D01*
X58605Y130171D01*
X58624Y130169D01*
X58726Y130191D01*
X58828Y130207D01*
X58845Y130217D01*
X58865Y130221D01*
X58954Y130274D01*
X59045Y130323D01*
X59059Y130337D01*
X59076Y130347D01*
X59143Y130426D01*
X59215Y130501D01*
X59223Y130519D01*
X59236Y130534D01*
X59275Y130630D01*
X59318Y130724D01*
X59320Y130744D01*
X59328Y130762D01*
X59346Y130929D01*
X59346Y134489D01*
X59348Y134490D01*
X59405Y134578D01*
X59465Y134661D01*
X59471Y134680D01*
X59481Y134697D01*
X59507Y134798D01*
X59537Y134897D01*
X59537Y134917D01*
X59541Y134936D01*
X59533Y135039D01*
X59531Y135142D01*
X59524Y135161D01*
X59522Y135181D01*
X59482Y135276D01*
X59446Y135373D01*
X59434Y135389D01*
X59426Y135407D01*
X59346Y135507D01*
X59346Y139487D01*
X59609Y139750D01*
X59662Y139824D01*
X59722Y139893D01*
X59734Y139923D01*
X59753Y139950D01*
X59780Y140037D01*
X59814Y140121D01*
X59818Y140162D01*
X59825Y140185D01*
X59824Y140217D01*
X59832Y140288D01*
X59832Y143777D01*
X59829Y143797D01*
X59831Y143816D01*
X59809Y143918D01*
X59793Y144020D01*
X59783Y144037D01*
X59779Y144057D01*
X59726Y144146D01*
X59677Y144237D01*
X59663Y144251D01*
X59653Y144268D01*
X59574Y144335D01*
X59499Y144407D01*
X59481Y144415D01*
X59466Y144428D01*
X59370Y144467D01*
X59276Y144510D01*
X59256Y144512D01*
X59238Y144520D01*
X59071Y144538D01*
X58914Y144538D01*
X56906Y145370D01*
X55370Y146906D01*
X54538Y148914D01*
X54538Y151086D01*
X55370Y153094D01*
X56906Y154630D01*
X58914Y155462D01*
X61086Y155462D01*
X63094Y154630D01*
X64630Y153094D01*
X65462Y151086D01*
X65462Y148914D01*
X65226Y148344D01*
X65211Y148280D01*
X65186Y148219D01*
X65177Y148136D01*
X65170Y148104D01*
X65171Y148085D01*
X65168Y148052D01*
X65168Y141415D01*
X65171Y141395D01*
X65169Y141376D01*
X65191Y141274D01*
X65207Y141172D01*
X65217Y141155D01*
X65221Y141135D01*
X65274Y141046D01*
X65323Y140955D01*
X65337Y140941D01*
X65347Y140924D01*
X65426Y140857D01*
X65501Y140785D01*
X65519Y140777D01*
X65534Y140764D01*
X65630Y140725D01*
X65724Y140682D01*
X65744Y140680D01*
X65762Y140672D01*
X65929Y140654D01*
X69489Y140654D01*
X69490Y140652D01*
X69578Y140595D01*
X69661Y140535D01*
X69680Y140529D01*
X69697Y140519D01*
X69798Y140493D01*
X69897Y140463D01*
X69917Y140463D01*
X69936Y140459D01*
X70039Y140467D01*
X70142Y140469D01*
X70161Y140476D01*
X70181Y140478D01*
X70276Y140518D01*
X70373Y140554D01*
X70389Y140566D01*
X70407Y140574D01*
X70507Y140654D01*
X74489Y140654D01*
X74490Y140652D01*
X74578Y140596D01*
X74661Y140535D01*
X74681Y140529D01*
X74697Y140519D01*
X74798Y140493D01*
X74897Y140463D01*
X74917Y140463D01*
X74936Y140459D01*
X75039Y140467D01*
X75142Y140469D01*
X75161Y140476D01*
X75181Y140478D01*
X75276Y140518D01*
X75305Y140529D01*
X79612Y140529D01*
X80654Y139487D01*
X80654Y135929D01*
X80657Y135909D01*
X80655Y135890D01*
X80677Y135788D01*
X80693Y135686D01*
X80703Y135669D01*
X80707Y135649D01*
X80760Y135560D01*
X80809Y135469D01*
X80823Y135455D01*
X80833Y135438D01*
X80912Y135371D01*
X80987Y135299D01*
X81005Y135291D01*
X81020Y135278D01*
X81116Y135239D01*
X81210Y135196D01*
X81230Y135194D01*
X81248Y135186D01*
X81415Y135168D01*
X90105Y135168D01*
X91160Y134113D01*
X91218Y134071D01*
X91270Y134022D01*
X91317Y134000D01*
X91359Y133969D01*
X91428Y133948D01*
X91493Y133918D01*
X91545Y133912D01*
X91595Y133897D01*
X91666Y133899D01*
X91737Y133891D01*
X91788Y133902D01*
X91840Y133903D01*
X91908Y133928D01*
X91978Y133943D01*
X92023Y133970D01*
X92071Y133988D01*
X92127Y134033D01*
X92189Y134069D01*
X92223Y134109D01*
X92263Y134142D01*
X92302Y134202D01*
X92349Y134256D01*
X92368Y134305D01*
X92396Y134349D01*
X92414Y134418D01*
X92441Y134485D01*
X92449Y134556D01*
X92457Y134587D01*
X92455Y134610D01*
X92459Y134651D01*
X92459Y136977D01*
X98477Y136977D01*
X98477Y130459D01*
X96651Y130459D01*
X96580Y130448D01*
X96509Y130446D01*
X96460Y130428D01*
X96409Y130420D01*
X96345Y130386D01*
X96278Y130361D01*
X96237Y130329D01*
X96191Y130304D01*
X96142Y130252D01*
X96086Y130208D01*
X96058Y130164D01*
X96022Y130126D01*
X95992Y130061D01*
X95953Y130001D01*
X95940Y129950D01*
X95918Y129903D01*
X95910Y129832D01*
X95893Y129762D01*
X95897Y129710D01*
X95891Y129659D01*
X95906Y129588D01*
X95912Y129517D01*
X95932Y129469D01*
X95943Y129418D01*
X95980Y129357D01*
X96008Y129291D01*
X96053Y129235D01*
X96069Y129207D01*
X96087Y129192D01*
X96113Y129160D01*
X96271Y129002D01*
X96345Y128948D01*
X96414Y128889D01*
X96445Y128877D01*
X96471Y128858D01*
X96558Y128831D01*
X96643Y128797D01*
X96684Y128793D01*
X96706Y128786D01*
X96738Y128787D01*
X96809Y128779D01*
X105737Y128779D01*
X106779Y127737D01*
X106779Y115263D01*
X105737Y114221D01*
X103429Y114221D01*
X103409Y114218D01*
X103390Y114220D01*
X103288Y114198D01*
X103186Y114182D01*
X103169Y114172D01*
X103149Y114168D01*
X103060Y114115D01*
X102969Y114066D01*
X102955Y114052D01*
X102938Y114042D01*
X102871Y113963D01*
X102799Y113888D01*
X102791Y113870D01*
X102778Y113855D01*
X102739Y113759D01*
X102696Y113665D01*
X102694Y113645D01*
X102686Y113627D01*
X102668Y113460D01*
X102668Y61420D01*
X102682Y61330D01*
X102690Y61239D01*
X102702Y61210D01*
X102707Y61178D01*
X102750Y61097D01*
X102786Y61013D01*
X102812Y60981D01*
X102823Y60960D01*
X102846Y60938D01*
X102853Y60929D01*
X102861Y60915D01*
X102870Y60908D01*
X102891Y60882D01*
X110882Y52891D01*
X110956Y52838D01*
X111025Y52778D01*
X111056Y52766D01*
X111082Y52747D01*
X111169Y52720D01*
X111254Y52686D01*
X111295Y52682D01*
X111317Y52675D01*
X111349Y52676D01*
X111420Y52668D01*
X111979Y52668D01*
X112050Y52679D01*
X112121Y52681D01*
X112170Y52699D01*
X112222Y52707D01*
X112285Y52741D01*
X112352Y52766D01*
X112393Y52798D01*
X112439Y52823D01*
X112488Y52875D01*
X112544Y52919D01*
X112573Y52963D01*
X112608Y53001D01*
X112639Y53066D01*
X112677Y53126D01*
X112690Y53177D01*
X112712Y53224D01*
X112720Y53295D01*
X112737Y53365D01*
X112733Y53417D01*
X112739Y53468D01*
X112724Y53539D01*
X112718Y53610D01*
X112698Y53658D01*
X112687Y53709D01*
X112650Y53770D01*
X112622Y53836D01*
X112577Y53892D01*
X112561Y53920D01*
X112543Y53935D01*
X112517Y53967D01*
X112221Y54263D01*
X112221Y63737D01*
X113263Y64779D01*
X116571Y64779D01*
X116591Y64782D01*
X116610Y64780D01*
X116712Y64802D01*
X116814Y64818D01*
X116831Y64828D01*
X116851Y64832D01*
X116940Y64885D01*
X117031Y64934D01*
X117045Y64948D01*
X117062Y64958D01*
X117129Y65037D01*
X117201Y65112D01*
X117209Y65130D01*
X117222Y65145D01*
X117261Y65241D01*
X117304Y65335D01*
X117306Y65355D01*
X117314Y65373D01*
X117332Y65540D01*
X117332Y81105D01*
X158895Y122668D01*
X164685Y122668D01*
X164800Y122687D01*
X164916Y122704D01*
X164921Y122706D01*
X164927Y122707D01*
X165030Y122762D01*
X165135Y122815D01*
X165139Y122820D01*
X165145Y122823D01*
X165225Y122907D01*
X165307Y122991D01*
X165311Y122997D01*
X165314Y123001D01*
X165322Y123018D01*
X165356Y123081D01*
X166906Y124630D01*
X168914Y125462D01*
X171086Y125462D01*
X173094Y124630D01*
X174655Y123069D01*
X174657Y123066D01*
X174692Y123027D01*
X174719Y122983D01*
X174774Y122937D01*
X174823Y122884D01*
X174868Y122859D01*
X174908Y122826D01*
X174975Y122800D01*
X175038Y122766D01*
X175090Y122757D01*
X175138Y122738D01*
X175210Y122735D01*
X175280Y122722D01*
X175332Y122730D01*
X175384Y122727D01*
X175453Y122747D01*
X175524Y122758D01*
X175570Y122781D01*
X175620Y122796D01*
X175679Y122837D01*
X175743Y122869D01*
X175779Y122906D01*
X175822Y122936D01*
X175865Y122994D01*
X175915Y123045D01*
X175950Y123108D01*
X175969Y123133D01*
X175976Y123156D01*
X175996Y123192D01*
X176370Y124094D01*
X177906Y125630D01*
X179914Y126462D01*
X182086Y126462D01*
X184094Y125630D01*
X185630Y124094D01*
X186462Y122086D01*
X186462Y121223D01*
X186465Y121203D01*
X186463Y121184D01*
X186485Y121082D01*
X186501Y120980D01*
X186511Y120963D01*
X186515Y120943D01*
X186568Y120854D01*
X186617Y120763D01*
X186631Y120749D01*
X186641Y120732D01*
X186720Y120665D01*
X186795Y120593D01*
X186813Y120585D01*
X186828Y120572D01*
X186924Y120533D01*
X187018Y120490D01*
X187038Y120488D01*
X187056Y120480D01*
X187223Y120462D01*
X189186Y120462D01*
X191194Y119630D01*
X192730Y118094D01*
X193562Y116086D01*
X193562Y113914D01*
X192730Y111906D01*
X191194Y110370D01*
X189186Y109538D01*
X186980Y109538D01*
X186944Y109547D01*
X186830Y109575D01*
X186824Y109575D01*
X186818Y109576D01*
X186701Y109565D01*
X186585Y109556D01*
X186579Y109554D01*
X186573Y109553D01*
X186466Y109506D01*
X186359Y109460D01*
X186353Y109455D01*
X186348Y109453D01*
X186335Y109441D01*
X186228Y109355D01*
X182891Y106018D01*
X182838Y105944D01*
X182778Y105875D01*
X182766Y105844D01*
X182747Y105818D01*
X182720Y105731D01*
X182686Y105646D01*
X182682Y105605D01*
X182675Y105583D01*
X182676Y105551D01*
X182668Y105480D01*
X182668Y76540D01*
X182671Y76520D01*
X182669Y76501D01*
X182691Y76399D01*
X182707Y76297D01*
X182717Y76280D01*
X182721Y76260D01*
X182774Y76171D01*
X182823Y76080D01*
X182837Y76066D01*
X182847Y76049D01*
X182926Y75982D01*
X183001Y75910D01*
X183019Y75902D01*
X183034Y75889D01*
X183130Y75850D01*
X183224Y75807D01*
X183244Y75805D01*
X183262Y75797D01*
X183429Y75779D01*
X185737Y75779D01*
X186779Y74737D01*
X186779Y62263D01*
X185737Y61221D01*
X174263Y61221D01*
X173304Y62180D01*
X173267Y62207D01*
X173236Y62241D01*
X173168Y62278D01*
X173105Y62324D01*
X173061Y62337D01*
X173021Y62359D01*
X172944Y62373D01*
X172870Y62396D01*
X172824Y62395D01*
X172779Y62403D01*
X172702Y62392D01*
X172624Y62390D01*
X172581Y62374D01*
X172535Y62367D01*
X172466Y62332D01*
X172393Y62305D01*
X172357Y62276D01*
X172316Y62256D01*
X172261Y62200D01*
X172201Y62151D01*
X172176Y62113D01*
X172144Y62080D01*
X172078Y61960D01*
X172068Y61944D01*
X172067Y61940D01*
X172063Y61933D01*
X171149Y59727D01*
X169523Y58101D01*
X167399Y57221D01*
X165101Y57221D01*
X162977Y58101D01*
X162078Y58999D01*
X162020Y59041D01*
X161968Y59091D01*
X161921Y59113D01*
X161879Y59143D01*
X161810Y59164D01*
X161745Y59194D01*
X161693Y59200D01*
X161643Y59215D01*
X161572Y59213D01*
X161501Y59221D01*
X161450Y59210D01*
X161398Y59209D01*
X161330Y59184D01*
X161260Y59169D01*
X161215Y59142D01*
X161167Y59124D01*
X161111Y59080D01*
X161049Y59043D01*
X161015Y59003D01*
X160975Y58971D01*
X160936Y58910D01*
X160889Y58856D01*
X160870Y58808D01*
X160842Y58764D01*
X160824Y58694D01*
X160797Y58628D01*
X160789Y58557D01*
X160781Y58525D01*
X160783Y58502D01*
X160779Y58461D01*
X160779Y55263D01*
X159737Y54221D01*
X140263Y54221D01*
X139221Y55263D01*
X139221Y72737D01*
X140263Y73779D01*
X146571Y73779D01*
X146591Y73782D01*
X146610Y73780D01*
X146712Y73802D01*
X146814Y73818D01*
X146831Y73828D01*
X146851Y73832D01*
X146940Y73885D01*
X147031Y73934D01*
X147045Y73948D01*
X147062Y73958D01*
X147129Y74037D01*
X147201Y74112D01*
X147209Y74130D01*
X147222Y74145D01*
X147261Y74241D01*
X147304Y74335D01*
X147306Y74355D01*
X147314Y74373D01*
X147332Y74540D01*
X147332Y91105D01*
X169466Y113239D01*
X169508Y113297D01*
X169557Y113349D01*
X169579Y113396D01*
X169610Y113438D01*
X169631Y113507D01*
X169661Y113572D01*
X169667Y113624D01*
X169682Y113674D01*
X169680Y113745D01*
X169688Y113816D01*
X169677Y113867D01*
X169676Y113919D01*
X169651Y113987D01*
X169636Y114057D01*
X169609Y114102D01*
X169591Y114150D01*
X169546Y114206D01*
X169510Y114268D01*
X169470Y114302D01*
X169437Y114342D01*
X169377Y114381D01*
X169323Y114428D01*
X169274Y114447D01*
X169230Y114475D01*
X169161Y114493D01*
X169094Y114520D01*
X169023Y114528D01*
X168992Y114536D01*
X168969Y114534D01*
X168928Y114538D01*
X168914Y114538D01*
X166906Y115370D01*
X165346Y116930D01*
X165327Y116961D01*
X165266Y117062D01*
X165262Y117066D01*
X165258Y117071D01*
X165169Y117146D01*
X165079Y117222D01*
X165074Y117224D01*
X165069Y117228D01*
X164960Y117270D01*
X164851Y117314D01*
X164844Y117315D01*
X164839Y117316D01*
X164821Y117317D01*
X164685Y117332D01*
X161420Y117332D01*
X161330Y117318D01*
X161239Y117310D01*
X161210Y117298D01*
X161178Y117293D01*
X161097Y117250D01*
X161013Y117214D01*
X160981Y117188D01*
X160960Y117177D01*
X160938Y117154D01*
X160882Y117109D01*
X122891Y79118D01*
X122838Y79044D01*
X122778Y78975D01*
X122766Y78944D01*
X122747Y78918D01*
X122720Y78831D01*
X122686Y78746D01*
X122682Y78705D01*
X122675Y78683D01*
X122676Y78651D01*
X122668Y78580D01*
X122668Y65540D01*
X122671Y65520D01*
X122669Y65501D01*
X122691Y65399D01*
X122707Y65297D01*
X122717Y65280D01*
X122721Y65260D01*
X122774Y65171D01*
X122823Y65080D01*
X122837Y65066D01*
X122847Y65049D01*
X122926Y64982D01*
X123001Y64910D01*
X123019Y64902D01*
X123034Y64889D01*
X123130Y64850D01*
X123224Y64807D01*
X123244Y64805D01*
X123262Y64797D01*
X123429Y64779D01*
X126737Y64779D01*
X127779Y63737D01*
X127779Y54263D01*
X127483Y53967D01*
X127441Y53909D01*
X127392Y53857D01*
X127370Y53810D01*
X127339Y53768D01*
X127318Y53699D01*
X127288Y53634D01*
X127282Y53582D01*
X127267Y53532D01*
X127269Y53461D01*
X127261Y53390D01*
X127272Y53339D01*
X127273Y53287D01*
X127298Y53219D01*
X127313Y53149D01*
X127340Y53104D01*
X127358Y53056D01*
X127402Y53000D01*
X127439Y52938D01*
X127479Y52904D01*
X127511Y52864D01*
X127572Y52825D01*
X127626Y52778D01*
X127675Y52759D01*
X127718Y52731D01*
X127788Y52713D01*
X127854Y52686D01*
X127926Y52678D01*
X127957Y52670D01*
X127980Y52672D01*
X128021Y52668D01*
X159105Y52668D01*
X170882Y40891D01*
X170956Y40838D01*
X171025Y40778D01*
X171056Y40766D01*
X171082Y40747D01*
X171169Y40720D01*
X171254Y40686D01*
X171295Y40682D01*
X171317Y40675D01*
X171349Y40676D01*
X171420Y40668D01*
X185080Y40668D01*
X185170Y40682D01*
X185261Y40690D01*
X185290Y40702D01*
X185322Y40707D01*
X185403Y40750D01*
X185487Y40786D01*
X185519Y40812D01*
X185540Y40823D01*
X185562Y40846D01*
X185618Y40891D01*
X187521Y42794D01*
X187535Y42813D01*
X187554Y42828D01*
X187606Y42913D01*
X187664Y42993D01*
X187671Y43016D01*
X187684Y43037D01*
X187708Y43133D01*
X187737Y43228D01*
X187736Y43252D01*
X187740Y43267D01*
X187802Y43268D01*
X187825Y43276D01*
X187849Y43278D01*
X187940Y43317D01*
X188034Y43350D01*
X188053Y43365D01*
X188075Y43374D01*
X188206Y43479D01*
X192998Y48271D01*
X193051Y48345D01*
X193111Y48414D01*
X193123Y48445D01*
X193142Y48471D01*
X193169Y48558D01*
X193203Y48643D01*
X193207Y48684D01*
X193214Y48706D01*
X193213Y48738D01*
X193221Y48809D01*
X193221Y57737D01*
X194263Y58779D01*
X205737Y58779D01*
X206779Y57737D01*
X206779Y55564D01*
X206782Y55544D01*
X206780Y55525D01*
X206802Y55423D01*
X206818Y55321D01*
X206828Y55304D01*
X206832Y55284D01*
X206885Y55195D01*
X206934Y55104D01*
X206948Y55090D01*
X206958Y55073D01*
X207037Y55006D01*
X207112Y54934D01*
X207130Y54926D01*
X207145Y54913D01*
X207241Y54874D01*
X207335Y54831D01*
X207355Y54829D01*
X207373Y54821D01*
X207540Y54803D01*
X212460Y54803D01*
X212480Y54806D01*
X212499Y54804D01*
X212601Y54826D01*
X212703Y54842D01*
X212720Y54852D01*
X212740Y54856D01*
X212829Y54909D01*
X212920Y54958D01*
X212934Y54972D01*
X212951Y54982D01*
X213018Y55061D01*
X213090Y55136D01*
X213098Y55154D01*
X213111Y55169D01*
X213150Y55265D01*
X213193Y55359D01*
X213195Y55379D01*
X213203Y55397D01*
X213221Y55564D01*
X213221Y57737D01*
X214263Y58779D01*
X224111Y58779D01*
X224181Y58790D01*
X224253Y58792D01*
X224302Y58810D01*
X224353Y58818D01*
X224417Y58852D01*
X224484Y58877D01*
X224525Y58909D01*
X224571Y58934D01*
X224620Y58986D01*
X224676Y59030D01*
X224704Y59074D01*
X224740Y59112D01*
X224770Y59177D01*
X224809Y59237D01*
X224822Y59288D01*
X224844Y59335D01*
X224852Y59406D01*
X224869Y59476D01*
X224865Y59528D01*
X224871Y59579D01*
X224856Y59650D01*
X224850Y59721D01*
X224830Y59769D01*
X224819Y59820D01*
X224782Y59881D01*
X224754Y59947D01*
X224709Y60003D01*
X224693Y60031D01*
X224675Y60046D01*
X224649Y60078D01*
X223729Y60998D01*
X223655Y61051D01*
X223586Y61111D01*
X223555Y61123D01*
X223529Y61142D01*
X223442Y61169D01*
X223357Y61203D01*
X223316Y61207D01*
X223294Y61214D01*
X223262Y61213D01*
X223191Y61221D01*
X214263Y61221D01*
X213221Y62263D01*
X213221Y74737D01*
X214263Y75779D01*
X225737Y75779D01*
X226779Y74737D01*
X226779Y65809D01*
X226793Y65719D01*
X226801Y65628D01*
X226813Y65599D01*
X226818Y65567D01*
X226861Y65486D01*
X226897Y65402D01*
X226923Y65370D01*
X226934Y65349D01*
X226957Y65327D01*
X227002Y65271D01*
X229105Y63168D01*
X229179Y63115D01*
X229248Y63055D01*
X229279Y63043D01*
X229305Y63024D01*
X229392Y62997D01*
X229477Y62963D01*
X229518Y62959D01*
X229540Y62952D01*
X229572Y62953D01*
X229643Y62945D01*
X232460Y62945D01*
X232480Y62948D01*
X232499Y62946D01*
X232601Y62968D01*
X232703Y62984D01*
X232720Y62994D01*
X232740Y62998D01*
X232829Y63051D01*
X232920Y63100D01*
X232934Y63114D01*
X232951Y63124D01*
X233018Y63203D01*
X233090Y63278D01*
X233098Y63296D01*
X233111Y63311D01*
X233150Y63407D01*
X233193Y63501D01*
X233195Y63521D01*
X233203Y63539D01*
X233221Y63706D01*
X233221Y74737D01*
X234263Y75779D01*
X243691Y75779D01*
X243781Y75793D01*
X243872Y75801D01*
X243901Y75813D01*
X243933Y75818D01*
X244014Y75861D01*
X244098Y75897D01*
X244130Y75923D01*
X244151Y75934D01*
X244173Y75957D01*
X244229Y76002D01*
X244355Y76128D01*
X244402Y76194D01*
X244411Y76203D01*
X244415Y76212D01*
X244423Y76223D01*
X244493Y76317D01*
X244495Y76323D01*
X244499Y76328D01*
X244533Y76439D01*
X244569Y76551D01*
X244569Y76557D01*
X244571Y76563D01*
X244568Y76679D01*
X244567Y76796D01*
X244565Y76804D01*
X244565Y76809D01*
X244558Y76826D01*
X244538Y76895D01*
X244538Y79086D01*
X245370Y81094D01*
X246906Y82630D01*
X248914Y83462D01*
X251086Y83462D01*
X253094Y82630D01*
X254630Y81094D01*
X255462Y79086D01*
X255462Y77302D01*
X255465Y77282D01*
X255463Y77263D01*
X255485Y77161D01*
X255501Y77059D01*
X255511Y77042D01*
X255515Y77022D01*
X255568Y76933D01*
X255617Y76842D01*
X255631Y76828D01*
X255641Y76811D01*
X255720Y76744D01*
X255795Y76672D01*
X255813Y76664D01*
X255828Y76651D01*
X255924Y76612D01*
X256018Y76569D01*
X256038Y76567D01*
X256056Y76559D01*
X256223Y76541D01*
X258477Y76541D01*
X258477Y70023D01*
X252459Y70023D01*
X252459Y71968D01*
X252452Y72013D01*
X252454Y72059D01*
X252432Y72134D01*
X252420Y72210D01*
X252398Y72251D01*
X252385Y72295D01*
X252341Y72359D01*
X252304Y72428D01*
X252271Y72459D01*
X252245Y72497D01*
X252183Y72543D01*
X252126Y72597D01*
X252084Y72617D01*
X252048Y72644D01*
X251974Y72668D01*
X251903Y72701D01*
X251857Y72706D01*
X251814Y72720D01*
X251736Y72719D01*
X251659Y72728D01*
X251614Y72718D01*
X251568Y72718D01*
X251436Y72680D01*
X251418Y72676D01*
X251414Y72673D01*
X251407Y72671D01*
X251086Y72538D01*
X248880Y72538D01*
X248844Y72547D01*
X248730Y72575D01*
X248724Y72575D01*
X248718Y72576D01*
X248601Y72565D01*
X248485Y72556D01*
X248479Y72554D01*
X248473Y72553D01*
X248366Y72505D01*
X248259Y72460D01*
X248253Y72455D01*
X248248Y72453D01*
X248235Y72441D01*
X248128Y72355D01*
X247002Y71229D01*
X246949Y71155D01*
X246889Y71086D01*
X246877Y71055D01*
X246858Y71029D01*
X246831Y70942D01*
X246797Y70857D01*
X246793Y70816D01*
X246786Y70794D01*
X246787Y70762D01*
X246779Y70691D01*
X246779Y63706D01*
X246782Y63686D01*
X246780Y63667D01*
X246802Y63565D01*
X246818Y63463D01*
X246828Y63446D01*
X246832Y63426D01*
X246885Y63337D01*
X246934Y63246D01*
X246948Y63232D01*
X246958Y63215D01*
X247037Y63148D01*
X247112Y63076D01*
X247130Y63068D01*
X247145Y63055D01*
X247241Y63016D01*
X247335Y62973D01*
X247355Y62971D01*
X247373Y62963D01*
X247540Y62945D01*
X251698Y62945D01*
X251718Y62948D01*
X251737Y62946D01*
X251839Y62968D01*
X251941Y62984D01*
X251958Y62994D01*
X251978Y62998D01*
X252067Y63051D01*
X252158Y63100D01*
X252172Y63114D01*
X252189Y63124D01*
X252256Y63203D01*
X252328Y63278D01*
X252336Y63296D01*
X252349Y63311D01*
X252388Y63407D01*
X252431Y63501D01*
X252433Y63521D01*
X252441Y63539D01*
X252459Y63706D01*
X252459Y66977D01*
X259238Y66977D01*
X259258Y66980D01*
X259277Y66978D01*
X259379Y67000D01*
X259481Y67017D01*
X259498Y67026D01*
X259518Y67030D01*
X259607Y67083D01*
X259698Y67132D01*
X259712Y67146D01*
X259729Y67156D01*
X259796Y67235D01*
X259867Y67310D01*
X259876Y67328D01*
X259889Y67343D01*
X259928Y67439D01*
X259971Y67533D01*
X259973Y67553D01*
X259981Y67571D01*
X259999Y67738D01*
X259999Y68501D01*
X260001Y68501D01*
X260001Y67738D01*
X260004Y67718D01*
X260002Y67699D01*
X260024Y67597D01*
X260041Y67495D01*
X260050Y67478D01*
X260054Y67458D01*
X260107Y67369D01*
X260156Y67278D01*
X260170Y67264D01*
X260180Y67247D01*
X260259Y67180D01*
X260334Y67109D01*
X260352Y67100D01*
X260367Y67087D01*
X260463Y67048D01*
X260557Y67005D01*
X260577Y67003D01*
X260595Y66995D01*
X260762Y66977D01*
X267541Y66977D01*
X267541Y66309D01*
X267548Y66264D01*
X267546Y66218D01*
X267568Y66143D01*
X267580Y66067D01*
X267602Y66026D01*
X267615Y65982D01*
X267659Y65918D01*
X267696Y65849D01*
X267729Y65818D01*
X267755Y65780D01*
X267817Y65734D01*
X267874Y65680D01*
X267916Y65660D01*
X267952Y65633D01*
X268026Y65609D01*
X268097Y65576D01*
X268143Y65571D01*
X268186Y65557D01*
X268264Y65558D01*
X268341Y65549D01*
X268386Y65559D01*
X268432Y65559D01*
X268564Y65597D01*
X268582Y65601D01*
X268586Y65604D01*
X268593Y65606D01*
X268914Y65739D01*
X271086Y65739D01*
X271407Y65606D01*
X271451Y65596D01*
X271493Y65576D01*
X271570Y65568D01*
X271646Y65550D01*
X271692Y65554D01*
X271737Y65549D01*
X271814Y65566D01*
X271891Y65573D01*
X271933Y65592D01*
X271978Y65601D01*
X272045Y65641D01*
X272116Y65673D01*
X272150Y65704D01*
X272189Y65728D01*
X272240Y65787D01*
X272297Y65839D01*
X272319Y65880D01*
X272349Y65914D01*
X272378Y65987D01*
X272415Y66055D01*
X272424Y66100D01*
X272441Y66143D01*
X272456Y66279D01*
X272459Y66297D01*
X272458Y66302D01*
X272459Y66309D01*
X272459Y66977D01*
X278477Y66977D01*
X278477Y60459D01*
X276223Y60459D01*
X276203Y60456D01*
X276184Y60458D01*
X276082Y60436D01*
X275980Y60420D01*
X275963Y60410D01*
X275943Y60406D01*
X275854Y60353D01*
X275763Y60304D01*
X275749Y60290D01*
X275732Y60280D01*
X275665Y60201D01*
X275593Y60126D01*
X275585Y60108D01*
X275572Y60093D01*
X275533Y59997D01*
X275490Y59903D01*
X275488Y59883D01*
X275480Y59865D01*
X275462Y59698D01*
X275462Y59540D01*
X275465Y59520D01*
X275463Y59501D01*
X275485Y59399D01*
X275501Y59297D01*
X275511Y59280D01*
X275515Y59260D01*
X275568Y59171D01*
X275617Y59080D01*
X275631Y59066D01*
X275641Y59049D01*
X275720Y58982D01*
X275795Y58910D01*
X275813Y58902D01*
X275828Y58889D01*
X275924Y58850D01*
X276018Y58807D01*
X276038Y58805D01*
X276056Y58797D01*
X276223Y58779D01*
X285737Y58779D01*
X286779Y57737D01*
X286779Y45263D01*
X285737Y44221D01*
X285303Y44221D01*
X285257Y44214D01*
X285211Y44216D01*
X285137Y44194D01*
X285060Y44182D01*
X285019Y44160D01*
X284975Y44147D01*
X284911Y44103D01*
X284842Y44066D01*
X284811Y44033D01*
X284773Y44007D01*
X284727Y43944D01*
X284673Y43888D01*
X284654Y43846D01*
X284626Y43810D01*
X284602Y43736D01*
X284569Y43665D01*
X284564Y43619D01*
X284550Y43576D01*
X284551Y43498D01*
X284542Y43421D01*
X284552Y43376D01*
X284552Y43330D01*
X284591Y43198D01*
X284595Y43180D01*
X284597Y43176D01*
X284599Y43169D01*
X285462Y41086D01*
X285462Y40564D01*
X285465Y40544D01*
X285463Y40525D01*
X285485Y40423D01*
X285501Y40321D01*
X285511Y40304D01*
X285515Y40284D01*
X285568Y40195D01*
X285617Y40104D01*
X285631Y40090D01*
X285641Y40073D01*
X285720Y40006D01*
X285795Y39934D01*
X285813Y39926D01*
X285828Y39913D01*
X285924Y39874D01*
X286018Y39831D01*
X286038Y39829D01*
X286056Y39821D01*
X286223Y39803D01*
X292460Y39803D01*
X292480Y39806D01*
X292499Y39804D01*
X292601Y39826D01*
X292703Y39842D01*
X292720Y39852D01*
X292740Y39856D01*
X292829Y39909D01*
X292920Y39958D01*
X292934Y39972D01*
X292951Y39982D01*
X293018Y40061D01*
X293090Y40136D01*
X293098Y40154D01*
X293111Y40169D01*
X293150Y40265D01*
X293193Y40359D01*
X293195Y40379D01*
X293203Y40397D01*
X293221Y40564D01*
X293221Y42737D01*
X294406Y43922D01*
X294448Y43980D01*
X294497Y44032D01*
X294519Y44079D01*
X294550Y44121D01*
X294571Y44190D01*
X294601Y44255D01*
X294607Y44307D01*
X294622Y44357D01*
X294620Y44428D01*
X294628Y44499D01*
X294617Y44550D01*
X294616Y44602D01*
X294591Y44670D01*
X294576Y44740D01*
X294549Y44785D01*
X294531Y44833D01*
X294486Y44889D01*
X294450Y44951D01*
X294410Y44985D01*
X294378Y45025D01*
X294317Y45064D01*
X294263Y45111D01*
X294214Y45130D01*
X294171Y45158D01*
X294101Y45176D01*
X294035Y45203D01*
X293963Y45211D01*
X293932Y45219D01*
X293909Y45217D01*
X293868Y45221D01*
X293263Y45221D01*
X292221Y46263D01*
X292221Y55737D01*
X293263Y56779D01*
X301691Y56779D01*
X301781Y56793D01*
X301872Y56801D01*
X301901Y56813D01*
X301933Y56818D01*
X302014Y56861D01*
X302098Y56897D01*
X302130Y56923D01*
X302151Y56934D01*
X302173Y56957D01*
X302229Y57002D01*
X304315Y59088D01*
X304368Y59162D01*
X304428Y59231D01*
X304440Y59262D01*
X304459Y59288D01*
X304486Y59375D01*
X304520Y59460D01*
X304524Y59501D01*
X304531Y59523D01*
X304530Y59555D01*
X304538Y59626D01*
X304538Y61086D01*
X304987Y62169D01*
X304997Y62213D01*
X305016Y62255D01*
X305025Y62332D01*
X305043Y62408D01*
X305038Y62454D01*
X305043Y62499D01*
X305027Y62576D01*
X305020Y62653D01*
X305001Y62695D01*
X304991Y62740D01*
X304951Y62807D01*
X304920Y62878D01*
X304889Y62912D01*
X304865Y62951D01*
X304806Y63002D01*
X304753Y63059D01*
X304713Y63081D01*
X304678Y63111D01*
X304606Y63140D01*
X304538Y63177D01*
X304493Y63186D01*
X304450Y63203D01*
X304314Y63218D01*
X304296Y63221D01*
X304291Y63220D01*
X304283Y63221D01*
X293263Y63221D01*
X292221Y64263D01*
X292221Y73737D01*
X293263Y74779D01*
X296571Y74779D01*
X296591Y74782D01*
X296610Y74780D01*
X296712Y74802D01*
X296814Y74818D01*
X296831Y74828D01*
X296851Y74832D01*
X296940Y74885D01*
X297031Y74934D01*
X297045Y74948D01*
X297062Y74958D01*
X297129Y75037D01*
X297201Y75112D01*
X297209Y75130D01*
X297222Y75145D01*
X297261Y75241D01*
X297304Y75335D01*
X297306Y75355D01*
X297314Y75373D01*
X297332Y75540D01*
X297332Y108105D01*
X306355Y117128D01*
X306423Y117223D01*
X306493Y117317D01*
X306495Y117323D01*
X306499Y117328D01*
X306533Y117438D01*
X306569Y117551D01*
X306569Y117557D01*
X306571Y117563D01*
X306568Y117679D01*
X306567Y117796D01*
X306565Y117804D01*
X306565Y117809D01*
X306558Y117826D01*
X306538Y117895D01*
X306538Y120086D01*
X307370Y122094D01*
X308906Y123630D01*
X310914Y124462D01*
X313086Y124462D01*
X315094Y123630D01*
X316630Y122094D01*
X317462Y120086D01*
X317462Y117914D01*
X316630Y115906D01*
X315094Y114370D01*
X313086Y113538D01*
X310880Y113538D01*
X310844Y113547D01*
X310730Y113575D01*
X310724Y113575D01*
X310718Y113576D01*
X310601Y113565D01*
X310485Y113556D01*
X310479Y113554D01*
X310473Y113553D01*
X310366Y113505D01*
X310259Y113460D01*
X310253Y113455D01*
X310248Y113453D01*
X310235Y113441D01*
X310128Y113355D01*
X302891Y106118D01*
X302838Y106044D01*
X302778Y105975D01*
X302766Y105944D01*
X302747Y105918D01*
X302720Y105831D01*
X302686Y105746D01*
X302682Y105705D01*
X302675Y105683D01*
X302676Y105651D01*
X302668Y105580D01*
X302668Y75540D01*
X302671Y75520D01*
X302669Y75501D01*
X302691Y75399D01*
X302707Y75297D01*
X302717Y75280D01*
X302721Y75260D01*
X302774Y75171D01*
X302823Y75080D01*
X302837Y75066D01*
X302847Y75049D01*
X302926Y74982D01*
X303001Y74910D01*
X303019Y74902D01*
X303034Y74889D01*
X303130Y74850D01*
X303224Y74807D01*
X303244Y74805D01*
X303262Y74797D01*
X303429Y74779D01*
X306737Y74779D01*
X307779Y73737D01*
X307779Y66131D01*
X307786Y66086D01*
X307784Y66040D01*
X307806Y65965D01*
X307818Y65888D01*
X307840Y65848D01*
X307853Y65804D01*
X307897Y65740D01*
X307934Y65671D01*
X307967Y65639D01*
X307993Y65602D01*
X308056Y65555D01*
X308112Y65501D01*
X308154Y65482D01*
X308190Y65455D01*
X308264Y65431D01*
X308335Y65398D01*
X308381Y65393D01*
X308424Y65379D01*
X308502Y65379D01*
X308579Y65371D01*
X308624Y65380D01*
X308670Y65381D01*
X308802Y65419D01*
X308820Y65423D01*
X308824Y65426D01*
X308831Y65428D01*
X308914Y65462D01*
X311086Y65462D01*
X311169Y65428D01*
X311213Y65417D01*
X311255Y65398D01*
X311332Y65389D01*
X311408Y65371D01*
X311454Y65376D01*
X311499Y65371D01*
X311576Y65387D01*
X311653Y65395D01*
X311695Y65413D01*
X311740Y65423D01*
X311807Y65463D01*
X311878Y65495D01*
X311912Y65526D01*
X311951Y65549D01*
X312002Y65608D01*
X312059Y65661D01*
X312081Y65701D01*
X312111Y65736D01*
X312140Y65808D01*
X312177Y65876D01*
X312186Y65922D01*
X312203Y65964D01*
X312218Y66100D01*
X312221Y66119D01*
X312220Y66124D01*
X312221Y66131D01*
X312221Y73737D01*
X313263Y74779D01*
X316571Y74779D01*
X316591Y74782D01*
X316610Y74780D01*
X316712Y74802D01*
X316814Y74818D01*
X316831Y74828D01*
X316851Y74832D01*
X316940Y74885D01*
X317031Y74934D01*
X317045Y74948D01*
X317062Y74958D01*
X317129Y75037D01*
X317201Y75112D01*
X317209Y75130D01*
X317222Y75145D01*
X317261Y75241D01*
X317304Y75335D01*
X317306Y75355D01*
X317314Y75373D01*
X317332Y75540D01*
X317332Y112105D01*
X319355Y114128D01*
X319424Y114223D01*
X319493Y114317D01*
X319495Y114323D01*
X319499Y114328D01*
X319533Y114439D01*
X319569Y114551D01*
X319569Y114557D01*
X319571Y114563D01*
X319568Y114679D01*
X319567Y114796D01*
X319565Y114804D01*
X319565Y114809D01*
X319558Y114826D01*
X319538Y114895D01*
X319538Y117086D01*
X320370Y119094D01*
X321906Y120630D01*
X323914Y121462D01*
X326086Y121462D01*
X328094Y120630D01*
X328533Y120191D01*
X328591Y120149D01*
X328643Y120100D01*
X328690Y120078D01*
X328732Y120048D01*
X328801Y120027D01*
X328866Y119996D01*
X328918Y119991D01*
X328968Y119975D01*
X329039Y119977D01*
X329110Y119969D01*
X329161Y119980D01*
X329213Y119982D01*
X329281Y120006D01*
X329351Y120022D01*
X329396Y120048D01*
X329444Y120066D01*
X329500Y120111D01*
X329562Y120148D01*
X329596Y120187D01*
X329636Y120220D01*
X329675Y120280D01*
X329722Y120335D01*
X329741Y120383D01*
X329769Y120427D01*
X329787Y120496D01*
X329814Y120563D01*
X329822Y120634D01*
X329830Y120665D01*
X329828Y120689D01*
X329832Y120730D01*
X329832Y154222D01*
X329821Y154292D01*
X329819Y154364D01*
X329801Y154413D01*
X329793Y154464D01*
X329759Y154528D01*
X329734Y154595D01*
X329702Y154636D01*
X329677Y154682D01*
X329626Y154731D01*
X329581Y154787D01*
X329537Y154815D01*
X329499Y154851D01*
X329434Y154881D01*
X329374Y154920D01*
X329323Y154933D01*
X329276Y154955D01*
X329205Y154963D01*
X329135Y154980D01*
X329083Y154976D01*
X329032Y154982D01*
X328961Y154967D01*
X328890Y154961D01*
X328842Y154941D01*
X328791Y154930D01*
X328730Y154893D01*
X328664Y154865D01*
X328608Y154820D01*
X328580Y154804D01*
X328565Y154786D01*
X328533Y154760D01*
X325645Y151872D01*
X325577Y151777D01*
X325507Y151683D01*
X325505Y151677D01*
X325501Y151672D01*
X325467Y151561D01*
X325431Y151449D01*
X325431Y151443D01*
X325429Y151437D01*
X325432Y151321D01*
X325433Y151204D01*
X325435Y151196D01*
X325435Y151191D01*
X325442Y151174D01*
X325462Y151105D01*
X325462Y148914D01*
X324630Y146906D01*
X323094Y145370D01*
X321086Y144538D01*
X318914Y144538D01*
X316906Y145370D01*
X315370Y146906D01*
X314538Y148914D01*
X314538Y151086D01*
X315370Y153094D01*
X316738Y154462D01*
X316749Y154478D01*
X316765Y154490D01*
X316821Y154578D01*
X316881Y154661D01*
X316887Y154680D01*
X316898Y154697D01*
X316923Y154798D01*
X316954Y154897D01*
X316953Y154916D01*
X316958Y154936D01*
X316950Y155039D01*
X316947Y155142D01*
X316940Y155161D01*
X316939Y155181D01*
X316898Y155276D01*
X316863Y155373D01*
X316850Y155389D01*
X316842Y155407D01*
X316738Y155538D01*
X315370Y156906D01*
X314538Y158914D01*
X314538Y161086D01*
X315370Y163094D01*
X316906Y164630D01*
X318914Y165462D01*
X319071Y165462D01*
X319091Y165465D01*
X319110Y165463D01*
X319212Y165485D01*
X319314Y165501D01*
X319331Y165511D01*
X319351Y165515D01*
X319440Y165568D01*
X319531Y165617D01*
X319545Y165631D01*
X319562Y165641D01*
X319629Y165720D01*
X319701Y165795D01*
X319709Y165813D01*
X319722Y165828D01*
X319761Y165924D01*
X319804Y166018D01*
X319806Y166038D01*
X319814Y166056D01*
X319832Y166223D01*
X319832Y169960D01*
X319829Y169980D01*
X319831Y169999D01*
X319809Y170101D01*
X319793Y170203D01*
X319783Y170220D01*
X319779Y170240D01*
X319726Y170329D01*
X319677Y170420D01*
X319663Y170434D01*
X319653Y170451D01*
X319574Y170518D01*
X319499Y170590D01*
X319481Y170598D01*
X319466Y170611D01*
X319370Y170650D01*
X319276Y170693D01*
X319256Y170695D01*
X319238Y170703D01*
X319071Y170721D01*
X310263Y170721D01*
X309221Y171763D01*
X309221Y181237D01*
X309609Y181625D01*
X309662Y181699D01*
X309722Y181768D01*
X309734Y181798D01*
X309753Y181825D01*
X309780Y181912D01*
X309814Y181996D01*
X309818Y182037D01*
X309825Y182060D01*
X309824Y182092D01*
X309832Y182163D01*
X309832Y186571D01*
X309829Y186591D01*
X309831Y186610D01*
X309809Y186712D01*
X309793Y186814D01*
X309783Y186831D01*
X309779Y186851D01*
X309726Y186940D01*
X309677Y187031D01*
X309663Y187045D01*
X309653Y187062D01*
X309574Y187129D01*
X309499Y187201D01*
X309481Y187209D01*
X309466Y187222D01*
X309370Y187261D01*
X309276Y187304D01*
X309256Y187306D01*
X309238Y187314D01*
X309071Y187332D01*
X281420Y187332D01*
X281330Y187318D01*
X281239Y187310D01*
X281210Y187298D01*
X281178Y187293D01*
X281097Y187250D01*
X281013Y187214D01*
X280981Y187188D01*
X280960Y187177D01*
X280938Y187154D01*
X280882Y187109D01*
X280391Y186618D01*
X280338Y186544D01*
X280278Y186475D01*
X280266Y186444D01*
X280247Y186418D01*
X280220Y186331D01*
X280186Y186246D01*
X280182Y186205D01*
X280175Y186183D01*
X280176Y186151D01*
X280168Y186080D01*
X280168Y102163D01*
X280182Y102073D01*
X280190Y101982D01*
X280202Y101952D01*
X280207Y101920D01*
X280250Y101840D01*
X280286Y101756D01*
X280312Y101724D01*
X280323Y101703D01*
X280346Y101681D01*
X280391Y101625D01*
X280779Y101237D01*
X280779Y91763D01*
X279737Y90721D01*
X231130Y90721D01*
X231040Y90707D01*
X230949Y90699D01*
X230919Y90687D01*
X230887Y90682D01*
X230806Y90639D01*
X230722Y90603D01*
X230690Y90577D01*
X230670Y90566D01*
X230647Y90543D01*
X230591Y90498D01*
X230560Y90467D01*
X229981Y90132D01*
X229334Y89959D01*
X228261Y89959D01*
X228261Y93267D01*
X228247Y93356D01*
X228240Y93445D01*
X228227Y93477D01*
X228222Y93510D01*
X228180Y93589D01*
X228145Y93672D01*
X228122Y93697D01*
X228107Y93727D01*
X228042Y93789D01*
X227982Y93856D01*
X227953Y93873D01*
X227928Y93897D01*
X227847Y93935D01*
X227769Y93979D01*
X227736Y93986D01*
X227705Y94000D01*
X227616Y94010D01*
X227528Y94028D01*
X227494Y94024D01*
X227461Y94028D01*
X227373Y94008D01*
X227284Y93997D01*
X227254Y93982D01*
X227220Y93975D01*
X227143Y93929D01*
X227063Y93890D01*
X227030Y93862D01*
X227009Y93849D01*
X226988Y93825D01*
X226937Y93779D01*
X226897Y93718D01*
X226849Y93662D01*
X226830Y93615D01*
X226803Y93573D01*
X226784Y93502D01*
X226757Y93434D01*
X226749Y93365D01*
X226742Y93334D01*
X226743Y93310D01*
X226739Y93267D01*
X226739Y89959D01*
X225666Y89959D01*
X225197Y90085D01*
X225082Y90096D01*
X224969Y90110D01*
X224959Y90109D01*
X224952Y90109D01*
X224931Y90104D01*
X224803Y90085D01*
X224334Y89959D01*
X223261Y89959D01*
X223261Y93267D01*
X223250Y93339D01*
X223247Y93413D01*
X223230Y93460D01*
X223222Y93510D01*
X223187Y93574D01*
X223162Y93643D01*
X223121Y93699D01*
X223107Y93727D01*
X223106Y93727D01*
X223089Y93744D01*
X223063Y93779D01*
X222993Y93835D01*
X222928Y93897D01*
X222897Y93911D01*
X222870Y93932D01*
X222786Y93963D01*
X222705Y94000D01*
X222671Y94004D01*
X222639Y94016D01*
X222549Y94018D01*
X222460Y94028D01*
X222427Y94020D01*
X222393Y94021D01*
X222308Y93994D01*
X222220Y93975D01*
X222191Y93958D01*
X222158Y93948D01*
X222086Y93895D01*
X222009Y93849D01*
X221987Y93823D01*
X221959Y93803D01*
X221907Y93730D01*
X221849Y93662D01*
X221836Y93631D01*
X221817Y93603D01*
X221791Y93517D01*
X221757Y93434D01*
X221752Y93391D01*
X221745Y93368D01*
X221746Y93336D01*
X221739Y93267D01*
X221739Y89959D01*
X220666Y89959D01*
X220019Y90132D01*
X219440Y90467D01*
X218967Y90940D01*
X218632Y91519D01*
X218459Y92166D01*
X218459Y95739D01*
X221714Y95739D01*
X221734Y95742D01*
X221753Y95740D01*
X221855Y95762D01*
X221957Y95778D01*
X221974Y95788D01*
X221994Y95792D01*
X222083Y95845D01*
X222174Y95893D01*
X222188Y95908D01*
X222205Y95918D01*
X222272Y95997D01*
X222344Y96072D01*
X222352Y96090D01*
X222365Y96105D01*
X222404Y96201D01*
X222447Y96295D01*
X222449Y96315D01*
X222457Y96333D01*
X222475Y96500D01*
X222472Y96520D01*
X222474Y96539D01*
X222474Y96540D01*
X222452Y96641D01*
X222436Y96743D01*
X222426Y96760D01*
X222422Y96780D01*
X222369Y96869D01*
X222320Y96960D01*
X222306Y96974D01*
X222296Y96991D01*
X222217Y97058D01*
X222142Y97130D01*
X222124Y97138D01*
X222109Y97151D01*
X222013Y97190D01*
X221919Y97233D01*
X221899Y97235D01*
X221881Y97243D01*
X221714Y97261D01*
X218459Y97261D01*
X218459Y100834D01*
X218632Y101481D01*
X218967Y102060D01*
X219440Y102533D01*
X220019Y102868D01*
X220666Y103041D01*
X221739Y103041D01*
X221739Y99733D01*
X221753Y99644D01*
X221760Y99555D01*
X221773Y99523D01*
X221778Y99490D01*
X221820Y99411D01*
X221855Y99328D01*
X221877Y99303D01*
X221893Y99273D01*
X221958Y99211D01*
X222018Y99144D01*
X222047Y99127D01*
X222072Y99103D01*
X222153Y99065D01*
X222231Y99021D01*
X222264Y99014D01*
X222295Y99000D01*
X222384Y98990D01*
X222472Y98972D01*
X222505Y98976D01*
X222539Y98972D01*
X222627Y98992D01*
X222716Y99003D01*
X222746Y99017D01*
X222780Y99025D01*
X222857Y99071D01*
X222937Y99110D01*
X222970Y99138D01*
X222991Y99151D01*
X223011Y99175D01*
X223063Y99221D01*
X223103Y99282D01*
X223151Y99338D01*
X223170Y99385D01*
X223197Y99427D01*
X223215Y99498D01*
X223243Y99566D01*
X223251Y99635D01*
X223258Y99666D01*
X223257Y99690D01*
X223261Y99733D01*
X223261Y103041D01*
X224334Y103041D01*
X224803Y102915D01*
X224918Y102904D01*
X225031Y102890D01*
X225041Y102891D01*
X225048Y102891D01*
X225069Y102896D01*
X225197Y102915D01*
X225666Y103041D01*
X226739Y103041D01*
X226739Y99733D01*
X226750Y99661D01*
X226753Y99587D01*
X226770Y99540D01*
X226778Y99490D01*
X226813Y99426D01*
X226838Y99357D01*
X226879Y99301D01*
X226893Y99273D01*
X226894Y99273D01*
X226911Y99256D01*
X226937Y99221D01*
X227007Y99165D01*
X227072Y99103D01*
X227103Y99089D01*
X227130Y99068D01*
X227214Y99037D01*
X227295Y99000D01*
X227329Y98996D01*
X227361Y98984D01*
X227451Y98982D01*
X227540Y98972D01*
X227573Y98980D01*
X227607Y98979D01*
X227692Y99006D01*
X227780Y99025D01*
X227809Y99042D01*
X227842Y99052D01*
X227914Y99105D01*
X227991Y99151D01*
X228013Y99177D01*
X228041Y99197D01*
X228093Y99270D01*
X228151Y99338D01*
X228164Y99369D01*
X228183Y99397D01*
X228209Y99483D01*
X228243Y99566D01*
X228248Y99609D01*
X228255Y99632D01*
X228254Y99664D01*
X228261Y99733D01*
X228261Y103041D01*
X229071Y103041D01*
X229091Y103044D01*
X229110Y103042D01*
X229212Y103064D01*
X229314Y103080D01*
X229331Y103090D01*
X229351Y103094D01*
X229440Y103147D01*
X229531Y103196D01*
X229545Y103210D01*
X229562Y103220D01*
X229629Y103299D01*
X229701Y103374D01*
X229709Y103392D01*
X229722Y103407D01*
X229761Y103503D01*
X229804Y103597D01*
X229806Y103617D01*
X229814Y103635D01*
X229832Y103802D01*
X229832Y183777D01*
X229829Y183797D01*
X229831Y183816D01*
X229809Y183918D01*
X229793Y184020D01*
X229783Y184037D01*
X229779Y184057D01*
X229726Y184146D01*
X229677Y184237D01*
X229663Y184251D01*
X229653Y184268D01*
X229574Y184335D01*
X229499Y184407D01*
X229481Y184415D01*
X229466Y184428D01*
X229370Y184467D01*
X229276Y184510D01*
X229256Y184512D01*
X229238Y184520D01*
X229071Y184538D01*
X228914Y184538D01*
X226906Y185370D01*
X225370Y186906D01*
X224538Y188914D01*
X224538Y191120D01*
X224547Y191156D01*
X224575Y191270D01*
X224575Y191276D01*
X224576Y191282D01*
X224565Y191399D01*
X224556Y191515D01*
X224554Y191521D01*
X224553Y191527D01*
X224505Y191634D01*
X224460Y191741D01*
X224455Y191747D01*
X224453Y191752D01*
X224441Y191765D01*
X224355Y191872D01*
X219118Y197109D01*
X219044Y197162D01*
X218975Y197222D01*
X218944Y197234D01*
X218918Y197253D01*
X218831Y197280D01*
X218746Y197314D01*
X218705Y197318D01*
X218683Y197325D01*
X218651Y197324D01*
X218580Y197332D01*
X128895Y197332D01*
X120068Y206159D01*
X119994Y206212D01*
X119925Y206272D01*
X119894Y206284D01*
X119868Y206303D01*
X119781Y206330D01*
X119696Y206364D01*
X119655Y206368D01*
X119633Y206375D01*
X119601Y206374D01*
X119530Y206382D01*
X108100Y206382D01*
X108080Y206379D01*
X108061Y206381D01*
X107959Y206359D01*
X107857Y206343D01*
X107840Y206333D01*
X107820Y206329D01*
X107731Y206276D01*
X107640Y206227D01*
X107626Y206213D01*
X107609Y206203D01*
X107542Y206124D01*
X107470Y206049D01*
X107462Y206031D01*
X107449Y206016D01*
X107410Y205920D01*
X107367Y205826D01*
X107365Y205806D01*
X107357Y205788D01*
X107339Y205621D01*
X107339Y204503D01*
X106297Y203461D01*
X89583Y203461D01*
X88541Y204503D01*
X88541Y213597D01*
X89583Y214639D01*
X106297Y214639D01*
X107339Y213597D01*
X107339Y212479D01*
X107342Y212459D01*
X107340Y212440D01*
X107362Y212338D01*
X107378Y212236D01*
X107388Y212219D01*
X107392Y212199D01*
X107445Y212110D01*
X107494Y212019D01*
X107508Y212005D01*
X107518Y211988D01*
X107597Y211921D01*
X107672Y211849D01*
X107690Y211841D01*
X107705Y211828D01*
X107801Y211789D01*
X107895Y211746D01*
X107915Y211744D01*
X107933Y211736D01*
X108100Y211718D01*
X122055Y211718D01*
X130882Y202891D01*
X130956Y202838D01*
X131025Y202778D01*
X131056Y202766D01*
X131082Y202747D01*
X131169Y202720D01*
X131254Y202686D01*
X131295Y202682D01*
X131317Y202675D01*
X131349Y202676D01*
X131420Y202668D01*
X221105Y202668D01*
X222891Y200882D01*
X228128Y195645D01*
X228223Y195576D01*
X228317Y195507D01*
X228323Y195505D01*
X228328Y195501D01*
X228439Y195467D01*
X228551Y195431D01*
X228557Y195431D01*
X228563Y195429D01*
X228679Y195432D01*
X228796Y195433D01*
X228804Y195435D01*
X228809Y195435D01*
X228826Y195442D01*
X228895Y195462D01*
X231086Y195462D01*
X233094Y194630D01*
X234630Y193094D01*
X235462Y191086D01*
X235462Y188914D01*
X235226Y188344D01*
X235211Y188280D01*
X235186Y188219D01*
X235177Y188136D01*
X235170Y188104D01*
X235171Y188085D01*
X235168Y188052D01*
X235168Y154630D01*
X235179Y154559D01*
X235181Y154487D01*
X235199Y154438D01*
X235207Y154387D01*
X235241Y154324D01*
X235266Y154256D01*
X235298Y154215D01*
X235323Y154169D01*
X235374Y154120D01*
X235419Y154064D01*
X235463Y154036D01*
X235501Y154000D01*
X235566Y153970D01*
X235626Y153931D01*
X235677Y153918D01*
X235724Y153896D01*
X235795Y153889D01*
X235865Y153871D01*
X235917Y153875D01*
X235968Y153869D01*
X236039Y153885D01*
X236110Y153890D01*
X236158Y153911D01*
X236209Y153922D01*
X236270Y153958D01*
X236336Y153987D01*
X236392Y154031D01*
X236420Y154048D01*
X236435Y154066D01*
X236467Y154091D01*
X237006Y154630D01*
X239014Y155462D01*
X241186Y155462D01*
X243194Y154630D01*
X244730Y153094D01*
X245562Y151086D01*
X245562Y148914D01*
X244730Y146906D01*
X243170Y145346D01*
X243139Y145327D01*
X243038Y145266D01*
X243034Y145262D01*
X243029Y145258D01*
X242954Y145169D01*
X242878Y145079D01*
X242876Y145074D01*
X242872Y145069D01*
X242830Y144960D01*
X242786Y144851D01*
X242785Y144844D01*
X242784Y144839D01*
X242783Y144821D01*
X242768Y144685D01*
X242768Y125315D01*
X242787Y125200D01*
X242804Y125084D01*
X242806Y125079D01*
X242807Y125073D01*
X242862Y124969D01*
X242915Y124865D01*
X242920Y124861D01*
X242923Y124855D01*
X243007Y124775D01*
X243091Y124693D01*
X243097Y124689D01*
X243101Y124686D01*
X243118Y124678D01*
X243181Y124644D01*
X244730Y123094D01*
X245562Y121086D01*
X245562Y118914D01*
X244730Y116906D01*
X243194Y115370D01*
X241186Y114538D01*
X240929Y114538D01*
X240909Y114535D01*
X240890Y114537D01*
X240788Y114515D01*
X240686Y114499D01*
X240669Y114489D01*
X240649Y114485D01*
X240560Y114432D01*
X240469Y114383D01*
X240455Y114369D01*
X240438Y114359D01*
X240371Y114280D01*
X240299Y114205D01*
X240291Y114187D01*
X240278Y114172D01*
X240239Y114076D01*
X240196Y113982D01*
X240194Y113962D01*
X240186Y113944D01*
X240168Y113777D01*
X240168Y103040D01*
X240171Y103020D01*
X240169Y103001D01*
X240191Y102899D01*
X240207Y102797D01*
X240217Y102780D01*
X240221Y102760D01*
X240274Y102671D01*
X240323Y102580D01*
X240337Y102566D01*
X240347Y102549D01*
X240426Y102482D01*
X240501Y102410D01*
X240519Y102402D01*
X240534Y102389D01*
X240630Y102350D01*
X240724Y102307D01*
X240744Y102305D01*
X240762Y102297D01*
X240929Y102279D01*
X259071Y102279D01*
X259091Y102282D01*
X259110Y102280D01*
X259212Y102302D01*
X259314Y102318D01*
X259331Y102328D01*
X259351Y102332D01*
X259440Y102385D01*
X259531Y102434D01*
X259545Y102448D01*
X259562Y102458D01*
X259629Y102537D01*
X259701Y102612D01*
X259709Y102630D01*
X259722Y102645D01*
X259761Y102741D01*
X259804Y102835D01*
X259806Y102855D01*
X259814Y102873D01*
X259832Y103040D01*
X259832Y193605D01*
X264355Y198128D01*
X264424Y198223D01*
X264493Y198317D01*
X264495Y198323D01*
X264499Y198328D01*
X264533Y198439D01*
X264569Y198551D01*
X264569Y198557D01*
X264571Y198563D01*
X264568Y198679D01*
X264567Y198796D01*
X264565Y198804D01*
X264565Y198809D01*
X264558Y198826D01*
X264538Y198895D01*
X264538Y201086D01*
X265370Y203094D01*
X266906Y204630D01*
X268914Y205462D01*
X271086Y205462D01*
X273094Y204630D01*
X274630Y203094D01*
X275462Y201086D01*
X275462Y198914D01*
X274630Y196906D01*
X273094Y195370D01*
X271086Y194538D01*
X268880Y194538D01*
X268844Y194547D01*
X268730Y194575D01*
X268724Y194575D01*
X268718Y194576D01*
X268601Y194565D01*
X268485Y194556D01*
X268479Y194554D01*
X268473Y194553D01*
X268366Y194506D01*
X268259Y194460D01*
X268253Y194455D01*
X268248Y194453D01*
X268235Y194441D01*
X268128Y194355D01*
X265391Y191618D01*
X265338Y191544D01*
X265278Y191475D01*
X265266Y191444D01*
X265247Y191418D01*
X265220Y191331D01*
X265186Y191246D01*
X265182Y191205D01*
X265175Y191183D01*
X265176Y191151D01*
X265168Y191080D01*
X265168Y118429D01*
X265171Y118409D01*
X265169Y118390D01*
X265191Y118288D01*
X265207Y118186D01*
X265217Y118169D01*
X265221Y118149D01*
X265274Y118060D01*
X265323Y117969D01*
X265337Y117955D01*
X265347Y117938D01*
X265426Y117871D01*
X265501Y117799D01*
X265519Y117791D01*
X265534Y117778D01*
X265630Y117739D01*
X265724Y117696D01*
X265744Y117694D01*
X265762Y117686D01*
X265929Y117668D01*
X267105Y117668D01*
X268382Y116391D01*
X269462Y115311D01*
X269478Y115299D01*
X269490Y115284D01*
X269578Y115228D01*
X269661Y115167D01*
X269680Y115162D01*
X269697Y115151D01*
X269798Y115126D01*
X269897Y115095D01*
X269916Y115096D01*
X269936Y115091D01*
X270039Y115099D01*
X270142Y115101D01*
X270161Y115108D01*
X270181Y115110D01*
X270276Y115150D01*
X270373Y115186D01*
X270389Y115198D01*
X270407Y115206D01*
X270538Y115311D01*
X272895Y117668D01*
X274071Y117668D01*
X274091Y117671D01*
X274110Y117669D01*
X274212Y117691D01*
X274314Y117707D01*
X274331Y117717D01*
X274351Y117721D01*
X274440Y117774D01*
X274531Y117823D01*
X274545Y117837D01*
X274562Y117847D01*
X274629Y117926D01*
X274701Y118001D01*
X274709Y118019D01*
X274722Y118034D01*
X274761Y118130D01*
X274804Y118224D01*
X274806Y118244D01*
X274814Y118262D01*
X274832Y118429D01*
X274832Y188605D01*
X278895Y192668D01*
X309071Y192668D01*
X309091Y192671D01*
X309110Y192669D01*
X309212Y192691D01*
X309314Y192707D01*
X309331Y192717D01*
X309351Y192721D01*
X309440Y192774D01*
X309531Y192823D01*
X309545Y192837D01*
X309562Y192847D01*
X309629Y192926D01*
X309701Y193001D01*
X309709Y193019D01*
X309722Y193034D01*
X309761Y193130D01*
X309804Y193224D01*
X309806Y193244D01*
X309814Y193262D01*
X309832Y193429D01*
X309832Y203605D01*
X318895Y212668D01*
X407105Y212668D01*
X412668Y207105D01*
X412668Y206540D01*
X412671Y206520D01*
X412669Y206501D01*
X412691Y206399D01*
X412707Y206297D01*
X412717Y206280D01*
X412721Y206260D01*
X412774Y206171D01*
X412823Y206080D01*
X412837Y206066D01*
X412847Y206049D01*
X412926Y205982D01*
X413001Y205910D01*
X413019Y205902D01*
X413034Y205889D01*
X413130Y205850D01*
X413224Y205807D01*
X413244Y205805D01*
X413262Y205797D01*
X413429Y205779D01*
X415737Y205779D01*
X416779Y204737D01*
X416779Y192263D01*
X415737Y191221D01*
X404263Y191221D01*
X403221Y192263D01*
X403221Y204737D01*
X404263Y205779D01*
X404611Y205779D01*
X404682Y205790D01*
X404754Y205792D01*
X404802Y205810D01*
X404853Y205818D01*
X404917Y205852D01*
X404985Y205877D01*
X405025Y205909D01*
X405071Y205934D01*
X405120Y205986D01*
X405176Y206031D01*
X405205Y206074D01*
X405240Y206112D01*
X405270Y206177D01*
X405309Y206238D01*
X405322Y206288D01*
X405344Y206335D01*
X405352Y206406D01*
X405369Y206476D01*
X405365Y206528D01*
X405371Y206579D01*
X405356Y206650D01*
X405350Y206721D01*
X405330Y206769D01*
X405319Y206820D01*
X405282Y206881D01*
X405254Y206948D01*
X405209Y207003D01*
X405193Y207031D01*
X405175Y207046D01*
X405149Y207079D01*
X405118Y207110D01*
X405044Y207163D01*
X404975Y207222D01*
X404944Y207234D01*
X404918Y207253D01*
X404831Y207280D01*
X404746Y207314D01*
X404705Y207318D01*
X404683Y207325D01*
X404651Y207324D01*
X404580Y207332D01*
X382021Y207332D01*
X381950Y207321D01*
X381878Y207319D01*
X381829Y207301D01*
X381778Y207293D01*
X381715Y207259D01*
X381647Y207234D01*
X381607Y207202D01*
X381561Y207177D01*
X381511Y207125D01*
X381455Y207080D01*
X381427Y207037D01*
X381392Y206999D01*
X381361Y206934D01*
X381322Y206873D01*
X381310Y206823D01*
X381288Y206776D01*
X381280Y206705D01*
X381262Y206635D01*
X381267Y206583D01*
X381261Y206532D01*
X381276Y206461D01*
X381279Y206428D01*
X381279Y196763D01*
X380237Y195721D01*
X375889Y195721D01*
X375819Y195710D01*
X375747Y195708D01*
X375698Y195690D01*
X375647Y195682D01*
X375583Y195648D01*
X375516Y195623D01*
X375475Y195591D01*
X375429Y195566D01*
X375380Y195514D01*
X375324Y195470D01*
X375296Y195426D01*
X375260Y195388D01*
X375230Y195323D01*
X375191Y195263D01*
X375178Y195212D01*
X375156Y195165D01*
X375148Y195094D01*
X375131Y195024D01*
X375135Y194972D01*
X375129Y194921D01*
X375144Y194850D01*
X375150Y194779D01*
X375170Y194731D01*
X375181Y194680D01*
X375218Y194619D01*
X375246Y194553D01*
X375291Y194497D01*
X375307Y194469D01*
X375325Y194454D01*
X375351Y194422D01*
X390882Y178891D01*
X392668Y177105D01*
X392668Y111420D01*
X392682Y111330D01*
X392690Y111239D01*
X392702Y111210D01*
X392707Y111178D01*
X392750Y111097D01*
X392786Y111013D01*
X392812Y110981D01*
X392823Y110960D01*
X392846Y110938D01*
X392891Y110882D01*
X414068Y89705D01*
X414068Y64040D01*
X414071Y64020D01*
X414069Y64001D01*
X414091Y63899D01*
X414107Y63797D01*
X414117Y63780D01*
X414121Y63760D01*
X414174Y63671D01*
X414223Y63580D01*
X414237Y63566D01*
X414247Y63549D01*
X414326Y63482D01*
X414401Y63410D01*
X414419Y63402D01*
X414434Y63389D01*
X414530Y63350D01*
X414624Y63307D01*
X414644Y63305D01*
X414662Y63297D01*
X414829Y63279D01*
X416137Y63279D01*
X417179Y62237D01*
X417179Y60040D01*
X417182Y60020D01*
X417180Y60001D01*
X417202Y59899D01*
X417218Y59797D01*
X417228Y59780D01*
X417232Y59760D01*
X417285Y59671D01*
X417334Y59580D01*
X417348Y59566D01*
X417358Y59549D01*
X417437Y59482D01*
X417512Y59410D01*
X417530Y59402D01*
X417545Y59389D01*
X417641Y59350D01*
X417735Y59307D01*
X417755Y59305D01*
X417773Y59297D01*
X417940Y59279D01*
X427137Y59279D01*
X428179Y58237D01*
X428179Y41763D01*
X427137Y40721D01*
X417663Y40721D01*
X416621Y41763D01*
X416621Y43960D01*
X416618Y43980D01*
X416620Y43999D01*
X416598Y44101D01*
X416582Y44203D01*
X416572Y44220D01*
X416568Y44240D01*
X416515Y44329D01*
X416466Y44420D01*
X416452Y44434D01*
X416442Y44451D01*
X416363Y44518D01*
X416288Y44590D01*
X416270Y44598D01*
X416255Y44611D01*
X416159Y44650D01*
X416065Y44693D01*
X416045Y44695D01*
X416027Y44703D01*
X415860Y44721D01*
X414829Y44721D01*
X414809Y44718D01*
X414790Y44720D01*
X414688Y44698D01*
X414586Y44682D01*
X414569Y44672D01*
X414549Y44668D01*
X414460Y44615D01*
X414369Y44566D01*
X414355Y44552D01*
X414338Y44542D01*
X414271Y44463D01*
X414199Y44388D01*
X414191Y44370D01*
X414178Y44355D01*
X414139Y44259D01*
X414096Y44165D01*
X414094Y44145D01*
X414086Y44127D01*
X414068Y43960D01*
X414068Y20295D01*
X397101Y3328D01*
X397059Y3270D01*
X397010Y3218D01*
X396988Y3171D01*
X396957Y3129D01*
X396936Y3060D01*
X396906Y2995D01*
X396900Y2943D01*
X396885Y2893D01*
X396887Y2822D01*
X396879Y2751D01*
X396890Y2700D01*
X396891Y2648D01*
X396916Y2580D01*
X396931Y2510D01*
X396958Y2465D01*
X396976Y2417D01*
X397021Y2361D01*
X397057Y2299D01*
X397097Y2265D01*
X397130Y2225D01*
X397190Y2186D01*
X397244Y2139D01*
X397293Y2120D01*
X397337Y2092D01*
X397406Y2074D01*
X397473Y2047D01*
X397544Y2039D01*
X397575Y2031D01*
X397598Y2033D01*
X397639Y2029D01*
X458698Y2029D01*
X458718Y2032D01*
X458737Y2030D01*
X458839Y2052D01*
X458941Y2068D01*
X458958Y2078D01*
X458978Y2082D01*
X459067Y2135D01*
X459158Y2184D01*
X459172Y2198D01*
X459189Y2208D01*
X459256Y2287D01*
X459328Y2362D01*
X459336Y2380D01*
X459349Y2395D01*
X459388Y2491D01*
X459431Y2585D01*
X459433Y2605D01*
X459441Y2623D01*
X459459Y2790D01*
X459459Y9977D01*
X468238Y9977D01*
X468258Y9980D01*
X468277Y9978D01*
X468379Y10000D01*
X468481Y10017D01*
X468498Y10026D01*
X468518Y10030D01*
X468607Y10083D01*
X468698Y10132D01*
X468712Y10146D01*
X468729Y10156D01*
X468796Y10235D01*
X468867Y10310D01*
X468876Y10328D01*
X468889Y10343D01*
X468928Y10439D01*
X468971Y10533D01*
X468973Y10553D01*
X468981Y10571D01*
X468999Y10738D01*
X468999Y11501D01*
X469001Y11501D01*
X469001Y10738D01*
X469004Y10718D01*
X469002Y10699D01*
X469024Y10597D01*
X469041Y10495D01*
X469050Y10478D01*
X469054Y10458D01*
X469107Y10369D01*
X469156Y10278D01*
X469170Y10264D01*
X469180Y10247D01*
X469259Y10180D01*
X469334Y10109D01*
X469352Y10100D01*
X469367Y10087D01*
X469463Y10048D01*
X469557Y10005D01*
X469577Y10003D01*
X469595Y9995D01*
X469762Y9977D01*
X478541Y9977D01*
X478541Y2790D01*
X478544Y2770D01*
X478542Y2751D01*
X478564Y2649D01*
X478580Y2547D01*
X478590Y2530D01*
X478594Y2510D01*
X478647Y2421D01*
X478696Y2330D01*
X478710Y2316D01*
X478720Y2299D01*
X478799Y2232D01*
X478874Y2160D01*
X478892Y2152D01*
X478907Y2139D01*
X479003Y2100D01*
X479097Y2057D01*
X479117Y2055D01*
X479135Y2047D01*
X479302Y2029D01*
X497210Y2029D01*
X497230Y2032D01*
X497249Y2030D01*
X497351Y2052D01*
X497453Y2068D01*
X497470Y2078D01*
X497490Y2082D01*
X497579Y2135D01*
X497670Y2184D01*
X497684Y2198D01*
X497701Y2208D01*
X497768Y2287D01*
X497840Y2362D01*
X497848Y2380D01*
X497861Y2395D01*
X497900Y2491D01*
X497943Y2585D01*
X497945Y2605D01*
X497953Y2623D01*
X497971Y2790D01*
X497971Y207704D01*
X497956Y207800D01*
X497946Y207897D01*
X497936Y207921D01*
X497932Y207946D01*
X497886Y208032D01*
X497846Y208121D01*
X497829Y208141D01*
X497816Y208164D01*
X497746Y208231D01*
X497680Y208303D01*
X497657Y208315D01*
X497638Y208333D01*
X497550Y208374D01*
X497464Y208421D01*
X497439Y208426D01*
X497415Y208437D01*
X497318Y208447D01*
X497222Y208465D01*
X497196Y208461D01*
X497171Y208464D01*
X497075Y208443D01*
X496979Y208429D01*
X496956Y208417D01*
X496930Y208412D01*
X496847Y208362D01*
X496760Y208318D01*
X496741Y208299D01*
X496719Y208285D01*
X496656Y208212D01*
X496588Y208142D01*
X496572Y208113D01*
X496559Y208099D01*
X496547Y208068D01*
X496507Y207995D01*
X495747Y206160D01*
X493840Y204253D01*
X491348Y203221D01*
X488652Y203221D01*
X486160Y204253D01*
X484253Y206160D01*
X483221Y208652D01*
X483221Y211348D01*
X484253Y213840D01*
X486160Y215747D01*
X488652Y216779D01*
X491348Y216779D01*
X493840Y215747D01*
X495747Y213840D01*
X496507Y212005D01*
X496558Y211922D01*
X496604Y211836D01*
X496622Y211818D01*
X496636Y211796D01*
X496712Y211734D01*
X496782Y211667D01*
X496806Y211656D01*
X496826Y211639D01*
X496917Y211604D01*
X497005Y211563D01*
X497031Y211560D01*
X497055Y211551D01*
X497153Y211547D01*
X497249Y211536D01*
X497275Y211542D01*
X497301Y211541D01*
X497395Y211568D01*
X497490Y211588D01*
X497512Y211602D01*
X497537Y211609D01*
X497617Y211665D01*
X497701Y211715D01*
X497718Y211734D01*
X497739Y211749D01*
X497798Y211828D01*
X497861Y211901D01*
X497871Y211926D01*
X497886Y211947D01*
X497916Y212039D01*
X497953Y212130D01*
X497956Y212162D01*
X497962Y212181D01*
X497962Y212214D01*
X497971Y212296D01*
X497971Y227210D01*
X497968Y227230D01*
X497970Y227249D01*
X497948Y227351D01*
X497932Y227453D01*
X497922Y227470D01*
X497918Y227490D01*
X497865Y227579D01*
X497816Y227670D01*
X497802Y227684D01*
X497792Y227701D01*
X497713Y227768D01*
X497638Y227840D01*
X497620Y227848D01*
X497605Y227861D01*
X497509Y227900D01*
X497415Y227943D01*
X497395Y227945D01*
X497377Y227953D01*
X497210Y227971D01*
X302790Y227971D01*
X302770Y227968D01*
X302751Y227970D01*
X302649Y227948D01*
X302547Y227932D01*
X302530Y227922D01*
X302510Y227918D01*
X302421Y227865D01*
X302330Y227816D01*
X302316Y227802D01*
X302299Y227792D01*
X302232Y227713D01*
X302160Y227638D01*
X302152Y227620D01*
X302139Y227605D01*
X302100Y227509D01*
X302057Y227415D01*
X302055Y227395D01*
X302047Y227377D01*
X302029Y227210D01*
X302029Y209160D01*
X301447Y208578D01*
X301405Y208520D01*
X301356Y208468D01*
X301334Y208421D01*
X301304Y208379D01*
X301283Y208310D01*
X301252Y208245D01*
X301247Y208193D01*
X301231Y208143D01*
X301233Y208072D01*
X301225Y208001D01*
X301236Y207950D01*
X301238Y207898D01*
X301262Y207830D01*
X301278Y207760D01*
X301304Y207715D01*
X301322Y207667D01*
X301367Y207611D01*
X301404Y207549D01*
X301443Y207515D01*
X301476Y207475D01*
X301536Y207436D01*
X301591Y207389D01*
X301639Y207370D01*
X301683Y207342D01*
X301752Y207324D01*
X301819Y207297D01*
X301890Y207289D01*
X301921Y207281D01*
X301945Y207283D01*
X301986Y207279D01*
X305237Y207279D01*
X306279Y206237D01*
X306279Y196763D01*
X305237Y195721D01*
X299763Y195721D01*
X298721Y196763D01*
X298721Y206237D01*
X299156Y206672D01*
X299198Y206730D01*
X299247Y206782D01*
X299269Y206829D01*
X299300Y206871D01*
X299321Y206940D01*
X299351Y207005D01*
X299357Y207057D01*
X299372Y207107D01*
X299370Y207178D01*
X299378Y207249D01*
X299367Y207300D01*
X299366Y207352D01*
X299341Y207420D01*
X299326Y207490D01*
X299299Y207535D01*
X299281Y207583D01*
X299236Y207639D01*
X299200Y207701D01*
X299160Y207735D01*
X299128Y207775D01*
X299067Y207814D01*
X299013Y207861D01*
X298964Y207880D01*
X298921Y207908D01*
X298851Y207926D01*
X298785Y207953D01*
X298713Y207961D01*
X298682Y207969D01*
X298659Y207967D01*
X298618Y207971D01*
X199160Y207971D01*
X197971Y209160D01*
X197971Y227210D01*
X197968Y227230D01*
X197970Y227249D01*
X197948Y227351D01*
X197932Y227453D01*
X197922Y227470D01*
X197918Y227490D01*
X197865Y227579D01*
X197816Y227670D01*
X197802Y227684D01*
X197792Y227701D01*
X197713Y227768D01*
X197638Y227840D01*
X197620Y227848D01*
X197605Y227861D01*
X197509Y227900D01*
X197415Y227943D01*
X197395Y227945D01*
X197377Y227953D01*
X197210Y227971D01*
X2790Y227971D01*
X2770Y227968D01*
X2751Y227970D01*
X2649Y227948D01*
X2547Y227932D01*
X2530Y227922D01*
X2510Y227918D01*
X2421Y227865D01*
X2330Y227816D01*
X2316Y227802D01*
X2299Y227792D01*
X2232Y227713D01*
X2160Y227638D01*
X2152Y227620D01*
X2139Y227605D01*
X2100Y227509D01*
X2057Y227415D01*
X2055Y227395D01*
X2047Y227377D01*
X2029Y227210D01*
X2029Y12296D01*
X2044Y12200D01*
X2054Y12103D01*
X2064Y12079D01*
X2068Y12054D01*
X2114Y11968D01*
X2154Y11879D01*
X2171Y11859D01*
X2184Y11836D01*
X2254Y11769D01*
X2320Y11697D01*
X2343Y11685D01*
X2362Y11667D01*
X2450Y11626D01*
X2536Y11579D01*
X2561Y11574D01*
X2585Y11563D01*
X2682Y11553D01*
X2778Y11535D01*
X2804Y11539D01*
X2829Y11536D01*
X2925Y11557D01*
X3021Y11571D01*
X3044Y11583D01*
X3070Y11588D01*
X3153Y11638D01*
X3240Y11682D01*
X3259Y11701D01*
X3281Y11715D01*
X3344Y11788D01*
X3412Y11858D01*
X3428Y11887D01*
X3441Y11901D01*
X3453Y11932D01*
X3493Y12005D01*
X4253Y13840D01*
X6160Y15747D01*
X8652Y16779D01*
X11348Y16779D01*
X13840Y15747D01*
X15747Y13840D01*
X16779Y11348D01*
X16779Y8652D01*
X15747Y6160D01*
X13840Y4253D01*
X12005Y3493D01*
X11922Y3442D01*
X11836Y3396D01*
X11818Y3378D01*
X11796Y3364D01*
X11734Y3288D01*
X11667Y3218D01*
X11656Y3194D01*
X11639Y3174D01*
X11604Y3083D01*
X11563Y2995D01*
X11560Y2969D01*
X11551Y2945D01*
X11547Y2847D01*
X11536Y2751D01*
X11542Y2725D01*
X11541Y2699D01*
X11568Y2605D01*
X11588Y2510D01*
X11602Y2488D01*
X11609Y2463D01*
X11665Y2383D01*
X11715Y2299D01*
X11734Y2282D01*
X11749Y2261D01*
X11828Y2202D01*
X11901Y2139D01*
X11926Y2129D01*
X11947Y2114D01*
X12039Y2084D01*
X12130Y2047D01*
X12162Y2044D01*
X12181Y2038D01*
X12214Y2038D01*
X12296Y2029D01*
X27888Y2029D01*
X27889Y2029D01*
G37*
G36*
X394670Y8682D02*
X394670Y8682D01*
X394761Y8690D01*
X394790Y8702D01*
X394822Y8707D01*
X394903Y8750D01*
X394987Y8786D01*
X395019Y8812D01*
X395040Y8823D01*
X395062Y8846D01*
X395118Y8891D01*
X408509Y22282D01*
X408562Y22356D01*
X408622Y22425D01*
X408634Y22456D01*
X408653Y22482D01*
X408680Y22569D01*
X408714Y22654D01*
X408718Y22695D01*
X408725Y22717D01*
X408724Y22749D01*
X408732Y22820D01*
X408732Y43960D01*
X408729Y43980D01*
X408731Y43999D01*
X408709Y44101D01*
X408693Y44203D01*
X408683Y44220D01*
X408679Y44240D01*
X408626Y44329D01*
X408577Y44420D01*
X408563Y44434D01*
X408553Y44451D01*
X408474Y44518D01*
X408399Y44590D01*
X408381Y44598D01*
X408366Y44611D01*
X408270Y44650D01*
X408176Y44693D01*
X408156Y44695D01*
X408138Y44703D01*
X407971Y44721D01*
X406940Y44721D01*
X406920Y44718D01*
X406901Y44720D01*
X406799Y44698D01*
X406697Y44682D01*
X406680Y44672D01*
X406660Y44668D01*
X406571Y44615D01*
X406480Y44566D01*
X406466Y44552D01*
X406449Y44542D01*
X406382Y44463D01*
X406310Y44388D01*
X406302Y44370D01*
X406289Y44355D01*
X406250Y44259D01*
X406207Y44165D01*
X406205Y44145D01*
X406197Y44127D01*
X406179Y43960D01*
X406179Y41763D01*
X405137Y40721D01*
X395940Y40721D01*
X395920Y40718D01*
X395901Y40720D01*
X395799Y40698D01*
X395697Y40682D01*
X395680Y40672D01*
X395660Y40668D01*
X395571Y40615D01*
X395480Y40566D01*
X395466Y40552D01*
X395449Y40542D01*
X395382Y40463D01*
X395310Y40388D01*
X395302Y40370D01*
X395289Y40355D01*
X395250Y40258D01*
X395207Y40165D01*
X395205Y40145D01*
X395197Y40127D01*
X395179Y39960D01*
X395179Y39763D01*
X394137Y38721D01*
X393464Y38721D01*
X393444Y38718D01*
X393425Y38720D01*
X393323Y38698D01*
X393221Y38682D01*
X393204Y38672D01*
X393184Y38668D01*
X393095Y38615D01*
X393004Y38566D01*
X392990Y38552D01*
X392973Y38542D01*
X392906Y38463D01*
X392834Y38388D01*
X392826Y38370D01*
X392813Y38355D01*
X392774Y38259D01*
X392731Y38165D01*
X392729Y38145D01*
X392721Y38127D01*
X392703Y37960D01*
X392703Y36032D01*
X389368Y32697D01*
X347668Y32697D01*
X347551Y32678D01*
X347433Y32660D01*
X347429Y32658D01*
X347425Y32658D01*
X347321Y32602D01*
X347214Y32547D01*
X347211Y32544D01*
X347208Y32542D01*
X347126Y32456D01*
X347043Y32371D01*
X347041Y32367D01*
X347038Y32364D01*
X346988Y32256D01*
X346937Y32149D01*
X346936Y32145D01*
X346935Y32141D01*
X346921Y32023D01*
X346907Y31905D01*
X346908Y31900D01*
X346907Y31897D01*
X346910Y31883D01*
X346932Y31739D01*
X347041Y31334D01*
X347041Y23023D01*
X338262Y23023D01*
X338242Y23020D01*
X338223Y23022D01*
X338121Y23000D01*
X338019Y22983D01*
X338002Y22974D01*
X337982Y22970D01*
X337893Y22917D01*
X337802Y22868D01*
X337788Y22854D01*
X337771Y22844D01*
X337704Y22765D01*
X337633Y22690D01*
X337624Y22672D01*
X337611Y22657D01*
X337572Y22561D01*
X337529Y22467D01*
X337527Y22447D01*
X337519Y22429D01*
X337501Y22262D01*
X337501Y20738D01*
X337504Y20718D01*
X337502Y20699D01*
X337524Y20597D01*
X337541Y20495D01*
X337550Y20478D01*
X337554Y20458D01*
X337607Y20369D01*
X337656Y20278D01*
X337670Y20264D01*
X337680Y20247D01*
X337759Y20180D01*
X337834Y20109D01*
X337852Y20100D01*
X337867Y20087D01*
X337963Y20048D01*
X338057Y20005D01*
X338077Y20003D01*
X338095Y19995D01*
X338262Y19977D01*
X347041Y19977D01*
X347041Y11666D01*
X346868Y11019D01*
X346533Y10440D01*
X346060Y9967D01*
X346018Y9909D01*
X345969Y9857D01*
X345947Y9810D01*
X345917Y9768D01*
X345896Y9699D01*
X345866Y9634D01*
X345860Y9582D01*
X345844Y9532D01*
X345846Y9461D01*
X345838Y9390D01*
X345850Y9339D01*
X345851Y9287D01*
X345875Y9219D01*
X345891Y9149D01*
X345917Y9104D01*
X345935Y9056D01*
X345980Y9000D01*
X346017Y8938D01*
X346057Y8904D01*
X346089Y8864D01*
X346149Y8825D01*
X346204Y8778D01*
X346252Y8759D01*
X346296Y8731D01*
X346365Y8713D01*
X346432Y8686D01*
X346503Y8678D01*
X346534Y8670D01*
X346558Y8672D01*
X346599Y8668D01*
X394580Y8668D01*
X394670Y8682D01*
G37*
%LPC*%
G36*
X404263Y174221D02*
X404263Y174221D01*
X403221Y175263D01*
X403221Y187737D01*
X404263Y188779D01*
X415737Y188779D01*
X416779Y187737D01*
X416779Y184929D01*
X416782Y184909D01*
X416780Y184890D01*
X416802Y184788D01*
X416818Y184686D01*
X416828Y184669D01*
X416832Y184649D01*
X416885Y184560D01*
X416934Y184469D01*
X416948Y184455D01*
X416958Y184438D01*
X417037Y184371D01*
X417112Y184299D01*
X417130Y184291D01*
X417145Y184278D01*
X417241Y184239D01*
X417335Y184196D01*
X417355Y184194D01*
X417373Y184186D01*
X417540Y184168D01*
X421960Y184168D01*
X421980Y184171D01*
X421999Y184169D01*
X422101Y184191D01*
X422203Y184207D01*
X422220Y184217D01*
X422240Y184221D01*
X422329Y184274D01*
X422420Y184323D01*
X422434Y184337D01*
X422451Y184347D01*
X422518Y184426D01*
X422590Y184501D01*
X422598Y184519D01*
X422611Y184534D01*
X422650Y184630D01*
X422693Y184724D01*
X422695Y184744D01*
X422703Y184762D01*
X422721Y184929D01*
X422721Y198737D01*
X423763Y199779D01*
X440310Y199779D01*
X440316Y199775D01*
X440416Y199750D01*
X440515Y199720D01*
X440535Y199720D01*
X440554Y199715D01*
X440657Y199723D01*
X440761Y199726D01*
X440780Y199733D01*
X440799Y199734D01*
X440894Y199775D01*
X440992Y199810D01*
X441007Y199823D01*
X441026Y199831D01*
X441157Y199936D01*
X442478Y201257D01*
X447359Y203279D01*
X452641Y203279D01*
X457522Y201257D01*
X458843Y199936D01*
X458860Y199924D01*
X458872Y199908D01*
X458959Y199852D01*
X459043Y199792D01*
X459062Y199786D01*
X459079Y199775D01*
X459179Y199750D01*
X459278Y199720D01*
X459298Y199720D01*
X459317Y199715D01*
X459420Y199723D01*
X459524Y199726D01*
X459543Y199733D01*
X459563Y199734D01*
X459658Y199775D01*
X459668Y199779D01*
X464571Y199779D01*
X464591Y199782D01*
X464610Y199780D01*
X464712Y199802D01*
X464814Y199818D01*
X464831Y199828D01*
X464851Y199832D01*
X464940Y199885D01*
X465031Y199934D01*
X465045Y199948D01*
X465062Y199958D01*
X465129Y200037D01*
X465201Y200112D01*
X465209Y200130D01*
X465222Y200145D01*
X465261Y200241D01*
X465304Y200335D01*
X465306Y200355D01*
X465314Y200373D01*
X465332Y200540D01*
X465332Y200580D01*
X465318Y200670D01*
X465310Y200761D01*
X465298Y200790D01*
X465293Y200822D01*
X465250Y200903D01*
X465214Y200987D01*
X465188Y201019D01*
X465177Y201040D01*
X465154Y201062D01*
X465109Y201118D01*
X461872Y204355D01*
X461777Y204424D01*
X461683Y204493D01*
X461677Y204495D01*
X461672Y204499D01*
X461561Y204533D01*
X461449Y204569D01*
X461443Y204569D01*
X461437Y204571D01*
X461321Y204568D01*
X461204Y204567D01*
X461196Y204565D01*
X461191Y204565D01*
X461174Y204558D01*
X461105Y204538D01*
X458914Y204538D01*
X456906Y205370D01*
X455370Y206906D01*
X454538Y208914D01*
X454538Y211086D01*
X455370Y213094D01*
X456906Y214630D01*
X458914Y215462D01*
X461086Y215462D01*
X463094Y214630D01*
X464630Y213094D01*
X465462Y211086D01*
X465462Y208880D01*
X465453Y208844D01*
X465425Y208730D01*
X465425Y208724D01*
X465424Y208718D01*
X465435Y208601D01*
X465444Y208485D01*
X465446Y208479D01*
X465447Y208473D01*
X465495Y208366D01*
X465540Y208259D01*
X465545Y208253D01*
X465547Y208248D01*
X465559Y208235D01*
X465645Y208128D01*
X470668Y203105D01*
X470668Y200540D01*
X470671Y200520D01*
X470669Y200501D01*
X470691Y200399D01*
X470707Y200297D01*
X470717Y200280D01*
X470721Y200260D01*
X470774Y200171D01*
X470823Y200080D01*
X470837Y200066D01*
X470847Y200049D01*
X470926Y199982D01*
X471001Y199910D01*
X471019Y199902D01*
X471034Y199889D01*
X471130Y199850D01*
X471224Y199807D01*
X471244Y199805D01*
X471262Y199797D01*
X471429Y199779D01*
X476237Y199779D01*
X477279Y198737D01*
X477279Y181263D01*
X476237Y180221D01*
X459690Y180221D01*
X459684Y180225D01*
X459584Y180250D01*
X459485Y180280D01*
X459465Y180280D01*
X459446Y180285D01*
X459343Y180277D01*
X459239Y180274D01*
X459220Y180267D01*
X459201Y180266D01*
X459106Y180225D01*
X459008Y180190D01*
X458993Y180177D01*
X458974Y180169D01*
X458843Y180064D01*
X457522Y178743D01*
X452641Y176721D01*
X447359Y176721D01*
X442478Y178743D01*
X441157Y180064D01*
X441140Y180076D01*
X441128Y180092D01*
X441041Y180148D01*
X440957Y180208D01*
X440938Y180214D01*
X440921Y180225D01*
X440821Y180250D01*
X440722Y180280D01*
X440702Y180280D01*
X440683Y180285D01*
X440580Y180277D01*
X440476Y180274D01*
X440457Y180267D01*
X440437Y180266D01*
X440342Y180225D01*
X440332Y180221D01*
X426309Y180221D01*
X426219Y180207D01*
X426128Y180199D01*
X426099Y180187D01*
X426067Y180182D01*
X425986Y180139D01*
X425902Y180103D01*
X425870Y180077D01*
X425849Y180066D01*
X425827Y180043D01*
X425771Y179998D01*
X424605Y178832D01*
X417540Y178832D01*
X417520Y178829D01*
X417501Y178831D01*
X417399Y178809D01*
X417297Y178793D01*
X417280Y178783D01*
X417260Y178779D01*
X417171Y178726D01*
X417080Y178677D01*
X417066Y178663D01*
X417049Y178653D01*
X416982Y178574D01*
X416910Y178499D01*
X416902Y178481D01*
X416889Y178466D01*
X416850Y178370D01*
X416807Y178276D01*
X416805Y178256D01*
X416797Y178238D01*
X416779Y178071D01*
X416779Y175263D01*
X415737Y174221D01*
X404263Y174221D01*
G37*
%LPD*%
G36*
X404880Y59282D02*
X404880Y59282D01*
X404899Y59280D01*
X405001Y59302D01*
X405103Y59318D01*
X405120Y59328D01*
X405140Y59332D01*
X405229Y59385D01*
X405320Y59434D01*
X405334Y59448D01*
X405351Y59458D01*
X405418Y59537D01*
X405490Y59612D01*
X405498Y59630D01*
X405511Y59645D01*
X405550Y59741D01*
X405593Y59835D01*
X405595Y59855D01*
X405603Y59873D01*
X405621Y60040D01*
X405621Y62237D01*
X406663Y63279D01*
X407971Y63279D01*
X407991Y63282D01*
X408010Y63280D01*
X408112Y63302D01*
X408214Y63318D01*
X408231Y63328D01*
X408251Y63332D01*
X408340Y63385D01*
X408431Y63434D01*
X408445Y63448D01*
X408462Y63458D01*
X408529Y63537D01*
X408601Y63612D01*
X408609Y63630D01*
X408622Y63645D01*
X408661Y63741D01*
X408704Y63835D01*
X408706Y63855D01*
X408714Y63873D01*
X408732Y64040D01*
X408732Y87180D01*
X408718Y87270D01*
X408710Y87361D01*
X408698Y87390D01*
X408693Y87422D01*
X408650Y87503D01*
X408614Y87587D01*
X408588Y87619D01*
X408577Y87640D01*
X408554Y87662D01*
X408509Y87718D01*
X387332Y108895D01*
X387332Y174580D01*
X387318Y174670D01*
X387310Y174761D01*
X387298Y174790D01*
X387293Y174822D01*
X387250Y174903D01*
X387214Y174987D01*
X387188Y175019D01*
X387177Y175040D01*
X387154Y175062D01*
X387109Y175118D01*
X368118Y194109D01*
X368044Y194162D01*
X367975Y194222D01*
X367944Y194234D01*
X367918Y194253D01*
X367831Y194280D01*
X367746Y194314D01*
X367705Y194318D01*
X367683Y194325D01*
X367651Y194324D01*
X367580Y194332D01*
X365230Y194332D01*
X365159Y194321D01*
X365087Y194319D01*
X365038Y194301D01*
X364987Y194293D01*
X364923Y194259D01*
X364856Y194234D01*
X364815Y194202D01*
X364769Y194177D01*
X364720Y194125D01*
X364664Y194080D01*
X364636Y194037D01*
X364600Y193999D01*
X364570Y193934D01*
X364531Y193874D01*
X364518Y193823D01*
X364496Y193776D01*
X364489Y193705D01*
X364471Y193635D01*
X364475Y193583D01*
X364469Y193532D01*
X364485Y193461D01*
X364490Y193390D01*
X364511Y193342D01*
X364522Y193291D01*
X364559Y193229D01*
X364587Y193163D01*
X364617Y193125D01*
X365462Y191086D01*
X365462Y188914D01*
X365226Y188344D01*
X365211Y188280D01*
X365186Y188219D01*
X365177Y188136D01*
X365170Y188104D01*
X365171Y188085D01*
X365168Y188052D01*
X365168Y183802D01*
X365171Y183782D01*
X365169Y183763D01*
X365191Y183661D01*
X365207Y183559D01*
X365217Y183542D01*
X365221Y183522D01*
X365274Y183433D01*
X365323Y183342D01*
X365337Y183328D01*
X365347Y183311D01*
X365426Y183244D01*
X365501Y183172D01*
X365519Y183164D01*
X365534Y183151D01*
X365630Y183112D01*
X365724Y183069D01*
X365744Y183067D01*
X365762Y183059D01*
X365929Y183041D01*
X366739Y183041D01*
X366739Y176500D01*
X366739Y169959D01*
X365666Y169959D01*
X365019Y170132D01*
X364440Y170467D01*
X364409Y170498D01*
X364335Y170551D01*
X364265Y170611D01*
X364235Y170623D01*
X364209Y170642D01*
X364122Y170669D01*
X364037Y170703D01*
X363996Y170707D01*
X363974Y170714D01*
X363942Y170713D01*
X363870Y170721D01*
X361564Y170721D01*
X361544Y170718D01*
X361525Y170720D01*
X361423Y170698D01*
X361321Y170682D01*
X361304Y170672D01*
X361284Y170668D01*
X361195Y170615D01*
X361104Y170566D01*
X361090Y170552D01*
X361073Y170542D01*
X361006Y170463D01*
X360934Y170388D01*
X360926Y170370D01*
X360913Y170355D01*
X360874Y170259D01*
X360831Y170165D01*
X360829Y170145D01*
X360821Y170127D01*
X360803Y169960D01*
X360803Y169064D01*
X360806Y169044D01*
X360804Y169025D01*
X360826Y168923D01*
X360842Y168821D01*
X360852Y168804D01*
X360856Y168784D01*
X360909Y168695D01*
X360958Y168604D01*
X360972Y168590D01*
X360982Y168573D01*
X361061Y168506D01*
X361136Y168434D01*
X361154Y168426D01*
X361169Y168413D01*
X361265Y168374D01*
X361359Y168331D01*
X361379Y168329D01*
X361397Y168321D01*
X361564Y168303D01*
X365538Y168303D01*
X373303Y160538D01*
X373303Y111931D01*
X373318Y111835D01*
X373328Y111738D01*
X373338Y111714D01*
X373342Y111688D01*
X373388Y111602D01*
X373428Y111513D01*
X373445Y111493D01*
X373458Y111470D01*
X373528Y111403D01*
X373594Y111332D01*
X373617Y111319D01*
X373636Y111301D01*
X373724Y111260D01*
X373810Y111213D01*
X373835Y111208D01*
X373859Y111197D01*
X373956Y111187D01*
X374052Y111169D01*
X374078Y111173D01*
X374103Y111170D01*
X374199Y111191D01*
X374295Y111205D01*
X374318Y111217D01*
X374344Y111223D01*
X374428Y111273D01*
X374514Y111317D01*
X374532Y111335D01*
X374555Y111349D01*
X374618Y111423D01*
X374686Y111492D01*
X374702Y111521D01*
X374715Y111536D01*
X374727Y111566D01*
X374767Y111639D01*
X375370Y113094D01*
X376906Y114630D01*
X378914Y115462D01*
X381086Y115462D01*
X383094Y114630D01*
X384630Y113094D01*
X385462Y111086D01*
X385462Y108880D01*
X385453Y108844D01*
X385425Y108730D01*
X385425Y108724D01*
X385424Y108718D01*
X385435Y108601D01*
X385444Y108485D01*
X385446Y108479D01*
X385447Y108473D01*
X385495Y108366D01*
X385540Y108259D01*
X385545Y108253D01*
X385547Y108248D01*
X385559Y108235D01*
X385645Y108128D01*
X401282Y92491D01*
X403068Y90705D01*
X403068Y60040D01*
X403071Y60020D01*
X403069Y60001D01*
X403091Y59899D01*
X403107Y59797D01*
X403117Y59780D01*
X403121Y59760D01*
X403174Y59671D01*
X403223Y59580D01*
X403237Y59566D01*
X403247Y59549D01*
X403326Y59482D01*
X403401Y59410D01*
X403419Y59402D01*
X403434Y59389D01*
X403530Y59350D01*
X403624Y59307D01*
X403644Y59305D01*
X403662Y59297D01*
X403829Y59279D01*
X404860Y59279D01*
X404880Y59282D01*
G37*
G36*
X338925Y51359D02*
X338925Y51359D01*
X338951Y51358D01*
X339045Y51385D01*
X339140Y51406D01*
X339162Y51420D01*
X339187Y51427D01*
X339267Y51482D01*
X339351Y51532D01*
X339368Y51552D01*
X339389Y51567D01*
X339448Y51645D01*
X339511Y51719D01*
X339521Y51743D01*
X339536Y51764D01*
X339566Y51857D01*
X339603Y51947D01*
X339606Y51980D01*
X339612Y51998D01*
X339612Y52031D01*
X339621Y52114D01*
X339621Y58237D01*
X340663Y59279D01*
X350137Y59279D01*
X350362Y59054D01*
X350378Y59042D01*
X350390Y59027D01*
X350478Y58970D01*
X350561Y58910D01*
X350580Y58904D01*
X350597Y58894D01*
X350698Y58868D01*
X350797Y58838D01*
X350817Y58838D01*
X350836Y58834D01*
X350939Y58842D01*
X351042Y58844D01*
X351061Y58851D01*
X351081Y58853D01*
X351176Y58893D01*
X351273Y58929D01*
X351289Y58941D01*
X351307Y58949D01*
X351438Y59054D01*
X351663Y59279D01*
X352971Y59279D01*
X352991Y59282D01*
X353010Y59280D01*
X353112Y59302D01*
X353214Y59318D01*
X353231Y59328D01*
X353251Y59332D01*
X353340Y59385D01*
X353431Y59434D01*
X353445Y59448D01*
X353462Y59458D01*
X353529Y59537D01*
X353601Y59612D01*
X353609Y59630D01*
X353622Y59645D01*
X353661Y59741D01*
X353704Y59835D01*
X353706Y59855D01*
X353714Y59873D01*
X353732Y60040D01*
X353732Y82180D01*
X353718Y82270D01*
X353710Y82361D01*
X353698Y82390D01*
X353693Y82422D01*
X353650Y82503D01*
X353614Y82587D01*
X353588Y82619D01*
X353577Y82640D01*
X353554Y82662D01*
X353509Y82718D01*
X329832Y106395D01*
X329832Y111270D01*
X329821Y111341D01*
X329819Y111413D01*
X329801Y111462D01*
X329793Y111513D01*
X329759Y111576D01*
X329734Y111644D01*
X329702Y111685D01*
X329677Y111731D01*
X329625Y111780D01*
X329581Y111836D01*
X329537Y111864D01*
X329499Y111900D01*
X329434Y111930D01*
X329374Y111969D01*
X329323Y111982D01*
X329276Y112004D01*
X329205Y112011D01*
X329135Y112029D01*
X329083Y112025D01*
X329032Y112031D01*
X328961Y112015D01*
X328890Y112010D01*
X328842Y111989D01*
X328791Y111978D01*
X328730Y111942D01*
X328664Y111913D01*
X328608Y111869D01*
X328580Y111852D01*
X328565Y111834D01*
X328533Y111809D01*
X328094Y111370D01*
X326086Y110538D01*
X323880Y110538D01*
X323843Y110547D01*
X323730Y110575D01*
X323724Y110575D01*
X323718Y110576D01*
X323602Y110565D01*
X323485Y110556D01*
X323479Y110554D01*
X323473Y110553D01*
X323367Y110506D01*
X323259Y110460D01*
X323253Y110455D01*
X323248Y110453D01*
X323235Y110441D01*
X323128Y110355D01*
X322891Y110118D01*
X322838Y110044D01*
X322778Y109975D01*
X322766Y109944D01*
X322747Y109918D01*
X322720Y109831D01*
X322686Y109746D01*
X322682Y109705D01*
X322675Y109683D01*
X322676Y109651D01*
X322668Y109580D01*
X322668Y75540D01*
X322671Y75520D01*
X322669Y75501D01*
X322691Y75399D01*
X322707Y75297D01*
X322717Y75280D01*
X322721Y75260D01*
X322774Y75171D01*
X322823Y75080D01*
X322837Y75066D01*
X322847Y75049D01*
X322926Y74982D01*
X323001Y74910D01*
X323019Y74902D01*
X323034Y74889D01*
X323130Y74850D01*
X323224Y74807D01*
X323244Y74805D01*
X323262Y74797D01*
X323429Y74779D01*
X326737Y74779D01*
X327779Y73737D01*
X327779Y67039D01*
X327790Y66968D01*
X327792Y66896D01*
X327810Y66847D01*
X327818Y66796D01*
X327852Y66733D01*
X327877Y66665D01*
X327909Y66625D01*
X327934Y66579D01*
X327986Y66529D01*
X328030Y66473D01*
X328074Y66445D01*
X328112Y66409D01*
X328177Y66379D01*
X328237Y66340D01*
X328288Y66328D01*
X328335Y66306D01*
X328406Y66298D01*
X328476Y66280D01*
X328528Y66284D01*
X328579Y66279D01*
X328650Y66294D01*
X328721Y66299D01*
X328769Y66320D01*
X328820Y66331D01*
X328881Y66368D01*
X328947Y66396D01*
X329003Y66441D01*
X329031Y66457D01*
X329046Y66475D01*
X329078Y66501D01*
X330477Y67899D01*
X332601Y68779D01*
X334899Y68779D01*
X337023Y67899D01*
X338649Y66273D01*
X339529Y64149D01*
X339529Y61851D01*
X338649Y59727D01*
X337023Y58101D01*
X334899Y57221D01*
X332601Y57221D01*
X330477Y58101D01*
X328851Y59727D01*
X327971Y61851D01*
X327971Y62618D01*
X327960Y62689D01*
X327958Y62760D01*
X327940Y62809D01*
X327932Y62861D01*
X327898Y62924D01*
X327873Y62991D01*
X327841Y63032D01*
X327816Y63078D01*
X327764Y63127D01*
X327720Y63183D01*
X327676Y63212D01*
X327638Y63247D01*
X327573Y63278D01*
X327513Y63316D01*
X327462Y63329D01*
X327415Y63351D01*
X327344Y63359D01*
X327274Y63376D01*
X327222Y63372D01*
X327171Y63378D01*
X327100Y63363D01*
X327029Y63357D01*
X326981Y63337D01*
X326930Y63326D01*
X326869Y63289D01*
X326803Y63261D01*
X326753Y63221D01*
X315717Y63221D01*
X315671Y63214D01*
X315626Y63216D01*
X315551Y63194D01*
X315474Y63182D01*
X315433Y63160D01*
X315389Y63147D01*
X315325Y63103D01*
X315257Y63066D01*
X315225Y63033D01*
X315187Y63007D01*
X315141Y62944D01*
X315087Y62888D01*
X315068Y62846D01*
X315041Y62810D01*
X315016Y62736D01*
X314984Y62665D01*
X314979Y62619D01*
X314964Y62576D01*
X314965Y62498D01*
X314957Y62421D01*
X314966Y62376D01*
X314967Y62330D01*
X315005Y62198D01*
X315009Y62180D01*
X315011Y62176D01*
X315013Y62169D01*
X315462Y61086D01*
X315462Y58914D01*
X315013Y57831D01*
X315003Y57787D01*
X314984Y57745D01*
X314975Y57668D01*
X314957Y57592D01*
X314962Y57546D01*
X314957Y57501D01*
X314973Y57424D01*
X314980Y57347D01*
X314999Y57305D01*
X315009Y57260D01*
X315049Y57193D01*
X315080Y57122D01*
X315111Y57088D01*
X315135Y57049D01*
X315194Y56998D01*
X315247Y56941D01*
X315287Y56919D01*
X315322Y56889D01*
X315394Y56860D01*
X315462Y56823D01*
X315507Y56814D01*
X315550Y56797D01*
X315686Y56782D01*
X315704Y56779D01*
X315709Y56780D01*
X315717Y56779D01*
X326737Y56779D01*
X327779Y55737D01*
X327779Y54341D01*
X327790Y54270D01*
X327792Y54198D01*
X327810Y54149D01*
X327818Y54098D01*
X327852Y54035D01*
X327877Y53967D01*
X327909Y53927D01*
X327934Y53880D01*
X327986Y53831D01*
X328030Y53775D01*
X328074Y53747D01*
X328112Y53711D01*
X328177Y53681D01*
X328237Y53642D01*
X328288Y53629D01*
X328335Y53607D01*
X328406Y53600D01*
X328476Y53582D01*
X328528Y53586D01*
X328579Y53580D01*
X328650Y53596D01*
X328721Y53601D01*
X328769Y53622D01*
X328820Y53633D01*
X328881Y53669D01*
X328947Y53698D01*
X329003Y53742D01*
X329031Y53759D01*
X329046Y53777D01*
X329078Y53802D01*
X329906Y54630D01*
X331914Y55462D01*
X334086Y55462D01*
X336094Y54630D01*
X337630Y53094D01*
X338157Y51823D01*
X338208Y51740D01*
X338254Y51654D01*
X338273Y51636D01*
X338286Y51614D01*
X338361Y51552D01*
X338432Y51485D01*
X338456Y51474D01*
X338476Y51457D01*
X338567Y51422D01*
X338655Y51381D01*
X338681Y51378D01*
X338705Y51369D01*
X338803Y51365D01*
X338899Y51354D01*
X338925Y51359D01*
G37*
G36*
X366026Y88164D02*
X366026Y88164D01*
X366078Y88165D01*
X366146Y88190D01*
X366216Y88205D01*
X366260Y88232D01*
X366309Y88250D01*
X366365Y88295D01*
X366427Y88331D01*
X366461Y88371D01*
X366501Y88404D01*
X366540Y88464D01*
X366587Y88518D01*
X366606Y88567D01*
X366634Y88611D01*
X366652Y88680D01*
X366679Y88747D01*
X366687Y88818D01*
X366695Y88849D01*
X366693Y88872D01*
X366697Y88913D01*
X366697Y157486D01*
X366683Y157576D01*
X366675Y157667D01*
X366663Y157697D01*
X366658Y157729D01*
X366615Y157810D01*
X366579Y157894D01*
X366553Y157926D01*
X366542Y157947D01*
X366519Y157969D01*
X366474Y158025D01*
X366340Y158159D01*
X366282Y158201D01*
X366230Y158250D01*
X366183Y158272D01*
X366141Y158302D01*
X366072Y158323D01*
X366007Y158354D01*
X365955Y158359D01*
X365906Y158375D01*
X365834Y158373D01*
X365763Y158381D01*
X365712Y158370D01*
X365660Y158368D01*
X365592Y158344D01*
X365522Y158328D01*
X365477Y158302D01*
X365429Y158284D01*
X365373Y158239D01*
X365311Y158202D01*
X365277Y158163D01*
X365237Y158130D01*
X365198Y158070D01*
X365151Y158015D01*
X365132Y157967D01*
X365104Y157923D01*
X365086Y157854D01*
X365059Y157787D01*
X365051Y157716D01*
X365043Y157685D01*
X365045Y157661D01*
X365041Y157620D01*
X365041Y154523D01*
X354262Y154523D01*
X354242Y154520D01*
X354223Y154522D01*
X354121Y154500D01*
X354019Y154483D01*
X354002Y154474D01*
X353982Y154470D01*
X353893Y154417D01*
X353802Y154368D01*
X353788Y154354D01*
X353771Y154344D01*
X353704Y154265D01*
X353633Y154190D01*
X353624Y154172D01*
X353611Y154157D01*
X353572Y154061D01*
X353529Y153967D01*
X353527Y153947D01*
X353519Y153929D01*
X353501Y153762D01*
X353501Y152999D01*
X352738Y152999D01*
X352718Y152996D01*
X352699Y152998D01*
X352597Y152976D01*
X352495Y152959D01*
X352478Y152950D01*
X352458Y152946D01*
X352369Y152893D01*
X352278Y152844D01*
X352264Y152830D01*
X352247Y152820D01*
X352180Y152741D01*
X352109Y152666D01*
X352100Y152648D01*
X352087Y152633D01*
X352048Y152537D01*
X352005Y152443D01*
X352003Y152423D01*
X351995Y152405D01*
X351977Y152238D01*
X351977Y143459D01*
X345262Y143459D01*
X345242Y143456D01*
X345223Y143458D01*
X345121Y143436D01*
X345019Y143420D01*
X345002Y143410D01*
X344982Y143406D01*
X344893Y143353D01*
X344802Y143304D01*
X344788Y143290D01*
X344771Y143280D01*
X344704Y143201D01*
X344632Y143126D01*
X344624Y143108D01*
X344611Y143093D01*
X344572Y142997D01*
X344529Y142903D01*
X344527Y142883D01*
X344519Y142865D01*
X344501Y142698D01*
X344501Y119587D01*
X344515Y119497D01*
X344523Y119406D01*
X344535Y119377D01*
X344540Y119345D01*
X344583Y119264D01*
X344619Y119180D01*
X344645Y119148D01*
X344656Y119127D01*
X344679Y119105D01*
X344724Y119049D01*
X348128Y115645D01*
X348223Y115576D01*
X348317Y115507D01*
X348323Y115505D01*
X348328Y115501D01*
X348439Y115467D01*
X348551Y115431D01*
X348557Y115431D01*
X348563Y115429D01*
X348679Y115432D01*
X348796Y115433D01*
X348804Y115435D01*
X348809Y115435D01*
X348826Y115442D01*
X348895Y115462D01*
X351086Y115462D01*
X353094Y114630D01*
X354630Y113094D01*
X355462Y111086D01*
X355462Y108914D01*
X354630Y106906D01*
X353094Y105370D01*
X351086Y104538D01*
X351072Y104538D01*
X351002Y104527D01*
X350930Y104525D01*
X350881Y104507D01*
X350830Y104499D01*
X350766Y104465D01*
X350699Y104440D01*
X350658Y104408D01*
X350612Y104383D01*
X350563Y104332D01*
X350507Y104287D01*
X350479Y104243D01*
X350443Y104205D01*
X350413Y104140D01*
X350374Y104080D01*
X350361Y104029D01*
X350339Y103982D01*
X350331Y103911D01*
X350314Y103841D01*
X350318Y103789D01*
X350312Y103738D01*
X350327Y103667D01*
X350333Y103596D01*
X350353Y103548D01*
X350364Y103497D01*
X350401Y103436D01*
X350429Y103370D01*
X350474Y103314D01*
X350490Y103286D01*
X350508Y103271D01*
X350534Y103239D01*
X365398Y88375D01*
X365456Y88333D01*
X365508Y88284D01*
X365555Y88262D01*
X365597Y88231D01*
X365666Y88210D01*
X365731Y88180D01*
X365783Y88174D01*
X365833Y88159D01*
X365904Y88161D01*
X365975Y88153D01*
X366026Y88164D01*
G37*
G36*
X368182Y48004D02*
X368182Y48004D01*
X368201Y48002D01*
X368303Y48024D01*
X368405Y48041D01*
X368422Y48050D01*
X368442Y48054D01*
X368531Y48107D01*
X368622Y48156D01*
X368636Y48170D01*
X368653Y48180D01*
X368720Y48259D01*
X368791Y48334D01*
X368800Y48352D01*
X368813Y48367D01*
X368852Y48463D01*
X368895Y48557D01*
X368897Y48577D01*
X368905Y48595D01*
X368923Y48762D01*
X368923Y58041D01*
X371734Y58041D01*
X371855Y58009D01*
X371922Y58002D01*
X371988Y57985D01*
X372043Y57990D01*
X372099Y57984D01*
X372165Y57999D01*
X372233Y58004D01*
X372284Y58026D01*
X372339Y58039D01*
X372397Y58074D01*
X372459Y58101D01*
X372521Y58150D01*
X372549Y58167D01*
X372562Y58183D01*
X372590Y58206D01*
X373663Y59279D01*
X374971Y59279D01*
X374991Y59282D01*
X375010Y59280D01*
X375112Y59302D01*
X375214Y59318D01*
X375231Y59328D01*
X375251Y59332D01*
X375340Y59385D01*
X375431Y59434D01*
X375445Y59448D01*
X375462Y59458D01*
X375529Y59537D01*
X375601Y59612D01*
X375609Y59630D01*
X375622Y59645D01*
X375661Y59741D01*
X375704Y59835D01*
X375706Y59855D01*
X375714Y59873D01*
X375732Y60040D01*
X375732Y70180D01*
X375718Y70270D01*
X375710Y70361D01*
X375698Y70390D01*
X375693Y70422D01*
X375650Y70503D01*
X375614Y70587D01*
X375588Y70619D01*
X375577Y70640D01*
X375554Y70662D01*
X375509Y70718D01*
X336467Y109760D01*
X336409Y109802D01*
X336357Y109851D01*
X336310Y109873D01*
X336268Y109904D01*
X336199Y109925D01*
X336134Y109955D01*
X336082Y109961D01*
X336032Y109976D01*
X335961Y109974D01*
X335890Y109982D01*
X335839Y109971D01*
X335787Y109970D01*
X335719Y109945D01*
X335649Y109930D01*
X335604Y109903D01*
X335556Y109885D01*
X335500Y109840D01*
X335438Y109804D01*
X335404Y109764D01*
X335364Y109731D01*
X335325Y109671D01*
X335278Y109617D01*
X335259Y109568D01*
X335231Y109524D01*
X335213Y109455D01*
X335186Y109388D01*
X335178Y109317D01*
X335170Y109286D01*
X335172Y109263D01*
X335168Y109222D01*
X335168Y108920D01*
X335182Y108830D01*
X335190Y108739D01*
X335202Y108710D01*
X335207Y108678D01*
X335250Y108597D01*
X335286Y108513D01*
X335312Y108481D01*
X335323Y108460D01*
X335346Y108438D01*
X335391Y108382D01*
X359068Y84705D01*
X359068Y60040D01*
X359071Y60020D01*
X359069Y60001D01*
X359091Y59899D01*
X359107Y59797D01*
X359117Y59780D01*
X359121Y59760D01*
X359174Y59671D01*
X359223Y59580D01*
X359237Y59566D01*
X359247Y59549D01*
X359326Y59482D01*
X359401Y59410D01*
X359419Y59402D01*
X359434Y59389D01*
X359530Y59350D01*
X359624Y59307D01*
X359644Y59305D01*
X359662Y59297D01*
X359829Y59279D01*
X361137Y59279D01*
X362210Y58206D01*
X362265Y58166D01*
X362313Y58119D01*
X362364Y58095D01*
X362410Y58062D01*
X362474Y58042D01*
X362535Y58013D01*
X362591Y58006D01*
X362645Y57990D01*
X362712Y57991D01*
X362780Y57983D01*
X362858Y57995D01*
X362891Y57996D01*
X362910Y58003D01*
X362945Y58009D01*
X363066Y58041D01*
X365877Y58041D01*
X365877Y48762D01*
X365880Y48742D01*
X365878Y48723D01*
X365900Y48621D01*
X365917Y48519D01*
X365926Y48502D01*
X365930Y48482D01*
X365983Y48393D01*
X366032Y48302D01*
X366046Y48288D01*
X366056Y48271D01*
X366135Y48204D01*
X366210Y48133D01*
X366228Y48124D01*
X366243Y48111D01*
X366339Y48072D01*
X366433Y48029D01*
X366453Y48027D01*
X366471Y48019D01*
X366638Y48001D01*
X368162Y48001D01*
X368182Y48004D01*
G37*
%LPC*%
G36*
X218914Y114538D02*
X218914Y114538D01*
X216906Y115370D01*
X216434Y115842D01*
X216418Y115854D01*
X216405Y115869D01*
X216318Y115925D01*
X216234Y115985D01*
X216215Y115991D01*
X216198Y116002D01*
X216098Y116027D01*
X215999Y116058D01*
X215979Y116057D01*
X215960Y116062D01*
X215857Y116054D01*
X215753Y116051D01*
X215734Y116045D01*
X215715Y116043D01*
X215620Y116003D01*
X215522Y115967D01*
X215507Y115955D01*
X215488Y115947D01*
X215357Y115842D01*
X215237Y115721D01*
X209763Y115721D01*
X208721Y116763D01*
X208721Y126237D01*
X209763Y127279D01*
X215237Y127279D01*
X216033Y126483D01*
X216091Y126441D01*
X216143Y126392D01*
X216190Y126370D01*
X216232Y126339D01*
X216301Y126318D01*
X216366Y126288D01*
X216418Y126282D01*
X216468Y126267D01*
X216539Y126269D01*
X216610Y126261D01*
X216661Y126272D01*
X216713Y126273D01*
X216781Y126298D01*
X216851Y126313D01*
X216896Y126340D01*
X216944Y126358D01*
X217000Y126403D01*
X217062Y126439D01*
X217096Y126479D01*
X217136Y126511D01*
X217175Y126572D01*
X217222Y126626D01*
X217241Y126675D01*
X217269Y126718D01*
X217287Y126788D01*
X217314Y126854D01*
X217322Y126926D01*
X217330Y126957D01*
X217328Y126980D01*
X217332Y127021D01*
X217332Y154685D01*
X217313Y154800D01*
X217296Y154916D01*
X217294Y154921D01*
X217293Y154927D01*
X217238Y155030D01*
X217185Y155135D01*
X217180Y155139D01*
X217177Y155145D01*
X217093Y155225D01*
X217009Y155307D01*
X217003Y155311D01*
X216999Y155314D01*
X216982Y155322D01*
X216919Y155356D01*
X215370Y156906D01*
X214538Y158914D01*
X214538Y161086D01*
X215370Y163094D01*
X216906Y164630D01*
X218914Y165462D01*
X221086Y165462D01*
X223094Y164630D01*
X224630Y163094D01*
X225462Y161086D01*
X225462Y158914D01*
X224630Y156906D01*
X223070Y155346D01*
X223039Y155327D01*
X222938Y155266D01*
X222934Y155262D01*
X222929Y155258D01*
X222854Y155169D01*
X222778Y155079D01*
X222776Y155074D01*
X222772Y155069D01*
X222730Y154960D01*
X222686Y154851D01*
X222685Y154844D01*
X222684Y154839D01*
X222683Y154821D01*
X222668Y154685D01*
X222668Y125315D01*
X222687Y125200D01*
X222704Y125084D01*
X222706Y125079D01*
X222707Y125073D01*
X222762Y124969D01*
X222815Y124865D01*
X222820Y124861D01*
X222823Y124855D01*
X222907Y124775D01*
X222991Y124693D01*
X222997Y124689D01*
X223001Y124686D01*
X223018Y124678D01*
X223081Y124644D01*
X224630Y123094D01*
X225462Y121086D01*
X225462Y118914D01*
X224630Y116906D01*
X223094Y115370D01*
X221086Y114538D01*
X218914Y114538D01*
G37*
%LPD*%
%LPC*%
G36*
X400763Y144221D02*
X400763Y144221D01*
X399721Y145263D01*
X399721Y160737D01*
X400763Y161779D01*
X420237Y161779D01*
X421279Y160737D01*
X421279Y145263D01*
X420237Y144221D01*
X400763Y144221D01*
G37*
%LPD*%
%LPC*%
G36*
X33703Y203461D02*
X33703Y203461D01*
X32661Y204503D01*
X32661Y213597D01*
X33703Y214639D01*
X50417Y214639D01*
X51459Y213597D01*
X51459Y204503D01*
X50417Y203461D01*
X33703Y203461D01*
G37*
%LPD*%
%LPC*%
G36*
X33703Y165361D02*
X33703Y165361D01*
X32661Y166403D01*
X32661Y175497D01*
X33703Y176539D01*
X50417Y176539D01*
X51459Y175497D01*
X51459Y166403D01*
X50417Y165361D01*
X33703Y165361D01*
G37*
%LPD*%
%LPC*%
G36*
X151523Y25459D02*
X151523Y25459D01*
X151523Y34477D01*
X161541Y34477D01*
X161541Y27666D01*
X161368Y27019D01*
X161033Y26440D01*
X160560Y25967D01*
X159981Y25632D01*
X159334Y25459D01*
X151523Y25459D01*
G37*
%LPD*%
%LPC*%
G36*
X140666Y25459D02*
X140666Y25459D01*
X140019Y25632D01*
X139440Y25967D01*
X138967Y26440D01*
X138632Y27019D01*
X138459Y27666D01*
X138459Y34477D01*
X148477Y34477D01*
X148477Y25459D01*
X140666Y25459D01*
G37*
%LPD*%
%LPC*%
G36*
X284763Y115721D02*
X284763Y115721D01*
X283721Y116763D01*
X283721Y126237D01*
X284763Y127279D01*
X290237Y127279D01*
X291279Y126237D01*
X291279Y116763D01*
X290237Y115721D01*
X284763Y115721D01*
G37*
%LPD*%
%LPC*%
G36*
X470523Y13023D02*
X470523Y13023D01*
X470523Y23541D01*
X476334Y23541D01*
X476981Y23368D01*
X477560Y23033D01*
X478033Y22560D01*
X478368Y21981D01*
X478541Y21334D01*
X478541Y13023D01*
X470523Y13023D01*
G37*
%LPD*%
%LPC*%
G36*
X459459Y13023D02*
X459459Y13023D01*
X459459Y21334D01*
X459632Y21981D01*
X459967Y22560D01*
X460440Y23033D01*
X461019Y23368D01*
X461666Y23541D01*
X467477Y23541D01*
X467477Y13023D01*
X459459Y13023D01*
G37*
%LPD*%
%LPC*%
G36*
X355023Y143459D02*
X355023Y143459D01*
X355023Y151477D01*
X365041Y151477D01*
X365041Y145666D01*
X364868Y145019D01*
X364533Y144440D01*
X364060Y143967D01*
X363481Y143632D01*
X362834Y143459D01*
X355023Y143459D01*
G37*
%LPD*%
%LPC*%
G36*
X99463Y172473D02*
X99463Y172473D01*
X99463Y177301D01*
X105894Y177301D01*
X106541Y177128D01*
X107120Y176793D01*
X107593Y176320D01*
X107928Y175741D01*
X108101Y175094D01*
X108101Y172473D01*
X99463Y172473D01*
G37*
%LPD*%
%LPC*%
G36*
X87779Y172473D02*
X87779Y172473D01*
X87779Y175094D01*
X87952Y175741D01*
X88287Y176320D01*
X88760Y176793D01*
X89339Y177128D01*
X89986Y177301D01*
X96417Y177301D01*
X96417Y172473D01*
X87779Y172473D01*
G37*
%LPD*%
%LPC*%
G36*
X99463Y164599D02*
X99463Y164599D01*
X99463Y169427D01*
X108101Y169427D01*
X108101Y166805D01*
X107928Y166159D01*
X107593Y165580D01*
X107120Y165107D01*
X106541Y164772D01*
X105894Y164599D01*
X99463Y164599D01*
G37*
%LPD*%
%LPC*%
G36*
X89986Y164599D02*
X89986Y164599D01*
X89339Y164772D01*
X88760Y165107D01*
X88287Y165580D01*
X87952Y166159D01*
X87779Y166806D01*
X87779Y169427D01*
X96417Y169427D01*
X96417Y164599D01*
X89986Y164599D01*
G37*
%LPD*%
%LPC*%
G36*
X181523Y43459D02*
X181523Y43459D01*
X181523Y49977D01*
X187541Y49977D01*
X187541Y45666D01*
X187368Y45019D01*
X187009Y44398D01*
X187000Y44375D01*
X186986Y44356D01*
X186957Y44261D01*
X186922Y44168D01*
X186921Y44144D01*
X186914Y44121D01*
X186915Y44081D01*
X186901Y44079D01*
X186802Y44071D01*
X186779Y44062D01*
X186756Y44058D01*
X186602Y43991D01*
X185981Y43632D01*
X185334Y43459D01*
X181523Y43459D01*
G37*
%LPD*%
%LPC*%
G36*
X101523Y140023D02*
X101523Y140023D01*
X101523Y146541D01*
X105335Y146541D01*
X105981Y146368D01*
X106560Y146033D01*
X107033Y145560D01*
X107368Y144981D01*
X107541Y144334D01*
X107541Y140023D01*
X101523Y140023D01*
G37*
%LPD*%
%LPC*%
G36*
X41523Y140023D02*
X41523Y140023D01*
X41523Y146541D01*
X45335Y146541D01*
X45981Y146368D01*
X46560Y146033D01*
X47033Y145560D01*
X47368Y144981D01*
X47541Y144334D01*
X47541Y140023D01*
X41523Y140023D01*
G37*
%LPD*%
%LPC*%
G36*
X301523Y21023D02*
X301523Y21023D01*
X301523Y27541D01*
X305335Y27541D01*
X305981Y27368D01*
X306560Y27033D01*
X307033Y26560D01*
X307368Y25981D01*
X307541Y25334D01*
X307541Y21023D01*
X301523Y21023D01*
G37*
%LPD*%
%LPC*%
G36*
X201523Y70023D02*
X201523Y70023D01*
X201523Y76541D01*
X205335Y76541D01*
X205981Y76368D01*
X206560Y76033D01*
X207033Y75560D01*
X207368Y74981D01*
X207541Y74334D01*
X207541Y70023D01*
X201523Y70023D01*
G37*
%LPD*%
%LPC*%
G36*
X261523Y70023D02*
X261523Y70023D01*
X261523Y76541D01*
X265335Y76541D01*
X265981Y76368D01*
X266560Y76033D01*
X267033Y75560D01*
X267368Y74981D01*
X267541Y74334D01*
X267541Y70023D01*
X261523Y70023D01*
G37*
%LPD*%
%LPC*%
G36*
X281523Y70023D02*
X281523Y70023D01*
X281523Y76541D01*
X285335Y76541D01*
X285981Y76368D01*
X286560Y76033D01*
X287033Y75560D01*
X287368Y74981D01*
X287541Y74334D01*
X287541Y70023D01*
X281523Y70023D01*
G37*
%LPD*%
%LPC*%
G36*
X181523Y53023D02*
X181523Y53023D01*
X181523Y59541D01*
X185335Y59541D01*
X185981Y59368D01*
X186560Y59033D01*
X187033Y58560D01*
X187368Y57981D01*
X187541Y57334D01*
X187541Y53023D01*
X181523Y53023D01*
G37*
%LPD*%
%LPC*%
G36*
X101523Y130459D02*
X101523Y130459D01*
X101523Y136977D01*
X107541Y136977D01*
X107541Y132666D01*
X107368Y132019D01*
X107033Y131440D01*
X106560Y130967D01*
X105981Y130632D01*
X105334Y130459D01*
X101523Y130459D01*
G37*
%LPD*%
%LPC*%
G36*
X201523Y60459D02*
X201523Y60459D01*
X201523Y66977D01*
X207541Y66977D01*
X207541Y62666D01*
X207368Y62019D01*
X207033Y61440D01*
X206560Y60967D01*
X205981Y60632D01*
X205334Y60459D01*
X201523Y60459D01*
G37*
%LPD*%
%LPC*%
G36*
X281523Y60459D02*
X281523Y60459D01*
X281523Y66977D01*
X287541Y66977D01*
X287541Y62666D01*
X287368Y62019D01*
X287033Y61440D01*
X286560Y60967D01*
X285981Y60632D01*
X285334Y60459D01*
X281523Y60459D01*
G37*
%LPD*%
%LPC*%
G36*
X301523Y11459D02*
X301523Y11459D01*
X301523Y17977D01*
X307541Y17977D01*
X307541Y13666D01*
X307368Y13019D01*
X307033Y12440D01*
X306560Y11967D01*
X305981Y11632D01*
X305334Y11459D01*
X301523Y11459D01*
G37*
%LPD*%
%LPC*%
G36*
X272459Y70023D02*
X272459Y70023D01*
X272459Y74334D01*
X272632Y74981D01*
X272967Y75560D01*
X273440Y76033D01*
X274019Y76368D01*
X274666Y76541D01*
X278477Y76541D01*
X278477Y70023D01*
X272459Y70023D01*
G37*
%LPD*%
%LPC*%
G36*
X172459Y53023D02*
X172459Y53023D01*
X172459Y57334D01*
X172632Y57981D01*
X172967Y58560D01*
X173440Y59033D01*
X174019Y59368D01*
X174666Y59541D01*
X178477Y59541D01*
X178477Y53023D01*
X172459Y53023D01*
G37*
%LPD*%
%LPC*%
G36*
X32459Y140023D02*
X32459Y140023D01*
X32459Y144334D01*
X32632Y144981D01*
X32967Y145560D01*
X33440Y146033D01*
X34019Y146368D01*
X34666Y146541D01*
X38477Y146541D01*
X38477Y140023D01*
X32459Y140023D01*
G37*
%LPD*%
%LPC*%
G36*
X192459Y70023D02*
X192459Y70023D01*
X192459Y74334D01*
X192632Y74981D01*
X192967Y75560D01*
X193440Y76033D01*
X194019Y76368D01*
X194666Y76541D01*
X198477Y76541D01*
X198477Y70023D01*
X192459Y70023D01*
G37*
%LPD*%
%LPC*%
G36*
X292459Y21023D02*
X292459Y21023D01*
X292459Y25334D01*
X292632Y25981D01*
X292967Y26560D01*
X293440Y27033D01*
X294019Y27368D01*
X294666Y27541D01*
X298477Y27541D01*
X298477Y21023D01*
X292459Y21023D01*
G37*
%LPD*%
%LPC*%
G36*
X92459Y140023D02*
X92459Y140023D01*
X92459Y144334D01*
X92632Y144981D01*
X92967Y145560D01*
X93440Y146033D01*
X94019Y146368D01*
X94666Y146541D01*
X98477Y146541D01*
X98477Y140023D01*
X92459Y140023D01*
G37*
%LPD*%
%LPC*%
G36*
X194666Y60459D02*
X194666Y60459D01*
X194019Y60632D01*
X193440Y60967D01*
X192967Y61440D01*
X192632Y62019D01*
X192459Y62666D01*
X192459Y66977D01*
X198477Y66977D01*
X198477Y60459D01*
X194666Y60459D01*
G37*
%LPD*%
%LPC*%
G36*
X34666Y130459D02*
X34666Y130459D01*
X34019Y130632D01*
X33440Y130967D01*
X32967Y131440D01*
X32632Y132019D01*
X32459Y132666D01*
X32459Y136977D01*
X38477Y136977D01*
X38477Y130459D01*
X34666Y130459D01*
G37*
%LPD*%
%LPC*%
G36*
X174666Y43459D02*
X174666Y43459D01*
X174019Y43632D01*
X173440Y43967D01*
X172967Y44440D01*
X172632Y45019D01*
X172459Y45666D01*
X172459Y49977D01*
X178477Y49977D01*
X178477Y43459D01*
X174666Y43459D01*
G37*
%LPD*%
%LPC*%
G36*
X294666Y11459D02*
X294666Y11459D01*
X294019Y11632D01*
X293440Y11967D01*
X292967Y12440D01*
X292632Y13019D01*
X292459Y13666D01*
X292459Y17977D01*
X298477Y17977D01*
X298477Y11459D01*
X294666Y11459D01*
G37*
%LPD*%
%LPC*%
G36*
X121523Y34459D02*
X121523Y34459D01*
X121523Y39477D01*
X128541Y39477D01*
X128541Y36666D01*
X128368Y36019D01*
X128033Y35440D01*
X127560Y34967D01*
X126981Y34632D01*
X126334Y34459D01*
X121523Y34459D01*
G37*
%LPD*%
%LPC*%
G36*
X113666Y34459D02*
X113666Y34459D01*
X113019Y34632D01*
X112440Y34967D01*
X111967Y35440D01*
X111632Y36019D01*
X111459Y36666D01*
X111459Y39477D01*
X118477Y39477D01*
X118477Y34459D01*
X113666Y34459D01*
G37*
%LPD*%
%LPC*%
G36*
X230220Y31523D02*
X230220Y31523D01*
X230220Y36684D01*
X230393Y37331D01*
X230728Y37910D01*
X231201Y38383D01*
X231780Y38718D01*
X232427Y38891D01*
X234413Y38891D01*
X234413Y31523D01*
X230220Y31523D01*
G37*
%LPD*%
%LPC*%
G36*
X232427Y21109D02*
X232427Y21109D01*
X231780Y21282D01*
X231201Y21617D01*
X230728Y22090D01*
X230393Y22669D01*
X230220Y23316D01*
X230220Y28477D01*
X234413Y28477D01*
X234413Y21109D01*
X232427Y21109D01*
G37*
%LPD*%
%LPC*%
G36*
X368261Y177261D02*
X368261Y177261D01*
X368261Y183041D01*
X369334Y183041D01*
X369981Y182868D01*
X370560Y182533D01*
X371033Y182060D01*
X371368Y181481D01*
X371541Y180834D01*
X371541Y177261D01*
X368261Y177261D01*
G37*
%LPD*%
%LPC*%
G36*
X368261Y169959D02*
X368261Y169959D01*
X368261Y175739D01*
X371541Y175739D01*
X371541Y172165D01*
X371368Y171519D01*
X371033Y170940D01*
X370560Y170467D01*
X369981Y170132D01*
X369334Y169959D01*
X368261Y169959D01*
G37*
%LPD*%
%LPC*%
G36*
X73261Y123261D02*
X73261Y123261D01*
X73261Y126559D01*
X73283Y126571D01*
X73297Y126585D01*
X73314Y126595D01*
X73381Y126674D01*
X73443Y126739D01*
X76739Y126739D01*
X76739Y123261D01*
X73261Y123261D01*
G37*
%LPD*%
%LPC*%
G36*
X68261Y123261D02*
X68261Y123261D01*
X68261Y126416D01*
X69084Y126416D01*
X69803Y126223D01*
X69917Y126212D01*
X70031Y126198D01*
X70041Y126199D01*
X70048Y126199D01*
X70069Y126204D01*
X70197Y126223D01*
X70916Y126416D01*
X71739Y126416D01*
X71739Y123261D01*
X68261Y123261D01*
G37*
%LPD*%
%LPC*%
G36*
X78261Y123261D02*
X78261Y123261D01*
X78261Y126739D01*
X81416Y126739D01*
X81416Y125916D01*
X81223Y125197D01*
X81212Y125083D01*
X81198Y124969D01*
X81199Y124959D01*
X81199Y124952D01*
X81204Y124931D01*
X81223Y124803D01*
X81416Y124084D01*
X81416Y123261D01*
X78261Y123261D01*
G37*
%LPD*%
%LPC*%
G36*
X68261Y118584D02*
X68261Y118584D01*
X68261Y121739D01*
X71739Y121739D01*
X71739Y118584D01*
X70916Y118584D01*
X70197Y118777D01*
X70083Y118788D01*
X69969Y118802D01*
X69959Y118801D01*
X69952Y118801D01*
X69931Y118796D01*
X69803Y118777D01*
X69084Y118584D01*
X68261Y118584D01*
G37*
%LPD*%
%LPC*%
G36*
X73261Y118584D02*
X73261Y118584D01*
X73261Y121739D01*
X76739Y121739D01*
X76739Y118709D01*
X75791Y118709D01*
X75314Y118837D01*
X75223Y118846D01*
X75134Y118863D01*
X75102Y118858D01*
X75070Y118861D01*
X74981Y118841D01*
X74890Y118828D01*
X74853Y118812D01*
X74830Y118806D01*
X74802Y118790D01*
X74737Y118761D01*
X74731Y118757D01*
X74084Y118584D01*
X73261Y118584D01*
G37*
%LPD*%
%LPC*%
G36*
X78261Y118709D02*
X78261Y118709D01*
X78261Y121739D01*
X81416Y121739D01*
X81416Y120916D01*
X81243Y120269D01*
X80908Y119690D01*
X80435Y119217D01*
X79856Y118882D01*
X79209Y118709D01*
X78261Y118709D01*
G37*
%LPD*%
%LPC*%
G36*
X199999Y68499D02*
X199999Y68499D01*
X199999Y68501D01*
X200001Y68501D01*
X200001Y68499D01*
X199999Y68499D01*
G37*
%LPD*%
%LPC*%
G36*
X99999Y138499D02*
X99999Y138499D01*
X99999Y138501D01*
X100001Y138501D01*
X100001Y138499D01*
X99999Y138499D01*
G37*
%LPD*%
%LPC*%
G36*
X39999Y138499D02*
X39999Y138499D01*
X39999Y138501D01*
X40001Y138501D01*
X40001Y138499D01*
X39999Y138499D01*
G37*
%LPD*%
%LPC*%
G36*
X279999Y68499D02*
X279999Y68499D01*
X279999Y68501D01*
X280001Y68501D01*
X280001Y68499D01*
X279999Y68499D01*
G37*
%LPD*%
%LPC*%
G36*
X179999Y51499D02*
X179999Y51499D01*
X179999Y51501D01*
X180001Y51501D01*
X180001Y51499D01*
X179999Y51499D01*
G37*
%LPD*%
%LPC*%
G36*
X299999Y19499D02*
X299999Y19499D01*
X299999Y19501D01*
X300001Y19501D01*
X300001Y19499D01*
X299999Y19499D01*
G37*
%LPD*%
%LPC*%
G36*
X97939Y170949D02*
X97939Y170949D01*
X97939Y170951D01*
X97941Y170951D01*
X97941Y170949D01*
X97939Y170949D01*
G37*
%LPD*%
D10*
X26983Y11359D02*
X29695Y5936D01*
X32407Y11359D01*
X36338Y11359D02*
X39050Y14071D01*
X39050Y5936D01*
X36338Y5936D02*
X41762Y5936D01*
X45694Y11359D02*
X48405Y14071D01*
X48405Y5936D01*
X45694Y5936D02*
X51117Y5936D01*
D11*
X120000Y59000D03*
X120000Y41000D03*
X300000Y51000D03*
X300000Y69000D03*
X320000Y51000D03*
X320000Y69000D03*
D12*
X200000Y51500D03*
X200000Y68500D03*
D13*
X150000Y64000D03*
X150000Y36000D03*
D12*
X180000Y51500D03*
X180000Y68500D03*
X280000Y51500D03*
X280000Y68500D03*
X240000Y68500D03*
X240000Y51500D03*
X260000Y51500D03*
X260000Y68500D03*
X220000Y51500D03*
X220000Y68500D03*
D14*
X235936Y30000D03*
X244064Y30000D03*
D15*
X490000Y210000D03*
X10000Y10000D03*
D12*
X300000Y36500D03*
X300000Y19500D03*
X320000Y19500D03*
X320000Y36500D03*
D16*
X410500Y153000D03*
X353500Y153000D03*
D17*
X337500Y21500D03*
X469000Y11500D03*
D18*
X422400Y50000D03*
X411400Y54000D03*
X400400Y50000D03*
X389400Y48000D03*
X378400Y50000D03*
X367400Y48000D03*
X356400Y50000D03*
X345400Y50000D03*
D19*
X432000Y190000D03*
X468000Y190000D03*
D12*
X410000Y181500D03*
X410000Y198500D03*
D20*
X367500Y176500D03*
X362500Y176500D03*
D21*
X377500Y201500D03*
X302500Y201500D03*
D20*
X357500Y176500D03*
X352500Y176500D03*
X347500Y176500D03*
X342500Y176500D03*
X337500Y176500D03*
X332500Y176500D03*
X327500Y176500D03*
X322500Y176500D03*
X317500Y176500D03*
X312500Y176500D03*
D22*
X67500Y122500D03*
X72500Y122500D03*
X72500Y137500D03*
X67500Y137500D03*
D23*
X62500Y137500D03*
X62500Y132500D03*
X62500Y122500D03*
X62500Y127500D03*
X77500Y122500D03*
X77500Y127500D03*
X77500Y132500D03*
X77500Y137500D03*
D12*
X40000Y121500D03*
X40000Y138500D03*
X100000Y121500D03*
X100000Y138500D03*
D24*
X97940Y170950D03*
X42060Y170950D03*
X97940Y209050D03*
X42060Y209050D03*
D20*
X277500Y96500D03*
X272500Y96500D03*
D21*
X287500Y121500D03*
X212500Y121500D03*
D20*
X267500Y96500D03*
X262500Y96500D03*
X257500Y96500D03*
X252500Y96500D03*
X247500Y96500D03*
X242500Y96500D03*
X237500Y96500D03*
X232500Y96500D03*
X227500Y96500D03*
X222500Y96500D03*
D25*
X360000Y20000D03*
X280000Y20000D03*
X300000Y120000D03*
X200000Y120000D03*
X130000Y20000D03*
X120000Y140000D03*
X20000Y140000D03*
X380000Y170000D03*
X350000Y130000D03*
X367000Y67000D03*
X140000Y87000D03*
X349000Y73000D03*
D26*
X150000Y64000D02*
X150000Y90000D01*
X181000Y121000D01*
D25*
X181000Y121000D03*
D26*
X180000Y106900D02*
X180000Y68500D01*
X180000Y106900D02*
X188100Y115000D01*
D25*
X188100Y115000D03*
D26*
X260000Y51500D02*
X261223Y51500D01*
X270000Y60277D01*
D25*
X270000Y60277D03*
D26*
X228223Y60277D02*
X220000Y68500D01*
X228223Y60277D02*
X270000Y60277D01*
X320000Y69000D02*
X320000Y111000D01*
X325000Y116000D01*
D25*
X325000Y116000D03*
D26*
X310000Y60000D02*
X309000Y60000D01*
X300000Y51000D01*
D25*
X310000Y60000D03*
X170000Y120000D03*
D26*
X160000Y120000D01*
X120000Y80000D01*
X120000Y59000D01*
X240000Y68500D02*
X240500Y68500D01*
X250000Y78000D01*
D25*
X250000Y78000D03*
D26*
X244064Y30000D02*
X260000Y30000D01*
D25*
X260000Y30000D03*
D26*
X320000Y51000D02*
X321000Y50000D01*
X333000Y50000D01*
D25*
X333000Y50000D03*
D26*
X300000Y69000D02*
X300000Y107000D01*
X312000Y119000D01*
D25*
X312000Y119000D03*
D26*
X62500Y127500D02*
X46000Y127500D01*
X40000Y121500D01*
X62500Y127500D02*
X62500Y132500D01*
X77500Y132500D01*
X77500Y137500D01*
X77500Y132500D02*
X89000Y132500D01*
X100000Y121500D01*
D25*
X280000Y40000D03*
D26*
X100000Y60000D02*
X100000Y121500D01*
X100000Y60000D02*
X110000Y50000D01*
D27*
X357500Y165000D02*
X357500Y176500D01*
X357500Y165000D02*
X364170Y165000D01*
X370000Y159170D01*
X389400Y70600D02*
X389400Y48000D01*
X370000Y90000D02*
X370000Y159170D01*
X370000Y90000D02*
X389400Y70600D01*
X389400Y48000D02*
X389400Y37400D01*
X388000Y36000D01*
X320500Y36000D01*
X320000Y36500D01*
X300000Y36500D01*
X283500Y36500D01*
X280000Y40000D01*
X280000Y51500D01*
X280000Y40000D02*
X251500Y40000D01*
X240000Y51500D01*
X220000Y51500D01*
X200000Y51500D01*
X355000Y165000D02*
X357500Y165000D01*
X352500Y167500D02*
X352500Y176500D01*
X352500Y167500D02*
X355000Y165000D01*
D26*
X170000Y38000D02*
X158000Y50000D01*
X170000Y38000D02*
X186500Y38000D01*
X200000Y51500D01*
X158000Y50000D02*
X110000Y50000D01*
X347500Y176500D02*
X347500Y190500D01*
X354000Y197000D01*
X369000Y197000D01*
X411400Y88600D02*
X411400Y54000D01*
X390000Y176000D02*
X369000Y197000D01*
X390000Y176000D02*
X390000Y110000D01*
X411400Y88600D01*
X320000Y19500D02*
X320000Y11000D01*
X325000Y6000D01*
X396000Y6000D01*
X411400Y21400D02*
X411400Y54000D01*
X411400Y21400D02*
X396000Y6000D01*
X378400Y50000D02*
X378400Y71600D01*
X337500Y112500D02*
X337500Y176500D01*
X337500Y112500D02*
X378400Y71600D01*
X356400Y83600D02*
X356400Y50000D01*
X332500Y107500D02*
X332500Y176500D01*
X332500Y107500D02*
X356400Y83600D01*
X342500Y161772D02*
X342500Y176500D01*
X342500Y161772D02*
X341833Y161105D01*
X341833Y118167D02*
X350000Y110000D01*
D25*
X350000Y110000D03*
X380000Y110000D03*
D26*
X400400Y89600D01*
X400400Y50000D01*
X341833Y118167D02*
X341833Y161105D01*
X410000Y181500D02*
X423500Y181500D01*
X432000Y190000D01*
X468000Y190000D02*
X468000Y202000D01*
X460000Y210000D01*
D25*
X460000Y210000D03*
X320000Y200000D03*
D26*
X317500Y197500D02*
X317500Y176500D01*
X317500Y197500D02*
X320000Y200000D01*
X262500Y192500D02*
X262500Y115000D01*
X262500Y96500D01*
X262500Y192500D02*
X270000Y200000D01*
D25*
X270000Y200000D03*
D26*
X266000Y115000D02*
X262500Y115000D01*
X266000Y115000D02*
X267500Y113500D01*
X267500Y96500D01*
D25*
X320000Y150000D03*
D26*
X327500Y157500D02*
X327500Y176500D01*
X327500Y157500D02*
X320000Y150000D01*
D25*
X240100Y120000D03*
D26*
X240100Y150000D01*
D25*
X240100Y150000D03*
X60000Y150000D03*
D26*
X62500Y147500D02*
X62500Y137500D01*
X62500Y147500D02*
X60000Y150000D01*
X322500Y162500D02*
X322500Y176500D01*
X322500Y162500D02*
X320000Y160000D01*
D25*
X320000Y160000D03*
X220000Y120000D03*
D26*
X220000Y160000D01*
D25*
X220000Y160000D03*
X61000Y109000D03*
D26*
X62500Y110500D02*
X62500Y122500D01*
X62500Y110500D02*
X61000Y109000D01*
X232500Y115000D02*
X232500Y96500D01*
X232500Y115000D02*
X232500Y187500D01*
X230000Y190000D01*
X220000Y200000D01*
X130000Y200000D01*
X120950Y209050D02*
X97940Y209050D01*
X120950Y209050D02*
X130000Y200000D01*
X237500Y113500D02*
X237500Y96500D01*
X236000Y115000D02*
X232500Y115000D01*
X236000Y115000D02*
X237500Y113500D01*
X362500Y176500D02*
X362500Y187500D01*
X360000Y190000D01*
D25*
X360000Y190000D03*
X230000Y190000D03*
D26*
X312500Y190000D02*
X312500Y176500D01*
X312500Y190000D02*
X312500Y202500D01*
X320000Y210000D01*
X406000Y210000D02*
X410000Y206000D01*
X410000Y198500D01*
X406000Y210000D02*
X320000Y210000D01*
X277500Y115000D02*
X277500Y96500D01*
X277500Y115000D02*
X277500Y187500D01*
X280000Y190000D01*
X312500Y190000D01*
X272500Y113500D02*
X272500Y96500D01*
X274000Y115000D02*
X277500Y115000D01*
X274000Y115000D02*
X272500Y113500D01*
M02*
