G04 EAGLE Gerber RS-274X export*
G75*
%MOMM*%
%FSLAX34Y34*%
%LPD*%
%INBottom Copper*%
%IPPOS*%
%AMOC8*
5,1,8,0,0,1.08239X$1,22.5*%
G01*
%ADD10R,0.350000X2.000000*%
%ADD11C,1.000000*%
%ADD12C,0.736600*%
%ADD13C,0.177800*%
%ADD14C,0.304800*%

G36*
X497230Y2032D02*
X497230Y2032D01*
X497249Y2030D01*
X497351Y2052D01*
X497453Y2068D01*
X497470Y2078D01*
X497490Y2082D01*
X497579Y2135D01*
X497670Y2184D01*
X497684Y2198D01*
X497701Y2208D01*
X497768Y2287D01*
X497840Y2362D01*
X497848Y2380D01*
X497861Y2395D01*
X497900Y2491D01*
X497943Y2585D01*
X497945Y2605D01*
X497953Y2623D01*
X497971Y2790D01*
X497971Y207704D01*
X497956Y207800D01*
X497946Y207897D01*
X497936Y207921D01*
X497932Y207946D01*
X497886Y208032D01*
X497846Y208121D01*
X497829Y208141D01*
X497816Y208164D01*
X497746Y208231D01*
X497680Y208303D01*
X497657Y208315D01*
X497638Y208333D01*
X497550Y208374D01*
X497464Y208421D01*
X497439Y208426D01*
X497415Y208437D01*
X497318Y208448D01*
X497222Y208465D01*
X497196Y208461D01*
X497171Y208464D01*
X497075Y208443D01*
X496979Y208429D01*
X496956Y208417D01*
X496930Y208412D01*
X496847Y208362D01*
X496760Y208318D01*
X496741Y208299D01*
X496719Y208285D01*
X496656Y208212D01*
X496588Y208142D01*
X496572Y208113D01*
X496559Y208099D01*
X496547Y208068D01*
X496507Y207995D01*
X495747Y206160D01*
X493840Y204253D01*
X491348Y203221D01*
X488652Y203221D01*
X486160Y204253D01*
X484253Y206160D01*
X483221Y208652D01*
X483221Y211348D01*
X484253Y213840D01*
X486160Y215747D01*
X487995Y216507D01*
X488078Y216558D01*
X488164Y216604D01*
X488182Y216622D01*
X488204Y216636D01*
X488266Y216712D01*
X488333Y216782D01*
X488344Y216806D01*
X488361Y216826D01*
X488396Y216917D01*
X488437Y217005D01*
X488440Y217031D01*
X488449Y217055D01*
X488453Y217153D01*
X488464Y217249D01*
X488458Y217275D01*
X488459Y217301D01*
X488432Y217395D01*
X488412Y217490D01*
X488398Y217512D01*
X488391Y217537D01*
X488335Y217617D01*
X488285Y217701D01*
X488266Y217718D01*
X488251Y217739D01*
X488173Y217798D01*
X488099Y217861D01*
X488074Y217871D01*
X488053Y217886D01*
X487961Y217916D01*
X487870Y217953D01*
X487838Y217956D01*
X487819Y217962D01*
X487786Y217962D01*
X487704Y217971D01*
X302790Y217971D01*
X302770Y217968D01*
X302751Y217970D01*
X302649Y217948D01*
X302547Y217932D01*
X302530Y217922D01*
X302510Y217918D01*
X302421Y217865D01*
X302330Y217816D01*
X302316Y217802D01*
X302299Y217792D01*
X302232Y217713D01*
X302160Y217638D01*
X302152Y217620D01*
X302139Y217605D01*
X302100Y217509D01*
X302057Y217415D01*
X302055Y217395D01*
X302047Y217377D01*
X302029Y217210D01*
X302029Y209160D01*
X300840Y207971D01*
X241591Y207971D01*
X241520Y207960D01*
X241448Y207958D01*
X241399Y207940D01*
X241348Y207932D01*
X241285Y207898D01*
X241217Y207873D01*
X241177Y207841D01*
X241130Y207816D01*
X241081Y207764D01*
X241025Y207720D01*
X240997Y207676D01*
X240961Y207638D01*
X240931Y207573D01*
X240892Y207513D01*
X240879Y207462D01*
X240857Y207415D01*
X240850Y207344D01*
X240832Y207274D01*
X240836Y207222D01*
X240830Y207171D01*
X240846Y207100D01*
X240851Y207029D01*
X240872Y206981D01*
X240883Y206930D01*
X240919Y206869D01*
X240948Y206803D01*
X240992Y206747D01*
X241009Y206719D01*
X241027Y206704D01*
X241052Y206672D01*
X242654Y205070D01*
X242673Y205039D01*
X242734Y204938D01*
X242738Y204934D01*
X242742Y204929D01*
X242831Y204854D01*
X242921Y204778D01*
X242926Y204776D01*
X242931Y204772D01*
X243040Y204730D01*
X243149Y204686D01*
X243156Y204685D01*
X243161Y204684D01*
X243179Y204683D01*
X243315Y204668D01*
X315105Y204668D01*
X320668Y199105D01*
X320668Y195315D01*
X320687Y195200D01*
X320704Y195084D01*
X320706Y195079D01*
X320707Y195073D01*
X320762Y194970D01*
X320815Y194865D01*
X320820Y194861D01*
X320823Y194855D01*
X320907Y194775D01*
X320991Y194693D01*
X320997Y194689D01*
X321001Y194686D01*
X321018Y194678D01*
X321081Y194644D01*
X322630Y193094D01*
X323462Y191086D01*
X323462Y188914D01*
X322630Y186906D01*
X321094Y185370D01*
X319086Y184538D01*
X316914Y184538D01*
X314906Y185370D01*
X313370Y186906D01*
X312538Y188914D01*
X312538Y191086D01*
X313370Y193094D01*
X314930Y194654D01*
X314961Y194673D01*
X315062Y194734D01*
X315066Y194738D01*
X315071Y194742D01*
X315146Y194831D01*
X315222Y194921D01*
X315224Y194926D01*
X315228Y194931D01*
X315270Y195040D01*
X315314Y195149D01*
X315315Y195156D01*
X315316Y195161D01*
X315317Y195179D01*
X315332Y195315D01*
X315332Y196580D01*
X315318Y196670D01*
X315310Y196761D01*
X315298Y196790D01*
X315293Y196822D01*
X315250Y196903D01*
X315214Y196987D01*
X315188Y197019D01*
X315177Y197040D01*
X315154Y197062D01*
X315109Y197118D01*
X313118Y199109D01*
X313044Y199162D01*
X312975Y199222D01*
X312944Y199234D01*
X312918Y199253D01*
X312831Y199280D01*
X312746Y199314D01*
X312705Y199318D01*
X312683Y199325D01*
X312651Y199324D01*
X312580Y199332D01*
X243315Y199332D01*
X243200Y199313D01*
X243084Y199296D01*
X243079Y199294D01*
X243073Y199293D01*
X242970Y199238D01*
X242865Y199185D01*
X242861Y199180D01*
X242855Y199177D01*
X242775Y199093D01*
X242693Y199009D01*
X242689Y199003D01*
X242686Y198999D01*
X242678Y198982D01*
X242644Y198919D01*
X241094Y197370D01*
X239675Y196782D01*
X239593Y196731D01*
X239507Y196685D01*
X239489Y196666D01*
X239466Y196653D01*
X239404Y196578D01*
X239337Y196507D01*
X239326Y196483D01*
X239310Y196463D01*
X239275Y196372D01*
X239234Y196284D01*
X239231Y196258D01*
X239221Y196234D01*
X239217Y196136D01*
X239207Y196040D01*
X239212Y196014D01*
X239211Y195988D01*
X239238Y195894D01*
X239259Y195799D01*
X239272Y195777D01*
X239280Y195752D01*
X239335Y195672D01*
X239385Y195588D01*
X239405Y195571D01*
X239420Y195550D01*
X239498Y195491D01*
X239572Y195428D01*
X239596Y195418D01*
X239617Y195403D01*
X239710Y195373D01*
X239800Y195336D01*
X239833Y195333D01*
X239851Y195327D01*
X239884Y195327D01*
X239967Y195318D01*
X286455Y195318D01*
X288241Y193532D01*
X311128Y170645D01*
X311223Y170577D01*
X311317Y170507D01*
X311323Y170505D01*
X311328Y170501D01*
X311439Y170467D01*
X311551Y170431D01*
X311557Y170431D01*
X311563Y170429D01*
X311679Y170432D01*
X311796Y170433D01*
X311804Y170435D01*
X311809Y170435D01*
X311826Y170442D01*
X311895Y170462D01*
X314086Y170462D01*
X316094Y169630D01*
X317630Y168094D01*
X318462Y166086D01*
X318462Y163914D01*
X317630Y161906D01*
X316094Y160370D01*
X314086Y159538D01*
X311914Y159538D01*
X309906Y160370D01*
X308370Y161906D01*
X307538Y163914D01*
X307538Y166120D01*
X307547Y166156D01*
X307575Y166270D01*
X307575Y166276D01*
X307576Y166282D01*
X307565Y166399D01*
X307556Y166515D01*
X307554Y166521D01*
X307553Y166527D01*
X307505Y166634D01*
X307460Y166741D01*
X307455Y166747D01*
X307453Y166752D01*
X307441Y166765D01*
X307355Y166872D01*
X284468Y189759D01*
X284394Y189812D01*
X284325Y189872D01*
X284294Y189884D01*
X284268Y189903D01*
X284181Y189930D01*
X284096Y189964D01*
X284055Y189968D01*
X284033Y189975D01*
X284001Y189974D01*
X283930Y189982D01*
X229315Y189982D01*
X229200Y189963D01*
X229084Y189946D01*
X229079Y189944D01*
X229073Y189943D01*
X228970Y189888D01*
X228865Y189835D01*
X228861Y189830D01*
X228855Y189827D01*
X228775Y189743D01*
X228693Y189659D01*
X228689Y189653D01*
X228686Y189649D01*
X228678Y189632D01*
X228644Y189569D01*
X227094Y188020D01*
X225086Y187188D01*
X222914Y187188D01*
X220906Y188020D01*
X219346Y189580D01*
X219327Y189611D01*
X219266Y189712D01*
X219262Y189716D01*
X219258Y189721D01*
X219169Y189796D01*
X219079Y189872D01*
X219074Y189874D01*
X219069Y189878D01*
X218960Y189920D01*
X218851Y189964D01*
X218844Y189965D01*
X218839Y189966D01*
X218821Y189967D01*
X218685Y189982D01*
X205225Y189982D01*
X190748Y204459D01*
X190674Y204512D01*
X190605Y204572D01*
X190575Y204584D01*
X190549Y204603D01*
X190462Y204630D01*
X190377Y204664D01*
X190336Y204668D01*
X190313Y204675D01*
X190281Y204674D01*
X190210Y204682D01*
X158526Y204682D01*
X158481Y204675D01*
X158435Y204677D01*
X158360Y204655D01*
X158283Y204643D01*
X158243Y204621D01*
X158198Y204608D01*
X158134Y204564D01*
X158066Y204527D01*
X158034Y204494D01*
X157996Y204468D01*
X157950Y204405D01*
X157896Y204349D01*
X157877Y204307D01*
X157850Y204271D01*
X157825Y204197D01*
X157793Y204126D01*
X157788Y204080D01*
X157773Y204037D01*
X157774Y203959D01*
X157766Y203882D01*
X157775Y203837D01*
X157776Y203791D01*
X157814Y203659D01*
X157818Y203641D01*
X157820Y203637D01*
X157822Y203630D01*
X158462Y202086D01*
X158462Y199914D01*
X157630Y197906D01*
X156070Y196346D01*
X156039Y196327D01*
X155938Y196266D01*
X155934Y196262D01*
X155929Y196258D01*
X155854Y196169D01*
X155778Y196079D01*
X155776Y196074D01*
X155772Y196069D01*
X155730Y195960D01*
X155686Y195851D01*
X155685Y195844D01*
X155684Y195839D01*
X155683Y195821D01*
X155668Y195685D01*
X155668Y167420D01*
X155682Y167330D01*
X155690Y167239D01*
X155702Y167210D01*
X155707Y167178D01*
X155750Y167097D01*
X155786Y167013D01*
X155812Y166981D01*
X155823Y166960D01*
X155846Y166938D01*
X155891Y166882D01*
X159882Y162891D01*
X159956Y162838D01*
X160025Y162778D01*
X160056Y162766D01*
X160082Y162747D01*
X160169Y162720D01*
X160254Y162686D01*
X160295Y162682D01*
X160317Y162675D01*
X160349Y162676D01*
X160420Y162668D01*
X236105Y162668D01*
X242918Y155855D01*
X242918Y144315D01*
X242937Y144200D01*
X242954Y144084D01*
X242956Y144079D01*
X242957Y144073D01*
X243012Y143970D01*
X243065Y143865D01*
X243070Y143861D01*
X243073Y143855D01*
X243157Y143775D01*
X243241Y143693D01*
X243247Y143689D01*
X243251Y143686D01*
X243268Y143678D01*
X243331Y143644D01*
X244880Y142094D01*
X245712Y140086D01*
X245712Y137914D01*
X244880Y135906D01*
X243320Y134346D01*
X243289Y134327D01*
X243188Y134266D01*
X243184Y134262D01*
X243179Y134258D01*
X243104Y134169D01*
X243028Y134079D01*
X243026Y134074D01*
X243022Y134069D01*
X242980Y133960D01*
X242936Y133851D01*
X242935Y133844D01*
X242934Y133839D01*
X242933Y133821D01*
X242918Y133685D01*
X242918Y130422D01*
X242925Y130377D01*
X242923Y130331D01*
X242945Y130256D01*
X242957Y130179D01*
X242979Y130139D01*
X242992Y130095D01*
X243036Y130031D01*
X243073Y129962D01*
X243106Y129931D01*
X243132Y129893D01*
X243195Y129846D01*
X243251Y129793D01*
X243293Y129773D01*
X243329Y129746D01*
X243403Y129722D01*
X243474Y129689D01*
X243520Y129684D01*
X243563Y129670D01*
X243641Y129671D01*
X243718Y129662D01*
X243763Y129672D01*
X243809Y129672D01*
X243941Y129710D01*
X243959Y129714D01*
X243963Y129717D01*
X243970Y129719D01*
X245764Y130462D01*
X247936Y130462D01*
X249944Y129630D01*
X251480Y128094D01*
X252312Y126086D01*
X252312Y123880D01*
X252303Y123844D01*
X252275Y123730D01*
X252275Y123724D01*
X252274Y123718D01*
X252285Y123601D01*
X252294Y123485D01*
X252296Y123479D01*
X252297Y123473D01*
X252345Y123366D01*
X252390Y123259D01*
X252395Y123253D01*
X252397Y123248D01*
X252409Y123235D01*
X252495Y123128D01*
X262418Y113205D01*
X262418Y99271D01*
X262429Y99200D01*
X262431Y99129D01*
X262449Y99080D01*
X262457Y99028D01*
X262491Y98965D01*
X262516Y98898D01*
X262548Y98857D01*
X262573Y98811D01*
X262624Y98762D01*
X262669Y98706D01*
X262713Y98677D01*
X262751Y98642D01*
X262816Y98611D01*
X262876Y98573D01*
X262927Y98560D01*
X262974Y98538D01*
X263045Y98530D01*
X263115Y98513D01*
X263167Y98517D01*
X263218Y98511D01*
X263289Y98526D01*
X263360Y98532D01*
X263408Y98552D01*
X263459Y98563D01*
X263520Y98600D01*
X263586Y98628D01*
X263642Y98673D01*
X263670Y98689D01*
X263685Y98707D01*
X263717Y98733D01*
X263763Y98779D01*
X268737Y98779D01*
X268962Y98554D01*
X268978Y98542D01*
X268990Y98527D01*
X269078Y98470D01*
X269161Y98410D01*
X269180Y98404D01*
X269197Y98394D01*
X269298Y98368D01*
X269397Y98338D01*
X269417Y98338D01*
X269436Y98334D01*
X269539Y98342D01*
X269642Y98344D01*
X269661Y98351D01*
X269681Y98353D01*
X269776Y98393D01*
X269873Y98429D01*
X269889Y98441D01*
X269907Y98449D01*
X270038Y98554D01*
X270263Y98779D01*
X275370Y98779D01*
X275460Y98793D01*
X275551Y98801D01*
X275581Y98813D01*
X275613Y98818D01*
X275694Y98861D01*
X275778Y98897D01*
X275810Y98923D01*
X275830Y98934D01*
X275853Y98957D01*
X275909Y99002D01*
X275940Y99033D01*
X276519Y99368D01*
X277166Y99541D01*
X278376Y99541D01*
X278376Y87113D01*
X278379Y87094D01*
X278377Y87074D01*
X278390Y87014D01*
X278376Y86887D01*
X278376Y74459D01*
X277166Y74459D01*
X276519Y74632D01*
X275940Y74967D01*
X275909Y74998D01*
X275835Y75051D01*
X275765Y75111D01*
X275735Y75123D01*
X275709Y75142D01*
X275622Y75169D01*
X275537Y75203D01*
X275496Y75207D01*
X275474Y75214D01*
X275442Y75213D01*
X275370Y75221D01*
X270263Y75221D01*
X270217Y75267D01*
X270159Y75309D01*
X270107Y75358D01*
X270060Y75380D01*
X270018Y75411D01*
X269949Y75432D01*
X269884Y75462D01*
X269832Y75468D01*
X269782Y75483D01*
X269711Y75481D01*
X269640Y75489D01*
X269589Y75478D01*
X269537Y75477D01*
X269469Y75452D01*
X269399Y75437D01*
X269354Y75410D01*
X269306Y75392D01*
X269250Y75348D01*
X269188Y75311D01*
X269154Y75271D01*
X269114Y75239D01*
X269075Y75178D01*
X269028Y75124D01*
X269009Y75075D01*
X268981Y75032D01*
X268963Y74962D01*
X268936Y74896D01*
X268928Y74824D01*
X268920Y74793D01*
X268922Y74770D01*
X268918Y74729D01*
X268918Y70145D01*
X265645Y66872D01*
X265576Y66777D01*
X265507Y66683D01*
X265505Y66677D01*
X265501Y66672D01*
X265467Y66561D01*
X265431Y66449D01*
X265431Y66443D01*
X265429Y66437D01*
X265432Y66321D01*
X265433Y66204D01*
X265435Y66196D01*
X265435Y66191D01*
X265442Y66174D01*
X265462Y66105D01*
X265462Y63914D01*
X264630Y61906D01*
X263094Y60370D01*
X261086Y59538D01*
X258914Y59538D01*
X256906Y60370D01*
X255370Y61906D01*
X254538Y63914D01*
X254538Y66086D01*
X255370Y68094D01*
X256906Y69630D01*
X258914Y70462D01*
X261120Y70462D01*
X261156Y70453D01*
X261270Y70425D01*
X261276Y70425D01*
X261282Y70424D01*
X261399Y70435D01*
X261515Y70444D01*
X261521Y70446D01*
X261527Y70447D01*
X261634Y70494D01*
X261741Y70540D01*
X261747Y70545D01*
X261752Y70547D01*
X261765Y70559D01*
X261872Y70645D01*
X263359Y72132D01*
X263412Y72206D01*
X263472Y72275D01*
X263484Y72306D01*
X263503Y72332D01*
X263530Y72419D01*
X263564Y72504D01*
X263568Y72545D01*
X263575Y72567D01*
X263574Y72599D01*
X263582Y72670D01*
X263582Y74729D01*
X263571Y74800D01*
X263569Y74871D01*
X263551Y74920D01*
X263543Y74972D01*
X263509Y75035D01*
X263484Y75102D01*
X263452Y75143D01*
X263427Y75189D01*
X263376Y75238D01*
X263331Y75294D01*
X263287Y75323D01*
X263249Y75358D01*
X263184Y75389D01*
X263124Y75427D01*
X263073Y75440D01*
X263026Y75462D01*
X262955Y75470D01*
X262885Y75487D01*
X262833Y75483D01*
X262782Y75489D01*
X262711Y75474D01*
X262640Y75468D01*
X262592Y75448D01*
X262541Y75437D01*
X262480Y75400D01*
X262414Y75372D01*
X262358Y75327D01*
X262330Y75311D01*
X262315Y75293D01*
X262283Y75267D01*
X262237Y75221D01*
X257263Y75221D01*
X257038Y75446D01*
X257022Y75458D01*
X257010Y75473D01*
X256923Y75529D01*
X256839Y75590D01*
X256820Y75596D01*
X256803Y75606D01*
X256702Y75632D01*
X256604Y75662D01*
X256584Y75662D01*
X256564Y75666D01*
X256461Y75658D01*
X256358Y75656D01*
X256339Y75649D01*
X256319Y75647D01*
X256224Y75607D01*
X256127Y75571D01*
X256111Y75559D01*
X256093Y75551D01*
X255962Y75446D01*
X255737Y75221D01*
X250763Y75221D01*
X250538Y75446D01*
X250522Y75458D01*
X250510Y75473D01*
X250423Y75529D01*
X250339Y75590D01*
X250320Y75596D01*
X250303Y75606D01*
X250202Y75632D01*
X250104Y75662D01*
X250084Y75662D01*
X250064Y75666D01*
X249961Y75658D01*
X249858Y75656D01*
X249839Y75649D01*
X249819Y75647D01*
X249724Y75607D01*
X249627Y75571D01*
X249611Y75559D01*
X249593Y75551D01*
X249462Y75446D01*
X249237Y75221D01*
X244263Y75221D01*
X244038Y75446D01*
X244022Y75458D01*
X244010Y75473D01*
X243923Y75529D01*
X243839Y75590D01*
X243820Y75596D01*
X243803Y75606D01*
X243702Y75632D01*
X243604Y75662D01*
X243584Y75662D01*
X243564Y75666D01*
X243461Y75658D01*
X243358Y75656D01*
X243339Y75649D01*
X243319Y75647D01*
X243224Y75607D01*
X243127Y75571D01*
X243111Y75559D01*
X243093Y75551D01*
X242962Y75446D01*
X242737Y75221D01*
X237763Y75221D01*
X237538Y75446D01*
X237522Y75458D01*
X237510Y75473D01*
X237423Y75529D01*
X237339Y75590D01*
X237320Y75596D01*
X237303Y75606D01*
X237202Y75632D01*
X237104Y75662D01*
X237084Y75662D01*
X237064Y75666D01*
X236961Y75658D01*
X236858Y75656D01*
X236839Y75649D01*
X236819Y75647D01*
X236724Y75607D01*
X236627Y75571D01*
X236611Y75559D01*
X236593Y75551D01*
X236462Y75446D01*
X236237Y75221D01*
X231263Y75221D01*
X231038Y75446D01*
X231022Y75458D01*
X231010Y75473D01*
X230922Y75530D01*
X230839Y75590D01*
X230820Y75596D01*
X230803Y75606D01*
X230702Y75632D01*
X230603Y75662D01*
X230583Y75662D01*
X230564Y75666D01*
X230461Y75658D01*
X230358Y75656D01*
X230339Y75649D01*
X230319Y75647D01*
X230224Y75607D01*
X230127Y75571D01*
X230111Y75559D01*
X230093Y75551D01*
X229962Y75446D01*
X229737Y75221D01*
X224763Y75221D01*
X224538Y75446D01*
X224522Y75458D01*
X224510Y75473D01*
X224423Y75529D01*
X224339Y75590D01*
X224320Y75596D01*
X224303Y75606D01*
X224202Y75632D01*
X224104Y75662D01*
X224084Y75662D01*
X224064Y75666D01*
X223961Y75658D01*
X223858Y75656D01*
X223839Y75649D01*
X223819Y75647D01*
X223724Y75607D01*
X223627Y75571D01*
X223611Y75559D01*
X223593Y75551D01*
X223462Y75446D01*
X223237Y75221D01*
X218263Y75221D01*
X218038Y75446D01*
X218022Y75458D01*
X218010Y75473D01*
X217923Y75529D01*
X217839Y75590D01*
X217820Y75596D01*
X217803Y75606D01*
X217702Y75632D01*
X217604Y75662D01*
X217584Y75662D01*
X217564Y75666D01*
X217461Y75658D01*
X217358Y75656D01*
X217339Y75649D01*
X217319Y75647D01*
X217224Y75607D01*
X217127Y75571D01*
X217111Y75559D01*
X217093Y75551D01*
X216962Y75446D01*
X216737Y75221D01*
X211763Y75221D01*
X211538Y75446D01*
X211522Y75458D01*
X211510Y75473D01*
X211423Y75529D01*
X211339Y75590D01*
X211320Y75596D01*
X211303Y75606D01*
X211202Y75632D01*
X211104Y75662D01*
X211084Y75662D01*
X211064Y75666D01*
X210961Y75658D01*
X210858Y75656D01*
X210839Y75649D01*
X210819Y75647D01*
X210724Y75607D01*
X210627Y75571D01*
X210611Y75559D01*
X210593Y75551D01*
X210462Y75446D01*
X210237Y75221D01*
X205263Y75221D01*
X205038Y75446D01*
X205022Y75458D01*
X205010Y75473D01*
X204923Y75529D01*
X204839Y75590D01*
X204820Y75596D01*
X204803Y75606D01*
X204702Y75632D01*
X204604Y75662D01*
X204584Y75662D01*
X204564Y75666D01*
X204461Y75658D01*
X204358Y75656D01*
X204339Y75649D01*
X204319Y75647D01*
X204224Y75607D01*
X204127Y75571D01*
X204111Y75559D01*
X204093Y75551D01*
X203962Y75446D01*
X203737Y75221D01*
X198763Y75221D01*
X198538Y75446D01*
X198522Y75458D01*
X198510Y75473D01*
X198423Y75529D01*
X198339Y75590D01*
X198320Y75596D01*
X198303Y75606D01*
X198202Y75632D01*
X198104Y75662D01*
X198084Y75662D01*
X198064Y75666D01*
X197961Y75658D01*
X197858Y75656D01*
X197839Y75649D01*
X197819Y75647D01*
X197724Y75607D01*
X197627Y75571D01*
X197611Y75559D01*
X197593Y75551D01*
X197462Y75446D01*
X197237Y75221D01*
X192263Y75221D01*
X192217Y75267D01*
X192159Y75309D01*
X192107Y75358D01*
X192060Y75380D01*
X192018Y75411D01*
X191949Y75432D01*
X191884Y75462D01*
X191832Y75468D01*
X191782Y75483D01*
X191711Y75481D01*
X191640Y75489D01*
X191589Y75478D01*
X191537Y75477D01*
X191469Y75452D01*
X191399Y75437D01*
X191354Y75410D01*
X191306Y75392D01*
X191250Y75348D01*
X191188Y75311D01*
X191154Y75271D01*
X191114Y75239D01*
X191075Y75178D01*
X191028Y75124D01*
X191009Y75075D01*
X190981Y75032D01*
X190963Y74962D01*
X190936Y74896D01*
X190928Y74824D01*
X190920Y74793D01*
X190922Y74770D01*
X190918Y74729D01*
X190918Y71040D01*
X190937Y70926D01*
X190954Y70809D01*
X190956Y70804D01*
X190957Y70797D01*
X191012Y70695D01*
X191065Y70590D01*
X191070Y70586D01*
X191073Y70580D01*
X191157Y70500D01*
X191241Y70418D01*
X191247Y70414D01*
X191251Y70411D01*
X191268Y70403D01*
X191388Y70337D01*
X193094Y69630D01*
X194630Y68094D01*
X195462Y66086D01*
X195462Y63914D01*
X194630Y61906D01*
X193094Y60370D01*
X191086Y59538D01*
X188914Y59538D01*
X186906Y60370D01*
X185370Y61906D01*
X184538Y63914D01*
X184538Y66086D01*
X184968Y67124D01*
X184990Y67219D01*
X185019Y67312D01*
X185018Y67338D01*
X185024Y67364D01*
X185015Y67460D01*
X185013Y67558D01*
X185004Y67583D01*
X185001Y67609D01*
X184962Y67697D01*
X184928Y67789D01*
X184912Y67809D01*
X184901Y67833D01*
X184835Y67905D01*
X184775Y67981D01*
X184753Y67995D01*
X184735Y68014D01*
X184649Y68061D01*
X184568Y68114D01*
X184542Y68120D01*
X184519Y68133D01*
X184423Y68150D01*
X184329Y68174D01*
X184303Y68172D01*
X184277Y68177D01*
X184181Y68163D01*
X184084Y68155D01*
X184060Y68145D01*
X184034Y68141D01*
X183947Y68097D01*
X183858Y68059D01*
X183832Y68038D01*
X183815Y68029D01*
X183792Y68006D01*
X183727Y67954D01*
X182645Y66872D01*
X182576Y66777D01*
X182507Y66683D01*
X182505Y66677D01*
X182501Y66672D01*
X182467Y66561D01*
X182431Y66449D01*
X182431Y66443D01*
X182429Y66437D01*
X182432Y66321D01*
X182433Y66204D01*
X182435Y66196D01*
X182435Y66191D01*
X182442Y66174D01*
X182462Y66105D01*
X182462Y63914D01*
X181630Y61906D01*
X180094Y60370D01*
X178086Y59538D01*
X175914Y59538D01*
X173906Y60370D01*
X172370Y61906D01*
X171538Y63914D01*
X171538Y64928D01*
X171527Y64998D01*
X171525Y65070D01*
X171507Y65119D01*
X171499Y65170D01*
X171465Y65234D01*
X171440Y65301D01*
X171408Y65342D01*
X171383Y65388D01*
X171331Y65437D01*
X171287Y65493D01*
X171243Y65521D01*
X171205Y65557D01*
X171140Y65587D01*
X171080Y65626D01*
X171029Y65639D01*
X170982Y65661D01*
X170911Y65669D01*
X170841Y65686D01*
X170789Y65682D01*
X170738Y65688D01*
X170667Y65673D01*
X170596Y65667D01*
X170548Y65647D01*
X170497Y65636D01*
X170436Y65599D01*
X170370Y65571D01*
X170314Y65526D01*
X170286Y65510D01*
X170271Y65492D01*
X170239Y65466D01*
X169105Y64332D01*
X145315Y64332D01*
X145200Y64313D01*
X145084Y64296D01*
X145079Y64294D01*
X145073Y64293D01*
X144970Y64238D01*
X144865Y64185D01*
X144861Y64180D01*
X144855Y64177D01*
X144775Y64093D01*
X144693Y64009D01*
X144689Y64003D01*
X144686Y63999D01*
X144678Y63982D01*
X144644Y63919D01*
X143094Y62370D01*
X141086Y61538D01*
X138914Y61538D01*
X136906Y62370D01*
X135370Y63906D01*
X134538Y65914D01*
X134538Y68086D01*
X135370Y70094D01*
X136906Y71630D01*
X138914Y72462D01*
X141086Y72462D01*
X143094Y71630D01*
X144654Y70070D01*
X144673Y70039D01*
X144734Y69938D01*
X144738Y69934D01*
X144742Y69929D01*
X144831Y69854D01*
X144921Y69778D01*
X144926Y69776D01*
X144931Y69772D01*
X145040Y69730D01*
X145149Y69686D01*
X145156Y69685D01*
X145161Y69684D01*
X145179Y69683D01*
X145315Y69668D01*
X166580Y69668D01*
X166670Y69682D01*
X166761Y69690D01*
X166790Y69702D01*
X166822Y69707D01*
X166903Y69750D01*
X166987Y69786D01*
X167019Y69812D01*
X167040Y69823D01*
X167062Y69846D01*
X167118Y69891D01*
X170387Y73160D01*
X170429Y73218D01*
X170478Y73270D01*
X170500Y73317D01*
X170531Y73359D01*
X170552Y73428D01*
X170582Y73493D01*
X170588Y73545D01*
X170603Y73595D01*
X170601Y73666D01*
X170609Y73737D01*
X170598Y73788D01*
X170597Y73840D01*
X170572Y73908D01*
X170557Y73978D01*
X170530Y74023D01*
X170512Y74071D01*
X170467Y74127D01*
X170431Y74189D01*
X170391Y74223D01*
X170358Y74263D01*
X170298Y74302D01*
X170244Y74349D01*
X170195Y74368D01*
X170151Y74396D01*
X170082Y74414D01*
X170015Y74441D01*
X169944Y74449D01*
X169913Y74457D01*
X169890Y74455D01*
X169849Y74459D01*
X169624Y74459D01*
X169624Y86887D01*
X169621Y86906D01*
X169623Y86926D01*
X169610Y86986D01*
X169624Y87113D01*
X169624Y99541D01*
X170834Y99541D01*
X171481Y99368D01*
X172060Y99033D01*
X172091Y99002D01*
X172165Y98949D01*
X172235Y98889D01*
X172265Y98877D01*
X172291Y98858D01*
X172378Y98831D01*
X172463Y98797D01*
X172504Y98793D01*
X172526Y98786D01*
X172558Y98787D01*
X172630Y98779D01*
X177737Y98779D01*
X177962Y98554D01*
X177978Y98542D01*
X177990Y98527D01*
X178078Y98470D01*
X178161Y98410D01*
X178180Y98404D01*
X178197Y98394D01*
X178298Y98368D01*
X178397Y98338D01*
X178417Y98338D01*
X178436Y98334D01*
X178539Y98342D01*
X178642Y98344D01*
X178661Y98351D01*
X178681Y98353D01*
X178776Y98393D01*
X178873Y98429D01*
X178889Y98441D01*
X178907Y98449D01*
X179038Y98554D01*
X179263Y98779D01*
X184237Y98779D01*
X184462Y98554D01*
X184478Y98542D01*
X184490Y98527D01*
X184578Y98470D01*
X184661Y98410D01*
X184680Y98404D01*
X184697Y98394D01*
X184798Y98368D01*
X184897Y98338D01*
X184917Y98338D01*
X184936Y98334D01*
X185039Y98342D01*
X185142Y98344D01*
X185161Y98351D01*
X185181Y98353D01*
X185276Y98393D01*
X185373Y98429D01*
X185389Y98441D01*
X185407Y98449D01*
X185538Y98554D01*
X185763Y98779D01*
X190737Y98779D01*
X190962Y98554D01*
X190978Y98542D01*
X190990Y98527D01*
X191078Y98470D01*
X191161Y98410D01*
X191180Y98404D01*
X191197Y98394D01*
X191298Y98368D01*
X191397Y98338D01*
X191417Y98338D01*
X191436Y98334D01*
X191539Y98342D01*
X191642Y98344D01*
X191661Y98351D01*
X191681Y98353D01*
X191776Y98393D01*
X191873Y98429D01*
X191889Y98441D01*
X191907Y98449D01*
X192038Y98554D01*
X192263Y98779D01*
X197237Y98779D01*
X197462Y98554D01*
X197478Y98542D01*
X197490Y98527D01*
X197578Y98470D01*
X197661Y98410D01*
X197680Y98404D01*
X197697Y98394D01*
X197798Y98368D01*
X197897Y98338D01*
X197917Y98338D01*
X197936Y98334D01*
X198039Y98342D01*
X198142Y98344D01*
X198161Y98351D01*
X198181Y98353D01*
X198276Y98393D01*
X198373Y98429D01*
X198389Y98441D01*
X198407Y98449D01*
X198538Y98554D01*
X198763Y98779D01*
X203737Y98779D01*
X203962Y98554D01*
X203978Y98542D01*
X203990Y98527D01*
X204078Y98470D01*
X204161Y98410D01*
X204180Y98404D01*
X204197Y98394D01*
X204298Y98368D01*
X204397Y98338D01*
X204417Y98338D01*
X204436Y98334D01*
X204539Y98342D01*
X204642Y98344D01*
X204661Y98351D01*
X204681Y98353D01*
X204776Y98393D01*
X204873Y98429D01*
X204889Y98441D01*
X204907Y98449D01*
X205038Y98554D01*
X205263Y98779D01*
X210237Y98779D01*
X210462Y98554D01*
X210478Y98542D01*
X210490Y98527D01*
X210578Y98470D01*
X210661Y98410D01*
X210680Y98404D01*
X210697Y98394D01*
X210798Y98368D01*
X210897Y98338D01*
X210917Y98338D01*
X210936Y98334D01*
X211039Y98342D01*
X211142Y98344D01*
X211161Y98351D01*
X211181Y98353D01*
X211276Y98393D01*
X211373Y98429D01*
X211389Y98441D01*
X211407Y98449D01*
X211538Y98554D01*
X211763Y98779D01*
X216737Y98779D01*
X216962Y98554D01*
X216978Y98542D01*
X216990Y98527D01*
X217078Y98470D01*
X217161Y98410D01*
X217180Y98404D01*
X217197Y98394D01*
X217298Y98368D01*
X217397Y98338D01*
X217417Y98338D01*
X217436Y98334D01*
X217539Y98342D01*
X217642Y98344D01*
X217661Y98351D01*
X217681Y98353D01*
X217776Y98393D01*
X217873Y98429D01*
X217889Y98441D01*
X217907Y98449D01*
X218038Y98554D01*
X218263Y98779D01*
X223237Y98779D01*
X223283Y98733D01*
X223341Y98691D01*
X223393Y98642D01*
X223440Y98620D01*
X223482Y98589D01*
X223551Y98568D01*
X223616Y98538D01*
X223668Y98532D01*
X223718Y98517D01*
X223789Y98519D01*
X223860Y98511D01*
X223911Y98522D01*
X223963Y98523D01*
X224031Y98548D01*
X224101Y98563D01*
X224146Y98590D01*
X224194Y98608D01*
X224250Y98652D01*
X224312Y98689D01*
X224346Y98729D01*
X224386Y98761D01*
X224425Y98822D01*
X224472Y98876D01*
X224491Y98925D01*
X224519Y98968D01*
X224537Y99038D01*
X224564Y99104D01*
X224572Y99176D01*
X224580Y99207D01*
X224578Y99230D01*
X224582Y99271D01*
X224582Y111105D01*
X226368Y112891D01*
X228145Y114668D01*
X230321Y114668D01*
X230341Y114671D01*
X230360Y114669D01*
X230462Y114691D01*
X230564Y114707D01*
X230581Y114717D01*
X230601Y114721D01*
X230690Y114774D01*
X230781Y114823D01*
X230795Y114837D01*
X230812Y114847D01*
X230879Y114926D01*
X230951Y115001D01*
X230959Y115019D01*
X230972Y115034D01*
X231011Y115130D01*
X231054Y115224D01*
X231056Y115244D01*
X231064Y115262D01*
X231082Y115429D01*
X231082Y144374D01*
X231063Y144489D01*
X231046Y144605D01*
X231044Y144611D01*
X231043Y144617D01*
X230988Y144719D01*
X230935Y144824D01*
X230930Y144829D01*
X230927Y144834D01*
X230843Y144914D01*
X230759Y144996D01*
X230753Y145000D01*
X230749Y145003D01*
X230732Y145011D01*
X230701Y145029D01*
X230695Y145033D01*
X230684Y145038D01*
X230612Y145077D01*
X229906Y145370D01*
X228370Y146906D01*
X227538Y148914D01*
X227538Y151086D01*
X228370Y153094D01*
X229906Y154630D01*
X231914Y155462D01*
X233928Y155462D01*
X233998Y155473D01*
X234070Y155475D01*
X234119Y155493D01*
X234170Y155501D01*
X234234Y155535D01*
X234301Y155560D01*
X234342Y155592D01*
X234388Y155617D01*
X234437Y155668D01*
X234493Y155713D01*
X234521Y155757D01*
X234557Y155795D01*
X234587Y155860D01*
X234626Y155920D01*
X234639Y155971D01*
X234661Y156018D01*
X234669Y156089D01*
X234686Y156159D01*
X234682Y156211D01*
X234688Y156262D01*
X234673Y156333D01*
X234667Y156404D01*
X234647Y156452D01*
X234636Y156503D01*
X234599Y156564D01*
X234571Y156630D01*
X234526Y156686D01*
X234510Y156714D01*
X234492Y156729D01*
X234466Y156761D01*
X234118Y157109D01*
X234044Y157162D01*
X233975Y157222D01*
X233944Y157234D01*
X233918Y157253D01*
X233831Y157280D01*
X233746Y157314D01*
X233705Y157318D01*
X233683Y157325D01*
X233651Y157324D01*
X233580Y157332D01*
X157895Y157332D01*
X150332Y164895D01*
X150332Y195685D01*
X150313Y195800D01*
X150296Y195916D01*
X150294Y195921D01*
X150293Y195927D01*
X150238Y196030D01*
X150185Y196135D01*
X150180Y196139D01*
X150177Y196145D01*
X150093Y196225D01*
X150009Y196307D01*
X150003Y196311D01*
X149999Y196314D01*
X149982Y196322D01*
X149919Y196356D01*
X148370Y197906D01*
X147538Y199914D01*
X147538Y202086D01*
X148178Y203630D01*
X148188Y203674D01*
X148207Y203716D01*
X148216Y203793D01*
X148234Y203869D01*
X148229Y203915D01*
X148234Y203960D01*
X148218Y204037D01*
X148211Y204114D01*
X148192Y204156D01*
X148182Y204201D01*
X148142Y204268D01*
X148111Y204339D01*
X148080Y204373D01*
X148056Y204412D01*
X147997Y204463D01*
X147944Y204520D01*
X147904Y204542D01*
X147869Y204572D01*
X147797Y204601D01*
X147729Y204638D01*
X147684Y204647D01*
X147641Y204664D01*
X147505Y204679D01*
X147487Y204682D01*
X147482Y204681D01*
X147474Y204682D01*
X129790Y204682D01*
X129700Y204668D01*
X129609Y204660D01*
X129579Y204648D01*
X129547Y204643D01*
X129467Y204600D01*
X129383Y204564D01*
X129351Y204538D01*
X129330Y204527D01*
X129308Y204504D01*
X129252Y204459D01*
X124775Y199982D01*
X105315Y199982D01*
X105200Y199963D01*
X105084Y199946D01*
X105079Y199944D01*
X105073Y199943D01*
X104970Y199888D01*
X104865Y199835D01*
X104861Y199830D01*
X104855Y199827D01*
X104775Y199743D01*
X104693Y199659D01*
X104689Y199653D01*
X104686Y199649D01*
X104678Y199632D01*
X104644Y199569D01*
X103094Y198020D01*
X101086Y197188D01*
X98914Y197188D01*
X96906Y198020D01*
X95370Y199556D01*
X94538Y201564D01*
X94538Y203736D01*
X95178Y205280D01*
X95188Y205324D01*
X95207Y205366D01*
X95216Y205443D01*
X95234Y205519D01*
X95229Y205565D01*
X95234Y205610D01*
X95218Y205687D01*
X95211Y205764D01*
X95192Y205806D01*
X95182Y205851D01*
X95142Y205918D01*
X95111Y205989D01*
X95080Y206023D01*
X95056Y206062D01*
X94997Y206113D01*
X94944Y206170D01*
X94904Y206192D01*
X94869Y206222D01*
X94797Y206251D01*
X94729Y206288D01*
X94684Y206297D01*
X94641Y206314D01*
X94505Y206329D01*
X94487Y206332D01*
X94482Y206331D01*
X94474Y206332D01*
X74372Y206332D01*
X74282Y206318D01*
X74191Y206310D01*
X74161Y206298D01*
X74129Y206293D01*
X74048Y206250D01*
X73964Y206214D01*
X73932Y206188D01*
X73912Y206177D01*
X73889Y206154D01*
X73833Y206109D01*
X73094Y205370D01*
X71086Y204538D01*
X68914Y204538D01*
X66906Y205370D01*
X65370Y206906D01*
X64538Y208914D01*
X64538Y211086D01*
X65370Y213094D01*
X66906Y214630D01*
X68914Y215462D01*
X71086Y215462D01*
X73094Y214630D01*
X74630Y213094D01*
X75026Y212138D01*
X75088Y212038D01*
X75148Y211938D01*
X75153Y211934D01*
X75156Y211929D01*
X75246Y211854D01*
X75335Y211778D01*
X75341Y211776D01*
X75345Y211772D01*
X75454Y211730D01*
X75563Y211686D01*
X75570Y211685D01*
X75575Y211684D01*
X75593Y211683D01*
X75730Y211668D01*
X123570Y211668D01*
X123660Y211682D01*
X123751Y211690D01*
X123781Y211702D01*
X123813Y211707D01*
X123894Y211750D01*
X123978Y211786D01*
X124010Y211812D01*
X124030Y211823D01*
X124053Y211846D01*
X124109Y211891D01*
X125792Y213574D01*
X194208Y213574D01*
X195994Y211788D01*
X196672Y211110D01*
X196730Y211068D01*
X196782Y211019D01*
X196829Y210997D01*
X196871Y210967D01*
X196940Y210946D01*
X197005Y210915D01*
X197057Y210910D01*
X197107Y210894D01*
X197178Y210896D01*
X197249Y210888D01*
X197300Y210899D01*
X197352Y210901D01*
X197420Y210925D01*
X197490Y210941D01*
X197535Y210967D01*
X197583Y210985D01*
X197639Y211030D01*
X197701Y211067D01*
X197735Y211106D01*
X197775Y211139D01*
X197814Y211199D01*
X197861Y211254D01*
X197880Y211302D01*
X197908Y211346D01*
X197926Y211415D01*
X197953Y211482D01*
X197961Y211553D01*
X197969Y211584D01*
X197967Y211608D01*
X197971Y211649D01*
X197971Y217210D01*
X197968Y217230D01*
X197970Y217249D01*
X197948Y217351D01*
X197932Y217453D01*
X197922Y217470D01*
X197918Y217490D01*
X197865Y217579D01*
X197816Y217670D01*
X197802Y217684D01*
X197792Y217701D01*
X197713Y217768D01*
X197638Y217840D01*
X197620Y217848D01*
X197605Y217861D01*
X197509Y217900D01*
X197415Y217943D01*
X197395Y217945D01*
X197377Y217953D01*
X197210Y217971D01*
X2790Y217971D01*
X2770Y217968D01*
X2751Y217970D01*
X2649Y217948D01*
X2547Y217932D01*
X2530Y217922D01*
X2510Y217918D01*
X2421Y217865D01*
X2330Y217816D01*
X2316Y217802D01*
X2299Y217792D01*
X2232Y217713D01*
X2160Y217638D01*
X2152Y217620D01*
X2139Y217605D01*
X2100Y217509D01*
X2057Y217415D01*
X2055Y217395D01*
X2047Y217377D01*
X2029Y217210D01*
X2029Y12296D01*
X2044Y12200D01*
X2054Y12103D01*
X2064Y12079D01*
X2068Y12054D01*
X2114Y11968D01*
X2154Y11879D01*
X2171Y11859D01*
X2184Y11836D01*
X2254Y11769D01*
X2320Y11697D01*
X2343Y11685D01*
X2362Y11667D01*
X2450Y11626D01*
X2536Y11579D01*
X2561Y11574D01*
X2585Y11563D01*
X2682Y11552D01*
X2778Y11535D01*
X2804Y11539D01*
X2829Y11536D01*
X2925Y11557D01*
X3021Y11571D01*
X3044Y11583D01*
X3070Y11588D01*
X3153Y11638D01*
X3240Y11682D01*
X3259Y11701D01*
X3281Y11715D01*
X3344Y11788D01*
X3412Y11858D01*
X3428Y11887D01*
X3441Y11901D01*
X3453Y11932D01*
X3493Y12005D01*
X4253Y13840D01*
X6160Y15747D01*
X8652Y16779D01*
X11348Y16779D01*
X13840Y15747D01*
X15747Y13840D01*
X16779Y11348D01*
X16779Y8652D01*
X15747Y6160D01*
X13840Y4253D01*
X12005Y3493D01*
X11922Y3442D01*
X11836Y3396D01*
X11818Y3378D01*
X11796Y3364D01*
X11734Y3288D01*
X11667Y3218D01*
X11656Y3194D01*
X11639Y3174D01*
X11604Y3083D01*
X11563Y2995D01*
X11560Y2969D01*
X11551Y2945D01*
X11547Y2847D01*
X11536Y2751D01*
X11542Y2725D01*
X11541Y2699D01*
X11568Y2605D01*
X11588Y2510D01*
X11602Y2488D01*
X11609Y2463D01*
X11665Y2383D01*
X11715Y2299D01*
X11734Y2282D01*
X11749Y2261D01*
X11827Y2202D01*
X11901Y2139D01*
X11926Y2129D01*
X11947Y2114D01*
X12039Y2084D01*
X12130Y2047D01*
X12162Y2044D01*
X12181Y2038D01*
X12214Y2038D01*
X12296Y2029D01*
X497210Y2029D01*
X497230Y2032D01*
G37*
%LPC*%
G36*
X388914Y24538D02*
X388914Y24538D01*
X386906Y25370D01*
X385802Y26474D01*
X385728Y26527D01*
X385658Y26587D01*
X385628Y26599D01*
X385602Y26618D01*
X385515Y26645D01*
X385430Y26679D01*
X385389Y26683D01*
X385367Y26690D01*
X385335Y26689D01*
X385263Y26697D01*
X330632Y26697D01*
X303855Y53474D01*
X303781Y53527D01*
X303712Y53587D01*
X303681Y53599D01*
X303655Y53618D01*
X303568Y53645D01*
X303483Y53679D01*
X303442Y53683D01*
X303420Y53690D01*
X303388Y53689D01*
X303317Y53697D01*
X284737Y53697D01*
X284647Y53683D01*
X284556Y53675D01*
X284526Y53663D01*
X284494Y53658D01*
X284413Y53615D01*
X284329Y53579D01*
X284297Y53553D01*
X284277Y53542D01*
X284254Y53519D01*
X284198Y53474D01*
X283094Y52370D01*
X281086Y51538D01*
X279524Y51538D01*
X279434Y51524D01*
X279343Y51516D01*
X279314Y51504D01*
X279282Y51499D01*
X279201Y51456D01*
X279117Y51420D01*
X279085Y51394D01*
X279064Y51383D01*
X279042Y51360D01*
X278986Y51315D01*
X270066Y42395D01*
X161857Y42395D01*
X161778Y42474D01*
X161704Y42527D01*
X161635Y42587D01*
X161605Y42599D01*
X161579Y42618D01*
X161492Y42645D01*
X161407Y42679D01*
X161366Y42683D01*
X161343Y42690D01*
X161311Y42689D01*
X161240Y42697D01*
X144632Y42697D01*
X116697Y70632D01*
X116697Y141368D01*
X124315Y148986D01*
X124368Y149060D01*
X124428Y149129D01*
X124440Y149160D01*
X124459Y149186D01*
X124486Y149273D01*
X124520Y149358D01*
X124524Y149399D01*
X124531Y149421D01*
X124530Y149453D01*
X124538Y149524D01*
X124538Y151086D01*
X125370Y153094D01*
X126906Y154630D01*
X128914Y155462D01*
X131086Y155462D01*
X133094Y154630D01*
X134630Y153094D01*
X135462Y151086D01*
X135462Y148914D01*
X134630Y146906D01*
X133094Y145370D01*
X131086Y144538D01*
X129524Y144538D01*
X129434Y144524D01*
X129343Y144516D01*
X129314Y144504D01*
X129282Y144499D01*
X129201Y144456D01*
X129117Y144420D01*
X129085Y144394D01*
X129064Y144383D01*
X129042Y144360D01*
X128986Y144315D01*
X123526Y138855D01*
X123473Y138781D01*
X123413Y138712D01*
X123401Y138681D01*
X123382Y138655D01*
X123355Y138568D01*
X123321Y138483D01*
X123317Y138442D01*
X123310Y138420D01*
X123311Y138388D01*
X123303Y138317D01*
X123303Y73683D01*
X123317Y73593D01*
X123325Y73502D01*
X123337Y73473D01*
X123342Y73441D01*
X123385Y73360D01*
X123421Y73276D01*
X123447Y73244D01*
X123458Y73223D01*
X123481Y73201D01*
X123526Y73145D01*
X147145Y49526D01*
X147219Y49473D01*
X147288Y49413D01*
X147319Y49401D01*
X147345Y49382D01*
X147432Y49355D01*
X147517Y49321D01*
X147558Y49317D01*
X147580Y49310D01*
X147612Y49311D01*
X147683Y49303D01*
X160387Y49303D01*
X160433Y49310D01*
X160478Y49308D01*
X160553Y49330D01*
X160630Y49342D01*
X160671Y49364D01*
X160715Y49377D01*
X160779Y49421D01*
X160847Y49458D01*
X160879Y49491D01*
X160917Y49517D01*
X160963Y49579D01*
X161017Y49636D01*
X161036Y49678D01*
X161064Y49714D01*
X161088Y49788D01*
X161120Y49859D01*
X161126Y49905D01*
X161140Y49948D01*
X161139Y50026D01*
X161148Y50103D01*
X161138Y50148D01*
X161137Y50194D01*
X161099Y50326D01*
X161095Y50344D01*
X161093Y50348D01*
X161091Y50355D01*
X160471Y51851D01*
X160471Y54149D01*
X161351Y56273D01*
X162977Y57899D01*
X165101Y58779D01*
X167399Y58779D01*
X169523Y57899D01*
X171149Y56273D01*
X172029Y54149D01*
X172029Y51851D01*
X171284Y50053D01*
X171274Y50009D01*
X171254Y49967D01*
X171246Y49890D01*
X171228Y49814D01*
X171232Y49768D01*
X171227Y49723D01*
X171244Y49646D01*
X171251Y49569D01*
X171270Y49527D01*
X171280Y49482D01*
X171320Y49415D01*
X171351Y49344D01*
X171382Y49310D01*
X171406Y49271D01*
X171465Y49220D01*
X171518Y49163D01*
X171558Y49141D01*
X171593Y49111D01*
X171665Y49082D01*
X171733Y49045D01*
X171778Y49036D01*
X171821Y49019D01*
X171957Y49004D01*
X171975Y49001D01*
X171980Y49002D01*
X171988Y49001D01*
X267015Y49001D01*
X267105Y49015D01*
X267196Y49023D01*
X267225Y49035D01*
X267257Y49040D01*
X267338Y49083D01*
X267422Y49119D01*
X267454Y49145D01*
X267475Y49156D01*
X267497Y49179D01*
X267553Y49224D01*
X274315Y55986D01*
X274368Y56060D01*
X274428Y56129D01*
X274440Y56160D01*
X274459Y56186D01*
X274486Y56273D01*
X274520Y56358D01*
X274524Y56399D01*
X274531Y56421D01*
X274530Y56453D01*
X274538Y56524D01*
X274538Y58086D01*
X275370Y60094D01*
X276906Y61630D01*
X278914Y62462D01*
X281086Y62462D01*
X281395Y62334D01*
X281439Y62324D01*
X281481Y62304D01*
X281558Y62296D01*
X281634Y62278D01*
X281680Y62282D01*
X281725Y62277D01*
X281802Y62294D01*
X281879Y62301D01*
X281921Y62320D01*
X281966Y62329D01*
X282033Y62369D01*
X282104Y62401D01*
X282138Y62432D01*
X282177Y62456D01*
X282228Y62515D01*
X282285Y62567D01*
X282307Y62607D01*
X282337Y62642D01*
X282366Y62715D01*
X282403Y62783D01*
X282412Y62828D01*
X282429Y62871D01*
X282444Y63006D01*
X282447Y63025D01*
X282446Y63030D01*
X282447Y63037D01*
X282447Y73765D01*
X282428Y73882D01*
X282410Y74000D01*
X282408Y74004D01*
X282408Y74008D01*
X282352Y74112D01*
X282297Y74219D01*
X282294Y74222D01*
X282292Y74225D01*
X282206Y74307D01*
X282121Y74390D01*
X282117Y74392D01*
X282114Y74395D01*
X282006Y74445D01*
X281899Y74496D01*
X281895Y74497D01*
X281891Y74498D01*
X281773Y74512D01*
X281655Y74526D01*
X281650Y74525D01*
X281647Y74526D01*
X281633Y74523D01*
X281489Y74501D01*
X281334Y74459D01*
X280124Y74459D01*
X280124Y86887D01*
X280121Y86906D01*
X280123Y86926D01*
X280110Y86986D01*
X280124Y87113D01*
X280124Y99541D01*
X281334Y99541D01*
X281981Y99368D01*
X282560Y99033D01*
X282591Y99002D01*
X282665Y98949D01*
X282735Y98889D01*
X282765Y98877D01*
X282791Y98858D01*
X282878Y98831D01*
X282963Y98797D01*
X283004Y98793D01*
X283026Y98786D01*
X283058Y98787D01*
X283130Y98779D01*
X288237Y98779D01*
X288462Y98554D01*
X288478Y98542D01*
X288490Y98527D01*
X288578Y98470D01*
X288661Y98410D01*
X288680Y98404D01*
X288697Y98394D01*
X288798Y98368D01*
X288897Y98338D01*
X288917Y98338D01*
X288936Y98334D01*
X289039Y98342D01*
X289142Y98344D01*
X289161Y98351D01*
X289181Y98353D01*
X289276Y98393D01*
X289373Y98429D01*
X289389Y98441D01*
X289407Y98449D01*
X289538Y98554D01*
X289763Y98779D01*
X294870Y98779D01*
X294960Y98793D01*
X295051Y98801D01*
X295081Y98813D01*
X295113Y98818D01*
X295194Y98861D01*
X295278Y98897D01*
X295310Y98923D01*
X295330Y98934D01*
X295353Y98957D01*
X295409Y99002D01*
X295440Y99033D01*
X296019Y99368D01*
X296666Y99541D01*
X297876Y99541D01*
X297876Y87113D01*
X297879Y87094D01*
X297877Y87074D01*
X297890Y87014D01*
X297876Y86887D01*
X297876Y74459D01*
X296666Y74459D01*
X296511Y74501D01*
X296392Y74513D01*
X296275Y74526D01*
X296270Y74525D01*
X296266Y74525D01*
X296151Y74499D01*
X296034Y74473D01*
X296031Y74471D01*
X296027Y74470D01*
X295925Y74408D01*
X295823Y74347D01*
X295820Y74344D01*
X295817Y74342D01*
X295740Y74251D01*
X295663Y74160D01*
X295662Y74156D01*
X295659Y74153D01*
X295616Y74043D01*
X295571Y73932D01*
X295571Y73927D01*
X295569Y73924D01*
X295569Y73910D01*
X295553Y73765D01*
X295553Y67760D01*
X295541Y67748D01*
X295488Y67674D01*
X295428Y67605D01*
X295416Y67575D01*
X295397Y67548D01*
X295370Y67462D01*
X295336Y67377D01*
X295332Y67336D01*
X295325Y67313D01*
X295326Y67281D01*
X295318Y67210D01*
X295318Y64790D01*
X295332Y64700D01*
X295340Y64609D01*
X295352Y64579D01*
X295357Y64547D01*
X295400Y64467D01*
X295436Y64383D01*
X295462Y64350D01*
X295473Y64330D01*
X295496Y64308D01*
X295541Y64252D01*
X295553Y64240D01*
X295553Y61064D01*
X295556Y61044D01*
X295554Y61025D01*
X295576Y60923D01*
X295592Y60821D01*
X295602Y60804D01*
X295606Y60784D01*
X295659Y60695D01*
X295708Y60604D01*
X295722Y60590D01*
X295732Y60573D01*
X295811Y60506D01*
X295886Y60434D01*
X295904Y60426D01*
X295919Y60413D01*
X296015Y60374D01*
X296109Y60331D01*
X296129Y60329D01*
X296147Y60321D01*
X296314Y60303D01*
X301317Y60303D01*
X301407Y60317D01*
X301498Y60325D01*
X301527Y60337D01*
X301559Y60342D01*
X301640Y60385D01*
X301724Y60421D01*
X301756Y60447D01*
X301777Y60458D01*
X301799Y60481D01*
X301855Y60526D01*
X302459Y61130D01*
X302512Y61204D01*
X302572Y61273D01*
X302584Y61304D01*
X302603Y61330D01*
X302630Y61417D01*
X302664Y61502D01*
X302668Y61543D01*
X302675Y61565D01*
X302674Y61597D01*
X302682Y61668D01*
X302682Y67210D01*
X302668Y67300D01*
X302660Y67391D01*
X302648Y67421D01*
X302643Y67453D01*
X302600Y67533D01*
X302564Y67617D01*
X302538Y67649D01*
X302527Y67670D01*
X302504Y67692D01*
X302459Y67748D01*
X301947Y68260D01*
X301947Y73765D01*
X301928Y73882D01*
X301910Y74000D01*
X301908Y74004D01*
X301908Y74008D01*
X301852Y74112D01*
X301797Y74219D01*
X301794Y74222D01*
X301792Y74225D01*
X301706Y74307D01*
X301621Y74390D01*
X301617Y74392D01*
X301614Y74395D01*
X301506Y74445D01*
X301399Y74496D01*
X301395Y74497D01*
X301391Y74498D01*
X301273Y74512D01*
X301155Y74526D01*
X301150Y74525D01*
X301147Y74526D01*
X301133Y74523D01*
X300989Y74501D01*
X300834Y74459D01*
X299624Y74459D01*
X299624Y86887D01*
X299621Y86906D01*
X299623Y86926D01*
X299610Y86986D01*
X299624Y87113D01*
X299624Y99541D01*
X300834Y99541D01*
X301481Y99368D01*
X302060Y99033D01*
X302091Y99002D01*
X302165Y98949D01*
X302235Y98889D01*
X302265Y98877D01*
X302291Y98858D01*
X302378Y98831D01*
X302463Y98797D01*
X302504Y98793D01*
X302526Y98786D01*
X302558Y98787D01*
X302630Y98779D01*
X307737Y98779D01*
X307962Y98554D01*
X307978Y98542D01*
X307990Y98527D01*
X308078Y98470D01*
X308161Y98410D01*
X308180Y98404D01*
X308197Y98394D01*
X308298Y98368D01*
X308397Y98338D01*
X308417Y98338D01*
X308436Y98334D01*
X308539Y98342D01*
X308642Y98344D01*
X308661Y98351D01*
X308681Y98353D01*
X308776Y98393D01*
X308873Y98429D01*
X308889Y98441D01*
X308907Y98449D01*
X309038Y98554D01*
X309263Y98779D01*
X314237Y98779D01*
X314283Y98733D01*
X314341Y98691D01*
X314393Y98642D01*
X314440Y98620D01*
X314482Y98589D01*
X314551Y98568D01*
X314616Y98538D01*
X314668Y98532D01*
X314718Y98517D01*
X314789Y98519D01*
X314860Y98511D01*
X314911Y98522D01*
X314963Y98523D01*
X315031Y98548D01*
X315101Y98563D01*
X315146Y98590D01*
X315194Y98608D01*
X315250Y98652D01*
X315312Y98689D01*
X315346Y98729D01*
X315386Y98761D01*
X315425Y98822D01*
X315472Y98876D01*
X315491Y98925D01*
X315519Y98968D01*
X315537Y99038D01*
X315564Y99104D01*
X315572Y99176D01*
X315580Y99207D01*
X315578Y99230D01*
X315582Y99271D01*
X315582Y100330D01*
X315568Y100420D01*
X315560Y100511D01*
X315548Y100540D01*
X315543Y100572D01*
X315500Y100653D01*
X315464Y100737D01*
X315438Y100769D01*
X315427Y100790D01*
X315404Y100812D01*
X315359Y100868D01*
X301872Y114355D01*
X301777Y114423D01*
X301683Y114493D01*
X301677Y114495D01*
X301672Y114499D01*
X301561Y114533D01*
X301449Y114569D01*
X301443Y114569D01*
X301437Y114571D01*
X301321Y114568D01*
X301204Y114567D01*
X301196Y114565D01*
X301191Y114565D01*
X301174Y114558D01*
X301105Y114538D01*
X298914Y114538D01*
X296906Y115370D01*
X295370Y116906D01*
X294538Y118914D01*
X294538Y121086D01*
X295370Y123094D01*
X296906Y124630D01*
X298914Y125462D01*
X301086Y125462D01*
X303094Y124630D01*
X304630Y123094D01*
X305462Y121086D01*
X305462Y118880D01*
X305453Y118844D01*
X305425Y118730D01*
X305425Y118724D01*
X305424Y118718D01*
X305435Y118601D01*
X305444Y118485D01*
X305446Y118479D01*
X305447Y118473D01*
X305495Y118366D01*
X305540Y118259D01*
X305545Y118253D01*
X305547Y118248D01*
X305559Y118235D01*
X305645Y118128D01*
X320918Y102855D01*
X320918Y99271D01*
X320929Y99200D01*
X320931Y99129D01*
X320949Y99080D01*
X320957Y99028D01*
X320991Y98965D01*
X321016Y98898D01*
X321048Y98857D01*
X321073Y98811D01*
X321124Y98762D01*
X321169Y98706D01*
X321213Y98677D01*
X321251Y98642D01*
X321316Y98611D01*
X321376Y98573D01*
X321427Y98560D01*
X321474Y98538D01*
X321545Y98530D01*
X321615Y98513D01*
X321667Y98517D01*
X321718Y98511D01*
X321789Y98526D01*
X321860Y98532D01*
X321908Y98552D01*
X321959Y98563D01*
X322020Y98600D01*
X322086Y98628D01*
X322142Y98673D01*
X322170Y98689D01*
X322185Y98707D01*
X322217Y98733D01*
X322263Y98779D01*
X327237Y98779D01*
X327283Y98733D01*
X327341Y98691D01*
X327393Y98642D01*
X327440Y98620D01*
X327482Y98589D01*
X327551Y98568D01*
X327616Y98538D01*
X327668Y98532D01*
X327718Y98517D01*
X327789Y98519D01*
X327860Y98511D01*
X327911Y98522D01*
X327963Y98523D01*
X328031Y98548D01*
X328101Y98563D01*
X328146Y98590D01*
X328194Y98608D01*
X328250Y98652D01*
X328312Y98689D01*
X328346Y98729D01*
X328386Y98761D01*
X328425Y98822D01*
X328472Y98876D01*
X328491Y98925D01*
X328519Y98968D01*
X328537Y99038D01*
X328564Y99104D01*
X328572Y99176D01*
X328580Y99207D01*
X328578Y99230D01*
X328582Y99271D01*
X328582Y106355D01*
X329355Y107128D01*
X329424Y107223D01*
X329493Y107317D01*
X329495Y107323D01*
X329499Y107328D01*
X329533Y107439D01*
X329569Y107551D01*
X329569Y107557D01*
X329571Y107563D01*
X329568Y107679D01*
X329567Y107796D01*
X329565Y107804D01*
X329565Y107809D01*
X329558Y107826D01*
X329538Y107895D01*
X329538Y110086D01*
X330370Y112094D01*
X331906Y113630D01*
X333914Y114462D01*
X336086Y114462D01*
X338094Y113630D01*
X339630Y112094D01*
X340462Y110086D01*
X340462Y107914D01*
X339630Y105906D01*
X338094Y104370D01*
X336086Y103538D01*
X334679Y103538D01*
X334659Y103535D01*
X334640Y103537D01*
X334538Y103515D01*
X334436Y103499D01*
X334419Y103489D01*
X334399Y103485D01*
X334310Y103432D01*
X334219Y103383D01*
X334205Y103369D01*
X334188Y103359D01*
X334121Y103280D01*
X334049Y103205D01*
X334041Y103187D01*
X334028Y103172D01*
X333989Y103076D01*
X333946Y102982D01*
X333944Y102962D01*
X333936Y102944D01*
X333918Y102777D01*
X333918Y100050D01*
X333933Y99956D01*
X333942Y99861D01*
X333953Y99835D01*
X333957Y99807D01*
X334002Y99723D01*
X334041Y99635D01*
X334059Y99615D01*
X334073Y99590D01*
X334142Y99524D01*
X334206Y99454D01*
X334231Y99440D01*
X334251Y99421D01*
X334337Y99380D01*
X334421Y99334D01*
X334449Y99329D01*
X334474Y99317D01*
X334569Y99306D01*
X334663Y99289D01*
X334691Y99293D01*
X334718Y99290D01*
X334812Y99310D01*
X334906Y99324D01*
X334938Y99338D01*
X334959Y99342D01*
X334987Y99359D01*
X335666Y99541D01*
X336876Y99541D01*
X336876Y87113D01*
X336879Y87094D01*
X336877Y87074D01*
X336890Y87014D01*
X336876Y86887D01*
X336876Y74459D01*
X335666Y74459D01*
X335019Y74632D01*
X334440Y74967D01*
X334409Y74998D01*
X334335Y75051D01*
X334265Y75111D01*
X334235Y75123D01*
X334209Y75142D01*
X334122Y75169D01*
X334037Y75203D01*
X333996Y75207D01*
X333974Y75214D01*
X333942Y75213D01*
X333870Y75221D01*
X328763Y75221D01*
X328717Y75267D01*
X328659Y75309D01*
X328607Y75358D01*
X328560Y75380D01*
X328518Y75411D01*
X328449Y75432D01*
X328384Y75462D01*
X328332Y75468D01*
X328282Y75483D01*
X328211Y75481D01*
X328140Y75489D01*
X328089Y75478D01*
X328037Y75477D01*
X327969Y75452D01*
X327899Y75437D01*
X327854Y75410D01*
X327806Y75392D01*
X327750Y75348D01*
X327688Y75311D01*
X327654Y75271D01*
X327614Y75239D01*
X327575Y75178D01*
X327528Y75124D01*
X327509Y75075D01*
X327481Y75032D01*
X327463Y74962D01*
X327436Y74896D01*
X327428Y74824D01*
X327420Y74793D01*
X327422Y74770D01*
X327418Y74729D01*
X327418Y69622D01*
X327432Y69532D01*
X327440Y69441D01*
X327452Y69411D01*
X327457Y69379D01*
X327500Y69298D01*
X327536Y69214D01*
X327562Y69182D01*
X327573Y69162D01*
X327596Y69139D01*
X327641Y69083D01*
X328630Y68094D01*
X329462Y66086D01*
X329462Y63914D01*
X328630Y61906D01*
X327094Y60370D01*
X325086Y59538D01*
X322914Y59538D01*
X320906Y60370D01*
X319538Y61738D01*
X319522Y61749D01*
X319510Y61765D01*
X319422Y61821D01*
X319339Y61881D01*
X319320Y61887D01*
X319303Y61898D01*
X319202Y61923D01*
X319103Y61954D01*
X319084Y61953D01*
X319064Y61958D01*
X318961Y61950D01*
X318858Y61947D01*
X318839Y61940D01*
X318819Y61939D01*
X318724Y61898D01*
X318627Y61863D01*
X318611Y61850D01*
X318593Y61842D01*
X318462Y61738D01*
X317094Y60370D01*
X315086Y59538D01*
X312914Y59538D01*
X310906Y60370D01*
X310587Y60689D01*
X310529Y60730D01*
X310477Y60780D01*
X310430Y60802D01*
X310388Y60832D01*
X310319Y60853D01*
X310254Y60884D01*
X310202Y60889D01*
X310152Y60905D01*
X310081Y60903D01*
X310010Y60911D01*
X309959Y60900D01*
X309907Y60898D01*
X309839Y60874D01*
X309769Y60858D01*
X309724Y60832D01*
X309676Y60814D01*
X309620Y60769D01*
X309558Y60732D01*
X309524Y60693D01*
X309484Y60660D01*
X309445Y60600D01*
X309398Y60545D01*
X309379Y60497D01*
X309351Y60453D01*
X309333Y60384D01*
X309306Y60317D01*
X309298Y60246D01*
X309290Y60215D01*
X309292Y60191D01*
X309288Y60150D01*
X309288Y58617D01*
X309209Y58538D01*
X309197Y58522D01*
X309182Y58510D01*
X309126Y58422D01*
X309066Y58339D01*
X309060Y58320D01*
X309049Y58303D01*
X309024Y58202D01*
X308993Y58103D01*
X308994Y58084D01*
X308989Y58064D01*
X308997Y57961D01*
X309000Y57858D01*
X309006Y57839D01*
X309008Y57819D01*
X309048Y57724D01*
X309084Y57627D01*
X309096Y57611D01*
X309104Y57593D01*
X309209Y57462D01*
X333145Y33526D01*
X333219Y33473D01*
X333288Y33413D01*
X333319Y33401D01*
X333345Y33382D01*
X333432Y33355D01*
X333517Y33321D01*
X333558Y33317D01*
X333580Y33310D01*
X333612Y33311D01*
X333683Y33303D01*
X385263Y33303D01*
X385353Y33317D01*
X385444Y33325D01*
X385474Y33337D01*
X385506Y33342D01*
X385587Y33385D01*
X385671Y33421D01*
X385703Y33447D01*
X385723Y33458D01*
X385746Y33481D01*
X385802Y33526D01*
X386474Y34198D01*
X386527Y34272D01*
X386587Y34342D01*
X386599Y34372D01*
X386618Y34398D01*
X386645Y34485D01*
X386679Y34570D01*
X386683Y34611D01*
X386690Y34633D01*
X386689Y34665D01*
X386697Y34737D01*
X386697Y98317D01*
X386683Y98407D01*
X386675Y98498D01*
X386663Y98527D01*
X386658Y98559D01*
X386615Y98640D01*
X386579Y98724D01*
X386553Y98756D01*
X386542Y98777D01*
X386519Y98799D01*
X386474Y98855D01*
X354667Y130662D01*
X354667Y161613D01*
X354653Y161703D01*
X354645Y161794D01*
X354633Y161824D01*
X354628Y161856D01*
X354585Y161937D01*
X354549Y162021D01*
X354523Y162053D01*
X354512Y162073D01*
X354489Y162096D01*
X354444Y162152D01*
X353340Y163256D01*
X352508Y165264D01*
X352508Y167436D01*
X353340Y169444D01*
X354876Y170980D01*
X356884Y171812D01*
X359056Y171812D01*
X361064Y170980D01*
X362600Y169444D01*
X363432Y167436D01*
X363432Y165264D01*
X362600Y163256D01*
X361496Y162152D01*
X361443Y162078D01*
X361383Y162008D01*
X361371Y161978D01*
X361352Y161952D01*
X361325Y161865D01*
X361291Y161780D01*
X361287Y161739D01*
X361280Y161717D01*
X361281Y161685D01*
X361273Y161613D01*
X361273Y133713D01*
X361275Y133698D01*
X361274Y133686D01*
X361288Y133622D01*
X361295Y133532D01*
X361307Y133503D01*
X361312Y133471D01*
X361355Y133390D01*
X361391Y133306D01*
X361417Y133274D01*
X361428Y133253D01*
X361451Y133231D01*
X361496Y133175D01*
X393303Y101368D01*
X393303Y34737D01*
X393304Y34727D01*
X393304Y34723D01*
X393309Y34701D01*
X393317Y34647D01*
X393325Y34556D01*
X393337Y34526D01*
X393342Y34494D01*
X393385Y34413D01*
X393421Y34329D01*
X393447Y34297D01*
X393458Y34277D01*
X393481Y34254D01*
X393526Y34198D01*
X394630Y33094D01*
X395462Y31086D01*
X395462Y28914D01*
X394630Y26906D01*
X393094Y25370D01*
X391086Y24538D01*
X388914Y24538D01*
G37*
%LPD*%
%LPC*%
G36*
X37359Y166721D02*
X37359Y166721D01*
X32478Y168743D01*
X28743Y172478D01*
X26721Y177359D01*
X26721Y182641D01*
X28743Y187522D01*
X32478Y191257D01*
X37359Y193279D01*
X42641Y193279D01*
X47522Y191257D01*
X51257Y187522D01*
X53279Y182641D01*
X53279Y177359D01*
X51257Y172478D01*
X47522Y168743D01*
X42641Y166721D01*
X37359Y166721D01*
G37*
%LPD*%
%LPC*%
G36*
X332601Y47221D02*
X332601Y47221D01*
X330477Y48101D01*
X328851Y49727D01*
X327971Y51851D01*
X327971Y54149D01*
X328851Y56273D01*
X330477Y57899D01*
X332601Y58779D01*
X334899Y58779D01*
X337023Y57899D01*
X338649Y56273D01*
X339529Y54149D01*
X339529Y51851D01*
X338649Y49727D01*
X337023Y48101D01*
X334899Y47221D01*
X332601Y47221D01*
G37*
%LPD*%
%LPC*%
G36*
X163124Y87874D02*
X163124Y87874D01*
X163124Y99541D01*
X164334Y99541D01*
X164981Y99368D01*
X165119Y99287D01*
X165183Y99264D01*
X165242Y99231D01*
X165297Y99220D01*
X165349Y99201D01*
X165417Y99198D01*
X165484Y99186D01*
X165539Y99194D01*
X165595Y99192D01*
X165660Y99211D01*
X165727Y99220D01*
X165800Y99252D01*
X165831Y99261D01*
X165848Y99273D01*
X165881Y99288D01*
X166019Y99368D01*
X166666Y99541D01*
X167876Y99541D01*
X167876Y87874D01*
X163124Y87874D01*
G37*
%LPD*%
%LPC*%
G36*
X163124Y74459D02*
X163124Y74459D01*
X163124Y86126D01*
X167876Y86126D01*
X167876Y74459D01*
X166666Y74459D01*
X166019Y74632D01*
X165881Y74712D01*
X165817Y74736D01*
X165758Y74769D01*
X165703Y74780D01*
X165651Y74799D01*
X165583Y74802D01*
X165517Y74814D01*
X165461Y74806D01*
X165405Y74809D01*
X165340Y74789D01*
X165273Y74780D01*
X165200Y74748D01*
X165169Y74739D01*
X165152Y74727D01*
X165119Y74713D01*
X164981Y74632D01*
X164334Y74459D01*
X163124Y74459D01*
G37*
%LPD*%
%LPC*%
G36*
X338624Y87874D02*
X338624Y87874D01*
X338624Y99541D01*
X339834Y99541D01*
X340481Y99368D01*
X341060Y99033D01*
X341533Y98560D01*
X341868Y97981D01*
X342041Y97334D01*
X342041Y87874D01*
X338624Y87874D01*
G37*
%LPD*%
%LPC*%
G36*
X338624Y74459D02*
X338624Y74459D01*
X338624Y86126D01*
X342041Y86126D01*
X342041Y76666D01*
X341868Y76019D01*
X341533Y75440D01*
X341060Y74967D01*
X340481Y74632D01*
X339834Y74459D01*
X338624Y74459D01*
G37*
%LPD*%
%LPC*%
G36*
X157959Y87874D02*
X157959Y87874D01*
X157959Y97334D01*
X158132Y97981D01*
X158467Y98560D01*
X158940Y99033D01*
X159519Y99368D01*
X160166Y99541D01*
X161376Y99541D01*
X161376Y87874D01*
X157959Y87874D01*
G37*
%LPD*%
%LPC*%
G36*
X160166Y74459D02*
X160166Y74459D01*
X159519Y74632D01*
X158940Y74967D01*
X158467Y75440D01*
X158132Y76019D01*
X157959Y76666D01*
X157959Y86126D01*
X161376Y86126D01*
X161376Y74459D01*
X160166Y74459D01*
G37*
%LPD*%
D10*
X337750Y87000D03*
X331250Y87000D03*
X324750Y87000D03*
X318250Y87000D03*
X311750Y87000D03*
X305250Y87000D03*
X298750Y87000D03*
X292250Y87000D03*
X285750Y87000D03*
X279250Y87000D03*
X272750Y87000D03*
X266250Y87000D03*
X259750Y87000D03*
X253250Y87000D03*
X246750Y87000D03*
X240250Y87000D03*
X233750Y87000D03*
X227250Y87000D03*
X220750Y87000D03*
X214250Y87000D03*
X207750Y87000D03*
X201250Y87000D03*
X194750Y87000D03*
X188250Y87000D03*
X181750Y87000D03*
X175250Y87000D03*
X168750Y87000D03*
X162250Y87000D03*
D11*
X10000Y10000D03*
X490000Y210000D03*
D12*
X278000Y166000D03*
X280000Y120000D03*
X200000Y120000D03*
X180000Y120000D03*
X130000Y200000D03*
X367000Y67000D03*
X338000Y66000D03*
X165000Y35000D03*
X299000Y66000D03*
X272000Y68000D03*
X140000Y110000D03*
X160000Y130000D03*
X190000Y200000D03*
D13*
X181750Y87000D02*
X181750Y69750D01*
X177000Y65000D01*
D12*
X177000Y65000D03*
X190000Y65000D03*
D13*
X188250Y66750D02*
X188250Y87000D01*
X188250Y66750D02*
X190000Y65000D01*
X266250Y71250D02*
X266250Y87000D01*
X266250Y71250D02*
X260000Y65000D01*
D12*
X260000Y65000D03*
X324000Y65000D03*
D13*
X324750Y65750D01*
X324750Y87000D01*
X318250Y87000D02*
X318250Y101750D01*
X300000Y120000D01*
D12*
X300000Y120000D03*
D13*
X175250Y87000D02*
X175250Y74250D01*
X168000Y67000D02*
X140000Y67000D01*
D12*
X140000Y67000D03*
D13*
X168000Y67000D02*
X175250Y74250D01*
D12*
X246850Y125000D03*
D13*
X259750Y112100D02*
X259750Y87000D01*
X259750Y112100D02*
X246850Y125000D01*
X331250Y105250D02*
X331250Y87000D01*
X331250Y105250D02*
X335000Y109000D01*
D12*
X335000Y109000D03*
X314000Y65000D03*
D13*
X311750Y67250D01*
X311750Y87000D01*
D12*
X130000Y150000D03*
X390000Y30000D03*
X280000Y57000D03*
D14*
X130000Y150000D02*
X120000Y140000D01*
X332000Y30000D02*
X390000Y30000D01*
X332000Y30000D02*
X305000Y57000D01*
X303000Y57000D01*
X292000Y57000D01*
X286000Y57000D01*
X280000Y57000D01*
X285750Y57250D02*
X285750Y87000D01*
X285750Y57250D02*
X286000Y57000D01*
X292000Y57000D02*
X292250Y57250D01*
X305250Y69628D02*
X305250Y87000D01*
X305250Y69628D02*
X305985Y68893D01*
X305985Y59985D01*
X303000Y57000D01*
X292250Y69128D02*
X292250Y87000D01*
X292250Y69128D02*
X292015Y68893D01*
X292015Y63107D01*
X292250Y62872D01*
X292250Y57250D01*
D12*
X357970Y166350D03*
D14*
X357970Y132030D01*
X390000Y100000D01*
X390000Y30000D01*
X120000Y72000D02*
X120000Y140000D01*
X120000Y72000D02*
X146000Y46000D01*
X162923Y46000D01*
X163225Y45698D01*
X268698Y45698D01*
X280000Y57000D01*
D12*
X238000Y202000D03*
D13*
X314000Y202000D01*
X318000Y198000D01*
D12*
X318000Y190000D03*
D13*
X318000Y198000D01*
X71000Y209000D02*
X70000Y210000D01*
D12*
X70000Y210000D03*
D13*
X202009Y202000D02*
X238000Y202000D01*
X202009Y202000D02*
X193103Y210906D01*
X126897Y210906D01*
X124991Y209000D01*
X71000Y209000D01*
D12*
X153000Y201000D03*
D13*
X153000Y166000D01*
X159000Y160000D01*
X235000Y160000D02*
X240250Y154750D01*
X235000Y160000D02*
X159000Y160000D01*
X240250Y139000D02*
X240250Y87000D01*
X240250Y139000D02*
X240250Y154750D01*
D12*
X240250Y139000D03*
D13*
X227250Y110000D02*
X227250Y87000D01*
X233750Y149250D02*
X233000Y150000D01*
X233750Y112000D02*
X233750Y87000D01*
X233750Y112000D02*
X233750Y149250D01*
X229250Y112000D02*
X227250Y110000D01*
X229250Y112000D02*
X233750Y112000D01*
D12*
X233000Y150000D03*
X224000Y192650D03*
X313000Y165000D03*
D13*
X285350Y192650D01*
X224000Y192650D01*
D12*
X100000Y202650D03*
D13*
X123670Y202650D01*
X206330Y192650D02*
X224000Y192650D01*
X128370Y207350D02*
X123670Y202650D01*
X128370Y207350D02*
X191630Y207350D01*
X206330Y192650D01*
M02*
