G04 EAGLE Gerber RS-274X export*
G75*
%MOMM*%
%FSLAX34Y34*%
%LPD*%
%INSolderpaste Top*%
%IPPOS*%
%AMOC8*
5,1,8,0,0,1.08239X$1,22.5*%
G01*
%ADD10R,1.200000X0.800000*%
%ADD11R,1.000000X1.100000*%
%ADD12R,1.800000X1.600000*%
%ADD13R,1.800000X1.400000*%
%ADD14R,1.400000X1.900000*%
%ADD15R,0.800000X1.500000*%
%ADD16R,1.500000X1.600000*%
%ADD17R,0.400000X0.800000*%
%ADD18R,0.250000X0.650000*%
%ADD19R,0.250000X0.275000*%
%ADD20R,0.275000X0.250000*%
%ADD21R,1.524000X0.762000*%


D10*
X120000Y59000D03*
X120000Y41000D03*
X300000Y51000D03*
X300000Y69000D03*
X320000Y51000D03*
X320000Y69000D03*
D11*
X200000Y51500D03*
X200000Y68500D03*
D12*
X150000Y64000D03*
X150000Y36000D03*
D11*
X180000Y51500D03*
X180000Y68500D03*
X280000Y51500D03*
X280000Y68500D03*
X240000Y68500D03*
X240000Y51500D03*
X260000Y51500D03*
X260000Y68500D03*
X220000Y51500D03*
X220000Y68500D03*
X300000Y36500D03*
X300000Y19500D03*
X320000Y19500D03*
X320000Y36500D03*
D13*
X410500Y153000D03*
X353500Y153000D03*
D14*
X337500Y21500D03*
X469000Y11500D03*
D15*
X422400Y50000D03*
X411400Y54000D03*
X400400Y50000D03*
X389400Y48000D03*
X378400Y50000D03*
X367400Y48000D03*
X356400Y50000D03*
X345400Y50000D03*
D16*
X432000Y190000D03*
X468000Y190000D03*
D11*
X410000Y181500D03*
X410000Y198500D03*
D17*
X377500Y201500D03*
D18*
X367500Y176500D03*
X362500Y176500D03*
D17*
X302500Y201500D03*
D18*
X357500Y176500D03*
X352500Y176500D03*
X347500Y176500D03*
X342500Y176500D03*
X337500Y176500D03*
X332500Y176500D03*
X327500Y176500D03*
X322500Y176500D03*
X317500Y176500D03*
X312500Y176500D03*
D19*
X67500Y122500D03*
X72500Y122500D03*
X72500Y137500D03*
X67500Y137500D03*
D20*
X62500Y137500D03*
X62500Y132500D03*
X62500Y122500D03*
X62500Y127500D03*
X77500Y122500D03*
X77500Y127500D03*
X77500Y132500D03*
X77500Y137500D03*
D11*
X40000Y121500D03*
X40000Y138500D03*
X100000Y121500D03*
X100000Y138500D03*
D21*
X97940Y170950D03*
X42060Y170950D03*
X97940Y209050D03*
X42060Y209050D03*
D17*
X287500Y121500D03*
D18*
X277500Y96500D03*
X272500Y96500D03*
D17*
X212500Y121500D03*
D18*
X267500Y96500D03*
X262500Y96500D03*
X257500Y96500D03*
X252500Y96500D03*
X247500Y96500D03*
X242500Y96500D03*
X237500Y96500D03*
X232500Y96500D03*
X227500Y96500D03*
X222500Y96500D03*
M02*
