G04 EAGLE Gerber RS-274X export*
G75*
%MOMM*%
%FSLAX34Y34*%
%LPD*%
%IN*%
%IPPOS*%
%AMOC8*
5,1,8,0,0,1.08239X$1,22.5*%
G01*
%ADD10C,0.050000*%
%ADD11C,0.000000*%
%ADD12C,0.254000*%


D10*
X0Y0D02*
X0Y220000D01*
X500000Y220000D02*
X500000Y0D01*
X0Y0D01*
X0Y220000D02*
X200000Y220000D01*
X300000Y220000D02*
X500000Y220000D01*
X300000Y220000D02*
X300000Y210000D01*
X200000Y210000D02*
X200000Y220000D01*
X200000Y210000D02*
X300000Y210000D01*
D11*
X162250Y53000D02*
X162252Y53126D01*
X162258Y53252D01*
X162268Y53378D01*
X162282Y53504D01*
X162300Y53629D01*
X162322Y53753D01*
X162347Y53877D01*
X162377Y54000D01*
X162410Y54121D01*
X162448Y54242D01*
X162489Y54361D01*
X162534Y54480D01*
X162582Y54596D01*
X162634Y54711D01*
X162690Y54824D01*
X162750Y54936D01*
X162813Y55045D01*
X162879Y55153D01*
X162948Y55258D01*
X163021Y55361D01*
X163098Y55462D01*
X163177Y55560D01*
X163259Y55656D01*
X163345Y55749D01*
X163433Y55840D01*
X163524Y55927D01*
X163618Y56012D01*
X163714Y56093D01*
X163813Y56172D01*
X163914Y56247D01*
X164018Y56319D01*
X164124Y56388D01*
X164232Y56454D01*
X164342Y56516D01*
X164454Y56574D01*
X164567Y56629D01*
X164683Y56680D01*
X164800Y56728D01*
X164918Y56772D01*
X165038Y56812D01*
X165159Y56848D01*
X165281Y56881D01*
X165404Y56910D01*
X165528Y56934D01*
X165652Y56955D01*
X165777Y56972D01*
X165903Y56985D01*
X166029Y56994D01*
X166155Y56999D01*
X166282Y57000D01*
X166408Y56997D01*
X166534Y56990D01*
X166660Y56979D01*
X166785Y56964D01*
X166910Y56945D01*
X167034Y56922D01*
X167158Y56896D01*
X167280Y56865D01*
X167402Y56831D01*
X167522Y56792D01*
X167641Y56750D01*
X167759Y56705D01*
X167875Y56655D01*
X167990Y56602D01*
X168102Y56545D01*
X168213Y56485D01*
X168322Y56421D01*
X168429Y56354D01*
X168534Y56284D01*
X168637Y56210D01*
X168737Y56133D01*
X168835Y56053D01*
X168930Y55970D01*
X169022Y55884D01*
X169112Y55795D01*
X169199Y55703D01*
X169282Y55609D01*
X169363Y55512D01*
X169441Y55412D01*
X169516Y55310D01*
X169587Y55206D01*
X169655Y55099D01*
X169719Y54991D01*
X169780Y54880D01*
X169838Y54768D01*
X169892Y54654D01*
X169942Y54538D01*
X169989Y54421D01*
X170032Y54302D01*
X170071Y54182D01*
X170107Y54061D01*
X170138Y53938D01*
X170166Y53815D01*
X170190Y53691D01*
X170210Y53566D01*
X170226Y53441D01*
X170238Y53315D01*
X170246Y53189D01*
X170250Y53063D01*
X170250Y52937D01*
X170246Y52811D01*
X170238Y52685D01*
X170226Y52559D01*
X170210Y52434D01*
X170190Y52309D01*
X170166Y52185D01*
X170138Y52062D01*
X170107Y51939D01*
X170071Y51818D01*
X170032Y51698D01*
X169989Y51579D01*
X169942Y51462D01*
X169892Y51346D01*
X169838Y51232D01*
X169780Y51120D01*
X169719Y51009D01*
X169655Y50901D01*
X169587Y50794D01*
X169516Y50690D01*
X169441Y50588D01*
X169363Y50488D01*
X169282Y50391D01*
X169199Y50297D01*
X169112Y50205D01*
X169022Y50116D01*
X168930Y50030D01*
X168835Y49947D01*
X168737Y49867D01*
X168637Y49790D01*
X168534Y49716D01*
X168429Y49646D01*
X168322Y49579D01*
X168213Y49515D01*
X168102Y49455D01*
X167990Y49398D01*
X167875Y49345D01*
X167759Y49295D01*
X167641Y49250D01*
X167522Y49208D01*
X167402Y49169D01*
X167280Y49135D01*
X167158Y49104D01*
X167034Y49078D01*
X166910Y49055D01*
X166785Y49036D01*
X166660Y49021D01*
X166534Y49010D01*
X166408Y49003D01*
X166282Y49000D01*
X166155Y49001D01*
X166029Y49006D01*
X165903Y49015D01*
X165777Y49028D01*
X165652Y49045D01*
X165528Y49066D01*
X165404Y49090D01*
X165281Y49119D01*
X165159Y49152D01*
X165038Y49188D01*
X164918Y49228D01*
X164800Y49272D01*
X164683Y49320D01*
X164567Y49371D01*
X164454Y49426D01*
X164342Y49484D01*
X164232Y49546D01*
X164124Y49612D01*
X164018Y49681D01*
X163914Y49753D01*
X163813Y49828D01*
X163714Y49907D01*
X163618Y49988D01*
X163524Y50073D01*
X163433Y50160D01*
X163345Y50251D01*
X163259Y50344D01*
X163177Y50440D01*
X163098Y50538D01*
X163021Y50639D01*
X162948Y50742D01*
X162879Y50847D01*
X162813Y50955D01*
X162750Y51064D01*
X162690Y51176D01*
X162634Y51289D01*
X162582Y51404D01*
X162534Y51520D01*
X162489Y51639D01*
X162448Y51758D01*
X162410Y51879D01*
X162377Y52000D01*
X162347Y52123D01*
X162322Y52247D01*
X162300Y52371D01*
X162282Y52496D01*
X162268Y52622D01*
X162258Y52748D01*
X162252Y52874D01*
X162250Y53000D01*
X329750Y53000D02*
X329752Y53126D01*
X329758Y53252D01*
X329768Y53378D01*
X329782Y53504D01*
X329800Y53629D01*
X329822Y53753D01*
X329847Y53877D01*
X329877Y54000D01*
X329910Y54121D01*
X329948Y54242D01*
X329989Y54361D01*
X330034Y54480D01*
X330082Y54596D01*
X330134Y54711D01*
X330190Y54824D01*
X330250Y54936D01*
X330313Y55045D01*
X330379Y55153D01*
X330448Y55258D01*
X330521Y55361D01*
X330598Y55462D01*
X330677Y55560D01*
X330759Y55656D01*
X330845Y55749D01*
X330933Y55840D01*
X331024Y55927D01*
X331118Y56012D01*
X331214Y56093D01*
X331313Y56172D01*
X331414Y56247D01*
X331518Y56319D01*
X331624Y56388D01*
X331732Y56454D01*
X331842Y56516D01*
X331954Y56574D01*
X332067Y56629D01*
X332183Y56680D01*
X332300Y56728D01*
X332418Y56772D01*
X332538Y56812D01*
X332659Y56848D01*
X332781Y56881D01*
X332904Y56910D01*
X333028Y56934D01*
X333152Y56955D01*
X333277Y56972D01*
X333403Y56985D01*
X333529Y56994D01*
X333655Y56999D01*
X333782Y57000D01*
X333908Y56997D01*
X334034Y56990D01*
X334160Y56979D01*
X334285Y56964D01*
X334410Y56945D01*
X334534Y56922D01*
X334658Y56896D01*
X334780Y56865D01*
X334902Y56831D01*
X335022Y56792D01*
X335141Y56750D01*
X335259Y56705D01*
X335375Y56655D01*
X335490Y56602D01*
X335602Y56545D01*
X335713Y56485D01*
X335822Y56421D01*
X335929Y56354D01*
X336034Y56284D01*
X336137Y56210D01*
X336237Y56133D01*
X336335Y56053D01*
X336430Y55970D01*
X336522Y55884D01*
X336612Y55795D01*
X336699Y55703D01*
X336782Y55609D01*
X336863Y55512D01*
X336941Y55412D01*
X337016Y55310D01*
X337087Y55206D01*
X337155Y55099D01*
X337219Y54991D01*
X337280Y54880D01*
X337338Y54768D01*
X337392Y54654D01*
X337442Y54538D01*
X337489Y54421D01*
X337532Y54302D01*
X337571Y54182D01*
X337607Y54061D01*
X337638Y53938D01*
X337666Y53815D01*
X337690Y53691D01*
X337710Y53566D01*
X337726Y53441D01*
X337738Y53315D01*
X337746Y53189D01*
X337750Y53063D01*
X337750Y52937D01*
X337746Y52811D01*
X337738Y52685D01*
X337726Y52559D01*
X337710Y52434D01*
X337690Y52309D01*
X337666Y52185D01*
X337638Y52062D01*
X337607Y51939D01*
X337571Y51818D01*
X337532Y51698D01*
X337489Y51579D01*
X337442Y51462D01*
X337392Y51346D01*
X337338Y51232D01*
X337280Y51120D01*
X337219Y51009D01*
X337155Y50901D01*
X337087Y50794D01*
X337016Y50690D01*
X336941Y50588D01*
X336863Y50488D01*
X336782Y50391D01*
X336699Y50297D01*
X336612Y50205D01*
X336522Y50116D01*
X336430Y50030D01*
X336335Y49947D01*
X336237Y49867D01*
X336137Y49790D01*
X336034Y49716D01*
X335929Y49646D01*
X335822Y49579D01*
X335713Y49515D01*
X335602Y49455D01*
X335490Y49398D01*
X335375Y49345D01*
X335259Y49295D01*
X335141Y49250D01*
X335022Y49208D01*
X334902Y49169D01*
X334780Y49135D01*
X334658Y49104D01*
X334534Y49078D01*
X334410Y49055D01*
X334285Y49036D01*
X334160Y49021D01*
X334034Y49010D01*
X333908Y49003D01*
X333782Y49000D01*
X333655Y49001D01*
X333529Y49006D01*
X333403Y49015D01*
X333277Y49028D01*
X333152Y49045D01*
X333028Y49066D01*
X332904Y49090D01*
X332781Y49119D01*
X332659Y49152D01*
X332538Y49188D01*
X332418Y49228D01*
X332300Y49272D01*
X332183Y49320D01*
X332067Y49371D01*
X331954Y49426D01*
X331842Y49484D01*
X331732Y49546D01*
X331624Y49612D01*
X331518Y49681D01*
X331414Y49753D01*
X331313Y49828D01*
X331214Y49907D01*
X331118Y49988D01*
X331024Y50073D01*
X330933Y50160D01*
X330845Y50251D01*
X330759Y50344D01*
X330677Y50440D01*
X330598Y50538D01*
X330521Y50639D01*
X330448Y50742D01*
X330379Y50847D01*
X330313Y50955D01*
X330250Y51064D01*
X330190Y51176D01*
X330134Y51289D01*
X330082Y51404D01*
X330034Y51520D01*
X329989Y51639D01*
X329948Y51758D01*
X329910Y51879D01*
X329877Y52000D01*
X329847Y52123D01*
X329822Y52247D01*
X329800Y52371D01*
X329782Y52496D01*
X329768Y52622D01*
X329758Y52748D01*
X329752Y52874D01*
X329750Y53000D01*
X28500Y180000D02*
X28503Y180282D01*
X28514Y180564D01*
X28531Y180846D01*
X28555Y181127D01*
X28586Y181408D01*
X28624Y181687D01*
X28669Y181966D01*
X28721Y182244D01*
X28779Y182520D01*
X28845Y182794D01*
X28917Y183067D01*
X28995Y183338D01*
X29080Y183607D01*
X29172Y183874D01*
X29271Y184139D01*
X29375Y184401D01*
X29487Y184660D01*
X29604Y184917D01*
X29728Y185171D01*
X29858Y185421D01*
X29994Y185668D01*
X30136Y185912D01*
X30284Y186152D01*
X30438Y186389D01*
X30598Y186622D01*
X30763Y186851D01*
X30934Y187075D01*
X31110Y187296D01*
X31292Y187511D01*
X31479Y187723D01*
X31671Y187930D01*
X31868Y188132D01*
X32070Y188329D01*
X32277Y188521D01*
X32489Y188708D01*
X32704Y188890D01*
X32925Y189066D01*
X33149Y189237D01*
X33378Y189402D01*
X33611Y189562D01*
X33848Y189716D01*
X34088Y189864D01*
X34332Y190006D01*
X34579Y190142D01*
X34829Y190272D01*
X35083Y190396D01*
X35340Y190513D01*
X35599Y190625D01*
X35861Y190729D01*
X36126Y190828D01*
X36393Y190920D01*
X36662Y191005D01*
X36933Y191083D01*
X37206Y191155D01*
X37480Y191221D01*
X37756Y191279D01*
X38034Y191331D01*
X38313Y191376D01*
X38592Y191414D01*
X38873Y191445D01*
X39154Y191469D01*
X39436Y191486D01*
X39718Y191497D01*
X40000Y191500D01*
X40282Y191497D01*
X40564Y191486D01*
X40846Y191469D01*
X41127Y191445D01*
X41408Y191414D01*
X41687Y191376D01*
X41966Y191331D01*
X42244Y191279D01*
X42520Y191221D01*
X42794Y191155D01*
X43067Y191083D01*
X43338Y191005D01*
X43607Y190920D01*
X43874Y190828D01*
X44139Y190729D01*
X44401Y190625D01*
X44660Y190513D01*
X44917Y190396D01*
X45171Y190272D01*
X45421Y190142D01*
X45668Y190006D01*
X45912Y189864D01*
X46152Y189716D01*
X46389Y189562D01*
X46622Y189402D01*
X46851Y189237D01*
X47075Y189066D01*
X47296Y188890D01*
X47511Y188708D01*
X47723Y188521D01*
X47930Y188329D01*
X48132Y188132D01*
X48329Y187930D01*
X48521Y187723D01*
X48708Y187511D01*
X48890Y187296D01*
X49066Y187075D01*
X49237Y186851D01*
X49402Y186622D01*
X49562Y186389D01*
X49716Y186152D01*
X49864Y185912D01*
X50006Y185668D01*
X50142Y185421D01*
X50272Y185171D01*
X50396Y184917D01*
X50513Y184660D01*
X50625Y184401D01*
X50729Y184139D01*
X50828Y183874D01*
X50920Y183607D01*
X51005Y183338D01*
X51083Y183067D01*
X51155Y182794D01*
X51221Y182520D01*
X51279Y182244D01*
X51331Y181966D01*
X51376Y181687D01*
X51414Y181408D01*
X51445Y181127D01*
X51469Y180846D01*
X51486Y180564D01*
X51497Y180282D01*
X51500Y180000D01*
X51497Y179718D01*
X51486Y179436D01*
X51469Y179154D01*
X51445Y178873D01*
X51414Y178592D01*
X51376Y178313D01*
X51331Y178034D01*
X51279Y177756D01*
X51221Y177480D01*
X51155Y177206D01*
X51083Y176933D01*
X51005Y176662D01*
X50920Y176393D01*
X50828Y176126D01*
X50729Y175861D01*
X50625Y175599D01*
X50513Y175340D01*
X50396Y175083D01*
X50272Y174829D01*
X50142Y174579D01*
X50006Y174332D01*
X49864Y174088D01*
X49716Y173848D01*
X49562Y173611D01*
X49402Y173378D01*
X49237Y173149D01*
X49066Y172925D01*
X48890Y172704D01*
X48708Y172489D01*
X48521Y172277D01*
X48329Y172070D01*
X48132Y171868D01*
X47930Y171671D01*
X47723Y171479D01*
X47511Y171292D01*
X47296Y171110D01*
X47075Y170934D01*
X46851Y170763D01*
X46622Y170598D01*
X46389Y170438D01*
X46152Y170284D01*
X45912Y170136D01*
X45668Y169994D01*
X45421Y169858D01*
X45171Y169728D01*
X44917Y169604D01*
X44660Y169487D01*
X44401Y169375D01*
X44139Y169271D01*
X43874Y169172D01*
X43607Y169080D01*
X43338Y168995D01*
X43067Y168917D01*
X42794Y168845D01*
X42520Y168779D01*
X42244Y168721D01*
X41966Y168669D01*
X41687Y168624D01*
X41408Y168586D01*
X41127Y168555D01*
X40846Y168531D01*
X40564Y168514D01*
X40282Y168503D01*
X40000Y168500D01*
X39718Y168503D01*
X39436Y168514D01*
X39154Y168531D01*
X38873Y168555D01*
X38592Y168586D01*
X38313Y168624D01*
X38034Y168669D01*
X37756Y168721D01*
X37480Y168779D01*
X37206Y168845D01*
X36933Y168917D01*
X36662Y168995D01*
X36393Y169080D01*
X36126Y169172D01*
X35861Y169271D01*
X35599Y169375D01*
X35340Y169487D01*
X35083Y169604D01*
X34829Y169728D01*
X34579Y169858D01*
X34332Y169994D01*
X34088Y170136D01*
X33848Y170284D01*
X33611Y170438D01*
X33378Y170598D01*
X33149Y170763D01*
X32925Y170934D01*
X32704Y171110D01*
X32489Y171292D01*
X32277Y171479D01*
X32070Y171671D01*
X31868Y171868D01*
X31671Y172070D01*
X31479Y172277D01*
X31292Y172489D01*
X31110Y172704D01*
X30934Y172925D01*
X30763Y173149D01*
X30598Y173378D01*
X30438Y173611D01*
X30284Y173848D01*
X30136Y174088D01*
X29994Y174332D01*
X29858Y174579D01*
X29728Y174829D01*
X29604Y175083D01*
X29487Y175340D01*
X29375Y175599D01*
X29271Y175861D01*
X29172Y176126D01*
X29080Y176393D01*
X28995Y176662D01*
X28917Y176933D01*
X28845Y177206D01*
X28779Y177480D01*
X28721Y177756D01*
X28669Y178034D01*
X28624Y178313D01*
X28586Y178592D01*
X28555Y178873D01*
X28531Y179154D01*
X28514Y179436D01*
X28503Y179718D01*
X28500Y180000D01*
D12*
X0Y0D02*
X500000Y0D01*
X500000Y220000D01*
X300000Y220000D01*
X300000Y210000D01*
X200000Y210000D01*
X200000Y220000D01*
X0Y220000D01*
X0Y0D01*
X162250Y52738D02*
X162318Y52218D01*
X162454Y51711D01*
X162655Y51227D01*
X162917Y50773D01*
X163236Y50357D01*
X163607Y49986D01*
X164023Y49667D01*
X164477Y49405D01*
X164961Y49204D01*
X165468Y49068D01*
X165988Y49000D01*
X166512Y49000D01*
X167032Y49068D01*
X167539Y49204D01*
X168023Y49405D01*
X168477Y49667D01*
X168893Y49986D01*
X169264Y50357D01*
X169583Y50773D01*
X169845Y51227D01*
X170046Y51711D01*
X170182Y52218D01*
X170250Y52738D01*
X170250Y53262D01*
X170182Y53782D01*
X170046Y54289D01*
X169845Y54773D01*
X169583Y55227D01*
X169264Y55643D01*
X168893Y56014D01*
X168477Y56333D01*
X168023Y56595D01*
X167539Y56796D01*
X167032Y56932D01*
X166512Y57000D01*
X165988Y57000D01*
X165468Y56932D01*
X164961Y56796D01*
X164477Y56595D01*
X164023Y56333D01*
X163607Y56014D01*
X163236Y55643D01*
X162917Y55227D01*
X162655Y54773D01*
X162454Y54289D01*
X162318Y53782D01*
X162250Y53262D01*
X162250Y52738D01*
X329750Y52738D02*
X329818Y52218D01*
X329954Y51711D01*
X330155Y51227D01*
X330417Y50773D01*
X330736Y50357D01*
X331107Y49986D01*
X331523Y49667D01*
X331977Y49405D01*
X332461Y49204D01*
X332968Y49068D01*
X333488Y49000D01*
X334012Y49000D01*
X334532Y49068D01*
X335039Y49204D01*
X335523Y49405D01*
X335977Y49667D01*
X336393Y49986D01*
X336764Y50357D01*
X337083Y50773D01*
X337345Y51227D01*
X337546Y51711D01*
X337682Y52218D01*
X337750Y52738D01*
X337750Y53262D01*
X337682Y53782D01*
X337546Y54289D01*
X337345Y54773D01*
X337083Y55227D01*
X336764Y55643D01*
X336393Y56014D01*
X335977Y56333D01*
X335523Y56595D01*
X335039Y56796D01*
X334532Y56932D01*
X334012Y57000D01*
X333488Y57000D01*
X332968Y56932D01*
X332461Y56796D01*
X331977Y56595D01*
X331523Y56333D01*
X331107Y56014D01*
X330736Y55643D01*
X330417Y55227D01*
X330155Y54773D01*
X329954Y54289D01*
X329818Y53782D01*
X329750Y53262D01*
X329750Y52738D01*
X40452Y191500D02*
X41353Y191429D01*
X42245Y191288D01*
X43124Y191077D01*
X43983Y190798D01*
X44818Y190452D01*
X45623Y190041D01*
X46394Y189569D01*
X47125Y189038D01*
X47812Y188451D01*
X48451Y187812D01*
X49038Y187125D01*
X49569Y186394D01*
X50041Y185623D01*
X50452Y184818D01*
X50798Y183983D01*
X51077Y183124D01*
X51288Y182245D01*
X51429Y181353D01*
X51500Y180452D01*
X51500Y179548D01*
X51429Y178647D01*
X51288Y177755D01*
X51077Y176876D01*
X50798Y176017D01*
X50452Y175182D01*
X50041Y174377D01*
X49569Y173606D01*
X49038Y172875D01*
X48451Y172188D01*
X47812Y171549D01*
X47125Y170962D01*
X46394Y170431D01*
X45623Y169959D01*
X44818Y169548D01*
X43983Y169202D01*
X43124Y168923D01*
X42245Y168712D01*
X41353Y168571D01*
X40452Y168500D01*
X39548Y168500D01*
X38647Y168571D01*
X37755Y168712D01*
X36876Y168923D01*
X36017Y169202D01*
X35182Y169548D01*
X34377Y169959D01*
X33606Y170431D01*
X32875Y170962D01*
X32188Y171549D01*
X31549Y172188D01*
X30962Y172875D01*
X30431Y173606D01*
X29959Y174377D01*
X29548Y175182D01*
X29202Y176017D01*
X28923Y176876D01*
X28712Y177755D01*
X28571Y178647D01*
X28500Y179548D01*
X28500Y180452D01*
X28571Y181353D01*
X28712Y182245D01*
X28923Y183124D01*
X29202Y183983D01*
X29548Y184818D01*
X29959Y185623D01*
X30431Y186394D01*
X30962Y187125D01*
X31549Y187812D01*
X32188Y188451D01*
X32875Y189038D01*
X33606Y189569D01*
X34377Y190041D01*
X35182Y190452D01*
X36017Y190798D01*
X36876Y191077D01*
X37755Y191288D01*
X38647Y191429D01*
X39548Y191500D01*
X40452Y191500D01*
M02*
