G04 EAGLE Gerber RS-274X export*
G75*
%MOMM*%
%FSLAX34Y34*%
%LPD*%
%INBottom Copper*%
%IPPOS*%
%AMOC8*
5,1,8,0,0,1.08239X$1,22.5*%
G01*
%ADD10C,0.203200*%
%ADD11R,1.200000X0.800000*%
%ADD12R,1.000000X1.100000*%
%ADD13R,1.800000X1.600000*%
%ADD14C,1.000000*%
%ADD15R,1.100000X1.000000*%
%ADD16R,1.500000X1.600000*%
%ADD17R,0.300000X0.800000*%
%ADD18R,0.400000X0.800000*%
%ADD19R,0.250000X0.275000*%
%ADD20R,0.275000X0.250000*%
%ADD21R,1.524000X0.762000*%
%ADD22R,0.700000X1.600000*%
%ADD23R,1.200000X2.200000*%
%ADD24R,1.600000X1.400000*%
%ADD25R,1.200000X1.600000*%
%ADD26R,0.600000X2.000000*%
%ADD27C,1.879600*%
%ADD28C,0.736600*%
%ADD29C,0.177800*%
%ADD30C,0.304800*%

G36*
X174346Y2033D02*
X174346Y2033D01*
X174370Y2030D01*
X174467Y2052D01*
X174565Y2068D01*
X174586Y2080D01*
X174610Y2085D01*
X174695Y2137D01*
X174782Y2184D01*
X174799Y2201D01*
X174819Y2214D01*
X174883Y2290D01*
X174952Y2362D01*
X174962Y2384D01*
X174977Y2402D01*
X175013Y2495D01*
X175055Y2585D01*
X175058Y2609D01*
X175067Y2631D01*
X175071Y2731D01*
X175082Y2829D01*
X175077Y2853D01*
X175078Y2877D01*
X175051Y2972D01*
X175030Y3070D01*
X175018Y3091D01*
X175011Y3114D01*
X174955Y3195D01*
X174904Y3281D01*
X174886Y3297D01*
X174872Y3316D01*
X174793Y3376D01*
X174717Y3441D01*
X174695Y3450D01*
X174675Y3464D01*
X174519Y3525D01*
X174119Y3632D01*
X173540Y3967D01*
X173067Y4440D01*
X172732Y5019D01*
X172559Y5666D01*
X172559Y9977D01*
X179338Y9977D01*
X179358Y9980D01*
X179377Y9978D01*
X179479Y10000D01*
X179581Y10017D01*
X179598Y10026D01*
X179618Y10030D01*
X179707Y10083D01*
X179798Y10132D01*
X179812Y10146D01*
X179829Y10156D01*
X179896Y10235D01*
X179967Y10310D01*
X179976Y10328D01*
X179989Y10343D01*
X180028Y10439D01*
X180071Y10533D01*
X180073Y10553D01*
X180081Y10571D01*
X180099Y10738D01*
X180099Y11501D01*
X180101Y11501D01*
X180101Y10738D01*
X180104Y10718D01*
X180102Y10699D01*
X180124Y10597D01*
X180141Y10495D01*
X180150Y10478D01*
X180154Y10458D01*
X180207Y10369D01*
X180256Y10278D01*
X180270Y10264D01*
X180280Y10247D01*
X180359Y10180D01*
X180434Y10109D01*
X180452Y10100D01*
X180467Y10087D01*
X180563Y10048D01*
X180657Y10005D01*
X180677Y10003D01*
X180695Y9995D01*
X180862Y9977D01*
X187641Y9977D01*
X187641Y5666D01*
X187468Y5019D01*
X187133Y4440D01*
X186660Y3967D01*
X186081Y3632D01*
X185681Y3525D01*
X185659Y3515D01*
X185635Y3511D01*
X185547Y3465D01*
X185457Y3424D01*
X185439Y3408D01*
X185418Y3396D01*
X185349Y3324D01*
X185276Y3257D01*
X185265Y3236D01*
X185248Y3218D01*
X185207Y3128D01*
X185159Y3041D01*
X185155Y3017D01*
X185145Y2995D01*
X185134Y2896D01*
X185117Y2798D01*
X185120Y2774D01*
X185118Y2751D01*
X185139Y2654D01*
X185154Y2555D01*
X185165Y2534D01*
X185170Y2510D01*
X185221Y2425D01*
X185266Y2336D01*
X185284Y2320D01*
X185296Y2299D01*
X185372Y2234D01*
X185443Y2165D01*
X185465Y2155D01*
X185483Y2139D01*
X185576Y2102D01*
X185665Y2059D01*
X185689Y2056D01*
X185711Y2047D01*
X185878Y2029D01*
X204560Y2029D01*
X204580Y2032D01*
X204599Y2030D01*
X204701Y2052D01*
X204803Y2068D01*
X204820Y2078D01*
X204840Y2082D01*
X204929Y2135D01*
X205020Y2184D01*
X205034Y2198D01*
X205051Y2208D01*
X205118Y2287D01*
X205190Y2362D01*
X205198Y2380D01*
X205211Y2395D01*
X205250Y2491D01*
X205293Y2585D01*
X205295Y2605D01*
X205303Y2623D01*
X205321Y2790D01*
X205321Y24537D01*
X206363Y25579D01*
X206671Y25579D01*
X206691Y25582D01*
X206710Y25580D01*
X206812Y25602D01*
X206914Y25618D01*
X206931Y25628D01*
X206951Y25632D01*
X207040Y25685D01*
X207131Y25734D01*
X207145Y25748D01*
X207162Y25758D01*
X207229Y25837D01*
X207301Y25912D01*
X207309Y25930D01*
X207322Y25945D01*
X207361Y26041D01*
X207404Y26135D01*
X207406Y26155D01*
X207414Y26173D01*
X207432Y26340D01*
X207432Y111080D01*
X207418Y111170D01*
X207410Y111261D01*
X207398Y111290D01*
X207393Y111322D01*
X207350Y111403D01*
X207314Y111487D01*
X207288Y111519D01*
X207277Y111540D01*
X207254Y111562D01*
X207209Y111618D01*
X204932Y113895D01*
X204932Y117860D01*
X204921Y117931D01*
X204919Y118003D01*
X204901Y118052D01*
X204893Y118103D01*
X204859Y118166D01*
X204834Y118234D01*
X204802Y118274D01*
X204777Y118321D01*
X204725Y118370D01*
X204681Y118426D01*
X204637Y118454D01*
X204599Y118490D01*
X204534Y118520D01*
X204474Y118559D01*
X204423Y118572D01*
X204376Y118594D01*
X204305Y118601D01*
X204235Y118619D01*
X204183Y118615D01*
X204132Y118621D01*
X204061Y118605D01*
X203990Y118600D01*
X203942Y118579D01*
X203891Y118568D01*
X203830Y118532D01*
X203764Y118503D01*
X203708Y118459D01*
X203680Y118442D01*
X203665Y118424D01*
X203633Y118399D01*
X202524Y117290D01*
X200516Y116458D01*
X198344Y116458D01*
X196336Y117290D01*
X194756Y118870D01*
X194749Y118883D01*
X194731Y118900D01*
X194717Y118923D01*
X194642Y118985D01*
X194571Y119052D01*
X194548Y119063D01*
X194528Y119079D01*
X194436Y119115D01*
X194348Y119156D01*
X194322Y119159D01*
X194298Y119168D01*
X194200Y119172D01*
X194104Y119183D01*
X194078Y119177D01*
X194052Y119178D01*
X193959Y119151D01*
X193863Y119131D01*
X193841Y119117D01*
X193816Y119110D01*
X193736Y119054D01*
X193652Y119004D01*
X193635Y118985D01*
X193614Y118970D01*
X193556Y118892D01*
X193492Y118817D01*
X193482Y118793D01*
X193467Y118773D01*
X193437Y118680D01*
X193400Y118589D01*
X193397Y118557D01*
X193391Y118539D01*
X193391Y118506D01*
X193382Y118423D01*
X193382Y117024D01*
X192550Y115016D01*
X190990Y113456D01*
X190959Y113437D01*
X190858Y113376D01*
X190854Y113372D01*
X190849Y113368D01*
X190774Y113279D01*
X190698Y113189D01*
X190696Y113184D01*
X190692Y113179D01*
X190650Y113070D01*
X190606Y112961D01*
X190605Y112954D01*
X190604Y112949D01*
X190603Y112931D01*
X190588Y112795D01*
X190588Y103035D01*
X185885Y98332D01*
X183640Y98332D01*
X183620Y98329D01*
X183601Y98331D01*
X183499Y98309D01*
X183397Y98293D01*
X183380Y98283D01*
X183360Y98279D01*
X183271Y98226D01*
X183180Y98177D01*
X183166Y98163D01*
X183149Y98153D01*
X183082Y98074D01*
X183010Y97999D01*
X183002Y97981D01*
X182989Y97966D01*
X182950Y97870D01*
X182907Y97776D01*
X182905Y97756D01*
X182897Y97738D01*
X182879Y97571D01*
X182879Y96263D01*
X181837Y95221D01*
X168363Y95221D01*
X167321Y96263D01*
X167321Y105737D01*
X168363Y106779D01*
X181837Y106779D01*
X182879Y105737D01*
X182879Y104709D01*
X182890Y104639D01*
X182892Y104567D01*
X182910Y104518D01*
X182918Y104467D01*
X182952Y104403D01*
X182977Y104336D01*
X183009Y104295D01*
X183034Y104249D01*
X183086Y104200D01*
X183130Y104144D01*
X183174Y104116D01*
X183212Y104080D01*
X183277Y104050D01*
X183337Y104011D01*
X183388Y103998D01*
X183435Y103976D01*
X183506Y103968D01*
X183576Y103951D01*
X183628Y103955D01*
X183679Y103949D01*
X183750Y103964D01*
X183821Y103970D01*
X183869Y103990D01*
X183920Y104001D01*
X183981Y104038D01*
X184047Y104066D01*
X184103Y104111D01*
X184131Y104127D01*
X184146Y104145D01*
X184178Y104171D01*
X185029Y105022D01*
X185071Y105080D01*
X185119Y105131D01*
X185127Y105148D01*
X185142Y105165D01*
X185154Y105196D01*
X185173Y105222D01*
X185196Y105296D01*
X185223Y105354D01*
X185224Y105370D01*
X185234Y105394D01*
X185238Y105435D01*
X185245Y105457D01*
X185244Y105489D01*
X185252Y105560D01*
X185252Y112795D01*
X185233Y112910D01*
X185216Y113026D01*
X185214Y113031D01*
X185213Y113037D01*
X185158Y113140D01*
X185105Y113245D01*
X185100Y113249D01*
X185097Y113255D01*
X185013Y113335D01*
X184929Y113417D01*
X184923Y113421D01*
X184919Y113424D01*
X184902Y113432D01*
X184839Y113466D01*
X183999Y114307D01*
X183983Y114319D01*
X183970Y114334D01*
X183883Y114390D01*
X183799Y114450D01*
X183780Y114456D01*
X183763Y114467D01*
X183663Y114492D01*
X183564Y114523D01*
X183544Y114522D01*
X183525Y114527D01*
X183422Y114519D01*
X183318Y114516D01*
X183300Y114510D01*
X183280Y114508D01*
X183185Y114468D01*
X183087Y114432D01*
X183072Y114419D01*
X183053Y114412D01*
X182922Y114307D01*
X181837Y113221D01*
X168363Y113221D01*
X167321Y114263D01*
X167321Y123737D01*
X168363Y124779D01*
X170419Y124779D01*
X170490Y124790D01*
X170562Y124792D01*
X170611Y124810D01*
X170662Y124818D01*
X170725Y124852D01*
X170793Y124877D01*
X170834Y124909D01*
X170880Y124934D01*
X170929Y124986D01*
X170985Y125030D01*
X171013Y125074D01*
X171049Y125112D01*
X171079Y125177D01*
X171118Y125237D01*
X171131Y125288D01*
X171153Y125335D01*
X171160Y125406D01*
X171178Y125476D01*
X171174Y125528D01*
X171180Y125579D01*
X171164Y125650D01*
X171159Y125721D01*
X171138Y125769D01*
X171127Y125820D01*
X171091Y125881D01*
X171062Y125947D01*
X171018Y126003D01*
X171001Y126031D01*
X170983Y126046D01*
X170958Y126078D01*
X170590Y126446D01*
X169929Y128041D01*
X169880Y128120D01*
X169837Y128203D01*
X169816Y128224D01*
X169800Y128250D01*
X169728Y128309D01*
X169661Y128374D01*
X169634Y128387D01*
X169610Y128406D01*
X169523Y128440D01*
X169439Y128480D01*
X169409Y128484D01*
X169381Y128495D01*
X169287Y128499D01*
X169195Y128510D01*
X169157Y128504D01*
X169135Y128505D01*
X169103Y128496D01*
X169029Y128485D01*
X168935Y128459D01*
X164386Y128459D01*
X164366Y128456D01*
X164347Y128458D01*
X164245Y128436D01*
X164143Y128420D01*
X164126Y128410D01*
X164106Y128406D01*
X164017Y128353D01*
X163926Y128304D01*
X163912Y128290D01*
X163895Y128280D01*
X163828Y128201D01*
X163756Y128126D01*
X163748Y128108D01*
X163735Y128093D01*
X163696Y127997D01*
X163653Y127903D01*
X163651Y127883D01*
X163643Y127865D01*
X163625Y127698D01*
X163625Y86368D01*
X162758Y85501D01*
X162716Y85443D01*
X162666Y85391D01*
X162644Y85344D01*
X162614Y85302D01*
X162593Y85233D01*
X162563Y85168D01*
X162557Y85116D01*
X162542Y85066D01*
X162544Y84995D01*
X162536Y84924D01*
X162547Y84873D01*
X162548Y84821D01*
X162573Y84753D01*
X162588Y84683D01*
X162615Y84638D01*
X162632Y84590D01*
X162677Y84534D01*
X162714Y84472D01*
X162754Y84438D01*
X162786Y84398D01*
X162846Y84359D01*
X162901Y84312D01*
X162949Y84293D01*
X162993Y84265D01*
X163063Y84247D01*
X163129Y84220D01*
X163200Y84212D01*
X163232Y84204D01*
X163255Y84206D01*
X163296Y84202D01*
X163606Y84202D01*
X165614Y83370D01*
X166022Y82962D01*
X166080Y82920D01*
X166132Y82871D01*
X166179Y82849D01*
X166221Y82819D01*
X166290Y82798D01*
X166355Y82767D01*
X166407Y82762D01*
X166457Y82746D01*
X166528Y82748D01*
X166599Y82740D01*
X166650Y82751D01*
X166702Y82753D01*
X166770Y82777D01*
X166840Y82793D01*
X166885Y82819D01*
X166933Y82837D01*
X166989Y82882D01*
X167051Y82919D01*
X167085Y82958D01*
X167125Y82991D01*
X167164Y83051D01*
X167211Y83106D01*
X167230Y83154D01*
X167258Y83198D01*
X167276Y83267D01*
X167303Y83334D01*
X167311Y83405D01*
X167319Y83436D01*
X167317Y83460D01*
X167321Y83501D01*
X167321Y83737D01*
X168363Y84779D01*
X181837Y84779D01*
X182879Y83737D01*
X182879Y74263D01*
X181837Y73221D01*
X168363Y73221D01*
X167191Y74394D01*
X167166Y74440D01*
X167114Y74489D01*
X167070Y74545D01*
X167026Y74573D01*
X166988Y74609D01*
X166923Y74639D01*
X166863Y74678D01*
X166812Y74691D01*
X166765Y74713D01*
X166694Y74720D01*
X166624Y74738D01*
X166572Y74734D01*
X166521Y74740D01*
X166450Y74724D01*
X166379Y74719D01*
X166331Y74698D01*
X166280Y74687D01*
X166219Y74651D01*
X166153Y74622D01*
X166097Y74578D01*
X166069Y74561D01*
X166054Y74543D01*
X166022Y74518D01*
X165614Y74110D01*
X163606Y73278D01*
X161434Y73278D01*
X159426Y74110D01*
X157890Y75646D01*
X157058Y77654D01*
X157058Y79826D01*
X157890Y81834D01*
X159426Y83370D01*
X160972Y84011D01*
X161055Y84062D01*
X161141Y84108D01*
X161159Y84127D01*
X161182Y84140D01*
X161244Y84215D01*
X161311Y84286D01*
X161322Y84310D01*
X161338Y84330D01*
X161373Y84421D01*
X161414Y84509D01*
X161417Y84535D01*
X161427Y84559D01*
X161431Y84657D01*
X161441Y84753D01*
X161436Y84779D01*
X161437Y84805D01*
X161410Y84899D01*
X161389Y84994D01*
X161376Y85016D01*
X161368Y85041D01*
X161313Y85121D01*
X161263Y85205D01*
X161243Y85222D01*
X161228Y85243D01*
X161150Y85302D01*
X161076Y85365D01*
X161052Y85375D01*
X161031Y85390D01*
X160938Y85420D01*
X160848Y85457D01*
X160815Y85460D01*
X160797Y85466D01*
X160764Y85466D01*
X160681Y85475D01*
X154468Y85475D01*
X153575Y86368D01*
X153575Y127632D01*
X154453Y128509D01*
X154478Y128545D01*
X154511Y128574D01*
X154550Y128644D01*
X154596Y128709D01*
X154609Y128751D01*
X154631Y128789D01*
X154645Y128868D01*
X154669Y128944D01*
X154668Y128988D01*
X154676Y129031D01*
X154664Y129110D01*
X154662Y129190D01*
X154647Y129231D01*
X154641Y129274D01*
X154583Y129408D01*
X154578Y129421D01*
X154576Y129424D01*
X154574Y129428D01*
X154232Y130019D01*
X154059Y130666D01*
X154059Y133698D01*
X154056Y133718D01*
X154058Y133737D01*
X154036Y133839D01*
X154020Y133941D01*
X154010Y133958D01*
X154006Y133978D01*
X153953Y134067D01*
X153904Y134158D01*
X153890Y134172D01*
X153880Y134189D01*
X153801Y134256D01*
X153726Y134328D01*
X153708Y134336D01*
X153693Y134349D01*
X153597Y134388D01*
X153503Y134431D01*
X153483Y134433D01*
X153465Y134441D01*
X153298Y134459D01*
X152123Y134459D01*
X152123Y144238D01*
X152120Y144258D01*
X152122Y144277D01*
X152100Y144379D01*
X152083Y144481D01*
X152074Y144498D01*
X152070Y144518D01*
X152017Y144607D01*
X151968Y144698D01*
X151954Y144712D01*
X151944Y144729D01*
X151865Y144796D01*
X151790Y144867D01*
X151772Y144876D01*
X151757Y144889D01*
X151661Y144928D01*
X151567Y144971D01*
X151547Y144973D01*
X151529Y144981D01*
X151362Y144999D01*
X149838Y144999D01*
X149818Y144996D01*
X149799Y144998D01*
X149697Y144976D01*
X149595Y144959D01*
X149578Y144950D01*
X149558Y144946D01*
X149469Y144893D01*
X149378Y144844D01*
X149364Y144830D01*
X149347Y144820D01*
X149280Y144741D01*
X149209Y144666D01*
X149200Y144648D01*
X149187Y144633D01*
X149148Y144537D01*
X149105Y144443D01*
X149103Y144423D01*
X149095Y144405D01*
X149077Y144238D01*
X149077Y134459D01*
X146766Y134459D01*
X146119Y134632D01*
X145540Y134967D01*
X145099Y135407D01*
X145083Y135419D01*
X145071Y135435D01*
X144983Y135491D01*
X144900Y135551D01*
X144881Y135557D01*
X144864Y135568D01*
X144764Y135593D01*
X144665Y135623D01*
X144645Y135623D01*
X144625Y135628D01*
X144522Y135620D01*
X144419Y135617D01*
X144400Y135610D01*
X144380Y135609D01*
X144285Y135568D01*
X144188Y135532D01*
X144172Y135520D01*
X144154Y135512D01*
X144023Y135407D01*
X143837Y135221D01*
X135363Y135221D01*
X134638Y135946D01*
X134622Y135958D01*
X134610Y135973D01*
X134522Y136029D01*
X134439Y136090D01*
X134420Y136096D01*
X134403Y136106D01*
X134302Y136132D01*
X134203Y136162D01*
X134184Y136162D01*
X134164Y136166D01*
X134061Y136158D01*
X133958Y136156D01*
X133939Y136149D01*
X133919Y136147D01*
X133824Y136107D01*
X133727Y136071D01*
X133711Y136059D01*
X133693Y136051D01*
X133562Y135946D01*
X132837Y135221D01*
X124363Y135221D01*
X124177Y135407D01*
X124161Y135419D01*
X124148Y135435D01*
X124061Y135491D01*
X123977Y135551D01*
X123958Y135557D01*
X123942Y135568D01*
X123841Y135593D01*
X123742Y135623D01*
X123722Y135623D01*
X123703Y135628D01*
X123600Y135620D01*
X123496Y135617D01*
X123478Y135610D01*
X123458Y135609D01*
X123363Y135568D01*
X123265Y135532D01*
X123250Y135520D01*
X123231Y135512D01*
X123100Y135407D01*
X122660Y134967D01*
X122081Y134632D01*
X121434Y134459D01*
X119123Y134459D01*
X119123Y144238D01*
X119120Y144258D01*
X119122Y144277D01*
X119100Y144379D01*
X119083Y144481D01*
X119074Y144498D01*
X119070Y144518D01*
X119017Y144607D01*
X118968Y144698D01*
X118954Y144712D01*
X118944Y144729D01*
X118865Y144796D01*
X118790Y144867D01*
X118772Y144876D01*
X118757Y144889D01*
X118661Y144928D01*
X118567Y144971D01*
X118547Y144973D01*
X118529Y144981D01*
X118362Y144999D01*
X116838Y144999D01*
X116818Y144996D01*
X116799Y144998D01*
X116697Y144976D01*
X116595Y144959D01*
X116578Y144950D01*
X116558Y144946D01*
X116469Y144893D01*
X116378Y144844D01*
X116364Y144830D01*
X116347Y144820D01*
X116280Y144741D01*
X116209Y144666D01*
X116200Y144648D01*
X116187Y144633D01*
X116148Y144537D01*
X116105Y144443D01*
X116103Y144423D01*
X116095Y144405D01*
X116077Y144238D01*
X116077Y134459D01*
X113766Y134459D01*
X113119Y134632D01*
X112540Y134967D01*
X112099Y135407D01*
X112083Y135419D01*
X112071Y135435D01*
X111983Y135491D01*
X111900Y135551D01*
X111881Y135557D01*
X111864Y135568D01*
X111764Y135593D01*
X111665Y135623D01*
X111645Y135623D01*
X111625Y135628D01*
X111522Y135620D01*
X111419Y135617D01*
X111400Y135610D01*
X111380Y135609D01*
X111285Y135568D01*
X111188Y135532D01*
X111172Y135520D01*
X111154Y135512D01*
X111023Y135407D01*
X110837Y135221D01*
X102363Y135221D01*
X101638Y135946D01*
X101622Y135958D01*
X101610Y135973D01*
X101522Y136029D01*
X101439Y136090D01*
X101420Y136096D01*
X101403Y136106D01*
X101302Y136132D01*
X101203Y136162D01*
X101184Y136162D01*
X101164Y136166D01*
X101061Y136158D01*
X100958Y136156D01*
X100939Y136149D01*
X100919Y136147D01*
X100824Y136107D01*
X100727Y136071D01*
X100711Y136059D01*
X100693Y136051D01*
X100562Y135946D01*
X99837Y135221D01*
X99354Y135221D01*
X99334Y135218D01*
X99315Y135220D01*
X99213Y135198D01*
X99111Y135182D01*
X99094Y135172D01*
X99074Y135168D01*
X98985Y135115D01*
X98894Y135066D01*
X98880Y135052D01*
X98863Y135042D01*
X98796Y134963D01*
X98724Y134888D01*
X98716Y134870D01*
X98703Y134855D01*
X98664Y134759D01*
X98621Y134665D01*
X98619Y134645D01*
X98611Y134627D01*
X98593Y134460D01*
X98593Y133007D01*
X98607Y132917D01*
X98615Y132826D01*
X98627Y132796D01*
X98632Y132764D01*
X98675Y132683D01*
X98711Y132599D01*
X98737Y132567D01*
X98748Y132547D01*
X98771Y132524D01*
X98816Y132468D01*
X99920Y131364D01*
X100752Y129356D01*
X100752Y127184D01*
X99920Y125176D01*
X98384Y123640D01*
X96376Y122808D01*
X94204Y122808D01*
X92196Y123640D01*
X91092Y124744D01*
X91018Y124797D01*
X90948Y124857D01*
X90918Y124869D01*
X90892Y124888D01*
X90805Y124915D01*
X90720Y124949D01*
X90679Y124953D01*
X90657Y124960D01*
X90625Y124959D01*
X90553Y124967D01*
X49472Y124967D01*
X47314Y127125D01*
X28440Y145999D01*
X28382Y146041D01*
X28330Y146090D01*
X28283Y146112D01*
X28241Y146143D01*
X28172Y146164D01*
X28107Y146194D01*
X28055Y146200D01*
X28005Y146215D01*
X27934Y146213D01*
X27863Y146221D01*
X27812Y146210D01*
X27760Y146209D01*
X27692Y146184D01*
X27622Y146169D01*
X27577Y146142D01*
X27529Y146124D01*
X27473Y146079D01*
X27411Y146042D01*
X27377Y146003D01*
X27337Y145970D01*
X27298Y145910D01*
X27251Y145856D01*
X27232Y145807D01*
X27204Y145763D01*
X27186Y145694D01*
X27159Y145627D01*
X27151Y145556D01*
X27143Y145525D01*
X27145Y145502D01*
X27141Y145461D01*
X27141Y141523D01*
X18123Y141523D01*
X18123Y149541D01*
X23061Y149541D01*
X23131Y149552D01*
X23203Y149554D01*
X23252Y149572D01*
X23303Y149580D01*
X23367Y149614D01*
X23434Y149639D01*
X23475Y149671D01*
X23521Y149696D01*
X23570Y149748D01*
X23626Y149792D01*
X23654Y149836D01*
X23690Y149874D01*
X23720Y149939D01*
X23759Y149999D01*
X23772Y150050D01*
X23794Y150097D01*
X23802Y150168D01*
X23819Y150238D01*
X23815Y150290D01*
X23821Y150341D01*
X23806Y150412D01*
X23800Y150483D01*
X23780Y150531D01*
X23769Y150582D01*
X23732Y150643D01*
X23704Y150709D01*
X23659Y150765D01*
X23642Y150793D01*
X23625Y150808D01*
X23599Y150840D01*
X23297Y151142D01*
X23297Y152460D01*
X23294Y152480D01*
X23296Y152499D01*
X23274Y152601D01*
X23258Y152703D01*
X23248Y152720D01*
X23244Y152740D01*
X23191Y152829D01*
X23142Y152920D01*
X23128Y152934D01*
X23118Y152951D01*
X23039Y153018D01*
X22964Y153090D01*
X22946Y153098D01*
X22931Y153111D01*
X22835Y153150D01*
X22741Y153193D01*
X22721Y153195D01*
X22703Y153203D01*
X22536Y153221D01*
X20363Y153221D01*
X19321Y154263D01*
X19321Y165737D01*
X20363Y166779D01*
X32837Y166779D01*
X33879Y165737D01*
X33879Y154263D01*
X32837Y153221D01*
X32397Y153221D01*
X32327Y153210D01*
X32255Y153208D01*
X32206Y153190D01*
X32155Y153182D01*
X32091Y153148D01*
X32024Y153123D01*
X31983Y153091D01*
X31937Y153066D01*
X31888Y153014D01*
X31832Y152970D01*
X31804Y152926D01*
X31768Y152888D01*
X31738Y152823D01*
X31699Y152763D01*
X31686Y152712D01*
X31664Y152665D01*
X31656Y152594D01*
X31639Y152524D01*
X31643Y152472D01*
X31637Y152421D01*
X31652Y152350D01*
X31658Y152279D01*
X31678Y152231D01*
X31689Y152180D01*
X31726Y152119D01*
X31754Y152053D01*
X31799Y151997D01*
X31816Y151969D01*
X31833Y151954D01*
X31859Y151922D01*
X51985Y131796D01*
X52059Y131743D01*
X52128Y131683D01*
X52159Y131671D01*
X52185Y131652D01*
X52272Y131625D01*
X52357Y131591D01*
X52398Y131587D01*
X52420Y131580D01*
X52452Y131581D01*
X52523Y131573D01*
X90553Y131573D01*
X90643Y131587D01*
X90734Y131595D01*
X90764Y131607D01*
X90796Y131612D01*
X90877Y131655D01*
X90961Y131691D01*
X90993Y131717D01*
X91013Y131728D01*
X91036Y131751D01*
X91092Y131796D01*
X91764Y132468D01*
X91817Y132542D01*
X91877Y132612D01*
X91889Y132642D01*
X91908Y132668D01*
X91935Y132755D01*
X91969Y132840D01*
X91973Y132881D01*
X91980Y132903D01*
X91979Y132935D01*
X91987Y133007D01*
X91987Y134460D01*
X91984Y134480D01*
X91986Y134499D01*
X91964Y134601D01*
X91948Y134703D01*
X91938Y134720D01*
X91934Y134740D01*
X91881Y134829D01*
X91832Y134920D01*
X91818Y134934D01*
X91808Y134951D01*
X91729Y135018D01*
X91654Y135090D01*
X91636Y135098D01*
X91621Y135111D01*
X91525Y135150D01*
X91431Y135193D01*
X91411Y135195D01*
X91393Y135203D01*
X91380Y135204D01*
X90638Y135946D01*
X90622Y135958D01*
X90610Y135973D01*
X90522Y136029D01*
X90439Y136090D01*
X90420Y136096D01*
X90403Y136106D01*
X90302Y136132D01*
X90203Y136162D01*
X90184Y136162D01*
X90164Y136166D01*
X90061Y136158D01*
X89958Y136156D01*
X89939Y136149D01*
X89919Y136147D01*
X89824Y136107D01*
X89727Y136071D01*
X89711Y136059D01*
X89693Y136051D01*
X89562Y135946D01*
X88837Y135221D01*
X80363Y135221D01*
X79638Y135946D01*
X79622Y135958D01*
X79610Y135973D01*
X79522Y136029D01*
X79439Y136090D01*
X79420Y136096D01*
X79403Y136106D01*
X79302Y136132D01*
X79203Y136162D01*
X79184Y136162D01*
X79164Y136166D01*
X79061Y136158D01*
X78958Y136156D01*
X78939Y136149D01*
X78919Y136147D01*
X78824Y136107D01*
X78727Y136071D01*
X78711Y136059D01*
X78693Y136051D01*
X78562Y135946D01*
X77837Y135221D01*
X69363Y135221D01*
X68638Y135946D01*
X68622Y135958D01*
X68610Y135973D01*
X68522Y136029D01*
X68439Y136090D01*
X68420Y136096D01*
X68403Y136106D01*
X68302Y136132D01*
X68203Y136162D01*
X68184Y136162D01*
X68164Y136166D01*
X68061Y136158D01*
X67958Y136156D01*
X67939Y136149D01*
X67919Y136147D01*
X67824Y136107D01*
X67727Y136071D01*
X67711Y136059D01*
X67693Y136051D01*
X67562Y135946D01*
X66837Y135221D01*
X58363Y135221D01*
X57321Y136263D01*
X57321Y153737D01*
X58363Y154779D01*
X66837Y154779D01*
X67562Y154054D01*
X67578Y154042D01*
X67590Y154027D01*
X67678Y153971D01*
X67761Y153910D01*
X67780Y153904D01*
X67797Y153894D01*
X67898Y153868D01*
X67997Y153838D01*
X68016Y153838D01*
X68036Y153834D01*
X68139Y153842D01*
X68242Y153844D01*
X68261Y153851D01*
X68281Y153853D01*
X68376Y153893D01*
X68473Y153929D01*
X68489Y153941D01*
X68507Y153949D01*
X68638Y154054D01*
X69363Y154779D01*
X70191Y154779D01*
X70211Y154782D01*
X70230Y154780D01*
X70332Y154802D01*
X70434Y154818D01*
X70451Y154828D01*
X70471Y154832D01*
X70560Y154885D01*
X70651Y154934D01*
X70665Y154948D01*
X70682Y154958D01*
X70749Y155037D01*
X70821Y155112D01*
X70829Y155130D01*
X70842Y155145D01*
X70881Y155241D01*
X70924Y155335D01*
X70926Y155355D01*
X70934Y155373D01*
X70952Y155540D01*
X70952Y160683D01*
X70949Y160703D01*
X70951Y160722D01*
X70929Y160824D01*
X70913Y160926D01*
X70903Y160943D01*
X70899Y160963D01*
X70846Y161052D01*
X70797Y161143D01*
X70783Y161157D01*
X70773Y161174D01*
X70694Y161241D01*
X70619Y161313D01*
X70601Y161321D01*
X70586Y161334D01*
X70490Y161373D01*
X70396Y161416D01*
X70376Y161418D01*
X70358Y161426D01*
X70191Y161444D01*
X58812Y161444D01*
X58722Y161430D01*
X58631Y161422D01*
X58602Y161410D01*
X58570Y161405D01*
X58489Y161362D01*
X58405Y161326D01*
X58373Y161300D01*
X58352Y161289D01*
X58330Y161266D01*
X58274Y161221D01*
X54385Y157332D01*
X51640Y157332D01*
X51620Y157329D01*
X51601Y157331D01*
X51499Y157309D01*
X51397Y157293D01*
X51380Y157283D01*
X51360Y157279D01*
X51271Y157226D01*
X51180Y157177D01*
X51166Y157163D01*
X51149Y157153D01*
X51082Y157074D01*
X51010Y156999D01*
X51002Y156981D01*
X50989Y156966D01*
X50950Y156870D01*
X50907Y156776D01*
X50905Y156756D01*
X50897Y156738D01*
X50879Y156571D01*
X50879Y154263D01*
X49837Y153221D01*
X37363Y153221D01*
X36321Y154263D01*
X36321Y165737D01*
X37363Y166779D01*
X49837Y166779D01*
X50879Y165737D01*
X50879Y163429D01*
X50882Y163409D01*
X50880Y163390D01*
X50902Y163288D01*
X50918Y163186D01*
X50928Y163169D01*
X50932Y163149D01*
X50985Y163060D01*
X51034Y162969D01*
X51048Y162955D01*
X51058Y162938D01*
X51137Y162871D01*
X51212Y162799D01*
X51230Y162791D01*
X51245Y162778D01*
X51341Y162739D01*
X51435Y162696D01*
X51455Y162694D01*
X51473Y162686D01*
X51640Y162668D01*
X51860Y162668D01*
X51950Y162682D01*
X52041Y162690D01*
X52070Y162702D01*
X52102Y162707D01*
X52183Y162750D01*
X52267Y162786D01*
X52299Y162812D01*
X52320Y162823D01*
X52342Y162846D01*
X52398Y162891D01*
X56287Y166780D01*
X79604Y166780D01*
X79649Y166787D01*
X79695Y166785D01*
X79770Y166807D01*
X79847Y166819D01*
X79887Y166841D01*
X79932Y166854D01*
X79996Y166898D01*
X80064Y166935D01*
X80096Y166968D01*
X80134Y166994D01*
X80180Y167057D01*
X80234Y167113D01*
X80253Y167155D01*
X80280Y167191D01*
X80305Y167265D01*
X80337Y167336D01*
X80342Y167382D01*
X80357Y167425D01*
X80356Y167503D01*
X80364Y167580D01*
X80355Y167625D01*
X80354Y167671D01*
X80316Y167803D01*
X80312Y167821D01*
X80310Y167825D01*
X80308Y167832D01*
X79668Y169376D01*
X79668Y171548D01*
X80339Y173169D01*
X80350Y173213D01*
X80369Y173255D01*
X80378Y173332D01*
X80396Y173408D01*
X80391Y173454D01*
X80396Y173499D01*
X80380Y173576D01*
X80372Y173653D01*
X80354Y173695D01*
X80344Y173740D01*
X80304Y173807D01*
X80272Y173878D01*
X80241Y173912D01*
X80218Y173951D01*
X80159Y174002D01*
X80106Y174059D01*
X80066Y174081D01*
X80031Y174111D01*
X79959Y174140D01*
X79891Y174177D01*
X79845Y174186D01*
X79803Y174203D01*
X79667Y174218D01*
X79649Y174221D01*
X79644Y174220D01*
X79636Y174221D01*
X69363Y174221D01*
X68321Y175263D01*
X68321Y178071D01*
X68318Y178091D01*
X68320Y178110D01*
X68298Y178212D01*
X68282Y178314D01*
X68272Y178331D01*
X68268Y178351D01*
X68215Y178440D01*
X68166Y178531D01*
X68152Y178545D01*
X68142Y178562D01*
X68063Y178629D01*
X67988Y178701D01*
X67970Y178709D01*
X67955Y178722D01*
X67859Y178761D01*
X67765Y178804D01*
X67745Y178806D01*
X67727Y178814D01*
X67560Y178832D01*
X60495Y178832D01*
X59329Y179998D01*
X59255Y180051D01*
X59186Y180111D01*
X59155Y180123D01*
X59129Y180142D01*
X59042Y180169D01*
X58957Y180203D01*
X58916Y180207D01*
X58894Y180214D01*
X58862Y180213D01*
X58791Y180221D01*
X44790Y180221D01*
X44784Y180225D01*
X44684Y180250D01*
X44585Y180280D01*
X44565Y180280D01*
X44546Y180285D01*
X44443Y180277D01*
X44339Y180274D01*
X44321Y180267D01*
X44301Y180266D01*
X44206Y180225D01*
X44108Y180190D01*
X44093Y180177D01*
X44074Y180169D01*
X43943Y180064D01*
X42622Y178743D01*
X37741Y176721D01*
X32459Y176721D01*
X27578Y178743D01*
X26257Y180064D01*
X26240Y180076D01*
X26228Y180092D01*
X26140Y180148D01*
X26057Y180208D01*
X26038Y180214D01*
X26021Y180225D01*
X25920Y180250D01*
X25822Y180280D01*
X25802Y180280D01*
X25782Y180285D01*
X25679Y180277D01*
X25576Y180274D01*
X25557Y180267D01*
X25537Y180266D01*
X25442Y180225D01*
X25432Y180221D01*
X8863Y180221D01*
X7821Y181263D01*
X7821Y198737D01*
X8863Y199779D01*
X13671Y199779D01*
X13691Y199782D01*
X13710Y199780D01*
X13812Y199802D01*
X13914Y199818D01*
X13931Y199828D01*
X13951Y199832D01*
X14040Y199885D01*
X14131Y199934D01*
X14145Y199948D01*
X14162Y199958D01*
X14229Y200037D01*
X14301Y200112D01*
X14309Y200130D01*
X14322Y200145D01*
X14361Y200241D01*
X14404Y200335D01*
X14406Y200355D01*
X14414Y200373D01*
X14432Y200540D01*
X14432Y203105D01*
X19455Y208128D01*
X19524Y208223D01*
X19593Y208317D01*
X19595Y208323D01*
X19599Y208328D01*
X19633Y208439D01*
X19669Y208551D01*
X19669Y208557D01*
X19671Y208563D01*
X19668Y208679D01*
X19667Y208796D01*
X19665Y208804D01*
X19665Y208809D01*
X19658Y208826D01*
X19638Y208895D01*
X19638Y211086D01*
X20470Y213094D01*
X22006Y214630D01*
X24014Y215462D01*
X26186Y215462D01*
X28194Y214630D01*
X29730Y213094D01*
X30562Y211086D01*
X30562Y208914D01*
X29730Y206906D01*
X28194Y205370D01*
X26186Y204538D01*
X23980Y204538D01*
X23944Y204547D01*
X23830Y204575D01*
X23824Y204575D01*
X23818Y204576D01*
X23701Y204565D01*
X23585Y204556D01*
X23579Y204554D01*
X23573Y204553D01*
X23466Y204506D01*
X23359Y204460D01*
X23353Y204455D01*
X23348Y204453D01*
X23335Y204441D01*
X23228Y204355D01*
X19991Y201118D01*
X19938Y201044D01*
X19878Y200975D01*
X19866Y200944D01*
X19847Y200918D01*
X19820Y200831D01*
X19786Y200746D01*
X19782Y200705D01*
X19775Y200683D01*
X19776Y200651D01*
X19768Y200580D01*
X19768Y200540D01*
X19771Y200520D01*
X19769Y200501D01*
X19781Y200444D01*
X19781Y200437D01*
X19785Y200428D01*
X19791Y200399D01*
X19807Y200297D01*
X19817Y200280D01*
X19821Y200260D01*
X19874Y200171D01*
X19923Y200080D01*
X19937Y200066D01*
X19947Y200049D01*
X20026Y199982D01*
X20101Y199910D01*
X20119Y199902D01*
X20134Y199889D01*
X20230Y199850D01*
X20324Y199807D01*
X20344Y199805D01*
X20362Y199797D01*
X20529Y199779D01*
X25410Y199779D01*
X25416Y199775D01*
X25516Y199750D01*
X25615Y199720D01*
X25635Y199720D01*
X25654Y199715D01*
X25757Y199723D01*
X25861Y199726D01*
X25879Y199733D01*
X25899Y199734D01*
X25994Y199775D01*
X26092Y199810D01*
X26107Y199823D01*
X26126Y199831D01*
X26257Y199936D01*
X27578Y201257D01*
X32459Y203279D01*
X37741Y203279D01*
X42622Y201257D01*
X43943Y199936D01*
X43960Y199924D01*
X43972Y199908D01*
X44060Y199852D01*
X44143Y199792D01*
X44162Y199786D01*
X44179Y199775D01*
X44280Y199750D01*
X44378Y199720D01*
X44398Y199720D01*
X44418Y199715D01*
X44521Y199723D01*
X44624Y199726D01*
X44643Y199733D01*
X44663Y199734D01*
X44758Y199775D01*
X44768Y199779D01*
X61337Y199779D01*
X62379Y198737D01*
X62379Y184929D01*
X62382Y184909D01*
X62380Y184890D01*
X62402Y184788D01*
X62418Y184686D01*
X62428Y184669D01*
X62432Y184649D01*
X62485Y184560D01*
X62534Y184469D01*
X62548Y184455D01*
X62558Y184438D01*
X62637Y184371D01*
X62712Y184299D01*
X62730Y184291D01*
X62745Y184278D01*
X62841Y184239D01*
X62935Y184196D01*
X62955Y184194D01*
X62973Y184186D01*
X63140Y184168D01*
X67560Y184168D01*
X67580Y184171D01*
X67599Y184169D01*
X67701Y184191D01*
X67803Y184207D01*
X67820Y184217D01*
X67840Y184221D01*
X67929Y184274D01*
X68020Y184323D01*
X68034Y184337D01*
X68051Y184347D01*
X68118Y184426D01*
X68190Y184501D01*
X68198Y184519D01*
X68211Y184534D01*
X68250Y184630D01*
X68293Y184724D01*
X68295Y184744D01*
X68303Y184762D01*
X68321Y184929D01*
X68321Y187737D01*
X69363Y188779D01*
X80837Y188779D01*
X81879Y187737D01*
X81879Y183597D01*
X81890Y183527D01*
X81892Y183455D01*
X81910Y183406D01*
X81918Y183355D01*
X81952Y183291D01*
X81977Y183224D01*
X82009Y183183D01*
X82034Y183137D01*
X82086Y183088D01*
X82130Y183032D01*
X82174Y183004D01*
X82212Y182968D01*
X82277Y182938D01*
X82337Y182899D01*
X82388Y182886D01*
X82435Y182864D01*
X82506Y182856D01*
X82576Y182839D01*
X82628Y182843D01*
X82679Y182837D01*
X82750Y182852D01*
X82821Y182858D01*
X82869Y182878D01*
X82920Y182889D01*
X82981Y182926D01*
X83047Y182954D01*
X83103Y182999D01*
X83131Y183016D01*
X83146Y183033D01*
X83178Y183059D01*
X84922Y184803D01*
X87560Y184803D01*
X87580Y184806D01*
X87599Y184804D01*
X87701Y184826D01*
X87803Y184842D01*
X87820Y184852D01*
X87840Y184856D01*
X87929Y184909D01*
X88020Y184958D01*
X88034Y184972D01*
X88051Y184982D01*
X88118Y185061D01*
X88190Y185136D01*
X88198Y185154D01*
X88211Y185169D01*
X88250Y185265D01*
X88293Y185359D01*
X88295Y185379D01*
X88303Y185397D01*
X88321Y185564D01*
X88321Y187737D01*
X89363Y188779D01*
X100837Y188779D01*
X101879Y187737D01*
X101879Y175263D01*
X100837Y174221D01*
X90624Y174221D01*
X90579Y174214D01*
X90533Y174216D01*
X90458Y174194D01*
X90381Y174182D01*
X90341Y174160D01*
X90297Y174147D01*
X90233Y174103D01*
X90164Y174066D01*
X90132Y174033D01*
X90094Y174007D01*
X90048Y173944D01*
X89994Y173888D01*
X89975Y173846D01*
X89948Y173810D01*
X89924Y173736D01*
X89891Y173665D01*
X89886Y173619D01*
X89871Y173576D01*
X89872Y173498D01*
X89864Y173421D01*
X89873Y173376D01*
X89874Y173330D01*
X89912Y173198D01*
X89916Y173180D01*
X89918Y173176D01*
X89921Y173169D01*
X90592Y171548D01*
X90592Y169376D01*
X89952Y167832D01*
X89942Y167788D01*
X89923Y167746D01*
X89914Y167669D01*
X89896Y167593D01*
X89901Y167547D01*
X89896Y167502D01*
X89912Y167425D01*
X89919Y167348D01*
X89938Y167306D01*
X89948Y167261D01*
X89988Y167194D01*
X90019Y167123D01*
X90050Y167089D01*
X90074Y167050D01*
X90133Y166999D01*
X90186Y166942D01*
X90226Y166920D01*
X90261Y166890D01*
X90333Y166861D01*
X90401Y166824D01*
X90446Y166815D01*
X90489Y166798D01*
X90625Y166783D01*
X90643Y166780D01*
X90648Y166781D01*
X90656Y166780D01*
X122705Y166780D01*
X122795Y166794D01*
X122886Y166802D01*
X122915Y166814D01*
X122947Y166819D01*
X123028Y166862D01*
X123112Y166898D01*
X123144Y166924D01*
X123165Y166935D01*
X123187Y166958D01*
X123243Y167003D01*
X125662Y169422D01*
X125704Y169480D01*
X125753Y169532D01*
X125775Y169579D01*
X125806Y169621D01*
X125827Y169690D01*
X125857Y169755D01*
X125863Y169807D01*
X125878Y169857D01*
X125876Y169928D01*
X125884Y169999D01*
X125873Y170050D01*
X125872Y170102D01*
X125847Y170170D01*
X125832Y170240D01*
X125805Y170285D01*
X125787Y170333D01*
X125742Y170389D01*
X125706Y170451D01*
X125666Y170485D01*
X125633Y170525D01*
X125573Y170564D01*
X125519Y170611D01*
X125470Y170630D01*
X125426Y170658D01*
X125357Y170676D01*
X125290Y170703D01*
X125219Y170711D01*
X125188Y170719D01*
X125165Y170717D01*
X125124Y170721D01*
X121230Y170721D01*
X121140Y170707D01*
X121049Y170699D01*
X121019Y170687D01*
X120987Y170682D01*
X120906Y170639D01*
X120822Y170603D01*
X120790Y170577D01*
X120770Y170566D01*
X120747Y170543D01*
X120691Y170498D01*
X120660Y170467D01*
X120081Y170132D01*
X119434Y169959D01*
X118361Y169959D01*
X118361Y176500D01*
X118361Y183041D01*
X119171Y183041D01*
X119191Y183044D01*
X119210Y183042D01*
X119312Y183064D01*
X119414Y183080D01*
X119431Y183090D01*
X119451Y183094D01*
X119540Y183147D01*
X119631Y183196D01*
X119645Y183210D01*
X119662Y183220D01*
X119729Y183299D01*
X119801Y183374D01*
X119809Y183392D01*
X119822Y183407D01*
X119861Y183503D01*
X119904Y183597D01*
X119906Y183617D01*
X119914Y183635D01*
X119932Y183802D01*
X119932Y193558D01*
X119913Y193673D01*
X119896Y193789D01*
X119894Y193795D01*
X119893Y193801D01*
X119838Y193904D01*
X119785Y194008D01*
X119780Y194013D01*
X119777Y194018D01*
X119693Y194098D01*
X119609Y194181D01*
X119603Y194184D01*
X119599Y194188D01*
X119582Y194195D01*
X119467Y194259D01*
X117930Y195796D01*
X117098Y197804D01*
X117098Y199976D01*
X117930Y201984D01*
X119466Y203520D01*
X121474Y204352D01*
X123646Y204352D01*
X125654Y203520D01*
X127190Y201984D01*
X128022Y199976D01*
X128022Y197804D01*
X127190Y195796D01*
X125610Y194216D01*
X125538Y194173D01*
X125534Y194168D01*
X125529Y194165D01*
X125455Y194075D01*
X125378Y193986D01*
X125376Y193980D01*
X125372Y193975D01*
X125330Y193868D01*
X125286Y193758D01*
X125285Y193750D01*
X125284Y193746D01*
X125283Y193727D01*
X125268Y193591D01*
X125268Y187616D01*
X125279Y187546D01*
X125281Y187474D01*
X125299Y187425D01*
X125307Y187374D01*
X125341Y187310D01*
X125366Y187243D01*
X125398Y187202D01*
X125423Y187156D01*
X125475Y187107D01*
X125519Y187051D01*
X125563Y187023D01*
X125601Y186987D01*
X125666Y186957D01*
X125726Y186918D01*
X125777Y186905D01*
X125824Y186883D01*
X125895Y186875D01*
X125965Y186858D01*
X126017Y186862D01*
X126068Y186856D01*
X126139Y186871D01*
X126210Y186877D01*
X126258Y186897D01*
X126309Y186908D01*
X126370Y186945D01*
X126436Y186973D01*
X126492Y187018D01*
X126520Y187035D01*
X126535Y187052D01*
X126567Y187078D01*
X127705Y188216D01*
X127758Y188290D01*
X127818Y188359D01*
X127830Y188390D01*
X127849Y188416D01*
X127876Y188503D01*
X127910Y188588D01*
X127914Y188629D01*
X127921Y188651D01*
X127920Y188683D01*
X127928Y188754D01*
X127928Y190316D01*
X128760Y192324D01*
X130296Y193860D01*
X132304Y194692D01*
X134476Y194692D01*
X136484Y193860D01*
X138020Y192324D01*
X138852Y190316D01*
X138852Y188144D01*
X138020Y186136D01*
X136484Y184600D01*
X136373Y184554D01*
X136274Y184492D01*
X136173Y184432D01*
X136169Y184427D01*
X136164Y184424D01*
X136089Y184334D01*
X136013Y184245D01*
X136011Y184239D01*
X136007Y184235D01*
X135965Y184126D01*
X135921Y184017D01*
X135920Y184010D01*
X135919Y184005D01*
X135918Y183987D01*
X135903Y183850D01*
X135903Y183040D01*
X135906Y183020D01*
X135904Y183001D01*
X135926Y182899D01*
X135942Y182797D01*
X135952Y182780D01*
X135956Y182760D01*
X136009Y182671D01*
X136058Y182580D01*
X136072Y182566D01*
X136082Y182549D01*
X136161Y182482D01*
X136236Y182410D01*
X136254Y182402D01*
X136269Y182389D01*
X136365Y182350D01*
X136459Y182307D01*
X136479Y182305D01*
X136497Y182297D01*
X136664Y182279D01*
X164171Y182279D01*
X164191Y182282D01*
X164210Y182280D01*
X164312Y182302D01*
X164414Y182318D01*
X164431Y182328D01*
X164451Y182332D01*
X164540Y182385D01*
X164631Y182434D01*
X164645Y182448D01*
X164662Y182458D01*
X164729Y182537D01*
X164801Y182612D01*
X164809Y182630D01*
X164822Y182645D01*
X164861Y182741D01*
X164904Y182835D01*
X164906Y182855D01*
X164914Y182873D01*
X164932Y183040D01*
X164932Y193777D01*
X164929Y193797D01*
X164931Y193816D01*
X164909Y193918D01*
X164893Y194020D01*
X164883Y194037D01*
X164879Y194057D01*
X164826Y194146D01*
X164777Y194237D01*
X164763Y194251D01*
X164753Y194268D01*
X164674Y194335D01*
X164599Y194407D01*
X164581Y194415D01*
X164566Y194428D01*
X164470Y194467D01*
X164376Y194510D01*
X164356Y194512D01*
X164338Y194520D01*
X164171Y194538D01*
X164014Y194538D01*
X162006Y195370D01*
X160470Y196906D01*
X159638Y198914D01*
X159638Y201086D01*
X160470Y203094D01*
X162006Y204630D01*
X164014Y205462D01*
X164028Y205462D01*
X164098Y205473D01*
X164170Y205475D01*
X164219Y205493D01*
X164270Y205501D01*
X164334Y205535D01*
X164401Y205560D01*
X164442Y205592D01*
X164488Y205617D01*
X164537Y205668D01*
X164593Y205713D01*
X164621Y205757D01*
X164657Y205795D01*
X164687Y205860D01*
X164726Y205920D01*
X164739Y205971D01*
X164761Y206018D01*
X164769Y206089D01*
X164786Y206159D01*
X164782Y206211D01*
X164788Y206262D01*
X164773Y206333D01*
X164767Y206404D01*
X164747Y206452D01*
X164736Y206503D01*
X164699Y206564D01*
X164671Y206630D01*
X164626Y206686D01*
X164610Y206714D01*
X164592Y206729D01*
X164566Y206761D01*
X164218Y207109D01*
X164144Y207162D01*
X164075Y207222D01*
X164044Y207234D01*
X164018Y207253D01*
X163931Y207280D01*
X163846Y207314D01*
X163805Y207318D01*
X163783Y207325D01*
X163751Y207324D01*
X163680Y207332D01*
X112121Y207332D01*
X112050Y207321D01*
X111978Y207319D01*
X111929Y207301D01*
X111878Y207293D01*
X111815Y207259D01*
X111747Y207234D01*
X111707Y207202D01*
X111661Y207177D01*
X111611Y207125D01*
X111555Y207080D01*
X111527Y207037D01*
X111492Y206999D01*
X111461Y206934D01*
X111422Y206873D01*
X111410Y206823D01*
X111388Y206776D01*
X111380Y206705D01*
X111362Y206635D01*
X111367Y206583D01*
X111361Y206532D01*
X111376Y206461D01*
X111379Y206428D01*
X111379Y196763D01*
X110337Y195721D01*
X104863Y195721D01*
X103940Y196644D01*
X103882Y196686D01*
X103830Y196735D01*
X103783Y196757D01*
X103741Y196788D01*
X103672Y196809D01*
X103607Y196839D01*
X103555Y196845D01*
X103505Y196860D01*
X103434Y196858D01*
X103363Y196866D01*
X103312Y196855D01*
X103260Y196854D01*
X103192Y196829D01*
X103122Y196814D01*
X103077Y196787D01*
X103029Y196769D01*
X102973Y196724D01*
X102911Y196688D01*
X102877Y196648D01*
X102837Y196616D01*
X102798Y196555D01*
X102751Y196501D01*
X102732Y196452D01*
X102704Y196409D01*
X102686Y196339D01*
X102659Y196273D01*
X102651Y196201D01*
X102643Y196170D01*
X102645Y196147D01*
X102641Y196106D01*
X102641Y192666D01*
X102468Y192019D01*
X102133Y191440D01*
X101660Y190967D01*
X101081Y190632D01*
X100434Y190459D01*
X96623Y190459D01*
X96623Y197738D01*
X96620Y197758D01*
X96622Y197777D01*
X96600Y197879D01*
X96583Y197981D01*
X96574Y197998D01*
X96570Y198018D01*
X96517Y198107D01*
X96468Y198198D01*
X96454Y198212D01*
X96444Y198229D01*
X96365Y198296D01*
X96290Y198367D01*
X96272Y198376D01*
X96257Y198389D01*
X96161Y198428D01*
X96067Y198471D01*
X96047Y198473D01*
X96029Y198481D01*
X95862Y198499D01*
X95099Y198499D01*
X95099Y199262D01*
X95096Y199282D01*
X95098Y199301D01*
X95076Y199402D01*
X95059Y199505D01*
X95050Y199522D01*
X95046Y199542D01*
X94993Y199631D01*
X94944Y199722D01*
X94930Y199736D01*
X94920Y199753D01*
X94841Y199820D01*
X94766Y199891D01*
X94748Y199900D01*
X94733Y199913D01*
X94637Y199952D01*
X94543Y199995D01*
X94523Y199997D01*
X94505Y200005D01*
X94338Y200023D01*
X87559Y200023D01*
X87559Y204334D01*
X87732Y204981D01*
X88067Y205560D01*
X88540Y206033D01*
X88582Y206091D01*
X88631Y206143D01*
X88653Y206190D01*
X88683Y206232D01*
X88704Y206301D01*
X88734Y206366D01*
X88740Y206418D01*
X88756Y206468D01*
X88754Y206539D01*
X88762Y206610D01*
X88750Y206661D01*
X88749Y206713D01*
X88725Y206781D01*
X88709Y206851D01*
X88683Y206896D01*
X88665Y206944D01*
X88620Y207000D01*
X88583Y207062D01*
X88543Y207096D01*
X88511Y207136D01*
X88451Y207175D01*
X88396Y207222D01*
X88348Y207241D01*
X88304Y207269D01*
X88235Y207287D01*
X88168Y207314D01*
X88097Y207322D01*
X88066Y207330D01*
X88042Y207328D01*
X88001Y207332D01*
X80520Y207332D01*
X80430Y207318D01*
X80340Y207311D01*
X80310Y207298D01*
X80278Y207293D01*
X80197Y207250D01*
X80113Y207214D01*
X80081Y207188D01*
X80060Y207177D01*
X80038Y207154D01*
X79982Y207110D01*
X79951Y207079D01*
X79909Y207020D01*
X79860Y206968D01*
X79838Y206921D01*
X79808Y206879D01*
X79786Y206810D01*
X79756Y206745D01*
X79750Y206693D01*
X79735Y206644D01*
X79737Y206572D01*
X79729Y206501D01*
X79740Y206450D01*
X79741Y206398D01*
X79766Y206330D01*
X79781Y206260D01*
X79808Y206216D01*
X79826Y206167D01*
X79871Y206111D01*
X79907Y206049D01*
X79947Y206015D01*
X79979Y205975D01*
X80040Y205936D01*
X80094Y205889D01*
X80143Y205870D01*
X80186Y205842D01*
X80256Y205824D01*
X80323Y205797D01*
X80394Y205789D01*
X80425Y205781D01*
X80448Y205783D01*
X80489Y205779D01*
X80837Y205779D01*
X81879Y204737D01*
X81879Y192263D01*
X80837Y191221D01*
X69363Y191221D01*
X68321Y192263D01*
X68321Y204737D01*
X69363Y205779D01*
X71671Y205779D01*
X71691Y205782D01*
X71710Y205780D01*
X71812Y205802D01*
X71914Y205818D01*
X71931Y205828D01*
X71951Y205832D01*
X72040Y205885D01*
X72131Y205934D01*
X72145Y205948D01*
X72162Y205958D01*
X72229Y206037D01*
X72301Y206112D01*
X72309Y206130D01*
X72322Y206145D01*
X72361Y206241D01*
X72404Y206335D01*
X72406Y206355D01*
X72414Y206373D01*
X72432Y206540D01*
X72432Y207105D01*
X77995Y212668D01*
X166205Y212668D01*
X175268Y203605D01*
X175268Y193429D01*
X175271Y193409D01*
X175269Y193390D01*
X175291Y193288D01*
X175307Y193186D01*
X175317Y193169D01*
X175321Y193149D01*
X175374Y193060D01*
X175423Y192969D01*
X175437Y192955D01*
X175447Y192938D01*
X175526Y192871D01*
X175601Y192799D01*
X175619Y192791D01*
X175634Y192778D01*
X175730Y192739D01*
X175824Y192696D01*
X175844Y192694D01*
X175862Y192686D01*
X176029Y192668D01*
X206205Y192668D01*
X210268Y188605D01*
X210268Y116420D01*
X210282Y116330D01*
X210290Y116239D01*
X210302Y116210D01*
X210307Y116178D01*
X210350Y116097D01*
X210386Y116013D01*
X210412Y115981D01*
X210423Y115960D01*
X210446Y115938D01*
X210491Y115882D01*
X212768Y113605D01*
X212768Y26340D01*
X212771Y26320D01*
X212769Y26301D01*
X212791Y26199D01*
X212807Y26097D01*
X212817Y26080D01*
X212821Y26060D01*
X212874Y25971D01*
X212923Y25880D01*
X212937Y25866D01*
X212947Y25849D01*
X213026Y25782D01*
X213101Y25710D01*
X213119Y25702D01*
X213134Y25689D01*
X213230Y25650D01*
X213324Y25607D01*
X213344Y25605D01*
X213362Y25597D01*
X213529Y25579D01*
X213837Y25579D01*
X214562Y24854D01*
X214578Y24842D01*
X214590Y24827D01*
X214678Y24771D01*
X214761Y24710D01*
X214780Y24704D01*
X214797Y24694D01*
X214898Y24668D01*
X214997Y24638D01*
X215016Y24638D01*
X215036Y24634D01*
X215139Y24642D01*
X215242Y24644D01*
X215261Y24651D01*
X215281Y24653D01*
X215376Y24693D01*
X215473Y24729D01*
X215489Y24741D01*
X215507Y24749D01*
X215638Y24854D01*
X216363Y25579D01*
X216671Y25579D01*
X216691Y25582D01*
X216710Y25580D01*
X216812Y25602D01*
X216914Y25618D01*
X216931Y25628D01*
X216951Y25632D01*
X217040Y25685D01*
X217131Y25734D01*
X217145Y25748D01*
X217162Y25758D01*
X217229Y25837D01*
X217301Y25912D01*
X217309Y25930D01*
X217322Y25945D01*
X217361Y26041D01*
X217404Y26135D01*
X217406Y26155D01*
X217414Y26173D01*
X217432Y26340D01*
X217432Y113605D01*
X219709Y115882D01*
X219762Y115956D01*
X219822Y116025D01*
X219834Y116056D01*
X219853Y116082D01*
X219880Y116169D01*
X219914Y116254D01*
X219918Y116295D01*
X219925Y116317D01*
X219924Y116349D01*
X219932Y116420D01*
X219932Y191080D01*
X219918Y191170D01*
X219910Y191261D01*
X219898Y191290D01*
X219893Y191322D01*
X219850Y191403D01*
X219814Y191487D01*
X219788Y191519D01*
X219777Y191540D01*
X219754Y191562D01*
X219709Y191618D01*
X216972Y194355D01*
X216877Y194424D01*
X216783Y194493D01*
X216777Y194495D01*
X216772Y194499D01*
X216661Y194533D01*
X216549Y194569D01*
X216543Y194569D01*
X216537Y194571D01*
X216421Y194568D01*
X216304Y194567D01*
X216296Y194565D01*
X216291Y194565D01*
X216274Y194558D01*
X216205Y194538D01*
X214014Y194538D01*
X212006Y195370D01*
X210470Y196906D01*
X209638Y198914D01*
X209638Y201086D01*
X210470Y203094D01*
X212006Y204630D01*
X214014Y205462D01*
X216186Y205462D01*
X218194Y204630D01*
X219730Y203094D01*
X220562Y201086D01*
X220562Y198880D01*
X220553Y198844D01*
X220525Y198730D01*
X220525Y198724D01*
X220524Y198718D01*
X220535Y198601D01*
X220544Y198485D01*
X220546Y198479D01*
X220547Y198473D01*
X220595Y198366D01*
X220640Y198259D01*
X220645Y198253D01*
X220647Y198248D01*
X220659Y198235D01*
X220745Y198128D01*
X225268Y193605D01*
X225268Y174730D01*
X225279Y174659D01*
X225281Y174587D01*
X225299Y174538D01*
X225307Y174487D01*
X225341Y174424D01*
X225366Y174356D01*
X225398Y174315D01*
X225423Y174269D01*
X225475Y174220D01*
X225519Y174164D01*
X225563Y174136D01*
X225601Y174100D01*
X225666Y174070D01*
X225726Y174031D01*
X225777Y174018D01*
X225824Y173996D01*
X225895Y173989D01*
X225965Y173971D01*
X226017Y173975D01*
X226068Y173969D01*
X226139Y173985D01*
X226210Y173990D01*
X226258Y174011D01*
X226309Y174022D01*
X226370Y174058D01*
X226436Y174087D01*
X226492Y174131D01*
X226520Y174148D01*
X226535Y174166D01*
X226567Y174191D01*
X227006Y174630D01*
X229014Y175462D01*
X231186Y175462D01*
X233194Y174630D01*
X234730Y173094D01*
X235562Y171086D01*
X235562Y168914D01*
X234730Y166906D01*
X233170Y165346D01*
X233139Y165327D01*
X233038Y165266D01*
X233034Y165262D01*
X233029Y165258D01*
X232954Y165169D01*
X232878Y165079D01*
X232876Y165074D01*
X232872Y165069D01*
X232830Y164960D01*
X232786Y164851D01*
X232785Y164844D01*
X232784Y164839D01*
X232783Y164821D01*
X232768Y164685D01*
X232768Y126315D01*
X232787Y126200D01*
X232804Y126084D01*
X232806Y126079D01*
X232807Y126073D01*
X232862Y125970D01*
X232915Y125865D01*
X232920Y125861D01*
X232923Y125855D01*
X233007Y125775D01*
X233091Y125693D01*
X233097Y125689D01*
X233101Y125686D01*
X233118Y125678D01*
X233181Y125644D01*
X234730Y124094D01*
X235562Y122086D01*
X235562Y119914D01*
X234730Y117906D01*
X233194Y116370D01*
X231186Y115538D01*
X229014Y115538D01*
X227006Y116370D01*
X226567Y116809D01*
X226509Y116851D01*
X226457Y116900D01*
X226410Y116922D01*
X226368Y116952D01*
X226299Y116973D01*
X226234Y117004D01*
X226182Y117009D01*
X226132Y117025D01*
X226061Y117023D01*
X225990Y117031D01*
X225939Y117020D01*
X225887Y117018D01*
X225819Y116994D01*
X225749Y116978D01*
X225704Y116952D01*
X225656Y116934D01*
X225600Y116889D01*
X225538Y116852D01*
X225504Y116813D01*
X225464Y116780D01*
X225425Y116720D01*
X225378Y116665D01*
X225359Y116617D01*
X225331Y116573D01*
X225313Y116504D01*
X225286Y116437D01*
X225278Y116366D01*
X225270Y116335D01*
X225272Y116311D01*
X225268Y116270D01*
X225268Y113895D01*
X222991Y111618D01*
X222938Y111544D01*
X222878Y111475D01*
X222866Y111444D01*
X222847Y111418D01*
X222820Y111331D01*
X222786Y111246D01*
X222782Y111205D01*
X222775Y111183D01*
X222776Y111151D01*
X222768Y111080D01*
X222768Y26340D01*
X222771Y26320D01*
X222769Y26301D01*
X222791Y26199D01*
X222807Y26097D01*
X222817Y26080D01*
X222821Y26060D01*
X222874Y25971D01*
X222923Y25880D01*
X222937Y25866D01*
X222947Y25849D01*
X223026Y25782D01*
X223101Y25710D01*
X223119Y25702D01*
X223134Y25689D01*
X223230Y25650D01*
X223324Y25607D01*
X223344Y25605D01*
X223362Y25597D01*
X223529Y25579D01*
X223837Y25579D01*
X224562Y24854D01*
X224578Y24842D01*
X224590Y24827D01*
X224678Y24771D01*
X224761Y24710D01*
X224780Y24704D01*
X224797Y24694D01*
X224898Y24668D01*
X224997Y24638D01*
X225016Y24638D01*
X225036Y24634D01*
X225139Y24642D01*
X225242Y24644D01*
X225261Y24651D01*
X225281Y24653D01*
X225376Y24693D01*
X225473Y24729D01*
X225489Y24741D01*
X225507Y24749D01*
X225638Y24854D01*
X226363Y25579D01*
X233837Y25579D01*
X234562Y24854D01*
X234578Y24842D01*
X234590Y24827D01*
X234678Y24771D01*
X234761Y24710D01*
X234780Y24704D01*
X234797Y24694D01*
X234898Y24668D01*
X234997Y24638D01*
X235016Y24638D01*
X235036Y24634D01*
X235139Y24642D01*
X235242Y24644D01*
X235261Y24651D01*
X235281Y24653D01*
X235376Y24693D01*
X235473Y24729D01*
X235489Y24741D01*
X235507Y24749D01*
X235638Y24854D01*
X236363Y25579D01*
X243837Y25579D01*
X244562Y24854D01*
X244578Y24842D01*
X244590Y24827D01*
X244678Y24771D01*
X244761Y24710D01*
X244780Y24704D01*
X244797Y24694D01*
X244898Y24668D01*
X244997Y24638D01*
X245016Y24638D01*
X245036Y24634D01*
X245139Y24642D01*
X245242Y24644D01*
X245261Y24651D01*
X245281Y24653D01*
X245376Y24693D01*
X245473Y24729D01*
X245489Y24741D01*
X245507Y24749D01*
X245638Y24854D01*
X246363Y25579D01*
X246671Y25579D01*
X246691Y25582D01*
X246710Y25580D01*
X246812Y25602D01*
X246914Y25618D01*
X246931Y25628D01*
X246951Y25632D01*
X247040Y25685D01*
X247131Y25734D01*
X247145Y25748D01*
X247162Y25758D01*
X247229Y25837D01*
X247301Y25912D01*
X247309Y25930D01*
X247322Y25945D01*
X247361Y26041D01*
X247404Y26135D01*
X247406Y26155D01*
X247414Y26173D01*
X247432Y26340D01*
X247432Y113701D01*
X247443Y113737D01*
X247478Y113827D01*
X247479Y113853D01*
X247487Y113878D01*
X247484Y113976D01*
X247489Y114073D01*
X247481Y114098D01*
X247481Y114124D01*
X247447Y114216D01*
X247420Y114309D01*
X247405Y114331D01*
X247396Y114355D01*
X247335Y114432D01*
X247280Y114511D01*
X247259Y114527D01*
X247243Y114547D01*
X247161Y114600D01*
X247082Y114658D01*
X247058Y114666D01*
X247036Y114680D01*
X246941Y114704D01*
X246848Y114734D01*
X246822Y114734D01*
X246797Y114741D01*
X246700Y114733D01*
X246603Y114732D01*
X246571Y114723D01*
X246552Y114721D01*
X246522Y114709D01*
X246441Y114685D01*
X246086Y114538D01*
X243914Y114538D01*
X241906Y115370D01*
X240370Y116906D01*
X239538Y118914D01*
X239538Y121086D01*
X240370Y123094D01*
X241930Y124654D01*
X241961Y124673D01*
X242062Y124734D01*
X242066Y124738D01*
X242071Y124742D01*
X242146Y124831D01*
X242222Y124921D01*
X242224Y124926D01*
X242228Y124931D01*
X242270Y125040D01*
X242314Y125149D01*
X242315Y125156D01*
X242316Y125161D01*
X242317Y125179D01*
X242332Y125315D01*
X242332Y144685D01*
X242313Y144800D01*
X242296Y144916D01*
X242294Y144921D01*
X242293Y144927D01*
X242238Y145030D01*
X242185Y145135D01*
X242180Y145139D01*
X242177Y145145D01*
X242093Y145225D01*
X242009Y145307D01*
X242003Y145311D01*
X241999Y145314D01*
X241982Y145322D01*
X241919Y145356D01*
X240370Y146906D01*
X239538Y148914D01*
X239538Y151086D01*
X240370Y153094D01*
X241906Y154630D01*
X243914Y155462D01*
X246086Y155462D01*
X248094Y154630D01*
X248633Y154091D01*
X248691Y154049D01*
X248743Y154000D01*
X248790Y153978D01*
X248832Y153948D01*
X248901Y153927D01*
X248966Y153896D01*
X249018Y153891D01*
X249068Y153875D01*
X249139Y153877D01*
X249210Y153869D01*
X249261Y153880D01*
X249313Y153882D01*
X249381Y153906D01*
X249451Y153922D01*
X249496Y153948D01*
X249544Y153966D01*
X249600Y154011D01*
X249662Y154048D01*
X249696Y154087D01*
X249736Y154120D01*
X249775Y154180D01*
X249822Y154235D01*
X249841Y154283D01*
X249869Y154327D01*
X249887Y154396D01*
X249914Y154463D01*
X249922Y154534D01*
X249930Y154565D01*
X249928Y154589D01*
X249932Y154630D01*
X249932Y188052D01*
X249922Y188117D01*
X249921Y188183D01*
X249898Y188263D01*
X249893Y188295D01*
X249883Y188312D01*
X249874Y188344D01*
X249638Y188914D01*
X249638Y191086D01*
X250470Y193094D01*
X252006Y194630D01*
X254014Y195462D01*
X256220Y195462D01*
X256256Y195453D01*
X256370Y195425D01*
X256376Y195425D01*
X256382Y195424D01*
X256499Y195435D01*
X256615Y195444D01*
X256621Y195446D01*
X256627Y195447D01*
X256734Y195495D01*
X256841Y195540D01*
X256847Y195545D01*
X256852Y195547D01*
X256865Y195559D01*
X256972Y195645D01*
X267999Y206672D01*
X268041Y206730D01*
X268090Y206782D01*
X268112Y206829D01*
X268143Y206871D01*
X268164Y206940D01*
X268194Y207005D01*
X268200Y207057D01*
X268215Y207107D01*
X268213Y207178D01*
X268221Y207249D01*
X268210Y207300D01*
X268209Y207352D01*
X268184Y207420D01*
X268169Y207490D01*
X268142Y207534D01*
X268124Y207583D01*
X268079Y207639D01*
X268043Y207701D01*
X268003Y207735D01*
X267970Y207775D01*
X267910Y207814D01*
X267856Y207861D01*
X267807Y207880D01*
X267763Y207908D01*
X267694Y207926D01*
X267627Y207953D01*
X267556Y207961D01*
X267525Y207969D01*
X267502Y207967D01*
X267461Y207971D01*
X186482Y207971D01*
X186411Y207960D01*
X186340Y207958D01*
X186291Y207940D01*
X186239Y207932D01*
X186176Y207898D01*
X186109Y207873D01*
X186068Y207841D01*
X186022Y207816D01*
X185973Y207765D01*
X185917Y207720D01*
X185888Y207676D01*
X185853Y207638D01*
X185822Y207573D01*
X185784Y207513D01*
X185771Y207462D01*
X185749Y207415D01*
X185741Y207344D01*
X185724Y207274D01*
X185728Y207222D01*
X185722Y207171D01*
X185737Y207100D01*
X185743Y207029D01*
X185763Y206981D01*
X185774Y206930D01*
X185811Y206869D01*
X185839Y206803D01*
X185884Y206747D01*
X185900Y206719D01*
X185918Y206704D01*
X185944Y206672D01*
X186379Y206237D01*
X186379Y196763D01*
X185337Y195721D01*
X179863Y195721D01*
X178821Y196763D01*
X178821Y206237D01*
X179863Y207279D01*
X183114Y207279D01*
X183185Y207290D01*
X183257Y207292D01*
X183306Y207310D01*
X183357Y207318D01*
X183420Y207352D01*
X183488Y207377D01*
X183528Y207409D01*
X183575Y207434D01*
X183624Y207486D01*
X183680Y207530D01*
X183708Y207574D01*
X183744Y207612D01*
X183774Y207677D01*
X183813Y207737D01*
X183826Y207788D01*
X183848Y207835D01*
X183855Y207906D01*
X183873Y207976D01*
X183869Y208028D01*
X183875Y208079D01*
X183859Y208150D01*
X183854Y208221D01*
X183833Y208269D01*
X183822Y208320D01*
X183786Y208381D01*
X183757Y208447D01*
X183713Y208503D01*
X183696Y208531D01*
X183678Y208546D01*
X183653Y208578D01*
X183071Y209160D01*
X183071Y217210D01*
X183068Y217230D01*
X183070Y217249D01*
X183048Y217351D01*
X183032Y217453D01*
X183022Y217470D01*
X183018Y217490D01*
X182965Y217579D01*
X182916Y217670D01*
X182902Y217684D01*
X182892Y217701D01*
X182813Y217768D01*
X182738Y217840D01*
X182720Y217848D01*
X182705Y217861D01*
X182609Y217900D01*
X182515Y217943D01*
X182495Y217945D01*
X182477Y217953D01*
X182310Y217971D01*
X2396Y217971D01*
X2300Y217956D01*
X2203Y217946D01*
X2179Y217936D01*
X2154Y217932D01*
X2068Y217886D01*
X1979Y217846D01*
X1959Y217829D01*
X1936Y217816D01*
X1869Y217746D01*
X1797Y217680D01*
X1785Y217657D01*
X1767Y217638D01*
X1726Y217550D01*
X1679Y217464D01*
X1674Y217439D01*
X1663Y217415D01*
X1652Y217318D01*
X1635Y217222D01*
X1639Y217196D01*
X1636Y217171D01*
X1657Y217075D01*
X1671Y216979D01*
X1683Y216956D01*
X1688Y216930D01*
X1738Y216847D01*
X1782Y216760D01*
X1801Y216741D01*
X1815Y216719D01*
X1888Y216656D01*
X1958Y216588D01*
X1987Y216572D01*
X2001Y216559D01*
X2032Y216547D01*
X2105Y216507D01*
X3940Y215747D01*
X5847Y213840D01*
X6879Y211348D01*
X6879Y208652D01*
X5847Y206160D01*
X3940Y204253D01*
X1448Y203221D01*
X-1248Y203221D01*
X-3740Y204253D01*
X-5647Y206160D01*
X-6679Y208652D01*
X-6679Y211348D01*
X-5647Y213840D01*
X-3740Y215747D01*
X-1905Y216507D01*
X-1822Y216558D01*
X-1736Y216604D01*
X-1718Y216622D01*
X-1696Y216636D01*
X-1634Y216712D01*
X-1567Y216782D01*
X-1556Y216806D01*
X-1539Y216826D01*
X-1504Y216917D01*
X-1463Y217005D01*
X-1460Y217031D01*
X-1451Y217055D01*
X-1447Y217153D01*
X-1436Y217249D01*
X-1442Y217275D01*
X-1441Y217301D01*
X-1468Y217395D01*
X-1488Y217490D01*
X-1502Y217512D01*
X-1509Y217537D01*
X-1565Y217617D01*
X-1615Y217701D01*
X-1634Y217718D01*
X-1649Y217739D01*
X-1727Y217798D01*
X-1801Y217861D01*
X-1826Y217871D01*
X-1847Y217886D01*
X-1939Y217916D01*
X-2030Y217953D01*
X-2062Y217956D01*
X-2081Y217962D01*
X-2114Y217962D01*
X-2196Y217971D01*
X-9610Y217971D01*
X-9630Y217968D01*
X-9649Y217970D01*
X-9751Y217948D01*
X-9853Y217932D01*
X-9870Y217922D01*
X-9890Y217918D01*
X-9979Y217865D01*
X-10070Y217816D01*
X-10084Y217802D01*
X-10101Y217792D01*
X-10168Y217713D01*
X-10240Y217638D01*
X-10248Y217620D01*
X-10261Y217605D01*
X-10300Y217509D01*
X-10343Y217415D01*
X-10345Y217395D01*
X-10353Y217377D01*
X-10371Y217210D01*
X-10371Y2790D01*
X-10368Y2770D01*
X-10370Y2751D01*
X-10348Y2649D01*
X-10332Y2547D01*
X-10322Y2530D01*
X-10318Y2510D01*
X-10265Y2421D01*
X-10216Y2330D01*
X-10202Y2316D01*
X-10192Y2299D01*
X-10113Y2232D01*
X-10038Y2160D01*
X-10020Y2152D01*
X-10005Y2139D01*
X-9909Y2100D01*
X-9815Y2057D01*
X-9795Y2055D01*
X-9777Y2047D01*
X-9610Y2029D01*
X174322Y2029D01*
X174346Y2033D01*
G37*
G36*
X433527Y2040D02*
X433527Y2040D01*
X433598Y2042D01*
X433647Y2060D01*
X433699Y2068D01*
X433762Y2102D01*
X433829Y2127D01*
X433870Y2159D01*
X433916Y2184D01*
X433966Y2236D01*
X434022Y2280D01*
X434050Y2324D01*
X434086Y2362D01*
X434116Y2427D01*
X434155Y2487D01*
X434167Y2538D01*
X434189Y2585D01*
X434197Y2656D01*
X434215Y2726D01*
X434211Y2778D01*
X434216Y2829D01*
X434201Y2900D01*
X434195Y2971D01*
X434175Y3019D01*
X434164Y3070D01*
X434127Y3131D01*
X434099Y3197D01*
X434054Y3253D01*
X434038Y3281D01*
X434020Y3296D01*
X433994Y3328D01*
X432321Y5001D01*
X431188Y6134D01*
X431188Y8678D01*
X431188Y10120D01*
X431188Y10121D01*
X431188Y13873D01*
X434181Y16866D01*
X439208Y16866D01*
X440341Y15733D01*
X441956Y14118D01*
X442014Y14076D01*
X442066Y14027D01*
X442113Y14005D01*
X442155Y13975D01*
X442224Y13954D01*
X442289Y13923D01*
X442341Y13918D01*
X442391Y13902D01*
X442462Y13904D01*
X442533Y13896D01*
X442584Y13907D01*
X442636Y13909D01*
X442704Y13933D01*
X442774Y13948D01*
X442818Y13975D01*
X442867Y13993D01*
X442923Y14038D01*
X442985Y14075D01*
X443019Y14114D01*
X443059Y14147D01*
X443098Y14207D01*
X443145Y14262D01*
X443164Y14310D01*
X443192Y14354D01*
X443210Y14423D01*
X443237Y14490D01*
X443245Y14561D01*
X443253Y14592D01*
X443251Y14616D01*
X443255Y14656D01*
X443255Y15229D01*
X444892Y16866D01*
X447208Y16866D01*
X449068Y15006D01*
X450236Y13837D01*
X450253Y13825D01*
X450266Y13809D01*
X450353Y13753D01*
X450436Y13694D01*
X450456Y13687D01*
X450474Y13676D01*
X450573Y13651D01*
X450671Y13621D01*
X450692Y13622D01*
X450712Y13617D01*
X450814Y13625D01*
X450917Y13628D01*
X450937Y13635D01*
X450957Y13637D01*
X451115Y13695D01*
X452479Y14377D01*
X454675Y13645D01*
X454724Y13547D01*
X454735Y13533D01*
X454741Y13516D01*
X454807Y13433D01*
X454868Y13348D01*
X454883Y13337D01*
X454894Y13323D01*
X454983Y13266D01*
X455068Y13205D01*
X455086Y13199D01*
X455100Y13190D01*
X455203Y13164D01*
X455304Y13133D01*
X455322Y13133D01*
X455339Y13129D01*
X455444Y13137D01*
X455550Y13140D01*
X455566Y13146D01*
X455584Y13147D01*
X455681Y13189D01*
X455780Y13225D01*
X455794Y13236D01*
X455811Y13243D01*
X455890Y13313D01*
X455972Y13379D01*
X455982Y13394D01*
X455995Y13406D01*
X456086Y13547D01*
X456135Y13645D01*
X458331Y14377D01*
X460402Y13341D01*
X461134Y11145D01*
X458018Y4912D01*
X458008Y4881D01*
X457977Y4813D01*
X457688Y3947D01*
X457685Y3944D01*
X457650Y3930D01*
X457586Y3873D01*
X457516Y3822D01*
X457494Y3792D01*
X457466Y3767D01*
X457392Y3652D01*
X456971Y3512D01*
X456970Y3512D01*
X456969Y3511D01*
X456866Y3457D01*
X456754Y3398D01*
X456753Y3397D01*
X456752Y3396D01*
X456671Y3311D01*
X456584Y3220D01*
X456583Y3219D01*
X456583Y3218D01*
X456532Y3109D01*
X456479Y2997D01*
X456479Y2996D01*
X456479Y2995D01*
X456466Y2877D01*
X456452Y2753D01*
X456452Y2752D01*
X456452Y2751D01*
X456478Y2631D01*
X456503Y2512D01*
X456504Y2511D01*
X456504Y2510D01*
X456569Y2402D01*
X456629Y2301D01*
X456630Y2300D01*
X456630Y2299D01*
X456725Y2218D01*
X456815Y2140D01*
X456816Y2140D01*
X456817Y2139D01*
X456932Y2093D01*
X457043Y2048D01*
X457044Y2048D01*
X457045Y2047D01*
X457212Y2029D01*
X467804Y2029D01*
X467900Y2044D01*
X467997Y2054D01*
X468021Y2064D01*
X468046Y2068D01*
X468132Y2114D01*
X468221Y2154D01*
X468241Y2171D01*
X468264Y2184D01*
X468331Y2254D01*
X468403Y2320D01*
X468415Y2343D01*
X468433Y2362D01*
X468474Y2450D01*
X468521Y2536D01*
X468526Y2561D01*
X468537Y2585D01*
X468548Y2682D01*
X468565Y2778D01*
X468561Y2804D01*
X468564Y2829D01*
X468543Y2925D01*
X468529Y3021D01*
X468517Y3044D01*
X468512Y3070D01*
X468462Y3153D01*
X468418Y3240D01*
X468399Y3259D01*
X468385Y3281D01*
X468312Y3344D01*
X468242Y3412D01*
X468213Y3428D01*
X468199Y3441D01*
X468168Y3453D01*
X468095Y3493D01*
X466260Y4253D01*
X464353Y6160D01*
X463321Y8652D01*
X463321Y11348D01*
X464353Y13840D01*
X466260Y15747D01*
X468752Y16779D01*
X471448Y16779D01*
X473940Y15747D01*
X475847Y13840D01*
X476879Y11348D01*
X476879Y8652D01*
X475847Y6160D01*
X473940Y4253D01*
X472105Y3493D01*
X472022Y3442D01*
X471936Y3396D01*
X471918Y3378D01*
X471896Y3364D01*
X471834Y3288D01*
X471767Y3218D01*
X471756Y3194D01*
X471739Y3174D01*
X471704Y3083D01*
X471663Y2995D01*
X471660Y2969D01*
X471651Y2945D01*
X471647Y2847D01*
X471636Y2751D01*
X471642Y2725D01*
X471641Y2699D01*
X471668Y2605D01*
X471688Y2510D01*
X471702Y2488D01*
X471709Y2463D01*
X471765Y2383D01*
X471815Y2299D01*
X471834Y2282D01*
X471849Y2261D01*
X471927Y2202D01*
X472001Y2139D01*
X472026Y2129D01*
X472047Y2114D01*
X472139Y2084D01*
X472230Y2047D01*
X472262Y2044D01*
X472281Y2038D01*
X472314Y2038D01*
X472396Y2029D01*
X479810Y2029D01*
X479830Y2032D01*
X479849Y2030D01*
X479951Y2052D01*
X480053Y2068D01*
X480070Y2078D01*
X480090Y2082D01*
X480179Y2135D01*
X480270Y2184D01*
X480284Y2198D01*
X480301Y2208D01*
X480368Y2287D01*
X480440Y2362D01*
X480448Y2380D01*
X480461Y2395D01*
X480500Y2491D01*
X480543Y2585D01*
X480545Y2605D01*
X480553Y2623D01*
X480571Y2790D01*
X480571Y30133D01*
X480570Y30141D01*
X480571Y30149D01*
X480550Y30263D01*
X480532Y30376D01*
X480528Y30383D01*
X480526Y30391D01*
X480470Y30492D01*
X480416Y30594D01*
X480411Y30599D01*
X480407Y30606D01*
X480322Y30684D01*
X480238Y30763D01*
X480231Y30766D01*
X480225Y30772D01*
X480120Y30818D01*
X480015Y30867D01*
X480007Y30867D01*
X480000Y30871D01*
X479885Y30881D01*
X479771Y30894D01*
X479763Y30892D01*
X479755Y30893D01*
X479642Y30866D01*
X479530Y30841D01*
X479523Y30837D01*
X479516Y30835D01*
X479418Y30774D01*
X479319Y30715D01*
X479314Y30709D01*
X479307Y30705D01*
X479194Y30581D01*
X479006Y30322D01*
X477678Y28994D01*
X476157Y27889D01*
X474483Y27036D01*
X472696Y26455D01*
X471423Y26254D01*
X471423Y37338D01*
X471420Y37358D01*
X471422Y37377D01*
X471400Y37479D01*
X471383Y37581D01*
X471374Y37598D01*
X471370Y37618D01*
X471317Y37707D01*
X471268Y37798D01*
X471254Y37812D01*
X471244Y37829D01*
X471165Y37896D01*
X471090Y37967D01*
X471072Y37976D01*
X471057Y37989D01*
X470961Y38027D01*
X470867Y38071D01*
X470847Y38073D01*
X470829Y38081D01*
X470662Y38099D01*
X469899Y38099D01*
X469899Y38101D01*
X470662Y38101D01*
X470682Y38104D01*
X470701Y38102D01*
X470803Y38124D01*
X470905Y38141D01*
X470922Y38150D01*
X470942Y38154D01*
X471031Y38207D01*
X471122Y38256D01*
X471136Y38270D01*
X471153Y38280D01*
X471220Y38359D01*
X471291Y38434D01*
X471300Y38452D01*
X471313Y38467D01*
X471352Y38563D01*
X471395Y38657D01*
X471397Y38677D01*
X471405Y38695D01*
X471423Y38862D01*
X471423Y49946D01*
X472696Y49745D01*
X474483Y49164D01*
X476157Y48311D01*
X477678Y47206D01*
X479006Y45878D01*
X479194Y45619D01*
X479200Y45613D01*
X479204Y45606D01*
X479287Y45527D01*
X479369Y45446D01*
X479376Y45443D01*
X479382Y45437D01*
X479486Y45389D01*
X479590Y45338D01*
X479598Y45337D01*
X479605Y45333D01*
X479719Y45321D01*
X479834Y45306D01*
X479842Y45307D01*
X479849Y45306D01*
X479962Y45331D01*
X480075Y45353D01*
X480082Y45357D01*
X480090Y45359D01*
X480188Y45418D01*
X480289Y45475D01*
X480294Y45481D01*
X480301Y45485D01*
X480376Y45572D01*
X480452Y45658D01*
X480456Y45665D01*
X480461Y45672D01*
X480504Y45780D01*
X480549Y45884D01*
X480550Y45892D01*
X480553Y45900D01*
X480571Y46067D01*
X480571Y56527D01*
X480560Y56598D01*
X480558Y56670D01*
X480540Y56719D01*
X480532Y56770D01*
X480498Y56833D01*
X480473Y56901D01*
X480441Y56941D01*
X480416Y56987D01*
X480364Y57037D01*
X480320Y57093D01*
X480276Y57121D01*
X480238Y57157D01*
X480173Y57187D01*
X480113Y57226D01*
X480062Y57238D01*
X480015Y57260D01*
X479944Y57268D01*
X479874Y57286D01*
X479822Y57282D01*
X479771Y57287D01*
X479700Y57272D01*
X479629Y57267D01*
X479581Y57246D01*
X479530Y57235D01*
X479469Y57198D01*
X479403Y57170D01*
X479347Y57125D01*
X479319Y57109D01*
X479304Y57091D01*
X479272Y57065D01*
X476231Y54025D01*
X472123Y52323D01*
X467677Y52323D01*
X463569Y54025D01*
X460425Y57169D01*
X459102Y60362D01*
X459041Y60461D01*
X458981Y60562D01*
X458976Y60566D01*
X458972Y60571D01*
X458883Y60646D01*
X458794Y60722D01*
X458788Y60724D01*
X458783Y60728D01*
X458675Y60770D01*
X458565Y60814D01*
X458558Y60815D01*
X458553Y60816D01*
X458535Y60817D01*
X458399Y60832D01*
X409105Y60832D01*
X382142Y87795D01*
X382142Y98476D01*
X382139Y98496D01*
X382141Y98515D01*
X382119Y98617D01*
X382103Y98719D01*
X382093Y98736D01*
X382089Y98756D01*
X382036Y98845D01*
X381987Y98936D01*
X381973Y98950D01*
X381963Y98967D01*
X381884Y99034D01*
X381809Y99106D01*
X381791Y99114D01*
X381776Y99127D01*
X381680Y99166D01*
X381586Y99209D01*
X381566Y99211D01*
X381548Y99219D01*
X381381Y99237D01*
X369784Y99237D01*
X369337Y99684D01*
X369337Y117436D01*
X369334Y117456D01*
X369336Y117475D01*
X369314Y117577D01*
X369298Y117679D01*
X369288Y117696D01*
X369284Y117716D01*
X369231Y117805D01*
X369182Y117896D01*
X369168Y117910D01*
X369158Y117927D01*
X369079Y117994D01*
X369004Y118066D01*
X368986Y118074D01*
X368971Y118087D01*
X368875Y118126D01*
X368781Y118169D01*
X368761Y118171D01*
X368743Y118179D01*
X368576Y118197D01*
X358502Y118197D01*
X344717Y131982D01*
X344717Y192627D01*
X344703Y192717D01*
X344695Y192808D01*
X344683Y192837D01*
X344678Y192869D01*
X344635Y192950D01*
X344599Y193034D01*
X344573Y193066D01*
X344562Y193087D01*
X344539Y193109D01*
X344494Y193165D01*
X341795Y195864D01*
X341721Y195917D01*
X341652Y195977D01*
X341621Y195989D01*
X341595Y196008D01*
X341508Y196035D01*
X341423Y196069D01*
X341382Y196073D01*
X341360Y196080D01*
X341328Y196079D01*
X341257Y196087D01*
X338147Y196087D01*
X338053Y196072D01*
X337958Y196063D01*
X337932Y196052D01*
X337904Y196048D01*
X337820Y196003D01*
X337733Y195965D01*
X337712Y195946D01*
X337687Y195932D01*
X337621Y195863D01*
X337551Y195799D01*
X337537Y195775D01*
X337518Y195754D01*
X337477Y195667D01*
X337431Y195584D01*
X337426Y195557D01*
X337414Y195531D01*
X337404Y195436D01*
X337386Y195342D01*
X337390Y195315D01*
X337387Y195287D01*
X337407Y195193D01*
X337421Y195099D01*
X337435Y195067D01*
X337439Y195046D01*
X337456Y195018D01*
X337460Y195009D01*
X337641Y194334D01*
X337641Y190023D01*
X330862Y190023D01*
X330842Y190020D01*
X330823Y190022D01*
X330721Y190000D01*
X330619Y189983D01*
X330602Y189974D01*
X330582Y189970D01*
X330493Y189917D01*
X330402Y189868D01*
X330388Y189854D01*
X330371Y189844D01*
X330304Y189765D01*
X330233Y189690D01*
X330224Y189672D01*
X330211Y189657D01*
X330172Y189561D01*
X330129Y189467D01*
X330127Y189447D01*
X330119Y189429D01*
X330101Y189262D01*
X330101Y188499D01*
X330099Y188499D01*
X330099Y189262D01*
X330096Y189282D01*
X330098Y189301D01*
X330076Y189403D01*
X330059Y189505D01*
X330050Y189522D01*
X330046Y189542D01*
X329993Y189631D01*
X329944Y189722D01*
X329930Y189736D01*
X329920Y189753D01*
X329841Y189820D01*
X329766Y189891D01*
X329748Y189900D01*
X329733Y189913D01*
X329637Y189952D01*
X329543Y189995D01*
X329523Y189997D01*
X329505Y190005D01*
X329338Y190023D01*
X322559Y190023D01*
X322559Y194334D01*
X322748Y195040D01*
X322786Y195121D01*
X322789Y195149D01*
X322799Y195175D01*
X322803Y195271D01*
X322813Y195365D01*
X322807Y195393D01*
X322808Y195421D01*
X322781Y195512D01*
X322761Y195606D01*
X322746Y195630D01*
X322738Y195657D01*
X322684Y195735D01*
X322635Y195817D01*
X322613Y195835D01*
X322597Y195858D01*
X322520Y195915D01*
X322448Y195977D01*
X322422Y195987D01*
X322399Y196004D01*
X322308Y196033D01*
X322220Y196069D01*
X322184Y196073D01*
X322165Y196079D01*
X322132Y196079D01*
X322053Y196087D01*
X317366Y196087D01*
X317295Y196076D01*
X317224Y196074D01*
X317175Y196056D01*
X317123Y196048D01*
X317060Y196014D01*
X316993Y195989D01*
X316952Y195957D01*
X316906Y195932D01*
X316857Y195881D01*
X316801Y195836D01*
X316772Y195792D01*
X316737Y195754D01*
X316706Y195689D01*
X316668Y195629D01*
X316655Y195578D01*
X316633Y195531D01*
X316625Y195460D01*
X316608Y195390D01*
X316612Y195338D01*
X316606Y195287D01*
X316621Y195216D01*
X316627Y195145D01*
X316647Y195097D01*
X316658Y195046D01*
X316695Y194985D01*
X316723Y194919D01*
X316768Y194863D01*
X316784Y194835D01*
X316802Y194820D01*
X316828Y194788D01*
X316879Y194737D01*
X316879Y182263D01*
X315837Y181221D01*
X304363Y181221D01*
X303321Y182263D01*
X303321Y184436D01*
X303318Y184456D01*
X303320Y184475D01*
X303298Y184577D01*
X303282Y184679D01*
X303272Y184696D01*
X303268Y184716D01*
X303215Y184805D01*
X303166Y184896D01*
X303152Y184910D01*
X303142Y184927D01*
X303063Y184994D01*
X302988Y185066D01*
X302970Y185074D01*
X302955Y185087D01*
X302859Y185126D01*
X302765Y185169D01*
X302745Y185171D01*
X302727Y185179D01*
X302560Y185197D01*
X297640Y185197D01*
X297620Y185194D01*
X297601Y185196D01*
X297499Y185174D01*
X297397Y185158D01*
X297380Y185148D01*
X297360Y185144D01*
X297271Y185091D01*
X297180Y185042D01*
X297166Y185028D01*
X297149Y185018D01*
X297082Y184939D01*
X297010Y184864D01*
X297002Y184846D01*
X296989Y184831D01*
X296950Y184735D01*
X296907Y184641D01*
X296905Y184621D01*
X296897Y184603D01*
X296879Y184436D01*
X296879Y182263D01*
X295837Y181221D01*
X284363Y181221D01*
X283586Y181999D01*
X283549Y182025D01*
X283518Y182059D01*
X283449Y182097D01*
X283386Y182142D01*
X283342Y182156D01*
X283302Y182178D01*
X283225Y182192D01*
X283151Y182214D01*
X283105Y182213D01*
X283060Y182221D01*
X282983Y182210D01*
X282905Y182208D01*
X282862Y182192D01*
X282817Y182186D01*
X282747Y182150D01*
X282674Y182124D01*
X282638Y182095D01*
X282597Y182074D01*
X282543Y182019D01*
X282482Y181970D01*
X282457Y181931D01*
X282425Y181899D01*
X282359Y181779D01*
X282349Y181763D01*
X282348Y181758D01*
X282344Y181752D01*
X281530Y179786D01*
X279994Y178250D01*
X278630Y177685D01*
X278569Y177647D01*
X278503Y177618D01*
X278465Y177583D01*
X278421Y177555D01*
X278375Y177500D01*
X278322Y177451D01*
X278297Y177406D01*
X278264Y177366D01*
X278238Y177299D01*
X278204Y177236D01*
X278194Y177185D01*
X278176Y177136D01*
X278173Y177064D01*
X278160Y176994D01*
X278167Y176942D01*
X278165Y176890D01*
X278185Y176821D01*
X278196Y176750D01*
X278219Y176704D01*
X278234Y176654D01*
X278275Y176595D01*
X278307Y176531D01*
X278344Y176495D01*
X278374Y176452D01*
X278432Y176409D01*
X278483Y176359D01*
X278546Y176324D01*
X278571Y176305D01*
X278594Y176298D01*
X278630Y176278D01*
X280194Y175630D01*
X281433Y174391D01*
X281507Y174338D01*
X281577Y174278D01*
X281607Y174266D01*
X281633Y174247D01*
X281720Y174220D01*
X281805Y174186D01*
X281846Y174182D01*
X281868Y174175D01*
X281900Y174176D01*
X281972Y174168D01*
X282560Y174168D01*
X282580Y174171D01*
X282599Y174169D01*
X282701Y174191D01*
X282803Y174207D01*
X282820Y174217D01*
X282840Y174221D01*
X282929Y174274D01*
X283020Y174323D01*
X283034Y174337D01*
X283051Y174347D01*
X283118Y174426D01*
X283190Y174501D01*
X283198Y174519D01*
X283211Y174534D01*
X283250Y174630D01*
X283293Y174724D01*
X283295Y174744D01*
X283303Y174762D01*
X283321Y174929D01*
X283321Y177737D01*
X284363Y178779D01*
X295837Y178779D01*
X296879Y177737D01*
X296879Y165263D01*
X295837Y164221D01*
X284363Y164221D01*
X283321Y165263D01*
X283321Y167920D01*
X283306Y168016D01*
X283296Y168113D01*
X283286Y168137D01*
X283282Y168163D01*
X283236Y168249D01*
X283196Y168338D01*
X283179Y168357D01*
X283166Y168380D01*
X283096Y168447D01*
X283030Y168519D01*
X283007Y168532D01*
X282988Y168550D01*
X282900Y168591D01*
X282814Y168638D01*
X282789Y168642D01*
X282765Y168653D01*
X282668Y168664D01*
X282572Y168681D01*
X282546Y168678D01*
X282521Y168680D01*
X282426Y168660D01*
X282329Y168646D01*
X282306Y168634D01*
X282280Y168628D01*
X282197Y168578D01*
X282110Y168534D01*
X282091Y168515D01*
X282069Y168502D01*
X282006Y168428D01*
X281938Y168358D01*
X281922Y168330D01*
X281909Y168315D01*
X281897Y168284D01*
X281857Y168211D01*
X281730Y167906D01*
X280194Y166370D01*
X278186Y165538D01*
X276014Y165538D01*
X274006Y166370D01*
X272470Y167906D01*
X271638Y169914D01*
X271638Y172086D01*
X272470Y174094D01*
X274006Y175630D01*
X275370Y176195D01*
X275431Y176233D01*
X275497Y176262D01*
X275535Y176297D01*
X275579Y176325D01*
X275625Y176380D01*
X275678Y176429D01*
X275703Y176474D01*
X275736Y176514D01*
X275762Y176581D01*
X275796Y176644D01*
X275806Y176695D01*
X275824Y176744D01*
X275827Y176816D01*
X275840Y176886D01*
X275833Y176938D01*
X275835Y176990D01*
X275815Y177059D01*
X275804Y177130D01*
X275781Y177176D01*
X275766Y177226D01*
X275725Y177285D01*
X275693Y177349D01*
X275656Y177385D01*
X275626Y177428D01*
X275568Y177471D01*
X275517Y177521D01*
X275454Y177556D01*
X275429Y177575D01*
X275406Y177582D01*
X275370Y177602D01*
X273806Y178250D01*
X272270Y179786D01*
X271438Y181794D01*
X271438Y183966D01*
X272270Y185974D01*
X273806Y187510D01*
X275814Y188342D01*
X277376Y188342D01*
X277466Y188356D01*
X277557Y188364D01*
X277586Y188376D01*
X277618Y188381D01*
X277699Y188424D01*
X277783Y188460D01*
X277815Y188486D01*
X277836Y188497D01*
X277858Y188520D01*
X277914Y188565D01*
X281152Y191803D01*
X282560Y191803D01*
X282580Y191806D01*
X282599Y191804D01*
X282701Y191826D01*
X282803Y191842D01*
X282820Y191852D01*
X282840Y191856D01*
X282929Y191909D01*
X283020Y191958D01*
X283034Y191972D01*
X283051Y191982D01*
X283118Y192061D01*
X283190Y192136D01*
X283198Y192154D01*
X283211Y192169D01*
X283250Y192265D01*
X283293Y192359D01*
X283295Y192379D01*
X283303Y192397D01*
X283321Y192564D01*
X283321Y194737D01*
X284363Y195779D01*
X295837Y195779D01*
X296879Y194737D01*
X296879Y192564D01*
X296882Y192544D01*
X296880Y192525D01*
X296902Y192423D01*
X296918Y192321D01*
X296928Y192304D01*
X296932Y192284D01*
X296985Y192195D01*
X297034Y192104D01*
X297048Y192090D01*
X297058Y192073D01*
X297137Y192006D01*
X297212Y191934D01*
X297230Y191926D01*
X297245Y191913D01*
X297341Y191874D01*
X297435Y191831D01*
X297455Y191829D01*
X297473Y191821D01*
X297640Y191803D01*
X302560Y191803D01*
X302580Y191806D01*
X302599Y191804D01*
X302701Y191826D01*
X302803Y191842D01*
X302820Y191852D01*
X302840Y191856D01*
X302929Y191909D01*
X303020Y191958D01*
X303034Y191972D01*
X303051Y191982D01*
X303118Y192061D01*
X303190Y192136D01*
X303198Y192154D01*
X303211Y192169D01*
X303250Y192265D01*
X303293Y192359D01*
X303295Y192379D01*
X303303Y192397D01*
X303321Y192564D01*
X303321Y194737D01*
X304363Y195779D01*
X306036Y195779D01*
X306056Y195782D01*
X306075Y195780D01*
X306177Y195802D01*
X306279Y195818D01*
X306296Y195828D01*
X306316Y195832D01*
X306405Y195885D01*
X306496Y195934D01*
X306510Y195948D01*
X306527Y195958D01*
X306594Y196037D01*
X306666Y196112D01*
X306674Y196130D01*
X306687Y196145D01*
X306726Y196241D01*
X306769Y196335D01*
X306771Y196355D01*
X306779Y196373D01*
X306797Y196540D01*
X306797Y198398D01*
X308955Y200556D01*
X310782Y202383D01*
X310824Y202441D01*
X310873Y202493D01*
X310895Y202540D01*
X310926Y202582D01*
X310947Y202651D01*
X310977Y202716D01*
X310983Y202768D01*
X310998Y202818D01*
X310996Y202889D01*
X311004Y202960D01*
X310993Y203011D01*
X310992Y203063D01*
X310967Y203131D01*
X310952Y203201D01*
X310925Y203246D01*
X310907Y203294D01*
X310862Y203350D01*
X310825Y203412D01*
X310786Y203446D01*
X310753Y203486D01*
X310693Y203525D01*
X310639Y203572D01*
X310590Y203591D01*
X310546Y203619D01*
X310477Y203637D01*
X310410Y203664D01*
X310339Y203672D01*
X310308Y203680D01*
X310285Y203678D01*
X310244Y203682D01*
X272870Y203682D01*
X272780Y203668D01*
X272689Y203660D01*
X272660Y203648D01*
X272628Y203643D01*
X272547Y203600D01*
X272463Y203564D01*
X272431Y203538D01*
X272410Y203527D01*
X272388Y203504D01*
X272332Y203459D01*
X260745Y191872D01*
X260676Y191777D01*
X260607Y191683D01*
X260605Y191677D01*
X260601Y191672D01*
X260567Y191561D01*
X260531Y191449D01*
X260531Y191443D01*
X260529Y191437D01*
X260532Y191321D01*
X260533Y191204D01*
X260535Y191196D01*
X260535Y191191D01*
X260542Y191174D01*
X260562Y191105D01*
X260562Y188914D01*
X259730Y186906D01*
X258194Y185370D01*
X256186Y184538D01*
X256029Y184538D01*
X256009Y184535D01*
X255990Y184537D01*
X255888Y184515D01*
X255786Y184499D01*
X255769Y184489D01*
X255749Y184485D01*
X255660Y184432D01*
X255569Y184383D01*
X255555Y184369D01*
X255538Y184359D01*
X255471Y184280D01*
X255399Y184205D01*
X255391Y184187D01*
X255378Y184172D01*
X255339Y184076D01*
X255296Y183982D01*
X255294Y183962D01*
X255286Y183944D01*
X255268Y183777D01*
X255268Y113895D01*
X252991Y111618D01*
X252938Y111544D01*
X252878Y111475D01*
X252866Y111444D01*
X252847Y111418D01*
X252820Y111331D01*
X252786Y111246D01*
X252782Y111205D01*
X252775Y111183D01*
X252776Y111151D01*
X252768Y111080D01*
X252768Y26340D01*
X252771Y26320D01*
X252769Y26301D01*
X252791Y26199D01*
X252807Y26097D01*
X252817Y26080D01*
X252821Y26060D01*
X252874Y25971D01*
X252923Y25880D01*
X252937Y25866D01*
X252947Y25849D01*
X253026Y25782D01*
X253101Y25710D01*
X253119Y25702D01*
X253134Y25689D01*
X253230Y25650D01*
X253324Y25607D01*
X253344Y25605D01*
X253362Y25597D01*
X253529Y25579D01*
X253837Y25579D01*
X254023Y25393D01*
X254039Y25381D01*
X254052Y25365D01*
X254139Y25309D01*
X254223Y25249D01*
X254242Y25243D01*
X254258Y25232D01*
X254359Y25207D01*
X254458Y25177D01*
X254478Y25177D01*
X254497Y25172D01*
X254600Y25180D01*
X254704Y25183D01*
X254722Y25190D01*
X254742Y25191D01*
X254837Y25232D01*
X254935Y25268D01*
X254950Y25280D01*
X254968Y25288D01*
X255099Y25393D01*
X255540Y25833D01*
X256119Y26168D01*
X256766Y26341D01*
X258601Y26341D01*
X258601Y14538D01*
X258604Y14519D01*
X258602Y14499D01*
X258624Y14397D01*
X258640Y14295D01*
X258650Y14278D01*
X258654Y14258D01*
X258707Y14169D01*
X258756Y14078D01*
X258770Y14064D01*
X258780Y14047D01*
X258859Y13980D01*
X258934Y13909D01*
X258952Y13900D01*
X258967Y13887D01*
X259063Y13849D01*
X259157Y13805D01*
X259177Y13803D01*
X259195Y13795D01*
X259362Y13777D01*
X260077Y13777D01*
X260077Y13062D01*
X260080Y13042D01*
X260078Y13022D01*
X260100Y12921D01*
X260117Y12819D01*
X260126Y12802D01*
X260130Y12782D01*
X260183Y12693D01*
X260232Y12602D01*
X260246Y12588D01*
X260256Y12571D01*
X260335Y12504D01*
X260410Y12432D01*
X260428Y12424D01*
X260443Y12411D01*
X260540Y12372D01*
X260633Y12329D01*
X260653Y12327D01*
X260671Y12319D01*
X260838Y12301D01*
X265641Y12301D01*
X265641Y3465D01*
X265513Y2987D01*
X265501Y2868D01*
X265488Y2751D01*
X265488Y2746D01*
X265488Y2742D01*
X265514Y2627D01*
X265540Y2510D01*
X265542Y2507D01*
X265543Y2503D01*
X265605Y2402D01*
X265666Y2299D01*
X265669Y2296D01*
X265671Y2293D01*
X265763Y2216D01*
X265853Y2139D01*
X265857Y2138D01*
X265860Y2135D01*
X265970Y2092D01*
X266081Y2047D01*
X266086Y2047D01*
X266089Y2045D01*
X266103Y2045D01*
X266248Y2029D01*
X433456Y2029D01*
X433527Y2040D01*
G37*
G36*
X368596Y124806D02*
X368596Y124806D01*
X368615Y124804D01*
X368717Y124826D01*
X368819Y124842D01*
X368836Y124852D01*
X368856Y124856D01*
X368945Y124909D01*
X369036Y124958D01*
X369050Y124972D01*
X369067Y124982D01*
X369134Y125061D01*
X369206Y125136D01*
X369214Y125154D01*
X369227Y125169D01*
X369266Y125265D01*
X369309Y125359D01*
X369311Y125379D01*
X369319Y125397D01*
X369337Y125564D01*
X369337Y170316D01*
X369784Y170763D01*
X386398Y170763D01*
X386418Y170766D01*
X386437Y170764D01*
X386539Y170786D01*
X386641Y170802D01*
X386658Y170812D01*
X386678Y170816D01*
X386767Y170869D01*
X386858Y170918D01*
X386872Y170932D01*
X386889Y170942D01*
X386896Y170951D01*
X387435Y170951D01*
X387494Y170894D01*
X387512Y170886D01*
X387527Y170873D01*
X387623Y170834D01*
X387717Y170791D01*
X387737Y170789D01*
X387755Y170781D01*
X387922Y170763D01*
X432880Y170763D01*
X432900Y170766D01*
X432919Y170764D01*
X433021Y170786D01*
X433123Y170802D01*
X433140Y170812D01*
X433160Y170816D01*
X433249Y170869D01*
X433340Y170918D01*
X433354Y170932D01*
X433371Y170942D01*
X433438Y171021D01*
X433510Y171096D01*
X433518Y171114D01*
X433531Y171129D01*
X433570Y171225D01*
X433613Y171319D01*
X433615Y171339D01*
X433623Y171357D01*
X433641Y171524D01*
X433641Y175497D01*
X434683Y176539D01*
X451397Y176539D01*
X452439Y175497D01*
X452439Y171524D01*
X452442Y171504D01*
X452440Y171485D01*
X452462Y171383D01*
X452478Y171281D01*
X452488Y171264D01*
X452492Y171244D01*
X452545Y171155D01*
X452594Y171064D01*
X452608Y171050D01*
X452618Y171033D01*
X452697Y170966D01*
X452772Y170894D01*
X452790Y170886D01*
X452805Y170873D01*
X452901Y170834D01*
X452995Y170791D01*
X453015Y170789D01*
X453033Y170781D01*
X453200Y170763D01*
X460416Y170763D01*
X460863Y170316D01*
X460863Y153429D01*
X460866Y153409D01*
X460864Y153390D01*
X460886Y153288D01*
X460902Y153186D01*
X460912Y153169D01*
X460916Y153149D01*
X460969Y153060D01*
X461018Y152969D01*
X461032Y152955D01*
X461042Y152938D01*
X461121Y152871D01*
X461196Y152799D01*
X461214Y152791D01*
X461229Y152778D01*
X461325Y152739D01*
X461419Y152696D01*
X461439Y152694D01*
X461457Y152686D01*
X461624Y152668D01*
X473405Y152668D01*
X479272Y146801D01*
X479330Y146759D01*
X479382Y146710D01*
X479429Y146688D01*
X479471Y146657D01*
X479540Y146636D01*
X479605Y146606D01*
X479657Y146600D01*
X479707Y146585D01*
X479778Y146587D01*
X479849Y146579D01*
X479900Y146590D01*
X479952Y146591D01*
X480020Y146616D01*
X480090Y146631D01*
X480135Y146658D01*
X480183Y146676D01*
X480239Y146721D01*
X480301Y146757D01*
X480335Y146797D01*
X480375Y146830D01*
X480414Y146890D01*
X480461Y146944D01*
X480480Y146993D01*
X480508Y147037D01*
X480526Y147106D01*
X480553Y147173D01*
X480561Y147244D01*
X480569Y147275D01*
X480567Y147298D01*
X480571Y147339D01*
X480571Y217210D01*
X480568Y217230D01*
X480570Y217249D01*
X480548Y217351D01*
X480532Y217453D01*
X480522Y217470D01*
X480518Y217490D01*
X480465Y217579D01*
X480416Y217670D01*
X480402Y217684D01*
X480392Y217701D01*
X480313Y217768D01*
X480238Y217840D01*
X480220Y217848D01*
X480205Y217861D01*
X480109Y217900D01*
X480015Y217943D01*
X479995Y217945D01*
X479977Y217953D01*
X479810Y217971D01*
X287890Y217971D01*
X287870Y217968D01*
X287851Y217970D01*
X287749Y217948D01*
X287647Y217932D01*
X287630Y217922D01*
X287610Y217918D01*
X287521Y217865D01*
X287430Y217816D01*
X287416Y217802D01*
X287399Y217792D01*
X287332Y217713D01*
X287260Y217638D01*
X287252Y217620D01*
X287239Y217605D01*
X287200Y217509D01*
X287157Y217415D01*
X287155Y217395D01*
X287147Y217377D01*
X287129Y217210D01*
X287129Y209779D01*
X287132Y209759D01*
X287130Y209740D01*
X287152Y209638D01*
X287168Y209536D01*
X287178Y209519D01*
X287182Y209499D01*
X287235Y209410D01*
X287284Y209319D01*
X287298Y209305D01*
X287308Y209288D01*
X287387Y209221D01*
X287462Y209149D01*
X287480Y209141D01*
X287495Y209128D01*
X287591Y209089D01*
X287685Y209046D01*
X287705Y209044D01*
X287723Y209036D01*
X287890Y209018D01*
X360030Y209018D01*
X360120Y209032D01*
X360211Y209040D01*
X360241Y209052D01*
X360272Y209057D01*
X360353Y209100D01*
X360437Y209136D01*
X360469Y209162D01*
X360490Y209173D01*
X360512Y209196D01*
X360568Y209241D01*
X361259Y209932D01*
X363045Y211718D01*
X377000Y211718D01*
X377020Y211721D01*
X377039Y211719D01*
X377141Y211741D01*
X377243Y211757D01*
X377260Y211767D01*
X377280Y211771D01*
X377369Y211824D01*
X377460Y211873D01*
X377474Y211887D01*
X377491Y211897D01*
X377558Y211976D01*
X377630Y212051D01*
X377638Y212069D01*
X377651Y212084D01*
X377690Y212180D01*
X377733Y212274D01*
X377735Y212294D01*
X377743Y212312D01*
X377761Y212479D01*
X377761Y213597D01*
X378803Y214639D01*
X395517Y214639D01*
X396559Y213597D01*
X396559Y204503D01*
X395517Y203461D01*
X378803Y203461D01*
X377761Y204503D01*
X377761Y205621D01*
X377758Y205641D01*
X377760Y205660D01*
X377738Y205762D01*
X377722Y205864D01*
X377712Y205881D01*
X377708Y205901D01*
X377655Y205990D01*
X377606Y206081D01*
X377592Y206095D01*
X377582Y206112D01*
X377503Y206179D01*
X377428Y206251D01*
X377410Y206259D01*
X377395Y206272D01*
X377299Y206311D01*
X377205Y206354D01*
X377185Y206356D01*
X377167Y206364D01*
X377000Y206382D01*
X365570Y206382D01*
X365480Y206368D01*
X365389Y206360D01*
X365360Y206348D01*
X365328Y206343D01*
X365247Y206300D01*
X365163Y206264D01*
X365131Y206238D01*
X365110Y206227D01*
X365088Y206204D01*
X365032Y206159D01*
X362555Y203682D01*
X345156Y203682D01*
X345086Y203671D01*
X345014Y203669D01*
X344965Y203651D01*
X344914Y203643D01*
X344850Y203609D01*
X344783Y203584D01*
X344742Y203552D01*
X344696Y203527D01*
X344647Y203475D01*
X344591Y203431D01*
X344563Y203387D01*
X344527Y203349D01*
X344497Y203284D01*
X344458Y203224D01*
X344445Y203173D01*
X344423Y203126D01*
X344415Y203055D01*
X344398Y202985D01*
X344402Y202933D01*
X344396Y202882D01*
X344411Y202811D01*
X344417Y202740D01*
X344437Y202692D01*
X344448Y202641D01*
X344485Y202580D01*
X344513Y202514D01*
X344558Y202458D01*
X344575Y202430D01*
X344592Y202415D01*
X344618Y202383D01*
X346466Y200535D01*
X349165Y197836D01*
X351323Y195678D01*
X351323Y135033D01*
X351337Y134943D01*
X351345Y134852D01*
X351357Y134823D01*
X351362Y134791D01*
X351405Y134710D01*
X351441Y134626D01*
X351467Y134594D01*
X351478Y134573D01*
X351501Y134551D01*
X351546Y134495D01*
X361015Y125026D01*
X361089Y124973D01*
X361158Y124913D01*
X361189Y124901D01*
X361215Y124882D01*
X361302Y124855D01*
X361387Y124821D01*
X361428Y124817D01*
X361450Y124810D01*
X361482Y124811D01*
X361553Y124803D01*
X368576Y124803D01*
X368596Y124806D01*
G37*
%LPC*%
G36*
X358363Y53221D02*
X358363Y53221D01*
X357321Y54263D01*
X357321Y63737D01*
X358363Y64779D01*
X361671Y64779D01*
X361691Y64782D01*
X361710Y64780D01*
X361812Y64802D01*
X361914Y64818D01*
X361931Y64828D01*
X361951Y64832D01*
X362040Y64885D01*
X362131Y64934D01*
X362145Y64948D01*
X362162Y64958D01*
X362229Y65037D01*
X362301Y65112D01*
X362309Y65130D01*
X362322Y65145D01*
X362361Y65241D01*
X362404Y65335D01*
X362406Y65355D01*
X362414Y65373D01*
X362432Y65540D01*
X362432Y78580D01*
X362418Y78670D01*
X362410Y78761D01*
X362398Y78790D01*
X362393Y78822D01*
X362350Y78903D01*
X362314Y78987D01*
X362288Y79019D01*
X362277Y79040D01*
X362254Y79062D01*
X362209Y79118D01*
X324218Y117109D01*
X324144Y117162D01*
X324075Y117222D01*
X324044Y117234D01*
X324018Y117253D01*
X323931Y117280D01*
X323846Y117314D01*
X323805Y117318D01*
X323783Y117325D01*
X323751Y117324D01*
X323680Y117332D01*
X320415Y117332D01*
X320300Y117313D01*
X320184Y117296D01*
X320179Y117294D01*
X320173Y117293D01*
X320070Y117238D01*
X319965Y117185D01*
X319961Y117180D01*
X319955Y117177D01*
X319875Y117093D01*
X319793Y117009D01*
X319789Y117003D01*
X319786Y116999D01*
X319778Y116982D01*
X319744Y116919D01*
X318194Y115370D01*
X316186Y114538D01*
X316172Y114538D01*
X316102Y114527D01*
X316030Y114525D01*
X315981Y114507D01*
X315930Y114499D01*
X315866Y114465D01*
X315799Y114440D01*
X315758Y114408D01*
X315712Y114383D01*
X315663Y114331D01*
X315607Y114287D01*
X315579Y114243D01*
X315543Y114205D01*
X315513Y114140D01*
X315474Y114080D01*
X315461Y114029D01*
X315439Y113982D01*
X315431Y113911D01*
X315414Y113841D01*
X315418Y113789D01*
X315412Y113738D01*
X315427Y113667D01*
X315433Y113596D01*
X315453Y113548D01*
X315464Y113497D01*
X315501Y113436D01*
X315529Y113370D01*
X315574Y113314D01*
X315590Y113286D01*
X315608Y113271D01*
X315634Y113239D01*
X337768Y91105D01*
X337768Y74540D01*
X337771Y74520D01*
X337769Y74501D01*
X337791Y74399D01*
X337807Y74297D01*
X337817Y74280D01*
X337821Y74260D01*
X337874Y74171D01*
X337923Y74080D01*
X337937Y74066D01*
X337947Y74049D01*
X338026Y73982D01*
X338101Y73910D01*
X338119Y73902D01*
X338134Y73889D01*
X338230Y73850D01*
X338324Y73807D01*
X338344Y73805D01*
X338362Y73797D01*
X338529Y73779D01*
X344837Y73779D01*
X345879Y72737D01*
X345879Y55263D01*
X344837Y54221D01*
X325363Y54221D01*
X324321Y55263D01*
X324321Y58461D01*
X324310Y58532D01*
X324308Y58604D01*
X324290Y58653D01*
X324282Y58704D01*
X324248Y58767D01*
X324223Y58835D01*
X324191Y58875D01*
X324166Y58921D01*
X324114Y58971D01*
X324070Y59027D01*
X324026Y59055D01*
X323988Y59091D01*
X323923Y59121D01*
X323863Y59160D01*
X323812Y59172D01*
X323765Y59194D01*
X323694Y59202D01*
X323624Y59220D01*
X323572Y59216D01*
X323521Y59221D01*
X323450Y59206D01*
X323379Y59201D01*
X323331Y59180D01*
X323280Y59169D01*
X323219Y59132D01*
X323153Y59104D01*
X323097Y59059D01*
X323069Y59043D01*
X323054Y59025D01*
X323022Y58999D01*
X322123Y58101D01*
X319999Y57221D01*
X317701Y57221D01*
X315577Y58101D01*
X313951Y59727D01*
X313037Y61933D01*
X313013Y61972D01*
X312997Y62015D01*
X312949Y62076D01*
X312907Y62142D01*
X312872Y62171D01*
X312843Y62207D01*
X312778Y62249D01*
X312718Y62299D01*
X312675Y62315D01*
X312637Y62340D01*
X312561Y62359D01*
X312488Y62387D01*
X312443Y62389D01*
X312398Y62400D01*
X312320Y62394D01*
X312243Y62398D01*
X312198Y62385D01*
X312153Y62381D01*
X312081Y62351D01*
X312006Y62329D01*
X311969Y62303D01*
X311926Y62285D01*
X311820Y62199D01*
X311804Y62189D01*
X311801Y62185D01*
X311796Y62180D01*
X310837Y61221D01*
X299363Y61221D01*
X298321Y62263D01*
X298321Y74737D01*
X299363Y75779D01*
X301671Y75779D01*
X301691Y75782D01*
X301710Y75780D01*
X301812Y75802D01*
X301914Y75818D01*
X301931Y75828D01*
X301951Y75832D01*
X302040Y75885D01*
X302131Y75934D01*
X302145Y75948D01*
X302162Y75958D01*
X302229Y76037D01*
X302301Y76112D01*
X302309Y76130D01*
X302322Y76145D01*
X302361Y76241D01*
X302404Y76335D01*
X302406Y76355D01*
X302414Y76373D01*
X302432Y76540D01*
X302432Y105480D01*
X302418Y105570D01*
X302410Y105661D01*
X302398Y105690D01*
X302393Y105722D01*
X302350Y105803D01*
X302314Y105887D01*
X302288Y105919D01*
X302277Y105940D01*
X302254Y105962D01*
X302209Y106018D01*
X298872Y109355D01*
X298777Y109424D01*
X298683Y109493D01*
X298677Y109495D01*
X298672Y109499D01*
X298561Y109533D01*
X298449Y109569D01*
X298443Y109569D01*
X298437Y109571D01*
X298321Y109568D01*
X298204Y109567D01*
X298196Y109565D01*
X298191Y109565D01*
X298174Y109558D01*
X298105Y109538D01*
X295914Y109538D01*
X293906Y110370D01*
X292370Y111906D01*
X291538Y113914D01*
X291538Y116086D01*
X292370Y118094D01*
X293906Y119630D01*
X295914Y120462D01*
X297877Y120462D01*
X297897Y120465D01*
X297916Y120463D01*
X298018Y120485D01*
X298120Y120501D01*
X298137Y120511D01*
X298157Y120515D01*
X298246Y120568D01*
X298337Y120617D01*
X298351Y120631D01*
X298368Y120641D01*
X298435Y120720D01*
X298507Y120795D01*
X298515Y120813D01*
X298528Y120828D01*
X298567Y120924D01*
X298610Y121018D01*
X298612Y121038D01*
X298620Y121056D01*
X298638Y121223D01*
X298638Y122086D01*
X299470Y124094D01*
X301006Y125630D01*
X303014Y126462D01*
X305186Y126462D01*
X307194Y125630D01*
X308730Y124094D01*
X309104Y123192D01*
X309142Y123131D01*
X309171Y123065D01*
X309206Y123027D01*
X309233Y122983D01*
X309289Y122937D01*
X309337Y122884D01*
X309383Y122859D01*
X309423Y122826D01*
X309490Y122800D01*
X309553Y122766D01*
X309604Y122756D01*
X309653Y122738D01*
X309724Y122735D01*
X309795Y122722D01*
X309846Y122730D01*
X309898Y122727D01*
X309967Y122748D01*
X310038Y122758D01*
X310085Y122782D01*
X310134Y122796D01*
X310194Y122837D01*
X310258Y122870D01*
X310294Y122907D01*
X310337Y122936D01*
X310379Y122994D01*
X310430Y123045D01*
X310440Y123064D01*
X312006Y124630D01*
X314014Y125462D01*
X316186Y125462D01*
X318194Y124630D01*
X319754Y123070D01*
X319773Y123039D01*
X319834Y122938D01*
X319838Y122934D01*
X319842Y122929D01*
X319931Y122854D01*
X320021Y122778D01*
X320026Y122776D01*
X320031Y122772D01*
X320140Y122730D01*
X320249Y122686D01*
X320256Y122685D01*
X320261Y122684D01*
X320279Y122683D01*
X320415Y122668D01*
X326205Y122668D01*
X367768Y81105D01*
X367768Y65540D01*
X367771Y65520D01*
X367769Y65501D01*
X367791Y65399D01*
X367807Y65297D01*
X367817Y65280D01*
X367821Y65260D01*
X367874Y65171D01*
X367923Y65080D01*
X367937Y65066D01*
X367947Y65049D01*
X368026Y64982D01*
X368101Y64910D01*
X368119Y64902D01*
X368134Y64889D01*
X368230Y64850D01*
X368324Y64807D01*
X368344Y64805D01*
X368362Y64797D01*
X368529Y64779D01*
X371837Y64779D01*
X372879Y63737D01*
X372879Y54263D01*
X371837Y53221D01*
X358363Y53221D01*
G37*
%LPD*%
%LPC*%
G36*
X55468Y79475D02*
X55468Y79475D01*
X54575Y80368D01*
X54575Y101632D01*
X55468Y102525D01*
X146732Y102525D01*
X147625Y101632D01*
X147625Y80368D01*
X146732Y79475D01*
X55468Y79475D01*
G37*
%LPD*%
G36*
X458514Y66187D02*
X458514Y66187D01*
X458630Y66204D01*
X458635Y66206D01*
X458641Y66207D01*
X458744Y66262D01*
X458849Y66315D01*
X458853Y66320D01*
X458859Y66323D01*
X458939Y66407D01*
X459021Y66491D01*
X459025Y66497D01*
X459028Y66501D01*
X459036Y66518D01*
X459102Y66638D01*
X460425Y69831D01*
X463569Y72975D01*
X467677Y74677D01*
X472123Y74677D01*
X476231Y72975D01*
X479272Y69935D01*
X479330Y69893D01*
X479382Y69843D01*
X479429Y69821D01*
X479471Y69791D01*
X479540Y69770D01*
X479605Y69740D01*
X479657Y69734D01*
X479707Y69719D01*
X479778Y69721D01*
X479849Y69713D01*
X479900Y69724D01*
X479952Y69725D01*
X480020Y69750D01*
X480090Y69765D01*
X480135Y69792D01*
X480183Y69809D01*
X480239Y69854D01*
X480301Y69891D01*
X480335Y69931D01*
X480375Y69963D01*
X480414Y70023D01*
X480461Y70078D01*
X480480Y70126D01*
X480508Y70170D01*
X480526Y70240D01*
X480553Y70306D01*
X480561Y70377D01*
X480569Y70409D01*
X480567Y70432D01*
X480571Y70473D01*
X480571Y81927D01*
X480560Y81998D01*
X480558Y82070D01*
X480540Y82119D01*
X480532Y82170D01*
X480498Y82233D01*
X480473Y82301D01*
X480441Y82341D01*
X480416Y82387D01*
X480364Y82437D01*
X480320Y82493D01*
X480276Y82521D01*
X480238Y82557D01*
X480173Y82587D01*
X480113Y82626D01*
X480062Y82638D01*
X480015Y82660D01*
X479944Y82668D01*
X479874Y82686D01*
X479822Y82682D01*
X479771Y82687D01*
X479700Y82672D01*
X479629Y82667D01*
X479581Y82646D01*
X479530Y82635D01*
X479469Y82598D01*
X479403Y82570D01*
X479347Y82525D01*
X479319Y82509D01*
X479304Y82491D01*
X479272Y82465D01*
X476231Y79425D01*
X472123Y77723D01*
X467677Y77723D01*
X463569Y79425D01*
X460425Y82569D01*
X459102Y85762D01*
X459041Y85862D01*
X458981Y85962D01*
X458976Y85966D01*
X458972Y85971D01*
X458883Y86046D01*
X458794Y86122D01*
X458788Y86124D01*
X458783Y86128D01*
X458675Y86170D01*
X458565Y86214D01*
X458558Y86215D01*
X458553Y86216D01*
X458535Y86217D01*
X458399Y86232D01*
X428155Y86232D01*
X421362Y93025D01*
X421362Y98476D01*
X421359Y98496D01*
X421361Y98515D01*
X421339Y98617D01*
X421323Y98719D01*
X421313Y98736D01*
X421309Y98756D01*
X421256Y98845D01*
X421207Y98936D01*
X421193Y98950D01*
X421183Y98967D01*
X421104Y99034D01*
X421029Y99106D01*
X421011Y99114D01*
X420996Y99127D01*
X420900Y99166D01*
X420806Y99209D01*
X420786Y99211D01*
X420768Y99219D01*
X420601Y99237D01*
X388239Y99237D01*
X388219Y99234D01*
X388200Y99236D01*
X388098Y99214D01*
X387996Y99198D01*
X387979Y99188D01*
X387959Y99184D01*
X387870Y99131D01*
X387779Y99082D01*
X387765Y99068D01*
X387748Y99058D01*
X387681Y98979D01*
X387609Y98904D01*
X387601Y98886D01*
X387588Y98871D01*
X387549Y98775D01*
X387506Y98681D01*
X387504Y98661D01*
X387496Y98643D01*
X387478Y98476D01*
X387478Y90320D01*
X387480Y90306D01*
X387479Y90294D01*
X387492Y90234D01*
X387492Y90230D01*
X387500Y90139D01*
X387512Y90110D01*
X387517Y90078D01*
X387560Y89997D01*
X387596Y89913D01*
X387622Y89881D01*
X387633Y89860D01*
X387656Y89838D01*
X387701Y89782D01*
X411092Y66391D01*
X411166Y66338D01*
X411235Y66278D01*
X411266Y66266D01*
X411292Y66247D01*
X411379Y66220D01*
X411464Y66186D01*
X411505Y66182D01*
X411527Y66175D01*
X411559Y66176D01*
X411630Y66168D01*
X458399Y66168D01*
X458514Y66187D01*
G37*
G36*
X193272Y120853D02*
X193272Y120853D01*
X193298Y120852D01*
X193391Y120879D01*
X193487Y120899D01*
X193509Y120913D01*
X193534Y120920D01*
X193614Y120976D01*
X193698Y121026D01*
X193715Y121045D01*
X193736Y121060D01*
X193794Y121138D01*
X193858Y121213D01*
X193868Y121237D01*
X193883Y121257D01*
X193913Y121350D01*
X193950Y121441D01*
X193953Y121473D01*
X193959Y121491D01*
X193959Y121524D01*
X193968Y121607D01*
X193968Y123006D01*
X194800Y125014D01*
X195904Y126118D01*
X195957Y126192D01*
X196017Y126262D01*
X196029Y126292D01*
X196048Y126318D01*
X196075Y126405D01*
X196109Y126490D01*
X196113Y126531D01*
X196120Y126553D01*
X196119Y126585D01*
X196127Y126657D01*
X196127Y178143D01*
X196113Y178233D01*
X196105Y178324D01*
X196093Y178354D01*
X196088Y178386D01*
X196045Y178467D01*
X196009Y178551D01*
X195983Y178583D01*
X195972Y178603D01*
X195949Y178626D01*
X195904Y178682D01*
X194800Y179786D01*
X193968Y181794D01*
X193968Y183966D01*
X194800Y185974D01*
X194859Y186033D01*
X194900Y186091D01*
X194950Y186143D01*
X194972Y186190D01*
X195002Y186232D01*
X195023Y186301D01*
X195054Y186366D01*
X195059Y186418D01*
X195075Y186467D01*
X195073Y186539D01*
X195081Y186610D01*
X195070Y186661D01*
X195068Y186713D01*
X195044Y186781D01*
X195028Y186851D01*
X195002Y186896D01*
X194984Y186944D01*
X194939Y187000D01*
X194902Y187062D01*
X194863Y187096D01*
X194830Y187136D01*
X194770Y187175D01*
X194715Y187222D01*
X194667Y187241D01*
X194623Y187269D01*
X194554Y187287D01*
X194487Y187314D01*
X194416Y187322D01*
X194385Y187330D01*
X194361Y187328D01*
X194320Y187332D01*
X176029Y187332D01*
X176009Y187329D01*
X175990Y187331D01*
X175888Y187309D01*
X175786Y187293D01*
X175769Y187283D01*
X175749Y187279D01*
X175660Y187226D01*
X175569Y187177D01*
X175555Y187163D01*
X175538Y187153D01*
X175471Y187074D01*
X175399Y186999D01*
X175391Y186981D01*
X175378Y186966D01*
X175339Y186870D01*
X175296Y186776D01*
X175294Y186756D01*
X175286Y186738D01*
X175268Y186571D01*
X175268Y182163D01*
X175282Y182073D01*
X175290Y181982D01*
X175302Y181952D01*
X175307Y181920D01*
X175350Y181840D01*
X175386Y181756D01*
X175412Y181724D01*
X175423Y181703D01*
X175446Y181681D01*
X175491Y181625D01*
X175879Y181237D01*
X175879Y171763D01*
X174837Y170721D01*
X166029Y170721D01*
X166009Y170718D01*
X165990Y170720D01*
X165888Y170698D01*
X165786Y170682D01*
X165769Y170672D01*
X165749Y170668D01*
X165660Y170615D01*
X165569Y170566D01*
X165555Y170552D01*
X165538Y170542D01*
X165471Y170463D01*
X165399Y170388D01*
X165391Y170370D01*
X165378Y170355D01*
X165339Y170259D01*
X165296Y170165D01*
X165294Y170145D01*
X165286Y170127D01*
X165268Y169960D01*
X165268Y166223D01*
X165271Y166203D01*
X165269Y166184D01*
X165291Y166082D01*
X165307Y165980D01*
X165317Y165963D01*
X165321Y165943D01*
X165374Y165854D01*
X165423Y165763D01*
X165437Y165749D01*
X165447Y165732D01*
X165526Y165665D01*
X165601Y165593D01*
X165619Y165585D01*
X165634Y165572D01*
X165730Y165533D01*
X165824Y165490D01*
X165844Y165488D01*
X165862Y165480D01*
X166029Y165462D01*
X166186Y165462D01*
X168194Y164630D01*
X169730Y163094D01*
X170562Y161086D01*
X170562Y158914D01*
X169730Y156906D01*
X168194Y155370D01*
X166186Y154538D01*
X164014Y154538D01*
X162976Y154968D01*
X162881Y154990D01*
X162788Y155019D01*
X162762Y155018D01*
X162736Y155024D01*
X162640Y155015D01*
X162542Y155013D01*
X162517Y155004D01*
X162491Y155001D01*
X162403Y154962D01*
X162311Y154928D01*
X162291Y154912D01*
X162267Y154901D01*
X162195Y154835D01*
X162119Y154775D01*
X162105Y154753D01*
X162086Y154735D01*
X162039Y154649D01*
X161986Y154568D01*
X161980Y154542D01*
X161967Y154519D01*
X161950Y154423D01*
X161926Y154329D01*
X161928Y154303D01*
X161923Y154277D01*
X161937Y154181D01*
X161945Y154084D01*
X161955Y154060D01*
X161959Y154034D01*
X162003Y153947D01*
X162041Y153858D01*
X162062Y153832D01*
X162071Y153815D01*
X162094Y153791D01*
X162146Y153727D01*
X162982Y152891D01*
X163056Y152838D01*
X163125Y152778D01*
X163156Y152766D01*
X163182Y152747D01*
X163269Y152720D01*
X163354Y152686D01*
X163395Y152682D01*
X163417Y152675D01*
X163449Y152676D01*
X163520Y152668D01*
X172785Y152668D01*
X172900Y152687D01*
X173016Y152704D01*
X173021Y152706D01*
X173027Y152707D01*
X173130Y152762D01*
X173235Y152815D01*
X173239Y152820D01*
X173245Y152823D01*
X173325Y152907D01*
X173407Y152991D01*
X173411Y152997D01*
X173414Y153001D01*
X173422Y153018D01*
X173456Y153081D01*
X175006Y154630D01*
X177014Y155462D01*
X179186Y155462D01*
X181194Y154630D01*
X182730Y153094D01*
X183562Y151086D01*
X183562Y148914D01*
X182730Y146906D01*
X181194Y145370D01*
X179186Y144538D01*
X177014Y144538D01*
X175006Y145370D01*
X173446Y146930D01*
X173427Y146961D01*
X173366Y147062D01*
X173362Y147066D01*
X173358Y147071D01*
X173269Y147146D01*
X173179Y147222D01*
X173174Y147224D01*
X173169Y147228D01*
X173060Y147270D01*
X172951Y147314D01*
X172944Y147315D01*
X172939Y147316D01*
X172921Y147317D01*
X172785Y147332D01*
X171902Y147332D01*
X171882Y147329D01*
X171863Y147331D01*
X171761Y147309D01*
X171659Y147293D01*
X171642Y147283D01*
X171622Y147279D01*
X171533Y147226D01*
X171442Y147177D01*
X171428Y147163D01*
X171411Y147153D01*
X171344Y147074D01*
X171272Y146999D01*
X171264Y146981D01*
X171251Y146966D01*
X171212Y146870D01*
X171169Y146776D01*
X171167Y146756D01*
X171159Y146738D01*
X171141Y146571D01*
X171141Y140523D01*
X163362Y140523D01*
X163342Y140520D01*
X163323Y140522D01*
X163221Y140500D01*
X163119Y140483D01*
X163102Y140474D01*
X163082Y140470D01*
X162993Y140417D01*
X162902Y140368D01*
X162888Y140354D01*
X162871Y140344D01*
X162804Y140265D01*
X162733Y140190D01*
X162724Y140172D01*
X162711Y140157D01*
X162672Y140061D01*
X162629Y139967D01*
X162627Y139947D01*
X162619Y139929D01*
X162601Y139762D01*
X162601Y138238D01*
X162604Y138218D01*
X162602Y138199D01*
X162624Y138097D01*
X162641Y137995D01*
X162650Y137978D01*
X162654Y137958D01*
X162707Y137869D01*
X162756Y137778D01*
X162770Y137764D01*
X162780Y137747D01*
X162859Y137680D01*
X162934Y137609D01*
X162952Y137600D01*
X162967Y137587D01*
X163063Y137548D01*
X163157Y137505D01*
X163177Y137503D01*
X163195Y137495D01*
X163362Y137477D01*
X171141Y137477D01*
X171141Y134901D01*
X171148Y134856D01*
X171146Y134810D01*
X171168Y134735D01*
X171180Y134659D01*
X171202Y134618D01*
X171215Y134574D01*
X171259Y134510D01*
X171296Y134441D01*
X171329Y134410D01*
X171355Y134372D01*
X171418Y134325D01*
X171474Y134272D01*
X171516Y134252D01*
X171552Y134225D01*
X171626Y134201D01*
X171697Y134168D01*
X171743Y134163D01*
X171786Y134149D01*
X171864Y134150D01*
X171941Y134141D01*
X171986Y134151D01*
X172032Y134151D01*
X172164Y134189D01*
X172182Y134193D01*
X172186Y134196D01*
X172193Y134198D01*
X174134Y135002D01*
X176306Y135002D01*
X178314Y134170D01*
X179850Y132634D01*
X180682Y130626D01*
X180682Y128454D01*
X179850Y126446D01*
X179482Y126078D01*
X179440Y126020D01*
X179391Y125968D01*
X179369Y125921D01*
X179339Y125879D01*
X179318Y125810D01*
X179287Y125745D01*
X179282Y125693D01*
X179266Y125643D01*
X179268Y125572D01*
X179260Y125501D01*
X179271Y125450D01*
X179273Y125398D01*
X179297Y125330D01*
X179313Y125260D01*
X179339Y125215D01*
X179357Y125167D01*
X179402Y125111D01*
X179439Y125049D01*
X179478Y125015D01*
X179511Y124975D01*
X179571Y124936D01*
X179626Y124889D01*
X179674Y124870D01*
X179718Y124842D01*
X179787Y124824D01*
X179854Y124797D01*
X179925Y124789D01*
X179956Y124781D01*
X179980Y124783D01*
X180021Y124779D01*
X181837Y124779D01*
X182879Y123737D01*
X182879Y122631D01*
X182890Y122560D01*
X182892Y122488D01*
X182910Y122439D01*
X182918Y122388D01*
X182952Y122325D01*
X182977Y122257D01*
X183009Y122217D01*
X183034Y122170D01*
X183086Y122121D01*
X183130Y122065D01*
X183174Y122037D01*
X183212Y122001D01*
X183277Y121971D01*
X183337Y121932D01*
X183388Y121919D01*
X183435Y121897D01*
X183506Y121890D01*
X183576Y121872D01*
X183628Y121876D01*
X183679Y121870D01*
X183750Y121886D01*
X183821Y121891D01*
X183869Y121912D01*
X183920Y121923D01*
X183981Y121959D01*
X184047Y121988D01*
X184103Y122032D01*
X184131Y122049D01*
X184146Y122067D01*
X184178Y122092D01*
X184826Y122740D01*
X186834Y123572D01*
X189006Y123572D01*
X191014Y122740D01*
X192594Y121160D01*
X192601Y121147D01*
X192619Y121130D01*
X192633Y121107D01*
X192708Y121045D01*
X192779Y120978D01*
X192802Y120967D01*
X192822Y120951D01*
X192914Y120915D01*
X193002Y120874D01*
X193028Y120871D01*
X193052Y120862D01*
X193150Y120858D01*
X193246Y120847D01*
X193272Y120853D01*
G37*
%LPC*%
G36*
X309014Y134538D02*
X309014Y134538D01*
X307006Y135370D01*
X305470Y136906D01*
X304638Y138914D01*
X304638Y141086D01*
X305470Y143094D01*
X307030Y144654D01*
X307061Y144673D01*
X307162Y144734D01*
X307166Y144738D01*
X307171Y144742D01*
X307246Y144831D01*
X307322Y144921D01*
X307324Y144926D01*
X307328Y144931D01*
X307370Y145040D01*
X307414Y145149D01*
X307415Y145156D01*
X307416Y145161D01*
X307417Y145179D01*
X307432Y145315D01*
X307432Y163460D01*
X307429Y163480D01*
X307431Y163499D01*
X307409Y163601D01*
X307393Y163703D01*
X307383Y163720D01*
X307379Y163740D01*
X307326Y163829D01*
X307277Y163920D01*
X307263Y163934D01*
X307253Y163951D01*
X307174Y164018D01*
X307099Y164090D01*
X307081Y164098D01*
X307066Y164111D01*
X306970Y164150D01*
X306876Y164193D01*
X306856Y164195D01*
X306838Y164203D01*
X306671Y164221D01*
X304363Y164221D01*
X303321Y165263D01*
X303321Y177737D01*
X304363Y178779D01*
X315837Y178779D01*
X316879Y177737D01*
X316879Y174929D01*
X316882Y174909D01*
X316880Y174890D01*
X316902Y174788D01*
X316918Y174686D01*
X316928Y174669D01*
X316932Y174649D01*
X316985Y174560D01*
X317034Y174469D01*
X317048Y174455D01*
X317058Y174438D01*
X317137Y174371D01*
X317212Y174299D01*
X317230Y174291D01*
X317245Y174278D01*
X317341Y174239D01*
X317435Y174196D01*
X317455Y174194D01*
X317473Y174186D01*
X317640Y174168D01*
X322560Y174168D01*
X322580Y174171D01*
X322599Y174169D01*
X322701Y174191D01*
X322803Y174207D01*
X322820Y174217D01*
X322840Y174221D01*
X322929Y174274D01*
X323020Y174323D01*
X323034Y174337D01*
X323051Y174347D01*
X323118Y174426D01*
X323190Y174501D01*
X323198Y174519D01*
X323211Y174534D01*
X323250Y174630D01*
X323293Y174724D01*
X323295Y174744D01*
X323303Y174762D01*
X323321Y174929D01*
X323321Y177737D01*
X324363Y178779D01*
X335837Y178779D01*
X336879Y177737D01*
X336879Y165263D01*
X335837Y164221D01*
X324363Y164221D01*
X323321Y165263D01*
X323321Y168071D01*
X323318Y168091D01*
X323320Y168110D01*
X323298Y168211D01*
X323282Y168314D01*
X323272Y168331D01*
X323268Y168351D01*
X323215Y168440D01*
X323166Y168531D01*
X323152Y168545D01*
X323142Y168562D01*
X323063Y168629D01*
X322988Y168701D01*
X322970Y168709D01*
X322955Y168722D01*
X322859Y168761D01*
X322765Y168804D01*
X322745Y168806D01*
X322727Y168814D01*
X322560Y168832D01*
X317640Y168832D01*
X317620Y168829D01*
X317601Y168831D01*
X317499Y168809D01*
X317397Y168793D01*
X317380Y168783D01*
X317360Y168779D01*
X317271Y168726D01*
X317180Y168677D01*
X317166Y168663D01*
X317149Y168653D01*
X317082Y168574D01*
X317010Y168499D01*
X317002Y168481D01*
X316989Y168466D01*
X316950Y168370D01*
X316907Y168276D01*
X316905Y168256D01*
X316897Y168238D01*
X316879Y168071D01*
X316879Y165263D01*
X315837Y164221D01*
X313529Y164221D01*
X313509Y164218D01*
X313490Y164220D01*
X313388Y164198D01*
X313286Y164182D01*
X313269Y164172D01*
X313249Y164168D01*
X313160Y164115D01*
X313069Y164066D01*
X313055Y164052D01*
X313038Y164042D01*
X312971Y163963D01*
X312899Y163888D01*
X312891Y163870D01*
X312878Y163855D01*
X312839Y163759D01*
X312796Y163665D01*
X312794Y163645D01*
X312786Y163627D01*
X312768Y163460D01*
X312768Y145315D01*
X312787Y145200D01*
X312804Y145084D01*
X312806Y145079D01*
X312807Y145073D01*
X312862Y144970D01*
X312915Y144865D01*
X312920Y144861D01*
X312923Y144855D01*
X313007Y144775D01*
X313091Y144693D01*
X313097Y144689D01*
X313101Y144686D01*
X313118Y144678D01*
X313181Y144644D01*
X314730Y143094D01*
X315562Y141086D01*
X315562Y138914D01*
X314730Y136906D01*
X313194Y135370D01*
X311186Y134538D01*
X309014Y134538D01*
G37*
%LPD*%
%LPC*%
G36*
X162599Y43999D02*
X162599Y43999D01*
X162599Y44762D01*
X162596Y44782D01*
X162598Y44801D01*
X162576Y44903D01*
X162559Y45005D01*
X162550Y45022D01*
X162546Y45042D01*
X162493Y45131D01*
X162444Y45222D01*
X162430Y45236D01*
X162420Y45253D01*
X162341Y45320D01*
X162266Y45391D01*
X162248Y45400D01*
X162233Y45413D01*
X162137Y45452D01*
X162043Y45495D01*
X162023Y45497D01*
X162005Y45505D01*
X161838Y45523D01*
X154059Y45523D01*
X154059Y55334D01*
X154232Y55981D01*
X154597Y56612D01*
X154640Y56727D01*
X154683Y56839D01*
X154683Y56841D01*
X154684Y56843D01*
X154689Y56966D01*
X154694Y57084D01*
X154693Y57086D01*
X154693Y57088D01*
X154659Y57203D01*
X154625Y57321D01*
X154624Y57322D01*
X154623Y57324D01*
X154554Y57423D01*
X154485Y57523D01*
X154483Y57524D01*
X154482Y57526D01*
X154386Y57596D01*
X154288Y57669D01*
X154286Y57670D01*
X154284Y57671D01*
X154171Y57707D01*
X154054Y57746D01*
X154052Y57746D01*
X154050Y57746D01*
X153931Y57744D01*
X153808Y57743D01*
X153805Y57742D01*
X153804Y57742D01*
X153797Y57740D01*
X153647Y57696D01*
X152499Y57221D01*
X150201Y57221D01*
X148077Y58101D01*
X146451Y59727D01*
X145571Y61851D01*
X145571Y64149D01*
X146451Y66273D01*
X148077Y67899D01*
X150201Y68779D01*
X152499Y68779D01*
X154623Y67899D01*
X156249Y66273D01*
X156572Y65494D01*
X156596Y65455D01*
X156612Y65412D01*
X156660Y65351D01*
X156701Y65285D01*
X156737Y65256D01*
X156765Y65220D01*
X156831Y65178D01*
X156891Y65128D01*
X156934Y65112D01*
X156972Y65087D01*
X157048Y65068D01*
X157120Y65040D01*
X157166Y65038D01*
X157211Y65027D01*
X157288Y65033D01*
X157366Y65030D01*
X157410Y65043D01*
X157456Y65046D01*
X157528Y65077D01*
X157602Y65098D01*
X157640Y65125D01*
X157682Y65143D01*
X157789Y65228D01*
X157804Y65239D01*
X157807Y65243D01*
X157813Y65247D01*
X159426Y66860D01*
X161434Y67692D01*
X163606Y67692D01*
X165614Y66860D01*
X166491Y65983D01*
X166507Y65971D01*
X166520Y65956D01*
X166607Y65900D01*
X166691Y65840D01*
X166710Y65834D01*
X166727Y65823D01*
X166827Y65798D01*
X166926Y65767D01*
X166946Y65768D01*
X166965Y65763D01*
X167068Y65771D01*
X167172Y65774D01*
X167191Y65780D01*
X167210Y65782D01*
X167305Y65822D01*
X167403Y65858D01*
X167418Y65870D01*
X167437Y65878D01*
X167568Y65983D01*
X168363Y66779D01*
X181837Y66779D01*
X182879Y65737D01*
X182879Y56263D01*
X181837Y55221D01*
X171902Y55221D01*
X171882Y55218D01*
X171863Y55220D01*
X171761Y55198D01*
X171659Y55182D01*
X171642Y55172D01*
X171622Y55168D01*
X171533Y55115D01*
X171442Y55066D01*
X171428Y55052D01*
X171411Y55042D01*
X171344Y54963D01*
X171272Y54888D01*
X171264Y54870D01*
X171251Y54855D01*
X171212Y54759D01*
X171169Y54665D01*
X171167Y54645D01*
X171159Y54627D01*
X171141Y54460D01*
X171141Y45523D01*
X163362Y45523D01*
X163342Y45520D01*
X163323Y45522D01*
X163221Y45500D01*
X163119Y45483D01*
X163102Y45474D01*
X163082Y45470D01*
X162993Y45417D01*
X162902Y45368D01*
X162888Y45354D01*
X162871Y45344D01*
X162804Y45265D01*
X162733Y45190D01*
X162724Y45172D01*
X162711Y45157D01*
X162672Y45061D01*
X162629Y44967D01*
X162627Y44947D01*
X162619Y44929D01*
X162601Y44762D01*
X162601Y43999D01*
X162599Y43999D01*
G37*
%LPD*%
%LPC*%
G36*
X264014Y114538D02*
X264014Y114538D01*
X262006Y115370D01*
X260470Y116906D01*
X259638Y118914D01*
X259638Y121086D01*
X260470Y123094D01*
X262030Y124654D01*
X262061Y124673D01*
X262162Y124734D01*
X262166Y124738D01*
X262171Y124742D01*
X262246Y124831D01*
X262322Y124921D01*
X262324Y124926D01*
X262328Y124931D01*
X262370Y125040D01*
X262414Y125149D01*
X262415Y125156D01*
X262416Y125161D01*
X262417Y125179D01*
X262432Y125315D01*
X262432Y154685D01*
X262413Y154800D01*
X262396Y154916D01*
X262394Y154921D01*
X262393Y154927D01*
X262338Y155030D01*
X262285Y155135D01*
X262280Y155139D01*
X262277Y155145D01*
X262193Y155225D01*
X262109Y155307D01*
X262103Y155311D01*
X262099Y155314D01*
X262082Y155322D01*
X262019Y155356D01*
X260470Y156906D01*
X259638Y158914D01*
X259638Y161086D01*
X260470Y163094D01*
X262006Y164630D01*
X264014Y165462D01*
X266186Y165462D01*
X268194Y164630D01*
X269730Y163094D01*
X270562Y161086D01*
X270562Y158914D01*
X269730Y156906D01*
X268170Y155346D01*
X268139Y155327D01*
X268038Y155266D01*
X268034Y155262D01*
X268029Y155258D01*
X267954Y155169D01*
X267878Y155079D01*
X267876Y155074D01*
X267872Y155069D01*
X267830Y154960D01*
X267786Y154851D01*
X267785Y154844D01*
X267784Y154839D01*
X267783Y154821D01*
X267768Y154685D01*
X267768Y125315D01*
X267787Y125200D01*
X267804Y125084D01*
X267806Y125079D01*
X267807Y125073D01*
X267862Y124969D01*
X267915Y124865D01*
X267920Y124861D01*
X267923Y124855D01*
X268007Y124775D01*
X268091Y124693D01*
X268097Y124689D01*
X268101Y124686D01*
X268118Y124678D01*
X268181Y124644D01*
X269730Y123094D01*
X270562Y121086D01*
X270562Y118914D01*
X269730Y116906D01*
X268194Y115370D01*
X266186Y114538D01*
X264014Y114538D01*
G37*
%LPD*%
%LPC*%
G36*
X279363Y61221D02*
X279363Y61221D01*
X278321Y62263D01*
X278321Y64249D01*
X278310Y64320D01*
X278308Y64392D01*
X278290Y64441D01*
X278282Y64492D01*
X278248Y64555D01*
X278223Y64623D01*
X278191Y64663D01*
X278166Y64710D01*
X278114Y64759D01*
X278070Y64815D01*
X278026Y64843D01*
X277988Y64879D01*
X277923Y64909D01*
X277863Y64948D01*
X277812Y64961D01*
X277765Y64983D01*
X277694Y64990D01*
X277624Y65008D01*
X277572Y65004D01*
X277521Y65010D01*
X277450Y64994D01*
X277379Y64989D01*
X277331Y64968D01*
X277280Y64957D01*
X277219Y64921D01*
X277153Y64892D01*
X277097Y64848D01*
X277069Y64831D01*
X277054Y64813D01*
X277022Y64788D01*
X276184Y63950D01*
X274176Y63118D01*
X272004Y63118D01*
X269996Y63950D01*
X268460Y65486D01*
X267628Y67494D01*
X267628Y69666D01*
X268460Y71674D01*
X269996Y73210D01*
X272004Y74042D01*
X274176Y74042D01*
X276184Y73210D01*
X277022Y72372D01*
X277080Y72330D01*
X277132Y72281D01*
X277179Y72259D01*
X277221Y72229D01*
X277290Y72208D01*
X277355Y72177D01*
X277407Y72172D01*
X277457Y72156D01*
X277528Y72158D01*
X277599Y72150D01*
X277650Y72161D01*
X277702Y72163D01*
X277770Y72187D01*
X277840Y72203D01*
X277885Y72229D01*
X277933Y72247D01*
X277989Y72292D01*
X278051Y72329D01*
X278085Y72368D01*
X278125Y72401D01*
X278164Y72461D01*
X278211Y72516D01*
X278230Y72564D01*
X278258Y72608D01*
X278276Y72677D01*
X278303Y72744D01*
X278311Y72815D01*
X278319Y72846D01*
X278317Y72870D01*
X278321Y72911D01*
X278321Y74737D01*
X279363Y75779D01*
X290837Y75779D01*
X291879Y74737D01*
X291879Y62263D01*
X290837Y61221D01*
X279363Y61221D01*
G37*
%LPD*%
%LPC*%
G36*
X174363Y21221D02*
X174363Y21221D01*
X173321Y22263D01*
X173321Y34737D01*
X174363Y35779D01*
X175139Y35779D01*
X175210Y35790D01*
X175282Y35792D01*
X175331Y35810D01*
X175382Y35818D01*
X175446Y35852D01*
X175513Y35877D01*
X175554Y35909D01*
X175600Y35934D01*
X175649Y35986D01*
X175705Y36031D01*
X175733Y36074D01*
X175769Y36112D01*
X175799Y36177D01*
X175838Y36238D01*
X175851Y36288D01*
X175873Y36335D01*
X175880Y36406D01*
X175898Y36476D01*
X175894Y36528D01*
X175900Y36579D01*
X175884Y36650D01*
X175879Y36721D01*
X175858Y36769D01*
X175847Y36820D01*
X175811Y36881D01*
X175782Y36948D01*
X175765Y36969D01*
X174918Y39014D01*
X174918Y41186D01*
X175750Y43194D01*
X177286Y44730D01*
X179294Y45562D01*
X181466Y45562D01*
X183474Y44730D01*
X185010Y43194D01*
X185842Y41186D01*
X185842Y39014D01*
X184997Y36974D01*
X184991Y36968D01*
X184969Y36921D01*
X184939Y36879D01*
X184918Y36810D01*
X184887Y36745D01*
X184882Y36693D01*
X184866Y36644D01*
X184868Y36572D01*
X184860Y36501D01*
X184871Y36450D01*
X184873Y36398D01*
X184897Y36330D01*
X184913Y36260D01*
X184939Y36216D01*
X184957Y36167D01*
X185002Y36111D01*
X185039Y36049D01*
X185078Y36015D01*
X185111Y35975D01*
X185171Y35936D01*
X185226Y35889D01*
X185274Y35870D01*
X185318Y35842D01*
X185387Y35824D01*
X185454Y35797D01*
X185525Y35789D01*
X185556Y35781D01*
X185579Y35783D01*
X185621Y35779D01*
X185837Y35779D01*
X186879Y34737D01*
X186879Y22263D01*
X185837Y21221D01*
X174363Y21221D01*
G37*
%LPD*%
G36*
X461734Y122162D02*
X461734Y122162D01*
X461805Y122167D01*
X461853Y122188D01*
X461904Y122199D01*
X461965Y122236D01*
X462031Y122264D01*
X462087Y122309D01*
X462115Y122325D01*
X462130Y122343D01*
X462162Y122369D01*
X463569Y123775D01*
X466762Y125098D01*
X466862Y125159D01*
X466962Y125219D01*
X466966Y125224D01*
X466971Y125228D01*
X467046Y125317D01*
X467122Y125406D01*
X467124Y125412D01*
X467128Y125417D01*
X467170Y125525D01*
X467214Y125635D01*
X467215Y125642D01*
X467216Y125647D01*
X467217Y125665D01*
X467232Y125801D01*
X467232Y126835D01*
X474629Y134232D01*
X474682Y134306D01*
X474742Y134375D01*
X474754Y134406D01*
X474773Y134432D01*
X474800Y134519D01*
X474834Y134604D01*
X474838Y134645D01*
X474845Y134667D01*
X474844Y134699D01*
X474852Y134770D01*
X474852Y143360D01*
X474838Y143450D01*
X474830Y143541D01*
X474818Y143570D01*
X474813Y143602D01*
X474770Y143683D01*
X474734Y143767D01*
X474708Y143799D01*
X474697Y143820D01*
X474674Y143842D01*
X474629Y143898D01*
X471418Y147109D01*
X471344Y147162D01*
X471275Y147222D01*
X471244Y147234D01*
X471218Y147253D01*
X471131Y147280D01*
X471046Y147314D01*
X471005Y147318D01*
X470983Y147325D01*
X470951Y147324D01*
X470880Y147332D01*
X461624Y147332D01*
X461604Y147329D01*
X461585Y147331D01*
X461483Y147309D01*
X461381Y147293D01*
X461364Y147283D01*
X461344Y147279D01*
X461255Y147226D01*
X461164Y147177D01*
X461150Y147163D01*
X461133Y147153D01*
X461066Y147074D01*
X460994Y146999D01*
X460986Y146981D01*
X460973Y146966D01*
X460934Y146870D01*
X460891Y146776D01*
X460889Y146756D01*
X460881Y146738D01*
X460863Y146571D01*
X460863Y122907D01*
X460874Y122836D01*
X460876Y122764D01*
X460894Y122715D01*
X460902Y122664D01*
X460936Y122601D01*
X460961Y122533D01*
X460993Y122493D01*
X461018Y122447D01*
X461070Y122397D01*
X461114Y122341D01*
X461158Y122313D01*
X461196Y122277D01*
X461261Y122247D01*
X461321Y122208D01*
X461372Y122196D01*
X461419Y122174D01*
X461490Y122166D01*
X461560Y122148D01*
X461612Y122152D01*
X461663Y122147D01*
X461734Y122162D01*
G37*
%LPC*%
G36*
X434683Y203461D02*
X434683Y203461D01*
X433641Y204503D01*
X433641Y213597D01*
X434683Y214639D01*
X451397Y214639D01*
X452439Y213597D01*
X452439Y204503D01*
X451397Y203461D01*
X434683Y203461D01*
G37*
%LPD*%
%LPC*%
G36*
X133252Y33221D02*
X133252Y33221D01*
X130760Y34253D01*
X128853Y36160D01*
X127821Y38652D01*
X127821Y41348D01*
X128853Y43840D01*
X130760Y45747D01*
X133252Y46779D01*
X135948Y46779D01*
X138440Y45747D01*
X140347Y43840D01*
X141379Y41348D01*
X141379Y38652D01*
X140347Y36160D01*
X138440Y34253D01*
X135948Y33221D01*
X133252Y33221D01*
G37*
%LPD*%
%LPC*%
G36*
X53252Y33221D02*
X53252Y33221D01*
X50760Y34253D01*
X48853Y36160D01*
X47821Y38652D01*
X47821Y41348D01*
X48853Y43840D01*
X50760Y45747D01*
X53252Y46779D01*
X55948Y46779D01*
X58440Y45747D01*
X60347Y43840D01*
X61379Y41348D01*
X61379Y38652D01*
X60347Y36160D01*
X58440Y34253D01*
X55948Y33221D01*
X53252Y33221D01*
G37*
%LPD*%
%LPC*%
G36*
X336623Y37523D02*
X336623Y37523D01*
X336623Y46541D01*
X344434Y46541D01*
X345081Y46368D01*
X345660Y46033D01*
X346133Y45560D01*
X346468Y44981D01*
X346641Y44334D01*
X346641Y37523D01*
X336623Y37523D01*
G37*
%LPD*%
%LPC*%
G36*
X323559Y37523D02*
X323559Y37523D01*
X323559Y44334D01*
X323732Y44981D01*
X324067Y45560D01*
X324540Y46033D01*
X325119Y46368D01*
X325766Y46541D01*
X333577Y46541D01*
X333577Y37523D01*
X323559Y37523D01*
G37*
%LPD*%
%LPC*%
G36*
X336623Y25459D02*
X336623Y25459D01*
X336623Y34477D01*
X346641Y34477D01*
X346641Y27666D01*
X346468Y27019D01*
X346133Y26440D01*
X345660Y25967D01*
X345081Y25632D01*
X344434Y25459D01*
X336623Y25459D01*
G37*
%LPD*%
%LPC*%
G36*
X325766Y25459D02*
X325766Y25459D01*
X325119Y25632D01*
X324540Y25967D01*
X324067Y26440D01*
X323732Y27019D01*
X323559Y27666D01*
X323559Y34477D01*
X333577Y34477D01*
X333577Y25459D01*
X325766Y25459D01*
G37*
%LPD*%
%LPC*%
G36*
X9123Y45523D02*
X9123Y45523D01*
X9123Y57541D01*
X13934Y57541D01*
X14581Y57368D01*
X15160Y57033D01*
X15633Y56560D01*
X15968Y55981D01*
X16141Y55334D01*
X16141Y45523D01*
X9123Y45523D01*
G37*
%LPD*%
%LPC*%
G36*
X9123Y30459D02*
X9123Y30459D01*
X9123Y42477D01*
X16141Y42477D01*
X16141Y32666D01*
X15968Y32019D01*
X15633Y31440D01*
X15160Y30967D01*
X14581Y30632D01*
X13934Y30459D01*
X9123Y30459D01*
G37*
%LPD*%
%LPC*%
G36*
X164123Y30459D02*
X164123Y30459D01*
X164123Y42477D01*
X171141Y42477D01*
X171141Y32666D01*
X170968Y32019D01*
X170633Y31440D01*
X170160Y30967D01*
X169581Y30632D01*
X168934Y30459D01*
X164123Y30459D01*
G37*
%LPD*%
%LPC*%
G36*
X156266Y30459D02*
X156266Y30459D01*
X155619Y30632D01*
X155040Y30967D01*
X154567Y31440D01*
X154232Y32019D01*
X154059Y32666D01*
X154059Y42477D01*
X161077Y42477D01*
X161077Y30459D01*
X156266Y30459D01*
G37*
%LPD*%
%LPC*%
G36*
X-941Y45523D02*
X-941Y45523D01*
X-941Y55334D01*
X-768Y55981D01*
X-433Y56560D01*
X40Y57033D01*
X619Y57368D01*
X1266Y57541D01*
X6077Y57541D01*
X6077Y45523D01*
X-941Y45523D01*
G37*
%LPD*%
%LPC*%
G36*
X1266Y30459D02*
X1266Y30459D01*
X619Y30632D01*
X40Y30967D01*
X-433Y31440D01*
X-768Y32019D01*
X-941Y32666D01*
X-941Y42477D01*
X6077Y42477D01*
X6077Y30459D01*
X1266Y30459D01*
G37*
%LPD*%
%LPC*%
G36*
X458054Y39623D02*
X458054Y39623D01*
X458255Y40896D01*
X458836Y42683D01*
X459689Y44357D01*
X460794Y45878D01*
X462122Y47206D01*
X463643Y48311D01*
X465317Y49164D01*
X467104Y49745D01*
X468377Y49946D01*
X468377Y39623D01*
X458054Y39623D01*
G37*
%LPD*%
%LPC*%
G36*
X467104Y26455D02*
X467104Y26455D01*
X465317Y27036D01*
X463643Y27889D01*
X462122Y28994D01*
X460794Y30322D01*
X459689Y31843D01*
X458836Y33517D01*
X458255Y35304D01*
X458054Y36577D01*
X468377Y36577D01*
X468377Y26254D01*
X467104Y26455D01*
G37*
%LPD*%
%LPC*%
G36*
X6059Y141523D02*
X6059Y141523D01*
X6059Y147334D01*
X6232Y147981D01*
X6567Y148560D01*
X7040Y149033D01*
X7619Y149368D01*
X8266Y149541D01*
X15077Y149541D01*
X15077Y141523D01*
X6059Y141523D01*
G37*
%LPD*%
%LPC*%
G36*
X18123Y130459D02*
X18123Y130459D01*
X18123Y138477D01*
X27141Y138477D01*
X27141Y132666D01*
X26968Y132019D01*
X26633Y131440D01*
X26160Y130967D01*
X25581Y130632D01*
X24934Y130459D01*
X18123Y130459D01*
G37*
%LPD*%
%LPC*%
G36*
X8266Y130459D02*
X8266Y130459D01*
X7619Y130632D01*
X7040Y130967D01*
X6567Y131440D01*
X6232Y132019D01*
X6059Y132666D01*
X6059Y138477D01*
X15077Y138477D01*
X15077Y130459D01*
X8266Y130459D01*
G37*
%LPD*%
%LPC*%
G36*
X261599Y15299D02*
X261599Y15299D01*
X261599Y26341D01*
X263434Y26341D01*
X264081Y26168D01*
X264660Y25833D01*
X265133Y25360D01*
X265468Y24781D01*
X265641Y24134D01*
X265641Y15299D01*
X261599Y15299D01*
G37*
%LPD*%
%LPC*%
G36*
X388683Y172473D02*
X388683Y172473D01*
X388683Y177301D01*
X395114Y177301D01*
X395761Y177128D01*
X396340Y176793D01*
X396813Y176320D01*
X397148Y175741D01*
X397321Y175094D01*
X397321Y172473D01*
X388683Y172473D01*
G37*
%LPD*%
%LPC*%
G36*
X376999Y172473D02*
X376999Y172473D01*
X376999Y175094D01*
X377172Y175741D01*
X377507Y176320D01*
X377980Y176793D01*
X378559Y177128D01*
X379206Y177301D01*
X385637Y177301D01*
X385637Y172473D01*
X376999Y172473D01*
G37*
%LPD*%
%LPC*%
G36*
X306623Y53023D02*
X306623Y53023D01*
X306623Y59541D01*
X310435Y59541D01*
X311081Y59368D01*
X311660Y59033D01*
X312133Y58560D01*
X312468Y57981D01*
X312641Y57334D01*
X312641Y53023D01*
X306623Y53023D01*
G37*
%LPD*%
%LPC*%
G36*
X286623Y53023D02*
X286623Y53023D01*
X286623Y59541D01*
X290435Y59541D01*
X291081Y59368D01*
X291660Y59033D01*
X292133Y58560D01*
X292468Y57981D01*
X292641Y57334D01*
X292641Y53023D01*
X286623Y53023D01*
G37*
%LPD*%
%LPC*%
G36*
X181623Y13023D02*
X181623Y13023D01*
X181623Y19541D01*
X185435Y19541D01*
X186081Y19368D01*
X186660Y19033D01*
X187133Y18560D01*
X187468Y17981D01*
X187641Y17334D01*
X187641Y13023D01*
X181623Y13023D01*
G37*
%LPD*%
%LPC*%
G36*
X306623Y43459D02*
X306623Y43459D01*
X306623Y49977D01*
X312641Y49977D01*
X312641Y45666D01*
X312468Y45019D01*
X312133Y44440D01*
X311660Y43967D01*
X311081Y43632D01*
X310434Y43459D01*
X306623Y43459D01*
G37*
%LPD*%
%LPC*%
G36*
X286623Y43459D02*
X286623Y43459D01*
X286623Y49977D01*
X292641Y49977D01*
X292641Y45666D01*
X292468Y45019D01*
X292133Y44440D01*
X291660Y43967D01*
X291081Y43632D01*
X290434Y43459D01*
X286623Y43459D01*
G37*
%LPD*%
%LPC*%
G36*
X331623Y180459D02*
X331623Y180459D01*
X331623Y186977D01*
X337641Y186977D01*
X337641Y182666D01*
X337468Y182019D01*
X337133Y181440D01*
X336660Y180967D01*
X336081Y180632D01*
X335434Y180459D01*
X331623Y180459D01*
G37*
%LPD*%
%LPC*%
G36*
X277559Y53023D02*
X277559Y53023D01*
X277559Y57334D01*
X277732Y57981D01*
X278067Y58560D01*
X278540Y59033D01*
X279119Y59368D01*
X279766Y59541D01*
X283577Y59541D01*
X283577Y53023D01*
X277559Y53023D01*
G37*
%LPD*%
%LPC*%
G36*
X297559Y53023D02*
X297559Y53023D01*
X297559Y57334D01*
X297732Y57981D01*
X298067Y58560D01*
X298540Y59033D01*
X299119Y59368D01*
X299766Y59541D01*
X303577Y59541D01*
X303577Y53023D01*
X297559Y53023D01*
G37*
%LPD*%
%LPC*%
G36*
X172559Y13023D02*
X172559Y13023D01*
X172559Y17334D01*
X172732Y17981D01*
X173067Y18560D01*
X173540Y19033D01*
X174119Y19368D01*
X174766Y19541D01*
X178577Y19541D01*
X178577Y13023D01*
X172559Y13023D01*
G37*
%LPD*%
%LPC*%
G36*
X89766Y190459D02*
X89766Y190459D01*
X89119Y190632D01*
X88540Y190967D01*
X88067Y191440D01*
X87732Y192019D01*
X87559Y192666D01*
X87559Y196977D01*
X93577Y196977D01*
X93577Y190459D01*
X89766Y190459D01*
G37*
%LPD*%
%LPC*%
G36*
X299766Y43459D02*
X299766Y43459D01*
X299119Y43632D01*
X298540Y43967D01*
X298067Y44440D01*
X297732Y45019D01*
X297559Y45666D01*
X297559Y49977D01*
X303577Y49977D01*
X303577Y43459D01*
X299766Y43459D01*
G37*
%LPD*%
%LPC*%
G36*
X279766Y43459D02*
X279766Y43459D01*
X279119Y43632D01*
X278540Y43967D01*
X278067Y44440D01*
X277732Y45019D01*
X277559Y45666D01*
X277559Y49977D01*
X283577Y49977D01*
X283577Y43459D01*
X279766Y43459D01*
G37*
%LPD*%
%LPC*%
G36*
X324766Y180459D02*
X324766Y180459D01*
X324119Y180632D01*
X323540Y180967D01*
X323067Y181440D01*
X322732Y182019D01*
X322559Y182666D01*
X322559Y186977D01*
X328577Y186977D01*
X328577Y180459D01*
X324766Y180459D01*
G37*
%LPD*%
%LPC*%
G36*
X366623Y42523D02*
X366623Y42523D01*
X366623Y47541D01*
X371434Y47541D01*
X372081Y47368D01*
X372660Y47033D01*
X373133Y46560D01*
X373468Y45981D01*
X373641Y45334D01*
X373641Y42523D01*
X366623Y42523D01*
G37*
%LPD*%
%LPC*%
G36*
X356559Y42523D02*
X356559Y42523D01*
X356559Y45334D01*
X356732Y45981D01*
X357067Y46560D01*
X357540Y47033D01*
X358119Y47368D01*
X358766Y47541D01*
X363577Y47541D01*
X363577Y42523D01*
X356559Y42523D01*
G37*
%LPD*%
%LPC*%
G36*
X366623Y34459D02*
X366623Y34459D01*
X366623Y39477D01*
X373641Y39477D01*
X373641Y36666D01*
X373468Y36019D01*
X373133Y35440D01*
X372660Y34967D01*
X372081Y34632D01*
X371434Y34459D01*
X366623Y34459D01*
G37*
%LPD*%
%LPC*%
G36*
X358766Y34459D02*
X358766Y34459D01*
X358119Y34632D01*
X357540Y34967D01*
X357067Y35440D01*
X356732Y36019D01*
X356559Y36666D01*
X356559Y39477D01*
X363577Y39477D01*
X363577Y34459D01*
X358766Y34459D01*
G37*
%LPD*%
%LPC*%
G36*
X113559Y177261D02*
X113559Y177261D01*
X113559Y180834D01*
X113732Y181481D01*
X114067Y182060D01*
X114540Y182533D01*
X115119Y182868D01*
X115766Y183041D01*
X116839Y183041D01*
X116839Y177261D01*
X113559Y177261D01*
G37*
%LPD*%
%LPC*%
G36*
X115766Y169959D02*
X115766Y169959D01*
X115119Y170132D01*
X114540Y170467D01*
X114067Y170940D01*
X113732Y171519D01*
X113559Y172166D01*
X113559Y175739D01*
X116839Y175739D01*
X116839Y169959D01*
X115766Y169959D01*
G37*
%LPD*%
%LPC*%
G36*
X305099Y51499D02*
X305099Y51499D01*
X305099Y51501D01*
X305101Y51501D01*
X305101Y51499D01*
X305099Y51499D01*
G37*
%LPD*%
%LPC*%
G36*
X285099Y51499D02*
X285099Y51499D01*
X285099Y51501D01*
X285101Y51501D01*
X285101Y51499D01*
X285099Y51499D01*
G37*
%LPD*%
%LPC*%
G36*
X16599Y139999D02*
X16599Y139999D01*
X16599Y140001D01*
X16601Y140001D01*
X16601Y139999D01*
X16599Y139999D01*
G37*
%LPD*%
%LPC*%
G36*
X365099Y40999D02*
X365099Y40999D01*
X365099Y41001D01*
X365101Y41001D01*
X365101Y40999D01*
X365099Y40999D01*
G37*
%LPD*%
%LPC*%
G36*
X335099Y35999D02*
X335099Y35999D01*
X335099Y36001D01*
X335101Y36001D01*
X335101Y35999D01*
X335099Y35999D01*
G37*
%LPD*%
%LPC*%
G36*
X7599Y43999D02*
X7599Y43999D01*
X7599Y44001D01*
X7601Y44001D01*
X7601Y43999D01*
X7599Y43999D01*
G37*
%LPD*%
D10*
X458117Y11359D02*
X455405Y5936D01*
X452694Y11359D01*
X448762Y11359D02*
X446050Y14071D01*
X446050Y5936D01*
X448762Y5936D02*
X443338Y5936D01*
X439406Y12715D02*
X438051Y14071D01*
X435339Y14071D01*
X433983Y12715D01*
X433983Y11359D01*
X435339Y10003D01*
X433983Y8648D01*
X433983Y7292D01*
X435339Y5936D01*
X438051Y5936D01*
X439406Y7292D01*
X439406Y8648D01*
X438051Y10003D01*
X439406Y11359D01*
X439406Y12715D01*
X438051Y10003D02*
X435339Y10003D01*
D11*
X365100Y59000D03*
X365100Y41000D03*
X175100Y119000D03*
X175100Y101000D03*
X175100Y61000D03*
X175100Y79000D03*
D12*
X285100Y68500D03*
X285100Y51500D03*
D13*
X335100Y64000D03*
X335100Y36000D03*
D12*
X305100Y51500D03*
X305100Y68500D03*
X180100Y28500D03*
X180100Y11500D03*
X290100Y171500D03*
X290100Y188500D03*
X330100Y171500D03*
X330100Y188500D03*
X310100Y188500D03*
X310100Y171500D03*
D14*
X100Y210000D03*
X470100Y10000D03*
D12*
X95100Y181500D03*
X95100Y198500D03*
D15*
X43600Y160000D03*
X26600Y160000D03*
D16*
X53100Y190000D03*
X17100Y190000D03*
D12*
X75100Y181500D03*
X75100Y198500D03*
D17*
X117600Y176500D03*
X122600Y176500D03*
D18*
X107600Y201500D03*
X182600Y201500D03*
D17*
X127600Y176500D03*
X132600Y176500D03*
X137600Y176500D03*
X142600Y176500D03*
X147600Y176500D03*
X152600Y176500D03*
X157600Y176500D03*
X162600Y176500D03*
X167600Y176500D03*
X172600Y176500D03*
D19*
X417600Y122500D03*
X412600Y122500D03*
X412600Y137500D03*
X417600Y137500D03*
D20*
X422600Y137500D03*
X422600Y132500D03*
X422600Y122500D03*
X422600Y127500D03*
X407600Y122500D03*
X407600Y127500D03*
X407600Y132500D03*
X407600Y137500D03*
D12*
X445100Y121500D03*
X445100Y138500D03*
X385100Y121500D03*
X385100Y138500D03*
D21*
X387160Y170950D03*
X443040Y170950D03*
X387160Y209050D03*
X443040Y209050D03*
D22*
X84600Y145000D03*
X73600Y145000D03*
X62600Y145000D03*
X95600Y145000D03*
X106600Y145000D03*
X117600Y145000D03*
X128600Y145000D03*
X139600Y145000D03*
X150600Y145000D03*
D23*
X7600Y44000D03*
X162600Y44000D03*
D24*
X16600Y140000D03*
D25*
X162600Y139000D03*
D26*
X210100Y13800D03*
X220100Y13800D03*
X230100Y13800D03*
X240100Y13800D03*
X250100Y13800D03*
X260100Y13800D03*
D27*
X469900Y38100D03*
X469900Y63500D03*
X469900Y88900D03*
X469900Y114300D03*
D28*
X19100Y26000D03*
X194100Y11000D03*
X285100Y120000D03*
X355100Y20000D03*
X365100Y140000D03*
X470260Y140000D03*
X118100Y130000D03*
X20100Y120000D03*
X345100Y87000D03*
X150100Y129000D03*
X107100Y173000D03*
X296100Y80000D03*
X163590Y25140D03*
D29*
X445100Y138500D02*
X468760Y138500D01*
X470260Y140000D01*
X417600Y122500D02*
X417600Y91440D01*
X417600Y90440D01*
X417870Y90170D01*
X412600Y96440D02*
X412600Y122500D01*
X412600Y96440D02*
X415830Y93210D01*
X417600Y91440D01*
X407600Y92820D02*
X407600Y122500D01*
X407600Y92820D02*
X407710Y92710D01*
X415330Y92710D01*
X415830Y93210D01*
X407600Y127500D02*
X400590Y127500D01*
X397550Y124460D01*
X397550Y91440D01*
X385100Y138500D02*
X366600Y138500D01*
X365100Y140000D01*
D28*
X334100Y18000D03*
X305100Y36000D03*
X285100Y36000D03*
X261100Y35000D03*
X185100Y70000D03*
X241100Y68000D03*
X241100Y201000D03*
X399140Y89200D03*
X185660Y137890D03*
D29*
X335100Y90000D02*
X335100Y64000D01*
X335100Y90000D02*
X304100Y121000D01*
D28*
X304100Y121000D03*
D29*
X305100Y106900D02*
X305100Y68500D01*
X305100Y106900D02*
X297000Y115000D01*
D28*
X297000Y115000D03*
X310100Y140000D03*
D29*
X310100Y171500D01*
X330100Y171500D01*
X175100Y79000D02*
X174840Y78740D01*
X162520Y78740D01*
D28*
X162520Y78740D03*
D29*
X175100Y119000D02*
X175100Y129420D01*
X175220Y129540D01*
D28*
X175220Y129540D03*
X315100Y120000D03*
D29*
X325100Y120000D01*
X365100Y80000D01*
X365100Y59000D01*
X290100Y171500D02*
X277600Y171500D01*
X277100Y171000D01*
D28*
X277100Y171000D03*
X230100Y170000D03*
D29*
X230100Y121000D01*
D28*
X230100Y121000D03*
D29*
X175100Y61000D02*
X163750Y61000D01*
X162520Y62230D01*
D28*
X162520Y62230D03*
X187920Y118110D03*
D29*
X187920Y104140D01*
X184780Y101000D02*
X175100Y101000D01*
X184780Y101000D02*
X187920Y104140D01*
X422600Y127500D02*
X439100Y127500D01*
X445100Y121500D01*
X422600Y127500D02*
X422600Y132500D01*
X407600Y132500D01*
X407600Y137500D01*
X407600Y132500D02*
X396100Y132500D01*
X385100Y121500D01*
D28*
X199430Y121920D03*
D30*
X199430Y182880D01*
D28*
X199430Y182880D03*
X133390Y189230D03*
D30*
X132600Y185420D02*
X132600Y176500D01*
X132600Y185420D02*
X132600Y188440D01*
X133390Y189230D01*
X132600Y185420D02*
X129580Y185420D01*
X127600Y183440D01*
X127600Y176500D01*
X26600Y160000D02*
X26600Y152510D01*
X50840Y128270D01*
X95290Y128270D01*
D28*
X95290Y128270D03*
X85130Y170462D03*
D30*
X85130Y180340D01*
X86290Y181500D02*
X95100Y181500D01*
X86290Y181500D02*
X85130Y180340D01*
X95600Y145000D02*
X95290Y144690D01*
X95290Y128270D01*
X290100Y188500D02*
X310100Y188500D01*
X290100Y188500D02*
X282520Y188500D01*
X276900Y182880D01*
D28*
X276900Y182880D03*
D30*
X273170Y68500D02*
X285100Y68500D01*
X273170Y68500D02*
X273090Y68580D01*
D28*
X273090Y68580D03*
X180380Y40100D03*
D30*
X180100Y39820D01*
X180100Y28500D01*
X359870Y121500D02*
X385100Y121500D01*
X359870Y121500D02*
X348020Y133350D01*
X348020Y194310D02*
X342940Y199390D01*
X312460Y199390D01*
X348020Y194310D02*
X348020Y133350D01*
X310100Y197030D02*
X312460Y199390D01*
X310100Y197030D02*
X310100Y188500D01*
D29*
X410210Y63500D02*
X469900Y63500D01*
X410210Y63500D02*
X384810Y88900D01*
X384810Y121210D01*
X385100Y121500D01*
X137600Y169168D02*
X137600Y176500D01*
X137600Y169168D02*
X136100Y167668D01*
X127681Y167668D01*
X124125Y164112D01*
X73600Y152400D02*
X73600Y145000D01*
X53280Y160000D02*
X43600Y160000D01*
X73620Y164112D02*
X124125Y164112D01*
X73620Y164112D02*
X57392Y164112D01*
X53280Y160000D01*
X73600Y152400D02*
X73620Y152420D01*
X73620Y164112D01*
X147600Y163056D02*
X147600Y176500D01*
X147600Y163056D02*
X145100Y160556D01*
X130627Y160556D01*
X127071Y157000D01*
X106600Y154500D02*
X106600Y145000D01*
X109100Y157000D02*
X127071Y157000D01*
X109100Y157000D02*
X106600Y154500D01*
X152600Y158500D02*
X152600Y176500D01*
X152600Y158500D02*
X151100Y157000D01*
X128600Y153500D02*
X128600Y145000D01*
X132100Y157000D02*
X151100Y157000D01*
X132100Y157000D02*
X128600Y153500D01*
X142600Y166612D02*
X142600Y176500D01*
X142600Y166612D02*
X140100Y164112D01*
X129154Y164112D01*
X125598Y160556D01*
X84600Y156500D02*
X84600Y145000D01*
X88656Y160556D02*
X125598Y160556D01*
X88656Y160556D02*
X84600Y156500D01*
X75100Y181500D02*
X61600Y181500D01*
X53100Y190000D01*
X17100Y190000D02*
X17100Y202000D01*
X25100Y210000D01*
D28*
X25100Y210000D03*
X165100Y200000D03*
D29*
X167600Y197500D02*
X167600Y176500D01*
X167600Y197500D02*
X165100Y200000D01*
X222600Y192500D02*
X222600Y115000D01*
X222600Y192500D02*
X215100Y200000D01*
D28*
X215100Y200000D03*
D29*
X220100Y112500D02*
X220100Y13800D01*
X220100Y112500D02*
X222600Y115000D01*
D28*
X178100Y150000D03*
D29*
X157600Y154500D02*
X157600Y176500D01*
X157600Y154500D02*
X162100Y150000D01*
X178100Y150000D01*
D28*
X245000Y120000D03*
D29*
X245000Y150000D01*
D28*
X245000Y150000D03*
X425100Y150000D03*
D29*
X422600Y147500D02*
X422600Y137500D01*
X422600Y147500D02*
X425100Y150000D01*
X469900Y125730D02*
X469900Y114300D01*
X469900Y125730D02*
X477520Y133350D01*
X477520Y144780D01*
X472300Y150000D02*
X425100Y150000D01*
X472300Y150000D02*
X477520Y144780D01*
X162600Y162500D02*
X162600Y176500D01*
X162600Y162500D02*
X165100Y160000D01*
D28*
X165100Y160000D03*
X265100Y120000D03*
D29*
X265100Y160000D01*
D28*
X265100Y160000D03*
X424100Y109000D03*
D29*
X422600Y110500D02*
X422600Y122500D01*
X422600Y110500D02*
X424030Y109070D01*
X424100Y109000D01*
X429260Y88900D02*
X469900Y88900D01*
X429260Y88900D02*
X424030Y94130D01*
X424030Y109070D01*
X252600Y115000D02*
X252600Y187500D01*
X255100Y190000D01*
X271450Y206350D01*
X361450Y206350D01*
X364150Y209050D01*
X122600Y198890D02*
X122600Y176500D01*
X122600Y198890D02*
X122560Y198890D01*
D28*
X122560Y198890D03*
X255100Y190000D03*
D29*
X250100Y112500D02*
X250100Y13800D01*
X250100Y112500D02*
X252600Y115000D01*
X364150Y209050D02*
X387160Y209050D01*
X172600Y190000D02*
X172600Y176500D01*
X172600Y190000D02*
X172600Y202500D01*
X165100Y210000D01*
X79100Y210000D02*
X75100Y206000D01*
X75100Y198500D01*
X79100Y210000D02*
X165100Y210000D01*
X207600Y187500D02*
X207600Y115000D01*
X207600Y187500D02*
X205100Y190000D01*
X172600Y190000D01*
X210100Y112500D02*
X210100Y13800D01*
X210100Y112500D02*
X207600Y115000D01*
X399796Y145288D02*
X406400Y145288D01*
X399796Y145288D02*
X399796Y139700D01*
X427228Y114808D02*
X430276Y114808D01*
X430276Y120650D01*
M02*
