M48
;GenerationSoftware,Autodesk,EAGLE,9.6.2*%
;CreationDate,2023-08-25T19:09:06Z*%
FMAT,2
ICI,OFF
METRIC,TZ,000.000
T4C0.200
T3C0.508
T2C0.950
T1C1.016
%
G90
M71
T1
X114457Y53908
X27750Y7000
X30290Y7000
X38020Y10000
X35480Y10000
X54450Y10400
X56990Y10400
X27750Y50508
X116997Y53908
X98027Y140523
X87757Y50508
X90297Y50508
X98027Y53508
X95487Y53508
X95487Y140523
X30290Y50508
X38020Y53508
X35480Y53508
X87757Y7000
X90297Y7000
X98027Y10000
X95487Y10000
X114457Y10400
X116997Y10400
X114457Y140923
X54450Y53908
X56990Y53908
X116997Y140923
X27750Y94015
X30290Y94015
X38020Y97015
X35480Y97015
X54450Y97415
X56990Y97415
X87757Y94015
X90297Y94015
X98027Y97015
X95487Y97015
X114457Y97415
X116997Y97415
X27750Y137523
X30290Y137523
X38020Y140523
X35480Y140523
X54450Y140923
X56990Y140923
X87757Y137523
X90297Y137523
T2
X111757Y49508
X51750Y6000
X111757Y6000
X51750Y49508
X51750Y93015
X111757Y93015
X51750Y136523
X111757Y136523
T3
X2115Y63778
X2115Y65048
X2115Y59968
X63392Y61238
X63392Y62508
X63392Y63778
X63392Y65048
X63392Y59968
X62122Y61238
X62122Y62508
X62122Y63778
X62122Y65048
X62122Y59968
X62122Y146983
X3385Y17730
X3385Y19000
X3385Y20270
X3385Y21540
X3385Y16460
X2115Y17730
X3385Y104745
X3385Y106015
X3385Y107285
X3385Y108555
X3385Y103475
X2115Y104745
X2115Y106015
X2115Y107285
X2115Y108555
X2115Y103475
X2115Y19000
X2115Y20270
X2115Y21540
X2115Y16460
X63392Y17730
X63392Y19000
X63392Y20270
X63392Y104745
X63392Y106015
X63392Y107285
X63392Y108555
X63392Y103475
X62122Y104745
X62122Y106015
X62122Y107285
X62122Y108555
X62122Y103475
X63392Y21540
X63392Y16460
X62122Y17730
X62122Y19000
X62122Y20270
X62122Y21540
X62122Y16460
X3385Y148253
X3385Y149523
X3385Y150793
X3385Y152063
X3385Y146983
X2115Y148253
X2115Y149523
X2115Y150793
X2115Y152063
X2115Y146983
X3385Y61238
X3385Y62508
X3385Y63778
X3385Y65048
X3385Y59968
X2115Y61238
X2115Y62508
X63392Y148253
X63392Y149523
X63392Y150793
X63392Y152063
X63392Y146983
X62122Y148253
X62122Y149523
X62122Y150793
X62122Y152063
T4
X47950Y25800
X45850Y25800
X43750Y25800
X41650Y25800
X39550Y25800
X37450Y25800
X35250Y25800
X52250Y25800
X50050Y24800
X47950Y24800
X45850Y24800
X43750Y24800
X41650Y24800
X39550Y24800
X37450Y24800
X35250Y24800
X52250Y24800
X50050Y23800
X47950Y23800
X45850Y23800
X43750Y23800
X41650Y23800
X39550Y23800
X37450Y23800
X35250Y23800
X52250Y23800
X50050Y22800
X47950Y22800
X45850Y22800
X43750Y22800
X41650Y22800
X39550Y22800
X37450Y22800
X35250Y22800
X52250Y22800
X50050Y21800
X47950Y21800
X45850Y21800
X43750Y21800
X41650Y21800
X39550Y21800
X37450Y21800
X35250Y21800
X52250Y21800
X47950Y20800
X37450Y20800
X35250Y20800
X50050Y18800
X47950Y18800
X39550Y18800
X37450Y18800
X35250Y18800
X52250Y18800
X47950Y31300
X37450Y31300
X35250Y31300
X34250Y17400
X35750Y17400
X51750Y17500
X52750Y17500
X53750Y17500
X35250Y32800
X34250Y32800
X33250Y32800
X54250Y32800
X42950Y37600
X43250Y35600
X54750Y34600
X49418Y33965
X57250Y37600
X53950Y37600
X54750Y36600
X54250Y35600
X57250Y35600
X38750Y11800
X35750Y4000
X34750Y4000
X36750Y4000
X33750Y4000
X33750Y3000
X33750Y2400
X45675Y41321
X48718Y41321
X33750Y35000
X32858Y34800
X17250Y39000
X43740Y28829
X43740Y29845
X49418Y34981
X49872Y37086
X52720Y37013
X52190Y37700
X50390Y37700
X48910Y38918
X45608Y39045
X47259Y42347
X49799Y42220
X50688Y41331
X50942Y40823
X52085Y40696
X52847Y39299
X52212Y39045
X52212Y38283
X52853Y33568
X53361Y34203
X53742Y34838
X53361Y35473
X52726Y35854
X49545Y35616
X44846Y39299
X44592Y40696
X45100Y40950
X45608Y42347
X48783Y42220
X51290Y34200
X52690Y34200
X47090Y33900
X46990Y31300
X52090Y30600
X54990Y25000
X47190Y36000
X49592Y36646
X52512Y36486
X51250Y35560
X9850Y10581
X9850Y15600
X56550Y16041
X24050Y37300
X37550Y37500
X23750Y27700
X9650Y27700
X20250Y27700
X45059Y16300
X41050Y15819
X17350Y37500
X17550Y27100
X12650Y15200
X12650Y27100
X56850Y15300
X21750Y37500
X22050Y34800
X12650Y10500
X37000Y37550
X49750Y14300
X41450Y14022
X20950Y29200
X20950Y40300
X56750Y40117
X30726Y24800
X30650Y39300
X30150Y39100
X30397Y27000
X36504Y34300
X31409Y34359
X31450Y1822
X5350Y12000
X6750Y38100
X24450Y34000
X20250Y34000
X22750Y30000
X20450Y29546
X21950Y22800
X23350Y16200
X6650Y15800
X6650Y22500
X23650Y10600
X23250Y16800
X21950Y20900
X23150Y20300
X15850Y20800
X15750Y27200
X31067Y19500
X31050Y36459
X39323Y36881
X39031Y36500
X7991Y35191
X9609Y18208
X22950Y12000
X18350Y11992
X20650Y30700
X7550Y36500
X38558Y37262
X9609Y16881
X39050Y34900
X6650Y34800
X9777Y9281
X24050Y14941
X4750Y14400
X50750Y12000
X25750Y32413
X26850Y9954
X32850Y6600
X4850Y4250
X6650Y8400
X6650Y21500
X55250Y8000
X5750Y8000
X6250Y20100
X55850Y7700
X16450Y39700
X57650Y39600
X56800Y33800
X20291Y34859
X19750Y34900
X22250Y21500
X5420Y21000
X20550Y23300
X4950Y22900
X8750Y32000
X5124Y33008
X4850Y29000
X9050Y34000
X3150Y31000
X2850Y37500
X41050Y38000
X6750Y33000
X7450Y6500
X37750Y1000
X7750Y26000
X32123Y25100
X26709Y26000
X10450Y39500
X10307Y26000
X8650Y38000
X36050Y38300
X36050Y34900
X12550Y38270
X27050Y21800
X27109Y28700
X22750Y18700
X23253Y23100
X30750Y9100
X15250Y34628
X18950Y34500
X23850Y24941
X20350Y31100
X18750Y27300
X12850Y31000
X13301Y24341
X16250Y27300
X16250Y24341
X18750Y24341
X2600Y14000
X25950Y32900
X26850Y10627
X48750Y12100
X24750Y34400
X15750Y34800
X24550Y35100
X16250Y35200
X13250Y30400
X13250Y31600
X28150Y24800
X12209Y23700
X12250Y19400
X29504Y36459
X28891Y14570
X29050Y36459
X8050Y36500
X9482Y19508
X27450Y36459
X27550Y16200
X28550Y36459
X28550Y11900
X28050Y36459
X28050Y18200
X30050Y36459
X9050Y36930
X9609Y22800
X44569Y38508
X23150Y29600
X32564Y39183
X32664Y29654
X44250Y38000
X22200Y30350
X32056Y38900
X32350Y30022
X52170Y33560
X52100Y33950
X52180Y33180
X82858Y28200
X91673Y33300
X81702Y37044
X74758Y9500
X80558Y10000
X91461Y34841
X101207Y18715
X105779Y33528
X108192Y34163
X101207Y34344
X107176Y16129
X96657Y18588
X68758Y31000
X70758Y28100
X75758Y30000
X76758Y30000
X76758Y31000
X75758Y31000
X72658Y33800
X72658Y34400
X69058Y36400
X71758Y39400
X79858Y38700
X83558Y37300
X87058Y33000
X85558Y31800
X88257Y30000
X81958Y27200
X67758Y29000
X63257Y35300
X65057Y34600
X66658Y7500
X69858Y7600
X83758Y8000
X84358Y7100
X88757Y10400
X89757Y16000
X91757Y16000
X92757Y11500
X96757Y14800
X98557Y14800
X101757Y12000
X103757Y12000
X106757Y12000
X108957Y9400
X111757Y12000
X108757Y5000
X102757Y5000
X97757Y6000
X94757Y1000
X75358Y13100
X75358Y14900
X76358Y14900
X76443Y13462
X77840Y13462
X80158Y17100
X77758Y17200
X76458Y17200
X75258Y17200
X90157Y21700
X105555Y38402
X108725Y38021
X110857Y33600
X111497Y33600
X113757Y33600
X114757Y33600
X114757Y32300
X101595Y33854
X99957Y33600
X98457Y33600
X96757Y33600
X95457Y33600
X93757Y33600
X92897Y33500
X95197Y32135
X91668Y31840
X92403Y27865
X92757Y17700
X92957Y16700
X94257Y16400
X95757Y16400
X96757Y16300
X97757Y16300
X98757Y16300
X110857Y16400
X111757Y16500
X112757Y16500
X113757Y16500
X114757Y16500
X114757Y17400
X107957Y19800
X97457Y19800
X95257Y19800
X110057Y30700
X107957Y30700
X105857Y30700
X103757Y30700
X101657Y30700
X99557Y30700
X97457Y30700
X95257Y30700
X110057Y29800
X107957Y29800
X105857Y29800
X101657Y29800
X99557Y29800
X97457Y29800
X95257Y29800
X112257Y29800
X110057Y28800
X107957Y28800
X105857Y28800
X101657Y28800
X99557Y28800
X97457Y28800
X95257Y28800
X112257Y28800
X110057Y27800
X107957Y27800
X105857Y27800
X103757Y27800
X101657Y27800
X99557Y27800
X97457Y27800
X95257Y27800
X112257Y27800
X110057Y26800
X107957Y26800
X105857Y26800
X103757Y26800
X101657Y26800
X99557Y26800
X97457Y26800
X95257Y26800
X112257Y26800
X110057Y25800
X107957Y25800
X105857Y25800
X103757Y25800
X101657Y25800
X99557Y25800
X97457Y25800
X95257Y25800
X112257Y25800
X110057Y24800
X107957Y24800
X105857Y24800
X103757Y24800
X101657Y24800
X99557Y24800
X97457Y24800
X95257Y24800
X112257Y24800
X110057Y23800
X107957Y23800
X105857Y23800
X103757Y23800
X101657Y23800
X99557Y23800
X97457Y23800
X95257Y23800
X112257Y23800
X110057Y22800
X107957Y22800
X105857Y22800
X103757Y22800
X101657Y22800
X99557Y22800
X97457Y22800
X95257Y22800
X112257Y22800
X110057Y21800
X107957Y21800
X105857Y21800
X103757Y21800
X101657Y21800
X99557Y21800
X97457Y21800
X95257Y21800
X112257Y21800
X107957Y20800
X97457Y20800
X95257Y20800
X110057Y18800
X107957Y18800
X99557Y18800
X97457Y18800
X95257Y18800
X112257Y18800
X107957Y31300
X97457Y31300
X95257Y31300
X94257Y17400
X95757Y17400
X111757Y17500
X112757Y17500
X113757Y17500
X95257Y32800
X94257Y32800
X93257Y32800
X114257Y32800
X102957Y37600
X103257Y35600
X114757Y34600
X109425Y33965
X117257Y37600
X113957Y37600
X114757Y36600
X114257Y35600
X117257Y35600
X98757Y11800
X95757Y4000
X94757Y4000
X96757Y4000
X93757Y4000
X93757Y3000
X93757Y2400
X105682Y41321
X108725Y41321
X93757Y35000
X92865Y34800
X77258Y39000
X103747Y28829
X103747Y29845
X109425Y34981
X109879Y37086
X112727Y37013
X112197Y37700
X110397Y37700
X108917Y38918
X105615Y39045
X107266Y42347
X109806Y42220
X110695Y41331
X110949Y40823
X112092Y40696
X112854Y39299
X112219Y39045
X112219Y38283
X112860Y33568
X113368Y34203
X113749Y34838
X113368Y35473
X112733Y35854
X109552Y35616
X104853Y39299
X104599Y40696
X105107Y40950
X105615Y42347
X108790Y42220
X111297Y34200
X112697Y34200
X107097Y33900
X106997Y31300
X112097Y30600
X114997Y25000
X107197Y36000
X109599Y36646
X112519Y36486
X111257Y35560
X69858Y10581
X69858Y15600
X116557Y16041
X84058Y37300
X97557Y37500
X83758Y27700
X69658Y27700
X80258Y27700
X105066Y16300
X101057Y15819
X77358Y37500
X77558Y27100
X72658Y15200
X72658Y27100
X116857Y15300
X81758Y37500
X82058Y34800
X72658Y10500
X97007Y37550
X109757Y14300
X101457Y14022
X80958Y29200
X80958Y40300
X116757Y40117
X90734Y24800
X90657Y39300
X90157Y39100
X90405Y27000
X96511Y34300
X91416Y34359
X91457Y1822
X65357Y12000
X66758Y38100
X84458Y34000
X80258Y34000
X82758Y30000
X80458Y29546
X81958Y22800
X83358Y16200
X66658Y15800
X66658Y22500
X83658Y10600
X83258Y16800
X81958Y20900
X83158Y20300
X75858Y20800
X75758Y27200
X91075Y19500
X91057Y36459
X99330Y36881
X99038Y36500
X67999Y35191
X69616Y18208
X82958Y12000
X78358Y11992
X80658Y30700
X67558Y36500
X98565Y37262
X69616Y16881
X99057Y34900
X66658Y34800
X69785Y9281
X84058Y14941
X64757Y14400
X110757Y12000
X85758Y32413
X86858Y9954
X92857Y6600
X64857Y4250
X66658Y8400
X66658Y21500
X115257Y8000
X65758Y8000
X66258Y20100
X115857Y7700
X76458Y39700
X117657Y39600
X116807Y33800
X80299Y34859
X79758Y34900
X82258Y21500
X65427Y21000
X80558Y23300
X64957Y22900
X68758Y32000
X65131Y33008
X64857Y29000
X69058Y34000
X63157Y31000
X62857Y37500
X101057Y38000
X66758Y33000
X67458Y6500
X97757Y1000
X67758Y26000
X92130Y25100
X86716Y26000
X70458Y39500
X70315Y26000
X68658Y38000
X96057Y38300
X96057Y34900
X72558Y38270
X87058Y21800
X87116Y28700
X82758Y18700
X83260Y23100
X90757Y9100
X75258Y34628
X78958Y34500
X83858Y24941
X80358Y31100
X78758Y27300
X72858Y31000
X73309Y24341
X76258Y27300
X76258Y24341
X78758Y24341
X62607Y14000
X85958Y32900
X86858Y10627
X108757Y12100
X84758Y34400
X75758Y34800
X84558Y35100
X76258Y35200
X73258Y30400
X73258Y31600
X88157Y24800
X72216Y23700
X72258Y19400
X89511Y36459
X88899Y14570
X89057Y36459
X68058Y36500
X69489Y19508
X87457Y36459
X87557Y16200
X88557Y36459
X88557Y11900
X88057Y36459
X88057Y18200
X90057Y36459
X69058Y36930
X69616Y22800
X104576Y38508
X83158Y29600
X92571Y39183
X92671Y29654
X104257Y38000
X82208Y30350
X92063Y38900
X92357Y30022
X112177Y33560
X112107Y33950
X112187Y33180
X22850Y71708
X31666Y76808
X21694Y80552
X14750Y53008
X20550Y53508
X31454Y78349
X41200Y62222
X45772Y77036
X48185Y77671
X41200Y77852
X47169Y59637
X36650Y62095
X8750Y74508
X10750Y71608
X15750Y73508
X16750Y73508
X16750Y74508
X15750Y74508
X12650Y77308
X12650Y77908
X9050Y79908
X11750Y82908
X19850Y82208
X23550Y80808
X27050Y76508
X25550Y75308
X28250Y73508
X21950Y70708
X7750Y72508
X3250Y78808
X5050Y78108
X6650Y51008
X9850Y51108
X23750Y51508
X24350Y50608
X28750Y53908
X29750Y59508
X31750Y59508
X32750Y55008
X36750Y58308
X38550Y58308
X41750Y55508
X43750Y55508
X46750Y55508
X48950Y52908
X51750Y55508
X48750Y48508
X42750Y48508
X37750Y49508
X34750Y44508
X15350Y56608
X15350Y58408
X16350Y58408
X16435Y56970
X17832Y56970
X20150Y60608
X17750Y60708
X16450Y60708
X15250Y60708
X30150Y65208
X45548Y81910
X48718Y81529
X50850Y77108
X51490Y77108
X53750Y77108
X54750Y77108
X54750Y75808
X41588Y77362
X39950Y77108
X38450Y77108
X36750Y77108
X35450Y77108
X33750Y77108
X32890Y77008
X35190Y75643
X31661Y75348
X32396Y71373
X32750Y61208
X32950Y60208
X34250Y59908
X35750Y59908
X36750Y59808
X37750Y59808
X38750Y59808
X50850Y59908
X51750Y60008
X52750Y60008
X53750Y60008
X54750Y60008
X54750Y60908
X47950Y63308
X37450Y63308
X35250Y63308
X50050Y74208
X47950Y74208
X45850Y74208
X43750Y74208
X41650Y74208
X39550Y74208
X37450Y74208
X35250Y74208
X50050Y73308
X47950Y73308
X45850Y73308
X41650Y73308
X39550Y73308
X37450Y73308
X35250Y73308
X52250Y73308
X50050Y72308
X47950Y72308
X45850Y72308
X41650Y72308
X39550Y72308
X37450Y72308
X35250Y72308
X52250Y72308
X50050Y71308
X47950Y71308
X45850Y71308
X43750Y71308
X41650Y71308
X39550Y71308
X37450Y71308
X35250Y71308
X52250Y71308
X50050Y70308
X47950Y70308
X45850Y70308
X43750Y70308
X41650Y70308
X39550Y70308
X37450Y70308
X35250Y70308
X52250Y70308
X50050Y69308
X47950Y69308
X45850Y69308
X43750Y69308
X41650Y69308
X39550Y69308
X37450Y69308
X35250Y69308
X52250Y69308
X50050Y68308
X47950Y68308
X45850Y68308
X43750Y68308
X41650Y68308
X39550Y68308
X37450Y68308
X35250Y68308
X52250Y68308
X50050Y67308
X47950Y67308
X45850Y67308
X43750Y67308
X41650Y67308
X39550Y67308
X37450Y67308
X35250Y67308
X52250Y67308
X50050Y66308
X47950Y66308
X45850Y66308
X43750Y66308
X41650Y66308
X39550Y66308
X37450Y66308
X35250Y66308
X52250Y66308
X50050Y65308
X47950Y65308
X45850Y65308
X43750Y65308
X41650Y65308
X39550Y65308
X37450Y65308
X35250Y65308
X52250Y65308
X47950Y64308
X37450Y64308
X35250Y64308
X50050Y62308
X47950Y62308
X39550Y62308
X37450Y62308
X35250Y62308
X52250Y62308
X47950Y74808
X37450Y74808
X35250Y74808
X34250Y60908
X35750Y60908
X51750Y61008
X52750Y61008
X53750Y61008
X35250Y76308
X34250Y76308
X33250Y76308
X54250Y76308
X42950Y81108
X43250Y79108
X54750Y78108
X49418Y77473
X57250Y81108
X53950Y81108
X54750Y80108
X54250Y79108
X57250Y79108
X38750Y55308
X35750Y47508
X34750Y47508
X36750Y47508
X33750Y47508
X33750Y46508
X33750Y45908
X45675Y84829
X48718Y84829
X33750Y78508
X32858Y78308
X17250Y82508
X43740Y72337
X43740Y73353
X49418Y78489
X49872Y80594
X52720Y80521
X52190Y81208
X50390Y81208
X48910Y82426
X45608Y82553
X47259Y85855
X49799Y85728
X50688Y84839
X50942Y84331
X52085Y84204
X52847Y82807
X52212Y82553
X52212Y81791
X52853Y77076
X53361Y77711
X53742Y78346
X53361Y78981
X52726Y79362
X49545Y79124
X44846Y82807
X44592Y84204
X45100Y84458
X45608Y85855
X48783Y85728
X51290Y77708
X52690Y77708
X47090Y77408
X46990Y74808
X52090Y74108
X54990Y68508
X47190Y79508
X49592Y80154
X52512Y79994
X51250Y79068
X9850Y54089
X9850Y59108
X56550Y59549
X24050Y80808
X37550Y81008
X23750Y71208
X9650Y71208
X20250Y71208
X45059Y59808
X41050Y59327
X17350Y81008
X17550Y70608
X12650Y58708
X12650Y70608
X56850Y58808
X21750Y81008
X22050Y78308
X12650Y54008
X37000Y81058
X49750Y57808
X41450Y57530
X20950Y72708
X20950Y83808
X56750Y83625
X30726Y68308
X30650Y82808
X30150Y82608
X30397Y70508
X36504Y77808
X31409Y77866
X31450Y45330
X5350Y55508
X6750Y81608
X24450Y77508
X20250Y77508
X22750Y73508
X20450Y73054
X21950Y66308
X23350Y59708
X6650Y59308
X6650Y66008
X23650Y54108
X23250Y60308
X21950Y64408
X23150Y63808
X15850Y64308
X15750Y70708
X31067Y63008
X31050Y79966
X39323Y80389
X39031Y80008
X7991Y78699
X9609Y61716
X22950Y55508
X18350Y55500
X20650Y74208
X7550Y80008
X38558Y80770
X9609Y60389
X39050Y78408
X6650Y78308
X9777Y52789
X24050Y58449
X4750Y57908
X50750Y55508
X25750Y75920
X26850Y53462
X32850Y50108
X4850Y47758
X6650Y51908
X6650Y65008
X55250Y51508
X5750Y51508
X6250Y63608
X55850Y51208
X16450Y83208
X57650Y83108
X56800Y77308
X20291Y78366
X19750Y78408
X22250Y65008
X5420Y64508
X20550Y66808
X4950Y66408
X8750Y75508
X5124Y76516
X4850Y72508
X9050Y77508
X3150Y74508
X2850Y81008
X41050Y81508
X6750Y76508
X7450Y50008
X37750Y44508
X7750Y69508
X32123Y68608
X26709Y69508
X10450Y83008
X10307Y69508
X8650Y81508
X36050Y81808
X36050Y78408
X12550Y81777
X27050Y65308
X27109Y72208
X22750Y62208
X23253Y66608
X30750Y52608
X15250Y78135
X18950Y78008
X23850Y68449
X20350Y74608
X18750Y70808
X12850Y74508
X13301Y67849
X16250Y70808
X16250Y67849
X18750Y67849
X2600Y57508
X25950Y76408
X26850Y54135
X48750Y55608
X24750Y77908
X15750Y78308
X24550Y78608
X16250Y78708
X13250Y73908
X13250Y75108
X28150Y68308
X12209Y67208
X12250Y62908
X29504Y79966
X28891Y58077
X29050Y79966
X8050Y80008
X9482Y63016
X27450Y79966
X27550Y59708
X28550Y79966
X28550Y55408
X28050Y79966
X28050Y61708
X30050Y79966
X9050Y80438
X9609Y66308
X44569Y82016
X23150Y73108
X32564Y82690
X32664Y73162
X44250Y81508
X22200Y73858
X32056Y82408
X32350Y73530
X52170Y77068
X52100Y77458
X52180Y76688
X82858Y71708
X91673Y76808
X81702Y80552
X74758Y53008
X80558Y53508
X91461Y78349
X101207Y62222
X105779Y77036
X108192Y77671
X101207Y77852
X107176Y59637
X96657Y62095
X68758Y74508
X70758Y71608
X75758Y73508
X76758Y73508
X76758Y74508
X75758Y74508
X72658Y77308
X72658Y77908
X69058Y79908
X71758Y82908
X79858Y82208
X83558Y80808
X87058Y76508
X85558Y75308
X88257Y73508
X81958Y70708
X67758Y72508
X63257Y78808
X65057Y78108
X66658Y51008
X69858Y51108
X83758Y51508
X84358Y50608
X88757Y53908
X89757Y59508
X91757Y59508
X92757Y55008
X96757Y58308
X98557Y58308
X101757Y55508
X103757Y55508
X106757Y55508
X108957Y52908
X111757Y55508
X108757Y48508
X102757Y48508
X97757Y49508
X94757Y44508
X75358Y56608
X75358Y58408
X76358Y58408
X76443Y56970
X77840Y56970
X80158Y60608
X77758Y60708
X76458Y60708
X75258Y60708
X90157Y65208
X105555Y81910
X108725Y81529
X110857Y77108
X111497Y77108
X113757Y77108
X114757Y77108
X114757Y75808
X101595Y77362
X99957Y77108
X98457Y77108
X96757Y77108
X95457Y77108
X93757Y77108
X92897Y77008
X95197Y75643
X91668Y75348
X92403Y71373
X92757Y61208
X92957Y60208
X94257Y59908
X95757Y59908
X96757Y59808
X97757Y59808
X98757Y59808
X110857Y59908
X111757Y60008
X112757Y60008
X113757Y60008
X114757Y60008
X114757Y60908
X107957Y63308
X97457Y63308
X95257Y63308
X110057Y74208
X107957Y74208
X105857Y74208
X103757Y74208
X101657Y74208
X99557Y74208
X97457Y74208
X95257Y74208
X110057Y73308
X107957Y73308
X105857Y73308
X101657Y73308
X99557Y73308
X97457Y73308
X95257Y73308
X112257Y73308
X110057Y72308
X107957Y72308
X105857Y72308
X101657Y72308
X99557Y72308
X97457Y72308
X95257Y72308
X112257Y72308
X110057Y71308
X107957Y71308
X105857Y71308
X103757Y71308
X101657Y71308
X99557Y71308
X97457Y71308
X95257Y71308
X112257Y71308
X110057Y70308
X107957Y70308
X105857Y70308
X103757Y70308
X101657Y70308
X99557Y70308
X97457Y70308
X95257Y70308
X112257Y70308
X110057Y69308
X107957Y69308
X105857Y69308
X103757Y69308
X101657Y69308
X99557Y69308
X97457Y69308
X95257Y69308
X112257Y69308
X110057Y68308
X107957Y68308
X105857Y68308
X103757Y68308
X101657Y68308
X99557Y68308
X97457Y68308
X95257Y68308
X112257Y68308
X110057Y67308
X107957Y67308
X105857Y67308
X103757Y67308
X101657Y67308
X99557Y67308
X97457Y67308
X95257Y67308
X112257Y67308
X110057Y66308
X107957Y66308
X105857Y66308
X103757Y66308
X101657Y66308
X99557Y66308
X97457Y66308
X95257Y66308
X112257Y66308
X110057Y65308
X107957Y65308
X105857Y65308
X103757Y65308
X101657Y65308
X99557Y65308
X97457Y65308
X95257Y65308
X112257Y65308
X107957Y64308
X97457Y64308
X95257Y64308
X110057Y62308
X107957Y62308
X99557Y62308
X97457Y62308
X95257Y62308
X112257Y62308
X107957Y74808
X97457Y74808
X95257Y74808
X94257Y60908
X95757Y60908
X111757Y61008
X112757Y61008
X113757Y61008
X95257Y76308
X94257Y76308
X93257Y76308
X114257Y76308
X102957Y81108
X103257Y79108
X114757Y78108
X109425Y77473
X117257Y81108
X113957Y81108
X114757Y80108
X114257Y79108
X117257Y79108
X98757Y55308
X95757Y47508
X94757Y47508
X96757Y47508
X93757Y47508
X93757Y46508
X93757Y45908
X105682Y84829
X108725Y84829
X93757Y78508
X92865Y78308
X77258Y82508
X103747Y72337
X103747Y73353
X109425Y78489
X109879Y80594
X112727Y80521
X112197Y81208
X110397Y81208
X108917Y82426
X105615Y82553
X107266Y85855
X109806Y85728
X110695Y84839
X110949Y84331
X112092Y84204
X112854Y82807
X112219Y82553
X112219Y81791
X112860Y77076
X113368Y77711
X113749Y78346
X113368Y78981
X112733Y79362
X109552Y79124
X104853Y82807
X104599Y84204
X105107Y84458
X105615Y85855
X108790Y85728
X111297Y77708
X112697Y77708
X107097Y77408
X106997Y74808
X112097Y74108
X114997Y68508
X107197Y79508
X109599Y80154
X112519Y79994
X111257Y79068
X69858Y54089
X69858Y59108
X116557Y59549
X84058Y80808
X97557Y81008
X83758Y71208
X69658Y71208
X80258Y71208
X105066Y59808
X101057Y59327
X77358Y81008
X77558Y70608
X72658Y58708
X72658Y70608
X116857Y58808
X81758Y81008
X82058Y78308
X72658Y54008
X97007Y81058
X109757Y57808
X101457Y57530
X80958Y72708
X80958Y83808
X116757Y83625
X90734Y68308
X90657Y82808
X90157Y82608
X90405Y70508
X96511Y77808
X91416Y77866
X91457Y45330
X65357Y55508
X66758Y81608
X84458Y77508
X80258Y77508
X82758Y73508
X80458Y73054
X81958Y66308
X83358Y59708
X66658Y59308
X66658Y66008
X83658Y54108
X83258Y60308
X81958Y64408
X83158Y63808
X75858Y64308
X75758Y70708
X91075Y63008
X91057Y79966
X99330Y80389
X99038Y80008
X67999Y78699
X69616Y61716
X82958Y55508
X78358Y55500
X80658Y74208
X67558Y80008
X98565Y80770
X69616Y60389
X99057Y78408
X66658Y78308
X69785Y52789
X84058Y58449
X64757Y57908
X110757Y55508
X85758Y75920
X86858Y53462
X92857Y50108
X64857Y47758
X66658Y51908
X66658Y65008
X115257Y51508
X65758Y51508
X66258Y63608
X115857Y51208
X76458Y83208
X117657Y83108
X116807Y77308
X80299Y78366
X79758Y78408
X82258Y65008
X65427Y64508
X80558Y66808
X64957Y66408
X68758Y75508
X65131Y76516
X64857Y72508
X69058Y77508
X63157Y74508
X62857Y81008
X101057Y81508
X66758Y76508
X67458Y50008
X97757Y44508
X67758Y69508
X92130Y68608
X86716Y69508
X70458Y83008
X70315Y69508
X68658Y81508
X96057Y81808
X96057Y78408
X72558Y81777
X87058Y65308
X87116Y72208
X82758Y62208
X83260Y66608
X90757Y52608
X75258Y78135
X78958Y78008
X83858Y68449
X80358Y74608
X78758Y70808
X72858Y74508
X73309Y67849
X76258Y70808
X76258Y67849
X78758Y67849
X62607Y57508
X85958Y76408
X86858Y54135
X108757Y55608
X84758Y77908
X75758Y78308
X84558Y78608
X76258Y78708
X73258Y73908
X73258Y75108
X88157Y68308
X72216Y67208
X72258Y62908
X89511Y79966
X88899Y58077
X89057Y79966
X68058Y80008
X69489Y63016
X87457Y79966
X87557Y59708
X88557Y79966
X88557Y55408
X88057Y79966
X88057Y61708
X90057Y79966
X69058Y80438
X69616Y66308
X104576Y82016
X83158Y73108
X92571Y82690
X92671Y73162
X104257Y81508
X82208Y73858
X92063Y82408
X92357Y73530
X112177Y77068
X112107Y77458
X112187Y76688
X22850Y115215
X31666Y120315
X21694Y124059
X14750Y96515
X20550Y97015
X31454Y121857
X41200Y105730
X45772Y120543
X48185Y121178
X41200Y121359
X47169Y103144
X36650Y105603
X8750Y118015
X10750Y115115
X15750Y117015
X16750Y117015
X16750Y118015
X15750Y118015
X12650Y120815
X12650Y121415
X9050Y123415
X11750Y126415
X19850Y125715
X23550Y124315
X27050Y120015
X25550Y118815
X28250Y117015
X21950Y114215
X7750Y116015
X3250Y122315
X5050Y121615
X6650Y94515
X9850Y94615
X23750Y95015
X24350Y94115
X28750Y97415
X29750Y103015
X31750Y103015
X32750Y98515
X36750Y101815
X38550Y101815
X41750Y99015
X43750Y99015
X46750Y99015
X48950Y96415
X51750Y99015
X48750Y92015
X42750Y92015
X37750Y93015
X34750Y88015
X15350Y100115
X15350Y101915
X16350Y101915
X16435Y100477
X17832Y100477
X20150Y104115
X17750Y104215
X16450Y104215
X15250Y104215
X30150Y108715
X45548Y125417
X48718Y125036
X50850Y120615
X51490Y120615
X53750Y120615
X54750Y120615
X54750Y119315
X41588Y120869
X39950Y120615
X38450Y120615
X36750Y120615
X35450Y120615
X33750Y120615
X32890Y120515
X35190Y119150
X31661Y118855
X32396Y114880
X32750Y104715
X32950Y103715
X34250Y103415
X35750Y103415
X36750Y103315
X37750Y103315
X38750Y103315
X50850Y103415
X51750Y103515
X52750Y103515
X53750Y103515
X54750Y103515
X54750Y104415
X47950Y106815
X37450Y106815
X35250Y106815
X50050Y117715
X47950Y117715
X45850Y117715
X43750Y117715
X41650Y117715
X39550Y117715
X37450Y117715
X35250Y117715
X50050Y116815
X47950Y116815
X45850Y116815
X41650Y116815
X39550Y116815
X37450Y116815
X35250Y116815
X52250Y116815
X50050Y115815
X47950Y115815
X45850Y115815
X41650Y115815
X39550Y115815
X37450Y115815
X35250Y115815
X52250Y115815
X50050Y114815
X47950Y114815
X45850Y114815
X43750Y114815
X41650Y114815
X39550Y114815
X37450Y114815
X35250Y114815
X52250Y114815
X50050Y113815
X47950Y113815
X45850Y113815
X43750Y113815
X41650Y113815
X39550Y113815
X37450Y113815
X35250Y113815
X52250Y113815
X50050Y112815
X47950Y112815
X45850Y112815
X43750Y112815
X41650Y112815
X39550Y112815
X37450Y112815
X35250Y112815
X52250Y112815
X50050Y111815
X47950Y111815
X45850Y111815
X43750Y111815
X41650Y111815
X39550Y111815
X37450Y111815
X35250Y111815
X52250Y111815
X50050Y110815
X47950Y110815
X45850Y110815
X43750Y110815
X41650Y110815
X39550Y110815
X37450Y110815
X35250Y110815
X52250Y110815
X50050Y109815
X47950Y109815
X45850Y109815
X43750Y109815
X41650Y109815
X39550Y109815
X37450Y109815
X35250Y109815
X52250Y109815
X50050Y108815
X47950Y108815
X45850Y108815
X43750Y108815
X41650Y108815
X39550Y108815
X37450Y108815
X35250Y108815
X52250Y108815
X47950Y107815
X37450Y107815
X35250Y107815
X50050Y105815
X47950Y105815
X39550Y105815
X37450Y105815
X35250Y105815
X52250Y105815
X47950Y118315
X37450Y118315
X35250Y118315
X34250Y104415
X35750Y104415
X51750Y104515
X52750Y104515
X53750Y104515
X35250Y119815
X34250Y119815
X33250Y119815
X54250Y119815
X42950Y124615
X43250Y122615
X54750Y121615
X49418Y120980
X57250Y124615
X53950Y124615
X54750Y123615
X54250Y122615
X57250Y122615
X38750Y98815
X35750Y91015
X34750Y91015
X36750Y91015
X33750Y91015
X33750Y90015
X33750Y89415
X45675Y128336
X48718Y128336
X33750Y122015
X32858Y121815
X17250Y126015
X43740Y115844
X43740Y116860
X49418Y121996
X49872Y124101
X52720Y124028
X52190Y124715
X50390Y124715
X48910Y125933
X45608Y126060
X47259Y129362
X49799Y129235
X50688Y128346
X50942Y127838
X52085Y127711
X52847Y126314
X52212Y126060
X52212Y125298
X52853Y120583
X53361Y121218
X53742Y121853
X53361Y122488
X52726Y122869
X49545Y122631
X44846Y126314
X44592Y127711
X45100Y127965
X45608Y129362
X48783Y129235
X51290Y121215
X52690Y121215
X47090Y120915
X46990Y118315
X52090Y117615
X54990Y112015
X47190Y123015
X49592Y123661
X52512Y123501
X51250Y122575
X9850Y97596
X9850Y102615
X56550Y103057
X24050Y124315
X37550Y124515
X23750Y114715
X9650Y114715
X20250Y114715
X45059Y103315
X41050Y102834
X17350Y124515
X17550Y114115
X12650Y102215
X12650Y114115
X56850Y102315
X21750Y124515
X22050Y121815
X12650Y97515
X37000Y124565
X49750Y101315
X41450Y101038
X20950Y116215
X20950Y127315
X56750Y127133
X30726Y111815
X30650Y126315
X30150Y126115
X30397Y114015
X36504Y121315
X31409Y121374
X31450Y88838
X5350Y99015
X6750Y125115
X24450Y121015
X20250Y121015
X22750Y117015
X20450Y116561
X21950Y109815
X23350Y103215
X6650Y102815
X6650Y109515
X23650Y97615
X23250Y103815
X21950Y107915
X23150Y107315
X15850Y107815
X15750Y114215
X31067Y106515
X31050Y123474
X39323Y123896
X39031Y123515
X7991Y122206
X9609Y105223
X22950Y99015
X18350Y99008
X20650Y117715
X7550Y123515
X38558Y124277
X9609Y103896
X39050Y121915
X6650Y121815
X9777Y96296
X24050Y101957
X4750Y101415
X50750Y99015
X25750Y119428
X26850Y96969
X32850Y93615
X4850Y91265
X6650Y95415
X6650Y108515
X55250Y95015
X5750Y95015
X6250Y107115
X55850Y94715
X16450Y126715
X57650Y126615
X56800Y120815
X20291Y121874
X19750Y121915
X22250Y108515
X5420Y108015
X20550Y110315
X4950Y109915
X8750Y119015
X5124Y120023
X4850Y116015
X9050Y121015
X3150Y118015
X2850Y124515
X41050Y125015
X6750Y120015
X7450Y93515
X37750Y88015
X7750Y113015
X32123Y112115
X26709Y113015
X10450Y126515
X10307Y113015
X8650Y125015
X36050Y125315
X36050Y121915
X12550Y125285
X27050Y108815
X27109Y115715
X22750Y105715
X23253Y110115
X30750Y96115
X15250Y121643
X18950Y121515
X23850Y111957
X20350Y118115
X18750Y114315
X12850Y118015
X13301Y111357
X16250Y114315
X16250Y111357
X18750Y111357
X2600Y101015
X25950Y119915
X26850Y97642
X48750Y99115
X24750Y121415
X15750Y121815
X24550Y122115
X16250Y122215
X13250Y117415
X13250Y118615
X28150Y111815
X12209Y110715
X12250Y106415
X29504Y123474
X28891Y101585
X29050Y123474
X8050Y123515
X9482Y106523
X27450Y123474
X27550Y103215
X28550Y123474
X28550Y98915
X28050Y123474
X28050Y105215
X30050Y123474
X9050Y123946
X9609Y109815
X44569Y125523
X23150Y116615
X32564Y126198
X32664Y116669
X44250Y125015
X22200Y117365
X32056Y125915
X32350Y117038
X52170Y120575
X52100Y120965
X52180Y120195
X82858Y115215
X91673Y120315
X81702Y124059
X74758Y96515
X80558Y97015
X91461Y121857
X101207Y105730
X105779Y120543
X108192Y121178
X101207Y121359
X107176Y103144
X96657Y105603
X68758Y118015
X70758Y115115
X75758Y117015
X76758Y117015
X76758Y118015
X75758Y118015
X72658Y120815
X72658Y121415
X69058Y123415
X71758Y126415
X79858Y125715
X83558Y124315
X87058Y120015
X85558Y118815
X88257Y117015
X81958Y114215
X67758Y116015
X63257Y122315
X65057Y121615
X66658Y94515
X69858Y94615
X83758Y95015
X84358Y94115
X88757Y97415
X89757Y103015
X91757Y103015
X92757Y98515
X96757Y101815
X98557Y101815
X101757Y99015
X103757Y99015
X106757Y99015
X108957Y96415
X111757Y99015
X108757Y92015
X102757Y92015
X97757Y93015
X94757Y88015
X75358Y100115
X75358Y101915
X76358Y101915
X76443Y100477
X77840Y100477
X80158Y104115
X77758Y104215
X76458Y104215
X75258Y104215
X90157Y108715
X105555Y125417
X108725Y125036
X110857Y120615
X111497Y120615
X113757Y120615
X114757Y120615
X114757Y119315
X101595Y120869
X99957Y120615
X98457Y120615
X96757Y120615
X95457Y120615
X93757Y120615
X92897Y120515
X95197Y119150
X91668Y118855
X92403Y114880
X92757Y104715
X92957Y103715
X94257Y103415
X95757Y103415
X96757Y103315
X97757Y103315
X98757Y103315
X110857Y103415
X111757Y103515
X112757Y103515
X113757Y103515
X114757Y103515
X114757Y104415
X107957Y106815
X97457Y106815
X95257Y106815
X110057Y117715
X107957Y117715
X105857Y117715
X103757Y117715
X101657Y117715
X99557Y117715
X97457Y117715
X95257Y117715
X110057Y116815
X107957Y116815
X105857Y116815
X101657Y116815
X99557Y116815
X97457Y116815
X95257Y116815
X112257Y116815
X110057Y115815
X107957Y115815
X105857Y115815
X101657Y115815
X99557Y115815
X97457Y115815
X95257Y115815
X112257Y115815
X110057Y114815
X107957Y114815
X105857Y114815
X103757Y114815
X101657Y114815
X99557Y114815
X97457Y114815
X95257Y114815
X112257Y114815
X110057Y113815
X107957Y113815
X105857Y113815
X103757Y113815
X101657Y113815
X99557Y113815
X97457Y113815
X95257Y113815
X112257Y113815
X110057Y112815
X107957Y112815
X105857Y112815
X103757Y112815
X101657Y112815
X99557Y112815
X97457Y112815
X95257Y112815
X112257Y112815
X110057Y111815
X107957Y111815
X105857Y111815
X103757Y111815
X101657Y111815
X99557Y111815
X97457Y111815
X95257Y111815
X112257Y111815
X110057Y110815
X107957Y110815
X105857Y110815
X103757Y110815
X101657Y110815
X99557Y110815
X97457Y110815
X95257Y110815
X112257Y110815
X110057Y109815
X107957Y109815
X105857Y109815
X103757Y109815
X101657Y109815
X99557Y109815
X97457Y109815
X95257Y109815
X112257Y109815
X110057Y108815
X107957Y108815
X105857Y108815
X103757Y108815
X101657Y108815
X99557Y108815
X97457Y108815
X95257Y108815
X112257Y108815
X107957Y107815
X97457Y107815
X95257Y107815
X110057Y105815
X107957Y105815
X99557Y105815
X97457Y105815
X95257Y105815
X112257Y105815
X107957Y118315
X97457Y118315
X95257Y118315
X94257Y104415
X95757Y104415
X111757Y104515
X112757Y104515
X113757Y104515
X95257Y119815
X94257Y119815
X93257Y119815
X114257Y119815
X102957Y124615
X103257Y122615
X114757Y121615
X109425Y120980
X117257Y124615
X113957Y124615
X114757Y123615
X114257Y122615
X117257Y122615
X98757Y98815
X95757Y91015
X94757Y91015
X96757Y91015
X93757Y91015
X93757Y90015
X93757Y89415
X105682Y128336
X108725Y128336
X93757Y122015
X92865Y121815
X77258Y126015
X103747Y115844
X103747Y116860
X109425Y121996
X109879Y124101
X112727Y124028
X112197Y124715
X110397Y124715
X108917Y125933
X105615Y126060
X107266Y129362
X109806Y129235
X110695Y128346
X110949Y127838
X112092Y127711
X112854Y126314
X112219Y126060
X112219Y125298
X112860Y120583
X113368Y121218
X113749Y121853
X113368Y122488
X112733Y122869
X109552Y122631
X104853Y126314
X104599Y127711
X105107Y127965
X105615Y129362
X108790Y129235
X111297Y121215
X112697Y121215
X107097Y120915
X106997Y118315
X112097Y117615
X114997Y112015
X107197Y123015
X109599Y123661
X112519Y123501
X111257Y122575
X69858Y97596
X69858Y102615
X116557Y103057
X84058Y124315
X97557Y124515
X83758Y114715
X69658Y114715
X80258Y114715
X105066Y103315
X101057Y102834
X77358Y124515
X77558Y114115
X72658Y102215
X72658Y114115
X116857Y102315
X81758Y124515
X82058Y121815
X72658Y97515
X97007Y124565
X109757Y101315
X101457Y101038
X80958Y116215
X80958Y127315
X116757Y127133
X90734Y111815
X90657Y126315
X90157Y126115
X90405Y114015
X96511Y121315
X91416Y121374
X91457Y88838
X65357Y99015
X66758Y125115
X84458Y121015
X80258Y121015
X82758Y117015
X80458Y116561
X81958Y109815
X83358Y103215
X66658Y102815
X66658Y109515
X83658Y97615
X83258Y103815
X81958Y107915
X83158Y107315
X75858Y107815
X75758Y114215
X91075Y106515
X91057Y123474
X99330Y123896
X99038Y123515
X67999Y122206
X69616Y105223
X82958Y99015
X78358Y99008
X80658Y117715
X67558Y123515
X98565Y124277
X69616Y103896
X99057Y121915
X66658Y121815
X69785Y96296
X84058Y101957
X64757Y101415
X110757Y99015
X85758Y119428
X86858Y96969
X92857Y93615
X64857Y91265
X66658Y95415
X66658Y108515
X115257Y95015
X65758Y95015
X66258Y107115
X115857Y94715
X76458Y126715
X117657Y126615
X116807Y120815
X80299Y121874
X79758Y121915
X82258Y108515
X65427Y108015
X80558Y110315
X64957Y109915
X68758Y119015
X65131Y120023
X64857Y116015
X69058Y121015
X63157Y118015
X62857Y124515
X101057Y125015
X66758Y120015
X67458Y93515
X97757Y88015
X67758Y113015
X92130Y112115
X86716Y113015
X70458Y126515
X70315Y113015
X68658Y125015
X96057Y125315
X96057Y121915
X72558Y125285
X87058Y108815
X87116Y115715
X82758Y105715
X83260Y110115
X90757Y96115
X75258Y121643
X78958Y121515
X83858Y111957
X80358Y118115
X78758Y114315
X72858Y118015
X73309Y111357
X76258Y114315
X76258Y111357
X78758Y111357
X62607Y101015
X85958Y119915
X86858Y97642
X108757Y99115
X84758Y121415
X75758Y121815
X84558Y122115
X76258Y122215
X73258Y117415
X73258Y118615
X88157Y111815
X72216Y110715
X72258Y106415
X89511Y123474
X88899Y101585
X89057Y123474
X68058Y123515
X69489Y106523
X87457Y123474
X87557Y103215
X88557Y123474
X88557Y98915
X88057Y123474
X88057Y105215
X90057Y123474
X69058Y123946
X69616Y109815
X104576Y125523
X83158Y116615
X92571Y126198
X92671Y116669
X104257Y125015
X82208Y117365
X92063Y125915
X92357Y117038
X112177Y120575
X112107Y120965
X112187Y120195
X22850Y158723
X31666Y163823
X21694Y167567
X14750Y140023
X20550Y140523
X31454Y165364
X41200Y149238
X45772Y164051
X48185Y164686
X41200Y164867
X47169Y146652
X36650Y149111
X8750Y161523
X10750Y158623
X15750Y160523
X16750Y160523
X16750Y161523
X15750Y161523
X12650Y164323
X12650Y164923
X9050Y166923
X11750Y169923
X19850Y169223
X23550Y167823
X27050Y163523
X25550Y162323
X28250Y160523
X21950Y157723
X7750Y159523
X3250Y165823
X5050Y165123
X6650Y138023
X9850Y138123
X23750Y138523
X24350Y137623
X28750Y140923
X29750Y146523
X31750Y146523
X32750Y142023
X36750Y145323
X38550Y145323
X41750Y142523
X43750Y142523
X46750Y142523
X48950Y139923
X51750Y142523
X48750Y135523
X42750Y135523
X37750Y136523
X34750Y131523
X15350Y143623
X15350Y145423
X16350Y145423
X16435Y143985
X17832Y143985
X20150Y147623
X17750Y147723
X16450Y147723
X15250Y147723
X30150Y152223
X45548Y168925
X48718Y168544
X50850Y164123
X51490Y164123
X53750Y164123
X54750Y164123
X54750Y162823
X41588Y164377
X39950Y164123
X38450Y164123
X36750Y164123
X35450Y164123
X33750Y164123
X32890Y164023
X35190Y162658
X31661Y162363
X32396Y158388
X32750Y148223
X32950Y147223
X34250Y146923
X35750Y146923
X36750Y146823
X37750Y146823
X38750Y146823
X50850Y146923
X51750Y147023
X52750Y147023
X53750Y147023
X54750Y147023
X54750Y147923
X47950Y150323
X37450Y150323
X35250Y150323
X50050Y161223
X47950Y161223
X45850Y161223
X43750Y161223
X41650Y161223
X39550Y161223
X37450Y161223
X35250Y161223
X22850Y28200
X47950Y160323
X45850Y160323
X41650Y160323
X39550Y160323
X37450Y160323
X35250Y160323
X52250Y160323
X50050Y159323
X47950Y159323
X45850Y159323
X41650Y159323
X39550Y159323
X37450Y159323
X35250Y159323
X52250Y159323
X50050Y158323
X47950Y158323
X45850Y158323
X43750Y158323
X41650Y158323
X39550Y158323
X37450Y158323
X35250Y158323
X52250Y158323
X50050Y157323
X47950Y157323
X45850Y157323
X43750Y157323
X41650Y157323
X39550Y157323
X37450Y157323
X35250Y157323
X52250Y157323
X50050Y156323
X47950Y156323
X45850Y156323
X43750Y156323
X41650Y156323
X39550Y156323
X37450Y156323
X35250Y156323
X52250Y156323
X50050Y155323
X47950Y155323
X45850Y155323
X43750Y155323
X41650Y155323
X39550Y155323
X37450Y155323
X35250Y155323
X52250Y155323
X50050Y154323
X47950Y154323
X45850Y154323
X43750Y154323
X41650Y154323
X39550Y154323
X37450Y154323
X35250Y154323
X52250Y154323
X50050Y153323
X47950Y153323
X45850Y153323
X43750Y153323
X41650Y153323
X39550Y153323
X37450Y153323
X35250Y153323
X52250Y153323
X50050Y152323
X47950Y152323
X45850Y152323
X43750Y152323
X41650Y152323
X39550Y152323
X37450Y152323
X35250Y152323
X52250Y152323
X47950Y151323
X37450Y151323
X35250Y151323
X50050Y149323
X47950Y149323
X39550Y149323
X37450Y149323
X35250Y149323
X52250Y149323
X47950Y161823
X37450Y161823
X35250Y161823
X34250Y147923
X35750Y147923
X51750Y148023
X52750Y148023
X53750Y148023
X35250Y163323
X34250Y163323
X33250Y163323
X54250Y163323
X42950Y168123
X43250Y166123
X54750Y165123
X49418Y164488
X57250Y168123
X53950Y168123
X54750Y167123
X54250Y166123
X57250Y166123
X38750Y142323
X35750Y134523
X34750Y134523
X36750Y134523
X33750Y134523
X33750Y133523
X33750Y132923
X45675Y171844
X48718Y171844
X33750Y165523
X32858Y165323
X17250Y169523
X43740Y159352
X43740Y160368
X49418Y165504
X49872Y167609
X52720Y167536
X52190Y168223
X50390Y168223
X48910Y169441
X45608Y169568
X47259Y172870
X49799Y172743
X50688Y171854
X50942Y171346
X52085Y171219
X52847Y169822
X52212Y169568
X52212Y168806
X52853Y164091
X53361Y164726
X53742Y165361
X53361Y165996
X52726Y166377
X49545Y166139
X44846Y169822
X44592Y171219
X45100Y171473
X45608Y172870
X48783Y172743
X51290Y164723
X52690Y164723
X47090Y164423
X46990Y161823
X52090Y161123
X54990Y155523
X47190Y166523
X49592Y167169
X52512Y167009
X51250Y166083
X9850Y141104
X9850Y146123
X56550Y146564
X24050Y167823
X37550Y168023
X23750Y158223
X9650Y158223
X20250Y158223
X45059Y146823
X41050Y146342
X17350Y168023
X17550Y157623
X12650Y145723
X12650Y157623
X56850Y145823
X21750Y168023
X22050Y165323
X12650Y141023
X37000Y168073
X49750Y144823
X41450Y144545
X20950Y159723
X20950Y170823
X56750Y170640
X30726Y155323
X30650Y169823
X30150Y169623
X30397Y157523
X36504Y164823
X31409Y164882
X31450Y132345
X5350Y142523
X6750Y168623
X24450Y164523
X20250Y164523
X22750Y160523
X20450Y160069
X21950Y153323
X23350Y146723
X6650Y146323
X6650Y153023
X23650Y141123
X23250Y147323
X21950Y151423
X23150Y150823
X15850Y151323
X15750Y157723
X31067Y150023
X31050Y166982
X39323Y167404
X39031Y167023
X7991Y165714
X9609Y148731
X22950Y142523
X18350Y142515
X20650Y161223
X7550Y167023
X38558Y167785
X9609Y147404
X39050Y165423
X6650Y165323
X9777Y139804
X24050Y145464
X4750Y144923
X50750Y142523
X25750Y162936
X26850Y140477
X32850Y137123
X4850Y134773
X6650Y138923
X6650Y152023
X55250Y138523
X5750Y138523
X6250Y150623
X55850Y138223
X16450Y170223
X57650Y170123
X56800Y164323
X20291Y165382
X19750Y165423
X22250Y152023
X5420Y151523
X20550Y153823
X4950Y153423
X8750Y162523
X5124Y163531
X4850Y159523
X9050Y164523
X3150Y161523
X2850Y168023
X41050Y168523
X6750Y163523
X7450Y137023
X37750Y131523
X7750Y156523
X32123Y155623
X26709Y156523
X10450Y170023
X10307Y156523
X8650Y168523
X36050Y168823
X36050Y165423
X12550Y168793
X27050Y152323
X27109Y159223
X22750Y149223
X23253Y153623
X30750Y139623
X15250Y165151
X18950Y165023
X23850Y155464
X20350Y161623
X18750Y157823
X12850Y161523
X13301Y154864
X16250Y157823
X16250Y154864
X18750Y154864
X2600Y144523
X25950Y163423
X26850Y141150
X48750Y142623
X24750Y164923
X15750Y165323
X24550Y165623
X16250Y165723
X13250Y160923
X13250Y162123
X28150Y155323
X12209Y154223
X12250Y149923
X29504Y166982
X28891Y145093
X29050Y166982
X8050Y167023
X9482Y150031
X27450Y166982
X27550Y146723
X28550Y166982
X28550Y142423
X28050Y166982
X28050Y148723
X30050Y166982
X9050Y167453
X9609Y153323
X44569Y169031
X23150Y160123
X32564Y169706
X32664Y160177
X44250Y168523
X22200Y160873
X32056Y169423
X32350Y160545
X52170Y164083
X52100Y164473
X52180Y163703
X82858Y158723
X91673Y163823
X81702Y167567
X74758Y140023
X80558Y140523
X91461Y165364
X101207Y149238
X105779Y164051
X108192Y164686
X101207Y164867
X107176Y146652
X96657Y149111
X68758Y161523
X70758Y158623
X75758Y160523
X76758Y160523
X76758Y161523
X75758Y161523
X72658Y164323
X72658Y164923
X69058Y166923
X71758Y169923
X79858Y169223
X83558Y167823
X87058Y163523
X85558Y162323
X88257Y160523
X81958Y157723
X67758Y159523
X63257Y165823
X65057Y165123
X66658Y138023
X69858Y138123
X83758Y138523
X84358Y137623
X88757Y140923
X89757Y146523
X91757Y146523
X92757Y142023
X96757Y145323
X98557Y145323
X101757Y142523
X103757Y142523
X106757Y142523
X108957Y139923
X111757Y142523
X108757Y135523
X102757Y135523
X97757Y136523
X94757Y131523
X75358Y143623
X75358Y145423
X76358Y145423
X76443Y143985
X77840Y143985
X80158Y147623
X77758Y147723
X76458Y147723
X75258Y147723
X90157Y152223
X105555Y168925
X108725Y168544
X110857Y164123
X111497Y164123
X113757Y164123
X114757Y164123
X114757Y162823
X101595Y164377
X99957Y164123
X98457Y164123
X96757Y164123
X95457Y164123
X93757Y164123
X92897Y164023
X95197Y162658
X91668Y162363
X92403Y158388
X92757Y148223
X92957Y147223
X94257Y146923
X95757Y146923
X96757Y146823
X97757Y146823
X98757Y146823
X110857Y146923
X111757Y147023
X112757Y147023
X113757Y147023
X114757Y147023
X114757Y147923
X107957Y150323
X97457Y150323
X95257Y150323
X110057Y161223
X107957Y161223
X105857Y161223
X103757Y161223
X101657Y161223
X99557Y161223
X97457Y161223
X95257Y161223
X110057Y160323
X107957Y160323
X105857Y160323
X101657Y160323
X99557Y160323
X97457Y160323
X95257Y160323
X112257Y160323
X110057Y159323
X107957Y159323
X105857Y159323
X101657Y159323
X99557Y159323
X97457Y159323
X95257Y159323
X112257Y159323
X110057Y158323
X50050Y160323
X105857Y158323
X103757Y158323
X101657Y158323
X99557Y158323
X97457Y158323
X95257Y158323
X112257Y158323
X110057Y157323
X107957Y157323
X105857Y157323
X103757Y157323
X101657Y157323
X99557Y157323
X97457Y157323
X95257Y157323
X112257Y157323
X110057Y156323
X107957Y156323
X105857Y156323
X103757Y156323
X101657Y156323
X99557Y156323
X97457Y156323
X95257Y156323
X112257Y156323
X110057Y155323
X107957Y155323
X105857Y155323
X103757Y155323
X101657Y155323
X99557Y155323
X97457Y155323
X95257Y155323
X112257Y155323
X110057Y154323
X107957Y154323
X105857Y154323
X103757Y154323
X101657Y154323
X99557Y154323
X97457Y154323
X95257Y154323
X112257Y154323
X110057Y153323
X107957Y153323
X105857Y153323
X103757Y153323
X101657Y153323
X99557Y153323
X97457Y153323
X95257Y153323
X112257Y153323
X110057Y152323
X107957Y152323
X105857Y152323
X103757Y152323
X101657Y152323
X99557Y152323
X97457Y152323
X95257Y152323
X112257Y152323
X107957Y151323
X97457Y151323
X95257Y151323
X110057Y149323
X107957Y149323
X99557Y149323
X97457Y149323
X95257Y149323
X112257Y149323
X107957Y161823
X97457Y161823
X95257Y161823
X94257Y147923
X95757Y147923
X111757Y148023
X112757Y148023
X113757Y148023
X95257Y163323
X94257Y163323
X93257Y163323
X114257Y163323
X102957Y168123
X103257Y166123
X114757Y165123
X109425Y164488
X117257Y168123
X113957Y168123
X114757Y167123
X114257Y166123
X117257Y166123
X98757Y142323
X95757Y134523
X94757Y134523
X96757Y134523
X93757Y134523
X93757Y133523
X93757Y132923
X105682Y171844
X108725Y171844
X93757Y165523
X92865Y165323
X77258Y169523
X103747Y159352
X103747Y160368
X109425Y165504
X109879Y167609
X112727Y167536
X112197Y168223
X110397Y168223
X108917Y169441
X105615Y169568
X107266Y172870
X109806Y172743
X110695Y171854
X110949Y171346
X112092Y171219
X112854Y169822
X112219Y169568
X112219Y168806
X112860Y164091
X113368Y164726
X113749Y165361
X113368Y165996
X112733Y166377
X109552Y166139
X104853Y169822
X104599Y171219
X105107Y171473
X105615Y172870
X108790Y172743
X111297Y164723
X112697Y164723
X107097Y164423
X106997Y161823
X112097Y161123
X114997Y155523
X107197Y166523
X109599Y167169
X112519Y167009
X111257Y166083
X69858Y141104
X69858Y146123
X116557Y146564
X84058Y167823
X97557Y168023
X83758Y158223
X69658Y158223
X80258Y158223
X105066Y146823
X101057Y146342
X77358Y168023
X77558Y157623
X72658Y145723
X72658Y157623
X116857Y145823
X81758Y168023
X82058Y165323
X72658Y141023
X97007Y168073
X109757Y144823
X101457Y144545
X80958Y159723
X80958Y170823
X116757Y170640
X90734Y155323
X90657Y169823
X90157Y169623
X90405Y157523
X96511Y164823
X91416Y164882
X91457Y132345
X65357Y142523
X66758Y168623
X84458Y164523
X80258Y164523
X82758Y160523
X80458Y160069
X81958Y153323
X83358Y146723
X66658Y146323
X66658Y153023
X83658Y141123
X83258Y147323
X81958Y151423
X83158Y150823
X75858Y151323
X75758Y157723
X91075Y150023
X91057Y166982
X99330Y167404
X99038Y167023
X67999Y165714
X69616Y148731
X82958Y142523
X78358Y142515
X80658Y161223
X67558Y167023
X98565Y167785
X69616Y147404
X99057Y165423
X66658Y165323
X69785Y139804
X84058Y145464
X64757Y144923
X110757Y142523
X85758Y162936
X86858Y140477
X92857Y137123
X64857Y134773
X66658Y138923
X66658Y152023
X115257Y138523
X65758Y138523
X66258Y150623
X115857Y138223
X76458Y170223
X117657Y170123
X116807Y164323
X80299Y165382
X79758Y165423
X82258Y152023
X65427Y151523
X80558Y153823
X64957Y153423
X68758Y162523
X65131Y163531
X64857Y159523
X69058Y164523
X63157Y161523
X62857Y168023
X101057Y168523
X66758Y163523
X67458Y137023
X97757Y131523
X67758Y156523
X92130Y155623
X86716Y156523
X70458Y170023
X70315Y156523
X68658Y168523
X96057Y168823
X96057Y165423
X72558Y168793
X87058Y152323
X87116Y159223
X82758Y149223
X83260Y153623
X90757Y139623
X75258Y165151
X78958Y165023
X83858Y155464
X80358Y161623
X78758Y157823
X72858Y161523
X73309Y154864
X76258Y157823
X76258Y154864
X78758Y154864
X62607Y144523
X85958Y163423
X86858Y141150
X108757Y142623
X84758Y164923
X75758Y165323
X84558Y165623
X76258Y165723
X73258Y160923
X73258Y162123
X88157Y155323
X72216Y154223
X72258Y149923
X89511Y166982
X88899Y145093
X89057Y166982
X68058Y167023
X69489Y150031
X87457Y166982
X87557Y146723
X88557Y166982
X88557Y142423
X88057Y166982
X88057Y148723
X90057Y166982
X69058Y167453
X69616Y153323
X104576Y169031
X83158Y160123
X92571Y169706
X92671Y160177
X104257Y168523
X82208Y160873
X92063Y169423
X92357Y160545
X112177Y164083
X112107Y164473
X112187Y163703
X31666Y33300
X21694Y37044
X14750Y9500
X20550Y10000
X31454Y34841
X41200Y18715
X45772Y33528
X48185Y34163
X41200Y34344
X47169Y16129
X36650Y18588
X8750Y31000
X10750Y28100
X15750Y30000
X16750Y30000
X16750Y31000
X15750Y31000
X12650Y33800
X12650Y34400
X9050Y36400
X11750Y39400
X19850Y38700
X23550Y37300
X27050Y33000
X25550Y31800
X28250Y30000
X21950Y27200
X7750Y29000
X3250Y35300
X5050Y34600
X6650Y7500
X9850Y7600
X23750Y8000
X24350Y7100
X28750Y10400
X29750Y16000
X31750Y16000
X32750Y11500
X36750Y14800
X38550Y14800
X41750Y12000
X43750Y12000
X46750Y12000
X48950Y9400
X51750Y12000
X48750Y5000
X42750Y5000
X37750Y6000
X34750Y1000
X15350Y13100
X15350Y14900
X16350Y14900
X16435Y13462
X17832Y13462
X20150Y17100
X17750Y17200
X16450Y17200
X15250Y17200
X30150Y21700
X45548Y38402
X48718Y38021
X50850Y33600
X51490Y33600
X53750Y33600
X54750Y33600
X54750Y32300
X41588Y33854
X39950Y33600
X38450Y33600
X36750Y33600
X35450Y33600
X33750Y33600
X32890Y33500
X35190Y32135
X31661Y31840
X32396Y27865
X32750Y17700
X32950Y16700
X34250Y16400
X35750Y16400
X36750Y16300
X37750Y16300
X38750Y16300
X50850Y16400
X51750Y16500
X52750Y16500
X53750Y16500
X54750Y16500
X54750Y17400
X47950Y19800
X37450Y19800
X35250Y19800
X50050Y30700
X47950Y30700
X45850Y30700
X43750Y30700
X41650Y30700
X39550Y30700
X37450Y30700
X35250Y30700
X50050Y29800
X47950Y29800
X45850Y29800
X41650Y29800
X39550Y29800
X37450Y29800
X35250Y29800
X52250Y29800
X50050Y28800
X47950Y28800
X45850Y28800
X41650Y28800
X39550Y28800
X37450Y28800
X35250Y28800
X52250Y28800
X50050Y27800
X47950Y27800
X45850Y27800
X43750Y27800
X41650Y27800
X39550Y27800
X37450Y27800
X35250Y27800
X52250Y27800
X50050Y26800
X47950Y26800
X45850Y26800
X43750Y26800
X41650Y26800
X39550Y26800
X37450Y26800
X35250Y26800
X52250Y26800
X50050Y25800
X107957Y158323
M30