G04 EAGLE Gerber RS-274X export*
G75*
%MOMM*%
%FSLAX34Y34*%
%LPD*%
%INSoldermask Top*%
%IPPOS*%
%AMOC8*
5,1,8,0,0,1.08239X$1,22.5*%
G01*
%ADD10C,0.838200*%
%ADD11C,0.505344*%
%ADD12R,1.203200X1.303200*%
%ADD13R,1.103200X1.053200*%
%ADD14R,1.303200X1.203200*%
%ADD15R,0.803200X0.803200*%
%ADD16R,1.053200X1.723200*%
%ADD17R,1.723200X1.053200*%
%ADD18R,1.303200X1.303200*%
%ADD19R,0.620000X0.840000*%
%ADD20R,0.620000X0.560000*%
%ADD21R,0.640000X0.840000*%
%ADD22C,2.082800*%
%ADD23R,1.053200X2.403200*%
%ADD24R,1.203200X1.253200*%
%ADD25R,0.803200X1.403200*%
%ADD26R,0.503200X1.003200*%
%ADD27R,0.603200X1.003200*%
%ADD28R,1.403200X0.753200*%
%ADD29R,1.703200X1.103200*%
%ADD30R,1.103200X1.703200*%
%ADD31R,1.533200X1.533200*%
%ADD32R,1.473200X0.838200*%
%ADD33C,1.203200*%
%ADD34C,1.270000*%
%ADD35C,1.703200*%


D10*
X580000Y10000D03*
X5000Y390000D03*
D11*
X31510Y254720D02*
X38490Y254720D01*
X38490Y247740D01*
X31510Y247740D01*
X31510Y254720D01*
X31510Y252540D02*
X38490Y252540D01*
X38490Y272260D02*
X31510Y272260D01*
X38490Y272260D02*
X38490Y265280D01*
X31510Y265280D01*
X31510Y272260D01*
X31510Y270080D02*
X38490Y270080D01*
D12*
X55000Y268500D03*
X55000Y251500D03*
X505000Y131500D03*
X505000Y148500D03*
X485000Y131500D03*
X485000Y148500D03*
D13*
X470000Y345200D03*
X470000Y356800D03*
D14*
X454500Y346000D03*
X437500Y346000D03*
D12*
X465000Y131500D03*
X465000Y148500D03*
D15*
X495000Y344000D03*
X485000Y344000D03*
D16*
X506500Y324500D03*
X495500Y324500D03*
X484500Y324500D03*
X473500Y324500D03*
X462500Y324500D03*
X451500Y324500D03*
X440500Y324500D03*
X429500Y324500D03*
X418500Y324500D03*
X407500Y324500D03*
X396500Y324500D03*
X385500Y324500D03*
X374500Y324500D03*
X363500Y324500D03*
D17*
X335500Y316000D03*
X335500Y305000D03*
X335500Y294000D03*
X335500Y283000D03*
X335500Y272000D03*
X335500Y261000D03*
X335500Y250000D03*
X335500Y239000D03*
X335500Y228000D03*
X335500Y217000D03*
X335500Y206000D03*
X335500Y195000D03*
X335500Y184000D03*
D16*
X363500Y175500D03*
X374500Y175500D03*
X385500Y175500D03*
X396500Y175500D03*
X407500Y175500D03*
X418500Y175500D03*
X429500Y175500D03*
X440500Y175500D03*
X451500Y175500D03*
X462500Y175500D03*
X473500Y175500D03*
X484500Y175500D03*
X495500Y175500D03*
X506500Y175500D03*
D17*
X534500Y184000D03*
X534500Y195000D03*
X534500Y206000D03*
X534500Y217000D03*
X534500Y228000D03*
X534500Y239000D03*
X534500Y250000D03*
X534500Y261000D03*
X534500Y272000D03*
X534500Y283000D03*
X534500Y294000D03*
X534500Y305000D03*
X534500Y316000D03*
D18*
X445500Y260500D03*
X466500Y260500D03*
X487500Y260500D03*
X508500Y260500D03*
X445500Y281000D03*
X466500Y281000D03*
X487500Y281000D03*
X508500Y281000D03*
X445500Y301500D03*
X466500Y301500D03*
X487500Y301500D03*
X508500Y301500D03*
X445500Y198500D03*
X466500Y198500D03*
X487500Y198500D03*
X508500Y198500D03*
X445500Y219000D03*
X466500Y219000D03*
X487500Y219000D03*
X508500Y219000D03*
X445500Y239500D03*
X466500Y239500D03*
X487500Y239500D03*
X508500Y239500D03*
X424500Y239500D03*
X403500Y239500D03*
X382500Y239500D03*
X361500Y239500D03*
X424500Y219000D03*
X403500Y219000D03*
X382500Y219000D03*
X361500Y219000D03*
X424500Y198500D03*
X403500Y198500D03*
X382500Y198500D03*
X361500Y198500D03*
X424500Y301500D03*
X403500Y301500D03*
X382500Y301500D03*
X361500Y301500D03*
X424500Y281000D03*
X403500Y281000D03*
X382500Y281000D03*
X361500Y281000D03*
X424500Y260500D03*
X403500Y260500D03*
X382500Y260500D03*
X361500Y260500D03*
D12*
X415000Y148500D03*
X415000Y131500D03*
X435000Y131500D03*
X435000Y148500D03*
D19*
X564900Y222000D03*
D20*
X564900Y214000D03*
X564900Y206000D03*
D19*
X551700Y222000D03*
D20*
X551700Y214000D03*
X551700Y206000D03*
D21*
X551800Y198000D03*
D19*
X564900Y198000D03*
X564900Y292000D03*
D20*
X564900Y284000D03*
X564900Y276000D03*
D19*
X551700Y292000D03*
D20*
X551700Y284000D03*
X551700Y276000D03*
D21*
X551800Y268000D03*
D19*
X564900Y268000D03*
D12*
X545000Y148500D03*
X545000Y131500D03*
X295000Y91500D03*
X295000Y108500D03*
X275000Y91500D03*
X275000Y108500D03*
D19*
X311900Y272000D03*
D20*
X311900Y264000D03*
X311900Y256000D03*
D19*
X298700Y272000D03*
D20*
X298700Y264000D03*
X298700Y256000D03*
D21*
X298800Y248000D03*
D19*
X311900Y248000D03*
D22*
X275000Y70000D03*
X300400Y70000D03*
D12*
X515000Y91500D03*
X515000Y108500D03*
X455000Y108500D03*
X455000Y91500D03*
D23*
X508750Y370000D03*
X481250Y370000D03*
D24*
X495000Y354750D03*
X495000Y385250D03*
D22*
X377700Y100000D03*
X352300Y100000D03*
D25*
X219450Y338000D03*
X206750Y338000D03*
X194050Y338000D03*
X181350Y338000D03*
X168650Y338000D03*
X155950Y338000D03*
X143250Y338000D03*
X130550Y338000D03*
X130550Y282000D03*
X143250Y282000D03*
X155950Y282000D03*
X168650Y282000D03*
X181350Y282000D03*
X194050Y282000D03*
X206750Y282000D03*
X219450Y282000D03*
D12*
X245100Y301500D03*
X245100Y318500D03*
D26*
X142500Y356500D03*
X137500Y356500D03*
D27*
X152500Y381500D03*
X77500Y381500D03*
D26*
X132500Y356500D03*
X127500Y356500D03*
X122500Y356500D03*
X117500Y356500D03*
X112500Y356500D03*
X107500Y356500D03*
X102500Y356500D03*
X97500Y356500D03*
X92500Y356500D03*
X87500Y356500D03*
X232500Y356500D03*
X227500Y356500D03*
D27*
X242500Y381500D03*
X167500Y381500D03*
D26*
X222500Y356500D03*
X217500Y356500D03*
X212500Y356500D03*
X207500Y356500D03*
X202500Y356500D03*
X197500Y356500D03*
X192500Y356500D03*
X187500Y356500D03*
X182500Y356500D03*
X177500Y356500D03*
D28*
X498001Y90500D03*
X498001Y100000D03*
X498001Y109500D03*
X471999Y109500D03*
X471999Y90500D03*
D22*
X542000Y104000D03*
X567400Y104000D03*
D26*
X412500Y356500D03*
X407500Y356500D03*
D27*
X422500Y381500D03*
X347500Y381500D03*
D26*
X402500Y356500D03*
X397500Y356500D03*
X392500Y356500D03*
X387500Y356500D03*
X382500Y356500D03*
X377500Y356500D03*
X372500Y356500D03*
X367500Y356500D03*
X362500Y356500D03*
X357500Y356500D03*
D29*
X255000Y77000D03*
X255000Y89700D03*
X255000Y102400D03*
X255000Y115100D03*
X255000Y127800D03*
X255000Y140500D03*
X255000Y153200D03*
X255000Y165900D03*
X255000Y178600D03*
X255000Y191300D03*
X255000Y204000D03*
X255000Y216700D03*
X255000Y229400D03*
X255000Y242100D03*
D30*
X222150Y257000D03*
X209450Y257000D03*
X196750Y257000D03*
X184050Y257000D03*
X171350Y257000D03*
X158650Y257000D03*
X145950Y257000D03*
X133250Y257000D03*
X120550Y257000D03*
X107850Y257000D03*
D29*
X75000Y242100D03*
X75000Y229400D03*
X75000Y216700D03*
X75000Y204000D03*
X75000Y191300D03*
X75000Y178600D03*
X75000Y165900D03*
X75000Y153200D03*
X75000Y140500D03*
X75000Y127800D03*
X75000Y115100D03*
X75000Y102400D03*
X75000Y89700D03*
X75000Y77000D03*
D31*
X180150Y150210D03*
X161700Y132000D03*
X180000Y132000D03*
X198300Y132000D03*
X198300Y150300D03*
X161600Y150000D03*
X161700Y168600D03*
X180000Y168700D03*
X198300Y168600D03*
D32*
X95000Y295936D03*
X95000Y304064D03*
X95000Y325936D03*
X95000Y334064D03*
D22*
X515000Y60000D03*
D33*
X31350Y177300D03*
X31350Y190000D03*
X31350Y202700D03*
X31350Y215400D03*
X31350Y164600D03*
X18650Y177300D03*
X18650Y190000D03*
X18650Y202700D03*
X18650Y215400D03*
X18650Y164600D03*
D12*
X35000Y81500D03*
X35000Y98500D03*
X35000Y121500D03*
X35000Y138500D03*
D26*
X322500Y356500D03*
X317500Y356500D03*
D27*
X332500Y381500D03*
X257500Y381500D03*
D26*
X312500Y356500D03*
X307500Y356500D03*
X302500Y356500D03*
X297500Y356500D03*
X292500Y356500D03*
X287500Y356500D03*
X282500Y356500D03*
X277500Y356500D03*
X272500Y356500D03*
X267500Y356500D03*
D10*
X1175071Y10000D03*
X600071Y390000D03*
D11*
X626581Y254720D02*
X633561Y254720D01*
X633561Y247740D01*
X626581Y247740D01*
X626581Y254720D01*
X626581Y252540D02*
X633561Y252540D01*
X633561Y272260D02*
X626581Y272260D01*
X633561Y272260D02*
X633561Y265280D01*
X626581Y265280D01*
X626581Y272260D01*
X626581Y270080D02*
X633561Y270080D01*
D12*
X650071Y268500D03*
X650071Y251500D03*
X1100071Y131500D03*
X1100071Y148500D03*
X1080071Y131500D03*
X1080071Y148500D03*
D13*
X1065071Y345200D03*
X1065071Y356800D03*
D14*
X1049571Y346000D03*
X1032571Y346000D03*
D12*
X1060071Y131500D03*
X1060071Y148500D03*
D15*
X1090071Y344000D03*
X1080071Y344000D03*
D16*
X1101571Y324500D03*
X1090571Y324500D03*
X1079571Y324500D03*
X1068571Y324500D03*
X1057571Y324500D03*
X1046571Y324500D03*
X1035571Y324500D03*
X1024571Y324500D03*
X1013571Y324500D03*
X1002571Y324500D03*
X991571Y324500D03*
X980571Y324500D03*
X969571Y324500D03*
X958571Y324500D03*
D17*
X930571Y316000D03*
X930571Y305000D03*
X930571Y294000D03*
X930571Y283000D03*
X930571Y272000D03*
X930571Y261000D03*
X930571Y250000D03*
X930571Y239000D03*
X930571Y228000D03*
X930571Y217000D03*
X930571Y206000D03*
X930571Y195000D03*
X930571Y184000D03*
D16*
X958571Y175500D03*
X969571Y175500D03*
X980571Y175500D03*
X991571Y175500D03*
X1002571Y175500D03*
X1013571Y175500D03*
X1024571Y175500D03*
X1035571Y175500D03*
X1046571Y175500D03*
X1057571Y175500D03*
X1068571Y175500D03*
X1079571Y175500D03*
X1090571Y175500D03*
X1101571Y175500D03*
D17*
X1129571Y184000D03*
X1129571Y195000D03*
X1129571Y206000D03*
X1129571Y217000D03*
X1129571Y228000D03*
X1129571Y239000D03*
X1129571Y250000D03*
X1129571Y261000D03*
X1129571Y272000D03*
X1129571Y283000D03*
X1129571Y294000D03*
X1129571Y305000D03*
X1129571Y316000D03*
D18*
X1040571Y260500D03*
X1061571Y260500D03*
X1082571Y260500D03*
X1103571Y260500D03*
X1040571Y281000D03*
X1061571Y281000D03*
X1082571Y281000D03*
X1103571Y281000D03*
X1040571Y301500D03*
X1061571Y301500D03*
X1082571Y301500D03*
X1103571Y301500D03*
X1040571Y198500D03*
X1061571Y198500D03*
X1082571Y198500D03*
X1103571Y198500D03*
X1040571Y219000D03*
X1061571Y219000D03*
X1082571Y219000D03*
X1103571Y219000D03*
X1040571Y239500D03*
X1061571Y239500D03*
X1082571Y239500D03*
X1103571Y239500D03*
X1019571Y239500D03*
X998571Y239500D03*
X977571Y239500D03*
X956571Y239500D03*
X1019571Y219000D03*
X998571Y219000D03*
X977571Y219000D03*
X956571Y219000D03*
X1019571Y198500D03*
X998571Y198500D03*
X977571Y198500D03*
X956571Y198500D03*
X1019571Y301500D03*
X998571Y301500D03*
X977571Y301500D03*
X956571Y301500D03*
X1019571Y281000D03*
X998571Y281000D03*
X977571Y281000D03*
X956571Y281000D03*
X1019571Y260500D03*
X998571Y260500D03*
X977571Y260500D03*
X956571Y260500D03*
D12*
X1010071Y148500D03*
X1010071Y131500D03*
X1030071Y131500D03*
X1030071Y148500D03*
D19*
X1159971Y222000D03*
D20*
X1159971Y214000D03*
X1159971Y206000D03*
D19*
X1146771Y222000D03*
D20*
X1146771Y214000D03*
X1146771Y206000D03*
D21*
X1146871Y198000D03*
D19*
X1159971Y198000D03*
X1159971Y292000D03*
D20*
X1159971Y284000D03*
X1159971Y276000D03*
D19*
X1146771Y292000D03*
D20*
X1146771Y284000D03*
X1146771Y276000D03*
D21*
X1146871Y268000D03*
D19*
X1159971Y268000D03*
D12*
X1140071Y148500D03*
X1140071Y131500D03*
X890071Y91500D03*
X890071Y108500D03*
X870071Y91500D03*
X870071Y108500D03*
D19*
X906971Y272000D03*
D20*
X906971Y264000D03*
X906971Y256000D03*
D19*
X893771Y272000D03*
D20*
X893771Y264000D03*
X893771Y256000D03*
D21*
X893871Y248000D03*
D19*
X906971Y248000D03*
D22*
X870071Y70000D03*
X895471Y70000D03*
D12*
X1110071Y91500D03*
X1110071Y108500D03*
X1050071Y108500D03*
X1050071Y91500D03*
D23*
X1103821Y370000D03*
X1076321Y370000D03*
D24*
X1090071Y354750D03*
X1090071Y385250D03*
D22*
X972771Y100000D03*
X947371Y100000D03*
D25*
X814521Y338000D03*
X801821Y338000D03*
X789121Y338000D03*
X776421Y338000D03*
X763721Y338000D03*
X751021Y338000D03*
X738321Y338000D03*
X725621Y338000D03*
X725621Y282000D03*
X738321Y282000D03*
X751021Y282000D03*
X763721Y282000D03*
X776421Y282000D03*
X789121Y282000D03*
X801821Y282000D03*
X814521Y282000D03*
D12*
X840171Y301500D03*
X840171Y318500D03*
D26*
X737571Y356500D03*
X732571Y356500D03*
D27*
X747571Y381500D03*
X672571Y381500D03*
D26*
X727571Y356500D03*
X722571Y356500D03*
X717571Y356500D03*
X712571Y356500D03*
X707571Y356500D03*
X702571Y356500D03*
X697571Y356500D03*
X692571Y356500D03*
X687571Y356500D03*
X682571Y356500D03*
X827571Y356500D03*
X822571Y356500D03*
D27*
X837571Y381500D03*
X762571Y381500D03*
D26*
X817571Y356500D03*
X812571Y356500D03*
X807571Y356500D03*
X802571Y356500D03*
X797571Y356500D03*
X792571Y356500D03*
X787571Y356500D03*
X782571Y356500D03*
X777571Y356500D03*
X772571Y356500D03*
D28*
X1093072Y90500D03*
X1093072Y100000D03*
X1093072Y109500D03*
X1067070Y109500D03*
X1067070Y90500D03*
D22*
X1137071Y104000D03*
X1162471Y104000D03*
D26*
X1007571Y356500D03*
X1002571Y356500D03*
D27*
X1017571Y381500D03*
X942571Y381500D03*
D26*
X997571Y356500D03*
X992571Y356500D03*
X987571Y356500D03*
X982571Y356500D03*
X977571Y356500D03*
X972571Y356500D03*
X967571Y356500D03*
X962571Y356500D03*
X957571Y356500D03*
X952571Y356500D03*
D29*
X850071Y77000D03*
X850071Y89700D03*
X850071Y102400D03*
X850071Y115100D03*
X850071Y127800D03*
X850071Y140500D03*
X850071Y153200D03*
X850071Y165900D03*
X850071Y178600D03*
X850071Y191300D03*
X850071Y204000D03*
X850071Y216700D03*
X850071Y229400D03*
X850071Y242100D03*
D30*
X817221Y257000D03*
X804521Y257000D03*
X791821Y257000D03*
X779121Y257000D03*
X766421Y257000D03*
X753721Y257000D03*
X741021Y257000D03*
X728321Y257000D03*
X715621Y257000D03*
X702921Y257000D03*
D29*
X670071Y242100D03*
X670071Y229400D03*
X670071Y216700D03*
X670071Y204000D03*
X670071Y191300D03*
X670071Y178600D03*
X670071Y165900D03*
X670071Y153200D03*
X670071Y140500D03*
X670071Y127800D03*
X670071Y115100D03*
X670071Y102400D03*
X670071Y89700D03*
X670071Y77000D03*
D31*
X775221Y150210D03*
X756771Y132000D03*
X775071Y132000D03*
X793371Y132000D03*
X793371Y150300D03*
X756671Y150000D03*
X756771Y168600D03*
X775071Y168700D03*
X793371Y168600D03*
D32*
X690071Y295936D03*
X690071Y304064D03*
X690071Y325936D03*
X690071Y334064D03*
D22*
X1110071Y60000D03*
D33*
X626421Y177300D03*
X626421Y190000D03*
X626421Y202700D03*
X626421Y215400D03*
X626421Y164600D03*
X613721Y177300D03*
X613721Y190000D03*
X613721Y202700D03*
X613721Y215400D03*
X613721Y164600D03*
D12*
X630071Y81500D03*
X630071Y98500D03*
X630071Y121500D03*
X630071Y138500D03*
D26*
X917571Y356500D03*
X912571Y356500D03*
D27*
X927571Y381500D03*
X852571Y381500D03*
D26*
X907571Y356500D03*
X902571Y356500D03*
X897571Y356500D03*
X892571Y356500D03*
X887571Y356500D03*
X882571Y356500D03*
X877571Y356500D03*
X872571Y356500D03*
X867571Y356500D03*
X862571Y356500D03*
D10*
X580000Y445077D03*
X5000Y825077D03*
D11*
X31510Y689797D02*
X38490Y689797D01*
X38490Y682817D01*
X31510Y682817D01*
X31510Y689797D01*
X31510Y687617D02*
X38490Y687617D01*
X38490Y707337D02*
X31510Y707337D01*
X38490Y707337D02*
X38490Y700357D01*
X31510Y700357D01*
X31510Y707337D01*
X31510Y705157D02*
X38490Y705157D01*
D12*
X55000Y703577D03*
X55000Y686577D03*
X505000Y566577D03*
X505000Y583577D03*
X485000Y566577D03*
X485000Y583577D03*
D13*
X470000Y780277D03*
X470000Y791877D03*
D14*
X454500Y781077D03*
X437500Y781077D03*
D12*
X465000Y566577D03*
X465000Y583577D03*
D15*
X495000Y779077D03*
X485000Y779077D03*
D16*
X506500Y759577D03*
X495500Y759577D03*
X484500Y759577D03*
X473500Y759577D03*
X462500Y759577D03*
X451500Y759577D03*
X440500Y759577D03*
X429500Y759577D03*
X418500Y759577D03*
X407500Y759577D03*
X396500Y759577D03*
X385500Y759577D03*
X374500Y759577D03*
X363500Y759577D03*
D17*
X335500Y751077D03*
X335500Y740077D03*
X335500Y729077D03*
X335500Y718077D03*
X335500Y707077D03*
X335500Y696077D03*
X335500Y685077D03*
X335500Y674077D03*
X335500Y663077D03*
X335500Y652077D03*
X335500Y641077D03*
X335500Y630077D03*
X335500Y619077D03*
D16*
X363500Y610577D03*
X374500Y610577D03*
X385500Y610577D03*
X396500Y610577D03*
X407500Y610577D03*
X418500Y610577D03*
X429500Y610577D03*
X440500Y610577D03*
X451500Y610577D03*
X462500Y610577D03*
X473500Y610577D03*
X484500Y610577D03*
X495500Y610577D03*
X506500Y610577D03*
D17*
X534500Y619077D03*
X534500Y630077D03*
X534500Y641077D03*
X534500Y652077D03*
X534500Y663077D03*
X534500Y674077D03*
X534500Y685077D03*
X534500Y696077D03*
X534500Y707077D03*
X534500Y718077D03*
X534500Y729077D03*
X534500Y740077D03*
X534500Y751077D03*
D18*
X445500Y695577D03*
X466500Y695577D03*
X487500Y695577D03*
X508500Y695577D03*
X445500Y716077D03*
X466500Y716077D03*
X487500Y716077D03*
X508500Y716077D03*
X445500Y736577D03*
X466500Y736577D03*
X487500Y736577D03*
X508500Y736577D03*
X445500Y633577D03*
X466500Y633577D03*
X487500Y633577D03*
X508500Y633577D03*
X445500Y654077D03*
X466500Y654077D03*
X487500Y654077D03*
X508500Y654077D03*
X445500Y674577D03*
X466500Y674577D03*
X487500Y674577D03*
X508500Y674577D03*
X424500Y674577D03*
X403500Y674577D03*
X382500Y674577D03*
X361500Y674577D03*
X424500Y654077D03*
X403500Y654077D03*
X382500Y654077D03*
X361500Y654077D03*
X424500Y633577D03*
X403500Y633577D03*
X382500Y633577D03*
X361500Y633577D03*
X424500Y736577D03*
X403500Y736577D03*
X382500Y736577D03*
X361500Y736577D03*
X424500Y716077D03*
X403500Y716077D03*
X382500Y716077D03*
X361500Y716077D03*
X424500Y695577D03*
X403500Y695577D03*
X382500Y695577D03*
X361500Y695577D03*
D12*
X415000Y583577D03*
X415000Y566577D03*
X435000Y566577D03*
X435000Y583577D03*
D19*
X564900Y657077D03*
D20*
X564900Y649077D03*
X564900Y641077D03*
D19*
X551700Y657077D03*
D20*
X551700Y649077D03*
X551700Y641077D03*
D21*
X551800Y633077D03*
D19*
X564900Y633077D03*
X564900Y727077D03*
D20*
X564900Y719077D03*
X564900Y711077D03*
D19*
X551700Y727077D03*
D20*
X551700Y719077D03*
X551700Y711077D03*
D21*
X551800Y703077D03*
D19*
X564900Y703077D03*
D12*
X545000Y583577D03*
X545000Y566577D03*
X295000Y526577D03*
X295000Y543577D03*
X275000Y526577D03*
X275000Y543577D03*
D19*
X311900Y707077D03*
D20*
X311900Y699077D03*
X311900Y691077D03*
D19*
X298700Y707077D03*
D20*
X298700Y699077D03*
X298700Y691077D03*
D21*
X298800Y683077D03*
D19*
X311900Y683077D03*
D22*
X275000Y505077D03*
X300400Y505077D03*
D12*
X515000Y526577D03*
X515000Y543577D03*
X455000Y543577D03*
X455000Y526577D03*
D23*
X508750Y805077D03*
X481250Y805077D03*
D24*
X495000Y789827D03*
X495000Y820327D03*
D22*
X377700Y535077D03*
X352300Y535077D03*
D25*
X219450Y773077D03*
X206750Y773077D03*
X194050Y773077D03*
X181350Y773077D03*
X168650Y773077D03*
X155950Y773077D03*
X143250Y773077D03*
X130550Y773077D03*
X130550Y717077D03*
X143250Y717077D03*
X155950Y717077D03*
X168650Y717077D03*
X181350Y717077D03*
X194050Y717077D03*
X206750Y717077D03*
X219450Y717077D03*
D12*
X245100Y736577D03*
X245100Y753577D03*
D26*
X142500Y791577D03*
X137500Y791577D03*
D27*
X152500Y816577D03*
X77500Y816577D03*
D26*
X132500Y791577D03*
X127500Y791577D03*
X122500Y791577D03*
X117500Y791577D03*
X112500Y791577D03*
X107500Y791577D03*
X102500Y791577D03*
X97500Y791577D03*
X92500Y791577D03*
X87500Y791577D03*
X232500Y791577D03*
X227500Y791577D03*
D27*
X242500Y816577D03*
X167500Y816577D03*
D26*
X222500Y791577D03*
X217500Y791577D03*
X212500Y791577D03*
X207500Y791577D03*
X202500Y791577D03*
X197500Y791577D03*
X192500Y791577D03*
X187500Y791577D03*
X182500Y791577D03*
X177500Y791577D03*
D28*
X498001Y525577D03*
X498001Y535077D03*
X498001Y544577D03*
X471999Y544577D03*
X471999Y525577D03*
D22*
X542000Y539077D03*
X567400Y539077D03*
D26*
X412500Y791577D03*
X407500Y791577D03*
D27*
X422500Y816577D03*
X347500Y816577D03*
D26*
X402500Y791577D03*
X397500Y791577D03*
X392500Y791577D03*
X387500Y791577D03*
X382500Y791577D03*
X377500Y791577D03*
X372500Y791577D03*
X367500Y791577D03*
X362500Y791577D03*
X357500Y791577D03*
D29*
X255000Y512077D03*
X255000Y524777D03*
X255000Y537477D03*
X255000Y550177D03*
X255000Y562877D03*
X255000Y575577D03*
X255000Y588277D03*
X255000Y600977D03*
X255000Y613677D03*
X255000Y626377D03*
X255000Y639077D03*
X255000Y651777D03*
X255000Y664477D03*
X255000Y677177D03*
D30*
X222150Y692077D03*
X209450Y692077D03*
X196750Y692077D03*
X184050Y692077D03*
X171350Y692077D03*
X158650Y692077D03*
X145950Y692077D03*
X133250Y692077D03*
X120550Y692077D03*
X107850Y692077D03*
D29*
X75000Y677177D03*
X75000Y664477D03*
X75000Y651777D03*
X75000Y639077D03*
X75000Y626377D03*
X75000Y613677D03*
X75000Y600977D03*
X75000Y588277D03*
X75000Y575577D03*
X75000Y562877D03*
X75000Y550177D03*
X75000Y537477D03*
X75000Y524777D03*
X75000Y512077D03*
D31*
X180150Y585287D03*
X161700Y567077D03*
X180000Y567077D03*
X198300Y567077D03*
X198300Y585377D03*
X161600Y585077D03*
X161700Y603677D03*
X180000Y603777D03*
X198300Y603677D03*
D32*
X95000Y731013D03*
X95000Y739141D03*
X95000Y761013D03*
X95000Y769141D03*
D22*
X515000Y495077D03*
D33*
X31350Y612377D03*
X31350Y625077D03*
X31350Y637777D03*
X31350Y650477D03*
X31350Y599677D03*
X18650Y612377D03*
X18650Y625077D03*
X18650Y637777D03*
X18650Y650477D03*
X18650Y599677D03*
D12*
X35000Y516577D03*
X35000Y533577D03*
X35000Y556577D03*
X35000Y573577D03*
D26*
X322500Y791577D03*
X317500Y791577D03*
D27*
X332500Y816577D03*
X257500Y816577D03*
D26*
X312500Y791577D03*
X307500Y791577D03*
X302500Y791577D03*
X297500Y791577D03*
X292500Y791577D03*
X287500Y791577D03*
X282500Y791577D03*
X277500Y791577D03*
X272500Y791577D03*
X267500Y791577D03*
D10*
X1175071Y445077D03*
X600071Y825077D03*
D11*
X626581Y689797D02*
X633561Y689797D01*
X633561Y682817D01*
X626581Y682817D01*
X626581Y689797D01*
X626581Y687617D02*
X633561Y687617D01*
X633561Y707337D02*
X626581Y707337D01*
X633561Y707337D02*
X633561Y700357D01*
X626581Y700357D01*
X626581Y707337D01*
X626581Y705157D02*
X633561Y705157D01*
D12*
X650071Y703577D03*
X650071Y686577D03*
X1100071Y566577D03*
X1100071Y583577D03*
X1080071Y566577D03*
X1080071Y583577D03*
D13*
X1065071Y780277D03*
X1065071Y791877D03*
D14*
X1049571Y781077D03*
X1032571Y781077D03*
D12*
X1060071Y566577D03*
X1060071Y583577D03*
D15*
X1090071Y779077D03*
X1080071Y779077D03*
D16*
X1101571Y759577D03*
X1090571Y759577D03*
X1079571Y759577D03*
X1068571Y759577D03*
X1057571Y759577D03*
X1046571Y759577D03*
X1035571Y759577D03*
X1024571Y759577D03*
X1013571Y759577D03*
X1002571Y759577D03*
X991571Y759577D03*
X980571Y759577D03*
X969571Y759577D03*
X958571Y759577D03*
D17*
X930571Y751077D03*
X930571Y740077D03*
X930571Y729077D03*
X930571Y718077D03*
X930571Y707077D03*
X930571Y696077D03*
X930571Y685077D03*
X930571Y674077D03*
X930571Y663077D03*
X930571Y652077D03*
X930571Y641077D03*
X930571Y630077D03*
X930571Y619077D03*
D16*
X958571Y610577D03*
X969571Y610577D03*
X980571Y610577D03*
X991571Y610577D03*
X1002571Y610577D03*
X1013571Y610577D03*
X1024571Y610577D03*
X1035571Y610577D03*
X1046571Y610577D03*
X1057571Y610577D03*
X1068571Y610577D03*
X1079571Y610577D03*
X1090571Y610577D03*
X1101571Y610577D03*
D17*
X1129571Y619077D03*
X1129571Y630077D03*
X1129571Y641077D03*
X1129571Y652077D03*
X1129571Y663077D03*
X1129571Y674077D03*
X1129571Y685077D03*
X1129571Y696077D03*
X1129571Y707077D03*
X1129571Y718077D03*
X1129571Y729077D03*
X1129571Y740077D03*
X1129571Y751077D03*
D18*
X1040571Y695577D03*
X1061571Y695577D03*
X1082571Y695577D03*
X1103571Y695577D03*
X1040571Y716077D03*
X1061571Y716077D03*
X1082571Y716077D03*
X1103571Y716077D03*
X1040571Y736577D03*
X1061571Y736577D03*
X1082571Y736577D03*
X1103571Y736577D03*
X1040571Y633577D03*
X1061571Y633577D03*
X1082571Y633577D03*
X1103571Y633577D03*
X1040571Y654077D03*
X1061571Y654077D03*
X1082571Y654077D03*
X1103571Y654077D03*
X1040571Y674577D03*
X1061571Y674577D03*
X1082571Y674577D03*
X1103571Y674577D03*
X1019571Y674577D03*
X998571Y674577D03*
X977571Y674577D03*
X956571Y674577D03*
X1019571Y654077D03*
X998571Y654077D03*
X977571Y654077D03*
X956571Y654077D03*
X1019571Y633577D03*
X998571Y633577D03*
X977571Y633577D03*
X956571Y633577D03*
X1019571Y736577D03*
X998571Y736577D03*
X977571Y736577D03*
X956571Y736577D03*
X1019571Y716077D03*
X998571Y716077D03*
X977571Y716077D03*
X956571Y716077D03*
X1019571Y695577D03*
X998571Y695577D03*
X977571Y695577D03*
X956571Y695577D03*
D12*
X1010071Y583577D03*
X1010071Y566577D03*
X1030071Y566577D03*
X1030071Y583577D03*
D19*
X1159971Y657077D03*
D20*
X1159971Y649077D03*
X1159971Y641077D03*
D19*
X1146771Y657077D03*
D20*
X1146771Y649077D03*
X1146771Y641077D03*
D21*
X1146871Y633077D03*
D19*
X1159971Y633077D03*
X1159971Y727077D03*
D20*
X1159971Y719077D03*
X1159971Y711077D03*
D19*
X1146771Y727077D03*
D20*
X1146771Y719077D03*
X1146771Y711077D03*
D21*
X1146871Y703077D03*
D19*
X1159971Y703077D03*
D12*
X1140071Y583577D03*
X1140071Y566577D03*
X890071Y526577D03*
X890071Y543577D03*
X870071Y526577D03*
X870071Y543577D03*
D19*
X906971Y707077D03*
D20*
X906971Y699077D03*
X906971Y691077D03*
D19*
X893771Y707077D03*
D20*
X893771Y699077D03*
X893771Y691077D03*
D21*
X893871Y683077D03*
D19*
X906971Y683077D03*
D22*
X870071Y505077D03*
X895471Y505077D03*
D12*
X1110071Y526577D03*
X1110071Y543577D03*
X1050071Y543577D03*
X1050071Y526577D03*
D23*
X1103821Y805077D03*
X1076321Y805077D03*
D24*
X1090071Y789827D03*
X1090071Y820327D03*
D22*
X972771Y535077D03*
X947371Y535077D03*
D25*
X814521Y773077D03*
X801821Y773077D03*
X789121Y773077D03*
X776421Y773077D03*
X763721Y773077D03*
X751021Y773077D03*
X738321Y773077D03*
X725621Y773077D03*
X725621Y717077D03*
X738321Y717077D03*
X751021Y717077D03*
X763721Y717077D03*
X776421Y717077D03*
X789121Y717077D03*
X801821Y717077D03*
X814521Y717077D03*
D12*
X840171Y736577D03*
X840171Y753577D03*
D26*
X737571Y791577D03*
X732571Y791577D03*
D27*
X747571Y816577D03*
X672571Y816577D03*
D26*
X727571Y791577D03*
X722571Y791577D03*
X717571Y791577D03*
X712571Y791577D03*
X707571Y791577D03*
X702571Y791577D03*
X697571Y791577D03*
X692571Y791577D03*
X687571Y791577D03*
X682571Y791577D03*
X827571Y791577D03*
X822571Y791577D03*
D27*
X837571Y816577D03*
X762571Y816577D03*
D26*
X817571Y791577D03*
X812571Y791577D03*
X807571Y791577D03*
X802571Y791577D03*
X797571Y791577D03*
X792571Y791577D03*
X787571Y791577D03*
X782571Y791577D03*
X777571Y791577D03*
X772571Y791577D03*
D28*
X1093072Y525577D03*
X1093072Y535077D03*
X1093072Y544577D03*
X1067070Y544577D03*
X1067070Y525577D03*
D22*
X1137071Y539077D03*
X1162471Y539077D03*
D26*
X1007571Y791577D03*
X1002571Y791577D03*
D27*
X1017571Y816577D03*
X942571Y816577D03*
D26*
X997571Y791577D03*
X992571Y791577D03*
X987571Y791577D03*
X982571Y791577D03*
X977571Y791577D03*
X972571Y791577D03*
X967571Y791577D03*
X962571Y791577D03*
X957571Y791577D03*
X952571Y791577D03*
D29*
X850071Y512077D03*
X850071Y524777D03*
X850071Y537477D03*
X850071Y550177D03*
X850071Y562877D03*
X850071Y575577D03*
X850071Y588277D03*
X850071Y600977D03*
X850071Y613677D03*
X850071Y626377D03*
X850071Y639077D03*
X850071Y651777D03*
X850071Y664477D03*
X850071Y677177D03*
D30*
X817221Y692077D03*
X804521Y692077D03*
X791821Y692077D03*
X779121Y692077D03*
X766421Y692077D03*
X753721Y692077D03*
X741021Y692077D03*
X728321Y692077D03*
X715621Y692077D03*
X702921Y692077D03*
D29*
X670071Y677177D03*
X670071Y664477D03*
X670071Y651777D03*
X670071Y639077D03*
X670071Y626377D03*
X670071Y613677D03*
X670071Y600977D03*
X670071Y588277D03*
X670071Y575577D03*
X670071Y562877D03*
X670071Y550177D03*
X670071Y537477D03*
X670071Y524777D03*
X670071Y512077D03*
D31*
X775221Y585287D03*
X756771Y567077D03*
X775071Y567077D03*
X793371Y567077D03*
X793371Y585377D03*
X756671Y585077D03*
X756771Y603677D03*
X775071Y603777D03*
X793371Y603677D03*
D32*
X690071Y731013D03*
X690071Y739141D03*
X690071Y761013D03*
X690071Y769141D03*
D22*
X1110071Y495077D03*
D33*
X626421Y612377D03*
X626421Y625077D03*
X626421Y637777D03*
X626421Y650477D03*
X626421Y599677D03*
X613721Y612377D03*
X613721Y625077D03*
X613721Y637777D03*
X613721Y650477D03*
X613721Y599677D03*
D12*
X630071Y516577D03*
X630071Y533577D03*
X630071Y556577D03*
X630071Y573577D03*
D26*
X917571Y791577D03*
X912571Y791577D03*
D27*
X927571Y816577D03*
X852571Y816577D03*
D26*
X907571Y791577D03*
X902571Y791577D03*
X897571Y791577D03*
X892571Y791577D03*
X887571Y791577D03*
X882571Y791577D03*
X877571Y791577D03*
X872571Y791577D03*
X867571Y791577D03*
X862571Y791577D03*
D10*
X580000Y880153D03*
X5000Y1260153D03*
D11*
X31510Y1124873D02*
X38490Y1124873D01*
X38490Y1117893D01*
X31510Y1117893D01*
X31510Y1124873D01*
X31510Y1122693D02*
X38490Y1122693D01*
X38490Y1142413D02*
X31510Y1142413D01*
X38490Y1142413D02*
X38490Y1135433D01*
X31510Y1135433D01*
X31510Y1142413D01*
X31510Y1140233D02*
X38490Y1140233D01*
D12*
X55000Y1138653D03*
X55000Y1121653D03*
X505000Y1001653D03*
X505000Y1018653D03*
X485000Y1001653D03*
X485000Y1018653D03*
D13*
X470000Y1215353D03*
X470000Y1226953D03*
D14*
X454500Y1216153D03*
X437500Y1216153D03*
D12*
X465000Y1001653D03*
X465000Y1018653D03*
D15*
X495000Y1214153D03*
X485000Y1214153D03*
D16*
X506500Y1194653D03*
X495500Y1194653D03*
X484500Y1194653D03*
X473500Y1194653D03*
X462500Y1194653D03*
X451500Y1194653D03*
X440500Y1194653D03*
X429500Y1194653D03*
X418500Y1194653D03*
X407500Y1194653D03*
X396500Y1194653D03*
X385500Y1194653D03*
X374500Y1194653D03*
X363500Y1194653D03*
D17*
X335500Y1186153D03*
X335500Y1175153D03*
X335500Y1164153D03*
X335500Y1153153D03*
X335500Y1142153D03*
X335500Y1131153D03*
X335500Y1120153D03*
X335500Y1109153D03*
X335500Y1098153D03*
X335500Y1087153D03*
X335500Y1076153D03*
X335500Y1065153D03*
X335500Y1054153D03*
D16*
X363500Y1045653D03*
X374500Y1045653D03*
X385500Y1045653D03*
X396500Y1045653D03*
X407500Y1045653D03*
X418500Y1045653D03*
X429500Y1045653D03*
X440500Y1045653D03*
X451500Y1045653D03*
X462500Y1045653D03*
X473500Y1045653D03*
X484500Y1045653D03*
X495500Y1045653D03*
X506500Y1045653D03*
D17*
X534500Y1054153D03*
X534500Y1065153D03*
X534500Y1076153D03*
X534500Y1087153D03*
X534500Y1098153D03*
X534500Y1109153D03*
X534500Y1120153D03*
X534500Y1131153D03*
X534500Y1142153D03*
X534500Y1153153D03*
X534500Y1164153D03*
X534500Y1175153D03*
X534500Y1186153D03*
D18*
X445500Y1130653D03*
X466500Y1130653D03*
X487500Y1130653D03*
X508500Y1130653D03*
X445500Y1151153D03*
X466500Y1151153D03*
X487500Y1151153D03*
X508500Y1151153D03*
X445500Y1171653D03*
X466500Y1171653D03*
X487500Y1171653D03*
X508500Y1171653D03*
X445500Y1068653D03*
X466500Y1068653D03*
X487500Y1068653D03*
X508500Y1068653D03*
X445500Y1089153D03*
X466500Y1089153D03*
X487500Y1089153D03*
X508500Y1089153D03*
X445500Y1109653D03*
X466500Y1109653D03*
X487500Y1109653D03*
X508500Y1109653D03*
X424500Y1109653D03*
X403500Y1109653D03*
X382500Y1109653D03*
X361500Y1109653D03*
X424500Y1089153D03*
X403500Y1089153D03*
X382500Y1089153D03*
X361500Y1089153D03*
X424500Y1068653D03*
X403500Y1068653D03*
X382500Y1068653D03*
X361500Y1068653D03*
X424500Y1171653D03*
X403500Y1171653D03*
X382500Y1171653D03*
X361500Y1171653D03*
X424500Y1151153D03*
X403500Y1151153D03*
X382500Y1151153D03*
X361500Y1151153D03*
X424500Y1130653D03*
X403500Y1130653D03*
X382500Y1130653D03*
X361500Y1130653D03*
D12*
X415000Y1018653D03*
X415000Y1001653D03*
X435000Y1001653D03*
X435000Y1018653D03*
D19*
X564900Y1092153D03*
D20*
X564900Y1084153D03*
X564900Y1076153D03*
D19*
X551700Y1092153D03*
D20*
X551700Y1084153D03*
X551700Y1076153D03*
D21*
X551800Y1068153D03*
D19*
X564900Y1068153D03*
X564900Y1162153D03*
D20*
X564900Y1154153D03*
X564900Y1146153D03*
D19*
X551700Y1162153D03*
D20*
X551700Y1154153D03*
X551700Y1146153D03*
D21*
X551800Y1138153D03*
D19*
X564900Y1138153D03*
D12*
X545000Y1018653D03*
X545000Y1001653D03*
X295000Y961653D03*
X295000Y978653D03*
X275000Y961653D03*
X275000Y978653D03*
D19*
X311900Y1142153D03*
D20*
X311900Y1134153D03*
X311900Y1126153D03*
D19*
X298700Y1142153D03*
D20*
X298700Y1134153D03*
X298700Y1126153D03*
D21*
X298800Y1118153D03*
D19*
X311900Y1118153D03*
D22*
X275000Y940153D03*
X300400Y940153D03*
D12*
X515000Y961653D03*
X515000Y978653D03*
X455000Y978653D03*
X455000Y961653D03*
D23*
X508750Y1240153D03*
X481250Y1240153D03*
D24*
X495000Y1224903D03*
X495000Y1255403D03*
D22*
X377700Y970153D03*
X352300Y970153D03*
D25*
X219450Y1208153D03*
X206750Y1208153D03*
X194050Y1208153D03*
X181350Y1208153D03*
X168650Y1208153D03*
X155950Y1208153D03*
X143250Y1208153D03*
X130550Y1208153D03*
X130550Y1152153D03*
X143250Y1152153D03*
X155950Y1152153D03*
X168650Y1152153D03*
X181350Y1152153D03*
X194050Y1152153D03*
X206750Y1152153D03*
X219450Y1152153D03*
D12*
X245100Y1171653D03*
X245100Y1188653D03*
D26*
X142500Y1226653D03*
X137500Y1226653D03*
D27*
X152500Y1251653D03*
X77500Y1251653D03*
D26*
X132500Y1226653D03*
X127500Y1226653D03*
X122500Y1226653D03*
X117500Y1226653D03*
X112500Y1226653D03*
X107500Y1226653D03*
X102500Y1226653D03*
X97500Y1226653D03*
X92500Y1226653D03*
X87500Y1226653D03*
X232500Y1226653D03*
X227500Y1226653D03*
D27*
X242500Y1251653D03*
X167500Y1251653D03*
D26*
X222500Y1226653D03*
X217500Y1226653D03*
X212500Y1226653D03*
X207500Y1226653D03*
X202500Y1226653D03*
X197500Y1226653D03*
X192500Y1226653D03*
X187500Y1226653D03*
X182500Y1226653D03*
X177500Y1226653D03*
D28*
X498001Y960653D03*
X498001Y970153D03*
X498001Y979653D03*
X471999Y979653D03*
X471999Y960653D03*
D22*
X542000Y974153D03*
X567400Y974153D03*
D26*
X412500Y1226653D03*
X407500Y1226653D03*
D27*
X422500Y1251653D03*
X347500Y1251653D03*
D26*
X402500Y1226653D03*
X397500Y1226653D03*
X392500Y1226653D03*
X387500Y1226653D03*
X382500Y1226653D03*
X377500Y1226653D03*
X372500Y1226653D03*
X367500Y1226653D03*
X362500Y1226653D03*
X357500Y1226653D03*
D29*
X255000Y947153D03*
X255000Y959853D03*
X255000Y972553D03*
X255000Y985253D03*
X255000Y997953D03*
X255000Y1010653D03*
X255000Y1023353D03*
X255000Y1036053D03*
X255000Y1048753D03*
X255000Y1061453D03*
X255000Y1074153D03*
X255000Y1086853D03*
X255000Y1099553D03*
X255000Y1112253D03*
D30*
X222150Y1127153D03*
X209450Y1127153D03*
X196750Y1127153D03*
X184050Y1127153D03*
X171350Y1127153D03*
X158650Y1127153D03*
X145950Y1127153D03*
X133250Y1127153D03*
X120550Y1127153D03*
X107850Y1127153D03*
D29*
X75000Y1112253D03*
X75000Y1099553D03*
X75000Y1086853D03*
X75000Y1074153D03*
X75000Y1061453D03*
X75000Y1048753D03*
X75000Y1036053D03*
X75000Y1023353D03*
X75000Y1010653D03*
X75000Y997953D03*
X75000Y985253D03*
X75000Y972553D03*
X75000Y959853D03*
X75000Y947153D03*
D31*
X180150Y1020363D03*
X161700Y1002153D03*
X180000Y1002153D03*
X198300Y1002153D03*
X198300Y1020453D03*
X161600Y1020153D03*
X161700Y1038753D03*
X180000Y1038853D03*
X198300Y1038753D03*
D32*
X95000Y1166089D03*
X95000Y1174217D03*
X95000Y1196089D03*
X95000Y1204217D03*
D22*
X515000Y930153D03*
D33*
X31350Y1047453D03*
X31350Y1060153D03*
X31350Y1072853D03*
X31350Y1085553D03*
X31350Y1034753D03*
X18650Y1047453D03*
X18650Y1060153D03*
X18650Y1072853D03*
X18650Y1085553D03*
X18650Y1034753D03*
D12*
X35000Y951653D03*
X35000Y968653D03*
X35000Y991653D03*
X35000Y1008653D03*
D26*
X322500Y1226653D03*
X317500Y1226653D03*
D27*
X332500Y1251653D03*
X257500Y1251653D03*
D26*
X312500Y1226653D03*
X307500Y1226653D03*
X302500Y1226653D03*
X297500Y1226653D03*
X292500Y1226653D03*
X287500Y1226653D03*
X282500Y1226653D03*
X277500Y1226653D03*
X272500Y1226653D03*
X267500Y1226653D03*
D10*
X1175071Y880153D03*
X600071Y1260153D03*
D11*
X626581Y1124873D02*
X633561Y1124873D01*
X633561Y1117893D01*
X626581Y1117893D01*
X626581Y1124873D01*
X626581Y1122693D02*
X633561Y1122693D01*
X633561Y1142413D02*
X626581Y1142413D01*
X633561Y1142413D02*
X633561Y1135433D01*
X626581Y1135433D01*
X626581Y1142413D01*
X626581Y1140233D02*
X633561Y1140233D01*
D12*
X650071Y1138653D03*
X650071Y1121653D03*
X1100071Y1001653D03*
X1100071Y1018653D03*
X1080071Y1001653D03*
X1080071Y1018653D03*
D13*
X1065071Y1215353D03*
X1065071Y1226953D03*
D14*
X1049571Y1216153D03*
X1032571Y1216153D03*
D12*
X1060071Y1001653D03*
X1060071Y1018653D03*
D15*
X1090071Y1214153D03*
X1080071Y1214153D03*
D16*
X1101571Y1194653D03*
X1090571Y1194653D03*
X1079571Y1194653D03*
X1068571Y1194653D03*
X1057571Y1194653D03*
X1046571Y1194653D03*
X1035571Y1194653D03*
X1024571Y1194653D03*
X1013571Y1194653D03*
X1002571Y1194653D03*
X991571Y1194653D03*
X980571Y1194653D03*
X969571Y1194653D03*
X958571Y1194653D03*
D17*
X930571Y1186153D03*
X930571Y1175153D03*
X930571Y1164153D03*
X930571Y1153153D03*
X930571Y1142153D03*
X930571Y1131153D03*
X930571Y1120153D03*
X930571Y1109153D03*
X930571Y1098153D03*
X930571Y1087153D03*
X930571Y1076153D03*
X930571Y1065153D03*
X930571Y1054153D03*
D16*
X958571Y1045653D03*
X969571Y1045653D03*
X980571Y1045653D03*
X991571Y1045653D03*
X1002571Y1045653D03*
X1013571Y1045653D03*
X1024571Y1045653D03*
X1035571Y1045653D03*
X1046571Y1045653D03*
X1057571Y1045653D03*
X1068571Y1045653D03*
X1079571Y1045653D03*
X1090571Y1045653D03*
X1101571Y1045653D03*
D17*
X1129571Y1054153D03*
X1129571Y1065153D03*
X1129571Y1076153D03*
X1129571Y1087153D03*
X1129571Y1098153D03*
X1129571Y1109153D03*
X1129571Y1120153D03*
X1129571Y1131153D03*
X1129571Y1142153D03*
X1129571Y1153153D03*
X1129571Y1164153D03*
X1129571Y1175153D03*
X1129571Y1186153D03*
D18*
X1040571Y1130653D03*
X1061571Y1130653D03*
X1082571Y1130653D03*
X1103571Y1130653D03*
X1040571Y1151153D03*
X1061571Y1151153D03*
X1082571Y1151153D03*
X1103571Y1151153D03*
X1040571Y1171653D03*
X1061571Y1171653D03*
X1082571Y1171653D03*
X1103571Y1171653D03*
X1040571Y1068653D03*
X1061571Y1068653D03*
X1082571Y1068653D03*
X1103571Y1068653D03*
X1040571Y1089153D03*
X1061571Y1089153D03*
X1082571Y1089153D03*
X1103571Y1089153D03*
X1040571Y1109653D03*
X1061571Y1109653D03*
X1082571Y1109653D03*
X1103571Y1109653D03*
X1019571Y1109653D03*
X998571Y1109653D03*
X977571Y1109653D03*
X956571Y1109653D03*
X1019571Y1089153D03*
X998571Y1089153D03*
X977571Y1089153D03*
X956571Y1089153D03*
X1019571Y1068653D03*
X998571Y1068653D03*
X977571Y1068653D03*
X956571Y1068653D03*
X1019571Y1171653D03*
X998571Y1171653D03*
X977571Y1171653D03*
X956571Y1171653D03*
X1019571Y1151153D03*
X998571Y1151153D03*
X977571Y1151153D03*
X956571Y1151153D03*
X1019571Y1130653D03*
X998571Y1130653D03*
X977571Y1130653D03*
X956571Y1130653D03*
D12*
X1010071Y1018653D03*
X1010071Y1001653D03*
X1030071Y1001653D03*
X1030071Y1018653D03*
D19*
X1159971Y1092153D03*
D20*
X1159971Y1084153D03*
X1159971Y1076153D03*
D19*
X1146771Y1092153D03*
D20*
X1146771Y1084153D03*
X1146771Y1076153D03*
D21*
X1146871Y1068153D03*
D19*
X1159971Y1068153D03*
X1159971Y1162153D03*
D20*
X1159971Y1154153D03*
X1159971Y1146153D03*
D19*
X1146771Y1162153D03*
D20*
X1146771Y1154153D03*
X1146771Y1146153D03*
D21*
X1146871Y1138153D03*
D19*
X1159971Y1138153D03*
D12*
X1140071Y1018653D03*
X1140071Y1001653D03*
X890071Y961653D03*
X890071Y978653D03*
X870071Y961653D03*
X870071Y978653D03*
D19*
X906971Y1142153D03*
D20*
X906971Y1134153D03*
X906971Y1126153D03*
D19*
X893771Y1142153D03*
D20*
X893771Y1134153D03*
X893771Y1126153D03*
D21*
X893871Y1118153D03*
D19*
X906971Y1118153D03*
D22*
X870071Y940153D03*
X895471Y940153D03*
D12*
X1110071Y961653D03*
X1110071Y978653D03*
X1050071Y978653D03*
X1050071Y961653D03*
D23*
X1103821Y1240153D03*
X1076321Y1240153D03*
D24*
X1090071Y1224903D03*
X1090071Y1255403D03*
D22*
X972771Y970153D03*
X947371Y970153D03*
D25*
X814521Y1208153D03*
X801821Y1208153D03*
X789121Y1208153D03*
X776421Y1208153D03*
X763721Y1208153D03*
X751021Y1208153D03*
X738321Y1208153D03*
X725621Y1208153D03*
X725621Y1152153D03*
X738321Y1152153D03*
X751021Y1152153D03*
X763721Y1152153D03*
X776421Y1152153D03*
X789121Y1152153D03*
X801821Y1152153D03*
X814521Y1152153D03*
D12*
X840171Y1171653D03*
X840171Y1188653D03*
D26*
X737571Y1226653D03*
X732571Y1226653D03*
D27*
X747571Y1251653D03*
X672571Y1251653D03*
D26*
X727571Y1226653D03*
X722571Y1226653D03*
X717571Y1226653D03*
X712571Y1226653D03*
X707571Y1226653D03*
X702571Y1226653D03*
X697571Y1226653D03*
X692571Y1226653D03*
X687571Y1226653D03*
X682571Y1226653D03*
X827571Y1226653D03*
X822571Y1226653D03*
D27*
X837571Y1251653D03*
X762571Y1251653D03*
D26*
X817571Y1226653D03*
X812571Y1226653D03*
X807571Y1226653D03*
X802571Y1226653D03*
X797571Y1226653D03*
X792571Y1226653D03*
X787571Y1226653D03*
X782571Y1226653D03*
X777571Y1226653D03*
X772571Y1226653D03*
D28*
X1093072Y960653D03*
X1093072Y970153D03*
X1093072Y979653D03*
X1067070Y979653D03*
X1067070Y960653D03*
D22*
X1137071Y974153D03*
X1162471Y974153D03*
D26*
X1007571Y1226653D03*
X1002571Y1226653D03*
D27*
X1017571Y1251653D03*
X942571Y1251653D03*
D26*
X997571Y1226653D03*
X992571Y1226653D03*
X987571Y1226653D03*
X982571Y1226653D03*
X977571Y1226653D03*
X972571Y1226653D03*
X967571Y1226653D03*
X962571Y1226653D03*
X957571Y1226653D03*
X952571Y1226653D03*
D29*
X850071Y947153D03*
X850071Y959853D03*
X850071Y972553D03*
X850071Y985253D03*
X850071Y997953D03*
X850071Y1010653D03*
X850071Y1023353D03*
X850071Y1036053D03*
X850071Y1048753D03*
X850071Y1061453D03*
X850071Y1074153D03*
X850071Y1086853D03*
X850071Y1099553D03*
X850071Y1112253D03*
D30*
X817221Y1127153D03*
X804521Y1127153D03*
X791821Y1127153D03*
X779121Y1127153D03*
X766421Y1127153D03*
X753721Y1127153D03*
X741021Y1127153D03*
X728321Y1127153D03*
X715621Y1127153D03*
X702921Y1127153D03*
D29*
X670071Y1112253D03*
X670071Y1099553D03*
X670071Y1086853D03*
X670071Y1074153D03*
X670071Y1061453D03*
X670071Y1048753D03*
X670071Y1036053D03*
X670071Y1023353D03*
X670071Y1010653D03*
X670071Y997953D03*
X670071Y985253D03*
X670071Y972553D03*
X670071Y959853D03*
X670071Y947153D03*
D31*
X775221Y1020363D03*
X756771Y1002153D03*
X775071Y1002153D03*
X793371Y1002153D03*
X793371Y1020453D03*
X756671Y1020153D03*
X756771Y1038753D03*
X775071Y1038853D03*
X793371Y1038753D03*
D32*
X690071Y1166089D03*
X690071Y1174217D03*
X690071Y1196089D03*
X690071Y1204217D03*
D22*
X1110071Y930153D03*
D33*
X626421Y1047453D03*
X626421Y1060153D03*
X626421Y1072853D03*
X626421Y1085553D03*
X626421Y1034753D03*
X613721Y1047453D03*
X613721Y1060153D03*
X613721Y1072853D03*
X613721Y1085553D03*
X613721Y1034753D03*
D12*
X630071Y951653D03*
X630071Y968653D03*
X630071Y991653D03*
X630071Y1008653D03*
D26*
X917571Y1226653D03*
X912571Y1226653D03*
D27*
X927571Y1251653D03*
X852571Y1251653D03*
D26*
X907571Y1226653D03*
X902571Y1226653D03*
X897571Y1226653D03*
X892571Y1226653D03*
X887571Y1226653D03*
X882571Y1226653D03*
X877571Y1226653D03*
X872571Y1226653D03*
X867571Y1226653D03*
X862571Y1226653D03*
D10*
X580000Y1315230D03*
X5000Y1695230D03*
D11*
X31510Y1559950D02*
X38490Y1559950D01*
X38490Y1552970D01*
X31510Y1552970D01*
X31510Y1559950D01*
X31510Y1557770D02*
X38490Y1557770D01*
X38490Y1577490D02*
X31510Y1577490D01*
X38490Y1577490D02*
X38490Y1570510D01*
X31510Y1570510D01*
X31510Y1577490D01*
X31510Y1575310D02*
X38490Y1575310D01*
D12*
X55000Y1573730D03*
X55000Y1556730D03*
X505000Y1436730D03*
X505000Y1453730D03*
X485000Y1436730D03*
X485000Y1453730D03*
D13*
X470000Y1650430D03*
X470000Y1662030D03*
D14*
X454500Y1651230D03*
X437500Y1651230D03*
D12*
X465000Y1436730D03*
X465000Y1453730D03*
D15*
X495000Y1649230D03*
X485000Y1649230D03*
D16*
X506500Y1629730D03*
X495500Y1629730D03*
X484500Y1629730D03*
X473500Y1629730D03*
X462500Y1629730D03*
X451500Y1629730D03*
X440500Y1629730D03*
X429500Y1629730D03*
X418500Y1629730D03*
X407500Y1629730D03*
X396500Y1629730D03*
X385500Y1629730D03*
X374500Y1629730D03*
X363500Y1629730D03*
D17*
X335500Y1621230D03*
X335500Y1610230D03*
X335500Y1599230D03*
X335500Y1588230D03*
X335500Y1577230D03*
X335500Y1566230D03*
X335500Y1555230D03*
X335500Y1544230D03*
X335500Y1533230D03*
X335500Y1522230D03*
X335500Y1511230D03*
X335500Y1500230D03*
X335500Y1489230D03*
D16*
X363500Y1480730D03*
X374500Y1480730D03*
X385500Y1480730D03*
X396500Y1480730D03*
X407500Y1480730D03*
X418500Y1480730D03*
X429500Y1480730D03*
X440500Y1480730D03*
X451500Y1480730D03*
X462500Y1480730D03*
X473500Y1480730D03*
X484500Y1480730D03*
X495500Y1480730D03*
X506500Y1480730D03*
D17*
X534500Y1489230D03*
X534500Y1500230D03*
X534500Y1511230D03*
X534500Y1522230D03*
X534500Y1533230D03*
X534500Y1544230D03*
X534500Y1555230D03*
X534500Y1566230D03*
X534500Y1577230D03*
X534500Y1588230D03*
X534500Y1599230D03*
X534500Y1610230D03*
X534500Y1621230D03*
D18*
X445500Y1565730D03*
X466500Y1565730D03*
X487500Y1565730D03*
X508500Y1565730D03*
X445500Y1586230D03*
X466500Y1586230D03*
X487500Y1586230D03*
X508500Y1586230D03*
X445500Y1606730D03*
X466500Y1606730D03*
X487500Y1606730D03*
X508500Y1606730D03*
X445500Y1503730D03*
X466500Y1503730D03*
X487500Y1503730D03*
X508500Y1503730D03*
X445500Y1524230D03*
X466500Y1524230D03*
X487500Y1524230D03*
X508500Y1524230D03*
X445500Y1544730D03*
X466500Y1544730D03*
X487500Y1544730D03*
X508500Y1544730D03*
X424500Y1544730D03*
X403500Y1544730D03*
X382500Y1544730D03*
X361500Y1544730D03*
X424500Y1524230D03*
X403500Y1524230D03*
X382500Y1524230D03*
X361500Y1524230D03*
X424500Y1503730D03*
X403500Y1503730D03*
X382500Y1503730D03*
X361500Y1503730D03*
X424500Y1606730D03*
X403500Y1606730D03*
X382500Y1606730D03*
X361500Y1606730D03*
X424500Y1586230D03*
X403500Y1586230D03*
X382500Y1586230D03*
X361500Y1586230D03*
X424500Y1565730D03*
X403500Y1565730D03*
X382500Y1565730D03*
X361500Y1565730D03*
D12*
X415000Y1453730D03*
X415000Y1436730D03*
X435000Y1436730D03*
X435000Y1453730D03*
D19*
X564900Y1527230D03*
D20*
X564900Y1519230D03*
X564900Y1511230D03*
D19*
X551700Y1527230D03*
D20*
X551700Y1519230D03*
X551700Y1511230D03*
D21*
X551800Y1503230D03*
D19*
X564900Y1503230D03*
X564900Y1597230D03*
D20*
X564900Y1589230D03*
X564900Y1581230D03*
D19*
X551700Y1597230D03*
D20*
X551700Y1589230D03*
X551700Y1581230D03*
D21*
X551800Y1573230D03*
D19*
X564900Y1573230D03*
D12*
X545000Y1453730D03*
X545000Y1436730D03*
X295000Y1396730D03*
X295000Y1413730D03*
X275000Y1396730D03*
X275000Y1413730D03*
D19*
X311900Y1577230D03*
D20*
X311900Y1569230D03*
X311900Y1561230D03*
D19*
X298700Y1577230D03*
D20*
X298700Y1569230D03*
X298700Y1561230D03*
D21*
X298800Y1553230D03*
D19*
X311900Y1553230D03*
D22*
X275000Y1375230D03*
X300400Y1375230D03*
D12*
X515000Y1396730D03*
X515000Y1413730D03*
X455000Y1413730D03*
X455000Y1396730D03*
D23*
X508750Y1675230D03*
X481250Y1675230D03*
D24*
X495000Y1659980D03*
X495000Y1690480D03*
D22*
X377700Y1405230D03*
X352300Y1405230D03*
D25*
X219450Y1643230D03*
X206750Y1643230D03*
X194050Y1643230D03*
X181350Y1643230D03*
X168650Y1643230D03*
X155950Y1643230D03*
X143250Y1643230D03*
X130550Y1643230D03*
X130550Y1587230D03*
X143250Y1587230D03*
X155950Y1587230D03*
X168650Y1587230D03*
X181350Y1587230D03*
X194050Y1587230D03*
X206750Y1587230D03*
X219450Y1587230D03*
D12*
X245100Y1606730D03*
X245100Y1623730D03*
D26*
X142500Y1661730D03*
X137500Y1661730D03*
D27*
X152500Y1686730D03*
X77500Y1686730D03*
D26*
X132500Y1661730D03*
X127500Y1661730D03*
X122500Y1661730D03*
X117500Y1661730D03*
X112500Y1661730D03*
X107500Y1661730D03*
X102500Y1661730D03*
X97500Y1661730D03*
X92500Y1661730D03*
X87500Y1661730D03*
X232500Y1661730D03*
X227500Y1661730D03*
D27*
X242500Y1686730D03*
X167500Y1686730D03*
D26*
X222500Y1661730D03*
X217500Y1661730D03*
X212500Y1661730D03*
X207500Y1661730D03*
X202500Y1661730D03*
X197500Y1661730D03*
X192500Y1661730D03*
X187500Y1661730D03*
X182500Y1661730D03*
X177500Y1661730D03*
D28*
X498001Y1395730D03*
X498001Y1405230D03*
X498001Y1414730D03*
X471999Y1414730D03*
X471999Y1395730D03*
D22*
X542000Y1409230D03*
X567400Y1409230D03*
D26*
X412500Y1661730D03*
X407500Y1661730D03*
D27*
X422500Y1686730D03*
X347500Y1686730D03*
D26*
X402500Y1661730D03*
X397500Y1661730D03*
X392500Y1661730D03*
X387500Y1661730D03*
X382500Y1661730D03*
X377500Y1661730D03*
X372500Y1661730D03*
X367500Y1661730D03*
X362500Y1661730D03*
X357500Y1661730D03*
D29*
X255000Y1382230D03*
X255000Y1394930D03*
X255000Y1407630D03*
X255000Y1420330D03*
X255000Y1433030D03*
X255000Y1445730D03*
X255000Y1458430D03*
X255000Y1471130D03*
X255000Y1483830D03*
X255000Y1496530D03*
X255000Y1509230D03*
X255000Y1521930D03*
X255000Y1534630D03*
X255000Y1547330D03*
D30*
X222150Y1562230D03*
X209450Y1562230D03*
X196750Y1562230D03*
X184050Y1562230D03*
X171350Y1562230D03*
X158650Y1562230D03*
X145950Y1562230D03*
X133250Y1562230D03*
X120550Y1562230D03*
X107850Y1562230D03*
D29*
X75000Y1547330D03*
X75000Y1534630D03*
X75000Y1521930D03*
X75000Y1509230D03*
X75000Y1496530D03*
X75000Y1483830D03*
X75000Y1471130D03*
X75000Y1458430D03*
X75000Y1445730D03*
X75000Y1433030D03*
X75000Y1420330D03*
X75000Y1407630D03*
X75000Y1394930D03*
X75000Y1382230D03*
D31*
X180150Y1455440D03*
X161700Y1437230D03*
X180000Y1437230D03*
X198300Y1437230D03*
X198300Y1455530D03*
X161600Y1455230D03*
X161700Y1473830D03*
X180000Y1473930D03*
X198300Y1473830D03*
D32*
X95000Y1601166D03*
X95000Y1609294D03*
X95000Y1631166D03*
X95000Y1639294D03*
D22*
X515000Y1365230D03*
D33*
X31350Y1482530D03*
X31350Y1495230D03*
X31350Y1507930D03*
X31350Y1520630D03*
X31350Y1469830D03*
X18650Y1482530D03*
X18650Y1495230D03*
X18650Y1507930D03*
X18650Y1520630D03*
X18650Y1469830D03*
D12*
X35000Y1386730D03*
X35000Y1403730D03*
X35000Y1426730D03*
X35000Y1443730D03*
D26*
X322500Y1661730D03*
X317500Y1661730D03*
D27*
X332500Y1686730D03*
X257500Y1686730D03*
D26*
X312500Y1661730D03*
X307500Y1661730D03*
X302500Y1661730D03*
X297500Y1661730D03*
X292500Y1661730D03*
X287500Y1661730D03*
X282500Y1661730D03*
X277500Y1661730D03*
X272500Y1661730D03*
X267500Y1661730D03*
D10*
X1175071Y1315230D03*
X600071Y1695230D03*
D11*
X626581Y1559950D02*
X633561Y1559950D01*
X633561Y1552970D01*
X626581Y1552970D01*
X626581Y1559950D01*
X626581Y1557770D02*
X633561Y1557770D01*
X633561Y1577490D02*
X626581Y1577490D01*
X633561Y1577490D02*
X633561Y1570510D01*
X626581Y1570510D01*
X626581Y1577490D01*
X626581Y1575310D02*
X633561Y1575310D01*
D12*
X650071Y1573730D03*
X650071Y1556730D03*
X1100071Y1436730D03*
X1100071Y1453730D03*
X1080071Y1436730D03*
X1080071Y1453730D03*
D13*
X1065071Y1650430D03*
X1065071Y1662030D03*
D14*
X1049571Y1651230D03*
X1032571Y1651230D03*
D12*
X1060071Y1436730D03*
X1060071Y1453730D03*
D15*
X1090071Y1649230D03*
X1080071Y1649230D03*
D16*
X1101571Y1629730D03*
X1090571Y1629730D03*
X1079571Y1629730D03*
X1068571Y1629730D03*
X1057571Y1629730D03*
X1046571Y1629730D03*
X1035571Y1629730D03*
X1024571Y1629730D03*
X1013571Y1629730D03*
X1002571Y1629730D03*
X991571Y1629730D03*
X980571Y1629730D03*
X969571Y1629730D03*
X958571Y1629730D03*
D17*
X930571Y1621230D03*
X930571Y1610230D03*
X930571Y1599230D03*
X930571Y1588230D03*
X930571Y1577230D03*
X930571Y1566230D03*
X930571Y1555230D03*
X930571Y1544230D03*
X930571Y1533230D03*
X930571Y1522230D03*
X930571Y1511230D03*
X930571Y1500230D03*
X930571Y1489230D03*
D16*
X958571Y1480730D03*
X969571Y1480730D03*
X980571Y1480730D03*
X991571Y1480730D03*
X1002571Y1480730D03*
X1013571Y1480730D03*
X1024571Y1480730D03*
X1035571Y1480730D03*
X1046571Y1480730D03*
X1057571Y1480730D03*
X1068571Y1480730D03*
X1079571Y1480730D03*
X1090571Y1480730D03*
X1101571Y1480730D03*
D17*
X1129571Y1489230D03*
X1129571Y1500230D03*
X1129571Y1511230D03*
X1129571Y1522230D03*
X1129571Y1533230D03*
X1129571Y1544230D03*
X1129571Y1555230D03*
X1129571Y1566230D03*
X1129571Y1577230D03*
X1129571Y1588230D03*
X1129571Y1599230D03*
X1129571Y1610230D03*
X1129571Y1621230D03*
D18*
X1040571Y1565730D03*
X1061571Y1565730D03*
X1082571Y1565730D03*
X1103571Y1565730D03*
X1040571Y1586230D03*
X1061571Y1586230D03*
X1082571Y1586230D03*
X1103571Y1586230D03*
X1040571Y1606730D03*
X1061571Y1606730D03*
X1082571Y1606730D03*
X1103571Y1606730D03*
X1040571Y1503730D03*
X1061571Y1503730D03*
X1082571Y1503730D03*
X1103571Y1503730D03*
X1040571Y1524230D03*
X1061571Y1524230D03*
X1082571Y1524230D03*
X1103571Y1524230D03*
X1040571Y1544730D03*
X1061571Y1544730D03*
X1082571Y1544730D03*
X1103571Y1544730D03*
X1019571Y1544730D03*
X998571Y1544730D03*
X977571Y1544730D03*
X956571Y1544730D03*
X1019571Y1524230D03*
X998571Y1524230D03*
X977571Y1524230D03*
X956571Y1524230D03*
X1019571Y1503730D03*
X998571Y1503730D03*
X977571Y1503730D03*
X956571Y1503730D03*
X1019571Y1606730D03*
X998571Y1606730D03*
X977571Y1606730D03*
X956571Y1606730D03*
X1019571Y1586230D03*
X998571Y1586230D03*
X977571Y1586230D03*
X956571Y1586230D03*
X1019571Y1565730D03*
X998571Y1565730D03*
X977571Y1565730D03*
X956571Y1565730D03*
D12*
X1010071Y1453730D03*
X1010071Y1436730D03*
X1030071Y1436730D03*
X1030071Y1453730D03*
D19*
X1159971Y1527230D03*
D20*
X1159971Y1519230D03*
X1159971Y1511230D03*
D19*
X1146771Y1527230D03*
D20*
X1146771Y1519230D03*
X1146771Y1511230D03*
D21*
X1146871Y1503230D03*
D19*
X1159971Y1503230D03*
X1159971Y1597230D03*
D20*
X1159971Y1589230D03*
X1159971Y1581230D03*
D19*
X1146771Y1597230D03*
D20*
X1146771Y1589230D03*
X1146771Y1581230D03*
D21*
X1146871Y1573230D03*
D19*
X1159971Y1573230D03*
D12*
X1140071Y1453730D03*
X1140071Y1436730D03*
X890071Y1396730D03*
X890071Y1413730D03*
X870071Y1396730D03*
X870071Y1413730D03*
D19*
X906971Y1577230D03*
D20*
X906971Y1569230D03*
X906971Y1561230D03*
D19*
X893771Y1577230D03*
D20*
X893771Y1569230D03*
X893771Y1561230D03*
D21*
X893871Y1553230D03*
D19*
X906971Y1553230D03*
D22*
X870071Y1375230D03*
X895471Y1375230D03*
D12*
X1110071Y1396730D03*
X1110071Y1413730D03*
X1050071Y1413730D03*
X1050071Y1396730D03*
D23*
X1103821Y1675230D03*
X1076321Y1675230D03*
D24*
X1090071Y1659980D03*
X1090071Y1690480D03*
D22*
X972771Y1405230D03*
X947371Y1405230D03*
D25*
X814521Y1643230D03*
X801821Y1643230D03*
X789121Y1643230D03*
X776421Y1643230D03*
X763721Y1643230D03*
X751021Y1643230D03*
X738321Y1643230D03*
X725621Y1643230D03*
X725621Y1587230D03*
X738321Y1587230D03*
X751021Y1587230D03*
X763721Y1587230D03*
X776421Y1587230D03*
X789121Y1587230D03*
X801821Y1587230D03*
X814521Y1587230D03*
D12*
X840171Y1606730D03*
X840171Y1623730D03*
D26*
X737571Y1661730D03*
X732571Y1661730D03*
D27*
X747571Y1686730D03*
X672571Y1686730D03*
D26*
X727571Y1661730D03*
X722571Y1661730D03*
X717571Y1661730D03*
X712571Y1661730D03*
X707571Y1661730D03*
X702571Y1661730D03*
X697571Y1661730D03*
X692571Y1661730D03*
X687571Y1661730D03*
X682571Y1661730D03*
X827571Y1661730D03*
X822571Y1661730D03*
D27*
X837571Y1686730D03*
X762571Y1686730D03*
D26*
X817571Y1661730D03*
X812571Y1661730D03*
X807571Y1661730D03*
X802571Y1661730D03*
X797571Y1661730D03*
X792571Y1661730D03*
X787571Y1661730D03*
X782571Y1661730D03*
X777571Y1661730D03*
X772571Y1661730D03*
D28*
X1093072Y1395730D03*
X1093072Y1405230D03*
X1093072Y1414730D03*
X1067070Y1414730D03*
X1067070Y1395730D03*
D22*
X1137071Y1409230D03*
X1162471Y1409230D03*
D26*
X1007571Y1661730D03*
X1002571Y1661730D03*
D27*
X1017571Y1686730D03*
X942571Y1686730D03*
D26*
X997571Y1661730D03*
X992571Y1661730D03*
X987571Y1661730D03*
X982571Y1661730D03*
X977571Y1661730D03*
X972571Y1661730D03*
X967571Y1661730D03*
X962571Y1661730D03*
X957571Y1661730D03*
X952571Y1661730D03*
D29*
X850071Y1382230D03*
X850071Y1394930D03*
X850071Y1407630D03*
X850071Y1420330D03*
X850071Y1433030D03*
X850071Y1445730D03*
X850071Y1458430D03*
X850071Y1471130D03*
X850071Y1483830D03*
X850071Y1496530D03*
X850071Y1509230D03*
X850071Y1521930D03*
X850071Y1534630D03*
X850071Y1547330D03*
D30*
X817221Y1562230D03*
X804521Y1562230D03*
X791821Y1562230D03*
X779121Y1562230D03*
X766421Y1562230D03*
X753721Y1562230D03*
X741021Y1562230D03*
X728321Y1562230D03*
X715621Y1562230D03*
X702921Y1562230D03*
D29*
X670071Y1547330D03*
X670071Y1534630D03*
X670071Y1521930D03*
X670071Y1509230D03*
X670071Y1496530D03*
X670071Y1483830D03*
X670071Y1471130D03*
X670071Y1458430D03*
X670071Y1445730D03*
X670071Y1433030D03*
X670071Y1420330D03*
X670071Y1407630D03*
X670071Y1394930D03*
X670071Y1382230D03*
D31*
X775221Y1455440D03*
X756771Y1437230D03*
X775071Y1437230D03*
X793371Y1437230D03*
X793371Y1455530D03*
X756671Y1455230D03*
X756771Y1473830D03*
X775071Y1473930D03*
X793371Y1473830D03*
D32*
X690071Y1601166D03*
X690071Y1609294D03*
X690071Y1631166D03*
X690071Y1639294D03*
D22*
X1110071Y1365230D03*
D33*
X626421Y1482530D03*
X626421Y1495230D03*
X626421Y1507930D03*
X626421Y1520630D03*
X626421Y1469830D03*
X613721Y1482530D03*
X613721Y1495230D03*
X613721Y1507930D03*
X613721Y1520630D03*
X613721Y1469830D03*
D12*
X630071Y1386730D03*
X630071Y1403730D03*
X630071Y1426730D03*
X630071Y1443730D03*
D26*
X917571Y1661730D03*
X912571Y1661730D03*
D27*
X927571Y1686730D03*
X852571Y1686730D03*
D26*
X907571Y1661730D03*
X902571Y1661730D03*
X897571Y1661730D03*
X892571Y1661730D03*
X887571Y1661730D03*
X882571Y1661730D03*
X877571Y1661730D03*
X872571Y1661730D03*
X867571Y1661730D03*
X862571Y1661730D03*
D33*
X-26238Y1708582D03*
X1211326Y1708582D03*
D34*
X-35293Y63500D02*
X-35290Y63722D01*
X-35282Y63944D01*
X-35268Y64166D01*
X-35249Y64388D01*
X-35225Y64608D01*
X-35195Y64829D01*
X-35160Y65048D01*
X-35119Y65267D01*
X-35073Y65484D01*
X-35022Y65700D01*
X-34965Y65915D01*
X-34903Y66129D01*
X-34836Y66340D01*
X-34764Y66551D01*
X-34686Y66759D01*
X-34604Y66965D01*
X-34516Y67169D01*
X-34424Y67372D01*
X-34326Y67571D01*
X-34224Y67768D01*
X-34117Y67963D01*
X-34005Y68155D01*
X-33888Y68344D01*
X-33767Y68531D01*
X-33641Y68714D01*
X-33511Y68894D01*
X-33376Y69071D01*
X-33238Y69244D01*
X-33095Y69414D01*
X-32947Y69581D01*
X-32796Y69744D01*
X-32641Y69903D01*
X-32482Y70058D01*
X-32319Y70209D01*
X-32152Y70357D01*
X-31982Y70500D01*
X-31809Y70638D01*
X-31632Y70773D01*
X-31452Y70903D01*
X-31269Y71029D01*
X-31082Y71150D01*
X-30893Y71267D01*
X-30701Y71379D01*
X-30506Y71486D01*
X-30309Y71588D01*
X-30110Y71686D01*
X-29907Y71778D01*
X-29703Y71866D01*
X-29497Y71948D01*
X-29289Y72026D01*
X-29078Y72098D01*
X-28867Y72165D01*
X-28653Y72227D01*
X-28438Y72284D01*
X-28222Y72335D01*
X-28005Y72381D01*
X-27786Y72422D01*
X-27567Y72457D01*
X-27346Y72487D01*
X-27126Y72511D01*
X-26904Y72530D01*
X-26682Y72544D01*
X-26460Y72552D01*
X-26238Y72555D01*
X-26016Y72552D01*
X-25794Y72544D01*
X-25572Y72530D01*
X-25350Y72511D01*
X-25130Y72487D01*
X-24909Y72457D01*
X-24690Y72422D01*
X-24471Y72381D01*
X-24254Y72335D01*
X-24038Y72284D01*
X-23823Y72227D01*
X-23609Y72165D01*
X-23398Y72098D01*
X-23187Y72026D01*
X-22979Y71948D01*
X-22773Y71866D01*
X-22569Y71778D01*
X-22366Y71686D01*
X-22167Y71588D01*
X-21970Y71486D01*
X-21775Y71379D01*
X-21583Y71267D01*
X-21394Y71150D01*
X-21207Y71029D01*
X-21024Y70903D01*
X-20844Y70773D01*
X-20667Y70638D01*
X-20494Y70500D01*
X-20324Y70357D01*
X-20157Y70209D01*
X-19994Y70058D01*
X-19835Y69903D01*
X-19680Y69744D01*
X-19529Y69581D01*
X-19381Y69414D01*
X-19238Y69244D01*
X-19100Y69071D01*
X-18965Y68894D01*
X-18835Y68714D01*
X-18709Y68531D01*
X-18588Y68344D01*
X-18471Y68155D01*
X-18359Y67963D01*
X-18252Y67768D01*
X-18150Y67571D01*
X-18052Y67372D01*
X-17960Y67169D01*
X-17872Y66965D01*
X-17790Y66759D01*
X-17712Y66551D01*
X-17640Y66340D01*
X-17573Y66129D01*
X-17511Y65915D01*
X-17454Y65700D01*
X-17403Y65484D01*
X-17357Y65267D01*
X-17316Y65048D01*
X-17281Y64829D01*
X-17251Y64608D01*
X-17227Y64388D01*
X-17208Y64166D01*
X-17194Y63944D01*
X-17186Y63722D01*
X-17183Y63500D01*
X-17186Y63278D01*
X-17194Y63056D01*
X-17208Y62834D01*
X-17227Y62612D01*
X-17251Y62392D01*
X-17281Y62171D01*
X-17316Y61952D01*
X-17357Y61733D01*
X-17403Y61516D01*
X-17454Y61300D01*
X-17511Y61085D01*
X-17573Y60871D01*
X-17640Y60660D01*
X-17712Y60449D01*
X-17790Y60241D01*
X-17872Y60035D01*
X-17960Y59831D01*
X-18052Y59628D01*
X-18150Y59429D01*
X-18252Y59232D01*
X-18359Y59037D01*
X-18471Y58845D01*
X-18588Y58656D01*
X-18709Y58469D01*
X-18835Y58286D01*
X-18965Y58106D01*
X-19100Y57929D01*
X-19238Y57756D01*
X-19381Y57586D01*
X-19529Y57419D01*
X-19680Y57256D01*
X-19835Y57097D01*
X-19994Y56942D01*
X-20157Y56791D01*
X-20324Y56643D01*
X-20494Y56500D01*
X-20667Y56362D01*
X-20844Y56227D01*
X-21024Y56097D01*
X-21207Y55971D01*
X-21394Y55850D01*
X-21583Y55733D01*
X-21775Y55621D01*
X-21970Y55514D01*
X-22167Y55412D01*
X-22366Y55314D01*
X-22569Y55222D01*
X-22773Y55134D01*
X-22979Y55052D01*
X-23187Y54974D01*
X-23398Y54902D01*
X-23609Y54835D01*
X-23823Y54773D01*
X-24038Y54716D01*
X-24254Y54665D01*
X-24471Y54619D01*
X-24690Y54578D01*
X-24909Y54543D01*
X-25130Y54513D01*
X-25350Y54489D01*
X-25572Y54470D01*
X-25794Y54456D01*
X-26016Y54448D01*
X-26238Y54445D01*
X-26460Y54448D01*
X-26682Y54456D01*
X-26904Y54470D01*
X-27126Y54489D01*
X-27346Y54513D01*
X-27567Y54543D01*
X-27786Y54578D01*
X-28005Y54619D01*
X-28222Y54665D01*
X-28438Y54716D01*
X-28653Y54773D01*
X-28867Y54835D01*
X-29078Y54902D01*
X-29289Y54974D01*
X-29497Y55052D01*
X-29703Y55134D01*
X-29907Y55222D01*
X-30110Y55314D01*
X-30309Y55412D01*
X-30506Y55514D01*
X-30701Y55621D01*
X-30893Y55733D01*
X-31082Y55850D01*
X-31269Y55971D01*
X-31452Y56097D01*
X-31632Y56227D01*
X-31809Y56362D01*
X-31982Y56500D01*
X-32152Y56643D01*
X-32319Y56791D01*
X-32482Y56942D01*
X-32641Y57097D01*
X-32796Y57256D01*
X-32947Y57419D01*
X-33095Y57586D01*
X-33238Y57756D01*
X-33376Y57929D01*
X-33511Y58106D01*
X-33641Y58286D01*
X-33767Y58469D01*
X-33888Y58656D01*
X-34005Y58845D01*
X-34117Y59037D01*
X-34224Y59232D01*
X-34326Y59429D01*
X-34424Y59628D01*
X-34516Y59831D01*
X-34604Y60035D01*
X-34686Y60241D01*
X-34764Y60449D01*
X-34836Y60660D01*
X-34903Y60871D01*
X-34965Y61085D01*
X-35022Y61300D01*
X-35073Y61516D01*
X-35119Y61733D01*
X-35160Y61952D01*
X-35195Y62171D01*
X-35225Y62392D01*
X-35249Y62612D01*
X-35268Y62834D01*
X-35282Y63056D01*
X-35290Y63278D01*
X-35293Y63500D01*
D35*
X-26238Y63500D03*
M02*
