G04 EAGLE Gerber RS-274X export*
G75*
%MOMM*%
%FSLAX34Y34*%
%LPD*%
%INSoldermask Bottom*%
%IPPOS*%
%AMOC8*
5,1,8,0,0,1.08239X$1,22.5*%
G01*
%ADD10C,0.838200*%
%ADD11R,1.203200X1.303200*%
%ADD12R,0.753200X1.403200*%
%ADD13R,1.303200X1.203200*%
%ADD14R,0.803200X1.403200*%
%ADD15R,0.503200X0.863200*%
%ADD16R,0.840000X0.440000*%
%ADD17R,0.940000X1.520000*%
%ADD18C,2.082800*%
%ADD19R,4.803200X1.203200*%
%ADD20R,3.603200X1.803200*%
%ADD21R,0.838200X1.473200*%
%ADD22R,0.553200X1.003200*%
%ADD23R,2.703200X1.903200*%
%ADD24R,1.473200X0.838200*%
%ADD25R,0.753200X1.003200*%
%ADD26R,1.033200X0.833200*%
%ADD27R,0.953200X0.903200*%
%ADD28R,1.103200X0.483200*%
%ADD29R,3.903200X3.903200*%
%ADD30R,0.483200X1.103200*%
%ADD31R,2.203200X1.403200*%
%ADD32R,1.553200X0.803200*%
%ADD33C,1.203200*%
%ADD34C,1.270000*%
%ADD35C,1.703200*%

G36*
X962041Y1401813D02*
X962041Y1401813D01*
X962107Y1401815D01*
X962150Y1401833D01*
X962197Y1401841D01*
X962254Y1401875D01*
X962315Y1401899D01*
X962350Y1401931D01*
X962390Y1401955D01*
X962432Y1402006D01*
X962480Y1402051D01*
X962502Y1402093D01*
X962532Y1402130D01*
X962553Y1402192D01*
X962583Y1402250D01*
X962591Y1402305D01*
X962603Y1402342D01*
X962602Y1402381D01*
X962610Y1402436D01*
X962610Y1408024D01*
X962599Y1408089D01*
X962597Y1408154D01*
X962579Y1408198D01*
X962571Y1408245D01*
X962537Y1408301D01*
X962513Y1408362D01*
X962481Y1408397D01*
X962457Y1408438D01*
X962406Y1408479D01*
X962361Y1408528D01*
X962319Y1408549D01*
X962282Y1408579D01*
X962220Y1408600D01*
X962162Y1408630D01*
X962107Y1408639D01*
X962070Y1408651D01*
X962031Y1408650D01*
X961976Y1408658D01*
X958166Y1408658D01*
X958101Y1408646D01*
X958036Y1408644D01*
X957992Y1408627D01*
X957945Y1408618D01*
X957889Y1408585D01*
X957828Y1408560D01*
X957793Y1408528D01*
X957752Y1408504D01*
X957711Y1408453D01*
X957662Y1408409D01*
X957641Y1408367D01*
X957611Y1408330D01*
X957590Y1408268D01*
X957560Y1408209D01*
X957552Y1408155D01*
X957539Y1408118D01*
X957540Y1408078D01*
X957532Y1408024D01*
X957532Y1402436D01*
X957544Y1402371D01*
X957546Y1402305D01*
X957563Y1402262D01*
X957572Y1402215D01*
X957605Y1402158D01*
X957630Y1402097D01*
X957662Y1402063D01*
X957686Y1402022D01*
X957737Y1401980D01*
X957781Y1401932D01*
X957823Y1401910D01*
X957860Y1401880D01*
X957922Y1401859D01*
X957981Y1401829D01*
X958035Y1401821D01*
X958072Y1401809D01*
X958112Y1401810D01*
X958166Y1401802D01*
X961976Y1401802D01*
X962041Y1401813D01*
G37*
G36*
X366970Y1401813D02*
X366970Y1401813D01*
X367036Y1401815D01*
X367079Y1401833D01*
X367126Y1401841D01*
X367183Y1401875D01*
X367243Y1401899D01*
X367278Y1401931D01*
X367319Y1401955D01*
X367361Y1402006D01*
X367409Y1402051D01*
X367431Y1402093D01*
X367460Y1402130D01*
X367481Y1402192D01*
X367512Y1402250D01*
X367520Y1402305D01*
X367532Y1402342D01*
X367531Y1402381D01*
X367539Y1402436D01*
X367539Y1408024D01*
X367528Y1408089D01*
X367526Y1408154D01*
X367508Y1408198D01*
X367500Y1408245D01*
X367466Y1408301D01*
X367441Y1408362D01*
X367410Y1408397D01*
X367385Y1408438D01*
X367334Y1408479D01*
X367290Y1408528D01*
X367248Y1408549D01*
X367211Y1408579D01*
X367149Y1408600D01*
X367090Y1408630D01*
X367036Y1408639D01*
X366999Y1408651D01*
X366959Y1408650D01*
X366905Y1408658D01*
X363095Y1408658D01*
X363030Y1408646D01*
X362964Y1408644D01*
X362921Y1408627D01*
X362874Y1408618D01*
X362817Y1408585D01*
X362757Y1408560D01*
X362722Y1408528D01*
X362681Y1408504D01*
X362640Y1408453D01*
X362591Y1408409D01*
X362569Y1408367D01*
X362540Y1408330D01*
X362519Y1408268D01*
X362488Y1408209D01*
X362480Y1408155D01*
X362468Y1408118D01*
X362469Y1408078D01*
X362461Y1408024D01*
X362461Y1402436D01*
X362472Y1402371D01*
X362474Y1402305D01*
X362492Y1402262D01*
X362500Y1402215D01*
X362534Y1402158D01*
X362559Y1402097D01*
X362590Y1402063D01*
X362615Y1402022D01*
X362666Y1401980D01*
X362710Y1401932D01*
X362752Y1401910D01*
X362789Y1401880D01*
X362851Y1401859D01*
X362910Y1401829D01*
X362964Y1401821D01*
X363001Y1401809D01*
X363041Y1401810D01*
X363095Y1401802D01*
X366905Y1401802D01*
X366970Y1401813D01*
G37*
G36*
X962041Y966737D02*
X962041Y966737D01*
X962107Y966739D01*
X962150Y966756D01*
X962197Y966765D01*
X962254Y966798D01*
X962315Y966823D01*
X962350Y966855D01*
X962390Y966879D01*
X962432Y966930D01*
X962480Y966974D01*
X962502Y967016D01*
X962532Y967053D01*
X962553Y967115D01*
X962583Y967174D01*
X962591Y967228D01*
X962603Y967265D01*
X962602Y967305D01*
X962610Y967359D01*
X962610Y972947D01*
X962599Y973012D01*
X962597Y973078D01*
X962579Y973121D01*
X962571Y973168D01*
X962537Y973225D01*
X962513Y973286D01*
X962481Y973321D01*
X962457Y973361D01*
X962406Y973403D01*
X962361Y973451D01*
X962319Y973473D01*
X962282Y973503D01*
X962220Y973524D01*
X962162Y973554D01*
X962107Y973562D01*
X962070Y973574D01*
X962031Y973573D01*
X961976Y973581D01*
X958166Y973581D01*
X958101Y973570D01*
X958036Y973568D01*
X957992Y973550D01*
X957945Y973542D01*
X957889Y973508D01*
X957828Y973484D01*
X957793Y973452D01*
X957752Y973428D01*
X957711Y973377D01*
X957662Y973332D01*
X957641Y973290D01*
X957611Y973253D01*
X957590Y973191D01*
X957560Y973133D01*
X957552Y973078D01*
X957539Y973041D01*
X957540Y973002D01*
X957532Y972947D01*
X957532Y967359D01*
X957544Y967294D01*
X957546Y967229D01*
X957563Y967185D01*
X957572Y967138D01*
X957605Y967082D01*
X957630Y967021D01*
X957662Y966986D01*
X957686Y966945D01*
X957737Y966904D01*
X957781Y966855D01*
X957823Y966834D01*
X957860Y966804D01*
X957922Y966783D01*
X957981Y966753D01*
X958035Y966745D01*
X958072Y966732D01*
X958112Y966733D01*
X958166Y966725D01*
X961976Y966725D01*
X962041Y966737D01*
G37*
G36*
X366970Y966737D02*
X366970Y966737D01*
X367036Y966739D01*
X367079Y966756D01*
X367126Y966765D01*
X367183Y966798D01*
X367243Y966823D01*
X367278Y966855D01*
X367319Y966879D01*
X367361Y966930D01*
X367409Y966974D01*
X367431Y967016D01*
X367460Y967053D01*
X367481Y967115D01*
X367512Y967174D01*
X367520Y967228D01*
X367532Y967265D01*
X367531Y967305D01*
X367539Y967359D01*
X367539Y972947D01*
X367528Y973012D01*
X367526Y973078D01*
X367508Y973121D01*
X367500Y973168D01*
X367466Y973225D01*
X367441Y973286D01*
X367410Y973321D01*
X367385Y973361D01*
X367334Y973403D01*
X367290Y973451D01*
X367248Y973473D01*
X367211Y973503D01*
X367149Y973524D01*
X367090Y973554D01*
X367036Y973562D01*
X366999Y973574D01*
X366959Y973573D01*
X366905Y973581D01*
X363095Y973581D01*
X363030Y973570D01*
X362964Y973568D01*
X362921Y973550D01*
X362874Y973542D01*
X362817Y973508D01*
X362757Y973484D01*
X362722Y973452D01*
X362681Y973428D01*
X362640Y973377D01*
X362591Y973332D01*
X362569Y973290D01*
X362540Y973253D01*
X362519Y973191D01*
X362488Y973133D01*
X362480Y973078D01*
X362468Y973041D01*
X362469Y973002D01*
X362461Y972947D01*
X362461Y967359D01*
X362472Y967294D01*
X362474Y967229D01*
X362492Y967185D01*
X362500Y967138D01*
X362534Y967082D01*
X362559Y967021D01*
X362590Y966986D01*
X362615Y966945D01*
X362666Y966904D01*
X362710Y966855D01*
X362752Y966834D01*
X362789Y966804D01*
X362851Y966783D01*
X362910Y966753D01*
X362964Y966745D01*
X363001Y966732D01*
X363041Y966733D01*
X363095Y966725D01*
X366905Y966725D01*
X366970Y966737D01*
G37*
G36*
X962041Y531660D02*
X962041Y531660D01*
X962107Y531662D01*
X962150Y531680D01*
X962197Y531688D01*
X962254Y531722D01*
X962315Y531746D01*
X962350Y531778D01*
X962390Y531802D01*
X962432Y531853D01*
X962480Y531898D01*
X962502Y531940D01*
X962532Y531976D01*
X962553Y532039D01*
X962583Y532097D01*
X962591Y532152D01*
X962603Y532189D01*
X962602Y532228D01*
X962610Y532283D01*
X962610Y537871D01*
X962599Y537935D01*
X962597Y538001D01*
X962579Y538045D01*
X962571Y538091D01*
X962537Y538148D01*
X962513Y538209D01*
X962481Y538244D01*
X962457Y538285D01*
X962406Y538326D01*
X962361Y538375D01*
X962319Y538396D01*
X962282Y538426D01*
X962220Y538447D01*
X962162Y538477D01*
X962107Y538485D01*
X962070Y538498D01*
X962031Y538497D01*
X961976Y538505D01*
X958166Y538505D01*
X958101Y538493D01*
X958036Y538491D01*
X957992Y538474D01*
X957945Y538465D01*
X957889Y538432D01*
X957828Y538407D01*
X957793Y538375D01*
X957752Y538351D01*
X957711Y538300D01*
X957662Y538256D01*
X957641Y538214D01*
X957611Y538177D01*
X957590Y538115D01*
X957560Y538056D01*
X957552Y538002D01*
X957539Y537964D01*
X957540Y537925D01*
X957532Y537871D01*
X957532Y532283D01*
X957544Y532218D01*
X957546Y532152D01*
X957563Y532108D01*
X957572Y532062D01*
X957605Y532005D01*
X957630Y531944D01*
X957662Y531909D01*
X957686Y531869D01*
X957737Y531827D01*
X957781Y531779D01*
X957823Y531757D01*
X957860Y531727D01*
X957922Y531706D01*
X957981Y531676D01*
X958035Y531668D01*
X958072Y531655D01*
X958112Y531656D01*
X958166Y531648D01*
X961976Y531648D01*
X962041Y531660D01*
G37*
G36*
X366970Y531660D02*
X366970Y531660D01*
X367036Y531662D01*
X367079Y531680D01*
X367126Y531688D01*
X367183Y531722D01*
X367243Y531746D01*
X367278Y531778D01*
X367319Y531802D01*
X367361Y531853D01*
X367409Y531898D01*
X367431Y531940D01*
X367460Y531976D01*
X367481Y532039D01*
X367512Y532097D01*
X367520Y532152D01*
X367532Y532189D01*
X367531Y532228D01*
X367539Y532283D01*
X367539Y537871D01*
X367528Y537935D01*
X367526Y538001D01*
X367508Y538045D01*
X367500Y538091D01*
X367466Y538148D01*
X367441Y538209D01*
X367410Y538244D01*
X367385Y538285D01*
X367334Y538326D01*
X367290Y538375D01*
X367248Y538396D01*
X367211Y538426D01*
X367149Y538447D01*
X367090Y538477D01*
X367036Y538485D01*
X366999Y538498D01*
X366959Y538497D01*
X366905Y538505D01*
X363095Y538505D01*
X363030Y538493D01*
X362964Y538491D01*
X362921Y538474D01*
X362874Y538465D01*
X362817Y538432D01*
X362757Y538407D01*
X362722Y538375D01*
X362681Y538351D01*
X362640Y538300D01*
X362591Y538256D01*
X362569Y538214D01*
X362540Y538177D01*
X362519Y538115D01*
X362488Y538056D01*
X362480Y538002D01*
X362468Y537964D01*
X362469Y537925D01*
X362461Y537871D01*
X362461Y532283D01*
X362472Y532218D01*
X362474Y532152D01*
X362492Y532108D01*
X362500Y532062D01*
X362534Y532005D01*
X362559Y531944D01*
X362590Y531909D01*
X362615Y531869D01*
X362666Y531827D01*
X362710Y531779D01*
X362752Y531757D01*
X362789Y531727D01*
X362851Y531706D01*
X362910Y531676D01*
X362964Y531668D01*
X363001Y531655D01*
X363041Y531656D01*
X363095Y531648D01*
X366905Y531648D01*
X366970Y531660D01*
G37*
G36*
X962041Y96583D02*
X962041Y96583D01*
X962107Y96585D01*
X962150Y96603D01*
X962197Y96611D01*
X962254Y96645D01*
X962315Y96670D01*
X962350Y96701D01*
X962390Y96726D01*
X962432Y96777D01*
X962480Y96821D01*
X962502Y96863D01*
X962532Y96900D01*
X962553Y96962D01*
X962583Y97021D01*
X962591Y97075D01*
X962603Y97112D01*
X962602Y97152D01*
X962610Y97206D01*
X962610Y102794D01*
X962599Y102859D01*
X962597Y102925D01*
X962579Y102968D01*
X962571Y103015D01*
X962537Y103072D01*
X962513Y103132D01*
X962481Y103167D01*
X962457Y103208D01*
X962406Y103250D01*
X962361Y103298D01*
X962319Y103320D01*
X962282Y103349D01*
X962220Y103370D01*
X962162Y103401D01*
X962107Y103409D01*
X962070Y103421D01*
X962031Y103420D01*
X961976Y103428D01*
X958166Y103428D01*
X958101Y103417D01*
X958036Y103415D01*
X957992Y103397D01*
X957945Y103389D01*
X957889Y103355D01*
X957828Y103330D01*
X957793Y103299D01*
X957752Y103274D01*
X957711Y103223D01*
X957662Y103179D01*
X957641Y103137D01*
X957611Y103100D01*
X957590Y103038D01*
X957560Y102979D01*
X957552Y102925D01*
X957539Y102888D01*
X957540Y102848D01*
X957532Y102794D01*
X957532Y97206D01*
X957544Y97141D01*
X957546Y97075D01*
X957563Y97032D01*
X957572Y96985D01*
X957605Y96928D01*
X957630Y96868D01*
X957662Y96833D01*
X957686Y96792D01*
X957737Y96751D01*
X957781Y96702D01*
X957823Y96680D01*
X957860Y96651D01*
X957922Y96630D01*
X957981Y96599D01*
X958035Y96591D01*
X958072Y96579D01*
X958112Y96580D01*
X958166Y96572D01*
X961976Y96572D01*
X962041Y96583D01*
G37*
G36*
X366970Y96583D02*
X366970Y96583D01*
X367036Y96585D01*
X367079Y96603D01*
X367126Y96611D01*
X367183Y96645D01*
X367243Y96670D01*
X367278Y96701D01*
X367319Y96726D01*
X367361Y96777D01*
X367409Y96821D01*
X367431Y96863D01*
X367460Y96900D01*
X367481Y96962D01*
X367512Y97021D01*
X367520Y97075D01*
X367532Y97112D01*
X367531Y97152D01*
X367539Y97206D01*
X367539Y102794D01*
X367528Y102859D01*
X367526Y102925D01*
X367508Y102968D01*
X367500Y103015D01*
X367466Y103072D01*
X367441Y103132D01*
X367410Y103167D01*
X367385Y103208D01*
X367334Y103250D01*
X367290Y103298D01*
X367248Y103320D01*
X367211Y103349D01*
X367149Y103370D01*
X367090Y103401D01*
X367036Y103409D01*
X366999Y103421D01*
X366959Y103420D01*
X366905Y103428D01*
X363095Y103428D01*
X363030Y103417D01*
X362964Y103415D01*
X362921Y103397D01*
X362874Y103389D01*
X362817Y103355D01*
X362757Y103330D01*
X362722Y103299D01*
X362681Y103274D01*
X362640Y103223D01*
X362591Y103179D01*
X362569Y103137D01*
X362540Y103100D01*
X362519Y103038D01*
X362488Y102979D01*
X362480Y102925D01*
X362468Y102888D01*
X362469Y102848D01*
X362461Y102794D01*
X362461Y97206D01*
X362472Y97141D01*
X362474Y97075D01*
X362492Y97032D01*
X362500Y96985D01*
X362534Y96928D01*
X362559Y96868D01*
X362590Y96833D01*
X362615Y96792D01*
X362666Y96751D01*
X362710Y96702D01*
X362752Y96680D01*
X362789Y96651D01*
X362851Y96630D01*
X362910Y96599D01*
X362964Y96591D01*
X363001Y96579D01*
X363041Y96580D01*
X363095Y96572D01*
X366905Y96572D01*
X366970Y96583D01*
G37*
D10*
X580000Y10000D03*
X5000Y390000D03*
D11*
X295000Y91500D03*
X295000Y108500D03*
X275000Y108500D03*
X275000Y91500D03*
D12*
X315500Y133001D03*
X325000Y133001D03*
X334500Y133001D03*
X334500Y106999D03*
X315500Y106999D03*
D13*
X333500Y150000D03*
X316500Y150000D03*
D11*
X275000Y131500D03*
X275000Y148500D03*
X295000Y131500D03*
X295000Y148500D03*
X189000Y148500D03*
X189000Y131500D03*
D14*
X210550Y228000D03*
X223250Y228000D03*
X235950Y228000D03*
X248650Y228000D03*
X261350Y228000D03*
X274050Y228000D03*
X286750Y228000D03*
X299450Y228000D03*
X299450Y172000D03*
X286750Y172000D03*
X274050Y172000D03*
X261350Y172000D03*
X248650Y172000D03*
X235950Y172000D03*
X223250Y172000D03*
X210550Y172000D03*
D11*
X255000Y131500D03*
X255000Y148500D03*
X205000Y148500D03*
X205000Y131500D03*
D15*
X218500Y149200D03*
X225000Y130800D03*
X231500Y130800D03*
X218500Y130800D03*
X225000Y149200D03*
X231500Y149200D03*
D11*
X225000Y251500D03*
X225000Y268500D03*
D16*
X394900Y122500D03*
X394900Y127500D03*
X394900Y132500D03*
X394900Y137500D03*
X374900Y137500D03*
X374900Y132500D03*
X374900Y127500D03*
X374900Y122500D03*
D17*
X385000Y130000D03*
D11*
X355000Y121500D03*
X355000Y138500D03*
D18*
X275000Y70000D03*
X300400Y70000D03*
D13*
X316500Y75000D03*
X333500Y75000D03*
X366500Y75000D03*
X349500Y75000D03*
X363500Y10000D03*
X346500Y10000D03*
D19*
X418000Y90000D03*
X418000Y110000D03*
D20*
X470000Y66000D03*
X470000Y134000D03*
D21*
X370080Y100000D03*
X359920Y100000D03*
D18*
X377700Y100000D03*
X352300Y100000D03*
D22*
X355000Y25500D03*
X360000Y25500D03*
X365000Y25500D03*
X350000Y25500D03*
X345000Y25500D03*
X345000Y54500D03*
X350000Y54500D03*
X355000Y54500D03*
X360000Y54500D03*
X365000Y54500D03*
D23*
X355000Y40000D03*
D11*
X35600Y59500D03*
X35600Y42500D03*
D13*
X333500Y90000D03*
X316500Y90000D03*
D11*
X35600Y9500D03*
X35600Y26500D03*
D13*
X176500Y90000D03*
X193500Y90000D03*
X176500Y110000D03*
X193500Y110000D03*
D24*
X215000Y108128D03*
X215000Y100000D03*
X215000Y91872D03*
D25*
X45500Y302000D03*
X55000Y302000D03*
X64500Y302000D03*
X64500Y278000D03*
X45500Y278000D03*
X55000Y278000D03*
D13*
X63500Y260000D03*
X46500Y260000D03*
X46500Y240000D03*
X63500Y240000D03*
D11*
X28000Y258500D03*
X28000Y241500D03*
D26*
X29000Y301500D03*
X29000Y278500D03*
D11*
X40000Y338500D03*
X40000Y321500D03*
X40000Y378500D03*
X40000Y361500D03*
D13*
X73500Y320000D03*
X56500Y320000D03*
X73500Y340000D03*
X56500Y340000D03*
D26*
X56000Y358500D03*
X56000Y381500D03*
X75000Y358500D03*
X75000Y381500D03*
D13*
X293500Y330000D03*
X276500Y330000D03*
X276500Y350000D03*
X293500Y350000D03*
D12*
X294500Y286999D03*
X285000Y286999D03*
X275500Y286999D03*
X275500Y313001D03*
X294500Y313001D03*
D11*
X315000Y291500D03*
X315000Y308500D03*
X255000Y308500D03*
X255000Y291500D03*
X225000Y371500D03*
X225000Y388500D03*
D27*
X148250Y380000D03*
X161750Y380000D03*
X161750Y390000D03*
X148250Y390000D03*
D28*
X192500Y330000D03*
D29*
X165000Y310000D03*
D28*
X192500Y325000D03*
X192500Y320000D03*
X192500Y315000D03*
X192500Y310000D03*
X192500Y305000D03*
X192500Y300000D03*
X192500Y295000D03*
X192500Y290000D03*
D30*
X185000Y282500D03*
X180000Y282500D03*
X175000Y282500D03*
X170000Y282500D03*
X165000Y282500D03*
X160000Y282500D03*
X155000Y282500D03*
X150000Y282500D03*
X145000Y282500D03*
D28*
X137500Y290000D03*
X137500Y295000D03*
X137500Y300000D03*
X137500Y305000D03*
X137500Y310000D03*
X137500Y315000D03*
X137500Y320000D03*
X137500Y325000D03*
X137500Y330000D03*
D30*
X145000Y337500D03*
X150000Y337500D03*
X155000Y337500D03*
X160000Y337500D03*
X165000Y337500D03*
X170000Y337500D03*
X175000Y337500D03*
X180000Y337500D03*
X185000Y337500D03*
D13*
X146500Y368000D03*
X163500Y368000D03*
D11*
X179000Y388500D03*
X179000Y371500D03*
X131000Y388500D03*
X131000Y371500D03*
D13*
X96500Y385000D03*
X113500Y385000D03*
X96500Y295000D03*
X113500Y295000D03*
D11*
X205000Y371500D03*
X205000Y388500D03*
D13*
X163500Y260000D03*
X146500Y260000D03*
X113500Y325000D03*
X96500Y325000D03*
X113500Y310000D03*
X96500Y310000D03*
D31*
X118250Y72000D03*
X118250Y128000D03*
D32*
X155000Y85000D03*
X155000Y95000D03*
X155000Y105000D03*
X155000Y115000D03*
D13*
X96500Y355000D03*
X113500Y355000D03*
X113500Y340000D03*
X96500Y340000D03*
D18*
X542000Y104000D03*
X567400Y104000D03*
D13*
X209500Y335000D03*
X226500Y335000D03*
X209500Y351000D03*
X226500Y351000D03*
X113500Y370000D03*
X96500Y370000D03*
D18*
X515000Y60000D03*
D33*
X31350Y177300D03*
X31350Y190000D03*
X31350Y202700D03*
X31350Y215400D03*
X31350Y164600D03*
X18650Y177300D03*
X18650Y190000D03*
X18650Y202700D03*
X18650Y215400D03*
X18650Y164600D03*
D10*
X1175071Y10000D03*
X600071Y390000D03*
D11*
X890071Y91500D03*
X890071Y108500D03*
X870071Y108500D03*
X870071Y91500D03*
D12*
X910571Y133001D03*
X920071Y133001D03*
X929571Y133001D03*
X929571Y106999D03*
X910571Y106999D03*
D13*
X928571Y150000D03*
X911571Y150000D03*
D11*
X870071Y131500D03*
X870071Y148500D03*
X890071Y131500D03*
X890071Y148500D03*
X784071Y148500D03*
X784071Y131500D03*
D14*
X805621Y228000D03*
X818321Y228000D03*
X831021Y228000D03*
X843721Y228000D03*
X856421Y228000D03*
X869121Y228000D03*
X881821Y228000D03*
X894521Y228000D03*
X894521Y172000D03*
X881821Y172000D03*
X869121Y172000D03*
X856421Y172000D03*
X843721Y172000D03*
X831021Y172000D03*
X818321Y172000D03*
X805621Y172000D03*
D11*
X850071Y131500D03*
X850071Y148500D03*
X800071Y148500D03*
X800071Y131500D03*
D15*
X813571Y149200D03*
X820071Y130800D03*
X826571Y130800D03*
X813571Y130800D03*
X820071Y149200D03*
X826571Y149200D03*
D11*
X820071Y251500D03*
X820071Y268500D03*
D16*
X989971Y122500D03*
X989971Y127500D03*
X989971Y132500D03*
X989971Y137500D03*
X969971Y137500D03*
X969971Y132500D03*
X969971Y127500D03*
X969971Y122500D03*
D17*
X980071Y130000D03*
D11*
X950071Y121500D03*
X950071Y138500D03*
D18*
X870071Y70000D03*
X895471Y70000D03*
D13*
X911571Y75000D03*
X928571Y75000D03*
X961571Y75000D03*
X944571Y75000D03*
X958571Y10000D03*
X941571Y10000D03*
D19*
X1013071Y90000D03*
X1013071Y110000D03*
D20*
X1065071Y66000D03*
X1065071Y134000D03*
D21*
X965151Y100000D03*
X954991Y100000D03*
D18*
X972771Y100000D03*
X947371Y100000D03*
D22*
X950071Y25500D03*
X955071Y25500D03*
X960071Y25500D03*
X945071Y25500D03*
X940071Y25500D03*
X940071Y54500D03*
X945071Y54500D03*
X950071Y54500D03*
X955071Y54500D03*
X960071Y54500D03*
D23*
X950071Y40000D03*
D11*
X630671Y59500D03*
X630671Y42500D03*
D13*
X928571Y90000D03*
X911571Y90000D03*
D11*
X630671Y9500D03*
X630671Y26500D03*
D13*
X771571Y90000D03*
X788571Y90000D03*
X771571Y110000D03*
X788571Y110000D03*
D24*
X810071Y108128D03*
X810071Y100000D03*
X810071Y91872D03*
D25*
X640571Y302000D03*
X650071Y302000D03*
X659571Y302000D03*
X659571Y278000D03*
X640571Y278000D03*
X650071Y278000D03*
D13*
X658571Y260000D03*
X641571Y260000D03*
X641571Y240000D03*
X658571Y240000D03*
D11*
X623071Y258500D03*
X623071Y241500D03*
D26*
X624071Y301500D03*
X624071Y278500D03*
D11*
X635071Y338500D03*
X635071Y321500D03*
X635071Y378500D03*
X635071Y361500D03*
D13*
X668571Y320000D03*
X651571Y320000D03*
X668571Y340000D03*
X651571Y340000D03*
D26*
X651071Y358500D03*
X651071Y381500D03*
X670071Y358500D03*
X670071Y381500D03*
D13*
X888571Y330000D03*
X871571Y330000D03*
X871571Y350000D03*
X888571Y350000D03*
D12*
X889571Y286999D03*
X880071Y286999D03*
X870571Y286999D03*
X870571Y313001D03*
X889571Y313001D03*
D11*
X910071Y291500D03*
X910071Y308500D03*
X850071Y308500D03*
X850071Y291500D03*
X820071Y371500D03*
X820071Y388500D03*
D27*
X743321Y380000D03*
X756821Y380000D03*
X756821Y390000D03*
X743321Y390000D03*
D28*
X787571Y330000D03*
D29*
X760071Y310000D03*
D28*
X787571Y325000D03*
X787571Y320000D03*
X787571Y315000D03*
X787571Y310000D03*
X787571Y305000D03*
X787571Y300000D03*
X787571Y295000D03*
X787571Y290000D03*
D30*
X780071Y282500D03*
X775071Y282500D03*
X770071Y282500D03*
X765071Y282500D03*
X760071Y282500D03*
X755071Y282500D03*
X750071Y282500D03*
X745071Y282500D03*
X740071Y282500D03*
D28*
X732571Y290000D03*
X732571Y295000D03*
X732571Y300000D03*
X732571Y305000D03*
X732571Y310000D03*
X732571Y315000D03*
X732571Y320000D03*
X732571Y325000D03*
X732571Y330000D03*
D30*
X740071Y337500D03*
X745071Y337500D03*
X750071Y337500D03*
X755071Y337500D03*
X760071Y337500D03*
X765071Y337500D03*
X770071Y337500D03*
X775071Y337500D03*
X780071Y337500D03*
D13*
X741571Y368000D03*
X758571Y368000D03*
D11*
X774071Y388500D03*
X774071Y371500D03*
X726071Y388500D03*
X726071Y371500D03*
D13*
X691571Y385000D03*
X708571Y385000D03*
X691571Y295000D03*
X708571Y295000D03*
D11*
X800071Y371500D03*
X800071Y388500D03*
D13*
X758571Y260000D03*
X741571Y260000D03*
X708571Y325000D03*
X691571Y325000D03*
X708571Y310000D03*
X691571Y310000D03*
D31*
X713321Y72000D03*
X713321Y128000D03*
D32*
X750071Y85000D03*
X750071Y95000D03*
X750071Y105000D03*
X750071Y115000D03*
D13*
X691571Y355000D03*
X708571Y355000D03*
X708571Y340000D03*
X691571Y340000D03*
D18*
X1137071Y104000D03*
X1162471Y104000D03*
D13*
X804571Y335000D03*
X821571Y335000D03*
X804571Y351000D03*
X821571Y351000D03*
X708571Y370000D03*
X691571Y370000D03*
D18*
X1110071Y60000D03*
D33*
X626421Y177300D03*
X626421Y190000D03*
X626421Y202700D03*
X626421Y215400D03*
X626421Y164600D03*
X613721Y177300D03*
X613721Y190000D03*
X613721Y202700D03*
X613721Y215400D03*
X613721Y164600D03*
D10*
X580000Y445077D03*
X5000Y825077D03*
D11*
X295000Y526577D03*
X295000Y543577D03*
X275000Y543577D03*
X275000Y526577D03*
D12*
X315500Y568078D03*
X325000Y568078D03*
X334500Y568078D03*
X334500Y542076D03*
X315500Y542076D03*
D13*
X333500Y585077D03*
X316500Y585077D03*
D11*
X275000Y566577D03*
X275000Y583577D03*
X295000Y566577D03*
X295000Y583577D03*
X189000Y583577D03*
X189000Y566577D03*
D14*
X210550Y663077D03*
X223250Y663077D03*
X235950Y663077D03*
X248650Y663077D03*
X261350Y663077D03*
X274050Y663077D03*
X286750Y663077D03*
X299450Y663077D03*
X299450Y607077D03*
X286750Y607077D03*
X274050Y607077D03*
X261350Y607077D03*
X248650Y607077D03*
X235950Y607077D03*
X223250Y607077D03*
X210550Y607077D03*
D11*
X255000Y566577D03*
X255000Y583577D03*
X205000Y583577D03*
X205000Y566577D03*
D15*
X218500Y584277D03*
X225000Y565877D03*
X231500Y565877D03*
X218500Y565877D03*
X225000Y584277D03*
X231500Y584277D03*
D11*
X225000Y686577D03*
X225000Y703577D03*
D16*
X394900Y557577D03*
X394900Y562577D03*
X394900Y567577D03*
X394900Y572577D03*
X374900Y572577D03*
X374900Y567577D03*
X374900Y562577D03*
X374900Y557577D03*
D17*
X385000Y565077D03*
D11*
X355000Y556577D03*
X355000Y573577D03*
D18*
X275000Y505077D03*
X300400Y505077D03*
D13*
X316500Y510077D03*
X333500Y510077D03*
X366500Y510077D03*
X349500Y510077D03*
X363500Y445077D03*
X346500Y445077D03*
D19*
X418000Y525077D03*
X418000Y545077D03*
D20*
X470000Y501077D03*
X470000Y569077D03*
D21*
X370080Y535077D03*
X359920Y535077D03*
D18*
X377700Y535077D03*
X352300Y535077D03*
D22*
X355000Y460577D03*
X360000Y460577D03*
X365000Y460577D03*
X350000Y460577D03*
X345000Y460577D03*
X345000Y489577D03*
X350000Y489577D03*
X355000Y489577D03*
X360000Y489577D03*
X365000Y489577D03*
D23*
X355000Y475077D03*
D11*
X35600Y494577D03*
X35600Y477577D03*
D13*
X333500Y525077D03*
X316500Y525077D03*
D11*
X35600Y444577D03*
X35600Y461577D03*
D13*
X176500Y525077D03*
X193500Y525077D03*
X176500Y545077D03*
X193500Y545077D03*
D24*
X215000Y543205D03*
X215000Y535077D03*
X215000Y526949D03*
D25*
X45500Y737077D03*
X55000Y737077D03*
X64500Y737077D03*
X64500Y713077D03*
X45500Y713077D03*
X55000Y713077D03*
D13*
X63500Y695077D03*
X46500Y695077D03*
X46500Y675077D03*
X63500Y675077D03*
D11*
X28000Y693577D03*
X28000Y676577D03*
D26*
X29000Y736577D03*
X29000Y713577D03*
D11*
X40000Y773577D03*
X40000Y756577D03*
X40000Y813577D03*
X40000Y796577D03*
D13*
X73500Y755077D03*
X56500Y755077D03*
X73500Y775077D03*
X56500Y775077D03*
D26*
X56000Y793577D03*
X56000Y816577D03*
X75000Y793577D03*
X75000Y816577D03*
D13*
X293500Y765077D03*
X276500Y765077D03*
X276500Y785077D03*
X293500Y785077D03*
D12*
X294500Y722076D03*
X285000Y722076D03*
X275500Y722076D03*
X275500Y748078D03*
X294500Y748078D03*
D11*
X315000Y726577D03*
X315000Y743577D03*
X255000Y743577D03*
X255000Y726577D03*
X225000Y806577D03*
X225000Y823577D03*
D27*
X148250Y815077D03*
X161750Y815077D03*
X161750Y825077D03*
X148250Y825077D03*
D28*
X192500Y765077D03*
D29*
X165000Y745077D03*
D28*
X192500Y760077D03*
X192500Y755077D03*
X192500Y750077D03*
X192500Y745077D03*
X192500Y740077D03*
X192500Y735077D03*
X192500Y730077D03*
X192500Y725077D03*
D30*
X185000Y717577D03*
X180000Y717577D03*
X175000Y717577D03*
X170000Y717577D03*
X165000Y717577D03*
X160000Y717577D03*
X155000Y717577D03*
X150000Y717577D03*
X145000Y717577D03*
D28*
X137500Y725077D03*
X137500Y730077D03*
X137500Y735077D03*
X137500Y740077D03*
X137500Y745077D03*
X137500Y750077D03*
X137500Y755077D03*
X137500Y760077D03*
X137500Y765077D03*
D30*
X145000Y772577D03*
X150000Y772577D03*
X155000Y772577D03*
X160000Y772577D03*
X165000Y772577D03*
X170000Y772577D03*
X175000Y772577D03*
X180000Y772577D03*
X185000Y772577D03*
D13*
X146500Y803077D03*
X163500Y803077D03*
D11*
X179000Y823577D03*
X179000Y806577D03*
X131000Y823577D03*
X131000Y806577D03*
D13*
X96500Y820077D03*
X113500Y820077D03*
X96500Y730077D03*
X113500Y730077D03*
D11*
X205000Y806577D03*
X205000Y823577D03*
D13*
X163500Y695077D03*
X146500Y695077D03*
X113500Y760077D03*
X96500Y760077D03*
X113500Y745077D03*
X96500Y745077D03*
D31*
X118250Y507077D03*
X118250Y563077D03*
D32*
X155000Y520077D03*
X155000Y530077D03*
X155000Y540077D03*
X155000Y550077D03*
D13*
X96500Y790077D03*
X113500Y790077D03*
X113500Y775077D03*
X96500Y775077D03*
D18*
X542000Y539077D03*
X567400Y539077D03*
D13*
X209500Y770077D03*
X226500Y770077D03*
X209500Y786077D03*
X226500Y786077D03*
X113500Y805077D03*
X96500Y805077D03*
D18*
X515000Y495077D03*
D33*
X31350Y612377D03*
X31350Y625077D03*
X31350Y637777D03*
X31350Y650477D03*
X31350Y599677D03*
X18650Y612377D03*
X18650Y625077D03*
X18650Y637777D03*
X18650Y650477D03*
X18650Y599677D03*
D10*
X1175071Y445077D03*
X600071Y825077D03*
D11*
X890071Y526577D03*
X890071Y543577D03*
X870071Y543577D03*
X870071Y526577D03*
D12*
X910571Y568078D03*
X920071Y568078D03*
X929571Y568078D03*
X929571Y542076D03*
X910571Y542076D03*
D13*
X928571Y585077D03*
X911571Y585077D03*
D11*
X870071Y566577D03*
X870071Y583577D03*
X890071Y566577D03*
X890071Y583577D03*
X784071Y583577D03*
X784071Y566577D03*
D14*
X805621Y663077D03*
X818321Y663077D03*
X831021Y663077D03*
X843721Y663077D03*
X856421Y663077D03*
X869121Y663077D03*
X881821Y663077D03*
X894521Y663077D03*
X894521Y607077D03*
X881821Y607077D03*
X869121Y607077D03*
X856421Y607077D03*
X843721Y607077D03*
X831021Y607077D03*
X818321Y607077D03*
X805621Y607077D03*
D11*
X850071Y566577D03*
X850071Y583577D03*
X800071Y583577D03*
X800071Y566577D03*
D15*
X813571Y584277D03*
X820071Y565877D03*
X826571Y565877D03*
X813571Y565877D03*
X820071Y584277D03*
X826571Y584277D03*
D11*
X820071Y686577D03*
X820071Y703577D03*
D16*
X989971Y557577D03*
X989971Y562577D03*
X989971Y567577D03*
X989971Y572577D03*
X969971Y572577D03*
X969971Y567577D03*
X969971Y562577D03*
X969971Y557577D03*
D17*
X980071Y565077D03*
D11*
X950071Y556577D03*
X950071Y573577D03*
D18*
X870071Y505077D03*
X895471Y505077D03*
D13*
X911571Y510077D03*
X928571Y510077D03*
X961571Y510077D03*
X944571Y510077D03*
X958571Y445077D03*
X941571Y445077D03*
D19*
X1013071Y525077D03*
X1013071Y545077D03*
D20*
X1065071Y501077D03*
X1065071Y569077D03*
D21*
X965151Y535077D03*
X954991Y535077D03*
D18*
X972771Y535077D03*
X947371Y535077D03*
D22*
X950071Y460577D03*
X955071Y460577D03*
X960071Y460577D03*
X945071Y460577D03*
X940071Y460577D03*
X940071Y489577D03*
X945071Y489577D03*
X950071Y489577D03*
X955071Y489577D03*
X960071Y489577D03*
D23*
X950071Y475077D03*
D11*
X630671Y494577D03*
X630671Y477577D03*
D13*
X928571Y525077D03*
X911571Y525077D03*
D11*
X630671Y444577D03*
X630671Y461577D03*
D13*
X771571Y525077D03*
X788571Y525077D03*
X771571Y545077D03*
X788571Y545077D03*
D24*
X810071Y543205D03*
X810071Y535077D03*
X810071Y526949D03*
D25*
X640571Y737077D03*
X650071Y737077D03*
X659571Y737077D03*
X659571Y713077D03*
X640571Y713077D03*
X650071Y713077D03*
D13*
X658571Y695077D03*
X641571Y695077D03*
X641571Y675077D03*
X658571Y675077D03*
D11*
X623071Y693577D03*
X623071Y676577D03*
D26*
X624071Y736577D03*
X624071Y713577D03*
D11*
X635071Y773577D03*
X635071Y756577D03*
X635071Y813577D03*
X635071Y796577D03*
D13*
X668571Y755077D03*
X651571Y755077D03*
X668571Y775077D03*
X651571Y775077D03*
D26*
X651071Y793577D03*
X651071Y816577D03*
X670071Y793577D03*
X670071Y816577D03*
D13*
X888571Y765077D03*
X871571Y765077D03*
X871571Y785077D03*
X888571Y785077D03*
D12*
X889571Y722076D03*
X880071Y722076D03*
X870571Y722076D03*
X870571Y748078D03*
X889571Y748078D03*
D11*
X910071Y726577D03*
X910071Y743577D03*
X850071Y743577D03*
X850071Y726577D03*
X820071Y806577D03*
X820071Y823577D03*
D27*
X743321Y815077D03*
X756821Y815077D03*
X756821Y825077D03*
X743321Y825077D03*
D28*
X787571Y765077D03*
D29*
X760071Y745077D03*
D28*
X787571Y760077D03*
X787571Y755077D03*
X787571Y750077D03*
X787571Y745077D03*
X787571Y740077D03*
X787571Y735077D03*
X787571Y730077D03*
X787571Y725077D03*
D30*
X780071Y717577D03*
X775071Y717577D03*
X770071Y717577D03*
X765071Y717577D03*
X760071Y717577D03*
X755071Y717577D03*
X750071Y717577D03*
X745071Y717577D03*
X740071Y717577D03*
D28*
X732571Y725077D03*
X732571Y730077D03*
X732571Y735077D03*
X732571Y740077D03*
X732571Y745077D03*
X732571Y750077D03*
X732571Y755077D03*
X732571Y760077D03*
X732571Y765077D03*
D30*
X740071Y772577D03*
X745071Y772577D03*
X750071Y772577D03*
X755071Y772577D03*
X760071Y772577D03*
X765071Y772577D03*
X770071Y772577D03*
X775071Y772577D03*
X780071Y772577D03*
D13*
X741571Y803077D03*
X758571Y803077D03*
D11*
X774071Y823577D03*
X774071Y806577D03*
X726071Y823577D03*
X726071Y806577D03*
D13*
X691571Y820077D03*
X708571Y820077D03*
X691571Y730077D03*
X708571Y730077D03*
D11*
X800071Y806577D03*
X800071Y823577D03*
D13*
X758571Y695077D03*
X741571Y695077D03*
X708571Y760077D03*
X691571Y760077D03*
X708571Y745077D03*
X691571Y745077D03*
D31*
X713321Y507077D03*
X713321Y563077D03*
D32*
X750071Y520077D03*
X750071Y530077D03*
X750071Y540077D03*
X750071Y550077D03*
D13*
X691571Y790077D03*
X708571Y790077D03*
X708571Y775077D03*
X691571Y775077D03*
D18*
X1137071Y539077D03*
X1162471Y539077D03*
D13*
X804571Y770077D03*
X821571Y770077D03*
X804571Y786077D03*
X821571Y786077D03*
X708571Y805077D03*
X691571Y805077D03*
D18*
X1110071Y495077D03*
D33*
X626421Y612377D03*
X626421Y625077D03*
X626421Y637777D03*
X626421Y650477D03*
X626421Y599677D03*
X613721Y612377D03*
X613721Y625077D03*
X613721Y637777D03*
X613721Y650477D03*
X613721Y599677D03*
D10*
X580000Y880153D03*
X5000Y1260153D03*
D11*
X295000Y961653D03*
X295000Y978653D03*
X275000Y978653D03*
X275000Y961653D03*
D12*
X315500Y1003154D03*
X325000Y1003154D03*
X334500Y1003154D03*
X334500Y977152D03*
X315500Y977152D03*
D13*
X333500Y1020153D03*
X316500Y1020153D03*
D11*
X275000Y1001653D03*
X275000Y1018653D03*
X295000Y1001653D03*
X295000Y1018653D03*
X189000Y1018653D03*
X189000Y1001653D03*
D14*
X210550Y1098153D03*
X223250Y1098153D03*
X235950Y1098153D03*
X248650Y1098153D03*
X261350Y1098153D03*
X274050Y1098153D03*
X286750Y1098153D03*
X299450Y1098153D03*
X299450Y1042153D03*
X286750Y1042153D03*
X274050Y1042153D03*
X261350Y1042153D03*
X248650Y1042153D03*
X235950Y1042153D03*
X223250Y1042153D03*
X210550Y1042153D03*
D11*
X255000Y1001653D03*
X255000Y1018653D03*
X205000Y1018653D03*
X205000Y1001653D03*
D15*
X218500Y1019353D03*
X225000Y1000953D03*
X231500Y1000953D03*
X218500Y1000953D03*
X225000Y1019353D03*
X231500Y1019353D03*
D11*
X225000Y1121653D03*
X225000Y1138653D03*
D16*
X394900Y992653D03*
X394900Y997653D03*
X394900Y1002653D03*
X394900Y1007653D03*
X374900Y1007653D03*
X374900Y1002653D03*
X374900Y997653D03*
X374900Y992653D03*
D17*
X385000Y1000153D03*
D11*
X355000Y991653D03*
X355000Y1008653D03*
D18*
X275000Y940153D03*
X300400Y940153D03*
D13*
X316500Y945153D03*
X333500Y945153D03*
X366500Y945153D03*
X349500Y945153D03*
X363500Y880153D03*
X346500Y880153D03*
D19*
X418000Y960153D03*
X418000Y980153D03*
D20*
X470000Y936153D03*
X470000Y1004153D03*
D21*
X370080Y970153D03*
X359920Y970153D03*
D18*
X377700Y970153D03*
X352300Y970153D03*
D22*
X355000Y895653D03*
X360000Y895653D03*
X365000Y895653D03*
X350000Y895653D03*
X345000Y895653D03*
X345000Y924653D03*
X350000Y924653D03*
X355000Y924653D03*
X360000Y924653D03*
X365000Y924653D03*
D23*
X355000Y910153D03*
D11*
X35600Y929653D03*
X35600Y912653D03*
D13*
X333500Y960153D03*
X316500Y960153D03*
D11*
X35600Y879653D03*
X35600Y896653D03*
D13*
X176500Y960153D03*
X193500Y960153D03*
X176500Y980153D03*
X193500Y980153D03*
D24*
X215000Y978281D03*
X215000Y970153D03*
X215000Y962025D03*
D25*
X45500Y1172153D03*
X55000Y1172153D03*
X64500Y1172153D03*
X64500Y1148153D03*
X45500Y1148153D03*
X55000Y1148153D03*
D13*
X63500Y1130153D03*
X46500Y1130153D03*
X46500Y1110153D03*
X63500Y1110153D03*
D11*
X28000Y1128653D03*
X28000Y1111653D03*
D26*
X29000Y1171653D03*
X29000Y1148653D03*
D11*
X40000Y1208653D03*
X40000Y1191653D03*
X40000Y1248653D03*
X40000Y1231653D03*
D13*
X73500Y1190153D03*
X56500Y1190153D03*
X73500Y1210153D03*
X56500Y1210153D03*
D26*
X56000Y1228653D03*
X56000Y1251653D03*
X75000Y1228653D03*
X75000Y1251653D03*
D13*
X293500Y1200153D03*
X276500Y1200153D03*
X276500Y1220153D03*
X293500Y1220153D03*
D12*
X294500Y1157152D03*
X285000Y1157152D03*
X275500Y1157152D03*
X275500Y1183154D03*
X294500Y1183154D03*
D11*
X315000Y1161653D03*
X315000Y1178653D03*
X255000Y1178653D03*
X255000Y1161653D03*
X225000Y1241653D03*
X225000Y1258653D03*
D27*
X148250Y1250153D03*
X161750Y1250153D03*
X161750Y1260153D03*
X148250Y1260153D03*
D28*
X192500Y1200153D03*
D29*
X165000Y1180153D03*
D28*
X192500Y1195153D03*
X192500Y1190153D03*
X192500Y1185153D03*
X192500Y1180153D03*
X192500Y1175153D03*
X192500Y1170153D03*
X192500Y1165153D03*
X192500Y1160153D03*
D30*
X185000Y1152653D03*
X180000Y1152653D03*
X175000Y1152653D03*
X170000Y1152653D03*
X165000Y1152653D03*
X160000Y1152653D03*
X155000Y1152653D03*
X150000Y1152653D03*
X145000Y1152653D03*
D28*
X137500Y1160153D03*
X137500Y1165153D03*
X137500Y1170153D03*
X137500Y1175153D03*
X137500Y1180153D03*
X137500Y1185153D03*
X137500Y1190153D03*
X137500Y1195153D03*
X137500Y1200153D03*
D30*
X145000Y1207653D03*
X150000Y1207653D03*
X155000Y1207653D03*
X160000Y1207653D03*
X165000Y1207653D03*
X170000Y1207653D03*
X175000Y1207653D03*
X180000Y1207653D03*
X185000Y1207653D03*
D13*
X146500Y1238153D03*
X163500Y1238153D03*
D11*
X179000Y1258653D03*
X179000Y1241653D03*
X131000Y1258653D03*
X131000Y1241653D03*
D13*
X96500Y1255153D03*
X113500Y1255153D03*
X96500Y1165153D03*
X113500Y1165153D03*
D11*
X205000Y1241653D03*
X205000Y1258653D03*
D13*
X163500Y1130153D03*
X146500Y1130153D03*
X113500Y1195153D03*
X96500Y1195153D03*
X113500Y1180153D03*
X96500Y1180153D03*
D31*
X118250Y942153D03*
X118250Y998153D03*
D32*
X155000Y955153D03*
X155000Y965153D03*
X155000Y975153D03*
X155000Y985153D03*
D13*
X96500Y1225153D03*
X113500Y1225153D03*
X113500Y1210153D03*
X96500Y1210153D03*
D18*
X542000Y974153D03*
X567400Y974153D03*
D13*
X209500Y1205153D03*
X226500Y1205153D03*
X209500Y1221153D03*
X226500Y1221153D03*
X113500Y1240153D03*
X96500Y1240153D03*
D18*
X515000Y930153D03*
D33*
X31350Y1047453D03*
X31350Y1060153D03*
X31350Y1072853D03*
X31350Y1085553D03*
X31350Y1034753D03*
X18650Y1047453D03*
X18650Y1060153D03*
X18650Y1072853D03*
X18650Y1085553D03*
X18650Y1034753D03*
D10*
X1175071Y880153D03*
X600071Y1260153D03*
D11*
X890071Y961653D03*
X890071Y978653D03*
X870071Y978653D03*
X870071Y961653D03*
D12*
X910571Y1003154D03*
X920071Y1003154D03*
X929571Y1003154D03*
X929571Y977152D03*
X910571Y977152D03*
D13*
X928571Y1020153D03*
X911571Y1020153D03*
D11*
X870071Y1001653D03*
X870071Y1018653D03*
X890071Y1001653D03*
X890071Y1018653D03*
X784071Y1018653D03*
X784071Y1001653D03*
D14*
X805621Y1098153D03*
X818321Y1098153D03*
X831021Y1098153D03*
X843721Y1098153D03*
X856421Y1098153D03*
X869121Y1098153D03*
X881821Y1098153D03*
X894521Y1098153D03*
X894521Y1042153D03*
X881821Y1042153D03*
X869121Y1042153D03*
X856421Y1042153D03*
X843721Y1042153D03*
X831021Y1042153D03*
X818321Y1042153D03*
X805621Y1042153D03*
D11*
X850071Y1001653D03*
X850071Y1018653D03*
X800071Y1018653D03*
X800071Y1001653D03*
D15*
X813571Y1019353D03*
X820071Y1000953D03*
X826571Y1000953D03*
X813571Y1000953D03*
X820071Y1019353D03*
X826571Y1019353D03*
D11*
X820071Y1121653D03*
X820071Y1138653D03*
D16*
X989971Y992653D03*
X989971Y997653D03*
X989971Y1002653D03*
X989971Y1007653D03*
X969971Y1007653D03*
X969971Y1002653D03*
X969971Y997653D03*
X969971Y992653D03*
D17*
X980071Y1000153D03*
D11*
X950071Y991653D03*
X950071Y1008653D03*
D18*
X870071Y940153D03*
X895471Y940153D03*
D13*
X911571Y945153D03*
X928571Y945153D03*
X961571Y945153D03*
X944571Y945153D03*
X958571Y880153D03*
X941571Y880153D03*
D19*
X1013071Y960153D03*
X1013071Y980153D03*
D20*
X1065071Y936153D03*
X1065071Y1004153D03*
D21*
X965151Y970153D03*
X954991Y970153D03*
D18*
X972771Y970153D03*
X947371Y970153D03*
D22*
X950071Y895653D03*
X955071Y895653D03*
X960071Y895653D03*
X945071Y895653D03*
X940071Y895653D03*
X940071Y924653D03*
X945071Y924653D03*
X950071Y924653D03*
X955071Y924653D03*
X960071Y924653D03*
D23*
X950071Y910153D03*
D11*
X630671Y929653D03*
X630671Y912653D03*
D13*
X928571Y960153D03*
X911571Y960153D03*
D11*
X630671Y879653D03*
X630671Y896653D03*
D13*
X771571Y960153D03*
X788571Y960153D03*
X771571Y980153D03*
X788571Y980153D03*
D24*
X810071Y978281D03*
X810071Y970153D03*
X810071Y962025D03*
D25*
X640571Y1172153D03*
X650071Y1172153D03*
X659571Y1172153D03*
X659571Y1148153D03*
X640571Y1148153D03*
X650071Y1148153D03*
D13*
X658571Y1130153D03*
X641571Y1130153D03*
X641571Y1110153D03*
X658571Y1110153D03*
D11*
X623071Y1128653D03*
X623071Y1111653D03*
D26*
X624071Y1171653D03*
X624071Y1148653D03*
D11*
X635071Y1208653D03*
X635071Y1191653D03*
X635071Y1248653D03*
X635071Y1231653D03*
D13*
X668571Y1190153D03*
X651571Y1190153D03*
X668571Y1210153D03*
X651571Y1210153D03*
D26*
X651071Y1228653D03*
X651071Y1251653D03*
X670071Y1228653D03*
X670071Y1251653D03*
D13*
X888571Y1200153D03*
X871571Y1200153D03*
X871571Y1220153D03*
X888571Y1220153D03*
D12*
X889571Y1157152D03*
X880071Y1157152D03*
X870571Y1157152D03*
X870571Y1183154D03*
X889571Y1183154D03*
D11*
X910071Y1161653D03*
X910071Y1178653D03*
X850071Y1178653D03*
X850071Y1161653D03*
X820071Y1241653D03*
X820071Y1258653D03*
D27*
X743321Y1250153D03*
X756821Y1250153D03*
X756821Y1260153D03*
X743321Y1260153D03*
D28*
X787571Y1200153D03*
D29*
X760071Y1180153D03*
D28*
X787571Y1195153D03*
X787571Y1190153D03*
X787571Y1185153D03*
X787571Y1180153D03*
X787571Y1175153D03*
X787571Y1170153D03*
X787571Y1165153D03*
X787571Y1160153D03*
D30*
X780071Y1152653D03*
X775071Y1152653D03*
X770071Y1152653D03*
X765071Y1152653D03*
X760071Y1152653D03*
X755071Y1152653D03*
X750071Y1152653D03*
X745071Y1152653D03*
X740071Y1152653D03*
D28*
X732571Y1160153D03*
X732571Y1165153D03*
X732571Y1170153D03*
X732571Y1175153D03*
X732571Y1180153D03*
X732571Y1185153D03*
X732571Y1190153D03*
X732571Y1195153D03*
X732571Y1200153D03*
D30*
X740071Y1207653D03*
X745071Y1207653D03*
X750071Y1207653D03*
X755071Y1207653D03*
X760071Y1207653D03*
X765071Y1207653D03*
X770071Y1207653D03*
X775071Y1207653D03*
X780071Y1207653D03*
D13*
X741571Y1238153D03*
X758571Y1238153D03*
D11*
X774071Y1258653D03*
X774071Y1241653D03*
X726071Y1258653D03*
X726071Y1241653D03*
D13*
X691571Y1255153D03*
X708571Y1255153D03*
X691571Y1165153D03*
X708571Y1165153D03*
D11*
X800071Y1241653D03*
X800071Y1258653D03*
D13*
X758571Y1130153D03*
X741571Y1130153D03*
X708571Y1195153D03*
X691571Y1195153D03*
X708571Y1180153D03*
X691571Y1180153D03*
D31*
X713321Y942153D03*
X713321Y998153D03*
D32*
X750071Y955153D03*
X750071Y965153D03*
X750071Y975153D03*
X750071Y985153D03*
D13*
X691571Y1225153D03*
X708571Y1225153D03*
X708571Y1210153D03*
X691571Y1210153D03*
D18*
X1137071Y974153D03*
X1162471Y974153D03*
D13*
X804571Y1205153D03*
X821571Y1205153D03*
X804571Y1221153D03*
X821571Y1221153D03*
X708571Y1240153D03*
X691571Y1240153D03*
D18*
X1110071Y930153D03*
D33*
X626421Y1047453D03*
X626421Y1060153D03*
X626421Y1072853D03*
X626421Y1085553D03*
X626421Y1034753D03*
X613721Y1047453D03*
X613721Y1060153D03*
X613721Y1072853D03*
X613721Y1085553D03*
X613721Y1034753D03*
D10*
X580000Y1315230D03*
X5000Y1695230D03*
D11*
X295000Y1396730D03*
X295000Y1413730D03*
X275000Y1413730D03*
X275000Y1396730D03*
D12*
X315500Y1438231D03*
X325000Y1438231D03*
X334500Y1438231D03*
X334500Y1412229D03*
X315500Y1412229D03*
D13*
X333500Y1455230D03*
X316500Y1455230D03*
D11*
X275000Y1436730D03*
X275000Y1453730D03*
X295000Y1436730D03*
X295000Y1453730D03*
X189000Y1453730D03*
X189000Y1436730D03*
D14*
X210550Y1533230D03*
X223250Y1533230D03*
X235950Y1533230D03*
X248650Y1533230D03*
X261350Y1533230D03*
X274050Y1533230D03*
X286750Y1533230D03*
X299450Y1533230D03*
X299450Y1477230D03*
X286750Y1477230D03*
X274050Y1477230D03*
X261350Y1477230D03*
X248650Y1477230D03*
X235950Y1477230D03*
X223250Y1477230D03*
X210550Y1477230D03*
D11*
X255000Y1436730D03*
X255000Y1453730D03*
X205000Y1453730D03*
X205000Y1436730D03*
D15*
X218500Y1454430D03*
X225000Y1436030D03*
X231500Y1436030D03*
X218500Y1436030D03*
X225000Y1454430D03*
X231500Y1454430D03*
D11*
X225000Y1556730D03*
X225000Y1573730D03*
D16*
X394900Y1427730D03*
X394900Y1432730D03*
X394900Y1437730D03*
X394900Y1442730D03*
X374900Y1442730D03*
X374900Y1437730D03*
X374900Y1432730D03*
X374900Y1427730D03*
D17*
X385000Y1435230D03*
D11*
X355000Y1426730D03*
X355000Y1443730D03*
D18*
X275000Y1375230D03*
X300400Y1375230D03*
D13*
X316500Y1380230D03*
X333500Y1380230D03*
X366500Y1380230D03*
X349500Y1380230D03*
X363500Y1315230D03*
X346500Y1315230D03*
D19*
X418000Y1395230D03*
X418000Y1415230D03*
D20*
X470000Y1371230D03*
X470000Y1439230D03*
D21*
X370080Y1405230D03*
X359920Y1405230D03*
D18*
X377700Y1405230D03*
X352300Y1405230D03*
D22*
X355000Y1330730D03*
X360000Y1330730D03*
X365000Y1330730D03*
X350000Y1330730D03*
X345000Y1330730D03*
X345000Y1359730D03*
X350000Y1359730D03*
X355000Y1359730D03*
X360000Y1359730D03*
X365000Y1359730D03*
D23*
X355000Y1345230D03*
D11*
X35600Y1364730D03*
X35600Y1347730D03*
D13*
X333500Y1395230D03*
X316500Y1395230D03*
D11*
X35600Y1314730D03*
X35600Y1331730D03*
D13*
X176500Y1395230D03*
X193500Y1395230D03*
X176500Y1415230D03*
X193500Y1415230D03*
D24*
X215000Y1413358D03*
X215000Y1405230D03*
X215000Y1397102D03*
D25*
X45500Y1607230D03*
X55000Y1607230D03*
X64500Y1607230D03*
X64500Y1583230D03*
X45500Y1583230D03*
X55000Y1583230D03*
D13*
X63500Y1565230D03*
X46500Y1565230D03*
X46500Y1545230D03*
X63500Y1545230D03*
D11*
X28000Y1563730D03*
X28000Y1546730D03*
D26*
X29000Y1606730D03*
X29000Y1583730D03*
D11*
X40000Y1643730D03*
X40000Y1626730D03*
X40000Y1683730D03*
X40000Y1666730D03*
D13*
X73500Y1625230D03*
X56500Y1625230D03*
X73500Y1645230D03*
X56500Y1645230D03*
D26*
X56000Y1663730D03*
X56000Y1686730D03*
X75000Y1663730D03*
X75000Y1686730D03*
D13*
X293500Y1635230D03*
X276500Y1635230D03*
X276500Y1655230D03*
X293500Y1655230D03*
D12*
X294500Y1592229D03*
X285000Y1592229D03*
X275500Y1592229D03*
X275500Y1618231D03*
X294500Y1618231D03*
D11*
X315000Y1596730D03*
X315000Y1613730D03*
X255000Y1613730D03*
X255000Y1596730D03*
X225000Y1676730D03*
X225000Y1693730D03*
D27*
X148250Y1685230D03*
X161750Y1685230D03*
X161750Y1695230D03*
X148250Y1695230D03*
D28*
X192500Y1635230D03*
D29*
X165000Y1615230D03*
D28*
X192500Y1630230D03*
X192500Y1625230D03*
X192500Y1620230D03*
X192500Y1615230D03*
X192500Y1610230D03*
X192500Y1605230D03*
X192500Y1600230D03*
X192500Y1595230D03*
D30*
X185000Y1587730D03*
X180000Y1587730D03*
X175000Y1587730D03*
X170000Y1587730D03*
X165000Y1587730D03*
X160000Y1587730D03*
X155000Y1587730D03*
X150000Y1587730D03*
X145000Y1587730D03*
D28*
X137500Y1595230D03*
X137500Y1600230D03*
X137500Y1605230D03*
X137500Y1610230D03*
X137500Y1615230D03*
X137500Y1620230D03*
X137500Y1625230D03*
X137500Y1630230D03*
X137500Y1635230D03*
D30*
X145000Y1642730D03*
X150000Y1642730D03*
X155000Y1642730D03*
X160000Y1642730D03*
X165000Y1642730D03*
X170000Y1642730D03*
X175000Y1642730D03*
X180000Y1642730D03*
X185000Y1642730D03*
D13*
X146500Y1673230D03*
X163500Y1673230D03*
D11*
X179000Y1693730D03*
X179000Y1676730D03*
X131000Y1693730D03*
X131000Y1676730D03*
D13*
X96500Y1690230D03*
X113500Y1690230D03*
X96500Y1600230D03*
X113500Y1600230D03*
D11*
X205000Y1676730D03*
X205000Y1693730D03*
D13*
X163500Y1565230D03*
X146500Y1565230D03*
X113500Y1630230D03*
X96500Y1630230D03*
X113500Y1615230D03*
X96500Y1615230D03*
D31*
X118250Y1377230D03*
X118250Y1433230D03*
D32*
X155000Y1390230D03*
X155000Y1400230D03*
X155000Y1410230D03*
X155000Y1420230D03*
D13*
X96500Y1660230D03*
X113500Y1660230D03*
X113500Y1645230D03*
X96500Y1645230D03*
D18*
X542000Y1409230D03*
X567400Y1409230D03*
D13*
X209500Y1640230D03*
X226500Y1640230D03*
X209500Y1656230D03*
X226500Y1656230D03*
X113500Y1675230D03*
X96500Y1675230D03*
D18*
X515000Y1365230D03*
D33*
X31350Y1482530D03*
X31350Y1495230D03*
X31350Y1507930D03*
X31350Y1520630D03*
X31350Y1469830D03*
X18650Y1482530D03*
X18650Y1495230D03*
X18650Y1507930D03*
X18650Y1520630D03*
X18650Y1469830D03*
D10*
X1175071Y1315230D03*
X600071Y1695230D03*
D11*
X890071Y1396730D03*
X890071Y1413730D03*
X870071Y1413730D03*
X870071Y1396730D03*
D12*
X910571Y1438231D03*
X920071Y1438231D03*
X929571Y1438231D03*
X929571Y1412229D03*
X910571Y1412229D03*
D13*
X928571Y1455230D03*
X911571Y1455230D03*
D11*
X870071Y1436730D03*
X870071Y1453730D03*
X890071Y1436730D03*
X890071Y1453730D03*
X784071Y1453730D03*
X784071Y1436730D03*
D14*
X805621Y1533230D03*
X818321Y1533230D03*
X831021Y1533230D03*
X843721Y1533230D03*
X856421Y1533230D03*
X869121Y1533230D03*
X881821Y1533230D03*
X894521Y1533230D03*
X894521Y1477230D03*
X881821Y1477230D03*
X869121Y1477230D03*
X856421Y1477230D03*
X843721Y1477230D03*
X831021Y1477230D03*
X818321Y1477230D03*
X805621Y1477230D03*
D11*
X850071Y1436730D03*
X850071Y1453730D03*
X800071Y1453730D03*
X800071Y1436730D03*
D15*
X813571Y1454430D03*
X820071Y1436030D03*
X826571Y1436030D03*
X813571Y1436030D03*
X820071Y1454430D03*
X826571Y1454430D03*
D11*
X820071Y1556730D03*
X820071Y1573730D03*
D16*
X989971Y1427730D03*
X989971Y1432730D03*
X989971Y1437730D03*
X989971Y1442730D03*
X969971Y1442730D03*
X969971Y1437730D03*
X969971Y1432730D03*
X969971Y1427730D03*
D17*
X980071Y1435230D03*
D11*
X950071Y1426730D03*
X950071Y1443730D03*
D18*
X870071Y1375230D03*
X895471Y1375230D03*
D13*
X911571Y1380230D03*
X928571Y1380230D03*
X961571Y1380230D03*
X944571Y1380230D03*
X958571Y1315230D03*
X941571Y1315230D03*
D19*
X1013071Y1395230D03*
X1013071Y1415230D03*
D20*
X1065071Y1371230D03*
X1065071Y1439230D03*
D21*
X965151Y1405230D03*
X954991Y1405230D03*
D18*
X972771Y1405230D03*
X947371Y1405230D03*
D22*
X950071Y1330730D03*
X955071Y1330730D03*
X960071Y1330730D03*
X945071Y1330730D03*
X940071Y1330730D03*
X940071Y1359730D03*
X945071Y1359730D03*
X950071Y1359730D03*
X955071Y1359730D03*
X960071Y1359730D03*
D23*
X950071Y1345230D03*
D11*
X630671Y1364730D03*
X630671Y1347730D03*
D13*
X928571Y1395230D03*
X911571Y1395230D03*
D11*
X630671Y1314730D03*
X630671Y1331730D03*
D13*
X771571Y1395230D03*
X788571Y1395230D03*
X771571Y1415230D03*
X788571Y1415230D03*
D24*
X810071Y1413358D03*
X810071Y1405230D03*
X810071Y1397102D03*
D25*
X640571Y1607230D03*
X650071Y1607230D03*
X659571Y1607230D03*
X659571Y1583230D03*
X640571Y1583230D03*
X650071Y1583230D03*
D13*
X658571Y1565230D03*
X641571Y1565230D03*
X641571Y1545230D03*
X658571Y1545230D03*
D11*
X623071Y1563730D03*
X623071Y1546730D03*
D26*
X624071Y1606730D03*
X624071Y1583730D03*
D11*
X635071Y1643730D03*
X635071Y1626730D03*
X635071Y1683730D03*
X635071Y1666730D03*
D13*
X668571Y1625230D03*
X651571Y1625230D03*
X668571Y1645230D03*
X651571Y1645230D03*
D26*
X651071Y1663730D03*
X651071Y1686730D03*
X670071Y1663730D03*
X670071Y1686730D03*
D13*
X888571Y1635230D03*
X871571Y1635230D03*
X871571Y1655230D03*
X888571Y1655230D03*
D12*
X889571Y1592229D03*
X880071Y1592229D03*
X870571Y1592229D03*
X870571Y1618231D03*
X889571Y1618231D03*
D11*
X910071Y1596730D03*
X910071Y1613730D03*
X850071Y1613730D03*
X850071Y1596730D03*
X820071Y1676730D03*
X820071Y1693730D03*
D27*
X743321Y1685230D03*
X756821Y1685230D03*
X756821Y1695230D03*
X743321Y1695230D03*
D28*
X787571Y1635230D03*
D29*
X760071Y1615230D03*
D28*
X787571Y1630230D03*
X787571Y1625230D03*
X787571Y1620230D03*
X787571Y1615230D03*
X787571Y1610230D03*
X787571Y1605230D03*
X787571Y1600230D03*
X787571Y1595230D03*
D30*
X780071Y1587730D03*
X775071Y1587730D03*
X770071Y1587730D03*
X765071Y1587730D03*
X760071Y1587730D03*
X755071Y1587730D03*
X750071Y1587730D03*
X745071Y1587730D03*
X740071Y1587730D03*
D28*
X732571Y1595230D03*
X732571Y1600230D03*
X732571Y1605230D03*
X732571Y1610230D03*
X732571Y1615230D03*
X732571Y1620230D03*
X732571Y1625230D03*
X732571Y1630230D03*
X732571Y1635230D03*
D30*
X740071Y1642730D03*
X745071Y1642730D03*
X750071Y1642730D03*
X755071Y1642730D03*
X760071Y1642730D03*
X765071Y1642730D03*
X770071Y1642730D03*
X775071Y1642730D03*
X780071Y1642730D03*
D13*
X741571Y1673230D03*
X758571Y1673230D03*
D11*
X774071Y1693730D03*
X774071Y1676730D03*
X726071Y1693730D03*
X726071Y1676730D03*
D13*
X691571Y1690230D03*
X708571Y1690230D03*
X691571Y1600230D03*
X708571Y1600230D03*
D11*
X800071Y1676730D03*
X800071Y1693730D03*
D13*
X758571Y1565230D03*
X741571Y1565230D03*
X708571Y1630230D03*
X691571Y1630230D03*
X708571Y1615230D03*
X691571Y1615230D03*
D31*
X713321Y1377230D03*
X713321Y1433230D03*
D32*
X750071Y1390230D03*
X750071Y1400230D03*
X750071Y1410230D03*
X750071Y1420230D03*
D13*
X691571Y1660230D03*
X708571Y1660230D03*
X708571Y1645230D03*
X691571Y1645230D03*
D18*
X1137071Y1409230D03*
X1162471Y1409230D03*
D13*
X804571Y1640230D03*
X821571Y1640230D03*
X804571Y1656230D03*
X821571Y1656230D03*
X708571Y1675230D03*
X691571Y1675230D03*
D18*
X1110071Y1365230D03*
D33*
X626421Y1482530D03*
X626421Y1495230D03*
X626421Y1507930D03*
X626421Y1520630D03*
X626421Y1469830D03*
X613721Y1482530D03*
X613721Y1495230D03*
X613721Y1507930D03*
X613721Y1520630D03*
X613721Y1469830D03*
X-26238Y1708582D03*
X1211326Y1708582D03*
D34*
X-35293Y63500D02*
X-35290Y63722D01*
X-35282Y63944D01*
X-35268Y64166D01*
X-35249Y64388D01*
X-35225Y64608D01*
X-35195Y64829D01*
X-35160Y65048D01*
X-35119Y65267D01*
X-35073Y65484D01*
X-35022Y65700D01*
X-34965Y65915D01*
X-34903Y66129D01*
X-34836Y66340D01*
X-34764Y66551D01*
X-34686Y66759D01*
X-34604Y66965D01*
X-34516Y67169D01*
X-34424Y67372D01*
X-34326Y67571D01*
X-34224Y67768D01*
X-34117Y67963D01*
X-34005Y68155D01*
X-33888Y68344D01*
X-33767Y68531D01*
X-33641Y68714D01*
X-33511Y68894D01*
X-33376Y69071D01*
X-33238Y69244D01*
X-33095Y69414D01*
X-32947Y69581D01*
X-32796Y69744D01*
X-32641Y69903D01*
X-32482Y70058D01*
X-32319Y70209D01*
X-32152Y70357D01*
X-31982Y70500D01*
X-31809Y70638D01*
X-31632Y70773D01*
X-31452Y70903D01*
X-31269Y71029D01*
X-31082Y71150D01*
X-30893Y71267D01*
X-30701Y71379D01*
X-30506Y71486D01*
X-30309Y71588D01*
X-30110Y71686D01*
X-29907Y71778D01*
X-29703Y71866D01*
X-29497Y71948D01*
X-29289Y72026D01*
X-29078Y72098D01*
X-28867Y72165D01*
X-28653Y72227D01*
X-28438Y72284D01*
X-28222Y72335D01*
X-28005Y72381D01*
X-27786Y72422D01*
X-27567Y72457D01*
X-27346Y72487D01*
X-27126Y72511D01*
X-26904Y72530D01*
X-26682Y72544D01*
X-26460Y72552D01*
X-26238Y72555D01*
X-26016Y72552D01*
X-25794Y72544D01*
X-25572Y72530D01*
X-25350Y72511D01*
X-25130Y72487D01*
X-24909Y72457D01*
X-24690Y72422D01*
X-24471Y72381D01*
X-24254Y72335D01*
X-24038Y72284D01*
X-23823Y72227D01*
X-23609Y72165D01*
X-23398Y72098D01*
X-23187Y72026D01*
X-22979Y71948D01*
X-22773Y71866D01*
X-22569Y71778D01*
X-22366Y71686D01*
X-22167Y71588D01*
X-21970Y71486D01*
X-21775Y71379D01*
X-21583Y71267D01*
X-21394Y71150D01*
X-21207Y71029D01*
X-21024Y70903D01*
X-20844Y70773D01*
X-20667Y70638D01*
X-20494Y70500D01*
X-20324Y70357D01*
X-20157Y70209D01*
X-19994Y70058D01*
X-19835Y69903D01*
X-19680Y69744D01*
X-19529Y69581D01*
X-19381Y69414D01*
X-19238Y69244D01*
X-19100Y69071D01*
X-18965Y68894D01*
X-18835Y68714D01*
X-18709Y68531D01*
X-18588Y68344D01*
X-18471Y68155D01*
X-18359Y67963D01*
X-18252Y67768D01*
X-18150Y67571D01*
X-18052Y67372D01*
X-17960Y67169D01*
X-17872Y66965D01*
X-17790Y66759D01*
X-17712Y66551D01*
X-17640Y66340D01*
X-17573Y66129D01*
X-17511Y65915D01*
X-17454Y65700D01*
X-17403Y65484D01*
X-17357Y65267D01*
X-17316Y65048D01*
X-17281Y64829D01*
X-17251Y64608D01*
X-17227Y64388D01*
X-17208Y64166D01*
X-17194Y63944D01*
X-17186Y63722D01*
X-17183Y63500D01*
X-17186Y63278D01*
X-17194Y63056D01*
X-17208Y62834D01*
X-17227Y62612D01*
X-17251Y62392D01*
X-17281Y62171D01*
X-17316Y61952D01*
X-17357Y61733D01*
X-17403Y61516D01*
X-17454Y61300D01*
X-17511Y61085D01*
X-17573Y60871D01*
X-17640Y60660D01*
X-17712Y60449D01*
X-17790Y60241D01*
X-17872Y60035D01*
X-17960Y59831D01*
X-18052Y59628D01*
X-18150Y59429D01*
X-18252Y59232D01*
X-18359Y59037D01*
X-18471Y58845D01*
X-18588Y58656D01*
X-18709Y58469D01*
X-18835Y58286D01*
X-18965Y58106D01*
X-19100Y57929D01*
X-19238Y57756D01*
X-19381Y57586D01*
X-19529Y57419D01*
X-19680Y57256D01*
X-19835Y57097D01*
X-19994Y56942D01*
X-20157Y56791D01*
X-20324Y56643D01*
X-20494Y56500D01*
X-20667Y56362D01*
X-20844Y56227D01*
X-21024Y56097D01*
X-21207Y55971D01*
X-21394Y55850D01*
X-21583Y55733D01*
X-21775Y55621D01*
X-21970Y55514D01*
X-22167Y55412D01*
X-22366Y55314D01*
X-22569Y55222D01*
X-22773Y55134D01*
X-22979Y55052D01*
X-23187Y54974D01*
X-23398Y54902D01*
X-23609Y54835D01*
X-23823Y54773D01*
X-24038Y54716D01*
X-24254Y54665D01*
X-24471Y54619D01*
X-24690Y54578D01*
X-24909Y54543D01*
X-25130Y54513D01*
X-25350Y54489D01*
X-25572Y54470D01*
X-25794Y54456D01*
X-26016Y54448D01*
X-26238Y54445D01*
X-26460Y54448D01*
X-26682Y54456D01*
X-26904Y54470D01*
X-27126Y54489D01*
X-27346Y54513D01*
X-27567Y54543D01*
X-27786Y54578D01*
X-28005Y54619D01*
X-28222Y54665D01*
X-28438Y54716D01*
X-28653Y54773D01*
X-28867Y54835D01*
X-29078Y54902D01*
X-29289Y54974D01*
X-29497Y55052D01*
X-29703Y55134D01*
X-29907Y55222D01*
X-30110Y55314D01*
X-30309Y55412D01*
X-30506Y55514D01*
X-30701Y55621D01*
X-30893Y55733D01*
X-31082Y55850D01*
X-31269Y55971D01*
X-31452Y56097D01*
X-31632Y56227D01*
X-31809Y56362D01*
X-31982Y56500D01*
X-32152Y56643D01*
X-32319Y56791D01*
X-32482Y56942D01*
X-32641Y57097D01*
X-32796Y57256D01*
X-32947Y57419D01*
X-33095Y57586D01*
X-33238Y57756D01*
X-33376Y57929D01*
X-33511Y58106D01*
X-33641Y58286D01*
X-33767Y58469D01*
X-33888Y58656D01*
X-34005Y58845D01*
X-34117Y59037D01*
X-34224Y59232D01*
X-34326Y59429D01*
X-34424Y59628D01*
X-34516Y59831D01*
X-34604Y60035D01*
X-34686Y60241D01*
X-34764Y60449D01*
X-34836Y60660D01*
X-34903Y60871D01*
X-34965Y61085D01*
X-35022Y61300D01*
X-35073Y61516D01*
X-35119Y61733D01*
X-35160Y61952D01*
X-35195Y62171D01*
X-35225Y62392D01*
X-35249Y62612D01*
X-35268Y62834D01*
X-35282Y63056D01*
X-35290Y63278D01*
X-35293Y63500D01*
D35*
X-26238Y63500D03*
M02*
