M48
;GenerationSoftware,Autodesk,EAGLE,9.6.2*%
;CreationDate,2021-09-23T20:04:14Z*%
FMAT,2
ICI,OFF
METRIC,TZ,000.000
T3C0.200
T2C0.508
T1C1.016
%
G90
M71
T1
X115208Y53908
X28000Y7000
X30540Y7000
X38270Y10000
X35730Y10000
X54700Y10400
X57240Y10400
X52000Y6000
X117748Y53908
X112508Y49508
X88508Y50508
X91048Y50508
X98778Y53508
X96238Y53508
X28000Y50508
X30540Y50508
X38270Y53508
X35730Y53508
X88508Y7000
X91048Y7000
X98778Y10000
X96238Y10000
X115208Y10400
X117748Y10400
X112508Y6000
X54700Y53908
X57240Y53908
X52000Y49508
X28000Y94015
X30540Y94015
X38270Y97015
X35730Y97015
X54700Y97415
X57240Y97415
X52000Y93015
X88508Y94015
X91048Y94015
X98778Y97015
X96238Y97015
X115208Y97415
X117748Y97415
X112508Y93015
X28000Y137523
X30540Y137523
X38270Y140523
X35730Y140523
X54700Y140923
X57240Y140923
X52000Y136523
X88508Y137523
X91048Y137523
X98778Y140523
X96238Y140523
X115208Y140923
X117748Y140923
X112508Y136523
T2
X2365Y63778
X2365Y65048
X2365Y59968
X64143Y61238
X64143Y62508
X64143Y63778
X64143Y65048
X64143Y59968
X62873Y61238
X62873Y62508
X62873Y63778
X62873Y65048
X62873Y59968
X62873Y146983
X3635Y17730
X3635Y19000
X3635Y20270
X3635Y21540
X3635Y16460
X2365Y17730
X3635Y104745
X3635Y106015
X3635Y107285
X3635Y108555
X3635Y103475
X2365Y104745
X2365Y106015
X2365Y107285
X2365Y108555
X2365Y103475
X2365Y19000
X2365Y20270
X2365Y21540
X2365Y16460
X64143Y17730
X64143Y19000
X64143Y20270
X64143Y104745
X64143Y106015
X64143Y107285
X64143Y108555
X64143Y103475
X62873Y104745
X62873Y106015
X62873Y107285
X62873Y108555
X62873Y103475
X64143Y21540
X64143Y16460
X62873Y17730
X62873Y19000
X62873Y20270
X62873Y21540
X62873Y16460
X3635Y148253
X3635Y149523
X3635Y150793
X3635Y152063
X3635Y146983
X2365Y148253
X2365Y149523
X2365Y150793
X2365Y152063
X2365Y146983
X3635Y61238
X3635Y62508
X3635Y63778
X3635Y65048
X3635Y59968
X2365Y61238
X2365Y62508
X64143Y148253
X64143Y149523
X64143Y150793
X64143Y152063
X64143Y146983
X62873Y148253
X62873Y149523
X62873Y150793
X62873Y152063
T3
X46100Y28800
X44000Y28800
X41900Y28800
X39800Y28800
X37700Y28800
X35500Y28800
X52500Y28800
X50300Y27800
X48200Y27800
X46100Y27800
X44000Y27800
X41900Y27800
X39800Y27800
X37700Y27800
X35500Y27800
X52500Y27800
X50300Y26800
X48200Y26800
X46100Y26800
X44000Y26800
X41900Y26800
X39800Y26800
X37700Y26800
X35500Y26800
X52500Y26800
X50300Y25800
X48200Y25800
X46100Y25800
X44000Y25800
X41900Y25800
X39800Y25800
X37700Y25800
X35500Y25800
X52500Y25800
X50300Y24800
X48200Y24800
X46100Y24800
X44000Y24800
X41900Y24800
X39800Y24800
X37700Y24800
X35500Y24800
X52500Y24800
X50300Y23800
X48200Y23800
X46100Y23800
X44000Y23800
X41900Y23800
X39800Y23800
X37700Y23800
X35500Y23800
X52500Y23800
X50300Y22800
X48200Y22800
X46100Y22800
X44000Y22800
X41900Y22800
X39800Y22800
X37700Y22800
X35500Y22800
X52500Y22800
X50300Y21800
X48200Y21800
X46100Y21800
X44000Y21800
X41900Y21800
X39800Y21800
X37700Y21800
X35500Y21800
X52500Y21800
X50300Y20800
X48200Y20800
X46100Y20800
X44000Y20800
X41900Y20800
X39800Y20800
X37700Y20800
X35500Y20800
X52500Y20800
X50300Y18800
X48200Y18800
X46100Y18800
X44000Y18800
X41900Y18800
X39800Y18800
X37700Y18800
X35500Y18800
X52500Y18800
X50300Y31300
X48200Y31300
X46100Y31300
X44000Y31300
X41900Y31300
X39800Y31300
X37700Y31300
X35500Y31300
X52500Y31300
X34500Y17400
X36000Y17400
X52000Y17500
X53000Y17500
X54000Y17500
X35500Y32800
X34500Y32800
X33500Y32800
X52500Y32800
X53500Y32800
X54500Y32800
X46500Y37600
X45000Y37600
X43200Y37600
X45000Y35600
X45500Y36600
X44000Y36600
X43500Y35600
X42500Y34600
X41000Y34600
X46500Y35600
X56500Y34600
X55000Y34600
X53200Y34600
X51700Y34600
X57500Y37600
X56000Y37600
X54200Y37600
X52700Y37600
X56000Y35600
X56500Y36600
X55000Y36600
X53200Y36600
X54500Y35600
X53000Y35600
X57500Y35600
X39000Y11800
X36000Y4000
X35000Y4000
X37000Y4000
X34000Y4000
X34000Y3000
X34000Y2400
X47800Y37700
X47800Y38400
X48500Y38400
X49100Y38400
X51000Y38400
X51600Y38500
X52400Y38400
X34000Y35000
X32600Y34800
X42500Y36600
X17500Y39000
X10100Y10200
X10100Y15600
X56200Y24100
X56100Y15641
X40300Y15641
X24300Y37300
X37800Y37500
X24000Y27700
X9900Y27700
X20500Y27700
X17600Y37500
X17800Y26700
X12900Y15200
X12900Y27100
X57100Y15300
X40900Y15259
X22000Y37500
X22300Y34800
X12900Y10500
X37250Y37550
X21200Y29200
X21200Y40300
X57000Y30200
X57000Y40371
X30976Y24800
X30900Y39300
X30400Y39100
X30647Y28000
X36754Y34300
X31659Y34359
X31700Y1822
X5600Y12000
X6100Y38100
X24700Y34000
X20500Y34000
X23000Y30000
X20700Y29646
X22200Y22800
X23600Y16200
X7500Y16100
X7500Y22500
X24200Y10100
X23500Y16800
X22200Y20900
X23400Y20300
X16100Y20800
X15700Y27200
X31317Y19000
X31300Y36459
X39700Y36500
X38900Y36500
X8241Y35191
X9859Y17700
X23200Y12000
X18600Y11992
X20700Y30500
X7800Y36500
X38300Y36500
X9859Y16500
X39300Y34900
X6900Y34800
X9900Y8900
X55700Y23500
X56000Y13000
X24200Y14441
X5000Y14400
X51000Y12000
X26200Y32113
X26400Y9500
X7000Y8400
X7000Y21500
X55500Y8000
X6000Y8000
X6500Y20100
X56100Y7700
X57600Y30800
X16700Y39700
X57900Y39600
X20541Y34859
X20000Y34900
X22500Y21500
X5670Y21000
X20800Y23300
X5200Y22900
X9000Y32000
X5374Y33008
X5100Y29000
X9300Y34000
X3000Y31000
X3100Y37500
X41300Y38000
X7000Y33000
X7700Y6500
X38000Y1000
X8000Y26000
X32500Y25100
X26959Y26000
X10700Y39500
X10557Y26000
X8900Y38000
X36300Y38300
X36300Y34900
X12800Y38270
X27300Y21800
X27359Y28700
X23000Y18700
X23503Y23100
X31000Y9100
X15500Y34628
X19200Y34500
X24000Y24841
X20600Y31000
X19000Y27300
X13100Y31000
X13551Y24341
X16500Y27300
X16500Y24341
X19000Y24341
X26200Y32900
X26800Y9900
X49000Y12100
X25000Y34400
X16000Y34800
X24800Y35100
X16500Y35200
X13500Y30400
X13500Y31600
X29300Y24500
X12459Y23700
X12500Y19400
X29754Y36459
X29141Y13570
X29300Y36459
X8300Y36500
X9859Y19000
X27700Y36459
X27800Y16200
X28800Y36459
X29000Y11800
X28300Y36459
X28400Y18100
X30300Y36459
X9300Y36930
X9859Y22800
X102508Y16100
X104508Y16000
X107508Y16000
X83608Y28200
X92524Y33300
X82452Y37044
X75508Y9500
X81308Y10000
X100808Y36700
X92212Y34841
X69508Y31000
X71508Y28100
X76508Y30000
X77508Y30000
X77508Y31000
X76508Y31000
X73408Y33800
X73408Y34400
X69808Y36400
X72508Y39400
X80608Y38700
X84308Y37300
X87808Y33000
X86308Y31800
X89508Y30000
X82708Y27200
X68508Y29000
X64008Y35300
X65808Y34600
X67408Y7500
X70608Y7600
X84508Y8000
X86908Y8000
X89508Y10400
X90508Y16000
X92508Y16000
X93508Y11500
X97508Y14800
X99308Y14800
X102508Y12000
X104508Y12000
X107508Y12000
X109708Y9400
X112508Y12000
X109508Y5000
X103508Y5000
X98508Y6000
X94708Y1000
X76108Y13100
X76108Y14900
X77108Y14900
X77208Y13000
X79908Y14000
X80908Y17100
X78508Y17200
X77208Y17200
X76008Y17200
X90508Y23900
X92508Y32000
X108308Y37000
X108008Y36500
X109108Y35500
X109608Y35100
X111508Y35100
X112008Y35600
X112708Y37000
X112708Y36300
X112708Y37800
X109508Y33600
X111608Y33600
X112508Y33600
X113508Y33600
X114508Y33600
X115508Y33600
X115508Y32300
X107508Y33600
X105708Y33600
X104008Y33600
X102508Y33600
X100708Y33600
X99208Y33600
X97508Y33600
X96208Y33600
X94508Y33600
X93208Y33600
X93308Y32400
X93408Y31500
X93408Y30400
X93408Y29300
X93408Y28500
X93508Y17700
X93708Y16700
X95008Y16400
X96508Y16400
X97508Y16300
X98508Y16300
X99508Y16300
X100508Y16300
X101508Y16300
X105408Y16400
X107008Y16400
X111608Y16400
X112508Y16500
X113508Y16500
X114508Y16500
X115508Y16500
X115508Y17400
X110808Y19800
X108708Y19800
X106608Y19800
X104508Y19800
X102408Y19800
X100308Y19800
X98208Y19800
X96008Y19800
X113008Y19800
X110808Y30700
X108708Y30700
X106608Y30700
X104508Y30700
X102408Y30700
X100308Y30700
X98208Y30700
X96008Y30700
X113008Y30700
X110808Y29800
X108708Y29800
X106608Y29800
X104508Y29800
X102408Y29800
X100308Y29800
X98208Y29800
X96008Y29800
X113008Y29800
X110808Y28800
X108708Y28800
X106608Y28800
X104508Y28800
X102408Y28800
X100308Y28800
X98208Y28800
X96008Y28800
X113008Y28800
X110808Y27800
X108708Y27800
X106608Y27800
X104508Y27800
X102408Y27800
X100308Y27800
X98208Y27800
X96008Y27800
X113008Y27800
X110808Y26800
X108708Y26800
X106608Y26800
X104508Y26800
X102408Y26800
X100308Y26800
X98208Y26800
X96008Y26800
X113008Y26800
X110808Y25800
X108708Y25800
X106608Y25800
X104508Y25800
X102408Y25800
X100308Y25800
X98208Y25800
X96008Y25800
X113008Y25800
X110808Y24800
X108708Y24800
X106608Y24800
X104508Y24800
X102408Y24800
X100308Y24800
X98208Y24800
X96008Y24800
X113008Y24800
X110808Y23800
X108708Y23800
X106608Y23800
X104508Y23800
X102408Y23800
X100308Y23800
X98208Y23800
X96008Y23800
X113008Y23800
X110808Y22800
X108708Y22800
X106608Y22800
X104508Y22800
X102408Y22800
X100308Y22800
X98208Y22800
X96008Y22800
X113008Y22800
X110808Y21800
X108708Y21800
X106608Y21800
X104508Y21800
X102408Y21800
X100308Y21800
X98208Y21800
X96008Y21800
X113008Y21800
X110808Y20800
X108708Y20800
X106608Y20800
X104508Y20800
X102408Y20800
X100308Y20800
X98208Y20800
X96008Y20800
X113008Y20800
X110808Y18800
X108708Y18800
X106608Y18800
X104508Y18800
X102408Y18800
X100308Y18800
X98208Y18800
X96008Y18800
X113008Y18800
X110808Y31300
X108708Y31300
X106608Y31300
X104508Y31300
X102408Y31300
X100308Y31300
X98208Y31300
X96008Y31300
X113008Y31300
X95008Y17400
X96508Y17400
X112508Y17500
X113508Y17500
X114508Y17500
X96008Y32800
X95008Y32800
X94008Y32800
X113008Y32800
X114008Y32800
X115008Y32800
X107008Y37600
X105508Y37600
X103708Y37600
X105508Y35600
X106008Y36600
X104508Y36600
X104008Y35600
X103008Y34600
X101508Y34600
X107008Y35600
X117008Y34600
X115508Y34600
X113708Y34600
X112208Y34600
X118008Y37600
X116508Y37600
X114708Y37600
X113208Y37600
X116508Y35600
X117008Y36600
X115508Y36600
X113708Y36600
X115008Y35600
X113508Y35600
X118008Y35600
X99508Y11800
X96508Y4000
X95508Y4000
X97508Y4000
X94508Y4000
X94508Y3000
X94508Y2400
X108308Y37700
X108308Y38400
X109008Y38400
X109608Y38400
X111508Y38400
X112108Y38500
X112908Y38400
X94508Y35000
X93108Y34800
X103008Y36600
X78008Y39000
X70608Y10200
X70608Y15600
X116708Y24100
X116608Y15641
X100808Y15641
X84808Y37300
X98308Y37500
X84508Y27700
X70408Y27700
X81008Y27700
X78108Y37500
X78308Y26700
X73408Y15200
X73408Y27100
X117608Y15300
X101408Y15259
X82508Y37500
X82808Y34800
X73408Y10500
X97758Y37550
X81708Y29200
X81708Y40300
X117508Y30200
X117508Y40371
X91484Y24800
X91408Y39300
X90908Y39100
X91155Y28000
X97262Y34300
X92167Y34359
X92208Y1822
X66108Y12000
X66608Y38100
X85208Y34000
X81008Y34000
X83508Y30000
X81208Y29646
X82708Y22800
X84108Y16200
X68008Y16100
X68008Y22500
X84708Y10100
X84008Y16800
X82708Y20900
X83908Y20300
X76608Y20800
X76208Y27200
X91825Y19000
X91808Y36459
X100208Y36500
X99408Y36500
X68749Y35191
X70367Y17700
X83708Y12000
X79108Y11992
X81208Y30500
X68308Y36500
X98808Y36500
X70367Y16500
X99808Y34900
X67408Y34800
X70408Y8900
X116208Y23500
X116508Y13000
X84708Y14441
X65508Y14400
X111508Y12000
X86708Y32113
X86908Y9500
X67508Y8400
X67508Y21500
X116008Y8000
X66508Y8000
X67008Y20100
X116608Y7700
X118108Y30800
X77208Y39700
X118408Y39600
X81049Y34859
X80508Y34900
X83008Y21500
X66178Y21000
X81308Y23300
X65708Y22900
X69508Y32000
X65881Y33008
X65608Y29000
X69808Y34000
X63508Y31000
X63608Y37500
X101808Y38000
X67508Y33000
X68208Y6500
X98508Y1000
X68508Y26000
X93008Y25100
X87467Y26000
X71208Y39500
X71065Y26000
X69408Y38000
X96808Y38300
X96808Y34900
X73308Y38270
X87808Y21800
X87867Y28700
X83508Y18700
X84011Y23100
X91508Y9100
X76008Y34628
X79708Y34500
X84508Y24841
X81108Y31000
X79508Y27300
X73608Y31000
X74059Y24341
X77008Y27300
X77008Y24341
X79508Y24341
X86708Y32900
X87308Y9900
X109508Y12100
X85508Y34400
X76508Y34800
X85308Y35100
X77008Y35200
X74008Y30400
X74008Y31600
X89808Y24500
X72967Y23700
X73008Y19400
X90262Y36459
X89649Y13570
X89808Y36459
X68808Y36500
X70367Y19000
X88208Y36459
X88308Y16200
X89308Y36459
X89508Y11800
X88808Y36459
X88908Y18100
X90808Y36459
X69808Y36930
X70367Y22800
X42000Y59608
X44000Y59508
X47000Y59508
X23100Y71708
X32016Y76808
X21944Y80552
X15000Y53008
X20800Y53508
X40300Y80208
X31704Y78349
X9000Y74508
X11000Y71608
X16000Y73508
X17000Y73508
X17000Y74508
X16000Y74508
X12900Y77308
X12900Y77908
X9300Y79908
X12000Y82908
X20100Y82208
X23800Y80808
X27300Y76508
X25800Y75308
X29000Y73508
X22200Y70708
X8000Y72508
X3500Y78808
X5300Y78108
X6900Y51008
X10100Y51108
X24000Y51508
X26400Y51508
X29000Y53908
X30000Y59508
X32000Y59508
X33000Y55008
X37000Y58308
X38800Y58308
X42000Y55508
X44000Y55508
X47000Y55508
X49200Y52908
X52000Y55508
X49000Y48508
X43000Y48508
X38000Y49508
X34200Y44508
X15600Y56608
X15600Y58408
X16600Y58408
X16700Y56508
X19400Y57508
X20400Y60608
X18000Y60708
X16700Y60708
X15500Y60708
X30000Y67408
X32000Y75508
X47800Y80508
X47500Y80008
X48600Y79008
X49100Y78608
X51000Y78608
X51500Y79108
X52200Y80508
X52200Y79808
X52200Y81308
X49000Y77108
X51100Y77108
X52000Y77108
X53000Y77108
X54000Y77108
X55000Y77108
X55000Y75808
X47000Y77108
X45200Y77108
X43500Y77108
X42000Y77108
X40200Y77108
X38700Y77108
X37000Y77108
X35700Y77108
X34000Y77108
X32700Y77108
X32800Y75908
X32900Y75008
X32900Y73908
X32900Y72808
X32900Y72008
X33000Y61208
X33200Y60208
X34500Y59908
X36000Y59908
X37000Y59808
X38000Y59808
X39000Y59808
X40000Y59808
X41000Y59808
X44900Y59908
X46500Y59908
X51100Y59908
X52000Y60008
X53000Y60008
X54000Y60008
X55000Y60008
X55000Y60908
X50300Y63308
X48200Y63308
X46100Y63308
X44000Y63308
X41900Y63308
X39800Y63308
X37700Y63308
X35500Y63308
X52500Y63308
X50300Y74208
X48200Y74208
X46100Y74208
X44000Y74208
X41900Y74208
X39800Y74208
X37700Y74208
X35500Y74208
X52500Y74208
X50300Y73308
X48200Y73308
X46100Y73308
X44000Y73308
X41900Y73308
X39800Y73308
X37700Y73308
X35500Y73308
X52500Y73308
X50300Y72308
X48200Y72308
X46100Y72308
X44000Y72308
X41900Y72308
X39800Y72308
X37700Y72308
X35500Y72308
X52500Y72308
X50300Y71308
X48200Y71308
X46100Y71308
X44000Y71308
X41900Y71308
X39800Y71308
X37700Y71308
X35500Y71308
X52500Y71308
X50300Y70308
X48200Y70308
X46100Y70308
X44000Y70308
X41900Y70308
X39800Y70308
X37700Y70308
X35500Y70308
X52500Y70308
X50300Y69308
X48200Y69308
X46100Y69308
X44000Y69308
X41900Y69308
X39800Y69308
X37700Y69308
X35500Y69308
X52500Y69308
X50300Y68308
X48200Y68308
X46100Y68308
X44000Y68308
X41900Y68308
X39800Y68308
X37700Y68308
X35500Y68308
X52500Y68308
X50300Y67308
X48200Y67308
X46100Y67308
X44000Y67308
X41900Y67308
X39800Y67308
X37700Y67308
X35500Y67308
X52500Y67308
X50300Y66308
X48200Y66308
X46100Y66308
X44000Y66308
X41900Y66308
X39800Y66308
X37700Y66308
X35500Y66308
X52500Y66308
X50300Y65308
X48200Y65308
X46100Y65308
X44000Y65308
X41900Y65308
X39800Y65308
X37700Y65308
X35500Y65308
X52500Y65308
X50300Y64308
X48200Y64308
X46100Y64308
X44000Y64308
X41900Y64308
X39800Y64308
X37700Y64308
X35500Y64308
X52500Y64308
X50300Y62308
X48200Y62308
X46100Y62308
X44000Y62308
X41900Y62308
X39800Y62308
X37700Y62308
X35500Y62308
X52500Y62308
X50300Y74808
X48200Y74808
X46100Y74808
X44000Y74808
X41900Y74808
X39800Y74808
X37700Y74808
X35500Y74808
X52500Y74808
X34500Y60908
X36000Y60908
X52000Y61008
X53000Y61008
X54000Y61008
X35500Y76308
X34500Y76308
X33500Y76308
X52500Y76308
X53500Y76308
X54500Y76308
X46500Y81108
X45000Y81108
X43200Y81108
X45000Y79108
X45500Y80108
X44000Y80108
X43500Y79108
X42500Y78108
X41000Y78108
X46500Y79108
X56500Y78108
X55000Y78108
X53200Y78108
X51700Y78108
X57500Y81108
X56000Y81108
X54200Y81108
X52700Y81108
X56000Y79108
X56500Y80108
X55000Y80108
X53200Y80108
X54500Y79108
X53000Y79108
X57500Y79108
X39000Y55308
X36000Y47508
X35000Y47508
X37000Y47508
X34000Y47508
X34000Y46508
X34000Y45908
X47800Y81208
X47800Y81908
X48500Y81908
X49100Y81908
X51000Y81908
X51600Y82008
X52400Y81908
X34000Y78508
X32600Y78308
X42500Y80108
X17500Y82508
X10100Y53708
X10100Y59108
X56200Y67608
X56100Y59149
X40300Y59149
X24300Y80808
X37800Y81008
X24000Y71208
X9900Y71208
X20500Y71208
X17600Y81008
X17800Y70208
X12900Y58708
X12900Y70608
X57100Y58808
X40900Y58766
X22000Y81008
X22300Y78308
X12900Y54008
X37250Y81058
X21200Y72708
X21200Y83808
X57000Y73708
X57000Y83879
X30976Y68308
X30900Y82808
X30400Y82608
X30647Y71508
X36754Y77808
X31659Y77866
X31700Y45330
X5600Y55508
X6100Y81608
X24700Y77508
X20500Y77508
X23000Y73508
X20700Y73154
X22200Y66308
X23600Y59708
X7500Y59608
X7500Y66008
X24200Y53608
X23500Y60308
X22200Y64408
X23400Y63808
X16100Y64308
X15700Y70708
X31317Y62508
X31300Y79966
X39700Y80008
X38900Y80008
X8241Y78699
X9859Y61208
X23200Y55508
X18600Y55500
X20700Y74008
X7800Y80008
X38300Y80008
X9859Y60008
X39300Y78408
X6900Y78308
X9900Y52408
X55700Y67008
X56000Y56508
X24200Y57949
X5000Y57908
X51000Y55508
X26200Y75620
X26400Y53008
X7000Y51908
X7000Y65008
X55500Y51508
X6000Y51508
X6500Y63608
X56100Y51208
X57600Y74308
X16700Y83208
X57900Y83108
X20541Y78366
X20000Y78408
X22500Y65008
X5670Y64508
X20800Y66808
X5200Y66408
X9000Y75508
X5374Y76516
X5100Y72508
X9300Y77508
X3000Y74508
X3100Y81008
X41300Y81508
X7000Y76508
X7700Y50008
X38000Y44508
X8000Y69508
X32500Y68608
X26959Y69508
X10700Y83008
X10557Y69508
X8900Y81508
X36300Y81808
X36300Y78408
X12800Y81777
X27300Y65308
X27359Y72208
X23000Y62208
X23503Y66608
X31000Y52608
X15500Y78135
X19200Y78008
X24000Y68349
X20600Y74508
X19000Y70808
X13100Y74508
X13551Y67849
X16500Y70808
X16500Y67849
X19000Y67849
X26200Y76408
X26800Y53408
X49000Y55608
X25000Y77908
X16000Y78308
X24800Y78608
X16500Y78708
X13500Y73908
X13500Y75108
X29300Y68008
X12459Y67208
X12500Y62908
X29754Y79966
X29141Y57077
X29300Y79966
X8300Y80008
X9859Y62508
X27700Y79966
X27800Y59708
X28800Y79966
X29000Y55308
X28300Y79966
X28400Y61608
X30300Y79966
X9300Y80438
X9859Y66308
X102508Y59608
X104508Y59508
X107508Y59508
X83608Y71708
X92524Y76808
X82452Y80552
X75508Y53008
X81308Y53508
X100808Y80208
X92212Y78349
X69508Y74508
X71508Y71608
X76508Y73508
X77508Y73508
X77508Y74508
X76508Y74508
X73408Y77308
X73408Y77908
X69808Y79908
X72508Y82908
X80608Y82208
X84308Y80808
X87808Y76508
X86308Y75308
X89508Y73508
X82708Y70708
X68508Y72508
X64008Y78808
X65808Y78108
X67408Y51008
X70608Y51108
X84508Y51508
X86908Y51508
X89508Y53908
X90508Y59508
X92508Y59508
X93508Y55008
X97508Y58308
X99308Y58308
X102508Y55508
X104508Y55508
X107508Y55508
X109708Y52908
X112508Y55508
X109508Y48508
X103508Y48508
X98508Y49508
X94708Y44508
X76108Y56608
X76108Y58408
X77108Y58408
X77208Y56508
X79908Y57508
X80908Y60608
X78508Y60708
X77208Y60708
X76008Y60708
X90508Y67408
X92508Y75508
X108308Y80508
X108008Y80008
X109108Y79008
X109608Y78608
X111508Y78608
X112008Y79108
X112708Y80508
X112708Y79808
X112708Y81308
X109508Y77108
X111608Y77108
X112508Y77108
X113508Y77108
X114508Y77108
X115508Y77108
X115508Y75808
X107508Y77108
X105708Y77108
X104008Y77108
X102508Y77108
X100708Y77108
X99208Y77108
X97508Y77108
X96208Y77108
X94508Y77108
X93208Y77108
X93308Y75908
X93408Y75008
X93408Y73908
X93408Y72808
X93408Y72008
X93508Y61208
X93708Y60208
X95008Y59908
X96508Y59908
X97508Y59808
X98508Y59808
X99508Y59808
X100508Y59808
X101508Y59808
X105408Y59908
X107008Y59908
X111608Y59908
X112508Y60008
X113508Y60008
X114508Y60008
X115508Y60008
X115508Y60908
X110808Y63308
X108708Y63308
X106608Y63308
X104508Y63308
X102408Y63308
X100308Y63308
X98208Y63308
X96008Y63308
X113008Y63308
X110808Y74208
X108708Y74208
X106608Y74208
X104508Y74208
X102408Y74208
X100308Y74208
X98208Y74208
X96008Y74208
X113008Y74208
X110808Y73308
X108708Y73308
X106608Y73308
X104508Y73308
X102408Y73308
X100308Y73308
X98208Y73308
X96008Y73308
X113008Y73308
X110808Y72308
X108708Y72308
X106608Y72308
X104508Y72308
X102408Y72308
X100308Y72308
X98208Y72308
X96008Y72308
X113008Y72308
X110808Y71308
X108708Y71308
X106608Y71308
X104508Y71308
X102408Y71308
X100308Y71308
X98208Y71308
X96008Y71308
X113008Y71308
X110808Y70308
X108708Y70308
X106608Y70308
X104508Y70308
X102408Y70308
X100308Y70308
X98208Y70308
X96008Y70308
X113008Y70308
X110808Y69308
X108708Y69308
X106608Y69308
X104508Y69308
X102408Y69308
X100308Y69308
X98208Y69308
X96008Y69308
X113008Y69308
X110808Y68308
X108708Y68308
X106608Y68308
X104508Y68308
X102408Y68308
X100308Y68308
X98208Y68308
X96008Y68308
X113008Y68308
X110808Y67308
X108708Y67308
X106608Y67308
X104508Y67308
X102408Y67308
X100308Y67308
X98208Y67308
X96008Y67308
X113008Y67308
X110808Y66308
X108708Y66308
X106608Y66308
X104508Y66308
X102408Y66308
X100308Y66308
X98208Y66308
X96008Y66308
X113008Y66308
X110808Y65308
X108708Y65308
X106608Y65308
X104508Y65308
X102408Y65308
X100308Y65308
X98208Y65308
X96008Y65308
X113008Y65308
X110808Y64308
X108708Y64308
X106608Y64308
X104508Y64308
X102408Y64308
X100308Y64308
X98208Y64308
X96008Y64308
X113008Y64308
X110808Y62308
X108708Y62308
X106608Y62308
X104508Y62308
X102408Y62308
X100308Y62308
X98208Y62308
X96008Y62308
X113008Y62308
X110808Y74808
X108708Y74808
X106608Y74808
X104508Y74808
X102408Y74808
X100308Y74808
X98208Y74808
X96008Y74808
X113008Y74808
X95008Y60908
X96508Y60908
X112508Y61008
X113508Y61008
X114508Y61008
X96008Y76308
X95008Y76308
X94008Y76308
X113008Y76308
X114008Y76308
X115008Y76308
X107008Y81108
X105508Y81108
X103708Y81108
X105508Y79108
X106008Y80108
X104508Y80108
X104008Y79108
X103008Y78108
X101508Y78108
X107008Y79108
X117008Y78108
X115508Y78108
X113708Y78108
X112208Y78108
X118008Y81108
X116508Y81108
X114708Y81108
X113208Y81108
X116508Y79108
X117008Y80108
X115508Y80108
X113708Y80108
X115008Y79108
X113508Y79108
X118008Y79108
X99508Y55308
X96508Y47508
X95508Y47508
X97508Y47508
X94508Y47508
X94508Y46508
X94508Y45908
X108308Y81208
X108308Y81908
X109008Y81908
X109608Y81908
X111508Y81908
X112108Y82008
X112908Y81908
X94508Y78508
X93108Y78308
X103008Y80108
X78008Y82508
X70608Y53708
X70608Y59108
X116708Y67608
X116608Y59149
X100808Y59149
X84808Y80808
X98308Y81008
X84508Y71208
X70408Y71208
X81008Y71208
X78108Y81008
X78308Y70208
X73408Y58708
X73408Y70608
X117608Y58808
X101408Y58766
X82508Y81008
X82808Y78308
X73408Y54008
X97758Y81058
X81708Y72708
X81708Y83808
X117508Y73708
X117508Y83879
X91484Y68308
X91408Y82808
X90908Y82608
X91155Y71508
X97262Y77808
X92167Y77866
X92208Y45330
X66108Y55508
X66608Y81608
X85208Y77508
X81008Y77508
X83508Y73508
X81208Y73154
X82708Y66308
X84108Y59708
X68008Y59608
X68008Y66008
X84708Y53608
X84008Y60308
X82708Y64408
X83908Y63808
X76608Y64308
X76208Y70708
X91825Y62508
X91808Y79966
X100208Y80008
X99408Y80008
X68749Y78699
X70367Y61208
X83708Y55508
X79108Y55500
X81208Y74008
X68308Y80008
X98808Y80008
X70367Y60008
X99808Y78408
X67408Y78308
X70408Y52408
X116208Y67008
X116508Y56508
X84708Y57949
X65508Y57908
X111508Y55508
X86708Y75620
X86908Y53008
X67508Y51908
X67508Y65008
X116008Y51508
X66508Y51508
X67008Y63608
X116608Y51208
X118108Y74308
X77208Y83208
X118408Y83108
X81049Y78366
X80508Y78408
X83008Y65008
X66178Y64508
X81308Y66808
X65708Y66408
X69508Y75508
X65881Y76516
X65608Y72508
X69808Y77508
X63508Y74508
X63608Y81008
X101808Y81508
X67508Y76508
X68208Y50008
X98508Y44508
X68508Y69508
X93008Y68608
X87467Y69508
X71208Y83008
X71065Y69508
X69408Y81508
X96808Y81808
X96808Y78408
X73308Y81777
X87808Y65308
X87867Y72208
X83508Y62208
X84011Y66608
X91508Y52608
X76008Y78135
X79708Y78008
X84508Y68349
X81108Y74508
X79508Y70808
X73608Y74508
X74059Y67849
X77008Y70808
X77008Y67849
X79508Y67849
X86708Y76408
X87308Y53408
X109508Y55608
X85508Y77908
X76508Y78308
X85308Y78608
X77008Y78708
X74008Y73908
X74008Y75108
X89808Y68008
X72967Y67208
X73008Y62908
X90262Y79966
X89649Y57077
X89808Y79966
X68808Y80008
X70367Y62508
X88208Y79966
X88308Y59708
X89308Y79966
X89508Y55308
X88808Y79966
X88908Y61608
X90808Y79966
X69808Y80438
X70367Y66308
X42000Y103115
X44000Y103015
X47000Y103015
X23100Y115215
X32016Y120315
X21944Y124059
X15000Y96515
X20800Y97015
X40300Y123715
X31704Y121857
X9000Y118015
X11000Y115115
X16000Y117015
X17000Y117015
X17000Y118015
X16000Y118015
X12900Y120815
X12900Y121415
X9300Y123415
X12000Y126415
X20100Y125715
X23800Y124315
X27300Y120015
X25800Y118815
X29000Y117015
X22200Y114215
X8000Y116015
X3500Y122315
X5300Y121615
X6900Y94515
X10100Y94615
X24000Y95015
X26400Y95015
X29000Y97415
X30000Y103015
X32000Y103015
X33000Y98515
X37000Y101815
X38800Y101815
X42000Y99015
X44000Y99015
X47000Y99015
X49200Y96415
X52000Y99015
X49000Y92015
X43000Y92015
X38000Y93015
X34200Y88015
X15600Y100115
X15600Y101915
X16600Y101915
X16700Y100015
X19400Y101015
X20400Y104115
X18000Y104215
X16700Y104215
X15500Y104215
X30000Y110915
X32000Y119015
X47800Y124015
X47500Y123515
X48600Y122515
X49100Y122115
X51000Y122115
X51500Y122615
X52200Y124015
X52200Y123315
X52200Y124815
X49000Y120615
X51100Y120615
X52000Y120615
X53000Y120615
X54000Y120615
X55000Y120615
X55000Y119315
X47000Y120615
X45200Y120615
X43500Y120615
X42000Y120615
X40200Y120615
X38700Y120615
X37000Y120615
X35700Y120615
X34000Y120615
X32700Y120615
X32800Y119415
X32900Y118515
X32900Y117415
X32900Y116315
X32900Y115515
X33000Y104715
X33200Y103715
X34500Y103415
X36000Y103415
X37000Y103315
X38000Y103315
X39000Y103315
X40000Y103315
X41000Y103315
X44900Y103415
X46500Y103415
X51100Y103415
X52000Y103515
X53000Y103515
X54000Y103515
X55000Y103515
X55000Y104415
X50300Y106815
X48200Y106815
X46100Y106815
X44000Y106815
X41900Y106815
X39800Y106815
X37700Y106815
X35500Y106815
X52500Y106815
X50300Y117715
X48200Y117715
X46100Y117715
X44000Y117715
X41900Y117715
X39800Y117715
X37700Y117715
X35500Y117715
X52500Y117715
X50300Y116815
X48200Y116815
X46100Y116815
X44000Y116815
X41900Y116815
X39800Y116815
X37700Y116815
X35500Y116815
X52500Y116815
X50300Y115815
X48200Y115815
X46100Y115815
X44000Y115815
X41900Y115815
X39800Y115815
X37700Y115815
X35500Y115815
X52500Y115815
X50300Y114815
X48200Y114815
X46100Y114815
X44000Y114815
X41900Y114815
X39800Y114815
X37700Y114815
X35500Y114815
X52500Y114815
X50300Y113815
X48200Y113815
X46100Y113815
X44000Y113815
X41900Y113815
X39800Y113815
X37700Y113815
X35500Y113815
X52500Y113815
X50300Y112815
X48200Y112815
X46100Y112815
X44000Y112815
X41900Y112815
X39800Y112815
X37700Y112815
X35500Y112815
X52500Y112815
X50300Y111815
X48200Y111815
X46100Y111815
X44000Y111815
X41900Y111815
X39800Y111815
X37700Y111815
X35500Y111815
X52500Y111815
X50300Y110815
X48200Y110815
X46100Y110815
X44000Y110815
X41900Y110815
X39800Y110815
X37700Y110815
X35500Y110815
X52500Y110815
X50300Y109815
X48200Y109815
X46100Y109815
X44000Y109815
X41900Y109815
X39800Y109815
X37700Y109815
X35500Y109815
X52500Y109815
X50300Y108815
X48200Y108815
X46100Y108815
X44000Y108815
X41900Y108815
X39800Y108815
X37700Y108815
X35500Y108815
X52500Y108815
X50300Y107815
X48200Y107815
X46100Y107815
X44000Y107815
X41900Y107815
X39800Y107815
X37700Y107815
X35500Y107815
X52500Y107815
X50300Y105815
X48200Y105815
X46100Y105815
X44000Y105815
X41900Y105815
X39800Y105815
X37700Y105815
X35500Y105815
X52500Y105815
X50300Y118315
X48200Y118315
X46100Y118315
X44000Y118315
X41900Y118315
X39800Y118315
X37700Y118315
X35500Y118315
X52500Y118315
X34500Y104415
X36000Y104415
X52000Y104515
X53000Y104515
X54000Y104515
X35500Y119815
X34500Y119815
X33500Y119815
X52500Y119815
X53500Y119815
X54500Y119815
X46500Y124615
X45000Y124615
X43200Y124615
X45000Y122615
X45500Y123615
X44000Y123615
X43500Y122615
X42500Y121615
X41000Y121615
X46500Y122615
X56500Y121615
X55000Y121615
X53200Y121615
X51700Y121615
X57500Y124615
X56000Y124615
X54200Y124615
X52700Y124615
X56000Y122615
X56500Y123615
X55000Y123615
X53200Y123615
X54500Y122615
X53000Y122615
X57500Y122615
X39000Y98815
X36000Y91015
X35000Y91015
X37000Y91015
X34000Y91015
X34000Y90015
X34000Y89415
X47800Y124715
X47800Y125415
X48500Y125415
X49100Y125415
X51000Y125415
X51600Y125515
X52400Y125415
X34000Y122015
X32600Y121815
X42500Y123615
X17500Y126015
X10100Y97215
X10100Y102615
X56200Y111115
X56100Y102657
X40300Y102657
X24300Y124315
X37800Y124515
X24000Y114715
X9900Y114715
X20500Y114715
X17600Y124515
X17800Y113715
X12900Y102215
X12900Y114115
X57100Y102315
X40900Y102274
X22000Y124515
X22300Y121815
X12900Y97515
X37250Y124565
X21200Y116215
X21200Y127315
X57000Y117215
X57000Y127387
X30976Y111815
X30900Y126315
X30400Y126115
X30647Y115015
X36754Y121315
X31659Y121374
X31700Y88838
X5600Y99015
X6100Y125115
X24700Y121015
X20500Y121015
X23000Y117015
X20700Y116661
X22200Y109815
X23600Y103215
X7500Y103115
X7500Y109515
X24200Y97115
X23500Y103815
X22200Y107915
X23400Y107315
X16100Y107815
X15700Y114215
X31317Y106015
X31300Y123474
X39700Y123515
X38900Y123515
X8241Y122206
X9859Y104715
X23200Y99015
X18600Y99008
X20700Y117515
X7800Y123515
X38300Y123515
X9859Y103515
X39300Y121915
X6900Y121815
X9900Y95915
X55700Y110515
X56000Y100015
X24200Y101457
X5000Y101415
X51000Y99015
X26200Y119128
X26400Y96515
X7000Y95415
X7000Y108515
X55500Y95015
X6000Y95015
X6500Y107115
X56100Y94715
X57600Y117815
X16700Y126715
X57900Y126615
X20541Y121874
X20000Y121915
X22500Y108515
X5670Y108015
X20800Y110315
X5200Y109915
X9000Y119015
X5374Y120023
X5100Y116015
X9300Y121015
X3000Y118015
X3100Y124515
X41300Y125015
X7000Y120015
X7700Y93515
X38000Y88015
X8000Y113015
X32500Y112115
X26959Y113015
X10700Y126515
X10557Y113015
X8900Y125015
X36300Y125315
X36300Y121915
X12800Y125285
X27300Y108815
X27359Y115715
X23000Y105715
X23503Y110115
X31000Y96115
X15500Y121643
X19200Y121515
X24000Y111857
X20600Y118015
X19000Y114315
X13100Y118015
X13551Y111357
X16500Y114315
X16500Y111357
X19000Y111357
X26200Y119915
X26800Y96915
X49000Y99115
X25000Y121415
X16000Y121815
X24800Y122115
X16500Y122215
X13500Y117415
X13500Y118615
X29300Y111515
X12459Y110715
X12500Y106415
X29754Y123474
X29141Y100585
X29300Y123474
X8300Y123515
X9859Y106015
X27700Y123474
X27800Y103215
X28800Y123474
X29000Y98815
X28300Y123474
X28400Y105115
X30300Y123474
X9300Y123946
X9859Y109815
X102508Y103115
X104508Y103015
X107508Y103015
X83608Y115215
X92524Y120315
X82452Y124059
X75508Y96515
X81308Y97015
X100808Y123715
X92212Y121857
X69508Y118015
X71508Y115115
X76508Y117015
X77508Y117015
X77508Y118015
X76508Y118015
X73408Y120815
X73408Y121415
X69808Y123415
X72508Y126415
X80608Y125715
X84308Y124315
X87808Y120015
X86308Y118815
X89508Y117015
X82708Y114215
X68508Y116015
X64008Y122315
X65808Y121615
X67408Y94515
X70608Y94615
X84508Y95015
X86908Y95015
X89508Y97415
X90508Y103015
X92508Y103015
X93508Y98515
X97508Y101815
X99308Y101815
X102508Y99015
X104508Y99015
X107508Y99015
X109708Y96415
X112508Y99015
X109508Y92015
X103508Y92015
X98508Y93015
X94708Y88015
X76108Y100115
X76108Y101915
X77108Y101915
X77208Y100015
X79908Y101015
X80908Y104115
X78508Y104215
X77208Y104215
X76008Y104215
X90508Y110915
X92508Y119015
X108308Y124015
X108008Y123515
X109108Y122515
X109608Y122115
X111508Y122115
X112008Y122615
X112708Y124015
X112708Y123315
X112708Y124815
X109508Y120615
X111608Y120615
X112508Y120615
X113508Y120615
X114508Y120615
X115508Y120615
X115508Y119315
X107508Y120615
X105708Y120615
X104008Y120615
X102508Y120615
X100708Y120615
X99208Y120615
X97508Y120615
X96208Y120615
X94508Y120615
X93208Y120615
X93308Y119415
X93408Y118515
X93408Y117415
X93408Y116315
X93408Y115515
X93508Y104715
X93708Y103715
X95008Y103415
X96508Y103415
X97508Y103315
X98508Y103315
X99508Y103315
X100508Y103315
X101508Y103315
X105408Y103415
X107008Y103415
X111608Y103415
X112508Y103515
X113508Y103515
X114508Y103515
X115508Y103515
X115508Y104415
X110808Y106815
X108708Y106815
X106608Y106815
X104508Y106815
X102408Y106815
X100308Y106815
X98208Y106815
X96008Y106815
X113008Y106815
X110808Y117715
X108708Y117715
X106608Y117715
X104508Y117715
X102408Y117715
X100308Y117715
X98208Y117715
X96008Y117715
X113008Y117715
X110808Y116815
X108708Y116815
X106608Y116815
X104508Y116815
X102408Y116815
X100308Y116815
X98208Y116815
X96008Y116815
X113008Y116815
X110808Y115815
X108708Y115815
X106608Y115815
X104508Y115815
X102408Y115815
X100308Y115815
X98208Y115815
X96008Y115815
X113008Y115815
X110808Y114815
X108708Y114815
X106608Y114815
X104508Y114815
X102408Y114815
X100308Y114815
X98208Y114815
X96008Y114815
X113008Y114815
X110808Y113815
X108708Y113815
X106608Y113815
X104508Y113815
X102408Y113815
X100308Y113815
X98208Y113815
X96008Y113815
X113008Y113815
X110808Y112815
X108708Y112815
X106608Y112815
X104508Y112815
X102408Y112815
X100308Y112815
X98208Y112815
X96008Y112815
X113008Y112815
X110808Y111815
X108708Y111815
X106608Y111815
X104508Y111815
X102408Y111815
X100308Y111815
X98208Y111815
X96008Y111815
X113008Y111815
X110808Y110815
X108708Y110815
X106608Y110815
X104508Y110815
X102408Y110815
X100308Y110815
X98208Y110815
X96008Y110815
X113008Y110815
X110808Y109815
X108708Y109815
X106608Y109815
X104508Y109815
X102408Y109815
X100308Y109815
X98208Y109815
X96008Y109815
X113008Y109815
X110808Y108815
X108708Y108815
X106608Y108815
X104508Y108815
X102408Y108815
X100308Y108815
X98208Y108815
X96008Y108815
X113008Y108815
X110808Y107815
X108708Y107815
X106608Y107815
X104508Y107815
X102408Y107815
X100308Y107815
X98208Y107815
X96008Y107815
X113008Y107815
X110808Y105815
X108708Y105815
X106608Y105815
X104508Y105815
X102408Y105815
X100308Y105815
X98208Y105815
X96008Y105815
X113008Y105815
X110808Y118315
X108708Y118315
X106608Y118315
X104508Y118315
X102408Y118315
X100308Y118315
X98208Y118315
X96008Y118315
X113008Y118315
X95008Y104415
X96508Y104415
X112508Y104515
X113508Y104515
X114508Y104515
X96008Y119815
X95008Y119815
X94008Y119815
X113008Y119815
X114008Y119815
X115008Y119815
X107008Y124615
X105508Y124615
X103708Y124615
X105508Y122615
X106008Y123615
X104508Y123615
X104008Y122615
X103008Y121615
X101508Y121615
X107008Y122615
X117008Y121615
X115508Y121615
X113708Y121615
X112208Y121615
X118008Y124615
X116508Y124615
X114708Y124615
X113208Y124615
X116508Y122615
X117008Y123615
X115508Y123615
X113708Y123615
X115008Y122615
X113508Y122615
X118008Y122615
X99508Y98815
X96508Y91015
X95508Y91015
X97508Y91015
X94508Y91015
X94508Y90015
X94508Y89415
X108308Y124715
X108308Y125415
X109008Y125415
X109608Y125415
X111508Y125415
X112108Y125515
X112908Y125415
X94508Y122015
X93108Y121815
X103008Y123615
X78008Y126015
X70608Y97215
X70608Y102615
X116708Y111115
X116608Y102657
X100808Y102657
X84808Y124315
X98308Y124515
X84508Y114715
X70408Y114715
X81008Y114715
X78108Y124515
X78308Y113715
X73408Y102215
X73408Y114115
X117608Y102315
X101408Y102274
X82508Y124515
X82808Y121815
X73408Y97515
X97758Y124565
X81708Y116215
X81708Y127315
X117508Y117215
X117508Y127387
X91484Y111815
X91408Y126315
X90908Y126115
X91155Y115015
X97262Y121315
X92167Y121374
X92208Y88838
X66108Y99015
X66608Y125115
X85208Y121015
X81008Y121015
X83508Y117015
X81208Y116661
X82708Y109815
X84108Y103215
X68008Y103115
X68008Y109515
X84708Y97115
X84008Y103815
X82708Y107915
X83908Y107315
X76608Y107815
X76208Y114215
X91825Y106015
X91808Y123474
X100208Y123515
X99408Y123515
X68749Y122206
X70367Y104715
X83708Y99015
X79108Y99008
X81208Y117515
X68308Y123515
X98808Y123515
X70367Y103515
X99808Y121915
X67408Y121815
X70408Y95915
X116208Y110515
X116508Y100015
X84708Y101457
X65508Y101415
X111508Y99015
X86708Y119128
X86908Y96515
X67508Y95415
X67508Y108515
X116008Y95015
X66508Y95015
X67008Y107115
X116608Y94715
X118108Y117815
X77208Y126715
X118408Y126615
X81049Y121874
X80508Y121915
X83008Y108515
X66178Y108015
X81308Y110315
X65708Y109915
X69508Y119015
X65881Y120023
X65608Y116015
X69808Y121015
X63508Y118015
X63608Y124515
X101808Y125015
X67508Y120015
X68208Y93515
X98508Y88015
X68508Y113015
X93008Y112115
X87467Y113015
X71208Y126515
X71065Y113015
X69408Y125015
X96808Y125315
X96808Y121915
X73308Y125285
X87808Y108815
X87867Y115715
X83508Y105715
X84011Y110115
X91508Y96115
X76008Y121643
X79708Y121515
X84508Y111857
X81108Y118015
X79508Y114315
X73608Y118015
X74059Y111357
X77008Y114315
X77008Y111357
X79508Y111357
X86708Y119915
X87308Y96915
X109508Y99115
X85508Y121415
X76508Y121815
X85308Y122115
X77008Y122215
X74008Y117415
X74008Y118615
X89808Y111515
X72967Y110715
X73008Y106415
X90262Y123474
X89649Y100585
X89808Y123474
X68808Y123515
X70367Y106015
X88208Y123474
X88308Y103215
X89308Y123474
X89508Y98815
X88808Y123474
X88908Y105115
X90808Y123474
X69808Y123946
X70367Y109815
X42000Y146623
X44000Y146523
X47000Y146523
X23100Y158723
X32016Y163823
X21944Y167567
X15000Y140023
X20800Y140523
X40300Y167223
X31704Y165364
X9000Y161523
X11000Y158623
X16000Y160523
X17000Y160523
X17000Y161523
X16000Y161523
X12900Y164323
X12900Y164923
X9300Y166923
X12000Y169923
X20100Y169223
X23800Y167823
X27300Y163523
X25800Y162323
X29000Y160523
X22200Y157723
X8000Y159523
X3500Y165823
X5300Y165123
X6900Y138023
X10100Y138123
X24000Y138523
X26400Y138523
X29000Y140923
X30000Y146523
X32000Y146523
X33000Y142023
X37000Y145323
X38800Y145323
X42000Y142523
X44000Y142523
X47000Y142523
X49200Y139923
X52000Y142523
X49000Y135523
X43000Y135523
X38000Y136523
X34200Y131523
X15600Y143623
X15600Y145423
X16600Y145423
X16700Y143523
X19400Y144523
X20400Y147623
X18000Y147723
X16700Y147723
X15500Y147723
X30000Y154423
X32000Y162523
X47800Y167523
X47500Y167023
X48600Y166023
X49100Y165623
X51000Y165623
X51500Y166123
X52200Y167523
X52200Y166823
X52200Y168323
X49000Y164123
X51100Y164123
X52000Y164123
X53000Y164123
X54000Y164123
X55000Y164123
X55000Y162823
X47000Y164123
X45200Y164123
X43500Y164123
X42000Y164123
X40200Y164123
X38700Y164123
X37000Y164123
X35700Y164123
X34000Y164123
X32700Y164123
X32800Y162923
X32900Y162023
X32900Y160923
X32900Y159823
X32900Y159023
X33000Y148223
X33200Y147223
X34500Y146923
X36000Y146923
X37000Y146823
X38000Y146823
X39000Y146823
X40000Y146823
X41000Y146823
X44900Y146923
X46500Y146923
X42000Y16100
X52000Y147023
X53000Y147023
X54000Y147023
X55000Y147023
X55000Y147923
X50300Y150323
X48200Y150323
X46100Y150323
X44000Y150323
X41900Y150323
X39800Y150323
X37700Y150323
X35500Y150323
X52500Y150323
X50300Y161223
X48200Y161223
X46100Y161223
X44000Y161223
X41900Y161223
X39800Y161223
X37700Y161223
X35500Y161223
X52500Y161223
X50300Y160323
X48200Y160323
X46100Y160323
X44000Y160323
X41900Y160323
X39800Y160323
X37700Y160323
X35500Y160323
X52500Y160323
X50300Y159323
X48200Y159323
X46100Y159323
X44000Y159323
X41900Y159323
X39800Y159323
X37700Y159323
X35500Y159323
X52500Y159323
X50300Y158323
X48200Y158323
X46100Y158323
X44000Y158323
X41900Y158323
X39800Y158323
X37700Y158323
X35500Y158323
X52500Y158323
X50300Y157323
X48200Y157323
X46100Y157323
X44000Y157323
X41900Y157323
X39800Y157323
X37700Y157323
X35500Y157323
X52500Y157323
X50300Y156323
X48200Y156323
X46100Y156323
X44000Y156323
X41900Y156323
X39800Y156323
X37700Y156323
X35500Y156323
X52500Y156323
X50300Y155323
X48200Y155323
X46100Y155323
X44000Y155323
X41900Y155323
X39800Y155323
X37700Y155323
X35500Y155323
X52500Y155323
X50300Y154323
X48200Y154323
X46100Y154323
X44000Y154323
X41900Y154323
X39800Y154323
X37700Y154323
X35500Y154323
X52500Y154323
X50300Y153323
X48200Y153323
X46100Y153323
X44000Y153323
X41900Y153323
X39800Y153323
X37700Y153323
X35500Y153323
X52500Y153323
X50300Y152323
X48200Y152323
X46100Y152323
X44000Y152323
X41900Y152323
X39800Y152323
X37700Y152323
X35500Y152323
X52500Y152323
X50300Y151323
X48200Y151323
X46100Y151323
X44000Y151323
X41900Y151323
X39800Y151323
X37700Y151323
X35500Y151323
X52500Y151323
X50300Y149323
X48200Y149323
X46100Y149323
X44000Y149323
X41900Y149323
X39800Y149323
X37700Y149323
X35500Y149323
X52500Y149323
X50300Y161823
X48200Y161823
X46100Y161823
X44000Y161823
X41900Y161823
X39800Y161823
X37700Y161823
X35500Y161823
X52500Y161823
X34500Y147923
X36000Y147923
X52000Y148023
X53000Y148023
X54000Y148023
X35500Y163323
X34500Y163323
X33500Y163323
X52500Y163323
X53500Y163323
X54500Y163323
X46500Y168123
X45000Y168123
X43200Y168123
X45000Y166123
X45500Y167123
X44000Y167123
X43500Y166123
X42500Y165123
X41000Y165123
X46500Y166123
X56500Y165123
X55000Y165123
X53200Y165123
X51700Y165123
X57500Y168123
X56000Y168123
X54200Y168123
X52700Y168123
X56000Y166123
X56500Y167123
X55000Y167123
X53200Y167123
X54500Y166123
X53000Y166123
X57500Y166123
X39000Y142323
X36000Y134523
X35000Y134523
X37000Y134523
X34000Y134523
X34000Y133523
X34000Y132923
X47800Y168223
X47800Y168923
X48500Y168923
X49100Y168923
X51000Y168923
X51600Y169023
X52400Y168923
X34000Y165523
X32600Y165323
X42500Y167123
X17500Y169523
X10100Y140723
X10100Y146123
X56200Y154623
X56100Y146164
X40300Y146164
X24300Y167823
X37800Y168023
X24000Y158223
X9900Y158223
X20500Y158223
X17600Y168023
X17800Y157223
X12900Y145723
X12900Y157623
X57100Y145823
X40900Y145782
X22000Y168023
X22300Y165323
X12900Y141023
X37250Y168073
X21200Y159723
X21200Y170823
X57000Y160723
X57000Y170894
X30976Y155323
X30900Y169823
X30400Y169623
X30647Y158523
X36754Y164823
X31659Y164882
X31700Y132345
X5600Y142523
X6100Y168623
X24700Y164523
X20500Y164523
X23000Y160523
X20700Y160169
X22200Y153323
X23600Y146723
X7500Y146623
X7500Y153023
X24200Y140623
X23500Y147323
X22200Y151423
X23400Y150823
X16100Y151323
X15700Y157723
X31317Y149523
X31300Y166982
X39700Y167023
X38900Y167023
X8241Y165714
X9859Y148223
X23200Y142523
X18600Y142515
X20700Y161023
X7800Y167023
X38300Y167023
X9859Y147023
X39300Y165423
X6900Y165323
X9900Y139423
X55700Y154023
X56000Y143523
X24200Y144964
X5000Y144923
X51000Y142523
X26200Y162636
X26400Y140023
X7000Y138923
X7000Y152023
X55500Y138523
X6000Y138523
X6500Y150623
X56100Y138223
X57600Y161323
X16700Y170223
X57900Y170123
X20541Y165382
X20000Y165423
X22500Y152023
X5670Y151523
X20800Y153823
X5200Y153423
X9000Y162523
X5374Y163531
X5100Y159523
X9300Y164523
X3000Y161523
X3100Y168023
X41300Y168523
X7000Y163523
X7700Y137023
X38000Y131523
X8000Y156523
X32500Y155623
X26959Y156523
X10700Y170023
X10557Y156523
X8900Y168523
X36300Y168823
X36300Y165423
X12800Y168793
X27300Y152323
X27359Y159223
X23000Y149223
X23503Y153623
X31000Y139623
X15500Y165151
X19200Y165023
X24000Y155364
X20600Y161523
X19000Y157823
X13100Y161523
X13551Y154864
X16500Y157823
X16500Y154864
X19000Y154864
X26200Y163423
X26800Y140423
X49000Y142623
X25000Y164923
X16000Y165323
X24800Y165623
X16500Y165723
X13500Y160923
X13500Y162123
X29300Y155023
X12459Y154223
X12500Y149923
X29754Y166982
X29141Y144093
X29300Y166982
X8300Y167023
X9859Y149523
X27700Y166982
X27800Y146723
X28800Y166982
X29000Y142323
X28300Y166982
X28400Y148623
X30300Y166982
X9300Y167453
X9859Y153323
X102508Y146623
X104508Y146523
X107508Y146523
X83608Y158723
X92524Y163823
X82452Y167567
X75508Y140023
X81308Y140523
X100808Y167223
X92212Y165364
X69508Y161523
X71508Y158623
X76508Y160523
X77508Y160523
X77508Y161523
X76508Y161523
X73408Y164323
X73408Y164923
X69808Y166923
X72508Y169923
X80608Y169223
X84308Y167823
X87808Y163523
X86308Y162323
X89508Y160523
X82708Y157723
X68508Y159523
X64008Y165823
X65808Y165123
X67408Y138023
X70608Y138123
X84508Y138523
X86908Y138523
X89508Y140923
X90508Y146523
X92508Y146523
X93508Y142023
X97508Y145323
X99308Y145323
X102508Y142523
X104508Y142523
X107508Y142523
X109708Y139923
X112508Y142523
X109508Y135523
X103508Y135523
X98508Y136523
X94708Y131523
X76108Y143623
X76108Y145423
X77108Y145423
X77208Y143523
X79908Y144523
X80908Y147623
X78508Y147723
X77208Y147723
X76008Y147723
X90508Y154423
X92508Y162523
X108308Y167523
X108008Y167023
X109108Y166023
X109608Y165623
X111508Y165623
X112008Y166123
X112708Y167523
X112708Y166823
X112708Y168323
X109508Y164123
X111608Y164123
X112508Y164123
X113508Y164123
X114508Y164123
X115508Y164123
X115508Y162823
X107508Y164123
X105708Y164123
X104008Y164123
X102508Y164123
X100708Y164123
X99208Y164123
X97508Y164123
X96208Y164123
X94508Y164123
X93208Y164123
X93308Y162923
X93408Y162023
X93408Y160923
X93408Y159823
X93408Y159023
X93508Y148223
X93708Y147223
X95008Y146923
X96508Y146923
X97508Y146823
X98508Y146823
X99508Y146823
X100508Y146823
X101508Y146823
X105408Y146923
X107008Y146923
X111608Y146923
X112508Y147023
X113508Y147023
X114508Y147023
X115508Y147023
X115508Y147923
X110808Y150323
X108708Y150323
X106608Y150323
X104508Y150323
X102408Y150323
X100308Y150323
X98208Y150323
X96008Y150323
X113008Y150323
X110808Y161223
X108708Y161223
X51100Y146923
X104508Y161223
X102408Y161223
X100308Y161223
X98208Y161223
X96008Y161223
X113008Y161223
X110808Y160323
X108708Y160323
X106608Y160323
X104508Y160323
X102408Y160323
X100308Y160323
X98208Y160323
X96008Y160323
X113008Y160323
X110808Y159323
X108708Y159323
X106608Y159323
X104508Y159323
X102408Y159323
X100308Y159323
X98208Y159323
X96008Y159323
X113008Y159323
X110808Y158323
X108708Y158323
X106608Y158323
X104508Y158323
X102408Y158323
X100308Y158323
X98208Y158323
X96008Y158323
X113008Y158323
X110808Y157323
X108708Y157323
X106608Y157323
X104508Y157323
X102408Y157323
X100308Y157323
X98208Y157323
X96008Y157323
X113008Y157323
X110808Y156323
X108708Y156323
X106608Y156323
X104508Y156323
X102408Y156323
X100308Y156323
X98208Y156323
X96008Y156323
X113008Y156323
X110808Y155323
X108708Y155323
X106608Y155323
X104508Y155323
X102408Y155323
X100308Y155323
X98208Y155323
X96008Y155323
X113008Y155323
X110808Y154323
X108708Y154323
X106608Y154323
X104508Y154323
X102408Y154323
X100308Y154323
X98208Y154323
X96008Y154323
X113008Y154323
X110808Y153323
X108708Y153323
X106608Y153323
X104508Y153323
X102408Y153323
X100308Y153323
X98208Y153323
X96008Y153323
X113008Y153323
X110808Y152323
X108708Y152323
X106608Y152323
X104508Y152323
X102408Y152323
X100308Y152323
X98208Y152323
X96008Y152323
X113008Y152323
X110808Y151323
X108708Y151323
X106608Y151323
X104508Y151323
X102408Y151323
X100308Y151323
X98208Y151323
X96008Y151323
X113008Y151323
X110808Y149323
X108708Y149323
X106608Y149323
X104508Y149323
X102408Y149323
X100308Y149323
X98208Y149323
X96008Y149323
X113008Y149323
X110808Y161823
X108708Y161823
X106608Y161823
X104508Y161823
X102408Y161823
X100308Y161823
X98208Y161823
X96008Y161823
X113008Y161823
X95008Y147923
X96508Y147923
X112508Y148023
X113508Y148023
X114508Y148023
X96008Y163323
X95008Y163323
X94008Y163323
X113008Y163323
X114008Y163323
X115008Y163323
X107008Y168123
X105508Y168123
X103708Y168123
X105508Y166123
X106008Y167123
X104508Y167123
X104008Y166123
X103008Y165123
X101508Y165123
X107008Y166123
X117008Y165123
X115508Y165123
X113708Y165123
X112208Y165123
X118008Y168123
X116508Y168123
X114708Y168123
X113208Y168123
X116508Y166123
X117008Y167123
X115508Y167123
X113708Y167123
X115008Y166123
X113508Y166123
X118008Y166123
X99508Y142323
X96508Y134523
X95508Y134523
X97508Y134523
X94508Y134523
X94508Y133523
X94508Y132923
X108308Y168223
X108308Y168923
X109008Y168923
X109608Y168923
X111508Y168923
X112108Y169023
X112908Y168923
X94508Y165523
X93108Y165323
X103008Y167123
X78008Y169523
X70608Y140723
X70608Y146123
X116708Y154623
X116608Y146164
X100808Y146164
X84808Y167823
X98308Y168023
X84508Y158223
X70408Y158223
X81008Y158223
X78108Y168023
X78308Y157223
X73408Y145723
X73408Y157623
X117608Y145823
X101408Y145782
X82508Y168023
X82808Y165323
X73408Y141023
X97758Y168073
X81708Y159723
X81708Y170823
X117508Y160723
X117508Y170894
X91484Y155323
X91408Y169823
X90908Y169623
X91155Y158523
X97262Y164823
X92167Y164882
X92208Y132345
X66108Y142523
X66608Y168623
X85208Y164523
X81008Y164523
X83508Y160523
X81208Y160169
X82708Y153323
X84108Y146723
X68008Y146623
X68008Y153023
X84708Y140623
X84008Y147323
X82708Y151423
X83908Y150823
X76608Y151323
X76208Y157723
X91825Y149523
X91808Y166982
X100208Y167023
X99408Y167023
X68749Y165714
X70367Y148223
X83708Y142523
X79108Y142515
X81208Y161023
X68308Y167023
X98808Y167023
X70367Y147023
X99808Y165423
X67408Y165323
X70408Y139423
X116208Y154023
X116508Y143523
X84708Y144964
X65508Y144923
X111508Y142523
X86708Y162636
X86908Y140023
X67508Y138923
X67508Y152023
X116008Y138523
X66508Y138523
X67008Y150623
X116608Y138223
X118108Y161323
X77208Y170223
X118408Y170123
X81049Y165382
X80508Y165423
X83008Y152023
X66178Y151523
X81308Y153823
X65708Y153423
X69508Y162523
X65881Y163531
X65608Y159523
X69808Y164523
X63508Y161523
X63608Y168023
X101808Y168523
X67508Y163523
X68208Y137023
X98508Y131523
X68508Y156523
X93008Y155623
X87467Y156523
X71208Y170023
X71065Y156523
X69408Y168523
X96808Y168823
X96808Y165423
X73308Y168793
X87808Y152323
X87867Y159223
X83508Y149223
X84011Y153623
X91508Y139623
X76008Y165151
X79708Y165023
X84508Y155364
X81108Y161523
X79508Y157823
X73608Y161523
X74059Y154864
X77008Y157823
X77008Y154864
X79508Y154864
X86708Y163423
X87308Y140423
X109508Y142623
X85508Y164923
X76508Y165323
X85308Y165623
X77008Y165723
X74008Y160923
X74008Y162123
X89808Y155023
X72967Y154223
X73008Y149923
X90262Y166982
X89649Y144093
X89808Y166982
X68808Y167023
X70367Y149523
X88208Y166982
X88308Y146723
X89308Y166982
X89508Y142323
X88808Y166982
X88908Y148623
X90808Y166982
X69808Y167453
X70367Y153323
X44000Y16000
X47000Y16000
X23100Y28200
X32016Y33300
X21944Y37044
X15000Y9500
X20800Y10000
X40300Y36700
X31704Y34841
X9000Y31000
X11000Y28100
X16000Y30000
X17000Y30000
X17000Y31000
X16000Y31000
X12900Y33800
X12900Y34400
X9300Y36400
X12000Y39400
X20100Y38700
X23800Y37300
X27300Y33000
X25800Y31800
X29000Y30000
X22200Y27200
X8000Y29000
X3500Y35300
X5300Y34600
X6900Y7500
X10100Y7600
X24000Y8000
X26400Y8000
X29000Y10400
X30000Y16000
X32000Y16000
X33000Y11500
X37000Y14800
X38800Y14800
X42000Y12000
X44000Y12000
X47000Y12000
X49200Y9400
X52000Y12000
X49000Y5000
X43000Y5000
X38000Y6000
X34200Y1000
X15600Y13100
X15600Y14900
X16600Y14900
X16700Y13000
X19400Y14000
X20400Y17100
X18000Y17200
X16700Y17200
X15500Y17200
X30000Y23900
X32000Y32000
X47800Y37000
X47500Y36500
X48600Y35500
X49100Y35100
X51000Y35100
X51500Y35600
X52200Y37000
X52200Y36300
X52200Y37800
X49000Y33600
X51100Y33600
X52000Y33600
X53000Y33600
X54000Y33600
X55000Y33600
X55000Y32300
X47000Y33600
X45200Y33600
X43500Y33600
X42000Y33600
X40200Y33600
X38700Y33600
X37000Y33600
X35700Y33600
X34000Y33600
X32700Y33600
X32800Y32400
X32900Y31500
X32900Y30400
X32900Y29300
X32900Y28500
X33000Y17700
X33200Y16700
X34500Y16400
X36000Y16400
X37000Y16300
X38000Y16300
X39000Y16300
X40000Y16300
X41000Y16300
X44900Y16400
X46500Y16400
X51100Y16400
X52000Y16500
X53000Y16500
X54000Y16500
X55000Y16500
X55000Y17400
X50300Y19800
X48200Y19800
X46100Y19800
X44000Y19800
X41900Y19800
X39800Y19800
X37700Y19800
X35500Y19800
X52500Y19800
X50300Y30700
X48200Y30700
X46100Y30700
X44000Y30700
X41900Y30700
X39800Y30700
X37700Y30700
X35500Y30700
X52500Y30700
X50300Y29800
X48200Y29800
X46100Y29800
X44000Y29800
X41900Y29800
X39800Y29800
X37700Y29800
X35500Y29800
X52500Y29800
X50300Y28800
X48200Y28800
X106608Y161223
M30