G04 EAGLE Gerber RS-274X export*
G75*
%MOMM*%
%FSLAX34Y34*%
%LPD*%
%INSolderpaste Top*%
%IPPOS*%
%AMOC8*
5,1,8,0,0,1.08239X$1,22.5*%
G01*
%ADD10C,0.300000*%
%ADD11R,1.000000X1.100000*%
%ADD12R,0.900000X0.850000*%
%ADD13R,1.100000X1.000000*%
%ADD14R,0.600000X0.600000*%
%ADD15R,0.850000X1.520000*%
%ADD16R,1.520000X0.850000*%
%ADD17R,0.900000X0.900000*%
%ADD18R,0.550000X0.800000*%
%ADD19R,0.550000X0.500000*%
%ADD20R,0.850000X2.200000*%
%ADD21R,1.000000X1.050000*%
%ADD22R,0.600000X1.200000*%
%ADD23R,0.400000X0.800000*%
%ADD24R,0.250000X0.650000*%
%ADD25R,1.200000X0.550000*%
%ADD26R,1.500000X0.900000*%
%ADD27R,0.900000X1.500000*%
%ADD28R,1.330000X1.330000*%


D10*
X36500Y254730D02*
X43500Y254730D01*
X43500Y247730D01*
X36500Y247730D01*
X36500Y254730D01*
X36500Y250580D02*
X43500Y250580D01*
X43500Y253430D02*
X36500Y253430D01*
X36500Y272270D02*
X43500Y272270D01*
X43500Y265270D01*
X36500Y265270D01*
X36500Y272270D01*
X36500Y268120D02*
X43500Y268120D01*
X43500Y270970D02*
X36500Y270970D01*
D11*
X60000Y268500D03*
X60000Y251500D03*
X510000Y131500D03*
X510000Y148500D03*
X490000Y131500D03*
X490000Y148500D03*
D12*
X475000Y345200D03*
X475000Y356800D03*
D13*
X459500Y346000D03*
X442500Y346000D03*
D11*
X470000Y131500D03*
X470000Y148500D03*
D14*
X500000Y344000D03*
X490000Y344000D03*
D15*
X511500Y324500D03*
X500500Y324500D03*
X489500Y324500D03*
X478500Y324500D03*
X467500Y324500D03*
X456500Y324500D03*
X445500Y324500D03*
X434500Y324500D03*
X423500Y324500D03*
X412500Y324500D03*
X401500Y324500D03*
X390500Y324500D03*
X379500Y324500D03*
X368500Y324500D03*
D16*
X340500Y316000D03*
X340500Y305000D03*
X340500Y294000D03*
X340500Y283000D03*
X340500Y272000D03*
X340500Y261000D03*
X340500Y250000D03*
X340500Y239000D03*
X340500Y228000D03*
X340500Y217000D03*
X340500Y206000D03*
X340500Y195000D03*
X340500Y184000D03*
D15*
X368500Y175500D03*
X379500Y175500D03*
X390500Y175500D03*
X401500Y175500D03*
X412500Y175500D03*
X423500Y175500D03*
X434500Y175500D03*
X445500Y175500D03*
X456500Y175500D03*
X467500Y175500D03*
X478500Y175500D03*
X489500Y175500D03*
X500500Y175500D03*
X511500Y175500D03*
D16*
X539500Y184000D03*
X539500Y195000D03*
X539500Y206000D03*
X539500Y217000D03*
X539500Y228000D03*
X539500Y239000D03*
X539500Y250000D03*
X539500Y261000D03*
X539500Y272000D03*
X539500Y283000D03*
X539500Y294000D03*
X539500Y305000D03*
X539500Y316000D03*
D17*
X450500Y239500D03*
X471500Y239500D03*
X492500Y239500D03*
X513500Y239500D03*
X450500Y219000D03*
X471500Y219000D03*
X492500Y219000D03*
X513500Y219000D03*
X450500Y198500D03*
X471500Y198500D03*
X492500Y198500D03*
X513500Y198500D03*
X450500Y301500D03*
X471500Y301500D03*
X492500Y301500D03*
X513500Y301500D03*
X450500Y281000D03*
X471500Y281000D03*
X492500Y281000D03*
X513500Y281000D03*
X450500Y260500D03*
X471500Y260500D03*
X492500Y260500D03*
X513500Y260500D03*
X366500Y239500D03*
X387500Y239500D03*
X408500Y239500D03*
X429500Y239500D03*
X366500Y219000D03*
X387500Y219000D03*
X408500Y219000D03*
X429500Y219000D03*
X366500Y198500D03*
X387500Y198500D03*
X408500Y198500D03*
X429500Y198500D03*
X366500Y301500D03*
X387500Y301500D03*
X408500Y301500D03*
X429500Y301500D03*
X366500Y281000D03*
X387500Y281000D03*
X408500Y281000D03*
X429500Y281000D03*
X366500Y260500D03*
X387500Y260500D03*
X408500Y260500D03*
X429500Y260500D03*
D11*
X420000Y148500D03*
X420000Y131500D03*
X440000Y131500D03*
X440000Y148500D03*
D18*
X556800Y222000D03*
D19*
X556800Y214000D03*
X556800Y206000D03*
D18*
X556800Y198000D03*
X569800Y198000D03*
D19*
X569800Y206000D03*
X569800Y214000D03*
D18*
X569800Y222000D03*
X556800Y292000D03*
D19*
X556800Y284000D03*
X556800Y276000D03*
D18*
X556800Y268000D03*
X569800Y268000D03*
D19*
X569800Y276000D03*
X569800Y284000D03*
D18*
X569800Y292000D03*
D11*
X550000Y148500D03*
X550000Y131500D03*
X300000Y91500D03*
X300000Y108500D03*
X280000Y91500D03*
X280000Y108500D03*
D18*
X303800Y272000D03*
D19*
X303800Y264000D03*
X303800Y256000D03*
D18*
X303800Y248000D03*
X316800Y248000D03*
D19*
X316800Y256000D03*
X316800Y264000D03*
D18*
X316800Y272000D03*
D11*
X520000Y91500D03*
X520000Y108500D03*
X460000Y108500D03*
X460000Y91500D03*
D20*
X513750Y370000D03*
X486250Y370000D03*
D21*
X500000Y354750D03*
X500000Y385250D03*
D22*
X224450Y338000D03*
X211750Y338000D03*
X199050Y338000D03*
X186350Y338000D03*
X173650Y338000D03*
X160950Y338000D03*
X148250Y338000D03*
X135550Y338000D03*
X135550Y282000D03*
X148250Y282000D03*
X160950Y282000D03*
X173650Y282000D03*
X186350Y282000D03*
X199050Y282000D03*
X211750Y282000D03*
X224450Y282000D03*
D11*
X250100Y301500D03*
X250100Y318500D03*
D23*
X157500Y381500D03*
D24*
X147500Y356500D03*
X142500Y356500D03*
D23*
X82500Y381500D03*
D24*
X137500Y356500D03*
X132500Y356500D03*
X127500Y356500D03*
X122500Y356500D03*
X117500Y356500D03*
X112500Y356500D03*
X107500Y356500D03*
X102500Y356500D03*
X97500Y356500D03*
X92500Y356500D03*
D23*
X247500Y381500D03*
D24*
X237500Y356500D03*
X232500Y356500D03*
D23*
X172500Y381500D03*
D24*
X227500Y356500D03*
X222500Y356500D03*
X217500Y356500D03*
X212500Y356500D03*
X207500Y356500D03*
X202500Y356500D03*
X197500Y356500D03*
X192500Y356500D03*
X187500Y356500D03*
X182500Y356500D03*
D25*
X503001Y90500D03*
X503001Y100000D03*
X503001Y109500D03*
X476999Y109500D03*
X476999Y90500D03*
D23*
X427500Y381500D03*
D24*
X417500Y356500D03*
X412500Y356500D03*
D23*
X352500Y381500D03*
D24*
X407500Y356500D03*
X402500Y356500D03*
X397500Y356500D03*
X392500Y356500D03*
X387500Y356500D03*
X382500Y356500D03*
X377500Y356500D03*
X372500Y356500D03*
X367500Y356500D03*
X362500Y356500D03*
D26*
X252380Y75700D03*
X252380Y88400D03*
X252380Y101100D03*
X252380Y113800D03*
X252380Y126500D03*
X252380Y139200D03*
X252380Y151900D03*
X252380Y164600D03*
X252380Y177300D03*
X252380Y190000D03*
X252380Y202700D03*
X252380Y215400D03*
X252380Y228100D03*
X252380Y240800D03*
D27*
X227150Y255700D03*
X214450Y255700D03*
X201750Y255700D03*
X189050Y255700D03*
X176350Y255700D03*
X163650Y255700D03*
X150950Y255700D03*
X138250Y255700D03*
X125550Y255700D03*
X112850Y255700D03*
D26*
X87620Y240800D03*
X87620Y228100D03*
X87620Y215400D03*
X87620Y202700D03*
X87620Y190000D03*
X87620Y177300D03*
X87620Y164600D03*
X87620Y151900D03*
X87620Y139200D03*
X87620Y126500D03*
X87620Y113800D03*
X87620Y101100D03*
X87620Y88400D03*
X87620Y75700D03*
D28*
X185310Y149120D03*
X166860Y130910D03*
X185160Y130910D03*
X203460Y130910D03*
X203460Y149210D03*
X166760Y148910D03*
X166860Y167510D03*
X185160Y167610D03*
X203460Y167510D03*
D11*
X30000Y81500D03*
X30000Y98500D03*
X30000Y121500D03*
X30000Y138500D03*
D23*
X337500Y381500D03*
D24*
X327500Y356500D03*
X322500Y356500D03*
D23*
X262500Y381500D03*
D24*
X317500Y356500D03*
X312500Y356500D03*
X307500Y356500D03*
X302500Y356500D03*
X297500Y356500D03*
X292500Y356500D03*
X287500Y356500D03*
X282500Y356500D03*
X277500Y356500D03*
X272500Y356500D03*
D10*
X641579Y254730D02*
X648579Y254730D01*
X648579Y247730D01*
X641579Y247730D01*
X641579Y254730D01*
X641579Y250580D02*
X648579Y250580D01*
X648579Y253430D02*
X641579Y253430D01*
X641579Y272270D02*
X648579Y272270D01*
X648579Y265270D01*
X641579Y265270D01*
X641579Y272270D01*
X641579Y268120D02*
X648579Y268120D01*
X648579Y270970D02*
X641579Y270970D01*
D11*
X665079Y268500D03*
X665079Y251500D03*
X1115079Y131500D03*
X1115079Y148500D03*
X1095079Y131500D03*
X1095079Y148500D03*
D12*
X1080079Y345200D03*
X1080079Y356800D03*
D13*
X1064579Y346000D03*
X1047579Y346000D03*
D11*
X1075079Y131500D03*
X1075079Y148500D03*
D14*
X1105079Y344000D03*
X1095079Y344000D03*
D15*
X1116579Y324500D03*
X1105579Y324500D03*
X1094579Y324500D03*
X1083579Y324500D03*
X1072579Y324500D03*
X1061579Y324500D03*
X1050579Y324500D03*
X1039579Y324500D03*
X1028579Y324500D03*
X1017579Y324500D03*
X1006579Y324500D03*
X995579Y324500D03*
X984579Y324500D03*
X973579Y324500D03*
D16*
X945579Y316000D03*
X945579Y305000D03*
X945579Y294000D03*
X945579Y283000D03*
X945579Y272000D03*
X945579Y261000D03*
X945579Y250000D03*
X945579Y239000D03*
X945579Y228000D03*
X945579Y217000D03*
X945579Y206000D03*
X945579Y195000D03*
X945579Y184000D03*
D15*
X973579Y175500D03*
X984579Y175500D03*
X995579Y175500D03*
X1006579Y175500D03*
X1017579Y175500D03*
X1028579Y175500D03*
X1039579Y175500D03*
X1050579Y175500D03*
X1061579Y175500D03*
X1072579Y175500D03*
X1083579Y175500D03*
X1094579Y175500D03*
X1105579Y175500D03*
X1116579Y175500D03*
D16*
X1144579Y184000D03*
X1144579Y195000D03*
X1144579Y206000D03*
X1144579Y217000D03*
X1144579Y228000D03*
X1144579Y239000D03*
X1144579Y250000D03*
X1144579Y261000D03*
X1144579Y272000D03*
X1144579Y283000D03*
X1144579Y294000D03*
X1144579Y305000D03*
X1144579Y316000D03*
D17*
X1055579Y239500D03*
X1076579Y239500D03*
X1097579Y239500D03*
X1118579Y239500D03*
X1055579Y219000D03*
X1076579Y219000D03*
X1097579Y219000D03*
X1118579Y219000D03*
X1055579Y198500D03*
X1076579Y198500D03*
X1097579Y198500D03*
X1118579Y198500D03*
X1055579Y301500D03*
X1076579Y301500D03*
X1097579Y301500D03*
X1118579Y301500D03*
X1055579Y281000D03*
X1076579Y281000D03*
X1097579Y281000D03*
X1118579Y281000D03*
X1055579Y260500D03*
X1076579Y260500D03*
X1097579Y260500D03*
X1118579Y260500D03*
X971579Y239500D03*
X992579Y239500D03*
X1013579Y239500D03*
X1034579Y239500D03*
X971579Y219000D03*
X992579Y219000D03*
X1013579Y219000D03*
X1034579Y219000D03*
X971579Y198500D03*
X992579Y198500D03*
X1013579Y198500D03*
X1034579Y198500D03*
X971579Y301500D03*
X992579Y301500D03*
X1013579Y301500D03*
X1034579Y301500D03*
X971579Y281000D03*
X992579Y281000D03*
X1013579Y281000D03*
X1034579Y281000D03*
X971579Y260500D03*
X992579Y260500D03*
X1013579Y260500D03*
X1034579Y260500D03*
D11*
X1025079Y148500D03*
X1025079Y131500D03*
X1045079Y131500D03*
X1045079Y148500D03*
D18*
X1161879Y222000D03*
D19*
X1161879Y214000D03*
X1161879Y206000D03*
D18*
X1161879Y198000D03*
X1174879Y198000D03*
D19*
X1174879Y206000D03*
X1174879Y214000D03*
D18*
X1174879Y222000D03*
X1161879Y292000D03*
D19*
X1161879Y284000D03*
X1161879Y276000D03*
D18*
X1161879Y268000D03*
X1174879Y268000D03*
D19*
X1174879Y276000D03*
X1174879Y284000D03*
D18*
X1174879Y292000D03*
D11*
X1155079Y148500D03*
X1155079Y131500D03*
X905079Y91500D03*
X905079Y108500D03*
X885079Y91500D03*
X885079Y108500D03*
D18*
X908879Y272000D03*
D19*
X908879Y264000D03*
X908879Y256000D03*
D18*
X908879Y248000D03*
X921879Y248000D03*
D19*
X921879Y256000D03*
X921879Y264000D03*
D18*
X921879Y272000D03*
D11*
X1125079Y91500D03*
X1125079Y108500D03*
X1065079Y108500D03*
X1065079Y91500D03*
D20*
X1118829Y370000D03*
X1091329Y370000D03*
D21*
X1105079Y354750D03*
X1105079Y385250D03*
D22*
X829529Y338000D03*
X816829Y338000D03*
X804129Y338000D03*
X791429Y338000D03*
X778729Y338000D03*
X766029Y338000D03*
X753329Y338000D03*
X740629Y338000D03*
X740629Y282000D03*
X753329Y282000D03*
X766029Y282000D03*
X778729Y282000D03*
X791429Y282000D03*
X804129Y282000D03*
X816829Y282000D03*
X829529Y282000D03*
D11*
X855179Y301500D03*
X855179Y318500D03*
D23*
X762579Y381500D03*
D24*
X752579Y356500D03*
X747579Y356500D03*
D23*
X687579Y381500D03*
D24*
X742579Y356500D03*
X737579Y356500D03*
X732579Y356500D03*
X727579Y356500D03*
X722579Y356500D03*
X717579Y356500D03*
X712579Y356500D03*
X707579Y356500D03*
X702579Y356500D03*
X697579Y356500D03*
D23*
X852579Y381500D03*
D24*
X842579Y356500D03*
X837579Y356500D03*
D23*
X777579Y381500D03*
D24*
X832579Y356500D03*
X827579Y356500D03*
X822579Y356500D03*
X817579Y356500D03*
X812579Y356500D03*
X807579Y356500D03*
X802579Y356500D03*
X797579Y356500D03*
X792579Y356500D03*
X787579Y356500D03*
D25*
X1108080Y90500D03*
X1108080Y100000D03*
X1108080Y109500D03*
X1082078Y109500D03*
X1082078Y90500D03*
D23*
X1032579Y381500D03*
D24*
X1022579Y356500D03*
X1017579Y356500D03*
D23*
X957579Y381500D03*
D24*
X1012579Y356500D03*
X1007579Y356500D03*
X1002579Y356500D03*
X997579Y356500D03*
X992579Y356500D03*
X987579Y356500D03*
X982579Y356500D03*
X977579Y356500D03*
X972579Y356500D03*
X967579Y356500D03*
D26*
X857459Y75700D03*
X857459Y88400D03*
X857459Y101100D03*
X857459Y113800D03*
X857459Y126500D03*
X857459Y139200D03*
X857459Y151900D03*
X857459Y164600D03*
X857459Y177300D03*
X857459Y190000D03*
X857459Y202700D03*
X857459Y215400D03*
X857459Y228100D03*
X857459Y240800D03*
D27*
X832229Y255700D03*
X819529Y255700D03*
X806829Y255700D03*
X794129Y255700D03*
X781429Y255700D03*
X768729Y255700D03*
X756029Y255700D03*
X743329Y255700D03*
X730629Y255700D03*
X717929Y255700D03*
D26*
X692699Y240800D03*
X692699Y228100D03*
X692699Y215400D03*
X692699Y202700D03*
X692699Y190000D03*
X692699Y177300D03*
X692699Y164600D03*
X692699Y151900D03*
X692699Y139200D03*
X692699Y126500D03*
X692699Y113800D03*
X692699Y101100D03*
X692699Y88400D03*
X692699Y75700D03*
D28*
X790389Y149120D03*
X771939Y130910D03*
X790239Y130910D03*
X808539Y130910D03*
X808539Y149210D03*
X771839Y148910D03*
X771939Y167510D03*
X790239Y167610D03*
X808539Y167510D03*
D11*
X635079Y81500D03*
X635079Y98500D03*
X635079Y121500D03*
X635079Y138500D03*
D23*
X942579Y381500D03*
D24*
X932579Y356500D03*
X927579Y356500D03*
D23*
X867579Y381500D03*
D24*
X922579Y356500D03*
X917579Y356500D03*
X912579Y356500D03*
X907579Y356500D03*
X902579Y356500D03*
X897579Y356500D03*
X892579Y356500D03*
X887579Y356500D03*
X882579Y356500D03*
X877579Y356500D03*
D10*
X43500Y689807D02*
X36500Y689807D01*
X43500Y689807D02*
X43500Y682807D01*
X36500Y682807D01*
X36500Y689807D01*
X36500Y685657D02*
X43500Y685657D01*
X43500Y688507D02*
X36500Y688507D01*
X36500Y707347D02*
X43500Y707347D01*
X43500Y700347D01*
X36500Y700347D01*
X36500Y707347D01*
X36500Y703197D02*
X43500Y703197D01*
X43500Y706047D02*
X36500Y706047D01*
D11*
X60000Y703577D03*
X60000Y686577D03*
X510000Y566577D03*
X510000Y583577D03*
X490000Y566577D03*
X490000Y583577D03*
D12*
X475000Y780277D03*
X475000Y791877D03*
D13*
X459500Y781077D03*
X442500Y781077D03*
D11*
X470000Y566577D03*
X470000Y583577D03*
D14*
X500000Y779077D03*
X490000Y779077D03*
D15*
X511500Y759577D03*
X500500Y759577D03*
X489500Y759577D03*
X478500Y759577D03*
X467500Y759577D03*
X456500Y759577D03*
X445500Y759577D03*
X434500Y759577D03*
X423500Y759577D03*
X412500Y759577D03*
X401500Y759577D03*
X390500Y759577D03*
X379500Y759577D03*
X368500Y759577D03*
D16*
X340500Y751077D03*
X340500Y740077D03*
X340500Y729077D03*
X340500Y718077D03*
X340500Y707077D03*
X340500Y696077D03*
X340500Y685077D03*
X340500Y674077D03*
X340500Y663077D03*
X340500Y652077D03*
X340500Y641077D03*
X340500Y630077D03*
X340500Y619077D03*
D15*
X368500Y610577D03*
X379500Y610577D03*
X390500Y610577D03*
X401500Y610577D03*
X412500Y610577D03*
X423500Y610577D03*
X434500Y610577D03*
X445500Y610577D03*
X456500Y610577D03*
X467500Y610577D03*
X478500Y610577D03*
X489500Y610577D03*
X500500Y610577D03*
X511500Y610577D03*
D16*
X539500Y619077D03*
X539500Y630077D03*
X539500Y641077D03*
X539500Y652077D03*
X539500Y663077D03*
X539500Y674077D03*
X539500Y685077D03*
X539500Y696077D03*
X539500Y707077D03*
X539500Y718077D03*
X539500Y729077D03*
X539500Y740077D03*
X539500Y751077D03*
D17*
X450500Y674577D03*
X471500Y674577D03*
X492500Y674577D03*
X513500Y674577D03*
X450500Y654077D03*
X471500Y654077D03*
X492500Y654077D03*
X513500Y654077D03*
X450500Y633577D03*
X471500Y633577D03*
X492500Y633577D03*
X513500Y633577D03*
X450500Y736577D03*
X471500Y736577D03*
X492500Y736577D03*
X513500Y736577D03*
X450500Y716077D03*
X471500Y716077D03*
X492500Y716077D03*
X513500Y716077D03*
X450500Y695577D03*
X471500Y695577D03*
X492500Y695577D03*
X513500Y695577D03*
X366500Y674577D03*
X387500Y674577D03*
X408500Y674577D03*
X429500Y674577D03*
X366500Y654077D03*
X387500Y654077D03*
X408500Y654077D03*
X429500Y654077D03*
X366500Y633577D03*
X387500Y633577D03*
X408500Y633577D03*
X429500Y633577D03*
X366500Y736577D03*
X387500Y736577D03*
X408500Y736577D03*
X429500Y736577D03*
X366500Y716077D03*
X387500Y716077D03*
X408500Y716077D03*
X429500Y716077D03*
X366500Y695577D03*
X387500Y695577D03*
X408500Y695577D03*
X429500Y695577D03*
D11*
X420000Y583577D03*
X420000Y566577D03*
X440000Y566577D03*
X440000Y583577D03*
D18*
X556800Y657077D03*
D19*
X556800Y649077D03*
X556800Y641077D03*
D18*
X556800Y633077D03*
X569800Y633077D03*
D19*
X569800Y641077D03*
X569800Y649077D03*
D18*
X569800Y657077D03*
X556800Y727077D03*
D19*
X556800Y719077D03*
X556800Y711077D03*
D18*
X556800Y703077D03*
X569800Y703077D03*
D19*
X569800Y711077D03*
X569800Y719077D03*
D18*
X569800Y727077D03*
D11*
X550000Y583577D03*
X550000Y566577D03*
X300000Y526577D03*
X300000Y543577D03*
X280000Y526577D03*
X280000Y543577D03*
D18*
X303800Y707077D03*
D19*
X303800Y699077D03*
X303800Y691077D03*
D18*
X303800Y683077D03*
X316800Y683077D03*
D19*
X316800Y691077D03*
X316800Y699077D03*
D18*
X316800Y707077D03*
D11*
X520000Y526577D03*
X520000Y543577D03*
X460000Y543577D03*
X460000Y526577D03*
D20*
X513750Y805077D03*
X486250Y805077D03*
D21*
X500000Y789827D03*
X500000Y820327D03*
D22*
X224450Y773077D03*
X211750Y773077D03*
X199050Y773077D03*
X186350Y773077D03*
X173650Y773077D03*
X160950Y773077D03*
X148250Y773077D03*
X135550Y773077D03*
X135550Y717077D03*
X148250Y717077D03*
X160950Y717077D03*
X173650Y717077D03*
X186350Y717077D03*
X199050Y717077D03*
X211750Y717077D03*
X224450Y717077D03*
D11*
X250100Y736577D03*
X250100Y753577D03*
D23*
X157500Y816577D03*
D24*
X147500Y791577D03*
X142500Y791577D03*
D23*
X82500Y816577D03*
D24*
X137500Y791577D03*
X132500Y791577D03*
X127500Y791577D03*
X122500Y791577D03*
X117500Y791577D03*
X112500Y791577D03*
X107500Y791577D03*
X102500Y791577D03*
X97500Y791577D03*
X92500Y791577D03*
D23*
X247500Y816577D03*
D24*
X237500Y791577D03*
X232500Y791577D03*
D23*
X172500Y816577D03*
D24*
X227500Y791577D03*
X222500Y791577D03*
X217500Y791577D03*
X212500Y791577D03*
X207500Y791577D03*
X202500Y791577D03*
X197500Y791577D03*
X192500Y791577D03*
X187500Y791577D03*
X182500Y791577D03*
D25*
X503001Y525577D03*
X503001Y535077D03*
X503001Y544577D03*
X476999Y544577D03*
X476999Y525577D03*
D23*
X427500Y816577D03*
D24*
X417500Y791577D03*
X412500Y791577D03*
D23*
X352500Y816577D03*
D24*
X407500Y791577D03*
X402500Y791577D03*
X397500Y791577D03*
X392500Y791577D03*
X387500Y791577D03*
X382500Y791577D03*
X377500Y791577D03*
X372500Y791577D03*
X367500Y791577D03*
X362500Y791577D03*
D26*
X252380Y510777D03*
X252380Y523477D03*
X252380Y536177D03*
X252380Y548877D03*
X252380Y561577D03*
X252380Y574277D03*
X252380Y586977D03*
X252380Y599677D03*
X252380Y612377D03*
X252380Y625077D03*
X252380Y637777D03*
X252380Y650477D03*
X252380Y663177D03*
X252380Y675877D03*
D27*
X227150Y690777D03*
X214450Y690777D03*
X201750Y690777D03*
X189050Y690777D03*
X176350Y690777D03*
X163650Y690777D03*
X150950Y690777D03*
X138250Y690777D03*
X125550Y690777D03*
X112850Y690777D03*
D26*
X87620Y675877D03*
X87620Y663177D03*
X87620Y650477D03*
X87620Y637777D03*
X87620Y625077D03*
X87620Y612377D03*
X87620Y599677D03*
X87620Y586977D03*
X87620Y574277D03*
X87620Y561577D03*
X87620Y548877D03*
X87620Y536177D03*
X87620Y523477D03*
X87620Y510777D03*
D28*
X185310Y584197D03*
X166860Y565987D03*
X185160Y565987D03*
X203460Y565987D03*
X203460Y584287D03*
X166760Y583987D03*
X166860Y602587D03*
X185160Y602687D03*
X203460Y602587D03*
D11*
X30000Y516577D03*
X30000Y533577D03*
X30000Y556577D03*
X30000Y573577D03*
D23*
X337500Y816577D03*
D24*
X327500Y791577D03*
X322500Y791577D03*
D23*
X262500Y816577D03*
D24*
X317500Y791577D03*
X312500Y791577D03*
X307500Y791577D03*
X302500Y791577D03*
X297500Y791577D03*
X292500Y791577D03*
X287500Y791577D03*
X282500Y791577D03*
X277500Y791577D03*
X272500Y791577D03*
D10*
X641579Y689807D02*
X648579Y689807D01*
X648579Y682807D01*
X641579Y682807D01*
X641579Y689807D01*
X641579Y685657D02*
X648579Y685657D01*
X648579Y688507D02*
X641579Y688507D01*
X641579Y707347D02*
X648579Y707347D01*
X648579Y700347D01*
X641579Y700347D01*
X641579Y707347D01*
X641579Y703197D02*
X648579Y703197D01*
X648579Y706047D02*
X641579Y706047D01*
D11*
X665079Y703577D03*
X665079Y686577D03*
X1115079Y566577D03*
X1115079Y583577D03*
X1095079Y566577D03*
X1095079Y583577D03*
D12*
X1080079Y780277D03*
X1080079Y791877D03*
D13*
X1064579Y781077D03*
X1047579Y781077D03*
D11*
X1075079Y566577D03*
X1075079Y583577D03*
D14*
X1105079Y779077D03*
X1095079Y779077D03*
D15*
X1116579Y759577D03*
X1105579Y759577D03*
X1094579Y759577D03*
X1083579Y759577D03*
X1072579Y759577D03*
X1061579Y759577D03*
X1050579Y759577D03*
X1039579Y759577D03*
X1028579Y759577D03*
X1017579Y759577D03*
X1006579Y759577D03*
X995579Y759577D03*
X984579Y759577D03*
X973579Y759577D03*
D16*
X945579Y751077D03*
X945579Y740077D03*
X945579Y729077D03*
X945579Y718077D03*
X945579Y707077D03*
X945579Y696077D03*
X945579Y685077D03*
X945579Y674077D03*
X945579Y663077D03*
X945579Y652077D03*
X945579Y641077D03*
X945579Y630077D03*
X945579Y619077D03*
D15*
X973579Y610577D03*
X984579Y610577D03*
X995579Y610577D03*
X1006579Y610577D03*
X1017579Y610577D03*
X1028579Y610577D03*
X1039579Y610577D03*
X1050579Y610577D03*
X1061579Y610577D03*
X1072579Y610577D03*
X1083579Y610577D03*
X1094579Y610577D03*
X1105579Y610577D03*
X1116579Y610577D03*
D16*
X1144579Y619077D03*
X1144579Y630077D03*
X1144579Y641077D03*
X1144579Y652077D03*
X1144579Y663077D03*
X1144579Y674077D03*
X1144579Y685077D03*
X1144579Y696077D03*
X1144579Y707077D03*
X1144579Y718077D03*
X1144579Y729077D03*
X1144579Y740077D03*
X1144579Y751077D03*
D17*
X1055579Y674577D03*
X1076579Y674577D03*
X1097579Y674577D03*
X1118579Y674577D03*
X1055579Y654077D03*
X1076579Y654077D03*
X1097579Y654077D03*
X1118579Y654077D03*
X1055579Y633577D03*
X1076579Y633577D03*
X1097579Y633577D03*
X1118579Y633577D03*
X1055579Y736577D03*
X1076579Y736577D03*
X1097579Y736577D03*
X1118579Y736577D03*
X1055579Y716077D03*
X1076579Y716077D03*
X1097579Y716077D03*
X1118579Y716077D03*
X1055579Y695577D03*
X1076579Y695577D03*
X1097579Y695577D03*
X1118579Y695577D03*
X971579Y674577D03*
X992579Y674577D03*
X1013579Y674577D03*
X1034579Y674577D03*
X971579Y654077D03*
X992579Y654077D03*
X1013579Y654077D03*
X1034579Y654077D03*
X971579Y633577D03*
X992579Y633577D03*
X1013579Y633577D03*
X1034579Y633577D03*
X971579Y736577D03*
X992579Y736577D03*
X1013579Y736577D03*
X1034579Y736577D03*
X971579Y716077D03*
X992579Y716077D03*
X1013579Y716077D03*
X1034579Y716077D03*
X971579Y695577D03*
X992579Y695577D03*
X1013579Y695577D03*
X1034579Y695577D03*
D11*
X1025079Y583577D03*
X1025079Y566577D03*
X1045079Y566577D03*
X1045079Y583577D03*
D18*
X1161879Y657077D03*
D19*
X1161879Y649077D03*
X1161879Y641077D03*
D18*
X1161879Y633077D03*
X1174879Y633077D03*
D19*
X1174879Y641077D03*
X1174879Y649077D03*
D18*
X1174879Y657077D03*
X1161879Y727077D03*
D19*
X1161879Y719077D03*
X1161879Y711077D03*
D18*
X1161879Y703077D03*
X1174879Y703077D03*
D19*
X1174879Y711077D03*
X1174879Y719077D03*
D18*
X1174879Y727077D03*
D11*
X1155079Y583577D03*
X1155079Y566577D03*
X905079Y526577D03*
X905079Y543577D03*
X885079Y526577D03*
X885079Y543577D03*
D18*
X908879Y707077D03*
D19*
X908879Y699077D03*
X908879Y691077D03*
D18*
X908879Y683077D03*
X921879Y683077D03*
D19*
X921879Y691077D03*
X921879Y699077D03*
D18*
X921879Y707077D03*
D11*
X1125079Y526577D03*
X1125079Y543577D03*
X1065079Y543577D03*
X1065079Y526577D03*
D20*
X1118829Y805077D03*
X1091329Y805077D03*
D21*
X1105079Y789827D03*
X1105079Y820327D03*
D22*
X829529Y773077D03*
X816829Y773077D03*
X804129Y773077D03*
X791429Y773077D03*
X778729Y773077D03*
X766029Y773077D03*
X753329Y773077D03*
X740629Y773077D03*
X740629Y717077D03*
X753329Y717077D03*
X766029Y717077D03*
X778729Y717077D03*
X791429Y717077D03*
X804129Y717077D03*
X816829Y717077D03*
X829529Y717077D03*
D11*
X855179Y736577D03*
X855179Y753577D03*
D23*
X762579Y816577D03*
D24*
X752579Y791577D03*
X747579Y791577D03*
D23*
X687579Y816577D03*
D24*
X742579Y791577D03*
X737579Y791577D03*
X732579Y791577D03*
X727579Y791577D03*
X722579Y791577D03*
X717579Y791577D03*
X712579Y791577D03*
X707579Y791577D03*
X702579Y791577D03*
X697579Y791577D03*
D23*
X852579Y816577D03*
D24*
X842579Y791577D03*
X837579Y791577D03*
D23*
X777579Y816577D03*
D24*
X832579Y791577D03*
X827579Y791577D03*
X822579Y791577D03*
X817579Y791577D03*
X812579Y791577D03*
X807579Y791577D03*
X802579Y791577D03*
X797579Y791577D03*
X792579Y791577D03*
X787579Y791577D03*
D25*
X1108080Y525577D03*
X1108080Y535077D03*
X1108080Y544577D03*
X1082078Y544577D03*
X1082078Y525577D03*
D23*
X1032579Y816577D03*
D24*
X1022579Y791577D03*
X1017579Y791577D03*
D23*
X957579Y816577D03*
D24*
X1012579Y791577D03*
X1007579Y791577D03*
X1002579Y791577D03*
X997579Y791577D03*
X992579Y791577D03*
X987579Y791577D03*
X982579Y791577D03*
X977579Y791577D03*
X972579Y791577D03*
X967579Y791577D03*
D26*
X857459Y510777D03*
X857459Y523477D03*
X857459Y536177D03*
X857459Y548877D03*
X857459Y561577D03*
X857459Y574277D03*
X857459Y586977D03*
X857459Y599677D03*
X857459Y612377D03*
X857459Y625077D03*
X857459Y637777D03*
X857459Y650477D03*
X857459Y663177D03*
X857459Y675877D03*
D27*
X832229Y690777D03*
X819529Y690777D03*
X806829Y690777D03*
X794129Y690777D03*
X781429Y690777D03*
X768729Y690777D03*
X756029Y690777D03*
X743329Y690777D03*
X730629Y690777D03*
X717929Y690777D03*
D26*
X692699Y675877D03*
X692699Y663177D03*
X692699Y650477D03*
X692699Y637777D03*
X692699Y625077D03*
X692699Y612377D03*
X692699Y599677D03*
X692699Y586977D03*
X692699Y574277D03*
X692699Y561577D03*
X692699Y548877D03*
X692699Y536177D03*
X692699Y523477D03*
X692699Y510777D03*
D28*
X790389Y584197D03*
X771939Y565987D03*
X790239Y565987D03*
X808539Y565987D03*
X808539Y584287D03*
X771839Y583987D03*
X771939Y602587D03*
X790239Y602687D03*
X808539Y602587D03*
D11*
X635079Y516577D03*
X635079Y533577D03*
X635079Y556577D03*
X635079Y573577D03*
D23*
X942579Y816577D03*
D24*
X932579Y791577D03*
X927579Y791577D03*
D23*
X867579Y816577D03*
D24*
X922579Y791577D03*
X917579Y791577D03*
X912579Y791577D03*
X907579Y791577D03*
X902579Y791577D03*
X897579Y791577D03*
X892579Y791577D03*
X887579Y791577D03*
X882579Y791577D03*
X877579Y791577D03*
D10*
X43500Y1124883D02*
X36500Y1124883D01*
X43500Y1124883D02*
X43500Y1117883D01*
X36500Y1117883D01*
X36500Y1124883D01*
X36500Y1120733D02*
X43500Y1120733D01*
X43500Y1123583D02*
X36500Y1123583D01*
X36500Y1142423D02*
X43500Y1142423D01*
X43500Y1135423D01*
X36500Y1135423D01*
X36500Y1142423D01*
X36500Y1138273D02*
X43500Y1138273D01*
X43500Y1141123D02*
X36500Y1141123D01*
D11*
X60000Y1138653D03*
X60000Y1121653D03*
X510000Y1001653D03*
X510000Y1018653D03*
X490000Y1001653D03*
X490000Y1018653D03*
D12*
X475000Y1215353D03*
X475000Y1226953D03*
D13*
X459500Y1216153D03*
X442500Y1216153D03*
D11*
X470000Y1001653D03*
X470000Y1018653D03*
D14*
X500000Y1214153D03*
X490000Y1214153D03*
D15*
X511500Y1194653D03*
X500500Y1194653D03*
X489500Y1194653D03*
X478500Y1194653D03*
X467500Y1194653D03*
X456500Y1194653D03*
X445500Y1194653D03*
X434500Y1194653D03*
X423500Y1194653D03*
X412500Y1194653D03*
X401500Y1194653D03*
X390500Y1194653D03*
X379500Y1194653D03*
X368500Y1194653D03*
D16*
X340500Y1186153D03*
X340500Y1175153D03*
X340500Y1164153D03*
X340500Y1153153D03*
X340500Y1142153D03*
X340500Y1131153D03*
X340500Y1120153D03*
X340500Y1109153D03*
X340500Y1098153D03*
X340500Y1087153D03*
X340500Y1076153D03*
X340500Y1065153D03*
X340500Y1054153D03*
D15*
X368500Y1045653D03*
X379500Y1045653D03*
X390500Y1045653D03*
X401500Y1045653D03*
X412500Y1045653D03*
X423500Y1045653D03*
X434500Y1045653D03*
X445500Y1045653D03*
X456500Y1045653D03*
X467500Y1045653D03*
X478500Y1045653D03*
X489500Y1045653D03*
X500500Y1045653D03*
X511500Y1045653D03*
D16*
X539500Y1054153D03*
X539500Y1065153D03*
X539500Y1076153D03*
X539500Y1087153D03*
X539500Y1098153D03*
X539500Y1109153D03*
X539500Y1120153D03*
X539500Y1131153D03*
X539500Y1142153D03*
X539500Y1153153D03*
X539500Y1164153D03*
X539500Y1175153D03*
X539500Y1186153D03*
D17*
X450500Y1109653D03*
X471500Y1109653D03*
X492500Y1109653D03*
X513500Y1109653D03*
X450500Y1089153D03*
X471500Y1089153D03*
X492500Y1089153D03*
X513500Y1089153D03*
X450500Y1068653D03*
X471500Y1068653D03*
X492500Y1068653D03*
X513500Y1068653D03*
X450500Y1171653D03*
X471500Y1171653D03*
X492500Y1171653D03*
X513500Y1171653D03*
X450500Y1151153D03*
X471500Y1151153D03*
X492500Y1151153D03*
X513500Y1151153D03*
X450500Y1130653D03*
X471500Y1130653D03*
X492500Y1130653D03*
X513500Y1130653D03*
X366500Y1109653D03*
X387500Y1109653D03*
X408500Y1109653D03*
X429500Y1109653D03*
X366500Y1089153D03*
X387500Y1089153D03*
X408500Y1089153D03*
X429500Y1089153D03*
X366500Y1068653D03*
X387500Y1068653D03*
X408500Y1068653D03*
X429500Y1068653D03*
X366500Y1171653D03*
X387500Y1171653D03*
X408500Y1171653D03*
X429500Y1171653D03*
X366500Y1151153D03*
X387500Y1151153D03*
X408500Y1151153D03*
X429500Y1151153D03*
X366500Y1130653D03*
X387500Y1130653D03*
X408500Y1130653D03*
X429500Y1130653D03*
D11*
X420000Y1018653D03*
X420000Y1001653D03*
X440000Y1001653D03*
X440000Y1018653D03*
D18*
X556800Y1092153D03*
D19*
X556800Y1084153D03*
X556800Y1076153D03*
D18*
X556800Y1068153D03*
X569800Y1068153D03*
D19*
X569800Y1076153D03*
X569800Y1084153D03*
D18*
X569800Y1092153D03*
X556800Y1162153D03*
D19*
X556800Y1154153D03*
X556800Y1146153D03*
D18*
X556800Y1138153D03*
X569800Y1138153D03*
D19*
X569800Y1146153D03*
X569800Y1154153D03*
D18*
X569800Y1162153D03*
D11*
X550000Y1018653D03*
X550000Y1001653D03*
X300000Y961653D03*
X300000Y978653D03*
X280000Y961653D03*
X280000Y978653D03*
D18*
X303800Y1142153D03*
D19*
X303800Y1134153D03*
X303800Y1126153D03*
D18*
X303800Y1118153D03*
X316800Y1118153D03*
D19*
X316800Y1126153D03*
X316800Y1134153D03*
D18*
X316800Y1142153D03*
D11*
X520000Y961653D03*
X520000Y978653D03*
X460000Y978653D03*
X460000Y961653D03*
D20*
X513750Y1240153D03*
X486250Y1240153D03*
D21*
X500000Y1224903D03*
X500000Y1255403D03*
D22*
X224450Y1208153D03*
X211750Y1208153D03*
X199050Y1208153D03*
X186350Y1208153D03*
X173650Y1208153D03*
X160950Y1208153D03*
X148250Y1208153D03*
X135550Y1208153D03*
X135550Y1152153D03*
X148250Y1152153D03*
X160950Y1152153D03*
X173650Y1152153D03*
X186350Y1152153D03*
X199050Y1152153D03*
X211750Y1152153D03*
X224450Y1152153D03*
D11*
X250100Y1171653D03*
X250100Y1188653D03*
D23*
X157500Y1251653D03*
D24*
X147500Y1226653D03*
X142500Y1226653D03*
D23*
X82500Y1251653D03*
D24*
X137500Y1226653D03*
X132500Y1226653D03*
X127500Y1226653D03*
X122500Y1226653D03*
X117500Y1226653D03*
X112500Y1226653D03*
X107500Y1226653D03*
X102500Y1226653D03*
X97500Y1226653D03*
X92500Y1226653D03*
D23*
X247500Y1251653D03*
D24*
X237500Y1226653D03*
X232500Y1226653D03*
D23*
X172500Y1251653D03*
D24*
X227500Y1226653D03*
X222500Y1226653D03*
X217500Y1226653D03*
X212500Y1226653D03*
X207500Y1226653D03*
X202500Y1226653D03*
X197500Y1226653D03*
X192500Y1226653D03*
X187500Y1226653D03*
X182500Y1226653D03*
D25*
X503001Y960653D03*
X503001Y970153D03*
X503001Y979653D03*
X476999Y979653D03*
X476999Y960653D03*
D23*
X427500Y1251653D03*
D24*
X417500Y1226653D03*
X412500Y1226653D03*
D23*
X352500Y1251653D03*
D24*
X407500Y1226653D03*
X402500Y1226653D03*
X397500Y1226653D03*
X392500Y1226653D03*
X387500Y1226653D03*
X382500Y1226653D03*
X377500Y1226653D03*
X372500Y1226653D03*
X367500Y1226653D03*
X362500Y1226653D03*
D26*
X252380Y945853D03*
X252380Y958553D03*
X252380Y971253D03*
X252380Y983953D03*
X252380Y996653D03*
X252380Y1009353D03*
X252380Y1022053D03*
X252380Y1034753D03*
X252380Y1047453D03*
X252380Y1060153D03*
X252380Y1072853D03*
X252380Y1085553D03*
X252380Y1098253D03*
X252380Y1110953D03*
D27*
X227150Y1125853D03*
X214450Y1125853D03*
X201750Y1125853D03*
X189050Y1125853D03*
X176350Y1125853D03*
X163650Y1125853D03*
X150950Y1125853D03*
X138250Y1125853D03*
X125550Y1125853D03*
X112850Y1125853D03*
D26*
X87620Y1110953D03*
X87620Y1098253D03*
X87620Y1085553D03*
X87620Y1072853D03*
X87620Y1060153D03*
X87620Y1047453D03*
X87620Y1034753D03*
X87620Y1022053D03*
X87620Y1009353D03*
X87620Y996653D03*
X87620Y983953D03*
X87620Y971253D03*
X87620Y958553D03*
X87620Y945853D03*
D28*
X185310Y1019273D03*
X166860Y1001063D03*
X185160Y1001063D03*
X203460Y1001063D03*
X203460Y1019363D03*
X166760Y1019063D03*
X166860Y1037663D03*
X185160Y1037763D03*
X203460Y1037663D03*
D11*
X30000Y951653D03*
X30000Y968653D03*
X30000Y991653D03*
X30000Y1008653D03*
D23*
X337500Y1251653D03*
D24*
X327500Y1226653D03*
X322500Y1226653D03*
D23*
X262500Y1251653D03*
D24*
X317500Y1226653D03*
X312500Y1226653D03*
X307500Y1226653D03*
X302500Y1226653D03*
X297500Y1226653D03*
X292500Y1226653D03*
X287500Y1226653D03*
X282500Y1226653D03*
X277500Y1226653D03*
X272500Y1226653D03*
D10*
X641579Y1124883D02*
X648579Y1124883D01*
X648579Y1117883D01*
X641579Y1117883D01*
X641579Y1124883D01*
X641579Y1120733D02*
X648579Y1120733D01*
X648579Y1123583D02*
X641579Y1123583D01*
X641579Y1142423D02*
X648579Y1142423D01*
X648579Y1135423D01*
X641579Y1135423D01*
X641579Y1142423D01*
X641579Y1138273D02*
X648579Y1138273D01*
X648579Y1141123D02*
X641579Y1141123D01*
D11*
X665079Y1138653D03*
X665079Y1121653D03*
X1115079Y1001653D03*
X1115079Y1018653D03*
X1095079Y1001653D03*
X1095079Y1018653D03*
D12*
X1080079Y1215353D03*
X1080079Y1226953D03*
D13*
X1064579Y1216153D03*
X1047579Y1216153D03*
D11*
X1075079Y1001653D03*
X1075079Y1018653D03*
D14*
X1105079Y1214153D03*
X1095079Y1214153D03*
D15*
X1116579Y1194653D03*
X1105579Y1194653D03*
X1094579Y1194653D03*
X1083579Y1194653D03*
X1072579Y1194653D03*
X1061579Y1194653D03*
X1050579Y1194653D03*
X1039579Y1194653D03*
X1028579Y1194653D03*
X1017579Y1194653D03*
X1006579Y1194653D03*
X995579Y1194653D03*
X984579Y1194653D03*
X973579Y1194653D03*
D16*
X945579Y1186153D03*
X945579Y1175153D03*
X945579Y1164153D03*
X945579Y1153153D03*
X945579Y1142153D03*
X945579Y1131153D03*
X945579Y1120153D03*
X945579Y1109153D03*
X945579Y1098153D03*
X945579Y1087153D03*
X945579Y1076153D03*
X945579Y1065153D03*
X945579Y1054153D03*
D15*
X973579Y1045653D03*
X984579Y1045653D03*
X995579Y1045653D03*
X1006579Y1045653D03*
X1017579Y1045653D03*
X1028579Y1045653D03*
X1039579Y1045653D03*
X1050579Y1045653D03*
X1061579Y1045653D03*
X1072579Y1045653D03*
X1083579Y1045653D03*
X1094579Y1045653D03*
X1105579Y1045653D03*
X1116579Y1045653D03*
D16*
X1144579Y1054153D03*
X1144579Y1065153D03*
X1144579Y1076153D03*
X1144579Y1087153D03*
X1144579Y1098153D03*
X1144579Y1109153D03*
X1144579Y1120153D03*
X1144579Y1131153D03*
X1144579Y1142153D03*
X1144579Y1153153D03*
X1144579Y1164153D03*
X1144579Y1175153D03*
X1144579Y1186153D03*
D17*
X1055579Y1109653D03*
X1076579Y1109653D03*
X1097579Y1109653D03*
X1118579Y1109653D03*
X1055579Y1089153D03*
X1076579Y1089153D03*
X1097579Y1089153D03*
X1118579Y1089153D03*
X1055579Y1068653D03*
X1076579Y1068653D03*
X1097579Y1068653D03*
X1118579Y1068653D03*
X1055579Y1171653D03*
X1076579Y1171653D03*
X1097579Y1171653D03*
X1118579Y1171653D03*
X1055579Y1151153D03*
X1076579Y1151153D03*
X1097579Y1151153D03*
X1118579Y1151153D03*
X1055579Y1130653D03*
X1076579Y1130653D03*
X1097579Y1130653D03*
X1118579Y1130653D03*
X971579Y1109653D03*
X992579Y1109653D03*
X1013579Y1109653D03*
X1034579Y1109653D03*
X971579Y1089153D03*
X992579Y1089153D03*
X1013579Y1089153D03*
X1034579Y1089153D03*
X971579Y1068653D03*
X992579Y1068653D03*
X1013579Y1068653D03*
X1034579Y1068653D03*
X971579Y1171653D03*
X992579Y1171653D03*
X1013579Y1171653D03*
X1034579Y1171653D03*
X971579Y1151153D03*
X992579Y1151153D03*
X1013579Y1151153D03*
X1034579Y1151153D03*
X971579Y1130653D03*
X992579Y1130653D03*
X1013579Y1130653D03*
X1034579Y1130653D03*
D11*
X1025079Y1018653D03*
X1025079Y1001653D03*
X1045079Y1001653D03*
X1045079Y1018653D03*
D18*
X1161879Y1092153D03*
D19*
X1161879Y1084153D03*
X1161879Y1076153D03*
D18*
X1161879Y1068153D03*
X1174879Y1068153D03*
D19*
X1174879Y1076153D03*
X1174879Y1084153D03*
D18*
X1174879Y1092153D03*
X1161879Y1162153D03*
D19*
X1161879Y1154153D03*
X1161879Y1146153D03*
D18*
X1161879Y1138153D03*
X1174879Y1138153D03*
D19*
X1174879Y1146153D03*
X1174879Y1154153D03*
D18*
X1174879Y1162153D03*
D11*
X1155079Y1018653D03*
X1155079Y1001653D03*
X905079Y961653D03*
X905079Y978653D03*
X885079Y961653D03*
X885079Y978653D03*
D18*
X908879Y1142153D03*
D19*
X908879Y1134153D03*
X908879Y1126153D03*
D18*
X908879Y1118153D03*
X921879Y1118153D03*
D19*
X921879Y1126153D03*
X921879Y1134153D03*
D18*
X921879Y1142153D03*
D11*
X1125079Y961653D03*
X1125079Y978653D03*
X1065079Y978653D03*
X1065079Y961653D03*
D20*
X1118829Y1240153D03*
X1091329Y1240153D03*
D21*
X1105079Y1224903D03*
X1105079Y1255403D03*
D22*
X829529Y1208153D03*
X816829Y1208153D03*
X804129Y1208153D03*
X791429Y1208153D03*
X778729Y1208153D03*
X766029Y1208153D03*
X753329Y1208153D03*
X740629Y1208153D03*
X740629Y1152153D03*
X753329Y1152153D03*
X766029Y1152153D03*
X778729Y1152153D03*
X791429Y1152153D03*
X804129Y1152153D03*
X816829Y1152153D03*
X829529Y1152153D03*
D11*
X855179Y1171653D03*
X855179Y1188653D03*
D23*
X762579Y1251653D03*
D24*
X752579Y1226653D03*
X747579Y1226653D03*
D23*
X687579Y1251653D03*
D24*
X742579Y1226653D03*
X737579Y1226653D03*
X732579Y1226653D03*
X727579Y1226653D03*
X722579Y1226653D03*
X717579Y1226653D03*
X712579Y1226653D03*
X707579Y1226653D03*
X702579Y1226653D03*
X697579Y1226653D03*
D23*
X852579Y1251653D03*
D24*
X842579Y1226653D03*
X837579Y1226653D03*
D23*
X777579Y1251653D03*
D24*
X832579Y1226653D03*
X827579Y1226653D03*
X822579Y1226653D03*
X817579Y1226653D03*
X812579Y1226653D03*
X807579Y1226653D03*
X802579Y1226653D03*
X797579Y1226653D03*
X792579Y1226653D03*
X787579Y1226653D03*
D25*
X1108080Y960653D03*
X1108080Y970153D03*
X1108080Y979653D03*
X1082078Y979653D03*
X1082078Y960653D03*
D23*
X1032579Y1251653D03*
D24*
X1022579Y1226653D03*
X1017579Y1226653D03*
D23*
X957579Y1251653D03*
D24*
X1012579Y1226653D03*
X1007579Y1226653D03*
X1002579Y1226653D03*
X997579Y1226653D03*
X992579Y1226653D03*
X987579Y1226653D03*
X982579Y1226653D03*
X977579Y1226653D03*
X972579Y1226653D03*
X967579Y1226653D03*
D26*
X857459Y945853D03*
X857459Y958553D03*
X857459Y971253D03*
X857459Y983953D03*
X857459Y996653D03*
X857459Y1009353D03*
X857459Y1022053D03*
X857459Y1034753D03*
X857459Y1047453D03*
X857459Y1060153D03*
X857459Y1072853D03*
X857459Y1085553D03*
X857459Y1098253D03*
X857459Y1110953D03*
D27*
X832229Y1125853D03*
X819529Y1125853D03*
X806829Y1125853D03*
X794129Y1125853D03*
X781429Y1125853D03*
X768729Y1125853D03*
X756029Y1125853D03*
X743329Y1125853D03*
X730629Y1125853D03*
X717929Y1125853D03*
D26*
X692699Y1110953D03*
X692699Y1098253D03*
X692699Y1085553D03*
X692699Y1072853D03*
X692699Y1060153D03*
X692699Y1047453D03*
X692699Y1034753D03*
X692699Y1022053D03*
X692699Y1009353D03*
X692699Y996653D03*
X692699Y983953D03*
X692699Y971253D03*
X692699Y958553D03*
X692699Y945853D03*
D28*
X790389Y1019273D03*
X771939Y1001063D03*
X790239Y1001063D03*
X808539Y1001063D03*
X808539Y1019363D03*
X771839Y1019063D03*
X771939Y1037663D03*
X790239Y1037763D03*
X808539Y1037663D03*
D11*
X635079Y951653D03*
X635079Y968653D03*
X635079Y991653D03*
X635079Y1008653D03*
D23*
X942579Y1251653D03*
D24*
X932579Y1226653D03*
X927579Y1226653D03*
D23*
X867579Y1251653D03*
D24*
X922579Y1226653D03*
X917579Y1226653D03*
X912579Y1226653D03*
X907579Y1226653D03*
X902579Y1226653D03*
X897579Y1226653D03*
X892579Y1226653D03*
X887579Y1226653D03*
X882579Y1226653D03*
X877579Y1226653D03*
D10*
X43500Y1559960D02*
X36500Y1559960D01*
X43500Y1559960D02*
X43500Y1552960D01*
X36500Y1552960D01*
X36500Y1559960D01*
X36500Y1555810D02*
X43500Y1555810D01*
X43500Y1558660D02*
X36500Y1558660D01*
X36500Y1577500D02*
X43500Y1577500D01*
X43500Y1570500D01*
X36500Y1570500D01*
X36500Y1577500D01*
X36500Y1573350D02*
X43500Y1573350D01*
X43500Y1576200D02*
X36500Y1576200D01*
D11*
X60000Y1573730D03*
X60000Y1556730D03*
X510000Y1436730D03*
X510000Y1453730D03*
X490000Y1436730D03*
X490000Y1453730D03*
D12*
X475000Y1650430D03*
X475000Y1662030D03*
D13*
X459500Y1651230D03*
X442500Y1651230D03*
D11*
X470000Y1436730D03*
X470000Y1453730D03*
D14*
X500000Y1649230D03*
X490000Y1649230D03*
D15*
X511500Y1629730D03*
X500500Y1629730D03*
X489500Y1629730D03*
X478500Y1629730D03*
X467500Y1629730D03*
X456500Y1629730D03*
X445500Y1629730D03*
X434500Y1629730D03*
X423500Y1629730D03*
X412500Y1629730D03*
X401500Y1629730D03*
X390500Y1629730D03*
X379500Y1629730D03*
X368500Y1629730D03*
D16*
X340500Y1621230D03*
X340500Y1610230D03*
X340500Y1599230D03*
X340500Y1588230D03*
X340500Y1577230D03*
X340500Y1566230D03*
X340500Y1555230D03*
X340500Y1544230D03*
X340500Y1533230D03*
X340500Y1522230D03*
X340500Y1511230D03*
X340500Y1500230D03*
X340500Y1489230D03*
D15*
X368500Y1480730D03*
X379500Y1480730D03*
X390500Y1480730D03*
X401500Y1480730D03*
X412500Y1480730D03*
X423500Y1480730D03*
X434500Y1480730D03*
X445500Y1480730D03*
X456500Y1480730D03*
X467500Y1480730D03*
X478500Y1480730D03*
X489500Y1480730D03*
X500500Y1480730D03*
X511500Y1480730D03*
D16*
X539500Y1489230D03*
X539500Y1500230D03*
X539500Y1511230D03*
X539500Y1522230D03*
X539500Y1533230D03*
X539500Y1544230D03*
X539500Y1555230D03*
X539500Y1566230D03*
X539500Y1577230D03*
X539500Y1588230D03*
X539500Y1599230D03*
X539500Y1610230D03*
X539500Y1621230D03*
D17*
X450500Y1544730D03*
X471500Y1544730D03*
X492500Y1544730D03*
X513500Y1544730D03*
X450500Y1524230D03*
X471500Y1524230D03*
X492500Y1524230D03*
X513500Y1524230D03*
X450500Y1503730D03*
X471500Y1503730D03*
X492500Y1503730D03*
X513500Y1503730D03*
X450500Y1606730D03*
X471500Y1606730D03*
X492500Y1606730D03*
X513500Y1606730D03*
X450500Y1586230D03*
X471500Y1586230D03*
X492500Y1586230D03*
X513500Y1586230D03*
X450500Y1565730D03*
X471500Y1565730D03*
X492500Y1565730D03*
X513500Y1565730D03*
X366500Y1544730D03*
X387500Y1544730D03*
X408500Y1544730D03*
X429500Y1544730D03*
X366500Y1524230D03*
X387500Y1524230D03*
X408500Y1524230D03*
X429500Y1524230D03*
X366500Y1503730D03*
X387500Y1503730D03*
X408500Y1503730D03*
X429500Y1503730D03*
X366500Y1606730D03*
X387500Y1606730D03*
X408500Y1606730D03*
X429500Y1606730D03*
X366500Y1586230D03*
X387500Y1586230D03*
X408500Y1586230D03*
X429500Y1586230D03*
X366500Y1565730D03*
X387500Y1565730D03*
X408500Y1565730D03*
X429500Y1565730D03*
D11*
X420000Y1453730D03*
X420000Y1436730D03*
X440000Y1436730D03*
X440000Y1453730D03*
D18*
X556800Y1527230D03*
D19*
X556800Y1519230D03*
X556800Y1511230D03*
D18*
X556800Y1503230D03*
X569800Y1503230D03*
D19*
X569800Y1511230D03*
X569800Y1519230D03*
D18*
X569800Y1527230D03*
X556800Y1597230D03*
D19*
X556800Y1589230D03*
X556800Y1581230D03*
D18*
X556800Y1573230D03*
X569800Y1573230D03*
D19*
X569800Y1581230D03*
X569800Y1589230D03*
D18*
X569800Y1597230D03*
D11*
X550000Y1453730D03*
X550000Y1436730D03*
X300000Y1396730D03*
X300000Y1413730D03*
X280000Y1396730D03*
X280000Y1413730D03*
D18*
X303800Y1577230D03*
D19*
X303800Y1569230D03*
X303800Y1561230D03*
D18*
X303800Y1553230D03*
X316800Y1553230D03*
D19*
X316800Y1561230D03*
X316800Y1569230D03*
D18*
X316800Y1577230D03*
D11*
X520000Y1396730D03*
X520000Y1413730D03*
X460000Y1413730D03*
X460000Y1396730D03*
D20*
X513750Y1675230D03*
X486250Y1675230D03*
D21*
X500000Y1659980D03*
X500000Y1690480D03*
D22*
X224450Y1643230D03*
X211750Y1643230D03*
X199050Y1643230D03*
X186350Y1643230D03*
X173650Y1643230D03*
X160950Y1643230D03*
X148250Y1643230D03*
X135550Y1643230D03*
X135550Y1587230D03*
X148250Y1587230D03*
X160950Y1587230D03*
X173650Y1587230D03*
X186350Y1587230D03*
X199050Y1587230D03*
X211750Y1587230D03*
X224450Y1587230D03*
D11*
X250100Y1606730D03*
X250100Y1623730D03*
D23*
X157500Y1686730D03*
D24*
X147500Y1661730D03*
X142500Y1661730D03*
D23*
X82500Y1686730D03*
D24*
X137500Y1661730D03*
X132500Y1661730D03*
X127500Y1661730D03*
X122500Y1661730D03*
X117500Y1661730D03*
X112500Y1661730D03*
X107500Y1661730D03*
X102500Y1661730D03*
X97500Y1661730D03*
X92500Y1661730D03*
D23*
X247500Y1686730D03*
D24*
X237500Y1661730D03*
X232500Y1661730D03*
D23*
X172500Y1686730D03*
D24*
X227500Y1661730D03*
X222500Y1661730D03*
X217500Y1661730D03*
X212500Y1661730D03*
X207500Y1661730D03*
X202500Y1661730D03*
X197500Y1661730D03*
X192500Y1661730D03*
X187500Y1661730D03*
X182500Y1661730D03*
D25*
X503001Y1395730D03*
X503001Y1405230D03*
X503001Y1414730D03*
X476999Y1414730D03*
X476999Y1395730D03*
D23*
X427500Y1686730D03*
D24*
X417500Y1661730D03*
X412500Y1661730D03*
D23*
X352500Y1686730D03*
D24*
X407500Y1661730D03*
X402500Y1661730D03*
X397500Y1661730D03*
X392500Y1661730D03*
X387500Y1661730D03*
X382500Y1661730D03*
X377500Y1661730D03*
X372500Y1661730D03*
X367500Y1661730D03*
X362500Y1661730D03*
D26*
X252380Y1380930D03*
X252380Y1393630D03*
X252380Y1406330D03*
X252380Y1419030D03*
X252380Y1431730D03*
X252380Y1444430D03*
X252380Y1457130D03*
X252380Y1469830D03*
X252380Y1482530D03*
X252380Y1495230D03*
X252380Y1507930D03*
X252380Y1520630D03*
X252380Y1533330D03*
X252380Y1546030D03*
D27*
X227150Y1560930D03*
X214450Y1560930D03*
X201750Y1560930D03*
X189050Y1560930D03*
X176350Y1560930D03*
X163650Y1560930D03*
X150950Y1560930D03*
X138250Y1560930D03*
X125550Y1560930D03*
X112850Y1560930D03*
D26*
X87620Y1546030D03*
X87620Y1533330D03*
X87620Y1520630D03*
X87620Y1507930D03*
X87620Y1495230D03*
X87620Y1482530D03*
X87620Y1469830D03*
X87620Y1457130D03*
X87620Y1444430D03*
X87620Y1431730D03*
X87620Y1419030D03*
X87620Y1406330D03*
X87620Y1393630D03*
X87620Y1380930D03*
D28*
X185310Y1454350D03*
X166860Y1436140D03*
X185160Y1436140D03*
X203460Y1436140D03*
X203460Y1454440D03*
X166760Y1454140D03*
X166860Y1472740D03*
X185160Y1472840D03*
X203460Y1472740D03*
D11*
X30000Y1386730D03*
X30000Y1403730D03*
X30000Y1426730D03*
X30000Y1443730D03*
D23*
X337500Y1686730D03*
D24*
X327500Y1661730D03*
X322500Y1661730D03*
D23*
X262500Y1686730D03*
D24*
X317500Y1661730D03*
X312500Y1661730D03*
X307500Y1661730D03*
X302500Y1661730D03*
X297500Y1661730D03*
X292500Y1661730D03*
X287500Y1661730D03*
X282500Y1661730D03*
X277500Y1661730D03*
X272500Y1661730D03*
D10*
X641579Y1559960D02*
X648579Y1559960D01*
X648579Y1552960D01*
X641579Y1552960D01*
X641579Y1559960D01*
X641579Y1555810D02*
X648579Y1555810D01*
X648579Y1558660D02*
X641579Y1558660D01*
X641579Y1577500D02*
X648579Y1577500D01*
X648579Y1570500D01*
X641579Y1570500D01*
X641579Y1577500D01*
X641579Y1573350D02*
X648579Y1573350D01*
X648579Y1576200D02*
X641579Y1576200D01*
D11*
X665079Y1573730D03*
X665079Y1556730D03*
X1115079Y1436730D03*
X1115079Y1453730D03*
X1095079Y1436730D03*
X1095079Y1453730D03*
D12*
X1080079Y1650430D03*
X1080079Y1662030D03*
D13*
X1064579Y1651230D03*
X1047579Y1651230D03*
D11*
X1075079Y1436730D03*
X1075079Y1453730D03*
D14*
X1105079Y1649230D03*
X1095079Y1649230D03*
D15*
X1116579Y1629730D03*
X1105579Y1629730D03*
X1094579Y1629730D03*
X1083579Y1629730D03*
X1072579Y1629730D03*
X1061579Y1629730D03*
X1050579Y1629730D03*
X1039579Y1629730D03*
X1028579Y1629730D03*
X1017579Y1629730D03*
X1006579Y1629730D03*
X995579Y1629730D03*
X984579Y1629730D03*
X973579Y1629730D03*
D16*
X945579Y1621230D03*
X945579Y1610230D03*
X945579Y1599230D03*
X945579Y1588230D03*
X945579Y1577230D03*
X945579Y1566230D03*
X945579Y1555230D03*
X945579Y1544230D03*
X945579Y1533230D03*
X945579Y1522230D03*
X945579Y1511230D03*
X945579Y1500230D03*
X945579Y1489230D03*
D15*
X973579Y1480730D03*
X984579Y1480730D03*
X995579Y1480730D03*
X1006579Y1480730D03*
X1017579Y1480730D03*
X1028579Y1480730D03*
X1039579Y1480730D03*
X1050579Y1480730D03*
X1061579Y1480730D03*
X1072579Y1480730D03*
X1083579Y1480730D03*
X1094579Y1480730D03*
X1105579Y1480730D03*
X1116579Y1480730D03*
D16*
X1144579Y1489230D03*
X1144579Y1500230D03*
X1144579Y1511230D03*
X1144579Y1522230D03*
X1144579Y1533230D03*
X1144579Y1544230D03*
X1144579Y1555230D03*
X1144579Y1566230D03*
X1144579Y1577230D03*
X1144579Y1588230D03*
X1144579Y1599230D03*
X1144579Y1610230D03*
X1144579Y1621230D03*
D17*
X1055579Y1544730D03*
X1076579Y1544730D03*
X1097579Y1544730D03*
X1118579Y1544730D03*
X1055579Y1524230D03*
X1076579Y1524230D03*
X1097579Y1524230D03*
X1118579Y1524230D03*
X1055579Y1503730D03*
X1076579Y1503730D03*
X1097579Y1503730D03*
X1118579Y1503730D03*
X1055579Y1606730D03*
X1076579Y1606730D03*
X1097579Y1606730D03*
X1118579Y1606730D03*
X1055579Y1586230D03*
X1076579Y1586230D03*
X1097579Y1586230D03*
X1118579Y1586230D03*
X1055579Y1565730D03*
X1076579Y1565730D03*
X1097579Y1565730D03*
X1118579Y1565730D03*
X971579Y1544730D03*
X992579Y1544730D03*
X1013579Y1544730D03*
X1034579Y1544730D03*
X971579Y1524230D03*
X992579Y1524230D03*
X1013579Y1524230D03*
X1034579Y1524230D03*
X971579Y1503730D03*
X992579Y1503730D03*
X1013579Y1503730D03*
X1034579Y1503730D03*
X971579Y1606730D03*
X992579Y1606730D03*
X1013579Y1606730D03*
X1034579Y1606730D03*
X971579Y1586230D03*
X992579Y1586230D03*
X1013579Y1586230D03*
X1034579Y1586230D03*
X971579Y1565730D03*
X992579Y1565730D03*
X1013579Y1565730D03*
X1034579Y1565730D03*
D11*
X1025079Y1453730D03*
X1025079Y1436730D03*
X1045079Y1436730D03*
X1045079Y1453730D03*
D18*
X1161879Y1527230D03*
D19*
X1161879Y1519230D03*
X1161879Y1511230D03*
D18*
X1161879Y1503230D03*
X1174879Y1503230D03*
D19*
X1174879Y1511230D03*
X1174879Y1519230D03*
D18*
X1174879Y1527230D03*
X1161879Y1597230D03*
D19*
X1161879Y1589230D03*
X1161879Y1581230D03*
D18*
X1161879Y1573230D03*
X1174879Y1573230D03*
D19*
X1174879Y1581230D03*
X1174879Y1589230D03*
D18*
X1174879Y1597230D03*
D11*
X1155079Y1453730D03*
X1155079Y1436730D03*
X905079Y1396730D03*
X905079Y1413730D03*
X885079Y1396730D03*
X885079Y1413730D03*
D18*
X908879Y1577230D03*
D19*
X908879Y1569230D03*
X908879Y1561230D03*
D18*
X908879Y1553230D03*
X921879Y1553230D03*
D19*
X921879Y1561230D03*
X921879Y1569230D03*
D18*
X921879Y1577230D03*
D11*
X1125079Y1396730D03*
X1125079Y1413730D03*
X1065079Y1413730D03*
X1065079Y1396730D03*
D20*
X1118829Y1675230D03*
X1091329Y1675230D03*
D21*
X1105079Y1659980D03*
X1105079Y1690480D03*
D22*
X829529Y1643230D03*
X816829Y1643230D03*
X804129Y1643230D03*
X791429Y1643230D03*
X778729Y1643230D03*
X766029Y1643230D03*
X753329Y1643230D03*
X740629Y1643230D03*
X740629Y1587230D03*
X753329Y1587230D03*
X766029Y1587230D03*
X778729Y1587230D03*
X791429Y1587230D03*
X804129Y1587230D03*
X816829Y1587230D03*
X829529Y1587230D03*
D11*
X855179Y1606730D03*
X855179Y1623730D03*
D23*
X762579Y1686730D03*
D24*
X752579Y1661730D03*
X747579Y1661730D03*
D23*
X687579Y1686730D03*
D24*
X742579Y1661730D03*
X737579Y1661730D03*
X732579Y1661730D03*
X727579Y1661730D03*
X722579Y1661730D03*
X717579Y1661730D03*
X712579Y1661730D03*
X707579Y1661730D03*
X702579Y1661730D03*
X697579Y1661730D03*
D23*
X852579Y1686730D03*
D24*
X842579Y1661730D03*
X837579Y1661730D03*
D23*
X777579Y1686730D03*
D24*
X832579Y1661730D03*
X827579Y1661730D03*
X822579Y1661730D03*
X817579Y1661730D03*
X812579Y1661730D03*
X807579Y1661730D03*
X802579Y1661730D03*
X797579Y1661730D03*
X792579Y1661730D03*
X787579Y1661730D03*
D25*
X1108080Y1395730D03*
X1108080Y1405230D03*
X1108080Y1414730D03*
X1082078Y1414730D03*
X1082078Y1395730D03*
D23*
X1032579Y1686730D03*
D24*
X1022579Y1661730D03*
X1017579Y1661730D03*
D23*
X957579Y1686730D03*
D24*
X1012579Y1661730D03*
X1007579Y1661730D03*
X1002579Y1661730D03*
X997579Y1661730D03*
X992579Y1661730D03*
X987579Y1661730D03*
X982579Y1661730D03*
X977579Y1661730D03*
X972579Y1661730D03*
X967579Y1661730D03*
D26*
X857459Y1380930D03*
X857459Y1393630D03*
X857459Y1406330D03*
X857459Y1419030D03*
X857459Y1431730D03*
X857459Y1444430D03*
X857459Y1457130D03*
X857459Y1469830D03*
X857459Y1482530D03*
X857459Y1495230D03*
X857459Y1507930D03*
X857459Y1520630D03*
X857459Y1533330D03*
X857459Y1546030D03*
D27*
X832229Y1560930D03*
X819529Y1560930D03*
X806829Y1560930D03*
X794129Y1560930D03*
X781429Y1560930D03*
X768729Y1560930D03*
X756029Y1560930D03*
X743329Y1560930D03*
X730629Y1560930D03*
X717929Y1560930D03*
D26*
X692699Y1546030D03*
X692699Y1533330D03*
X692699Y1520630D03*
X692699Y1507930D03*
X692699Y1495230D03*
X692699Y1482530D03*
X692699Y1469830D03*
X692699Y1457130D03*
X692699Y1444430D03*
X692699Y1431730D03*
X692699Y1419030D03*
X692699Y1406330D03*
X692699Y1393630D03*
X692699Y1380930D03*
D28*
X790389Y1454350D03*
X771939Y1436140D03*
X790239Y1436140D03*
X808539Y1436140D03*
X808539Y1454440D03*
X771839Y1454140D03*
X771939Y1472740D03*
X790239Y1472840D03*
X808539Y1472740D03*
D11*
X635079Y1386730D03*
X635079Y1403730D03*
X635079Y1426730D03*
X635079Y1443730D03*
D23*
X942579Y1686730D03*
D24*
X932579Y1661730D03*
X927579Y1661730D03*
D23*
X867579Y1686730D03*
D24*
X922579Y1661730D03*
X917579Y1661730D03*
X912579Y1661730D03*
X907579Y1661730D03*
X902579Y1661730D03*
X897579Y1661730D03*
X892579Y1661730D03*
X887579Y1661730D03*
X882579Y1661730D03*
X877579Y1661730D03*
M02*
