M48
;GenerationSoftware,Autodesk,EAGLE,9.6.2*%
;CreationDate,2023-08-24T22:17:53Z*%
FMAT,2
ICI,OFF
METRIC,TZ,000.000
T4C0.200
T3C0.508
T2C0.950
T1C1.016
%
G90
M71
T1
X113707Y53908
X27500Y7000
X30040Y7000
X37770Y10000
X35230Y10000
X54200Y10400
X56740Y10400
X27500Y50508
X116247Y53908
X97277Y140523
X87007Y50508
X89547Y50508
X97277Y53508
X94737Y53508
X94737Y140523
X30040Y50508
X37770Y53508
X35230Y53508
X87007Y7000
X89547Y7000
X97277Y10000
X94737Y10000
X113707Y10400
X116247Y10400
X113707Y140923
X54200Y53908
X56740Y53908
X116247Y140923
X27500Y94015
X30040Y94015
X37770Y97015
X35230Y97015
X54200Y97415
X56740Y97415
X87007Y94015
X89547Y94015
X97277Y97015
X94737Y97015
X113707Y97415
X116247Y97415
X27500Y137523
X30040Y137523
X37770Y140523
X35230Y140523
X54200Y140923
X56740Y140923
X87007Y137523
X89547Y137523
T2
X111007Y49508
X51500Y6000
X111007Y6000
X51500Y49508
X51500Y93015
X111007Y93015
X51500Y136523
X111007Y136523
T3
X1865Y63778
X1865Y65048
X1865Y59968
X62642Y61238
X62642Y62508
X62642Y63778
X62642Y65048
X62642Y59968
X61372Y61238
X61372Y62508
X61372Y63778
X61372Y65048
X61372Y59968
X61372Y146983
X3135Y17730
X3135Y19000
X3135Y20270
X3135Y21540
X3135Y16460
X1865Y17730
X3135Y104745
X3135Y106015
X3135Y107285
X3135Y108555
X3135Y103475
X1865Y104745
X1865Y106015
X1865Y107285
X1865Y108555
X1865Y103475
X1865Y19000
X1865Y20270
X1865Y21540
X1865Y16460
X62642Y17730
X62642Y19000
X62642Y20270
X62642Y104745
X62642Y106015
X62642Y107285
X62642Y108555
X62642Y103475
X61372Y104745
X61372Y106015
X61372Y107285
X61372Y108555
X61372Y103475
X62642Y21540
X62642Y16460
X61372Y17730
X61372Y19000
X61372Y20270
X61372Y21540
X61372Y16460
X3135Y148253
X3135Y149523
X3135Y150793
X3135Y152063
X3135Y146983
X1865Y148253
X1865Y149523
X1865Y150793
X1865Y152063
X1865Y146983
X3135Y61238
X3135Y62508
X3135Y63778
X3135Y65048
X3135Y59968
X1865Y61238
X1865Y62508
X62642Y148253
X62642Y149523
X62642Y150793
X62642Y152063
X62642Y146983
X61372Y148253
X61372Y149523
X61372Y150793
X61372Y152063
T4
X43500Y28800
X41400Y28800
X39300Y28800
X37200Y28800
X35000Y28800
X52000Y28800
X49800Y27800
X47700Y27800
X45600Y27800
X43500Y27800
X41400Y27800
X39300Y27800
X37200Y27800
X35000Y27800
X52000Y27800
X49800Y26800
X47700Y26800
X45600Y26800
X43500Y26800
X41400Y26800
X39300Y26800
X37200Y26800
X35000Y26800
X52000Y26800
X49800Y25800
X47700Y25800
X45600Y25800
X43500Y25800
X41400Y25800
X39300Y25800
X37200Y25800
X35000Y25800
X52000Y25800
X49800Y24800
X47700Y24800
X45600Y24800
X43500Y24800
X41400Y24800
X39300Y24800
X37200Y24800
X35000Y24800
X52000Y24800
X49800Y23800
X47700Y23800
X45600Y23800
X43500Y23800
X41400Y23800
X39300Y23800
X37200Y23800
X35000Y23800
X52000Y23800
X49800Y22800
X47700Y22800
X45600Y22800
X43500Y22800
X41400Y22800
X39300Y22800
X37200Y22800
X35000Y22800
X52000Y22800
X49800Y21800
X47700Y21800
X45600Y21800
X43500Y21800
X41400Y21800
X39300Y21800
X37200Y21800
X35000Y21800
X52000Y21800
X49800Y20800
X47700Y20800
X45600Y20800
X43500Y20800
X41400Y20800
X39300Y20800
X37200Y20800
X35000Y20800
X52000Y20800
X49800Y18800
X47700Y18800
X45600Y18800
X43500Y18800
X41400Y18800
X39300Y18800
X37200Y18800
X35000Y18800
X52000Y18800
X49800Y31300
X47700Y31300
X45600Y31300
X43500Y31300
X41400Y31300
X39300Y31300
X37200Y31300
X35000Y31300
X52000Y31300
X34000Y17400
X35500Y17400
X51500Y17500
X52500Y17500
X53500Y17500
X35000Y32800
X34000Y32800
X33000Y32800
X52000Y32800
X53000Y32800
X54000Y32800
X46000Y37600
X44500Y37600
X42700Y37600
X44500Y35600
X45000Y36600
X43500Y36600
X43000Y35600
X42000Y34600
X40500Y34600
X46000Y35600
X54500Y34600
X52700Y34600
X51200Y34600
X57000Y37600
X54500Y37600
X53700Y37600
X52200Y37600
X54500Y36600
X52700Y36600
X54000Y35600
X52500Y35600
X57000Y35600
X38500Y11800
X35500Y4000
X34500Y4000
X36500Y4000
X33500Y4000
X33500Y3000
X33500Y2400
X47300Y37700
X47300Y38400
X48000Y38400
X48600Y38400
X50500Y38400
X51100Y38500
X51900Y38400
X33500Y35000
X32100Y34800
X42000Y36600
X17000Y39000
X9600Y10200
X9600Y15600
X56000Y15941
X39800Y15641
X23800Y37300
X37300Y37500
X23500Y27700
X9400Y27700
X20000Y27700
X17100Y37500
X17300Y26800
X12400Y15200
X12400Y27100
X40400Y15259
X21500Y37500
X21800Y34800
X12400Y10500
X36750Y37550
X56000Y12100
X20700Y29200
X20700Y40300
X56500Y40371
X30476Y24800
X30400Y39300
X29900Y39100
X30047Y26800
X36254Y34300
X31159Y34359
X31200Y1822
X5100Y12000
X6500Y38100
X24200Y34000
X20000Y34000
X22500Y30000
X20200Y29646
X21700Y22800
X23100Y16200
X6400Y15800
X6400Y22500
X23700Y10100
X23000Y16800
X21700Y20900
X22900Y20300
X15600Y20800
X15200Y27200
X30817Y19000
X30800Y36459
X39200Y36500
X38400Y36500
X7741Y35191
X9359Y17700
X22700Y12000
X18100Y11992
X20200Y30500
X7300Y36500
X37800Y36500
X9359Y16500
X38800Y34900
X6400Y34800
X9400Y8900
X23700Y14441
X4500Y14400
X50500Y12000
X25700Y32113
X26600Y9700
X32600Y6600
X4600Y4250
X6400Y8400
X6400Y21500
X55000Y8000
X5500Y8000
X6000Y20100
X55600Y7700
X16200Y39700
X57400Y39600
X56800Y33400
X20041Y34859
X19500Y34900
X22000Y21500
X5170Y21000
X20300Y23300
X4700Y22900
X8500Y32000
X4874Y33008
X4600Y29000
X8800Y34000
X2900Y31000
X2600Y37500
X40800Y38000
X6500Y33000
X7200Y6500
X37500Y1000
X7500Y26000
X32000Y25100
X26459Y26000
X10200Y39500
X10057Y26000
X8400Y38000
X35800Y38300
X35800Y34900
X12300Y38270
X26800Y21800
X26859Y28700
X22500Y18700
X23003Y23100
X30500Y9100
X15000Y34628
X18700Y34500
X23500Y24841
X20100Y31000
X18500Y27300
X12600Y31000
X13051Y24341
X16000Y27300
X16000Y24341
X18500Y24341
X2500Y15000
X25700Y32900
X26700Y10400
X48500Y12100
X24500Y34400
X15500Y34800
X24300Y35100
X16000Y35200
X13000Y30400
X13000Y31600
X28800Y24900
X11959Y23700
X12000Y19400
X29254Y36459
X28641Y13570
X28800Y36459
X7800Y36500
X9359Y19000
X27200Y36459
X27300Y16200
X28300Y36459
X28500Y11800
X27800Y36459
X27900Y18100
X29800Y36459
X8800Y36930
X9359Y22800
X101007Y16100
X103007Y16000
X106007Y16000
X82107Y28200
X91023Y33300
X80951Y37044
X74007Y9500
X79807Y10000
X99307Y36700
X90711Y34841
X68007Y31000
X70007Y28100
X75007Y30000
X76007Y30000
X76007Y31000
X75007Y31000
X71907Y33800
X71907Y34400
X68307Y36400
X71007Y39400
X79107Y38700
X82807Y37300
X86307Y33000
X84807Y31800
X87807Y30000
X81207Y27200
X67007Y29000
X62507Y35300
X64307Y34600
X65907Y7500
X69107Y7600
X83007Y8000
X83607Y7100
X88007Y10400
X89007Y16000
X91007Y16000
X92007Y11500
X96007Y14800
X97807Y14800
X101007Y12000
X103007Y12000
X106007Y12000
X108207Y9400
X111007Y12000
X108007Y5000
X102007Y5000
X97007Y6000
X93907Y1000
X74607Y13100
X74607Y14900
X75607Y14900
X75707Y13000
X77007Y13200
X79407Y17100
X77007Y17200
X75707Y17200
X74507Y17200
X91007Y32000
X106807Y37000
X106507Y36500
X107607Y35500
X108107Y35100
X110007Y35100
X110507Y35600
X111207Y37000
X111207Y36300
X111207Y37800
X108007Y33600
X110107Y33600
X111007Y33600
X112007Y33600
X113007Y33600
X114007Y33600
X114007Y32300
X106007Y33600
X104207Y33600
X102507Y33600
X101007Y33600
X99207Y33600
X97707Y33600
X96007Y33600
X94707Y33600
X93007Y33600
X91707Y33600
X91807Y32400
X91907Y31500
X91907Y30400
X91907Y29300
X91907Y28500
X92007Y17700
X92207Y16700
X93507Y16400
X95007Y16400
X96007Y16300
X97007Y16300
X98007Y16300
X99007Y16300
X100007Y16300
X103907Y16400
X105507Y16400
X110107Y16400
X111007Y16500
X112007Y16500
X113007Y16500
X114007Y16500
X114007Y17400
X109307Y19800
X107207Y19800
X105107Y19800
X103007Y19800
X100907Y19800
X98807Y19800
X96707Y19800
X94507Y19800
X111507Y19800
X109307Y30700
X107207Y30700
X105107Y30700
X103007Y30700
X100907Y30700
X98807Y30700
X96707Y30700
X94507Y30700
X111507Y30700
X109307Y29800
X107207Y29800
X105107Y29800
X103007Y29800
X100907Y29800
X98807Y29800
X96707Y29800
X94507Y29800
X111507Y29800
X109307Y28800
X107207Y28800
X105107Y28800
X103007Y28800
X100907Y28800
X98807Y28800
X96707Y28800
X94507Y28800
X111507Y28800
X109307Y27800
X107207Y27800
X105107Y27800
X103007Y27800
X100907Y27800
X98807Y27800
X96707Y27800
X94507Y27800
X111507Y27800
X109307Y26800
X107207Y26800
X105107Y26800
X103007Y26800
X100907Y26800
X98807Y26800
X96707Y26800
X94507Y26800
X111507Y26800
X109307Y25800
X107207Y25800
X105107Y25800
X103007Y25800
X100907Y25800
X98807Y25800
X96707Y25800
X94507Y25800
X111507Y25800
X109307Y24800
X107207Y24800
X105107Y24800
X103007Y24800
X100907Y24800
X98807Y24800
X96707Y24800
X94507Y24800
X111507Y24800
X109307Y23800
X107207Y23800
X105107Y23800
X103007Y23800
X100907Y23800
X98807Y23800
X96707Y23800
X94507Y23800
X111507Y23800
X109307Y22800
X107207Y22800
X105107Y22800
X103007Y22800
X100907Y22800
X98807Y22800
X96707Y22800
X94507Y22800
X111507Y22800
X109307Y21800
X107207Y21800
X105107Y21800
X103007Y21800
X100907Y21800
X98807Y21800
X96707Y21800
X94507Y21800
X111507Y21800
X109307Y20800
X107207Y20800
X105107Y20800
X103007Y20800
X100907Y20800
X98807Y20800
X96707Y20800
X94507Y20800
X111507Y20800
X109307Y18800
X107207Y18800
X105107Y18800
X103007Y18800
X100907Y18800
X98807Y18800
X96707Y18800
X94507Y18800
X111507Y18800
X109307Y31300
X107207Y31300
X105107Y31300
X103007Y31300
X100907Y31300
X98807Y31300
X96707Y31300
X94507Y31300
X111507Y31300
X93507Y17400
X95007Y17400
X111007Y17500
X112007Y17500
X113007Y17500
X94507Y32800
X93507Y32800
X92507Y32800
X111507Y32800
X112507Y32800
X113507Y32800
X105507Y37600
X104007Y37600
X102207Y37600
X104007Y35600
X104507Y36600
X103007Y36600
X102507Y35600
X101507Y34600
X100007Y34600
X105507Y35600
X114007Y34600
X112207Y34600
X110707Y34600
X116507Y37600
X114007Y37600
X113207Y37600
X111707Y37600
X114007Y36600
X112207Y36600
X113507Y35600
X112007Y35600
X116507Y35600
X98007Y11800
X95007Y4000
X94007Y4000
X96007Y4000
X93007Y4000
X93007Y3000
X93007Y2400
X106807Y37700
X106807Y38400
X107507Y38400
X108107Y38400
X110007Y38400
X110607Y38500
X111407Y38400
X93007Y35000
X91607Y34800
X101507Y36600
X76507Y39000
X69107Y10200
X69107Y15600
X115507Y15941
X99307Y15641
X83307Y37300
X96807Y37500
X83007Y27700
X68907Y27700
X79507Y27700
X76607Y37500
X76807Y26800
X71907Y15200
X71907Y27100
X99907Y15259
X81007Y37500
X81307Y34800
X71907Y10500
X96257Y37550
X115507Y12100
X80207Y29200
X80207Y40300
X116007Y40371
X89983Y24800
X89907Y39300
X89407Y39100
X89555Y26800
X95761Y34300
X90666Y34359
X90707Y1822
X64607Y12000
X66007Y38100
X83707Y34000
X79507Y34000
X82007Y30000
X79707Y29646
X81207Y22800
X82607Y16200
X65907Y15800
X65907Y22500
X83207Y10100
X82507Y16800
X81207Y20900
X82407Y20300
X75107Y20800
X74707Y27200
X90325Y19000
X90307Y36459
X98707Y36500
X97907Y36500
X67248Y35191
X68866Y17700
X82207Y12000
X77607Y11992
X79707Y30500
X66807Y36500
X97307Y36500
X68866Y16500
X98307Y34900
X65907Y34800
X68907Y8900
X83207Y14441
X64007Y14400
X110007Y12000
X85207Y32113
X86107Y9700
X92107Y6600
X64107Y4250
X65907Y8400
X65907Y21500
X114507Y8000
X65007Y8000
X65507Y20100
X115107Y7700
X75707Y39700
X116907Y39600
X116307Y33400
X79548Y34859
X79007Y34900
X81507Y21500
X64677Y21000
X79807Y23300
X64207Y22900
X68007Y32000
X64381Y33008
X64107Y29000
X68307Y34000
X62407Y31000
X62107Y37500
X100307Y38000
X66007Y33000
X66707Y6500
X97007Y1000
X67007Y26000
X91507Y25100
X85966Y26000
X69707Y39500
X69564Y26000
X67907Y38000
X95307Y38300
X95307Y34900
X71807Y38270
X86307Y21800
X86366Y28700
X82007Y18700
X82510Y23100
X90007Y9100
X74507Y34628
X78207Y34500
X83007Y24841
X79607Y31000
X78007Y27300
X72107Y31000
X72558Y24341
X75507Y27300
X75507Y24341
X78007Y24341
X62007Y15000
X85207Y32900
X86207Y10400
X108007Y12100
X84007Y34400
X75007Y34800
X83807Y35100
X75507Y35200
X72507Y30400
X72507Y31600
X88307Y24900
X71466Y23700
X71507Y19400
X88761Y36459
X88148Y13570
X88307Y36459
X67307Y36500
X68866Y19000
X86707Y36459
X86807Y16200
X87807Y36459
X88007Y11800
X87307Y36459
X87407Y18100
X89307Y36459
X68307Y36930
X68866Y22800
X41500Y59608
X43500Y59508
X46500Y59508
X22600Y71708
X31516Y76808
X21444Y80552
X14500Y53008
X20300Y53508
X39800Y80208
X31204Y78349
X8500Y74508
X10500Y71608
X15500Y73508
X16500Y73508
X16500Y74508
X15500Y74508
X12400Y77308
X12400Y77908
X8800Y79908
X11500Y82908
X19600Y82208
X23300Y80808
X26800Y76508
X25300Y75308
X28300Y73508
X21700Y70708
X7500Y72508
X3000Y78808
X4800Y78108
X6400Y51008
X9600Y51108
X23500Y51508
X24100Y50608
X28500Y53908
X29500Y59508
X31500Y59508
X32500Y55008
X36500Y58308
X38300Y58308
X41500Y55508
X43500Y55508
X46500Y55508
X48700Y52908
X51500Y55508
X48500Y48508
X42500Y48508
X37500Y49508
X34400Y44508
X15100Y56608
X15100Y58408
X16100Y58408
X16200Y56508
X17500Y56708
X19900Y60608
X17500Y60708
X16200Y60708
X15000Y60708
X31500Y75508
X47300Y80508
X47000Y80008
X48100Y79008
X48600Y78608
X50500Y78608
X51000Y79108
X51700Y80508
X51700Y79808
X51700Y81308
X48500Y77108
X50600Y77108
X51500Y77108
X52500Y77108
X53500Y77108
X54500Y77108
X54500Y75808
X46500Y77108
X44700Y77108
X43000Y77108
X41500Y77108
X39700Y77108
X38200Y77108
X36500Y77108
X35200Y77108
X33500Y77108
X32200Y77108
X32300Y75908
X32400Y75008
X32400Y73908
X32400Y72808
X32400Y72008
X32500Y61208
X32700Y60208
X34000Y59908
X35500Y59908
X36500Y59808
X37500Y59808
X38500Y59808
X39500Y59808
X40500Y59808
X44400Y59908
X46000Y59908
X50600Y59908
X51500Y60008
X52500Y60008
X53500Y60008
X54500Y60008
X54500Y60908
X49800Y63308
X47700Y63308
X45600Y63308
X43500Y63308
X41400Y63308
X39300Y63308
X37200Y63308
X35000Y63308
X52000Y63308
X49800Y74208
X47700Y74208
X45600Y74208
X43500Y74208
X41400Y74208
X39300Y74208
X37200Y74208
X35000Y74208
X52000Y74208
X49800Y73308
X47700Y73308
X45600Y73308
X43500Y73308
X41400Y73308
X39300Y73308
X37200Y73308
X35000Y73308
X52000Y73308
X49800Y72308
X47700Y72308
X45600Y72308
X43500Y72308
X41400Y72308
X39300Y72308
X37200Y72308
X35000Y72308
X52000Y72308
X49800Y71308
X47700Y71308
X45600Y71308
X43500Y71308
X41400Y71308
X39300Y71308
X37200Y71308
X35000Y71308
X52000Y71308
X49800Y70308
X47700Y70308
X45600Y70308
X43500Y70308
X41400Y70308
X39300Y70308
X37200Y70308
X35000Y70308
X52000Y70308
X49800Y69308
X47700Y69308
X45600Y69308
X43500Y69308
X41400Y69308
X39300Y69308
X37200Y69308
X35000Y69308
X52000Y69308
X49800Y68308
X47700Y68308
X45600Y68308
X43500Y68308
X41400Y68308
X39300Y68308
X37200Y68308
X35000Y68308
X52000Y68308
X49800Y67308
X47700Y67308
X45600Y67308
X43500Y67308
X41400Y67308
X39300Y67308
X37200Y67308
X35000Y67308
X52000Y67308
X49800Y66308
X47700Y66308
X45600Y66308
X43500Y66308
X41400Y66308
X39300Y66308
X37200Y66308
X35000Y66308
X52000Y66308
X49800Y65308
X47700Y65308
X45600Y65308
X43500Y65308
X41400Y65308
X39300Y65308
X37200Y65308
X35000Y65308
X52000Y65308
X49800Y64308
X47700Y64308
X45600Y64308
X43500Y64308
X41400Y64308
X39300Y64308
X37200Y64308
X35000Y64308
X52000Y64308
X49800Y62308
X47700Y62308
X45600Y62308
X43500Y62308
X41400Y62308
X39300Y62308
X37200Y62308
X35000Y62308
X52000Y62308
X49800Y74808
X47700Y74808
X45600Y74808
X43500Y74808
X41400Y74808
X39300Y74808
X37200Y74808
X35000Y74808
X52000Y74808
X34000Y60908
X35500Y60908
X51500Y61008
X52500Y61008
X53500Y61008
X35000Y76308
X34000Y76308
X33000Y76308
X52000Y76308
X53000Y76308
X54000Y76308
X46000Y81108
X44500Y81108
X42700Y81108
X44500Y79108
X45000Y80108
X43500Y80108
X43000Y79108
X42000Y78108
X40500Y78108
X46000Y79108
X54500Y78108
X52700Y78108
X51200Y78108
X57000Y81108
X54500Y81108
X53700Y81108
X52200Y81108
X54500Y80108
X52700Y80108
X54000Y79108
X52500Y79108
X57000Y79108
X38500Y55308
X35500Y47508
X34500Y47508
X36500Y47508
X33500Y47508
X33500Y46508
X33500Y45908
X47300Y81208
X47300Y81908
X48000Y81908
X48600Y81908
X50500Y81908
X51100Y82008
X51900Y81908
X33500Y78508
X32100Y78308
X42000Y80108
X17000Y82508
X9600Y53708
X9600Y59108
X56000Y59449
X39800Y59149
X23800Y80808
X37300Y81008
X23500Y71208
X9400Y71208
X20000Y71208
X17100Y81008
X17300Y70308
X12400Y58708
X12400Y70608
X40400Y58766
X21500Y81008
X21800Y78308
X12400Y54008
X36750Y81058
X56000Y55608
X20700Y72708
X20700Y83808
X56500Y83879
X30476Y68308
X30400Y82808
X29900Y82608
X30047Y70308
X36254Y77808
X31159Y77866
X31200Y45330
X5100Y55508
X6500Y81608
X24200Y77508
X20000Y77508
X22500Y73508
X20200Y73154
X21700Y66308
X23100Y59708
X6400Y59308
X6400Y66008
X23700Y53608
X23000Y60308
X21700Y64408
X22900Y63808
X15600Y64308
X15200Y70708
X30817Y62508
X30800Y79966
X39200Y80008
X38400Y80008
X7741Y78699
X9359Y61208
X22700Y55508
X18100Y55500
X20200Y74008
X7300Y80008
X37800Y80008
X9359Y60008
X38800Y78408
X6400Y78308
X9400Y52408
X23700Y57949
X4500Y57908
X50500Y55508
X25700Y75620
X26600Y53208
X32600Y50108
X4600Y47758
X6400Y51908
X6400Y65008
X55000Y51508
X5500Y51508
X6000Y63608
X55600Y51208
X16200Y83208
X57400Y83108
X56800Y76908
X20041Y78366
X19500Y78408
X22000Y65008
X5170Y64508
X20300Y66808
X4700Y66408
X8500Y75508
X4874Y76516
X4600Y72508
X8800Y77508
X2900Y74508
X2600Y81008
X40800Y81508
X6500Y76508
X7200Y50008
X37500Y44508
X7500Y69508
X32000Y68608
X26459Y69508
X10200Y83008
X10057Y69508
X8400Y81508
X35800Y81808
X35800Y78408
X12300Y81777
X26800Y65308
X26859Y72208
X22500Y62208
X23003Y66608
X30500Y52608
X15000Y78135
X18700Y78008
X23500Y68349
X20100Y74508
X18500Y70808
X12600Y74508
X13051Y67849
X16000Y70808
X16000Y67849
X18500Y67849
X2500Y58508
X25700Y76408
X26700Y53908
X48500Y55608
X24500Y77908
X15500Y78308
X24300Y78608
X16000Y78708
X13000Y73908
X13000Y75108
X28800Y68408
X11959Y67208
X12000Y62908
X29254Y79966
X28641Y57077
X28800Y79966
X7800Y80008
X9359Y62508
X27200Y79966
X27300Y59708
X28300Y79966
X28500Y55308
X27800Y79966
X27900Y61608
X29800Y79966
X8800Y80438
X9359Y66308
X101007Y59608
X103007Y59508
X106007Y59508
X82107Y71708
X91023Y76808
X80951Y80552
X74007Y53008
X79807Y53508
X99307Y80208
X90711Y78349
X68007Y74508
X70007Y71608
X75007Y73508
X76007Y73508
X76007Y74508
X75007Y74508
X71907Y77308
X71907Y77908
X68307Y79908
X71007Y82908
X79107Y82208
X82807Y80808
X86307Y76508
X84807Y75308
X87807Y73508
X81207Y70708
X67007Y72508
X62507Y78808
X64307Y78108
X65907Y51008
X69107Y51108
X83007Y51508
X83607Y50608
X88007Y53908
X89007Y59508
X91007Y59508
X92007Y55008
X96007Y58308
X97807Y58308
X101007Y55508
X103007Y55508
X106007Y55508
X108207Y52908
X111007Y55508
X108007Y48508
X102007Y48508
X97007Y49508
X93907Y44508
X74607Y56608
X74607Y58408
X75607Y58408
X75707Y56508
X77007Y56708
X79407Y60608
X77007Y60708
X75707Y60708
X74507Y60708
X91007Y75508
X106807Y80508
X106507Y80008
X107607Y79008
X108107Y78608
X110007Y78608
X110507Y79108
X111207Y80508
X111207Y79808
X111207Y81308
X108007Y77108
X110107Y77108
X111007Y77108
X112007Y77108
X113007Y77108
X114007Y77108
X114007Y75808
X106007Y77108
X104207Y77108
X102507Y77108
X101007Y77108
X99207Y77108
X97707Y77108
X96007Y77108
X94707Y77108
X93007Y77108
X91707Y77108
X91807Y75908
X91907Y75008
X91907Y73908
X91907Y72808
X91907Y72008
X92007Y61208
X92207Y60208
X93507Y59908
X95007Y59908
X96007Y59808
X97007Y59808
X98007Y59808
X99007Y59808
X100007Y59808
X103907Y59908
X105507Y59908
X110107Y59908
X111007Y60008
X112007Y60008
X113007Y60008
X114007Y60008
X114007Y60908
X109307Y63308
X107207Y63308
X105107Y63308
X103007Y63308
X100907Y63308
X98807Y63308
X96707Y63308
X94507Y63308
X111507Y63308
X109307Y74208
X107207Y74208
X105107Y74208
X103007Y74208
X100907Y74208
X98807Y74208
X96707Y74208
X94507Y74208
X111507Y74208
X109307Y73308
X107207Y73308
X105107Y73308
X103007Y73308
X100907Y73308
X98807Y73308
X96707Y73308
X94507Y73308
X111507Y73308
X109307Y72308
X107207Y72308
X105107Y72308
X103007Y72308
X100907Y72308
X98807Y72308
X96707Y72308
X94507Y72308
X111507Y72308
X109307Y71308
X107207Y71308
X105107Y71308
X103007Y71308
X100907Y71308
X98807Y71308
X96707Y71308
X94507Y71308
X111507Y71308
X109307Y70308
X107207Y70308
X105107Y70308
X103007Y70308
X100907Y70308
X98807Y70308
X96707Y70308
X94507Y70308
X111507Y70308
X109307Y69308
X107207Y69308
X105107Y69308
X103007Y69308
X100907Y69308
X98807Y69308
X96707Y69308
X94507Y69308
X111507Y69308
X109307Y68308
X107207Y68308
X105107Y68308
X103007Y68308
X100907Y68308
X98807Y68308
X96707Y68308
X94507Y68308
X111507Y68308
X109307Y67308
X107207Y67308
X105107Y67308
X103007Y67308
X100907Y67308
X98807Y67308
X96707Y67308
X94507Y67308
X111507Y67308
X109307Y66308
X107207Y66308
X105107Y66308
X103007Y66308
X100907Y66308
X98807Y66308
X96707Y66308
X94507Y66308
X111507Y66308
X109307Y65308
X107207Y65308
X105107Y65308
X103007Y65308
X100907Y65308
X98807Y65308
X96707Y65308
X94507Y65308
X111507Y65308
X109307Y64308
X107207Y64308
X105107Y64308
X103007Y64308
X100907Y64308
X98807Y64308
X96707Y64308
X94507Y64308
X111507Y64308
X109307Y62308
X107207Y62308
X105107Y62308
X103007Y62308
X100907Y62308
X98807Y62308
X96707Y62308
X94507Y62308
X111507Y62308
X109307Y74808
X107207Y74808
X105107Y74808
X103007Y74808
X100907Y74808
X98807Y74808
X96707Y74808
X94507Y74808
X111507Y74808
X93507Y60908
X95007Y60908
X111007Y61008
X112007Y61008
X113007Y61008
X94507Y76308
X93507Y76308
X92507Y76308
X111507Y76308
X112507Y76308
X113507Y76308
X105507Y81108
X104007Y81108
X102207Y81108
X104007Y79108
X104507Y80108
X103007Y80108
X102507Y79108
X101507Y78108
X100007Y78108
X105507Y79108
X114007Y78108
X112207Y78108
X110707Y78108
X116507Y81108
X114007Y81108
X113207Y81108
X111707Y81108
X114007Y80108
X112207Y80108
X113507Y79108
X112007Y79108
X116507Y79108
X98007Y55308
X95007Y47508
X94007Y47508
X96007Y47508
X93007Y47508
X93007Y46508
X93007Y45908
X106807Y81208
X106807Y81908
X107507Y81908
X108107Y81908
X110007Y81908
X110607Y82008
X111407Y81908
X93007Y78508
X91607Y78308
X101507Y80108
X76507Y82508
X69107Y53708
X69107Y59108
X115507Y59449
X99307Y59149
X83307Y80808
X96807Y81008
X83007Y71208
X68907Y71208
X79507Y71208
X76607Y81008
X76807Y70308
X71907Y58708
X71907Y70608
X99907Y58766
X81007Y81008
X81307Y78308
X71907Y54008
X96257Y81058
X115507Y55608
X80207Y72708
X80207Y83808
X116007Y83879
X89983Y68308
X89907Y82808
X89407Y82608
X89555Y70308
X95761Y77808
X90666Y77866
X90707Y45330
X64607Y55508
X66007Y81608
X83707Y77508
X79507Y77508
X82007Y73508
X79707Y73154
X81207Y66308
X82607Y59708
X65907Y59308
X65907Y66008
X83207Y53608
X82507Y60308
X81207Y64408
X82407Y63808
X75107Y64308
X74707Y70708
X90325Y62508
X90307Y79966
X98707Y80008
X97907Y80008
X67248Y78699
X68866Y61208
X82207Y55508
X77607Y55500
X79707Y74008
X66807Y80008
X97307Y80008
X68866Y60008
X98307Y78408
X65907Y78308
X68907Y52408
X83207Y57949
X64007Y57908
X110007Y55508
X85207Y75620
X86107Y53208
X92107Y50108
X64107Y47758
X65907Y51908
X65907Y65008
X114507Y51508
X65007Y51508
X65507Y63608
X115107Y51208
X75707Y83208
X116907Y83108
X116307Y76908
X79548Y78366
X79007Y78408
X81507Y65008
X64677Y64508
X79807Y66808
X64207Y66408
X68007Y75508
X64381Y76516
X64107Y72508
X68307Y77508
X62407Y74508
X62107Y81008
X100307Y81508
X66007Y76508
X66707Y50008
X97007Y44508
X67007Y69508
X91507Y68608
X85966Y69508
X69707Y83008
X69564Y69508
X67907Y81508
X95307Y81808
X95307Y78408
X71807Y81777
X86307Y65308
X86366Y72208
X82007Y62208
X82510Y66608
X90007Y52608
X74507Y78135
X78207Y78008
X83007Y68349
X79607Y74508
X78007Y70808
X72107Y74508
X72558Y67849
X75507Y70808
X75507Y67849
X78007Y67849
X62007Y58508
X85207Y76408
X86207Y53908
X108007Y55608
X84007Y77908
X75007Y78308
X83807Y78608
X75507Y78708
X72507Y73908
X72507Y75108
X88307Y68408
X71466Y67208
X71507Y62908
X88761Y79966
X88148Y57077
X88307Y79966
X67307Y80008
X68866Y62508
X86707Y79966
X86807Y59708
X87807Y79966
X88007Y55308
X87307Y79966
X87407Y61608
X89307Y79966
X68307Y80438
X68866Y66308
X41500Y103115
X43500Y103015
X46500Y103015
X22600Y115215
X31516Y120315
X21444Y124059
X14500Y96515
X20300Y97015
X39800Y123715
X31204Y121857
X8500Y118015
X10500Y115115
X15500Y117015
X16500Y117015
X16500Y118015
X15500Y118015
X12400Y120815
X12400Y121415
X8800Y123415
X11500Y126415
X19600Y125715
X23300Y124315
X26800Y120015
X25300Y118815
X28300Y117015
X21700Y114215
X7500Y116015
X3000Y122315
X4800Y121615
X6400Y94515
X9600Y94615
X23500Y95015
X24100Y94115
X28500Y97415
X29500Y103015
X31500Y103015
X32500Y98515
X36500Y101815
X38300Y101815
X41500Y99015
X43500Y99015
X46500Y99015
X48700Y96415
X51500Y99015
X48500Y92015
X42500Y92015
X37500Y93015
X34400Y88015
X15100Y100115
X15100Y101915
X16100Y101915
X16200Y100015
X17500Y100215
X19900Y104115
X17500Y104215
X16200Y104215
X15000Y104215
X31500Y119015
X47300Y124015
X47000Y123515
X48100Y122515
X48600Y122115
X50500Y122115
X51000Y122615
X51700Y124015
X51700Y123315
X51700Y124815
X48500Y120615
X50600Y120615
X51500Y120615
X52500Y120615
X53500Y120615
X54500Y120615
X54500Y119315
X46500Y120615
X44700Y120615
X43000Y120615
X41500Y120615
X39700Y120615
X38200Y120615
X36500Y120615
X35200Y120615
X33500Y120615
X32200Y120615
X32300Y119415
X32400Y118515
X32400Y117415
X32400Y116315
X32400Y115515
X32500Y104715
X32700Y103715
X34000Y103415
X35500Y103415
X36500Y103315
X37500Y103315
X38500Y103315
X39500Y103315
X40500Y103315
X44400Y103415
X46000Y103415
X50600Y103415
X51500Y103515
X52500Y103515
X53500Y103515
X54500Y103515
X54500Y104415
X49800Y106815
X47700Y106815
X45600Y106815
X43500Y106815
X41400Y106815
X39300Y106815
X37200Y106815
X35000Y106815
X52000Y106815
X49800Y117715
X47700Y117715
X45600Y117715
X43500Y117715
X41400Y117715
X39300Y117715
X37200Y117715
X35000Y117715
X52000Y117715
X49800Y116815
X47700Y116815
X45600Y116815
X43500Y116815
X41400Y116815
X39300Y116815
X37200Y116815
X35000Y116815
X52000Y116815
X49800Y115815
X47700Y115815
X45600Y115815
X43500Y115815
X41400Y115815
X39300Y115815
X37200Y115815
X35000Y115815
X52000Y115815
X49800Y114815
X47700Y114815
X45600Y114815
X43500Y114815
X41400Y114815
X39300Y114815
X37200Y114815
X35000Y114815
X52000Y114815
X49800Y113815
X47700Y113815
X45600Y113815
X43500Y113815
X41400Y113815
X39300Y113815
X37200Y113815
X35000Y113815
X52000Y113815
X49800Y112815
X47700Y112815
X45600Y112815
X43500Y112815
X41400Y112815
X39300Y112815
X37200Y112815
X35000Y112815
X52000Y112815
X49800Y111815
X47700Y111815
X45600Y111815
X43500Y111815
X41400Y111815
X39300Y111815
X37200Y111815
X35000Y111815
X52000Y111815
X49800Y110815
X47700Y110815
X45600Y110815
X43500Y110815
X41400Y110815
X39300Y110815
X37200Y110815
X35000Y110815
X52000Y110815
X49800Y109815
X47700Y109815
X45600Y109815
X43500Y109815
X41400Y109815
X39300Y109815
X37200Y109815
X35000Y109815
X52000Y109815
X49800Y108815
X47700Y108815
X45600Y108815
X43500Y108815
X41400Y108815
X39300Y108815
X37200Y108815
X35000Y108815
X52000Y108815
X49800Y107815
X47700Y107815
X45600Y107815
X43500Y107815
X41400Y107815
X39300Y107815
X37200Y107815
X35000Y107815
X52000Y107815
X49800Y105815
X47700Y105815
X45600Y105815
X43500Y105815
X41400Y105815
X39300Y105815
X37200Y105815
X35000Y105815
X52000Y105815
X49800Y118315
X47700Y118315
X45600Y118315
X43500Y118315
X41400Y118315
X39300Y118315
X37200Y118315
X35000Y118315
X52000Y118315
X34000Y104415
X35500Y104415
X51500Y104515
X52500Y104515
X53500Y104515
X35000Y119815
X34000Y119815
X33000Y119815
X52000Y119815
X53000Y119815
X54000Y119815
X46000Y124615
X44500Y124615
X42700Y124615
X44500Y122615
X45000Y123615
X43500Y123615
X43000Y122615
X42000Y121615
X40500Y121615
X46000Y122615
X54500Y121615
X52700Y121615
X51200Y121615
X57000Y124615
X54500Y124615
X53700Y124615
X52200Y124615
X54500Y123615
X52700Y123615
X54000Y122615
X52500Y122615
X57000Y122615
X38500Y98815
X35500Y91015
X34500Y91015
X36500Y91015
X33500Y91015
X33500Y90015
X33500Y89415
X47300Y124715
X47300Y125415
X48000Y125415
X48600Y125415
X50500Y125415
X51100Y125515
X51900Y125415
X33500Y122015
X32100Y121815
X42000Y123615
X17000Y126015
X9600Y97215
X9600Y102615
X56000Y102957
X39800Y102657
X23800Y124315
X37300Y124515
X23500Y114715
X9400Y114715
X20000Y114715
X17100Y124515
X17300Y113815
X12400Y102215
X12400Y114115
X40400Y102274
X21500Y124515
X21800Y121815
X12400Y97515
X36750Y124565
X56000Y99115
X20700Y116215
X20700Y127315
X56500Y127387
X30476Y111815
X30400Y126315
X29900Y126115
X30047Y113815
X36254Y121315
X31159Y121374
X31200Y88838
X5100Y99015
X6500Y125115
X24200Y121015
X20000Y121015
X22500Y117015
X20200Y116661
X21700Y109815
X23100Y103215
X6400Y102815
X6400Y109515
X23700Y97115
X23000Y103815
X21700Y107915
X22900Y107315
X15600Y107815
X15200Y114215
X30817Y106015
X30800Y123474
X39200Y123515
X38400Y123515
X7741Y122206
X9359Y104715
X22700Y99015
X18100Y99008
X20200Y117515
X7300Y123515
X37800Y123515
X9359Y103515
X38800Y121915
X6400Y121815
X9400Y95915
X23700Y101457
X4500Y101415
X50500Y99015
X25700Y119128
X26600Y96715
X32600Y93615
X4600Y91265
X6400Y95415
X6400Y108515
X55000Y95015
X5500Y95015
X6000Y107115
X55600Y94715
X16200Y126715
X57400Y126615
X56800Y120415
X20041Y121874
X19500Y121915
X22000Y108515
X5170Y108015
X20300Y110315
X4700Y109915
X8500Y119015
X4874Y120023
X4600Y116015
X8800Y121015
X2900Y118015
X2600Y124515
X40800Y125015
X6500Y120015
X7200Y93515
X37500Y88015
X7500Y113015
X32000Y112115
X26459Y113015
X10200Y126515
X10057Y113015
X8400Y125015
X35800Y125315
X35800Y121915
X12300Y125285
X26800Y108815
X26859Y115715
X22500Y105715
X23003Y110115
X30500Y96115
X15000Y121643
X18700Y121515
X23500Y111857
X20100Y118015
X18500Y114315
X12600Y118015
X13051Y111357
X16000Y114315
X16000Y111357
X18500Y111357
X2500Y102015
X25700Y119915
X26700Y97415
X48500Y99115
X24500Y121415
X15500Y121815
X24300Y122115
X16000Y122215
X13000Y117415
X13000Y118615
X28800Y111915
X11959Y110715
X12000Y106415
X29254Y123474
X28641Y100585
X28800Y123474
X7800Y123515
X9359Y106015
X27200Y123474
X27300Y103215
X28300Y123474
X28500Y98815
X27800Y123474
X27900Y105115
X29800Y123474
X8800Y123946
X9359Y109815
X101007Y103115
X103007Y103015
X106007Y103015
X82107Y115215
X91023Y120315
X80951Y124059
X74007Y96515
X79807Y97015
X99307Y123715
X90711Y121857
X68007Y118015
X70007Y115115
X75007Y117015
X76007Y117015
X76007Y118015
X75007Y118015
X71907Y120815
X71907Y121415
X68307Y123415
X71007Y126415
X79107Y125715
X82807Y124315
X86307Y120015
X84807Y118815
X87807Y117015
X81207Y114215
X67007Y116015
X62507Y122315
X64307Y121615
X65907Y94515
X69107Y94615
X83007Y95015
X83607Y94115
X88007Y97415
X89007Y103015
X91007Y103015
X92007Y98515
X96007Y101815
X97807Y101815
X101007Y99015
X103007Y99015
X106007Y99015
X108207Y96415
X111007Y99015
X108007Y92015
X102007Y92015
X97007Y93015
X93907Y88015
X74607Y100115
X74607Y101915
X75607Y101915
X75707Y100015
X77007Y100215
X79407Y104115
X77007Y104215
X75707Y104215
X74507Y104215
X91007Y119015
X106807Y124015
X106507Y123515
X107607Y122515
X108107Y122115
X110007Y122115
X110507Y122615
X111207Y124015
X111207Y123315
X111207Y124815
X108007Y120615
X110107Y120615
X111007Y120615
X112007Y120615
X113007Y120615
X114007Y120615
X114007Y119315
X106007Y120615
X104207Y120615
X102507Y120615
X101007Y120615
X99207Y120615
X97707Y120615
X96007Y120615
X94707Y120615
X93007Y120615
X91707Y120615
X91807Y119415
X91907Y118515
X91907Y117415
X91907Y116315
X91907Y115515
X92007Y104715
X92207Y103715
X93507Y103415
X95007Y103415
X96007Y103315
X97007Y103315
X98007Y103315
X99007Y103315
X100007Y103315
X103907Y103415
X105507Y103415
X110107Y103415
X111007Y103515
X112007Y103515
X113007Y103515
X114007Y103515
X114007Y104415
X109307Y106815
X107207Y106815
X105107Y106815
X103007Y106815
X100907Y106815
X98807Y106815
X96707Y106815
X94507Y106815
X111507Y106815
X109307Y117715
X107207Y117715
X105107Y117715
X103007Y117715
X100907Y117715
X98807Y117715
X96707Y117715
X94507Y117715
X111507Y117715
X109307Y116815
X107207Y116815
X105107Y116815
X103007Y116815
X100907Y116815
X98807Y116815
X96707Y116815
X94507Y116815
X111507Y116815
X109307Y115815
X107207Y115815
X105107Y115815
X103007Y115815
X100907Y115815
X98807Y115815
X96707Y115815
X94507Y115815
X111507Y115815
X109307Y114815
X107207Y114815
X105107Y114815
X103007Y114815
X100907Y114815
X98807Y114815
X96707Y114815
X94507Y114815
X111507Y114815
X109307Y113815
X107207Y113815
X105107Y113815
X103007Y113815
X100907Y113815
X98807Y113815
X96707Y113815
X94507Y113815
X111507Y113815
X109307Y112815
X107207Y112815
X105107Y112815
X103007Y112815
X100907Y112815
X98807Y112815
X96707Y112815
X94507Y112815
X111507Y112815
X109307Y111815
X107207Y111815
X105107Y111815
X103007Y111815
X100907Y111815
X98807Y111815
X96707Y111815
X94507Y111815
X111507Y111815
X109307Y110815
X107207Y110815
X105107Y110815
X103007Y110815
X100907Y110815
X98807Y110815
X96707Y110815
X94507Y110815
X111507Y110815
X109307Y109815
X107207Y109815
X105107Y109815
X103007Y109815
X100907Y109815
X98807Y109815
X96707Y109815
X94507Y109815
X111507Y109815
X109307Y108815
X107207Y108815
X105107Y108815
X103007Y108815
X100907Y108815
X98807Y108815
X96707Y108815
X94507Y108815
X111507Y108815
X109307Y107815
X107207Y107815
X105107Y107815
X103007Y107815
X100907Y107815
X98807Y107815
X96707Y107815
X94507Y107815
X111507Y107815
X109307Y105815
X107207Y105815
X105107Y105815
X103007Y105815
X100907Y105815
X98807Y105815
X96707Y105815
X94507Y105815
X111507Y105815
X109307Y118315
X107207Y118315
X105107Y118315
X103007Y118315
X100907Y118315
X98807Y118315
X96707Y118315
X94507Y118315
X111507Y118315
X93507Y104415
X95007Y104415
X111007Y104515
X112007Y104515
X113007Y104515
X94507Y119815
X93507Y119815
X92507Y119815
X111507Y119815
X112507Y119815
X113507Y119815
X105507Y124615
X104007Y124615
X102207Y124615
X104007Y122615
X104507Y123615
X103007Y123615
X102507Y122615
X101507Y121615
X100007Y121615
X105507Y122615
X114007Y121615
X112207Y121615
X110707Y121615
X116507Y124615
X114007Y124615
X113207Y124615
X111707Y124615
X114007Y123615
X112207Y123615
X113507Y122615
X112007Y122615
X116507Y122615
X98007Y98815
X95007Y91015
X94007Y91015
X96007Y91015
X93007Y91015
X93007Y90015
X93007Y89415
X106807Y124715
X106807Y125415
X107507Y125415
X108107Y125415
X110007Y125415
X110607Y125515
X111407Y125415
X93007Y122015
X91607Y121815
X101507Y123615
X76507Y126015
X69107Y97215
X69107Y102615
X115507Y102957
X99307Y102657
X83307Y124315
X96807Y124515
X83007Y114715
X68907Y114715
X79507Y114715
X76607Y124515
X76807Y113815
X71907Y102215
X71907Y114115
X99907Y102274
X81007Y124515
X81307Y121815
X71907Y97515
X96257Y124565
X115507Y99115
X80207Y116215
X80207Y127315
X116007Y127387
X89983Y111815
X89907Y126315
X89407Y126115
X89555Y113815
X95761Y121315
X90666Y121374
X90707Y88838
X64607Y99015
X66007Y125115
X83707Y121015
X79507Y121015
X82007Y117015
X79707Y116661
X81207Y109815
X82607Y103215
X65907Y102815
X65907Y109515
X83207Y97115
X82507Y103815
X81207Y107915
X82407Y107315
X75107Y107815
X74707Y114215
X90325Y106015
X90307Y123474
X98707Y123515
X97907Y123515
X67248Y122206
X68866Y104715
X82207Y99015
X77607Y99008
X79707Y117515
X66807Y123515
X97307Y123515
X68866Y103515
X98307Y121915
X65907Y121815
X68907Y95915
X83207Y101457
X64007Y101415
X110007Y99015
X85207Y119128
X86107Y96715
X92107Y93615
X64107Y91265
X65907Y95415
X65907Y108515
X114507Y95015
X65007Y95015
X65507Y107115
X115107Y94715
X75707Y126715
X116907Y126615
X116307Y120415
X79548Y121874
X79007Y121915
X81507Y108515
X64677Y108015
X79807Y110315
X64207Y109915
X68007Y119015
X64381Y120023
X64107Y116015
X68307Y121015
X62407Y118015
X62107Y124515
X100307Y125015
X66007Y120015
X66707Y93515
X97007Y88015
X67007Y113015
X91507Y112115
X85966Y113015
X69707Y126515
X69564Y113015
X67907Y125015
X95307Y125315
X95307Y121915
X71807Y125285
X86307Y108815
X86366Y115715
X82007Y105715
X82510Y110115
X90007Y96115
X74507Y121643
X78207Y121515
X83007Y111857
X79607Y118015
X78007Y114315
X72107Y118015
X72558Y111357
X75507Y114315
X75507Y111357
X78007Y111357
X62007Y102015
X85207Y119915
X86207Y97415
X108007Y99115
X84007Y121415
X75007Y121815
X83807Y122115
X75507Y122215
X72507Y117415
X72507Y118615
X88307Y111915
X71466Y110715
X71507Y106415
X88761Y123474
X88148Y100585
X88307Y123474
X67307Y123515
X68866Y106015
X86707Y123474
X86807Y103215
X87807Y123474
X88007Y98815
X87307Y123474
X87407Y105115
X89307Y123474
X68307Y123946
X68866Y109815
X41500Y146623
X43500Y146523
X46500Y146523
X22600Y158723
X31516Y163823
X21444Y167567
X14500Y140023
X20300Y140523
X39800Y167223
X31204Y165364
X8500Y161523
X10500Y158623
X15500Y160523
X16500Y160523
X16500Y161523
X15500Y161523
X12400Y164323
X12400Y164923
X8800Y166923
X11500Y169923
X19600Y169223
X23300Y167823
X26800Y163523
X25300Y162323
X28300Y160523
X21700Y157723
X7500Y159523
X3000Y165823
X4800Y165123
X6400Y138023
X9600Y138123
X23500Y138523
X24100Y137623
X28500Y140923
X29500Y146523
X31500Y146523
X32500Y142023
X36500Y145323
X38300Y145323
X41500Y142523
X43500Y142523
X46500Y142523
X48700Y139923
X51500Y142523
X48500Y135523
X42500Y135523
X37500Y136523
X34400Y131523
X15100Y143623
X15100Y145423
X16100Y145423
X16200Y143523
X17500Y143723
X19900Y147623
X17500Y147723
X16200Y147723
X15000Y147723
X31500Y162523
X47300Y167523
X47000Y167023
X48100Y166023
X48600Y165623
X50500Y165623
X51000Y166123
X51700Y167523
X51700Y166823
X51700Y168323
X48500Y164123
X50600Y164123
X51500Y164123
X52500Y164123
X53500Y164123
X54500Y164123
X54500Y162823
X46500Y164123
X44700Y164123
X43000Y164123
X41500Y164123
X39700Y164123
X38200Y164123
X36500Y164123
X35200Y164123
X33500Y164123
X32200Y164123
X32300Y162923
X32400Y162023
X32400Y160923
X32400Y159823
X32400Y159023
X32500Y148223
X32700Y147223
X34000Y146923
X35500Y146923
X36500Y146823
X37500Y146823
X38500Y146823
X39500Y146823
X40500Y146823
X44400Y146923
X46000Y146923
X50600Y146923
X41500Y16100
X52500Y147023
X53500Y147023
X54500Y147023
X54500Y147923
X49800Y150323
X47700Y150323
X45600Y150323
X43500Y150323
X41400Y150323
X39300Y150323
X37200Y150323
X35000Y150323
X52000Y150323
X49800Y161223
X47700Y161223
X45600Y161223
X43500Y161223
X41400Y161223
X39300Y161223
X37200Y161223
X35000Y161223
X52000Y161223
X49800Y160323
X47700Y160323
X45600Y160323
X43500Y160323
X41400Y160323
X39300Y160323
X37200Y160323
X35000Y160323
X52000Y160323
X49800Y159323
X47700Y159323
X45600Y159323
X43500Y159323
X41400Y159323
X39300Y159323
X37200Y159323
X35000Y159323
X52000Y159323
X49800Y158323
X47700Y158323
X45600Y158323
X43500Y158323
X41400Y158323
X39300Y158323
X37200Y158323
X35000Y158323
X52000Y158323
X49800Y157323
X47700Y157323
X45600Y157323
X43500Y157323
X41400Y157323
X39300Y157323
X37200Y157323
X35000Y157323
X52000Y157323
X49800Y156323
X47700Y156323
X45600Y156323
X43500Y156323
X41400Y156323
X39300Y156323
X37200Y156323
X35000Y156323
X52000Y156323
X49800Y155323
X47700Y155323
X45600Y155323
X43500Y155323
X41400Y155323
X39300Y155323
X37200Y155323
X35000Y155323
X52000Y155323
X49800Y154323
X47700Y154323
X45600Y154323
X43500Y154323
X41400Y154323
X39300Y154323
X37200Y154323
X35000Y154323
X52000Y154323
X49800Y153323
X47700Y153323
X45600Y153323
X43500Y153323
X41400Y153323
X39300Y153323
X37200Y153323
X35000Y153323
X52000Y153323
X49800Y152323
X47700Y152323
X45600Y152323
X43500Y152323
X41400Y152323
X39300Y152323
X37200Y152323
X35000Y152323
X52000Y152323
X49800Y151323
X47700Y151323
X45600Y151323
X43500Y151323
X41400Y151323
X39300Y151323
X37200Y151323
X35000Y151323
X52000Y151323
X49800Y149323
X47700Y149323
X45600Y149323
X43500Y149323
X41400Y149323
X39300Y149323
X37200Y149323
X35000Y149323
X52000Y149323
X49800Y161823
X47700Y161823
X45600Y161823
X43500Y161823
X41400Y161823
X39300Y161823
X37200Y161823
X35000Y161823
X52000Y161823
X34000Y147923
X35500Y147923
X51500Y148023
X52500Y148023
X53500Y148023
X35000Y163323
X34000Y163323
X33000Y163323
X52000Y163323
X53000Y163323
X54000Y163323
X46000Y168123
X44500Y168123
X42700Y168123
X44500Y166123
X45000Y167123
X43500Y167123
X43000Y166123
X42000Y165123
X40500Y165123
X46000Y166123
X54500Y165123
X52700Y165123
X51200Y165123
X57000Y168123
X54500Y168123
X53700Y168123
X52200Y168123
X54500Y167123
X52700Y167123
X54000Y166123
X52500Y166123
X57000Y166123
X38500Y142323
X35500Y134523
X34500Y134523
X36500Y134523
X33500Y134523
X33500Y133523
X33500Y132923
X47300Y168223
X47300Y168923
X48000Y168923
X48600Y168923
X50500Y168923
X51100Y169023
X51900Y168923
X33500Y165523
X32100Y165323
X42000Y167123
X17000Y169523
X9600Y140723
X9600Y146123
X56000Y146464
X39800Y146164
X23800Y167823
X37300Y168023
X23500Y158223
X9400Y158223
X20000Y158223
X17100Y168023
X17300Y157323
X12400Y145723
X12400Y157623
X40400Y145782
X21500Y168023
X21800Y165323
X12400Y141023
X36750Y168073
X56000Y142623
X20700Y159723
X20700Y170823
X56500Y170894
X30476Y155323
X30400Y169823
X29900Y169623
X30047Y157323
X36254Y164823
X31159Y164882
X31200Y132345
X5100Y142523
X6500Y168623
X24200Y164523
X20000Y164523
X22500Y160523
X20200Y160169
X21700Y153323
X23100Y146723
X6400Y146323
X6400Y153023
X23700Y140623
X23000Y147323
X21700Y151423
X22900Y150823
X15600Y151323
X15200Y157723
X30817Y149523
X30800Y166982
X39200Y167023
X38400Y167023
X7741Y165714
X9359Y148223
X22700Y142523
X18100Y142515
X20200Y161023
X7300Y167023
X37800Y167023
X9359Y147023
X38800Y165423
X6400Y165323
X9400Y139423
X23700Y144964
X4500Y144923
X50500Y142523
X25700Y162636
X26600Y140223
X32600Y137123
X4600Y134773
X6400Y138923
X6400Y152023
X55000Y138523
X5500Y138523
X6000Y150623
X55600Y138223
X16200Y170223
X57400Y170123
X56800Y163923
X20041Y165382
X19500Y165423
X22000Y152023
X5170Y151523
X20300Y153823
X4700Y153423
X8500Y162523
X4874Y163531
X4600Y159523
X8800Y164523
X2900Y161523
X2600Y168023
X40800Y168523
X6500Y163523
X7200Y137023
X37500Y131523
X7500Y156523
X32000Y155623
X26459Y156523
X10200Y170023
X10057Y156523
X8400Y168523
X35800Y168823
X35800Y165423
X12300Y168793
X26800Y152323
X26859Y159223
X22500Y149223
X23003Y153623
X30500Y139623
X15000Y165151
X18700Y165023
X23500Y155364
X20100Y161523
X18500Y157823
X12600Y161523
X13051Y154864
X16000Y157823
X16000Y154864
X18500Y154864
X2500Y145523
X25700Y163423
X26700Y140923
X48500Y142623
X24500Y164923
X15500Y165323
X24300Y165623
X16000Y165723
X13000Y160923
X13000Y162123
X28800Y155423
X11959Y154223
X12000Y149923
X29254Y166982
X28641Y144093
X28800Y166982
X7800Y167023
X9359Y149523
X27200Y166982
X27300Y146723
X28300Y166982
X28500Y142323
X27800Y166982
X27900Y148623
X29800Y166982
X8800Y167453
X9359Y153323
X101007Y146623
X103007Y146523
X106007Y146523
X82107Y158723
X91023Y163823
X80951Y167567
X74007Y140023
X79807Y140523
X99307Y167223
X90711Y165364
X68007Y161523
X70007Y158623
X75007Y160523
X76007Y160523
X76007Y161523
X75007Y161523
X71907Y164323
X71907Y164923
X68307Y166923
X71007Y169923
X79107Y169223
X82807Y167823
X86307Y163523
X84807Y162323
X87807Y160523
X81207Y157723
X67007Y159523
X62507Y165823
X64307Y165123
X65907Y138023
X69107Y138123
X83007Y138523
X83607Y137623
X88007Y140923
X89007Y146523
X91007Y146523
X92007Y142023
X96007Y145323
X97807Y145323
X101007Y142523
X103007Y142523
X106007Y142523
X108207Y139923
X111007Y142523
X108007Y135523
X102007Y135523
X97007Y136523
X93907Y131523
X74607Y143623
X74607Y145423
X75607Y145423
X75707Y143523
X77007Y143723
X79407Y147623
X77007Y147723
X75707Y147723
X74507Y147723
X91007Y162523
X106807Y167523
X106507Y167023
X107607Y166023
X108107Y165623
X110007Y165623
X110507Y166123
X111207Y167523
X111207Y166823
X111207Y168323
X108007Y164123
X110107Y164123
X111007Y164123
X112007Y164123
X113007Y164123
X114007Y164123
X114007Y162823
X106007Y164123
X104207Y164123
X102507Y164123
X101007Y164123
X99207Y164123
X97707Y164123
X96007Y164123
X94707Y164123
X93007Y164123
X91707Y164123
X91807Y162923
X91907Y162023
X91907Y160923
X91907Y159823
X91907Y159023
X92007Y148223
X92207Y147223
X93507Y146923
X95007Y146923
X96007Y146823
X97007Y146823
X98007Y146823
X99007Y146823
X100007Y146823
X103907Y146923
X105507Y146923
X110107Y146923
X111007Y147023
X112007Y147023
X113007Y147023
X114007Y147023
X114007Y147923
X109307Y150323
X107207Y150323
X105107Y150323
X103007Y150323
X100907Y150323
X98807Y150323
X96707Y150323
X94507Y150323
X111507Y150323
X109307Y161223
X107207Y161223
X105107Y161223
X51500Y147023
X100907Y161223
X98807Y161223
X96707Y161223
X94507Y161223
X111507Y161223
X109307Y160323
X107207Y160323
X105107Y160323
X103007Y160323
X100907Y160323
X98807Y160323
X96707Y160323
X94507Y160323
X111507Y160323
X109307Y159323
X107207Y159323
X105107Y159323
X103007Y159323
X100907Y159323
X98807Y159323
X96707Y159323
X94507Y159323
X111507Y159323
X109307Y158323
X107207Y158323
X105107Y158323
X103007Y158323
X100907Y158323
X98807Y158323
X96707Y158323
X94507Y158323
X111507Y158323
X109307Y157323
X107207Y157323
X105107Y157323
X103007Y157323
X100907Y157323
X98807Y157323
X96707Y157323
X94507Y157323
X111507Y157323
X109307Y156323
X107207Y156323
X105107Y156323
X103007Y156323
X100907Y156323
X98807Y156323
X96707Y156323
X94507Y156323
X111507Y156323
X109307Y155323
X107207Y155323
X105107Y155323
X103007Y155323
X100907Y155323
X98807Y155323
X96707Y155323
X94507Y155323
X111507Y155323
X109307Y154323
X107207Y154323
X105107Y154323
X103007Y154323
X100907Y154323
X98807Y154323
X96707Y154323
X94507Y154323
X111507Y154323
X109307Y153323
X107207Y153323
X105107Y153323
X103007Y153323
X100907Y153323
X98807Y153323
X96707Y153323
X94507Y153323
X111507Y153323
X109307Y152323
X107207Y152323
X105107Y152323
X103007Y152323
X100907Y152323
X98807Y152323
X96707Y152323
X94507Y152323
X111507Y152323
X109307Y151323
X107207Y151323
X105107Y151323
X103007Y151323
X100907Y151323
X98807Y151323
X96707Y151323
X94507Y151323
X111507Y151323
X109307Y149323
X107207Y149323
X105107Y149323
X103007Y149323
X100907Y149323
X98807Y149323
X96707Y149323
X94507Y149323
X111507Y149323
X109307Y161823
X107207Y161823
X105107Y161823
X103007Y161823
X100907Y161823
X98807Y161823
X96707Y161823
X94507Y161823
X111507Y161823
X93507Y147923
X95007Y147923
X111007Y148023
X112007Y148023
X113007Y148023
X94507Y163323
X93507Y163323
X92507Y163323
X111507Y163323
X112507Y163323
X113507Y163323
X105507Y168123
X104007Y168123
X102207Y168123
X104007Y166123
X104507Y167123
X103007Y167123
X102507Y166123
X101507Y165123
X100007Y165123
X105507Y166123
X114007Y165123
X112207Y165123
X110707Y165123
X116507Y168123
X114007Y168123
X113207Y168123
X111707Y168123
X114007Y167123
X112207Y167123
X113507Y166123
X112007Y166123
X116507Y166123
X98007Y142323
X95007Y134523
X94007Y134523
X96007Y134523
X93007Y134523
X93007Y133523
X93007Y132923
X106807Y168223
X106807Y168923
X107507Y168923
X108107Y168923
X110007Y168923
X110607Y169023
X111407Y168923
X93007Y165523
X91607Y165323
X101507Y167123
X76507Y169523
X69107Y140723
X69107Y146123
X115507Y146464
X99307Y146164
X83307Y167823
X96807Y168023
X83007Y158223
X68907Y158223
X79507Y158223
X76607Y168023
X76807Y157323
X71907Y145723
X71907Y157623
X99907Y145782
X81007Y168023
X81307Y165323
X71907Y141023
X96257Y168073
X115507Y142623
X80207Y159723
X80207Y170823
X116007Y170894
X89983Y155323
X89907Y169823
X89407Y169623
X89555Y157323
X95761Y164823
X90666Y164882
X90707Y132345
X64607Y142523
X66007Y168623
X83707Y164523
X79507Y164523
X82007Y160523
X79707Y160169
X81207Y153323
X82607Y146723
X65907Y146323
X65907Y153023
X83207Y140623
X82507Y147323
X81207Y151423
X82407Y150823
X75107Y151323
X74707Y157723
X90325Y149523
X90307Y166982
X98707Y167023
X97907Y167023
X67248Y165714
X68866Y148223
X82207Y142523
X77607Y142515
X79707Y161023
X66807Y167023
X97307Y167023
X68866Y147023
X98307Y165423
X65907Y165323
X68907Y139423
X83207Y144964
X64007Y144923
X110007Y142523
X85207Y162636
X86107Y140223
X92107Y137123
X64107Y134773
X65907Y138923
X65907Y152023
X114507Y138523
X65007Y138523
X65507Y150623
X115107Y138223
X75707Y170223
X116907Y170123
X116307Y163923
X79548Y165382
X79007Y165423
X81507Y152023
X64677Y151523
X79807Y153823
X64207Y153423
X68007Y162523
X64381Y163531
X64107Y159523
X68307Y164523
X62407Y161523
X62107Y168023
X100307Y168523
X66007Y163523
X66707Y137023
X97007Y131523
X67007Y156523
X91507Y155623
X85966Y156523
X69707Y170023
X69564Y156523
X67907Y168523
X95307Y168823
X95307Y165423
X71807Y168793
X86307Y152323
X86366Y159223
X82007Y149223
X82510Y153623
X90007Y139623
X74507Y165151
X78207Y165023
X83007Y155364
X79607Y161523
X78007Y157823
X72107Y161523
X72558Y154864
X75507Y157823
X75507Y154864
X78007Y154864
X62007Y145523
X85207Y163423
X86207Y140923
X108007Y142623
X84007Y164923
X75007Y165323
X83807Y165623
X75507Y165723
X72507Y160923
X72507Y162123
X88307Y155423
X71466Y154223
X71507Y149923
X88761Y166982
X88148Y144093
X88307Y166982
X67307Y167023
X68866Y149523
X86707Y166982
X86807Y146723
X87807Y166982
X88007Y142323
X87307Y166982
X87407Y148623
X89307Y166982
X68307Y167453
X68866Y153323
X43500Y16000
X46500Y16000
X22600Y28200
X31516Y33300
X21444Y37044
X14500Y9500
X20300Y10000
X39800Y36700
X31204Y34841
X8500Y31000
X10500Y28100
X15500Y30000
X16500Y30000
X16500Y31000
X15500Y31000
X12400Y33800
X12400Y34400
X8800Y36400
X11500Y39400
X19600Y38700
X23300Y37300
X26800Y33000
X25300Y31800
X28300Y30000
X21700Y27200
X7500Y29000
X3000Y35300
X4800Y34600
X6400Y7500
X9600Y7600
X23500Y8000
X24100Y7100
X28500Y10400
X29500Y16000
X31500Y16000
X32500Y11500
X36500Y14800
X38300Y14800
X41500Y12000
X43500Y12000
X46500Y12000
X48700Y9400
X51500Y12000
X48500Y5000
X42500Y5000
X37500Y6000
X34400Y1000
X15100Y13100
X15100Y14900
X16100Y14900
X16200Y13000
X17500Y13200
X19900Y17100
X17500Y17200
X16200Y17200
X15000Y17200
X31500Y32000
X47300Y37000
X47000Y36500
X48100Y35500
X48600Y35100
X50500Y35100
X51000Y35600
X51700Y37000
X51700Y36300
X51700Y37800
X48500Y33600
X50600Y33600
X51500Y33600
X52500Y33600
X53500Y33600
X54500Y33600
X54500Y32300
X46500Y33600
X44700Y33600
X43000Y33600
X41500Y33600
X39700Y33600
X38200Y33600
X36500Y33600
X35200Y33600
X33500Y33600
X32200Y33600
X32300Y32400
X32400Y31500
X32400Y30400
X32400Y29300
X32400Y28500
X32500Y17700
X32700Y16700
X34000Y16400
X35500Y16400
X36500Y16300
X37500Y16300
X38500Y16300
X39500Y16300
X40500Y16300
X44400Y16400
X46000Y16400
X50600Y16400
X51500Y16500
X52500Y16500
X53500Y16500
X54500Y16500
X54500Y17400
X49800Y19800
X47700Y19800
X45600Y19800
X43500Y19800
X41400Y19800
X39300Y19800
X37200Y19800
X35000Y19800
X52000Y19800
X49800Y30700
X47700Y30700
X45600Y30700
X43500Y30700
X41400Y30700
X39300Y30700
X37200Y30700
X35000Y30700
X52000Y30700
X49800Y29800
X47700Y29800
X45600Y29800
X43500Y29800
X41400Y29800
X39300Y29800
X37200Y29800
X35000Y29800
X52000Y29800
X49800Y28800
X47700Y28800
X45600Y28800
X103007Y161223
M30