G04 EAGLE Gerber RS-274X export*
G75*
%MOMM*%
%FSLAX34Y34*%
%LPD*%
%INSolderpaste Bottom*%
%IPPOS*%
%AMOC8*
5,1,8,0,0,1.08239X$1,22.5*%
G01*
%ADD10R,1.000000X1.100000*%
%ADD11R,0.550000X1.200000*%
%ADD12R,1.100000X1.000000*%
%ADD13R,0.600000X1.200000*%
%ADD14R,0.300000X0.660000*%
%ADD15R,0.637500X0.250000*%
%ADD16R,0.640000X0.500000*%
%ADD17R,4.600000X1.000000*%
%ADD18R,3.400000X1.600000*%
%ADD19R,0.250000X0.875000*%
%ADD20R,0.550000X0.800000*%
%ADD21R,0.830000X0.630000*%
%ADD22R,0.750000X0.700000*%
%ADD23R,0.900000X0.280000*%
%ADD24R,1.300000X1.300000*%
%ADD25R,0.280000X0.900000*%
%ADD26R,2.000000X1.200000*%
%ADD27R,1.350000X0.600000*%


D10*
X295000Y91500D03*
X295000Y108500D03*
X275000Y108500D03*
X275000Y91500D03*
D11*
X315500Y133001D03*
X325000Y133001D03*
X334500Y133001D03*
X334500Y106999D03*
X315500Y106999D03*
D12*
X333500Y150000D03*
X316500Y150000D03*
D10*
X275000Y131500D03*
X275000Y148500D03*
X295000Y131500D03*
X295000Y148500D03*
X189000Y148500D03*
X189000Y131500D03*
D13*
X210550Y228000D03*
X223250Y228000D03*
X235950Y228000D03*
X248650Y228000D03*
X261350Y228000D03*
X274050Y228000D03*
X286750Y228000D03*
X299450Y228000D03*
X299450Y172000D03*
X286750Y172000D03*
X274050Y172000D03*
X261350Y172000D03*
X248650Y172000D03*
X235950Y172000D03*
X223250Y172000D03*
X210550Y172000D03*
D10*
X255000Y131500D03*
X255000Y148500D03*
X205000Y148500D03*
X205000Y131500D03*
D14*
X218500Y149200D03*
X225000Y130800D03*
X231500Y130800D03*
X218500Y130800D03*
X225000Y149200D03*
X231500Y149200D03*
D10*
X225000Y251500D03*
X225000Y268500D03*
D15*
X374813Y122500D03*
X395188Y127500D03*
X395188Y122500D03*
X395188Y132500D03*
X395188Y137500D03*
X374813Y127500D03*
X374813Y132500D03*
X374813Y137500D03*
D16*
X385000Y133400D03*
X385000Y126600D03*
D10*
X355000Y121500D03*
X355000Y138500D03*
D12*
X316500Y75000D03*
X333500Y75000D03*
X364500Y78000D03*
X381500Y78000D03*
D10*
X385000Y31500D03*
X385000Y48500D03*
D17*
X418000Y90000D03*
X418000Y110000D03*
D18*
X470000Y66000D03*
X470000Y134000D03*
D19*
X365000Y19375D03*
X360000Y19375D03*
X355000Y19375D03*
X350000Y19375D03*
X345000Y19375D03*
X345000Y60625D03*
X350000Y60625D03*
X355000Y60625D03*
X360000Y60625D03*
X365000Y60625D03*
D10*
X35600Y59500D03*
X35600Y42500D03*
D12*
X333500Y90000D03*
X316500Y90000D03*
D10*
X35600Y9500D03*
X35600Y26500D03*
D12*
X176500Y90000D03*
X193500Y90000D03*
X176500Y110000D03*
X193500Y110000D03*
D20*
X45500Y302000D03*
X55000Y302000D03*
X64500Y302000D03*
X64500Y278000D03*
X45500Y278000D03*
X55000Y278000D03*
D12*
X63500Y260000D03*
X46500Y260000D03*
X46500Y240000D03*
X63500Y240000D03*
D10*
X28000Y258500D03*
X28000Y241500D03*
D21*
X29000Y301500D03*
X29000Y278500D03*
D10*
X40000Y338500D03*
X40000Y321500D03*
X40000Y378500D03*
X40000Y361500D03*
D12*
X73500Y320000D03*
X56500Y320000D03*
X73500Y340000D03*
X56500Y340000D03*
D21*
X56000Y358500D03*
X56000Y381500D03*
X75000Y358500D03*
X75000Y381500D03*
D12*
X293500Y330000D03*
X276500Y330000D03*
X276500Y350000D03*
X293500Y350000D03*
D11*
X294500Y286999D03*
X285000Y286999D03*
X275500Y286999D03*
X275500Y313001D03*
X294500Y313001D03*
D10*
X315000Y291500D03*
X315000Y308500D03*
X225000Y371500D03*
X225000Y388500D03*
D22*
X148250Y380000D03*
X161750Y380000D03*
X161750Y390000D03*
X148250Y390000D03*
D23*
X192500Y330000D03*
D24*
X173000Y318000D03*
X157000Y318000D03*
X173000Y302000D03*
X157000Y302000D03*
D23*
X192500Y325000D03*
X192500Y320000D03*
X192500Y315000D03*
X192500Y310000D03*
X192500Y305000D03*
X192500Y300000D03*
X192500Y295000D03*
X192500Y290000D03*
D25*
X185000Y282500D03*
X180000Y282500D03*
X175000Y282500D03*
X170000Y282500D03*
X165000Y282500D03*
X160000Y282500D03*
X155000Y282500D03*
X150000Y282500D03*
X145000Y282500D03*
D23*
X137500Y290000D03*
X137500Y295000D03*
X137500Y300000D03*
X137500Y305000D03*
X137500Y310000D03*
X137500Y315000D03*
X137500Y320000D03*
X137500Y325000D03*
X137500Y330000D03*
D25*
X145000Y337500D03*
X150000Y337500D03*
X155000Y337500D03*
X160000Y337500D03*
X165000Y337500D03*
X170000Y337500D03*
X175000Y337500D03*
X180000Y337500D03*
X185000Y337500D03*
D12*
X146500Y368000D03*
X163500Y368000D03*
D10*
X179000Y388500D03*
X179000Y371500D03*
X131000Y388500D03*
X131000Y371500D03*
D12*
X96500Y385000D03*
X113500Y385000D03*
X96500Y295000D03*
X113500Y295000D03*
D10*
X205000Y371500D03*
X205000Y388500D03*
D12*
X163500Y260000D03*
X146500Y260000D03*
X113500Y325000D03*
X96500Y325000D03*
X113500Y310000D03*
X96500Y310000D03*
D26*
X118250Y72000D03*
X118250Y128000D03*
D27*
X155000Y85000D03*
X155000Y95000D03*
X155000Y105000D03*
X155000Y115000D03*
D12*
X96500Y355000D03*
X113500Y355000D03*
X113500Y340000D03*
X96500Y340000D03*
X209500Y335000D03*
X226500Y335000D03*
X209500Y351000D03*
X226500Y351000D03*
X113500Y370000D03*
X96500Y370000D03*
D10*
X890071Y91500D03*
X890071Y108500D03*
X870071Y108500D03*
X870071Y91500D03*
D11*
X910571Y133001D03*
X920071Y133001D03*
X929571Y133001D03*
X929571Y106999D03*
X910571Y106999D03*
D12*
X928571Y150000D03*
X911571Y150000D03*
D10*
X870071Y131500D03*
X870071Y148500D03*
X890071Y131500D03*
X890071Y148500D03*
X784071Y148500D03*
X784071Y131500D03*
D13*
X805621Y228000D03*
X818321Y228000D03*
X831021Y228000D03*
X843721Y228000D03*
X856421Y228000D03*
X869121Y228000D03*
X881821Y228000D03*
X894521Y228000D03*
X894521Y172000D03*
X881821Y172000D03*
X869121Y172000D03*
X856421Y172000D03*
X843721Y172000D03*
X831021Y172000D03*
X818321Y172000D03*
X805621Y172000D03*
D10*
X850071Y131500D03*
X850071Y148500D03*
X800071Y148500D03*
X800071Y131500D03*
D14*
X813571Y149200D03*
X820071Y130800D03*
X826571Y130800D03*
X813571Y130800D03*
X820071Y149200D03*
X826571Y149200D03*
D10*
X820071Y251500D03*
X820071Y268500D03*
D15*
X969884Y122500D03*
X990259Y127500D03*
X990259Y122500D03*
X990259Y132500D03*
X990259Y137500D03*
X969884Y127500D03*
X969884Y132500D03*
X969884Y137500D03*
D16*
X980071Y133400D03*
X980071Y126600D03*
D10*
X950071Y121500D03*
X950071Y138500D03*
D12*
X911571Y75000D03*
X928571Y75000D03*
X959571Y78000D03*
X976571Y78000D03*
D10*
X980071Y31500D03*
X980071Y48500D03*
D17*
X1013071Y90000D03*
X1013071Y110000D03*
D18*
X1065071Y66000D03*
X1065071Y134000D03*
D19*
X960071Y19375D03*
X955071Y19375D03*
X950071Y19375D03*
X945071Y19375D03*
X940071Y19375D03*
X940071Y60625D03*
X945071Y60625D03*
X950071Y60625D03*
X955071Y60625D03*
X960071Y60625D03*
D10*
X630671Y59500D03*
X630671Y42500D03*
D12*
X928571Y90000D03*
X911571Y90000D03*
D10*
X630671Y9500D03*
X630671Y26500D03*
D12*
X771571Y90000D03*
X788571Y90000D03*
X771571Y110000D03*
X788571Y110000D03*
D20*
X640571Y302000D03*
X650071Y302000D03*
X659571Y302000D03*
X659571Y278000D03*
X640571Y278000D03*
X650071Y278000D03*
D12*
X658571Y260000D03*
X641571Y260000D03*
X641571Y240000D03*
X658571Y240000D03*
D10*
X623071Y258500D03*
X623071Y241500D03*
D21*
X624071Y301500D03*
X624071Y278500D03*
D10*
X635071Y338500D03*
X635071Y321500D03*
X635071Y378500D03*
X635071Y361500D03*
D12*
X668571Y320000D03*
X651571Y320000D03*
X668571Y340000D03*
X651571Y340000D03*
D21*
X651071Y358500D03*
X651071Y381500D03*
X670071Y358500D03*
X670071Y381500D03*
D12*
X888571Y330000D03*
X871571Y330000D03*
X871571Y350000D03*
X888571Y350000D03*
D11*
X889571Y286999D03*
X880071Y286999D03*
X870571Y286999D03*
X870571Y313001D03*
X889571Y313001D03*
D10*
X910071Y291500D03*
X910071Y308500D03*
X820071Y371500D03*
X820071Y388500D03*
D22*
X743321Y380000D03*
X756821Y380000D03*
X756821Y390000D03*
X743321Y390000D03*
D23*
X787571Y330000D03*
D24*
X768071Y318000D03*
X752071Y318000D03*
X768071Y302000D03*
X752071Y302000D03*
D23*
X787571Y325000D03*
X787571Y320000D03*
X787571Y315000D03*
X787571Y310000D03*
X787571Y305000D03*
X787571Y300000D03*
X787571Y295000D03*
X787571Y290000D03*
D25*
X780071Y282500D03*
X775071Y282500D03*
X770071Y282500D03*
X765071Y282500D03*
X760071Y282500D03*
X755071Y282500D03*
X750071Y282500D03*
X745071Y282500D03*
X740071Y282500D03*
D23*
X732571Y290000D03*
X732571Y295000D03*
X732571Y300000D03*
X732571Y305000D03*
X732571Y310000D03*
X732571Y315000D03*
X732571Y320000D03*
X732571Y325000D03*
X732571Y330000D03*
D25*
X740071Y337500D03*
X745071Y337500D03*
X750071Y337500D03*
X755071Y337500D03*
X760071Y337500D03*
X765071Y337500D03*
X770071Y337500D03*
X775071Y337500D03*
X780071Y337500D03*
D12*
X741571Y368000D03*
X758571Y368000D03*
D10*
X774071Y388500D03*
X774071Y371500D03*
X726071Y388500D03*
X726071Y371500D03*
D12*
X691571Y385000D03*
X708571Y385000D03*
X691571Y295000D03*
X708571Y295000D03*
D10*
X800071Y371500D03*
X800071Y388500D03*
D12*
X758571Y260000D03*
X741571Y260000D03*
X708571Y325000D03*
X691571Y325000D03*
X708571Y310000D03*
X691571Y310000D03*
D26*
X713321Y72000D03*
X713321Y128000D03*
D27*
X750071Y85000D03*
X750071Y95000D03*
X750071Y105000D03*
X750071Y115000D03*
D12*
X691571Y355000D03*
X708571Y355000D03*
X708571Y340000D03*
X691571Y340000D03*
X804571Y335000D03*
X821571Y335000D03*
X804571Y351000D03*
X821571Y351000D03*
X708571Y370000D03*
X691571Y370000D03*
D10*
X295000Y526577D03*
X295000Y543577D03*
X275000Y543577D03*
X275000Y526577D03*
D11*
X315500Y568078D03*
X325000Y568078D03*
X334500Y568078D03*
X334500Y542076D03*
X315500Y542076D03*
D12*
X333500Y585077D03*
X316500Y585077D03*
D10*
X275000Y566577D03*
X275000Y583577D03*
X295000Y566577D03*
X295000Y583577D03*
X189000Y583577D03*
X189000Y566577D03*
D13*
X210550Y663077D03*
X223250Y663077D03*
X235950Y663077D03*
X248650Y663077D03*
X261350Y663077D03*
X274050Y663077D03*
X286750Y663077D03*
X299450Y663077D03*
X299450Y607077D03*
X286750Y607077D03*
X274050Y607077D03*
X261350Y607077D03*
X248650Y607077D03*
X235950Y607077D03*
X223250Y607077D03*
X210550Y607077D03*
D10*
X255000Y566577D03*
X255000Y583577D03*
X205000Y583577D03*
X205000Y566577D03*
D14*
X218500Y584277D03*
X225000Y565877D03*
X231500Y565877D03*
X218500Y565877D03*
X225000Y584277D03*
X231500Y584277D03*
D10*
X225000Y686577D03*
X225000Y703577D03*
D15*
X374813Y557577D03*
X395188Y562577D03*
X395188Y557577D03*
X395188Y567577D03*
X395188Y572577D03*
X374813Y562577D03*
X374813Y567577D03*
X374813Y572577D03*
D16*
X385000Y568477D03*
X385000Y561677D03*
D10*
X355000Y556577D03*
X355000Y573577D03*
D12*
X316500Y510077D03*
X333500Y510077D03*
X364500Y513077D03*
X381500Y513077D03*
D10*
X385000Y466577D03*
X385000Y483577D03*
D17*
X418000Y525077D03*
X418000Y545077D03*
D18*
X470000Y501077D03*
X470000Y569077D03*
D19*
X365000Y454452D03*
X360000Y454452D03*
X355000Y454452D03*
X350000Y454452D03*
X345000Y454452D03*
X345000Y495702D03*
X350000Y495702D03*
X355000Y495702D03*
X360000Y495702D03*
X365000Y495702D03*
D10*
X35600Y494577D03*
X35600Y477577D03*
D12*
X333500Y525077D03*
X316500Y525077D03*
D10*
X35600Y444577D03*
X35600Y461577D03*
D12*
X176500Y525077D03*
X193500Y525077D03*
X176500Y545077D03*
X193500Y545077D03*
D20*
X45500Y737077D03*
X55000Y737077D03*
X64500Y737077D03*
X64500Y713077D03*
X45500Y713077D03*
X55000Y713077D03*
D12*
X63500Y695077D03*
X46500Y695077D03*
X46500Y675077D03*
X63500Y675077D03*
D10*
X28000Y693577D03*
X28000Y676577D03*
D21*
X29000Y736577D03*
X29000Y713577D03*
D10*
X40000Y773577D03*
X40000Y756577D03*
X40000Y813577D03*
X40000Y796577D03*
D12*
X73500Y755077D03*
X56500Y755077D03*
X73500Y775077D03*
X56500Y775077D03*
D21*
X56000Y793577D03*
X56000Y816577D03*
X75000Y793577D03*
X75000Y816577D03*
D12*
X293500Y765077D03*
X276500Y765077D03*
X276500Y785077D03*
X293500Y785077D03*
D11*
X294500Y722076D03*
X285000Y722076D03*
X275500Y722076D03*
X275500Y748078D03*
X294500Y748078D03*
D10*
X315000Y726577D03*
X315000Y743577D03*
X225000Y806577D03*
X225000Y823577D03*
D22*
X148250Y815077D03*
X161750Y815077D03*
X161750Y825077D03*
X148250Y825077D03*
D23*
X192500Y765077D03*
D24*
X173000Y753077D03*
X157000Y753077D03*
X173000Y737077D03*
X157000Y737077D03*
D23*
X192500Y760077D03*
X192500Y755077D03*
X192500Y750077D03*
X192500Y745077D03*
X192500Y740077D03*
X192500Y735077D03*
X192500Y730077D03*
X192500Y725077D03*
D25*
X185000Y717577D03*
X180000Y717577D03*
X175000Y717577D03*
X170000Y717577D03*
X165000Y717577D03*
X160000Y717577D03*
X155000Y717577D03*
X150000Y717577D03*
X145000Y717577D03*
D23*
X137500Y725077D03*
X137500Y730077D03*
X137500Y735077D03*
X137500Y740077D03*
X137500Y745077D03*
X137500Y750077D03*
X137500Y755077D03*
X137500Y760077D03*
X137500Y765077D03*
D25*
X145000Y772577D03*
X150000Y772577D03*
X155000Y772577D03*
X160000Y772577D03*
X165000Y772577D03*
X170000Y772577D03*
X175000Y772577D03*
X180000Y772577D03*
X185000Y772577D03*
D12*
X146500Y803077D03*
X163500Y803077D03*
D10*
X179000Y823577D03*
X179000Y806577D03*
X131000Y823577D03*
X131000Y806577D03*
D12*
X96500Y820077D03*
X113500Y820077D03*
X96500Y730077D03*
X113500Y730077D03*
D10*
X205000Y806577D03*
X205000Y823577D03*
D12*
X163500Y695077D03*
X146500Y695077D03*
X113500Y760077D03*
X96500Y760077D03*
X113500Y745077D03*
X96500Y745077D03*
D26*
X118250Y507077D03*
X118250Y563077D03*
D27*
X155000Y520077D03*
X155000Y530077D03*
X155000Y540077D03*
X155000Y550077D03*
D12*
X96500Y790077D03*
X113500Y790077D03*
X113500Y775077D03*
X96500Y775077D03*
X209500Y770077D03*
X226500Y770077D03*
X209500Y786077D03*
X226500Y786077D03*
X113500Y805077D03*
X96500Y805077D03*
D10*
X890071Y526577D03*
X890071Y543577D03*
X870071Y543577D03*
X870071Y526577D03*
D11*
X910571Y568078D03*
X920071Y568078D03*
X929571Y568078D03*
X929571Y542076D03*
X910571Y542076D03*
D12*
X928571Y585077D03*
X911571Y585077D03*
D10*
X870071Y566577D03*
X870071Y583577D03*
X890071Y566577D03*
X890071Y583577D03*
X784071Y583577D03*
X784071Y566577D03*
D13*
X805621Y663077D03*
X818321Y663077D03*
X831021Y663077D03*
X843721Y663077D03*
X856421Y663077D03*
X869121Y663077D03*
X881821Y663077D03*
X894521Y663077D03*
X894521Y607077D03*
X881821Y607077D03*
X869121Y607077D03*
X856421Y607077D03*
X843721Y607077D03*
X831021Y607077D03*
X818321Y607077D03*
X805621Y607077D03*
D10*
X850071Y566577D03*
X850071Y583577D03*
X800071Y583577D03*
X800071Y566577D03*
D14*
X813571Y584277D03*
X820071Y565877D03*
X826571Y565877D03*
X813571Y565877D03*
X820071Y584277D03*
X826571Y584277D03*
D10*
X820071Y686577D03*
X820071Y703577D03*
D15*
X969884Y557577D03*
X990259Y562577D03*
X990259Y557577D03*
X990259Y567577D03*
X990259Y572577D03*
X969884Y562577D03*
X969884Y567577D03*
X969884Y572577D03*
D16*
X980071Y568477D03*
X980071Y561677D03*
D10*
X950071Y556577D03*
X950071Y573577D03*
D12*
X911571Y510077D03*
X928571Y510077D03*
X959571Y513077D03*
X976571Y513077D03*
D10*
X980071Y466577D03*
X980071Y483577D03*
D17*
X1013071Y525077D03*
X1013071Y545077D03*
D18*
X1065071Y501077D03*
X1065071Y569077D03*
D19*
X960071Y454452D03*
X955071Y454452D03*
X950071Y454452D03*
X945071Y454452D03*
X940071Y454452D03*
X940071Y495702D03*
X945071Y495702D03*
X950071Y495702D03*
X955071Y495702D03*
X960071Y495702D03*
D10*
X630671Y494577D03*
X630671Y477577D03*
D12*
X928571Y525077D03*
X911571Y525077D03*
D10*
X630671Y444577D03*
X630671Y461577D03*
D12*
X771571Y525077D03*
X788571Y525077D03*
X771571Y545077D03*
X788571Y545077D03*
D20*
X640571Y737077D03*
X650071Y737077D03*
X659571Y737077D03*
X659571Y713077D03*
X640571Y713077D03*
X650071Y713077D03*
D12*
X658571Y695077D03*
X641571Y695077D03*
X641571Y675077D03*
X658571Y675077D03*
D10*
X623071Y693577D03*
X623071Y676577D03*
D21*
X624071Y736577D03*
X624071Y713577D03*
D10*
X635071Y773577D03*
X635071Y756577D03*
X635071Y813577D03*
X635071Y796577D03*
D12*
X668571Y755077D03*
X651571Y755077D03*
X668571Y775077D03*
X651571Y775077D03*
D21*
X651071Y793577D03*
X651071Y816577D03*
X670071Y793577D03*
X670071Y816577D03*
D12*
X888571Y765077D03*
X871571Y765077D03*
X871571Y785077D03*
X888571Y785077D03*
D11*
X889571Y722076D03*
X880071Y722076D03*
X870571Y722076D03*
X870571Y748078D03*
X889571Y748078D03*
D10*
X910071Y726577D03*
X910071Y743577D03*
X820071Y806577D03*
X820071Y823577D03*
D22*
X743321Y815077D03*
X756821Y815077D03*
X756821Y825077D03*
X743321Y825077D03*
D23*
X787571Y765077D03*
D24*
X768071Y753077D03*
X752071Y753077D03*
X768071Y737077D03*
X752071Y737077D03*
D23*
X787571Y760077D03*
X787571Y755077D03*
X787571Y750077D03*
X787571Y745077D03*
X787571Y740077D03*
X787571Y735077D03*
X787571Y730077D03*
X787571Y725077D03*
D25*
X780071Y717577D03*
X775071Y717577D03*
X770071Y717577D03*
X765071Y717577D03*
X760071Y717577D03*
X755071Y717577D03*
X750071Y717577D03*
X745071Y717577D03*
X740071Y717577D03*
D23*
X732571Y725077D03*
X732571Y730077D03*
X732571Y735077D03*
X732571Y740077D03*
X732571Y745077D03*
X732571Y750077D03*
X732571Y755077D03*
X732571Y760077D03*
X732571Y765077D03*
D25*
X740071Y772577D03*
X745071Y772577D03*
X750071Y772577D03*
X755071Y772577D03*
X760071Y772577D03*
X765071Y772577D03*
X770071Y772577D03*
X775071Y772577D03*
X780071Y772577D03*
D12*
X741571Y803077D03*
X758571Y803077D03*
D10*
X774071Y823577D03*
X774071Y806577D03*
X726071Y823577D03*
X726071Y806577D03*
D12*
X691571Y820077D03*
X708571Y820077D03*
X691571Y730077D03*
X708571Y730077D03*
D10*
X800071Y806577D03*
X800071Y823577D03*
D12*
X758571Y695077D03*
X741571Y695077D03*
X708571Y760077D03*
X691571Y760077D03*
X708571Y745077D03*
X691571Y745077D03*
D26*
X713321Y507077D03*
X713321Y563077D03*
D27*
X750071Y520077D03*
X750071Y530077D03*
X750071Y540077D03*
X750071Y550077D03*
D12*
X691571Y790077D03*
X708571Y790077D03*
X708571Y775077D03*
X691571Y775077D03*
X804571Y770077D03*
X821571Y770077D03*
X804571Y786077D03*
X821571Y786077D03*
X708571Y805077D03*
X691571Y805077D03*
D10*
X295000Y961653D03*
X295000Y978653D03*
X275000Y978653D03*
X275000Y961653D03*
D11*
X315500Y1003154D03*
X325000Y1003154D03*
X334500Y1003154D03*
X334500Y977152D03*
X315500Y977152D03*
D12*
X333500Y1020153D03*
X316500Y1020153D03*
D10*
X275000Y1001653D03*
X275000Y1018653D03*
X295000Y1001653D03*
X295000Y1018653D03*
X189000Y1018653D03*
X189000Y1001653D03*
D13*
X210550Y1098153D03*
X223250Y1098153D03*
X235950Y1098153D03*
X248650Y1098153D03*
X261350Y1098153D03*
X274050Y1098153D03*
X286750Y1098153D03*
X299450Y1098153D03*
X299450Y1042153D03*
X286750Y1042153D03*
X274050Y1042153D03*
X261350Y1042153D03*
X248650Y1042153D03*
X235950Y1042153D03*
X223250Y1042153D03*
X210550Y1042153D03*
D10*
X255000Y1001653D03*
X255000Y1018653D03*
X205000Y1018653D03*
X205000Y1001653D03*
D14*
X218500Y1019353D03*
X225000Y1000953D03*
X231500Y1000953D03*
X218500Y1000953D03*
X225000Y1019353D03*
X231500Y1019353D03*
D10*
X225000Y1121653D03*
X225000Y1138653D03*
D15*
X374813Y992653D03*
X395188Y997653D03*
X395188Y992653D03*
X395188Y1002653D03*
X395188Y1007653D03*
X374813Y997653D03*
X374813Y1002653D03*
X374813Y1007653D03*
D16*
X385000Y1003553D03*
X385000Y996753D03*
D10*
X355000Y991653D03*
X355000Y1008653D03*
D12*
X316500Y945153D03*
X333500Y945153D03*
X364500Y948153D03*
X381500Y948153D03*
D10*
X385000Y901653D03*
X385000Y918653D03*
D17*
X418000Y960153D03*
X418000Y980153D03*
D18*
X470000Y936153D03*
X470000Y1004153D03*
D19*
X365000Y889528D03*
X360000Y889528D03*
X355000Y889528D03*
X350000Y889528D03*
X345000Y889528D03*
X345000Y930778D03*
X350000Y930778D03*
X355000Y930778D03*
X360000Y930778D03*
X365000Y930778D03*
D10*
X35600Y929653D03*
X35600Y912653D03*
D12*
X333500Y960153D03*
X316500Y960153D03*
D10*
X35600Y879653D03*
X35600Y896653D03*
D12*
X176500Y960153D03*
X193500Y960153D03*
X176500Y980153D03*
X193500Y980153D03*
D20*
X45500Y1172153D03*
X55000Y1172153D03*
X64500Y1172153D03*
X64500Y1148153D03*
X45500Y1148153D03*
X55000Y1148153D03*
D12*
X63500Y1130153D03*
X46500Y1130153D03*
X46500Y1110153D03*
X63500Y1110153D03*
D10*
X28000Y1128653D03*
X28000Y1111653D03*
D21*
X29000Y1171653D03*
X29000Y1148653D03*
D10*
X40000Y1208653D03*
X40000Y1191653D03*
X40000Y1248653D03*
X40000Y1231653D03*
D12*
X73500Y1190153D03*
X56500Y1190153D03*
X73500Y1210153D03*
X56500Y1210153D03*
D21*
X56000Y1228653D03*
X56000Y1251653D03*
X75000Y1228653D03*
X75000Y1251653D03*
D12*
X293500Y1200153D03*
X276500Y1200153D03*
X276500Y1220153D03*
X293500Y1220153D03*
D11*
X294500Y1157152D03*
X285000Y1157152D03*
X275500Y1157152D03*
X275500Y1183154D03*
X294500Y1183154D03*
D10*
X315000Y1161653D03*
X315000Y1178653D03*
X225000Y1241653D03*
X225000Y1258653D03*
D22*
X148250Y1250153D03*
X161750Y1250153D03*
X161750Y1260153D03*
X148250Y1260153D03*
D23*
X192500Y1200153D03*
D24*
X173000Y1188153D03*
X157000Y1188153D03*
X173000Y1172153D03*
X157000Y1172153D03*
D23*
X192500Y1195153D03*
X192500Y1190153D03*
X192500Y1185153D03*
X192500Y1180153D03*
X192500Y1175153D03*
X192500Y1170153D03*
X192500Y1165153D03*
X192500Y1160153D03*
D25*
X185000Y1152653D03*
X180000Y1152653D03*
X175000Y1152653D03*
X170000Y1152653D03*
X165000Y1152653D03*
X160000Y1152653D03*
X155000Y1152653D03*
X150000Y1152653D03*
X145000Y1152653D03*
D23*
X137500Y1160153D03*
X137500Y1165153D03*
X137500Y1170153D03*
X137500Y1175153D03*
X137500Y1180153D03*
X137500Y1185153D03*
X137500Y1190153D03*
X137500Y1195153D03*
X137500Y1200153D03*
D25*
X145000Y1207653D03*
X150000Y1207653D03*
X155000Y1207653D03*
X160000Y1207653D03*
X165000Y1207653D03*
X170000Y1207653D03*
X175000Y1207653D03*
X180000Y1207653D03*
X185000Y1207653D03*
D12*
X146500Y1238153D03*
X163500Y1238153D03*
D10*
X179000Y1258653D03*
X179000Y1241653D03*
X131000Y1258653D03*
X131000Y1241653D03*
D12*
X96500Y1255153D03*
X113500Y1255153D03*
X96500Y1165153D03*
X113500Y1165153D03*
D10*
X205000Y1241653D03*
X205000Y1258653D03*
D12*
X163500Y1130153D03*
X146500Y1130153D03*
X113500Y1195153D03*
X96500Y1195153D03*
X113500Y1180153D03*
X96500Y1180153D03*
D26*
X118250Y942153D03*
X118250Y998153D03*
D27*
X155000Y955153D03*
X155000Y965153D03*
X155000Y975153D03*
X155000Y985153D03*
D12*
X96500Y1225153D03*
X113500Y1225153D03*
X113500Y1210153D03*
X96500Y1210153D03*
X209500Y1205153D03*
X226500Y1205153D03*
X209500Y1221153D03*
X226500Y1221153D03*
X113500Y1240153D03*
X96500Y1240153D03*
D10*
X890071Y961653D03*
X890071Y978653D03*
X870071Y978653D03*
X870071Y961653D03*
D11*
X910571Y1003154D03*
X920071Y1003154D03*
X929571Y1003154D03*
X929571Y977152D03*
X910571Y977152D03*
D12*
X928571Y1020153D03*
X911571Y1020153D03*
D10*
X870071Y1001653D03*
X870071Y1018653D03*
X890071Y1001653D03*
X890071Y1018653D03*
X784071Y1018653D03*
X784071Y1001653D03*
D13*
X805621Y1098153D03*
X818321Y1098153D03*
X831021Y1098153D03*
X843721Y1098153D03*
X856421Y1098153D03*
X869121Y1098153D03*
X881821Y1098153D03*
X894521Y1098153D03*
X894521Y1042153D03*
X881821Y1042153D03*
X869121Y1042153D03*
X856421Y1042153D03*
X843721Y1042153D03*
X831021Y1042153D03*
X818321Y1042153D03*
X805621Y1042153D03*
D10*
X850071Y1001653D03*
X850071Y1018653D03*
X800071Y1018653D03*
X800071Y1001653D03*
D14*
X813571Y1019353D03*
X820071Y1000953D03*
X826571Y1000953D03*
X813571Y1000953D03*
X820071Y1019353D03*
X826571Y1019353D03*
D10*
X820071Y1121653D03*
X820071Y1138653D03*
D15*
X969884Y992653D03*
X990259Y997653D03*
X990259Y992653D03*
X990259Y1002653D03*
X990259Y1007653D03*
X969884Y997653D03*
X969884Y1002653D03*
X969884Y1007653D03*
D16*
X980071Y1003553D03*
X980071Y996753D03*
D10*
X950071Y991653D03*
X950071Y1008653D03*
D12*
X911571Y945153D03*
X928571Y945153D03*
X959571Y948153D03*
X976571Y948153D03*
D10*
X980071Y901653D03*
X980071Y918653D03*
D17*
X1013071Y960153D03*
X1013071Y980153D03*
D18*
X1065071Y936153D03*
X1065071Y1004153D03*
D19*
X960071Y889528D03*
X955071Y889528D03*
X950071Y889528D03*
X945071Y889528D03*
X940071Y889528D03*
X940071Y930778D03*
X945071Y930778D03*
X950071Y930778D03*
X955071Y930778D03*
X960071Y930778D03*
D10*
X630671Y929653D03*
X630671Y912653D03*
D12*
X928571Y960153D03*
X911571Y960153D03*
D10*
X630671Y879653D03*
X630671Y896653D03*
D12*
X771571Y960153D03*
X788571Y960153D03*
X771571Y980153D03*
X788571Y980153D03*
D20*
X640571Y1172153D03*
X650071Y1172153D03*
X659571Y1172153D03*
X659571Y1148153D03*
X640571Y1148153D03*
X650071Y1148153D03*
D12*
X658571Y1130153D03*
X641571Y1130153D03*
X641571Y1110153D03*
X658571Y1110153D03*
D10*
X623071Y1128653D03*
X623071Y1111653D03*
D21*
X624071Y1171653D03*
X624071Y1148653D03*
D10*
X635071Y1208653D03*
X635071Y1191653D03*
X635071Y1248653D03*
X635071Y1231653D03*
D12*
X668571Y1190153D03*
X651571Y1190153D03*
X668571Y1210153D03*
X651571Y1210153D03*
D21*
X651071Y1228653D03*
X651071Y1251653D03*
X670071Y1228653D03*
X670071Y1251653D03*
D12*
X888571Y1200153D03*
X871571Y1200153D03*
X871571Y1220153D03*
X888571Y1220153D03*
D11*
X889571Y1157152D03*
X880071Y1157152D03*
X870571Y1157152D03*
X870571Y1183154D03*
X889571Y1183154D03*
D10*
X910071Y1161653D03*
X910071Y1178653D03*
X820071Y1241653D03*
X820071Y1258653D03*
D22*
X743321Y1250153D03*
X756821Y1250153D03*
X756821Y1260153D03*
X743321Y1260153D03*
D23*
X787571Y1200153D03*
D24*
X768071Y1188153D03*
X752071Y1188153D03*
X768071Y1172153D03*
X752071Y1172153D03*
D23*
X787571Y1195153D03*
X787571Y1190153D03*
X787571Y1185153D03*
X787571Y1180153D03*
X787571Y1175153D03*
X787571Y1170153D03*
X787571Y1165153D03*
X787571Y1160153D03*
D25*
X780071Y1152653D03*
X775071Y1152653D03*
X770071Y1152653D03*
X765071Y1152653D03*
X760071Y1152653D03*
X755071Y1152653D03*
X750071Y1152653D03*
X745071Y1152653D03*
X740071Y1152653D03*
D23*
X732571Y1160153D03*
X732571Y1165153D03*
X732571Y1170153D03*
X732571Y1175153D03*
X732571Y1180153D03*
X732571Y1185153D03*
X732571Y1190153D03*
X732571Y1195153D03*
X732571Y1200153D03*
D25*
X740071Y1207653D03*
X745071Y1207653D03*
X750071Y1207653D03*
X755071Y1207653D03*
X760071Y1207653D03*
X765071Y1207653D03*
X770071Y1207653D03*
X775071Y1207653D03*
X780071Y1207653D03*
D12*
X741571Y1238153D03*
X758571Y1238153D03*
D10*
X774071Y1258653D03*
X774071Y1241653D03*
X726071Y1258653D03*
X726071Y1241653D03*
D12*
X691571Y1255153D03*
X708571Y1255153D03*
X691571Y1165153D03*
X708571Y1165153D03*
D10*
X800071Y1241653D03*
X800071Y1258653D03*
D12*
X758571Y1130153D03*
X741571Y1130153D03*
X708571Y1195153D03*
X691571Y1195153D03*
X708571Y1180153D03*
X691571Y1180153D03*
D26*
X713321Y942153D03*
X713321Y998153D03*
D27*
X750071Y955153D03*
X750071Y965153D03*
X750071Y975153D03*
X750071Y985153D03*
D12*
X691571Y1225153D03*
X708571Y1225153D03*
X708571Y1210153D03*
X691571Y1210153D03*
X804571Y1205153D03*
X821571Y1205153D03*
X804571Y1221153D03*
X821571Y1221153D03*
X708571Y1240153D03*
X691571Y1240153D03*
D10*
X295000Y1396730D03*
X295000Y1413730D03*
X275000Y1413730D03*
X275000Y1396730D03*
D11*
X315500Y1438231D03*
X325000Y1438231D03*
X334500Y1438231D03*
X334500Y1412229D03*
X315500Y1412229D03*
D12*
X333500Y1455230D03*
X316500Y1455230D03*
D10*
X275000Y1436730D03*
X275000Y1453730D03*
X295000Y1436730D03*
X295000Y1453730D03*
X189000Y1453730D03*
X189000Y1436730D03*
D13*
X210550Y1533230D03*
X223250Y1533230D03*
X235950Y1533230D03*
X248650Y1533230D03*
X261350Y1533230D03*
X274050Y1533230D03*
X286750Y1533230D03*
X299450Y1533230D03*
X299450Y1477230D03*
X286750Y1477230D03*
X274050Y1477230D03*
X261350Y1477230D03*
X248650Y1477230D03*
X235950Y1477230D03*
X223250Y1477230D03*
X210550Y1477230D03*
D10*
X255000Y1436730D03*
X255000Y1453730D03*
X205000Y1453730D03*
X205000Y1436730D03*
D14*
X218500Y1454430D03*
X225000Y1436030D03*
X231500Y1436030D03*
X218500Y1436030D03*
X225000Y1454430D03*
X231500Y1454430D03*
D10*
X225000Y1556730D03*
X225000Y1573730D03*
D15*
X374813Y1427730D03*
X395188Y1432730D03*
X395188Y1427730D03*
X395188Y1437730D03*
X395188Y1442730D03*
X374813Y1432730D03*
X374813Y1437730D03*
X374813Y1442730D03*
D16*
X385000Y1438630D03*
X385000Y1431830D03*
D10*
X355000Y1426730D03*
X355000Y1443730D03*
D12*
X316500Y1380230D03*
X333500Y1380230D03*
X364500Y1383230D03*
X381500Y1383230D03*
D10*
X385000Y1336730D03*
X385000Y1353730D03*
D17*
X418000Y1395230D03*
X418000Y1415230D03*
D18*
X470000Y1371230D03*
X470000Y1439230D03*
D19*
X365000Y1324605D03*
X360000Y1324605D03*
X355000Y1324605D03*
X350000Y1324605D03*
X345000Y1324605D03*
X345000Y1365855D03*
X350000Y1365855D03*
X355000Y1365855D03*
X360000Y1365855D03*
X365000Y1365855D03*
D10*
X35600Y1364730D03*
X35600Y1347730D03*
D12*
X333500Y1395230D03*
X316500Y1395230D03*
D10*
X35600Y1314730D03*
X35600Y1331730D03*
D12*
X176500Y1395230D03*
X193500Y1395230D03*
X176500Y1415230D03*
X193500Y1415230D03*
D20*
X45500Y1607230D03*
X55000Y1607230D03*
X64500Y1607230D03*
X64500Y1583230D03*
X45500Y1583230D03*
X55000Y1583230D03*
D12*
X63500Y1565230D03*
X46500Y1565230D03*
X46500Y1545230D03*
X63500Y1545230D03*
D10*
X28000Y1563730D03*
X28000Y1546730D03*
D21*
X29000Y1606730D03*
X29000Y1583730D03*
D10*
X40000Y1643730D03*
X40000Y1626730D03*
X40000Y1683730D03*
X40000Y1666730D03*
D12*
X73500Y1625230D03*
X56500Y1625230D03*
X73500Y1645230D03*
X56500Y1645230D03*
D21*
X56000Y1663730D03*
X56000Y1686730D03*
X75000Y1663730D03*
X75000Y1686730D03*
D12*
X293500Y1635230D03*
X276500Y1635230D03*
X276500Y1655230D03*
X293500Y1655230D03*
D11*
X294500Y1592229D03*
X285000Y1592229D03*
X275500Y1592229D03*
X275500Y1618231D03*
X294500Y1618231D03*
D10*
X315000Y1596730D03*
X315000Y1613730D03*
X225000Y1676730D03*
X225000Y1693730D03*
D22*
X148250Y1685230D03*
X161750Y1685230D03*
X161750Y1695230D03*
X148250Y1695230D03*
D23*
X192500Y1635230D03*
D24*
X173000Y1623230D03*
X157000Y1623230D03*
X173000Y1607230D03*
X157000Y1607230D03*
D23*
X192500Y1630230D03*
X192500Y1625230D03*
X192500Y1620230D03*
X192500Y1615230D03*
X192500Y1610230D03*
X192500Y1605230D03*
X192500Y1600230D03*
X192500Y1595230D03*
D25*
X185000Y1587730D03*
X180000Y1587730D03*
X175000Y1587730D03*
X170000Y1587730D03*
X165000Y1587730D03*
X160000Y1587730D03*
X155000Y1587730D03*
X150000Y1587730D03*
X145000Y1587730D03*
D23*
X137500Y1595230D03*
X137500Y1600230D03*
X137500Y1605230D03*
X137500Y1610230D03*
X137500Y1615230D03*
X137500Y1620230D03*
X137500Y1625230D03*
X137500Y1630230D03*
X137500Y1635230D03*
D25*
X145000Y1642730D03*
X150000Y1642730D03*
X155000Y1642730D03*
X160000Y1642730D03*
X165000Y1642730D03*
X170000Y1642730D03*
X175000Y1642730D03*
X180000Y1642730D03*
X185000Y1642730D03*
D12*
X146500Y1673230D03*
X163500Y1673230D03*
D10*
X179000Y1693730D03*
X179000Y1676730D03*
X131000Y1693730D03*
X131000Y1676730D03*
D12*
X96500Y1690230D03*
X113500Y1690230D03*
X96500Y1600230D03*
X113500Y1600230D03*
D10*
X205000Y1676730D03*
X205000Y1693730D03*
D12*
X163500Y1565230D03*
X146500Y1565230D03*
X113500Y1630230D03*
X96500Y1630230D03*
X113500Y1615230D03*
X96500Y1615230D03*
D26*
X118250Y1377230D03*
X118250Y1433230D03*
D27*
X155000Y1390230D03*
X155000Y1400230D03*
X155000Y1410230D03*
X155000Y1420230D03*
D12*
X96500Y1660230D03*
X113500Y1660230D03*
X113500Y1645230D03*
X96500Y1645230D03*
X209500Y1640230D03*
X226500Y1640230D03*
X209500Y1656230D03*
X226500Y1656230D03*
X113500Y1675230D03*
X96500Y1675230D03*
D10*
X890071Y1396730D03*
X890071Y1413730D03*
X870071Y1413730D03*
X870071Y1396730D03*
D11*
X910571Y1438231D03*
X920071Y1438231D03*
X929571Y1438231D03*
X929571Y1412229D03*
X910571Y1412229D03*
D12*
X928571Y1455230D03*
X911571Y1455230D03*
D10*
X870071Y1436730D03*
X870071Y1453730D03*
X890071Y1436730D03*
X890071Y1453730D03*
X784071Y1453730D03*
X784071Y1436730D03*
D13*
X805621Y1533230D03*
X818321Y1533230D03*
X831021Y1533230D03*
X843721Y1533230D03*
X856421Y1533230D03*
X869121Y1533230D03*
X881821Y1533230D03*
X894521Y1533230D03*
X894521Y1477230D03*
X881821Y1477230D03*
X869121Y1477230D03*
X856421Y1477230D03*
X843721Y1477230D03*
X831021Y1477230D03*
X818321Y1477230D03*
X805621Y1477230D03*
D10*
X850071Y1436730D03*
X850071Y1453730D03*
X800071Y1453730D03*
X800071Y1436730D03*
D14*
X813571Y1454430D03*
X820071Y1436030D03*
X826571Y1436030D03*
X813571Y1436030D03*
X820071Y1454430D03*
X826571Y1454430D03*
D10*
X820071Y1556730D03*
X820071Y1573730D03*
D15*
X969884Y1427730D03*
X990259Y1432730D03*
X990259Y1427730D03*
X990259Y1437730D03*
X990259Y1442730D03*
X969884Y1432730D03*
X969884Y1437730D03*
X969884Y1442730D03*
D16*
X980071Y1438630D03*
X980071Y1431830D03*
D10*
X950071Y1426730D03*
X950071Y1443730D03*
D12*
X911571Y1380230D03*
X928571Y1380230D03*
X959571Y1383230D03*
X976571Y1383230D03*
D10*
X980071Y1336730D03*
X980071Y1353730D03*
D17*
X1013071Y1395230D03*
X1013071Y1415230D03*
D18*
X1065071Y1371230D03*
X1065071Y1439230D03*
D19*
X960071Y1324605D03*
X955071Y1324605D03*
X950071Y1324605D03*
X945071Y1324605D03*
X940071Y1324605D03*
X940071Y1365855D03*
X945071Y1365855D03*
X950071Y1365855D03*
X955071Y1365855D03*
X960071Y1365855D03*
D10*
X630671Y1364730D03*
X630671Y1347730D03*
D12*
X928571Y1395230D03*
X911571Y1395230D03*
D10*
X630671Y1314730D03*
X630671Y1331730D03*
D12*
X771571Y1395230D03*
X788571Y1395230D03*
X771571Y1415230D03*
X788571Y1415230D03*
D20*
X640571Y1607230D03*
X650071Y1607230D03*
X659571Y1607230D03*
X659571Y1583230D03*
X640571Y1583230D03*
X650071Y1583230D03*
D12*
X658571Y1565230D03*
X641571Y1565230D03*
X641571Y1545230D03*
X658571Y1545230D03*
D10*
X623071Y1563730D03*
X623071Y1546730D03*
D21*
X624071Y1606730D03*
X624071Y1583730D03*
D10*
X635071Y1643730D03*
X635071Y1626730D03*
X635071Y1683730D03*
X635071Y1666730D03*
D12*
X668571Y1625230D03*
X651571Y1625230D03*
X668571Y1645230D03*
X651571Y1645230D03*
D21*
X651071Y1663730D03*
X651071Y1686730D03*
X670071Y1663730D03*
X670071Y1686730D03*
D12*
X888571Y1635230D03*
X871571Y1635230D03*
X871571Y1655230D03*
X888571Y1655230D03*
D11*
X889571Y1592229D03*
X880071Y1592229D03*
X870571Y1592229D03*
X870571Y1618231D03*
X889571Y1618231D03*
D10*
X910071Y1596730D03*
X910071Y1613730D03*
X820071Y1676730D03*
X820071Y1693730D03*
D22*
X743321Y1685230D03*
X756821Y1685230D03*
X756821Y1695230D03*
X743321Y1695230D03*
D23*
X787571Y1635230D03*
D24*
X768071Y1623230D03*
X752071Y1623230D03*
X768071Y1607230D03*
X752071Y1607230D03*
D23*
X787571Y1630230D03*
X787571Y1625230D03*
X787571Y1620230D03*
X787571Y1615230D03*
X787571Y1610230D03*
X787571Y1605230D03*
X787571Y1600230D03*
X787571Y1595230D03*
D25*
X780071Y1587730D03*
X775071Y1587730D03*
X770071Y1587730D03*
X765071Y1587730D03*
X760071Y1587730D03*
X755071Y1587730D03*
X750071Y1587730D03*
X745071Y1587730D03*
X740071Y1587730D03*
D23*
X732571Y1595230D03*
X732571Y1600230D03*
X732571Y1605230D03*
X732571Y1610230D03*
X732571Y1615230D03*
X732571Y1620230D03*
X732571Y1625230D03*
X732571Y1630230D03*
X732571Y1635230D03*
D25*
X740071Y1642730D03*
X745071Y1642730D03*
X750071Y1642730D03*
X755071Y1642730D03*
X760071Y1642730D03*
X765071Y1642730D03*
X770071Y1642730D03*
X775071Y1642730D03*
X780071Y1642730D03*
D12*
X741571Y1673230D03*
X758571Y1673230D03*
D10*
X774071Y1693730D03*
X774071Y1676730D03*
X726071Y1693730D03*
X726071Y1676730D03*
D12*
X691571Y1690230D03*
X708571Y1690230D03*
X691571Y1600230D03*
X708571Y1600230D03*
D10*
X800071Y1676730D03*
X800071Y1693730D03*
D12*
X758571Y1565230D03*
X741571Y1565230D03*
X708571Y1630230D03*
X691571Y1630230D03*
X708571Y1615230D03*
X691571Y1615230D03*
D26*
X713321Y1377230D03*
X713321Y1433230D03*
D27*
X750071Y1390230D03*
X750071Y1400230D03*
X750071Y1410230D03*
X750071Y1420230D03*
D12*
X691571Y1660230D03*
X708571Y1660230D03*
X708571Y1645230D03*
X691571Y1645230D03*
X804571Y1640230D03*
X821571Y1640230D03*
X804571Y1656230D03*
X821571Y1656230D03*
X708571Y1675230D03*
X691571Y1675230D03*
M02*
