G04 EAGLE Gerber RS-274X export*
G75*
%MOMM*%
%FSLAX34Y34*%
%LPD*%
%INSolderpaste Bottom*%
%IPPOS*%
%AMOC8*
5,1,8,0,0,1.08239X$1,22.5*%
G01*
%ADD10R,1.000000X1.100000*%
%ADD11R,0.550000X1.200000*%
%ADD12R,1.100000X1.000000*%
%ADD13R,0.600000X1.200000*%
%ADD14R,0.300000X0.660000*%
%ADD15R,0.637500X0.250000*%
%ADD16R,0.640000X0.500000*%
%ADD17R,4.600000X1.000000*%
%ADD18R,3.400000X1.600000*%
%ADD19R,0.260000X0.599000*%
%ADD20R,2.000000X1.000000*%
%ADD21R,0.550000X0.800000*%
%ADD22R,0.830000X0.630000*%
%ADD23R,0.750000X0.700000*%
%ADD24R,0.900000X0.280000*%
%ADD25R,1.300000X1.300000*%
%ADD26R,0.280000X0.900000*%
%ADD27R,2.000000X1.200000*%
%ADD28R,1.350000X0.600000*%


D10*
X300000Y91500D03*
X300000Y108500D03*
X280000Y108500D03*
X280000Y91500D03*
D11*
X320500Y133001D03*
X330000Y133001D03*
X339500Y133001D03*
X339500Y106999D03*
X320500Y106999D03*
D12*
X338500Y150000D03*
X321500Y150000D03*
D10*
X280000Y131500D03*
X280000Y148500D03*
X300000Y131500D03*
X300000Y148500D03*
X194000Y148500D03*
X194000Y131500D03*
D13*
X215550Y228000D03*
X228250Y228000D03*
X240950Y228000D03*
X253650Y228000D03*
X266350Y228000D03*
X279050Y228000D03*
X291750Y228000D03*
X304450Y228000D03*
X304450Y172000D03*
X291750Y172000D03*
X279050Y172000D03*
X266350Y172000D03*
X253650Y172000D03*
X240950Y172000D03*
X228250Y172000D03*
X215550Y172000D03*
D10*
X260000Y131500D03*
X260000Y148500D03*
X210000Y148500D03*
X210000Y131500D03*
D14*
X223500Y149200D03*
X230000Y130800D03*
X236500Y130800D03*
X223500Y130800D03*
X230000Y149200D03*
X236500Y149200D03*
D10*
X230000Y251500D03*
X230000Y268500D03*
D15*
X379813Y122500D03*
X400188Y127500D03*
X400188Y122500D03*
X400188Y132500D03*
X400188Y137500D03*
X379813Y127500D03*
X379813Y132500D03*
X379813Y137500D03*
D16*
X390000Y133400D03*
X390000Y126600D03*
D10*
X360000Y121500D03*
X360000Y138500D03*
D12*
X321500Y75000D03*
X338500Y75000D03*
X371500Y75000D03*
X354500Y75000D03*
X368500Y10000D03*
X351500Y10000D03*
D17*
X423000Y90000D03*
X423000Y110000D03*
D18*
X475000Y66000D03*
X475000Y134000D03*
D19*
X360000Y26005D03*
X365000Y26005D03*
X370000Y26005D03*
X355000Y26005D03*
X350000Y26005D03*
X350000Y53995D03*
X355000Y53995D03*
X360000Y53995D03*
X365000Y53995D03*
X370000Y53995D03*
D20*
X360000Y40000D03*
D10*
X320000Y59500D03*
X320000Y42500D03*
D12*
X338500Y90000D03*
X321500Y90000D03*
D10*
X320000Y9500D03*
X320000Y26500D03*
D12*
X181500Y90000D03*
X198500Y90000D03*
X181500Y110000D03*
X198500Y110000D03*
D21*
X50500Y302000D03*
X60000Y302000D03*
X69500Y302000D03*
X69500Y278000D03*
X50500Y278000D03*
X60000Y278000D03*
D12*
X68500Y260000D03*
X51500Y260000D03*
X51500Y240000D03*
X68500Y240000D03*
D10*
X30000Y258500D03*
X30000Y241500D03*
D22*
X30000Y301500D03*
X30000Y278500D03*
D10*
X45000Y338500D03*
X45000Y321500D03*
X30000Y321500D03*
X30000Y338500D03*
D12*
X78500Y320000D03*
X61500Y320000D03*
X78500Y340000D03*
X61500Y340000D03*
D22*
X50000Y358500D03*
X50000Y381500D03*
X80000Y358500D03*
X80000Y381500D03*
D12*
X298500Y330000D03*
X281500Y330000D03*
X281500Y350000D03*
X298500Y350000D03*
D11*
X299500Y286999D03*
X290000Y286999D03*
X280500Y286999D03*
X280500Y313001D03*
X299500Y313001D03*
D10*
X320000Y291500D03*
X320000Y308500D03*
X260000Y308500D03*
X260000Y291500D03*
X230000Y371500D03*
X230000Y388500D03*
D23*
X153250Y380000D03*
X166750Y380000D03*
X166750Y390000D03*
X153250Y390000D03*
D24*
X197500Y330000D03*
D25*
X178000Y318000D03*
X162000Y318000D03*
X178000Y302000D03*
X162000Y302000D03*
D24*
X197500Y325000D03*
X197500Y320000D03*
X197500Y315000D03*
X197500Y310000D03*
X197500Y305000D03*
X197500Y300000D03*
X197500Y295000D03*
X197500Y290000D03*
D26*
X190000Y282500D03*
X185000Y282500D03*
X180000Y282500D03*
X175000Y282500D03*
X170000Y282500D03*
X165000Y282500D03*
X160000Y282500D03*
X155000Y282500D03*
X150000Y282500D03*
D24*
X142500Y290000D03*
X142500Y295000D03*
X142500Y300000D03*
X142500Y305000D03*
X142500Y310000D03*
X142500Y315000D03*
X142500Y320000D03*
X142500Y325000D03*
X142500Y330000D03*
D26*
X150000Y337500D03*
X155000Y337500D03*
X160000Y337500D03*
X165000Y337500D03*
X170000Y337500D03*
X175000Y337500D03*
X180000Y337500D03*
X185000Y337500D03*
X190000Y337500D03*
D12*
X151500Y368000D03*
X168500Y368000D03*
D10*
X184000Y388500D03*
X184000Y371500D03*
X136000Y388500D03*
X136000Y371500D03*
D12*
X101500Y385000D03*
X118500Y385000D03*
X101500Y295000D03*
X118500Y295000D03*
D10*
X210000Y371500D03*
X210000Y388500D03*
D12*
X168500Y260000D03*
X151500Y260000D03*
X118500Y325000D03*
X101500Y325000D03*
X118500Y310000D03*
X101500Y310000D03*
D27*
X123250Y72000D03*
X123250Y128000D03*
D28*
X160000Y85000D03*
X160000Y95000D03*
X160000Y105000D03*
X160000Y115000D03*
D12*
X101500Y355000D03*
X118500Y355000D03*
X118500Y340000D03*
X101500Y340000D03*
X214500Y335000D03*
X231500Y335000D03*
X214500Y351000D03*
X231500Y351000D03*
X118500Y370000D03*
X101500Y370000D03*
D10*
X905079Y91500D03*
X905079Y108500D03*
X885079Y108500D03*
X885079Y91500D03*
D11*
X925579Y133001D03*
X935079Y133001D03*
X944579Y133001D03*
X944579Y106999D03*
X925579Y106999D03*
D12*
X943579Y150000D03*
X926579Y150000D03*
D10*
X885079Y131500D03*
X885079Y148500D03*
X905079Y131500D03*
X905079Y148500D03*
X799079Y148500D03*
X799079Y131500D03*
D13*
X820629Y228000D03*
X833329Y228000D03*
X846029Y228000D03*
X858729Y228000D03*
X871429Y228000D03*
X884129Y228000D03*
X896829Y228000D03*
X909529Y228000D03*
X909529Y172000D03*
X896829Y172000D03*
X884129Y172000D03*
X871429Y172000D03*
X858729Y172000D03*
X846029Y172000D03*
X833329Y172000D03*
X820629Y172000D03*
D10*
X865079Y131500D03*
X865079Y148500D03*
X815079Y148500D03*
X815079Y131500D03*
D14*
X828579Y149200D03*
X835079Y130800D03*
X841579Y130800D03*
X828579Y130800D03*
X835079Y149200D03*
X841579Y149200D03*
D10*
X835079Y251500D03*
X835079Y268500D03*
D15*
X984891Y122500D03*
X1005266Y127500D03*
X1005266Y122500D03*
X1005266Y132500D03*
X1005266Y137500D03*
X984891Y127500D03*
X984891Y132500D03*
X984891Y137500D03*
D16*
X995079Y133400D03*
X995079Y126600D03*
D10*
X965079Y121500D03*
X965079Y138500D03*
D12*
X926579Y75000D03*
X943579Y75000D03*
X976579Y75000D03*
X959579Y75000D03*
X973579Y10000D03*
X956579Y10000D03*
D17*
X1028079Y90000D03*
X1028079Y110000D03*
D18*
X1080079Y66000D03*
X1080079Y134000D03*
D19*
X965079Y26005D03*
X970079Y26005D03*
X975079Y26005D03*
X960079Y26005D03*
X955079Y26005D03*
X955079Y53995D03*
X960079Y53995D03*
X965079Y53995D03*
X970079Y53995D03*
X975079Y53995D03*
D20*
X965079Y40000D03*
D10*
X925079Y59500D03*
X925079Y42500D03*
D12*
X943579Y90000D03*
X926579Y90000D03*
D10*
X925079Y9500D03*
X925079Y26500D03*
D12*
X786579Y90000D03*
X803579Y90000D03*
X786579Y110000D03*
X803579Y110000D03*
D21*
X655579Y302000D03*
X665079Y302000D03*
X674579Y302000D03*
X674579Y278000D03*
X655579Y278000D03*
X665079Y278000D03*
D12*
X673579Y260000D03*
X656579Y260000D03*
X656579Y240000D03*
X673579Y240000D03*
D10*
X635079Y258500D03*
X635079Y241500D03*
D22*
X635079Y301500D03*
X635079Y278500D03*
D10*
X650079Y338500D03*
X650079Y321500D03*
X635079Y321500D03*
X635079Y338500D03*
D12*
X683579Y320000D03*
X666579Y320000D03*
X683579Y340000D03*
X666579Y340000D03*
D22*
X655079Y358500D03*
X655079Y381500D03*
X685079Y358500D03*
X685079Y381500D03*
D12*
X903579Y330000D03*
X886579Y330000D03*
X886579Y350000D03*
X903579Y350000D03*
D11*
X904579Y286999D03*
X895079Y286999D03*
X885579Y286999D03*
X885579Y313001D03*
X904579Y313001D03*
D10*
X925079Y291500D03*
X925079Y308500D03*
X865079Y308500D03*
X865079Y291500D03*
X835079Y371500D03*
X835079Y388500D03*
D23*
X758329Y380000D03*
X771829Y380000D03*
X771829Y390000D03*
X758329Y390000D03*
D24*
X802579Y330000D03*
D25*
X783079Y318000D03*
X767079Y318000D03*
X783079Y302000D03*
X767079Y302000D03*
D24*
X802579Y325000D03*
X802579Y320000D03*
X802579Y315000D03*
X802579Y310000D03*
X802579Y305000D03*
X802579Y300000D03*
X802579Y295000D03*
X802579Y290000D03*
D26*
X795079Y282500D03*
X790079Y282500D03*
X785079Y282500D03*
X780079Y282500D03*
X775079Y282500D03*
X770079Y282500D03*
X765079Y282500D03*
X760079Y282500D03*
X755079Y282500D03*
D24*
X747579Y290000D03*
X747579Y295000D03*
X747579Y300000D03*
X747579Y305000D03*
X747579Y310000D03*
X747579Y315000D03*
X747579Y320000D03*
X747579Y325000D03*
X747579Y330000D03*
D26*
X755079Y337500D03*
X760079Y337500D03*
X765079Y337500D03*
X770079Y337500D03*
X775079Y337500D03*
X780079Y337500D03*
X785079Y337500D03*
X790079Y337500D03*
X795079Y337500D03*
D12*
X756579Y368000D03*
X773579Y368000D03*
D10*
X789079Y388500D03*
X789079Y371500D03*
X741079Y388500D03*
X741079Y371500D03*
D12*
X706579Y385000D03*
X723579Y385000D03*
X706579Y295000D03*
X723579Y295000D03*
D10*
X815079Y371500D03*
X815079Y388500D03*
D12*
X773579Y260000D03*
X756579Y260000D03*
X723579Y325000D03*
X706579Y325000D03*
X723579Y310000D03*
X706579Y310000D03*
D27*
X728329Y72000D03*
X728329Y128000D03*
D28*
X765079Y85000D03*
X765079Y95000D03*
X765079Y105000D03*
X765079Y115000D03*
D12*
X706579Y355000D03*
X723579Y355000D03*
X723579Y340000D03*
X706579Y340000D03*
X819579Y335000D03*
X836579Y335000D03*
X819579Y351000D03*
X836579Y351000D03*
X723579Y370000D03*
X706579Y370000D03*
D10*
X300000Y526577D03*
X300000Y543577D03*
X280000Y543577D03*
X280000Y526577D03*
D11*
X320500Y568078D03*
X330000Y568078D03*
X339500Y568078D03*
X339500Y542076D03*
X320500Y542076D03*
D12*
X338500Y585077D03*
X321500Y585077D03*
D10*
X280000Y566577D03*
X280000Y583577D03*
X300000Y566577D03*
X300000Y583577D03*
X194000Y583577D03*
X194000Y566577D03*
D13*
X215550Y663077D03*
X228250Y663077D03*
X240950Y663077D03*
X253650Y663077D03*
X266350Y663077D03*
X279050Y663077D03*
X291750Y663077D03*
X304450Y663077D03*
X304450Y607077D03*
X291750Y607077D03*
X279050Y607077D03*
X266350Y607077D03*
X253650Y607077D03*
X240950Y607077D03*
X228250Y607077D03*
X215550Y607077D03*
D10*
X260000Y566577D03*
X260000Y583577D03*
X210000Y583577D03*
X210000Y566577D03*
D14*
X223500Y584277D03*
X230000Y565877D03*
X236500Y565877D03*
X223500Y565877D03*
X230000Y584277D03*
X236500Y584277D03*
D10*
X230000Y686577D03*
X230000Y703577D03*
D15*
X379813Y557577D03*
X400188Y562577D03*
X400188Y557577D03*
X400188Y567577D03*
X400188Y572577D03*
X379813Y562577D03*
X379813Y567577D03*
X379813Y572577D03*
D16*
X390000Y568477D03*
X390000Y561677D03*
D10*
X360000Y556577D03*
X360000Y573577D03*
D12*
X321500Y510077D03*
X338500Y510077D03*
X371500Y510077D03*
X354500Y510077D03*
X368500Y445077D03*
X351500Y445077D03*
D17*
X423000Y525077D03*
X423000Y545077D03*
D18*
X475000Y501077D03*
X475000Y569077D03*
D19*
X360000Y461082D03*
X365000Y461082D03*
X370000Y461082D03*
X355000Y461082D03*
X350000Y461082D03*
X350000Y489072D03*
X355000Y489072D03*
X360000Y489072D03*
X365000Y489072D03*
X370000Y489072D03*
D20*
X360000Y475077D03*
D10*
X320000Y494577D03*
X320000Y477577D03*
D12*
X338500Y525077D03*
X321500Y525077D03*
D10*
X320000Y444577D03*
X320000Y461577D03*
D12*
X181500Y525077D03*
X198500Y525077D03*
X181500Y545077D03*
X198500Y545077D03*
D21*
X50500Y737077D03*
X60000Y737077D03*
X69500Y737077D03*
X69500Y713077D03*
X50500Y713077D03*
X60000Y713077D03*
D12*
X68500Y695077D03*
X51500Y695077D03*
X51500Y675077D03*
X68500Y675077D03*
D10*
X30000Y693577D03*
X30000Y676577D03*
D22*
X30000Y736577D03*
X30000Y713577D03*
D10*
X45000Y773577D03*
X45000Y756577D03*
X30000Y756577D03*
X30000Y773577D03*
D12*
X78500Y755077D03*
X61500Y755077D03*
X78500Y775077D03*
X61500Y775077D03*
D22*
X50000Y793577D03*
X50000Y816577D03*
X80000Y793577D03*
X80000Y816577D03*
D12*
X298500Y765077D03*
X281500Y765077D03*
X281500Y785077D03*
X298500Y785077D03*
D11*
X299500Y722076D03*
X290000Y722076D03*
X280500Y722076D03*
X280500Y748078D03*
X299500Y748078D03*
D10*
X320000Y726577D03*
X320000Y743577D03*
X260000Y743577D03*
X260000Y726577D03*
X230000Y806577D03*
X230000Y823577D03*
D23*
X153250Y815077D03*
X166750Y815077D03*
X166750Y825077D03*
X153250Y825077D03*
D24*
X197500Y765077D03*
D25*
X178000Y753077D03*
X162000Y753077D03*
X178000Y737077D03*
X162000Y737077D03*
D24*
X197500Y760077D03*
X197500Y755077D03*
X197500Y750077D03*
X197500Y745077D03*
X197500Y740077D03*
X197500Y735077D03*
X197500Y730077D03*
X197500Y725077D03*
D26*
X190000Y717577D03*
X185000Y717577D03*
X180000Y717577D03*
X175000Y717577D03*
X170000Y717577D03*
X165000Y717577D03*
X160000Y717577D03*
X155000Y717577D03*
X150000Y717577D03*
D24*
X142500Y725077D03*
X142500Y730077D03*
X142500Y735077D03*
X142500Y740077D03*
X142500Y745077D03*
X142500Y750077D03*
X142500Y755077D03*
X142500Y760077D03*
X142500Y765077D03*
D26*
X150000Y772577D03*
X155000Y772577D03*
X160000Y772577D03*
X165000Y772577D03*
X170000Y772577D03*
X175000Y772577D03*
X180000Y772577D03*
X185000Y772577D03*
X190000Y772577D03*
D12*
X151500Y803077D03*
X168500Y803077D03*
D10*
X184000Y823577D03*
X184000Y806577D03*
X136000Y823577D03*
X136000Y806577D03*
D12*
X101500Y820077D03*
X118500Y820077D03*
X101500Y730077D03*
X118500Y730077D03*
D10*
X210000Y806577D03*
X210000Y823577D03*
D12*
X168500Y695077D03*
X151500Y695077D03*
X118500Y760077D03*
X101500Y760077D03*
X118500Y745077D03*
X101500Y745077D03*
D27*
X123250Y507077D03*
X123250Y563077D03*
D28*
X160000Y520077D03*
X160000Y530077D03*
X160000Y540077D03*
X160000Y550077D03*
D12*
X101500Y790077D03*
X118500Y790077D03*
X118500Y775077D03*
X101500Y775077D03*
X214500Y770077D03*
X231500Y770077D03*
X214500Y786077D03*
X231500Y786077D03*
X118500Y805077D03*
X101500Y805077D03*
D10*
X905079Y526577D03*
X905079Y543577D03*
X885079Y543577D03*
X885079Y526577D03*
D11*
X925579Y568078D03*
X935079Y568078D03*
X944579Y568078D03*
X944579Y542076D03*
X925579Y542076D03*
D12*
X943579Y585077D03*
X926579Y585077D03*
D10*
X885079Y566577D03*
X885079Y583577D03*
X905079Y566577D03*
X905079Y583577D03*
X799079Y583577D03*
X799079Y566577D03*
D13*
X820629Y663077D03*
X833329Y663077D03*
X846029Y663077D03*
X858729Y663077D03*
X871429Y663077D03*
X884129Y663077D03*
X896829Y663077D03*
X909529Y663077D03*
X909529Y607077D03*
X896829Y607077D03*
X884129Y607077D03*
X871429Y607077D03*
X858729Y607077D03*
X846029Y607077D03*
X833329Y607077D03*
X820629Y607077D03*
D10*
X865079Y566577D03*
X865079Y583577D03*
X815079Y583577D03*
X815079Y566577D03*
D14*
X828579Y584277D03*
X835079Y565877D03*
X841579Y565877D03*
X828579Y565877D03*
X835079Y584277D03*
X841579Y584277D03*
D10*
X835079Y686577D03*
X835079Y703577D03*
D15*
X984891Y557577D03*
X1005266Y562577D03*
X1005266Y557577D03*
X1005266Y567577D03*
X1005266Y572577D03*
X984891Y562577D03*
X984891Y567577D03*
X984891Y572577D03*
D16*
X995079Y568477D03*
X995079Y561677D03*
D10*
X965079Y556577D03*
X965079Y573577D03*
D12*
X926579Y510077D03*
X943579Y510077D03*
X976579Y510077D03*
X959579Y510077D03*
X973579Y445077D03*
X956579Y445077D03*
D17*
X1028079Y525077D03*
X1028079Y545077D03*
D18*
X1080079Y501077D03*
X1080079Y569077D03*
D19*
X965079Y461082D03*
X970079Y461082D03*
X975079Y461082D03*
X960079Y461082D03*
X955079Y461082D03*
X955079Y489072D03*
X960079Y489072D03*
X965079Y489072D03*
X970079Y489072D03*
X975079Y489072D03*
D20*
X965079Y475077D03*
D10*
X925079Y494577D03*
X925079Y477577D03*
D12*
X943579Y525077D03*
X926579Y525077D03*
D10*
X925079Y444577D03*
X925079Y461577D03*
D12*
X786579Y525077D03*
X803579Y525077D03*
X786579Y545077D03*
X803579Y545077D03*
D21*
X655579Y737077D03*
X665079Y737077D03*
X674579Y737077D03*
X674579Y713077D03*
X655579Y713077D03*
X665079Y713077D03*
D12*
X673579Y695077D03*
X656579Y695077D03*
X656579Y675077D03*
X673579Y675077D03*
D10*
X635079Y693577D03*
X635079Y676577D03*
D22*
X635079Y736577D03*
X635079Y713577D03*
D10*
X650079Y773577D03*
X650079Y756577D03*
X635079Y756577D03*
X635079Y773577D03*
D12*
X683579Y755077D03*
X666579Y755077D03*
X683579Y775077D03*
X666579Y775077D03*
D22*
X655079Y793577D03*
X655079Y816577D03*
X685079Y793577D03*
X685079Y816577D03*
D12*
X903579Y765077D03*
X886579Y765077D03*
X886579Y785077D03*
X903579Y785077D03*
D11*
X904579Y722076D03*
X895079Y722076D03*
X885579Y722076D03*
X885579Y748078D03*
X904579Y748078D03*
D10*
X925079Y726577D03*
X925079Y743577D03*
X865079Y743577D03*
X865079Y726577D03*
X835079Y806577D03*
X835079Y823577D03*
D23*
X758329Y815077D03*
X771829Y815077D03*
X771829Y825077D03*
X758329Y825077D03*
D24*
X802579Y765077D03*
D25*
X783079Y753077D03*
X767079Y753077D03*
X783079Y737077D03*
X767079Y737077D03*
D24*
X802579Y760077D03*
X802579Y755077D03*
X802579Y750077D03*
X802579Y745077D03*
X802579Y740077D03*
X802579Y735077D03*
X802579Y730077D03*
X802579Y725077D03*
D26*
X795079Y717577D03*
X790079Y717577D03*
X785079Y717577D03*
X780079Y717577D03*
X775079Y717577D03*
X770079Y717577D03*
X765079Y717577D03*
X760079Y717577D03*
X755079Y717577D03*
D24*
X747579Y725077D03*
X747579Y730077D03*
X747579Y735077D03*
X747579Y740077D03*
X747579Y745077D03*
X747579Y750077D03*
X747579Y755077D03*
X747579Y760077D03*
X747579Y765077D03*
D26*
X755079Y772577D03*
X760079Y772577D03*
X765079Y772577D03*
X770079Y772577D03*
X775079Y772577D03*
X780079Y772577D03*
X785079Y772577D03*
X790079Y772577D03*
X795079Y772577D03*
D12*
X756579Y803077D03*
X773579Y803077D03*
D10*
X789079Y823577D03*
X789079Y806577D03*
X741079Y823577D03*
X741079Y806577D03*
D12*
X706579Y820077D03*
X723579Y820077D03*
X706579Y730077D03*
X723579Y730077D03*
D10*
X815079Y806577D03*
X815079Y823577D03*
D12*
X773579Y695077D03*
X756579Y695077D03*
X723579Y760077D03*
X706579Y760077D03*
X723579Y745077D03*
X706579Y745077D03*
D27*
X728329Y507077D03*
X728329Y563077D03*
D28*
X765079Y520077D03*
X765079Y530077D03*
X765079Y540077D03*
X765079Y550077D03*
D12*
X706579Y790077D03*
X723579Y790077D03*
X723579Y775077D03*
X706579Y775077D03*
X819579Y770077D03*
X836579Y770077D03*
X819579Y786077D03*
X836579Y786077D03*
X723579Y805077D03*
X706579Y805077D03*
D10*
X300000Y961653D03*
X300000Y978653D03*
X280000Y978653D03*
X280000Y961653D03*
D11*
X320500Y1003154D03*
X330000Y1003154D03*
X339500Y1003154D03*
X339500Y977152D03*
X320500Y977152D03*
D12*
X338500Y1020153D03*
X321500Y1020153D03*
D10*
X280000Y1001653D03*
X280000Y1018653D03*
X300000Y1001653D03*
X300000Y1018653D03*
X194000Y1018653D03*
X194000Y1001653D03*
D13*
X215550Y1098153D03*
X228250Y1098153D03*
X240950Y1098153D03*
X253650Y1098153D03*
X266350Y1098153D03*
X279050Y1098153D03*
X291750Y1098153D03*
X304450Y1098153D03*
X304450Y1042153D03*
X291750Y1042153D03*
X279050Y1042153D03*
X266350Y1042153D03*
X253650Y1042153D03*
X240950Y1042153D03*
X228250Y1042153D03*
X215550Y1042153D03*
D10*
X260000Y1001653D03*
X260000Y1018653D03*
X210000Y1018653D03*
X210000Y1001653D03*
D14*
X223500Y1019353D03*
X230000Y1000953D03*
X236500Y1000953D03*
X223500Y1000953D03*
X230000Y1019353D03*
X236500Y1019353D03*
D10*
X230000Y1121653D03*
X230000Y1138653D03*
D15*
X379813Y992653D03*
X400188Y997653D03*
X400188Y992653D03*
X400188Y1002653D03*
X400188Y1007653D03*
X379813Y997653D03*
X379813Y1002653D03*
X379813Y1007653D03*
D16*
X390000Y1003553D03*
X390000Y996753D03*
D10*
X360000Y991653D03*
X360000Y1008653D03*
D12*
X321500Y945153D03*
X338500Y945153D03*
X371500Y945153D03*
X354500Y945153D03*
X368500Y880153D03*
X351500Y880153D03*
D17*
X423000Y960153D03*
X423000Y980153D03*
D18*
X475000Y936153D03*
X475000Y1004153D03*
D19*
X360000Y896158D03*
X365000Y896158D03*
X370000Y896158D03*
X355000Y896158D03*
X350000Y896158D03*
X350000Y924148D03*
X355000Y924148D03*
X360000Y924148D03*
X365000Y924148D03*
X370000Y924148D03*
D20*
X360000Y910153D03*
D10*
X320000Y929653D03*
X320000Y912653D03*
D12*
X338500Y960153D03*
X321500Y960153D03*
D10*
X320000Y879653D03*
X320000Y896653D03*
D12*
X181500Y960153D03*
X198500Y960153D03*
X181500Y980153D03*
X198500Y980153D03*
D21*
X50500Y1172153D03*
X60000Y1172153D03*
X69500Y1172153D03*
X69500Y1148153D03*
X50500Y1148153D03*
X60000Y1148153D03*
D12*
X68500Y1130153D03*
X51500Y1130153D03*
X51500Y1110153D03*
X68500Y1110153D03*
D10*
X30000Y1128653D03*
X30000Y1111653D03*
D22*
X30000Y1171653D03*
X30000Y1148653D03*
D10*
X45000Y1208653D03*
X45000Y1191653D03*
X30000Y1191653D03*
X30000Y1208653D03*
D12*
X78500Y1190153D03*
X61500Y1190153D03*
X78500Y1210153D03*
X61500Y1210153D03*
D22*
X50000Y1228653D03*
X50000Y1251653D03*
X80000Y1228653D03*
X80000Y1251653D03*
D12*
X298500Y1200153D03*
X281500Y1200153D03*
X281500Y1220153D03*
X298500Y1220153D03*
D11*
X299500Y1157152D03*
X290000Y1157152D03*
X280500Y1157152D03*
X280500Y1183154D03*
X299500Y1183154D03*
D10*
X320000Y1161653D03*
X320000Y1178653D03*
X260000Y1178653D03*
X260000Y1161653D03*
X230000Y1241653D03*
X230000Y1258653D03*
D23*
X153250Y1250153D03*
X166750Y1250153D03*
X166750Y1260153D03*
X153250Y1260153D03*
D24*
X197500Y1200153D03*
D25*
X178000Y1188153D03*
X162000Y1188153D03*
X178000Y1172153D03*
X162000Y1172153D03*
D24*
X197500Y1195153D03*
X197500Y1190153D03*
X197500Y1185153D03*
X197500Y1180153D03*
X197500Y1175153D03*
X197500Y1170153D03*
X197500Y1165153D03*
X197500Y1160153D03*
D26*
X190000Y1152653D03*
X185000Y1152653D03*
X180000Y1152653D03*
X175000Y1152653D03*
X170000Y1152653D03*
X165000Y1152653D03*
X160000Y1152653D03*
X155000Y1152653D03*
X150000Y1152653D03*
D24*
X142500Y1160153D03*
X142500Y1165153D03*
X142500Y1170153D03*
X142500Y1175153D03*
X142500Y1180153D03*
X142500Y1185153D03*
X142500Y1190153D03*
X142500Y1195153D03*
X142500Y1200153D03*
D26*
X150000Y1207653D03*
X155000Y1207653D03*
X160000Y1207653D03*
X165000Y1207653D03*
X170000Y1207653D03*
X175000Y1207653D03*
X180000Y1207653D03*
X185000Y1207653D03*
X190000Y1207653D03*
D12*
X151500Y1238153D03*
X168500Y1238153D03*
D10*
X184000Y1258653D03*
X184000Y1241653D03*
X136000Y1258653D03*
X136000Y1241653D03*
D12*
X101500Y1255153D03*
X118500Y1255153D03*
X101500Y1165153D03*
X118500Y1165153D03*
D10*
X210000Y1241653D03*
X210000Y1258653D03*
D12*
X168500Y1130153D03*
X151500Y1130153D03*
X118500Y1195153D03*
X101500Y1195153D03*
X118500Y1180153D03*
X101500Y1180153D03*
D27*
X123250Y942153D03*
X123250Y998153D03*
D28*
X160000Y955153D03*
X160000Y965153D03*
X160000Y975153D03*
X160000Y985153D03*
D12*
X101500Y1225153D03*
X118500Y1225153D03*
X118500Y1210153D03*
X101500Y1210153D03*
X214500Y1205153D03*
X231500Y1205153D03*
X214500Y1221153D03*
X231500Y1221153D03*
X118500Y1240153D03*
X101500Y1240153D03*
D10*
X905079Y961653D03*
X905079Y978653D03*
X885079Y978653D03*
X885079Y961653D03*
D11*
X925579Y1003154D03*
X935079Y1003154D03*
X944579Y1003154D03*
X944579Y977152D03*
X925579Y977152D03*
D12*
X943579Y1020153D03*
X926579Y1020153D03*
D10*
X885079Y1001653D03*
X885079Y1018653D03*
X905079Y1001653D03*
X905079Y1018653D03*
X799079Y1018653D03*
X799079Y1001653D03*
D13*
X820629Y1098153D03*
X833329Y1098153D03*
X846029Y1098153D03*
X858729Y1098153D03*
X871429Y1098153D03*
X884129Y1098153D03*
X896829Y1098153D03*
X909529Y1098153D03*
X909529Y1042153D03*
X896829Y1042153D03*
X884129Y1042153D03*
X871429Y1042153D03*
X858729Y1042153D03*
X846029Y1042153D03*
X833329Y1042153D03*
X820629Y1042153D03*
D10*
X865079Y1001653D03*
X865079Y1018653D03*
X815079Y1018653D03*
X815079Y1001653D03*
D14*
X828579Y1019353D03*
X835079Y1000953D03*
X841579Y1000953D03*
X828579Y1000953D03*
X835079Y1019353D03*
X841579Y1019353D03*
D10*
X835079Y1121653D03*
X835079Y1138653D03*
D15*
X984891Y992653D03*
X1005266Y997653D03*
X1005266Y992653D03*
X1005266Y1002653D03*
X1005266Y1007653D03*
X984891Y997653D03*
X984891Y1002653D03*
X984891Y1007653D03*
D16*
X995079Y1003553D03*
X995079Y996753D03*
D10*
X965079Y991653D03*
X965079Y1008653D03*
D12*
X926579Y945153D03*
X943579Y945153D03*
X976579Y945153D03*
X959579Y945153D03*
X973579Y880153D03*
X956579Y880153D03*
D17*
X1028079Y960153D03*
X1028079Y980153D03*
D18*
X1080079Y936153D03*
X1080079Y1004153D03*
D19*
X965079Y896158D03*
X970079Y896158D03*
X975079Y896158D03*
X960079Y896158D03*
X955079Y896158D03*
X955079Y924148D03*
X960079Y924148D03*
X965079Y924148D03*
X970079Y924148D03*
X975079Y924148D03*
D20*
X965079Y910153D03*
D10*
X925079Y929653D03*
X925079Y912653D03*
D12*
X943579Y960153D03*
X926579Y960153D03*
D10*
X925079Y879653D03*
X925079Y896653D03*
D12*
X786579Y960153D03*
X803579Y960153D03*
X786579Y980153D03*
X803579Y980153D03*
D21*
X655579Y1172153D03*
X665079Y1172153D03*
X674579Y1172153D03*
X674579Y1148153D03*
X655579Y1148153D03*
X665079Y1148153D03*
D12*
X673579Y1130153D03*
X656579Y1130153D03*
X656579Y1110153D03*
X673579Y1110153D03*
D10*
X635079Y1128653D03*
X635079Y1111653D03*
D22*
X635079Y1171653D03*
X635079Y1148653D03*
D10*
X650079Y1208653D03*
X650079Y1191653D03*
X635079Y1191653D03*
X635079Y1208653D03*
D12*
X683579Y1190153D03*
X666579Y1190153D03*
X683579Y1210153D03*
X666579Y1210153D03*
D22*
X655079Y1228653D03*
X655079Y1251653D03*
X685079Y1228653D03*
X685079Y1251653D03*
D12*
X903579Y1200153D03*
X886579Y1200153D03*
X886579Y1220153D03*
X903579Y1220153D03*
D11*
X904579Y1157152D03*
X895079Y1157152D03*
X885579Y1157152D03*
X885579Y1183154D03*
X904579Y1183154D03*
D10*
X925079Y1161653D03*
X925079Y1178653D03*
X865079Y1178653D03*
X865079Y1161653D03*
X835079Y1241653D03*
X835079Y1258653D03*
D23*
X758329Y1250153D03*
X771829Y1250153D03*
X771829Y1260153D03*
X758329Y1260153D03*
D24*
X802579Y1200153D03*
D25*
X783079Y1188153D03*
X767079Y1188153D03*
X783079Y1172153D03*
X767079Y1172153D03*
D24*
X802579Y1195153D03*
X802579Y1190153D03*
X802579Y1185153D03*
X802579Y1180153D03*
X802579Y1175153D03*
X802579Y1170153D03*
X802579Y1165153D03*
X802579Y1160153D03*
D26*
X795079Y1152653D03*
X790079Y1152653D03*
X785079Y1152653D03*
X780079Y1152653D03*
X775079Y1152653D03*
X770079Y1152653D03*
X765079Y1152653D03*
X760079Y1152653D03*
X755079Y1152653D03*
D24*
X747579Y1160153D03*
X747579Y1165153D03*
X747579Y1170153D03*
X747579Y1175153D03*
X747579Y1180153D03*
X747579Y1185153D03*
X747579Y1190153D03*
X747579Y1195153D03*
X747579Y1200153D03*
D26*
X755079Y1207653D03*
X760079Y1207653D03*
X765079Y1207653D03*
X770079Y1207653D03*
X775079Y1207653D03*
X780079Y1207653D03*
X785079Y1207653D03*
X790079Y1207653D03*
X795079Y1207653D03*
D12*
X756579Y1238153D03*
X773579Y1238153D03*
D10*
X789079Y1258653D03*
X789079Y1241653D03*
X741079Y1258653D03*
X741079Y1241653D03*
D12*
X706579Y1255153D03*
X723579Y1255153D03*
X706579Y1165153D03*
X723579Y1165153D03*
D10*
X815079Y1241653D03*
X815079Y1258653D03*
D12*
X773579Y1130153D03*
X756579Y1130153D03*
X723579Y1195153D03*
X706579Y1195153D03*
X723579Y1180153D03*
X706579Y1180153D03*
D27*
X728329Y942153D03*
X728329Y998153D03*
D28*
X765079Y955153D03*
X765079Y965153D03*
X765079Y975153D03*
X765079Y985153D03*
D12*
X706579Y1225153D03*
X723579Y1225153D03*
X723579Y1210153D03*
X706579Y1210153D03*
X819579Y1205153D03*
X836579Y1205153D03*
X819579Y1221153D03*
X836579Y1221153D03*
X723579Y1240153D03*
X706579Y1240153D03*
D10*
X300000Y1396730D03*
X300000Y1413730D03*
X280000Y1413730D03*
X280000Y1396730D03*
D11*
X320500Y1438231D03*
X330000Y1438231D03*
X339500Y1438231D03*
X339500Y1412229D03*
X320500Y1412229D03*
D12*
X338500Y1455230D03*
X321500Y1455230D03*
D10*
X280000Y1436730D03*
X280000Y1453730D03*
X300000Y1436730D03*
X300000Y1453730D03*
X194000Y1453730D03*
X194000Y1436730D03*
D13*
X215550Y1533230D03*
X228250Y1533230D03*
X240950Y1533230D03*
X253650Y1533230D03*
X266350Y1533230D03*
X279050Y1533230D03*
X291750Y1533230D03*
X304450Y1533230D03*
X304450Y1477230D03*
X291750Y1477230D03*
X279050Y1477230D03*
X266350Y1477230D03*
X253650Y1477230D03*
X240950Y1477230D03*
X228250Y1477230D03*
X215550Y1477230D03*
D10*
X260000Y1436730D03*
X260000Y1453730D03*
X210000Y1453730D03*
X210000Y1436730D03*
D14*
X223500Y1454430D03*
X230000Y1436030D03*
X236500Y1436030D03*
X223500Y1436030D03*
X230000Y1454430D03*
X236500Y1454430D03*
D10*
X230000Y1556730D03*
X230000Y1573730D03*
D15*
X379813Y1427730D03*
X400188Y1432730D03*
X400188Y1427730D03*
X400188Y1437730D03*
X400188Y1442730D03*
X379813Y1432730D03*
X379813Y1437730D03*
X379813Y1442730D03*
D16*
X390000Y1438630D03*
X390000Y1431830D03*
D10*
X360000Y1426730D03*
X360000Y1443730D03*
D12*
X321500Y1380230D03*
X338500Y1380230D03*
X371500Y1380230D03*
X354500Y1380230D03*
X368500Y1315230D03*
X351500Y1315230D03*
D17*
X423000Y1395230D03*
X423000Y1415230D03*
D18*
X475000Y1371230D03*
X475000Y1439230D03*
D19*
X360000Y1331235D03*
X365000Y1331235D03*
X370000Y1331235D03*
X355000Y1331235D03*
X350000Y1331235D03*
X350000Y1359225D03*
X355000Y1359225D03*
X360000Y1359225D03*
X365000Y1359225D03*
X370000Y1359225D03*
D20*
X360000Y1345230D03*
D10*
X320000Y1364730D03*
X320000Y1347730D03*
D12*
X338500Y1395230D03*
X321500Y1395230D03*
D10*
X320000Y1314730D03*
X320000Y1331730D03*
D12*
X181500Y1395230D03*
X198500Y1395230D03*
X181500Y1415230D03*
X198500Y1415230D03*
D21*
X50500Y1607230D03*
X60000Y1607230D03*
X69500Y1607230D03*
X69500Y1583230D03*
X50500Y1583230D03*
X60000Y1583230D03*
D12*
X68500Y1565230D03*
X51500Y1565230D03*
X51500Y1545230D03*
X68500Y1545230D03*
D10*
X30000Y1563730D03*
X30000Y1546730D03*
D22*
X30000Y1606730D03*
X30000Y1583730D03*
D10*
X45000Y1643730D03*
X45000Y1626730D03*
X30000Y1626730D03*
X30000Y1643730D03*
D12*
X78500Y1625230D03*
X61500Y1625230D03*
X78500Y1645230D03*
X61500Y1645230D03*
D22*
X50000Y1663730D03*
X50000Y1686730D03*
X80000Y1663730D03*
X80000Y1686730D03*
D12*
X298500Y1635230D03*
X281500Y1635230D03*
X281500Y1655230D03*
X298500Y1655230D03*
D11*
X299500Y1592229D03*
X290000Y1592229D03*
X280500Y1592229D03*
X280500Y1618231D03*
X299500Y1618231D03*
D10*
X320000Y1596730D03*
X320000Y1613730D03*
X260000Y1613730D03*
X260000Y1596730D03*
X230000Y1676730D03*
X230000Y1693730D03*
D23*
X153250Y1685230D03*
X166750Y1685230D03*
X166750Y1695230D03*
X153250Y1695230D03*
D24*
X197500Y1635230D03*
D25*
X178000Y1623230D03*
X162000Y1623230D03*
X178000Y1607230D03*
X162000Y1607230D03*
D24*
X197500Y1630230D03*
X197500Y1625230D03*
X197500Y1620230D03*
X197500Y1615230D03*
X197500Y1610230D03*
X197500Y1605230D03*
X197500Y1600230D03*
X197500Y1595230D03*
D26*
X190000Y1587730D03*
X185000Y1587730D03*
X180000Y1587730D03*
X175000Y1587730D03*
X170000Y1587730D03*
X165000Y1587730D03*
X160000Y1587730D03*
X155000Y1587730D03*
X150000Y1587730D03*
D24*
X142500Y1595230D03*
X142500Y1600230D03*
X142500Y1605230D03*
X142500Y1610230D03*
X142500Y1615230D03*
X142500Y1620230D03*
X142500Y1625230D03*
X142500Y1630230D03*
X142500Y1635230D03*
D26*
X150000Y1642730D03*
X155000Y1642730D03*
X160000Y1642730D03*
X165000Y1642730D03*
X170000Y1642730D03*
X175000Y1642730D03*
X180000Y1642730D03*
X185000Y1642730D03*
X190000Y1642730D03*
D12*
X151500Y1673230D03*
X168500Y1673230D03*
D10*
X184000Y1693730D03*
X184000Y1676730D03*
X136000Y1693730D03*
X136000Y1676730D03*
D12*
X101500Y1690230D03*
X118500Y1690230D03*
X101500Y1600230D03*
X118500Y1600230D03*
D10*
X210000Y1676730D03*
X210000Y1693730D03*
D12*
X168500Y1565230D03*
X151500Y1565230D03*
X118500Y1630230D03*
X101500Y1630230D03*
X118500Y1615230D03*
X101500Y1615230D03*
D27*
X123250Y1377230D03*
X123250Y1433230D03*
D28*
X160000Y1390230D03*
X160000Y1400230D03*
X160000Y1410230D03*
X160000Y1420230D03*
D12*
X101500Y1660230D03*
X118500Y1660230D03*
X118500Y1645230D03*
X101500Y1645230D03*
X214500Y1640230D03*
X231500Y1640230D03*
X214500Y1656230D03*
X231500Y1656230D03*
X118500Y1675230D03*
X101500Y1675230D03*
D10*
X905079Y1396730D03*
X905079Y1413730D03*
X885079Y1413730D03*
X885079Y1396730D03*
D11*
X925579Y1438231D03*
X935079Y1438231D03*
X944579Y1438231D03*
X944579Y1412229D03*
X925579Y1412229D03*
D12*
X943579Y1455230D03*
X926579Y1455230D03*
D10*
X885079Y1436730D03*
X885079Y1453730D03*
X905079Y1436730D03*
X905079Y1453730D03*
X799079Y1453730D03*
X799079Y1436730D03*
D13*
X820629Y1533230D03*
X833329Y1533230D03*
X846029Y1533230D03*
X858729Y1533230D03*
X871429Y1533230D03*
X884129Y1533230D03*
X896829Y1533230D03*
X909529Y1533230D03*
X909529Y1477230D03*
X896829Y1477230D03*
X884129Y1477230D03*
X871429Y1477230D03*
X858729Y1477230D03*
X846029Y1477230D03*
X833329Y1477230D03*
X820629Y1477230D03*
D10*
X865079Y1436730D03*
X865079Y1453730D03*
X815079Y1453730D03*
X815079Y1436730D03*
D14*
X828579Y1454430D03*
X835079Y1436030D03*
X841579Y1436030D03*
X828579Y1436030D03*
X835079Y1454430D03*
X841579Y1454430D03*
D10*
X835079Y1556730D03*
X835079Y1573730D03*
D15*
X984891Y1427730D03*
X1005266Y1432730D03*
X1005266Y1427730D03*
X1005266Y1437730D03*
X1005266Y1442730D03*
X984891Y1432730D03*
X984891Y1437730D03*
X984891Y1442730D03*
D16*
X995079Y1438630D03*
X995079Y1431830D03*
D10*
X965079Y1426730D03*
X965079Y1443730D03*
D12*
X926579Y1380230D03*
X943579Y1380230D03*
X976579Y1380230D03*
X959579Y1380230D03*
X973579Y1315230D03*
X956579Y1315230D03*
D17*
X1028079Y1395230D03*
X1028079Y1415230D03*
D18*
X1080079Y1371230D03*
X1080079Y1439230D03*
D19*
X965079Y1331235D03*
X970079Y1331235D03*
X975079Y1331235D03*
X960079Y1331235D03*
X955079Y1331235D03*
X955079Y1359225D03*
X960079Y1359225D03*
X965079Y1359225D03*
X970079Y1359225D03*
X975079Y1359225D03*
D20*
X965079Y1345230D03*
D10*
X925079Y1364730D03*
X925079Y1347730D03*
D12*
X943579Y1395230D03*
X926579Y1395230D03*
D10*
X925079Y1314730D03*
X925079Y1331730D03*
D12*
X786579Y1395230D03*
X803579Y1395230D03*
X786579Y1415230D03*
X803579Y1415230D03*
D21*
X655579Y1607230D03*
X665079Y1607230D03*
X674579Y1607230D03*
X674579Y1583230D03*
X655579Y1583230D03*
X665079Y1583230D03*
D12*
X673579Y1565230D03*
X656579Y1565230D03*
X656579Y1545230D03*
X673579Y1545230D03*
D10*
X635079Y1563730D03*
X635079Y1546730D03*
D22*
X635079Y1606730D03*
X635079Y1583730D03*
D10*
X650079Y1643730D03*
X650079Y1626730D03*
X635079Y1626730D03*
X635079Y1643730D03*
D12*
X683579Y1625230D03*
X666579Y1625230D03*
X683579Y1645230D03*
X666579Y1645230D03*
D22*
X655079Y1663730D03*
X655079Y1686730D03*
X685079Y1663730D03*
X685079Y1686730D03*
D12*
X903579Y1635230D03*
X886579Y1635230D03*
X886579Y1655230D03*
X903579Y1655230D03*
D11*
X904579Y1592229D03*
X895079Y1592229D03*
X885579Y1592229D03*
X885579Y1618231D03*
X904579Y1618231D03*
D10*
X925079Y1596730D03*
X925079Y1613730D03*
X865079Y1613730D03*
X865079Y1596730D03*
X835079Y1676730D03*
X835079Y1693730D03*
D23*
X758329Y1685230D03*
X771829Y1685230D03*
X771829Y1695230D03*
X758329Y1695230D03*
D24*
X802579Y1635230D03*
D25*
X783079Y1623230D03*
X767079Y1623230D03*
X783079Y1607230D03*
X767079Y1607230D03*
D24*
X802579Y1630230D03*
X802579Y1625230D03*
X802579Y1620230D03*
X802579Y1615230D03*
X802579Y1610230D03*
X802579Y1605230D03*
X802579Y1600230D03*
X802579Y1595230D03*
D26*
X795079Y1587730D03*
X790079Y1587730D03*
X785079Y1587730D03*
X780079Y1587730D03*
X775079Y1587730D03*
X770079Y1587730D03*
X765079Y1587730D03*
X760079Y1587730D03*
X755079Y1587730D03*
D24*
X747579Y1595230D03*
X747579Y1600230D03*
X747579Y1605230D03*
X747579Y1610230D03*
X747579Y1615230D03*
X747579Y1620230D03*
X747579Y1625230D03*
X747579Y1630230D03*
X747579Y1635230D03*
D26*
X755079Y1642730D03*
X760079Y1642730D03*
X765079Y1642730D03*
X770079Y1642730D03*
X775079Y1642730D03*
X780079Y1642730D03*
X785079Y1642730D03*
X790079Y1642730D03*
X795079Y1642730D03*
D12*
X756579Y1673230D03*
X773579Y1673230D03*
D10*
X789079Y1693730D03*
X789079Y1676730D03*
X741079Y1693730D03*
X741079Y1676730D03*
D12*
X706579Y1690230D03*
X723579Y1690230D03*
X706579Y1600230D03*
X723579Y1600230D03*
D10*
X815079Y1676730D03*
X815079Y1693730D03*
D12*
X773579Y1565230D03*
X756579Y1565230D03*
X723579Y1630230D03*
X706579Y1630230D03*
X723579Y1615230D03*
X706579Y1615230D03*
D27*
X728329Y1377230D03*
X728329Y1433230D03*
D28*
X765079Y1390230D03*
X765079Y1400230D03*
X765079Y1410230D03*
X765079Y1420230D03*
D12*
X706579Y1660230D03*
X723579Y1660230D03*
X723579Y1645230D03*
X706579Y1645230D03*
X819579Y1640230D03*
X836579Y1640230D03*
X819579Y1656230D03*
X836579Y1656230D03*
X723579Y1675230D03*
X706579Y1675230D03*
M02*
