G04 EAGLE Gerber RS-274X export*
G75*
%MOMM*%
%FSLAX34Y34*%
%LPD*%
%INSoldermask Bottom*%
%IPPOS*%
%AMOC8*
5,1,8,0,0,1.08239X$1,22.5*%
G01*
%ADD10C,0.838200*%
%ADD11R,1.203200X1.303200*%
%ADD12R,0.753200X1.403200*%
%ADD13R,1.303200X1.203200*%
%ADD14R,0.803200X1.403200*%
%ADD15R,0.503200X0.863200*%
%ADD16R,0.840000X0.440000*%
%ADD17R,0.940000X1.520000*%
%ADD18C,2.082800*%
%ADD19R,4.803200X1.203200*%
%ADD20R,3.603200X1.803200*%
%ADD21R,0.838200X1.473200*%
%ADD22R,0.553200X1.003200*%
%ADD23R,2.703200X1.903200*%
%ADD24R,1.473200X0.838200*%
%ADD25R,0.753200X1.003200*%
%ADD26R,1.033200X0.833200*%
%ADD27R,0.953200X0.903200*%
%ADD28R,1.103200X0.483200*%
%ADD29R,3.903200X3.903200*%
%ADD30R,0.483200X1.103200*%
%ADD31R,2.203200X1.403200*%
%ADD32R,1.553200X0.803200*%
%ADD33C,1.203200*%
%ADD34C,1.270000*%
%ADD35C,1.703200*%

G36*
X977049Y1401813D02*
X977049Y1401813D01*
X977114Y1401815D01*
X977158Y1401833D01*
X977205Y1401841D01*
X977261Y1401875D01*
X977322Y1401899D01*
X977357Y1401931D01*
X977398Y1401955D01*
X977439Y1402006D01*
X977488Y1402051D01*
X977509Y1402093D01*
X977539Y1402130D01*
X977560Y1402192D01*
X977590Y1402250D01*
X977599Y1402305D01*
X977611Y1402342D01*
X977610Y1402381D01*
X977618Y1402436D01*
X977618Y1408024D01*
X977606Y1408089D01*
X977604Y1408154D01*
X977587Y1408198D01*
X977578Y1408245D01*
X977545Y1408301D01*
X977520Y1408362D01*
X977488Y1408397D01*
X977464Y1408438D01*
X977413Y1408479D01*
X977369Y1408528D01*
X977327Y1408549D01*
X977290Y1408579D01*
X977228Y1408600D01*
X977169Y1408630D01*
X977115Y1408639D01*
X977078Y1408651D01*
X977038Y1408650D01*
X976984Y1408658D01*
X973174Y1408658D01*
X973109Y1408646D01*
X973043Y1408644D01*
X973000Y1408627D01*
X972953Y1408618D01*
X972896Y1408585D01*
X972835Y1408560D01*
X972801Y1408528D01*
X972760Y1408504D01*
X972718Y1408453D01*
X972670Y1408409D01*
X972648Y1408367D01*
X972618Y1408330D01*
X972597Y1408268D01*
X972567Y1408209D01*
X972559Y1408155D01*
X972547Y1408118D01*
X972548Y1408078D01*
X972540Y1408024D01*
X972540Y1402436D01*
X972551Y1402371D01*
X972553Y1402305D01*
X972571Y1402262D01*
X972579Y1402215D01*
X972613Y1402158D01*
X972637Y1402097D01*
X972669Y1402063D01*
X972693Y1402022D01*
X972744Y1401980D01*
X972789Y1401932D01*
X972831Y1401910D01*
X972868Y1401880D01*
X972930Y1401859D01*
X972988Y1401829D01*
X973043Y1401821D01*
X973080Y1401809D01*
X973119Y1401810D01*
X973174Y1401802D01*
X976984Y1401802D01*
X977049Y1401813D01*
G37*
G36*
X371970Y1401813D02*
X371970Y1401813D01*
X372036Y1401815D01*
X372079Y1401833D01*
X372126Y1401841D01*
X372183Y1401875D01*
X372243Y1401899D01*
X372278Y1401931D01*
X372319Y1401955D01*
X372361Y1402006D01*
X372409Y1402051D01*
X372431Y1402093D01*
X372460Y1402130D01*
X372481Y1402192D01*
X372512Y1402250D01*
X372520Y1402305D01*
X372532Y1402342D01*
X372531Y1402381D01*
X372539Y1402436D01*
X372539Y1408024D01*
X372528Y1408089D01*
X372526Y1408154D01*
X372508Y1408198D01*
X372500Y1408245D01*
X372466Y1408301D01*
X372441Y1408362D01*
X372410Y1408397D01*
X372385Y1408438D01*
X372334Y1408479D01*
X372290Y1408528D01*
X372248Y1408549D01*
X372211Y1408579D01*
X372149Y1408600D01*
X372090Y1408630D01*
X372036Y1408639D01*
X371999Y1408651D01*
X371959Y1408650D01*
X371905Y1408658D01*
X368095Y1408658D01*
X368030Y1408646D01*
X367964Y1408644D01*
X367921Y1408627D01*
X367874Y1408618D01*
X367817Y1408585D01*
X367757Y1408560D01*
X367722Y1408528D01*
X367681Y1408504D01*
X367640Y1408453D01*
X367591Y1408409D01*
X367569Y1408367D01*
X367540Y1408330D01*
X367519Y1408268D01*
X367488Y1408209D01*
X367480Y1408155D01*
X367468Y1408118D01*
X367469Y1408078D01*
X367461Y1408024D01*
X367461Y1402436D01*
X367472Y1402371D01*
X367474Y1402305D01*
X367492Y1402262D01*
X367500Y1402215D01*
X367534Y1402158D01*
X367559Y1402097D01*
X367590Y1402063D01*
X367615Y1402022D01*
X367666Y1401980D01*
X367710Y1401932D01*
X367752Y1401910D01*
X367789Y1401880D01*
X367851Y1401859D01*
X367910Y1401829D01*
X367964Y1401821D01*
X368001Y1401809D01*
X368041Y1401810D01*
X368095Y1401802D01*
X371905Y1401802D01*
X371970Y1401813D01*
G37*
G36*
X977049Y966737D02*
X977049Y966737D01*
X977114Y966739D01*
X977158Y966756D01*
X977205Y966765D01*
X977261Y966798D01*
X977322Y966823D01*
X977357Y966855D01*
X977398Y966879D01*
X977439Y966930D01*
X977488Y966974D01*
X977509Y967016D01*
X977539Y967053D01*
X977560Y967115D01*
X977590Y967174D01*
X977599Y967228D01*
X977611Y967265D01*
X977610Y967305D01*
X977618Y967359D01*
X977618Y972947D01*
X977606Y973012D01*
X977604Y973078D01*
X977587Y973121D01*
X977578Y973168D01*
X977545Y973225D01*
X977520Y973286D01*
X977488Y973321D01*
X977464Y973361D01*
X977413Y973403D01*
X977369Y973451D01*
X977327Y973473D01*
X977290Y973503D01*
X977228Y973524D01*
X977169Y973554D01*
X977115Y973562D01*
X977078Y973574D01*
X977038Y973573D01*
X976984Y973581D01*
X973174Y973581D01*
X973109Y973570D01*
X973043Y973568D01*
X973000Y973550D01*
X972953Y973542D01*
X972896Y973508D01*
X972835Y973484D01*
X972801Y973452D01*
X972760Y973428D01*
X972718Y973377D01*
X972670Y973332D01*
X972648Y973290D01*
X972618Y973253D01*
X972597Y973191D01*
X972567Y973133D01*
X972559Y973078D01*
X972547Y973041D01*
X972548Y973002D01*
X972540Y972947D01*
X972540Y967359D01*
X972551Y967294D01*
X972553Y967229D01*
X972571Y967185D01*
X972579Y967138D01*
X972613Y967082D01*
X972637Y967021D01*
X972669Y966986D01*
X972693Y966945D01*
X972744Y966904D01*
X972789Y966855D01*
X972831Y966834D01*
X972868Y966804D01*
X972930Y966783D01*
X972988Y966753D01*
X973043Y966745D01*
X973080Y966732D01*
X973119Y966733D01*
X973174Y966725D01*
X976984Y966725D01*
X977049Y966737D01*
G37*
G36*
X371970Y966737D02*
X371970Y966737D01*
X372036Y966739D01*
X372079Y966756D01*
X372126Y966765D01*
X372183Y966798D01*
X372243Y966823D01*
X372278Y966855D01*
X372319Y966879D01*
X372361Y966930D01*
X372409Y966974D01*
X372431Y967016D01*
X372460Y967053D01*
X372481Y967115D01*
X372512Y967174D01*
X372520Y967228D01*
X372532Y967265D01*
X372531Y967305D01*
X372539Y967359D01*
X372539Y972947D01*
X372528Y973012D01*
X372526Y973078D01*
X372508Y973121D01*
X372500Y973168D01*
X372466Y973225D01*
X372441Y973286D01*
X372410Y973321D01*
X372385Y973361D01*
X372334Y973403D01*
X372290Y973451D01*
X372248Y973473D01*
X372211Y973503D01*
X372149Y973524D01*
X372090Y973554D01*
X372036Y973562D01*
X371999Y973574D01*
X371959Y973573D01*
X371905Y973581D01*
X368095Y973581D01*
X368030Y973570D01*
X367964Y973568D01*
X367921Y973550D01*
X367874Y973542D01*
X367817Y973508D01*
X367757Y973484D01*
X367722Y973452D01*
X367681Y973428D01*
X367640Y973377D01*
X367591Y973332D01*
X367569Y973290D01*
X367540Y973253D01*
X367519Y973191D01*
X367488Y973133D01*
X367480Y973078D01*
X367468Y973041D01*
X367469Y973002D01*
X367461Y972947D01*
X367461Y967359D01*
X367472Y967294D01*
X367474Y967229D01*
X367492Y967185D01*
X367500Y967138D01*
X367534Y967082D01*
X367559Y967021D01*
X367590Y966986D01*
X367615Y966945D01*
X367666Y966904D01*
X367710Y966855D01*
X367752Y966834D01*
X367789Y966804D01*
X367851Y966783D01*
X367910Y966753D01*
X367964Y966745D01*
X368001Y966732D01*
X368041Y966733D01*
X368095Y966725D01*
X371905Y966725D01*
X371970Y966737D01*
G37*
G36*
X977049Y531660D02*
X977049Y531660D01*
X977114Y531662D01*
X977158Y531680D01*
X977205Y531688D01*
X977261Y531722D01*
X977322Y531746D01*
X977357Y531778D01*
X977398Y531802D01*
X977439Y531853D01*
X977488Y531898D01*
X977509Y531940D01*
X977539Y531976D01*
X977560Y532039D01*
X977590Y532097D01*
X977599Y532152D01*
X977611Y532189D01*
X977610Y532228D01*
X977618Y532283D01*
X977618Y537871D01*
X977606Y537935D01*
X977604Y538001D01*
X977587Y538045D01*
X977578Y538091D01*
X977545Y538148D01*
X977520Y538209D01*
X977488Y538244D01*
X977464Y538285D01*
X977413Y538326D01*
X977369Y538375D01*
X977327Y538396D01*
X977290Y538426D01*
X977228Y538447D01*
X977169Y538477D01*
X977115Y538485D01*
X977078Y538498D01*
X977038Y538497D01*
X976984Y538505D01*
X973174Y538505D01*
X973109Y538493D01*
X973043Y538491D01*
X973000Y538474D01*
X972953Y538465D01*
X972896Y538432D01*
X972835Y538407D01*
X972801Y538375D01*
X972760Y538351D01*
X972718Y538300D01*
X972670Y538256D01*
X972648Y538214D01*
X972618Y538177D01*
X972597Y538115D01*
X972567Y538056D01*
X972559Y538002D01*
X972547Y537964D01*
X972548Y537925D01*
X972540Y537871D01*
X972540Y532283D01*
X972551Y532218D01*
X972553Y532152D01*
X972571Y532108D01*
X972579Y532062D01*
X972613Y532005D01*
X972637Y531944D01*
X972669Y531909D01*
X972693Y531869D01*
X972744Y531827D01*
X972789Y531779D01*
X972831Y531757D01*
X972868Y531727D01*
X972930Y531706D01*
X972988Y531676D01*
X973043Y531668D01*
X973080Y531655D01*
X973119Y531656D01*
X973174Y531648D01*
X976984Y531648D01*
X977049Y531660D01*
G37*
G36*
X371970Y531660D02*
X371970Y531660D01*
X372036Y531662D01*
X372079Y531680D01*
X372126Y531688D01*
X372183Y531722D01*
X372243Y531746D01*
X372278Y531778D01*
X372319Y531802D01*
X372361Y531853D01*
X372409Y531898D01*
X372431Y531940D01*
X372460Y531976D01*
X372481Y532039D01*
X372512Y532097D01*
X372520Y532152D01*
X372532Y532189D01*
X372531Y532228D01*
X372539Y532283D01*
X372539Y537871D01*
X372528Y537935D01*
X372526Y538001D01*
X372508Y538045D01*
X372500Y538091D01*
X372466Y538148D01*
X372441Y538209D01*
X372410Y538244D01*
X372385Y538285D01*
X372334Y538326D01*
X372290Y538375D01*
X372248Y538396D01*
X372211Y538426D01*
X372149Y538447D01*
X372090Y538477D01*
X372036Y538485D01*
X371999Y538498D01*
X371959Y538497D01*
X371905Y538505D01*
X368095Y538505D01*
X368030Y538493D01*
X367964Y538491D01*
X367921Y538474D01*
X367874Y538465D01*
X367817Y538432D01*
X367757Y538407D01*
X367722Y538375D01*
X367681Y538351D01*
X367640Y538300D01*
X367591Y538256D01*
X367569Y538214D01*
X367540Y538177D01*
X367519Y538115D01*
X367488Y538056D01*
X367480Y538002D01*
X367468Y537964D01*
X367469Y537925D01*
X367461Y537871D01*
X367461Y532283D01*
X367472Y532218D01*
X367474Y532152D01*
X367492Y532108D01*
X367500Y532062D01*
X367534Y532005D01*
X367559Y531944D01*
X367590Y531909D01*
X367615Y531869D01*
X367666Y531827D01*
X367710Y531779D01*
X367752Y531757D01*
X367789Y531727D01*
X367851Y531706D01*
X367910Y531676D01*
X367964Y531668D01*
X368001Y531655D01*
X368041Y531656D01*
X368095Y531648D01*
X371905Y531648D01*
X371970Y531660D01*
G37*
G36*
X977049Y96583D02*
X977049Y96583D01*
X977114Y96585D01*
X977158Y96603D01*
X977205Y96611D01*
X977261Y96645D01*
X977322Y96670D01*
X977357Y96701D01*
X977398Y96726D01*
X977439Y96777D01*
X977488Y96821D01*
X977509Y96863D01*
X977539Y96900D01*
X977560Y96962D01*
X977590Y97021D01*
X977599Y97075D01*
X977611Y97112D01*
X977610Y97152D01*
X977618Y97206D01*
X977618Y102794D01*
X977606Y102859D01*
X977604Y102925D01*
X977587Y102968D01*
X977578Y103015D01*
X977545Y103072D01*
X977520Y103132D01*
X977488Y103167D01*
X977464Y103208D01*
X977413Y103250D01*
X977369Y103298D01*
X977327Y103320D01*
X977290Y103349D01*
X977228Y103370D01*
X977169Y103401D01*
X977115Y103409D01*
X977078Y103421D01*
X977038Y103420D01*
X976984Y103428D01*
X973174Y103428D01*
X973109Y103417D01*
X973043Y103415D01*
X973000Y103397D01*
X972953Y103389D01*
X972896Y103355D01*
X972835Y103330D01*
X972801Y103299D01*
X972760Y103274D01*
X972718Y103223D01*
X972670Y103179D01*
X972648Y103137D01*
X972618Y103100D01*
X972597Y103038D01*
X972567Y102979D01*
X972559Y102925D01*
X972547Y102888D01*
X972548Y102848D01*
X972540Y102794D01*
X972540Y97206D01*
X972551Y97141D01*
X972553Y97075D01*
X972571Y97032D01*
X972579Y96985D01*
X972613Y96928D01*
X972637Y96868D01*
X972669Y96833D01*
X972693Y96792D01*
X972744Y96751D01*
X972789Y96702D01*
X972831Y96680D01*
X972868Y96651D01*
X972930Y96630D01*
X972988Y96599D01*
X973043Y96591D01*
X973080Y96579D01*
X973119Y96580D01*
X973174Y96572D01*
X976984Y96572D01*
X977049Y96583D01*
G37*
G36*
X371970Y96583D02*
X371970Y96583D01*
X372036Y96585D01*
X372079Y96603D01*
X372126Y96611D01*
X372183Y96645D01*
X372243Y96670D01*
X372278Y96701D01*
X372319Y96726D01*
X372361Y96777D01*
X372409Y96821D01*
X372431Y96863D01*
X372460Y96900D01*
X372481Y96962D01*
X372512Y97021D01*
X372520Y97075D01*
X372532Y97112D01*
X372531Y97152D01*
X372539Y97206D01*
X372539Y102794D01*
X372528Y102859D01*
X372526Y102925D01*
X372508Y102968D01*
X372500Y103015D01*
X372466Y103072D01*
X372441Y103132D01*
X372410Y103167D01*
X372385Y103208D01*
X372334Y103250D01*
X372290Y103298D01*
X372248Y103320D01*
X372211Y103349D01*
X372149Y103370D01*
X372090Y103401D01*
X372036Y103409D01*
X371999Y103421D01*
X371959Y103420D01*
X371905Y103428D01*
X368095Y103428D01*
X368030Y103417D01*
X367964Y103415D01*
X367921Y103397D01*
X367874Y103389D01*
X367817Y103355D01*
X367757Y103330D01*
X367722Y103299D01*
X367681Y103274D01*
X367640Y103223D01*
X367591Y103179D01*
X367569Y103137D01*
X367540Y103100D01*
X367519Y103038D01*
X367488Y102979D01*
X367480Y102925D01*
X367468Y102888D01*
X367469Y102848D01*
X367461Y102794D01*
X367461Y97206D01*
X367472Y97141D01*
X367474Y97075D01*
X367492Y97032D01*
X367500Y96985D01*
X367534Y96928D01*
X367559Y96868D01*
X367590Y96833D01*
X367615Y96792D01*
X367666Y96751D01*
X367710Y96702D01*
X367752Y96680D01*
X367789Y96651D01*
X367851Y96630D01*
X367910Y96599D01*
X367964Y96591D01*
X368001Y96579D01*
X368041Y96580D01*
X368095Y96572D01*
X371905Y96572D01*
X371970Y96583D01*
G37*
D10*
X590000Y10000D03*
X10000Y390000D03*
D11*
X300000Y91500D03*
X300000Y108500D03*
X280000Y108500D03*
X280000Y91500D03*
D12*
X320500Y133001D03*
X330000Y133001D03*
X339500Y133001D03*
X339500Y106999D03*
X320500Y106999D03*
D13*
X338500Y150000D03*
X321500Y150000D03*
D11*
X280000Y131500D03*
X280000Y148500D03*
X300000Y131500D03*
X300000Y148500D03*
X194000Y148500D03*
X194000Y131500D03*
D14*
X215550Y228000D03*
X228250Y228000D03*
X240950Y228000D03*
X253650Y228000D03*
X266350Y228000D03*
X279050Y228000D03*
X291750Y228000D03*
X304450Y228000D03*
X304450Y172000D03*
X291750Y172000D03*
X279050Y172000D03*
X266350Y172000D03*
X253650Y172000D03*
X240950Y172000D03*
X228250Y172000D03*
X215550Y172000D03*
D11*
X260000Y131500D03*
X260000Y148500D03*
X210000Y148500D03*
X210000Y131500D03*
D15*
X223500Y149200D03*
X230000Y130800D03*
X236500Y130800D03*
X223500Y130800D03*
X230000Y149200D03*
X236500Y149200D03*
D11*
X230000Y251500D03*
X230000Y268500D03*
D16*
X399900Y122500D03*
X399900Y127500D03*
X399900Y132500D03*
X399900Y137500D03*
X379900Y137500D03*
X379900Y132500D03*
X379900Y127500D03*
X379900Y122500D03*
D17*
X390000Y130000D03*
D11*
X360000Y121500D03*
X360000Y138500D03*
D18*
X280000Y70000D03*
X305400Y70000D03*
D13*
X321500Y75000D03*
X338500Y75000D03*
X371500Y75000D03*
X354500Y75000D03*
X368500Y10000D03*
X351500Y10000D03*
D19*
X423000Y90000D03*
X423000Y110000D03*
D20*
X475000Y66000D03*
X475000Y134000D03*
D21*
X375080Y100000D03*
X364920Y100000D03*
D18*
X382700Y100000D03*
X357300Y100000D03*
D22*
X360000Y25500D03*
X365000Y25500D03*
X370000Y25500D03*
X355000Y25500D03*
X350000Y25500D03*
X350000Y54500D03*
X355000Y54500D03*
X360000Y54500D03*
X365000Y54500D03*
X370000Y54500D03*
D23*
X360000Y40000D03*
D11*
X320000Y59500D03*
X320000Y42500D03*
D13*
X338500Y90000D03*
X321500Y90000D03*
D11*
X320000Y9500D03*
X320000Y26500D03*
D13*
X181500Y90000D03*
X198500Y90000D03*
X181500Y110000D03*
X198500Y110000D03*
D24*
X220000Y108128D03*
X220000Y100000D03*
X220000Y91872D03*
D25*
X50500Y302000D03*
X60000Y302000D03*
X69500Y302000D03*
X69500Y278000D03*
X50500Y278000D03*
X60000Y278000D03*
D13*
X68500Y260000D03*
X51500Y260000D03*
X51500Y240000D03*
X68500Y240000D03*
D11*
X30000Y258500D03*
X30000Y241500D03*
D26*
X30000Y301500D03*
X30000Y278500D03*
D11*
X45000Y338500D03*
X45000Y321500D03*
X30000Y321500D03*
X30000Y338500D03*
D13*
X78500Y320000D03*
X61500Y320000D03*
X78500Y340000D03*
X61500Y340000D03*
D26*
X50000Y358500D03*
X50000Y381500D03*
X80000Y358500D03*
X80000Y381500D03*
D13*
X298500Y330000D03*
X281500Y330000D03*
X281500Y350000D03*
X298500Y350000D03*
D12*
X299500Y286999D03*
X290000Y286999D03*
X280500Y286999D03*
X280500Y313001D03*
X299500Y313001D03*
D11*
X320000Y291500D03*
X320000Y308500D03*
X260000Y308500D03*
X260000Y291500D03*
X230000Y371500D03*
X230000Y388500D03*
D27*
X153250Y380000D03*
X166750Y380000D03*
X166750Y390000D03*
X153250Y390000D03*
D28*
X197500Y330000D03*
D29*
X170000Y310000D03*
D28*
X197500Y325000D03*
X197500Y320000D03*
X197500Y315000D03*
X197500Y310000D03*
X197500Y305000D03*
X197500Y300000D03*
X197500Y295000D03*
X197500Y290000D03*
D30*
X190000Y282500D03*
X185000Y282500D03*
X180000Y282500D03*
X175000Y282500D03*
X170000Y282500D03*
X165000Y282500D03*
X160000Y282500D03*
X155000Y282500D03*
X150000Y282500D03*
D28*
X142500Y290000D03*
X142500Y295000D03*
X142500Y300000D03*
X142500Y305000D03*
X142500Y310000D03*
X142500Y315000D03*
X142500Y320000D03*
X142500Y325000D03*
X142500Y330000D03*
D30*
X150000Y337500D03*
X155000Y337500D03*
X160000Y337500D03*
X165000Y337500D03*
X170000Y337500D03*
X175000Y337500D03*
X180000Y337500D03*
X185000Y337500D03*
X190000Y337500D03*
D13*
X151500Y368000D03*
X168500Y368000D03*
D11*
X184000Y388500D03*
X184000Y371500D03*
X136000Y388500D03*
X136000Y371500D03*
D13*
X101500Y385000D03*
X118500Y385000D03*
X101500Y295000D03*
X118500Y295000D03*
D11*
X210000Y371500D03*
X210000Y388500D03*
D13*
X168500Y260000D03*
X151500Y260000D03*
X118500Y325000D03*
X101500Y325000D03*
X118500Y310000D03*
X101500Y310000D03*
D31*
X123250Y72000D03*
X123250Y128000D03*
D32*
X160000Y85000D03*
X160000Y95000D03*
X160000Y105000D03*
X160000Y115000D03*
D13*
X101500Y355000D03*
X118500Y355000D03*
X118500Y340000D03*
X101500Y340000D03*
D18*
X547000Y104000D03*
X572400Y104000D03*
D13*
X214500Y335000D03*
X231500Y335000D03*
X214500Y351000D03*
X231500Y351000D03*
X118500Y370000D03*
X101500Y370000D03*
D18*
X520000Y60000D03*
D33*
X36350Y177300D03*
X36350Y190000D03*
X36350Y202700D03*
X36350Y215400D03*
X36350Y164600D03*
X23650Y177300D03*
X23650Y190000D03*
X23650Y202700D03*
X23650Y215400D03*
X23650Y164600D03*
D10*
X1195079Y10000D03*
X615079Y390000D03*
D11*
X905079Y91500D03*
X905079Y108500D03*
X885079Y108500D03*
X885079Y91500D03*
D12*
X925579Y133001D03*
X935079Y133001D03*
X944579Y133001D03*
X944579Y106999D03*
X925579Y106999D03*
D13*
X943579Y150000D03*
X926579Y150000D03*
D11*
X885079Y131500D03*
X885079Y148500D03*
X905079Y131500D03*
X905079Y148500D03*
X799079Y148500D03*
X799079Y131500D03*
D14*
X820629Y228000D03*
X833329Y228000D03*
X846029Y228000D03*
X858729Y228000D03*
X871429Y228000D03*
X884129Y228000D03*
X896829Y228000D03*
X909529Y228000D03*
X909529Y172000D03*
X896829Y172000D03*
X884129Y172000D03*
X871429Y172000D03*
X858729Y172000D03*
X846029Y172000D03*
X833329Y172000D03*
X820629Y172000D03*
D11*
X865079Y131500D03*
X865079Y148500D03*
X815079Y148500D03*
X815079Y131500D03*
D15*
X828579Y149200D03*
X835079Y130800D03*
X841579Y130800D03*
X828579Y130800D03*
X835079Y149200D03*
X841579Y149200D03*
D11*
X835079Y251500D03*
X835079Y268500D03*
D16*
X1004979Y122500D03*
X1004979Y127500D03*
X1004979Y132500D03*
X1004979Y137500D03*
X984979Y137500D03*
X984979Y132500D03*
X984979Y127500D03*
X984979Y122500D03*
D17*
X995079Y130000D03*
D11*
X965079Y121500D03*
X965079Y138500D03*
D18*
X885079Y70000D03*
X910479Y70000D03*
D13*
X926579Y75000D03*
X943579Y75000D03*
X976579Y75000D03*
X959579Y75000D03*
X973579Y10000D03*
X956579Y10000D03*
D19*
X1028079Y90000D03*
X1028079Y110000D03*
D20*
X1080079Y66000D03*
X1080079Y134000D03*
D21*
X980159Y100000D03*
X969999Y100000D03*
D18*
X987779Y100000D03*
X962379Y100000D03*
D22*
X965079Y25500D03*
X970079Y25500D03*
X975079Y25500D03*
X960079Y25500D03*
X955079Y25500D03*
X955079Y54500D03*
X960079Y54500D03*
X965079Y54500D03*
X970079Y54500D03*
X975079Y54500D03*
D23*
X965079Y40000D03*
D11*
X925079Y59500D03*
X925079Y42500D03*
D13*
X943579Y90000D03*
X926579Y90000D03*
D11*
X925079Y9500D03*
X925079Y26500D03*
D13*
X786579Y90000D03*
X803579Y90000D03*
X786579Y110000D03*
X803579Y110000D03*
D24*
X825079Y108128D03*
X825079Y100000D03*
X825079Y91872D03*
D25*
X655579Y302000D03*
X665079Y302000D03*
X674579Y302000D03*
X674579Y278000D03*
X655579Y278000D03*
X665079Y278000D03*
D13*
X673579Y260000D03*
X656579Y260000D03*
X656579Y240000D03*
X673579Y240000D03*
D11*
X635079Y258500D03*
X635079Y241500D03*
D26*
X635079Y301500D03*
X635079Y278500D03*
D11*
X650079Y338500D03*
X650079Y321500D03*
X635079Y321500D03*
X635079Y338500D03*
D13*
X683579Y320000D03*
X666579Y320000D03*
X683579Y340000D03*
X666579Y340000D03*
D26*
X655079Y358500D03*
X655079Y381500D03*
X685079Y358500D03*
X685079Y381500D03*
D13*
X903579Y330000D03*
X886579Y330000D03*
X886579Y350000D03*
X903579Y350000D03*
D12*
X904579Y286999D03*
X895079Y286999D03*
X885579Y286999D03*
X885579Y313001D03*
X904579Y313001D03*
D11*
X925079Y291500D03*
X925079Y308500D03*
X865079Y308500D03*
X865079Y291500D03*
X835079Y371500D03*
X835079Y388500D03*
D27*
X758329Y380000D03*
X771829Y380000D03*
X771829Y390000D03*
X758329Y390000D03*
D28*
X802579Y330000D03*
D29*
X775079Y310000D03*
D28*
X802579Y325000D03*
X802579Y320000D03*
X802579Y315000D03*
X802579Y310000D03*
X802579Y305000D03*
X802579Y300000D03*
X802579Y295000D03*
X802579Y290000D03*
D30*
X795079Y282500D03*
X790079Y282500D03*
X785079Y282500D03*
X780079Y282500D03*
X775079Y282500D03*
X770079Y282500D03*
X765079Y282500D03*
X760079Y282500D03*
X755079Y282500D03*
D28*
X747579Y290000D03*
X747579Y295000D03*
X747579Y300000D03*
X747579Y305000D03*
X747579Y310000D03*
X747579Y315000D03*
X747579Y320000D03*
X747579Y325000D03*
X747579Y330000D03*
D30*
X755079Y337500D03*
X760079Y337500D03*
X765079Y337500D03*
X770079Y337500D03*
X775079Y337500D03*
X780079Y337500D03*
X785079Y337500D03*
X790079Y337500D03*
X795079Y337500D03*
D13*
X756579Y368000D03*
X773579Y368000D03*
D11*
X789079Y388500D03*
X789079Y371500D03*
X741079Y388500D03*
X741079Y371500D03*
D13*
X706579Y385000D03*
X723579Y385000D03*
X706579Y295000D03*
X723579Y295000D03*
D11*
X815079Y371500D03*
X815079Y388500D03*
D13*
X773579Y260000D03*
X756579Y260000D03*
X723579Y325000D03*
X706579Y325000D03*
X723579Y310000D03*
X706579Y310000D03*
D31*
X728329Y72000D03*
X728329Y128000D03*
D32*
X765079Y85000D03*
X765079Y95000D03*
X765079Y105000D03*
X765079Y115000D03*
D13*
X706579Y355000D03*
X723579Y355000D03*
X723579Y340000D03*
X706579Y340000D03*
D18*
X1152079Y104000D03*
X1177479Y104000D03*
D13*
X819579Y335000D03*
X836579Y335000D03*
X819579Y351000D03*
X836579Y351000D03*
X723579Y370000D03*
X706579Y370000D03*
D18*
X1125079Y60000D03*
D33*
X641429Y177300D03*
X641429Y190000D03*
X641429Y202700D03*
X641429Y215400D03*
X641429Y164600D03*
X628729Y177300D03*
X628729Y190000D03*
X628729Y202700D03*
X628729Y215400D03*
X628729Y164600D03*
D10*
X590000Y445077D03*
X10000Y825077D03*
D11*
X300000Y526577D03*
X300000Y543577D03*
X280000Y543577D03*
X280000Y526577D03*
D12*
X320500Y568078D03*
X330000Y568078D03*
X339500Y568078D03*
X339500Y542076D03*
X320500Y542076D03*
D13*
X338500Y585077D03*
X321500Y585077D03*
D11*
X280000Y566577D03*
X280000Y583577D03*
X300000Y566577D03*
X300000Y583577D03*
X194000Y583577D03*
X194000Y566577D03*
D14*
X215550Y663077D03*
X228250Y663077D03*
X240950Y663077D03*
X253650Y663077D03*
X266350Y663077D03*
X279050Y663077D03*
X291750Y663077D03*
X304450Y663077D03*
X304450Y607077D03*
X291750Y607077D03*
X279050Y607077D03*
X266350Y607077D03*
X253650Y607077D03*
X240950Y607077D03*
X228250Y607077D03*
X215550Y607077D03*
D11*
X260000Y566577D03*
X260000Y583577D03*
X210000Y583577D03*
X210000Y566577D03*
D15*
X223500Y584277D03*
X230000Y565877D03*
X236500Y565877D03*
X223500Y565877D03*
X230000Y584277D03*
X236500Y584277D03*
D11*
X230000Y686577D03*
X230000Y703577D03*
D16*
X399900Y557577D03*
X399900Y562577D03*
X399900Y567577D03*
X399900Y572577D03*
X379900Y572577D03*
X379900Y567577D03*
X379900Y562577D03*
X379900Y557577D03*
D17*
X390000Y565077D03*
D11*
X360000Y556577D03*
X360000Y573577D03*
D18*
X280000Y505077D03*
X305400Y505077D03*
D13*
X321500Y510077D03*
X338500Y510077D03*
X371500Y510077D03*
X354500Y510077D03*
X368500Y445077D03*
X351500Y445077D03*
D19*
X423000Y525077D03*
X423000Y545077D03*
D20*
X475000Y501077D03*
X475000Y569077D03*
D21*
X375080Y535077D03*
X364920Y535077D03*
D18*
X382700Y535077D03*
X357300Y535077D03*
D22*
X360000Y460577D03*
X365000Y460577D03*
X370000Y460577D03*
X355000Y460577D03*
X350000Y460577D03*
X350000Y489577D03*
X355000Y489577D03*
X360000Y489577D03*
X365000Y489577D03*
X370000Y489577D03*
D23*
X360000Y475077D03*
D11*
X320000Y494577D03*
X320000Y477577D03*
D13*
X338500Y525077D03*
X321500Y525077D03*
D11*
X320000Y444577D03*
X320000Y461577D03*
D13*
X181500Y525077D03*
X198500Y525077D03*
X181500Y545077D03*
X198500Y545077D03*
D24*
X220000Y543205D03*
X220000Y535077D03*
X220000Y526949D03*
D25*
X50500Y737077D03*
X60000Y737077D03*
X69500Y737077D03*
X69500Y713077D03*
X50500Y713077D03*
X60000Y713077D03*
D13*
X68500Y695077D03*
X51500Y695077D03*
X51500Y675077D03*
X68500Y675077D03*
D11*
X30000Y693577D03*
X30000Y676577D03*
D26*
X30000Y736577D03*
X30000Y713577D03*
D11*
X45000Y773577D03*
X45000Y756577D03*
X30000Y756577D03*
X30000Y773577D03*
D13*
X78500Y755077D03*
X61500Y755077D03*
X78500Y775077D03*
X61500Y775077D03*
D26*
X50000Y793577D03*
X50000Y816577D03*
X80000Y793577D03*
X80000Y816577D03*
D13*
X298500Y765077D03*
X281500Y765077D03*
X281500Y785077D03*
X298500Y785077D03*
D12*
X299500Y722076D03*
X290000Y722076D03*
X280500Y722076D03*
X280500Y748078D03*
X299500Y748078D03*
D11*
X320000Y726577D03*
X320000Y743577D03*
X260000Y743577D03*
X260000Y726577D03*
X230000Y806577D03*
X230000Y823577D03*
D27*
X153250Y815077D03*
X166750Y815077D03*
X166750Y825077D03*
X153250Y825077D03*
D28*
X197500Y765077D03*
D29*
X170000Y745077D03*
D28*
X197500Y760077D03*
X197500Y755077D03*
X197500Y750077D03*
X197500Y745077D03*
X197500Y740077D03*
X197500Y735077D03*
X197500Y730077D03*
X197500Y725077D03*
D30*
X190000Y717577D03*
X185000Y717577D03*
X180000Y717577D03*
X175000Y717577D03*
X170000Y717577D03*
X165000Y717577D03*
X160000Y717577D03*
X155000Y717577D03*
X150000Y717577D03*
D28*
X142500Y725077D03*
X142500Y730077D03*
X142500Y735077D03*
X142500Y740077D03*
X142500Y745077D03*
X142500Y750077D03*
X142500Y755077D03*
X142500Y760077D03*
X142500Y765077D03*
D30*
X150000Y772577D03*
X155000Y772577D03*
X160000Y772577D03*
X165000Y772577D03*
X170000Y772577D03*
X175000Y772577D03*
X180000Y772577D03*
X185000Y772577D03*
X190000Y772577D03*
D13*
X151500Y803077D03*
X168500Y803077D03*
D11*
X184000Y823577D03*
X184000Y806577D03*
X136000Y823577D03*
X136000Y806577D03*
D13*
X101500Y820077D03*
X118500Y820077D03*
X101500Y730077D03*
X118500Y730077D03*
D11*
X210000Y806577D03*
X210000Y823577D03*
D13*
X168500Y695077D03*
X151500Y695077D03*
X118500Y760077D03*
X101500Y760077D03*
X118500Y745077D03*
X101500Y745077D03*
D31*
X123250Y507077D03*
X123250Y563077D03*
D32*
X160000Y520077D03*
X160000Y530077D03*
X160000Y540077D03*
X160000Y550077D03*
D13*
X101500Y790077D03*
X118500Y790077D03*
X118500Y775077D03*
X101500Y775077D03*
D18*
X547000Y539077D03*
X572400Y539077D03*
D13*
X214500Y770077D03*
X231500Y770077D03*
X214500Y786077D03*
X231500Y786077D03*
X118500Y805077D03*
X101500Y805077D03*
D18*
X520000Y495077D03*
D33*
X36350Y612377D03*
X36350Y625077D03*
X36350Y637777D03*
X36350Y650477D03*
X36350Y599677D03*
X23650Y612377D03*
X23650Y625077D03*
X23650Y637777D03*
X23650Y650477D03*
X23650Y599677D03*
D10*
X1195079Y445077D03*
X615079Y825077D03*
D11*
X905079Y526577D03*
X905079Y543577D03*
X885079Y543577D03*
X885079Y526577D03*
D12*
X925579Y568078D03*
X935079Y568078D03*
X944579Y568078D03*
X944579Y542076D03*
X925579Y542076D03*
D13*
X943579Y585077D03*
X926579Y585077D03*
D11*
X885079Y566577D03*
X885079Y583577D03*
X905079Y566577D03*
X905079Y583577D03*
X799079Y583577D03*
X799079Y566577D03*
D14*
X820629Y663077D03*
X833329Y663077D03*
X846029Y663077D03*
X858729Y663077D03*
X871429Y663077D03*
X884129Y663077D03*
X896829Y663077D03*
X909529Y663077D03*
X909529Y607077D03*
X896829Y607077D03*
X884129Y607077D03*
X871429Y607077D03*
X858729Y607077D03*
X846029Y607077D03*
X833329Y607077D03*
X820629Y607077D03*
D11*
X865079Y566577D03*
X865079Y583577D03*
X815079Y583577D03*
X815079Y566577D03*
D15*
X828579Y584277D03*
X835079Y565877D03*
X841579Y565877D03*
X828579Y565877D03*
X835079Y584277D03*
X841579Y584277D03*
D11*
X835079Y686577D03*
X835079Y703577D03*
D16*
X1004979Y557577D03*
X1004979Y562577D03*
X1004979Y567577D03*
X1004979Y572577D03*
X984979Y572577D03*
X984979Y567577D03*
X984979Y562577D03*
X984979Y557577D03*
D17*
X995079Y565077D03*
D11*
X965079Y556577D03*
X965079Y573577D03*
D18*
X885079Y505077D03*
X910479Y505077D03*
D13*
X926579Y510077D03*
X943579Y510077D03*
X976579Y510077D03*
X959579Y510077D03*
X973579Y445077D03*
X956579Y445077D03*
D19*
X1028079Y525077D03*
X1028079Y545077D03*
D20*
X1080079Y501077D03*
X1080079Y569077D03*
D21*
X980159Y535077D03*
X969999Y535077D03*
D18*
X987779Y535077D03*
X962379Y535077D03*
D22*
X965079Y460577D03*
X970079Y460577D03*
X975079Y460577D03*
X960079Y460577D03*
X955079Y460577D03*
X955079Y489577D03*
X960079Y489577D03*
X965079Y489577D03*
X970079Y489577D03*
X975079Y489577D03*
D23*
X965079Y475077D03*
D11*
X925079Y494577D03*
X925079Y477577D03*
D13*
X943579Y525077D03*
X926579Y525077D03*
D11*
X925079Y444577D03*
X925079Y461577D03*
D13*
X786579Y525077D03*
X803579Y525077D03*
X786579Y545077D03*
X803579Y545077D03*
D24*
X825079Y543205D03*
X825079Y535077D03*
X825079Y526949D03*
D25*
X655579Y737077D03*
X665079Y737077D03*
X674579Y737077D03*
X674579Y713077D03*
X655579Y713077D03*
X665079Y713077D03*
D13*
X673579Y695077D03*
X656579Y695077D03*
X656579Y675077D03*
X673579Y675077D03*
D11*
X635079Y693577D03*
X635079Y676577D03*
D26*
X635079Y736577D03*
X635079Y713577D03*
D11*
X650079Y773577D03*
X650079Y756577D03*
X635079Y756577D03*
X635079Y773577D03*
D13*
X683579Y755077D03*
X666579Y755077D03*
X683579Y775077D03*
X666579Y775077D03*
D26*
X655079Y793577D03*
X655079Y816577D03*
X685079Y793577D03*
X685079Y816577D03*
D13*
X903579Y765077D03*
X886579Y765077D03*
X886579Y785077D03*
X903579Y785077D03*
D12*
X904579Y722076D03*
X895079Y722076D03*
X885579Y722076D03*
X885579Y748078D03*
X904579Y748078D03*
D11*
X925079Y726577D03*
X925079Y743577D03*
X865079Y743577D03*
X865079Y726577D03*
X835079Y806577D03*
X835079Y823577D03*
D27*
X758329Y815077D03*
X771829Y815077D03*
X771829Y825077D03*
X758329Y825077D03*
D28*
X802579Y765077D03*
D29*
X775079Y745077D03*
D28*
X802579Y760077D03*
X802579Y755077D03*
X802579Y750077D03*
X802579Y745077D03*
X802579Y740077D03*
X802579Y735077D03*
X802579Y730077D03*
X802579Y725077D03*
D30*
X795079Y717577D03*
X790079Y717577D03*
X785079Y717577D03*
X780079Y717577D03*
X775079Y717577D03*
X770079Y717577D03*
X765079Y717577D03*
X760079Y717577D03*
X755079Y717577D03*
D28*
X747579Y725077D03*
X747579Y730077D03*
X747579Y735077D03*
X747579Y740077D03*
X747579Y745077D03*
X747579Y750077D03*
X747579Y755077D03*
X747579Y760077D03*
X747579Y765077D03*
D30*
X755079Y772577D03*
X760079Y772577D03*
X765079Y772577D03*
X770079Y772577D03*
X775079Y772577D03*
X780079Y772577D03*
X785079Y772577D03*
X790079Y772577D03*
X795079Y772577D03*
D13*
X756579Y803077D03*
X773579Y803077D03*
D11*
X789079Y823577D03*
X789079Y806577D03*
X741079Y823577D03*
X741079Y806577D03*
D13*
X706579Y820077D03*
X723579Y820077D03*
X706579Y730077D03*
X723579Y730077D03*
D11*
X815079Y806577D03*
X815079Y823577D03*
D13*
X773579Y695077D03*
X756579Y695077D03*
X723579Y760077D03*
X706579Y760077D03*
X723579Y745077D03*
X706579Y745077D03*
D31*
X728329Y507077D03*
X728329Y563077D03*
D32*
X765079Y520077D03*
X765079Y530077D03*
X765079Y540077D03*
X765079Y550077D03*
D13*
X706579Y790077D03*
X723579Y790077D03*
X723579Y775077D03*
X706579Y775077D03*
D18*
X1152079Y539077D03*
X1177479Y539077D03*
D13*
X819579Y770077D03*
X836579Y770077D03*
X819579Y786077D03*
X836579Y786077D03*
X723579Y805077D03*
X706579Y805077D03*
D18*
X1125079Y495077D03*
D33*
X641429Y612377D03*
X641429Y625077D03*
X641429Y637777D03*
X641429Y650477D03*
X641429Y599677D03*
X628729Y612377D03*
X628729Y625077D03*
X628729Y637777D03*
X628729Y650477D03*
X628729Y599677D03*
D10*
X590000Y880153D03*
X10000Y1260153D03*
D11*
X300000Y961653D03*
X300000Y978653D03*
X280000Y978653D03*
X280000Y961653D03*
D12*
X320500Y1003154D03*
X330000Y1003154D03*
X339500Y1003154D03*
X339500Y977152D03*
X320500Y977152D03*
D13*
X338500Y1020153D03*
X321500Y1020153D03*
D11*
X280000Y1001653D03*
X280000Y1018653D03*
X300000Y1001653D03*
X300000Y1018653D03*
X194000Y1018653D03*
X194000Y1001653D03*
D14*
X215550Y1098153D03*
X228250Y1098153D03*
X240950Y1098153D03*
X253650Y1098153D03*
X266350Y1098153D03*
X279050Y1098153D03*
X291750Y1098153D03*
X304450Y1098153D03*
X304450Y1042153D03*
X291750Y1042153D03*
X279050Y1042153D03*
X266350Y1042153D03*
X253650Y1042153D03*
X240950Y1042153D03*
X228250Y1042153D03*
X215550Y1042153D03*
D11*
X260000Y1001653D03*
X260000Y1018653D03*
X210000Y1018653D03*
X210000Y1001653D03*
D15*
X223500Y1019353D03*
X230000Y1000953D03*
X236500Y1000953D03*
X223500Y1000953D03*
X230000Y1019353D03*
X236500Y1019353D03*
D11*
X230000Y1121653D03*
X230000Y1138653D03*
D16*
X399900Y992653D03*
X399900Y997653D03*
X399900Y1002653D03*
X399900Y1007653D03*
X379900Y1007653D03*
X379900Y1002653D03*
X379900Y997653D03*
X379900Y992653D03*
D17*
X390000Y1000153D03*
D11*
X360000Y991653D03*
X360000Y1008653D03*
D18*
X280000Y940153D03*
X305400Y940153D03*
D13*
X321500Y945153D03*
X338500Y945153D03*
X371500Y945153D03*
X354500Y945153D03*
X368500Y880153D03*
X351500Y880153D03*
D19*
X423000Y960153D03*
X423000Y980153D03*
D20*
X475000Y936153D03*
X475000Y1004153D03*
D21*
X375080Y970153D03*
X364920Y970153D03*
D18*
X382700Y970153D03*
X357300Y970153D03*
D22*
X360000Y895653D03*
X365000Y895653D03*
X370000Y895653D03*
X355000Y895653D03*
X350000Y895653D03*
X350000Y924653D03*
X355000Y924653D03*
X360000Y924653D03*
X365000Y924653D03*
X370000Y924653D03*
D23*
X360000Y910153D03*
D11*
X320000Y929653D03*
X320000Y912653D03*
D13*
X338500Y960153D03*
X321500Y960153D03*
D11*
X320000Y879653D03*
X320000Y896653D03*
D13*
X181500Y960153D03*
X198500Y960153D03*
X181500Y980153D03*
X198500Y980153D03*
D24*
X220000Y978281D03*
X220000Y970153D03*
X220000Y962025D03*
D25*
X50500Y1172153D03*
X60000Y1172153D03*
X69500Y1172153D03*
X69500Y1148153D03*
X50500Y1148153D03*
X60000Y1148153D03*
D13*
X68500Y1130153D03*
X51500Y1130153D03*
X51500Y1110153D03*
X68500Y1110153D03*
D11*
X30000Y1128653D03*
X30000Y1111653D03*
D26*
X30000Y1171653D03*
X30000Y1148653D03*
D11*
X45000Y1208653D03*
X45000Y1191653D03*
X30000Y1191653D03*
X30000Y1208653D03*
D13*
X78500Y1190153D03*
X61500Y1190153D03*
X78500Y1210153D03*
X61500Y1210153D03*
D26*
X50000Y1228653D03*
X50000Y1251653D03*
X80000Y1228653D03*
X80000Y1251653D03*
D13*
X298500Y1200153D03*
X281500Y1200153D03*
X281500Y1220153D03*
X298500Y1220153D03*
D12*
X299500Y1157152D03*
X290000Y1157152D03*
X280500Y1157152D03*
X280500Y1183154D03*
X299500Y1183154D03*
D11*
X320000Y1161653D03*
X320000Y1178653D03*
X260000Y1178653D03*
X260000Y1161653D03*
X230000Y1241653D03*
X230000Y1258653D03*
D27*
X153250Y1250153D03*
X166750Y1250153D03*
X166750Y1260153D03*
X153250Y1260153D03*
D28*
X197500Y1200153D03*
D29*
X170000Y1180153D03*
D28*
X197500Y1195153D03*
X197500Y1190153D03*
X197500Y1185153D03*
X197500Y1180153D03*
X197500Y1175153D03*
X197500Y1170153D03*
X197500Y1165153D03*
X197500Y1160153D03*
D30*
X190000Y1152653D03*
X185000Y1152653D03*
X180000Y1152653D03*
X175000Y1152653D03*
X170000Y1152653D03*
X165000Y1152653D03*
X160000Y1152653D03*
X155000Y1152653D03*
X150000Y1152653D03*
D28*
X142500Y1160153D03*
X142500Y1165153D03*
X142500Y1170153D03*
X142500Y1175153D03*
X142500Y1180153D03*
X142500Y1185153D03*
X142500Y1190153D03*
X142500Y1195153D03*
X142500Y1200153D03*
D30*
X150000Y1207653D03*
X155000Y1207653D03*
X160000Y1207653D03*
X165000Y1207653D03*
X170000Y1207653D03*
X175000Y1207653D03*
X180000Y1207653D03*
X185000Y1207653D03*
X190000Y1207653D03*
D13*
X151500Y1238153D03*
X168500Y1238153D03*
D11*
X184000Y1258653D03*
X184000Y1241653D03*
X136000Y1258653D03*
X136000Y1241653D03*
D13*
X101500Y1255153D03*
X118500Y1255153D03*
X101500Y1165153D03*
X118500Y1165153D03*
D11*
X210000Y1241653D03*
X210000Y1258653D03*
D13*
X168500Y1130153D03*
X151500Y1130153D03*
X118500Y1195153D03*
X101500Y1195153D03*
X118500Y1180153D03*
X101500Y1180153D03*
D31*
X123250Y942153D03*
X123250Y998153D03*
D32*
X160000Y955153D03*
X160000Y965153D03*
X160000Y975153D03*
X160000Y985153D03*
D13*
X101500Y1225153D03*
X118500Y1225153D03*
X118500Y1210153D03*
X101500Y1210153D03*
D18*
X547000Y974153D03*
X572400Y974153D03*
D13*
X214500Y1205153D03*
X231500Y1205153D03*
X214500Y1221153D03*
X231500Y1221153D03*
X118500Y1240153D03*
X101500Y1240153D03*
D18*
X520000Y930153D03*
D33*
X36350Y1047453D03*
X36350Y1060153D03*
X36350Y1072853D03*
X36350Y1085553D03*
X36350Y1034753D03*
X23650Y1047453D03*
X23650Y1060153D03*
X23650Y1072853D03*
X23650Y1085553D03*
X23650Y1034753D03*
D10*
X1195079Y880153D03*
X615079Y1260153D03*
D11*
X905079Y961653D03*
X905079Y978653D03*
X885079Y978653D03*
X885079Y961653D03*
D12*
X925579Y1003154D03*
X935079Y1003154D03*
X944579Y1003154D03*
X944579Y977152D03*
X925579Y977152D03*
D13*
X943579Y1020153D03*
X926579Y1020153D03*
D11*
X885079Y1001653D03*
X885079Y1018653D03*
X905079Y1001653D03*
X905079Y1018653D03*
X799079Y1018653D03*
X799079Y1001653D03*
D14*
X820629Y1098153D03*
X833329Y1098153D03*
X846029Y1098153D03*
X858729Y1098153D03*
X871429Y1098153D03*
X884129Y1098153D03*
X896829Y1098153D03*
X909529Y1098153D03*
X909529Y1042153D03*
X896829Y1042153D03*
X884129Y1042153D03*
X871429Y1042153D03*
X858729Y1042153D03*
X846029Y1042153D03*
X833329Y1042153D03*
X820629Y1042153D03*
D11*
X865079Y1001653D03*
X865079Y1018653D03*
X815079Y1018653D03*
X815079Y1001653D03*
D15*
X828579Y1019353D03*
X835079Y1000953D03*
X841579Y1000953D03*
X828579Y1000953D03*
X835079Y1019353D03*
X841579Y1019353D03*
D11*
X835079Y1121653D03*
X835079Y1138653D03*
D16*
X1004979Y992653D03*
X1004979Y997653D03*
X1004979Y1002653D03*
X1004979Y1007653D03*
X984979Y1007653D03*
X984979Y1002653D03*
X984979Y997653D03*
X984979Y992653D03*
D17*
X995079Y1000153D03*
D11*
X965079Y991653D03*
X965079Y1008653D03*
D18*
X885079Y940153D03*
X910479Y940153D03*
D13*
X926579Y945153D03*
X943579Y945153D03*
X976579Y945153D03*
X959579Y945153D03*
X973579Y880153D03*
X956579Y880153D03*
D19*
X1028079Y960153D03*
X1028079Y980153D03*
D20*
X1080079Y936153D03*
X1080079Y1004153D03*
D21*
X980159Y970153D03*
X969999Y970153D03*
D18*
X987779Y970153D03*
X962379Y970153D03*
D22*
X965079Y895653D03*
X970079Y895653D03*
X975079Y895653D03*
X960079Y895653D03*
X955079Y895653D03*
X955079Y924653D03*
X960079Y924653D03*
X965079Y924653D03*
X970079Y924653D03*
X975079Y924653D03*
D23*
X965079Y910153D03*
D11*
X925079Y929653D03*
X925079Y912653D03*
D13*
X943579Y960153D03*
X926579Y960153D03*
D11*
X925079Y879653D03*
X925079Y896653D03*
D13*
X786579Y960153D03*
X803579Y960153D03*
X786579Y980153D03*
X803579Y980153D03*
D24*
X825079Y978281D03*
X825079Y970153D03*
X825079Y962025D03*
D25*
X655579Y1172153D03*
X665079Y1172153D03*
X674579Y1172153D03*
X674579Y1148153D03*
X655579Y1148153D03*
X665079Y1148153D03*
D13*
X673579Y1130153D03*
X656579Y1130153D03*
X656579Y1110153D03*
X673579Y1110153D03*
D11*
X635079Y1128653D03*
X635079Y1111653D03*
D26*
X635079Y1171653D03*
X635079Y1148653D03*
D11*
X650079Y1208653D03*
X650079Y1191653D03*
X635079Y1191653D03*
X635079Y1208653D03*
D13*
X683579Y1190153D03*
X666579Y1190153D03*
X683579Y1210153D03*
X666579Y1210153D03*
D26*
X655079Y1228653D03*
X655079Y1251653D03*
X685079Y1228653D03*
X685079Y1251653D03*
D13*
X903579Y1200153D03*
X886579Y1200153D03*
X886579Y1220153D03*
X903579Y1220153D03*
D12*
X904579Y1157152D03*
X895079Y1157152D03*
X885579Y1157152D03*
X885579Y1183154D03*
X904579Y1183154D03*
D11*
X925079Y1161653D03*
X925079Y1178653D03*
X865079Y1178653D03*
X865079Y1161653D03*
X835079Y1241653D03*
X835079Y1258653D03*
D27*
X758329Y1250153D03*
X771829Y1250153D03*
X771829Y1260153D03*
X758329Y1260153D03*
D28*
X802579Y1200153D03*
D29*
X775079Y1180153D03*
D28*
X802579Y1195153D03*
X802579Y1190153D03*
X802579Y1185153D03*
X802579Y1180153D03*
X802579Y1175153D03*
X802579Y1170153D03*
X802579Y1165153D03*
X802579Y1160153D03*
D30*
X795079Y1152653D03*
X790079Y1152653D03*
X785079Y1152653D03*
X780079Y1152653D03*
X775079Y1152653D03*
X770079Y1152653D03*
X765079Y1152653D03*
X760079Y1152653D03*
X755079Y1152653D03*
D28*
X747579Y1160153D03*
X747579Y1165153D03*
X747579Y1170153D03*
X747579Y1175153D03*
X747579Y1180153D03*
X747579Y1185153D03*
X747579Y1190153D03*
X747579Y1195153D03*
X747579Y1200153D03*
D30*
X755079Y1207653D03*
X760079Y1207653D03*
X765079Y1207653D03*
X770079Y1207653D03*
X775079Y1207653D03*
X780079Y1207653D03*
X785079Y1207653D03*
X790079Y1207653D03*
X795079Y1207653D03*
D13*
X756579Y1238153D03*
X773579Y1238153D03*
D11*
X789079Y1258653D03*
X789079Y1241653D03*
X741079Y1258653D03*
X741079Y1241653D03*
D13*
X706579Y1255153D03*
X723579Y1255153D03*
X706579Y1165153D03*
X723579Y1165153D03*
D11*
X815079Y1241653D03*
X815079Y1258653D03*
D13*
X773579Y1130153D03*
X756579Y1130153D03*
X723579Y1195153D03*
X706579Y1195153D03*
X723579Y1180153D03*
X706579Y1180153D03*
D31*
X728329Y942153D03*
X728329Y998153D03*
D32*
X765079Y955153D03*
X765079Y965153D03*
X765079Y975153D03*
X765079Y985153D03*
D13*
X706579Y1225153D03*
X723579Y1225153D03*
X723579Y1210153D03*
X706579Y1210153D03*
D18*
X1152079Y974153D03*
X1177479Y974153D03*
D13*
X819579Y1205153D03*
X836579Y1205153D03*
X819579Y1221153D03*
X836579Y1221153D03*
X723579Y1240153D03*
X706579Y1240153D03*
D18*
X1125079Y930153D03*
D33*
X641429Y1047453D03*
X641429Y1060153D03*
X641429Y1072853D03*
X641429Y1085553D03*
X641429Y1034753D03*
X628729Y1047453D03*
X628729Y1060153D03*
X628729Y1072853D03*
X628729Y1085553D03*
X628729Y1034753D03*
D10*
X590000Y1315230D03*
X10000Y1695230D03*
D11*
X300000Y1396730D03*
X300000Y1413730D03*
X280000Y1413730D03*
X280000Y1396730D03*
D12*
X320500Y1438231D03*
X330000Y1438231D03*
X339500Y1438231D03*
X339500Y1412229D03*
X320500Y1412229D03*
D13*
X338500Y1455230D03*
X321500Y1455230D03*
D11*
X280000Y1436730D03*
X280000Y1453730D03*
X300000Y1436730D03*
X300000Y1453730D03*
X194000Y1453730D03*
X194000Y1436730D03*
D14*
X215550Y1533230D03*
X228250Y1533230D03*
X240950Y1533230D03*
X253650Y1533230D03*
X266350Y1533230D03*
X279050Y1533230D03*
X291750Y1533230D03*
X304450Y1533230D03*
X304450Y1477230D03*
X291750Y1477230D03*
X279050Y1477230D03*
X266350Y1477230D03*
X253650Y1477230D03*
X240950Y1477230D03*
X228250Y1477230D03*
X215550Y1477230D03*
D11*
X260000Y1436730D03*
X260000Y1453730D03*
X210000Y1453730D03*
X210000Y1436730D03*
D15*
X223500Y1454430D03*
X230000Y1436030D03*
X236500Y1436030D03*
X223500Y1436030D03*
X230000Y1454430D03*
X236500Y1454430D03*
D11*
X230000Y1556730D03*
X230000Y1573730D03*
D16*
X399900Y1427730D03*
X399900Y1432730D03*
X399900Y1437730D03*
X399900Y1442730D03*
X379900Y1442730D03*
X379900Y1437730D03*
X379900Y1432730D03*
X379900Y1427730D03*
D17*
X390000Y1435230D03*
D11*
X360000Y1426730D03*
X360000Y1443730D03*
D18*
X280000Y1375230D03*
X305400Y1375230D03*
D13*
X321500Y1380230D03*
X338500Y1380230D03*
X371500Y1380230D03*
X354500Y1380230D03*
X368500Y1315230D03*
X351500Y1315230D03*
D19*
X423000Y1395230D03*
X423000Y1415230D03*
D20*
X475000Y1371230D03*
X475000Y1439230D03*
D21*
X375080Y1405230D03*
X364920Y1405230D03*
D18*
X382700Y1405230D03*
X357300Y1405230D03*
D22*
X360000Y1330730D03*
X365000Y1330730D03*
X370000Y1330730D03*
X355000Y1330730D03*
X350000Y1330730D03*
X350000Y1359730D03*
X355000Y1359730D03*
X360000Y1359730D03*
X365000Y1359730D03*
X370000Y1359730D03*
D23*
X360000Y1345230D03*
D11*
X320000Y1364730D03*
X320000Y1347730D03*
D13*
X338500Y1395230D03*
X321500Y1395230D03*
D11*
X320000Y1314730D03*
X320000Y1331730D03*
D13*
X181500Y1395230D03*
X198500Y1395230D03*
X181500Y1415230D03*
X198500Y1415230D03*
D24*
X220000Y1413358D03*
X220000Y1405230D03*
X220000Y1397102D03*
D25*
X50500Y1607230D03*
X60000Y1607230D03*
X69500Y1607230D03*
X69500Y1583230D03*
X50500Y1583230D03*
X60000Y1583230D03*
D13*
X68500Y1565230D03*
X51500Y1565230D03*
X51500Y1545230D03*
X68500Y1545230D03*
D11*
X30000Y1563730D03*
X30000Y1546730D03*
D26*
X30000Y1606730D03*
X30000Y1583730D03*
D11*
X45000Y1643730D03*
X45000Y1626730D03*
X30000Y1626730D03*
X30000Y1643730D03*
D13*
X78500Y1625230D03*
X61500Y1625230D03*
X78500Y1645230D03*
X61500Y1645230D03*
D26*
X50000Y1663730D03*
X50000Y1686730D03*
X80000Y1663730D03*
X80000Y1686730D03*
D13*
X298500Y1635230D03*
X281500Y1635230D03*
X281500Y1655230D03*
X298500Y1655230D03*
D12*
X299500Y1592229D03*
X290000Y1592229D03*
X280500Y1592229D03*
X280500Y1618231D03*
X299500Y1618231D03*
D11*
X320000Y1596730D03*
X320000Y1613730D03*
X260000Y1613730D03*
X260000Y1596730D03*
X230000Y1676730D03*
X230000Y1693730D03*
D27*
X153250Y1685230D03*
X166750Y1685230D03*
X166750Y1695230D03*
X153250Y1695230D03*
D28*
X197500Y1635230D03*
D29*
X170000Y1615230D03*
D28*
X197500Y1630230D03*
X197500Y1625230D03*
X197500Y1620230D03*
X197500Y1615230D03*
X197500Y1610230D03*
X197500Y1605230D03*
X197500Y1600230D03*
X197500Y1595230D03*
D30*
X190000Y1587730D03*
X185000Y1587730D03*
X180000Y1587730D03*
X175000Y1587730D03*
X170000Y1587730D03*
X165000Y1587730D03*
X160000Y1587730D03*
X155000Y1587730D03*
X150000Y1587730D03*
D28*
X142500Y1595230D03*
X142500Y1600230D03*
X142500Y1605230D03*
X142500Y1610230D03*
X142500Y1615230D03*
X142500Y1620230D03*
X142500Y1625230D03*
X142500Y1630230D03*
X142500Y1635230D03*
D30*
X150000Y1642730D03*
X155000Y1642730D03*
X160000Y1642730D03*
X165000Y1642730D03*
X170000Y1642730D03*
X175000Y1642730D03*
X180000Y1642730D03*
X185000Y1642730D03*
X190000Y1642730D03*
D13*
X151500Y1673230D03*
X168500Y1673230D03*
D11*
X184000Y1693730D03*
X184000Y1676730D03*
X136000Y1693730D03*
X136000Y1676730D03*
D13*
X101500Y1690230D03*
X118500Y1690230D03*
X101500Y1600230D03*
X118500Y1600230D03*
D11*
X210000Y1676730D03*
X210000Y1693730D03*
D13*
X168500Y1565230D03*
X151500Y1565230D03*
X118500Y1630230D03*
X101500Y1630230D03*
X118500Y1615230D03*
X101500Y1615230D03*
D31*
X123250Y1377230D03*
X123250Y1433230D03*
D32*
X160000Y1390230D03*
X160000Y1400230D03*
X160000Y1410230D03*
X160000Y1420230D03*
D13*
X101500Y1660230D03*
X118500Y1660230D03*
X118500Y1645230D03*
X101500Y1645230D03*
D18*
X547000Y1409230D03*
X572400Y1409230D03*
D13*
X214500Y1640230D03*
X231500Y1640230D03*
X214500Y1656230D03*
X231500Y1656230D03*
X118500Y1675230D03*
X101500Y1675230D03*
D18*
X520000Y1365230D03*
D33*
X36350Y1482530D03*
X36350Y1495230D03*
X36350Y1507930D03*
X36350Y1520630D03*
X36350Y1469830D03*
X23650Y1482530D03*
X23650Y1495230D03*
X23650Y1507930D03*
X23650Y1520630D03*
X23650Y1469830D03*
D10*
X1195079Y1315230D03*
X615079Y1695230D03*
D11*
X905079Y1396730D03*
X905079Y1413730D03*
X885079Y1413730D03*
X885079Y1396730D03*
D12*
X925579Y1438231D03*
X935079Y1438231D03*
X944579Y1438231D03*
X944579Y1412229D03*
X925579Y1412229D03*
D13*
X943579Y1455230D03*
X926579Y1455230D03*
D11*
X885079Y1436730D03*
X885079Y1453730D03*
X905079Y1436730D03*
X905079Y1453730D03*
X799079Y1453730D03*
X799079Y1436730D03*
D14*
X820629Y1533230D03*
X833329Y1533230D03*
X846029Y1533230D03*
X858729Y1533230D03*
X871429Y1533230D03*
X884129Y1533230D03*
X896829Y1533230D03*
X909529Y1533230D03*
X909529Y1477230D03*
X896829Y1477230D03*
X884129Y1477230D03*
X871429Y1477230D03*
X858729Y1477230D03*
X846029Y1477230D03*
X833329Y1477230D03*
X820629Y1477230D03*
D11*
X865079Y1436730D03*
X865079Y1453730D03*
X815079Y1453730D03*
X815079Y1436730D03*
D15*
X828579Y1454430D03*
X835079Y1436030D03*
X841579Y1436030D03*
X828579Y1436030D03*
X835079Y1454430D03*
X841579Y1454430D03*
D11*
X835079Y1556730D03*
X835079Y1573730D03*
D16*
X1004979Y1427730D03*
X1004979Y1432730D03*
X1004979Y1437730D03*
X1004979Y1442730D03*
X984979Y1442730D03*
X984979Y1437730D03*
X984979Y1432730D03*
X984979Y1427730D03*
D17*
X995079Y1435230D03*
D11*
X965079Y1426730D03*
X965079Y1443730D03*
D18*
X885079Y1375230D03*
X910479Y1375230D03*
D13*
X926579Y1380230D03*
X943579Y1380230D03*
X976579Y1380230D03*
X959579Y1380230D03*
X973579Y1315230D03*
X956579Y1315230D03*
D19*
X1028079Y1395230D03*
X1028079Y1415230D03*
D20*
X1080079Y1371230D03*
X1080079Y1439230D03*
D21*
X980159Y1405230D03*
X969999Y1405230D03*
D18*
X987779Y1405230D03*
X962379Y1405230D03*
D22*
X965079Y1330730D03*
X970079Y1330730D03*
X975079Y1330730D03*
X960079Y1330730D03*
X955079Y1330730D03*
X955079Y1359730D03*
X960079Y1359730D03*
X965079Y1359730D03*
X970079Y1359730D03*
X975079Y1359730D03*
D23*
X965079Y1345230D03*
D11*
X925079Y1364730D03*
X925079Y1347730D03*
D13*
X943579Y1395230D03*
X926579Y1395230D03*
D11*
X925079Y1314730D03*
X925079Y1331730D03*
D13*
X786579Y1395230D03*
X803579Y1395230D03*
X786579Y1415230D03*
X803579Y1415230D03*
D24*
X825079Y1413358D03*
X825079Y1405230D03*
X825079Y1397102D03*
D25*
X655579Y1607230D03*
X665079Y1607230D03*
X674579Y1607230D03*
X674579Y1583230D03*
X655579Y1583230D03*
X665079Y1583230D03*
D13*
X673579Y1565230D03*
X656579Y1565230D03*
X656579Y1545230D03*
X673579Y1545230D03*
D11*
X635079Y1563730D03*
X635079Y1546730D03*
D26*
X635079Y1606730D03*
X635079Y1583730D03*
D11*
X650079Y1643730D03*
X650079Y1626730D03*
X635079Y1626730D03*
X635079Y1643730D03*
D13*
X683579Y1625230D03*
X666579Y1625230D03*
X683579Y1645230D03*
X666579Y1645230D03*
D26*
X655079Y1663730D03*
X655079Y1686730D03*
X685079Y1663730D03*
X685079Y1686730D03*
D13*
X903579Y1635230D03*
X886579Y1635230D03*
X886579Y1655230D03*
X903579Y1655230D03*
D12*
X904579Y1592229D03*
X895079Y1592229D03*
X885579Y1592229D03*
X885579Y1618231D03*
X904579Y1618231D03*
D11*
X925079Y1596730D03*
X925079Y1613730D03*
X865079Y1613730D03*
X865079Y1596730D03*
X835079Y1676730D03*
X835079Y1693730D03*
D27*
X758329Y1685230D03*
X771829Y1685230D03*
X771829Y1695230D03*
X758329Y1695230D03*
D28*
X802579Y1635230D03*
D29*
X775079Y1615230D03*
D28*
X802579Y1630230D03*
X802579Y1625230D03*
X802579Y1620230D03*
X802579Y1615230D03*
X802579Y1610230D03*
X802579Y1605230D03*
X802579Y1600230D03*
X802579Y1595230D03*
D30*
X795079Y1587730D03*
X790079Y1587730D03*
X785079Y1587730D03*
X780079Y1587730D03*
X775079Y1587730D03*
X770079Y1587730D03*
X765079Y1587730D03*
X760079Y1587730D03*
X755079Y1587730D03*
D28*
X747579Y1595230D03*
X747579Y1600230D03*
X747579Y1605230D03*
X747579Y1610230D03*
X747579Y1615230D03*
X747579Y1620230D03*
X747579Y1625230D03*
X747579Y1630230D03*
X747579Y1635230D03*
D30*
X755079Y1642730D03*
X760079Y1642730D03*
X765079Y1642730D03*
X770079Y1642730D03*
X775079Y1642730D03*
X780079Y1642730D03*
X785079Y1642730D03*
X790079Y1642730D03*
X795079Y1642730D03*
D13*
X756579Y1673230D03*
X773579Y1673230D03*
D11*
X789079Y1693730D03*
X789079Y1676730D03*
X741079Y1693730D03*
X741079Y1676730D03*
D13*
X706579Y1690230D03*
X723579Y1690230D03*
X706579Y1600230D03*
X723579Y1600230D03*
D11*
X815079Y1676730D03*
X815079Y1693730D03*
D13*
X773579Y1565230D03*
X756579Y1565230D03*
X723579Y1630230D03*
X706579Y1630230D03*
X723579Y1615230D03*
X706579Y1615230D03*
D31*
X728329Y1377230D03*
X728329Y1433230D03*
D32*
X765079Y1390230D03*
X765079Y1400230D03*
X765079Y1410230D03*
X765079Y1420230D03*
D13*
X706579Y1660230D03*
X723579Y1660230D03*
X723579Y1645230D03*
X706579Y1645230D03*
D18*
X1152079Y1409230D03*
X1177479Y1409230D03*
D13*
X819579Y1640230D03*
X836579Y1640230D03*
X819579Y1656230D03*
X836579Y1656230D03*
X723579Y1675230D03*
X706579Y1675230D03*
D18*
X1125079Y1365230D03*
D33*
X641429Y1482530D03*
X641429Y1495230D03*
X641429Y1507930D03*
X641429Y1520630D03*
X641429Y1469830D03*
X628729Y1482530D03*
X628729Y1495230D03*
X628729Y1507930D03*
X628729Y1520630D03*
X628729Y1469830D03*
X-26238Y1708582D03*
X1231316Y1708582D03*
D34*
X-35293Y63500D02*
X-35290Y63722D01*
X-35282Y63944D01*
X-35268Y64166D01*
X-35249Y64388D01*
X-35225Y64608D01*
X-35195Y64829D01*
X-35160Y65048D01*
X-35119Y65267D01*
X-35073Y65484D01*
X-35022Y65700D01*
X-34965Y65915D01*
X-34903Y66129D01*
X-34836Y66340D01*
X-34764Y66551D01*
X-34686Y66759D01*
X-34604Y66965D01*
X-34516Y67169D01*
X-34424Y67372D01*
X-34326Y67571D01*
X-34224Y67768D01*
X-34117Y67963D01*
X-34005Y68155D01*
X-33888Y68344D01*
X-33767Y68531D01*
X-33641Y68714D01*
X-33511Y68894D01*
X-33376Y69071D01*
X-33238Y69244D01*
X-33095Y69414D01*
X-32947Y69581D01*
X-32796Y69744D01*
X-32641Y69903D01*
X-32482Y70058D01*
X-32319Y70209D01*
X-32152Y70357D01*
X-31982Y70500D01*
X-31809Y70638D01*
X-31632Y70773D01*
X-31452Y70903D01*
X-31269Y71029D01*
X-31082Y71150D01*
X-30893Y71267D01*
X-30701Y71379D01*
X-30506Y71486D01*
X-30309Y71588D01*
X-30110Y71686D01*
X-29907Y71778D01*
X-29703Y71866D01*
X-29497Y71948D01*
X-29289Y72026D01*
X-29078Y72098D01*
X-28867Y72165D01*
X-28653Y72227D01*
X-28438Y72284D01*
X-28222Y72335D01*
X-28005Y72381D01*
X-27786Y72422D01*
X-27567Y72457D01*
X-27346Y72487D01*
X-27126Y72511D01*
X-26904Y72530D01*
X-26682Y72544D01*
X-26460Y72552D01*
X-26238Y72555D01*
X-26016Y72552D01*
X-25794Y72544D01*
X-25572Y72530D01*
X-25350Y72511D01*
X-25130Y72487D01*
X-24909Y72457D01*
X-24690Y72422D01*
X-24471Y72381D01*
X-24254Y72335D01*
X-24038Y72284D01*
X-23823Y72227D01*
X-23609Y72165D01*
X-23398Y72098D01*
X-23187Y72026D01*
X-22979Y71948D01*
X-22773Y71866D01*
X-22569Y71778D01*
X-22366Y71686D01*
X-22167Y71588D01*
X-21970Y71486D01*
X-21775Y71379D01*
X-21583Y71267D01*
X-21394Y71150D01*
X-21207Y71029D01*
X-21024Y70903D01*
X-20844Y70773D01*
X-20667Y70638D01*
X-20494Y70500D01*
X-20324Y70357D01*
X-20157Y70209D01*
X-19994Y70058D01*
X-19835Y69903D01*
X-19680Y69744D01*
X-19529Y69581D01*
X-19381Y69414D01*
X-19238Y69244D01*
X-19100Y69071D01*
X-18965Y68894D01*
X-18835Y68714D01*
X-18709Y68531D01*
X-18588Y68344D01*
X-18471Y68155D01*
X-18359Y67963D01*
X-18252Y67768D01*
X-18150Y67571D01*
X-18052Y67372D01*
X-17960Y67169D01*
X-17872Y66965D01*
X-17790Y66759D01*
X-17712Y66551D01*
X-17640Y66340D01*
X-17573Y66129D01*
X-17511Y65915D01*
X-17454Y65700D01*
X-17403Y65484D01*
X-17357Y65267D01*
X-17316Y65048D01*
X-17281Y64829D01*
X-17251Y64608D01*
X-17227Y64388D01*
X-17208Y64166D01*
X-17194Y63944D01*
X-17186Y63722D01*
X-17183Y63500D01*
X-17186Y63278D01*
X-17194Y63056D01*
X-17208Y62834D01*
X-17227Y62612D01*
X-17251Y62392D01*
X-17281Y62171D01*
X-17316Y61952D01*
X-17357Y61733D01*
X-17403Y61516D01*
X-17454Y61300D01*
X-17511Y61085D01*
X-17573Y60871D01*
X-17640Y60660D01*
X-17712Y60449D01*
X-17790Y60241D01*
X-17872Y60035D01*
X-17960Y59831D01*
X-18052Y59628D01*
X-18150Y59429D01*
X-18252Y59232D01*
X-18359Y59037D01*
X-18471Y58845D01*
X-18588Y58656D01*
X-18709Y58469D01*
X-18835Y58286D01*
X-18965Y58106D01*
X-19100Y57929D01*
X-19238Y57756D01*
X-19381Y57586D01*
X-19529Y57419D01*
X-19680Y57256D01*
X-19835Y57097D01*
X-19994Y56942D01*
X-20157Y56791D01*
X-20324Y56643D01*
X-20494Y56500D01*
X-20667Y56362D01*
X-20844Y56227D01*
X-21024Y56097D01*
X-21207Y55971D01*
X-21394Y55850D01*
X-21583Y55733D01*
X-21775Y55621D01*
X-21970Y55514D01*
X-22167Y55412D01*
X-22366Y55314D01*
X-22569Y55222D01*
X-22773Y55134D01*
X-22979Y55052D01*
X-23187Y54974D01*
X-23398Y54902D01*
X-23609Y54835D01*
X-23823Y54773D01*
X-24038Y54716D01*
X-24254Y54665D01*
X-24471Y54619D01*
X-24690Y54578D01*
X-24909Y54543D01*
X-25130Y54513D01*
X-25350Y54489D01*
X-25572Y54470D01*
X-25794Y54456D01*
X-26016Y54448D01*
X-26238Y54445D01*
X-26460Y54448D01*
X-26682Y54456D01*
X-26904Y54470D01*
X-27126Y54489D01*
X-27346Y54513D01*
X-27567Y54543D01*
X-27786Y54578D01*
X-28005Y54619D01*
X-28222Y54665D01*
X-28438Y54716D01*
X-28653Y54773D01*
X-28867Y54835D01*
X-29078Y54902D01*
X-29289Y54974D01*
X-29497Y55052D01*
X-29703Y55134D01*
X-29907Y55222D01*
X-30110Y55314D01*
X-30309Y55412D01*
X-30506Y55514D01*
X-30701Y55621D01*
X-30893Y55733D01*
X-31082Y55850D01*
X-31269Y55971D01*
X-31452Y56097D01*
X-31632Y56227D01*
X-31809Y56362D01*
X-31982Y56500D01*
X-32152Y56643D01*
X-32319Y56791D01*
X-32482Y56942D01*
X-32641Y57097D01*
X-32796Y57256D01*
X-32947Y57419D01*
X-33095Y57586D01*
X-33238Y57756D01*
X-33376Y57929D01*
X-33511Y58106D01*
X-33641Y58286D01*
X-33767Y58469D01*
X-33888Y58656D01*
X-34005Y58845D01*
X-34117Y59037D01*
X-34224Y59232D01*
X-34326Y59429D01*
X-34424Y59628D01*
X-34516Y59831D01*
X-34604Y60035D01*
X-34686Y60241D01*
X-34764Y60449D01*
X-34836Y60660D01*
X-34903Y60871D01*
X-34965Y61085D01*
X-35022Y61300D01*
X-35073Y61516D01*
X-35119Y61733D01*
X-35160Y61952D01*
X-35195Y62171D01*
X-35225Y62392D01*
X-35249Y62612D01*
X-35268Y62834D01*
X-35282Y63056D01*
X-35290Y63278D01*
X-35293Y63500D01*
D35*
X-26238Y63500D03*
M02*
