G04 EAGLE Gerber RS-274X export*
G75*
%MOMM*%
%FSLAX34Y34*%
%LPD*%
%INSolderpaste Top*%
%IPPOS*%
%AMOC8*
5,1,8,0,0,1.08239X$1,22.5*%
G01*
%ADD10C,0.300000*%
%ADD11R,1.000000X1.100000*%
%ADD12R,0.900000X0.850000*%
%ADD13R,1.100000X1.000000*%
%ADD14R,0.600000X0.600000*%
%ADD15R,0.850000X1.520000*%
%ADD16R,1.520000X0.850000*%
%ADD17R,0.900000X0.900000*%
%ADD18R,0.850000X2.200000*%
%ADD19R,1.000000X1.050000*%
%ADD20R,0.600000X1.200000*%
%ADD21R,0.400000X0.800000*%
%ADD22R,0.250000X0.650000*%
%ADD23R,1.200000X0.550000*%
%ADD24R,1.800000X1.000000*%
%ADD25R,1.000000X1.800000*%


D10*
X31500Y254730D02*
X38500Y254730D01*
X38500Y247730D01*
X31500Y247730D01*
X31500Y254730D01*
X31500Y250580D02*
X38500Y250580D01*
X38500Y253430D02*
X31500Y253430D01*
X31500Y272270D02*
X38500Y272270D01*
X38500Y265270D01*
X31500Y265270D01*
X31500Y272270D01*
X31500Y268120D02*
X38500Y268120D01*
X38500Y270970D02*
X31500Y270970D01*
D11*
X55000Y268500D03*
X55000Y251500D03*
X505000Y131500D03*
X505000Y148500D03*
X485000Y131500D03*
X485000Y148500D03*
D12*
X470000Y345200D03*
X470000Y356800D03*
D13*
X454500Y346000D03*
X437500Y346000D03*
D11*
X465000Y131500D03*
X465000Y148500D03*
D14*
X495000Y344000D03*
X485000Y344000D03*
D15*
X506500Y324500D03*
X495500Y324500D03*
X484500Y324500D03*
X473500Y324500D03*
X462500Y324500D03*
X451500Y324500D03*
X440500Y324500D03*
X429500Y324500D03*
X418500Y324500D03*
X407500Y324500D03*
X396500Y324500D03*
X385500Y324500D03*
X374500Y324500D03*
X363500Y324500D03*
D16*
X335500Y316000D03*
X335500Y305000D03*
X335500Y294000D03*
X335500Y283000D03*
X335500Y272000D03*
X335500Y261000D03*
X335500Y250000D03*
X335500Y239000D03*
X335500Y228000D03*
X335500Y217000D03*
X335500Y206000D03*
X335500Y195000D03*
X335500Y184000D03*
D15*
X363500Y175500D03*
X374500Y175500D03*
X385500Y175500D03*
X396500Y175500D03*
X407500Y175500D03*
X418500Y175500D03*
X429500Y175500D03*
X440500Y175500D03*
X451500Y175500D03*
X462500Y175500D03*
X473500Y175500D03*
X484500Y175500D03*
X495500Y175500D03*
X506500Y175500D03*
D16*
X534500Y184000D03*
X534500Y195000D03*
X534500Y206000D03*
X534500Y217000D03*
X534500Y228000D03*
X534500Y239000D03*
X534500Y250000D03*
X534500Y261000D03*
X534500Y272000D03*
X534500Y283000D03*
X534500Y294000D03*
X534500Y305000D03*
X534500Y316000D03*
D17*
X445500Y239500D03*
X466500Y239500D03*
X487500Y239500D03*
X508500Y239500D03*
X445500Y219000D03*
X466500Y219000D03*
X487500Y219000D03*
X508500Y219000D03*
X445500Y198500D03*
X466500Y198500D03*
X487500Y198500D03*
X508500Y198500D03*
X445500Y301500D03*
X466500Y301500D03*
X487500Y301500D03*
X508500Y301500D03*
X445500Y281000D03*
X466500Y281000D03*
X487500Y281000D03*
X508500Y281000D03*
X445500Y260500D03*
X466500Y260500D03*
X487500Y260500D03*
X508500Y260500D03*
X361500Y239500D03*
X382500Y239500D03*
X403500Y239500D03*
X424500Y239500D03*
X361500Y219000D03*
X382500Y219000D03*
X403500Y219000D03*
X424500Y219000D03*
X361500Y198500D03*
X382500Y198500D03*
X403500Y198500D03*
X424500Y198500D03*
X361500Y301500D03*
X382500Y301500D03*
X403500Y301500D03*
X424500Y301500D03*
X361500Y281000D03*
X382500Y281000D03*
X403500Y281000D03*
X424500Y281000D03*
X361500Y260500D03*
X382500Y260500D03*
X403500Y260500D03*
X424500Y260500D03*
D11*
X415000Y148500D03*
X415000Y131500D03*
X435000Y131500D03*
X435000Y148500D03*
X525000Y148500D03*
X525000Y131500D03*
X295000Y91500D03*
X295000Y108500D03*
X275000Y91500D03*
X275000Y108500D03*
X515000Y91500D03*
X515000Y108500D03*
X455000Y108500D03*
X455000Y91500D03*
D18*
X508750Y370000D03*
X481250Y370000D03*
D19*
X495000Y354750D03*
X495000Y385250D03*
D20*
X219450Y338000D03*
X206750Y338000D03*
X194050Y338000D03*
X181350Y338000D03*
X168650Y338000D03*
X155950Y338000D03*
X143250Y338000D03*
X130550Y338000D03*
X130550Y282000D03*
X143250Y282000D03*
X155950Y282000D03*
X168650Y282000D03*
X181350Y282000D03*
X194050Y282000D03*
X206750Y282000D03*
X219450Y282000D03*
D11*
X245100Y301500D03*
X245100Y318500D03*
D21*
X152500Y381500D03*
D22*
X142500Y356500D03*
X137500Y356500D03*
D21*
X77500Y381500D03*
D22*
X132500Y356500D03*
X127500Y356500D03*
X122500Y356500D03*
X117500Y356500D03*
X112500Y356500D03*
X107500Y356500D03*
X102500Y356500D03*
X97500Y356500D03*
X92500Y356500D03*
X87500Y356500D03*
D21*
X242500Y381500D03*
D22*
X232500Y356500D03*
X227500Y356500D03*
D21*
X167500Y381500D03*
D22*
X222500Y356500D03*
X217500Y356500D03*
X212500Y356500D03*
X207500Y356500D03*
X202500Y356500D03*
X197500Y356500D03*
X192500Y356500D03*
X187500Y356500D03*
X182500Y356500D03*
X177500Y356500D03*
D23*
X498001Y90500D03*
X498001Y100000D03*
X498001Y109500D03*
X471999Y109500D03*
X471999Y90500D03*
D21*
X422500Y381500D03*
D22*
X412500Y356500D03*
X407500Y356500D03*
D21*
X347500Y381500D03*
D22*
X402500Y356500D03*
X397500Y356500D03*
X392500Y356500D03*
X387500Y356500D03*
X382500Y356500D03*
X377500Y356500D03*
X372500Y356500D03*
X367500Y356500D03*
X362500Y356500D03*
X357500Y356500D03*
D17*
X198500Y169500D03*
X198500Y151000D03*
X198500Y133000D03*
X180000Y169500D03*
X180500Y151000D03*
X180000Y132500D03*
X161500Y132500D03*
X161500Y151000D03*
X161500Y169500D03*
D24*
X256000Y243000D03*
X256000Y230000D03*
X256000Y217500D03*
X256000Y204500D03*
X256000Y192000D03*
X256000Y179500D03*
X256000Y166500D03*
X256000Y154000D03*
X256000Y141000D03*
X256000Y128500D03*
X256000Y116000D03*
X256000Y103000D03*
X256000Y90500D03*
X256000Y77500D03*
X74000Y243000D03*
X74000Y230000D03*
X74000Y217500D03*
X74000Y204500D03*
X74000Y192000D03*
X74000Y179500D03*
X74000Y166500D03*
X74000Y154000D03*
X74000Y141000D03*
X74000Y128500D03*
X74000Y116000D03*
X74000Y103000D03*
X74000Y90500D03*
X74000Y77500D03*
D25*
X108000Y259000D03*
X120500Y259000D03*
X133500Y259000D03*
X146000Y259000D03*
X158500Y259000D03*
X171500Y259000D03*
X184000Y259000D03*
X197000Y259000D03*
X209500Y259000D03*
X222000Y259000D03*
D11*
X35000Y81500D03*
X35000Y98500D03*
X35000Y121500D03*
X35000Y138500D03*
D21*
X332500Y381500D03*
D22*
X322500Y356500D03*
X317500Y356500D03*
D21*
X257500Y381500D03*
D22*
X312500Y356500D03*
X307500Y356500D03*
X302500Y356500D03*
X297500Y356500D03*
X292500Y356500D03*
X287500Y356500D03*
X282500Y356500D03*
X277500Y356500D03*
X272500Y356500D03*
X267500Y356500D03*
D11*
X560000Y263500D03*
X560000Y246500D03*
X560000Y315500D03*
X560000Y332500D03*
X560000Y148500D03*
X560000Y131500D03*
X560000Y188500D03*
X560000Y171500D03*
X560000Y228500D03*
X560000Y211500D03*
X545000Y148500D03*
X545000Y131500D03*
D13*
X308500Y240000D03*
X291500Y240000D03*
X308500Y260000D03*
X291500Y260000D03*
X308500Y280000D03*
X291500Y280000D03*
X308500Y300000D03*
X291500Y300000D03*
D11*
X560000Y351500D03*
X560000Y368500D03*
X560000Y281500D03*
X560000Y298500D03*
D10*
X626571Y254730D02*
X633571Y254730D01*
X633571Y247730D01*
X626571Y247730D01*
X626571Y254730D01*
X626571Y250580D02*
X633571Y250580D01*
X633571Y253430D02*
X626571Y253430D01*
X626571Y272270D02*
X633571Y272270D01*
X633571Y265270D01*
X626571Y265270D01*
X626571Y272270D01*
X626571Y268120D02*
X633571Y268120D01*
X633571Y270970D02*
X626571Y270970D01*
D11*
X650071Y268500D03*
X650071Y251500D03*
X1100071Y131500D03*
X1100071Y148500D03*
X1080071Y131500D03*
X1080071Y148500D03*
D12*
X1065071Y345200D03*
X1065071Y356800D03*
D13*
X1049571Y346000D03*
X1032571Y346000D03*
D11*
X1060071Y131500D03*
X1060071Y148500D03*
D14*
X1090071Y344000D03*
X1080071Y344000D03*
D15*
X1101571Y324500D03*
X1090571Y324500D03*
X1079571Y324500D03*
X1068571Y324500D03*
X1057571Y324500D03*
X1046571Y324500D03*
X1035571Y324500D03*
X1024571Y324500D03*
X1013571Y324500D03*
X1002571Y324500D03*
X991571Y324500D03*
X980571Y324500D03*
X969571Y324500D03*
X958571Y324500D03*
D16*
X930571Y316000D03*
X930571Y305000D03*
X930571Y294000D03*
X930571Y283000D03*
X930571Y272000D03*
X930571Y261000D03*
X930571Y250000D03*
X930571Y239000D03*
X930571Y228000D03*
X930571Y217000D03*
X930571Y206000D03*
X930571Y195000D03*
X930571Y184000D03*
D15*
X958571Y175500D03*
X969571Y175500D03*
X980571Y175500D03*
X991571Y175500D03*
X1002571Y175500D03*
X1013571Y175500D03*
X1024571Y175500D03*
X1035571Y175500D03*
X1046571Y175500D03*
X1057571Y175500D03*
X1068571Y175500D03*
X1079571Y175500D03*
X1090571Y175500D03*
X1101571Y175500D03*
D16*
X1129571Y184000D03*
X1129571Y195000D03*
X1129571Y206000D03*
X1129571Y217000D03*
X1129571Y228000D03*
X1129571Y239000D03*
X1129571Y250000D03*
X1129571Y261000D03*
X1129571Y272000D03*
X1129571Y283000D03*
X1129571Y294000D03*
X1129571Y305000D03*
X1129571Y316000D03*
D17*
X1040571Y239500D03*
X1061571Y239500D03*
X1082571Y239500D03*
X1103571Y239500D03*
X1040571Y219000D03*
X1061571Y219000D03*
X1082571Y219000D03*
X1103571Y219000D03*
X1040571Y198500D03*
X1061571Y198500D03*
X1082571Y198500D03*
X1103571Y198500D03*
X1040571Y301500D03*
X1061571Y301500D03*
X1082571Y301500D03*
X1103571Y301500D03*
X1040571Y281000D03*
X1061571Y281000D03*
X1082571Y281000D03*
X1103571Y281000D03*
X1040571Y260500D03*
X1061571Y260500D03*
X1082571Y260500D03*
X1103571Y260500D03*
X956571Y239500D03*
X977571Y239500D03*
X998571Y239500D03*
X1019571Y239500D03*
X956571Y219000D03*
X977571Y219000D03*
X998571Y219000D03*
X1019571Y219000D03*
X956571Y198500D03*
X977571Y198500D03*
X998571Y198500D03*
X1019571Y198500D03*
X956571Y301500D03*
X977571Y301500D03*
X998571Y301500D03*
X1019571Y301500D03*
X956571Y281000D03*
X977571Y281000D03*
X998571Y281000D03*
X1019571Y281000D03*
X956571Y260500D03*
X977571Y260500D03*
X998571Y260500D03*
X1019571Y260500D03*
D11*
X1010071Y148500D03*
X1010071Y131500D03*
X1030071Y131500D03*
X1030071Y148500D03*
X1120071Y148500D03*
X1120071Y131500D03*
X890071Y91500D03*
X890071Y108500D03*
X870071Y91500D03*
X870071Y108500D03*
X1110071Y91500D03*
X1110071Y108500D03*
X1050071Y108500D03*
X1050071Y91500D03*
D18*
X1103821Y370000D03*
X1076321Y370000D03*
D19*
X1090071Y354750D03*
X1090071Y385250D03*
D20*
X814521Y338000D03*
X801821Y338000D03*
X789121Y338000D03*
X776421Y338000D03*
X763721Y338000D03*
X751021Y338000D03*
X738321Y338000D03*
X725621Y338000D03*
X725621Y282000D03*
X738321Y282000D03*
X751021Y282000D03*
X763721Y282000D03*
X776421Y282000D03*
X789121Y282000D03*
X801821Y282000D03*
X814521Y282000D03*
D11*
X840171Y301500D03*
X840171Y318500D03*
D21*
X747571Y381500D03*
D22*
X737571Y356500D03*
X732571Y356500D03*
D21*
X672571Y381500D03*
D22*
X727571Y356500D03*
X722571Y356500D03*
X717571Y356500D03*
X712571Y356500D03*
X707571Y356500D03*
X702571Y356500D03*
X697571Y356500D03*
X692571Y356500D03*
X687571Y356500D03*
X682571Y356500D03*
D21*
X837571Y381500D03*
D22*
X827571Y356500D03*
X822571Y356500D03*
D21*
X762571Y381500D03*
D22*
X817571Y356500D03*
X812571Y356500D03*
X807571Y356500D03*
X802571Y356500D03*
X797571Y356500D03*
X792571Y356500D03*
X787571Y356500D03*
X782571Y356500D03*
X777571Y356500D03*
X772571Y356500D03*
D23*
X1093072Y90500D03*
X1093072Y100000D03*
X1093072Y109500D03*
X1067070Y109500D03*
X1067070Y90500D03*
D21*
X1017571Y381500D03*
D22*
X1007571Y356500D03*
X1002571Y356500D03*
D21*
X942571Y381500D03*
D22*
X997571Y356500D03*
X992571Y356500D03*
X987571Y356500D03*
X982571Y356500D03*
X977571Y356500D03*
X972571Y356500D03*
X967571Y356500D03*
X962571Y356500D03*
X957571Y356500D03*
X952571Y356500D03*
D17*
X793571Y169500D03*
X793571Y151000D03*
X793571Y133000D03*
X775071Y169500D03*
X775571Y151000D03*
X775071Y132500D03*
X756571Y132500D03*
X756571Y151000D03*
X756571Y169500D03*
D24*
X851071Y243000D03*
X851071Y230000D03*
X851071Y217500D03*
X851071Y204500D03*
X851071Y192000D03*
X851071Y179500D03*
X851071Y166500D03*
X851071Y154000D03*
X851071Y141000D03*
X851071Y128500D03*
X851071Y116000D03*
X851071Y103000D03*
X851071Y90500D03*
X851071Y77500D03*
X669071Y243000D03*
X669071Y230000D03*
X669071Y217500D03*
X669071Y204500D03*
X669071Y192000D03*
X669071Y179500D03*
X669071Y166500D03*
X669071Y154000D03*
X669071Y141000D03*
X669071Y128500D03*
X669071Y116000D03*
X669071Y103000D03*
X669071Y90500D03*
X669071Y77500D03*
D25*
X703071Y259000D03*
X715571Y259000D03*
X728571Y259000D03*
X741071Y259000D03*
X753571Y259000D03*
X766571Y259000D03*
X779071Y259000D03*
X792071Y259000D03*
X804571Y259000D03*
X817071Y259000D03*
D11*
X630071Y81500D03*
X630071Y98500D03*
X630071Y121500D03*
X630071Y138500D03*
D21*
X927571Y381500D03*
D22*
X917571Y356500D03*
X912571Y356500D03*
D21*
X852571Y381500D03*
D22*
X907571Y356500D03*
X902571Y356500D03*
X897571Y356500D03*
X892571Y356500D03*
X887571Y356500D03*
X882571Y356500D03*
X877571Y356500D03*
X872571Y356500D03*
X867571Y356500D03*
X862571Y356500D03*
D11*
X1155071Y263500D03*
X1155071Y246500D03*
X1155071Y315500D03*
X1155071Y332500D03*
X1155071Y148500D03*
X1155071Y131500D03*
X1155071Y188500D03*
X1155071Y171500D03*
X1155071Y228500D03*
X1155071Y211500D03*
X1140071Y148500D03*
X1140071Y131500D03*
D13*
X903571Y240000D03*
X886571Y240000D03*
X903571Y260000D03*
X886571Y260000D03*
X903571Y280000D03*
X886571Y280000D03*
X903571Y300000D03*
X886571Y300000D03*
D11*
X1155071Y351500D03*
X1155071Y368500D03*
X1155071Y281500D03*
X1155071Y298500D03*
D10*
X38500Y689807D02*
X31500Y689807D01*
X38500Y689807D02*
X38500Y682807D01*
X31500Y682807D01*
X31500Y689807D01*
X31500Y685657D02*
X38500Y685657D01*
X38500Y688507D02*
X31500Y688507D01*
X31500Y707347D02*
X38500Y707347D01*
X38500Y700347D01*
X31500Y700347D01*
X31500Y707347D01*
X31500Y703197D02*
X38500Y703197D01*
X38500Y706047D02*
X31500Y706047D01*
D11*
X55000Y703577D03*
X55000Y686577D03*
X505000Y566577D03*
X505000Y583577D03*
X485000Y566577D03*
X485000Y583577D03*
D12*
X470000Y780277D03*
X470000Y791877D03*
D13*
X454500Y781077D03*
X437500Y781077D03*
D11*
X465000Y566577D03*
X465000Y583577D03*
D14*
X495000Y779077D03*
X485000Y779077D03*
D15*
X506500Y759577D03*
X495500Y759577D03*
X484500Y759577D03*
X473500Y759577D03*
X462500Y759577D03*
X451500Y759577D03*
X440500Y759577D03*
X429500Y759577D03*
X418500Y759577D03*
X407500Y759577D03*
X396500Y759577D03*
X385500Y759577D03*
X374500Y759577D03*
X363500Y759577D03*
D16*
X335500Y751077D03*
X335500Y740077D03*
X335500Y729077D03*
X335500Y718077D03*
X335500Y707077D03*
X335500Y696077D03*
X335500Y685077D03*
X335500Y674077D03*
X335500Y663077D03*
X335500Y652077D03*
X335500Y641077D03*
X335500Y630077D03*
X335500Y619077D03*
D15*
X363500Y610577D03*
X374500Y610577D03*
X385500Y610577D03*
X396500Y610577D03*
X407500Y610577D03*
X418500Y610577D03*
X429500Y610577D03*
X440500Y610577D03*
X451500Y610577D03*
X462500Y610577D03*
X473500Y610577D03*
X484500Y610577D03*
X495500Y610577D03*
X506500Y610577D03*
D16*
X534500Y619077D03*
X534500Y630077D03*
X534500Y641077D03*
X534500Y652077D03*
X534500Y663077D03*
X534500Y674077D03*
X534500Y685077D03*
X534500Y696077D03*
X534500Y707077D03*
X534500Y718077D03*
X534500Y729077D03*
X534500Y740077D03*
X534500Y751077D03*
D17*
X445500Y674577D03*
X466500Y674577D03*
X487500Y674577D03*
X508500Y674577D03*
X445500Y654077D03*
X466500Y654077D03*
X487500Y654077D03*
X508500Y654077D03*
X445500Y633577D03*
X466500Y633577D03*
X487500Y633577D03*
X508500Y633577D03*
X445500Y736577D03*
X466500Y736577D03*
X487500Y736577D03*
X508500Y736577D03*
X445500Y716077D03*
X466500Y716077D03*
X487500Y716077D03*
X508500Y716077D03*
X445500Y695577D03*
X466500Y695577D03*
X487500Y695577D03*
X508500Y695577D03*
X361500Y674577D03*
X382500Y674577D03*
X403500Y674577D03*
X424500Y674577D03*
X361500Y654077D03*
X382500Y654077D03*
X403500Y654077D03*
X424500Y654077D03*
X361500Y633577D03*
X382500Y633577D03*
X403500Y633577D03*
X424500Y633577D03*
X361500Y736577D03*
X382500Y736577D03*
X403500Y736577D03*
X424500Y736577D03*
X361500Y716077D03*
X382500Y716077D03*
X403500Y716077D03*
X424500Y716077D03*
X361500Y695577D03*
X382500Y695577D03*
X403500Y695577D03*
X424500Y695577D03*
D11*
X415000Y583577D03*
X415000Y566577D03*
X435000Y566577D03*
X435000Y583577D03*
X525000Y583577D03*
X525000Y566577D03*
X295000Y526577D03*
X295000Y543577D03*
X275000Y526577D03*
X275000Y543577D03*
X515000Y526577D03*
X515000Y543577D03*
X455000Y543577D03*
X455000Y526577D03*
D18*
X508750Y805077D03*
X481250Y805077D03*
D19*
X495000Y789827D03*
X495000Y820327D03*
D20*
X219450Y773077D03*
X206750Y773077D03*
X194050Y773077D03*
X181350Y773077D03*
X168650Y773077D03*
X155950Y773077D03*
X143250Y773077D03*
X130550Y773077D03*
X130550Y717077D03*
X143250Y717077D03*
X155950Y717077D03*
X168650Y717077D03*
X181350Y717077D03*
X194050Y717077D03*
X206750Y717077D03*
X219450Y717077D03*
D11*
X245100Y736577D03*
X245100Y753577D03*
D21*
X152500Y816577D03*
D22*
X142500Y791577D03*
X137500Y791577D03*
D21*
X77500Y816577D03*
D22*
X132500Y791577D03*
X127500Y791577D03*
X122500Y791577D03*
X117500Y791577D03*
X112500Y791577D03*
X107500Y791577D03*
X102500Y791577D03*
X97500Y791577D03*
X92500Y791577D03*
X87500Y791577D03*
D21*
X242500Y816577D03*
D22*
X232500Y791577D03*
X227500Y791577D03*
D21*
X167500Y816577D03*
D22*
X222500Y791577D03*
X217500Y791577D03*
X212500Y791577D03*
X207500Y791577D03*
X202500Y791577D03*
X197500Y791577D03*
X192500Y791577D03*
X187500Y791577D03*
X182500Y791577D03*
X177500Y791577D03*
D23*
X498001Y525577D03*
X498001Y535077D03*
X498001Y544577D03*
X471999Y544577D03*
X471999Y525577D03*
D21*
X422500Y816577D03*
D22*
X412500Y791577D03*
X407500Y791577D03*
D21*
X347500Y816577D03*
D22*
X402500Y791577D03*
X397500Y791577D03*
X392500Y791577D03*
X387500Y791577D03*
X382500Y791577D03*
X377500Y791577D03*
X372500Y791577D03*
X367500Y791577D03*
X362500Y791577D03*
X357500Y791577D03*
D17*
X198500Y604577D03*
X198500Y586077D03*
X198500Y568077D03*
X180000Y604577D03*
X180500Y586077D03*
X180000Y567577D03*
X161500Y567577D03*
X161500Y586077D03*
X161500Y604577D03*
D24*
X256000Y678077D03*
X256000Y665077D03*
X256000Y652577D03*
X256000Y639577D03*
X256000Y627077D03*
X256000Y614577D03*
X256000Y601577D03*
X256000Y589077D03*
X256000Y576077D03*
X256000Y563577D03*
X256000Y551077D03*
X256000Y538077D03*
X256000Y525577D03*
X256000Y512577D03*
X74000Y678077D03*
X74000Y665077D03*
X74000Y652577D03*
X74000Y639577D03*
X74000Y627077D03*
X74000Y614577D03*
X74000Y601577D03*
X74000Y589077D03*
X74000Y576077D03*
X74000Y563577D03*
X74000Y551077D03*
X74000Y538077D03*
X74000Y525577D03*
X74000Y512577D03*
D25*
X108000Y694077D03*
X120500Y694077D03*
X133500Y694077D03*
X146000Y694077D03*
X158500Y694077D03*
X171500Y694077D03*
X184000Y694077D03*
X197000Y694077D03*
X209500Y694077D03*
X222000Y694077D03*
D11*
X35000Y516577D03*
X35000Y533577D03*
X35000Y556577D03*
X35000Y573577D03*
D21*
X332500Y816577D03*
D22*
X322500Y791577D03*
X317500Y791577D03*
D21*
X257500Y816577D03*
D22*
X312500Y791577D03*
X307500Y791577D03*
X302500Y791577D03*
X297500Y791577D03*
X292500Y791577D03*
X287500Y791577D03*
X282500Y791577D03*
X277500Y791577D03*
X272500Y791577D03*
X267500Y791577D03*
D11*
X560000Y698577D03*
X560000Y681577D03*
X560000Y750577D03*
X560000Y767577D03*
X560000Y583577D03*
X560000Y566577D03*
X560000Y623577D03*
X560000Y606577D03*
X560000Y663577D03*
X560000Y646577D03*
X545000Y583577D03*
X545000Y566577D03*
D13*
X308500Y675077D03*
X291500Y675077D03*
X308500Y695077D03*
X291500Y695077D03*
X308500Y715077D03*
X291500Y715077D03*
X308500Y735077D03*
X291500Y735077D03*
D11*
X560000Y786577D03*
X560000Y803577D03*
X560000Y716577D03*
X560000Y733577D03*
D10*
X626571Y689807D02*
X633571Y689807D01*
X633571Y682807D01*
X626571Y682807D01*
X626571Y689807D01*
X626571Y685657D02*
X633571Y685657D01*
X633571Y688507D02*
X626571Y688507D01*
X626571Y707347D02*
X633571Y707347D01*
X633571Y700347D01*
X626571Y700347D01*
X626571Y707347D01*
X626571Y703197D02*
X633571Y703197D01*
X633571Y706047D02*
X626571Y706047D01*
D11*
X650071Y703577D03*
X650071Y686577D03*
X1100071Y566577D03*
X1100071Y583577D03*
X1080071Y566577D03*
X1080071Y583577D03*
D12*
X1065071Y780277D03*
X1065071Y791877D03*
D13*
X1049571Y781077D03*
X1032571Y781077D03*
D11*
X1060071Y566577D03*
X1060071Y583577D03*
D14*
X1090071Y779077D03*
X1080071Y779077D03*
D15*
X1101571Y759577D03*
X1090571Y759577D03*
X1079571Y759577D03*
X1068571Y759577D03*
X1057571Y759577D03*
X1046571Y759577D03*
X1035571Y759577D03*
X1024571Y759577D03*
X1013571Y759577D03*
X1002571Y759577D03*
X991571Y759577D03*
X980571Y759577D03*
X969571Y759577D03*
X958571Y759577D03*
D16*
X930571Y751077D03*
X930571Y740077D03*
X930571Y729077D03*
X930571Y718077D03*
X930571Y707077D03*
X930571Y696077D03*
X930571Y685077D03*
X930571Y674077D03*
X930571Y663077D03*
X930571Y652077D03*
X930571Y641077D03*
X930571Y630077D03*
X930571Y619077D03*
D15*
X958571Y610577D03*
X969571Y610577D03*
X980571Y610577D03*
X991571Y610577D03*
X1002571Y610577D03*
X1013571Y610577D03*
X1024571Y610577D03*
X1035571Y610577D03*
X1046571Y610577D03*
X1057571Y610577D03*
X1068571Y610577D03*
X1079571Y610577D03*
X1090571Y610577D03*
X1101571Y610577D03*
D16*
X1129571Y619077D03*
X1129571Y630077D03*
X1129571Y641077D03*
X1129571Y652077D03*
X1129571Y663077D03*
X1129571Y674077D03*
X1129571Y685077D03*
X1129571Y696077D03*
X1129571Y707077D03*
X1129571Y718077D03*
X1129571Y729077D03*
X1129571Y740077D03*
X1129571Y751077D03*
D17*
X1040571Y674577D03*
X1061571Y674577D03*
X1082571Y674577D03*
X1103571Y674577D03*
X1040571Y654077D03*
X1061571Y654077D03*
X1082571Y654077D03*
X1103571Y654077D03*
X1040571Y633577D03*
X1061571Y633577D03*
X1082571Y633577D03*
X1103571Y633577D03*
X1040571Y736577D03*
X1061571Y736577D03*
X1082571Y736577D03*
X1103571Y736577D03*
X1040571Y716077D03*
X1061571Y716077D03*
X1082571Y716077D03*
X1103571Y716077D03*
X1040571Y695577D03*
X1061571Y695577D03*
X1082571Y695577D03*
X1103571Y695577D03*
X956571Y674577D03*
X977571Y674577D03*
X998571Y674577D03*
X1019571Y674577D03*
X956571Y654077D03*
X977571Y654077D03*
X998571Y654077D03*
X1019571Y654077D03*
X956571Y633577D03*
X977571Y633577D03*
X998571Y633577D03*
X1019571Y633577D03*
X956571Y736577D03*
X977571Y736577D03*
X998571Y736577D03*
X1019571Y736577D03*
X956571Y716077D03*
X977571Y716077D03*
X998571Y716077D03*
X1019571Y716077D03*
X956571Y695577D03*
X977571Y695577D03*
X998571Y695577D03*
X1019571Y695577D03*
D11*
X1010071Y583577D03*
X1010071Y566577D03*
X1030071Y566577D03*
X1030071Y583577D03*
X1120071Y583577D03*
X1120071Y566577D03*
X890071Y526577D03*
X890071Y543577D03*
X870071Y526577D03*
X870071Y543577D03*
X1110071Y526577D03*
X1110071Y543577D03*
X1050071Y543577D03*
X1050071Y526577D03*
D18*
X1103821Y805077D03*
X1076321Y805077D03*
D19*
X1090071Y789827D03*
X1090071Y820327D03*
D20*
X814521Y773077D03*
X801821Y773077D03*
X789121Y773077D03*
X776421Y773077D03*
X763721Y773077D03*
X751021Y773077D03*
X738321Y773077D03*
X725621Y773077D03*
X725621Y717077D03*
X738321Y717077D03*
X751021Y717077D03*
X763721Y717077D03*
X776421Y717077D03*
X789121Y717077D03*
X801821Y717077D03*
X814521Y717077D03*
D11*
X840171Y736577D03*
X840171Y753577D03*
D21*
X747571Y816577D03*
D22*
X737571Y791577D03*
X732571Y791577D03*
D21*
X672571Y816577D03*
D22*
X727571Y791577D03*
X722571Y791577D03*
X717571Y791577D03*
X712571Y791577D03*
X707571Y791577D03*
X702571Y791577D03*
X697571Y791577D03*
X692571Y791577D03*
X687571Y791577D03*
X682571Y791577D03*
D21*
X837571Y816577D03*
D22*
X827571Y791577D03*
X822571Y791577D03*
D21*
X762571Y816577D03*
D22*
X817571Y791577D03*
X812571Y791577D03*
X807571Y791577D03*
X802571Y791577D03*
X797571Y791577D03*
X792571Y791577D03*
X787571Y791577D03*
X782571Y791577D03*
X777571Y791577D03*
X772571Y791577D03*
D23*
X1093072Y525577D03*
X1093072Y535077D03*
X1093072Y544577D03*
X1067070Y544577D03*
X1067070Y525577D03*
D21*
X1017571Y816577D03*
D22*
X1007571Y791577D03*
X1002571Y791577D03*
D21*
X942571Y816577D03*
D22*
X997571Y791577D03*
X992571Y791577D03*
X987571Y791577D03*
X982571Y791577D03*
X977571Y791577D03*
X972571Y791577D03*
X967571Y791577D03*
X962571Y791577D03*
X957571Y791577D03*
X952571Y791577D03*
D17*
X793571Y604577D03*
X793571Y586077D03*
X793571Y568077D03*
X775071Y604577D03*
X775571Y586077D03*
X775071Y567577D03*
X756571Y567577D03*
X756571Y586077D03*
X756571Y604577D03*
D24*
X851071Y678077D03*
X851071Y665077D03*
X851071Y652577D03*
X851071Y639577D03*
X851071Y627077D03*
X851071Y614577D03*
X851071Y601577D03*
X851071Y589077D03*
X851071Y576077D03*
X851071Y563577D03*
X851071Y551077D03*
X851071Y538077D03*
X851071Y525577D03*
X851071Y512577D03*
X669071Y678077D03*
X669071Y665077D03*
X669071Y652577D03*
X669071Y639577D03*
X669071Y627077D03*
X669071Y614577D03*
X669071Y601577D03*
X669071Y589077D03*
X669071Y576077D03*
X669071Y563577D03*
X669071Y551077D03*
X669071Y538077D03*
X669071Y525577D03*
X669071Y512577D03*
D25*
X703071Y694077D03*
X715571Y694077D03*
X728571Y694077D03*
X741071Y694077D03*
X753571Y694077D03*
X766571Y694077D03*
X779071Y694077D03*
X792071Y694077D03*
X804571Y694077D03*
X817071Y694077D03*
D11*
X630071Y516577D03*
X630071Y533577D03*
X630071Y556577D03*
X630071Y573577D03*
D21*
X927571Y816577D03*
D22*
X917571Y791577D03*
X912571Y791577D03*
D21*
X852571Y816577D03*
D22*
X907571Y791577D03*
X902571Y791577D03*
X897571Y791577D03*
X892571Y791577D03*
X887571Y791577D03*
X882571Y791577D03*
X877571Y791577D03*
X872571Y791577D03*
X867571Y791577D03*
X862571Y791577D03*
D11*
X1155071Y698577D03*
X1155071Y681577D03*
X1155071Y750577D03*
X1155071Y767577D03*
X1155071Y583577D03*
X1155071Y566577D03*
X1155071Y623577D03*
X1155071Y606577D03*
X1155071Y663577D03*
X1155071Y646577D03*
X1140071Y583577D03*
X1140071Y566577D03*
D13*
X903571Y675077D03*
X886571Y675077D03*
X903571Y695077D03*
X886571Y695077D03*
X903571Y715077D03*
X886571Y715077D03*
X903571Y735077D03*
X886571Y735077D03*
D11*
X1155071Y786577D03*
X1155071Y803577D03*
X1155071Y716577D03*
X1155071Y733577D03*
D10*
X38500Y1124883D02*
X31500Y1124883D01*
X38500Y1124883D02*
X38500Y1117883D01*
X31500Y1117883D01*
X31500Y1124883D01*
X31500Y1120733D02*
X38500Y1120733D01*
X38500Y1123583D02*
X31500Y1123583D01*
X31500Y1142423D02*
X38500Y1142423D01*
X38500Y1135423D01*
X31500Y1135423D01*
X31500Y1142423D01*
X31500Y1138273D02*
X38500Y1138273D01*
X38500Y1141123D02*
X31500Y1141123D01*
D11*
X55000Y1138653D03*
X55000Y1121653D03*
X505000Y1001653D03*
X505000Y1018653D03*
X485000Y1001653D03*
X485000Y1018653D03*
D12*
X470000Y1215353D03*
X470000Y1226953D03*
D13*
X454500Y1216153D03*
X437500Y1216153D03*
D11*
X465000Y1001653D03*
X465000Y1018653D03*
D14*
X495000Y1214153D03*
X485000Y1214153D03*
D15*
X506500Y1194653D03*
X495500Y1194653D03*
X484500Y1194653D03*
X473500Y1194653D03*
X462500Y1194653D03*
X451500Y1194653D03*
X440500Y1194653D03*
X429500Y1194653D03*
X418500Y1194653D03*
X407500Y1194653D03*
X396500Y1194653D03*
X385500Y1194653D03*
X374500Y1194653D03*
X363500Y1194653D03*
D16*
X335500Y1186153D03*
X335500Y1175153D03*
X335500Y1164153D03*
X335500Y1153153D03*
X335500Y1142153D03*
X335500Y1131153D03*
X335500Y1120153D03*
X335500Y1109153D03*
X335500Y1098153D03*
X335500Y1087153D03*
X335500Y1076153D03*
X335500Y1065153D03*
X335500Y1054153D03*
D15*
X363500Y1045653D03*
X374500Y1045653D03*
X385500Y1045653D03*
X396500Y1045653D03*
X407500Y1045653D03*
X418500Y1045653D03*
X429500Y1045653D03*
X440500Y1045653D03*
X451500Y1045653D03*
X462500Y1045653D03*
X473500Y1045653D03*
X484500Y1045653D03*
X495500Y1045653D03*
X506500Y1045653D03*
D16*
X534500Y1054153D03*
X534500Y1065153D03*
X534500Y1076153D03*
X534500Y1087153D03*
X534500Y1098153D03*
X534500Y1109153D03*
X534500Y1120153D03*
X534500Y1131153D03*
X534500Y1142153D03*
X534500Y1153153D03*
X534500Y1164153D03*
X534500Y1175153D03*
X534500Y1186153D03*
D17*
X445500Y1109653D03*
X466500Y1109653D03*
X487500Y1109653D03*
X508500Y1109653D03*
X445500Y1089153D03*
X466500Y1089153D03*
X487500Y1089153D03*
X508500Y1089153D03*
X445500Y1068653D03*
X466500Y1068653D03*
X487500Y1068653D03*
X508500Y1068653D03*
X445500Y1171653D03*
X466500Y1171653D03*
X487500Y1171653D03*
X508500Y1171653D03*
X445500Y1151153D03*
X466500Y1151153D03*
X487500Y1151153D03*
X508500Y1151153D03*
X445500Y1130653D03*
X466500Y1130653D03*
X487500Y1130653D03*
X508500Y1130653D03*
X361500Y1109653D03*
X382500Y1109653D03*
X403500Y1109653D03*
X424500Y1109653D03*
X361500Y1089153D03*
X382500Y1089153D03*
X403500Y1089153D03*
X424500Y1089153D03*
X361500Y1068653D03*
X382500Y1068653D03*
X403500Y1068653D03*
X424500Y1068653D03*
X361500Y1171653D03*
X382500Y1171653D03*
X403500Y1171653D03*
X424500Y1171653D03*
X361500Y1151153D03*
X382500Y1151153D03*
X403500Y1151153D03*
X424500Y1151153D03*
X361500Y1130653D03*
X382500Y1130653D03*
X403500Y1130653D03*
X424500Y1130653D03*
D11*
X415000Y1018653D03*
X415000Y1001653D03*
X435000Y1001653D03*
X435000Y1018653D03*
X525000Y1018653D03*
X525000Y1001653D03*
X295000Y961653D03*
X295000Y978653D03*
X275000Y961653D03*
X275000Y978653D03*
X515000Y961653D03*
X515000Y978653D03*
X455000Y978653D03*
X455000Y961653D03*
D18*
X508750Y1240153D03*
X481250Y1240153D03*
D19*
X495000Y1224903D03*
X495000Y1255403D03*
D20*
X219450Y1208153D03*
X206750Y1208153D03*
X194050Y1208153D03*
X181350Y1208153D03*
X168650Y1208153D03*
X155950Y1208153D03*
X143250Y1208153D03*
X130550Y1208153D03*
X130550Y1152153D03*
X143250Y1152153D03*
X155950Y1152153D03*
X168650Y1152153D03*
X181350Y1152153D03*
X194050Y1152153D03*
X206750Y1152153D03*
X219450Y1152153D03*
D11*
X245100Y1171653D03*
X245100Y1188653D03*
D21*
X152500Y1251653D03*
D22*
X142500Y1226653D03*
X137500Y1226653D03*
D21*
X77500Y1251653D03*
D22*
X132500Y1226653D03*
X127500Y1226653D03*
X122500Y1226653D03*
X117500Y1226653D03*
X112500Y1226653D03*
X107500Y1226653D03*
X102500Y1226653D03*
X97500Y1226653D03*
X92500Y1226653D03*
X87500Y1226653D03*
D21*
X242500Y1251653D03*
D22*
X232500Y1226653D03*
X227500Y1226653D03*
D21*
X167500Y1251653D03*
D22*
X222500Y1226653D03*
X217500Y1226653D03*
X212500Y1226653D03*
X207500Y1226653D03*
X202500Y1226653D03*
X197500Y1226653D03*
X192500Y1226653D03*
X187500Y1226653D03*
X182500Y1226653D03*
X177500Y1226653D03*
D23*
X498001Y960653D03*
X498001Y970153D03*
X498001Y979653D03*
X471999Y979653D03*
X471999Y960653D03*
D21*
X422500Y1251653D03*
D22*
X412500Y1226653D03*
X407500Y1226653D03*
D21*
X347500Y1251653D03*
D22*
X402500Y1226653D03*
X397500Y1226653D03*
X392500Y1226653D03*
X387500Y1226653D03*
X382500Y1226653D03*
X377500Y1226653D03*
X372500Y1226653D03*
X367500Y1226653D03*
X362500Y1226653D03*
X357500Y1226653D03*
D17*
X198500Y1039653D03*
X198500Y1021153D03*
X198500Y1003153D03*
X180000Y1039653D03*
X180500Y1021153D03*
X180000Y1002653D03*
X161500Y1002653D03*
X161500Y1021153D03*
X161500Y1039653D03*
D24*
X256000Y1113153D03*
X256000Y1100153D03*
X256000Y1087653D03*
X256000Y1074653D03*
X256000Y1062153D03*
X256000Y1049653D03*
X256000Y1036653D03*
X256000Y1024153D03*
X256000Y1011153D03*
X256000Y998653D03*
X256000Y986153D03*
X256000Y973153D03*
X256000Y960653D03*
X256000Y947653D03*
X74000Y1113153D03*
X74000Y1100153D03*
X74000Y1087653D03*
X74000Y1074653D03*
X74000Y1062153D03*
X74000Y1049653D03*
X74000Y1036653D03*
X74000Y1024153D03*
X74000Y1011153D03*
X74000Y998653D03*
X74000Y986153D03*
X74000Y973153D03*
X74000Y960653D03*
X74000Y947653D03*
D25*
X108000Y1129153D03*
X120500Y1129153D03*
X133500Y1129153D03*
X146000Y1129153D03*
X158500Y1129153D03*
X171500Y1129153D03*
X184000Y1129153D03*
X197000Y1129153D03*
X209500Y1129153D03*
X222000Y1129153D03*
D11*
X35000Y951653D03*
X35000Y968653D03*
X35000Y991653D03*
X35000Y1008653D03*
D21*
X332500Y1251653D03*
D22*
X322500Y1226653D03*
X317500Y1226653D03*
D21*
X257500Y1251653D03*
D22*
X312500Y1226653D03*
X307500Y1226653D03*
X302500Y1226653D03*
X297500Y1226653D03*
X292500Y1226653D03*
X287500Y1226653D03*
X282500Y1226653D03*
X277500Y1226653D03*
X272500Y1226653D03*
X267500Y1226653D03*
D11*
X560000Y1133653D03*
X560000Y1116653D03*
X560000Y1185653D03*
X560000Y1202653D03*
X560000Y1018653D03*
X560000Y1001653D03*
X560000Y1058653D03*
X560000Y1041653D03*
X560000Y1098653D03*
X560000Y1081653D03*
X545000Y1018653D03*
X545000Y1001653D03*
D13*
X308500Y1110153D03*
X291500Y1110153D03*
X308500Y1130153D03*
X291500Y1130153D03*
X308500Y1150153D03*
X291500Y1150153D03*
X308500Y1170153D03*
X291500Y1170153D03*
D11*
X560000Y1221653D03*
X560000Y1238653D03*
X560000Y1151653D03*
X560000Y1168653D03*
D10*
X626571Y1124883D02*
X633571Y1124883D01*
X633571Y1117883D01*
X626571Y1117883D01*
X626571Y1124883D01*
X626571Y1120733D02*
X633571Y1120733D01*
X633571Y1123583D02*
X626571Y1123583D01*
X626571Y1142423D02*
X633571Y1142423D01*
X633571Y1135423D01*
X626571Y1135423D01*
X626571Y1142423D01*
X626571Y1138273D02*
X633571Y1138273D01*
X633571Y1141123D02*
X626571Y1141123D01*
D11*
X650071Y1138653D03*
X650071Y1121653D03*
X1100071Y1001653D03*
X1100071Y1018653D03*
X1080071Y1001653D03*
X1080071Y1018653D03*
D12*
X1065071Y1215353D03*
X1065071Y1226953D03*
D13*
X1049571Y1216153D03*
X1032571Y1216153D03*
D11*
X1060071Y1001653D03*
X1060071Y1018653D03*
D14*
X1090071Y1214153D03*
X1080071Y1214153D03*
D15*
X1101571Y1194653D03*
X1090571Y1194653D03*
X1079571Y1194653D03*
X1068571Y1194653D03*
X1057571Y1194653D03*
X1046571Y1194653D03*
X1035571Y1194653D03*
X1024571Y1194653D03*
X1013571Y1194653D03*
X1002571Y1194653D03*
X991571Y1194653D03*
X980571Y1194653D03*
X969571Y1194653D03*
X958571Y1194653D03*
D16*
X930571Y1186153D03*
X930571Y1175153D03*
X930571Y1164153D03*
X930571Y1153153D03*
X930571Y1142153D03*
X930571Y1131153D03*
X930571Y1120153D03*
X930571Y1109153D03*
X930571Y1098153D03*
X930571Y1087153D03*
X930571Y1076153D03*
X930571Y1065153D03*
X930571Y1054153D03*
D15*
X958571Y1045653D03*
X969571Y1045653D03*
X980571Y1045653D03*
X991571Y1045653D03*
X1002571Y1045653D03*
X1013571Y1045653D03*
X1024571Y1045653D03*
X1035571Y1045653D03*
X1046571Y1045653D03*
X1057571Y1045653D03*
X1068571Y1045653D03*
X1079571Y1045653D03*
X1090571Y1045653D03*
X1101571Y1045653D03*
D16*
X1129571Y1054153D03*
X1129571Y1065153D03*
X1129571Y1076153D03*
X1129571Y1087153D03*
X1129571Y1098153D03*
X1129571Y1109153D03*
X1129571Y1120153D03*
X1129571Y1131153D03*
X1129571Y1142153D03*
X1129571Y1153153D03*
X1129571Y1164153D03*
X1129571Y1175153D03*
X1129571Y1186153D03*
D17*
X1040571Y1109653D03*
X1061571Y1109653D03*
X1082571Y1109653D03*
X1103571Y1109653D03*
X1040571Y1089153D03*
X1061571Y1089153D03*
X1082571Y1089153D03*
X1103571Y1089153D03*
X1040571Y1068653D03*
X1061571Y1068653D03*
X1082571Y1068653D03*
X1103571Y1068653D03*
X1040571Y1171653D03*
X1061571Y1171653D03*
X1082571Y1171653D03*
X1103571Y1171653D03*
X1040571Y1151153D03*
X1061571Y1151153D03*
X1082571Y1151153D03*
X1103571Y1151153D03*
X1040571Y1130653D03*
X1061571Y1130653D03*
X1082571Y1130653D03*
X1103571Y1130653D03*
X956571Y1109653D03*
X977571Y1109653D03*
X998571Y1109653D03*
X1019571Y1109653D03*
X956571Y1089153D03*
X977571Y1089153D03*
X998571Y1089153D03*
X1019571Y1089153D03*
X956571Y1068653D03*
X977571Y1068653D03*
X998571Y1068653D03*
X1019571Y1068653D03*
X956571Y1171653D03*
X977571Y1171653D03*
X998571Y1171653D03*
X1019571Y1171653D03*
X956571Y1151153D03*
X977571Y1151153D03*
X998571Y1151153D03*
X1019571Y1151153D03*
X956571Y1130653D03*
X977571Y1130653D03*
X998571Y1130653D03*
X1019571Y1130653D03*
D11*
X1010071Y1018653D03*
X1010071Y1001653D03*
X1030071Y1001653D03*
X1030071Y1018653D03*
X1120071Y1018653D03*
X1120071Y1001653D03*
X890071Y961653D03*
X890071Y978653D03*
X870071Y961653D03*
X870071Y978653D03*
X1110071Y961653D03*
X1110071Y978653D03*
X1050071Y978653D03*
X1050071Y961653D03*
D18*
X1103821Y1240153D03*
X1076321Y1240153D03*
D19*
X1090071Y1224903D03*
X1090071Y1255403D03*
D20*
X814521Y1208153D03*
X801821Y1208153D03*
X789121Y1208153D03*
X776421Y1208153D03*
X763721Y1208153D03*
X751021Y1208153D03*
X738321Y1208153D03*
X725621Y1208153D03*
X725621Y1152153D03*
X738321Y1152153D03*
X751021Y1152153D03*
X763721Y1152153D03*
X776421Y1152153D03*
X789121Y1152153D03*
X801821Y1152153D03*
X814521Y1152153D03*
D11*
X840171Y1171653D03*
X840171Y1188653D03*
D21*
X747571Y1251653D03*
D22*
X737571Y1226653D03*
X732571Y1226653D03*
D21*
X672571Y1251653D03*
D22*
X727571Y1226653D03*
X722571Y1226653D03*
X717571Y1226653D03*
X712571Y1226653D03*
X707571Y1226653D03*
X702571Y1226653D03*
X697571Y1226653D03*
X692571Y1226653D03*
X687571Y1226653D03*
X682571Y1226653D03*
D21*
X837571Y1251653D03*
D22*
X827571Y1226653D03*
X822571Y1226653D03*
D21*
X762571Y1251653D03*
D22*
X817571Y1226653D03*
X812571Y1226653D03*
X807571Y1226653D03*
X802571Y1226653D03*
X797571Y1226653D03*
X792571Y1226653D03*
X787571Y1226653D03*
X782571Y1226653D03*
X777571Y1226653D03*
X772571Y1226653D03*
D23*
X1093072Y960653D03*
X1093072Y970153D03*
X1093072Y979653D03*
X1067070Y979653D03*
X1067070Y960653D03*
D21*
X1017571Y1251653D03*
D22*
X1007571Y1226653D03*
X1002571Y1226653D03*
D21*
X942571Y1251653D03*
D22*
X997571Y1226653D03*
X992571Y1226653D03*
X987571Y1226653D03*
X982571Y1226653D03*
X977571Y1226653D03*
X972571Y1226653D03*
X967571Y1226653D03*
X962571Y1226653D03*
X957571Y1226653D03*
X952571Y1226653D03*
D17*
X793571Y1039653D03*
X793571Y1021153D03*
X793571Y1003153D03*
X775071Y1039653D03*
X775571Y1021153D03*
X775071Y1002653D03*
X756571Y1002653D03*
X756571Y1021153D03*
X756571Y1039653D03*
D24*
X851071Y1113153D03*
X851071Y1100153D03*
X851071Y1087653D03*
X851071Y1074653D03*
X851071Y1062153D03*
X851071Y1049653D03*
X851071Y1036653D03*
X851071Y1024153D03*
X851071Y1011153D03*
X851071Y998653D03*
X851071Y986153D03*
X851071Y973153D03*
X851071Y960653D03*
X851071Y947653D03*
X669071Y1113153D03*
X669071Y1100153D03*
X669071Y1087653D03*
X669071Y1074653D03*
X669071Y1062153D03*
X669071Y1049653D03*
X669071Y1036653D03*
X669071Y1024153D03*
X669071Y1011153D03*
X669071Y998653D03*
X669071Y986153D03*
X669071Y973153D03*
X669071Y960653D03*
X669071Y947653D03*
D25*
X703071Y1129153D03*
X715571Y1129153D03*
X728571Y1129153D03*
X741071Y1129153D03*
X753571Y1129153D03*
X766571Y1129153D03*
X779071Y1129153D03*
X792071Y1129153D03*
X804571Y1129153D03*
X817071Y1129153D03*
D11*
X630071Y951653D03*
X630071Y968653D03*
X630071Y991653D03*
X630071Y1008653D03*
D21*
X927571Y1251653D03*
D22*
X917571Y1226653D03*
X912571Y1226653D03*
D21*
X852571Y1251653D03*
D22*
X907571Y1226653D03*
X902571Y1226653D03*
X897571Y1226653D03*
X892571Y1226653D03*
X887571Y1226653D03*
X882571Y1226653D03*
X877571Y1226653D03*
X872571Y1226653D03*
X867571Y1226653D03*
X862571Y1226653D03*
D11*
X1155071Y1133653D03*
X1155071Y1116653D03*
X1155071Y1185653D03*
X1155071Y1202653D03*
X1155071Y1018653D03*
X1155071Y1001653D03*
X1155071Y1058653D03*
X1155071Y1041653D03*
X1155071Y1098653D03*
X1155071Y1081653D03*
X1140071Y1018653D03*
X1140071Y1001653D03*
D13*
X903571Y1110153D03*
X886571Y1110153D03*
X903571Y1130153D03*
X886571Y1130153D03*
X903571Y1150153D03*
X886571Y1150153D03*
X903571Y1170153D03*
X886571Y1170153D03*
D11*
X1155071Y1221653D03*
X1155071Y1238653D03*
X1155071Y1151653D03*
X1155071Y1168653D03*
D10*
X38500Y1559960D02*
X31500Y1559960D01*
X38500Y1559960D02*
X38500Y1552960D01*
X31500Y1552960D01*
X31500Y1559960D01*
X31500Y1555810D02*
X38500Y1555810D01*
X38500Y1558660D02*
X31500Y1558660D01*
X31500Y1577500D02*
X38500Y1577500D01*
X38500Y1570500D01*
X31500Y1570500D01*
X31500Y1577500D01*
X31500Y1573350D02*
X38500Y1573350D01*
X38500Y1576200D02*
X31500Y1576200D01*
D11*
X55000Y1573730D03*
X55000Y1556730D03*
X505000Y1436730D03*
X505000Y1453730D03*
X485000Y1436730D03*
X485000Y1453730D03*
D12*
X470000Y1650430D03*
X470000Y1662030D03*
D13*
X454500Y1651230D03*
X437500Y1651230D03*
D11*
X465000Y1436730D03*
X465000Y1453730D03*
D14*
X495000Y1649230D03*
X485000Y1649230D03*
D15*
X506500Y1629730D03*
X495500Y1629730D03*
X484500Y1629730D03*
X473500Y1629730D03*
X462500Y1629730D03*
X451500Y1629730D03*
X440500Y1629730D03*
X429500Y1629730D03*
X418500Y1629730D03*
X407500Y1629730D03*
X396500Y1629730D03*
X385500Y1629730D03*
X374500Y1629730D03*
X363500Y1629730D03*
D16*
X335500Y1621230D03*
X335500Y1610230D03*
X335500Y1599230D03*
X335500Y1588230D03*
X335500Y1577230D03*
X335500Y1566230D03*
X335500Y1555230D03*
X335500Y1544230D03*
X335500Y1533230D03*
X335500Y1522230D03*
X335500Y1511230D03*
X335500Y1500230D03*
X335500Y1489230D03*
D15*
X363500Y1480730D03*
X374500Y1480730D03*
X385500Y1480730D03*
X396500Y1480730D03*
X407500Y1480730D03*
X418500Y1480730D03*
X429500Y1480730D03*
X440500Y1480730D03*
X451500Y1480730D03*
X462500Y1480730D03*
X473500Y1480730D03*
X484500Y1480730D03*
X495500Y1480730D03*
X506500Y1480730D03*
D16*
X534500Y1489230D03*
X534500Y1500230D03*
X534500Y1511230D03*
X534500Y1522230D03*
X534500Y1533230D03*
X534500Y1544230D03*
X534500Y1555230D03*
X534500Y1566230D03*
X534500Y1577230D03*
X534500Y1588230D03*
X534500Y1599230D03*
X534500Y1610230D03*
X534500Y1621230D03*
D17*
X445500Y1544730D03*
X466500Y1544730D03*
X487500Y1544730D03*
X508500Y1544730D03*
X445500Y1524230D03*
X466500Y1524230D03*
X487500Y1524230D03*
X508500Y1524230D03*
X445500Y1503730D03*
X466500Y1503730D03*
X487500Y1503730D03*
X508500Y1503730D03*
X445500Y1606730D03*
X466500Y1606730D03*
X487500Y1606730D03*
X508500Y1606730D03*
X445500Y1586230D03*
X466500Y1586230D03*
X487500Y1586230D03*
X508500Y1586230D03*
X445500Y1565730D03*
X466500Y1565730D03*
X487500Y1565730D03*
X508500Y1565730D03*
X361500Y1544730D03*
X382500Y1544730D03*
X403500Y1544730D03*
X424500Y1544730D03*
X361500Y1524230D03*
X382500Y1524230D03*
X403500Y1524230D03*
X424500Y1524230D03*
X361500Y1503730D03*
X382500Y1503730D03*
X403500Y1503730D03*
X424500Y1503730D03*
X361500Y1606730D03*
X382500Y1606730D03*
X403500Y1606730D03*
X424500Y1606730D03*
X361500Y1586230D03*
X382500Y1586230D03*
X403500Y1586230D03*
X424500Y1586230D03*
X361500Y1565730D03*
X382500Y1565730D03*
X403500Y1565730D03*
X424500Y1565730D03*
D11*
X415000Y1453730D03*
X415000Y1436730D03*
X435000Y1436730D03*
X435000Y1453730D03*
X525000Y1453730D03*
X525000Y1436730D03*
X295000Y1396730D03*
X295000Y1413730D03*
X275000Y1396730D03*
X275000Y1413730D03*
X515000Y1396730D03*
X515000Y1413730D03*
X455000Y1413730D03*
X455000Y1396730D03*
D18*
X508750Y1675230D03*
X481250Y1675230D03*
D19*
X495000Y1659980D03*
X495000Y1690480D03*
D20*
X219450Y1643230D03*
X206750Y1643230D03*
X194050Y1643230D03*
X181350Y1643230D03*
X168650Y1643230D03*
X155950Y1643230D03*
X143250Y1643230D03*
X130550Y1643230D03*
X130550Y1587230D03*
X143250Y1587230D03*
X155950Y1587230D03*
X168650Y1587230D03*
X181350Y1587230D03*
X194050Y1587230D03*
X206750Y1587230D03*
X219450Y1587230D03*
D11*
X245100Y1606730D03*
X245100Y1623730D03*
D21*
X152500Y1686730D03*
D22*
X142500Y1661730D03*
X137500Y1661730D03*
D21*
X77500Y1686730D03*
D22*
X132500Y1661730D03*
X127500Y1661730D03*
X122500Y1661730D03*
X117500Y1661730D03*
X112500Y1661730D03*
X107500Y1661730D03*
X102500Y1661730D03*
X97500Y1661730D03*
X92500Y1661730D03*
X87500Y1661730D03*
D21*
X242500Y1686730D03*
D22*
X232500Y1661730D03*
X227500Y1661730D03*
D21*
X167500Y1686730D03*
D22*
X222500Y1661730D03*
X217500Y1661730D03*
X212500Y1661730D03*
X207500Y1661730D03*
X202500Y1661730D03*
X197500Y1661730D03*
X192500Y1661730D03*
X187500Y1661730D03*
X182500Y1661730D03*
X177500Y1661730D03*
D23*
X498001Y1395730D03*
X498001Y1405230D03*
X498001Y1414730D03*
X471999Y1414730D03*
X471999Y1395730D03*
D21*
X422500Y1686730D03*
D22*
X412500Y1661730D03*
X407500Y1661730D03*
D21*
X347500Y1686730D03*
D22*
X402500Y1661730D03*
X397500Y1661730D03*
X392500Y1661730D03*
X387500Y1661730D03*
X382500Y1661730D03*
X377500Y1661730D03*
X372500Y1661730D03*
X367500Y1661730D03*
X362500Y1661730D03*
X357500Y1661730D03*
D17*
X198500Y1474730D03*
X198500Y1456230D03*
X198500Y1438230D03*
X180000Y1474730D03*
X180500Y1456230D03*
X180000Y1437730D03*
X161500Y1437730D03*
X161500Y1456230D03*
X161500Y1474730D03*
D24*
X256000Y1548230D03*
X256000Y1535230D03*
X256000Y1522730D03*
X256000Y1509730D03*
X256000Y1497230D03*
X256000Y1484730D03*
X256000Y1471730D03*
X256000Y1459230D03*
X256000Y1446230D03*
X256000Y1433730D03*
X256000Y1421230D03*
X256000Y1408230D03*
X256000Y1395730D03*
X256000Y1382730D03*
X74000Y1548230D03*
X74000Y1535230D03*
X74000Y1522730D03*
X74000Y1509730D03*
X74000Y1497230D03*
X74000Y1484730D03*
X74000Y1471730D03*
X74000Y1459230D03*
X74000Y1446230D03*
X74000Y1433730D03*
X74000Y1421230D03*
X74000Y1408230D03*
X74000Y1395730D03*
X74000Y1382730D03*
D25*
X108000Y1564230D03*
X120500Y1564230D03*
X133500Y1564230D03*
X146000Y1564230D03*
X158500Y1564230D03*
X171500Y1564230D03*
X184000Y1564230D03*
X197000Y1564230D03*
X209500Y1564230D03*
X222000Y1564230D03*
D11*
X35000Y1386730D03*
X35000Y1403730D03*
X35000Y1426730D03*
X35000Y1443730D03*
D21*
X332500Y1686730D03*
D22*
X322500Y1661730D03*
X317500Y1661730D03*
D21*
X257500Y1686730D03*
D22*
X312500Y1661730D03*
X307500Y1661730D03*
X302500Y1661730D03*
X297500Y1661730D03*
X292500Y1661730D03*
X287500Y1661730D03*
X282500Y1661730D03*
X277500Y1661730D03*
X272500Y1661730D03*
X267500Y1661730D03*
D11*
X560000Y1568730D03*
X560000Y1551730D03*
X560000Y1620730D03*
X560000Y1637730D03*
X560000Y1453730D03*
X560000Y1436730D03*
X560000Y1493730D03*
X560000Y1476730D03*
X560000Y1533730D03*
X560000Y1516730D03*
X545000Y1453730D03*
X545000Y1436730D03*
D13*
X308500Y1545230D03*
X291500Y1545230D03*
X308500Y1565230D03*
X291500Y1565230D03*
X308500Y1585230D03*
X291500Y1585230D03*
X308500Y1605230D03*
X291500Y1605230D03*
D11*
X560000Y1656730D03*
X560000Y1673730D03*
X560000Y1586730D03*
X560000Y1603730D03*
D10*
X626571Y1559960D02*
X633571Y1559960D01*
X633571Y1552960D01*
X626571Y1552960D01*
X626571Y1559960D01*
X626571Y1555810D02*
X633571Y1555810D01*
X633571Y1558660D02*
X626571Y1558660D01*
X626571Y1577500D02*
X633571Y1577500D01*
X633571Y1570500D01*
X626571Y1570500D01*
X626571Y1577500D01*
X626571Y1573350D02*
X633571Y1573350D01*
X633571Y1576200D02*
X626571Y1576200D01*
D11*
X650071Y1573730D03*
X650071Y1556730D03*
X1100071Y1436730D03*
X1100071Y1453730D03*
X1080071Y1436730D03*
X1080071Y1453730D03*
D12*
X1065071Y1650430D03*
X1065071Y1662030D03*
D13*
X1049571Y1651230D03*
X1032571Y1651230D03*
D11*
X1060071Y1436730D03*
X1060071Y1453730D03*
D14*
X1090071Y1649230D03*
X1080071Y1649230D03*
D15*
X1101571Y1629730D03*
X1090571Y1629730D03*
X1079571Y1629730D03*
X1068571Y1629730D03*
X1057571Y1629730D03*
X1046571Y1629730D03*
X1035571Y1629730D03*
X1024571Y1629730D03*
X1013571Y1629730D03*
X1002571Y1629730D03*
X991571Y1629730D03*
X980571Y1629730D03*
X969571Y1629730D03*
X958571Y1629730D03*
D16*
X930571Y1621230D03*
X930571Y1610230D03*
X930571Y1599230D03*
X930571Y1588230D03*
X930571Y1577230D03*
X930571Y1566230D03*
X930571Y1555230D03*
X930571Y1544230D03*
X930571Y1533230D03*
X930571Y1522230D03*
X930571Y1511230D03*
X930571Y1500230D03*
X930571Y1489230D03*
D15*
X958571Y1480730D03*
X969571Y1480730D03*
X980571Y1480730D03*
X991571Y1480730D03*
X1002571Y1480730D03*
X1013571Y1480730D03*
X1024571Y1480730D03*
X1035571Y1480730D03*
X1046571Y1480730D03*
X1057571Y1480730D03*
X1068571Y1480730D03*
X1079571Y1480730D03*
X1090571Y1480730D03*
X1101571Y1480730D03*
D16*
X1129571Y1489230D03*
X1129571Y1500230D03*
X1129571Y1511230D03*
X1129571Y1522230D03*
X1129571Y1533230D03*
X1129571Y1544230D03*
X1129571Y1555230D03*
X1129571Y1566230D03*
X1129571Y1577230D03*
X1129571Y1588230D03*
X1129571Y1599230D03*
X1129571Y1610230D03*
X1129571Y1621230D03*
D17*
X1040571Y1544730D03*
X1061571Y1544730D03*
X1082571Y1544730D03*
X1103571Y1544730D03*
X1040571Y1524230D03*
X1061571Y1524230D03*
X1082571Y1524230D03*
X1103571Y1524230D03*
X1040571Y1503730D03*
X1061571Y1503730D03*
X1082571Y1503730D03*
X1103571Y1503730D03*
X1040571Y1606730D03*
X1061571Y1606730D03*
X1082571Y1606730D03*
X1103571Y1606730D03*
X1040571Y1586230D03*
X1061571Y1586230D03*
X1082571Y1586230D03*
X1103571Y1586230D03*
X1040571Y1565730D03*
X1061571Y1565730D03*
X1082571Y1565730D03*
X1103571Y1565730D03*
X956571Y1544730D03*
X977571Y1544730D03*
X998571Y1544730D03*
X1019571Y1544730D03*
X956571Y1524230D03*
X977571Y1524230D03*
X998571Y1524230D03*
X1019571Y1524230D03*
X956571Y1503730D03*
X977571Y1503730D03*
X998571Y1503730D03*
X1019571Y1503730D03*
X956571Y1606730D03*
X977571Y1606730D03*
X998571Y1606730D03*
X1019571Y1606730D03*
X956571Y1586230D03*
X977571Y1586230D03*
X998571Y1586230D03*
X1019571Y1586230D03*
X956571Y1565730D03*
X977571Y1565730D03*
X998571Y1565730D03*
X1019571Y1565730D03*
D11*
X1010071Y1453730D03*
X1010071Y1436730D03*
X1030071Y1436730D03*
X1030071Y1453730D03*
X1120071Y1453730D03*
X1120071Y1436730D03*
X890071Y1396730D03*
X890071Y1413730D03*
X870071Y1396730D03*
X870071Y1413730D03*
X1110071Y1396730D03*
X1110071Y1413730D03*
X1050071Y1413730D03*
X1050071Y1396730D03*
D18*
X1103821Y1675230D03*
X1076321Y1675230D03*
D19*
X1090071Y1659980D03*
X1090071Y1690480D03*
D20*
X814521Y1643230D03*
X801821Y1643230D03*
X789121Y1643230D03*
X776421Y1643230D03*
X763721Y1643230D03*
X751021Y1643230D03*
X738321Y1643230D03*
X725621Y1643230D03*
X725621Y1587230D03*
X738321Y1587230D03*
X751021Y1587230D03*
X763721Y1587230D03*
X776421Y1587230D03*
X789121Y1587230D03*
X801821Y1587230D03*
X814521Y1587230D03*
D11*
X840171Y1606730D03*
X840171Y1623730D03*
D21*
X747571Y1686730D03*
D22*
X737571Y1661730D03*
X732571Y1661730D03*
D21*
X672571Y1686730D03*
D22*
X727571Y1661730D03*
X722571Y1661730D03*
X717571Y1661730D03*
X712571Y1661730D03*
X707571Y1661730D03*
X702571Y1661730D03*
X697571Y1661730D03*
X692571Y1661730D03*
X687571Y1661730D03*
X682571Y1661730D03*
D21*
X837571Y1686730D03*
D22*
X827571Y1661730D03*
X822571Y1661730D03*
D21*
X762571Y1686730D03*
D22*
X817571Y1661730D03*
X812571Y1661730D03*
X807571Y1661730D03*
X802571Y1661730D03*
X797571Y1661730D03*
X792571Y1661730D03*
X787571Y1661730D03*
X782571Y1661730D03*
X777571Y1661730D03*
X772571Y1661730D03*
D23*
X1093072Y1395730D03*
X1093072Y1405230D03*
X1093072Y1414730D03*
X1067070Y1414730D03*
X1067070Y1395730D03*
D21*
X1017571Y1686730D03*
D22*
X1007571Y1661730D03*
X1002571Y1661730D03*
D21*
X942571Y1686730D03*
D22*
X997571Y1661730D03*
X992571Y1661730D03*
X987571Y1661730D03*
X982571Y1661730D03*
X977571Y1661730D03*
X972571Y1661730D03*
X967571Y1661730D03*
X962571Y1661730D03*
X957571Y1661730D03*
X952571Y1661730D03*
D17*
X793571Y1474730D03*
X793571Y1456230D03*
X793571Y1438230D03*
X775071Y1474730D03*
X775571Y1456230D03*
X775071Y1437730D03*
X756571Y1437730D03*
X756571Y1456230D03*
X756571Y1474730D03*
D24*
X851071Y1548230D03*
X851071Y1535230D03*
X851071Y1522730D03*
X851071Y1509730D03*
X851071Y1497230D03*
X851071Y1484730D03*
X851071Y1471730D03*
X851071Y1459230D03*
X851071Y1446230D03*
X851071Y1433730D03*
X851071Y1421230D03*
X851071Y1408230D03*
X851071Y1395730D03*
X851071Y1382730D03*
X669071Y1548230D03*
X669071Y1535230D03*
X669071Y1522730D03*
X669071Y1509730D03*
X669071Y1497230D03*
X669071Y1484730D03*
X669071Y1471730D03*
X669071Y1459230D03*
X669071Y1446230D03*
X669071Y1433730D03*
X669071Y1421230D03*
X669071Y1408230D03*
X669071Y1395730D03*
X669071Y1382730D03*
D25*
X703071Y1564230D03*
X715571Y1564230D03*
X728571Y1564230D03*
X741071Y1564230D03*
X753571Y1564230D03*
X766571Y1564230D03*
X779071Y1564230D03*
X792071Y1564230D03*
X804571Y1564230D03*
X817071Y1564230D03*
D11*
X630071Y1386730D03*
X630071Y1403730D03*
X630071Y1426730D03*
X630071Y1443730D03*
D21*
X927571Y1686730D03*
D22*
X917571Y1661730D03*
X912571Y1661730D03*
D21*
X852571Y1686730D03*
D22*
X907571Y1661730D03*
X902571Y1661730D03*
X897571Y1661730D03*
X892571Y1661730D03*
X887571Y1661730D03*
X882571Y1661730D03*
X877571Y1661730D03*
X872571Y1661730D03*
X867571Y1661730D03*
X862571Y1661730D03*
D11*
X1155071Y1568730D03*
X1155071Y1551730D03*
X1155071Y1620730D03*
X1155071Y1637730D03*
X1155071Y1453730D03*
X1155071Y1436730D03*
X1155071Y1493730D03*
X1155071Y1476730D03*
X1155071Y1533730D03*
X1155071Y1516730D03*
X1140071Y1453730D03*
X1140071Y1436730D03*
D13*
X903571Y1545230D03*
X886571Y1545230D03*
X903571Y1565230D03*
X886571Y1565230D03*
X903571Y1585230D03*
X886571Y1585230D03*
X903571Y1605230D03*
X886571Y1605230D03*
D11*
X1155071Y1656730D03*
X1155071Y1673730D03*
X1155071Y1586730D03*
X1155071Y1603730D03*
M02*
