M48
;GenerationSoftware,Autodesk,EAGLE,9.6.2*%
;CreationDate,2021-11-22T17:43:39Z*%
FMAT,2
ICI,OFF
METRIC,TZ,000.000
T3C0.300
T2C0.750
T1C1.016
%
G90
M71
T1
X111077Y169781
X46490Y135273
X49030Y135273
X51570Y135273
X98377Y135273
X100917Y135273
X103457Y135273
X105997Y135273
X108537Y135273
X111077Y135273
X100917Y66258
X41410Y169781
X43950Y169781
X46490Y169781
X49030Y169781
X51570Y169781
X98377Y169781
X100917Y169781
X103457Y169781
X105997Y169781
X108537Y169781
X38870Y31750
X41410Y31750
X43950Y31750
X46490Y31750
X49030Y31750
X51570Y31750
X98377Y31750
X100917Y31750
X103457Y31750
X105997Y31750
X108537Y31750
X111077Y31750
X38870Y66258
X41410Y66258
X43950Y66258
X46490Y66258
X49030Y66258
X51570Y66258
X98377Y66258
X38870Y169781
X103457Y66258
X105997Y66258
X108537Y66258
X111077Y66258
X38870Y100767
X41410Y100767
X43950Y100767
X46490Y100767
X49030Y100767
X51570Y100767
X98377Y100767
X100917Y100767
X103457Y100767
X105997Y100767
X108537Y100767
X111077Y100767
X38870Y135273
X41410Y135273
X43950Y135273
T2
X34105Y2150
X25605Y2150
X93612Y2150
X85112Y2150
X34105Y36658
X25605Y36658
X93612Y36658
X85112Y36658
X34105Y71167
X93612Y71167
X85112Y71167
X34105Y105673
X25605Y105673
X93612Y105673
X85112Y105673
X34105Y140181
X25605Y140181
X93612Y140181
X85112Y140181
X25605Y71167
T3
X2090Y2190
X7233Y1698
X35090Y16190
X40090Y16190
X38596Y10016
X21786Y26285
X7248Y26307
X21775Y1698
X16611Y23349
X18707Y23349
X43950Y25400
X47760Y25400
X49030Y16510
X55380Y16510
X23122Y25019
X23122Y23876
X23122Y22733
X23122Y20447
X28964Y22606
X27059Y9652
X27059Y13335
X25789Y9081
X25789Y13335
X28329Y10224
X28329Y13335
X5850Y9525
X37029Y7620
X26932Y18288
X27440Y17780
X32139Y16891
X28202Y22606
X50300Y21590
X5850Y15240
X26949Y15621
X31504Y15621
X5850Y13970
X27480Y16192
X30805Y16192
X5850Y12700
X30107Y19304
X5850Y11430
X29535Y16787
X5850Y6350
X42680Y17780
X5850Y21590
X23122Y19431
X23122Y18542
X4580Y21590
X31250Y28679
X30234Y22606
X30488Y25082
X31059Y26670
X30488Y28638
X30066Y21907
X32012Y28679
X29535Y21336
X35060Y25400
X28781Y28638
X52395Y18034
X29599Y28638
X37600Y29210
X37600Y22860
X15629Y635
X16772Y635
X5850Y7620
X74507Y28500
X75507Y29000
X73007Y29000
X72007Y28500
X70007Y28500
X69007Y29000
X68007Y30000
X68007Y32000
X69007Y33000
X70007Y33500
X72007Y33500
X73007Y33000
X75007Y33000
X77007Y33000
X79007Y32000
X79007Y30000
X79007Y28000
X87007Y25000
X87007Y22000
X87007Y19000
X83007Y16000
X92007Y13000
X102007Y13000
X102007Y11000
X102007Y9000
X102007Y7000
X102007Y5000
X108007Y9000
X101007Y24000
X98007Y24000
X102007Y28000
X106007Y28000
X102007Y21000
X107007Y11000
X111769Y13603
X111007Y20000
X105007Y20000
X114007Y20000
X71007Y21000
X74007Y21000
X77007Y21000
X77007Y17000
X74007Y17000
X71007Y17000
X71007Y11000
X74007Y11000
X77007Y11000
X77007Y7000
X74007Y7000
X71007Y7000
X94007Y21000
X64657Y17000
X64660Y26180
X85561Y27683
X86450Y28635
X91643Y25063
X92976Y23920
X84977Y6990
X84977Y4650
X92597Y6990
X92597Y4650
X111597Y10190
X111597Y7190
X86597Y1190
X91597Y1190
X114597Y30190
X116597Y27190
X116597Y22190
X116597Y17190
X116597Y12190
X116597Y7190
X114597Y3190
X99597Y1190
X104597Y1190
X109597Y1190
X64597Y28190
X61597Y26190
X61597Y20190
X61597Y14190
X61597Y8190
X61597Y2190
X66740Y1698
X94597Y16190
X99597Y16190
X98103Y10016
X81293Y26285
X66756Y26307
X81282Y1698
X76118Y23349
X78214Y23349
X103457Y25400
X107267Y25400
X108537Y16510
X114887Y16510
X82629Y25019
X82629Y23876
X82629Y22733
X82629Y20447
X88471Y22606
X86566Y9652
X86566Y13335
X85296Y9081
X85296Y13335
X87836Y10224
X87836Y13335
X65357Y9525
X96536Y7620
X86439Y18288
X86947Y17780
X91646Y16891
X87709Y22606
X109807Y21590
X65357Y15240
X86457Y15621
X91011Y15621
X65357Y13970
X86988Y16192
X90313Y16192
X65357Y12700
X89614Y19304
X65357Y11430
X89043Y16787
X65357Y6350
X102187Y17780
X65357Y21590
X82629Y19431
X82629Y18542
X64087Y21590
X90757Y28679
X89741Y22606
X89995Y25082
X90567Y26670
X89995Y28638
X89574Y21907
X91519Y28679
X89043Y21336
X94567Y25400
X88288Y28638
X111903Y18034
X89106Y28638
X97107Y29210
X97107Y22860
X75136Y635
X76279Y635
X65357Y7620
X15000Y63008
X16000Y63508
X13500Y63508
X12500Y63008
X10500Y63008
X9500Y63508
X8500Y64508
X8500Y66508
X9500Y67508
X10500Y68008
X12500Y68008
X13500Y67508
X15500Y67508
X17500Y67508
X19500Y66508
X19500Y64508
X19500Y62508
X27500Y59508
X27500Y56508
X27500Y53508
X23500Y50508
X32500Y47508
X42500Y47508
X42500Y45508
X42500Y43508
X42500Y41508
X42500Y39508
X48500Y43508
X41500Y58508
X38500Y58508
X42500Y62508
X46500Y62508
X42500Y55508
X47500Y45508
X52262Y48111
X51500Y54508
X45500Y54508
X54500Y54508
X11500Y55508
X14500Y55508
X17500Y55508
X17500Y51508
X14500Y51508
X11500Y51508
X11500Y45508
X14500Y45508
X17500Y45508
X17500Y41508
X14500Y41508
X11500Y41508
X34500Y55508
X5150Y51508
X5153Y60688
X26054Y62191
X26943Y63144
X32135Y59572
X33469Y58429
X25470Y41498
X25470Y39158
X33090Y41498
X33090Y39158
X52090Y44698
X52090Y41698
X27090Y35698
X32090Y35698
X55090Y64698
X57090Y61698
X57090Y56698
X57090Y51698
X57090Y46698
X57090Y41698
X55090Y37698
X40090Y35698
X45090Y35698
X50090Y35698
X5090Y62698
X2090Y60698
X2090Y54698
X2090Y48698
X2090Y42698
X2090Y36698
X7233Y36206
X35090Y50698
X40090Y50698
X38596Y44524
X21786Y60794
X7248Y60815
X21775Y36206
X16611Y57858
X18707Y57858
X43950Y59908
X47760Y59908
X49030Y51018
X55380Y51018
X23122Y59527
X23122Y58384
X23122Y57241
X23122Y54955
X28964Y57114
X27059Y44160
X27059Y47843
X25789Y43589
X25789Y47843
X28329Y44732
X28329Y47843
X5850Y44033
X37029Y42128
X26932Y52796
X27440Y52288
X32139Y51399
X28202Y57114
X50300Y56098
X5850Y49748
X26949Y50129
X31504Y50129
X5850Y48478
X27480Y50701
X30805Y50701
X5850Y47208
X30107Y53812
X5850Y45938
X29535Y51295
X5850Y40858
X42680Y52288
X5850Y56098
X23122Y53939
X23122Y53050
X4580Y56098
X31250Y63187
X30234Y57114
X30488Y59591
X31059Y61178
X30488Y63147
X30066Y56416
X32012Y63187
X29535Y55844
X35060Y59908
X28781Y63147
X52395Y52542
X29599Y63147
X37600Y63718
X37600Y57368
X15629Y35143
X16772Y35143
X5850Y42128
X74507Y63008
X75507Y63508
X73007Y63508
X72007Y63008
X70007Y63008
X69007Y63508
X68007Y64508
X68007Y66508
X69007Y67508
X70007Y68008
X72007Y68008
X73007Y67508
X75007Y67508
X77007Y67508
X79007Y66508
X79007Y64508
X79007Y62508
X87007Y59508
X87007Y56508
X87007Y53508
X83007Y50508
X92007Y47508
X102007Y47508
X102007Y45508
X102007Y43508
X102007Y41508
X102007Y39508
X108007Y43508
X101007Y58508
X98007Y58508
X102007Y62508
X106007Y62508
X102007Y55508
X107007Y45508
X111769Y48111
X111007Y54508
X105007Y54508
X114007Y54508
X71007Y55508
X74007Y55508
X77007Y55508
X77007Y51508
X74007Y51508
X71007Y51508
X71007Y45508
X74007Y45508
X77007Y45508
X77007Y41508
X74007Y41508
X71007Y41508
X94007Y55508
X64657Y51508
X64660Y60688
X85561Y62191
X86450Y63144
X91643Y59572
X92976Y58429
X84977Y41498
X84977Y39158
X92597Y41498
X92597Y39158
X111597Y44698
X111597Y41698
X86597Y35698
X91597Y35698
X114597Y64698
X116597Y61698
X116597Y56698
X116597Y51698
X116597Y46698
X116597Y41698
X114597Y37698
X99597Y35698
X104597Y35698
X109597Y35698
X64597Y62698
X61597Y60698
X61597Y54698
X61597Y48698
X61597Y42698
X61597Y36698
X66740Y36206
X94597Y50698
X99597Y50698
X98103Y44524
X81293Y60794
X66756Y60815
X81282Y36206
X76118Y57858
X78214Y57858
X103457Y59908
X107267Y59908
X108537Y51018
X114887Y51018
X82629Y59527
X82629Y58384
X82629Y57241
X82629Y54955
X88471Y57114
X86566Y44160
X86566Y47843
X85296Y43589
X85296Y47843
X87836Y44732
X87836Y47843
X65357Y44033
X96536Y42128
X86439Y52796
X86947Y52288
X91646Y51399
X87709Y57114
X109807Y56098
X65357Y49748
X86457Y50129
X91011Y50129
X65357Y48478
X86988Y50701
X90313Y50701
X65357Y47208
X89614Y53812
X65357Y45938
X89043Y51295
X65357Y40858
X102187Y52288
X65357Y56098
X82629Y53939
X82629Y53050
X64087Y56098
X90757Y63187
X89741Y57114
X89995Y59591
X90567Y61178
X89995Y63147
X89574Y56416
X91519Y63187
X89043Y55844
X94567Y59908
X88288Y63147
X111903Y52542
X89106Y63147
X97107Y63718
X97107Y57368
X75136Y35143
X76279Y35143
X65357Y42128
X15000Y97517
X16000Y98017
X13500Y98017
X12500Y97517
X10500Y97517
X9500Y98017
X8500Y99017
X8500Y101017
X9500Y102017
X10500Y102517
X12500Y102517
X13500Y102017
X15500Y102017
X17500Y102017
X19500Y101017
X19500Y99017
X19500Y97017
X27500Y94017
X27500Y91017
X27500Y88017
X23500Y85017
X32500Y82017
X42500Y82017
X42500Y80017
X42500Y78017
X42500Y76017
X42500Y74017
X48500Y78017
X41500Y93017
X38500Y93017
X42500Y97017
X46500Y97017
X42500Y90017
X47500Y80017
X52262Y82620
X51500Y89017
X45500Y89017
X54500Y89017
X11500Y90017
X14500Y90017
X17500Y90017
X17500Y86017
X14500Y86017
X11500Y86017
X11500Y80017
X14500Y80017
X17500Y80017
X17500Y76017
X14500Y76017
X11500Y76017
X34500Y90017
X5150Y86017
X5153Y95197
X26054Y96700
X26943Y97652
X32135Y94080
X33469Y92937
X25470Y76007
X25470Y73667
X33090Y76007
X33090Y73667
X52090Y79207
X52090Y76207
X27090Y70207
X32090Y70207
X55090Y99207
X57090Y96207
X57090Y91207
X57090Y86207
X57090Y81207
X57090Y76207
X55090Y72207
X40090Y70207
X45090Y70207
X50090Y70207
X5090Y97207
X2090Y95207
X2090Y89207
X2090Y83207
X2090Y77207
X2090Y71207
X7233Y70715
X35090Y85207
X40090Y85207
X38596Y79032
X21786Y95302
X7248Y95324
X21775Y70715
X16611Y92366
X18707Y92366
X43950Y94417
X47760Y94417
X49030Y85527
X55380Y85527
X23122Y94036
X23122Y92893
X23122Y91750
X23122Y89464
X28964Y91623
X27059Y78669
X27059Y82352
X25789Y78097
X25789Y82352
X28329Y79240
X28329Y82352
X5850Y78542
X37029Y76637
X26932Y87305
X27440Y86797
X32139Y85908
X28202Y91623
X50300Y90607
X5850Y84257
X26949Y84638
X31504Y84638
X5850Y82987
X27480Y85209
X30805Y85209
X5850Y81717
X30107Y88321
X5850Y80447
X29535Y85804
X5850Y75367
X42680Y86797
X5850Y90607
X23122Y88448
X23122Y87559
X4580Y90607
X31250Y97696
X30234Y91623
X30488Y94099
X31059Y95687
X30488Y97655
X30066Y90924
X32012Y97696
X29535Y90353
X35060Y94417
X28781Y97655
X52395Y87051
X29599Y97655
X37600Y98227
X37600Y91877
X15629Y69652
X16772Y69652
X5850Y76637
X74507Y97517
X75507Y98017
X73007Y98017
X72007Y97517
X70007Y97517
X69007Y98017
X68007Y99017
X68007Y101017
X69007Y102017
X70007Y102517
X72007Y102517
X73007Y102017
X75007Y102017
X77007Y102017
X79007Y101017
X79007Y99017
X79007Y97017
X87007Y94017
X87007Y91017
X87007Y88017
X83007Y85017
X92007Y82017
X102007Y82017
X102007Y80017
X102007Y78017
X102007Y76017
X102007Y74017
X108007Y78017
X101007Y93017
X98007Y93017
X102007Y97017
X106007Y97017
X102007Y90017
X107007Y80017
X111769Y82620
X111007Y89017
X105007Y89017
X114007Y89017
X71007Y90017
X74007Y90017
X77007Y90017
X77007Y86017
X74007Y86017
X71007Y86017
X71007Y80017
X74007Y80017
X77007Y80017
X77007Y76017
X74007Y76017
X71007Y76017
X94007Y90017
X64657Y86017
X64660Y95197
X85561Y96700
X86450Y97652
X91643Y94080
X92976Y92937
X84977Y76007
X84977Y73667
X92597Y76007
X92597Y73667
X111597Y79207
X111597Y76207
X86597Y70207
X91597Y70207
X114597Y99207
X116597Y96207
X116597Y91207
X116597Y86207
X116597Y81207
X116597Y76207
X114597Y72207
X99597Y70207
X104597Y70207
X109597Y70207
X64597Y97207
X61597Y95207
X61597Y89207
X61597Y83207
X61597Y77207
X61597Y71207
X66740Y70715
X94597Y85207
X99597Y85207
X98103Y79032
X81293Y95302
X66756Y95324
X81282Y70715
X76118Y92366
X78214Y92366
X103457Y94417
X107267Y94417
X108537Y85527
X114887Y85527
X82629Y94036
X82629Y92893
X82629Y91750
X82629Y89464
X88471Y91623
X86566Y78669
X86566Y82352
X85296Y78097
X85296Y82352
X87836Y79240
X87836Y82352
X65357Y78542
X96536Y76637
X86439Y87305
X86947Y86797
X91646Y85908
X87709Y91623
X109807Y90607
X65357Y84257
X86457Y84638
X91011Y84638
X65357Y82987
X86988Y85209
X90313Y85209
X65357Y81717
X89614Y88321
X65357Y80447
X89043Y85804
X65357Y75367
X102187Y86797
X65357Y90607
X82629Y88448
X82629Y87559
X64087Y90607
X90757Y97696
X89741Y91623
X89995Y94099
X90567Y95687
X89995Y97655
X89574Y90924
X91519Y97696
X89043Y90353
X94567Y94417
X88288Y97655
X111903Y87051
X89106Y97655
X97107Y98227
X97107Y91877
X75136Y69652
X76279Y69652
X65357Y76637
X15000Y132023
X16000Y132523
X13500Y132523
X12500Y132023
X10500Y132023
X9500Y132523
X8500Y133523
X8500Y135523
X9500Y136523
X10500Y137023
X12500Y137023
X13500Y136523
X15500Y136523
X17500Y136523
X19500Y135523
X19500Y133523
X19500Y131523
X27500Y128523
X27500Y125523
X27500Y122523
X23500Y119523
X32500Y116523
X42500Y116523
X42500Y114523
X42500Y112523
X42500Y110523
X42500Y108523
X48500Y112523
X41500Y127523
X38500Y127523
X42500Y131523
X46500Y131523
X42500Y124523
X47500Y114523
X52262Y117126
X51500Y123523
X45500Y123523
X54500Y123523
X11500Y124523
X14500Y124523
X17500Y124523
X17500Y120523
X14500Y120523
X11500Y120523
X11500Y114523
X14500Y114523
X17500Y114523
X17500Y110523
X14500Y110523
X11500Y110523
X34500Y124523
X5150Y120523
X5153Y129703
X26054Y131206
X26943Y132158
X32135Y128586
X33469Y127443
X25470Y110513
X25470Y108173
X33090Y110513
X33090Y108173
X52090Y113713
X52090Y110713
X27090Y104713
X32090Y104713
X55090Y133713
X57090Y130713
X57090Y125713
X57090Y120713
X57090Y115713
X57090Y110713
X55090Y106713
X40090Y104713
X45090Y104713
X50090Y104713
X5090Y131713
X2090Y129713
X2090Y123713
X2090Y117713
X2090Y111713
X2090Y105713
X7233Y105221
X35090Y119713
X40090Y119713
X38596Y113538
X21786Y129808
X7248Y129830
X21775Y105221
X16611Y126872
X18707Y126872
X43950Y128923
X47760Y128923
X49030Y120033
X55380Y120033
X23122Y128542
X23122Y127399
X23122Y126256
X23122Y123970
X28964Y126129
X27059Y113175
X27059Y116858
X25789Y112603
X25789Y116858
X28329Y113746
X28329Y116858
X5850Y113048
X37029Y111143
X26932Y121811
X27440Y121303
X32139Y120414
X28202Y126129
X50300Y125113
X5850Y118763
X26949Y119144
X31504Y119144
X5850Y117493
X27480Y119715
X30805Y119715
X5850Y116223
X30107Y122827
X5850Y114953
X29535Y120310
X5850Y109873
X42680Y121303
X5850Y125113
X23122Y122954
X23122Y122065
X4580Y125113
X31250Y132202
X30234Y126129
X30488Y128605
X31059Y130193
X30488Y132161
X30066Y125430
X32012Y132202
X29535Y124859
X35060Y128923
X28781Y132161
X52395Y121557
X29599Y132161
X37600Y132733
X37600Y126383
X15629Y104158
X16772Y104158
X5850Y111143
X74507Y132023
X75507Y132523
X73007Y132523
X72007Y132023
X70007Y132023
X69007Y132523
X68007Y133523
X68007Y135523
X69007Y136523
X70007Y137023
X72007Y137023
X73007Y136523
X75007Y136523
X77007Y136523
X79007Y135523
X79007Y133523
X79007Y131523
X87007Y128523
X87007Y125523
X87007Y122523
X83007Y119523
X92007Y116523
X102007Y116523
X102007Y114523
X102007Y112523
X102007Y110523
X102007Y108523
X108007Y112523
X101007Y127523
X98007Y127523
X102007Y131523
X106007Y131523
X102007Y124523
X107007Y114523
X111769Y117126
X111007Y123523
X105007Y123523
X114007Y123523
X71007Y124523
X74007Y124523
X77007Y124523
X77007Y120523
X74007Y120523
X71007Y120523
X71007Y114523
X74007Y114523
X77007Y114523
X77007Y110523
X74007Y110523
X71007Y110523
X94007Y124523
X64657Y120523
X64660Y129703
X85561Y131206
X86450Y132158
X91643Y128586
X92976Y127443
X84977Y110513
X84977Y108173
X92597Y110513
X92597Y108173
X111597Y113713
X111597Y110713
X86597Y104713
X91597Y104713
X114597Y133713
X116597Y130713
X116597Y125713
X116597Y120713
X116597Y115713
X116597Y110713
X114597Y106713
X99597Y104713
X104597Y104713
X109597Y104713
X64597Y131713
X61597Y129713
X61597Y123713
X61597Y117713
X61597Y111713
X61597Y105713
X66740Y105221
X94597Y119713
X99597Y119713
X98103Y113538
X81293Y129808
X66756Y129830
X81282Y105221
X76118Y126872
X78214Y126872
X103457Y128923
X107267Y128923
X108537Y120033
X114887Y120033
X82629Y128542
X82629Y127399
X82629Y126256
X82629Y123970
X88471Y126129
X86566Y113175
X86566Y116858
X85296Y112603
X85296Y116858
X87836Y113746
X87836Y116858
X65357Y113048
X96536Y111143
X86439Y121811
X86947Y121303
X91646Y120414
X87709Y126129
X109807Y125113
X65357Y118763
X86457Y119144
X91011Y119144
X65357Y117493
X86988Y119715
X90313Y119715
X65357Y116223
X89614Y122827
X65357Y114953
X89043Y120310
X65357Y109873
X102187Y121303
X65357Y125113
X82629Y122954
X82629Y122065
X64087Y125113
X90757Y132202
X89741Y126129
X89995Y128605
X90567Y130193
X15000Y28500
X89574Y125430
X91519Y132202
X89043Y124859
X94567Y128923
X88288Y132161
X111903Y121557
X89106Y132161
X97107Y132733
X97107Y126383
X75136Y104158
X76279Y104158
X65357Y111143
X15000Y166531
X16000Y167031
X13500Y167031
X12500Y166531
X10500Y166531
X9500Y167031
X8500Y168031
X8500Y170031
X9500Y171031
X10500Y171531
X12500Y171531
X13500Y171031
X15500Y171031
X17500Y171031
X19500Y170031
X19500Y168031
X19500Y166031
X27500Y163031
X27500Y160031
X27500Y157031
X23500Y154031
X32500Y151031
X42500Y151031
X42500Y149031
X42500Y147031
X42500Y145031
X42500Y143031
X48500Y147031
X41500Y162031
X38500Y162031
X42500Y166031
X46500Y166031
X42500Y159031
X47500Y149031
X52262Y151634
X51500Y158031
X45500Y158031
X54500Y158031
X11500Y159031
X14500Y159031
X17500Y159031
X17500Y155031
X14500Y155031
X11500Y155031
X11500Y149031
X14500Y149031
X17500Y149031
X17500Y145031
X14500Y145031
X11500Y145031
X34500Y159031
X5150Y155031
X5153Y164211
X26054Y165714
X26943Y166667
X32135Y163095
X33469Y161952
X25470Y145021
X25470Y142681
X33090Y145021
X33090Y142681
X52090Y148221
X52090Y145221
X27090Y139221
X32090Y139221
X55090Y168221
X57090Y165221
X57090Y160221
X57090Y155221
X57090Y150221
X57090Y145221
X55090Y141221
X40090Y139221
X45090Y139221
X50090Y139221
X5090Y166221
X2090Y164221
X2090Y158221
X2090Y152221
X2090Y146221
X2090Y140221
X7233Y139729
X35090Y154221
X40090Y154221
X38596Y148047
X21786Y164317
X7248Y164338
X21775Y139729
X16611Y161381
X18707Y161381
X43950Y163431
X47760Y163431
X49030Y154541
X55380Y154541
X23122Y163050
X23122Y161907
X23122Y160764
X23122Y158478
X28964Y160637
X27059Y147683
X27059Y151366
X25789Y147112
X25789Y151366
X28329Y148255
X28329Y151366
X5850Y147556
X37029Y145651
X26932Y156319
X27440Y155811
X32139Y154922
X28202Y160637
X50300Y159621
X5850Y153271
X26949Y153652
X31504Y153652
X5850Y152001
X27480Y154224
X30805Y154224
X5850Y150731
X30107Y157335
X5850Y149461
X29535Y154818
X5850Y144381
X42680Y155811
X5850Y159621
X23122Y157462
X23122Y156573
X4580Y159621
X31250Y166710
X30234Y160637
X30488Y163114
X31059Y164701
X30488Y166670
X30066Y159939
X32012Y166710
X29535Y159367
X35060Y163431
X28781Y166670
X52395Y156065
X29599Y166670
X37600Y167241
X37600Y160891
X15629Y138666
X16772Y138666
X5850Y145651
X74507Y166531
X75507Y167031
X73007Y167031
X72007Y166531
X70007Y166531
X69007Y167031
X68007Y168031
X68007Y170031
X69007Y171031
X70007Y171531
X72007Y171531
X73007Y171031
X75007Y171031
X77007Y171031
X79007Y170031
X79007Y168031
X79007Y166031
X87007Y163031
X87007Y160031
X87007Y157031
X83007Y154031
X92007Y151031
X102007Y151031
X102007Y149031
X102007Y147031
X102007Y145031
X102007Y143031
X108007Y147031
X101007Y162031
X98007Y162031
X102007Y166031
X106007Y166031
X102007Y159031
X89995Y132161
X111769Y151634
X111007Y158031
X105007Y158031
X114007Y158031
X71007Y159031
X74007Y159031
X77007Y159031
X77007Y155031
X74007Y155031
X71007Y155031
X71007Y149031
X74007Y149031
X77007Y149031
X77007Y145031
X74007Y145031
X71007Y145031
X94007Y159031
X64657Y155031
X64660Y164211
X85561Y165714
X86450Y166667
X91643Y163095
X92976Y161952
X84977Y145021
X84977Y142681
X92597Y145021
X92597Y142681
X111597Y148221
X111597Y145221
X86597Y139221
X91597Y139221
X114597Y168221
X116597Y165221
X116597Y160221
X116597Y155221
X116597Y150221
X116597Y145221
X114597Y141221
X99597Y139221
X104597Y139221
X109597Y139221
X64597Y166221
X61597Y164221
X61597Y158221
X61597Y152221
X61597Y146221
X61597Y140221
X66740Y139729
X94597Y154221
X99597Y154221
X98103Y148047
X81293Y164317
X66756Y164338
X81282Y139729
X76118Y161381
X78214Y161381
X103457Y163431
X107267Y163431
X108537Y154541
X114887Y154541
X82629Y163050
X82629Y161907
X82629Y160764
X82629Y158478
X88471Y160637
X86566Y147683
X86566Y151366
X85296Y147112
X85296Y151366
X87836Y148255
X87836Y151366
X65357Y147556
X96536Y145651
X86439Y156319
X86947Y155811
X91646Y154922
X87709Y160637
X109807Y159621
X65357Y153271
X86457Y153652
X91011Y153652
X65357Y152001
X86988Y154224
X90313Y154224
X65357Y150731
X89614Y157335
X65357Y149461
X89043Y154818
X65357Y144381
X102187Y155811
X65357Y159621
X82629Y157462
X82629Y156573
X64087Y159621
X90757Y166710
X89741Y160637
X89995Y163114
X90567Y164701
X89995Y166670
X89574Y159939
X91519Y166710
X89043Y159367
X94567Y163431
X88288Y166670
X111903Y156065
X89106Y166670
X97107Y167241
X97107Y160891
X75136Y138666
X76279Y138666
X65357Y145651
X16000Y29000
X13500Y29000
X12500Y28500
X10500Y28500
X9500Y29000
X8500Y30000
X8500Y32000
X9500Y33000
X10500Y33500
X12500Y33500
X13500Y33000
X15500Y33000
X17500Y33000
X19500Y32000
X19500Y30000
X19500Y28000
X27500Y25000
X27500Y22000
X27500Y19000
X23500Y16000
X32500Y13000
X42500Y13000
X42500Y11000
X42500Y9000
X42500Y7000
X42500Y5000
X48500Y9000
X41500Y24000
X38500Y24000
X42500Y28000
X46500Y28000
X42500Y21000
X47500Y11000
X52262Y13603
X51500Y20000
X45500Y20000
X54500Y20000
X11500Y21000
X14500Y21000
X17500Y21000
X17500Y17000
X14500Y17000
X11500Y17000
X11500Y11000
X14500Y11000
X17500Y11000
X17500Y7000
X14500Y7000
X11500Y7000
X34500Y21000
X5150Y17000
X5153Y26180
X26054Y27683
X26943Y28635
X32135Y25063
X33469Y23920
X25470Y6990
X25470Y4650
X33090Y6990
X33090Y4650
X52090Y10190
X52090Y7190
X27090Y1190
X32090Y1190
X55090Y30190
X57090Y27190
X57090Y22190
X57090Y17190
X57090Y12190
X57090Y7190
X55090Y3190
X40090Y1190
X45090Y1190
X50090Y1190
X5090Y28190
X2090Y26190
X2090Y20190
X2090Y14190
X2090Y8190
X107007Y149031
M30