M48
;GenerationSoftware,Autodesk,EAGLE,9.6.2*%
;CreationDate,2021-10-04T11:17:37Z*%
FMAT,2
ICI,OFF
METRIC,TZ,000.000
T3C0.300
T2C0.750
T1C1.016
%
G90
M71
T1
X112578Y169781
X46990Y135273
X49530Y135273
X52070Y135273
X99878Y135273
X102418Y135273
X104958Y135273
X107498Y135273
X110038Y135273
X112578Y135273
X102418Y66258
X41910Y169781
X44450Y169781
X46990Y169781
X49530Y169781
X52070Y169781
X99878Y169781
X102418Y169781
X104958Y169781
X107498Y169781
X110038Y169781
X39370Y31750
X41910Y31750
X44450Y31750
X46990Y31750
X49530Y31750
X52070Y31750
X99878Y31750
X102418Y31750
X104958Y31750
X107498Y31750
X110038Y31750
X112578Y31750
X39370Y66258
X41910Y66258
X44450Y66258
X46990Y66258
X49530Y66258
X52070Y66258
X99878Y66258
X39370Y169781
X104958Y66258
X107498Y66258
X110038Y66258
X112578Y66258
X39370Y100767
X41910Y100767
X44450Y100767
X46990Y100767
X49530Y100767
X52070Y100767
X99878Y100767
X102418Y100767
X104958Y100767
X107498Y100767
X110038Y100767
X112578Y100767
X39370Y135273
X41910Y135273
X44450Y135273
T2
X34605Y2150
X26105Y2150
X95113Y2150
X86613Y2150
X34605Y36658
X26105Y36658
X95113Y36658
X86613Y36658
X34605Y71167
X95113Y71167
X86613Y71167
X34605Y105673
X26105Y105673
X95113Y105673
X86613Y105673
X34605Y140181
X26105Y140181
X95113Y140181
X86613Y140181
X26105Y71167
T3
X2590Y2190
X7733Y1698
X35590Y16190
X40590Y16190
X39096Y10016
X22286Y26285
X7748Y26307
X22274Y1698
X17111Y23349
X19207Y23349
X44450Y25400
X48260Y25400
X49530Y16510
X55880Y16510
X23622Y25019
X23622Y23876
X23622Y22733
X23622Y20447
X29464Y22606
X27559Y9652
X27559Y13335
X26289Y9081
X26289Y13335
X28829Y10224
X28829Y13335
X6350Y9525
X37529Y7620
X27432Y18288
X27940Y17780
X32639Y16891
X28702Y22606
X50800Y21590
X6350Y15240
X27449Y15621
X32004Y15621
X6350Y13970
X27980Y16192
X31305Y16192
X6350Y12700
X30607Y19304
X6350Y11430
X30035Y16787
X6350Y6350
X43180Y17780
X6350Y21590
X23622Y19431
X23622Y18542
X5080Y21590
X31750Y28679
X30734Y22606
X30988Y25082
X31559Y26670
X30988Y28638
X30566Y21907
X32512Y28679
X30035Y21336
X35560Y25400
X29281Y28638
X52895Y18034
X30099Y28638
X38100Y29210
X38100Y22860
X16129Y635
X17272Y635
X6350Y7620
X76008Y28500
X77008Y29000
X74508Y29000
X73508Y28500
X71508Y28500
X70508Y29000
X69508Y30000
X69508Y32000
X70508Y33000
X71508Y33500
X73508Y33500
X74508Y33000
X76508Y33000
X78508Y33000
X80508Y32000
X80508Y30000
X80508Y28000
X88508Y25000
X88508Y22000
X88508Y19000
X84508Y16000
X93508Y13000
X103508Y13000
X103508Y11000
X103508Y9000
X103508Y7000
X103508Y5000
X109508Y9000
X102508Y24000
X99508Y24000
X103508Y28000
X107508Y28000
X103508Y21000
X108508Y11000
X113270Y13603
X112508Y20000
X106508Y20000
X115508Y20000
X72508Y21000
X75508Y21000
X78508Y21000
X78508Y17000
X75508Y17000
X72508Y17000
X72508Y11000
X75508Y11000
X78508Y11000
X78508Y7000
X75508Y7000
X72508Y7000
X95508Y21000
X66158Y17000
X66161Y26180
X87062Y27683
X87951Y28635
X93143Y25063
X94477Y23920
X86478Y6990
X86478Y4650
X94098Y6990
X94098Y4650
X113098Y10190
X113098Y7190
X88098Y1190
X93098Y1190
X116098Y30190
X118098Y27190
X118098Y22190
X118098Y17190
X118098Y12190
X118098Y7190
X116098Y3190
X101098Y1190
X106098Y1190
X111098Y1190
X66098Y28190
X63098Y26190
X63098Y20190
X63098Y14190
X63098Y8190
X63098Y2190
X68241Y1698
X96098Y16190
X101098Y16190
X99604Y10016
X82794Y26285
X68256Y26307
X82782Y1698
X77619Y23349
X79714Y23349
X104958Y25400
X108768Y25400
X110038Y16510
X116388Y16510
X84130Y25019
X84130Y23876
X84130Y22733
X84130Y20447
X89972Y22606
X88067Y9652
X88067Y13335
X86797Y9081
X86797Y13335
X89337Y10224
X89337Y13335
X66858Y9525
X98036Y7620
X87940Y18288
X88448Y17780
X93147Y16891
X89210Y22606
X111308Y21590
X66858Y15240
X87957Y15621
X92512Y15621
X66858Y13970
X88488Y16192
X91813Y16192
X66858Y12700
X91115Y19304
X66858Y11430
X90543Y16787
X66858Y6350
X103688Y17780
X66858Y21590
X84130Y19431
X84130Y18542
X65588Y21590
X92258Y28679
X91242Y22606
X91496Y25082
X92067Y26670
X91496Y28638
X91074Y21907
X93020Y28679
X90543Y21336
X96068Y25400
X89789Y28638
X113403Y18034
X90607Y28638
X98608Y29210
X98608Y22860
X76637Y635
X77780Y635
X66858Y7620
X15500Y63008
X16500Y63508
X14000Y63508
X13000Y63008
X11000Y63008
X10000Y63508
X9000Y64508
X9000Y66508
X10000Y67508
X11000Y68008
X13000Y68008
X14000Y67508
X16000Y67508
X18000Y67508
X20000Y66508
X20000Y64508
X20000Y62508
X28000Y59508
X28000Y56508
X28000Y53508
X24000Y50508
X33000Y47508
X43000Y47508
X43000Y45508
X43000Y43508
X43000Y41508
X43000Y39508
X49000Y43508
X42000Y58508
X39000Y58508
X43000Y62508
X47000Y62508
X43000Y55508
X48000Y45508
X52762Y48111
X52000Y54508
X46000Y54508
X55000Y54508
X12000Y55508
X15000Y55508
X18000Y55508
X18000Y51508
X15000Y51508
X12000Y51508
X12000Y45508
X15000Y45508
X18000Y45508
X18000Y41508
X15000Y41508
X12000Y41508
X35000Y55508
X5650Y51508
X5653Y60688
X26554Y62191
X27443Y63144
X32635Y59572
X33969Y58429
X25970Y41498
X25970Y39158
X33590Y41498
X33590Y39158
X52590Y44698
X52590Y41698
X27590Y35698
X32590Y35698
X55590Y64698
X57590Y61698
X57590Y56698
X57590Y51698
X57590Y46698
X57590Y41698
X55590Y37698
X40590Y35698
X45590Y35698
X50590Y35698
X5590Y62698
X2590Y60698
X2590Y54698
X2590Y48698
X2590Y42698
X2590Y36698
X7733Y36206
X35590Y50698
X40590Y50698
X39096Y44524
X22286Y60794
X7748Y60815
X22274Y36206
X17111Y57858
X19207Y57858
X44450Y59908
X48260Y59908
X49530Y51018
X55880Y51018
X23622Y59527
X23622Y58384
X23622Y57241
X23622Y54955
X29464Y57114
X27559Y44160
X27559Y47843
X26289Y43589
X26289Y47843
X28829Y44732
X28829Y47843
X6350Y44033
X37529Y42128
X27432Y52796
X27940Y52288
X32639Y51399
X28702Y57114
X50800Y56098
X6350Y49748
X27449Y50129
X32004Y50129
X6350Y48478
X27980Y50701
X31305Y50701
X6350Y47208
X30607Y53812
X6350Y45938
X30035Y51295
X6350Y40858
X43180Y52288
X6350Y56098
X23622Y53939
X23622Y53050
X5080Y56098
X31750Y63187
X30734Y57114
X30988Y59591
X31559Y61178
X30988Y63147
X30566Y56416
X32512Y63187
X30035Y55844
X35560Y59908
X29281Y63147
X52895Y52542
X30099Y63147
X38100Y63718
X38100Y57368
X16129Y35143
X17272Y35143
X6350Y42128
X76008Y63008
X77008Y63508
X74508Y63508
X73508Y63008
X71508Y63008
X70508Y63508
X69508Y64508
X69508Y66508
X70508Y67508
X71508Y68008
X73508Y68008
X74508Y67508
X76508Y67508
X78508Y67508
X80508Y66508
X80508Y64508
X80508Y62508
X88508Y59508
X88508Y56508
X88508Y53508
X84508Y50508
X93508Y47508
X103508Y47508
X103508Y45508
X103508Y43508
X103508Y41508
X103508Y39508
X109508Y43508
X102508Y58508
X99508Y58508
X103508Y62508
X107508Y62508
X103508Y55508
X108508Y45508
X113270Y48111
X112508Y54508
X106508Y54508
X115508Y54508
X72508Y55508
X75508Y55508
X78508Y55508
X78508Y51508
X75508Y51508
X72508Y51508
X72508Y45508
X75508Y45508
X78508Y45508
X78508Y41508
X75508Y41508
X72508Y41508
X95508Y55508
X66158Y51508
X66161Y60688
X87062Y62191
X87951Y63144
X93143Y59572
X94477Y58429
X86478Y41498
X86478Y39158
X94098Y41498
X94098Y39158
X113098Y44698
X113098Y41698
X88098Y35698
X93098Y35698
X116098Y64698
X118098Y61698
X118098Y56698
X118098Y51698
X118098Y46698
X118098Y41698
X116098Y37698
X101098Y35698
X106098Y35698
X111098Y35698
X66098Y62698
X63098Y60698
X63098Y54698
X63098Y48698
X63098Y42698
X63098Y36698
X68241Y36206
X96098Y50698
X101098Y50698
X99604Y44524
X82794Y60794
X68256Y60815
X82782Y36206
X77619Y57858
X79714Y57858
X104958Y59908
X108768Y59908
X110038Y51018
X116388Y51018
X84130Y59527
X84130Y58384
X84130Y57241
X84130Y54955
X89972Y57114
X88067Y44160
X88067Y47843
X86797Y43589
X86797Y47843
X89337Y44732
X89337Y47843
X66858Y44033
X98036Y42128
X87940Y52796
X88448Y52288
X93147Y51399
X89210Y57114
X111308Y56098
X66858Y49748
X87957Y50129
X92512Y50129
X66858Y48478
X88488Y50701
X91813Y50701
X66858Y47208
X91115Y53812
X66858Y45938
X90543Y51295
X66858Y40858
X103688Y52288
X66858Y56098
X84130Y53939
X84130Y53050
X65588Y56098
X92258Y63187
X91242Y57114
X91496Y59591
X92067Y61178
X91496Y63147
X91074Y56416
X93020Y63187
X90543Y55844
X96068Y59908
X89789Y63147
X113403Y52542
X90607Y63147
X98608Y63718
X98608Y57368
X76637Y35143
X77780Y35143
X66858Y42128
X15500Y97517
X16500Y98017
X14000Y98017
X13000Y97517
X11000Y97517
X10000Y98017
X9000Y99017
X9000Y101017
X10000Y102017
X11000Y102517
X13000Y102517
X14000Y102017
X16000Y102017
X18000Y102017
X20000Y101017
X20000Y99017
X20000Y97017
X28000Y94017
X28000Y91017
X28000Y88017
X24000Y85017
X33000Y82017
X43000Y82017
X43000Y80017
X43000Y78017
X43000Y76017
X43000Y74017
X49000Y78017
X42000Y93017
X39000Y93017
X43000Y97017
X47000Y97017
X43000Y90017
X48000Y80017
X52762Y82620
X52000Y89017
X46000Y89017
X55000Y89017
X12000Y90017
X15000Y90017
X18000Y90017
X18000Y86017
X15000Y86017
X12000Y86017
X12000Y80017
X15000Y80017
X18000Y80017
X18000Y76017
X15000Y76017
X12000Y76017
X35000Y90017
X5650Y86017
X5653Y95197
X26554Y96700
X27443Y97652
X32635Y94080
X33969Y92937
X25970Y76007
X25970Y73667
X33590Y76007
X33590Y73667
X52590Y79207
X52590Y76207
X27590Y70207
X32590Y70207
X55590Y99207
X57590Y96207
X57590Y91207
X57590Y86207
X57590Y81207
X57590Y76207
X55590Y72207
X40590Y70207
X45590Y70207
X50590Y70207
X5590Y97207
X2590Y95207
X2590Y89207
X2590Y83207
X2590Y77207
X2590Y71207
X7733Y70715
X35590Y85207
X40590Y85207
X39096Y79032
X22286Y95302
X7748Y95324
X22274Y70715
X17111Y92366
X19207Y92366
X44450Y94417
X48260Y94417
X49530Y85527
X55880Y85527
X23622Y94036
X23622Y92893
X23622Y91750
X23622Y89464
X29464Y91623
X27559Y78669
X27559Y82352
X26289Y78097
X26289Y82352
X28829Y79240
X28829Y82352
X6350Y78542
X37529Y76637
X27432Y87305
X27940Y86797
X32639Y85908
X28702Y91623
X50800Y90607
X6350Y84257
X27449Y84638
X32004Y84638
X6350Y82987
X27980Y85209
X31305Y85209
X6350Y81717
X30607Y88321
X6350Y80447
X30035Y85804
X6350Y75367
X43180Y86797
X6350Y90607
X23622Y88448
X23622Y87559
X5080Y90607
X31750Y97696
X30734Y91623
X30988Y94099
X31559Y95687
X30988Y97655
X30566Y90924
X32512Y97696
X30035Y90353
X35560Y94417
X29281Y97655
X52895Y87051
X30099Y97655
X38100Y98227
X38100Y91877
X16129Y69652
X17272Y69652
X6350Y76637
X76008Y97517
X77008Y98017
X74508Y98017
X73508Y97517
X71508Y97517
X70508Y98017
X69508Y99017
X69508Y101017
X70508Y102017
X71508Y102517
X73508Y102517
X74508Y102017
X76508Y102017
X78508Y102017
X80508Y101017
X80508Y99017
X80508Y97017
X88508Y94017
X88508Y91017
X88508Y88017
X84508Y85017
X93508Y82017
X103508Y82017
X103508Y80017
X103508Y78017
X103508Y76017
X103508Y74017
X109508Y78017
X102508Y93017
X99508Y93017
X103508Y97017
X107508Y97017
X103508Y90017
X108508Y80017
X113270Y82620
X112508Y89017
X106508Y89017
X115508Y89017
X72508Y90017
X75508Y90017
X78508Y90017
X78508Y86017
X75508Y86017
X72508Y86017
X72508Y80017
X75508Y80017
X78508Y80017
X78508Y76017
X75508Y76017
X72508Y76017
X95508Y90017
X66158Y86017
X66161Y95197
X87062Y96700
X87951Y97652
X93143Y94080
X94477Y92937
X86478Y76007
X86478Y73667
X94098Y76007
X94098Y73667
X113098Y79207
X113098Y76207
X88098Y70207
X93098Y70207
X116098Y99207
X118098Y96207
X118098Y91207
X118098Y86207
X118098Y81207
X118098Y76207
X116098Y72207
X101098Y70207
X106098Y70207
X111098Y70207
X66098Y97207
X63098Y95207
X63098Y89207
X63098Y83207
X63098Y77207
X63098Y71207
X68241Y70715
X96098Y85207
X101098Y85207
X99604Y79032
X82794Y95302
X68256Y95324
X82782Y70715
X77619Y92366
X79714Y92366
X104958Y94417
X108768Y94417
X110038Y85527
X116388Y85527
X84130Y94036
X84130Y92893
X84130Y91750
X84130Y89464
X89972Y91623
X88067Y78669
X88067Y82352
X86797Y78097
X86797Y82352
X89337Y79240
X89337Y82352
X66858Y78542
X98036Y76637
X87940Y87305
X88448Y86797
X93147Y85908
X89210Y91623
X111308Y90607
X66858Y84257
X87957Y84638
X92512Y84638
X66858Y82987
X88488Y85209
X91813Y85209
X66858Y81717
X91115Y88321
X66858Y80447
X90543Y85804
X66858Y75367
X103688Y86797
X66858Y90607
X84130Y88448
X84130Y87559
X65588Y90607
X92258Y97696
X91242Y91623
X91496Y94099
X92067Y95687
X91496Y97655
X91074Y90924
X93020Y97696
X90543Y90353
X96068Y94417
X89789Y97655
X113403Y87051
X90607Y97655
X98608Y98227
X98608Y91877
X76637Y69652
X77780Y69652
X66858Y76637
X15500Y132023
X16500Y132523
X14000Y132523
X13000Y132023
X11000Y132023
X10000Y132523
X9000Y133523
X9000Y135523
X10000Y136523
X11000Y137023
X13000Y137023
X14000Y136523
X16000Y136523
X18000Y136523
X20000Y135523
X20000Y133523
X20000Y131523
X28000Y128523
X28000Y125523
X28000Y122523
X24000Y119523
X33000Y116523
X43000Y116523
X43000Y114523
X43000Y112523
X43000Y110523
X43000Y108523
X49000Y112523
X42000Y127523
X39000Y127523
X43000Y131523
X47000Y131523
X43000Y124523
X48000Y114523
X52762Y117126
X52000Y123523
X46000Y123523
X55000Y123523
X12000Y124523
X15000Y124523
X18000Y124523
X18000Y120523
X15000Y120523
X12000Y120523
X12000Y114523
X15000Y114523
X18000Y114523
X18000Y110523
X15000Y110523
X12000Y110523
X35000Y124523
X5650Y120523
X5653Y129703
X26554Y131206
X27443Y132158
X32635Y128586
X33969Y127443
X25970Y110513
X25970Y108173
X33590Y110513
X33590Y108173
X52590Y113713
X52590Y110713
X27590Y104713
X32590Y104713
X55590Y133713
X57590Y130713
X57590Y125713
X57590Y120713
X57590Y115713
X57590Y110713
X55590Y106713
X40590Y104713
X45590Y104713
X50590Y104713
X5590Y131713
X2590Y129713
X2590Y123713
X2590Y117713
X2590Y111713
X2590Y105713
X7733Y105221
X35590Y119713
X40590Y119713
X39096Y113538
X22286Y129808
X7748Y129830
X22274Y105221
X17111Y126872
X19207Y126872
X44450Y128923
X48260Y128923
X49530Y120033
X55880Y120033
X23622Y128542
X23622Y127399
X23622Y126256
X23622Y123970
X29464Y126129
X27559Y113175
X27559Y116858
X26289Y112603
X26289Y116858
X28829Y113746
X28829Y116858
X6350Y113048
X37529Y111143
X27432Y121811
X27940Y121303
X32639Y120414
X28702Y126129
X50800Y125113
X6350Y118763
X27449Y119144
X32004Y119144
X6350Y117493
X27980Y119715
X31305Y119715
X6350Y116223
X30607Y122827
X6350Y114953
X30035Y120310
X6350Y109873
X43180Y121303
X6350Y125113
X23622Y122954
X23622Y122065
X5080Y125113
X31750Y132202
X30734Y126129
X30988Y128605
X31559Y130193
X30988Y132161
X30566Y125430
X32512Y132202
X30035Y124859
X35560Y128923
X29281Y132161
X52895Y121557
X30099Y132161
X38100Y132733
X38100Y126383
X16129Y104158
X17272Y104158
X6350Y111143
X76008Y132023
X77008Y132523
X74508Y132523
X73508Y132023
X71508Y132023
X70508Y132523
X69508Y133523
X69508Y135523
X70508Y136523
X71508Y137023
X73508Y137023
X74508Y136523
X76508Y136523
X78508Y136523
X80508Y135523
X80508Y133523
X80508Y131523
X88508Y128523
X88508Y125523
X88508Y122523
X84508Y119523
X93508Y116523
X103508Y116523
X103508Y114523
X103508Y112523
X103508Y110523
X103508Y108523
X109508Y112523
X102508Y127523
X99508Y127523
X103508Y131523
X107508Y131523
X103508Y124523
X108508Y114523
X113270Y117126
X112508Y123523
X106508Y123523
X115508Y123523
X72508Y124523
X75508Y124523
X78508Y124523
X78508Y120523
X75508Y120523
X72508Y120523
X72508Y114523
X75508Y114523
X78508Y114523
X78508Y110523
X75508Y110523
X72508Y110523
X95508Y124523
X66158Y120523
X66161Y129703
X87062Y131206
X87951Y132158
X93143Y128586
X94477Y127443
X86478Y110513
X86478Y108173
X94098Y110513
X94098Y108173
X113098Y113713
X113098Y110713
X88098Y104713
X93098Y104713
X116098Y133713
X118098Y130713
X118098Y125713
X118098Y120713
X118098Y115713
X118098Y110713
X116098Y106713
X101098Y104713
X106098Y104713
X111098Y104713
X66098Y131713
X63098Y129713
X63098Y123713
X63098Y117713
X63098Y111713
X63098Y105713
X68241Y105221
X96098Y119713
X101098Y119713
X99604Y113538
X82794Y129808
X68256Y129830
X82782Y105221
X77619Y126872
X79714Y126872
X104958Y128923
X108768Y128923
X110038Y120033
X116388Y120033
X84130Y128542
X84130Y127399
X84130Y126256
X84130Y123970
X89972Y126129
X88067Y113175
X88067Y116858
X86797Y112603
X86797Y116858
X89337Y113746
X89337Y116858
X66858Y113048
X98036Y111143
X87940Y121811
X88448Y121303
X93147Y120414
X89210Y126129
X111308Y125113
X66858Y118763
X87957Y119144
X92512Y119144
X66858Y117493
X88488Y119715
X91813Y119715
X66858Y116223
X91115Y122827
X66858Y114953
X90543Y120310
X66858Y109873
X103688Y121303
X66858Y125113
X84130Y122954
X84130Y122065
X65588Y125113
X92258Y132202
X91242Y126129
X91496Y128605
X92067Y130193
X15500Y28500
X91074Y125430
X93020Y132202
X90543Y124859
X96068Y128923
X89789Y132161
X113403Y121557
X90607Y132161
X98608Y132733
X98608Y126383
X76637Y104158
X77780Y104158
X66858Y111143
X15500Y166531
X16500Y167031
X14000Y167031
X13000Y166531
X11000Y166531
X10000Y167031
X9000Y168031
X9000Y170031
X10000Y171031
X11000Y171531
X13000Y171531
X14000Y171031
X16000Y171031
X18000Y171031
X20000Y170031
X20000Y168031
X20000Y166031
X28000Y163031
X28000Y160031
X28000Y157031
X24000Y154031
X33000Y151031
X43000Y151031
X43000Y149031
X43000Y147031
X43000Y145031
X43000Y143031
X49000Y147031
X42000Y162031
X39000Y162031
X43000Y166031
X47000Y166031
X43000Y159031
X48000Y149031
X52762Y151634
X52000Y158031
X46000Y158031
X55000Y158031
X12000Y159031
X15000Y159031
X18000Y159031
X18000Y155031
X15000Y155031
X12000Y155031
X12000Y149031
X15000Y149031
X18000Y149031
X18000Y145031
X15000Y145031
X12000Y145031
X35000Y159031
X5650Y155031
X5653Y164211
X26554Y165714
X27443Y166667
X32635Y163095
X33969Y161952
X25970Y145021
X25970Y142681
X33590Y145021
X33590Y142681
X52590Y148221
X52590Y145221
X27590Y139221
X32590Y139221
X55590Y168221
X57590Y165221
X57590Y160221
X57590Y155221
X57590Y150221
X57590Y145221
X55590Y141221
X40590Y139221
X45590Y139221
X50590Y139221
X5590Y166221
X2590Y164221
X2590Y158221
X2590Y152221
X2590Y146221
X2590Y140221
X7733Y139729
X35590Y154221
X40590Y154221
X39096Y148047
X22286Y164317
X7748Y164338
X22274Y139729
X17111Y161381
X19207Y161381
X44450Y163431
X48260Y163431
X49530Y154541
X55880Y154541
X23622Y163050
X23622Y161907
X23622Y160764
X23622Y158478
X29464Y160637
X27559Y147683
X27559Y151366
X26289Y147112
X26289Y151366
X28829Y148255
X28829Y151366
X6350Y147556
X37529Y145651
X27432Y156319
X27940Y155811
X32639Y154922
X28702Y160637
X50800Y159621
X6350Y153271
X27449Y153652
X32004Y153652
X6350Y152001
X27980Y154224
X31305Y154224
X6350Y150731
X30607Y157335
X6350Y149461
X30035Y154818
X6350Y144381
X43180Y155811
X6350Y159621
X23622Y157462
X23622Y156573
X5080Y159621
X31750Y166710
X30734Y160637
X30988Y163114
X31559Y164701
X30988Y166670
X30566Y159939
X32512Y166710
X30035Y159367
X35560Y163431
X29281Y166670
X52895Y156065
X30099Y166670
X38100Y167241
X38100Y160891
X16129Y138666
X17272Y138666
X6350Y145651
X76008Y166531
X77008Y167031
X74508Y167031
X73508Y166531
X71508Y166531
X70508Y167031
X69508Y168031
X69508Y170031
X70508Y171031
X71508Y171531
X73508Y171531
X74508Y171031
X76508Y171031
X78508Y171031
X80508Y170031
X80508Y168031
X80508Y166031
X88508Y163031
X88508Y160031
X88508Y157031
X84508Y154031
X93508Y151031
X103508Y151031
X103508Y149031
X103508Y147031
X103508Y145031
X103508Y143031
X109508Y147031
X102508Y162031
X99508Y162031
X103508Y166031
X107508Y166031
X103508Y159031
X91496Y132161
X113270Y151634
X112508Y158031
X106508Y158031
X115508Y158031
X72508Y159031
X75508Y159031
X78508Y159031
X78508Y155031
X75508Y155031
X72508Y155031
X72508Y149031
X75508Y149031
X78508Y149031
X78508Y145031
X75508Y145031
X72508Y145031
X95508Y159031
X66158Y155031
X66161Y164211
X87062Y165714
X87951Y166667
X93143Y163095
X94477Y161952
X86478Y145021
X86478Y142681
X94098Y145021
X94098Y142681
X113098Y148221
X113098Y145221
X88098Y139221
X93098Y139221
X116098Y168221
X118098Y165221
X118098Y160221
X118098Y155221
X118098Y150221
X118098Y145221
X116098Y141221
X101098Y139221
X106098Y139221
X111098Y139221
X66098Y166221
X63098Y164221
X63098Y158221
X63098Y152221
X63098Y146221
X63098Y140221
X68241Y139729
X96098Y154221
X101098Y154221
X99604Y148047
X82794Y164317
X68256Y164338
X82782Y139729
X77619Y161381
X79714Y161381
X104958Y163431
X108768Y163431
X110038Y154541
X116388Y154541
X84130Y163050
X84130Y161907
X84130Y160764
X84130Y158478
X89972Y160637
X88067Y147683
X88067Y151366
X86797Y147112
X86797Y151366
X89337Y148255
X89337Y151366
X66858Y147556
X98036Y145651
X87940Y156319
X88448Y155811
X93147Y154922
X89210Y160637
X111308Y159621
X66858Y153271
X87957Y153652
X92512Y153652
X66858Y152001
X88488Y154224
X91813Y154224
X66858Y150731
X91115Y157335
X66858Y149461
X90543Y154818
X66858Y144381
X103688Y155811
X66858Y159621
X84130Y157462
X84130Y156573
X65588Y159621
X92258Y166710
X91242Y160637
X91496Y163114
X92067Y164701
X91496Y166670
X91074Y159939
X93020Y166710
X90543Y159367
X96068Y163431
X89789Y166670
X113403Y156065
X90607Y166670
X98608Y167241
X98608Y160891
X76637Y138666
X77780Y138666
X66858Y145651
X16500Y29000
X14000Y29000
X13000Y28500
X11000Y28500
X10000Y29000
X9000Y30000
X9000Y32000
X10000Y33000
X11000Y33500
X13000Y33500
X14000Y33000
X16000Y33000
X18000Y33000
X20000Y32000
X20000Y30000
X20000Y28000
X28000Y25000
X28000Y22000
X28000Y19000
X24000Y16000
X33000Y13000
X43000Y13000
X43000Y11000
X43000Y9000
X43000Y7000
X43000Y5000
X49000Y9000
X42000Y24000
X39000Y24000
X43000Y28000
X47000Y28000
X43000Y21000
X48000Y11000
X52762Y13603
X52000Y20000
X46000Y20000
X55000Y20000
X12000Y21000
X15000Y21000
X18000Y21000
X18000Y17000
X15000Y17000
X12000Y17000
X12000Y11000
X15000Y11000
X18000Y11000
X18000Y7000
X15000Y7000
X12000Y7000
X35000Y21000
X5650Y17000
X5653Y26180
X26554Y27683
X27443Y28635
X32635Y25063
X33969Y23920
X25970Y6990
X25970Y4650
X33590Y6990
X33590Y4650
X52590Y10190
X52590Y7190
X27590Y1190
X32590Y1190
X55590Y30190
X57590Y27190
X57590Y22190
X57590Y17190
X57590Y12190
X57590Y7190
X55590Y3190
X40590Y1190
X45590Y1190
X50590Y1190
X5590Y28190
X2590Y26190
X2590Y20190
X2590Y14190
X2590Y8190
X108508Y149031
M30