G04 EAGLE Gerber RS-274X export*
G75*
%MOMM*%
%FSLAX34Y34*%
%LPD*%
%INSilkscreen Bottom*%
%IPPOS*%
%AMOC8*
5,1,8,0,0,1.08239X$1,22.5*%
G01*

G36*
X467686Y9708D02*
X467686Y9708D01*
X467752Y9713D01*
X467770Y9724D01*
X467791Y9729D01*
X467876Y9789D01*
X467900Y9803D01*
X467903Y9808D01*
X467908Y9812D01*
X470108Y12112D01*
X470116Y12125D01*
X470129Y12135D01*
X470160Y12199D01*
X470196Y12261D01*
X470197Y12277D01*
X470204Y12291D01*
X470203Y12362D01*
X470209Y12433D01*
X470203Y12448D01*
X470202Y12464D01*
X470145Y12589D01*
X470143Y12593D01*
X470143Y12594D01*
X468275Y15209D01*
X468277Y15220D01*
X468286Y15233D01*
X468297Y15291D01*
X468306Y15312D01*
X468306Y15334D01*
X468312Y15367D01*
X468313Y15372D01*
X468313Y15373D01*
X468313Y15374D01*
X468313Y15384D01*
X468346Y15449D01*
X468402Y15506D01*
X468413Y15524D01*
X468425Y15533D01*
X468433Y15552D01*
X468473Y15604D01*
X468546Y15749D01*
X468602Y15806D01*
X468642Y15870D01*
X468686Y15933D01*
X468688Y15945D01*
X468693Y15953D01*
X468697Y15988D01*
X468713Y16074D01*
X468713Y16123D01*
X468742Y16170D01*
X468786Y16233D01*
X468788Y16245D01*
X468793Y16253D01*
X468797Y16288D01*
X468813Y16374D01*
X468813Y16484D01*
X468846Y16549D01*
X468902Y16606D01*
X468942Y16670D01*
X468986Y16733D01*
X468988Y16745D01*
X468993Y16753D01*
X468997Y16788D01*
X469003Y16821D01*
X469006Y16829D01*
X469006Y16837D01*
X469013Y16874D01*
X469013Y16923D01*
X469042Y16970D01*
X469086Y17033D01*
X469088Y17045D01*
X469093Y17053D01*
X469097Y17088D01*
X469113Y17174D01*
X469113Y17284D01*
X469142Y17342D01*
X472398Y17900D01*
X472416Y17907D01*
X472435Y17908D01*
X472495Y17941D01*
X472557Y17967D01*
X472570Y17982D01*
X472587Y17991D01*
X472626Y18047D01*
X472670Y18098D01*
X472675Y18117D01*
X472686Y18133D01*
X472708Y18244D01*
X472713Y18266D01*
X472712Y18270D01*
X472713Y18274D01*
X472713Y21474D01*
X472709Y21493D01*
X472711Y21512D01*
X472700Y21546D01*
X472699Y21553D01*
X472694Y21563D01*
X472689Y21576D01*
X472674Y21642D01*
X472661Y21657D01*
X472655Y21675D01*
X472607Y21723D01*
X472564Y21776D01*
X472546Y21783D01*
X472532Y21797D01*
X472426Y21837D01*
X472406Y21846D01*
X472402Y21846D01*
X472398Y21848D01*
X469186Y22398D01*
X469175Y22437D01*
X469174Y22442D01*
X469173Y22443D01*
X469113Y22563D01*
X469113Y22574D01*
X469110Y22589D01*
X469112Y22605D01*
X469092Y22675D01*
X469092Y22690D01*
X469084Y22704D01*
X469075Y22737D01*
X469074Y22742D01*
X469073Y22743D01*
X469013Y22863D01*
X469013Y22874D01*
X469010Y22889D01*
X469012Y22905D01*
X468975Y23037D01*
X468974Y23042D01*
X468973Y23043D01*
X468813Y23363D01*
X468813Y23374D01*
X468810Y23389D01*
X468812Y23405D01*
X468775Y23537D01*
X468774Y23542D01*
X468773Y23543D01*
X468673Y23743D01*
X468650Y23771D01*
X468613Y23825D01*
X468613Y23874D01*
X468596Y23948D01*
X468582Y24023D01*
X468576Y24033D01*
X468574Y24042D01*
X468551Y24070D01*
X468502Y24142D01*
X468446Y24198D01*
X468373Y24343D01*
X468350Y24371D01*
X468313Y24425D01*
X468313Y24474D01*
X468296Y24548D01*
X468292Y24570D01*
X470146Y27258D01*
X470152Y27274D01*
X470164Y27287D01*
X470184Y27354D01*
X470209Y27419D01*
X470208Y27437D01*
X470213Y27453D01*
X470200Y27522D01*
X470194Y27592D01*
X470185Y27606D01*
X470182Y27623D01*
X470111Y27729D01*
X470104Y27740D01*
X470103Y27740D01*
X470102Y27742D01*
X467902Y29942D01*
X467888Y29951D01*
X467877Y29965D01*
X467815Y29996D01*
X467755Y30033D01*
X467738Y30035D01*
X467723Y30042D01*
X467653Y30043D01*
X467583Y30049D01*
X467567Y30043D01*
X467550Y30043D01*
X467432Y29992D01*
X467421Y29988D01*
X467420Y29987D01*
X467419Y29986D01*
X464720Y28124D01*
X464702Y28142D01*
X464637Y28182D01*
X464575Y28226D01*
X464563Y28228D01*
X464555Y28233D01*
X464520Y28236D01*
X464434Y28253D01*
X464384Y28253D01*
X464372Y28261D01*
X464304Y28313D01*
X464159Y28385D01*
X464102Y28442D01*
X464037Y28482D01*
X463975Y28526D01*
X463963Y28528D01*
X463955Y28533D01*
X463920Y28536D01*
X463834Y28553D01*
X463784Y28553D01*
X463772Y28561D01*
X463704Y28613D01*
X463504Y28713D01*
X463488Y28717D01*
X463475Y28726D01*
X463341Y28752D01*
X463335Y28753D01*
X463334Y28753D01*
X463324Y28753D01*
X463204Y28813D01*
X463188Y28817D01*
X463175Y28826D01*
X463041Y28852D01*
X463035Y28853D01*
X463034Y28853D01*
X462984Y28853D01*
X462937Y28882D01*
X462875Y28926D01*
X462863Y28928D01*
X462855Y28933D01*
X462820Y28936D01*
X462734Y28953D01*
X462624Y28953D01*
X462566Y28982D01*
X462008Y32238D01*
X462000Y32256D01*
X461999Y32275D01*
X461967Y32334D01*
X461940Y32397D01*
X461926Y32410D01*
X461916Y32427D01*
X461861Y32466D01*
X461809Y32510D01*
X461790Y32515D01*
X461775Y32526D01*
X461664Y32547D01*
X461642Y32553D01*
X461638Y32552D01*
X461634Y32553D01*
X458434Y32553D01*
X458415Y32549D01*
X458396Y32551D01*
X458332Y32529D01*
X458266Y32513D01*
X458251Y32501D01*
X458232Y32495D01*
X458185Y32447D01*
X458132Y32403D01*
X458124Y32386D01*
X458111Y32372D01*
X458071Y32266D01*
X458062Y32245D01*
X458062Y32242D01*
X458060Y32238D01*
X457510Y29026D01*
X457471Y29015D01*
X457466Y29013D01*
X457465Y29013D01*
X457464Y29013D01*
X457344Y28953D01*
X457334Y28953D01*
X457318Y28949D01*
X457302Y28952D01*
X457171Y28915D01*
X457166Y28913D01*
X457165Y28913D01*
X457164Y28913D01*
X457044Y28853D01*
X457034Y28853D01*
X457018Y28849D01*
X457002Y28852D01*
X456871Y28815D01*
X456866Y28813D01*
X456865Y28813D01*
X456864Y28813D01*
X456744Y28753D01*
X456634Y28753D01*
X456560Y28736D01*
X456484Y28722D01*
X456475Y28716D01*
X456466Y28713D01*
X456438Y28691D01*
X456366Y28642D01*
X456309Y28585D01*
X456244Y28553D01*
X456234Y28553D01*
X456218Y28549D01*
X456202Y28552D01*
X456071Y28515D01*
X456066Y28513D01*
X456065Y28513D01*
X456064Y28513D01*
X455864Y28413D01*
X455837Y28390D01*
X455766Y28342D01*
X455709Y28285D01*
X455644Y28253D01*
X455634Y28253D01*
X455618Y28249D01*
X455602Y28252D01*
X455471Y28215D01*
X455466Y28213D01*
X455465Y28213D01*
X455464Y28213D01*
X455323Y28142D01*
X452649Y29986D01*
X452637Y29991D01*
X452628Y30000D01*
X452557Y30022D01*
X452488Y30049D01*
X452475Y30048D01*
X452463Y30052D01*
X452390Y30040D01*
X452316Y30034D01*
X452305Y30027D01*
X452292Y30025D01*
X452172Y29948D01*
X449872Y27748D01*
X449858Y27726D01*
X449838Y27710D01*
X449811Y27654D01*
X449777Y27603D01*
X449774Y27577D01*
X449763Y27554D01*
X449764Y27492D01*
X449757Y27431D01*
X449766Y27407D01*
X449766Y27381D01*
X449804Y27301D01*
X449815Y27268D01*
X449822Y27262D01*
X449827Y27251D01*
X451762Y24578D01*
X451722Y24498D01*
X451666Y24442D01*
X451626Y24377D01*
X451582Y24314D01*
X451580Y24303D01*
X451575Y24295D01*
X451571Y24260D01*
X451555Y24174D01*
X451555Y24124D01*
X451547Y24111D01*
X451495Y24043D01*
X451422Y23898D01*
X451366Y23842D01*
X451326Y23777D01*
X451282Y23714D01*
X451280Y23703D01*
X451275Y23695D01*
X451271Y23660D01*
X451255Y23574D01*
X451255Y23524D01*
X451226Y23477D01*
X451182Y23414D01*
X451180Y23403D01*
X451175Y23395D01*
X451171Y23360D01*
X451155Y23274D01*
X451155Y23163D01*
X451122Y23098D01*
X451066Y23042D01*
X451026Y22977D01*
X450982Y22914D01*
X450980Y22903D01*
X450975Y22895D01*
X450971Y22860D01*
X450955Y22774D01*
X450955Y22724D01*
X450926Y22677D01*
X450882Y22614D01*
X450880Y22603D01*
X450875Y22595D01*
X450871Y22560D01*
X450855Y22474D01*
X450855Y22395D01*
X447572Y21848D01*
X447553Y21840D01*
X447533Y21839D01*
X447474Y21807D01*
X447412Y21781D01*
X447399Y21766D01*
X447381Y21756D01*
X447343Y21701D01*
X447299Y21651D01*
X447293Y21631D01*
X447282Y21614D01*
X447266Y21533D01*
X447262Y21523D01*
X447262Y21512D01*
X447261Y21508D01*
X447255Y21483D01*
X447256Y21479D01*
X447255Y21474D01*
X447255Y18274D01*
X447259Y18255D01*
X447257Y18236D01*
X447279Y18171D01*
X447294Y18105D01*
X447307Y18090D01*
X447313Y18072D01*
X447361Y18024D01*
X447404Y17972D01*
X447422Y17964D01*
X447436Y17950D01*
X447542Y17910D01*
X447562Y17901D01*
X447566Y17901D01*
X447570Y17900D01*
X450858Y17336D01*
X450893Y17211D01*
X450894Y17205D01*
X450895Y17205D01*
X450895Y17204D01*
X450955Y17084D01*
X450955Y17074D01*
X450958Y17058D01*
X450956Y17042D01*
X450993Y16911D01*
X450994Y16905D01*
X450995Y16905D01*
X450995Y16904D01*
X451055Y16784D01*
X451055Y16774D01*
X451058Y16758D01*
X451056Y16742D01*
X451093Y16611D01*
X451094Y16605D01*
X451095Y16605D01*
X451095Y16604D01*
X451255Y16284D01*
X451255Y16274D01*
X451258Y16258D01*
X451256Y16242D01*
X451293Y16111D01*
X451294Y16105D01*
X451295Y16105D01*
X451295Y16104D01*
X451395Y15904D01*
X451418Y15876D01*
X451466Y15806D01*
X451522Y15749D01*
X451555Y15684D01*
X451555Y15674D01*
X451558Y15658D01*
X451556Y15642D01*
X451593Y15511D01*
X451594Y15505D01*
X451595Y15505D01*
X451595Y15504D01*
X451695Y15304D01*
X451718Y15276D01*
X451766Y15206D01*
X451776Y15195D01*
X449831Y12601D01*
X449821Y12579D01*
X449804Y12560D01*
X449786Y12500D01*
X449761Y12443D01*
X449762Y12418D01*
X449755Y12394D01*
X449766Y12333D01*
X449769Y12270D01*
X449781Y12248D01*
X449786Y12224D01*
X449837Y12149D01*
X449853Y12119D01*
X449860Y12114D01*
X449866Y12106D01*
X452166Y9806D01*
X452180Y9797D01*
X452191Y9783D01*
X452253Y9751D01*
X452313Y9714D01*
X452330Y9713D01*
X452345Y9705D01*
X452416Y9705D01*
X452485Y9698D01*
X452501Y9704D01*
X452518Y9704D01*
X452636Y9756D01*
X452647Y9760D01*
X452648Y9761D01*
X452649Y9761D01*
X455348Y11623D01*
X455366Y11606D01*
X455431Y11565D01*
X455493Y11521D01*
X455505Y11519D01*
X455513Y11514D01*
X455548Y11511D01*
X455563Y11508D01*
X455566Y11506D01*
X455631Y11465D01*
X455693Y11421D01*
X455705Y11419D01*
X455713Y11414D01*
X455748Y11411D01*
X455834Y11394D01*
X455884Y11394D01*
X455931Y11365D01*
X455993Y11321D01*
X456005Y11319D01*
X456013Y11314D01*
X456048Y11311D01*
X456063Y11308D01*
X456066Y11306D01*
X456131Y11265D01*
X456193Y11221D01*
X456205Y11219D01*
X456213Y11214D01*
X456248Y11211D01*
X456263Y11208D01*
X456266Y11206D01*
X456331Y11165D01*
X456393Y11121D01*
X456405Y11119D01*
X456413Y11114D01*
X456448Y11111D01*
X456477Y11105D01*
X456504Y11072D01*
X456523Y11064D01*
X456538Y11049D01*
X456601Y11029D01*
X456662Y11001D01*
X456683Y11002D01*
X456702Y10996D01*
X456768Y11006D01*
X456835Y11008D01*
X456853Y11018D01*
X456873Y11021D01*
X456928Y11059D01*
X456987Y11091D01*
X456999Y11108D01*
X457015Y11120D01*
X457072Y11212D01*
X457086Y11233D01*
X457087Y11238D01*
X457090Y11242D01*
X459090Y16642D01*
X459094Y16673D01*
X459106Y16701D01*
X459104Y16757D01*
X459111Y16814D01*
X459101Y16843D01*
X459100Y16874D01*
X459073Y16924D01*
X459054Y16977D01*
X459032Y16999D01*
X459017Y17026D01*
X458957Y17072D01*
X458930Y17098D01*
X458917Y17102D01*
X458904Y17113D01*
X458359Y17385D01*
X458202Y17542D01*
X458172Y17561D01*
X458104Y17613D01*
X457959Y17685D01*
X457646Y17998D01*
X457573Y18143D01*
X457550Y18171D01*
X457502Y18242D01*
X457346Y18398D01*
X457285Y18519D01*
X457194Y18794D01*
X457182Y18813D01*
X457173Y18843D01*
X457113Y18963D01*
X457113Y19074D01*
X457105Y19109D01*
X457094Y19194D01*
X457013Y19435D01*
X457013Y20212D01*
X457094Y20454D01*
X457097Y20490D01*
X457113Y20574D01*
X457113Y20759D01*
X457250Y20963D01*
X457263Y20998D01*
X457294Y21054D01*
X457378Y21306D01*
X457729Y21832D01*
X458076Y22179D01*
X458602Y22530D01*
X458854Y22614D01*
X458872Y22625D01*
X458886Y22628D01*
X458899Y22639D01*
X458944Y22658D01*
X459149Y22794D01*
X459334Y22794D01*
X459369Y22803D01*
X459454Y22814D01*
X459696Y22894D01*
X460287Y22894D01*
X460642Y22806D01*
X460678Y22805D01*
X460734Y22794D01*
X460919Y22794D01*
X461124Y22658D01*
X461159Y22645D01*
X461208Y22617D01*
X461210Y22616D01*
X461211Y22616D01*
X461214Y22614D01*
X461466Y22530D01*
X461693Y22379D01*
X461866Y22206D01*
X461892Y22189D01*
X461924Y22158D01*
X462193Y21979D01*
X462339Y21832D01*
X462690Y21306D01*
X463055Y20212D01*
X463055Y19735D01*
X462974Y19494D01*
X462971Y19458D01*
X462955Y19374D01*
X462955Y19163D01*
X462795Y18843D01*
X462789Y18821D01*
X462774Y18794D01*
X462683Y18519D01*
X462522Y18198D01*
X462366Y18042D01*
X462347Y18011D01*
X462295Y17943D01*
X462222Y17798D01*
X462109Y17685D01*
X461964Y17613D01*
X461937Y17590D01*
X461866Y17542D01*
X461709Y17385D01*
X461388Y17225D01*
X461114Y17133D01*
X461065Y17103D01*
X461012Y17081D01*
X460992Y17059D01*
X460967Y17043D01*
X460936Y16994D01*
X460899Y16951D01*
X460891Y16922D01*
X460875Y16896D01*
X460869Y16839D01*
X460855Y16783D01*
X460861Y16749D01*
X460858Y16724D01*
X460870Y16692D01*
X460878Y16642D01*
X462878Y11242D01*
X462904Y11204D01*
X462920Y11161D01*
X462951Y11133D01*
X462974Y11098D01*
X463014Y11075D01*
X463047Y11044D01*
X463087Y11032D01*
X463124Y11011D01*
X463169Y11008D01*
X463213Y10995D01*
X463254Y11002D01*
X463296Y11000D01*
X463339Y11017D01*
X463384Y11025D01*
X463425Y11053D01*
X463456Y11066D01*
X463473Y11086D01*
X463486Y11094D01*
X463534Y11094D01*
X463608Y11112D01*
X463684Y11125D01*
X463693Y11132D01*
X463702Y11134D01*
X463730Y11157D01*
X463802Y11206D01*
X463809Y11212D01*
X463884Y11225D01*
X463893Y11232D01*
X463902Y11234D01*
X463930Y11257D01*
X464002Y11306D01*
X464009Y11312D01*
X464084Y11325D01*
X464093Y11332D01*
X464102Y11334D01*
X464130Y11357D01*
X464202Y11406D01*
X464209Y11412D01*
X464284Y11425D01*
X464293Y11432D01*
X464302Y11434D01*
X464330Y11457D01*
X464402Y11506D01*
X464409Y11512D01*
X464484Y11525D01*
X464493Y11532D01*
X464502Y11534D01*
X464530Y11557D01*
X464602Y11606D01*
X464609Y11612D01*
X464684Y11625D01*
X464693Y11632D01*
X464702Y11634D01*
X464703Y11634D01*
X467419Y9761D01*
X467439Y9754D01*
X467455Y9740D01*
X467518Y9722D01*
X467580Y9698D01*
X467601Y9700D01*
X467622Y9695D01*
X467686Y9708D01*
G37*
G36*
X261140Y170891D02*
X261140Y170891D01*
X261191Y170893D01*
X261223Y170911D01*
X261259Y170919D01*
X261298Y170952D01*
X261343Y170976D01*
X261364Y171006D01*
X261392Y171029D01*
X261413Y171076D01*
X261443Y171118D01*
X261451Y171160D01*
X261463Y171188D01*
X261462Y171218D01*
X261470Y171260D01*
X261470Y184060D01*
X261466Y184078D01*
X261468Y184102D01*
X261268Y185902D01*
X261257Y185933D01*
X261251Y185980D01*
X261051Y186580D01*
X261038Y186600D01*
X261030Y186630D01*
X260730Y187230D01*
X260722Y187240D01*
X260716Y187256D01*
X260416Y187756D01*
X260402Y187770D01*
X260393Y187789D01*
X260316Y187859D01*
X260295Y187880D01*
X260290Y187882D01*
X260286Y187886D01*
X259802Y188176D01*
X259418Y188464D01*
X259383Y188479D01*
X259331Y188513D01*
X258331Y188913D01*
X258298Y188918D01*
X258253Y188935D01*
X257653Y189035D01*
X257626Y189033D01*
X257590Y189040D01*
X256790Y189040D01*
X256754Y189032D01*
X256698Y189029D01*
X256343Y188940D01*
X256190Y188940D01*
X256175Y188937D01*
X256160Y188939D01*
X256028Y188902D01*
X256021Y188901D01*
X256021Y188900D01*
X256020Y188900D01*
X255820Y188800D01*
X255801Y188784D01*
X255777Y188775D01*
X255735Y188729D01*
X255687Y188689D01*
X255677Y188667D01*
X255660Y188648D01*
X255642Y188588D01*
X255616Y188531D01*
X255618Y188506D01*
X255610Y188482D01*
X255621Y188420D01*
X255624Y188358D01*
X255636Y188336D01*
X255640Y188311D01*
X255689Y188238D01*
X255707Y188206D01*
X255715Y188201D01*
X255721Y188191D01*
X255821Y188091D01*
X255853Y188071D01*
X255920Y188020D01*
X256320Y187820D01*
X256343Y187814D01*
X256370Y187799D01*
X256585Y187728D01*
X256895Y187418D01*
X257045Y187192D01*
X257110Y186998D01*
X257110Y186822D01*
X257038Y186606D01*
X256878Y186285D01*
X256648Y186056D01*
X256412Y185898D01*
X255981Y185726D01*
X255552Y185640D01*
X254837Y185640D01*
X254146Y185813D01*
X253650Y186144D01*
X253329Y186545D01*
X253170Y187022D01*
X253170Y187582D01*
X253416Y188155D01*
X254076Y188909D01*
X254874Y189807D01*
X254875Y189809D01*
X254876Y189810D01*
X255576Y190610D01*
X255592Y190639D01*
X255622Y190675D01*
X256122Y191575D01*
X256133Y191613D01*
X256161Y191678D01*
X256361Y192578D01*
X256361Y192611D01*
X256370Y192660D01*
X256370Y193460D01*
X256362Y193497D01*
X256351Y193580D01*
X256051Y194480D01*
X256030Y194514D01*
X255999Y194581D01*
X255499Y195281D01*
X255473Y195304D01*
X255443Y195344D01*
X254543Y196144D01*
X254512Y196161D01*
X254472Y196194D01*
X253372Y196794D01*
X253336Y196804D01*
X253258Y196834D01*
X252158Y197034D01*
X252129Y197033D01*
X252090Y197040D01*
X251090Y197040D01*
X251053Y197032D01*
X250970Y197021D01*
X250070Y196721D01*
X250064Y196717D01*
X250057Y196716D01*
X249257Y196416D01*
X249242Y196406D01*
X249220Y196400D01*
X249054Y196317D01*
X248620Y196100D01*
X248598Y196082D01*
X248562Y196064D01*
X248162Y195764D01*
X248147Y195746D01*
X248121Y195729D01*
X248021Y195629D01*
X248008Y195607D01*
X247988Y195591D01*
X247962Y195534D01*
X247930Y195482D01*
X247927Y195456D01*
X247917Y195432D01*
X247919Y195371D01*
X247913Y195309D01*
X247922Y195285D01*
X247923Y195259D01*
X247953Y195205D01*
X247975Y195147D01*
X247994Y195130D01*
X248006Y195107D01*
X248057Y195072D01*
X248102Y195030D01*
X248127Y195022D01*
X248148Y195007D01*
X248232Y194991D01*
X248268Y194980D01*
X248278Y194982D01*
X248290Y194980D01*
X248590Y194980D01*
X248627Y194988D01*
X248710Y194999D01*
X248952Y195080D01*
X249143Y195080D01*
X249498Y194991D01*
X249506Y194991D01*
X249515Y194987D01*
X249966Y194897D01*
X250289Y194735D01*
X250610Y194495D01*
X250745Y194292D01*
X250829Y194040D01*
X250842Y194020D01*
X250850Y193990D01*
X250938Y193814D01*
X250989Y193660D01*
X250929Y193480D01*
X250928Y193467D01*
X250921Y193452D01*
X250837Y193116D01*
X250674Y192871D01*
X250666Y192851D01*
X250650Y192830D01*
X250478Y192485D01*
X250248Y192256D01*
X249979Y192076D01*
X249972Y192069D01*
X249962Y192064D01*
X249570Y191771D01*
X249299Y191590D01*
X248867Y191374D01*
X248600Y191240D01*
X248052Y191240D01*
X247859Y191305D01*
X247710Y191404D01*
X247570Y191822D01*
X247570Y192560D01*
X247558Y192610D01*
X247558Y192631D01*
X247557Y192655D01*
X247556Y192662D01*
X247539Y192694D01*
X247531Y192729D01*
X247498Y192769D01*
X247473Y192814D01*
X247443Y192835D01*
X247421Y192862D01*
X247373Y192884D01*
X247331Y192913D01*
X247295Y192919D01*
X247262Y192933D01*
X247211Y192931D01*
X247160Y192939D01*
X247119Y192928D01*
X247089Y192927D01*
X247062Y192912D01*
X247020Y192900D01*
X247009Y192895D01*
X246249Y192515D01*
X246220Y192500D01*
X246216Y192497D01*
X246106Y192413D01*
X245306Y191513D01*
X245291Y191485D01*
X245262Y191452D01*
X244562Y190252D01*
X244553Y190223D01*
X244532Y190188D01*
X244032Y188788D01*
X244029Y188762D01*
X244016Y188730D01*
X243716Y187130D01*
X243718Y187094D01*
X243710Y187039D01*
X243810Y185239D01*
X243820Y185207D01*
X243824Y185158D01*
X244324Y183358D01*
X244341Y183327D01*
X244358Y183275D01*
X245358Y181475D01*
X245375Y181457D01*
X245390Y181427D01*
X246090Y180527D01*
X246097Y180521D01*
X246101Y180513D01*
X246111Y180507D01*
X246121Y180491D01*
X246921Y179691D01*
X246931Y179685D01*
X246940Y179674D01*
X247740Y178974D01*
X247765Y178960D01*
X247794Y178934D01*
X248794Y178334D01*
X248819Y178326D01*
X248849Y178307D01*
X249849Y177907D01*
X249868Y177904D01*
X249890Y177893D01*
X250990Y177593D01*
X251007Y177593D01*
X251028Y177585D01*
X252228Y177385D01*
X252254Y177387D01*
X252290Y177380D01*
X254159Y177380D01*
X254656Y177297D01*
X255072Y177047D01*
X256022Y176287D01*
X256498Y175717D01*
X256510Y175707D01*
X256521Y175691D01*
X257799Y174413D01*
X258281Y173739D01*
X258301Y173721D01*
X258321Y173691D01*
X258909Y173103D01*
X259398Y172517D01*
X259410Y172507D01*
X259421Y172491D01*
X259902Y172010D01*
X260186Y171632D01*
X260204Y171617D01*
X260221Y171591D01*
X260495Y171318D01*
X260674Y171049D01*
X260693Y171031D01*
X260706Y171007D01*
X260756Y170972D01*
X260800Y170931D01*
X260826Y170923D01*
X260848Y170907D01*
X260929Y170892D01*
X260966Y170881D01*
X260977Y170882D01*
X260990Y170880D01*
X261090Y170880D01*
X261140Y170891D01*
G37*
G36*
X306829Y145391D02*
X306829Y145391D01*
X306891Y145393D01*
X306913Y145406D01*
X306939Y145410D01*
X307010Y145458D01*
X307043Y145476D01*
X307049Y145484D01*
X307059Y145491D01*
X307944Y146376D01*
X309428Y147563D01*
X309439Y147578D01*
X309459Y147591D01*
X310344Y148476D01*
X310828Y148863D01*
X310834Y148871D01*
X310843Y148876D01*
X310887Y148939D01*
X310935Y148999D01*
X310937Y149009D01*
X310943Y149018D01*
X310958Y149099D01*
X310963Y149110D01*
X310963Y149122D01*
X310970Y149160D01*
X310970Y167660D01*
X310969Y167664D01*
X310970Y167669D01*
X310950Y167749D01*
X310931Y167829D01*
X310928Y167832D01*
X310927Y167837D01*
X310873Y167899D01*
X310821Y167962D01*
X310816Y167964D01*
X310814Y167968D01*
X310682Y168029D01*
X310282Y168129D01*
X310274Y168129D01*
X310265Y168133D01*
X309765Y168233D01*
X309733Y168232D01*
X309690Y168240D01*
X309237Y168240D01*
X308882Y168329D01*
X308874Y168329D01*
X308865Y168333D01*
X308373Y168431D01*
X307982Y168529D01*
X307974Y168529D01*
X307965Y168533D01*
X306965Y168733D01*
X306963Y168733D01*
X306962Y168733D01*
X306878Y168730D01*
X306791Y168727D01*
X306790Y168727D01*
X306789Y168727D01*
X306715Y168686D01*
X306639Y168645D01*
X306638Y168644D01*
X306637Y168644D01*
X306589Y168575D01*
X306538Y168504D01*
X306538Y168503D01*
X306537Y168502D01*
X306510Y168360D01*
X306510Y167578D01*
X306359Y167729D01*
X306343Y167739D01*
X306328Y167757D01*
X305828Y168157D01*
X305807Y168167D01*
X305786Y168186D01*
X304786Y168786D01*
X304773Y168790D01*
X304653Y168835D01*
X303453Y169035D01*
X303426Y169033D01*
X303390Y169040D01*
X302690Y169040D01*
X302679Y169038D01*
X302665Y169039D01*
X301165Y168939D01*
X301128Y168928D01*
X301062Y168918D01*
X299662Y168418D01*
X299633Y168399D01*
X299586Y168381D01*
X298486Y167681D01*
X298459Y167653D01*
X298407Y167614D01*
X297507Y166614D01*
X297494Y166591D01*
X297469Y166564D01*
X296769Y165464D01*
X296757Y165428D01*
X296727Y165372D01*
X296327Y164072D01*
X296326Y164057D01*
X296318Y164040D01*
X296018Y162640D01*
X296019Y162616D01*
X296011Y162585D01*
X295911Y161085D01*
X295914Y161063D01*
X295911Y161033D01*
X296011Y159633D01*
X296018Y159609D01*
X296020Y159575D01*
X296320Y158275D01*
X296332Y158250D01*
X296339Y158214D01*
X296839Y157014D01*
X296849Y156999D01*
X296856Y156978D01*
X297456Y155878D01*
X297482Y155849D01*
X297521Y155791D01*
X298421Y154891D01*
X298443Y154878D01*
X298466Y154852D01*
X299566Y154052D01*
X299602Y154037D01*
X299670Y153999D01*
X300870Y153599D01*
X300900Y153596D01*
X300940Y153583D01*
X302440Y153383D01*
X302479Y153387D01*
X302553Y153385D01*
X304353Y153685D01*
X304389Y153700D01*
X304460Y153720D01*
X304590Y153785D01*
X305060Y154020D01*
X305070Y154028D01*
X305086Y154034D01*
X306086Y154634D01*
X306106Y154654D01*
X306187Y154722D01*
X306410Y155001D01*
X306410Y145760D01*
X306416Y145735D01*
X306413Y145709D01*
X306435Y145652D01*
X306449Y145591D01*
X306466Y145571D01*
X306475Y145547D01*
X306520Y145505D01*
X306559Y145458D01*
X306583Y145447D01*
X306602Y145430D01*
X306661Y145412D01*
X306718Y145387D01*
X306743Y145388D01*
X306768Y145380D01*
X306829Y145391D01*
G37*
G36*
X290820Y153387D02*
X290820Y153387D01*
X290865Y153387D01*
X291328Y153480D01*
X291790Y153480D01*
X291826Y153488D01*
X291882Y153491D01*
X292282Y153591D01*
X292302Y153601D01*
X292331Y153607D01*
X292831Y153807D01*
X292843Y153815D01*
X292860Y153820D01*
X293260Y154020D01*
X293276Y154033D01*
X293301Y154044D01*
X293581Y154231D01*
X293960Y154420D01*
X293989Y154444D01*
X294059Y154491D01*
X294359Y154791D01*
X294375Y154818D01*
X294406Y154849D01*
X294601Y155140D01*
X294894Y155532D01*
X294898Y155541D01*
X294906Y155549D01*
X295106Y155849D01*
X295107Y155850D01*
X295108Y155851D01*
X295163Y155985D01*
X295253Y156436D01*
X295430Y156790D01*
X295434Y156805D01*
X295443Y156818D01*
X295469Y156952D01*
X295470Y156959D01*
X295470Y156960D01*
X295470Y157422D01*
X295563Y157885D01*
X295563Y157895D01*
X295564Y158028D01*
X295364Y159128D01*
X295355Y159150D01*
X295351Y159180D01*
X295051Y160080D01*
X295034Y160107D01*
X295020Y160149D01*
X294620Y160849D01*
X294597Y160873D01*
X294537Y160949D01*
X293837Y161549D01*
X293811Y161563D01*
X293779Y161590D01*
X293079Y161990D01*
X293053Y161998D01*
X293024Y162016D01*
X292224Y162316D01*
X292205Y162319D01*
X292182Y162329D01*
X291382Y162529D01*
X291360Y162529D01*
X291332Y162538D01*
X290432Y162638D01*
X288638Y162837D01*
X287969Y162933D01*
X287303Y163123D01*
X286750Y163308D01*
X286350Y163548D01*
X286170Y163787D01*
X286170Y164670D01*
X286403Y165135D01*
X286459Y165191D01*
X286479Y165223D01*
X286530Y165290D01*
X286573Y165377D01*
X286980Y165580D01*
X287090Y165580D01*
X287105Y165583D01*
X287120Y165581D01*
X287252Y165618D01*
X287259Y165619D01*
X287259Y165620D01*
X287260Y165620D01*
X287380Y165680D01*
X289000Y165680D01*
X289865Y165248D01*
X290178Y164935D01*
X290238Y164814D01*
X290329Y164540D01*
X290342Y164520D01*
X290350Y164490D01*
X290410Y164370D01*
X290410Y163960D01*
X290421Y163910D01*
X290423Y163859D01*
X290441Y163827D01*
X290449Y163791D01*
X290482Y163752D01*
X290506Y163707D01*
X290536Y163686D01*
X290559Y163658D01*
X290606Y163637D01*
X290648Y163607D01*
X290690Y163599D01*
X290718Y163587D01*
X290748Y163588D01*
X290790Y163580D01*
X294690Y163580D01*
X294770Y163598D01*
X294850Y163615D01*
X294854Y163618D01*
X294859Y163619D01*
X294922Y163672D01*
X294986Y163722D01*
X294988Y163726D01*
X294992Y163729D01*
X295026Y163804D01*
X295061Y163878D01*
X295061Y163883D01*
X295063Y163888D01*
X295062Y163915D01*
X295065Y164023D01*
X294865Y165223D01*
X294855Y165246D01*
X294855Y165248D01*
X294854Y165268D01*
X294852Y165273D01*
X294851Y165280D01*
X294651Y165880D01*
X294631Y165912D01*
X294594Y165988D01*
X294306Y166372D01*
X294016Y166856D01*
X294004Y166868D01*
X293994Y166888D01*
X293694Y167288D01*
X293669Y167309D01*
X293662Y167322D01*
X293647Y167333D01*
X293618Y167364D01*
X293218Y167664D01*
X293202Y167671D01*
X293186Y167686D01*
X292186Y168286D01*
X292161Y168294D01*
X292131Y168313D01*
X291631Y168513D01*
X291602Y168517D01*
X291565Y168533D01*
X291088Y168628D01*
X290510Y168821D01*
X290485Y168823D01*
X290453Y168835D01*
X289859Y168934D01*
X289365Y169033D01*
X289333Y169032D01*
X289290Y169040D01*
X286990Y169040D01*
X286960Y169033D01*
X286915Y169033D01*
X286452Y168940D01*
X285890Y168940D01*
X285860Y168933D01*
X285815Y168933D01*
X285315Y168833D01*
X285289Y168821D01*
X285249Y168813D01*
X284781Y168626D01*
X284315Y168533D01*
X284289Y168521D01*
X284249Y168513D01*
X283749Y168313D01*
X283718Y168291D01*
X283662Y168264D01*
X282462Y167364D01*
X282437Y167334D01*
X282386Y167288D01*
X282086Y166888D01*
X282074Y166862D01*
X282050Y166830D01*
X281850Y166430D01*
X281847Y166416D01*
X281837Y166401D01*
X281637Y165901D01*
X281633Y165872D01*
X281617Y165835D01*
X281517Y165335D01*
X281518Y165303D01*
X281510Y165260D01*
X281510Y156650D01*
X281450Y156530D01*
X281446Y156515D01*
X281437Y156502D01*
X281411Y156368D01*
X281410Y156362D01*
X281410Y156361D01*
X281410Y156360D01*
X281410Y155550D01*
X281350Y155430D01*
X281346Y155415D01*
X281337Y155402D01*
X281328Y155356D01*
X281327Y155353D01*
X281327Y155351D01*
X281311Y155268D01*
X281310Y155262D01*
X281310Y155261D01*
X281310Y155260D01*
X281310Y155150D01*
X281250Y155030D01*
X281246Y155015D01*
X281237Y155002D01*
X281211Y154868D01*
X281210Y154862D01*
X281210Y154861D01*
X281210Y154860D01*
X281210Y154650D01*
X281178Y154585D01*
X281121Y154529D01*
X281081Y154464D01*
X281037Y154402D01*
X281035Y154390D01*
X281030Y154382D01*
X281026Y154345D01*
X281010Y154260D01*
X281010Y154160D01*
X281021Y154110D01*
X281023Y154059D01*
X281041Y154027D01*
X281049Y153991D01*
X281082Y153952D01*
X281106Y153907D01*
X281136Y153886D01*
X281159Y153858D01*
X281206Y153837D01*
X281248Y153807D01*
X281290Y153799D01*
X281318Y153787D01*
X281348Y153788D01*
X281390Y153780D01*
X285290Y153780D01*
X285340Y153791D01*
X285391Y153793D01*
X285423Y153811D01*
X285459Y153819D01*
X285498Y153852D01*
X285543Y153876D01*
X285564Y153906D01*
X285592Y153929D01*
X285613Y153976D01*
X285643Y154018D01*
X285651Y154060D01*
X285663Y154088D01*
X285663Y154098D01*
X285699Y154156D01*
X285743Y154218D01*
X285745Y154230D01*
X285750Y154238D01*
X285754Y154275D01*
X285756Y154289D01*
X285759Y154291D01*
X285799Y154356D01*
X285843Y154418D01*
X285845Y154430D01*
X285850Y154438D01*
X285854Y154475D01*
X285870Y154560D01*
X285870Y154709D01*
X285883Y154730D01*
X286021Y154591D01*
X286048Y154575D01*
X286079Y154544D01*
X286379Y154344D01*
X286415Y154330D01*
X286470Y154299D01*
X286722Y154215D01*
X286979Y154044D01*
X287015Y154030D01*
X287070Y153999D01*
X288270Y153599D01*
X288307Y153596D01*
X288390Y153580D01*
X288628Y153580D01*
X288870Y153499D01*
X288907Y153496D01*
X288990Y153480D01*
X289328Y153480D01*
X289570Y153399D01*
X289607Y153396D01*
X289690Y153380D01*
X290790Y153380D01*
X290820Y153387D01*
G37*
G36*
X259822Y153787D02*
X259822Y153787D01*
X259856Y153785D01*
X259906Y153807D01*
X259959Y153819D01*
X259984Y153840D01*
X260015Y153853D01*
X260062Y153905D01*
X260092Y153929D01*
X260099Y153945D01*
X260113Y153960D01*
X263769Y159866D01*
X264810Y158895D01*
X264810Y154160D01*
X264821Y154110D01*
X264823Y154059D01*
X264841Y154027D01*
X264849Y153991D01*
X264882Y153952D01*
X264906Y153907D01*
X264936Y153886D01*
X264959Y153858D01*
X265006Y153837D01*
X265048Y153807D01*
X265090Y153799D01*
X265118Y153787D01*
X265148Y153788D01*
X265190Y153780D01*
X269090Y153780D01*
X269140Y153791D01*
X269191Y153793D01*
X269223Y153811D01*
X269259Y153819D01*
X269298Y153852D01*
X269343Y153876D01*
X269364Y153906D01*
X269392Y153929D01*
X269413Y153976D01*
X269443Y154018D01*
X269451Y154060D01*
X269463Y154088D01*
X269462Y154118D01*
X269470Y154160D01*
X269470Y171560D01*
X269460Y171603D01*
X269460Y171648D01*
X269441Y171687D01*
X269431Y171729D01*
X269402Y171763D01*
X269382Y171803D01*
X269343Y171836D01*
X269321Y171862D01*
X269297Y171873D01*
X269270Y171895D01*
X265370Y173995D01*
X265315Y174010D01*
X265262Y174033D01*
X265232Y174032D01*
X265203Y174040D01*
X265147Y174029D01*
X265089Y174027D01*
X265063Y174012D01*
X265033Y174006D01*
X264988Y173971D01*
X264937Y173944D01*
X264920Y173919D01*
X264896Y173901D01*
X264870Y173849D01*
X264837Y173802D01*
X264831Y173768D01*
X264819Y173745D01*
X264820Y173710D01*
X264810Y173660D01*
X264810Y164205D01*
X260564Y168623D01*
X260497Y168667D01*
X260432Y168713D01*
X260424Y168714D01*
X260419Y168718D01*
X260386Y168722D01*
X260290Y168740D01*
X255690Y168740D01*
X255663Y168734D01*
X255636Y168736D01*
X255580Y168714D01*
X255521Y168701D01*
X255500Y168683D01*
X255474Y168673D01*
X255434Y168629D01*
X255388Y168591D01*
X255376Y168565D01*
X255358Y168545D01*
X255341Y168487D01*
X255317Y168432D01*
X255318Y168405D01*
X255310Y168378D01*
X255321Y168319D01*
X255323Y168259D01*
X255337Y168235D01*
X255342Y168208D01*
X255388Y168141D01*
X255406Y168107D01*
X255416Y168100D01*
X255424Y168089D01*
X260501Y163107D01*
X254772Y154368D01*
X254747Y154299D01*
X254717Y154232D01*
X254717Y154219D01*
X254713Y154206D01*
X254721Y154133D01*
X254723Y154059D01*
X254730Y154047D01*
X254731Y154034D01*
X254771Y153972D01*
X254806Y153907D01*
X254817Y153899D01*
X254825Y153888D01*
X254888Y153850D01*
X254948Y153807D01*
X254963Y153804D01*
X254973Y153798D01*
X255012Y153795D01*
X255090Y153780D01*
X259790Y153780D01*
X259822Y153787D01*
G37*
G36*
X220340Y153791D02*
X220340Y153791D01*
X220391Y153793D01*
X220423Y153811D01*
X220459Y153819D01*
X220498Y153852D01*
X220543Y153876D01*
X220564Y153906D01*
X220592Y153929D01*
X220613Y153976D01*
X220643Y154018D01*
X220651Y154060D01*
X220663Y154088D01*
X220662Y154118D01*
X220670Y154160D01*
X220670Y162136D01*
X220767Y162909D01*
X220866Y163603D01*
X220953Y164126D01*
X221206Y164548D01*
X221450Y164872D01*
X221829Y165100D01*
X222259Y165186D01*
X222798Y165276D01*
X223535Y165184D01*
X224056Y165097D01*
X224436Y164869D01*
X224777Y164442D01*
X225051Y163987D01*
X225318Y163362D01*
X225410Y162539D01*
X225410Y154160D01*
X225421Y154110D01*
X225423Y154059D01*
X225441Y154027D01*
X225449Y153991D01*
X225482Y153952D01*
X225506Y153907D01*
X225536Y153886D01*
X225559Y153858D01*
X225606Y153837D01*
X225648Y153807D01*
X225690Y153799D01*
X225718Y153787D01*
X225748Y153788D01*
X225790Y153780D01*
X229690Y153780D01*
X229740Y153791D01*
X229791Y153793D01*
X229823Y153811D01*
X229859Y153819D01*
X229898Y153852D01*
X229943Y153876D01*
X229964Y153906D01*
X229992Y153929D01*
X230013Y153976D01*
X230043Y154018D01*
X230051Y154060D01*
X230063Y154088D01*
X230062Y154118D01*
X230070Y154160D01*
X230070Y168360D01*
X230059Y168410D01*
X230057Y168461D01*
X230039Y168493D01*
X230031Y168529D01*
X229998Y168568D01*
X229974Y168613D01*
X229944Y168634D01*
X229921Y168662D01*
X229874Y168683D01*
X229832Y168713D01*
X229790Y168721D01*
X229762Y168733D01*
X229732Y168732D01*
X229690Y168740D01*
X225990Y168740D01*
X225940Y168729D01*
X225889Y168727D01*
X225857Y168709D01*
X225821Y168701D01*
X225782Y168668D01*
X225737Y168644D01*
X225716Y168614D01*
X225688Y168591D01*
X225667Y168544D01*
X225637Y168502D01*
X225629Y168460D01*
X225617Y168432D01*
X225618Y168402D01*
X225610Y168360D01*
X225610Y167378D01*
X225359Y167629D01*
X225343Y167639D01*
X225328Y167657D01*
X224828Y168057D01*
X224814Y168063D01*
X224801Y168076D01*
X224201Y168476D01*
X224165Y168490D01*
X224110Y168521D01*
X222910Y168921D01*
X222885Y168923D01*
X222853Y168935D01*
X222253Y169035D01*
X222226Y169033D01*
X222190Y169040D01*
X221590Y169040D01*
X221578Y169037D01*
X221563Y169039D01*
X220163Y168939D01*
X220133Y168930D01*
X220090Y168927D01*
X218990Y168627D01*
X218958Y168610D01*
X218905Y168592D01*
X218005Y168092D01*
X217977Y168066D01*
X217921Y168029D01*
X217221Y167329D01*
X217203Y167299D01*
X217168Y167262D01*
X216668Y166462D01*
X216655Y166425D01*
X216626Y166369D01*
X216326Y165369D01*
X216325Y165350D01*
X216316Y165328D01*
X216116Y164228D01*
X216117Y164211D01*
X216111Y164189D01*
X216011Y162889D01*
X216013Y162876D01*
X216010Y162860D01*
X216010Y154160D01*
X216021Y154110D01*
X216023Y154059D01*
X216041Y154027D01*
X216049Y153991D01*
X216082Y153952D01*
X216106Y153907D01*
X216136Y153886D01*
X216159Y153858D01*
X216206Y153837D01*
X216248Y153807D01*
X216290Y153799D01*
X216318Y153787D01*
X216348Y153788D01*
X216390Y153780D01*
X220290Y153780D01*
X220340Y153791D01*
G37*
G36*
X241317Y153481D02*
X241317Y153481D01*
X241354Y153492D01*
X241420Y153503D01*
X242520Y153903D01*
X242542Y153917D01*
X242575Y153928D01*
X243475Y154428D01*
X243498Y154449D01*
X243537Y154471D01*
X244237Y155071D01*
X244254Y155094D01*
X244322Y155175D01*
X244822Y156075D01*
X244832Y156108D01*
X244854Y156151D01*
X245154Y157151D01*
X245155Y157170D01*
X245164Y157192D01*
X245364Y158292D01*
X245363Y158321D01*
X245370Y158360D01*
X245370Y168360D01*
X245359Y168410D01*
X245357Y168461D01*
X245339Y168493D01*
X245331Y168529D01*
X245298Y168568D01*
X245274Y168613D01*
X245244Y168634D01*
X245221Y168662D01*
X245174Y168683D01*
X245132Y168713D01*
X245090Y168721D01*
X245062Y168733D01*
X245032Y168732D01*
X244990Y168740D01*
X241190Y168740D01*
X241140Y168729D01*
X241089Y168727D01*
X241057Y168709D01*
X241021Y168701D01*
X240982Y168668D01*
X240937Y168644D01*
X240916Y168614D01*
X240888Y168591D01*
X240867Y168544D01*
X240837Y168502D01*
X240829Y168460D01*
X240817Y168432D01*
X240818Y168402D01*
X240810Y168360D01*
X240810Y160384D01*
X240614Y158815D01*
X240530Y158314D01*
X240031Y157648D01*
X239651Y157420D01*
X239221Y157334D01*
X238682Y157244D01*
X237945Y157336D01*
X237424Y157423D01*
X237026Y157662D01*
X236703Y157985D01*
X236435Y158520D01*
X236161Y159160D01*
X236070Y159884D01*
X236070Y168360D01*
X236059Y168410D01*
X236057Y168461D01*
X236039Y168493D01*
X236031Y168529D01*
X235998Y168568D01*
X235974Y168613D01*
X235944Y168634D01*
X235921Y168662D01*
X235874Y168683D01*
X235832Y168713D01*
X235790Y168721D01*
X235762Y168733D01*
X235732Y168732D01*
X235690Y168740D01*
X231790Y168740D01*
X231740Y168729D01*
X231689Y168727D01*
X231657Y168709D01*
X231621Y168701D01*
X231582Y168668D01*
X231537Y168644D01*
X231516Y168614D01*
X231488Y168591D01*
X231467Y168544D01*
X231437Y168502D01*
X231429Y168460D01*
X231417Y168432D01*
X231418Y168402D01*
X231410Y168360D01*
X231410Y154160D01*
X231421Y154110D01*
X231423Y154059D01*
X231441Y154027D01*
X231449Y153991D01*
X231482Y153952D01*
X231506Y153907D01*
X231536Y153886D01*
X231559Y153858D01*
X231606Y153837D01*
X231648Y153807D01*
X231690Y153799D01*
X231718Y153787D01*
X231748Y153788D01*
X231790Y153780D01*
X235490Y153780D01*
X235540Y153791D01*
X235591Y153793D01*
X235623Y153811D01*
X235659Y153819D01*
X235698Y153852D01*
X235743Y153876D01*
X235764Y153906D01*
X235792Y153929D01*
X235813Y153976D01*
X235843Y154018D01*
X235851Y154060D01*
X235863Y154088D01*
X235862Y154118D01*
X235870Y154160D01*
X235870Y155101D01*
X236093Y154822D01*
X236120Y154801D01*
X236152Y154763D01*
X236652Y154363D01*
X236682Y154349D01*
X236720Y154320D01*
X237320Y154020D01*
X237334Y154017D01*
X237349Y154007D01*
X237849Y153807D01*
X237859Y153805D01*
X237870Y153799D01*
X238470Y153599D01*
X238499Y153597D01*
X238536Y153584D01*
X239233Y153484D01*
X239828Y153385D01*
X239863Y153387D01*
X239917Y153381D01*
X241317Y153481D01*
G37*
G36*
X319922Y153481D02*
X319922Y153481D01*
X319935Y153485D01*
X319953Y153485D01*
X321153Y153685D01*
X321168Y153692D01*
X321190Y153693D01*
X322290Y153993D01*
X322318Y154008D01*
X322360Y154020D01*
X322680Y154180D01*
X323360Y154520D01*
X323389Y154544D01*
X323440Y154574D01*
X324240Y155274D01*
X324258Y155299D01*
X324290Y155327D01*
X324990Y156227D01*
X325006Y156262D01*
X325043Y156319D01*
X325443Y157319D01*
X325448Y157353D01*
X325466Y157402D01*
X325666Y158702D01*
X325660Y158782D01*
X325657Y158861D01*
X325653Y158867D01*
X325652Y158875D01*
X325612Y158943D01*
X325574Y159013D01*
X325568Y159017D01*
X325564Y159024D01*
X325497Y159067D01*
X325432Y159113D01*
X325424Y159114D01*
X325418Y159118D01*
X325385Y159122D01*
X325290Y159140D01*
X321590Y159140D01*
X321540Y159129D01*
X321489Y159127D01*
X321457Y159109D01*
X321421Y159101D01*
X321382Y159068D01*
X321337Y159044D01*
X321316Y159014D01*
X321288Y158991D01*
X321267Y158944D01*
X321237Y158902D01*
X321229Y158860D01*
X321217Y158832D01*
X321218Y158802D01*
X321210Y158760D01*
X321210Y158233D01*
X321056Y157848D01*
X320818Y157532D01*
X320136Y157020D01*
X319628Y156935D01*
X319622Y156933D01*
X319615Y156933D01*
X319121Y156834D01*
X318606Y156748D01*
X318282Y156829D01*
X318246Y156829D01*
X318190Y156840D01*
X317837Y156840D01*
X317523Y156919D01*
X317191Y157085D01*
X316840Y157348D01*
X316633Y157554D01*
X316482Y158160D01*
X316549Y158427D01*
X316690Y158710D01*
X317002Y158944D01*
X317450Y159212D01*
X317996Y159395D01*
X319573Y159789D01*
X320565Y159987D01*
X320568Y159989D01*
X320573Y159989D01*
X321473Y160189D01*
X321493Y160199D01*
X321524Y160204D01*
X322324Y160504D01*
X322330Y160508D01*
X322340Y160511D01*
X323040Y160811D01*
X323055Y160822D01*
X323079Y160830D01*
X323779Y161230D01*
X323787Y161238D01*
X323801Y161244D01*
X324401Y161644D01*
X324402Y161645D01*
X324405Y161646D01*
X324506Y161749D01*
X324906Y162349D01*
X324917Y162377D01*
X324940Y162410D01*
X325240Y163110D01*
X325246Y163149D01*
X325252Y163168D01*
X325264Y163194D01*
X325264Y163204D01*
X325268Y163218D01*
X325368Y164118D01*
X325364Y164149D01*
X325369Y164192D01*
X325269Y165392D01*
X325257Y165429D01*
X325243Y165501D01*
X324843Y166501D01*
X324823Y166530D01*
X324776Y166610D01*
X324076Y167410D01*
X324057Y167424D01*
X324037Y167449D01*
X323337Y168049D01*
X323305Y168066D01*
X323260Y168100D01*
X322260Y168600D01*
X322223Y168609D01*
X322165Y168633D01*
X321165Y168833D01*
X321162Y168833D01*
X321158Y168834D01*
X320058Y169034D01*
X320029Y169033D01*
X319990Y169040D01*
X317690Y169040D01*
X317662Y169034D01*
X317622Y169034D01*
X316522Y168834D01*
X316505Y168827D01*
X316481Y168824D01*
X315481Y168524D01*
X315462Y168514D01*
X315436Y168507D01*
X314536Y168107D01*
X314508Y168087D01*
X314462Y168064D01*
X313662Y167464D01*
X313637Y167434D01*
X313586Y167388D01*
X312986Y166588D01*
X312974Y166562D01*
X312950Y166530D01*
X312450Y165530D01*
X312441Y165492D01*
X312415Y165423D01*
X312215Y164223D01*
X312220Y164141D01*
X312223Y164059D01*
X312226Y164055D01*
X312226Y164050D01*
X312267Y163979D01*
X312306Y163907D01*
X312310Y163904D01*
X312313Y163900D01*
X312381Y163854D01*
X312448Y163807D01*
X312453Y163806D01*
X312457Y163804D01*
X312485Y163800D01*
X312590Y163780D01*
X316290Y163780D01*
X316303Y163783D01*
X316317Y163781D01*
X316387Y163802D01*
X316459Y163819D01*
X316469Y163828D01*
X316482Y163832D01*
X316536Y163883D01*
X316592Y163929D01*
X316598Y163942D01*
X316608Y163951D01*
X316663Y164085D01*
X316756Y164551D01*
X316928Y164982D01*
X317064Y165186D01*
X317281Y165331D01*
X317646Y165513D01*
X318063Y165680D01*
X319628Y165680D01*
X319870Y165599D01*
X319883Y165598D01*
X319898Y165591D01*
X320284Y165495D01*
X320446Y165441D01*
X320710Y165045D01*
X320710Y164807D01*
X320640Y164527D01*
X320418Y164232D01*
X320089Y163985D01*
X319544Y163712D01*
X319005Y163533D01*
X318243Y163437D01*
X318224Y163430D01*
X318198Y163429D01*
X315802Y162830D01*
X314908Y162631D01*
X314872Y162614D01*
X314801Y162590D01*
X313401Y161790D01*
X313381Y161771D01*
X313347Y161752D01*
X312747Y161252D01*
X312723Y161221D01*
X312718Y161216D01*
X312717Y161215D01*
X312674Y161171D01*
X312274Y160571D01*
X312263Y160543D01*
X312241Y160510D01*
X311941Y159810D01*
X311934Y159771D01*
X311912Y159702D01*
X311812Y158802D01*
X311817Y158764D01*
X311814Y158702D01*
X312014Y157402D01*
X312026Y157373D01*
X312033Y157330D01*
X312433Y156230D01*
X312454Y156197D01*
X312486Y156132D01*
X313086Y155332D01*
X313111Y155311D01*
X313140Y155274D01*
X313940Y154574D01*
X313973Y154556D01*
X314020Y154520D01*
X315020Y154020D01*
X315050Y154013D01*
X315090Y153993D01*
X316190Y153693D01*
X316207Y153693D01*
X316228Y153685D01*
X317428Y153485D01*
X317442Y153486D01*
X317458Y153481D01*
X318658Y153381D01*
X318685Y153385D01*
X318722Y153381D01*
X319922Y153481D01*
G37*
G36*
X252740Y153791D02*
X252740Y153791D01*
X252791Y153793D01*
X252823Y153811D01*
X252859Y153819D01*
X252898Y153852D01*
X252943Y153876D01*
X252964Y153906D01*
X252992Y153929D01*
X253013Y153976D01*
X253043Y154018D01*
X253051Y154060D01*
X253063Y154088D01*
X253062Y154118D01*
X253070Y154160D01*
X253070Y165380D01*
X256590Y165380D01*
X256641Y165392D01*
X256694Y165394D01*
X256724Y165411D01*
X256759Y165419D01*
X256799Y165453D01*
X256845Y165478D01*
X256865Y165507D01*
X256892Y165529D01*
X256914Y165577D01*
X256944Y165621D01*
X256949Y165655D01*
X256963Y165688D01*
X256961Y165740D01*
X256969Y165792D01*
X256958Y165825D01*
X256957Y165861D01*
X256932Y165907D01*
X256915Y165957D01*
X256888Y165987D01*
X256874Y166013D01*
X256848Y166031D01*
X256818Y166064D01*
X256440Y166348D01*
X254859Y167929D01*
X254839Y167941D01*
X254818Y167964D01*
X254462Y168232D01*
X254194Y168588D01*
X254182Y168599D01*
X254174Y168613D01*
X254116Y168654D01*
X254061Y168699D01*
X254046Y168703D01*
X254032Y168713D01*
X253905Y168737D01*
X253893Y168740D01*
X253892Y168740D01*
X253890Y168740D01*
X253070Y168740D01*
X253070Y170360D01*
X253064Y170386D01*
X253046Y170494D01*
X252746Y171294D01*
X252742Y171300D01*
X252740Y171310D01*
X252440Y172010D01*
X252416Y172041D01*
X252382Y172103D01*
X251882Y172703D01*
X251852Y172726D01*
X251811Y172769D01*
X251111Y173269D01*
X251087Y173279D01*
X251060Y173300D01*
X250260Y173700D01*
X250233Y173707D01*
X250199Y173724D01*
X249199Y174024D01*
X249160Y174027D01*
X249090Y174040D01*
X246190Y174040D01*
X246175Y174037D01*
X246160Y174039D01*
X246028Y174002D01*
X246021Y174001D01*
X246021Y174000D01*
X246020Y174000D01*
X245820Y173900D01*
X245781Y173868D01*
X245737Y173844D01*
X245716Y173813D01*
X245687Y173789D01*
X245666Y173743D01*
X245637Y173702D01*
X245629Y173659D01*
X245616Y173631D01*
X245617Y173615D01*
X245618Y173601D01*
X245610Y173560D01*
X245610Y170760D01*
X245621Y170710D01*
X245623Y170659D01*
X245641Y170627D01*
X245649Y170591D01*
X245682Y170552D01*
X245706Y170507D01*
X245736Y170486D01*
X245759Y170458D01*
X245806Y170437D01*
X245848Y170407D01*
X245890Y170399D01*
X245918Y170387D01*
X245948Y170388D01*
X245990Y170380D01*
X247643Y170380D01*
X247957Y170301D01*
X248230Y170165D01*
X248361Y169969D01*
X248410Y169870D01*
X248410Y169560D01*
X248418Y169524D01*
X248421Y169468D01*
X248510Y169113D01*
X248510Y168740D01*
X246190Y168740D01*
X246140Y168729D01*
X246089Y168727D01*
X246057Y168709D01*
X246021Y168701D01*
X245982Y168668D01*
X245937Y168644D01*
X245916Y168614D01*
X245888Y168591D01*
X245867Y168544D01*
X245837Y168502D01*
X245829Y168460D01*
X245817Y168432D01*
X245818Y168402D01*
X245810Y168360D01*
X245810Y165760D01*
X245821Y165710D01*
X245823Y165659D01*
X245841Y165627D01*
X245849Y165591D01*
X245882Y165552D01*
X245906Y165507D01*
X245936Y165486D01*
X245959Y165458D01*
X246006Y165437D01*
X246048Y165407D01*
X246090Y165399D01*
X246118Y165387D01*
X246148Y165388D01*
X246190Y165380D01*
X248510Y165380D01*
X248510Y154160D01*
X248521Y154110D01*
X248523Y154059D01*
X248541Y154027D01*
X248549Y153991D01*
X248582Y153952D01*
X248606Y153907D01*
X248636Y153886D01*
X248659Y153858D01*
X248706Y153837D01*
X248748Y153807D01*
X248790Y153799D01*
X248818Y153787D01*
X248848Y153788D01*
X248890Y153780D01*
X252690Y153780D01*
X252740Y153791D01*
G37*
G36*
X279740Y153791D02*
X279740Y153791D01*
X279791Y153793D01*
X279823Y153811D01*
X279859Y153819D01*
X279898Y153852D01*
X279943Y153876D01*
X279964Y153906D01*
X279992Y153929D01*
X280013Y153976D01*
X280043Y154018D01*
X280051Y154060D01*
X280063Y154088D01*
X280062Y154118D01*
X280070Y154160D01*
X280070Y167660D01*
X280067Y167673D01*
X280069Y167687D01*
X280048Y167757D01*
X280031Y167829D01*
X280022Y167839D01*
X280018Y167852D01*
X279967Y167906D01*
X279921Y167962D01*
X279908Y167968D01*
X279899Y167978D01*
X279765Y168033D01*
X279273Y168131D01*
X278882Y168229D01*
X278846Y168229D01*
X278790Y168240D01*
X278328Y168240D01*
X277873Y168331D01*
X277482Y168429D01*
X277474Y168429D01*
X277465Y168433D01*
X276473Y168631D01*
X276082Y168729D01*
X276072Y168729D01*
X276062Y168733D01*
X275986Y168730D01*
X275909Y168732D01*
X275900Y168727D01*
X275889Y168727D01*
X275822Y168690D01*
X275753Y168657D01*
X275746Y168649D01*
X275737Y168644D01*
X275693Y168581D01*
X275645Y168521D01*
X275643Y168511D01*
X275637Y168502D01*
X275610Y168360D01*
X275610Y166944D01*
X275487Y167098D01*
X275484Y167100D01*
X275482Y167103D01*
X274982Y167703D01*
X274967Y167715D01*
X274963Y167722D01*
X274949Y167731D01*
X274928Y167757D01*
X274428Y168157D01*
X274404Y168168D01*
X274379Y168190D01*
X273679Y168590D01*
X273649Y168599D01*
X273610Y168621D01*
X273010Y168821D01*
X273003Y168821D01*
X272994Y168826D01*
X272294Y169026D01*
X272256Y169028D01*
X272190Y169040D01*
X270790Y169040D01*
X270716Y169023D01*
X270641Y169010D01*
X270631Y169003D01*
X270621Y169001D01*
X270592Y168977D01*
X270521Y168929D01*
X270520Y168928D01*
X270489Y168927D01*
X270457Y168909D01*
X270421Y168901D01*
X270382Y168868D01*
X270337Y168844D01*
X270316Y168814D01*
X270288Y168791D01*
X270267Y168744D01*
X270237Y168702D01*
X270229Y168660D01*
X270217Y168632D01*
X270218Y168602D01*
X270210Y168560D01*
X270210Y164960D01*
X270221Y164910D01*
X270223Y164859D01*
X270241Y164827D01*
X270249Y164791D01*
X270282Y164752D01*
X270306Y164707D01*
X270336Y164686D01*
X270359Y164658D01*
X270406Y164637D01*
X270448Y164607D01*
X270490Y164599D01*
X270518Y164587D01*
X270548Y164588D01*
X270590Y164580D01*
X270690Y164580D01*
X270705Y164583D01*
X270720Y164581D01*
X270852Y164618D01*
X270859Y164619D01*
X270859Y164620D01*
X270860Y164620D01*
X270980Y164680D01*
X271971Y164680D01*
X272925Y164584D01*
X273647Y164404D01*
X274242Y164064D01*
X274676Y163542D01*
X275037Y162911D01*
X275221Y162266D01*
X275410Y161418D01*
X275410Y154160D01*
X275421Y154110D01*
X275423Y154059D01*
X275441Y154027D01*
X275449Y153991D01*
X275482Y153952D01*
X275506Y153907D01*
X275536Y153886D01*
X275559Y153858D01*
X275606Y153837D01*
X275648Y153807D01*
X275690Y153799D01*
X275718Y153787D01*
X275748Y153788D01*
X275790Y153780D01*
X279690Y153780D01*
X279740Y153791D01*
G37*
G36*
X300006Y135258D02*
X300006Y135258D01*
X300014Y135253D01*
X300714Y135453D01*
X300733Y135478D01*
X300746Y135482D01*
X300946Y135982D01*
X300943Y135990D01*
X300949Y135993D01*
X301049Y136693D01*
X301046Y136698D01*
X301049Y136700D01*
X301049Y144200D01*
X301038Y144215D01*
X301042Y144225D01*
X300742Y144725D01*
X300718Y144735D01*
X300714Y144747D01*
X300014Y144947D01*
X300004Y144944D01*
X300000Y144949D01*
X297200Y144949D01*
X297195Y144946D01*
X297192Y144949D01*
X295992Y144749D01*
X295986Y144742D01*
X295981Y144745D01*
X295281Y144445D01*
X295276Y144437D01*
X295269Y144438D01*
X294769Y144038D01*
X294755Y143981D01*
X294765Y143978D01*
X294763Y143967D01*
X295219Y143450D01*
X294735Y143935D01*
X294676Y143943D01*
X294675Y143934D01*
X294665Y143935D01*
X294265Y143535D01*
X294264Y143528D01*
X294259Y143527D01*
X293859Y142927D01*
X293860Y142918D01*
X293853Y142916D01*
X293653Y142316D01*
X293655Y142310D01*
X293654Y142308D01*
X293651Y142307D01*
X293551Y141607D01*
X293554Y141602D01*
X293551Y141600D01*
X293551Y140900D01*
X293557Y140892D01*
X293553Y140886D01*
X293753Y140186D01*
X293758Y140182D01*
X293756Y140178D01*
X294056Y139578D01*
X294063Y139575D01*
X294062Y139569D01*
X294447Y139087D01*
X294353Y138614D01*
X293856Y137323D01*
X293659Y137027D01*
X293660Y137016D01*
X293653Y137014D01*
X293645Y136988D01*
X293631Y136939D01*
X293589Y136791D01*
X293547Y136643D01*
X293533Y136594D01*
X293491Y136446D01*
X293453Y136314D01*
X293463Y136287D01*
X293458Y136275D01*
X293758Y135775D01*
X293774Y135768D01*
X293776Y135757D01*
X294476Y135357D01*
X294488Y135359D01*
X294492Y135351D01*
X295092Y135251D01*
X295113Y135263D01*
X295125Y135258D01*
X295625Y135558D01*
X295633Y135577D01*
X295634Y135578D01*
X295645Y135580D01*
X296344Y137177D01*
X296827Y137951D01*
X298191Y137951D01*
X298651Y137767D01*
X298651Y136400D01*
X298654Y136395D01*
X298651Y136392D01*
X298751Y135792D01*
X298767Y135777D01*
X298765Y135765D01*
X299165Y135365D01*
X299188Y135362D01*
X299194Y135351D01*
X299994Y135251D01*
X300006Y135258D01*
G37*
G36*
X331618Y115265D02*
X331618Y115265D01*
X331631Y115262D01*
X332131Y115662D01*
X332135Y115677D01*
X332140Y115681D01*
X332137Y115685D01*
X332138Y115692D01*
X332149Y115700D01*
X332149Y123800D01*
X332146Y123804D01*
X332149Y123807D01*
X332049Y124507D01*
X332027Y124529D01*
X332025Y124542D01*
X331525Y124842D01*
X331507Y124840D01*
X331500Y124849D01*
X325300Y124849D01*
X325285Y124838D01*
X325275Y124842D01*
X324775Y124542D01*
X324763Y124514D01*
X324751Y124507D01*
X324651Y123807D01*
X324656Y123799D01*
X324651Y123795D01*
X324751Y122895D01*
X324770Y122874D01*
X324770Y122861D01*
X325170Y122561D01*
X325188Y122561D01*
X325193Y122551D01*
X325893Y122451D01*
X325898Y122454D01*
X325900Y122451D01*
X329196Y122451D01*
X329751Y122358D01*
X329751Y121705D01*
X329660Y121249D01*
X327000Y121249D01*
X326991Y121242D01*
X326984Y121247D01*
X326384Y121047D01*
X326367Y121022D01*
X326354Y121018D01*
X326154Y120518D01*
X326157Y120509D01*
X326151Y120505D01*
X326051Y119605D01*
X326065Y119582D01*
X326062Y119569D01*
X326462Y119069D01*
X326479Y119065D01*
X326482Y119054D01*
X326982Y118854D01*
X326990Y118857D01*
X326993Y118851D01*
X327693Y118751D01*
X327698Y118754D01*
X327700Y118751D01*
X329751Y118751D01*
X329751Y117649D01*
X325800Y117649D01*
X325796Y117646D01*
X325793Y117649D01*
X325093Y117549D01*
X325071Y117527D01*
X325058Y117525D01*
X324758Y117025D01*
X324759Y117011D01*
X324751Y117006D01*
X324651Y116206D01*
X324658Y116194D01*
X324653Y116186D01*
X324853Y115486D01*
X324878Y115467D01*
X324882Y115454D01*
X325382Y115254D01*
X325395Y115258D01*
X325400Y115251D01*
X331600Y115251D01*
X331618Y115265D01*
G37*
G36*
X274810Y135352D02*
X274810Y135352D01*
X274823Y135367D01*
X274835Y135365D01*
X275335Y135865D01*
X275335Y135868D01*
X275337Y135868D01*
X277971Y138892D01*
X278051Y138495D01*
X278051Y136400D01*
X278054Y136395D01*
X278051Y136392D01*
X278151Y135792D01*
X278170Y135774D01*
X278170Y135761D01*
X278570Y135461D01*
X278589Y135461D01*
X278595Y135451D01*
X279495Y135351D01*
X279508Y135359D01*
X279516Y135353D01*
X280116Y135553D01*
X280127Y135570D01*
X280139Y135570D01*
X280439Y135970D01*
X280439Y135976D01*
X280440Y135976D01*
X280439Y135976D01*
X280439Y135992D01*
X280449Y136000D01*
X280449Y144200D01*
X280441Y144211D01*
X280446Y144218D01*
X280246Y144718D01*
X280218Y144735D01*
X280214Y144747D01*
X279514Y144947D01*
X279504Y144944D01*
X279500Y144949D01*
X278700Y144949D01*
X278685Y144938D01*
X278675Y144942D01*
X278175Y144642D01*
X278166Y144622D01*
X278163Y144614D01*
X278151Y144607D01*
X278051Y143907D01*
X278054Y143902D01*
X278051Y143900D01*
X278051Y141904D01*
X277968Y141410D01*
X276537Y143032D01*
X275337Y144432D01*
X275335Y144433D01*
X275335Y144435D01*
X274835Y144935D01*
X274821Y144937D01*
X274818Y144946D01*
X274318Y145146D01*
X274290Y145138D01*
X274278Y145144D01*
X273678Y144844D01*
X273672Y144831D01*
X273662Y144832D01*
X273162Y144232D01*
X273161Y144214D01*
X273152Y144210D01*
X273052Y143710D01*
X273063Y143685D01*
X273059Y143673D01*
X273459Y143073D01*
X273461Y143072D01*
X273461Y143070D01*
X273761Y142670D01*
X273766Y142669D01*
X273765Y142665D01*
X274664Y141766D01*
X275764Y140567D01*
X275769Y140566D01*
X275769Y140562D01*
X276226Y140196D01*
X274565Y138535D01*
X274565Y138533D01*
X274564Y138533D01*
X273464Y137333D01*
X273463Y137328D01*
X273459Y137327D01*
X273059Y136727D01*
X273061Y136700D01*
X273052Y136690D01*
X273152Y136190D01*
X273165Y136179D01*
X273162Y136168D01*
X273662Y135568D01*
X273676Y135565D01*
X273678Y135556D01*
X274278Y135256D01*
X274300Y135260D01*
X274310Y135252D01*
X274810Y135352D01*
G37*
G36*
X265308Y135257D02*
X265308Y135257D01*
X265314Y135253D01*
X266014Y135453D01*
X266022Y135464D01*
X266031Y135462D01*
X266529Y135860D01*
X267127Y136259D01*
X267130Y136266D01*
X267135Y136265D01*
X267535Y136665D01*
X267537Y136678D01*
X267545Y136681D01*
X267845Y137381D01*
X267840Y137401D01*
X267843Y137404D01*
X267844Y137404D01*
X267844Y137405D01*
X267848Y137410D01*
X267748Y137910D01*
X267735Y137921D01*
X267738Y137932D01*
X267238Y138532D01*
X267214Y138537D01*
X267208Y138549D01*
X266608Y138649D01*
X266604Y138646D01*
X266602Y138649D01*
X266599Y138649D01*
X266589Y138641D01*
X266582Y138646D01*
X266082Y138446D01*
X266076Y138436D01*
X266068Y138438D01*
X265470Y137939D01*
X264882Y137547D01*
X264207Y137451D01*
X263538Y137737D01*
X263351Y138205D01*
X263444Y138767D01*
X264015Y139052D01*
X264707Y139151D01*
X264712Y139156D01*
X264716Y139153D01*
X265316Y139353D01*
X265317Y139356D01*
X265319Y139355D01*
X266019Y139655D01*
X266021Y139657D01*
X266022Y139656D01*
X266622Y139956D01*
X266625Y139963D01*
X266631Y139962D01*
X267131Y140362D01*
X267134Y140374D01*
X267142Y140375D01*
X267442Y140875D01*
X267441Y140884D01*
X267447Y140886D01*
X267480Y141000D01*
X267494Y141049D01*
X267536Y141197D01*
X267578Y141344D01*
X267592Y141394D01*
X267634Y141541D01*
X267635Y141541D01*
X267634Y141541D01*
X267647Y141586D01*
X267646Y141589D01*
X267648Y141591D01*
X267647Y141592D01*
X267649Y141593D01*
X267749Y142293D01*
X267743Y142303D01*
X267749Y142308D01*
X267649Y142908D01*
X267644Y142912D01*
X267647Y142916D01*
X267447Y143516D01*
X267439Y143521D01*
X267441Y143527D01*
X267041Y144127D01*
X267031Y144131D01*
X267031Y144138D01*
X266531Y144538D01*
X266526Y144539D01*
X266525Y144542D01*
X266025Y144842D01*
X266016Y144841D01*
X266014Y144847D01*
X265314Y145047D01*
X265309Y145046D01*
X265307Y145049D01*
X264607Y145149D01*
X264598Y145144D01*
X264593Y145149D01*
X263193Y144949D01*
X263189Y144945D01*
X263186Y144947D01*
X262486Y144747D01*
X262478Y144736D01*
X262469Y144738D01*
X261969Y144338D01*
X261968Y144334D01*
X261965Y144335D01*
X261465Y143835D01*
X261460Y143800D01*
X261452Y143790D01*
X261552Y143290D01*
X261560Y143283D01*
X261557Y143276D01*
X261957Y142576D01*
X261973Y142569D01*
X261975Y142558D01*
X262475Y142258D01*
X262493Y142260D01*
X262500Y142251D01*
X263100Y142251D01*
X263119Y142265D01*
X263132Y142262D01*
X263724Y142756D01*
X264305Y142950D01*
X264974Y142854D01*
X265345Y142390D01*
X265158Y141829D01*
X264678Y141445D01*
X263389Y141148D01*
X263388Y141146D01*
X263386Y141147D01*
X262686Y140947D01*
X262682Y140942D01*
X262678Y140944D01*
X262078Y140644D01*
X262075Y140637D01*
X262069Y140638D01*
X261569Y140238D01*
X261567Y140231D01*
X261562Y140231D01*
X261162Y139731D01*
X261161Y139718D01*
X261153Y139716D01*
X260953Y139116D01*
X260956Y139109D01*
X260951Y139106D01*
X260851Y138306D01*
X260856Y138298D01*
X260851Y138293D01*
X260951Y137593D01*
X260956Y137588D01*
X260953Y137584D01*
X261153Y136984D01*
X261161Y136979D01*
X261159Y136973D01*
X261559Y136373D01*
X261569Y136369D01*
X261569Y136362D01*
X262069Y135962D01*
X262077Y135961D01*
X262078Y135956D01*
X263278Y135356D01*
X263289Y135358D01*
X263292Y135351D01*
X263892Y135251D01*
X263897Y135254D01*
X263900Y135251D01*
X265300Y135251D01*
X265308Y135257D01*
G37*
G36*
X258208Y115257D02*
X258208Y115257D01*
X258214Y115253D01*
X258914Y115453D01*
X258915Y115454D01*
X258916Y115453D01*
X259516Y115653D01*
X259519Y115658D01*
X259522Y115656D01*
X260122Y115956D01*
X260124Y115960D01*
X260127Y115959D01*
X260727Y116359D01*
X260730Y116366D01*
X260735Y116365D01*
X261235Y116865D01*
X261235Y116869D01*
X261238Y116869D01*
X261638Y117369D01*
X261639Y117374D01*
X261642Y117375D01*
X261942Y117875D01*
X261942Y117880D01*
X261945Y117881D01*
X262245Y118581D01*
X262244Y118584D01*
X262247Y118586D01*
X262245Y118590D01*
X262249Y118592D01*
X262349Y119192D01*
X262348Y119193D01*
X262349Y119193D01*
X262449Y119893D01*
X262446Y119898D01*
X262449Y119900D01*
X262449Y120600D01*
X262446Y120604D01*
X262449Y120607D01*
X262349Y121307D01*
X262344Y121312D01*
X262347Y121316D01*
X261947Y122516D01*
X261939Y122521D01*
X261941Y122527D01*
X261541Y123127D01*
X261538Y123128D01*
X261538Y123131D01*
X261138Y123631D01*
X261131Y123633D01*
X261131Y123638D01*
X260631Y124038D01*
X260627Y124039D01*
X260627Y124041D01*
X260027Y124441D01*
X260021Y124441D01*
X260019Y124445D01*
X259319Y124745D01*
X259316Y124745D01*
X259316Y124747D01*
X258716Y124947D01*
X258709Y124945D01*
X258707Y124949D01*
X258007Y125049D01*
X258002Y125046D01*
X258000Y125049D01*
X257400Y125049D01*
X257396Y125046D01*
X257393Y125049D01*
X255993Y124849D01*
X255985Y124841D01*
X255978Y124844D01*
X254778Y124244D01*
X254773Y124234D01*
X254765Y124235D01*
X254265Y123735D01*
X254262Y123708D01*
X254251Y123700D01*
X254251Y123100D01*
X254263Y123084D01*
X254259Y123073D01*
X254659Y122473D01*
X254666Y122470D01*
X254665Y122465D01*
X255165Y121965D01*
X255192Y121962D01*
X255200Y121951D01*
X255700Y121951D01*
X255716Y121963D01*
X255727Y121959D01*
X256322Y122355D01*
X256911Y122552D01*
X257600Y122650D01*
X258285Y122552D01*
X258877Y122257D01*
X259365Y121963D01*
X259757Y121375D01*
X260051Y120788D01*
X260051Y119412D01*
X259758Y118827D01*
X259366Y118337D01*
X258775Y117943D01*
X258188Y117649D01*
X256912Y117649D01*
X256323Y117944D01*
X255624Y118343D01*
X255599Y118339D01*
X255588Y118348D01*
X255188Y118248D01*
X255178Y118236D01*
X255168Y118238D01*
X254568Y117738D01*
X254565Y117722D01*
X254555Y117719D01*
X254255Y117019D01*
X254261Y116995D01*
X254253Y116984D01*
X254453Y116384D01*
X254470Y116373D01*
X254469Y116362D01*
X254969Y115962D01*
X254974Y115961D01*
X254975Y115958D01*
X255475Y115658D01*
X255484Y115659D01*
X255486Y115653D01*
X256886Y115253D01*
X256896Y115256D01*
X256900Y115251D01*
X258200Y115251D01*
X258208Y115257D01*
G37*
G36*
X276009Y115258D02*
X276009Y115258D01*
X276016Y115253D01*
X276616Y115453D01*
X276633Y115478D01*
X276646Y115482D01*
X276818Y115912D01*
X277265Y115465D01*
X277281Y115463D01*
X277284Y115453D01*
X277884Y115253D01*
X277895Y115257D01*
X277900Y115251D01*
X278600Y115251D01*
X278604Y115254D01*
X278607Y115251D01*
X279307Y115351D01*
X279317Y115361D01*
X279325Y115358D01*
X279825Y115658D01*
X279827Y115663D01*
X279832Y115662D01*
X280432Y116162D01*
X280432Y116166D01*
X280435Y116165D01*
X280935Y116665D01*
X280936Y116677D01*
X280944Y116678D01*
X281244Y117278D01*
X281243Y117283D01*
X281247Y117284D01*
X281447Y117884D01*
X281445Y117891D01*
X281449Y117893D01*
X281549Y118593D01*
X281544Y118602D01*
X281549Y118607D01*
X281449Y119307D01*
X281448Y119308D01*
X281449Y119308D01*
X281349Y119908D01*
X281341Y119915D01*
X281344Y119922D01*
X281044Y120522D01*
X281037Y120526D01*
X281038Y120532D01*
X280538Y121132D01*
X280534Y121132D01*
X280535Y121135D01*
X280035Y121635D01*
X280023Y121636D01*
X280022Y121644D01*
X279422Y121944D01*
X279417Y121943D01*
X279416Y121947D01*
X278816Y122147D01*
X278811Y122145D01*
X278811Y122146D01*
X278803Y122146D01*
X278800Y122149D01*
X278100Y122149D01*
X278095Y122146D01*
X278089Y122146D01*
X278088Y122144D01*
X278084Y122147D01*
X277484Y121947D01*
X277479Y121939D01*
X277473Y121941D01*
X276873Y121541D01*
X276642Y121925D01*
X276618Y121935D01*
X276614Y121947D01*
X275914Y122147D01*
X275909Y122146D01*
X275903Y122146D01*
X275900Y122149D01*
X275200Y122149D01*
X275182Y122135D01*
X275169Y122138D01*
X274669Y121738D01*
X274665Y121723D01*
X274656Y121716D01*
X274659Y121712D01*
X274651Y121708D01*
X274551Y121108D01*
X274554Y121103D01*
X274551Y121100D01*
X274551Y116300D01*
X274554Y116296D01*
X274551Y116293D01*
X274651Y115593D01*
X274673Y115571D01*
X274675Y115558D01*
X275175Y115258D01*
X275193Y115260D01*
X275200Y115251D01*
X276000Y115251D01*
X276009Y115258D01*
G37*
G36*
X248904Y115254D02*
X248904Y115254D01*
X248907Y115251D01*
X249607Y115351D01*
X249612Y115356D01*
X249616Y115353D01*
X250216Y115553D01*
X250221Y115561D01*
X250227Y115559D01*
X250827Y115959D01*
X250828Y115962D01*
X250831Y115962D01*
X251331Y116362D01*
X251333Y116372D01*
X251341Y116373D01*
X251741Y116973D01*
X251741Y116977D01*
X251744Y116978D01*
X252044Y117578D01*
X252043Y117585D01*
X252047Y117586D01*
X252080Y117700D01*
X252094Y117749D01*
X252136Y117897D01*
X252178Y118045D01*
X252192Y118094D01*
X252235Y118242D01*
X252247Y118286D01*
X252246Y118290D01*
X252247Y118291D01*
X252244Y118296D01*
X252249Y118300D01*
X252249Y120400D01*
X252232Y120423D01*
X252233Y120437D01*
X251234Y121336D01*
X250735Y121835D01*
X250723Y121836D01*
X250722Y121844D01*
X250122Y122144D01*
X250115Y122143D01*
X250114Y122147D01*
X249414Y122347D01*
X249410Y122346D01*
X249408Y122349D01*
X248808Y122449D01*
X248798Y122443D01*
X248793Y122449D01*
X247393Y122249D01*
X247385Y122241D01*
X247378Y122244D01*
X246778Y121944D01*
X246775Y121937D01*
X246769Y121938D01*
X246269Y121538D01*
X246268Y121534D01*
X246265Y121535D01*
X245765Y121035D01*
X245764Y121028D01*
X245759Y121027D01*
X245359Y120427D01*
X245360Y120418D01*
X245353Y120416D01*
X245153Y119816D01*
X245155Y119809D01*
X245151Y119807D01*
X245051Y119107D01*
X245054Y119102D01*
X245051Y119100D01*
X245051Y118400D01*
X245057Y118392D01*
X245053Y118386D01*
X245253Y117686D01*
X245254Y117685D01*
X245253Y117684D01*
X245453Y117084D01*
X245461Y117079D01*
X245459Y117073D01*
X245859Y116473D01*
X245869Y116469D01*
X245869Y116462D01*
X246869Y115662D01*
X246879Y115661D01*
X246881Y115655D01*
X247581Y115355D01*
X247589Y115357D01*
X247592Y115351D01*
X248192Y115251D01*
X248197Y115254D01*
X248200Y115251D01*
X248900Y115251D01*
X248904Y115254D01*
G37*
G36*
X197705Y115254D02*
X197705Y115254D01*
X197708Y115251D01*
X198308Y115351D01*
X198311Y115355D01*
X198314Y115353D01*
X199014Y115553D01*
X199020Y115562D01*
X199027Y115559D01*
X199627Y115959D01*
X199628Y115962D01*
X199631Y115962D01*
X200131Y116362D01*
X200133Y116372D01*
X200141Y116373D01*
X200541Y116973D01*
X200541Y116977D01*
X200544Y116978D01*
X200844Y117578D01*
X200843Y117585D01*
X200847Y117586D01*
X200880Y117700D01*
X200894Y117749D01*
X200936Y117897D01*
X200978Y118045D01*
X200992Y118094D01*
X201035Y118242D01*
X201047Y118286D01*
X201046Y118290D01*
X201047Y118291D01*
X201044Y118296D01*
X201049Y118300D01*
X201049Y120400D01*
X201032Y120423D01*
X201033Y120437D01*
X200033Y121337D01*
X200031Y121337D01*
X200032Y121338D01*
X199432Y121838D01*
X199426Y121838D01*
X199425Y121842D01*
X198925Y122142D01*
X198916Y122141D01*
X198914Y122147D01*
X198214Y122347D01*
X198209Y122346D01*
X198207Y122349D01*
X197507Y122449D01*
X197497Y122443D01*
X197492Y122449D01*
X196892Y122349D01*
X196193Y122249D01*
X196185Y122241D01*
X196178Y122244D01*
X195578Y121944D01*
X195576Y121940D01*
X195573Y121941D01*
X194973Y121541D01*
X194969Y121531D01*
X194962Y121531D01*
X194562Y121031D01*
X194561Y121027D01*
X194559Y121027D01*
X194159Y120427D01*
X194160Y120418D01*
X194153Y120416D01*
X193953Y119816D01*
X193955Y119809D01*
X193951Y119807D01*
X193851Y119107D01*
X193854Y119102D01*
X193851Y119100D01*
X193851Y118400D01*
X193857Y118392D01*
X193853Y118386D01*
X194053Y117686D01*
X194054Y117685D01*
X194053Y117684D01*
X194253Y117084D01*
X194261Y117079D01*
X194259Y117073D01*
X194659Y116473D01*
X194669Y116469D01*
X194669Y116462D01*
X195669Y115662D01*
X195679Y115661D01*
X195681Y115655D01*
X196381Y115355D01*
X196389Y115357D01*
X196392Y115351D01*
X196992Y115251D01*
X196997Y115254D01*
X197000Y115251D01*
X197700Y115251D01*
X197705Y115254D01*
G37*
G36*
X211204Y135254D02*
X211204Y135254D01*
X211207Y135251D01*
X211907Y135351D01*
X211912Y135356D01*
X211916Y135353D01*
X212516Y135553D01*
X212521Y135561D01*
X212527Y135559D01*
X213127Y135959D01*
X213128Y135962D01*
X213131Y135962D01*
X213631Y136362D01*
X213633Y136372D01*
X213641Y136373D01*
X214041Y136973D01*
X214041Y136977D01*
X214044Y136978D01*
X214344Y137578D01*
X214343Y137585D01*
X214347Y137586D01*
X214366Y137651D01*
X214380Y137700D01*
X214422Y137848D01*
X214464Y137995D01*
X214478Y138045D01*
X214520Y138192D01*
X214521Y138192D01*
X214520Y138192D01*
X214547Y138286D01*
X214546Y138290D01*
X214547Y138291D01*
X214544Y138296D01*
X214549Y138300D01*
X214549Y140400D01*
X214532Y140423D01*
X214533Y140437D01*
X213534Y141336D01*
X213035Y141835D01*
X213023Y141836D01*
X213022Y141844D01*
X212422Y142144D01*
X212417Y142143D01*
X212416Y142147D01*
X211816Y142347D01*
X211809Y142345D01*
X211807Y142349D01*
X211107Y142449D01*
X211098Y142444D01*
X211093Y142449D01*
X209693Y142249D01*
X209685Y142241D01*
X209678Y142244D01*
X209078Y141944D01*
X209075Y141937D01*
X209069Y141938D01*
X208569Y141538D01*
X208568Y141534D01*
X208565Y141535D01*
X208065Y141035D01*
X208064Y141023D01*
X208056Y141022D01*
X207456Y139822D01*
X207458Y139811D01*
X207451Y139807D01*
X207351Y139107D01*
X207356Y139098D01*
X207351Y139093D01*
X207551Y137693D01*
X207559Y137685D01*
X207556Y137678D01*
X208156Y136478D01*
X208169Y136471D01*
X208169Y136462D01*
X208669Y136062D01*
X208673Y136061D01*
X208673Y136059D01*
X209273Y135659D01*
X209277Y135659D01*
X209278Y135656D01*
X209878Y135356D01*
X209889Y135358D01*
X209893Y135351D01*
X210593Y135251D01*
X210598Y135254D01*
X210600Y135251D01*
X211200Y135251D01*
X211204Y135254D01*
G37*
%LPC*%
G36*
X302760Y157234D02*
X302760Y157234D01*
X302067Y157408D01*
X301563Y157828D01*
X301219Y158257D01*
X300943Y158902D01*
X300662Y159652D01*
X300570Y160384D01*
X300570Y162036D01*
X300662Y162768D01*
X300943Y163518D01*
X301218Y164159D01*
X301647Y164674D01*
X302172Y165024D01*
X302788Y165288D01*
X303587Y165377D01*
X304298Y165288D01*
X305000Y165025D01*
X305422Y164687D01*
X305862Y164159D01*
X306137Y163518D01*
X306418Y162768D01*
X306510Y162036D01*
X306510Y160407D01*
X306128Y158882D01*
X305869Y158277D01*
X305433Y157841D01*
X304908Y157404D01*
X304316Y157234D01*
X303493Y157143D01*
X302760Y157234D01*
G37*
%LPD*%
G36*
X222204Y115254D02*
X222204Y115254D01*
X222207Y115251D01*
X222907Y115351D01*
X222912Y115356D01*
X222916Y115353D01*
X223516Y115553D01*
X223521Y115561D01*
X223527Y115559D01*
X224127Y115959D01*
X224130Y115966D01*
X224135Y115965D01*
X224635Y116465D01*
X224636Y116477D01*
X224644Y116478D01*
X225244Y117678D01*
X225242Y117689D01*
X225249Y117693D01*
X225349Y118393D01*
X225346Y118398D01*
X225349Y118400D01*
X225349Y119100D01*
X225346Y119104D01*
X225349Y119107D01*
X225249Y119807D01*
X225244Y119812D01*
X225247Y119816D01*
X225047Y120416D01*
X225042Y120419D01*
X225044Y120422D01*
X224744Y121022D01*
X224731Y121029D01*
X224731Y121038D01*
X223731Y121838D01*
X223723Y121839D01*
X223722Y121844D01*
X223122Y122144D01*
X223115Y122143D01*
X223114Y122147D01*
X222414Y122347D01*
X222409Y122346D01*
X222407Y122349D01*
X221707Y122449D01*
X221698Y122444D01*
X221693Y122449D01*
X220293Y122249D01*
X220285Y122241D01*
X220278Y122244D01*
X219678Y121944D01*
X219673Y121934D01*
X219665Y121935D01*
X219165Y121435D01*
X219165Y121431D01*
X219162Y121431D01*
X218762Y120931D01*
X218761Y120918D01*
X218753Y120916D01*
X218553Y120316D01*
X218555Y120309D01*
X218551Y120307D01*
X218451Y119607D01*
X218454Y119602D01*
X218451Y119600D01*
X218451Y118800D01*
X218470Y118775D01*
X218469Y118762D01*
X218969Y118362D01*
X218977Y118361D01*
X218978Y118356D01*
X219578Y118056D01*
X219589Y118058D01*
X219595Y118058D01*
X219600Y118051D01*
X222391Y118051D01*
X222812Y117882D01*
X222373Y117443D01*
X221792Y117249D01*
X221008Y117249D01*
X219816Y117647D01*
X219787Y117637D01*
X219775Y117642D01*
X219275Y117342D01*
X219268Y117326D01*
X219257Y117324D01*
X218857Y116624D01*
X218860Y116607D01*
X218851Y116600D01*
X218851Y116100D01*
X218867Y116079D01*
X218865Y116065D01*
X219165Y115765D01*
X219174Y115764D01*
X219175Y115758D01*
X219675Y115458D01*
X219685Y115459D01*
X219688Y115452D01*
X220488Y115252D01*
X220496Y115256D01*
X220500Y115251D01*
X222200Y115251D01*
X222204Y115254D01*
G37*
G36*
X303304Y115254D02*
X303304Y115254D01*
X303307Y115251D01*
X304007Y115351D01*
X304012Y115356D01*
X304016Y115353D01*
X304616Y115553D01*
X304621Y115561D01*
X304627Y115559D01*
X305227Y115959D01*
X305231Y115969D01*
X305238Y115969D01*
X305638Y116469D01*
X305639Y116473D01*
X305641Y116473D01*
X306041Y117073D01*
X306040Y117082D01*
X306047Y117084D01*
X306247Y117684D01*
X306246Y117686D01*
X306247Y117686D01*
X306265Y117749D01*
X306279Y117798D01*
X306322Y117946D01*
X306364Y118094D01*
X306378Y118143D01*
X306420Y118291D01*
X306447Y118386D01*
X306446Y118389D01*
X306447Y118389D01*
X306445Y118393D01*
X306444Y118396D01*
X306449Y118400D01*
X306449Y119100D01*
X306446Y119104D01*
X306449Y119107D01*
X306349Y119807D01*
X306344Y119812D01*
X306347Y119816D01*
X306147Y120416D01*
X306139Y120421D01*
X306141Y120427D01*
X305741Y121027D01*
X305734Y121030D01*
X305735Y121035D01*
X305335Y121435D01*
X305331Y121435D01*
X305331Y121438D01*
X304831Y121838D01*
X304823Y121839D01*
X304822Y121844D01*
X304222Y122144D01*
X304215Y122143D01*
X304214Y122147D01*
X303514Y122347D01*
X303509Y122346D01*
X303507Y122349D01*
X302807Y122449D01*
X302798Y122444D01*
X302793Y122449D01*
X301393Y122249D01*
X301385Y122241D01*
X301378Y122244D01*
X300778Y121944D01*
X300773Y121934D01*
X300765Y121935D01*
X300265Y121435D01*
X300265Y121431D01*
X300262Y121431D01*
X299862Y120931D01*
X299861Y120918D01*
X299853Y120916D01*
X299653Y120316D01*
X299655Y120309D01*
X299651Y120307D01*
X299551Y119607D01*
X299554Y119602D01*
X299551Y119600D01*
X299551Y118800D01*
X299570Y118775D01*
X299569Y118762D01*
X300069Y118362D01*
X300077Y118361D01*
X300078Y118356D01*
X300678Y118056D01*
X300689Y118058D01*
X300695Y118058D01*
X300700Y118051D01*
X303400Y118051D01*
X303447Y118087D01*
X303447Y118088D01*
X303448Y118088D01*
X303452Y118106D01*
X303478Y118058D01*
X303478Y118056D01*
X303823Y117883D01*
X303471Y117443D01*
X302793Y117249D01*
X302108Y117249D01*
X300916Y117647D01*
X300890Y117638D01*
X300878Y117644D01*
X300278Y117344D01*
X300267Y117323D01*
X300255Y117319D01*
X299955Y116619D01*
X299958Y116606D01*
X299951Y116600D01*
X299951Y116100D01*
X299967Y116079D01*
X299965Y116065D01*
X300265Y115765D01*
X300274Y115764D01*
X300275Y115758D01*
X300775Y115458D01*
X300784Y115459D01*
X300786Y115453D01*
X301486Y115253D01*
X301496Y115256D01*
X301500Y115251D01*
X303300Y115251D01*
X303304Y115254D01*
G37*
G36*
X229805Y135254D02*
X229805Y135254D01*
X229808Y135251D01*
X230408Y135351D01*
X230412Y135356D01*
X230416Y135353D01*
X231016Y135553D01*
X231021Y135561D01*
X231027Y135559D01*
X231627Y135959D01*
X231630Y135966D01*
X231635Y135965D01*
X232135Y136465D01*
X232136Y136477D01*
X232144Y136478D01*
X232744Y137678D01*
X232742Y137689D01*
X232749Y137693D01*
X232849Y138393D01*
X232846Y138398D01*
X232849Y138400D01*
X232849Y139100D01*
X232846Y139104D01*
X232849Y139107D01*
X232749Y139807D01*
X232744Y139812D01*
X232747Y139816D01*
X232547Y140416D01*
X232542Y140419D01*
X232544Y140422D01*
X232244Y141022D01*
X232231Y141029D01*
X232231Y141038D01*
X231231Y141838D01*
X231223Y141839D01*
X231222Y141844D01*
X230622Y142144D01*
X230617Y142143D01*
X230616Y142147D01*
X230016Y142347D01*
X230009Y142344D01*
X230006Y142349D01*
X229206Y142449D01*
X229198Y142444D01*
X229193Y142449D01*
X227793Y142249D01*
X227785Y142241D01*
X227778Y142244D01*
X227178Y141944D01*
X227171Y141931D01*
X227162Y141931D01*
X226362Y140931D01*
X226361Y140923D01*
X226356Y140922D01*
X226056Y140322D01*
X226059Y140306D01*
X226051Y140300D01*
X226051Y138800D01*
X226067Y138779D01*
X226065Y138765D01*
X226465Y138365D01*
X226478Y138363D01*
X226481Y138355D01*
X227181Y138055D01*
X227194Y138058D01*
X227195Y138058D01*
X227200Y138051D01*
X229891Y138051D01*
X230312Y137882D01*
X229873Y137443D01*
X229292Y137249D01*
X228508Y137249D01*
X227316Y137647D01*
X227287Y137637D01*
X227275Y137642D01*
X226775Y137342D01*
X226768Y137326D01*
X226757Y137324D01*
X226357Y136624D01*
X226360Y136607D01*
X226351Y136600D01*
X226351Y136100D01*
X226367Y136079D01*
X226365Y136065D01*
X226665Y135765D01*
X226674Y135764D01*
X226675Y135758D01*
X227175Y135458D01*
X227185Y135459D01*
X227188Y135452D01*
X227988Y135252D01*
X227996Y135256D01*
X228000Y135251D01*
X229800Y135251D01*
X229805Y135254D01*
G37*
G36*
X221919Y132555D02*
X221919Y132555D01*
X221923Y132561D01*
X221927Y132559D01*
X222527Y132959D01*
X222536Y132983D01*
X222548Y132988D01*
X222648Y133388D01*
X222640Y133406D01*
X222647Y133416D01*
X222547Y133716D01*
X222545Y133717D01*
X222546Y133718D01*
X222346Y134218D01*
X222345Y134219D01*
X222345Y134220D01*
X221648Y135813D01*
X221551Y136589D01*
X223942Y140575D01*
X223942Y140580D01*
X223945Y140581D01*
X224245Y141281D01*
X224237Y141313D01*
X224242Y141325D01*
X223942Y141825D01*
X223926Y141832D01*
X223924Y141843D01*
X223224Y142243D01*
X223217Y142242D01*
X223216Y142247D01*
X222616Y142447D01*
X222611Y142445D01*
X222611Y142446D01*
X222594Y142446D01*
X222584Y142438D01*
X222575Y142442D01*
X222075Y142142D01*
X222068Y142125D01*
X222057Y142124D01*
X221057Y140324D01*
X220361Y139130D01*
X220218Y138988D01*
X220046Y139418D01*
X220044Y139419D01*
X220045Y139420D01*
X219245Y141220D01*
X219243Y141221D01*
X219244Y141222D01*
X218944Y141822D01*
X218940Y141824D01*
X218941Y141827D01*
X218741Y142127D01*
X218724Y142133D01*
X218722Y142144D01*
X218122Y142444D01*
X218110Y142442D01*
X218108Y142446D01*
X218089Y142446D01*
X218088Y142445D01*
X218084Y142447D01*
X217484Y142247D01*
X217478Y142238D01*
X217471Y142240D01*
X216771Y141740D01*
X216766Y141723D01*
X216762Y141720D01*
X216764Y141717D01*
X216764Y141715D01*
X216752Y141710D01*
X216652Y141210D01*
X216661Y141191D01*
X216655Y141181D01*
X216955Y140481D01*
X216955Y140480D01*
X220255Y133180D01*
X220256Y133179D01*
X220256Y133178D01*
X220556Y132578D01*
X220576Y132568D01*
X220578Y132556D01*
X221178Y132256D01*
X221208Y132261D01*
X221219Y132255D01*
X221919Y132555D01*
G37*
G36*
X287818Y135265D02*
X287818Y135265D01*
X287831Y135262D01*
X288331Y135662D01*
X288335Y135677D01*
X288340Y135681D01*
X288337Y135685D01*
X288337Y135686D01*
X288349Y135692D01*
X288449Y136292D01*
X288446Y136297D01*
X288449Y136300D01*
X288449Y142488D01*
X288630Y142851D01*
X290700Y142851D01*
X290704Y142854D01*
X290707Y142851D01*
X291407Y142951D01*
X291422Y142967D01*
X291435Y142965D01*
X291835Y143365D01*
X291839Y143392D01*
X291849Y143400D01*
X291849Y144100D01*
X291840Y144113D01*
X291844Y144122D01*
X291544Y144722D01*
X291514Y144737D01*
X291508Y144749D01*
X290908Y144849D01*
X290903Y144846D01*
X290900Y144849D01*
X283300Y144849D01*
X283285Y144838D01*
X283275Y144842D01*
X282775Y144542D01*
X282763Y144514D01*
X282751Y144507D01*
X282651Y143807D01*
X282659Y143793D01*
X282653Y143784D01*
X282853Y143184D01*
X282873Y143171D01*
X282875Y143158D01*
X283375Y142858D01*
X283393Y142860D01*
X283400Y142851D01*
X285496Y142851D01*
X286051Y142758D01*
X286051Y136700D01*
X286054Y136696D01*
X286051Y136693D01*
X286151Y135993D01*
X286156Y135988D01*
X286153Y135984D01*
X286353Y135384D01*
X286388Y135361D01*
X286393Y135351D01*
X287093Y135251D01*
X287098Y135254D01*
X287100Y135251D01*
X287800Y135251D01*
X287818Y135265D01*
G37*
G36*
X237408Y115257D02*
X237408Y115257D01*
X237414Y115253D01*
X238114Y115453D01*
X238133Y115478D01*
X238146Y115482D01*
X238346Y115982D01*
X238342Y115995D01*
X238349Y116000D01*
X238349Y118693D01*
X238375Y118783D01*
X238417Y118931D01*
X238431Y118980D01*
X238474Y119128D01*
X238516Y119276D01*
X238530Y119325D01*
X238543Y119371D01*
X239017Y119751D01*
X239688Y119751D01*
X240263Y119463D01*
X240551Y118888D01*
X240551Y116200D01*
X240558Y116191D01*
X240553Y116184D01*
X240753Y115584D01*
X240770Y115573D01*
X240770Y115561D01*
X241170Y115261D01*
X241192Y115261D01*
X241200Y115251D01*
X242100Y115251D01*
X242109Y115258D01*
X242116Y115253D01*
X242716Y115453D01*
X242734Y115480D01*
X242747Y115484D01*
X242947Y116084D01*
X242943Y116095D01*
X242949Y116100D01*
X242949Y120900D01*
X242946Y120904D01*
X242949Y120907D01*
X242849Y121607D01*
X242836Y121619D01*
X242839Y121630D01*
X242539Y122030D01*
X242513Y122037D01*
X242506Y122049D01*
X241706Y122149D01*
X241701Y122146D01*
X241696Y122146D01*
X241693Y122149D01*
X240993Y122049D01*
X240975Y122030D01*
X240962Y122031D01*
X240583Y121558D01*
X240322Y121645D01*
X239727Y122041D01*
X239713Y122040D01*
X239708Y122049D01*
X239108Y122149D01*
X239103Y122146D01*
X239096Y122146D01*
X239093Y122149D01*
X238393Y122049D01*
X238388Y122044D01*
X238384Y122047D01*
X237784Y121847D01*
X237779Y121839D01*
X237773Y121841D01*
X237173Y121441D01*
X237170Y121434D01*
X237165Y121435D01*
X236665Y120935D01*
X236664Y120926D01*
X236658Y120925D01*
X236358Y120425D01*
X236358Y120420D01*
X236355Y120419D01*
X236055Y119719D01*
X236057Y119711D01*
X236051Y119708D01*
X235951Y119108D01*
X235953Y119106D01*
X235953Y119105D01*
X235954Y119103D01*
X235951Y119100D01*
X235951Y116300D01*
X235954Y116295D01*
X235951Y116292D01*
X236051Y115692D01*
X236070Y115675D01*
X236069Y115662D01*
X236569Y115262D01*
X236592Y115261D01*
X236600Y115251D01*
X237400Y115251D01*
X237408Y115257D01*
G37*
G36*
X253204Y135254D02*
X253204Y135254D01*
X253207Y135251D01*
X253907Y135351D01*
X253934Y135378D01*
X253946Y135382D01*
X254128Y135839D01*
X254378Y135755D01*
X254973Y135359D01*
X254988Y135360D01*
X254993Y135351D01*
X255693Y135251D01*
X255698Y135254D01*
X255700Y135251D01*
X256400Y135251D01*
X256413Y135260D01*
X256422Y135256D01*
X257022Y135556D01*
X257023Y135559D01*
X257025Y135558D01*
X257525Y135858D01*
X257529Y135866D01*
X257535Y135865D01*
X258035Y136365D01*
X258036Y136377D01*
X258044Y136378D01*
X258644Y137578D01*
X258642Y137589D01*
X258649Y137593D01*
X258749Y138293D01*
X258746Y138298D01*
X258749Y138300D01*
X258749Y141100D01*
X258746Y141105D01*
X258749Y141108D01*
X258649Y141708D01*
X258630Y141726D01*
X258630Y141739D01*
X258230Y142039D01*
X258211Y142039D01*
X258205Y142049D01*
X257305Y142149D01*
X257300Y142146D01*
X257290Y142146D01*
X257288Y142144D01*
X257284Y142147D01*
X256684Y141947D01*
X256671Y141927D01*
X256663Y141921D01*
X256654Y141918D01*
X256454Y141418D01*
X256458Y141405D01*
X256451Y141400D01*
X256451Y138612D01*
X256161Y138032D01*
X255683Y137649D01*
X255012Y137649D01*
X254440Y137935D01*
X254249Y138508D01*
X254249Y141300D01*
X254241Y141311D01*
X254246Y141318D01*
X254046Y141818D01*
X254024Y141831D01*
X254022Y141844D01*
X253422Y142144D01*
X253410Y142142D01*
X253407Y142146D01*
X253403Y142146D01*
X253400Y142149D01*
X252500Y142149D01*
X252495Y142146D01*
X252494Y142146D01*
X252484Y142138D01*
X252475Y142142D01*
X251975Y141842D01*
X251967Y141824D01*
X251954Y141814D01*
X251957Y141811D01*
X251951Y141808D01*
X251851Y141208D01*
X251854Y141203D01*
X251851Y141200D01*
X251851Y135800D01*
X251865Y135782D01*
X251862Y135769D01*
X252262Y135269D01*
X252292Y135262D01*
X252300Y135251D01*
X253200Y135251D01*
X253204Y135254D01*
G37*
G36*
X284708Y115257D02*
X284708Y115257D01*
X284714Y115253D01*
X285414Y115453D01*
X285433Y115478D01*
X285446Y115482D01*
X285646Y115982D01*
X285642Y115995D01*
X285649Y116000D01*
X285649Y118693D01*
X285675Y118783D01*
X285717Y118931D01*
X285731Y118980D01*
X285774Y119128D01*
X285816Y119276D01*
X285830Y119325D01*
X285843Y119371D01*
X286317Y119751D01*
X286988Y119751D01*
X287563Y119463D01*
X287851Y118888D01*
X287851Y116200D01*
X287858Y116191D01*
X287853Y116184D01*
X288053Y115584D01*
X288070Y115573D01*
X288070Y115561D01*
X288470Y115261D01*
X288492Y115261D01*
X288500Y115251D01*
X289400Y115251D01*
X289409Y115258D01*
X289416Y115253D01*
X290016Y115453D01*
X290034Y115481D01*
X290038Y115484D01*
X290037Y115485D01*
X290038Y115487D01*
X290049Y115492D01*
X290149Y116092D01*
X290146Y116097D01*
X290149Y116100D01*
X290149Y121600D01*
X290136Y121618D01*
X290139Y121630D01*
X289839Y122030D01*
X289813Y122037D01*
X289806Y122049D01*
X289006Y122149D01*
X289001Y122146D01*
X288997Y122146D01*
X288994Y122149D01*
X288194Y122049D01*
X288171Y122027D01*
X288158Y122025D01*
X287878Y121559D01*
X287622Y121645D01*
X287027Y122041D01*
X287013Y122040D01*
X287008Y122049D01*
X286408Y122149D01*
X286403Y122146D01*
X286396Y122146D01*
X286393Y122149D01*
X285693Y122049D01*
X285688Y122044D01*
X285684Y122047D01*
X285084Y121847D01*
X285079Y121839D01*
X285073Y121841D01*
X284473Y121441D01*
X284470Y121434D01*
X284465Y121435D01*
X283965Y120935D01*
X283964Y120926D01*
X283958Y120925D01*
X283658Y120425D01*
X283658Y120420D01*
X283655Y120419D01*
X283355Y119719D01*
X283357Y119711D01*
X283351Y119708D01*
X283251Y119108D01*
X283253Y119106D01*
X283253Y119105D01*
X283254Y119103D01*
X283251Y119100D01*
X283251Y116300D01*
X283254Y116295D01*
X283251Y116292D01*
X283351Y115692D01*
X283370Y115675D01*
X283369Y115662D01*
X283869Y115262D01*
X283892Y115261D01*
X283900Y115251D01*
X284700Y115251D01*
X284708Y115257D01*
G37*
G36*
X228609Y115258D02*
X228609Y115258D01*
X228616Y115253D01*
X229216Y115453D01*
X229233Y115478D01*
X229246Y115482D01*
X229446Y115982D01*
X229442Y115995D01*
X229449Y116000D01*
X229449Y118693D01*
X229475Y118783D01*
X229517Y118931D01*
X229531Y118980D01*
X229574Y119128D01*
X229616Y119276D01*
X229630Y119325D01*
X229643Y119371D01*
X230117Y119751D01*
X230788Y119751D01*
X231363Y119463D01*
X231653Y118885D01*
X231751Y118296D01*
X231751Y116200D01*
X231754Y116195D01*
X231751Y116192D01*
X231851Y115592D01*
X231870Y115574D01*
X231870Y115561D01*
X232270Y115261D01*
X232292Y115261D01*
X232300Y115251D01*
X233300Y115251D01*
X233311Y115259D01*
X233318Y115254D01*
X233818Y115454D01*
X233833Y115478D01*
X233836Y115481D01*
X233847Y115484D01*
X234047Y116084D01*
X234043Y116095D01*
X234049Y116100D01*
X234049Y121600D01*
X234033Y121621D01*
X234035Y121635D01*
X233635Y122035D01*
X233612Y122038D01*
X233606Y122049D01*
X232806Y122149D01*
X232801Y122146D01*
X232796Y122146D01*
X232793Y122149D01*
X232093Y122049D01*
X232071Y122027D01*
X232058Y122025D01*
X231777Y121557D01*
X231422Y121645D01*
X230931Y122038D01*
X230912Y122039D01*
X230907Y122049D01*
X230207Y122149D01*
X230202Y122146D01*
X230196Y122146D01*
X230193Y122149D01*
X229493Y122049D01*
X229488Y122044D01*
X229484Y122047D01*
X228884Y121847D01*
X228879Y121839D01*
X228873Y121841D01*
X228273Y121441D01*
X228269Y121431D01*
X228262Y121431D01*
X227462Y120431D01*
X227461Y120417D01*
X227453Y120414D01*
X227445Y120386D01*
X227403Y120238D01*
X227360Y120091D01*
X227346Y120041D01*
X227304Y119894D01*
X227262Y119746D01*
X227253Y119714D01*
X227254Y119710D01*
X227251Y119708D01*
X227151Y119108D01*
X227153Y119106D01*
X227152Y119106D01*
X227154Y119104D01*
X227151Y119102D01*
X227051Y116302D01*
X227058Y116291D01*
X227053Y116284D01*
X227253Y115684D01*
X227267Y115675D01*
X227265Y115665D01*
X227665Y115265D01*
X227692Y115262D01*
X227700Y115251D01*
X228600Y115251D01*
X228609Y115258D01*
G37*
G36*
X321811Y115262D02*
X321811Y115262D01*
X321822Y115256D01*
X322422Y115556D01*
X322428Y115569D01*
X322438Y115568D01*
X322938Y116168D01*
X322939Y116192D01*
X322949Y116200D01*
X322949Y116700D01*
X322937Y116716D01*
X322941Y116727D01*
X322541Y117327D01*
X322534Y117330D01*
X322535Y117335D01*
X321537Y118333D01*
X321166Y118796D01*
X322635Y120265D01*
X322636Y120272D01*
X322641Y120273D01*
X323041Y120873D01*
X323039Y120897D01*
X323045Y120901D01*
X323043Y120903D01*
X323048Y120910D01*
X322948Y121410D01*
X322933Y121423D01*
X322935Y121435D01*
X322335Y122035D01*
X322326Y122036D01*
X322325Y122042D01*
X321825Y122342D01*
X321812Y122341D01*
X321811Y122343D01*
X321790Y122343D01*
X321784Y122347D01*
X321184Y122147D01*
X321174Y122131D01*
X321162Y122132D01*
X320664Y121534D01*
X319681Y120649D01*
X319222Y120649D01*
X318337Y121633D01*
X318331Y121634D01*
X318332Y121638D01*
X317732Y122138D01*
X317720Y122138D01*
X317718Y122146D01*
X317218Y122346D01*
X317207Y122343D01*
X317189Y122343D01*
X317184Y122339D01*
X317175Y122342D01*
X316675Y122042D01*
X316671Y122034D01*
X316665Y122035D01*
X316065Y121435D01*
X316064Y121423D01*
X316060Y121420D01*
X316063Y121416D01*
X316062Y121414D01*
X316051Y121408D01*
X315951Y120808D01*
X315965Y120782D01*
X315962Y120768D01*
X316462Y120168D01*
X316466Y120168D01*
X316465Y120165D01*
X317832Y118799D01*
X316464Y117334D01*
X316463Y117328D01*
X316459Y117327D01*
X316059Y116727D01*
X316060Y116707D01*
X316051Y116700D01*
X316051Y116200D01*
X316065Y116181D01*
X316062Y116168D01*
X316562Y115568D01*
X316576Y115565D01*
X316578Y115556D01*
X317178Y115256D01*
X317207Y115261D01*
X317218Y115254D01*
X317718Y115454D01*
X317724Y115464D01*
X317732Y115462D01*
X318332Y115962D01*
X318332Y115964D01*
X318333Y115963D01*
X319319Y116851D01*
X319778Y116851D01*
X320663Y115867D01*
X320669Y115866D01*
X320668Y115862D01*
X321268Y115362D01*
X321286Y115361D01*
X321290Y115352D01*
X321790Y115252D01*
X321811Y115262D01*
G37*
G36*
X182505Y115254D02*
X182505Y115254D01*
X182508Y115251D01*
X183108Y115351D01*
X183114Y115358D01*
X183119Y115355D01*
X183819Y115655D01*
X183821Y115657D01*
X183822Y115656D01*
X184422Y115956D01*
X184434Y115980D01*
X184447Y115984D01*
X184647Y116584D01*
X184639Y116607D01*
X184646Y116618D01*
X184446Y117118D01*
X184436Y117124D01*
X184438Y117132D01*
X183938Y117732D01*
X183908Y117738D01*
X183900Y117749D01*
X183300Y117749D01*
X183286Y117738D01*
X183276Y117743D01*
X182580Y117345D01*
X181995Y117150D01*
X181228Y117246D01*
X181077Y117474D01*
X181614Y117653D01*
X182412Y117852D01*
X182414Y117855D01*
X182416Y117853D01*
X183016Y118053D01*
X183019Y118058D01*
X183022Y118056D01*
X183622Y118356D01*
X183629Y118369D01*
X183638Y118369D01*
X184038Y118869D01*
X184039Y118878D01*
X184040Y118879D01*
X184045Y118881D01*
X184345Y119581D01*
X184343Y119589D01*
X184349Y119592D01*
X184449Y120192D01*
X184443Y120202D01*
X184449Y120207D01*
X184349Y120907D01*
X184343Y120913D01*
X184346Y120918D01*
X184146Y121418D01*
X184134Y121426D01*
X184135Y121435D01*
X183735Y121835D01*
X183726Y121836D01*
X183725Y121842D01*
X183225Y122142D01*
X183216Y122141D01*
X183214Y122147D01*
X182514Y122347D01*
X182508Y122345D01*
X182505Y122349D01*
X181605Y122449D01*
X181597Y122444D01*
X181592Y122449D01*
X180992Y122349D01*
X180293Y122249D01*
X180289Y122244D01*
X180288Y122244D01*
X180284Y122247D01*
X179684Y122047D01*
X179675Y122033D01*
X179665Y122035D01*
X179165Y121535D01*
X179164Y121523D01*
X179158Y121519D01*
X179162Y121513D01*
X179161Y121502D01*
X179151Y121492D01*
X179251Y120892D01*
X179265Y120879D01*
X179262Y120868D01*
X179762Y120268D01*
X179792Y120262D01*
X179800Y120251D01*
X180300Y120251D01*
X180308Y120257D01*
X180314Y120253D01*
X181010Y120452D01*
X181695Y120550D01*
X182241Y120368D01*
X182159Y120041D01*
X181390Y119848D01*
X180792Y119749D01*
X180789Y119745D01*
X180786Y119747D01*
X180086Y119547D01*
X180080Y119539D01*
X180073Y119541D01*
X179473Y119141D01*
X179469Y119131D01*
X179462Y119131D01*
X179062Y118631D01*
X179061Y118620D01*
X179058Y118617D01*
X179053Y118616D01*
X178853Y118016D01*
X178857Y118005D01*
X178851Y118000D01*
X178851Y117300D01*
X178857Y117292D01*
X178853Y117286D01*
X179053Y116586D01*
X179060Y116581D01*
X179058Y116575D01*
X179358Y116075D01*
X179366Y116071D01*
X179365Y116065D01*
X179865Y115565D01*
X179881Y115563D01*
X179884Y115553D01*
X180484Y115353D01*
X180490Y115355D01*
X180492Y115351D01*
X181092Y115251D01*
X181097Y115254D01*
X181100Y115251D01*
X182500Y115251D01*
X182505Y115254D01*
G37*
G36*
X205509Y115258D02*
X205509Y115258D01*
X205516Y115253D01*
X206116Y115453D01*
X206120Y115460D01*
X206125Y115458D01*
X206625Y115758D01*
X206629Y115766D01*
X206635Y115765D01*
X207035Y116165D01*
X207037Y116181D01*
X207047Y116184D01*
X207247Y116784D01*
X207246Y116786D01*
X207247Y116786D01*
X207255Y116813D01*
X207297Y116961D01*
X207311Y117010D01*
X207354Y117158D01*
X207396Y117306D01*
X207410Y117355D01*
X207447Y117486D01*
X207444Y117496D01*
X207449Y117500D01*
X207449Y119567D01*
X208418Y119954D01*
X208434Y119980D01*
X208447Y119984D01*
X208647Y120584D01*
X208643Y120595D01*
X208649Y120600D01*
X208649Y121400D01*
X208638Y121415D01*
X208642Y121425D01*
X208342Y121925D01*
X208320Y121934D01*
X208316Y121947D01*
X207727Y122143D01*
X207449Y122420D01*
X207449Y123800D01*
X207438Y123815D01*
X207442Y123825D01*
X207142Y124325D01*
X207120Y124334D01*
X207116Y124347D01*
X206516Y124547D01*
X206501Y124542D01*
X206494Y124549D01*
X205694Y124449D01*
X205680Y124436D01*
X205669Y124438D01*
X205169Y124038D01*
X205163Y124014D01*
X205151Y124008D01*
X205051Y123408D01*
X205054Y123403D01*
X205051Y123400D01*
X205051Y122057D01*
X204407Y122149D01*
X204402Y122146D01*
X204400Y122149D01*
X203800Y122149D01*
X203795Y122146D01*
X203794Y122146D01*
X203784Y122138D01*
X203775Y122142D01*
X203275Y121842D01*
X203268Y121824D01*
X203254Y121814D01*
X203257Y121810D01*
X203251Y121807D01*
X203151Y121107D01*
X203156Y121099D01*
X203151Y121095D01*
X203251Y120195D01*
X203270Y120174D01*
X203270Y120161D01*
X203670Y119861D01*
X203687Y119861D01*
X203692Y119851D01*
X204292Y119751D01*
X204302Y119757D01*
X204307Y119751D01*
X204959Y119844D01*
X205051Y119296D01*
X205051Y118009D01*
X204865Y117545D01*
X204193Y117449D01*
X204185Y117441D01*
X204178Y117444D01*
X203578Y117144D01*
X203563Y117113D01*
X203551Y117107D01*
X203451Y116407D01*
X203456Y116398D01*
X203451Y116393D01*
X203551Y115693D01*
X203570Y115675D01*
X203569Y115662D01*
X204069Y115262D01*
X204092Y115261D01*
X204100Y115251D01*
X205500Y115251D01*
X205509Y115258D01*
G37*
G36*
X310909Y115258D02*
X310909Y115258D01*
X310916Y115253D01*
X311516Y115453D01*
X311520Y115460D01*
X311525Y115458D01*
X312025Y115758D01*
X312029Y115766D01*
X312035Y115765D01*
X312435Y116165D01*
X312437Y116181D01*
X312447Y116184D01*
X312647Y116784D01*
X312646Y116786D01*
X312647Y116786D01*
X312655Y116813D01*
X312697Y116961D01*
X312711Y117010D01*
X312754Y117158D01*
X312796Y117306D01*
X312810Y117355D01*
X312847Y117486D01*
X312844Y117496D01*
X312849Y117500D01*
X312849Y119567D01*
X313818Y119954D01*
X313834Y119980D01*
X313847Y119984D01*
X314047Y120584D01*
X314043Y120595D01*
X314049Y120600D01*
X314049Y121400D01*
X314038Y121415D01*
X314042Y121425D01*
X313742Y121925D01*
X313720Y121934D01*
X313716Y121947D01*
X313127Y122143D01*
X312849Y122420D01*
X312849Y123800D01*
X312838Y123815D01*
X312842Y123825D01*
X312542Y124325D01*
X312520Y124334D01*
X312516Y124347D01*
X311916Y124547D01*
X311901Y124542D01*
X311894Y124549D01*
X311094Y124449D01*
X311080Y124436D01*
X311069Y124438D01*
X310569Y124038D01*
X310563Y124014D01*
X310551Y124008D01*
X310451Y123408D01*
X310454Y123403D01*
X310451Y123400D01*
X310451Y122057D01*
X309807Y122149D01*
X309802Y122146D01*
X309800Y122149D01*
X309200Y122149D01*
X309195Y122146D01*
X309194Y122146D01*
X309184Y122138D01*
X309175Y122142D01*
X308675Y121842D01*
X308668Y121824D01*
X308654Y121814D01*
X308657Y121810D01*
X308651Y121807D01*
X308551Y121107D01*
X308556Y121099D01*
X308551Y121095D01*
X308651Y120195D01*
X308670Y120174D01*
X308670Y120161D01*
X309070Y119861D01*
X309087Y119861D01*
X309092Y119851D01*
X309692Y119751D01*
X309702Y119757D01*
X309707Y119751D01*
X310359Y119844D01*
X310451Y119296D01*
X310451Y118009D01*
X310265Y117545D01*
X309593Y117449D01*
X309585Y117441D01*
X309578Y117444D01*
X308978Y117144D01*
X308963Y117113D01*
X308951Y117107D01*
X308851Y116407D01*
X308856Y116398D01*
X308851Y116393D01*
X308951Y115693D01*
X308970Y115675D01*
X308969Y115662D01*
X309469Y115262D01*
X309492Y115261D01*
X309500Y115251D01*
X310900Y115251D01*
X310909Y115258D01*
G37*
G36*
X239315Y135262D02*
X239315Y135262D01*
X239325Y135258D01*
X239825Y135558D01*
X239832Y135574D01*
X239843Y135575D01*
X242542Y140274D01*
X242941Y140873D01*
X242940Y140897D01*
X242945Y140901D01*
X242944Y140903D01*
X242949Y140908D01*
X242849Y141508D01*
X242836Y141520D01*
X242838Y141531D01*
X242438Y142031D01*
X242422Y142035D01*
X242419Y142045D01*
X241719Y142345D01*
X241709Y142343D01*
X241698Y142343D01*
X241692Y142349D01*
X241092Y142249D01*
X241073Y142228D01*
X241059Y142227D01*
X240659Y141627D01*
X240659Y141623D01*
X240656Y141622D01*
X239170Y138649D01*
X238930Y138649D01*
X237343Y141623D01*
X237337Y141626D01*
X237338Y141631D01*
X236938Y142131D01*
X236919Y142136D01*
X236916Y142147D01*
X236316Y142347D01*
X236304Y142343D01*
X236287Y142343D01*
X236285Y142341D01*
X236278Y142344D01*
X235678Y142044D01*
X235674Y142037D01*
X235668Y142038D01*
X235068Y141538D01*
X235065Y141523D01*
X235059Y141519D01*
X235062Y141515D01*
X235052Y141510D01*
X234952Y141010D01*
X234962Y140989D01*
X234956Y140978D01*
X235256Y140378D01*
X235258Y140377D01*
X235257Y140375D01*
X237957Y135675D01*
X237972Y135669D01*
X237973Y135659D01*
X238573Y135259D01*
X238593Y135260D01*
X238600Y135251D01*
X239300Y135251D01*
X239315Y135262D01*
G37*
G36*
X213305Y115254D02*
X213305Y115254D01*
X213308Y115251D01*
X213908Y115351D01*
X213912Y115356D01*
X213916Y115353D01*
X214516Y115553D01*
X214521Y115561D01*
X214527Y115559D01*
X215127Y115959D01*
X215130Y115966D01*
X215135Y115965D01*
X215635Y116465D01*
X215635Y116469D01*
X215638Y116469D01*
X216038Y116969D01*
X216039Y116977D01*
X216044Y116978D01*
X216344Y117578D01*
X216343Y117585D01*
X216347Y117586D01*
X216380Y117700D01*
X216394Y117749D01*
X216436Y117897D01*
X216478Y118045D01*
X216492Y118094D01*
X216535Y118242D01*
X216547Y118286D01*
X216546Y118290D01*
X216547Y118291D01*
X216544Y118296D01*
X216549Y118300D01*
X216549Y119000D01*
X216546Y119004D01*
X216549Y119007D01*
X216449Y119707D01*
X216444Y119712D01*
X216447Y119716D01*
X216247Y120316D01*
X216239Y120321D01*
X216241Y120327D01*
X215841Y120927D01*
X215834Y120930D01*
X215835Y120935D01*
X215335Y121435D01*
X215331Y121435D01*
X215331Y121438D01*
X214831Y121838D01*
X214817Y121839D01*
X214814Y121847D01*
X214115Y122047D01*
X213516Y122247D01*
X213508Y122244D01*
X213504Y122244D01*
X213500Y122249D01*
X212800Y122249D01*
X212796Y122246D01*
X212793Y122249D01*
X212093Y122149D01*
X212090Y122146D01*
X212089Y122146D01*
X212088Y122144D01*
X212084Y122147D01*
X211484Y121947D01*
X211479Y121939D01*
X211473Y121941D01*
X210873Y121541D01*
X210869Y121531D01*
X210862Y121531D01*
X210462Y121031D01*
X210461Y121002D01*
X210451Y120992D01*
X210551Y120392D01*
X210561Y120383D01*
X210557Y120376D01*
X210957Y119676D01*
X210973Y119669D01*
X210975Y119658D01*
X211475Y119358D01*
X211504Y119361D01*
X211516Y119353D01*
X212116Y119553D01*
X212119Y119558D01*
X212122Y119556D01*
X212712Y119851D01*
X213385Y119851D01*
X213959Y119468D01*
X214151Y118892D01*
X214151Y118220D01*
X213677Y117746D01*
X213005Y117650D01*
X212419Y117846D01*
X211822Y118144D01*
X211793Y118139D01*
X211782Y118146D01*
X211282Y117946D01*
X211274Y117934D01*
X211265Y117935D01*
X210665Y117335D01*
X210663Y117319D01*
X210653Y117316D01*
X210453Y116716D01*
X210461Y116693D01*
X210454Y116682D01*
X210654Y116182D01*
X210669Y116173D01*
X210668Y116162D01*
X211268Y115662D01*
X211277Y115662D01*
X211278Y115656D01*
X211878Y115356D01*
X211889Y115358D01*
X211893Y115351D01*
X212593Y115251D01*
X212598Y115254D01*
X212600Y115251D01*
X213300Y115251D01*
X213305Y115254D01*
G37*
G36*
X270203Y115253D02*
X270203Y115253D01*
X270205Y115251D01*
X271105Y115351D01*
X271115Y115360D01*
X271122Y115356D01*
X271722Y115656D01*
X271729Y115670D01*
X271739Y115670D01*
X272039Y116070D01*
X272039Y116080D01*
X272046Y116082D01*
X272246Y116582D01*
X272243Y116590D01*
X272249Y116593D01*
X272349Y117293D01*
X272346Y117298D01*
X272349Y117300D01*
X272349Y124900D01*
X272333Y124921D01*
X272335Y124935D01*
X271935Y125335D01*
X271912Y125338D01*
X271906Y125349D01*
X271106Y125449D01*
X271100Y125445D01*
X271089Y125445D01*
X271086Y125447D01*
X270386Y125247D01*
X270371Y125227D01*
X270358Y125225D01*
X270058Y124725D01*
X270058Y124721D01*
X270057Y124720D01*
X270059Y124717D01*
X270060Y124707D01*
X270051Y124700D01*
X270051Y117916D01*
X269771Y117543D01*
X269086Y117347D01*
X269073Y117330D01*
X269061Y117330D01*
X268761Y116930D01*
X268761Y116908D01*
X268751Y116900D01*
X268751Y116000D01*
X268760Y115987D01*
X268756Y115978D01*
X269056Y115378D01*
X269083Y115365D01*
X269088Y115352D01*
X269488Y115252D01*
X269496Y115256D01*
X269500Y115251D01*
X270200Y115251D01*
X270203Y115253D01*
G37*
G36*
X204202Y135256D02*
X204202Y135256D01*
X204207Y135251D01*
X204907Y135351D01*
X204929Y135373D01*
X204942Y135375D01*
X205242Y135875D01*
X205242Y135878D01*
X205240Y135893D01*
X205249Y135900D01*
X205249Y141300D01*
X205242Y141309D01*
X205247Y141316D01*
X205047Y141916D01*
X205020Y141934D01*
X205016Y141947D01*
X204416Y142147D01*
X204411Y142145D01*
X204411Y142146D01*
X204403Y142146D01*
X204400Y142149D01*
X203500Y142149D01*
X203495Y142146D01*
X203482Y142136D01*
X203470Y142139D01*
X203070Y141839D01*
X203069Y141834D01*
X203065Y141835D01*
X202796Y141566D01*
X202331Y141938D01*
X202321Y141939D01*
X202319Y141945D01*
X201619Y142245D01*
X201612Y142244D01*
X201597Y142244D01*
X201592Y142249D01*
X200992Y142149D01*
X200293Y142049D01*
X200269Y142025D01*
X200269Y142024D01*
X200256Y142022D01*
X199956Y141422D01*
X199956Y141420D01*
X199959Y141406D01*
X199951Y141400D01*
X199951Y140800D01*
X199959Y140789D01*
X199955Y140781D01*
X200255Y140081D01*
X200270Y140072D01*
X200269Y140062D01*
X200769Y139662D01*
X200803Y139661D01*
X200814Y139653D01*
X201511Y139852D01*
X202092Y139949D01*
X202663Y139663D01*
X202951Y139088D01*
X202951Y135700D01*
X202970Y135674D01*
X202970Y135661D01*
X203370Y135361D01*
X203388Y135361D01*
X203394Y135351D01*
X204194Y135251D01*
X204202Y135256D01*
G37*
G36*
X296402Y115256D02*
X296402Y115256D01*
X296407Y115251D01*
X297107Y115351D01*
X297129Y115373D01*
X297142Y115375D01*
X297442Y115875D01*
X297442Y115878D01*
X297440Y115893D01*
X297449Y115900D01*
X297449Y121300D01*
X297442Y121309D01*
X297447Y121316D01*
X297247Y121916D01*
X297220Y121934D01*
X297216Y121947D01*
X296616Y122147D01*
X296611Y122145D01*
X296611Y122146D01*
X296603Y122146D01*
X296600Y122149D01*
X295700Y122149D01*
X295695Y122146D01*
X295682Y122136D01*
X295670Y122139D01*
X295270Y121839D01*
X295269Y121834D01*
X295265Y121835D01*
X294996Y121566D01*
X294531Y121938D01*
X294521Y121939D01*
X294519Y121945D01*
X293819Y122245D01*
X293812Y122244D01*
X293797Y122244D01*
X293792Y122249D01*
X293192Y122149D01*
X292493Y122049D01*
X292469Y122025D01*
X292469Y122024D01*
X292456Y122022D01*
X292156Y121422D01*
X292156Y121420D01*
X292159Y121406D01*
X292151Y121400D01*
X292151Y120800D01*
X292159Y120789D01*
X292155Y120781D01*
X292455Y120081D01*
X292470Y120072D01*
X292469Y120062D01*
X292969Y119662D01*
X293003Y119661D01*
X293014Y119653D01*
X293711Y119852D01*
X294292Y119949D01*
X294863Y119663D01*
X295151Y119088D01*
X295151Y115700D01*
X295170Y115674D01*
X295170Y115661D01*
X295570Y115361D01*
X295588Y115361D01*
X295594Y115351D01*
X296394Y115251D01*
X296402Y115256D01*
G37*
G36*
X190703Y115256D02*
X190703Y115256D01*
X190708Y115251D01*
X191308Y115351D01*
X191329Y115373D01*
X191342Y115375D01*
X191642Y115875D01*
X191642Y115878D01*
X191640Y115893D01*
X191649Y115899D01*
X191749Y121299D01*
X191739Y121313D01*
X191744Y121322D01*
X191444Y121922D01*
X191422Y121933D01*
X191418Y121946D01*
X190918Y122146D01*
X190910Y122144D01*
X190909Y122146D01*
X190903Y122146D01*
X190900Y122149D01*
X190000Y122149D01*
X189995Y122146D01*
X189994Y122146D01*
X189984Y122138D01*
X189975Y122142D01*
X189475Y121842D01*
X189469Y121828D01*
X189459Y121827D01*
X189289Y121572D01*
X188831Y121938D01*
X188821Y121939D01*
X188819Y121945D01*
X188119Y122245D01*
X188112Y122244D01*
X188098Y122244D01*
X188093Y122249D01*
X187393Y122149D01*
X187392Y122148D01*
X187392Y122149D01*
X186792Y122049D01*
X186769Y122025D01*
X186769Y122024D01*
X186756Y122022D01*
X186456Y121422D01*
X186456Y121420D01*
X186459Y121406D01*
X186451Y121400D01*
X186451Y120800D01*
X186459Y120789D01*
X186455Y120781D01*
X186755Y120081D01*
X186770Y120072D01*
X186769Y120062D01*
X187269Y119662D01*
X187305Y119661D01*
X187316Y119653D01*
X187911Y119852D01*
X188592Y119949D01*
X189160Y119665D01*
X189351Y119092D01*
X189351Y116400D01*
X189354Y116396D01*
X189351Y116393D01*
X189451Y115693D01*
X189470Y115674D01*
X189470Y115661D01*
X189870Y115361D01*
X189888Y115361D01*
X189894Y115351D01*
X190694Y115251D01*
X190703Y115256D01*
G37*
G36*
X248903Y135256D02*
X248903Y135256D01*
X248908Y135251D01*
X249508Y135351D01*
X249529Y135373D01*
X249542Y135375D01*
X249842Y135875D01*
X249842Y135878D01*
X249840Y135893D01*
X249849Y135900D01*
X249849Y141300D01*
X249842Y141309D01*
X249847Y141316D01*
X249647Y141916D01*
X249620Y141934D01*
X249616Y141947D01*
X249016Y142147D01*
X249011Y142145D01*
X249011Y142146D01*
X249003Y142146D01*
X249000Y142149D01*
X248200Y142149D01*
X248195Y142146D01*
X248194Y142146D01*
X248184Y142138D01*
X248175Y142142D01*
X247675Y141842D01*
X247669Y141828D01*
X247659Y141827D01*
X247486Y141568D01*
X246927Y141941D01*
X246923Y141941D01*
X246922Y141944D01*
X246322Y142244D01*
X246312Y142242D01*
X246310Y142244D01*
X246298Y142244D01*
X246293Y142249D01*
X245593Y142149D01*
X245592Y142148D01*
X245592Y142149D01*
X244992Y142049D01*
X244973Y142028D01*
X244959Y142027D01*
X244559Y141427D01*
X244559Y141422D01*
X244557Y141420D01*
X244560Y141417D01*
X244561Y141402D01*
X244551Y141392D01*
X244651Y140792D01*
X244655Y140789D01*
X244653Y140786D01*
X244853Y140086D01*
X244872Y140072D01*
X244873Y140059D01*
X245473Y139659D01*
X245504Y139661D01*
X245516Y139653D01*
X246111Y139852D01*
X246792Y139949D01*
X247360Y139665D01*
X247551Y139092D01*
X247551Y135700D01*
X247573Y135670D01*
X247575Y135658D01*
X248075Y135358D01*
X248089Y135359D01*
X248094Y135351D01*
X248894Y135251D01*
X248903Y135256D01*
G37*
%LPC*%
G36*
X288928Y156740D02*
X288928Y156740D01*
X288465Y156833D01*
X288433Y156832D01*
X288390Y156840D01*
X287980Y156840D01*
X287660Y157000D01*
X287627Y157008D01*
X287582Y157029D01*
X287246Y157113D01*
X287032Y157256D01*
X286886Y157402D01*
X286706Y157671D01*
X286684Y157692D01*
X286659Y157729D01*
X286522Y157865D01*
X286351Y158380D01*
X286338Y158400D01*
X286330Y158430D01*
X286242Y158606D01*
X286170Y158822D01*
X286170Y160445D01*
X286420Y160320D01*
X286435Y160316D01*
X286448Y160307D01*
X286582Y160281D01*
X286589Y160280D01*
X286590Y160280D01*
X286700Y160280D01*
X286820Y160220D01*
X286835Y160216D01*
X286848Y160207D01*
X286982Y160181D01*
X286989Y160180D01*
X286990Y160180D01*
X287300Y160180D01*
X287420Y160120D01*
X287435Y160116D01*
X287448Y160107D01*
X287582Y160081D01*
X287589Y160080D01*
X287590Y160080D01*
X287728Y160080D01*
X287970Y159999D01*
X288007Y159996D01*
X288090Y159980D01*
X288428Y159980D01*
X288670Y159899D01*
X288707Y159896D01*
X288790Y159880D01*
X289100Y159880D01*
X289220Y159820D01*
X289235Y159816D01*
X289248Y159807D01*
X289382Y159781D01*
X289389Y159780D01*
X289390Y159780D01*
X289528Y159780D01*
X289744Y159708D01*
X289865Y159648D01*
X289921Y159591D01*
X289953Y159571D01*
X290020Y159520D01*
X290365Y159348D01*
X290421Y159291D01*
X290453Y159271D01*
X290520Y159220D01*
X290607Y159177D01*
X290810Y158770D01*
X290810Y158660D01*
X290813Y158645D01*
X290811Y158630D01*
X290848Y158498D01*
X290849Y158491D01*
X290850Y158491D01*
X290850Y158490D01*
X290910Y158370D01*
X290910Y158022D01*
X290829Y157780D01*
X290826Y157743D01*
X290810Y157660D01*
X290810Y157550D01*
X290778Y157485D01*
X290721Y157429D01*
X290713Y157415D01*
X290710Y157413D01*
X290707Y157405D01*
X290701Y157397D01*
X290650Y157330D01*
X290607Y157243D01*
X290520Y157200D01*
X290491Y157176D01*
X290421Y157129D01*
X290365Y157073D01*
X290100Y156940D01*
X289990Y156940D01*
X289975Y156937D01*
X289960Y156939D01*
X289828Y156902D01*
X289821Y156901D01*
X289821Y156900D01*
X289820Y156900D01*
X289700Y156840D01*
X289590Y156840D01*
X289575Y156837D01*
X289560Y156839D01*
X289428Y156802D01*
X289421Y156801D01*
X289421Y156800D01*
X289420Y156800D01*
X289345Y156763D01*
X289300Y156740D01*
X288928Y156740D01*
G37*
%LPD*%
%LPC*%
G36*
X297007Y140349D02*
X297007Y140349D01*
X296329Y140543D01*
X295949Y141017D01*
X295949Y141685D01*
X296334Y142262D01*
X296912Y142551D01*
X298186Y142551D01*
X298651Y142272D01*
X298651Y140349D01*
X297007Y140349D01*
G37*
%LPD*%
%LPC*%
G36*
X210907Y137649D02*
X210907Y137649D01*
X210229Y137843D01*
X209847Y138320D01*
X209751Y139091D01*
X210039Y139668D01*
X210517Y140051D01*
X211188Y140051D01*
X211768Y139761D01*
X212151Y139283D01*
X212151Y138608D01*
X211959Y138032D01*
X211385Y137649D01*
X210907Y137649D01*
G37*
%LPD*%
%LPC*%
G36*
X197308Y117649D02*
X197308Y117649D01*
X196729Y117842D01*
X196347Y118320D01*
X196250Y119095D01*
X196441Y119668D01*
X197015Y120051D01*
X197590Y120051D01*
X198266Y119761D01*
X198553Y119283D01*
X198649Y118608D01*
X198361Y118032D01*
X197883Y117649D01*
X197308Y117649D01*
G37*
%LPD*%
%LPC*%
G36*
X248508Y117649D02*
X248508Y117649D01*
X247929Y117842D01*
X247547Y118320D01*
X247450Y119095D01*
X247641Y119668D01*
X248215Y120051D01*
X248790Y120051D01*
X249466Y119761D01*
X249753Y119283D01*
X249849Y118608D01*
X249561Y118032D01*
X249083Y117649D01*
X248508Y117649D01*
G37*
%LPD*%
%LPC*%
G36*
X277620Y117649D02*
X277620Y117649D01*
X277143Y118127D01*
X276952Y118701D01*
X276975Y118783D01*
X277017Y118931D01*
X277031Y118980D01*
X277074Y119128D01*
X277116Y119276D01*
X277130Y119325D01*
X277143Y119371D01*
X277631Y119762D01*
X277642Y119806D01*
X277656Y119778D01*
X277693Y119760D01*
X277700Y119751D01*
X278288Y119751D01*
X278863Y119463D01*
X279151Y118888D01*
X279151Y118220D01*
X278871Y117941D01*
X278288Y117649D01*
X277620Y117649D01*
G37*
%LPD*%
%LPC*%
G36*
X302316Y119349D02*
X302316Y119349D01*
X301958Y119618D01*
X302137Y120156D01*
X302697Y120250D01*
X303374Y120056D01*
X303837Y119594D01*
X303674Y119349D01*
X302316Y119349D01*
G37*
%LPD*%
%LPC*%
G36*
X228814Y139349D02*
X228814Y139349D01*
X228359Y139622D01*
X228537Y140156D01*
X229195Y140250D01*
X229773Y140057D01*
X230237Y139594D01*
X230074Y139349D01*
X228814Y139349D01*
G37*
%LPD*%
%LPC*%
G36*
X221314Y119349D02*
X221314Y119349D01*
X220859Y119622D01*
X221037Y120156D01*
X221695Y120250D01*
X222273Y120057D01*
X222737Y119594D01*
X222574Y119349D01*
X221314Y119349D01*
G37*
%LPD*%
M02*
