M48
;GenerationSoftware,Autodesk,EAGLE,9.6.2*%
;CreationDate,2021-05-14T20:33:20Z*%
FMAT,2
ICI,OFF
METRIC,TZ,000.000
T4C0.300
T3C0.400
T2C0.650
T1C1.016
%
G90
M71
T1
X16100Y10070
X12000Y7000
X9460Y7000
X6920Y7000
X4380Y7000
X50000Y7000
X47460Y7000
X44920Y7000
X42380Y7000
X16100Y7530
T2
X18110Y4555
X23890Y4555
T3
X16682Y905
X25318Y905
X25318Y5085
X16682Y5085
T4
X23500Y7500
X44800Y14100
X4000Y15000
X32500Y7000
X20500Y14200
X37560Y12700
X21095Y12513
X36000Y7000
X21000Y9500
X35000Y9000
X33500Y9000
X21700Y13400
X36600Y13400
X37800Y18000
X6900Y18100
X37300Y17000
X9600Y17000
X33156Y11433
X47300Y11400
X33500Y10600
X45000Y10600
X18600Y7500
X36845Y14233
M30