G04 EAGLE Gerber RS-274X export*
G75*
%MOMM*%
%FSLAX34Y34*%
%LPD*%
%INSilkscreen Bottom*%
%IPPOS*%
%AMOC8*
5,1,8,0,0,1.08239X$1,22.5*%
G01*
%ADD10C,0.152400*%
%ADD11C,0.203200*%
%ADD12C,1.000000*%

G36*
X547686Y39708D02*
X547686Y39708D01*
X547752Y39713D01*
X547770Y39724D01*
X547791Y39729D01*
X547876Y39789D01*
X547900Y39803D01*
X547903Y39808D01*
X547908Y39812D01*
X550108Y42112D01*
X550116Y42125D01*
X550129Y42135D01*
X550160Y42199D01*
X550196Y42261D01*
X550197Y42277D01*
X550204Y42291D01*
X550203Y42362D01*
X550209Y42433D01*
X550203Y42448D01*
X550202Y42464D01*
X550145Y42589D01*
X550143Y42593D01*
X550143Y42594D01*
X548275Y45209D01*
X548277Y45220D01*
X548286Y45233D01*
X548297Y45291D01*
X548306Y45312D01*
X548306Y45334D01*
X548312Y45367D01*
X548313Y45372D01*
X548313Y45373D01*
X548313Y45374D01*
X548313Y45384D01*
X548346Y45449D01*
X548402Y45506D01*
X548413Y45524D01*
X548425Y45533D01*
X548433Y45552D01*
X548473Y45604D01*
X548546Y45749D01*
X548602Y45806D01*
X548642Y45870D01*
X548686Y45933D01*
X548688Y45945D01*
X548693Y45953D01*
X548697Y45988D01*
X548713Y46074D01*
X548713Y46123D01*
X548742Y46170D01*
X548786Y46233D01*
X548788Y46245D01*
X548793Y46253D01*
X548797Y46288D01*
X548813Y46374D01*
X548813Y46484D01*
X548846Y46549D01*
X548902Y46606D01*
X548942Y46670D01*
X548986Y46733D01*
X548988Y46745D01*
X548993Y46753D01*
X548997Y46788D01*
X549003Y46821D01*
X549006Y46829D01*
X549006Y46837D01*
X549013Y46874D01*
X549013Y46923D01*
X549042Y46970D01*
X549086Y47033D01*
X549088Y47045D01*
X549093Y47053D01*
X549097Y47088D01*
X549113Y47174D01*
X549113Y47284D01*
X549142Y47342D01*
X552398Y47900D01*
X552416Y47907D01*
X552435Y47908D01*
X552495Y47941D01*
X552557Y47967D01*
X552570Y47982D01*
X552587Y47991D01*
X552626Y48047D01*
X552670Y48098D01*
X552675Y48117D01*
X552686Y48133D01*
X552708Y48244D01*
X552713Y48266D01*
X552712Y48270D01*
X552713Y48274D01*
X552713Y51474D01*
X552709Y51493D01*
X552711Y51512D01*
X552700Y51546D01*
X552699Y51553D01*
X552694Y51563D01*
X552689Y51576D01*
X552674Y51642D01*
X552661Y51657D01*
X552655Y51675D01*
X552607Y51723D01*
X552564Y51776D01*
X552546Y51783D01*
X552532Y51797D01*
X552426Y51837D01*
X552406Y51846D01*
X552402Y51846D01*
X552398Y51848D01*
X549186Y52398D01*
X549175Y52437D01*
X549174Y52442D01*
X549173Y52443D01*
X549113Y52563D01*
X549113Y52574D01*
X549110Y52589D01*
X549112Y52605D01*
X549092Y52675D01*
X549092Y52690D01*
X549084Y52704D01*
X549075Y52737D01*
X549074Y52742D01*
X549073Y52743D01*
X549013Y52863D01*
X549013Y52874D01*
X549010Y52889D01*
X549012Y52905D01*
X548975Y53037D01*
X548974Y53042D01*
X548973Y53043D01*
X548813Y53363D01*
X548813Y53374D01*
X548810Y53389D01*
X548812Y53405D01*
X548775Y53537D01*
X548774Y53542D01*
X548773Y53543D01*
X548673Y53743D01*
X548650Y53771D01*
X548613Y53825D01*
X548613Y53874D01*
X548596Y53948D01*
X548582Y54023D01*
X548576Y54033D01*
X548574Y54042D01*
X548551Y54070D01*
X548502Y54142D01*
X548446Y54198D01*
X548373Y54343D01*
X548350Y54371D01*
X548313Y54425D01*
X548313Y54474D01*
X548296Y54548D01*
X548292Y54570D01*
X550146Y57258D01*
X550152Y57274D01*
X550164Y57287D01*
X550184Y57354D01*
X550209Y57419D01*
X550208Y57437D01*
X550213Y57453D01*
X550200Y57522D01*
X550194Y57592D01*
X550185Y57606D01*
X550182Y57623D01*
X550111Y57729D01*
X550104Y57740D01*
X550103Y57740D01*
X550102Y57742D01*
X547902Y59942D01*
X547888Y59951D01*
X547877Y59965D01*
X547815Y59996D01*
X547755Y60033D01*
X547738Y60035D01*
X547723Y60042D01*
X547653Y60043D01*
X547583Y60049D01*
X547567Y60043D01*
X547550Y60043D01*
X547432Y59992D01*
X547421Y59988D01*
X547420Y59987D01*
X547419Y59986D01*
X544720Y58124D01*
X544702Y58142D01*
X544637Y58182D01*
X544575Y58226D01*
X544563Y58228D01*
X544555Y58233D01*
X544520Y58236D01*
X544434Y58253D01*
X544384Y58253D01*
X544372Y58261D01*
X544304Y58313D01*
X544159Y58385D01*
X544102Y58442D01*
X544037Y58482D01*
X543975Y58526D01*
X543963Y58528D01*
X543955Y58533D01*
X543920Y58536D01*
X543834Y58553D01*
X543784Y58553D01*
X543772Y58561D01*
X543704Y58613D01*
X543504Y58713D01*
X543488Y58717D01*
X543475Y58726D01*
X543341Y58752D01*
X543335Y58753D01*
X543334Y58753D01*
X543324Y58753D01*
X543204Y58813D01*
X543188Y58817D01*
X543175Y58826D01*
X543041Y58852D01*
X543035Y58853D01*
X543034Y58853D01*
X542984Y58853D01*
X542937Y58882D01*
X542875Y58926D01*
X542863Y58928D01*
X542855Y58933D01*
X542820Y58936D01*
X542734Y58953D01*
X542624Y58953D01*
X542566Y58982D01*
X542008Y62238D01*
X542000Y62256D01*
X541999Y62275D01*
X541967Y62334D01*
X541940Y62397D01*
X541926Y62410D01*
X541916Y62427D01*
X541861Y62466D01*
X541809Y62510D01*
X541790Y62515D01*
X541775Y62526D01*
X541664Y62547D01*
X541642Y62553D01*
X541638Y62552D01*
X541634Y62553D01*
X538434Y62553D01*
X538415Y62549D01*
X538396Y62551D01*
X538332Y62529D01*
X538266Y62513D01*
X538251Y62501D01*
X538232Y62495D01*
X538185Y62447D01*
X538132Y62403D01*
X538124Y62386D01*
X538111Y62372D01*
X538071Y62266D01*
X538062Y62245D01*
X538062Y62242D01*
X538060Y62238D01*
X537510Y59026D01*
X537471Y59015D01*
X537466Y59013D01*
X537465Y59013D01*
X537464Y59013D01*
X537344Y58953D01*
X537334Y58953D01*
X537318Y58949D01*
X537302Y58952D01*
X537171Y58915D01*
X537166Y58913D01*
X537165Y58913D01*
X537164Y58913D01*
X537044Y58853D01*
X537034Y58853D01*
X537018Y58849D01*
X537002Y58852D01*
X536871Y58815D01*
X536866Y58813D01*
X536865Y58813D01*
X536864Y58813D01*
X536744Y58753D01*
X536634Y58753D01*
X536560Y58736D01*
X536484Y58722D01*
X536475Y58716D01*
X536466Y58713D01*
X536438Y58691D01*
X536366Y58642D01*
X536309Y58585D01*
X536244Y58553D01*
X536234Y58553D01*
X536218Y58549D01*
X536202Y58552D01*
X536071Y58515D01*
X536066Y58513D01*
X536065Y58513D01*
X536064Y58513D01*
X535864Y58413D01*
X535837Y58390D01*
X535766Y58342D01*
X535709Y58285D01*
X535644Y58253D01*
X535634Y58253D01*
X535618Y58249D01*
X535602Y58252D01*
X535471Y58215D01*
X535466Y58213D01*
X535465Y58213D01*
X535464Y58213D01*
X535323Y58142D01*
X532649Y59986D01*
X532637Y59991D01*
X532628Y60000D01*
X532557Y60022D01*
X532488Y60049D01*
X532475Y60048D01*
X532463Y60052D01*
X532390Y60040D01*
X532316Y60034D01*
X532305Y60027D01*
X532292Y60025D01*
X532172Y59948D01*
X529872Y57748D01*
X529858Y57726D01*
X529838Y57710D01*
X529811Y57654D01*
X529777Y57603D01*
X529774Y57577D01*
X529763Y57554D01*
X529764Y57492D01*
X529757Y57431D01*
X529766Y57407D01*
X529766Y57381D01*
X529804Y57301D01*
X529815Y57268D01*
X529822Y57262D01*
X529827Y57251D01*
X531762Y54578D01*
X531722Y54498D01*
X531666Y54442D01*
X531626Y54377D01*
X531582Y54314D01*
X531580Y54303D01*
X531575Y54295D01*
X531571Y54260D01*
X531555Y54174D01*
X531555Y54124D01*
X531547Y54111D01*
X531495Y54043D01*
X531422Y53898D01*
X531366Y53842D01*
X531326Y53777D01*
X531282Y53714D01*
X531280Y53703D01*
X531275Y53695D01*
X531271Y53660D01*
X531255Y53574D01*
X531255Y53524D01*
X531226Y53477D01*
X531182Y53414D01*
X531180Y53403D01*
X531175Y53395D01*
X531171Y53360D01*
X531155Y53274D01*
X531155Y53163D01*
X531122Y53098D01*
X531066Y53042D01*
X531026Y52977D01*
X530982Y52914D01*
X530980Y52903D01*
X530975Y52895D01*
X530971Y52860D01*
X530955Y52774D01*
X530955Y52724D01*
X530926Y52677D01*
X530882Y52614D01*
X530880Y52603D01*
X530875Y52595D01*
X530871Y52560D01*
X530855Y52474D01*
X530855Y52395D01*
X527572Y51848D01*
X527553Y51840D01*
X527533Y51839D01*
X527474Y51807D01*
X527412Y51781D01*
X527399Y51766D01*
X527381Y51756D01*
X527343Y51701D01*
X527299Y51651D01*
X527293Y51631D01*
X527282Y51614D01*
X527266Y51533D01*
X527262Y51523D01*
X527262Y51512D01*
X527261Y51508D01*
X527255Y51483D01*
X527256Y51479D01*
X527255Y51474D01*
X527255Y48274D01*
X527259Y48255D01*
X527257Y48236D01*
X527279Y48171D01*
X527294Y48105D01*
X527307Y48090D01*
X527313Y48072D01*
X527361Y48024D01*
X527404Y47972D01*
X527422Y47964D01*
X527436Y47950D01*
X527542Y47910D01*
X527562Y47901D01*
X527566Y47901D01*
X527570Y47900D01*
X530858Y47336D01*
X530893Y47211D01*
X530894Y47205D01*
X530895Y47205D01*
X530895Y47204D01*
X530955Y47084D01*
X530955Y47074D01*
X530958Y47058D01*
X530956Y47042D01*
X530993Y46911D01*
X530994Y46905D01*
X530995Y46905D01*
X530995Y46904D01*
X531055Y46784D01*
X531055Y46774D01*
X531058Y46758D01*
X531056Y46742D01*
X531093Y46611D01*
X531094Y46605D01*
X531095Y46605D01*
X531095Y46604D01*
X531255Y46284D01*
X531255Y46274D01*
X531258Y46258D01*
X531256Y46242D01*
X531293Y46111D01*
X531294Y46105D01*
X531295Y46105D01*
X531295Y46104D01*
X531395Y45904D01*
X531418Y45876D01*
X531466Y45806D01*
X531522Y45749D01*
X531555Y45684D01*
X531555Y45674D01*
X531558Y45658D01*
X531556Y45642D01*
X531593Y45511D01*
X531594Y45505D01*
X531595Y45505D01*
X531595Y45504D01*
X531695Y45304D01*
X531718Y45276D01*
X531766Y45206D01*
X531776Y45195D01*
X529831Y42601D01*
X529821Y42579D01*
X529804Y42560D01*
X529786Y42500D01*
X529761Y42443D01*
X529762Y42418D01*
X529755Y42394D01*
X529766Y42333D01*
X529769Y42270D01*
X529781Y42248D01*
X529786Y42224D01*
X529837Y42149D01*
X529853Y42119D01*
X529860Y42114D01*
X529866Y42106D01*
X532166Y39806D01*
X532180Y39797D01*
X532191Y39783D01*
X532253Y39751D01*
X532313Y39714D01*
X532330Y39713D01*
X532345Y39705D01*
X532416Y39705D01*
X532485Y39698D01*
X532501Y39704D01*
X532518Y39704D01*
X532636Y39756D01*
X532647Y39760D01*
X532648Y39761D01*
X532649Y39761D01*
X535348Y41623D01*
X535366Y41606D01*
X535431Y41565D01*
X535493Y41521D01*
X535505Y41519D01*
X535513Y41514D01*
X535548Y41511D01*
X535563Y41508D01*
X535566Y41506D01*
X535631Y41465D01*
X535693Y41421D01*
X535705Y41419D01*
X535713Y41414D01*
X535748Y41411D01*
X535834Y41394D01*
X535884Y41394D01*
X535931Y41365D01*
X535993Y41321D01*
X536005Y41319D01*
X536013Y41314D01*
X536048Y41311D01*
X536063Y41308D01*
X536066Y41306D01*
X536131Y41265D01*
X536193Y41221D01*
X536205Y41219D01*
X536213Y41214D01*
X536248Y41211D01*
X536263Y41208D01*
X536266Y41206D01*
X536331Y41165D01*
X536393Y41121D01*
X536405Y41119D01*
X536413Y41114D01*
X536448Y41111D01*
X536477Y41105D01*
X536504Y41072D01*
X536523Y41064D01*
X536538Y41049D01*
X536601Y41029D01*
X536662Y41001D01*
X536683Y41002D01*
X536702Y40996D01*
X536768Y41006D01*
X536835Y41008D01*
X536853Y41018D01*
X536873Y41021D01*
X536928Y41059D01*
X536987Y41091D01*
X536999Y41108D01*
X537015Y41120D01*
X537072Y41212D01*
X537086Y41233D01*
X537087Y41238D01*
X537090Y41242D01*
X539090Y46642D01*
X539094Y46673D01*
X539106Y46701D01*
X539104Y46757D01*
X539111Y46814D01*
X539101Y46843D01*
X539100Y46874D01*
X539073Y46924D01*
X539054Y46977D01*
X539032Y46999D01*
X539017Y47026D01*
X538957Y47072D01*
X538930Y47098D01*
X538917Y47102D01*
X538904Y47113D01*
X538359Y47385D01*
X538202Y47542D01*
X538172Y47561D01*
X538104Y47613D01*
X537959Y47685D01*
X537646Y47998D01*
X537573Y48143D01*
X537550Y48171D01*
X537502Y48242D01*
X537346Y48398D01*
X537285Y48519D01*
X537194Y48794D01*
X537182Y48813D01*
X537173Y48843D01*
X537113Y48963D01*
X537113Y49074D01*
X537105Y49109D01*
X537094Y49194D01*
X537013Y49435D01*
X537013Y50212D01*
X537094Y50454D01*
X537097Y50490D01*
X537113Y50574D01*
X537113Y50759D01*
X537250Y50963D01*
X537263Y50998D01*
X537294Y51054D01*
X537378Y51306D01*
X537729Y51832D01*
X538076Y52179D01*
X538602Y52530D01*
X538854Y52614D01*
X538872Y52625D01*
X538886Y52628D01*
X538899Y52639D01*
X538944Y52658D01*
X539149Y52794D01*
X539334Y52794D01*
X539369Y52803D01*
X539454Y52814D01*
X539696Y52894D01*
X540287Y52894D01*
X540642Y52806D01*
X540678Y52805D01*
X540734Y52794D01*
X540919Y52794D01*
X541124Y52658D01*
X541159Y52645D01*
X541208Y52617D01*
X541210Y52616D01*
X541211Y52616D01*
X541214Y52614D01*
X541466Y52530D01*
X541693Y52379D01*
X541866Y52206D01*
X541892Y52189D01*
X541924Y52158D01*
X542193Y51979D01*
X542339Y51832D01*
X542690Y51306D01*
X543055Y50212D01*
X543055Y49735D01*
X542974Y49494D01*
X542971Y49458D01*
X542955Y49374D01*
X542955Y49163D01*
X542795Y48843D01*
X542789Y48821D01*
X542774Y48794D01*
X542683Y48519D01*
X542522Y48198D01*
X542366Y48042D01*
X542347Y48011D01*
X542295Y47943D01*
X542222Y47798D01*
X542109Y47685D01*
X541964Y47613D01*
X541937Y47590D01*
X541866Y47542D01*
X541709Y47385D01*
X541388Y47225D01*
X541114Y47133D01*
X541065Y47103D01*
X541012Y47081D01*
X540992Y47059D01*
X540967Y47043D01*
X540936Y46994D01*
X540899Y46951D01*
X540891Y46922D01*
X540875Y46896D01*
X540869Y46839D01*
X540855Y46783D01*
X540861Y46749D01*
X540858Y46724D01*
X540870Y46692D01*
X540878Y46642D01*
X542878Y41242D01*
X542904Y41204D01*
X542920Y41161D01*
X542951Y41133D01*
X542974Y41098D01*
X543014Y41075D01*
X543047Y41044D01*
X543087Y41032D01*
X543124Y41011D01*
X543169Y41008D01*
X543213Y40995D01*
X543254Y41002D01*
X543296Y41000D01*
X543339Y41017D01*
X543384Y41025D01*
X543425Y41053D01*
X543456Y41066D01*
X543473Y41086D01*
X543486Y41094D01*
X543534Y41094D01*
X543608Y41112D01*
X543684Y41125D01*
X543693Y41132D01*
X543702Y41134D01*
X543730Y41157D01*
X543802Y41206D01*
X543809Y41212D01*
X543884Y41225D01*
X543893Y41232D01*
X543902Y41234D01*
X543930Y41257D01*
X544002Y41306D01*
X544009Y41312D01*
X544084Y41325D01*
X544093Y41332D01*
X544102Y41334D01*
X544130Y41357D01*
X544202Y41406D01*
X544209Y41412D01*
X544284Y41425D01*
X544293Y41432D01*
X544302Y41434D01*
X544330Y41457D01*
X544402Y41506D01*
X544409Y41512D01*
X544484Y41525D01*
X544493Y41532D01*
X544502Y41534D01*
X544530Y41557D01*
X544602Y41606D01*
X544609Y41612D01*
X544684Y41625D01*
X544693Y41632D01*
X544702Y41634D01*
X544703Y41634D01*
X547419Y39761D01*
X547439Y39754D01*
X547455Y39740D01*
X547518Y39722D01*
X547580Y39698D01*
X547601Y39700D01*
X547622Y39695D01*
X547686Y39708D01*
G37*
G36*
X500140Y259891D02*
X500140Y259891D01*
X500191Y259893D01*
X500223Y259911D01*
X500259Y259919D01*
X500298Y259952D01*
X500343Y259976D01*
X500364Y260006D01*
X500392Y260029D01*
X500413Y260076D01*
X500443Y260118D01*
X500451Y260160D01*
X500463Y260188D01*
X500462Y260218D01*
X500470Y260260D01*
X500470Y273060D01*
X500466Y273078D01*
X500468Y273102D01*
X500268Y274902D01*
X500257Y274933D01*
X500251Y274980D01*
X500051Y275580D01*
X500038Y275600D01*
X500030Y275630D01*
X499730Y276230D01*
X499722Y276240D01*
X499716Y276256D01*
X499416Y276756D01*
X499402Y276770D01*
X499393Y276789D01*
X499316Y276859D01*
X499295Y276880D01*
X499290Y276882D01*
X499286Y276886D01*
X498802Y277176D01*
X498418Y277464D01*
X498383Y277479D01*
X498331Y277513D01*
X497331Y277913D01*
X497298Y277918D01*
X497253Y277935D01*
X496653Y278035D01*
X496626Y278033D01*
X496590Y278040D01*
X495790Y278040D01*
X495754Y278032D01*
X495698Y278029D01*
X495343Y277940D01*
X495190Y277940D01*
X495175Y277937D01*
X495160Y277939D01*
X495028Y277902D01*
X495021Y277901D01*
X495021Y277900D01*
X495020Y277900D01*
X494820Y277800D01*
X494801Y277784D01*
X494777Y277775D01*
X494735Y277729D01*
X494687Y277689D01*
X494677Y277667D01*
X494660Y277648D01*
X494642Y277588D01*
X494616Y277531D01*
X494618Y277506D01*
X494610Y277482D01*
X494621Y277420D01*
X494624Y277358D01*
X494636Y277336D01*
X494640Y277311D01*
X494689Y277238D01*
X494707Y277206D01*
X494715Y277201D01*
X494721Y277191D01*
X494821Y277091D01*
X494853Y277071D01*
X494920Y277020D01*
X495320Y276820D01*
X495343Y276814D01*
X495370Y276799D01*
X495585Y276728D01*
X495895Y276418D01*
X496045Y276192D01*
X496110Y275998D01*
X496110Y275822D01*
X496038Y275606D01*
X495878Y275285D01*
X495648Y275056D01*
X495412Y274898D01*
X494981Y274726D01*
X494552Y274640D01*
X493837Y274640D01*
X493146Y274813D01*
X492650Y275144D01*
X492329Y275545D01*
X492170Y276022D01*
X492170Y276582D01*
X492416Y277155D01*
X493076Y277909D01*
X493874Y278807D01*
X493875Y278809D01*
X493876Y278810D01*
X494576Y279610D01*
X494592Y279639D01*
X494622Y279675D01*
X495122Y280575D01*
X495133Y280613D01*
X495161Y280678D01*
X495361Y281578D01*
X495361Y281611D01*
X495370Y281660D01*
X495370Y282460D01*
X495362Y282497D01*
X495351Y282580D01*
X495051Y283480D01*
X495030Y283514D01*
X494999Y283581D01*
X494499Y284281D01*
X494473Y284304D01*
X494443Y284344D01*
X493543Y285144D01*
X493512Y285161D01*
X493472Y285194D01*
X492372Y285794D01*
X492336Y285804D01*
X492258Y285834D01*
X491158Y286034D01*
X491129Y286033D01*
X491090Y286040D01*
X490090Y286040D01*
X490053Y286032D01*
X489970Y286021D01*
X489070Y285721D01*
X489064Y285717D01*
X489057Y285716D01*
X488257Y285416D01*
X488242Y285406D01*
X488220Y285400D01*
X488054Y285317D01*
X487620Y285100D01*
X487598Y285082D01*
X487562Y285064D01*
X487162Y284764D01*
X487147Y284746D01*
X487121Y284729D01*
X487021Y284629D01*
X487008Y284607D01*
X486988Y284591D01*
X486962Y284534D01*
X486930Y284482D01*
X486927Y284456D01*
X486917Y284432D01*
X486919Y284371D01*
X486913Y284309D01*
X486922Y284285D01*
X486923Y284259D01*
X486953Y284205D01*
X486975Y284147D01*
X486994Y284130D01*
X487006Y284107D01*
X487057Y284072D01*
X487102Y284030D01*
X487127Y284022D01*
X487148Y284007D01*
X487232Y283991D01*
X487268Y283980D01*
X487278Y283982D01*
X487290Y283980D01*
X487590Y283980D01*
X487627Y283988D01*
X487710Y283999D01*
X487952Y284080D01*
X488143Y284080D01*
X488498Y283991D01*
X488506Y283991D01*
X488515Y283987D01*
X488966Y283897D01*
X489289Y283735D01*
X489610Y283495D01*
X489745Y283292D01*
X489829Y283040D01*
X489842Y283020D01*
X489850Y282990D01*
X489938Y282814D01*
X489989Y282660D01*
X489929Y282480D01*
X489928Y282467D01*
X489921Y282452D01*
X489837Y282116D01*
X489674Y281871D01*
X489666Y281851D01*
X489650Y281830D01*
X489478Y281485D01*
X489248Y281256D01*
X488979Y281076D01*
X488972Y281069D01*
X488962Y281064D01*
X488570Y280771D01*
X488299Y280590D01*
X487867Y280374D01*
X487600Y280240D01*
X487052Y280240D01*
X486859Y280305D01*
X486710Y280404D01*
X486570Y280822D01*
X486570Y281560D01*
X486558Y281610D01*
X486558Y281631D01*
X486557Y281655D01*
X486556Y281662D01*
X486539Y281694D01*
X486531Y281729D01*
X486498Y281769D01*
X486473Y281814D01*
X486443Y281835D01*
X486421Y281862D01*
X486373Y281884D01*
X486331Y281913D01*
X486295Y281919D01*
X486262Y281933D01*
X486211Y281931D01*
X486160Y281939D01*
X486119Y281928D01*
X486089Y281927D01*
X486062Y281912D01*
X486020Y281900D01*
X486009Y281895D01*
X485249Y281515D01*
X485220Y281500D01*
X485216Y281497D01*
X485106Y281413D01*
X484306Y280513D01*
X484291Y280485D01*
X484262Y280452D01*
X483562Y279252D01*
X483553Y279223D01*
X483532Y279188D01*
X483032Y277788D01*
X483029Y277762D01*
X483016Y277730D01*
X482716Y276130D01*
X482718Y276094D01*
X482710Y276039D01*
X482810Y274239D01*
X482820Y274207D01*
X482824Y274158D01*
X483324Y272358D01*
X483341Y272327D01*
X483358Y272275D01*
X484358Y270475D01*
X484375Y270457D01*
X484390Y270427D01*
X485090Y269527D01*
X485097Y269521D01*
X485101Y269513D01*
X485111Y269507D01*
X485121Y269491D01*
X485921Y268691D01*
X485931Y268685D01*
X485940Y268674D01*
X486740Y267974D01*
X486765Y267960D01*
X486794Y267934D01*
X487794Y267334D01*
X487819Y267326D01*
X487849Y267307D01*
X488849Y266907D01*
X488868Y266904D01*
X488890Y266893D01*
X489990Y266593D01*
X490007Y266593D01*
X490028Y266585D01*
X491228Y266385D01*
X491254Y266387D01*
X491290Y266380D01*
X493159Y266380D01*
X493656Y266297D01*
X494072Y266047D01*
X495022Y265287D01*
X495498Y264717D01*
X495510Y264707D01*
X495521Y264691D01*
X496799Y263414D01*
X497281Y262739D01*
X497301Y262721D01*
X497321Y262691D01*
X497909Y262103D01*
X498398Y261517D01*
X498410Y261507D01*
X498421Y261491D01*
X498902Y261010D01*
X499186Y260632D01*
X499204Y260617D01*
X499221Y260591D01*
X499495Y260318D01*
X499674Y260049D01*
X499693Y260031D01*
X499706Y260007D01*
X499756Y259972D01*
X499800Y259931D01*
X499826Y259923D01*
X499848Y259907D01*
X499929Y259892D01*
X499966Y259881D01*
X499977Y259882D01*
X499990Y259880D01*
X500090Y259880D01*
X500140Y259891D01*
G37*
G36*
X545829Y234391D02*
X545829Y234391D01*
X545891Y234393D01*
X545913Y234406D01*
X545939Y234410D01*
X546010Y234458D01*
X546043Y234476D01*
X546049Y234484D01*
X546059Y234491D01*
X546944Y235376D01*
X548428Y236563D01*
X548439Y236578D01*
X548459Y236591D01*
X549344Y237476D01*
X549828Y237863D01*
X549834Y237871D01*
X549843Y237876D01*
X549887Y237939D01*
X549935Y237999D01*
X549937Y238009D01*
X549943Y238018D01*
X549958Y238099D01*
X549963Y238110D01*
X549963Y238122D01*
X549970Y238160D01*
X549970Y256660D01*
X549969Y256664D01*
X549970Y256669D01*
X549950Y256749D01*
X549931Y256829D01*
X549928Y256832D01*
X549927Y256837D01*
X549873Y256899D01*
X549821Y256962D01*
X549816Y256964D01*
X549814Y256968D01*
X549682Y257029D01*
X549282Y257129D01*
X549274Y257129D01*
X549265Y257133D01*
X548765Y257233D01*
X548733Y257232D01*
X548690Y257240D01*
X548237Y257240D01*
X547882Y257329D01*
X547874Y257329D01*
X547865Y257333D01*
X547373Y257431D01*
X546982Y257529D01*
X546974Y257529D01*
X546965Y257533D01*
X545965Y257733D01*
X545963Y257733D01*
X545962Y257733D01*
X545878Y257730D01*
X545791Y257727D01*
X545790Y257727D01*
X545789Y257727D01*
X545715Y257686D01*
X545639Y257645D01*
X545638Y257644D01*
X545637Y257644D01*
X545589Y257575D01*
X545538Y257504D01*
X545538Y257503D01*
X545537Y257502D01*
X545510Y257360D01*
X545510Y256578D01*
X545359Y256729D01*
X545343Y256739D01*
X545328Y256757D01*
X544828Y257157D01*
X544807Y257167D01*
X544786Y257186D01*
X543786Y257786D01*
X543773Y257790D01*
X543653Y257835D01*
X542453Y258035D01*
X542426Y258033D01*
X542390Y258040D01*
X541690Y258040D01*
X541679Y258038D01*
X541665Y258039D01*
X540165Y257939D01*
X540128Y257928D01*
X540062Y257918D01*
X538662Y257418D01*
X538633Y257399D01*
X538586Y257381D01*
X537486Y256681D01*
X537459Y256653D01*
X537407Y256614D01*
X536507Y255614D01*
X536494Y255591D01*
X536469Y255564D01*
X535769Y254464D01*
X535757Y254428D01*
X535727Y254372D01*
X535327Y253072D01*
X535326Y253057D01*
X535318Y253040D01*
X535018Y251640D01*
X535019Y251616D01*
X535011Y251585D01*
X534911Y250085D01*
X534914Y250063D01*
X534911Y250033D01*
X535011Y248633D01*
X535018Y248609D01*
X535020Y248575D01*
X535320Y247275D01*
X535332Y247250D01*
X535339Y247214D01*
X535839Y246014D01*
X535849Y245999D01*
X535856Y245978D01*
X536456Y244878D01*
X536482Y244849D01*
X536521Y244791D01*
X537421Y243891D01*
X537443Y243878D01*
X537466Y243852D01*
X538566Y243052D01*
X538602Y243037D01*
X538670Y242999D01*
X539870Y242599D01*
X539900Y242596D01*
X539940Y242583D01*
X541440Y242383D01*
X541479Y242387D01*
X541553Y242385D01*
X543353Y242685D01*
X543389Y242700D01*
X543460Y242720D01*
X543590Y242785D01*
X544060Y243020D01*
X544070Y243028D01*
X544086Y243034D01*
X545086Y243634D01*
X545106Y243654D01*
X545187Y243722D01*
X545410Y244001D01*
X545410Y234760D01*
X545416Y234735D01*
X545413Y234709D01*
X545435Y234652D01*
X545449Y234591D01*
X545466Y234571D01*
X545475Y234547D01*
X545520Y234505D01*
X545559Y234458D01*
X545583Y234447D01*
X545602Y234430D01*
X545661Y234412D01*
X545718Y234387D01*
X545743Y234388D01*
X545768Y234380D01*
X545829Y234391D01*
G37*
G36*
X529820Y242387D02*
X529820Y242387D01*
X529865Y242387D01*
X530328Y242480D01*
X530790Y242480D01*
X530826Y242488D01*
X530882Y242491D01*
X531282Y242591D01*
X531302Y242601D01*
X531331Y242607D01*
X531831Y242807D01*
X531843Y242815D01*
X531860Y242820D01*
X532260Y243020D01*
X532276Y243033D01*
X532301Y243044D01*
X532581Y243231D01*
X532960Y243420D01*
X532989Y243444D01*
X533059Y243491D01*
X533359Y243791D01*
X533375Y243818D01*
X533406Y243849D01*
X533601Y244140D01*
X533894Y244532D01*
X533898Y244541D01*
X533906Y244549D01*
X534106Y244849D01*
X534107Y244850D01*
X534108Y244851D01*
X534163Y244985D01*
X534253Y245436D01*
X534430Y245790D01*
X534434Y245805D01*
X534443Y245818D01*
X534469Y245952D01*
X534470Y245959D01*
X534470Y245960D01*
X534470Y246422D01*
X534563Y246885D01*
X534563Y246895D01*
X534564Y247028D01*
X534364Y248128D01*
X534355Y248150D01*
X534351Y248180D01*
X534051Y249080D01*
X534034Y249107D01*
X534020Y249149D01*
X533620Y249849D01*
X533597Y249873D01*
X533537Y249949D01*
X532837Y250549D01*
X532811Y250563D01*
X532779Y250590D01*
X532079Y250990D01*
X532053Y250998D01*
X532024Y251016D01*
X531224Y251316D01*
X531205Y251319D01*
X531182Y251329D01*
X530382Y251529D01*
X530360Y251529D01*
X530332Y251538D01*
X529432Y251638D01*
X527638Y251837D01*
X526969Y251933D01*
X526303Y252123D01*
X525750Y252308D01*
X525350Y252548D01*
X525170Y252787D01*
X525170Y253670D01*
X525403Y254135D01*
X525459Y254191D01*
X525479Y254223D01*
X525530Y254290D01*
X525573Y254377D01*
X525980Y254580D01*
X526090Y254580D01*
X526105Y254583D01*
X526120Y254581D01*
X526252Y254618D01*
X526259Y254619D01*
X526259Y254620D01*
X526260Y254620D01*
X526380Y254680D01*
X528000Y254680D01*
X528865Y254248D01*
X529178Y253935D01*
X529238Y253814D01*
X529329Y253540D01*
X529342Y253520D01*
X529350Y253490D01*
X529410Y253370D01*
X529410Y252960D01*
X529421Y252910D01*
X529423Y252859D01*
X529441Y252827D01*
X529449Y252791D01*
X529482Y252752D01*
X529506Y252707D01*
X529536Y252686D01*
X529559Y252658D01*
X529606Y252637D01*
X529648Y252607D01*
X529690Y252599D01*
X529718Y252587D01*
X529748Y252588D01*
X529790Y252580D01*
X533690Y252580D01*
X533770Y252598D01*
X533850Y252615D01*
X533854Y252618D01*
X533859Y252619D01*
X533922Y252672D01*
X533986Y252722D01*
X533988Y252726D01*
X533992Y252729D01*
X534026Y252804D01*
X534061Y252878D01*
X534061Y252883D01*
X534063Y252888D01*
X534062Y252915D01*
X534065Y253023D01*
X533865Y254223D01*
X533855Y254246D01*
X533855Y254248D01*
X533854Y254268D01*
X533852Y254273D01*
X533851Y254280D01*
X533651Y254880D01*
X533631Y254912D01*
X533594Y254988D01*
X533306Y255372D01*
X533016Y255856D01*
X533004Y255868D01*
X532994Y255888D01*
X532694Y256288D01*
X532669Y256309D01*
X532662Y256322D01*
X532647Y256333D01*
X532618Y256364D01*
X532218Y256664D01*
X532202Y256671D01*
X532186Y256686D01*
X531186Y257286D01*
X531161Y257294D01*
X531131Y257313D01*
X530631Y257513D01*
X530602Y257517D01*
X530565Y257533D01*
X530088Y257628D01*
X529510Y257821D01*
X529485Y257823D01*
X529453Y257835D01*
X528859Y257934D01*
X528365Y258033D01*
X528333Y258032D01*
X528290Y258040D01*
X525990Y258040D01*
X525960Y258033D01*
X525915Y258033D01*
X525452Y257940D01*
X524890Y257940D01*
X524860Y257933D01*
X524815Y257933D01*
X524315Y257833D01*
X524289Y257821D01*
X524249Y257813D01*
X523781Y257626D01*
X523315Y257533D01*
X523289Y257521D01*
X523249Y257513D01*
X522749Y257313D01*
X522718Y257291D01*
X522662Y257264D01*
X521462Y256364D01*
X521437Y256334D01*
X521386Y256288D01*
X521086Y255888D01*
X521074Y255862D01*
X521050Y255830D01*
X520850Y255430D01*
X520847Y255416D01*
X520837Y255401D01*
X520637Y254901D01*
X520633Y254872D01*
X520617Y254835D01*
X520517Y254335D01*
X520518Y254303D01*
X520510Y254260D01*
X520510Y245650D01*
X520450Y245530D01*
X520446Y245515D01*
X520437Y245502D01*
X520411Y245368D01*
X520410Y245362D01*
X520410Y245361D01*
X520410Y245360D01*
X520410Y244550D01*
X520350Y244430D01*
X520346Y244415D01*
X520337Y244402D01*
X520328Y244356D01*
X520327Y244353D01*
X520327Y244351D01*
X520311Y244268D01*
X520310Y244262D01*
X520310Y244261D01*
X520310Y244260D01*
X520310Y244150D01*
X520250Y244030D01*
X520246Y244015D01*
X520237Y244002D01*
X520211Y243868D01*
X520210Y243862D01*
X520210Y243861D01*
X520210Y243860D01*
X520210Y243650D01*
X520178Y243585D01*
X520121Y243529D01*
X520081Y243464D01*
X520037Y243402D01*
X520035Y243390D01*
X520030Y243382D01*
X520026Y243345D01*
X520010Y243260D01*
X520010Y243160D01*
X520021Y243110D01*
X520023Y243059D01*
X520041Y243027D01*
X520049Y242991D01*
X520082Y242952D01*
X520106Y242907D01*
X520136Y242886D01*
X520159Y242858D01*
X520206Y242837D01*
X520248Y242807D01*
X520290Y242799D01*
X520318Y242787D01*
X520348Y242788D01*
X520390Y242780D01*
X524290Y242780D01*
X524340Y242791D01*
X524391Y242793D01*
X524423Y242811D01*
X524459Y242819D01*
X524498Y242852D01*
X524543Y242876D01*
X524564Y242906D01*
X524592Y242929D01*
X524613Y242976D01*
X524643Y243018D01*
X524651Y243060D01*
X524663Y243088D01*
X524663Y243098D01*
X524699Y243156D01*
X524743Y243218D01*
X524745Y243230D01*
X524750Y243238D01*
X524754Y243275D01*
X524756Y243289D01*
X524759Y243291D01*
X524799Y243356D01*
X524843Y243418D01*
X524845Y243430D01*
X524850Y243438D01*
X524854Y243475D01*
X524870Y243560D01*
X524870Y243709D01*
X524883Y243730D01*
X525021Y243591D01*
X525048Y243575D01*
X525079Y243544D01*
X525379Y243344D01*
X525415Y243330D01*
X525470Y243299D01*
X525722Y243215D01*
X525979Y243044D01*
X526015Y243030D01*
X526070Y242999D01*
X527270Y242599D01*
X527307Y242596D01*
X527390Y242580D01*
X527628Y242580D01*
X527870Y242499D01*
X527907Y242496D01*
X527990Y242480D01*
X528328Y242480D01*
X528570Y242399D01*
X528607Y242396D01*
X528690Y242380D01*
X529790Y242380D01*
X529820Y242387D01*
G37*
G36*
X498822Y242787D02*
X498822Y242787D01*
X498856Y242785D01*
X498906Y242807D01*
X498959Y242819D01*
X498984Y242840D01*
X499015Y242853D01*
X499062Y242905D01*
X499092Y242929D01*
X499099Y242945D01*
X499113Y242960D01*
X502769Y248866D01*
X503810Y247895D01*
X503810Y243160D01*
X503821Y243110D01*
X503823Y243059D01*
X503841Y243027D01*
X503849Y242991D01*
X503882Y242952D01*
X503906Y242907D01*
X503936Y242886D01*
X503959Y242858D01*
X504006Y242837D01*
X504048Y242807D01*
X504090Y242799D01*
X504118Y242787D01*
X504148Y242788D01*
X504190Y242780D01*
X508090Y242780D01*
X508140Y242791D01*
X508191Y242793D01*
X508223Y242811D01*
X508259Y242819D01*
X508298Y242852D01*
X508343Y242876D01*
X508364Y242906D01*
X508392Y242929D01*
X508413Y242976D01*
X508443Y243018D01*
X508451Y243060D01*
X508463Y243088D01*
X508462Y243118D01*
X508470Y243160D01*
X508470Y260560D01*
X508460Y260603D01*
X508460Y260648D01*
X508441Y260687D01*
X508431Y260729D01*
X508402Y260763D01*
X508382Y260803D01*
X508343Y260836D01*
X508321Y260862D01*
X508297Y260873D01*
X508270Y260895D01*
X504370Y262995D01*
X504315Y263010D01*
X504262Y263033D01*
X504232Y263032D01*
X504203Y263040D01*
X504147Y263029D01*
X504089Y263027D01*
X504063Y263012D01*
X504033Y263006D01*
X503988Y262971D01*
X503937Y262944D01*
X503920Y262919D01*
X503896Y262901D01*
X503870Y262849D01*
X503837Y262802D01*
X503831Y262768D01*
X503819Y262745D01*
X503820Y262710D01*
X503810Y262660D01*
X503810Y253205D01*
X499564Y257623D01*
X499497Y257667D01*
X499432Y257713D01*
X499424Y257714D01*
X499419Y257718D01*
X499386Y257722D01*
X499290Y257740D01*
X494690Y257740D01*
X494663Y257734D01*
X494636Y257736D01*
X494580Y257714D01*
X494521Y257701D01*
X494500Y257683D01*
X494474Y257673D01*
X494434Y257629D01*
X494388Y257591D01*
X494376Y257565D01*
X494358Y257545D01*
X494341Y257487D01*
X494317Y257432D01*
X494318Y257405D01*
X494310Y257378D01*
X494321Y257319D01*
X494323Y257259D01*
X494337Y257235D01*
X494342Y257208D01*
X494388Y257141D01*
X494406Y257107D01*
X494416Y257100D01*
X494424Y257089D01*
X499501Y252107D01*
X493772Y243368D01*
X493747Y243299D01*
X493717Y243232D01*
X493717Y243219D01*
X493713Y243206D01*
X493721Y243133D01*
X493723Y243059D01*
X493730Y243047D01*
X493731Y243034D01*
X493771Y242972D01*
X493806Y242907D01*
X493817Y242899D01*
X493825Y242888D01*
X493888Y242850D01*
X493948Y242807D01*
X493963Y242804D01*
X493973Y242798D01*
X494012Y242795D01*
X494090Y242780D01*
X498790Y242780D01*
X498822Y242787D01*
G37*
G36*
X459340Y242791D02*
X459340Y242791D01*
X459391Y242793D01*
X459423Y242811D01*
X459459Y242819D01*
X459498Y242852D01*
X459543Y242876D01*
X459564Y242906D01*
X459592Y242929D01*
X459613Y242976D01*
X459643Y243018D01*
X459651Y243060D01*
X459663Y243088D01*
X459662Y243118D01*
X459670Y243160D01*
X459670Y251136D01*
X459767Y251909D01*
X459866Y252603D01*
X459953Y253126D01*
X460206Y253548D01*
X460450Y253872D01*
X460829Y254100D01*
X461259Y254186D01*
X461798Y254276D01*
X462535Y254184D01*
X463056Y254097D01*
X463436Y253869D01*
X463777Y253442D01*
X464051Y252986D01*
X464318Y252362D01*
X464410Y251539D01*
X464410Y243160D01*
X464421Y243110D01*
X464423Y243059D01*
X464441Y243027D01*
X464449Y242991D01*
X464482Y242952D01*
X464506Y242907D01*
X464536Y242886D01*
X464559Y242858D01*
X464606Y242837D01*
X464648Y242807D01*
X464690Y242799D01*
X464718Y242787D01*
X464748Y242788D01*
X464790Y242780D01*
X468690Y242780D01*
X468740Y242791D01*
X468791Y242793D01*
X468823Y242811D01*
X468859Y242819D01*
X468898Y242852D01*
X468943Y242876D01*
X468964Y242906D01*
X468992Y242929D01*
X469013Y242976D01*
X469043Y243018D01*
X469051Y243060D01*
X469063Y243088D01*
X469062Y243118D01*
X469070Y243160D01*
X469070Y257360D01*
X469059Y257410D01*
X469057Y257461D01*
X469039Y257493D01*
X469031Y257529D01*
X468998Y257568D01*
X468974Y257613D01*
X468944Y257634D01*
X468921Y257662D01*
X468874Y257683D01*
X468832Y257713D01*
X468790Y257721D01*
X468762Y257733D01*
X468732Y257732D01*
X468690Y257740D01*
X464990Y257740D01*
X464940Y257729D01*
X464889Y257727D01*
X464857Y257709D01*
X464821Y257701D01*
X464782Y257668D01*
X464737Y257644D01*
X464716Y257614D01*
X464688Y257591D01*
X464667Y257544D01*
X464637Y257502D01*
X464629Y257460D01*
X464617Y257432D01*
X464618Y257402D01*
X464610Y257360D01*
X464610Y256378D01*
X464359Y256629D01*
X464343Y256639D01*
X464328Y256657D01*
X463828Y257057D01*
X463814Y257063D01*
X463801Y257076D01*
X463201Y257476D01*
X463165Y257490D01*
X463110Y257521D01*
X461910Y257921D01*
X461885Y257923D01*
X461853Y257935D01*
X461253Y258035D01*
X461226Y258033D01*
X461190Y258040D01*
X460590Y258040D01*
X460578Y258037D01*
X460563Y258039D01*
X459163Y257939D01*
X459133Y257930D01*
X459090Y257927D01*
X457990Y257627D01*
X457958Y257610D01*
X457905Y257592D01*
X457005Y257092D01*
X456977Y257066D01*
X456921Y257029D01*
X456221Y256329D01*
X456203Y256299D01*
X456168Y256262D01*
X455668Y255462D01*
X455655Y255425D01*
X455626Y255369D01*
X455326Y254369D01*
X455325Y254350D01*
X455316Y254328D01*
X455116Y253228D01*
X455117Y253211D01*
X455111Y253189D01*
X455011Y251889D01*
X455013Y251876D01*
X455010Y251860D01*
X455010Y243160D01*
X455021Y243110D01*
X455023Y243059D01*
X455041Y243027D01*
X455049Y242991D01*
X455082Y242952D01*
X455106Y242907D01*
X455136Y242886D01*
X455159Y242858D01*
X455206Y242837D01*
X455248Y242807D01*
X455290Y242799D01*
X455318Y242787D01*
X455348Y242788D01*
X455390Y242780D01*
X459290Y242780D01*
X459340Y242791D01*
G37*
G36*
X480317Y242481D02*
X480317Y242481D01*
X480354Y242492D01*
X480420Y242503D01*
X481520Y242903D01*
X481542Y242917D01*
X481575Y242928D01*
X482475Y243428D01*
X482498Y243449D01*
X482537Y243471D01*
X483237Y244071D01*
X483254Y244094D01*
X483322Y244175D01*
X483822Y245075D01*
X483832Y245108D01*
X483854Y245151D01*
X484154Y246151D01*
X484155Y246170D01*
X484164Y246192D01*
X484364Y247292D01*
X484363Y247321D01*
X484370Y247360D01*
X484370Y257360D01*
X484359Y257410D01*
X484357Y257461D01*
X484339Y257493D01*
X484331Y257529D01*
X484298Y257568D01*
X484274Y257613D01*
X484244Y257634D01*
X484221Y257662D01*
X484174Y257683D01*
X484132Y257713D01*
X484090Y257721D01*
X484062Y257733D01*
X484032Y257732D01*
X483990Y257740D01*
X480190Y257740D01*
X480140Y257729D01*
X480089Y257727D01*
X480057Y257709D01*
X480021Y257701D01*
X479982Y257668D01*
X479937Y257644D01*
X479916Y257614D01*
X479888Y257591D01*
X479867Y257544D01*
X479837Y257502D01*
X479829Y257460D01*
X479817Y257432D01*
X479818Y257402D01*
X479810Y257360D01*
X479810Y249384D01*
X479614Y247815D01*
X479530Y247314D01*
X479031Y246648D01*
X478651Y246420D01*
X478221Y246334D01*
X477682Y246244D01*
X476945Y246336D01*
X476424Y246423D01*
X476026Y246662D01*
X475703Y246985D01*
X475435Y247520D01*
X475161Y248160D01*
X475070Y248884D01*
X475070Y257360D01*
X475059Y257410D01*
X475057Y257461D01*
X475039Y257493D01*
X475031Y257529D01*
X474998Y257568D01*
X474974Y257613D01*
X474944Y257634D01*
X474921Y257662D01*
X474874Y257683D01*
X474832Y257713D01*
X474790Y257721D01*
X474762Y257733D01*
X474732Y257732D01*
X474690Y257740D01*
X470790Y257740D01*
X470740Y257729D01*
X470689Y257727D01*
X470657Y257709D01*
X470621Y257701D01*
X470582Y257668D01*
X470537Y257644D01*
X470516Y257614D01*
X470488Y257591D01*
X470467Y257544D01*
X470437Y257502D01*
X470429Y257460D01*
X470417Y257432D01*
X470418Y257402D01*
X470410Y257360D01*
X470410Y243160D01*
X470421Y243110D01*
X470423Y243059D01*
X470441Y243027D01*
X470449Y242991D01*
X470482Y242952D01*
X470506Y242907D01*
X470536Y242886D01*
X470559Y242858D01*
X470606Y242837D01*
X470648Y242807D01*
X470690Y242799D01*
X470718Y242787D01*
X470748Y242788D01*
X470790Y242780D01*
X474490Y242780D01*
X474540Y242791D01*
X474591Y242793D01*
X474623Y242811D01*
X474659Y242819D01*
X474698Y242852D01*
X474743Y242876D01*
X474764Y242906D01*
X474792Y242929D01*
X474813Y242976D01*
X474843Y243018D01*
X474851Y243060D01*
X474863Y243088D01*
X474862Y243118D01*
X474870Y243160D01*
X474870Y244101D01*
X475093Y243822D01*
X475120Y243801D01*
X475152Y243763D01*
X475652Y243363D01*
X475682Y243349D01*
X475720Y243320D01*
X476320Y243020D01*
X476334Y243017D01*
X476349Y243007D01*
X476849Y242807D01*
X476859Y242805D01*
X476870Y242799D01*
X477470Y242599D01*
X477499Y242597D01*
X477536Y242584D01*
X478233Y242484D01*
X478828Y242385D01*
X478863Y242387D01*
X478917Y242381D01*
X480317Y242481D01*
G37*
G36*
X558922Y242481D02*
X558922Y242481D01*
X558935Y242485D01*
X558953Y242485D01*
X560153Y242685D01*
X560168Y242692D01*
X560190Y242693D01*
X561290Y242993D01*
X561318Y243008D01*
X561360Y243020D01*
X561680Y243180D01*
X562360Y243520D01*
X562389Y243544D01*
X562440Y243574D01*
X563240Y244274D01*
X563258Y244299D01*
X563290Y244327D01*
X563990Y245227D01*
X564006Y245262D01*
X564043Y245319D01*
X564443Y246319D01*
X564448Y246353D01*
X564466Y246402D01*
X564666Y247702D01*
X564660Y247782D01*
X564657Y247861D01*
X564653Y247867D01*
X564652Y247875D01*
X564612Y247943D01*
X564574Y248013D01*
X564568Y248017D01*
X564564Y248024D01*
X564497Y248067D01*
X564432Y248113D01*
X564424Y248114D01*
X564418Y248118D01*
X564385Y248122D01*
X564290Y248140D01*
X560590Y248140D01*
X560540Y248129D01*
X560489Y248127D01*
X560457Y248109D01*
X560421Y248101D01*
X560382Y248068D01*
X560337Y248044D01*
X560316Y248014D01*
X560288Y247991D01*
X560267Y247944D01*
X560237Y247902D01*
X560229Y247860D01*
X560217Y247832D01*
X560218Y247802D01*
X560210Y247760D01*
X560210Y247233D01*
X560056Y246848D01*
X559818Y246532D01*
X559136Y246020D01*
X558628Y245935D01*
X558622Y245933D01*
X558615Y245933D01*
X558121Y245834D01*
X557606Y245748D01*
X557282Y245829D01*
X557246Y245829D01*
X557190Y245840D01*
X556837Y245840D01*
X556523Y245919D01*
X556191Y246085D01*
X555840Y246348D01*
X555633Y246554D01*
X555482Y247160D01*
X555549Y247427D01*
X555690Y247710D01*
X556002Y247944D01*
X556450Y248212D01*
X556996Y248395D01*
X558573Y248789D01*
X559565Y248987D01*
X559568Y248989D01*
X559573Y248989D01*
X560473Y249189D01*
X560493Y249199D01*
X560524Y249204D01*
X561324Y249504D01*
X561330Y249508D01*
X561340Y249511D01*
X562040Y249811D01*
X562055Y249822D01*
X562079Y249830D01*
X562779Y250230D01*
X562787Y250238D01*
X562801Y250244D01*
X563401Y250644D01*
X563402Y250645D01*
X563405Y250646D01*
X563506Y250749D01*
X563906Y251349D01*
X563917Y251377D01*
X563940Y251410D01*
X564240Y252110D01*
X564246Y252149D01*
X564252Y252168D01*
X564264Y252194D01*
X564264Y252204D01*
X564268Y252218D01*
X564368Y253118D01*
X564364Y253149D01*
X564369Y253192D01*
X564269Y254392D01*
X564257Y254429D01*
X564243Y254501D01*
X563843Y255501D01*
X563823Y255530D01*
X563776Y255610D01*
X563076Y256410D01*
X563057Y256424D01*
X563037Y256449D01*
X562337Y257049D01*
X562305Y257066D01*
X562260Y257100D01*
X561260Y257600D01*
X561223Y257609D01*
X561165Y257633D01*
X560165Y257833D01*
X560162Y257833D01*
X560158Y257834D01*
X559058Y258034D01*
X559029Y258033D01*
X558990Y258040D01*
X556690Y258040D01*
X556662Y258034D01*
X556622Y258034D01*
X555522Y257834D01*
X555505Y257827D01*
X555481Y257824D01*
X554481Y257524D01*
X554462Y257514D01*
X554436Y257507D01*
X553536Y257107D01*
X553508Y257087D01*
X553462Y257064D01*
X552662Y256464D01*
X552637Y256434D01*
X552586Y256388D01*
X551986Y255588D01*
X551974Y255562D01*
X551950Y255530D01*
X551450Y254530D01*
X551441Y254492D01*
X551415Y254423D01*
X551215Y253223D01*
X551220Y253141D01*
X551223Y253059D01*
X551226Y253055D01*
X551226Y253050D01*
X551267Y252979D01*
X551306Y252907D01*
X551310Y252904D01*
X551313Y252900D01*
X551381Y252854D01*
X551448Y252807D01*
X551453Y252806D01*
X551457Y252804D01*
X551485Y252800D01*
X551590Y252780D01*
X555290Y252780D01*
X555303Y252783D01*
X555317Y252781D01*
X555387Y252802D01*
X555459Y252819D01*
X555469Y252828D01*
X555482Y252832D01*
X555536Y252883D01*
X555592Y252929D01*
X555598Y252942D01*
X555608Y252951D01*
X555663Y253085D01*
X555756Y253551D01*
X555928Y253982D01*
X556064Y254186D01*
X556281Y254331D01*
X556646Y254513D01*
X557063Y254680D01*
X558628Y254680D01*
X558870Y254599D01*
X558883Y254598D01*
X558898Y254591D01*
X559284Y254495D01*
X559446Y254441D01*
X559710Y254045D01*
X559710Y253807D01*
X559640Y253527D01*
X559418Y253232D01*
X559089Y252985D01*
X558544Y252712D01*
X558005Y252533D01*
X557243Y252437D01*
X557224Y252430D01*
X557198Y252429D01*
X554802Y251830D01*
X553908Y251631D01*
X553872Y251614D01*
X553801Y251590D01*
X552401Y250790D01*
X552381Y250771D01*
X552347Y250752D01*
X551747Y250252D01*
X551723Y250221D01*
X551718Y250216D01*
X551717Y250215D01*
X551674Y250171D01*
X551274Y249571D01*
X551263Y249543D01*
X551241Y249510D01*
X550941Y248810D01*
X550934Y248771D01*
X550912Y248702D01*
X550812Y247802D01*
X550817Y247764D01*
X550814Y247702D01*
X551014Y246402D01*
X551026Y246373D01*
X551033Y246330D01*
X551433Y245230D01*
X551454Y245197D01*
X551486Y245132D01*
X552086Y244332D01*
X552111Y244311D01*
X552140Y244274D01*
X552940Y243574D01*
X552973Y243556D01*
X553020Y243520D01*
X554020Y243020D01*
X554050Y243013D01*
X554090Y242993D01*
X555190Y242693D01*
X555207Y242693D01*
X555228Y242685D01*
X556428Y242485D01*
X556442Y242486D01*
X556458Y242481D01*
X557658Y242381D01*
X557685Y242385D01*
X557722Y242381D01*
X558922Y242481D01*
G37*
G36*
X491740Y242791D02*
X491740Y242791D01*
X491791Y242793D01*
X491823Y242811D01*
X491859Y242819D01*
X491898Y242852D01*
X491943Y242876D01*
X491964Y242906D01*
X491992Y242929D01*
X492013Y242976D01*
X492043Y243018D01*
X492051Y243060D01*
X492063Y243088D01*
X492062Y243118D01*
X492070Y243160D01*
X492070Y254380D01*
X495590Y254380D01*
X495641Y254392D01*
X495694Y254394D01*
X495724Y254411D01*
X495759Y254419D01*
X495799Y254453D01*
X495845Y254478D01*
X495865Y254507D01*
X495892Y254529D01*
X495914Y254577D01*
X495944Y254621D01*
X495949Y254655D01*
X495963Y254688D01*
X495961Y254740D01*
X495969Y254792D01*
X495958Y254825D01*
X495957Y254861D01*
X495932Y254907D01*
X495915Y254957D01*
X495888Y254987D01*
X495874Y255013D01*
X495848Y255031D01*
X495818Y255064D01*
X495440Y255348D01*
X493859Y256929D01*
X493839Y256941D01*
X493818Y256964D01*
X493462Y257232D01*
X493194Y257588D01*
X493182Y257599D01*
X493174Y257613D01*
X493116Y257654D01*
X493061Y257699D01*
X493046Y257703D01*
X493032Y257713D01*
X492905Y257737D01*
X492893Y257740D01*
X492892Y257740D01*
X492890Y257740D01*
X492070Y257740D01*
X492070Y259360D01*
X492064Y259386D01*
X492046Y259494D01*
X491746Y260294D01*
X491742Y260300D01*
X491740Y260310D01*
X491440Y261010D01*
X491416Y261041D01*
X491382Y261103D01*
X490882Y261703D01*
X490852Y261726D01*
X490811Y261769D01*
X490111Y262269D01*
X490087Y262279D01*
X490060Y262300D01*
X489260Y262700D01*
X489233Y262707D01*
X489199Y262724D01*
X488199Y263024D01*
X488160Y263027D01*
X488090Y263040D01*
X485190Y263040D01*
X485175Y263037D01*
X485160Y263039D01*
X485028Y263002D01*
X485021Y263001D01*
X485021Y263000D01*
X485020Y263000D01*
X484820Y262900D01*
X484781Y262868D01*
X484737Y262844D01*
X484716Y262813D01*
X484687Y262789D01*
X484666Y262743D01*
X484637Y262702D01*
X484629Y262659D01*
X484616Y262631D01*
X484617Y262615D01*
X484618Y262601D01*
X484610Y262560D01*
X484610Y259760D01*
X484621Y259710D01*
X484623Y259659D01*
X484641Y259627D01*
X484649Y259591D01*
X484682Y259552D01*
X484706Y259507D01*
X484736Y259486D01*
X484759Y259458D01*
X484806Y259437D01*
X484848Y259407D01*
X484890Y259399D01*
X484918Y259387D01*
X484948Y259388D01*
X484990Y259380D01*
X486643Y259380D01*
X486957Y259301D01*
X487230Y259165D01*
X487361Y258969D01*
X487410Y258870D01*
X487410Y258560D01*
X487418Y258524D01*
X487421Y258468D01*
X487510Y258113D01*
X487510Y257740D01*
X485190Y257740D01*
X485140Y257729D01*
X485089Y257727D01*
X485057Y257709D01*
X485021Y257701D01*
X484982Y257668D01*
X484937Y257644D01*
X484916Y257614D01*
X484888Y257591D01*
X484867Y257544D01*
X484837Y257502D01*
X484829Y257460D01*
X484817Y257432D01*
X484818Y257402D01*
X484810Y257360D01*
X484810Y254760D01*
X484821Y254710D01*
X484823Y254659D01*
X484841Y254627D01*
X484849Y254591D01*
X484882Y254552D01*
X484906Y254507D01*
X484936Y254486D01*
X484959Y254458D01*
X485006Y254437D01*
X485048Y254407D01*
X485090Y254399D01*
X485118Y254387D01*
X485148Y254388D01*
X485190Y254380D01*
X487510Y254380D01*
X487510Y243160D01*
X487521Y243110D01*
X487523Y243059D01*
X487541Y243027D01*
X487549Y242991D01*
X487582Y242952D01*
X487606Y242907D01*
X487636Y242886D01*
X487659Y242858D01*
X487706Y242837D01*
X487748Y242807D01*
X487790Y242799D01*
X487818Y242787D01*
X487848Y242788D01*
X487890Y242780D01*
X491690Y242780D01*
X491740Y242791D01*
G37*
G36*
X518740Y242791D02*
X518740Y242791D01*
X518791Y242793D01*
X518823Y242811D01*
X518859Y242819D01*
X518898Y242852D01*
X518943Y242876D01*
X518964Y242906D01*
X518992Y242929D01*
X519013Y242976D01*
X519043Y243018D01*
X519051Y243060D01*
X519063Y243088D01*
X519062Y243118D01*
X519070Y243160D01*
X519070Y256660D01*
X519067Y256673D01*
X519069Y256687D01*
X519048Y256757D01*
X519031Y256829D01*
X519022Y256839D01*
X519018Y256852D01*
X518967Y256906D01*
X518921Y256962D01*
X518908Y256968D01*
X518899Y256978D01*
X518765Y257033D01*
X518273Y257131D01*
X517882Y257229D01*
X517846Y257229D01*
X517790Y257240D01*
X517328Y257240D01*
X516873Y257331D01*
X516482Y257429D01*
X516474Y257429D01*
X516465Y257433D01*
X515473Y257631D01*
X515082Y257729D01*
X515072Y257729D01*
X515062Y257733D01*
X514986Y257730D01*
X514909Y257732D01*
X514900Y257727D01*
X514889Y257727D01*
X514822Y257690D01*
X514753Y257657D01*
X514746Y257649D01*
X514737Y257644D01*
X514693Y257581D01*
X514645Y257521D01*
X514643Y257511D01*
X514637Y257502D01*
X514610Y257360D01*
X514610Y255944D01*
X514487Y256098D01*
X514484Y256100D01*
X514482Y256103D01*
X513982Y256703D01*
X513967Y256715D01*
X513963Y256722D01*
X513949Y256731D01*
X513928Y256757D01*
X513428Y257157D01*
X513404Y257168D01*
X513379Y257190D01*
X512679Y257590D01*
X512649Y257599D01*
X512610Y257621D01*
X512010Y257821D01*
X512003Y257821D01*
X511994Y257826D01*
X511294Y258026D01*
X511256Y258028D01*
X511190Y258040D01*
X509790Y258040D01*
X509716Y258023D01*
X509641Y258010D01*
X509631Y258003D01*
X509621Y258001D01*
X509592Y257977D01*
X509521Y257929D01*
X509520Y257928D01*
X509489Y257927D01*
X509457Y257909D01*
X509421Y257901D01*
X509382Y257868D01*
X509337Y257844D01*
X509316Y257814D01*
X509288Y257791D01*
X509267Y257744D01*
X509237Y257702D01*
X509229Y257660D01*
X509217Y257632D01*
X509218Y257602D01*
X509210Y257560D01*
X509210Y253960D01*
X509221Y253910D01*
X509223Y253859D01*
X509241Y253827D01*
X509249Y253791D01*
X509282Y253752D01*
X509306Y253707D01*
X509336Y253686D01*
X509359Y253658D01*
X509406Y253637D01*
X509448Y253607D01*
X509490Y253599D01*
X509518Y253587D01*
X509548Y253588D01*
X509590Y253580D01*
X509690Y253580D01*
X509705Y253583D01*
X509720Y253581D01*
X509852Y253618D01*
X509859Y253619D01*
X509859Y253620D01*
X509860Y253620D01*
X509980Y253680D01*
X510971Y253680D01*
X511925Y253584D01*
X512647Y253404D01*
X513242Y253064D01*
X513676Y252542D01*
X514037Y251911D01*
X514221Y251266D01*
X514410Y250418D01*
X514410Y243160D01*
X514421Y243110D01*
X514423Y243059D01*
X514441Y243027D01*
X514449Y242991D01*
X514482Y242952D01*
X514506Y242907D01*
X514536Y242886D01*
X514559Y242858D01*
X514606Y242837D01*
X514648Y242807D01*
X514690Y242799D01*
X514718Y242787D01*
X514748Y242788D01*
X514790Y242780D01*
X518690Y242780D01*
X518740Y242791D01*
G37*
G36*
X176506Y265258D02*
X176506Y265258D01*
X176514Y265253D01*
X177214Y265453D01*
X177229Y265473D01*
X177242Y265475D01*
X177542Y265975D01*
X177540Y265993D01*
X177549Y266000D01*
X177549Y274200D01*
X177538Y274215D01*
X177542Y274225D01*
X177242Y274725D01*
X177218Y274735D01*
X177214Y274747D01*
X176514Y274947D01*
X176504Y274944D01*
X176500Y274949D01*
X173800Y274949D01*
X173796Y274946D01*
X173793Y274949D01*
X173093Y274849D01*
X173092Y274848D01*
X173092Y274849D01*
X172492Y274749D01*
X172485Y274741D01*
X172478Y274744D01*
X171878Y274444D01*
X171876Y274440D01*
X171873Y274441D01*
X171273Y274041D01*
X171253Y273985D01*
X171266Y273980D01*
X171263Y273967D01*
X171285Y273942D01*
X171277Y273944D01*
X171276Y273937D01*
X171269Y273938D01*
X170769Y273538D01*
X170767Y273528D01*
X170759Y273527D01*
X170359Y272927D01*
X170360Y272918D01*
X170353Y272916D01*
X170153Y272316D01*
X170155Y272310D01*
X170154Y272308D01*
X170151Y272307D01*
X170051Y271607D01*
X170054Y271602D01*
X170051Y271600D01*
X170051Y270900D01*
X170057Y270892D01*
X170053Y270886D01*
X170253Y270186D01*
X170258Y270182D01*
X170256Y270178D01*
X170556Y269578D01*
X170563Y269575D01*
X170562Y269569D01*
X170947Y269087D01*
X170853Y268614D01*
X170356Y267323D01*
X170159Y267027D01*
X170160Y267016D01*
X170153Y267014D01*
X170145Y266988D01*
X170131Y266939D01*
X170089Y266791D01*
X170047Y266643D01*
X170033Y266594D01*
X169991Y266446D01*
X169953Y266314D01*
X169963Y266287D01*
X169958Y266275D01*
X170258Y265775D01*
X170274Y265768D01*
X170276Y265757D01*
X170976Y265357D01*
X170988Y265359D01*
X170992Y265351D01*
X171592Y265251D01*
X171613Y265263D01*
X171625Y265258D01*
X172125Y265558D01*
X172133Y265577D01*
X172134Y265578D01*
X172145Y265580D01*
X172844Y267177D01*
X173327Y267951D01*
X174691Y267951D01*
X175151Y267767D01*
X175151Y266400D01*
X175154Y266395D01*
X175151Y266392D01*
X175251Y265792D01*
X175267Y265777D01*
X175265Y265765D01*
X175665Y265365D01*
X175688Y265362D01*
X175694Y265351D01*
X176494Y265251D01*
X176506Y265258D01*
G37*
G36*
X151310Y265352D02*
X151310Y265352D01*
X151321Y265365D01*
X151332Y265362D01*
X151932Y265862D01*
X151933Y265869D01*
X151938Y265868D01*
X154472Y268890D01*
X154551Y268495D01*
X154551Y266400D01*
X154554Y266395D01*
X154551Y266392D01*
X154651Y265792D01*
X154670Y265774D01*
X154670Y265761D01*
X155070Y265461D01*
X155089Y265461D01*
X155095Y265451D01*
X155995Y265351D01*
X156008Y265359D01*
X156016Y265353D01*
X156616Y265553D01*
X156627Y265570D01*
X156639Y265570D01*
X156939Y265970D01*
X156939Y265976D01*
X156940Y265976D01*
X156939Y265976D01*
X156939Y265992D01*
X156949Y266000D01*
X156949Y274200D01*
X156941Y274211D01*
X156946Y274218D01*
X156746Y274718D01*
X156720Y274734D01*
X156716Y274747D01*
X156116Y274947D01*
X156105Y274943D01*
X156100Y274949D01*
X155200Y274949D01*
X155185Y274938D01*
X155175Y274942D01*
X154675Y274642D01*
X154666Y274622D01*
X154663Y274614D01*
X154651Y274607D01*
X154551Y273907D01*
X154554Y273902D01*
X154551Y273900D01*
X154551Y271904D01*
X154469Y271415D01*
X153138Y273031D01*
X153137Y273032D01*
X151937Y274432D01*
X151931Y274433D01*
X151932Y274438D01*
X151332Y274938D01*
X151320Y274938D01*
X151318Y274946D01*
X150818Y275146D01*
X150787Y275137D01*
X150775Y275142D01*
X150275Y274842D01*
X150271Y274834D01*
X150265Y274835D01*
X149665Y274235D01*
X149662Y274215D01*
X149652Y274210D01*
X149552Y273710D01*
X149563Y273685D01*
X149559Y273673D01*
X149959Y273073D01*
X149961Y273072D01*
X149961Y273070D01*
X150261Y272670D01*
X150266Y272669D01*
X150265Y272665D01*
X151164Y271766D01*
X152264Y270567D01*
X152269Y270566D01*
X152269Y270562D01*
X152728Y270195D01*
X151164Y268534D01*
X149965Y267335D01*
X149964Y267328D01*
X149959Y267327D01*
X149559Y266727D01*
X149561Y266700D01*
X149552Y266690D01*
X149652Y266190D01*
X149665Y266179D01*
X149662Y266168D01*
X150162Y265568D01*
X150176Y265565D01*
X150178Y265556D01*
X150778Y265256D01*
X150800Y265260D01*
X150810Y265252D01*
X151310Y265352D01*
G37*
G36*
X165808Y245257D02*
X165808Y245257D01*
X165814Y245253D01*
X166514Y245453D01*
X166515Y245454D01*
X166516Y245453D01*
X167116Y245653D01*
X167119Y245658D01*
X167122Y245656D01*
X167722Y245956D01*
X167724Y245960D01*
X167727Y245959D01*
X168327Y246359D01*
X168330Y246366D01*
X168335Y246365D01*
X168835Y246865D01*
X168835Y246869D01*
X168838Y246869D01*
X169238Y247369D01*
X169239Y247374D01*
X169242Y247375D01*
X169542Y247875D01*
X169542Y247880D01*
X169545Y247881D01*
X169845Y248581D01*
X169845Y248584D01*
X169847Y248584D01*
X170047Y249184D01*
X170043Y249195D01*
X170049Y249200D01*
X170049Y250600D01*
X170046Y250604D01*
X170049Y250607D01*
X169949Y251307D01*
X169948Y251308D01*
X169949Y251308D01*
X169849Y251908D01*
X169841Y251915D01*
X169844Y251922D01*
X169544Y252522D01*
X169540Y252524D01*
X169541Y252527D01*
X169141Y253127D01*
X169138Y253128D01*
X169138Y253131D01*
X168738Y253631D01*
X168731Y253633D01*
X168731Y253638D01*
X168231Y254038D01*
X168227Y254039D01*
X168227Y254041D01*
X167627Y254441D01*
X167621Y254441D01*
X167619Y254445D01*
X166919Y254745D01*
X166916Y254745D01*
X166916Y254747D01*
X166316Y254947D01*
X166309Y254945D01*
X166307Y254949D01*
X165607Y255049D01*
X165602Y255046D01*
X165600Y255049D01*
X165000Y255049D01*
X164996Y255046D01*
X164993Y255049D01*
X163593Y254849D01*
X163585Y254841D01*
X163578Y254844D01*
X162378Y254244D01*
X162373Y254234D01*
X162365Y254235D01*
X161865Y253735D01*
X161862Y253708D01*
X161851Y253700D01*
X161851Y253100D01*
X161863Y253084D01*
X161859Y253073D01*
X162259Y252473D01*
X162266Y252470D01*
X162265Y252465D01*
X162765Y251965D01*
X162792Y251962D01*
X162800Y251951D01*
X163300Y251951D01*
X163316Y251963D01*
X163327Y251959D01*
X163922Y252355D01*
X164511Y252552D01*
X165200Y252650D01*
X165885Y252552D01*
X166477Y252257D01*
X166967Y251962D01*
X167456Y251376D01*
X167651Y250792D01*
X167651Y249412D01*
X167358Y248827D01*
X166966Y248337D01*
X166375Y247943D01*
X165788Y247649D01*
X164512Y247649D01*
X163923Y247944D01*
X163224Y248343D01*
X163199Y248339D01*
X163188Y248348D01*
X162788Y248248D01*
X162776Y248233D01*
X162765Y248235D01*
X162265Y247735D01*
X162264Y247725D01*
X162257Y247724D01*
X161857Y247024D01*
X161861Y246996D01*
X161853Y246984D01*
X162053Y246384D01*
X162070Y246373D01*
X162069Y246362D01*
X162569Y245962D01*
X162574Y245961D01*
X162575Y245958D01*
X163075Y245658D01*
X163084Y245659D01*
X163086Y245653D01*
X164486Y245253D01*
X164496Y245256D01*
X164500Y245251D01*
X165800Y245251D01*
X165808Y245257D01*
G37*
G36*
X325808Y215257D02*
X325808Y215257D01*
X325814Y215253D01*
X326514Y215453D01*
X326515Y215454D01*
X326516Y215453D01*
X327116Y215653D01*
X327119Y215658D01*
X327122Y215656D01*
X327722Y215956D01*
X327724Y215960D01*
X327727Y215959D01*
X328327Y216359D01*
X328330Y216366D01*
X328335Y216365D01*
X328835Y216865D01*
X328835Y216869D01*
X328838Y216869D01*
X329238Y217369D01*
X329239Y217374D01*
X329242Y217375D01*
X329542Y217875D01*
X329542Y217880D01*
X329545Y217881D01*
X329845Y218581D01*
X329845Y218584D01*
X329847Y218584D01*
X330047Y219184D01*
X330043Y219195D01*
X330049Y219200D01*
X330049Y220600D01*
X330046Y220604D01*
X330049Y220607D01*
X329949Y221307D01*
X329948Y221308D01*
X329949Y221308D01*
X329849Y221908D01*
X329841Y221915D01*
X329844Y221922D01*
X329544Y222522D01*
X329540Y222524D01*
X329541Y222527D01*
X329141Y223127D01*
X329138Y223128D01*
X329138Y223131D01*
X328738Y223631D01*
X328731Y223633D01*
X328731Y223638D01*
X328231Y224038D01*
X328227Y224039D01*
X328227Y224041D01*
X327627Y224441D01*
X327621Y224441D01*
X327619Y224445D01*
X326919Y224745D01*
X326916Y224745D01*
X326916Y224747D01*
X326316Y224947D01*
X326309Y224945D01*
X326307Y224949D01*
X325607Y225049D01*
X325602Y225046D01*
X325600Y225049D01*
X325000Y225049D01*
X324996Y225046D01*
X324993Y225049D01*
X323593Y224849D01*
X323585Y224841D01*
X323578Y224844D01*
X322378Y224244D01*
X322373Y224234D01*
X322365Y224235D01*
X321865Y223735D01*
X321862Y223708D01*
X321851Y223700D01*
X321851Y223100D01*
X321863Y223084D01*
X321859Y223073D01*
X322259Y222473D01*
X322266Y222470D01*
X322265Y222465D01*
X322765Y221965D01*
X322792Y221962D01*
X322800Y221951D01*
X323300Y221951D01*
X323316Y221963D01*
X323327Y221959D01*
X323922Y222355D01*
X324511Y222552D01*
X325200Y222650D01*
X325885Y222552D01*
X326477Y222257D01*
X326967Y221962D01*
X327456Y221376D01*
X327651Y220792D01*
X327651Y219412D01*
X327358Y218827D01*
X326966Y218337D01*
X326375Y217943D01*
X325788Y217649D01*
X324512Y217649D01*
X323923Y217944D01*
X323224Y218343D01*
X323199Y218339D01*
X323188Y218348D01*
X322788Y218248D01*
X322776Y218233D01*
X322765Y218235D01*
X322265Y217735D01*
X322264Y217725D01*
X322257Y217724D01*
X321857Y217024D01*
X321861Y216996D01*
X321853Y216984D01*
X322053Y216384D01*
X322070Y216373D01*
X322069Y216362D01*
X322569Y215962D01*
X322574Y215961D01*
X322575Y215958D01*
X323075Y215658D01*
X323084Y215659D01*
X323086Y215653D01*
X324486Y215253D01*
X324496Y215256D01*
X324500Y215251D01*
X325800Y215251D01*
X325808Y215257D01*
G37*
G36*
X143805Y265351D02*
X143805Y265351D01*
X143826Y265370D01*
X143839Y265370D01*
X144139Y265770D01*
X144139Y265777D01*
X144142Y265779D01*
X144139Y265782D01*
X144139Y265788D01*
X144149Y265793D01*
X144249Y266493D01*
X144246Y266498D01*
X144249Y266500D01*
X144249Y273300D01*
X144246Y273304D01*
X144249Y273307D01*
X144149Y274007D01*
X144144Y274012D01*
X144147Y274016D01*
X143947Y274616D01*
X143922Y274633D01*
X143918Y274646D01*
X143418Y274846D01*
X143405Y274842D01*
X143400Y274849D01*
X137900Y274849D01*
X137896Y274846D01*
X137893Y274849D01*
X137193Y274749D01*
X137175Y274730D01*
X137162Y274731D01*
X136762Y274231D01*
X136761Y274212D01*
X136751Y274207D01*
X136651Y273507D01*
X136659Y273493D01*
X136653Y273484D01*
X136853Y272884D01*
X136870Y272873D01*
X136869Y272862D01*
X137369Y272462D01*
X137392Y272461D01*
X137400Y272451D01*
X141484Y272451D01*
X141851Y272175D01*
X141851Y271525D01*
X141484Y271249D01*
X138800Y271249D01*
X138779Y271233D01*
X138765Y271235D01*
X138365Y270835D01*
X138363Y270817D01*
X138353Y270814D01*
X138329Y270731D01*
X138287Y270583D01*
X138273Y270534D01*
X138231Y270386D01*
X138188Y270238D01*
X138174Y270189D01*
X138153Y270114D01*
X138158Y270100D01*
X138151Y270094D01*
X138251Y269294D01*
X138267Y269278D01*
X138265Y269265D01*
X138665Y268865D01*
X138687Y268862D01*
X138693Y268851D01*
X139393Y268751D01*
X139398Y268754D01*
X139400Y268751D01*
X141391Y268751D01*
X141851Y268567D01*
X141851Y265900D01*
X141862Y265885D01*
X141858Y265875D01*
X142158Y265375D01*
X142186Y265363D01*
X142193Y265351D01*
X142893Y265251D01*
X142901Y265256D01*
X142905Y265251D01*
X143805Y265351D01*
G37*
G36*
X129409Y265258D02*
X129409Y265258D01*
X129416Y265253D01*
X130016Y265453D01*
X130033Y265478D01*
X130046Y265482D01*
X130218Y265912D01*
X130665Y265465D01*
X130681Y265463D01*
X130684Y265453D01*
X131284Y265253D01*
X131295Y265257D01*
X131300Y265251D01*
X132000Y265251D01*
X132004Y265254D01*
X132007Y265251D01*
X132707Y265351D01*
X132717Y265361D01*
X132725Y265358D01*
X133225Y265658D01*
X133227Y265663D01*
X133232Y265662D01*
X133832Y266162D01*
X133832Y266166D01*
X133835Y266165D01*
X134335Y266665D01*
X134336Y266677D01*
X134344Y266678D01*
X134644Y267278D01*
X134643Y267283D01*
X134647Y267284D01*
X134847Y267884D01*
X134845Y267891D01*
X134849Y267893D01*
X134949Y268593D01*
X134944Y268602D01*
X134949Y268607D01*
X134849Y269307D01*
X134848Y269308D01*
X134849Y269308D01*
X134749Y269908D01*
X134741Y269915D01*
X134744Y269922D01*
X134444Y270522D01*
X134437Y270526D01*
X134438Y270532D01*
X133938Y271132D01*
X133934Y271132D01*
X133935Y271135D01*
X133435Y271635D01*
X133423Y271636D01*
X133422Y271644D01*
X132822Y271944D01*
X132817Y271943D01*
X132816Y271947D01*
X132216Y272147D01*
X132211Y272145D01*
X132211Y272146D01*
X132203Y272146D01*
X132200Y272149D01*
X131500Y272149D01*
X131495Y272146D01*
X131490Y272146D01*
X131488Y272144D01*
X131484Y272147D01*
X130884Y271947D01*
X130877Y271936D01*
X130869Y271938D01*
X130369Y271538D01*
X130368Y271534D01*
X130365Y271535D01*
X130310Y271479D01*
X130042Y271925D01*
X130020Y271934D01*
X130016Y271947D01*
X129416Y272147D01*
X129411Y272145D01*
X129411Y272146D01*
X129403Y272146D01*
X129400Y272149D01*
X128600Y272149D01*
X128582Y272135D01*
X128569Y272138D01*
X128069Y271738D01*
X128065Y271723D01*
X128056Y271716D01*
X128059Y271712D01*
X128051Y271708D01*
X127951Y271108D01*
X127954Y271103D01*
X127951Y271100D01*
X127951Y266300D01*
X127954Y266296D01*
X127951Y266293D01*
X128051Y265593D01*
X128073Y265571D01*
X128075Y265558D01*
X128575Y265258D01*
X128593Y265260D01*
X128600Y265251D01*
X129400Y265251D01*
X129409Y265258D01*
G37*
G36*
X120009Y245258D02*
X120009Y245258D01*
X120016Y245253D01*
X120616Y245453D01*
X120633Y245478D01*
X120646Y245482D01*
X120818Y245912D01*
X121265Y245465D01*
X121281Y245463D01*
X121284Y245453D01*
X121884Y245253D01*
X121895Y245257D01*
X121900Y245251D01*
X122600Y245251D01*
X122605Y245254D01*
X122608Y245251D01*
X123208Y245351D01*
X123215Y245359D01*
X123222Y245356D01*
X123822Y245656D01*
X123826Y245664D01*
X123832Y245662D01*
X124432Y246162D01*
X124432Y246166D01*
X124435Y246165D01*
X124935Y246665D01*
X124936Y246677D01*
X124944Y246678D01*
X125244Y247278D01*
X125243Y247283D01*
X125247Y247284D01*
X125447Y247884D01*
X125445Y247891D01*
X125449Y247893D01*
X125549Y248593D01*
X125544Y248602D01*
X125549Y248607D01*
X125449Y249307D01*
X125448Y249308D01*
X125449Y249308D01*
X125349Y249908D01*
X125341Y249915D01*
X125344Y249922D01*
X125044Y250522D01*
X125037Y250526D01*
X125038Y250532D01*
X124538Y251132D01*
X124534Y251132D01*
X124535Y251135D01*
X124035Y251635D01*
X124023Y251636D01*
X124022Y251644D01*
X123422Y251944D01*
X123417Y251943D01*
X123416Y251947D01*
X122816Y252147D01*
X122811Y252145D01*
X122811Y252146D01*
X122803Y252146D01*
X122800Y252149D01*
X122100Y252149D01*
X122095Y252146D01*
X122090Y252146D01*
X122088Y252144D01*
X122084Y252147D01*
X121484Y251947D01*
X121479Y251939D01*
X121473Y251941D01*
X120873Y251541D01*
X120642Y251925D01*
X120618Y251935D01*
X120614Y251947D01*
X119914Y252147D01*
X119909Y252146D01*
X119903Y252146D01*
X119900Y252149D01*
X119200Y252149D01*
X119182Y252135D01*
X119169Y252138D01*
X118669Y251738D01*
X118665Y251723D01*
X118656Y251716D01*
X118659Y251712D01*
X118651Y251708D01*
X118551Y251108D01*
X118554Y251103D01*
X118551Y251100D01*
X118551Y246300D01*
X118554Y246296D01*
X118551Y246293D01*
X118651Y245593D01*
X118673Y245571D01*
X118675Y245558D01*
X119175Y245258D01*
X119193Y245260D01*
X119200Y245251D01*
X120000Y245251D01*
X120009Y245258D01*
G37*
G36*
X280009Y215258D02*
X280009Y215258D01*
X280016Y215253D01*
X280616Y215453D01*
X280633Y215478D01*
X280646Y215482D01*
X280818Y215912D01*
X281265Y215465D01*
X281281Y215463D01*
X281284Y215453D01*
X281884Y215253D01*
X281895Y215257D01*
X281900Y215251D01*
X282600Y215251D01*
X282605Y215254D01*
X282608Y215251D01*
X283208Y215351D01*
X283215Y215359D01*
X283222Y215356D01*
X283822Y215656D01*
X283826Y215664D01*
X283832Y215662D01*
X284432Y216162D01*
X284432Y216166D01*
X284435Y216165D01*
X284935Y216665D01*
X284936Y216677D01*
X284944Y216678D01*
X285244Y217278D01*
X285243Y217283D01*
X285247Y217284D01*
X285447Y217884D01*
X285445Y217891D01*
X285449Y217893D01*
X285549Y218593D01*
X285544Y218602D01*
X285549Y218607D01*
X285449Y219307D01*
X285448Y219308D01*
X285449Y219308D01*
X285349Y219908D01*
X285341Y219915D01*
X285344Y219922D01*
X285044Y220522D01*
X285037Y220526D01*
X285038Y220532D01*
X284538Y221132D01*
X284534Y221132D01*
X284535Y221135D01*
X284035Y221635D01*
X284023Y221636D01*
X284022Y221644D01*
X283422Y221944D01*
X283417Y221943D01*
X283416Y221947D01*
X282816Y222147D01*
X282811Y222145D01*
X282811Y222146D01*
X282803Y222146D01*
X282800Y222149D01*
X282100Y222149D01*
X282095Y222146D01*
X282090Y222146D01*
X282088Y222144D01*
X282084Y222147D01*
X281484Y221947D01*
X281479Y221939D01*
X281473Y221941D01*
X280873Y221541D01*
X280642Y221925D01*
X280618Y221935D01*
X280614Y221947D01*
X279914Y222147D01*
X279909Y222146D01*
X279903Y222146D01*
X279900Y222149D01*
X279200Y222149D01*
X279182Y222135D01*
X279169Y222138D01*
X278669Y221738D01*
X278665Y221723D01*
X278656Y221716D01*
X278659Y221712D01*
X278651Y221708D01*
X278551Y221108D01*
X278554Y221103D01*
X278551Y221100D01*
X278551Y216300D01*
X278554Y216296D01*
X278551Y216293D01*
X278651Y215593D01*
X278673Y215571D01*
X278675Y215558D01*
X279175Y215258D01*
X279193Y215260D01*
X279200Y215251D01*
X280000Y215251D01*
X280009Y215258D01*
G37*
%LPC*%
G36*
X541760Y246234D02*
X541760Y246234D01*
X541067Y246408D01*
X540563Y246828D01*
X540219Y247257D01*
X539943Y247902D01*
X539662Y248652D01*
X539570Y249384D01*
X539570Y251036D01*
X539662Y251768D01*
X539943Y252518D01*
X540218Y253159D01*
X540647Y253674D01*
X541172Y254024D01*
X541788Y254288D01*
X542587Y254377D01*
X543298Y254288D01*
X544000Y254025D01*
X544422Y253687D01*
X544862Y253159D01*
X545137Y252518D01*
X545418Y251768D01*
X545510Y251036D01*
X545510Y249407D01*
X545128Y247882D01*
X544869Y247277D01*
X544433Y246841D01*
X543908Y246404D01*
X543316Y246234D01*
X542493Y246143D01*
X541760Y246234D01*
G37*
%LPD*%
G36*
X156704Y245254D02*
X156704Y245254D01*
X156707Y245251D01*
X157407Y245351D01*
X157412Y245356D01*
X157416Y245353D01*
X158016Y245553D01*
X158021Y245561D01*
X158027Y245559D01*
X158627Y245959D01*
X158630Y245966D01*
X158635Y245965D01*
X159135Y246465D01*
X159136Y246477D01*
X159144Y246478D01*
X159744Y247678D01*
X159742Y247689D01*
X159749Y247693D01*
X159849Y248393D01*
X159846Y248398D01*
X159849Y248400D01*
X159849Y249100D01*
X159846Y249104D01*
X159849Y249107D01*
X159749Y249807D01*
X159744Y249812D01*
X159747Y249816D01*
X159547Y250416D01*
X159542Y250419D01*
X159544Y250422D01*
X159244Y251022D01*
X159231Y251029D01*
X159231Y251038D01*
X158231Y251838D01*
X158223Y251839D01*
X158222Y251844D01*
X157622Y252144D01*
X157615Y252143D01*
X157614Y252147D01*
X156914Y252347D01*
X156909Y252346D01*
X156907Y252349D01*
X156207Y252449D01*
X156198Y252444D01*
X156193Y252449D01*
X154793Y252249D01*
X154785Y252241D01*
X154778Y252244D01*
X154178Y251944D01*
X154173Y251934D01*
X154165Y251935D01*
X153665Y251435D01*
X153665Y251431D01*
X153662Y251431D01*
X153262Y250931D01*
X153261Y250918D01*
X153253Y250916D01*
X153053Y250316D01*
X153055Y250309D01*
X153051Y250307D01*
X152951Y249607D01*
X152954Y249602D01*
X152951Y249600D01*
X152951Y248800D01*
X152970Y248775D01*
X152969Y248762D01*
X153469Y248362D01*
X153477Y248361D01*
X153478Y248356D01*
X154078Y248056D01*
X154089Y248058D01*
X154095Y248058D01*
X154100Y248051D01*
X156891Y248051D01*
X157312Y247882D01*
X156873Y247443D01*
X156292Y247249D01*
X155508Y247249D01*
X154316Y247647D01*
X154287Y247637D01*
X154275Y247642D01*
X153775Y247342D01*
X153768Y247326D01*
X153757Y247324D01*
X153357Y246624D01*
X153360Y246607D01*
X153351Y246600D01*
X153351Y246100D01*
X153367Y246079D01*
X153365Y246065D01*
X153665Y245765D01*
X153674Y245764D01*
X153675Y245758D01*
X154175Y245458D01*
X154185Y245459D01*
X154188Y245452D01*
X154988Y245252D01*
X154996Y245256D01*
X155000Y245251D01*
X156700Y245251D01*
X156704Y245254D01*
G37*
G36*
X316704Y215254D02*
X316704Y215254D01*
X316707Y215251D01*
X317407Y215351D01*
X317412Y215356D01*
X317416Y215353D01*
X318016Y215553D01*
X318021Y215561D01*
X318027Y215559D01*
X318627Y215959D01*
X318630Y215966D01*
X318635Y215965D01*
X319135Y216465D01*
X319136Y216477D01*
X319144Y216478D01*
X319744Y217678D01*
X319742Y217689D01*
X319749Y217693D01*
X319849Y218393D01*
X319846Y218398D01*
X319849Y218400D01*
X319849Y219100D01*
X319846Y219104D01*
X319849Y219107D01*
X319749Y219807D01*
X319744Y219812D01*
X319747Y219816D01*
X319547Y220416D01*
X319542Y220419D01*
X319544Y220422D01*
X319244Y221022D01*
X319231Y221029D01*
X319231Y221038D01*
X318231Y221838D01*
X318223Y221839D01*
X318222Y221844D01*
X317622Y222144D01*
X317615Y222143D01*
X317614Y222147D01*
X316914Y222347D01*
X316909Y222346D01*
X316907Y222349D01*
X316207Y222449D01*
X316198Y222444D01*
X316193Y222449D01*
X314793Y222249D01*
X314785Y222241D01*
X314778Y222244D01*
X314178Y221944D01*
X314173Y221934D01*
X314165Y221935D01*
X313665Y221435D01*
X313665Y221431D01*
X313662Y221431D01*
X313262Y220931D01*
X313261Y220918D01*
X313253Y220916D01*
X313053Y220316D01*
X313055Y220309D01*
X313051Y220307D01*
X312951Y219607D01*
X312954Y219602D01*
X312951Y219600D01*
X312951Y218800D01*
X312970Y218775D01*
X312969Y218762D01*
X313469Y218362D01*
X313477Y218361D01*
X313478Y218356D01*
X314078Y218056D01*
X314089Y218058D01*
X314095Y218058D01*
X314100Y218051D01*
X316891Y218051D01*
X317312Y217882D01*
X316873Y217443D01*
X316292Y217249D01*
X315508Y217249D01*
X314316Y217647D01*
X314287Y217637D01*
X314275Y217642D01*
X313775Y217342D01*
X313768Y217326D01*
X313757Y217324D01*
X313357Y216624D01*
X313360Y216607D01*
X313351Y216600D01*
X313351Y216100D01*
X313367Y216079D01*
X313365Y216065D01*
X313665Y215765D01*
X313674Y215764D01*
X313675Y215758D01*
X314175Y215458D01*
X314185Y215459D01*
X314188Y215452D01*
X314988Y215252D01*
X314996Y215256D01*
X315000Y215251D01*
X316700Y215251D01*
X316704Y215254D01*
G37*
G36*
X114804Y265254D02*
X114804Y265254D01*
X114807Y265251D01*
X115507Y265351D01*
X115512Y265356D01*
X115516Y265353D01*
X116116Y265553D01*
X116121Y265561D01*
X116127Y265559D01*
X116727Y265959D01*
X116731Y265969D01*
X116738Y265969D01*
X117138Y266469D01*
X117139Y266473D01*
X117141Y266473D01*
X117541Y267073D01*
X117540Y267082D01*
X117547Y267084D01*
X117747Y267684D01*
X117746Y267686D01*
X117747Y267686D01*
X117751Y267700D01*
X117765Y267749D01*
X117807Y267897D01*
X117808Y267897D01*
X117807Y267897D01*
X117850Y268045D01*
X117864Y268094D01*
X117906Y268242D01*
X117947Y268386D01*
X117946Y268389D01*
X117947Y268389D01*
X117945Y268393D01*
X117944Y268396D01*
X117949Y268400D01*
X117949Y269100D01*
X117946Y269104D01*
X117949Y269107D01*
X117849Y269807D01*
X117844Y269812D01*
X117847Y269816D01*
X117647Y270416D01*
X117639Y270421D01*
X117641Y270427D01*
X117241Y271027D01*
X117234Y271030D01*
X117235Y271035D01*
X116835Y271435D01*
X116828Y271436D01*
X116827Y271441D01*
X116227Y271841D01*
X116226Y271841D01*
X116225Y271842D01*
X115725Y272142D01*
X115716Y272141D01*
X115714Y272147D01*
X115014Y272347D01*
X115009Y272346D01*
X115007Y272349D01*
X114307Y272449D01*
X114299Y272444D01*
X114294Y272449D01*
X113494Y272349D01*
X113493Y272348D01*
X113492Y272349D01*
X112892Y272249D01*
X112885Y272241D01*
X112878Y272244D01*
X112278Y271944D01*
X112273Y271934D01*
X112265Y271935D01*
X111765Y271435D01*
X111765Y271431D01*
X111762Y271431D01*
X111362Y270931D01*
X111361Y270918D01*
X111353Y270916D01*
X111153Y270316D01*
X111155Y270309D01*
X111151Y270307D01*
X111051Y269607D01*
X111054Y269602D01*
X111051Y269600D01*
X111051Y268800D01*
X111070Y268775D01*
X111069Y268762D01*
X111569Y268362D01*
X111577Y268361D01*
X111578Y268356D01*
X112178Y268056D01*
X112189Y268058D01*
X112195Y268058D01*
X112200Y268051D01*
X114891Y268051D01*
X115320Y267879D01*
X114971Y267443D01*
X114293Y267249D01*
X113608Y267249D01*
X113016Y267447D01*
X113014Y267446D01*
X113014Y267447D01*
X112314Y267647D01*
X112287Y267637D01*
X112275Y267642D01*
X111775Y267342D01*
X111767Y267322D01*
X111755Y267319D01*
X111455Y266619D01*
X111458Y266606D01*
X111451Y266600D01*
X111451Y266100D01*
X111467Y266079D01*
X111465Y266065D01*
X111765Y265765D01*
X111774Y265764D01*
X111775Y265758D01*
X112275Y265458D01*
X112284Y265459D01*
X112286Y265453D01*
X112986Y265253D01*
X112996Y265256D01*
X113000Y265251D01*
X114800Y265251D01*
X114804Y265254D01*
G37*
G36*
X164318Y265265D02*
X164318Y265265D01*
X164331Y265262D01*
X164831Y265662D01*
X164835Y265677D01*
X164840Y265681D01*
X164837Y265685D01*
X164837Y265686D01*
X164849Y265692D01*
X164949Y266292D01*
X164946Y266297D01*
X164949Y266300D01*
X164949Y272488D01*
X165130Y272851D01*
X167200Y272851D01*
X167204Y272854D01*
X167207Y272851D01*
X167907Y272951D01*
X167922Y272967D01*
X167935Y272965D01*
X168335Y273365D01*
X168339Y273392D01*
X168349Y273400D01*
X168349Y274100D01*
X168342Y274109D01*
X168347Y274116D01*
X168147Y274716D01*
X168112Y274739D01*
X168107Y274749D01*
X167407Y274849D01*
X167402Y274846D01*
X167400Y274849D01*
X159900Y274849D01*
X159887Y274840D01*
X159878Y274844D01*
X159278Y274544D01*
X159260Y274507D01*
X159251Y274500D01*
X159251Y273800D01*
X159254Y273795D01*
X159251Y273792D01*
X159351Y273192D01*
X159373Y273171D01*
X159375Y273158D01*
X159875Y272858D01*
X159893Y272860D01*
X159900Y272851D01*
X161997Y272851D01*
X162651Y272757D01*
X162651Y266000D01*
X162660Y265987D01*
X162656Y265978D01*
X162956Y265378D01*
X162986Y265363D01*
X162992Y265351D01*
X163592Y265251D01*
X163597Y265254D01*
X163600Y265251D01*
X164300Y265251D01*
X164318Y265265D01*
G37*
G36*
X134104Y245254D02*
X134104Y245254D01*
X134107Y245251D01*
X134807Y245351D01*
X134829Y245373D01*
X134842Y245375D01*
X135122Y245841D01*
X135378Y245755D01*
X135973Y245359D01*
X135987Y245360D01*
X135992Y245351D01*
X136592Y245251D01*
X136597Y245254D01*
X136600Y245251D01*
X137300Y245251D01*
X137311Y245259D01*
X137319Y245255D01*
X138019Y245555D01*
X138022Y245559D01*
X138025Y245558D01*
X138525Y245858D01*
X138529Y245866D01*
X138535Y245865D01*
X139035Y246365D01*
X139036Y246377D01*
X139044Y246378D01*
X139644Y247578D01*
X139642Y247589D01*
X139649Y247593D01*
X139749Y248293D01*
X139746Y248298D01*
X139749Y248300D01*
X139749Y251100D01*
X139746Y251105D01*
X139749Y251108D01*
X139649Y251708D01*
X139630Y251726D01*
X139630Y251739D01*
X139230Y252039D01*
X139211Y252039D01*
X139205Y252049D01*
X138305Y252149D01*
X138300Y252146D01*
X138290Y252146D01*
X138288Y252144D01*
X138284Y252147D01*
X137684Y251947D01*
X137671Y251927D01*
X137663Y251921D01*
X137654Y251918D01*
X137454Y251418D01*
X137458Y251405D01*
X137451Y251400D01*
X137451Y248612D01*
X137161Y248032D01*
X136683Y247649D01*
X136012Y247649D01*
X135440Y247935D01*
X135249Y248509D01*
X135149Y251302D01*
X135145Y251306D01*
X135148Y251310D01*
X135048Y251810D01*
X135025Y251831D01*
X135022Y251844D01*
X134422Y252144D01*
X134410Y252142D01*
X134407Y252146D01*
X134403Y252146D01*
X134400Y252149D01*
X133500Y252149D01*
X133495Y252146D01*
X133494Y252146D01*
X133484Y252138D01*
X133475Y252142D01*
X132975Y251842D01*
X132967Y251824D01*
X132954Y251814D01*
X132957Y251811D01*
X132951Y251808D01*
X132851Y251208D01*
X132854Y251203D01*
X132851Y251200D01*
X132851Y245800D01*
X132865Y245782D01*
X132862Y245769D01*
X133262Y245269D01*
X133292Y245262D01*
X133300Y245251D01*
X134100Y245251D01*
X134104Y245254D01*
G37*
G36*
X294104Y215254D02*
X294104Y215254D01*
X294107Y215251D01*
X294807Y215351D01*
X294829Y215373D01*
X294842Y215375D01*
X295122Y215841D01*
X295378Y215755D01*
X295973Y215359D01*
X295987Y215360D01*
X295992Y215351D01*
X296592Y215251D01*
X296597Y215254D01*
X296600Y215251D01*
X297300Y215251D01*
X297311Y215259D01*
X297319Y215255D01*
X298019Y215555D01*
X298022Y215559D01*
X298025Y215558D01*
X298525Y215858D01*
X298529Y215866D01*
X298535Y215865D01*
X299035Y216365D01*
X299036Y216377D01*
X299044Y216378D01*
X299644Y217578D01*
X299642Y217589D01*
X299649Y217593D01*
X299749Y218293D01*
X299746Y218298D01*
X299749Y218300D01*
X299749Y221100D01*
X299746Y221105D01*
X299749Y221108D01*
X299649Y221708D01*
X299630Y221726D01*
X299630Y221739D01*
X299230Y222039D01*
X299211Y222039D01*
X299205Y222049D01*
X298305Y222149D01*
X298300Y222146D01*
X298290Y222146D01*
X298288Y222144D01*
X298284Y222147D01*
X297684Y221947D01*
X297671Y221927D01*
X297663Y221921D01*
X297654Y221918D01*
X297454Y221418D01*
X297458Y221405D01*
X297451Y221400D01*
X297451Y218612D01*
X297161Y218032D01*
X296683Y217649D01*
X296012Y217649D01*
X295440Y217935D01*
X295249Y218509D01*
X295149Y221302D01*
X295145Y221306D01*
X295148Y221310D01*
X295048Y221810D01*
X295025Y221831D01*
X295022Y221844D01*
X294422Y222144D01*
X294410Y222142D01*
X294407Y222146D01*
X294403Y222146D01*
X294400Y222149D01*
X293500Y222149D01*
X293495Y222146D01*
X293494Y222146D01*
X293484Y222138D01*
X293475Y222142D01*
X292975Y221842D01*
X292967Y221824D01*
X292954Y221814D01*
X292957Y221811D01*
X292951Y221808D01*
X292851Y221208D01*
X292854Y221203D01*
X292851Y221200D01*
X292851Y215800D01*
X292865Y215782D01*
X292862Y215769D01*
X293262Y215269D01*
X293292Y215262D01*
X293300Y215251D01*
X294100Y215251D01*
X294104Y215254D01*
G37*
G36*
X106108Y265257D02*
X106108Y265257D01*
X106114Y265253D01*
X106814Y265453D01*
X106819Y265460D01*
X106825Y265458D01*
X107325Y265758D01*
X107330Y265770D01*
X107339Y265770D01*
X107639Y266170D01*
X107639Y266177D01*
X107644Y266178D01*
X107944Y266778D01*
X107942Y266789D01*
X107949Y266793D01*
X108049Y267493D01*
X108046Y267498D01*
X108049Y267500D01*
X108049Y269567D01*
X109018Y269954D01*
X109034Y269980D01*
X109047Y269984D01*
X109247Y270584D01*
X109243Y270595D01*
X109249Y270600D01*
X109249Y271400D01*
X109238Y271415D01*
X109242Y271425D01*
X108942Y271925D01*
X108920Y271934D01*
X108916Y271947D01*
X108327Y272143D01*
X108049Y272420D01*
X108049Y273800D01*
X108041Y273811D01*
X108046Y273818D01*
X107846Y274318D01*
X107818Y274335D01*
X107814Y274347D01*
X107114Y274547D01*
X107100Y274542D01*
X107094Y274549D01*
X106294Y274449D01*
X106280Y274436D01*
X106269Y274438D01*
X105769Y274038D01*
X105762Y274008D01*
X105751Y274000D01*
X105751Y272057D01*
X105107Y272149D01*
X105102Y272146D01*
X105100Y272149D01*
X104400Y272149D01*
X104395Y272146D01*
X104394Y272146D01*
X104384Y272138D01*
X104375Y272142D01*
X103875Y271842D01*
X103867Y271824D01*
X103854Y271814D01*
X103857Y271810D01*
X103851Y271807D01*
X103751Y271107D01*
X103756Y271099D01*
X103751Y271095D01*
X103851Y270195D01*
X103870Y270174D01*
X103870Y270161D01*
X104270Y269861D01*
X104287Y269861D01*
X104292Y269851D01*
X104892Y269751D01*
X104902Y269757D01*
X104907Y269751D01*
X105566Y269845D01*
X105751Y269292D01*
X105751Y268014D01*
X105470Y267545D01*
X104793Y267449D01*
X104783Y267439D01*
X104775Y267442D01*
X104275Y267142D01*
X104265Y267118D01*
X104253Y267114D01*
X104231Y267037D01*
X104217Y266988D01*
X104175Y266840D01*
X104132Y266692D01*
X104118Y266643D01*
X104076Y266495D01*
X104053Y266414D01*
X104059Y266398D01*
X104057Y266397D01*
X104059Y266395D01*
X104053Y266386D01*
X104253Y265686D01*
X104267Y265676D01*
X104265Y265665D01*
X104665Y265265D01*
X104692Y265262D01*
X104700Y265251D01*
X106100Y265251D01*
X106108Y265257D01*
G37*
G36*
X122705Y265254D02*
X122705Y265254D01*
X122708Y265251D01*
X123308Y265351D01*
X123311Y265355D01*
X123314Y265353D01*
X124014Y265553D01*
X124020Y265562D01*
X124027Y265559D01*
X124627Y265959D01*
X124630Y265966D01*
X124635Y265965D01*
X125135Y266465D01*
X125135Y266469D01*
X125138Y266469D01*
X125538Y266969D01*
X125539Y266977D01*
X125544Y266978D01*
X125844Y267578D01*
X125842Y267589D01*
X125849Y267593D01*
X125949Y268293D01*
X125946Y268298D01*
X125949Y268300D01*
X125949Y269000D01*
X125946Y269004D01*
X125949Y269007D01*
X125849Y269707D01*
X125844Y269712D01*
X125847Y269716D01*
X125647Y270316D01*
X125639Y270321D01*
X125641Y270327D01*
X125241Y270927D01*
X125238Y270928D01*
X125238Y270931D01*
X124838Y271431D01*
X124828Y271433D01*
X124827Y271441D01*
X124227Y271841D01*
X124218Y271840D01*
X124216Y271847D01*
X123616Y272047D01*
X123614Y272046D01*
X123614Y272047D01*
X122914Y272247D01*
X122906Y272244D01*
X122904Y272244D01*
X122900Y272249D01*
X122300Y272249D01*
X122296Y272246D01*
X122293Y272249D01*
X121593Y272149D01*
X121590Y272146D01*
X121589Y272146D01*
X121586Y272147D01*
X120886Y271947D01*
X120880Y271939D01*
X120873Y271941D01*
X120273Y271541D01*
X120269Y271531D01*
X120262Y271531D01*
X119862Y271031D01*
X119861Y271002D01*
X119851Y270992D01*
X119951Y270392D01*
X119963Y270381D01*
X119960Y270371D01*
X120460Y269671D01*
X120474Y269667D01*
X120475Y269658D01*
X120975Y269358D01*
X121007Y269361D01*
X121018Y269354D01*
X121518Y269554D01*
X121519Y269555D01*
X122210Y269851D01*
X122785Y269851D01*
X123359Y269468D01*
X123551Y268892D01*
X123551Y268220D01*
X123076Y267746D01*
X122503Y267650D01*
X121818Y267846D01*
X121222Y268144D01*
X121193Y268139D01*
X121182Y268146D01*
X120682Y267946D01*
X120673Y267931D01*
X120662Y267932D01*
X120162Y267332D01*
X120162Y267323D01*
X120156Y267322D01*
X119856Y266722D01*
X119861Y266693D01*
X119854Y266682D01*
X120054Y266182D01*
X120069Y266173D01*
X120068Y266162D01*
X120668Y265662D01*
X120677Y265662D01*
X120678Y265656D01*
X121278Y265356D01*
X121289Y265358D01*
X121293Y265351D01*
X121993Y265251D01*
X121998Y265254D01*
X122000Y265251D01*
X122700Y265251D01*
X122705Y265254D01*
G37*
G36*
X148703Y245253D02*
X148703Y245253D01*
X148705Y245251D01*
X149605Y245351D01*
X149615Y245360D01*
X149622Y245356D01*
X150222Y245656D01*
X150229Y245670D01*
X150239Y245670D01*
X150539Y246070D01*
X150539Y246080D01*
X150546Y246082D01*
X150746Y246582D01*
X150743Y246590D01*
X150749Y246593D01*
X150849Y247293D01*
X150846Y247298D01*
X150849Y247300D01*
X150849Y254900D01*
X150833Y254921D01*
X150835Y254935D01*
X150435Y255335D01*
X150412Y255338D01*
X150406Y255349D01*
X149606Y255449D01*
X149600Y255446D01*
X149589Y255446D01*
X149586Y255447D01*
X148886Y255247D01*
X148871Y255227D01*
X148858Y255225D01*
X148558Y254725D01*
X148558Y254721D01*
X148557Y254720D01*
X148559Y254717D01*
X148560Y254707D01*
X148551Y254700D01*
X148551Y247920D01*
X148173Y247543D01*
X147584Y247347D01*
X147573Y247330D01*
X147561Y247330D01*
X147261Y246930D01*
X147261Y246908D01*
X147251Y246900D01*
X147251Y246000D01*
X147258Y245991D01*
X147253Y245984D01*
X147453Y245384D01*
X147483Y245364D01*
X147488Y245352D01*
X147888Y245252D01*
X147896Y245256D01*
X147900Y245251D01*
X148700Y245251D01*
X148703Y245253D01*
G37*
G36*
X308703Y215253D02*
X308703Y215253D01*
X308705Y215251D01*
X309605Y215351D01*
X309615Y215360D01*
X309622Y215356D01*
X310222Y215656D01*
X310229Y215670D01*
X310239Y215670D01*
X310539Y216070D01*
X310539Y216080D01*
X310546Y216082D01*
X310746Y216582D01*
X310743Y216590D01*
X310749Y216593D01*
X310849Y217293D01*
X310846Y217298D01*
X310849Y217300D01*
X310849Y224900D01*
X310833Y224921D01*
X310835Y224935D01*
X310435Y225335D01*
X310412Y225338D01*
X310406Y225349D01*
X309606Y225449D01*
X309600Y225446D01*
X309589Y225446D01*
X309586Y225447D01*
X308886Y225247D01*
X308871Y225227D01*
X308858Y225225D01*
X308558Y224725D01*
X308558Y224721D01*
X308557Y224720D01*
X308559Y224717D01*
X308560Y224707D01*
X308551Y224700D01*
X308551Y217920D01*
X308173Y217543D01*
X307584Y217347D01*
X307573Y217330D01*
X307561Y217330D01*
X307261Y216930D01*
X307261Y216908D01*
X307251Y216900D01*
X307251Y216000D01*
X307258Y215991D01*
X307253Y215984D01*
X307453Y215384D01*
X307483Y215364D01*
X307488Y215352D01*
X307888Y215252D01*
X307896Y215256D01*
X307900Y215251D01*
X308700Y215251D01*
X308703Y215253D01*
G37*
G36*
X128703Y245253D02*
X128703Y245253D01*
X128705Y245251D01*
X129605Y245351D01*
X129615Y245360D01*
X129622Y245356D01*
X130222Y245656D01*
X130229Y245670D01*
X130239Y245670D01*
X130539Y246070D01*
X130539Y246080D01*
X130546Y246082D01*
X130746Y246582D01*
X130743Y246590D01*
X130749Y246593D01*
X130849Y247293D01*
X130846Y247298D01*
X130849Y247300D01*
X130849Y254900D01*
X130833Y254921D01*
X130835Y254935D01*
X130435Y255335D01*
X130412Y255338D01*
X130406Y255349D01*
X129606Y255449D01*
X129600Y255446D01*
X129589Y255446D01*
X129586Y255447D01*
X128886Y255247D01*
X128871Y255227D01*
X128858Y255225D01*
X128558Y254725D01*
X128558Y254721D01*
X128557Y254720D01*
X128559Y254717D01*
X128560Y254707D01*
X128551Y254700D01*
X128551Y247916D01*
X128271Y247543D01*
X127586Y247347D01*
X127573Y247330D01*
X127561Y247330D01*
X127261Y246930D01*
X127261Y246908D01*
X127251Y246900D01*
X127251Y246000D01*
X127258Y245991D01*
X127253Y245984D01*
X127453Y245384D01*
X127485Y245363D01*
X127490Y245352D01*
X127990Y245252D01*
X127997Y245255D01*
X128000Y245251D01*
X128700Y245251D01*
X128703Y245253D01*
G37*
G36*
X288703Y215253D02*
X288703Y215253D01*
X288705Y215251D01*
X289605Y215351D01*
X289615Y215360D01*
X289622Y215356D01*
X290222Y215656D01*
X290229Y215670D01*
X290239Y215670D01*
X290539Y216070D01*
X290539Y216080D01*
X290546Y216082D01*
X290746Y216582D01*
X290743Y216590D01*
X290749Y216593D01*
X290849Y217293D01*
X290846Y217298D01*
X290849Y217300D01*
X290849Y224900D01*
X290833Y224921D01*
X290835Y224935D01*
X290435Y225335D01*
X290412Y225338D01*
X290406Y225349D01*
X289606Y225449D01*
X289600Y225446D01*
X289589Y225446D01*
X289586Y225447D01*
X288886Y225247D01*
X288871Y225227D01*
X288858Y225225D01*
X288558Y224725D01*
X288558Y224721D01*
X288557Y224720D01*
X288559Y224717D01*
X288560Y224707D01*
X288551Y224700D01*
X288551Y217916D01*
X288271Y217543D01*
X287586Y217347D01*
X287573Y217330D01*
X287561Y217330D01*
X287261Y216930D01*
X287261Y216908D01*
X287251Y216900D01*
X287251Y216000D01*
X287258Y215991D01*
X287253Y215984D01*
X287453Y215384D01*
X287485Y215363D01*
X287490Y215352D01*
X287990Y215252D01*
X287997Y215255D01*
X288000Y215251D01*
X288700Y215251D01*
X288703Y215253D01*
G37*
G36*
X143103Y245253D02*
X143103Y245253D01*
X143105Y245251D01*
X144005Y245351D01*
X144015Y245360D01*
X144022Y245356D01*
X144622Y245656D01*
X144627Y245666D01*
X144635Y245665D01*
X145035Y246065D01*
X145038Y246085D01*
X145048Y246090D01*
X145148Y246590D01*
X145147Y246592D01*
X145149Y246593D01*
X145249Y247293D01*
X145246Y247298D01*
X145249Y247300D01*
X145249Y254900D01*
X145233Y254921D01*
X145235Y254935D01*
X144835Y255335D01*
X144812Y255338D01*
X144806Y255349D01*
X144006Y255449D01*
X144000Y255446D01*
X143989Y255446D01*
X143986Y255447D01*
X143286Y255247D01*
X143271Y255227D01*
X143258Y255225D01*
X142958Y254725D01*
X142958Y254721D01*
X142957Y254720D01*
X142959Y254717D01*
X142960Y254707D01*
X142951Y254700D01*
X142951Y247916D01*
X142671Y247543D01*
X141986Y247347D01*
X141969Y247325D01*
X141956Y247322D01*
X141756Y246922D01*
X141759Y246906D01*
X141751Y246900D01*
X141751Y246000D01*
X141758Y245991D01*
X141753Y245984D01*
X141953Y245384D01*
X141983Y245364D01*
X141988Y245352D01*
X142388Y245252D01*
X142396Y245256D01*
X142400Y245251D01*
X143100Y245251D01*
X143103Y245253D01*
G37*
G36*
X303103Y215253D02*
X303103Y215253D01*
X303105Y215251D01*
X304005Y215351D01*
X304015Y215360D01*
X304022Y215356D01*
X304622Y215656D01*
X304627Y215666D01*
X304635Y215665D01*
X305035Y216065D01*
X305038Y216085D01*
X305048Y216090D01*
X305148Y216590D01*
X305147Y216592D01*
X305149Y216593D01*
X305249Y217293D01*
X305246Y217298D01*
X305249Y217300D01*
X305249Y224900D01*
X305233Y224921D01*
X305235Y224935D01*
X304835Y225335D01*
X304812Y225338D01*
X304806Y225349D01*
X304006Y225449D01*
X304000Y225446D01*
X303989Y225446D01*
X303986Y225447D01*
X303286Y225247D01*
X303271Y225227D01*
X303258Y225225D01*
X302958Y224725D01*
X302958Y224721D01*
X302957Y224720D01*
X302959Y224717D01*
X302960Y224707D01*
X302951Y224700D01*
X302951Y217916D01*
X302671Y217543D01*
X301986Y217347D01*
X301969Y217325D01*
X301956Y217322D01*
X301756Y216922D01*
X301759Y216906D01*
X301751Y216900D01*
X301751Y216000D01*
X301758Y215991D01*
X301753Y215984D01*
X301953Y215384D01*
X301983Y215364D01*
X301988Y215352D01*
X302388Y215252D01*
X302396Y215256D01*
X302400Y215251D01*
X303100Y215251D01*
X303103Y215253D01*
G37*
G36*
X115403Y245256D02*
X115403Y245256D01*
X115408Y245251D01*
X116008Y245351D01*
X116029Y245373D01*
X116042Y245375D01*
X116342Y245875D01*
X116342Y245878D01*
X116340Y245893D01*
X116349Y245900D01*
X116349Y251300D01*
X116342Y251309D01*
X116347Y251316D01*
X116147Y251916D01*
X116120Y251934D01*
X116116Y251947D01*
X115516Y252147D01*
X115511Y252145D01*
X115511Y252146D01*
X115503Y252146D01*
X115500Y252149D01*
X114700Y252149D01*
X114695Y252146D01*
X114694Y252146D01*
X114684Y252138D01*
X114675Y252142D01*
X114175Y251842D01*
X114169Y251828D01*
X114159Y251827D01*
X113986Y251568D01*
X113427Y251941D01*
X113423Y251941D01*
X113422Y251944D01*
X112822Y252244D01*
X112812Y252242D01*
X112810Y252244D01*
X112798Y252244D01*
X112793Y252249D01*
X112093Y252149D01*
X112092Y252148D01*
X112092Y252149D01*
X111492Y252049D01*
X111473Y252028D01*
X111459Y252027D01*
X111059Y251427D01*
X111059Y251422D01*
X111057Y251420D01*
X111060Y251417D01*
X111061Y251402D01*
X111051Y251392D01*
X111151Y250792D01*
X111155Y250789D01*
X111153Y250786D01*
X111353Y250086D01*
X111372Y250072D01*
X111373Y250059D01*
X111973Y249659D01*
X112004Y249661D01*
X112016Y249653D01*
X112611Y249852D01*
X113290Y249949D01*
X113762Y249665D01*
X114051Y249088D01*
X114051Y245700D01*
X114073Y245670D01*
X114075Y245658D01*
X114575Y245358D01*
X114589Y245359D01*
X114594Y245351D01*
X115394Y245251D01*
X115403Y245256D01*
G37*
G36*
X275403Y215256D02*
X275403Y215256D01*
X275408Y215251D01*
X276008Y215351D01*
X276029Y215373D01*
X276042Y215375D01*
X276342Y215875D01*
X276342Y215878D01*
X276340Y215893D01*
X276349Y215900D01*
X276349Y221300D01*
X276342Y221309D01*
X276347Y221316D01*
X276147Y221916D01*
X276120Y221934D01*
X276116Y221947D01*
X275516Y222147D01*
X275511Y222145D01*
X275511Y222146D01*
X275503Y222146D01*
X275500Y222149D01*
X274700Y222149D01*
X274695Y222146D01*
X274694Y222146D01*
X274684Y222138D01*
X274675Y222142D01*
X274175Y221842D01*
X274169Y221828D01*
X274159Y221827D01*
X273986Y221568D01*
X273427Y221941D01*
X273423Y221941D01*
X273422Y221944D01*
X272822Y222244D01*
X272812Y222242D01*
X272810Y222244D01*
X272798Y222244D01*
X272793Y222249D01*
X272093Y222149D01*
X272092Y222148D01*
X272092Y222149D01*
X271492Y222049D01*
X271473Y222028D01*
X271459Y222027D01*
X271059Y221427D01*
X271059Y221422D01*
X271057Y221420D01*
X271060Y221417D01*
X271061Y221402D01*
X271051Y221392D01*
X271151Y220792D01*
X271155Y220789D01*
X271153Y220786D01*
X271353Y220086D01*
X271372Y220072D01*
X271373Y220059D01*
X271973Y219659D01*
X272004Y219661D01*
X272016Y219653D01*
X272611Y219852D01*
X273290Y219949D01*
X273762Y219665D01*
X274051Y219088D01*
X274051Y215700D01*
X274073Y215670D01*
X274075Y215658D01*
X274575Y215358D01*
X274589Y215359D01*
X274594Y215351D01*
X275394Y215251D01*
X275403Y215256D01*
G37*
%LPC*%
G36*
X527928Y245740D02*
X527928Y245740D01*
X527465Y245833D01*
X527433Y245832D01*
X527390Y245840D01*
X526980Y245840D01*
X526660Y246000D01*
X526627Y246008D01*
X526582Y246029D01*
X526246Y246113D01*
X526032Y246256D01*
X525886Y246402D01*
X525706Y246671D01*
X525684Y246692D01*
X525659Y246729D01*
X525522Y246865D01*
X525351Y247380D01*
X525338Y247400D01*
X525330Y247430D01*
X525242Y247606D01*
X525170Y247822D01*
X525170Y249445D01*
X525420Y249320D01*
X525435Y249316D01*
X525448Y249307D01*
X525582Y249281D01*
X525589Y249280D01*
X525590Y249280D01*
X525700Y249280D01*
X525820Y249220D01*
X525835Y249216D01*
X525848Y249207D01*
X525982Y249181D01*
X525989Y249180D01*
X525990Y249180D01*
X526300Y249180D01*
X526420Y249120D01*
X526435Y249116D01*
X526448Y249107D01*
X526582Y249081D01*
X526589Y249080D01*
X526590Y249080D01*
X526728Y249080D01*
X526970Y248999D01*
X527007Y248996D01*
X527090Y248980D01*
X527428Y248980D01*
X527670Y248899D01*
X527707Y248896D01*
X527790Y248880D01*
X528100Y248880D01*
X528220Y248820D01*
X528235Y248816D01*
X528248Y248807D01*
X528382Y248781D01*
X528389Y248780D01*
X528390Y248780D01*
X528528Y248780D01*
X528744Y248708D01*
X528865Y248648D01*
X528921Y248591D01*
X528953Y248571D01*
X529020Y248520D01*
X529365Y248348D01*
X529421Y248291D01*
X529453Y248271D01*
X529520Y248220D01*
X529607Y248177D01*
X529810Y247770D01*
X529810Y247660D01*
X529813Y247645D01*
X529811Y247630D01*
X529848Y247498D01*
X529849Y247491D01*
X529850Y247491D01*
X529850Y247490D01*
X529910Y247370D01*
X529910Y247022D01*
X529829Y246780D01*
X529826Y246743D01*
X529810Y246660D01*
X529810Y246550D01*
X529778Y246485D01*
X529721Y246429D01*
X529713Y246415D01*
X529710Y246413D01*
X529707Y246405D01*
X529701Y246397D01*
X529650Y246330D01*
X529607Y246243D01*
X529520Y246200D01*
X529491Y246176D01*
X529421Y246129D01*
X529365Y246073D01*
X529100Y245940D01*
X528990Y245940D01*
X528975Y245937D01*
X528960Y245939D01*
X528828Y245902D01*
X528821Y245901D01*
X528821Y245900D01*
X528820Y245900D01*
X528700Y245840D01*
X528590Y245840D01*
X528575Y245837D01*
X528560Y245839D01*
X528428Y245802D01*
X528421Y245801D01*
X528421Y245800D01*
X528420Y245800D01*
X528345Y245763D01*
X528300Y245740D01*
X527928Y245740D01*
G37*
%LPD*%
%LPC*%
G36*
X173507Y270349D02*
X173507Y270349D01*
X172832Y270542D01*
X172549Y271014D01*
X172549Y271688D01*
X172837Y272263D01*
X173412Y272551D01*
X174784Y272551D01*
X175151Y272275D01*
X175151Y270349D01*
X173507Y270349D01*
G37*
%LPD*%
%LPC*%
G36*
X121620Y247649D02*
X121620Y247649D01*
X121143Y248127D01*
X120952Y248701D01*
X120961Y248734D01*
X121003Y248882D01*
X121017Y248931D01*
X121059Y249079D01*
X121060Y249079D01*
X121059Y249079D01*
X121102Y249227D01*
X121116Y249276D01*
X121143Y249371D01*
X121631Y249762D01*
X121642Y249806D01*
X121656Y249778D01*
X121693Y249760D01*
X121700Y249751D01*
X122288Y249751D01*
X122863Y249463D01*
X123151Y248888D01*
X123151Y248220D01*
X122871Y247941D01*
X122288Y247649D01*
X121620Y247649D01*
G37*
%LPD*%
%LPC*%
G36*
X281620Y217649D02*
X281620Y217649D01*
X281143Y218127D01*
X280952Y218701D01*
X280961Y218734D01*
X281003Y218882D01*
X281017Y218931D01*
X281059Y219079D01*
X281060Y219079D01*
X281059Y219079D01*
X281102Y219227D01*
X281116Y219276D01*
X281143Y219371D01*
X281631Y219762D01*
X281642Y219806D01*
X281656Y219778D01*
X281693Y219760D01*
X281700Y219751D01*
X282288Y219751D01*
X282863Y219463D01*
X283151Y218888D01*
X283151Y218220D01*
X282871Y217941D01*
X282288Y217649D01*
X281620Y217649D01*
G37*
%LPD*%
%LPC*%
G36*
X131020Y267649D02*
X131020Y267649D01*
X130543Y268127D01*
X130353Y268698D01*
X130642Y269372D01*
X131035Y269765D01*
X131041Y269808D01*
X131056Y269778D01*
X131093Y269760D01*
X131100Y269751D01*
X131688Y269751D01*
X132263Y269463D01*
X132552Y268885D01*
X132647Y268222D01*
X132274Y267942D01*
X131688Y267649D01*
X131020Y267649D01*
G37*
%LPD*%
%LPC*%
G36*
X155716Y249349D02*
X155716Y249349D01*
X155358Y249618D01*
X155537Y250156D01*
X156195Y250250D01*
X156773Y250057D01*
X157237Y249594D01*
X157074Y249349D01*
X155716Y249349D01*
G37*
%LPD*%
%LPC*%
G36*
X315716Y219349D02*
X315716Y219349D01*
X315358Y219618D01*
X315537Y220156D01*
X316195Y220250D01*
X316773Y220057D01*
X317237Y219594D01*
X317074Y219349D01*
X315716Y219349D01*
G37*
%LPD*%
%LPC*%
G36*
X113816Y269349D02*
X113816Y269349D01*
X113458Y269618D01*
X113637Y270156D01*
X114196Y270249D01*
X114776Y270056D01*
X115334Y269590D01*
X115174Y269349D01*
X113816Y269349D01*
G37*
%LPD*%
D10*
X260000Y238500D02*
X269000Y238500D01*
X260000Y238500D02*
X260000Y254500D01*
X266000Y267500D02*
X334000Y267500D01*
X340000Y254500D02*
X340000Y238500D01*
X331000Y238500D01*
D11*
X432000Y192000D02*
X432000Y28000D01*
X168000Y28000D01*
X168000Y192000D01*
X432000Y192000D01*
D12*
X437000Y23000D02*
X437000Y23000D01*
X437000Y23000D01*
X437000Y23000D01*
X437000Y23000D01*
X437000Y23000D01*
X437000Y23000D01*
X437000Y23000D01*
X437000Y23000D01*
M02*
