G04 EAGLE Gerber RS-274X export*
G75*
%MOMM*%
%FSLAX34Y34*%
%LPD*%
%IN*%
%IPPOS*%
%AMOC8*
5,1,8,0,0,1.08239X$1,22.5*%
G01*
%ADD10C,0.050000*%
%ADD11C,0.000000*%
%ADD12C,0.254000*%


D10*
X600000Y0D02*
X600000Y307000D01*
X0Y307000D02*
X0Y0D01*
X600000Y0D01*
X600000Y307000D02*
X350000Y307000D01*
X250000Y307000D02*
X0Y307000D01*
X250000Y307000D02*
X250000Y290000D01*
X350000Y290000D02*
X350000Y307000D01*
X350000Y290000D02*
X250000Y290000D01*
D11*
X342300Y21500D02*
X342302Y21622D01*
X342308Y21744D01*
X342318Y21866D01*
X342332Y21987D01*
X342350Y22108D01*
X342371Y22228D01*
X342397Y22347D01*
X342426Y22466D01*
X342460Y22583D01*
X342497Y22699D01*
X342538Y22814D01*
X342583Y22928D01*
X342631Y23040D01*
X342683Y23151D01*
X342738Y23259D01*
X342797Y23366D01*
X342860Y23471D01*
X342926Y23574D01*
X342995Y23674D01*
X343067Y23773D01*
X343143Y23869D01*
X343221Y23962D01*
X343303Y24053D01*
X343388Y24141D01*
X343475Y24226D01*
X343565Y24308D01*
X343658Y24388D01*
X343753Y24464D01*
X343851Y24537D01*
X343951Y24607D01*
X344053Y24674D01*
X344157Y24737D01*
X344264Y24797D01*
X344372Y24854D01*
X344482Y24906D01*
X344594Y24956D01*
X344707Y25001D01*
X344822Y25043D01*
X344938Y25081D01*
X345055Y25116D01*
X345173Y25146D01*
X345292Y25173D01*
X345412Y25195D01*
X345533Y25214D01*
X345654Y25229D01*
X345776Y25240D01*
X345897Y25247D01*
X346019Y25250D01*
X346142Y25249D01*
X346264Y25244D01*
X346385Y25235D01*
X346507Y25222D01*
X346628Y25205D01*
X346748Y25184D01*
X346867Y25160D01*
X346986Y25131D01*
X347104Y25099D01*
X347220Y25063D01*
X347336Y25023D01*
X347450Y24979D01*
X347562Y24932D01*
X347673Y24881D01*
X347782Y24826D01*
X347890Y24768D01*
X347995Y24706D01*
X348098Y24641D01*
X348200Y24573D01*
X348298Y24501D01*
X348395Y24426D01*
X348489Y24349D01*
X348580Y24268D01*
X348669Y24184D01*
X348755Y24097D01*
X348838Y24008D01*
X348918Y23916D01*
X348995Y23821D01*
X349069Y23724D01*
X349140Y23624D01*
X349208Y23523D01*
X349272Y23419D01*
X349333Y23313D01*
X349390Y23205D01*
X349444Y23096D01*
X349494Y22984D01*
X349540Y22871D01*
X349583Y22757D01*
X349622Y22641D01*
X349657Y22525D01*
X349689Y22407D01*
X349716Y22288D01*
X349740Y22168D01*
X349760Y22047D01*
X349776Y21926D01*
X349788Y21805D01*
X349796Y21683D01*
X349800Y21561D01*
X349800Y21439D01*
X349796Y21317D01*
X349788Y21195D01*
X349776Y21074D01*
X349760Y20953D01*
X349740Y20832D01*
X349716Y20712D01*
X349689Y20593D01*
X349657Y20475D01*
X349622Y20359D01*
X349583Y20243D01*
X349540Y20129D01*
X349494Y20016D01*
X349444Y19904D01*
X349390Y19795D01*
X349333Y19687D01*
X349272Y19581D01*
X349208Y19477D01*
X349140Y19376D01*
X349069Y19276D01*
X348995Y19179D01*
X348918Y19084D01*
X348838Y18992D01*
X348755Y18903D01*
X348669Y18816D01*
X348580Y18732D01*
X348489Y18651D01*
X348395Y18574D01*
X348298Y18499D01*
X348200Y18427D01*
X348098Y18359D01*
X347995Y18294D01*
X347890Y18232D01*
X347782Y18174D01*
X347673Y18119D01*
X347562Y18068D01*
X347450Y18021D01*
X347336Y17977D01*
X347220Y17937D01*
X347104Y17901D01*
X346986Y17869D01*
X346867Y17840D01*
X346748Y17816D01*
X346628Y17795D01*
X346507Y17778D01*
X346385Y17765D01*
X346264Y17756D01*
X346142Y17751D01*
X346019Y17750D01*
X345897Y17753D01*
X345776Y17760D01*
X345654Y17771D01*
X345533Y17786D01*
X345412Y17805D01*
X345292Y17827D01*
X345173Y17854D01*
X345055Y17884D01*
X344938Y17919D01*
X344822Y17957D01*
X344707Y17999D01*
X344594Y18044D01*
X344482Y18094D01*
X344372Y18146D01*
X344264Y18203D01*
X344157Y18263D01*
X344053Y18326D01*
X343951Y18393D01*
X343851Y18463D01*
X343753Y18536D01*
X343658Y18612D01*
X343565Y18692D01*
X343475Y18774D01*
X343388Y18859D01*
X343303Y18947D01*
X343221Y19038D01*
X343143Y19131D01*
X343067Y19227D01*
X342995Y19326D01*
X342926Y19426D01*
X342860Y19529D01*
X342797Y19634D01*
X342738Y19741D01*
X342683Y19849D01*
X342631Y19960D01*
X342583Y20072D01*
X342538Y20186D01*
X342497Y20301D01*
X342460Y20417D01*
X342426Y20534D01*
X342397Y20653D01*
X342371Y20772D01*
X342350Y20892D01*
X342332Y21013D01*
X342318Y21134D01*
X342308Y21256D01*
X342302Y21378D01*
X342300Y21500D01*
X257300Y21500D02*
X257302Y21622D01*
X257308Y21744D01*
X257318Y21866D01*
X257332Y21987D01*
X257350Y22108D01*
X257371Y22228D01*
X257397Y22347D01*
X257426Y22466D01*
X257460Y22583D01*
X257497Y22699D01*
X257538Y22814D01*
X257583Y22928D01*
X257631Y23040D01*
X257683Y23151D01*
X257738Y23259D01*
X257797Y23366D01*
X257860Y23471D01*
X257926Y23574D01*
X257995Y23674D01*
X258067Y23773D01*
X258143Y23869D01*
X258221Y23962D01*
X258303Y24053D01*
X258388Y24141D01*
X258475Y24226D01*
X258565Y24308D01*
X258658Y24388D01*
X258753Y24464D01*
X258851Y24537D01*
X258951Y24607D01*
X259053Y24674D01*
X259157Y24737D01*
X259264Y24797D01*
X259372Y24854D01*
X259482Y24906D01*
X259594Y24956D01*
X259707Y25001D01*
X259822Y25043D01*
X259938Y25081D01*
X260055Y25116D01*
X260173Y25146D01*
X260292Y25173D01*
X260412Y25195D01*
X260533Y25214D01*
X260654Y25229D01*
X260776Y25240D01*
X260897Y25247D01*
X261019Y25250D01*
X261142Y25249D01*
X261264Y25244D01*
X261385Y25235D01*
X261507Y25222D01*
X261628Y25205D01*
X261748Y25184D01*
X261867Y25160D01*
X261986Y25131D01*
X262104Y25099D01*
X262220Y25063D01*
X262336Y25023D01*
X262450Y24979D01*
X262562Y24932D01*
X262673Y24881D01*
X262782Y24826D01*
X262890Y24768D01*
X262995Y24706D01*
X263098Y24641D01*
X263200Y24573D01*
X263298Y24501D01*
X263395Y24426D01*
X263489Y24349D01*
X263580Y24268D01*
X263669Y24184D01*
X263755Y24097D01*
X263838Y24008D01*
X263918Y23916D01*
X263995Y23821D01*
X264069Y23724D01*
X264140Y23624D01*
X264208Y23523D01*
X264272Y23419D01*
X264333Y23313D01*
X264390Y23205D01*
X264444Y23096D01*
X264494Y22984D01*
X264540Y22871D01*
X264583Y22757D01*
X264622Y22641D01*
X264657Y22525D01*
X264689Y22407D01*
X264716Y22288D01*
X264740Y22168D01*
X264760Y22047D01*
X264776Y21926D01*
X264788Y21805D01*
X264796Y21683D01*
X264800Y21561D01*
X264800Y21439D01*
X264796Y21317D01*
X264788Y21195D01*
X264776Y21074D01*
X264760Y20953D01*
X264740Y20832D01*
X264716Y20712D01*
X264689Y20593D01*
X264657Y20475D01*
X264622Y20359D01*
X264583Y20243D01*
X264540Y20129D01*
X264494Y20016D01*
X264444Y19904D01*
X264390Y19795D01*
X264333Y19687D01*
X264272Y19581D01*
X264208Y19477D01*
X264140Y19376D01*
X264069Y19276D01*
X263995Y19179D01*
X263918Y19084D01*
X263838Y18992D01*
X263755Y18903D01*
X263669Y18816D01*
X263580Y18732D01*
X263489Y18651D01*
X263395Y18574D01*
X263298Y18499D01*
X263200Y18427D01*
X263098Y18359D01*
X262995Y18294D01*
X262890Y18232D01*
X262782Y18174D01*
X262673Y18119D01*
X262562Y18068D01*
X262450Y18021D01*
X262336Y17977D01*
X262220Y17937D01*
X262104Y17901D01*
X261986Y17869D01*
X261867Y17840D01*
X261748Y17816D01*
X261628Y17795D01*
X261507Y17778D01*
X261385Y17765D01*
X261264Y17756D01*
X261142Y17751D01*
X261019Y17750D01*
X260897Y17753D01*
X260776Y17760D01*
X260654Y17771D01*
X260533Y17786D01*
X260412Y17805D01*
X260292Y17827D01*
X260173Y17854D01*
X260055Y17884D01*
X259938Y17919D01*
X259822Y17957D01*
X259707Y17999D01*
X259594Y18044D01*
X259482Y18094D01*
X259372Y18146D01*
X259264Y18203D01*
X259157Y18263D01*
X259053Y18326D01*
X258951Y18393D01*
X258851Y18463D01*
X258753Y18536D01*
X258658Y18612D01*
X258565Y18692D01*
X258475Y18774D01*
X258388Y18859D01*
X258303Y18947D01*
X258221Y19038D01*
X258143Y19131D01*
X258067Y19227D01*
X257995Y19326D01*
X257926Y19426D01*
X257860Y19529D01*
X257797Y19634D01*
X257738Y19741D01*
X257683Y19849D01*
X257631Y19960D01*
X257583Y20072D01*
X257538Y20186D01*
X257497Y20301D01*
X257460Y20417D01*
X257426Y20534D01*
X257397Y20653D01*
X257371Y20772D01*
X257350Y20892D01*
X257332Y21013D01*
X257318Y21134D01*
X257308Y21256D01*
X257302Y21378D01*
X257300Y21500D01*
D12*
X0Y0D02*
X600000Y0D01*
X600000Y307000D01*
X350000Y307000D01*
X350000Y290000D01*
X250000Y290000D01*
X250000Y307000D01*
X0Y307000D01*
X0Y0D01*
X349800Y21254D02*
X349736Y20767D01*
X349609Y20292D01*
X349421Y19838D01*
X349175Y19412D01*
X348875Y19022D01*
X348528Y18675D01*
X348138Y18375D01*
X347712Y18130D01*
X347258Y17941D01*
X346783Y17814D01*
X346296Y17750D01*
X345804Y17750D01*
X345317Y17814D01*
X344842Y17941D01*
X344388Y18130D01*
X343962Y18375D01*
X343572Y18675D01*
X343225Y19022D01*
X342925Y19412D01*
X342680Y19838D01*
X342491Y20292D01*
X342364Y20767D01*
X342300Y21254D01*
X342300Y21746D01*
X342364Y22233D01*
X342491Y22708D01*
X342680Y23162D01*
X342925Y23588D01*
X343225Y23978D01*
X343572Y24325D01*
X343962Y24625D01*
X344388Y24871D01*
X344842Y25059D01*
X345317Y25186D01*
X345804Y25250D01*
X346296Y25250D01*
X346783Y25186D01*
X347258Y25059D01*
X347712Y24871D01*
X348138Y24625D01*
X348528Y24325D01*
X348875Y23978D01*
X349175Y23588D01*
X349421Y23162D01*
X349609Y22708D01*
X349736Y22233D01*
X349800Y21746D01*
X349800Y21254D01*
X264800Y21254D02*
X264736Y20767D01*
X264609Y20292D01*
X264421Y19838D01*
X264175Y19412D01*
X263875Y19022D01*
X263528Y18675D01*
X263138Y18375D01*
X262712Y18130D01*
X262258Y17941D01*
X261783Y17814D01*
X261296Y17750D01*
X260804Y17750D01*
X260317Y17814D01*
X259842Y17941D01*
X259388Y18130D01*
X258962Y18375D01*
X258572Y18675D01*
X258225Y19022D01*
X257925Y19412D01*
X257680Y19838D01*
X257491Y20292D01*
X257364Y20767D01*
X257300Y21254D01*
X257300Y21746D01*
X257364Y22233D01*
X257491Y22708D01*
X257680Y23162D01*
X257925Y23588D01*
X258225Y23978D01*
X258572Y24325D01*
X258962Y24625D01*
X259388Y24871D01*
X259842Y25059D01*
X260317Y25186D01*
X260804Y25250D01*
X261296Y25250D01*
X261783Y25186D01*
X262258Y25059D01*
X262712Y24871D01*
X263138Y24625D01*
X263528Y24325D01*
X263875Y23978D01*
X264175Y23588D01*
X264421Y23162D01*
X264609Y22708D01*
X264736Y22233D01*
X264800Y21746D01*
X264800Y21254D01*
M02*
