G04 EAGLE Gerber RS-274X export*
G75*
%MOMM*%
%FSLAX34Y34*%
%LPD*%
%INTop Copper*%
%IPPOS*%
%AMOC8*
5,1,8,0,0,1.08239X$1,22.5*%
G01*
%ADD10C,1.000000*%
%ADD11R,0.650000X1.300000*%
%ADD12R,0.480000X1.800000*%
%ADD13R,1.030000X1.000000*%

G36*
X587800Y2044D02*
X587800Y2044D01*
X587897Y2054D01*
X587921Y2064D01*
X587946Y2068D01*
X588032Y2114D01*
X588121Y2154D01*
X588141Y2171D01*
X588164Y2184D01*
X588231Y2254D01*
X588303Y2320D01*
X588315Y2343D01*
X588333Y2362D01*
X588374Y2450D01*
X588421Y2536D01*
X588426Y2561D01*
X588437Y2585D01*
X588448Y2682D01*
X588465Y2778D01*
X588461Y2804D01*
X588464Y2829D01*
X588443Y2925D01*
X588429Y3021D01*
X588417Y3044D01*
X588412Y3070D01*
X588362Y3153D01*
X588318Y3240D01*
X588299Y3259D01*
X588285Y3281D01*
X588212Y3344D01*
X588142Y3412D01*
X588113Y3428D01*
X588099Y3441D01*
X588068Y3453D01*
X587995Y3493D01*
X586160Y4253D01*
X584253Y6160D01*
X583221Y8652D01*
X583221Y11348D01*
X584253Y13840D01*
X586160Y15747D01*
X588652Y16779D01*
X591348Y16779D01*
X593840Y15747D01*
X595747Y13840D01*
X596507Y12005D01*
X596558Y11922D01*
X596604Y11836D01*
X596622Y11818D01*
X596636Y11796D01*
X596712Y11734D01*
X596782Y11667D01*
X596806Y11656D01*
X596826Y11639D01*
X596917Y11604D01*
X597005Y11563D01*
X597031Y11560D01*
X597055Y11551D01*
X597153Y11547D01*
X597249Y11536D01*
X597275Y11542D01*
X597301Y11541D01*
X597395Y11568D01*
X597490Y11588D01*
X597512Y11602D01*
X597537Y11609D01*
X597617Y11665D01*
X597701Y11715D01*
X597718Y11734D01*
X597739Y11749D01*
X597798Y11827D01*
X597861Y11901D01*
X597871Y11926D01*
X597886Y11947D01*
X597916Y12039D01*
X597953Y12130D01*
X597956Y12162D01*
X597962Y12181D01*
X597962Y12214D01*
X597971Y12296D01*
X597971Y304210D01*
X597968Y304230D01*
X597970Y304249D01*
X597948Y304351D01*
X597932Y304453D01*
X597922Y304470D01*
X597918Y304490D01*
X597865Y304579D01*
X597816Y304670D01*
X597802Y304684D01*
X597792Y304701D01*
X597713Y304768D01*
X597638Y304840D01*
X597620Y304848D01*
X597605Y304861D01*
X597509Y304900D01*
X597415Y304943D01*
X597395Y304945D01*
X597377Y304953D01*
X597210Y304971D01*
X352790Y304971D01*
X352770Y304968D01*
X352751Y304970D01*
X352649Y304948D01*
X352547Y304932D01*
X352530Y304922D01*
X352510Y304918D01*
X352421Y304865D01*
X352330Y304816D01*
X352316Y304802D01*
X352299Y304792D01*
X352232Y304713D01*
X352160Y304638D01*
X352152Y304620D01*
X352139Y304605D01*
X352100Y304509D01*
X352057Y304415D01*
X352055Y304395D01*
X352047Y304377D01*
X352029Y304210D01*
X352029Y289160D01*
X350840Y287971D01*
X249160Y287971D01*
X247971Y289160D01*
X247971Y304210D01*
X247968Y304230D01*
X247970Y304249D01*
X247948Y304351D01*
X247932Y304453D01*
X247922Y304470D01*
X247918Y304490D01*
X247865Y304579D01*
X247816Y304670D01*
X247802Y304684D01*
X247792Y304701D01*
X247713Y304768D01*
X247638Y304840D01*
X247620Y304848D01*
X247605Y304861D01*
X247509Y304900D01*
X247415Y304943D01*
X247395Y304945D01*
X247377Y304953D01*
X247210Y304971D01*
X2790Y304971D01*
X2770Y304968D01*
X2751Y304970D01*
X2649Y304948D01*
X2547Y304932D01*
X2530Y304922D01*
X2510Y304918D01*
X2421Y304865D01*
X2330Y304816D01*
X2316Y304802D01*
X2299Y304792D01*
X2232Y304713D01*
X2160Y304638D01*
X2152Y304620D01*
X2139Y304605D01*
X2100Y304509D01*
X2057Y304415D01*
X2055Y304395D01*
X2047Y304377D01*
X2029Y304210D01*
X2029Y292296D01*
X2044Y292200D01*
X2054Y292103D01*
X2064Y292079D01*
X2068Y292054D01*
X2114Y291968D01*
X2154Y291879D01*
X2171Y291859D01*
X2184Y291836D01*
X2254Y291769D01*
X2320Y291697D01*
X2343Y291685D01*
X2362Y291667D01*
X2450Y291626D01*
X2536Y291579D01*
X2561Y291574D01*
X2585Y291563D01*
X2682Y291552D01*
X2778Y291535D01*
X2804Y291539D01*
X2829Y291536D01*
X2925Y291557D01*
X3021Y291571D01*
X3044Y291583D01*
X3070Y291588D01*
X3153Y291638D01*
X3240Y291682D01*
X3259Y291701D01*
X3281Y291715D01*
X3344Y291788D01*
X3412Y291858D01*
X3428Y291887D01*
X3441Y291901D01*
X3453Y291932D01*
X3493Y292005D01*
X4253Y293840D01*
X6160Y295747D01*
X8652Y296779D01*
X11348Y296779D01*
X13840Y295747D01*
X15747Y293840D01*
X16779Y291348D01*
X16779Y288652D01*
X15747Y286160D01*
X13840Y284253D01*
X11348Y283221D01*
X8652Y283221D01*
X6160Y284253D01*
X4253Y286160D01*
X3493Y287995D01*
X3442Y288078D01*
X3396Y288164D01*
X3378Y288182D01*
X3364Y288204D01*
X3288Y288266D01*
X3218Y288333D01*
X3194Y288344D01*
X3174Y288361D01*
X3083Y288396D01*
X2995Y288437D01*
X2969Y288440D01*
X2945Y288449D01*
X2847Y288453D01*
X2751Y288464D01*
X2725Y288458D01*
X2699Y288459D01*
X2605Y288432D01*
X2510Y288412D01*
X2488Y288398D01*
X2463Y288391D01*
X2383Y288335D01*
X2299Y288285D01*
X2282Y288266D01*
X2261Y288251D01*
X2202Y288173D01*
X2139Y288099D01*
X2129Y288074D01*
X2114Y288053D01*
X2084Y287961D01*
X2047Y287870D01*
X2044Y287838D01*
X2038Y287819D01*
X2038Y287786D01*
X2029Y287704D01*
X2029Y2790D01*
X2032Y2770D01*
X2030Y2751D01*
X2052Y2649D01*
X2068Y2547D01*
X2078Y2530D01*
X2082Y2510D01*
X2135Y2421D01*
X2184Y2330D01*
X2198Y2316D01*
X2208Y2299D01*
X2287Y2232D01*
X2362Y2160D01*
X2380Y2152D01*
X2395Y2139D01*
X2491Y2100D01*
X2585Y2057D01*
X2605Y2055D01*
X2623Y2047D01*
X2790Y2029D01*
X587704Y2029D01*
X587800Y2044D01*
G37*
%LPC*%
G36*
X338763Y4321D02*
X338763Y4321D01*
X337721Y5363D01*
X337721Y16837D01*
X338763Y17879D01*
X350537Y17879D01*
X351579Y16837D01*
X351579Y5363D01*
X350537Y4321D01*
X338763Y4321D01*
G37*
%LPD*%
%LPC*%
G36*
X249463Y4321D02*
X249463Y4321D01*
X248421Y5363D01*
X248421Y16837D01*
X249463Y17879D01*
X261237Y17879D01*
X262279Y16837D01*
X262279Y5363D01*
X261237Y4321D01*
X249463Y4321D01*
G37*
%LPD*%
%LPC*%
G36*
X343463Y115021D02*
X343463Y115021D01*
X342421Y116063D01*
X342421Y135537D01*
X343463Y136579D01*
X349737Y136579D01*
X350779Y135537D01*
X350779Y116063D01*
X349737Y115021D01*
X343463Y115021D01*
G37*
%LPD*%
%LPC*%
G36*
X249963Y115021D02*
X249963Y115021D01*
X248921Y116063D01*
X248921Y135537D01*
X249963Y136579D01*
X256237Y136579D01*
X257279Y135537D01*
X257279Y116063D01*
X256237Y115021D01*
X249963Y115021D01*
G37*
%LPD*%
%LPC*%
G36*
X343463Y57521D02*
X343463Y57521D01*
X342421Y58563D01*
X342421Y78037D01*
X343463Y79079D01*
X349737Y79079D01*
X350779Y78037D01*
X350779Y58563D01*
X349737Y57521D01*
X343463Y57521D01*
G37*
%LPD*%
%LPC*%
G36*
X249963Y57521D02*
X249963Y57521D01*
X248921Y58563D01*
X248921Y78037D01*
X249963Y79079D01*
X256237Y79079D01*
X257279Y78037D01*
X257279Y58563D01*
X256237Y57521D01*
X249963Y57521D01*
G37*
%LPD*%
%LPC*%
G36*
X315063Y124221D02*
X315063Y124221D01*
X314021Y125263D01*
X314021Y139737D01*
X315063Y140779D01*
X323037Y140779D01*
X324079Y139737D01*
X324079Y125263D01*
X323037Y124221D01*
X315063Y124221D01*
G37*
%LPD*%
%LPC*%
G36*
X302363Y124221D02*
X302363Y124221D01*
X301321Y125263D01*
X301321Y139737D01*
X302363Y140779D01*
X310337Y140779D01*
X311379Y139737D01*
X311379Y125263D01*
X310337Y124221D01*
X302363Y124221D01*
G37*
%LPD*%
%LPC*%
G36*
X289663Y124221D02*
X289663Y124221D01*
X288621Y125263D01*
X288621Y139737D01*
X289663Y140779D01*
X297637Y140779D01*
X298679Y139737D01*
X298679Y125263D01*
X297637Y124221D01*
X289663Y124221D01*
G37*
%LPD*%
%LPC*%
G36*
X276963Y124221D02*
X276963Y124221D01*
X275921Y125263D01*
X275921Y139737D01*
X276963Y140779D01*
X284937Y140779D01*
X285979Y139737D01*
X285979Y125263D01*
X284937Y124221D01*
X276963Y124221D01*
G37*
%LPD*%
%LPC*%
G36*
X264263Y124221D02*
X264263Y124221D01*
X263221Y125263D01*
X263221Y139737D01*
X264263Y140779D01*
X272237Y140779D01*
X273279Y139737D01*
X273279Y125263D01*
X272237Y124221D01*
X264263Y124221D01*
G37*
%LPD*%
%LPC*%
G36*
X333273Y134023D02*
X333273Y134023D01*
X333273Y141541D01*
X335335Y141541D01*
X335981Y141368D01*
X336560Y141033D01*
X337033Y140560D01*
X337368Y139981D01*
X337541Y139334D01*
X337541Y134023D01*
X333273Y134023D01*
G37*
%LPD*%
%LPC*%
G36*
X333273Y123459D02*
X333273Y123459D01*
X333273Y130977D01*
X337541Y130977D01*
X337541Y125666D01*
X337368Y125019D01*
X337033Y124440D01*
X336560Y123967D01*
X335981Y123632D01*
X335334Y123459D01*
X333273Y123459D01*
G37*
%LPD*%
%LPC*%
G36*
X325959Y134023D02*
X325959Y134023D01*
X325959Y139334D01*
X326132Y139981D01*
X326467Y140560D01*
X326940Y141033D01*
X327519Y141368D01*
X328166Y141541D01*
X330227Y141541D01*
X330227Y134023D01*
X325959Y134023D01*
G37*
%LPD*%
%LPC*%
G36*
X328166Y123459D02*
X328166Y123459D01*
X327519Y123632D01*
X326940Y123967D01*
X326467Y124440D01*
X326132Y125019D01*
X325959Y125666D01*
X325959Y130977D01*
X330227Y130977D01*
X330227Y123459D01*
X328166Y123459D01*
G37*
%LPD*%
%LPC*%
G36*
X331749Y132499D02*
X331749Y132499D01*
X331749Y132501D01*
X331751Y132501D01*
X331751Y132499D01*
X331749Y132499D01*
G37*
%LPD*%
D10*
X590000Y10000D03*
X10000Y290000D03*
D11*
X331750Y132500D03*
X319050Y132500D03*
X306350Y132500D03*
X293650Y132500D03*
X280950Y132500D03*
X268250Y132500D03*
D12*
X253100Y68300D03*
X253100Y125800D03*
X346600Y125800D03*
X346600Y68300D03*
D13*
X255350Y11100D03*
X344650Y11100D03*
M02*
