G04 EAGLE Gerber RS-274X export*
G75*
%MOMM*%
%FSLAX34Y34*%
%LPD*%
%INTop Copper*%
%IPPOS*%
%AMOC8*
5,1,8,0,0,1.08239X$1,22.5*%
G01*
%ADD10C,1.000000*%
%ADD11R,0.700000X2.100000*%
%ADD12R,0.650000X1.230000*%

G36*
X240030Y2032D02*
X240030Y2032D01*
X240049Y2030D01*
X240151Y2052D01*
X240253Y2068D01*
X240270Y2078D01*
X240290Y2082D01*
X240379Y2135D01*
X240470Y2184D01*
X240484Y2198D01*
X240501Y2208D01*
X240568Y2287D01*
X240640Y2362D01*
X240648Y2380D01*
X240661Y2395D01*
X240700Y2491D01*
X240743Y2585D01*
X240745Y2605D01*
X240753Y2623D01*
X240771Y2790D01*
X240771Y20237D01*
X241813Y21279D01*
X250287Y21279D01*
X251329Y20237D01*
X251329Y2790D01*
X251332Y2770D01*
X251330Y2751D01*
X251352Y2649D01*
X251368Y2547D01*
X251378Y2530D01*
X251382Y2510D01*
X251435Y2421D01*
X251484Y2330D01*
X251498Y2316D01*
X251508Y2299D01*
X251587Y2232D01*
X251662Y2160D01*
X251680Y2152D01*
X251695Y2139D01*
X251791Y2100D01*
X251885Y2057D01*
X251905Y2055D01*
X251923Y2047D01*
X252090Y2029D01*
X369910Y2029D01*
X369930Y2032D01*
X369949Y2030D01*
X370051Y2052D01*
X370153Y2068D01*
X370170Y2078D01*
X370190Y2082D01*
X370279Y2135D01*
X370370Y2184D01*
X370384Y2198D01*
X370401Y2208D01*
X370468Y2287D01*
X370540Y2362D01*
X370548Y2380D01*
X370561Y2395D01*
X370600Y2491D01*
X370643Y2585D01*
X370645Y2605D01*
X370653Y2623D01*
X370671Y2790D01*
X370671Y20237D01*
X371713Y21279D01*
X380187Y21279D01*
X381229Y20237D01*
X381229Y2790D01*
X381232Y2770D01*
X381230Y2751D01*
X381252Y2649D01*
X381268Y2547D01*
X381278Y2530D01*
X381282Y2510D01*
X381335Y2421D01*
X381384Y2330D01*
X381398Y2316D01*
X381408Y2299D01*
X381487Y2232D01*
X381562Y2160D01*
X381580Y2152D01*
X381595Y2139D01*
X381691Y2100D01*
X381785Y2057D01*
X381805Y2055D01*
X381823Y2047D01*
X381990Y2029D01*
X587704Y2029D01*
X587800Y2044D01*
X587897Y2054D01*
X587921Y2064D01*
X587946Y2068D01*
X588032Y2114D01*
X588121Y2154D01*
X588141Y2171D01*
X588164Y2184D01*
X588231Y2254D01*
X588303Y2320D01*
X588315Y2343D01*
X588333Y2362D01*
X588374Y2450D01*
X588421Y2536D01*
X588426Y2561D01*
X588437Y2585D01*
X588448Y2682D01*
X588465Y2778D01*
X588461Y2804D01*
X588464Y2829D01*
X588443Y2925D01*
X588429Y3021D01*
X588417Y3044D01*
X588412Y3070D01*
X588362Y3153D01*
X588318Y3240D01*
X588299Y3259D01*
X588285Y3281D01*
X588212Y3344D01*
X588142Y3412D01*
X588113Y3428D01*
X588099Y3441D01*
X588068Y3453D01*
X587995Y3493D01*
X586160Y4253D01*
X584253Y6160D01*
X583221Y8652D01*
X583221Y11348D01*
X584253Y13840D01*
X586160Y15747D01*
X588652Y16779D01*
X591348Y16779D01*
X593840Y15747D01*
X595747Y13840D01*
X596507Y12005D01*
X596558Y11922D01*
X596604Y11836D01*
X596622Y11818D01*
X596636Y11796D01*
X596712Y11734D01*
X596782Y11667D01*
X596806Y11656D01*
X596826Y11639D01*
X596917Y11604D01*
X597005Y11563D01*
X597031Y11560D01*
X597055Y11551D01*
X597153Y11547D01*
X597249Y11536D01*
X597275Y11542D01*
X597301Y11541D01*
X597395Y11568D01*
X597490Y11588D01*
X597512Y11602D01*
X597537Y11609D01*
X597617Y11665D01*
X597701Y11715D01*
X597718Y11734D01*
X597739Y11749D01*
X597798Y11827D01*
X597861Y11901D01*
X597871Y11926D01*
X597886Y11947D01*
X597916Y12039D01*
X597953Y12130D01*
X597956Y12162D01*
X597962Y12181D01*
X597962Y12214D01*
X597971Y12296D01*
X597971Y304210D01*
X597968Y304230D01*
X597970Y304249D01*
X597948Y304351D01*
X597932Y304453D01*
X597922Y304470D01*
X597918Y304490D01*
X597865Y304579D01*
X597816Y304670D01*
X597802Y304684D01*
X597792Y304701D01*
X597713Y304768D01*
X597638Y304840D01*
X597620Y304848D01*
X597605Y304861D01*
X597509Y304900D01*
X597415Y304943D01*
X597395Y304945D01*
X597377Y304953D01*
X597210Y304971D01*
X352790Y304971D01*
X352770Y304968D01*
X352751Y304970D01*
X352649Y304948D01*
X352547Y304932D01*
X352530Y304922D01*
X352510Y304918D01*
X352421Y304865D01*
X352330Y304816D01*
X352316Y304802D01*
X352299Y304792D01*
X352232Y304713D01*
X352160Y304638D01*
X352152Y304620D01*
X352139Y304605D01*
X352100Y304509D01*
X352057Y304415D01*
X352055Y304395D01*
X352047Y304377D01*
X352029Y304210D01*
X352029Y289160D01*
X350840Y287971D01*
X249160Y287971D01*
X247971Y289160D01*
X247971Y304210D01*
X247968Y304230D01*
X247970Y304249D01*
X247948Y304351D01*
X247932Y304453D01*
X247922Y304470D01*
X247918Y304490D01*
X247865Y304579D01*
X247816Y304670D01*
X247802Y304684D01*
X247792Y304701D01*
X247713Y304768D01*
X247638Y304840D01*
X247620Y304848D01*
X247605Y304861D01*
X247509Y304900D01*
X247415Y304943D01*
X247395Y304945D01*
X247377Y304953D01*
X247210Y304971D01*
X2790Y304971D01*
X2770Y304968D01*
X2751Y304970D01*
X2649Y304948D01*
X2547Y304932D01*
X2530Y304922D01*
X2510Y304918D01*
X2421Y304865D01*
X2330Y304816D01*
X2316Y304802D01*
X2299Y304792D01*
X2232Y304713D01*
X2160Y304638D01*
X2152Y304620D01*
X2139Y304605D01*
X2100Y304509D01*
X2057Y304415D01*
X2055Y304395D01*
X2047Y304377D01*
X2029Y304210D01*
X2029Y292296D01*
X2044Y292200D01*
X2054Y292103D01*
X2064Y292079D01*
X2068Y292054D01*
X2114Y291968D01*
X2154Y291879D01*
X2171Y291859D01*
X2184Y291836D01*
X2254Y291769D01*
X2320Y291697D01*
X2343Y291685D01*
X2362Y291667D01*
X2450Y291626D01*
X2536Y291579D01*
X2561Y291574D01*
X2585Y291563D01*
X2682Y291552D01*
X2778Y291535D01*
X2804Y291539D01*
X2829Y291536D01*
X2925Y291557D01*
X3021Y291571D01*
X3044Y291583D01*
X3070Y291588D01*
X3153Y291638D01*
X3240Y291682D01*
X3259Y291701D01*
X3281Y291715D01*
X3344Y291788D01*
X3412Y291858D01*
X3428Y291887D01*
X3441Y291901D01*
X3453Y291932D01*
X3493Y292005D01*
X4253Y293840D01*
X6160Y295747D01*
X8652Y296779D01*
X11348Y296779D01*
X13840Y295747D01*
X15747Y293840D01*
X16779Y291348D01*
X16779Y288652D01*
X15747Y286160D01*
X13840Y284253D01*
X11348Y283221D01*
X8652Y283221D01*
X6160Y284253D01*
X4253Y286160D01*
X3493Y287995D01*
X3442Y288078D01*
X3396Y288164D01*
X3378Y288182D01*
X3364Y288204D01*
X3288Y288266D01*
X3218Y288333D01*
X3194Y288344D01*
X3174Y288361D01*
X3083Y288396D01*
X2995Y288437D01*
X2969Y288440D01*
X2945Y288449D01*
X2847Y288453D01*
X2751Y288464D01*
X2725Y288458D01*
X2699Y288459D01*
X2605Y288432D01*
X2510Y288412D01*
X2488Y288398D01*
X2463Y288391D01*
X2383Y288335D01*
X2299Y288285D01*
X2282Y288266D01*
X2261Y288251D01*
X2202Y288173D01*
X2139Y288099D01*
X2129Y288074D01*
X2114Y288053D01*
X2084Y287961D01*
X2047Y287870D01*
X2044Y287838D01*
X2038Y287819D01*
X2038Y287786D01*
X2029Y287704D01*
X2029Y2790D01*
X2032Y2770D01*
X2030Y2751D01*
X2052Y2649D01*
X2068Y2547D01*
X2078Y2530D01*
X2082Y2510D01*
X2135Y2421D01*
X2184Y2330D01*
X2198Y2316D01*
X2208Y2299D01*
X2287Y2232D01*
X2362Y2160D01*
X2380Y2152D01*
X2395Y2139D01*
X2491Y2100D01*
X2585Y2057D01*
X2605Y2055D01*
X2623Y2047D01*
X2790Y2029D01*
X240010Y2029D01*
X240030Y2032D01*
G37*
%LPC*%
G36*
X371713Y116721D02*
X371713Y116721D01*
X370671Y117763D01*
X370671Y140237D01*
X371713Y141279D01*
X380187Y141279D01*
X381229Y140237D01*
X381229Y117763D01*
X380187Y116721D01*
X371713Y116721D01*
G37*
%LPD*%
%LPC*%
G36*
X241813Y116721D02*
X241813Y116721D01*
X240771Y117763D01*
X240771Y140237D01*
X241813Y141279D01*
X250287Y141279D01*
X251329Y140237D01*
X251329Y117763D01*
X250287Y116721D01*
X241813Y116721D01*
G37*
%LPD*%
%LPC*%
G36*
X327773Y135659D02*
X327773Y135659D01*
X327773Y143588D01*
X327770Y143608D01*
X327772Y143627D01*
X327750Y143729D01*
X327733Y143831D01*
X327724Y143848D01*
X327720Y143868D01*
X327667Y143957D01*
X327618Y144048D01*
X327604Y144062D01*
X327594Y144079D01*
X327515Y144146D01*
X327440Y144217D01*
X327422Y144226D01*
X327407Y144239D01*
X327311Y144278D01*
X327217Y144321D01*
X327197Y144323D01*
X327179Y144331D01*
X327012Y144349D01*
X326249Y144349D01*
X326249Y144351D01*
X327012Y144351D01*
X327032Y144354D01*
X327051Y144352D01*
X327153Y144374D01*
X327255Y144391D01*
X327272Y144400D01*
X327292Y144404D01*
X327381Y144457D01*
X327472Y144506D01*
X327486Y144520D01*
X327503Y144530D01*
X327570Y144609D01*
X327641Y144684D01*
X327650Y144702D01*
X327663Y144717D01*
X327702Y144813D01*
X327745Y144907D01*
X327747Y144927D01*
X327755Y144945D01*
X327773Y145112D01*
X327773Y153041D01*
X329834Y153041D01*
X330481Y152868D01*
X331060Y152533D01*
X331091Y152502D01*
X331165Y152449D01*
X331235Y152389D01*
X331265Y152377D01*
X331291Y152358D01*
X331378Y152331D01*
X331463Y152297D01*
X331504Y152293D01*
X331526Y152286D01*
X331558Y152287D01*
X331630Y152279D01*
X339737Y152279D01*
X340779Y151237D01*
X340779Y137463D01*
X339737Y136421D01*
X331630Y136421D01*
X331540Y136407D01*
X331449Y136399D01*
X331419Y136387D01*
X331387Y136382D01*
X331306Y136339D01*
X331222Y136303D01*
X331190Y136277D01*
X331170Y136266D01*
X331147Y136243D01*
X331091Y136198D01*
X331060Y136167D01*
X330481Y135832D01*
X329834Y135659D01*
X327773Y135659D01*
G37*
%LPD*%
%LPC*%
G36*
X309563Y136421D02*
X309563Y136421D01*
X308521Y137463D01*
X308521Y151237D01*
X309563Y152279D01*
X317537Y152279D01*
X318579Y151237D01*
X318579Y137463D01*
X317537Y136421D01*
X309563Y136421D01*
G37*
%LPD*%
%LPC*%
G36*
X296863Y136421D02*
X296863Y136421D01*
X295821Y137463D01*
X295821Y151237D01*
X296863Y152279D01*
X304837Y152279D01*
X305879Y151237D01*
X305879Y137463D01*
X304837Y136421D01*
X296863Y136421D01*
G37*
%LPD*%
%LPC*%
G36*
X284163Y136421D02*
X284163Y136421D01*
X283121Y137463D01*
X283121Y151237D01*
X284163Y152279D01*
X292137Y152279D01*
X293179Y151237D01*
X293179Y137463D01*
X292137Y136421D01*
X284163Y136421D01*
G37*
%LPD*%
%LPC*%
G36*
X271463Y136421D02*
X271463Y136421D01*
X270421Y137463D01*
X270421Y151237D01*
X271463Y152279D01*
X279437Y152279D01*
X280479Y151237D01*
X280479Y137463D01*
X279437Y136421D01*
X271463Y136421D01*
G37*
%LPD*%
%LPC*%
G36*
X258763Y136421D02*
X258763Y136421D01*
X257721Y137463D01*
X257721Y151237D01*
X258763Y152279D01*
X266737Y152279D01*
X267779Y151237D01*
X267779Y137463D01*
X266737Y136421D01*
X258763Y136421D01*
G37*
%LPD*%
%LPC*%
G36*
X344950Y15971D02*
X344950Y15971D01*
X342918Y16813D01*
X341363Y18368D01*
X340521Y20400D01*
X340521Y22600D01*
X341363Y24632D01*
X342918Y26187D01*
X344950Y27029D01*
X347150Y27029D01*
X349182Y26187D01*
X350737Y24632D01*
X351579Y22600D01*
X351579Y20400D01*
X350737Y18368D01*
X349182Y16813D01*
X347150Y15971D01*
X344950Y15971D01*
G37*
%LPD*%
%LPC*%
G36*
X259950Y15971D02*
X259950Y15971D01*
X257918Y16813D01*
X256363Y18368D01*
X255521Y20400D01*
X255521Y22600D01*
X256363Y24632D01*
X257918Y26187D01*
X259950Y27029D01*
X262150Y27029D01*
X264182Y26187D01*
X265737Y24632D01*
X266579Y22600D01*
X266579Y20400D01*
X265737Y18368D01*
X264182Y16813D01*
X262150Y15971D01*
X259950Y15971D01*
G37*
%LPD*%
%LPC*%
G36*
X320459Y145873D02*
X320459Y145873D01*
X320459Y150834D01*
X320632Y151481D01*
X320967Y152060D01*
X321440Y152533D01*
X322019Y152868D01*
X322666Y153041D01*
X324727Y153041D01*
X324727Y145873D01*
X320459Y145873D01*
G37*
%LPD*%
%LPC*%
G36*
X322666Y135659D02*
X322666Y135659D01*
X322019Y135832D01*
X321440Y136167D01*
X320967Y136640D01*
X320632Y137219D01*
X320459Y137866D01*
X320459Y142827D01*
X324727Y142827D01*
X324727Y135659D01*
X322666Y135659D01*
G37*
%LPD*%
D10*
X590000Y10000D03*
X10000Y290000D03*
D11*
X375950Y129000D03*
X246050Y129000D03*
X246050Y9000D03*
X375950Y9000D03*
D12*
X262750Y144350D03*
X275450Y144350D03*
X288150Y144350D03*
X300850Y144350D03*
X313550Y144350D03*
X326250Y144350D03*
X335750Y144350D03*
M02*
