G04 EAGLE Gerber RS-274X export*
G75*
%MOMM*%
%FSLAX34Y34*%
%LPD*%
%INSolderpaste Bottom*%
%IPPOS*%
%AMOC8*
5,1,8,0,0,1.08239X$1,22.5*%
G01*
%ADD10R,0.400000X0.800000*%
%ADD11R,0.250000X0.650000*%
%ADD12R,0.750000X1.550000*%
%ADD13R,1.550000X0.750000*%
%ADD14R,1.050000X1.050000*%


D10*
X262500Y261500D03*
D11*
X272500Y236500D03*
X277500Y236500D03*
D10*
X337500Y261500D03*
D11*
X282500Y236500D03*
X287500Y236500D03*
X292500Y236500D03*
X297500Y236500D03*
X302500Y236500D03*
X307500Y236500D03*
X312500Y236500D03*
X317500Y236500D03*
X322500Y236500D03*
X327500Y236500D03*
D12*
X410000Y40000D03*
X399000Y40000D03*
X388000Y40000D03*
X377000Y40000D03*
X366000Y40000D03*
X355000Y40000D03*
X344000Y40000D03*
X333000Y40000D03*
X322000Y40000D03*
X311000Y40000D03*
X300000Y40000D03*
X289000Y40000D03*
X278000Y40000D03*
X267000Y40000D03*
X256000Y40000D03*
X245000Y40000D03*
X234000Y40000D03*
X223000Y40000D03*
X212000Y40000D03*
X201000Y40000D03*
X190000Y40000D03*
D13*
X180000Y55000D03*
X180000Y66000D03*
X180000Y77000D03*
X180000Y88000D03*
X180000Y99000D03*
X180000Y110000D03*
X180000Y121000D03*
X180000Y132000D03*
X180000Y143000D03*
X180000Y154000D03*
X180000Y165000D03*
D12*
X190000Y180000D03*
X201000Y180000D03*
X212000Y180000D03*
X223000Y180000D03*
X234000Y180000D03*
X245000Y180000D03*
X256000Y180000D03*
X267000Y180000D03*
X278000Y180000D03*
X289000Y180000D03*
X300000Y180000D03*
X311000Y180000D03*
X322000Y180000D03*
X333000Y180000D03*
X344000Y180000D03*
X355000Y180000D03*
X366000Y180000D03*
X377000Y180000D03*
X388000Y180000D03*
X399000Y180000D03*
X410000Y180000D03*
D13*
X420000Y165000D03*
X420000Y154000D03*
X420000Y143000D03*
X420000Y132000D03*
X420000Y121000D03*
X420000Y110000D03*
X420000Y99000D03*
X420000Y88000D03*
X420000Y77000D03*
X420000Y66000D03*
X420000Y55000D03*
D14*
X402500Y57500D03*
X402500Y78500D03*
X402500Y99500D03*
X402500Y120500D03*
X402500Y141500D03*
X402500Y162500D03*
X384500Y57500D03*
X384500Y78500D03*
X384500Y99500D03*
X384500Y120500D03*
X384500Y141500D03*
X384500Y162500D03*
X366500Y57500D03*
X366500Y162500D03*
X330500Y57500D03*
X330500Y162500D03*
X197500Y162500D03*
X197500Y141500D03*
X197500Y120500D03*
X197500Y99500D03*
X197500Y78500D03*
X197500Y57500D03*
X215500Y162500D03*
X215500Y141500D03*
X215500Y120500D03*
X215500Y99500D03*
X215500Y78500D03*
X215500Y57500D03*
X233500Y162500D03*
X233500Y57500D03*
X269500Y162500D03*
X269500Y57500D03*
M02*
