G04 EAGLE Gerber RS-274X export*
G75*
%MOMM*%
%FSLAX34Y34*%
%LPD*%
%INSilkscreen Bottom*%
%IPPOS*%
%AMOC8*
5,1,8,0,0,1.08239X$1,22.5*%
G01*
%ADD10C,0.279400*%
%ADD11C,0.254000*%
%ADD12C,0.203200*%
%ADD13C,0.254000*%
%ADD14C,0.508000*%
%ADD15C,0.177800*%
%ADD16C,0.101600*%
%ADD17C,0.152400*%
%ADD18C,0.127000*%
%ADD19C,0.200000*%

G36*
X286790Y12755D02*
X286790Y12755D01*
X286841Y12772D01*
X286835Y12789D01*
X286849Y12800D01*
X286849Y61500D01*
X286833Y61521D01*
X286835Y61535D01*
X286435Y61935D01*
X286408Y61939D01*
X286400Y61949D01*
X273600Y61949D01*
X273582Y61936D01*
X273570Y61939D01*
X273170Y61639D01*
X273166Y61623D01*
X273162Y61620D01*
X273164Y61617D01*
X273162Y61608D01*
X273151Y61600D01*
X273151Y13100D01*
X273167Y13079D01*
X273165Y13065D01*
X273465Y12765D01*
X273520Y12758D01*
X273523Y12756D01*
X279516Y15853D01*
X280093Y15949D01*
X286178Y12956D01*
X286183Y12957D01*
X286184Y12953D01*
X286784Y12753D01*
X286786Y12754D01*
X286787Y12753D01*
X286790Y12755D01*
G37*
G36*
X548008Y55057D02*
X548008Y55057D01*
X548014Y55053D01*
X548714Y55253D01*
X548715Y55254D01*
X548716Y55253D01*
X549315Y55453D01*
X550014Y55653D01*
X550022Y55664D01*
X550031Y55662D01*
X550527Y56058D01*
X551122Y56356D01*
X551127Y56366D01*
X551135Y56365D01*
X552135Y57365D01*
X552135Y57369D01*
X552138Y57369D01*
X552538Y57869D01*
X552539Y57873D01*
X552541Y57873D01*
X552941Y58473D01*
X552941Y58477D01*
X552944Y58478D01*
X553244Y59078D01*
X553243Y59083D01*
X553247Y59084D01*
X553447Y59684D01*
X553446Y59686D01*
X553447Y59686D01*
X553484Y59815D01*
X553526Y59962D01*
X553540Y60012D01*
X553582Y60159D01*
X553583Y60159D01*
X553582Y60159D01*
X553625Y60307D01*
X553639Y60356D01*
X553647Y60386D01*
X553646Y60390D01*
X553649Y60392D01*
X553749Y60992D01*
X553748Y60993D01*
X553749Y60993D01*
X553849Y61693D01*
X553846Y61698D01*
X553849Y61700D01*
X553849Y95600D01*
X553813Y95647D01*
X553806Y95642D01*
X553800Y95649D01*
X540900Y95649D01*
X540896Y95646D01*
X540893Y95649D01*
X540193Y95549D01*
X540151Y95506D01*
X540155Y95503D01*
X540151Y95500D01*
X540151Y61700D01*
X540154Y61696D01*
X540151Y61693D01*
X540351Y60293D01*
X540356Y60288D01*
X540353Y60284D01*
X540753Y59084D01*
X540758Y59081D01*
X540756Y59078D01*
X541056Y58478D01*
X541060Y58476D01*
X541059Y58473D01*
X541459Y57873D01*
X541462Y57872D01*
X541462Y57869D01*
X541862Y57369D01*
X541866Y57368D01*
X541865Y57365D01*
X542865Y56365D01*
X542877Y56364D01*
X542878Y56356D01*
X543475Y56057D01*
X544073Y55659D01*
X544082Y55660D01*
X544084Y55653D01*
X545284Y55253D01*
X545286Y55254D01*
X545286Y55253D01*
X545986Y55053D01*
X545996Y55056D01*
X546000Y55051D01*
X548000Y55051D01*
X548008Y55057D01*
G37*
G36*
X311847Y23787D02*
X311847Y23787D01*
X311842Y23794D01*
X311849Y23800D01*
X311849Y61000D01*
X311846Y61005D01*
X311849Y61008D01*
X311749Y61608D01*
X311705Y61649D01*
X311703Y61646D01*
X311700Y61649D01*
X298200Y61649D01*
X298153Y61613D01*
X298158Y61606D01*
X298151Y61600D01*
X298151Y24400D01*
X298154Y24395D01*
X298151Y24392D01*
X298251Y23792D01*
X298295Y23751D01*
X298298Y23754D01*
X298300Y23751D01*
X311800Y23751D01*
X311847Y23787D01*
G37*
G36*
X526847Y68787D02*
X526847Y68787D01*
X526842Y68794D01*
X526849Y68800D01*
X526849Y106000D01*
X526846Y106005D01*
X526849Y106008D01*
X526749Y106608D01*
X526705Y106649D01*
X526703Y106646D01*
X526700Y106649D01*
X513200Y106649D01*
X513153Y106613D01*
X513158Y106606D01*
X513151Y106600D01*
X513151Y69400D01*
X513154Y69395D01*
X513151Y69392D01*
X513251Y68792D01*
X513295Y68751D01*
X513298Y68754D01*
X513300Y68751D01*
X526800Y68751D01*
X526847Y68787D01*
G37*
G36*
X573416Y58553D02*
X573416Y58553D01*
X573418Y58557D01*
X573422Y58556D01*
X579522Y61556D01*
X579531Y61573D01*
X579542Y61575D01*
X579842Y62075D01*
X579842Y62079D01*
X579844Y62080D01*
X579841Y62084D01*
X579840Y62093D01*
X579849Y62100D01*
X579849Y95900D01*
X579836Y95918D01*
X579839Y95930D01*
X579539Y96330D01*
X579508Y96339D01*
X579500Y96349D01*
X566600Y96349D01*
X566582Y96336D01*
X566570Y96339D01*
X566170Y96039D01*
X566162Y96008D01*
X566151Y96000D01*
X566151Y61800D01*
X566172Y61772D01*
X566173Y61759D01*
X566773Y61359D01*
X566777Y61359D01*
X566778Y61356D01*
X572778Y58356D01*
X572804Y58361D01*
X572816Y58353D01*
X573416Y58553D01*
G37*
G36*
X231404Y66154D02*
X231404Y66154D01*
X231407Y66151D01*
X232107Y66251D01*
X232111Y66255D01*
X232114Y66253D01*
X232814Y66453D01*
X232815Y66454D01*
X232816Y66453D01*
X233416Y66653D01*
X233419Y66658D01*
X233422Y66656D01*
X234622Y67256D01*
X234624Y67260D01*
X234627Y67259D01*
X235227Y67659D01*
X235228Y67662D01*
X235231Y67662D01*
X235731Y68062D01*
X235733Y68069D01*
X235738Y68069D01*
X236538Y69069D01*
X236539Y69073D01*
X236541Y69073D01*
X236941Y69673D01*
X236941Y69677D01*
X236944Y69678D01*
X237244Y70278D01*
X237243Y70285D01*
X237247Y70286D01*
X237258Y70324D01*
X237300Y70471D01*
X237314Y70521D01*
X237356Y70668D01*
X237357Y70668D01*
X237356Y70668D01*
X237399Y70816D01*
X237413Y70865D01*
X237447Y70985D01*
X237647Y71584D01*
X237645Y71591D01*
X237649Y71593D01*
X237749Y72293D01*
X237746Y72298D01*
X237749Y72300D01*
X237749Y73600D01*
X237746Y73604D01*
X237749Y73607D01*
X237549Y75007D01*
X237541Y75015D01*
X237544Y75022D01*
X236644Y76822D01*
X236637Y76825D01*
X236638Y76831D01*
X236238Y77331D01*
X236234Y77332D01*
X236235Y77335D01*
X235235Y78335D01*
X235231Y78335D01*
X235231Y78338D01*
X234731Y78738D01*
X234723Y78739D01*
X234722Y78744D01*
X233522Y79344D01*
X233515Y79343D01*
X233514Y79347D01*
X232815Y79547D01*
X232216Y79747D01*
X232209Y79745D01*
X232207Y79749D01*
X231507Y79849D01*
X231502Y79846D01*
X231500Y79849D01*
X208600Y79849D01*
X208595Y79846D01*
X208592Y79849D01*
X207992Y79749D01*
X207293Y79649D01*
X207285Y79641D01*
X207278Y79644D01*
X206682Y79346D01*
X205986Y79147D01*
X205981Y79140D01*
X205975Y79142D01*
X205475Y78842D01*
X205474Y78841D01*
X205473Y78841D01*
X204873Y78441D01*
X204870Y78434D01*
X204865Y78435D01*
X203865Y77435D01*
X203865Y77431D01*
X203862Y77431D01*
X203462Y76931D01*
X203461Y76927D01*
X203459Y76927D01*
X203059Y76327D01*
X203059Y76323D01*
X203056Y76322D01*
X202756Y75722D01*
X202756Y75719D01*
X202755Y75719D01*
X202757Y75717D01*
X202753Y75716D01*
X202353Y74516D01*
X202355Y74509D01*
X202351Y74507D01*
X202251Y73807D01*
X202254Y73802D01*
X202251Y73800D01*
X202251Y72400D01*
X202254Y72395D01*
X202251Y72392D01*
X202351Y71792D01*
X202451Y71093D01*
X202456Y71088D01*
X202453Y71084D01*
X202653Y70484D01*
X202658Y70481D01*
X202656Y70478D01*
X202956Y69878D01*
X202960Y69876D01*
X202959Y69873D01*
X203759Y68673D01*
X203762Y68672D01*
X203762Y68669D01*
X204162Y68169D01*
X204169Y68167D01*
X204169Y68162D01*
X204669Y67762D01*
X204673Y67761D01*
X204673Y67759D01*
X205271Y67360D01*
X205769Y66962D01*
X205779Y66961D01*
X205781Y66955D01*
X206481Y66655D01*
X206484Y66656D01*
X206484Y66653D01*
X207084Y66453D01*
X207086Y66454D01*
X207086Y66453D01*
X207786Y66253D01*
X207796Y66256D01*
X207800Y66251D01*
X208397Y66251D01*
X209093Y66151D01*
X209098Y66154D01*
X209100Y66151D01*
X231400Y66151D01*
X231404Y66154D01*
G37*
G36*
X148270Y139577D02*
X148270Y139577D01*
X148272Y139577D01*
X148800Y139600D01*
X148802Y139601D01*
X148804Y139600D01*
X149858Y139706D01*
X149862Y139709D01*
X149870Y139708D01*
X150883Y140017D01*
X150885Y140020D01*
X150890Y140020D01*
X151373Y140229D01*
X151375Y140231D01*
X151379Y140232D01*
X152300Y140752D01*
X152303Y140757D01*
X152310Y140758D01*
X153127Y141433D01*
X153128Y141437D01*
X153135Y141440D01*
X153821Y142245D01*
X153821Y142249D01*
X153825Y142251D01*
X154122Y142687D01*
X154122Y142690D01*
X154125Y142693D01*
X154619Y143629D01*
X154620Y143629D01*
X154619Y143634D01*
X154624Y143639D01*
X154938Y144651D01*
X154937Y144655D01*
X154940Y144660D01*
X155023Y145181D01*
X155023Y145182D01*
X155024Y145184D01*
X155077Y145711D01*
X155076Y145713D01*
X155077Y145714D01*
X155106Y146241D01*
X155104Y146245D01*
X155106Y146251D01*
X154999Y147305D01*
X154997Y147309D01*
X154998Y147314D01*
X154867Y147826D01*
X154865Y147827D01*
X154866Y147829D01*
X154709Y148334D01*
X154707Y148336D01*
X154707Y148339D01*
X154517Y148830D01*
X154514Y148833D01*
X154514Y148838D01*
X154008Y149769D01*
X154004Y149772D01*
X154002Y149779D01*
X153329Y150597D01*
X153328Y150598D01*
X153327Y150599D01*
X153325Y150600D01*
X153324Y150603D01*
X152942Y150966D01*
X152940Y150967D01*
X152939Y150969D01*
X152530Y151306D01*
X152528Y151307D01*
X152527Y151308D01*
X152103Y151622D01*
X152099Y151622D01*
X152095Y151626D01*
X151164Y152132D01*
X151159Y152131D01*
X151153Y152136D01*
X150145Y152459D01*
X150142Y152458D01*
X150138Y152460D01*
X149621Y152564D01*
X149619Y152563D01*
X149615Y152565D01*
X148561Y152670D01*
X148558Y152668D01*
X148555Y152670D01*
X121539Y152670D01*
X121537Y152668D01*
X121533Y152670D01*
X121344Y152651D01*
X120290Y152544D01*
X120285Y152541D01*
X120278Y152542D01*
X119264Y152241D01*
X119262Y152238D01*
X119257Y152238D01*
X118771Y152036D01*
X118769Y152033D01*
X118764Y152033D01*
X117839Y151518D01*
X117837Y151514D01*
X117830Y151512D01*
X117013Y150838D01*
X117011Y150834D01*
X117006Y150831D01*
X116652Y150440D01*
X116652Y150438D01*
X116650Y150438D01*
X116313Y150029D01*
X116312Y150027D01*
X116310Y150025D01*
X116007Y149593D01*
X116007Y149590D01*
X116004Y149587D01*
X115503Y148654D01*
X115503Y148648D01*
X115498Y148643D01*
X115184Y147631D01*
X115185Y147627D01*
X115182Y147623D01*
X115091Y147104D01*
X115092Y147101D01*
X115091Y147098D01*
X115001Y146044D01*
X115004Y146039D01*
X115002Y146032D01*
X115108Y144978D01*
X115110Y144975D01*
X115109Y144970D01*
X115233Y144457D01*
X115235Y144456D01*
X115234Y144453D01*
X115391Y143948D01*
X115392Y143947D01*
X115392Y143944D01*
X115576Y143450D01*
X115579Y143447D01*
X115579Y143441D01*
X116085Y142510D01*
X116089Y142508D01*
X116091Y142501D01*
X116758Y141678D01*
X116761Y141677D01*
X116763Y141673D01*
X117140Y141305D01*
X117143Y141304D01*
X117145Y141300D01*
X117974Y140644D01*
X117979Y140643D01*
X117983Y140638D01*
X118914Y140133D01*
X118919Y140133D01*
X118925Y140128D01*
X119930Y139799D01*
X119933Y139800D01*
X119937Y139798D01*
X120452Y139686D01*
X120455Y139688D01*
X120459Y139685D01*
X121513Y139579D01*
X121515Y139580D01*
X121519Y139579D01*
X144097Y139577D01*
X144115Y139588D01*
X144136Y139590D01*
X144145Y139608D01*
X144154Y139614D01*
X144153Y139623D01*
X144160Y139636D01*
X144169Y139826D01*
X144169Y139828D01*
X144170Y139829D01*
X144189Y149457D01*
X144190Y149457D01*
X144189Y149464D01*
X144192Y149465D01*
X144191Y149472D01*
X144197Y149487D01*
X144193Y149733D01*
X146493Y149733D01*
X146504Y149507D01*
X146504Y148902D01*
X146508Y148896D01*
X146505Y148889D01*
X146525Y148869D01*
X146540Y148845D01*
X146548Y148846D01*
X146554Y148841D01*
X146604Y148852D01*
X146848Y149037D01*
X146848Y149038D01*
X146850Y149039D01*
X147255Y149368D01*
X147713Y149605D01*
X148208Y149754D01*
X148723Y149810D01*
X149242Y149777D01*
X149754Y149689D01*
X150247Y149530D01*
X150700Y149278D01*
X151100Y148951D01*
X151443Y148563D01*
X151724Y148128D01*
X151940Y147656D01*
X152072Y147152D01*
X152155Y146636D01*
X152195Y146115D01*
X152159Y145594D01*
X152086Y145076D01*
X151961Y144570D01*
X151754Y144094D01*
X151489Y143648D01*
X151164Y143244D01*
X150778Y142899D01*
X150329Y142642D01*
X149845Y142457D01*
X149340Y142339D01*
X148822Y142291D01*
X148305Y142325D01*
X147802Y142445D01*
X147337Y142667D01*
X146926Y142982D01*
X146609Y143280D01*
X146598Y143282D01*
X146592Y143291D01*
X146567Y143287D01*
X146542Y143292D01*
X146536Y143283D01*
X146525Y143281D01*
X146506Y143240D01*
X146504Y143236D01*
X146504Y143235D01*
X146504Y143234D01*
X146504Y140055D01*
X146504Y140054D01*
X146516Y139638D01*
X146528Y139620D01*
X146531Y139598D01*
X146548Y139590D01*
X146554Y139582D01*
X146564Y139583D01*
X146578Y139577D01*
X148269Y139577D01*
X148270Y139577D01*
G37*
G36*
X475305Y339494D02*
X475305Y339494D01*
X475308Y339491D01*
X475904Y339591D01*
X476200Y339591D01*
X476209Y339598D01*
X476216Y339593D01*
X477116Y339893D01*
X477120Y339900D01*
X477125Y339898D01*
X477625Y340198D01*
X477629Y340206D01*
X477635Y340205D01*
X478235Y340805D01*
X478235Y340809D01*
X478238Y340809D01*
X478638Y341309D01*
X478639Y341314D01*
X478642Y341315D01*
X478942Y341815D01*
X478941Y341823D01*
X478947Y341824D01*
X479247Y342724D01*
X479246Y342727D01*
X479248Y342728D01*
X479245Y342732D01*
X479249Y342734D01*
X479349Y343534D01*
X479347Y343538D01*
X479349Y343540D01*
X479349Y354340D01*
X479346Y354345D01*
X479349Y354348D01*
X479249Y354944D01*
X479249Y355240D01*
X479242Y355249D01*
X479247Y355256D01*
X478947Y356156D01*
X478940Y356160D01*
X478942Y356165D01*
X478642Y356665D01*
X478638Y356667D01*
X478638Y356671D01*
X478238Y357171D01*
X478234Y357172D01*
X478235Y357175D01*
X478035Y357375D01*
X478026Y357376D01*
X478025Y357382D01*
X477026Y357982D01*
X476727Y358181D01*
X476714Y358180D01*
X476710Y358188D01*
X476213Y358288D01*
X475916Y358387D01*
X475905Y358383D01*
X475900Y358389D01*
X463900Y358389D01*
X463891Y358382D01*
X463884Y358387D01*
X462684Y357987D01*
X462680Y357980D01*
X462675Y357982D01*
X462175Y357682D01*
X462171Y357674D01*
X462165Y357675D01*
X461769Y357278D01*
X461473Y357081D01*
X461469Y357070D01*
X461461Y357070D01*
X461161Y356670D01*
X461161Y356663D01*
X461156Y356662D01*
X460756Y355862D01*
X460757Y355858D01*
X460755Y355856D01*
X460753Y355856D01*
X460553Y355256D01*
X460556Y355248D01*
X460551Y355245D01*
X460451Y354345D01*
X460453Y354342D01*
X460451Y354340D01*
X460451Y343540D01*
X460454Y343535D01*
X460451Y343532D01*
X460551Y342936D01*
X460551Y342640D01*
X460558Y342631D01*
X460553Y342624D01*
X460753Y342024D01*
X460758Y342021D01*
X460756Y342018D01*
X461156Y341218D01*
X461166Y341213D01*
X461165Y341205D01*
X461765Y340605D01*
X461769Y340605D01*
X461769Y340602D01*
X462269Y340202D01*
X462274Y340201D01*
X462275Y340198D01*
X462775Y339898D01*
X462783Y339899D01*
X462784Y339893D01*
X463083Y339794D01*
X463582Y339594D01*
X463591Y339597D01*
X463595Y339591D01*
X464495Y339491D01*
X464498Y339493D01*
X464500Y339491D01*
X475300Y339491D01*
X475305Y339494D01*
G37*
G36*
X517686Y9708D02*
X517686Y9708D01*
X517752Y9713D01*
X517770Y9724D01*
X517791Y9729D01*
X517876Y9789D01*
X517900Y9803D01*
X517903Y9808D01*
X517908Y9812D01*
X520108Y12112D01*
X520116Y12125D01*
X520129Y12135D01*
X520160Y12199D01*
X520196Y12261D01*
X520197Y12277D01*
X520204Y12291D01*
X520203Y12362D01*
X520209Y12433D01*
X520203Y12448D01*
X520202Y12464D01*
X520145Y12589D01*
X520143Y12593D01*
X520143Y12594D01*
X518275Y15209D01*
X518277Y15220D01*
X518286Y15233D01*
X518297Y15291D01*
X518306Y15312D01*
X518306Y15334D01*
X518312Y15367D01*
X518313Y15372D01*
X518313Y15373D01*
X518313Y15374D01*
X518313Y15384D01*
X518346Y15449D01*
X518402Y15506D01*
X518413Y15524D01*
X518425Y15533D01*
X518433Y15552D01*
X518473Y15604D01*
X518546Y15749D01*
X518602Y15806D01*
X518642Y15870D01*
X518686Y15933D01*
X518688Y15945D01*
X518693Y15953D01*
X518697Y15988D01*
X518713Y16074D01*
X518713Y16123D01*
X518742Y16170D01*
X518786Y16233D01*
X518788Y16245D01*
X518793Y16253D01*
X518797Y16288D01*
X518813Y16374D01*
X518813Y16484D01*
X518846Y16549D01*
X518902Y16606D01*
X518942Y16670D01*
X518986Y16733D01*
X518988Y16745D01*
X518993Y16753D01*
X518997Y16788D01*
X519003Y16821D01*
X519006Y16829D01*
X519006Y16837D01*
X519013Y16874D01*
X519013Y16923D01*
X519042Y16970D01*
X519086Y17033D01*
X519088Y17045D01*
X519093Y17053D01*
X519097Y17088D01*
X519113Y17174D01*
X519113Y17284D01*
X519142Y17342D01*
X522398Y17900D01*
X522416Y17907D01*
X522435Y17908D01*
X522495Y17941D01*
X522557Y17967D01*
X522570Y17982D01*
X522587Y17991D01*
X522626Y18047D01*
X522670Y18098D01*
X522675Y18117D01*
X522686Y18133D01*
X522708Y18244D01*
X522713Y18266D01*
X522712Y18270D01*
X522713Y18274D01*
X522713Y21474D01*
X522709Y21493D01*
X522711Y21512D01*
X522700Y21546D01*
X522699Y21553D01*
X522694Y21563D01*
X522689Y21576D01*
X522674Y21642D01*
X522661Y21657D01*
X522655Y21675D01*
X522607Y21723D01*
X522564Y21776D01*
X522546Y21783D01*
X522532Y21797D01*
X522426Y21837D01*
X522406Y21846D01*
X522402Y21846D01*
X522398Y21848D01*
X519186Y22398D01*
X519175Y22437D01*
X519174Y22442D01*
X519173Y22443D01*
X519113Y22563D01*
X519113Y22574D01*
X519110Y22589D01*
X519112Y22605D01*
X519092Y22675D01*
X519092Y22690D01*
X519084Y22704D01*
X519075Y22737D01*
X519074Y22742D01*
X519073Y22743D01*
X519013Y22863D01*
X519013Y22874D01*
X519010Y22889D01*
X519012Y22905D01*
X518975Y23037D01*
X518974Y23042D01*
X518973Y23043D01*
X518813Y23363D01*
X518813Y23374D01*
X518810Y23389D01*
X518812Y23405D01*
X518775Y23537D01*
X518774Y23542D01*
X518773Y23543D01*
X518673Y23743D01*
X518650Y23771D01*
X518613Y23825D01*
X518613Y23874D01*
X518596Y23948D01*
X518582Y24023D01*
X518576Y24033D01*
X518574Y24042D01*
X518551Y24070D01*
X518502Y24142D01*
X518446Y24198D01*
X518373Y24343D01*
X518350Y24371D01*
X518313Y24425D01*
X518313Y24474D01*
X518296Y24548D01*
X518292Y24570D01*
X520146Y27258D01*
X520152Y27274D01*
X520164Y27287D01*
X520184Y27354D01*
X520209Y27419D01*
X520208Y27437D01*
X520213Y27453D01*
X520200Y27522D01*
X520194Y27592D01*
X520185Y27606D01*
X520182Y27623D01*
X520111Y27729D01*
X520104Y27740D01*
X520103Y27740D01*
X520102Y27742D01*
X517902Y29942D01*
X517888Y29951D01*
X517877Y29965D01*
X517815Y29996D01*
X517755Y30033D01*
X517738Y30035D01*
X517723Y30042D01*
X517653Y30043D01*
X517583Y30049D01*
X517567Y30043D01*
X517550Y30043D01*
X517432Y29992D01*
X517421Y29988D01*
X517420Y29987D01*
X517419Y29986D01*
X514720Y28124D01*
X514702Y28142D01*
X514637Y28182D01*
X514575Y28226D01*
X514563Y28228D01*
X514555Y28233D01*
X514520Y28236D01*
X514434Y28253D01*
X514384Y28253D01*
X514372Y28261D01*
X514304Y28313D01*
X514159Y28385D01*
X514102Y28442D01*
X514037Y28482D01*
X513975Y28526D01*
X513963Y28528D01*
X513955Y28533D01*
X513920Y28536D01*
X513834Y28553D01*
X513784Y28553D01*
X513772Y28561D01*
X513704Y28613D01*
X513504Y28713D01*
X513488Y28717D01*
X513475Y28726D01*
X513341Y28752D01*
X513335Y28753D01*
X513334Y28753D01*
X513324Y28753D01*
X513204Y28813D01*
X513188Y28817D01*
X513175Y28826D01*
X513041Y28852D01*
X513035Y28853D01*
X513034Y28853D01*
X512984Y28853D01*
X512937Y28882D01*
X512875Y28926D01*
X512863Y28928D01*
X512855Y28933D01*
X512820Y28936D01*
X512734Y28953D01*
X512624Y28953D01*
X512566Y28982D01*
X512008Y32238D01*
X512000Y32256D01*
X511999Y32275D01*
X511967Y32334D01*
X511940Y32397D01*
X511926Y32410D01*
X511916Y32427D01*
X511861Y32466D01*
X511809Y32510D01*
X511790Y32515D01*
X511775Y32526D01*
X511664Y32547D01*
X511642Y32553D01*
X511638Y32552D01*
X511634Y32553D01*
X508434Y32553D01*
X508415Y32549D01*
X508396Y32551D01*
X508332Y32529D01*
X508266Y32513D01*
X508251Y32501D01*
X508232Y32495D01*
X508185Y32447D01*
X508132Y32403D01*
X508124Y32386D01*
X508111Y32372D01*
X508071Y32266D01*
X508062Y32245D01*
X508062Y32242D01*
X508060Y32238D01*
X507510Y29026D01*
X507471Y29015D01*
X507466Y29013D01*
X507465Y29013D01*
X507464Y29013D01*
X507344Y28953D01*
X507334Y28953D01*
X507318Y28949D01*
X507302Y28952D01*
X507171Y28915D01*
X507166Y28913D01*
X507165Y28913D01*
X507164Y28913D01*
X507044Y28853D01*
X507034Y28853D01*
X507018Y28849D01*
X507002Y28852D01*
X506871Y28815D01*
X506866Y28813D01*
X506865Y28813D01*
X506864Y28813D01*
X506744Y28753D01*
X506634Y28753D01*
X506560Y28736D01*
X506484Y28722D01*
X506475Y28716D01*
X506466Y28713D01*
X506438Y28691D01*
X506366Y28642D01*
X506309Y28585D01*
X506244Y28553D01*
X506234Y28553D01*
X506218Y28549D01*
X506202Y28552D01*
X506071Y28515D01*
X506066Y28513D01*
X506065Y28513D01*
X506064Y28513D01*
X505864Y28413D01*
X505837Y28390D01*
X505766Y28342D01*
X505709Y28285D01*
X505644Y28253D01*
X505634Y28253D01*
X505618Y28249D01*
X505602Y28252D01*
X505471Y28215D01*
X505466Y28213D01*
X505465Y28213D01*
X505464Y28213D01*
X505323Y28142D01*
X502649Y29986D01*
X502637Y29991D01*
X502628Y30000D01*
X502557Y30022D01*
X502488Y30049D01*
X502475Y30048D01*
X502463Y30052D01*
X502390Y30040D01*
X502316Y30034D01*
X502305Y30027D01*
X502292Y30025D01*
X502172Y29948D01*
X499872Y27748D01*
X499858Y27726D01*
X499838Y27710D01*
X499811Y27654D01*
X499777Y27603D01*
X499774Y27577D01*
X499763Y27554D01*
X499764Y27492D01*
X499757Y27431D01*
X499766Y27407D01*
X499766Y27381D01*
X499804Y27301D01*
X499815Y27268D01*
X499822Y27262D01*
X499827Y27251D01*
X501762Y24578D01*
X501722Y24498D01*
X501666Y24442D01*
X501626Y24377D01*
X501582Y24314D01*
X501580Y24303D01*
X501575Y24295D01*
X501571Y24260D01*
X501555Y24174D01*
X501555Y24124D01*
X501547Y24111D01*
X501495Y24043D01*
X501422Y23898D01*
X501366Y23842D01*
X501326Y23777D01*
X501282Y23714D01*
X501280Y23703D01*
X501275Y23695D01*
X501271Y23660D01*
X501255Y23574D01*
X501255Y23524D01*
X501226Y23477D01*
X501182Y23414D01*
X501180Y23403D01*
X501175Y23395D01*
X501171Y23360D01*
X501155Y23274D01*
X501155Y23163D01*
X501122Y23098D01*
X501066Y23042D01*
X501026Y22977D01*
X500982Y22914D01*
X500980Y22903D01*
X500975Y22895D01*
X500971Y22860D01*
X500955Y22774D01*
X500955Y22724D01*
X500926Y22677D01*
X500882Y22614D01*
X500880Y22603D01*
X500875Y22595D01*
X500871Y22560D01*
X500855Y22474D01*
X500855Y22395D01*
X497572Y21848D01*
X497553Y21840D01*
X497533Y21839D01*
X497474Y21807D01*
X497412Y21781D01*
X497399Y21766D01*
X497381Y21756D01*
X497343Y21701D01*
X497299Y21651D01*
X497293Y21631D01*
X497282Y21614D01*
X497266Y21533D01*
X497262Y21523D01*
X497262Y21512D01*
X497261Y21508D01*
X497255Y21483D01*
X497256Y21479D01*
X497255Y21474D01*
X497255Y18274D01*
X497259Y18255D01*
X497257Y18236D01*
X497279Y18171D01*
X497294Y18105D01*
X497307Y18090D01*
X497313Y18072D01*
X497361Y18024D01*
X497404Y17972D01*
X497422Y17964D01*
X497436Y17950D01*
X497542Y17910D01*
X497562Y17901D01*
X497566Y17901D01*
X497570Y17900D01*
X500858Y17336D01*
X500893Y17211D01*
X500894Y17205D01*
X500895Y17205D01*
X500895Y17204D01*
X500955Y17084D01*
X500955Y17074D01*
X500958Y17058D01*
X500956Y17042D01*
X500993Y16911D01*
X500994Y16905D01*
X500995Y16905D01*
X500995Y16904D01*
X501055Y16784D01*
X501055Y16774D01*
X501058Y16758D01*
X501056Y16742D01*
X501093Y16611D01*
X501094Y16605D01*
X501095Y16605D01*
X501095Y16604D01*
X501255Y16284D01*
X501255Y16274D01*
X501258Y16258D01*
X501256Y16242D01*
X501293Y16111D01*
X501294Y16105D01*
X501295Y16105D01*
X501295Y16104D01*
X501395Y15904D01*
X501418Y15876D01*
X501466Y15806D01*
X501522Y15749D01*
X501555Y15684D01*
X501555Y15674D01*
X501558Y15658D01*
X501556Y15642D01*
X501593Y15511D01*
X501594Y15505D01*
X501595Y15505D01*
X501595Y15504D01*
X501695Y15304D01*
X501718Y15276D01*
X501766Y15206D01*
X501776Y15195D01*
X499831Y12601D01*
X499821Y12579D01*
X499804Y12560D01*
X499786Y12500D01*
X499761Y12443D01*
X499762Y12418D01*
X499755Y12394D01*
X499766Y12333D01*
X499769Y12270D01*
X499781Y12248D01*
X499786Y12224D01*
X499837Y12149D01*
X499853Y12119D01*
X499860Y12114D01*
X499866Y12106D01*
X502166Y9806D01*
X502180Y9797D01*
X502191Y9783D01*
X502253Y9751D01*
X502313Y9714D01*
X502330Y9713D01*
X502345Y9705D01*
X502416Y9705D01*
X502485Y9698D01*
X502501Y9704D01*
X502518Y9704D01*
X502636Y9756D01*
X502647Y9760D01*
X502648Y9761D01*
X502649Y9761D01*
X505348Y11623D01*
X505366Y11606D01*
X505431Y11565D01*
X505493Y11521D01*
X505505Y11519D01*
X505513Y11514D01*
X505548Y11511D01*
X505563Y11508D01*
X505566Y11506D01*
X505631Y11465D01*
X505693Y11421D01*
X505705Y11419D01*
X505713Y11414D01*
X505748Y11411D01*
X505834Y11394D01*
X505884Y11394D01*
X505931Y11365D01*
X505993Y11321D01*
X506005Y11319D01*
X506013Y11314D01*
X506048Y11311D01*
X506063Y11308D01*
X506066Y11306D01*
X506131Y11265D01*
X506193Y11221D01*
X506205Y11219D01*
X506213Y11214D01*
X506248Y11211D01*
X506263Y11208D01*
X506266Y11206D01*
X506331Y11165D01*
X506393Y11121D01*
X506405Y11119D01*
X506413Y11114D01*
X506448Y11111D01*
X506477Y11105D01*
X506504Y11072D01*
X506523Y11064D01*
X506538Y11049D01*
X506601Y11029D01*
X506662Y11001D01*
X506683Y11002D01*
X506702Y10996D01*
X506768Y11006D01*
X506835Y11008D01*
X506853Y11018D01*
X506873Y11021D01*
X506928Y11059D01*
X506987Y11091D01*
X506999Y11108D01*
X507015Y11120D01*
X507072Y11212D01*
X507086Y11233D01*
X507087Y11238D01*
X507090Y11242D01*
X509090Y16642D01*
X509094Y16673D01*
X509106Y16701D01*
X509104Y16757D01*
X509111Y16814D01*
X509101Y16843D01*
X509100Y16874D01*
X509073Y16924D01*
X509054Y16977D01*
X509032Y16999D01*
X509017Y17026D01*
X508957Y17072D01*
X508930Y17098D01*
X508917Y17102D01*
X508904Y17113D01*
X508359Y17385D01*
X508202Y17542D01*
X508172Y17561D01*
X508104Y17613D01*
X507959Y17685D01*
X507646Y17998D01*
X507573Y18143D01*
X507550Y18171D01*
X507502Y18242D01*
X507346Y18398D01*
X507285Y18519D01*
X507194Y18794D01*
X507182Y18813D01*
X507173Y18843D01*
X507113Y18963D01*
X507113Y19074D01*
X507105Y19109D01*
X507094Y19194D01*
X507013Y19435D01*
X507013Y20212D01*
X507094Y20454D01*
X507097Y20490D01*
X507113Y20574D01*
X507113Y20759D01*
X507250Y20963D01*
X507263Y20998D01*
X507294Y21054D01*
X507378Y21306D01*
X507729Y21832D01*
X508076Y22179D01*
X508602Y22530D01*
X508854Y22614D01*
X508872Y22625D01*
X508886Y22628D01*
X508899Y22639D01*
X508944Y22658D01*
X509149Y22794D01*
X509334Y22794D01*
X509369Y22803D01*
X509454Y22814D01*
X509696Y22894D01*
X510287Y22894D01*
X510642Y22806D01*
X510678Y22805D01*
X510734Y22794D01*
X510919Y22794D01*
X511124Y22658D01*
X511159Y22645D01*
X511208Y22617D01*
X511210Y22616D01*
X511211Y22616D01*
X511214Y22614D01*
X511466Y22530D01*
X511693Y22379D01*
X511866Y22206D01*
X511892Y22189D01*
X511924Y22158D01*
X512193Y21979D01*
X512339Y21832D01*
X512690Y21306D01*
X513055Y20212D01*
X513055Y19735D01*
X512974Y19494D01*
X512971Y19458D01*
X512955Y19374D01*
X512955Y19163D01*
X512795Y18843D01*
X512789Y18821D01*
X512774Y18794D01*
X512683Y18519D01*
X512522Y18198D01*
X512366Y18042D01*
X512347Y18011D01*
X512295Y17943D01*
X512222Y17798D01*
X512109Y17685D01*
X511964Y17613D01*
X511937Y17590D01*
X511866Y17542D01*
X511709Y17385D01*
X511388Y17225D01*
X511114Y17133D01*
X511065Y17103D01*
X511012Y17081D01*
X510992Y17059D01*
X510967Y17043D01*
X510936Y16994D01*
X510899Y16951D01*
X510891Y16922D01*
X510875Y16896D01*
X510869Y16839D01*
X510855Y16783D01*
X510861Y16749D01*
X510858Y16724D01*
X510870Y16692D01*
X510878Y16642D01*
X512878Y11242D01*
X512904Y11204D01*
X512920Y11161D01*
X512951Y11133D01*
X512974Y11098D01*
X513014Y11075D01*
X513047Y11044D01*
X513087Y11032D01*
X513124Y11011D01*
X513169Y11008D01*
X513213Y10995D01*
X513254Y11002D01*
X513296Y11000D01*
X513339Y11017D01*
X513384Y11025D01*
X513425Y11053D01*
X513456Y11066D01*
X513473Y11086D01*
X513486Y11094D01*
X513534Y11094D01*
X513608Y11112D01*
X513684Y11125D01*
X513693Y11132D01*
X513702Y11134D01*
X513730Y11157D01*
X513802Y11206D01*
X513809Y11212D01*
X513884Y11225D01*
X513893Y11232D01*
X513902Y11234D01*
X513930Y11257D01*
X514002Y11306D01*
X514009Y11312D01*
X514084Y11325D01*
X514093Y11332D01*
X514102Y11334D01*
X514130Y11357D01*
X514202Y11406D01*
X514209Y11412D01*
X514284Y11425D01*
X514293Y11432D01*
X514302Y11434D01*
X514330Y11457D01*
X514402Y11506D01*
X514409Y11512D01*
X514484Y11525D01*
X514493Y11532D01*
X514502Y11534D01*
X514530Y11557D01*
X514602Y11606D01*
X514609Y11612D01*
X514684Y11625D01*
X514693Y11632D01*
X514702Y11634D01*
X514703Y11634D01*
X517419Y9761D01*
X517439Y9754D01*
X517455Y9740D01*
X517518Y9722D01*
X517580Y9698D01*
X517601Y9700D01*
X517622Y9695D01*
X517686Y9708D01*
G37*
G36*
X431140Y290891D02*
X431140Y290891D01*
X431191Y290893D01*
X431223Y290911D01*
X431259Y290919D01*
X431298Y290952D01*
X431343Y290976D01*
X431364Y291006D01*
X431392Y291029D01*
X431413Y291076D01*
X431443Y291118D01*
X431451Y291160D01*
X431463Y291188D01*
X431462Y291218D01*
X431470Y291260D01*
X431470Y304060D01*
X431466Y304078D01*
X431468Y304102D01*
X431268Y305902D01*
X431257Y305933D01*
X431251Y305980D01*
X431051Y306580D01*
X431038Y306600D01*
X431030Y306630D01*
X430730Y307230D01*
X430722Y307240D01*
X430716Y307256D01*
X430416Y307756D01*
X430402Y307770D01*
X430393Y307789D01*
X430316Y307859D01*
X430295Y307880D01*
X430290Y307882D01*
X430286Y307886D01*
X429802Y308176D01*
X429418Y308464D01*
X429383Y308479D01*
X429331Y308513D01*
X428331Y308913D01*
X428298Y308918D01*
X428253Y308935D01*
X427653Y309035D01*
X427626Y309033D01*
X427590Y309040D01*
X426790Y309040D01*
X426754Y309032D01*
X426698Y309029D01*
X426343Y308940D01*
X426190Y308940D01*
X426175Y308937D01*
X426160Y308939D01*
X426028Y308902D01*
X426021Y308901D01*
X426021Y308900D01*
X426020Y308900D01*
X425820Y308800D01*
X425801Y308784D01*
X425777Y308775D01*
X425735Y308729D01*
X425687Y308689D01*
X425677Y308667D01*
X425660Y308648D01*
X425642Y308588D01*
X425616Y308531D01*
X425618Y308506D01*
X425610Y308482D01*
X425621Y308420D01*
X425624Y308358D01*
X425636Y308336D01*
X425640Y308311D01*
X425689Y308238D01*
X425707Y308206D01*
X425715Y308201D01*
X425721Y308191D01*
X425821Y308091D01*
X425853Y308071D01*
X425920Y308020D01*
X426320Y307820D01*
X426343Y307814D01*
X426370Y307799D01*
X426585Y307728D01*
X426895Y307418D01*
X427045Y307192D01*
X427110Y306998D01*
X427110Y306822D01*
X427038Y306606D01*
X426878Y306285D01*
X426648Y306056D01*
X426412Y305898D01*
X425981Y305726D01*
X425552Y305640D01*
X424837Y305640D01*
X424146Y305813D01*
X423650Y306144D01*
X423329Y306545D01*
X423170Y307022D01*
X423170Y307582D01*
X423416Y308155D01*
X424076Y308909D01*
X424874Y309807D01*
X424875Y309809D01*
X424876Y309810D01*
X425576Y310610D01*
X425592Y310639D01*
X425622Y310675D01*
X426122Y311575D01*
X426133Y311613D01*
X426161Y311678D01*
X426361Y312578D01*
X426361Y312611D01*
X426370Y312660D01*
X426370Y313460D01*
X426362Y313497D01*
X426351Y313580D01*
X426051Y314480D01*
X426030Y314514D01*
X425999Y314581D01*
X425499Y315281D01*
X425473Y315304D01*
X425443Y315344D01*
X424543Y316144D01*
X424512Y316161D01*
X424472Y316194D01*
X423372Y316794D01*
X423336Y316804D01*
X423258Y316834D01*
X422158Y317034D01*
X422129Y317033D01*
X422090Y317040D01*
X421090Y317040D01*
X421053Y317032D01*
X420970Y317021D01*
X420070Y316721D01*
X420064Y316717D01*
X420057Y316716D01*
X419257Y316416D01*
X419242Y316406D01*
X419220Y316400D01*
X419054Y316317D01*
X418620Y316100D01*
X418598Y316082D01*
X418562Y316064D01*
X418162Y315764D01*
X418147Y315746D01*
X418121Y315729D01*
X418021Y315629D01*
X418008Y315607D01*
X417988Y315591D01*
X417962Y315534D01*
X417930Y315482D01*
X417927Y315456D01*
X417917Y315432D01*
X417919Y315371D01*
X417913Y315309D01*
X417922Y315285D01*
X417923Y315259D01*
X417953Y315205D01*
X417975Y315147D01*
X417994Y315130D01*
X418006Y315107D01*
X418057Y315072D01*
X418102Y315030D01*
X418127Y315022D01*
X418148Y315007D01*
X418232Y314991D01*
X418268Y314980D01*
X418278Y314982D01*
X418290Y314980D01*
X418590Y314980D01*
X418627Y314988D01*
X418710Y314999D01*
X418952Y315080D01*
X419143Y315080D01*
X419498Y314991D01*
X419506Y314991D01*
X419515Y314987D01*
X419966Y314897D01*
X420289Y314735D01*
X420610Y314495D01*
X420745Y314292D01*
X420829Y314040D01*
X420842Y314020D01*
X420850Y313990D01*
X420938Y313814D01*
X420989Y313660D01*
X420929Y313480D01*
X420928Y313467D01*
X420921Y313452D01*
X420837Y313116D01*
X420674Y312871D01*
X420666Y312851D01*
X420650Y312830D01*
X420478Y312485D01*
X420248Y312256D01*
X419979Y312076D01*
X419972Y312069D01*
X419962Y312064D01*
X419570Y311771D01*
X419299Y311590D01*
X418867Y311374D01*
X418600Y311240D01*
X418052Y311240D01*
X417859Y311305D01*
X417710Y311404D01*
X417570Y311822D01*
X417570Y312560D01*
X417558Y312610D01*
X417558Y312631D01*
X417557Y312655D01*
X417556Y312662D01*
X417539Y312694D01*
X417531Y312729D01*
X417498Y312769D01*
X417473Y312814D01*
X417443Y312835D01*
X417421Y312862D01*
X417373Y312884D01*
X417331Y312913D01*
X417295Y312919D01*
X417262Y312933D01*
X417211Y312931D01*
X417160Y312939D01*
X417119Y312928D01*
X417089Y312927D01*
X417062Y312912D01*
X417020Y312900D01*
X417009Y312895D01*
X416249Y312515D01*
X416220Y312500D01*
X416216Y312497D01*
X416106Y312413D01*
X415306Y311513D01*
X415291Y311485D01*
X415262Y311452D01*
X414562Y310252D01*
X414553Y310223D01*
X414532Y310188D01*
X414032Y308788D01*
X414029Y308762D01*
X414016Y308730D01*
X413716Y307130D01*
X413718Y307094D01*
X413710Y307039D01*
X413810Y305239D01*
X413820Y305207D01*
X413824Y305158D01*
X414324Y303358D01*
X414341Y303327D01*
X414358Y303275D01*
X415358Y301475D01*
X415375Y301457D01*
X415390Y301427D01*
X416090Y300527D01*
X416097Y300521D01*
X416101Y300513D01*
X416111Y300507D01*
X416121Y300491D01*
X416921Y299691D01*
X416931Y299685D01*
X416940Y299674D01*
X417740Y298974D01*
X417765Y298960D01*
X417794Y298934D01*
X418794Y298334D01*
X418819Y298326D01*
X418849Y298307D01*
X419849Y297907D01*
X419868Y297904D01*
X419890Y297893D01*
X420990Y297593D01*
X421007Y297593D01*
X421028Y297585D01*
X422228Y297385D01*
X422254Y297387D01*
X422290Y297380D01*
X424159Y297380D01*
X424656Y297297D01*
X425072Y297047D01*
X426022Y296287D01*
X426498Y295717D01*
X426510Y295707D01*
X426521Y295691D01*
X427799Y294414D01*
X428281Y293739D01*
X428301Y293721D01*
X428321Y293691D01*
X428909Y293103D01*
X429398Y292517D01*
X429410Y292507D01*
X429421Y292491D01*
X429902Y292010D01*
X430186Y291632D01*
X430204Y291617D01*
X430221Y291591D01*
X430495Y291318D01*
X430674Y291049D01*
X430693Y291031D01*
X430706Y291007D01*
X430756Y290972D01*
X430800Y290931D01*
X430826Y290923D01*
X430848Y290907D01*
X430929Y290892D01*
X430966Y290881D01*
X430977Y290882D01*
X430990Y290880D01*
X431090Y290880D01*
X431140Y290891D01*
G37*
G36*
X476829Y265391D02*
X476829Y265391D01*
X476891Y265393D01*
X476913Y265406D01*
X476939Y265410D01*
X477010Y265458D01*
X477043Y265476D01*
X477049Y265484D01*
X477059Y265491D01*
X477944Y266376D01*
X479428Y267563D01*
X479439Y267578D01*
X479459Y267591D01*
X480344Y268476D01*
X480828Y268863D01*
X480834Y268871D01*
X480843Y268876D01*
X480887Y268939D01*
X480935Y268999D01*
X480937Y269009D01*
X480943Y269018D01*
X480958Y269099D01*
X480963Y269110D01*
X480963Y269122D01*
X480970Y269160D01*
X480970Y287660D01*
X480969Y287664D01*
X480970Y287669D01*
X480950Y287749D01*
X480931Y287829D01*
X480928Y287832D01*
X480927Y287837D01*
X480873Y287899D01*
X480821Y287962D01*
X480816Y287964D01*
X480814Y287968D01*
X480682Y288029D01*
X480282Y288129D01*
X480274Y288129D01*
X480265Y288133D01*
X479765Y288233D01*
X479733Y288232D01*
X479690Y288240D01*
X479237Y288240D01*
X478882Y288329D01*
X478874Y288329D01*
X478865Y288333D01*
X478373Y288431D01*
X477982Y288529D01*
X477974Y288529D01*
X477965Y288533D01*
X476965Y288733D01*
X476963Y288733D01*
X476962Y288733D01*
X476878Y288730D01*
X476791Y288727D01*
X476790Y288727D01*
X476789Y288727D01*
X476715Y288686D01*
X476639Y288645D01*
X476638Y288644D01*
X476637Y288644D01*
X476589Y288575D01*
X476538Y288504D01*
X476538Y288503D01*
X476537Y288502D01*
X476510Y288360D01*
X476510Y287578D01*
X476359Y287729D01*
X476343Y287739D01*
X476328Y287757D01*
X475828Y288157D01*
X475807Y288167D01*
X475786Y288186D01*
X474786Y288786D01*
X474773Y288790D01*
X474653Y288835D01*
X473453Y289035D01*
X473426Y289033D01*
X473390Y289040D01*
X472690Y289040D01*
X472679Y289038D01*
X472665Y289039D01*
X471165Y288939D01*
X471128Y288928D01*
X471062Y288918D01*
X469662Y288418D01*
X469633Y288399D01*
X469586Y288381D01*
X468486Y287681D01*
X468459Y287653D01*
X468407Y287614D01*
X467507Y286614D01*
X467494Y286591D01*
X467469Y286564D01*
X466769Y285464D01*
X466757Y285428D01*
X466727Y285372D01*
X466327Y284072D01*
X466326Y284057D01*
X466318Y284040D01*
X466018Y282640D01*
X466019Y282616D01*
X466011Y282585D01*
X465911Y281085D01*
X465914Y281063D01*
X465911Y281033D01*
X466011Y279633D01*
X466018Y279609D01*
X466020Y279575D01*
X466320Y278275D01*
X466332Y278250D01*
X466339Y278214D01*
X466839Y277014D01*
X466849Y276999D01*
X466856Y276978D01*
X467456Y275878D01*
X467482Y275849D01*
X467521Y275791D01*
X468421Y274891D01*
X468443Y274878D01*
X468466Y274852D01*
X469566Y274052D01*
X469602Y274037D01*
X469670Y273999D01*
X470870Y273599D01*
X470900Y273596D01*
X470940Y273583D01*
X472440Y273383D01*
X472479Y273387D01*
X472553Y273385D01*
X474353Y273685D01*
X474389Y273700D01*
X474460Y273720D01*
X474590Y273785D01*
X475060Y274020D01*
X475070Y274028D01*
X475086Y274034D01*
X476086Y274634D01*
X476106Y274654D01*
X476187Y274722D01*
X476410Y275001D01*
X476410Y265760D01*
X476416Y265735D01*
X476413Y265709D01*
X476435Y265652D01*
X476449Y265591D01*
X476466Y265571D01*
X476475Y265547D01*
X476520Y265505D01*
X476559Y265458D01*
X476583Y265447D01*
X476602Y265430D01*
X476661Y265412D01*
X476718Y265387D01*
X476743Y265388D01*
X476768Y265380D01*
X476829Y265391D01*
G37*
G36*
X460820Y273387D02*
X460820Y273387D01*
X460865Y273387D01*
X461328Y273480D01*
X461790Y273480D01*
X461826Y273488D01*
X461882Y273491D01*
X462282Y273591D01*
X462302Y273601D01*
X462331Y273607D01*
X462831Y273807D01*
X462843Y273815D01*
X462860Y273820D01*
X463260Y274020D01*
X463276Y274033D01*
X463301Y274044D01*
X463581Y274231D01*
X463960Y274420D01*
X463989Y274444D01*
X464059Y274491D01*
X464359Y274791D01*
X464375Y274818D01*
X464406Y274849D01*
X464601Y275140D01*
X464894Y275532D01*
X464898Y275541D01*
X464906Y275549D01*
X465106Y275849D01*
X465107Y275850D01*
X465108Y275851D01*
X465163Y275985D01*
X465253Y276436D01*
X465430Y276790D01*
X465434Y276805D01*
X465443Y276818D01*
X465469Y276952D01*
X465470Y276959D01*
X465470Y276960D01*
X465470Y277422D01*
X465563Y277885D01*
X465563Y277895D01*
X465564Y278028D01*
X465364Y279128D01*
X465355Y279150D01*
X465351Y279180D01*
X465051Y280080D01*
X465034Y280107D01*
X465020Y280149D01*
X464620Y280849D01*
X464597Y280873D01*
X464537Y280949D01*
X463837Y281549D01*
X463811Y281563D01*
X463779Y281590D01*
X463079Y281990D01*
X463053Y281998D01*
X463024Y282016D01*
X462224Y282316D01*
X462205Y282319D01*
X462182Y282329D01*
X461382Y282529D01*
X461360Y282529D01*
X461332Y282538D01*
X460432Y282638D01*
X458638Y282837D01*
X457969Y282933D01*
X457303Y283123D01*
X456750Y283308D01*
X456350Y283548D01*
X456170Y283787D01*
X456170Y284670D01*
X456403Y285135D01*
X456459Y285191D01*
X456479Y285223D01*
X456530Y285290D01*
X456573Y285377D01*
X456980Y285580D01*
X457090Y285580D01*
X457105Y285583D01*
X457120Y285581D01*
X457252Y285618D01*
X457259Y285619D01*
X457259Y285620D01*
X457260Y285620D01*
X457380Y285680D01*
X459000Y285680D01*
X459865Y285248D01*
X460178Y284935D01*
X460238Y284814D01*
X460329Y284540D01*
X460342Y284520D01*
X460350Y284490D01*
X460410Y284370D01*
X460410Y283960D01*
X460421Y283910D01*
X460423Y283859D01*
X460441Y283827D01*
X460449Y283791D01*
X460482Y283752D01*
X460506Y283707D01*
X460536Y283686D01*
X460559Y283658D01*
X460606Y283637D01*
X460648Y283607D01*
X460690Y283599D01*
X460718Y283587D01*
X460748Y283588D01*
X460790Y283580D01*
X464690Y283580D01*
X464770Y283598D01*
X464850Y283615D01*
X464854Y283618D01*
X464859Y283619D01*
X464922Y283672D01*
X464986Y283722D01*
X464988Y283726D01*
X464992Y283729D01*
X465026Y283804D01*
X465061Y283878D01*
X465061Y283883D01*
X465063Y283888D01*
X465062Y283915D01*
X465065Y284023D01*
X464865Y285223D01*
X464855Y285246D01*
X464855Y285248D01*
X464854Y285268D01*
X464852Y285273D01*
X464851Y285280D01*
X464651Y285880D01*
X464631Y285912D01*
X464594Y285988D01*
X464306Y286372D01*
X464016Y286856D01*
X464004Y286868D01*
X463994Y286888D01*
X463694Y287288D01*
X463669Y287309D01*
X463662Y287322D01*
X463647Y287333D01*
X463618Y287364D01*
X463218Y287664D01*
X463202Y287671D01*
X463186Y287686D01*
X462186Y288286D01*
X462161Y288294D01*
X462131Y288313D01*
X461631Y288513D01*
X461602Y288517D01*
X461565Y288533D01*
X461088Y288628D01*
X460510Y288821D01*
X460485Y288823D01*
X460453Y288835D01*
X459859Y288934D01*
X459365Y289033D01*
X459333Y289032D01*
X459290Y289040D01*
X456990Y289040D01*
X456960Y289033D01*
X456915Y289033D01*
X456452Y288940D01*
X455890Y288940D01*
X455860Y288933D01*
X455815Y288933D01*
X455315Y288833D01*
X455289Y288821D01*
X455249Y288813D01*
X454781Y288626D01*
X454315Y288533D01*
X454289Y288521D01*
X454249Y288513D01*
X453749Y288313D01*
X453718Y288291D01*
X453662Y288264D01*
X452462Y287364D01*
X452437Y287334D01*
X452386Y287288D01*
X452086Y286888D01*
X452074Y286862D01*
X452050Y286830D01*
X451850Y286430D01*
X451847Y286416D01*
X451837Y286401D01*
X451637Y285901D01*
X451633Y285872D01*
X451617Y285835D01*
X451517Y285335D01*
X451518Y285303D01*
X451510Y285260D01*
X451510Y276650D01*
X451450Y276530D01*
X451446Y276515D01*
X451437Y276502D01*
X451411Y276368D01*
X451410Y276362D01*
X451410Y276361D01*
X451410Y276360D01*
X451410Y275550D01*
X451350Y275430D01*
X451346Y275415D01*
X451337Y275402D01*
X451328Y275356D01*
X451327Y275353D01*
X451327Y275351D01*
X451311Y275268D01*
X451310Y275262D01*
X451310Y275261D01*
X451310Y275260D01*
X451310Y275150D01*
X451250Y275030D01*
X451246Y275015D01*
X451237Y275002D01*
X451211Y274868D01*
X451210Y274862D01*
X451210Y274861D01*
X451210Y274860D01*
X451210Y274650D01*
X451178Y274585D01*
X451121Y274529D01*
X451081Y274464D01*
X451037Y274402D01*
X451035Y274390D01*
X451030Y274382D01*
X451026Y274345D01*
X451010Y274260D01*
X451010Y274160D01*
X451021Y274110D01*
X451023Y274059D01*
X451041Y274027D01*
X451049Y273991D01*
X451082Y273952D01*
X451106Y273907D01*
X451136Y273886D01*
X451159Y273858D01*
X451206Y273837D01*
X451248Y273807D01*
X451290Y273799D01*
X451318Y273787D01*
X451348Y273788D01*
X451390Y273780D01*
X455290Y273780D01*
X455340Y273791D01*
X455391Y273793D01*
X455423Y273811D01*
X455459Y273819D01*
X455498Y273852D01*
X455543Y273876D01*
X455564Y273906D01*
X455592Y273929D01*
X455613Y273976D01*
X455643Y274018D01*
X455651Y274060D01*
X455663Y274088D01*
X455663Y274098D01*
X455699Y274156D01*
X455743Y274218D01*
X455745Y274230D01*
X455750Y274238D01*
X455754Y274275D01*
X455756Y274289D01*
X455759Y274291D01*
X455799Y274356D01*
X455843Y274418D01*
X455845Y274430D01*
X455850Y274438D01*
X455854Y274475D01*
X455870Y274560D01*
X455870Y274709D01*
X455883Y274730D01*
X456021Y274591D01*
X456048Y274575D01*
X456079Y274544D01*
X456379Y274344D01*
X456415Y274330D01*
X456470Y274299D01*
X456722Y274215D01*
X456979Y274044D01*
X457015Y274030D01*
X457070Y273999D01*
X458270Y273599D01*
X458307Y273596D01*
X458390Y273580D01*
X458628Y273580D01*
X458870Y273499D01*
X458907Y273496D01*
X458990Y273480D01*
X459328Y273480D01*
X459570Y273399D01*
X459607Y273396D01*
X459690Y273380D01*
X460790Y273380D01*
X460820Y273387D01*
G37*
G36*
X429822Y273787D02*
X429822Y273787D01*
X429856Y273785D01*
X429906Y273807D01*
X429959Y273819D01*
X429984Y273840D01*
X430015Y273853D01*
X430062Y273905D01*
X430092Y273929D01*
X430099Y273945D01*
X430113Y273960D01*
X433769Y279866D01*
X434810Y278895D01*
X434810Y274160D01*
X434821Y274110D01*
X434823Y274059D01*
X434841Y274027D01*
X434849Y273991D01*
X434882Y273952D01*
X434906Y273907D01*
X434936Y273886D01*
X434959Y273858D01*
X435006Y273837D01*
X435048Y273807D01*
X435090Y273799D01*
X435118Y273787D01*
X435148Y273788D01*
X435190Y273780D01*
X439090Y273780D01*
X439140Y273791D01*
X439191Y273793D01*
X439223Y273811D01*
X439259Y273819D01*
X439298Y273852D01*
X439343Y273876D01*
X439364Y273906D01*
X439392Y273929D01*
X439413Y273976D01*
X439443Y274018D01*
X439451Y274060D01*
X439463Y274088D01*
X439462Y274118D01*
X439470Y274160D01*
X439470Y291560D01*
X439460Y291603D01*
X439460Y291648D01*
X439441Y291687D01*
X439431Y291729D01*
X439402Y291763D01*
X439382Y291803D01*
X439343Y291836D01*
X439321Y291862D01*
X439297Y291873D01*
X439270Y291895D01*
X435370Y293995D01*
X435315Y294010D01*
X435262Y294033D01*
X435232Y294032D01*
X435203Y294040D01*
X435147Y294029D01*
X435089Y294027D01*
X435063Y294012D01*
X435033Y294006D01*
X434988Y293971D01*
X434937Y293944D01*
X434920Y293919D01*
X434896Y293901D01*
X434870Y293849D01*
X434837Y293802D01*
X434831Y293768D01*
X434819Y293745D01*
X434820Y293710D01*
X434810Y293660D01*
X434810Y284205D01*
X430564Y288623D01*
X430497Y288667D01*
X430432Y288713D01*
X430424Y288714D01*
X430419Y288718D01*
X430386Y288722D01*
X430290Y288740D01*
X425690Y288740D01*
X425663Y288734D01*
X425636Y288736D01*
X425580Y288714D01*
X425521Y288701D01*
X425500Y288683D01*
X425474Y288673D01*
X425434Y288629D01*
X425388Y288591D01*
X425376Y288565D01*
X425358Y288545D01*
X425341Y288487D01*
X425317Y288432D01*
X425318Y288405D01*
X425310Y288378D01*
X425321Y288319D01*
X425323Y288259D01*
X425337Y288235D01*
X425342Y288208D01*
X425388Y288141D01*
X425406Y288107D01*
X425416Y288100D01*
X425424Y288089D01*
X430501Y283107D01*
X424772Y274368D01*
X424747Y274299D01*
X424717Y274232D01*
X424717Y274219D01*
X424713Y274206D01*
X424721Y274133D01*
X424723Y274059D01*
X424730Y274047D01*
X424731Y274034D01*
X424771Y273972D01*
X424806Y273907D01*
X424817Y273899D01*
X424825Y273888D01*
X424888Y273850D01*
X424948Y273807D01*
X424963Y273804D01*
X424973Y273798D01*
X425012Y273795D01*
X425090Y273780D01*
X429790Y273780D01*
X429822Y273787D01*
G37*
G36*
X390340Y273791D02*
X390340Y273791D01*
X390391Y273793D01*
X390423Y273811D01*
X390459Y273819D01*
X390498Y273852D01*
X390543Y273876D01*
X390564Y273906D01*
X390592Y273929D01*
X390613Y273976D01*
X390643Y274018D01*
X390651Y274060D01*
X390663Y274088D01*
X390662Y274118D01*
X390670Y274160D01*
X390670Y282136D01*
X390767Y282909D01*
X390866Y283603D01*
X390953Y284126D01*
X391206Y284548D01*
X391450Y284872D01*
X391829Y285100D01*
X392259Y285186D01*
X392798Y285276D01*
X393535Y285184D01*
X394056Y285097D01*
X394436Y284869D01*
X394777Y284442D01*
X395051Y283987D01*
X395318Y283362D01*
X395410Y282539D01*
X395410Y274160D01*
X395421Y274110D01*
X395423Y274059D01*
X395441Y274027D01*
X395449Y273991D01*
X395482Y273952D01*
X395506Y273907D01*
X395536Y273886D01*
X395559Y273858D01*
X395606Y273837D01*
X395648Y273807D01*
X395690Y273799D01*
X395718Y273787D01*
X395748Y273788D01*
X395790Y273780D01*
X399690Y273780D01*
X399740Y273791D01*
X399791Y273793D01*
X399823Y273811D01*
X399859Y273819D01*
X399898Y273852D01*
X399943Y273876D01*
X399964Y273906D01*
X399992Y273929D01*
X400013Y273976D01*
X400043Y274018D01*
X400051Y274060D01*
X400063Y274088D01*
X400062Y274118D01*
X400070Y274160D01*
X400070Y288360D01*
X400059Y288410D01*
X400057Y288461D01*
X400039Y288493D01*
X400031Y288529D01*
X399998Y288568D01*
X399974Y288613D01*
X399944Y288634D01*
X399921Y288662D01*
X399874Y288683D01*
X399832Y288713D01*
X399790Y288721D01*
X399762Y288733D01*
X399732Y288732D01*
X399690Y288740D01*
X395990Y288740D01*
X395940Y288729D01*
X395889Y288727D01*
X395857Y288709D01*
X395821Y288701D01*
X395782Y288668D01*
X395737Y288644D01*
X395716Y288614D01*
X395688Y288591D01*
X395667Y288544D01*
X395637Y288502D01*
X395629Y288460D01*
X395617Y288432D01*
X395618Y288402D01*
X395610Y288360D01*
X395610Y287378D01*
X395359Y287629D01*
X395343Y287639D01*
X395328Y287657D01*
X394828Y288057D01*
X394814Y288063D01*
X394801Y288076D01*
X394201Y288476D01*
X394165Y288490D01*
X394110Y288521D01*
X392910Y288921D01*
X392885Y288923D01*
X392853Y288935D01*
X392253Y289035D01*
X392226Y289033D01*
X392190Y289040D01*
X391590Y289040D01*
X391578Y289037D01*
X391563Y289039D01*
X390163Y288939D01*
X390133Y288930D01*
X390090Y288927D01*
X388990Y288627D01*
X388958Y288610D01*
X388905Y288592D01*
X388005Y288092D01*
X387977Y288066D01*
X387921Y288029D01*
X387221Y287329D01*
X387203Y287299D01*
X387168Y287262D01*
X386668Y286462D01*
X386655Y286425D01*
X386626Y286369D01*
X386326Y285369D01*
X386325Y285350D01*
X386316Y285328D01*
X386116Y284228D01*
X386117Y284211D01*
X386111Y284189D01*
X386011Y282889D01*
X386013Y282876D01*
X386010Y282860D01*
X386010Y274160D01*
X386021Y274110D01*
X386023Y274059D01*
X386041Y274027D01*
X386049Y273991D01*
X386082Y273952D01*
X386106Y273907D01*
X386136Y273886D01*
X386159Y273858D01*
X386206Y273837D01*
X386248Y273807D01*
X386290Y273799D01*
X386318Y273787D01*
X386348Y273788D01*
X386390Y273780D01*
X390290Y273780D01*
X390340Y273791D01*
G37*
G36*
X411317Y273481D02*
X411317Y273481D01*
X411354Y273492D01*
X411420Y273503D01*
X412520Y273903D01*
X412542Y273917D01*
X412575Y273928D01*
X413475Y274428D01*
X413498Y274449D01*
X413537Y274471D01*
X414237Y275071D01*
X414254Y275094D01*
X414322Y275175D01*
X414822Y276075D01*
X414832Y276108D01*
X414854Y276151D01*
X415154Y277151D01*
X415155Y277170D01*
X415164Y277192D01*
X415364Y278292D01*
X415363Y278321D01*
X415370Y278360D01*
X415370Y288360D01*
X415359Y288410D01*
X415357Y288461D01*
X415339Y288493D01*
X415331Y288529D01*
X415298Y288568D01*
X415274Y288613D01*
X415244Y288634D01*
X415221Y288662D01*
X415174Y288683D01*
X415132Y288713D01*
X415090Y288721D01*
X415062Y288733D01*
X415032Y288732D01*
X414990Y288740D01*
X411190Y288740D01*
X411140Y288729D01*
X411089Y288727D01*
X411057Y288709D01*
X411021Y288701D01*
X410982Y288668D01*
X410937Y288644D01*
X410916Y288614D01*
X410888Y288591D01*
X410867Y288544D01*
X410837Y288502D01*
X410829Y288460D01*
X410817Y288432D01*
X410818Y288402D01*
X410810Y288360D01*
X410810Y280384D01*
X410614Y278815D01*
X410530Y278314D01*
X410031Y277648D01*
X409651Y277420D01*
X409221Y277334D01*
X408682Y277244D01*
X407945Y277336D01*
X407424Y277423D01*
X407026Y277662D01*
X406703Y277985D01*
X406435Y278520D01*
X406161Y279160D01*
X406070Y279884D01*
X406070Y288360D01*
X406059Y288410D01*
X406057Y288461D01*
X406039Y288493D01*
X406031Y288529D01*
X405998Y288568D01*
X405974Y288613D01*
X405944Y288634D01*
X405921Y288662D01*
X405874Y288683D01*
X405832Y288713D01*
X405790Y288721D01*
X405762Y288733D01*
X405732Y288732D01*
X405690Y288740D01*
X401790Y288740D01*
X401740Y288729D01*
X401689Y288727D01*
X401657Y288709D01*
X401621Y288701D01*
X401582Y288668D01*
X401537Y288644D01*
X401516Y288614D01*
X401488Y288591D01*
X401467Y288544D01*
X401437Y288502D01*
X401429Y288460D01*
X401417Y288432D01*
X401418Y288402D01*
X401410Y288360D01*
X401410Y274160D01*
X401421Y274110D01*
X401423Y274059D01*
X401441Y274027D01*
X401449Y273991D01*
X401482Y273952D01*
X401506Y273907D01*
X401536Y273886D01*
X401559Y273858D01*
X401606Y273837D01*
X401648Y273807D01*
X401690Y273799D01*
X401718Y273787D01*
X401748Y273788D01*
X401790Y273780D01*
X405490Y273780D01*
X405540Y273791D01*
X405591Y273793D01*
X405623Y273811D01*
X405659Y273819D01*
X405698Y273852D01*
X405743Y273876D01*
X405764Y273906D01*
X405792Y273929D01*
X405813Y273976D01*
X405843Y274018D01*
X405851Y274060D01*
X405863Y274088D01*
X405862Y274118D01*
X405870Y274160D01*
X405870Y275101D01*
X406093Y274822D01*
X406120Y274801D01*
X406152Y274763D01*
X406652Y274363D01*
X406682Y274349D01*
X406720Y274320D01*
X407320Y274020D01*
X407334Y274017D01*
X407349Y274007D01*
X407849Y273807D01*
X407859Y273805D01*
X407870Y273799D01*
X408470Y273599D01*
X408499Y273597D01*
X408536Y273584D01*
X409233Y273484D01*
X409828Y273385D01*
X409863Y273387D01*
X409917Y273381D01*
X411317Y273481D01*
G37*
G36*
X489922Y273481D02*
X489922Y273481D01*
X489935Y273485D01*
X489953Y273485D01*
X491153Y273685D01*
X491168Y273692D01*
X491190Y273693D01*
X492290Y273993D01*
X492318Y274008D01*
X492360Y274020D01*
X492680Y274180D01*
X493360Y274520D01*
X493389Y274544D01*
X493440Y274574D01*
X494240Y275274D01*
X494258Y275299D01*
X494290Y275327D01*
X494990Y276227D01*
X495006Y276262D01*
X495043Y276319D01*
X495443Y277319D01*
X495448Y277353D01*
X495466Y277402D01*
X495666Y278702D01*
X495660Y278782D01*
X495657Y278861D01*
X495653Y278867D01*
X495652Y278875D01*
X495612Y278943D01*
X495574Y279013D01*
X495568Y279017D01*
X495564Y279024D01*
X495497Y279067D01*
X495432Y279113D01*
X495424Y279114D01*
X495418Y279118D01*
X495385Y279122D01*
X495290Y279140D01*
X491590Y279140D01*
X491540Y279129D01*
X491489Y279127D01*
X491457Y279109D01*
X491421Y279101D01*
X491382Y279068D01*
X491337Y279044D01*
X491316Y279014D01*
X491288Y278991D01*
X491267Y278944D01*
X491237Y278902D01*
X491229Y278860D01*
X491217Y278832D01*
X491218Y278802D01*
X491210Y278760D01*
X491210Y278233D01*
X491056Y277848D01*
X490818Y277532D01*
X490136Y277020D01*
X489628Y276935D01*
X489622Y276933D01*
X489615Y276933D01*
X489121Y276834D01*
X488606Y276748D01*
X488282Y276829D01*
X488246Y276829D01*
X488190Y276840D01*
X487837Y276840D01*
X487523Y276919D01*
X487191Y277085D01*
X486840Y277348D01*
X486633Y277554D01*
X486482Y278160D01*
X486549Y278427D01*
X486690Y278710D01*
X487002Y278944D01*
X487450Y279212D01*
X487996Y279395D01*
X489573Y279789D01*
X490565Y279987D01*
X490568Y279989D01*
X490573Y279989D01*
X491473Y280189D01*
X491493Y280199D01*
X491524Y280204D01*
X492324Y280504D01*
X492330Y280508D01*
X492340Y280511D01*
X493040Y280811D01*
X493055Y280822D01*
X493079Y280830D01*
X493779Y281230D01*
X493787Y281238D01*
X493801Y281244D01*
X494401Y281644D01*
X494402Y281645D01*
X494405Y281646D01*
X494506Y281749D01*
X494906Y282349D01*
X494917Y282377D01*
X494940Y282410D01*
X495240Y283110D01*
X495246Y283149D01*
X495252Y283168D01*
X495264Y283194D01*
X495264Y283204D01*
X495268Y283218D01*
X495368Y284118D01*
X495364Y284149D01*
X495369Y284192D01*
X495269Y285392D01*
X495257Y285429D01*
X495243Y285501D01*
X494843Y286501D01*
X494823Y286530D01*
X494776Y286610D01*
X494076Y287410D01*
X494057Y287424D01*
X494037Y287449D01*
X493337Y288049D01*
X493305Y288066D01*
X493260Y288100D01*
X492260Y288600D01*
X492223Y288609D01*
X492165Y288633D01*
X491165Y288833D01*
X491162Y288833D01*
X491158Y288834D01*
X490058Y289034D01*
X490029Y289033D01*
X489990Y289040D01*
X487690Y289040D01*
X487662Y289034D01*
X487622Y289034D01*
X486522Y288834D01*
X486505Y288827D01*
X486481Y288824D01*
X485481Y288524D01*
X485462Y288514D01*
X485436Y288507D01*
X484536Y288107D01*
X484508Y288087D01*
X484462Y288064D01*
X483662Y287464D01*
X483637Y287434D01*
X483586Y287388D01*
X482986Y286588D01*
X482974Y286562D01*
X482950Y286530D01*
X482450Y285530D01*
X482441Y285492D01*
X482415Y285423D01*
X482215Y284223D01*
X482220Y284141D01*
X482223Y284059D01*
X482226Y284055D01*
X482226Y284050D01*
X482267Y283979D01*
X482306Y283907D01*
X482310Y283904D01*
X482313Y283900D01*
X482381Y283854D01*
X482448Y283807D01*
X482453Y283806D01*
X482457Y283804D01*
X482485Y283800D01*
X482590Y283780D01*
X486290Y283780D01*
X486303Y283783D01*
X486317Y283781D01*
X486387Y283802D01*
X486459Y283819D01*
X486469Y283828D01*
X486482Y283832D01*
X486536Y283883D01*
X486592Y283929D01*
X486598Y283942D01*
X486608Y283951D01*
X486663Y284085D01*
X486756Y284551D01*
X486928Y284982D01*
X487064Y285186D01*
X487281Y285331D01*
X487646Y285513D01*
X488063Y285680D01*
X489628Y285680D01*
X489870Y285599D01*
X489883Y285598D01*
X489898Y285591D01*
X490284Y285495D01*
X490446Y285441D01*
X490710Y285045D01*
X490710Y284807D01*
X490640Y284527D01*
X490418Y284232D01*
X490089Y283985D01*
X489544Y283712D01*
X489005Y283533D01*
X488243Y283437D01*
X488224Y283430D01*
X488198Y283429D01*
X485802Y282830D01*
X484908Y282631D01*
X484872Y282614D01*
X484801Y282590D01*
X483401Y281790D01*
X483381Y281771D01*
X483347Y281752D01*
X482747Y281252D01*
X482723Y281221D01*
X482718Y281216D01*
X482717Y281215D01*
X482674Y281171D01*
X482274Y280571D01*
X482263Y280543D01*
X482241Y280510D01*
X481941Y279810D01*
X481934Y279771D01*
X481912Y279702D01*
X481812Y278802D01*
X481817Y278764D01*
X481814Y278702D01*
X482014Y277402D01*
X482026Y277373D01*
X482033Y277330D01*
X482433Y276230D01*
X482454Y276197D01*
X482486Y276132D01*
X483086Y275332D01*
X483111Y275311D01*
X483140Y275274D01*
X483940Y274574D01*
X483973Y274556D01*
X484020Y274520D01*
X485020Y274020D01*
X485050Y274013D01*
X485090Y273993D01*
X486190Y273693D01*
X486207Y273693D01*
X486228Y273685D01*
X487428Y273485D01*
X487442Y273486D01*
X487458Y273481D01*
X488658Y273381D01*
X488685Y273385D01*
X488722Y273381D01*
X489922Y273481D01*
G37*
G36*
X461914Y254613D02*
X461914Y254613D01*
X461926Y254608D01*
X462726Y255108D01*
X462733Y255127D01*
X462745Y255129D01*
X463844Y257528D01*
X464528Y258701D01*
X466491Y258701D01*
X467251Y258416D01*
X467251Y256350D01*
X467253Y256347D01*
X467251Y256345D01*
X467351Y255345D01*
X467371Y255324D01*
X467371Y255310D01*
X468071Y254810D01*
X468090Y254810D01*
X468096Y254801D01*
X469296Y254701D01*
X469307Y254708D01*
X469314Y254703D01*
X470314Y255003D01*
X470330Y255024D01*
X470343Y255026D01*
X470743Y255726D01*
X470740Y255743D01*
X470749Y255750D01*
X470749Y268050D01*
X470740Y268063D01*
X470744Y268072D01*
X470344Y268872D01*
X470316Y268886D01*
X470310Y268898D01*
X469310Y269098D01*
X469303Y269095D01*
X469300Y269099D01*
X464200Y269099D01*
X464192Y269093D01*
X464186Y269097D01*
X463186Y268797D01*
X463183Y268793D01*
X463180Y268795D01*
X462280Y268395D01*
X462276Y268387D01*
X462270Y268389D01*
X461370Y267689D01*
X461369Y267684D01*
X461365Y267685D01*
X460665Y266985D01*
X460664Y266978D01*
X460659Y266977D01*
X460059Y266077D01*
X460060Y266068D01*
X460053Y266066D01*
X459753Y265166D01*
X459756Y265158D01*
X459751Y265155D01*
X459651Y264155D01*
X459653Y264152D01*
X459651Y264150D01*
X459651Y263050D01*
X459657Y263042D01*
X459653Y263036D01*
X459953Y262036D01*
X459957Y262033D01*
X459955Y262030D01*
X460355Y261130D01*
X460362Y261126D01*
X460361Y261120D01*
X460948Y260337D01*
X460852Y259665D01*
X460456Y258872D01*
X460457Y258868D01*
X460454Y258867D01*
X460054Y257767D01*
X460054Y257766D01*
X460053Y257766D01*
X459853Y257166D01*
X459854Y257164D01*
X459853Y257164D01*
X459553Y256164D01*
X459561Y256142D01*
X459555Y256131D01*
X459855Y255431D01*
X459875Y255419D01*
X459876Y255407D01*
X460976Y254807D01*
X460986Y254808D01*
X460989Y254802D01*
X461889Y254602D01*
X461914Y254613D01*
G37*
%LPC*%
G36*
X469902Y342589D02*
X469902Y342589D01*
X468710Y342689D01*
X468416Y342787D01*
X468412Y342785D01*
X468411Y342788D01*
X467517Y342987D01*
X467324Y343083D01*
X466526Y343582D01*
X466518Y343581D01*
X466516Y343587D01*
X466225Y343684D01*
X465336Y344474D01*
X464641Y345367D01*
X464045Y346460D01*
X463649Y347551D01*
X463549Y348742D01*
X463549Y349038D01*
X463649Y350230D01*
X464045Y351419D01*
X464641Y352412D01*
X465336Y353306D01*
X466230Y354101D01*
X466525Y354297D01*
X467319Y354694D01*
X467616Y354793D01*
X467616Y354794D01*
X467617Y354794D01*
X468409Y355091D01*
X468700Y355091D01*
X468705Y355094D01*
X468708Y355091D01*
X469900Y355290D01*
X471092Y355091D01*
X471097Y355094D01*
X471100Y355091D01*
X471391Y355091D01*
X472183Y354794D01*
X472184Y354794D01*
X472184Y354793D01*
X472481Y354694D01*
X473271Y354299D01*
X473465Y354105D01*
X473468Y354105D01*
X473468Y354103D01*
X474168Y353503D01*
X474173Y353502D01*
X474173Y353499D01*
X474466Y353304D01*
X475159Y352413D01*
X475754Y351321D01*
X476052Y350230D01*
X476251Y349036D01*
X476251Y348744D01*
X476052Y347550D01*
X476033Y347483D01*
X476020Y347433D01*
X476006Y347384D01*
X475953Y347187D01*
X475939Y347138D01*
X475886Y346941D01*
X475872Y346892D01*
X475859Y346842D01*
X475805Y346645D01*
X475792Y346596D01*
X475754Y346459D01*
X475159Y345368D01*
X474365Y344475D01*
X473472Y343681D01*
X473278Y343584D01*
X473276Y343581D01*
X473274Y343582D01*
X472479Y343085D01*
X471292Y342689D01*
X471100Y342689D01*
X471097Y342687D01*
X471095Y342689D01*
X470197Y342589D01*
X469902Y342589D01*
G37*
%LPD*%
G36*
X422740Y273791D02*
X422740Y273791D01*
X422791Y273793D01*
X422823Y273811D01*
X422859Y273819D01*
X422898Y273852D01*
X422943Y273876D01*
X422964Y273906D01*
X422992Y273929D01*
X423013Y273976D01*
X423043Y274018D01*
X423051Y274060D01*
X423063Y274088D01*
X423062Y274118D01*
X423070Y274160D01*
X423070Y285380D01*
X426590Y285380D01*
X426641Y285392D01*
X426694Y285394D01*
X426724Y285411D01*
X426759Y285419D01*
X426799Y285453D01*
X426845Y285478D01*
X426865Y285507D01*
X426892Y285529D01*
X426914Y285577D01*
X426944Y285621D01*
X426949Y285655D01*
X426963Y285688D01*
X426961Y285740D01*
X426969Y285792D01*
X426958Y285825D01*
X426957Y285861D01*
X426932Y285907D01*
X426915Y285957D01*
X426888Y285987D01*
X426874Y286013D01*
X426848Y286031D01*
X426818Y286064D01*
X426440Y286348D01*
X424859Y287929D01*
X424839Y287941D01*
X424818Y287964D01*
X424462Y288232D01*
X424194Y288588D01*
X424182Y288599D01*
X424174Y288613D01*
X424116Y288654D01*
X424061Y288699D01*
X424046Y288703D01*
X424032Y288713D01*
X423905Y288737D01*
X423893Y288740D01*
X423892Y288740D01*
X423890Y288740D01*
X423070Y288740D01*
X423070Y290360D01*
X423064Y290386D01*
X423046Y290494D01*
X422746Y291294D01*
X422742Y291300D01*
X422740Y291310D01*
X422440Y292010D01*
X422416Y292041D01*
X422382Y292103D01*
X421882Y292703D01*
X421852Y292726D01*
X421811Y292769D01*
X421111Y293269D01*
X421087Y293279D01*
X421060Y293300D01*
X420260Y293700D01*
X420233Y293707D01*
X420199Y293724D01*
X419199Y294024D01*
X419160Y294027D01*
X419090Y294040D01*
X416190Y294040D01*
X416175Y294037D01*
X416160Y294039D01*
X416028Y294002D01*
X416021Y294001D01*
X416021Y294000D01*
X416020Y294000D01*
X415820Y293900D01*
X415781Y293868D01*
X415737Y293844D01*
X415716Y293813D01*
X415687Y293789D01*
X415666Y293743D01*
X415637Y293702D01*
X415629Y293659D01*
X415616Y293631D01*
X415617Y293615D01*
X415618Y293601D01*
X415610Y293560D01*
X415610Y290760D01*
X415621Y290710D01*
X415623Y290659D01*
X415641Y290627D01*
X415649Y290591D01*
X415682Y290552D01*
X415706Y290507D01*
X415736Y290486D01*
X415759Y290458D01*
X415806Y290437D01*
X415848Y290407D01*
X415890Y290399D01*
X415918Y290387D01*
X415948Y290388D01*
X415990Y290380D01*
X417643Y290380D01*
X417957Y290301D01*
X418230Y290165D01*
X418361Y289969D01*
X418410Y289870D01*
X418410Y289560D01*
X418418Y289524D01*
X418421Y289468D01*
X418510Y289113D01*
X418510Y288740D01*
X416190Y288740D01*
X416140Y288729D01*
X416089Y288727D01*
X416057Y288709D01*
X416021Y288701D01*
X415982Y288668D01*
X415937Y288644D01*
X415916Y288614D01*
X415888Y288591D01*
X415867Y288544D01*
X415837Y288502D01*
X415829Y288460D01*
X415817Y288432D01*
X415818Y288402D01*
X415810Y288360D01*
X415810Y285760D01*
X415821Y285710D01*
X415823Y285659D01*
X415841Y285627D01*
X415849Y285591D01*
X415882Y285552D01*
X415906Y285507D01*
X415936Y285486D01*
X415959Y285458D01*
X416006Y285437D01*
X416048Y285407D01*
X416090Y285399D01*
X416118Y285387D01*
X416148Y285388D01*
X416190Y285380D01*
X418510Y285380D01*
X418510Y274160D01*
X418521Y274110D01*
X418523Y274059D01*
X418541Y274027D01*
X418549Y273991D01*
X418582Y273952D01*
X418606Y273907D01*
X418636Y273886D01*
X418659Y273858D01*
X418706Y273837D01*
X418748Y273807D01*
X418790Y273799D01*
X418818Y273787D01*
X418848Y273788D01*
X418890Y273780D01*
X422690Y273780D01*
X422740Y273791D01*
G37*
G36*
X431512Y254802D02*
X431512Y254802D01*
X431524Y254817D01*
X431535Y254815D01*
X432335Y255615D01*
X432335Y255618D01*
X432337Y255618D01*
X436265Y260134D01*
X436351Y259447D01*
X436351Y256450D01*
X436355Y256444D01*
X436352Y256440D01*
X436552Y255440D01*
X436569Y255425D01*
X436568Y255412D01*
X437168Y254912D01*
X437190Y254911D01*
X437196Y254901D01*
X438496Y254801D01*
X438507Y254808D01*
X438514Y254803D01*
X439514Y255103D01*
X439532Y255127D01*
X439545Y255131D01*
X439845Y255831D01*
X439842Y255844D01*
X439849Y255850D01*
X439849Y268050D01*
X439842Y268060D01*
X439846Y268067D01*
X439546Y268867D01*
X439520Y268884D01*
X439516Y268897D01*
X438616Y269197D01*
X438602Y269192D01*
X438596Y269199D01*
X437296Y269099D01*
X437282Y269087D01*
X437271Y269090D01*
X436571Y268590D01*
X436564Y268566D01*
X436552Y268561D01*
X436352Y267661D01*
X436355Y267653D01*
X436351Y267650D01*
X436351Y264553D01*
X436265Y263865D01*
X434137Y266282D01*
X432337Y268382D01*
X432335Y268383D01*
X432335Y268385D01*
X431535Y269185D01*
X431517Y269187D01*
X431514Y269197D01*
X430814Y269397D01*
X430791Y269389D01*
X430780Y269395D01*
X429880Y268995D01*
X429874Y268984D01*
X429865Y268985D01*
X428965Y268085D01*
X428963Y268067D01*
X428952Y268059D01*
X428954Y268057D01*
X428951Y268056D01*
X428851Y267256D01*
X428863Y267235D01*
X428859Y267223D01*
X429459Y266323D01*
X429463Y266321D01*
X429462Y266318D01*
X429962Y265718D01*
X429964Y265718D01*
X429964Y265717D01*
X431264Y264317D01*
X431266Y264316D01*
X431266Y264314D01*
X432966Y262714D01*
X432968Y262714D01*
X432968Y262713D01*
X433727Y262048D01*
X431166Y259586D01*
X431166Y259584D01*
X431164Y259584D01*
X429464Y257784D01*
X429463Y257776D01*
X429458Y257775D01*
X428858Y256775D01*
X428860Y256752D01*
X428851Y256743D01*
X428951Y256043D01*
X428966Y256029D01*
X428963Y256017D01*
X429763Y255117D01*
X429775Y255115D01*
X429776Y255107D01*
X430676Y254607D01*
X430702Y254611D01*
X430712Y254602D01*
X431512Y254802D01*
G37*
G36*
X479513Y359800D02*
X479513Y359800D01*
X479522Y359796D01*
X479722Y359896D01*
X479732Y359916D01*
X479744Y359925D01*
X479740Y359932D01*
X479741Y359933D01*
X479749Y359940D01*
X479749Y365040D01*
X479713Y365087D01*
X479706Y365082D01*
X479700Y365089D01*
X460200Y365089D01*
X460179Y365073D01*
X460165Y365075D01*
X460065Y364975D01*
X460062Y364948D01*
X460051Y364940D01*
X460051Y359840D01*
X460087Y359793D01*
X460094Y359798D01*
X460100Y359791D01*
X479500Y359791D01*
X479513Y359800D01*
G37*
G36*
X470221Y300407D02*
X470221Y300407D01*
X470235Y300405D01*
X470635Y300805D01*
X470636Y300817D01*
X470641Y300821D01*
X470640Y300822D01*
X470647Y300824D01*
X470747Y301124D01*
X470743Y301135D01*
X470749Y301140D01*
X470749Y301438D01*
X471949Y328938D01*
X471948Y328939D01*
X471949Y328940D01*
X471949Y329540D01*
X471942Y329549D01*
X471947Y329556D01*
X471747Y330156D01*
X471733Y330165D01*
X471735Y330175D01*
X471135Y330775D01*
X471128Y330776D01*
X471127Y330781D01*
X470827Y330981D01*
X470823Y330981D01*
X470822Y330984D01*
X470622Y331084D01*
X470617Y331083D01*
X470616Y331087D01*
X470016Y331287D01*
X470005Y331283D01*
X470000Y331289D01*
X469400Y331289D01*
X469391Y331282D01*
X469384Y331287D01*
X468784Y331087D01*
X468781Y331082D01*
X468778Y331084D01*
X468578Y330984D01*
X468576Y330980D01*
X468573Y330981D01*
X468273Y330781D01*
X468270Y330774D01*
X468265Y330775D01*
X467865Y330375D01*
X467864Y330368D01*
X467859Y330367D01*
X467659Y330067D01*
X467660Y330058D01*
X467659Y330057D01*
X467653Y330056D01*
X467554Y329759D01*
X467456Y329562D01*
X467456Y329560D01*
X467456Y329559D01*
X467459Y329546D01*
X467451Y329540D01*
X467451Y328940D01*
X467452Y328938D01*
X467451Y328937D01*
X468951Y301338D01*
X468951Y301040D01*
X468960Y301027D01*
X468956Y301018D01*
X469056Y300818D01*
X469060Y300816D01*
X469059Y300813D01*
X469259Y300513D01*
X469280Y300505D01*
X469284Y300493D01*
X469584Y300393D01*
X469595Y300397D01*
X469600Y300391D01*
X470200Y300391D01*
X470221Y300407D01*
G37*
G36*
X420108Y254801D02*
X420108Y254801D01*
X420121Y254815D01*
X420132Y254812D01*
X420732Y255312D01*
X420735Y255326D01*
X420738Y255342D01*
X420749Y255350D01*
X420749Y267750D01*
X420742Y267759D01*
X420747Y267766D01*
X420447Y268666D01*
X420421Y268683D01*
X420417Y268696D01*
X419617Y268996D01*
X419605Y268993D01*
X419600Y268999D01*
X411300Y268999D01*
X411297Y268997D01*
X411295Y268999D01*
X410295Y268899D01*
X410274Y268880D01*
X410261Y268880D01*
X409661Y268080D01*
X409661Y268066D01*
X409652Y268059D01*
X409654Y268057D01*
X409651Y268055D01*
X409551Y267055D01*
X409557Y267046D01*
X409552Y267040D01*
X409752Y266040D01*
X409773Y266022D01*
X409774Y266008D01*
X410574Y265508D01*
X410593Y265510D01*
X410600Y265501D01*
X416682Y265501D01*
X417251Y265027D01*
X417251Y264068D01*
X416777Y263499D01*
X412700Y263499D01*
X412683Y263486D01*
X412671Y263490D01*
X411971Y262990D01*
X411964Y262965D01*
X411952Y262959D01*
X411752Y261859D01*
X411757Y261847D01*
X411752Y261841D01*
X411952Y260741D01*
X411967Y260727D01*
X411965Y260715D01*
X412565Y260115D01*
X412588Y260112D01*
X412595Y260101D01*
X413595Y260001D01*
X413598Y260003D01*
X413600Y260001D01*
X416685Y260001D01*
X417251Y259624D01*
X417251Y256550D01*
X417253Y256547D01*
X417251Y256545D01*
X417351Y255545D01*
X417361Y255534D01*
X417357Y255526D01*
X417757Y254826D01*
X417785Y254814D01*
X417791Y254802D01*
X418891Y254602D01*
X418902Y254607D01*
X418908Y254601D01*
X420108Y254801D01*
G37*
G36*
X398608Y254608D02*
X398608Y254608D01*
X398616Y254603D01*
X399516Y254903D01*
X399530Y254924D01*
X399543Y254926D01*
X399913Y255574D01*
X400568Y255013D01*
X400582Y255012D01*
X400584Y255003D01*
X401484Y254703D01*
X401492Y254706D01*
X401496Y254701D01*
X402596Y254601D01*
X402605Y254607D01*
X402611Y254602D01*
X403511Y254802D01*
X403515Y254808D01*
X403520Y254805D01*
X404420Y255205D01*
X404426Y255216D01*
X404435Y255215D01*
X405235Y256015D01*
X405235Y256018D01*
X405237Y256018D01*
X405937Y256818D01*
X405938Y256825D01*
X405943Y256826D01*
X406443Y257726D01*
X406442Y257733D01*
X406447Y257734D01*
X406747Y258634D01*
X406744Y258642D01*
X406749Y258645D01*
X406849Y259645D01*
X406847Y259648D01*
X406849Y259650D01*
X406849Y260650D01*
X406843Y260658D01*
X406847Y260664D01*
X406547Y261664D01*
X406543Y261667D01*
X406545Y261670D01*
X406145Y262570D01*
X406136Y262575D01*
X406137Y262582D01*
X405437Y263382D01*
X405435Y263383D01*
X405435Y263385D01*
X404635Y264185D01*
X404625Y264186D01*
X404624Y264193D01*
X403724Y264693D01*
X403714Y264692D01*
X403711Y264698D01*
X402811Y264898D01*
X402803Y264895D01*
X402800Y264899D01*
X401800Y264899D01*
X401793Y264894D01*
X401790Y264894D01*
X401786Y264897D01*
X400786Y264597D01*
X400778Y264587D01*
X400770Y264589D01*
X399970Y263989D01*
X399966Y263974D01*
X399956Y263972D01*
X399900Y263860D01*
X399544Y264572D01*
X399519Y264584D01*
X399514Y264597D01*
X398514Y264897D01*
X398506Y264894D01*
X398504Y264894D01*
X398500Y264899D01*
X397400Y264899D01*
X397381Y264885D01*
X397368Y264887D01*
X396668Y264287D01*
X396665Y264273D01*
X396657Y264267D01*
X396659Y264264D01*
X396652Y264261D01*
X396452Y263361D01*
X396455Y263353D01*
X396451Y263350D01*
X396451Y256150D01*
X396453Y256147D01*
X396451Y256145D01*
X396551Y255245D01*
X396571Y255224D01*
X396571Y255210D01*
X397271Y254710D01*
X397290Y254710D01*
X397296Y254701D01*
X398596Y254601D01*
X398608Y254608D01*
G37*
G36*
X449740Y273791D02*
X449740Y273791D01*
X449791Y273793D01*
X449823Y273811D01*
X449859Y273819D01*
X449898Y273852D01*
X449943Y273876D01*
X449964Y273906D01*
X449992Y273929D01*
X450013Y273976D01*
X450043Y274018D01*
X450051Y274060D01*
X450063Y274088D01*
X450062Y274118D01*
X450070Y274160D01*
X450070Y287660D01*
X450067Y287673D01*
X450069Y287687D01*
X450048Y287757D01*
X450031Y287829D01*
X450022Y287839D01*
X450018Y287852D01*
X449967Y287906D01*
X449921Y287962D01*
X449908Y287968D01*
X449899Y287978D01*
X449765Y288033D01*
X449273Y288131D01*
X448882Y288229D01*
X448846Y288229D01*
X448790Y288240D01*
X448328Y288240D01*
X447873Y288331D01*
X447482Y288429D01*
X447474Y288429D01*
X447465Y288433D01*
X446473Y288631D01*
X446082Y288729D01*
X446072Y288729D01*
X446062Y288733D01*
X445986Y288730D01*
X445909Y288732D01*
X445900Y288727D01*
X445889Y288727D01*
X445822Y288690D01*
X445753Y288657D01*
X445746Y288649D01*
X445737Y288644D01*
X445693Y288581D01*
X445645Y288521D01*
X445643Y288511D01*
X445637Y288502D01*
X445610Y288360D01*
X445610Y286944D01*
X445487Y287098D01*
X445484Y287100D01*
X445482Y287103D01*
X444982Y287703D01*
X444967Y287715D01*
X444963Y287722D01*
X444949Y287731D01*
X444928Y287757D01*
X444428Y288157D01*
X444404Y288168D01*
X444379Y288190D01*
X443679Y288590D01*
X443649Y288599D01*
X443610Y288621D01*
X443010Y288821D01*
X443003Y288821D01*
X442994Y288826D01*
X442294Y289026D01*
X442256Y289028D01*
X442190Y289040D01*
X440790Y289040D01*
X440716Y289023D01*
X440641Y289010D01*
X440631Y289003D01*
X440621Y289001D01*
X440592Y288977D01*
X440521Y288929D01*
X440520Y288928D01*
X440489Y288927D01*
X440457Y288909D01*
X440421Y288901D01*
X440382Y288868D01*
X440337Y288844D01*
X440316Y288814D01*
X440288Y288791D01*
X440267Y288744D01*
X440237Y288702D01*
X440229Y288660D01*
X440217Y288632D01*
X440218Y288602D01*
X440210Y288560D01*
X440210Y284960D01*
X440221Y284910D01*
X440223Y284859D01*
X440241Y284827D01*
X440249Y284791D01*
X440282Y284752D01*
X440306Y284707D01*
X440336Y284686D01*
X440359Y284658D01*
X440406Y284637D01*
X440448Y284607D01*
X440490Y284599D01*
X440518Y284587D01*
X440548Y284588D01*
X440590Y284580D01*
X440690Y284580D01*
X440705Y284583D01*
X440720Y284581D01*
X440852Y284618D01*
X440859Y284619D01*
X440859Y284620D01*
X440860Y284620D01*
X440980Y284680D01*
X441971Y284680D01*
X442925Y284584D01*
X443647Y284404D01*
X444242Y284064D01*
X444676Y283542D01*
X445037Y282911D01*
X445221Y282266D01*
X445410Y281418D01*
X445410Y274160D01*
X445421Y274110D01*
X445423Y274059D01*
X445441Y274027D01*
X445449Y273991D01*
X445482Y273952D01*
X445506Y273907D01*
X445536Y273886D01*
X445559Y273858D01*
X445606Y273837D01*
X445648Y273807D01*
X445690Y273799D01*
X445718Y273787D01*
X445748Y273788D01*
X445790Y273780D01*
X449690Y273780D01*
X449740Y273791D01*
G37*
G36*
X466547Y324427D02*
X466547Y324427D01*
X466541Y324435D01*
X466549Y324442D01*
X466349Y328941D01*
X466349Y329532D01*
X466646Y330421D01*
X466743Y330615D01*
X466938Y330909D01*
X467135Y331105D01*
X467136Y331112D01*
X467141Y331113D01*
X467338Y331409D01*
X467727Y331797D01*
X468016Y331893D01*
X468025Y331907D01*
X468035Y331905D01*
X468227Y332097D01*
X468516Y332193D01*
X468808Y332291D01*
X469100Y332291D01*
X469109Y332298D01*
X469116Y332293D01*
X469408Y332391D01*
X470292Y332391D01*
X470881Y332194D01*
X471078Y332096D01*
X471083Y332097D01*
X471084Y332093D01*
X471378Y331995D01*
X471669Y331802D01*
X472462Y331009D01*
X472655Y330718D01*
X472753Y330424D01*
X472758Y330421D01*
X472756Y330418D01*
X472854Y330221D01*
X473051Y329632D01*
X473051Y329041D01*
X472851Y324542D01*
X472876Y324505D01*
X472878Y324496D01*
X473078Y324396D01*
X473094Y324399D01*
X473100Y324391D01*
X475800Y324391D01*
X475809Y324398D01*
X475816Y324393D01*
X476116Y324493D01*
X476125Y324507D01*
X476135Y324505D01*
X476335Y324705D01*
X476337Y324717D01*
X476343Y324722D01*
X476342Y324723D01*
X476347Y324724D01*
X476447Y325024D01*
X476443Y325035D01*
X476449Y325040D01*
X476449Y334040D01*
X476433Y334061D01*
X476435Y334075D01*
X476235Y334275D01*
X476228Y334276D01*
X476227Y334281D01*
X475927Y334481D01*
X475909Y334480D01*
X475903Y334487D01*
X475902Y334487D01*
X475900Y334489D01*
X463900Y334489D01*
X463897Y334487D01*
X463896Y334487D01*
X463886Y334480D01*
X463878Y334484D01*
X463678Y334384D01*
X463673Y334374D01*
X463665Y334375D01*
X463465Y334175D01*
X463463Y334162D01*
X463456Y334157D01*
X463453Y334156D01*
X463353Y333856D01*
X463357Y333845D01*
X463351Y333840D01*
X463351Y324840D01*
X463363Y324824D01*
X463359Y324813D01*
X463559Y324513D01*
X463580Y324505D01*
X463584Y324493D01*
X463884Y324393D01*
X463895Y324397D01*
X463900Y324391D01*
X466500Y324391D01*
X466547Y324427D01*
G37*
G36*
X376706Y254605D02*
X376706Y254605D01*
X376710Y254602D01*
X377710Y254802D01*
X377715Y254808D01*
X377720Y254805D01*
X378620Y255205D01*
X378622Y255208D01*
X378624Y255207D01*
X379524Y255707D01*
X379528Y255716D01*
X379535Y255715D01*
X380235Y256415D01*
X380236Y256425D01*
X380243Y256426D01*
X380743Y257326D01*
X380742Y257331D01*
X380746Y257332D01*
X381146Y258332D01*
X381144Y258338D01*
X381148Y258339D01*
X381348Y259239D01*
X381345Y259247D01*
X381349Y259250D01*
X381349Y260350D01*
X381347Y260353D01*
X381349Y260354D01*
X381249Y261454D01*
X381241Y261463D01*
X381245Y261470D01*
X380845Y262370D01*
X380840Y262373D01*
X380842Y262376D01*
X380342Y263176D01*
X380339Y263177D01*
X380339Y263180D01*
X379739Y263980D01*
X379730Y263982D01*
X379730Y263989D01*
X378930Y264589D01*
X378921Y264589D01*
X378920Y264595D01*
X378020Y264995D01*
X378012Y264993D01*
X378010Y264998D01*
X377010Y265198D01*
X377009Y265198D01*
X375909Y265398D01*
X375900Y265394D01*
X375896Y265399D01*
X374796Y265299D01*
X374790Y265294D01*
X374786Y265297D01*
X373786Y264997D01*
X373782Y264992D01*
X373778Y264994D01*
X372978Y264594D01*
X372975Y264588D01*
X372970Y264589D01*
X372170Y263989D01*
X372167Y263978D01*
X372159Y263977D01*
X371559Y263077D01*
X371560Y263068D01*
X371553Y263066D01*
X371253Y262166D01*
X371256Y262158D01*
X371251Y262155D01*
X371151Y261155D01*
X371153Y261152D01*
X371151Y261150D01*
X371151Y260050D01*
X371167Y260029D01*
X371165Y260015D01*
X371865Y259315D01*
X371878Y259313D01*
X371880Y259305D01*
X372780Y258905D01*
X372794Y258908D01*
X372800Y258901D01*
X376890Y258901D01*
X377519Y258631D01*
X376970Y257991D01*
X375993Y257600D01*
X374904Y257699D01*
X374010Y257798D01*
X373014Y258097D01*
X373008Y258095D01*
X373006Y258098D01*
X372995Y258098D01*
X372989Y258092D01*
X372983Y258096D01*
X372183Y257796D01*
X372168Y257773D01*
X372155Y257770D01*
X371655Y256670D01*
X371659Y256651D01*
X371651Y256643D01*
X371751Y255943D01*
X371762Y255932D01*
X371759Y255923D01*
X372159Y255323D01*
X372174Y255317D01*
X372176Y255307D01*
X372876Y254907D01*
X372888Y254909D01*
X372891Y254902D01*
X373991Y254702D01*
X373995Y254703D01*
X373997Y254701D01*
X375497Y254601D01*
X375499Y254602D01*
X375500Y254601D01*
X376700Y254601D01*
X376706Y254605D01*
G37*
G36*
X451019Y254615D02*
X451019Y254615D01*
X451032Y254613D01*
X451732Y255213D01*
X451735Y255226D01*
X451737Y255228D01*
X451736Y255229D01*
X451738Y255238D01*
X451749Y255245D01*
X451849Y256245D01*
X451847Y256248D01*
X451849Y256250D01*
X451849Y265437D01*
X452229Y266101D01*
X455300Y266101D01*
X455303Y266103D01*
X455305Y266101D01*
X456305Y266201D01*
X456320Y266215D01*
X456332Y266213D01*
X457032Y266813D01*
X457038Y266842D01*
X457049Y266850D01*
X457049Y267950D01*
X457040Y267963D01*
X457044Y267972D01*
X456644Y268772D01*
X456616Y268786D01*
X456610Y268798D01*
X455610Y268998D01*
X455603Y268995D01*
X455600Y268999D01*
X444300Y268999D01*
X444285Y268988D01*
X444274Y268992D01*
X443474Y268492D01*
X443463Y268462D01*
X443451Y268455D01*
X443351Y267455D01*
X443357Y267446D01*
X443352Y267440D01*
X443552Y266440D01*
X443579Y266416D01*
X443583Y266404D01*
X444383Y266104D01*
X444395Y266108D01*
X444400Y266101D01*
X447597Y266101D01*
X448451Y266006D01*
X448451Y255750D01*
X448460Y255738D01*
X448455Y255730D01*
X448855Y254830D01*
X448885Y254814D01*
X448890Y254802D01*
X449890Y254602D01*
X449897Y254605D01*
X449900Y254601D01*
X451000Y254601D01*
X451019Y254615D01*
G37*
G36*
X363704Y254701D02*
X363704Y254701D01*
X363711Y254707D01*
X363716Y254703D01*
X364616Y255003D01*
X364619Y255008D01*
X364622Y255006D01*
X365422Y255406D01*
X365430Y255421D01*
X365440Y255421D01*
X365940Y256121D01*
X365940Y256127D01*
X365944Y256128D01*
X366344Y256928D01*
X366342Y256938D01*
X366348Y256941D01*
X366548Y258041D01*
X366545Y258047D01*
X366549Y258050D01*
X366549Y261214D01*
X368115Y261703D01*
X368137Y261734D01*
X368148Y261739D01*
X368348Y262639D01*
X368345Y262647D01*
X368349Y262650D01*
X368349Y263850D01*
X368340Y263863D01*
X368344Y263872D01*
X367944Y264672D01*
X367916Y264686D01*
X367911Y264698D01*
X367025Y264895D01*
X366549Y265370D01*
X366549Y267350D01*
X366540Y267363D01*
X366544Y267372D01*
X366144Y268172D01*
X366120Y268184D01*
X366116Y268197D01*
X365216Y268497D01*
X365202Y268492D01*
X365196Y268499D01*
X363896Y268399D01*
X363878Y268383D01*
X363865Y268385D01*
X363265Y267785D01*
X363263Y267772D01*
X363253Y267764D01*
X363255Y267762D01*
X363252Y267761D01*
X363052Y266861D01*
X363055Y266853D01*
X363051Y266850D01*
X363051Y264804D01*
X362105Y264899D01*
X362102Y264897D01*
X362100Y264899D01*
X361100Y264899D01*
X361093Y264894D01*
X361083Y264887D01*
X361071Y264890D01*
X360371Y264390D01*
X360366Y264374D01*
X360356Y264366D01*
X360358Y264363D01*
X360352Y264360D01*
X360152Y263360D01*
X360156Y263351D01*
X360151Y263346D01*
X360251Y262146D01*
X360269Y262126D01*
X360268Y262113D01*
X360968Y261513D01*
X360988Y261511D01*
X360995Y261501D01*
X361895Y261401D01*
X361901Y261405D01*
X361905Y261401D01*
X362863Y261497D01*
X363051Y260744D01*
X363051Y258759D01*
X362765Y257996D01*
X361696Y257899D01*
X361686Y257890D01*
X361678Y257894D01*
X360878Y257494D01*
X360864Y257465D01*
X360852Y257459D01*
X360652Y256359D01*
X360657Y256347D01*
X360652Y256341D01*
X360852Y255241D01*
X360869Y255225D01*
X360868Y255212D01*
X361468Y254712D01*
X361489Y254711D01*
X361495Y254701D01*
X362495Y254601D01*
X362501Y254605D01*
X362504Y254601D01*
X363704Y254701D01*
G37*
G36*
X449913Y306400D02*
X449913Y306400D01*
X449922Y306396D01*
X450122Y306496D01*
X450124Y306500D01*
X450127Y306499D01*
X450427Y306699D01*
X450431Y306709D01*
X450438Y306708D01*
X464138Y323108D01*
X464138Y323118D01*
X464144Y323122D01*
X464139Y323129D01*
X464141Y323168D01*
X464134Y323168D01*
X464135Y323175D01*
X464035Y323275D01*
X464010Y323278D01*
X464006Y323284D01*
X464004Y323284D01*
X464000Y323289D01*
X463708Y323289D01*
X463416Y323387D01*
X463127Y323483D01*
X462935Y323675D01*
X462543Y324067D01*
X462447Y324356D01*
X462249Y324948D01*
X462249Y327140D01*
X462239Y327154D01*
X462238Y327172D01*
X462226Y327171D01*
X462213Y327187D01*
X462196Y327174D01*
X462190Y327174D01*
X462183Y327169D01*
X462159Y327168D01*
X448959Y307868D01*
X448959Y307867D01*
X448759Y307567D01*
X448760Y307547D01*
X448751Y307540D01*
X448751Y307240D01*
X448758Y307231D01*
X448753Y307224D01*
X448853Y306924D01*
X448867Y306915D01*
X448865Y306905D01*
X449265Y306505D01*
X449281Y306503D01*
X449284Y306493D01*
X449584Y306393D01*
X449595Y306397D01*
X449600Y306391D01*
X449900Y306391D01*
X449913Y306400D01*
G37*
G36*
X490209Y306398D02*
X490209Y306398D01*
X490216Y306393D01*
X490516Y306493D01*
X490519Y306498D01*
X490522Y306496D01*
X490722Y306596D01*
X490730Y306612D01*
X490741Y306613D01*
X490941Y306913D01*
X490941Y306918D01*
X490942Y306919D01*
X490940Y306922D01*
X490947Y306924D01*
X491047Y307224D01*
X491043Y307235D01*
X491049Y307240D01*
X491049Y307540D01*
X491040Y307553D01*
X491044Y307562D01*
X490944Y307762D01*
X490939Y307764D01*
X490941Y307768D01*
X477641Y327168D01*
X477624Y327173D01*
X477613Y327187D01*
X477604Y327180D01*
X477584Y327187D01*
X477575Y327158D01*
X477551Y327140D01*
X477551Y324948D01*
X477453Y324656D01*
X477457Y324645D01*
X477451Y324640D01*
X477451Y324360D01*
X477265Y324175D01*
X477263Y324159D01*
X477253Y324156D01*
X477157Y323867D01*
X476969Y323678D01*
X476678Y323485D01*
X476384Y323387D01*
X476381Y323382D01*
X476378Y323384D01*
X476188Y323289D01*
X475900Y323289D01*
X475892Y323284D01*
X475889Y323284D01*
X475885Y323281D01*
X475878Y323284D01*
X475678Y323184D01*
X475663Y323155D01*
X475656Y323149D01*
X475659Y323145D01*
X475652Y323131D01*
X475666Y323124D01*
X475662Y323108D01*
X489362Y306808D01*
X489366Y306808D01*
X489365Y306805D01*
X489565Y306605D01*
X489572Y306604D01*
X489573Y306599D01*
X489873Y306399D01*
X489893Y306400D01*
X489900Y306391D01*
X490200Y306391D01*
X490209Y306398D01*
G37*
G36*
X388506Y254605D02*
X388506Y254605D01*
X388510Y254602D01*
X389510Y254802D01*
X389515Y254808D01*
X389520Y254805D01*
X390420Y255205D01*
X390422Y255208D01*
X390424Y255207D01*
X391324Y255707D01*
X391327Y255714D01*
X391332Y255713D01*
X392132Y256413D01*
X392134Y256420D01*
X392139Y256420D01*
X392739Y257220D01*
X392739Y257230D01*
X392746Y257232D01*
X393146Y258232D01*
X393145Y258235D01*
X393147Y258236D01*
X393447Y259236D01*
X393444Y259246D01*
X393449Y259250D01*
X393449Y260250D01*
X393447Y260253D01*
X393449Y260255D01*
X393349Y261255D01*
X393342Y261262D01*
X393346Y261268D01*
X392946Y262268D01*
X392942Y262271D01*
X392943Y262274D01*
X392443Y263174D01*
X392434Y263178D01*
X392435Y263185D01*
X391735Y263885D01*
X391728Y263886D01*
X391727Y263891D01*
X390827Y264491D01*
X390820Y264491D01*
X390818Y264496D01*
X389818Y264896D01*
X389813Y264894D01*
X389811Y264898D01*
X388911Y265098D01*
X388903Y265095D01*
X388900Y265099D01*
X387900Y265099D01*
X387897Y265097D01*
X387895Y265099D01*
X386895Y264999D01*
X386888Y264993D01*
X386883Y264996D01*
X385783Y264596D01*
X385779Y264590D01*
X385774Y264592D01*
X384974Y264092D01*
X384969Y264080D01*
X384961Y264080D01*
X384361Y263280D01*
X384361Y263254D01*
X384351Y263245D01*
X384451Y262345D01*
X384463Y262332D01*
X384460Y262322D01*
X385160Y261322D01*
X385173Y261317D01*
X385174Y261308D01*
X385974Y260808D01*
X385989Y260810D01*
X385991Y260806D01*
X386014Y260806D01*
X386017Y260804D01*
X386817Y261104D01*
X386820Y261109D01*
X386824Y261107D01*
X387711Y261600D01*
X388782Y261502D01*
X389560Y260918D01*
X389951Y260040D01*
X389951Y259074D01*
X389076Y258394D01*
X388199Y258102D01*
X387219Y258396D01*
X386324Y258893D01*
X386297Y258889D01*
X386286Y258897D01*
X385586Y258697D01*
X385576Y258683D01*
X385565Y258685D01*
X384665Y257785D01*
X384663Y257772D01*
X384656Y257766D01*
X384653Y257766D01*
X384353Y256866D01*
X384361Y256844D01*
X384354Y256833D01*
X384654Y256033D01*
X384670Y256023D01*
X384670Y256011D01*
X385570Y255311D01*
X385576Y255311D01*
X385576Y255307D01*
X386476Y254807D01*
X386487Y254809D01*
X386490Y254802D01*
X387490Y254602D01*
X387497Y254605D01*
X387500Y254601D01*
X388500Y254601D01*
X388506Y254605D01*
G37*
%LPC*%
G36*
X308549Y38902D02*
X308549Y38902D01*
X308511Y38948D01*
X308505Y38943D01*
X308500Y38949D01*
X301014Y38949D01*
X300536Y39236D01*
X300249Y39714D01*
X300249Y40480D01*
X300920Y41151D01*
X305700Y41151D01*
X305711Y41159D01*
X305724Y41157D01*
X305726Y41170D01*
X305747Y41187D01*
X305731Y41208D01*
X305735Y41235D01*
X305535Y41435D01*
X305530Y41436D01*
X305530Y41439D01*
X304730Y42039D01*
X301031Y44839D01*
X300442Y45329D01*
X300249Y45908D01*
X300249Y46583D01*
X300629Y47058D01*
X301208Y47251D01*
X308696Y47251D01*
X309276Y47154D01*
X309651Y46780D01*
X309651Y45907D01*
X309642Y45877D01*
X309628Y45828D01*
X309586Y45680D01*
X309544Y45533D01*
X309530Y45483D01*
X309488Y45336D01*
X309459Y45237D01*
X308991Y45049D01*
X304300Y45049D01*
X304287Y45039D01*
X304270Y45039D01*
X304270Y45027D01*
X304253Y45013D01*
X304270Y44990D01*
X304270Y44961D01*
X309068Y41363D01*
X309651Y40780D01*
X309651Y40103D01*
X309554Y39423D01*
X309176Y39046D01*
X308592Y38949D01*
X308551Y38905D01*
X308554Y38903D01*
X308551Y38900D01*
X308551Y38871D01*
X308549Y38902D01*
G37*
%LPD*%
%LPC*%
G36*
X523549Y83902D02*
X523549Y83902D01*
X523511Y83948D01*
X523505Y83943D01*
X523500Y83949D01*
X516014Y83949D01*
X515536Y84236D01*
X515249Y84714D01*
X515249Y85480D01*
X515920Y86151D01*
X520700Y86151D01*
X520711Y86159D01*
X520724Y86157D01*
X520726Y86170D01*
X520747Y86187D01*
X520731Y86208D01*
X520735Y86235D01*
X520535Y86435D01*
X520530Y86436D01*
X520530Y86439D01*
X519730Y87039D01*
X516031Y89839D01*
X515442Y90329D01*
X515249Y90908D01*
X515249Y91583D01*
X515629Y92058D01*
X516208Y92251D01*
X523696Y92251D01*
X524276Y92154D01*
X524651Y91780D01*
X524651Y90907D01*
X524642Y90877D01*
X524628Y90828D01*
X524586Y90680D01*
X524544Y90533D01*
X524530Y90483D01*
X524488Y90336D01*
X524459Y90237D01*
X523991Y90049D01*
X519300Y90049D01*
X519287Y90039D01*
X519270Y90039D01*
X519270Y90027D01*
X519253Y90013D01*
X519270Y89990D01*
X519270Y89961D01*
X524068Y86363D01*
X524651Y85780D01*
X524651Y85103D01*
X524554Y84423D01*
X524176Y84046D01*
X523592Y83949D01*
X523551Y83905D01*
X523554Y83903D01*
X523551Y83900D01*
X523551Y83871D01*
X523549Y83902D01*
G37*
%LPD*%
%LPC*%
G36*
X133614Y142383D02*
X133614Y142383D01*
X133285Y142390D01*
X130726Y149465D01*
X130635Y149727D01*
X130819Y149733D01*
X132893Y149733D01*
X132995Y149394D01*
X134395Y144771D01*
X134409Y144758D01*
X134415Y144741D01*
X134433Y144738D01*
X134447Y144727D01*
X134464Y144735D01*
X134482Y144732D01*
X134498Y144750D01*
X134508Y144756D01*
X134510Y144765D01*
X134516Y144772D01*
X134614Y145128D01*
X135963Y149735D01*
X136365Y149733D01*
X137953Y149733D01*
X138250Y149724D01*
X139590Y144986D01*
X139597Y144979D01*
X139597Y144969D01*
X139640Y144942D01*
X139641Y144941D01*
X139790Y144920D01*
X139806Y144927D01*
X139825Y144925D01*
X139840Y144943D01*
X139851Y144948D01*
X139851Y144956D01*
X139859Y144964D01*
X141208Y149537D01*
X141265Y149733D01*
X143601Y149733D01*
X143529Y149542D01*
X143534Y149516D01*
X140942Y142388D01*
X140581Y142383D01*
X138994Y142383D01*
X138608Y142402D01*
X137335Y146483D01*
X137334Y146484D01*
X137335Y146485D01*
X137177Y146922D01*
X137164Y146932D01*
X137160Y146948D01*
X137139Y146951D01*
X137123Y146963D01*
X137109Y146956D01*
X137093Y146958D01*
X137074Y146937D01*
X137063Y146931D01*
X137063Y146924D01*
X137058Y146919D01*
X135666Y142406D01*
X135200Y142383D01*
X133614Y142383D01*
G37*
%LPD*%
G36*
X471309Y45258D02*
X471309Y45258D01*
X471316Y45253D01*
X471916Y45453D01*
X471927Y45470D01*
X471939Y45470D01*
X472239Y45870D01*
X472239Y45877D01*
X472241Y45878D01*
X472239Y45879D01*
X472239Y45892D01*
X472249Y45900D01*
X472249Y54100D01*
X472241Y54111D01*
X472246Y54118D01*
X472046Y54618D01*
X472020Y54634D01*
X472016Y54647D01*
X471416Y54847D01*
X471405Y54843D01*
X471400Y54849D01*
X467900Y54849D01*
X467895Y54846D01*
X467892Y54849D01*
X467292Y54749D01*
X467285Y54741D01*
X467278Y54744D01*
X466678Y54444D01*
X466676Y54440D01*
X466673Y54441D01*
X466073Y54041D01*
X466070Y54034D01*
X466065Y54035D01*
X465565Y53535D01*
X465565Y53531D01*
X465562Y53531D01*
X465162Y53031D01*
X465161Y53023D01*
X465156Y53022D01*
X464756Y52222D01*
X464758Y52212D01*
X464753Y52208D01*
X464756Y52204D01*
X464751Y52200D01*
X464751Y51500D01*
X464754Y51496D01*
X464751Y51493D01*
X464851Y50793D01*
X464852Y50792D01*
X464851Y50792D01*
X464951Y50192D01*
X464958Y50186D01*
X464955Y50181D01*
X465255Y49481D01*
X465263Y49476D01*
X465262Y49469D01*
X465662Y48969D01*
X465669Y48967D01*
X465669Y48962D01*
X466169Y48562D01*
X466173Y48561D01*
X466173Y48559D01*
X466773Y48159D01*
X466789Y48160D01*
X466791Y48157D01*
X466803Y48157D01*
X466809Y48161D01*
X466832Y48163D01*
X466831Y48175D01*
X466843Y48176D01*
X466859Y48205D01*
X466867Y48164D01*
X466880Y48166D01*
X466884Y48153D01*
X467484Y47953D01*
X467490Y47955D01*
X467492Y47951D01*
X468092Y47851D01*
X468097Y47854D01*
X468100Y47851D01*
X469391Y47851D01*
X469851Y47667D01*
X469851Y46300D01*
X469854Y46295D01*
X469851Y46292D01*
X469951Y45692D01*
X469967Y45677D01*
X469965Y45665D01*
X470365Y45265D01*
X470392Y45262D01*
X470400Y45251D01*
X471300Y45251D01*
X471309Y45258D01*
G37*
%LPC*%
G36*
X519603Y73649D02*
X519603Y73649D01*
X518910Y73748D01*
X518218Y73946D01*
X517627Y74242D01*
X517131Y74638D01*
X516635Y75035D01*
X516140Y75629D01*
X515843Y76123D01*
X515546Y76718D01*
X515348Y77411D01*
X515249Y78004D01*
X515249Y81284D01*
X515530Y81658D01*
X516108Y81851D01*
X517226Y81851D01*
X517747Y79611D01*
X517461Y79230D01*
X517461Y79211D01*
X517453Y79205D01*
X517454Y79203D01*
X517451Y79200D01*
X517451Y77800D01*
X517460Y77787D01*
X517456Y77778D01*
X517756Y77178D01*
X517763Y77175D01*
X517762Y77169D01*
X518162Y76669D01*
X518169Y76667D01*
X518169Y76662D01*
X518669Y76262D01*
X518677Y76261D01*
X518678Y76256D01*
X519278Y75956D01*
X519289Y75958D01*
X519293Y75951D01*
X519993Y75851D01*
X520002Y75856D01*
X520007Y75851D01*
X520707Y75951D01*
X520715Y75959D01*
X520722Y75956D01*
X521322Y76256D01*
X521325Y76263D01*
X521331Y76262D01*
X521831Y76662D01*
X521832Y76666D01*
X521835Y76665D01*
X522335Y77165D01*
X522337Y77181D01*
X522347Y77184D01*
X522447Y77484D01*
X522443Y77495D01*
X522449Y77500D01*
X522449Y79500D01*
X522413Y79547D01*
X522410Y79545D01*
X522408Y79549D01*
X521808Y79649D01*
X521803Y79646D01*
X521800Y79649D01*
X517839Y79649D01*
X517327Y81851D01*
X523597Y81851D01*
X524273Y81754D01*
X524553Y81381D01*
X524651Y80697D01*
X524651Y77904D01*
X524552Y77311D01*
X524544Y77284D01*
X524530Y77235D01*
X524488Y77087D01*
X524446Y76940D01*
X524432Y76890D01*
X524390Y76743D01*
X524354Y76618D01*
X524058Y76027D01*
X523662Y75531D01*
X523265Y75035D01*
X522671Y74540D01*
X522177Y74243D01*
X521582Y73946D01*
X520889Y73748D01*
X520296Y73649D01*
X519603Y73649D01*
G37*
%LPD*%
%LPC*%
G36*
X304603Y28649D02*
X304603Y28649D01*
X303910Y28748D01*
X303218Y28946D01*
X302627Y29242D01*
X302131Y29638D01*
X301635Y30035D01*
X301140Y30629D01*
X300843Y31123D01*
X300546Y31718D01*
X300348Y32411D01*
X300249Y33004D01*
X300249Y36284D01*
X300530Y36658D01*
X301108Y36851D01*
X302226Y36851D01*
X302747Y34611D01*
X302461Y34230D01*
X302461Y34211D01*
X302453Y34205D01*
X302454Y34203D01*
X302451Y34200D01*
X302451Y32800D01*
X302460Y32787D01*
X302456Y32778D01*
X302756Y32178D01*
X302763Y32175D01*
X302762Y32169D01*
X303162Y31669D01*
X303169Y31667D01*
X303169Y31662D01*
X303669Y31262D01*
X303677Y31261D01*
X303678Y31256D01*
X304278Y30956D01*
X304289Y30958D01*
X304293Y30951D01*
X304993Y30851D01*
X305002Y30856D01*
X305007Y30851D01*
X305707Y30951D01*
X305715Y30959D01*
X305722Y30956D01*
X306322Y31256D01*
X306325Y31263D01*
X306331Y31262D01*
X306831Y31662D01*
X306832Y31666D01*
X306835Y31665D01*
X307335Y32165D01*
X307337Y32181D01*
X307347Y32184D01*
X307447Y32484D01*
X307443Y32495D01*
X307449Y32500D01*
X307449Y34500D01*
X307413Y34547D01*
X307410Y34545D01*
X307408Y34549D01*
X306808Y34649D01*
X306803Y34646D01*
X306800Y34649D01*
X302839Y34649D01*
X302327Y36851D01*
X308597Y36851D01*
X309273Y36754D01*
X309553Y36381D01*
X309651Y35697D01*
X309651Y32904D01*
X309552Y32311D01*
X309544Y32284D01*
X309530Y32235D01*
X309488Y32087D01*
X309446Y31940D01*
X309432Y31890D01*
X309390Y31743D01*
X309354Y31618D01*
X309058Y31027D01*
X308662Y30531D01*
X308265Y30035D01*
X307671Y29540D01*
X307177Y29243D01*
X306582Y28946D01*
X305889Y28748D01*
X305296Y28649D01*
X304603Y28649D01*
G37*
%LPD*%
%LPC*%
G36*
X284749Y50502D02*
X284749Y50502D01*
X284718Y50540D01*
X284716Y50547D01*
X284133Y50741D01*
X283849Y51214D01*
X283849Y55300D01*
X283836Y55318D01*
X283839Y55330D01*
X283539Y55730D01*
X283508Y55739D01*
X283500Y55749D01*
X282800Y55749D01*
X282774Y55730D01*
X282761Y55730D01*
X282461Y55330D01*
X282461Y55321D01*
X282455Y55316D01*
X282461Y55308D01*
X282451Y55300D01*
X282451Y53203D01*
X282353Y52520D01*
X282071Y52144D01*
X281301Y51951D01*
X280626Y52144D01*
X280249Y52520D01*
X280249Y55200D01*
X280241Y55211D01*
X280246Y55218D01*
X280046Y55718D01*
X280005Y55743D01*
X280000Y55749D01*
X279300Y55749D01*
X279296Y55746D01*
X279295Y55746D01*
X279284Y55738D01*
X279275Y55742D01*
X278775Y55442D01*
X278767Y55424D01*
X278755Y55415D01*
X278760Y55407D01*
X278751Y55400D01*
X278751Y51305D01*
X278656Y50833D01*
X278091Y50551D01*
X277212Y50648D01*
X276744Y50835D01*
X276649Y51405D01*
X276549Y56894D01*
X276569Y56964D01*
X276570Y56964D01*
X276569Y56964D01*
X276612Y57112D01*
X276626Y57161D01*
X276668Y57309D01*
X276710Y57456D01*
X276724Y57506D01*
X276743Y57571D01*
X277119Y57853D01*
X277903Y57951D01*
X284597Y57951D01*
X285388Y57852D01*
X285861Y57663D01*
X286051Y57092D01*
X286051Y51604D01*
X285954Y51024D01*
X285577Y50647D01*
X284794Y50549D01*
X284751Y50507D01*
X284755Y50503D01*
X284751Y50500D01*
X284751Y50471D01*
X284749Y50502D01*
G37*
%LPD*%
%LPC*%
G36*
X283719Y41545D02*
X283719Y41545D01*
X282620Y42045D01*
X282593Y42039D01*
X282582Y42046D01*
X282082Y41846D01*
X282080Y41843D01*
X282078Y41844D01*
X281478Y41544D01*
X280885Y41248D01*
X280197Y41149D01*
X279508Y41149D01*
X278916Y41347D01*
X278322Y41545D01*
X277734Y41937D01*
X277341Y42428D01*
X276944Y43123D01*
X276647Y43715D01*
X276549Y44304D01*
X276549Y47786D01*
X276834Y48260D01*
X277309Y48451D01*
X278376Y48451D01*
X278751Y46096D01*
X278751Y44800D01*
X278754Y44795D01*
X278751Y44792D01*
X278851Y44192D01*
X278862Y44182D01*
X278859Y44173D01*
X279259Y43573D01*
X279280Y43565D01*
X279284Y43553D01*
X279884Y43353D01*
X279904Y43360D01*
X279914Y43353D01*
X280614Y43553D01*
X280626Y43570D01*
X280638Y43569D01*
X281038Y44069D01*
X281039Y44087D01*
X281049Y44092D01*
X281149Y44692D01*
X281146Y44697D01*
X281149Y44700D01*
X281149Y46100D01*
X281117Y46143D01*
X281116Y46147D01*
X280816Y46247D01*
X280805Y46243D01*
X280800Y46249D01*
X278842Y46249D01*
X278484Y48451D01*
X284797Y48451D01*
X285481Y48353D01*
X285854Y48073D01*
X285950Y47300D01*
X285854Y46626D01*
X285383Y46249D01*
X283400Y46249D01*
X283353Y46213D01*
X283357Y46208D01*
X283353Y46205D01*
X283354Y46203D01*
X283351Y46200D01*
X283351Y44200D01*
X283378Y44164D01*
X283380Y44155D01*
X284279Y43756D01*
X285478Y43156D01*
X285483Y43157D01*
X285484Y43153D01*
X285765Y43060D01*
X286047Y42495D01*
X286024Y42413D01*
X286010Y42363D01*
X285968Y42216D01*
X285925Y42068D01*
X285911Y42019D01*
X285869Y41871D01*
X285855Y41821D01*
X285468Y41240D01*
X285000Y41053D01*
X283719Y41545D01*
G37*
%LPD*%
%LPC*%
G36*
X274225Y19549D02*
X274225Y19549D01*
X273949Y19916D01*
X273949Y58257D01*
X275251Y57922D01*
X275251Y19825D01*
X274884Y19549D01*
X274225Y19549D01*
G37*
%LPD*%
%LPC*%
G36*
X520103Y94549D02*
X520103Y94549D01*
X519420Y94647D01*
X519043Y94930D01*
X518849Y95607D01*
X518849Y97792D01*
X519039Y98361D01*
X519608Y98551D01*
X520280Y98551D01*
X520652Y98178D01*
X520751Y96797D01*
X520790Y96752D01*
X520796Y96757D01*
X520800Y96751D01*
X522100Y96751D01*
X522133Y96776D01*
X522144Y96778D01*
X522444Y97378D01*
X522441Y97394D01*
X522449Y97400D01*
X522449Y98100D01*
X522446Y98105D01*
X522449Y98108D01*
X522349Y98708D01*
X522344Y98712D01*
X522347Y98716D01*
X522147Y99316D01*
X522136Y99323D01*
X522138Y99332D01*
X521638Y99932D01*
X521631Y99933D01*
X521631Y99938D01*
X521131Y100338D01*
X521118Y100339D01*
X521116Y100347D01*
X520516Y100547D01*
X520509Y100545D01*
X520507Y100549D01*
X519807Y100649D01*
X519798Y100644D01*
X519793Y100649D01*
X519093Y100549D01*
X519089Y100545D01*
X519086Y100547D01*
X518386Y100347D01*
X518378Y100336D01*
X518369Y100338D01*
X517869Y99938D01*
X517867Y99928D01*
X517859Y99927D01*
X517459Y99327D01*
X517460Y99318D01*
X517453Y99316D01*
X517253Y98716D01*
X517255Y98710D01*
X517252Y98708D01*
X517251Y98707D01*
X517151Y98007D01*
X517156Y97998D01*
X517151Y97993D01*
X517251Y97293D01*
X517259Y97285D01*
X517256Y97278D01*
X517848Y96093D01*
X517755Y95624D01*
X517173Y95043D01*
X516600Y94852D01*
X516032Y95041D01*
X515643Y95625D01*
X515346Y96219D01*
X515148Y96811D01*
X515049Y97507D01*
X515048Y97508D01*
X515049Y97508D01*
X514950Y98101D01*
X515049Y98793D01*
X515148Y99485D01*
X515444Y100078D01*
X515742Y100673D01*
X516137Y101167D01*
X516633Y101663D01*
X517129Y102060D01*
X517722Y102455D01*
X518311Y102652D01*
X519703Y102851D01*
X520392Y102851D01*
X520984Y102653D01*
X520986Y102654D01*
X520986Y102653D01*
X521682Y102454D01*
X522277Y102157D01*
X522770Y101861D01*
X523762Y100869D01*
X524157Y100275D01*
X524453Y99685D01*
X524551Y99092D01*
X524651Y98397D01*
X524651Y97703D01*
X524551Y96907D01*
X524453Y96315D01*
X524157Y95723D01*
X523861Y95231D01*
X523373Y94743D01*
X522792Y94549D01*
X520103Y94549D01*
G37*
%LPD*%
%LPC*%
G36*
X305103Y49549D02*
X305103Y49549D01*
X304420Y49647D01*
X304043Y49930D01*
X303849Y50607D01*
X303849Y52792D01*
X304039Y53361D01*
X304608Y53551D01*
X305280Y53551D01*
X305652Y53178D01*
X305751Y51797D01*
X305790Y51752D01*
X305796Y51757D01*
X305800Y51751D01*
X307100Y51751D01*
X307133Y51776D01*
X307144Y51778D01*
X307444Y52378D01*
X307441Y52394D01*
X307449Y52400D01*
X307449Y53100D01*
X307446Y53105D01*
X307449Y53108D01*
X307349Y53708D01*
X307344Y53712D01*
X307347Y53716D01*
X307147Y54316D01*
X307136Y54323D01*
X307138Y54332D01*
X306638Y54932D01*
X306631Y54933D01*
X306631Y54938D01*
X306131Y55338D01*
X306118Y55339D01*
X306116Y55347D01*
X305516Y55547D01*
X305509Y55545D01*
X305507Y55549D01*
X304807Y55649D01*
X304798Y55644D01*
X304793Y55649D01*
X304093Y55549D01*
X304089Y55545D01*
X304086Y55547D01*
X303386Y55347D01*
X303378Y55336D01*
X303369Y55338D01*
X302869Y54938D01*
X302867Y54928D01*
X302859Y54927D01*
X302459Y54327D01*
X302460Y54318D01*
X302453Y54316D01*
X302253Y53716D01*
X302255Y53710D01*
X302252Y53708D01*
X302251Y53707D01*
X302151Y53007D01*
X302156Y52998D01*
X302151Y52993D01*
X302251Y52293D01*
X302259Y52285D01*
X302256Y52278D01*
X302848Y51093D01*
X302755Y50624D01*
X302173Y50043D01*
X301600Y49852D01*
X301032Y50041D01*
X300643Y50625D01*
X300346Y51219D01*
X300148Y51811D01*
X300049Y52507D01*
X300048Y52508D01*
X300049Y52508D01*
X299950Y53101D01*
X300049Y53793D01*
X300148Y54485D01*
X300444Y55078D01*
X300742Y55673D01*
X301137Y56167D01*
X301633Y56663D01*
X302129Y57060D01*
X302722Y57455D01*
X303311Y57652D01*
X304703Y57851D01*
X305392Y57851D01*
X305984Y57653D01*
X305986Y57654D01*
X305986Y57653D01*
X306682Y57454D01*
X307277Y57157D01*
X307770Y56861D01*
X308762Y55869D01*
X309157Y55275D01*
X309453Y54685D01*
X309551Y54092D01*
X309651Y53397D01*
X309651Y52703D01*
X309551Y51907D01*
X309453Y51315D01*
X309157Y50723D01*
X308861Y50231D01*
X308373Y49743D01*
X307792Y49549D01*
X305103Y49549D01*
G37*
%LPD*%
%LPC*%
G36*
X547918Y63647D02*
X547918Y63647D01*
X547331Y64038D01*
X546835Y64535D01*
X546808Y64539D01*
X546800Y64549D01*
X546400Y64549D01*
X546375Y64530D01*
X546362Y64531D01*
X545971Y64042D01*
X545389Y63848D01*
X544703Y63750D01*
X544015Y63947D01*
X543427Y64143D01*
X542935Y64635D01*
X541949Y65620D01*
X541949Y67397D01*
X542048Y68085D01*
X542344Y68678D01*
X542642Y69273D01*
X543033Y69762D01*
X543720Y70155D01*
X544298Y70348D01*
X544770Y70159D01*
X545254Y69579D01*
X545349Y69004D01*
X545159Y68432D01*
X544573Y68041D01*
X544569Y68031D01*
X544562Y68031D01*
X544162Y67531D01*
X544161Y67508D01*
X544151Y67500D01*
X544151Y66800D01*
X544160Y66787D01*
X544156Y66778D01*
X544456Y66178D01*
X544486Y66163D01*
X544492Y66151D01*
X545092Y66051D01*
X545128Y66070D01*
X545139Y66070D01*
X545439Y66470D01*
X545439Y66489D01*
X545449Y66495D01*
X545549Y67392D01*
X545644Y67867D01*
X546212Y68151D01*
X547084Y68151D01*
X547458Y67870D01*
X547652Y67289D01*
X547751Y66494D01*
X547764Y66480D01*
X547762Y66469D01*
X548162Y65969D01*
X548181Y65964D01*
X548184Y65953D01*
X548784Y65753D01*
X548818Y65765D01*
X548831Y65762D01*
X549331Y66162D01*
X549336Y66181D01*
X549347Y66184D01*
X549547Y66784D01*
X549543Y66795D01*
X549549Y66800D01*
X549549Y67600D01*
X549540Y67613D01*
X549544Y67622D01*
X549244Y68222D01*
X549223Y68233D01*
X549219Y68245D01*
X548528Y68542D01*
X548146Y68923D01*
X548050Y69597D01*
X548244Y70371D01*
X548616Y70651D01*
X549193Y70651D01*
X549879Y70455D01*
X550469Y70062D01*
X550863Y69667D01*
X551256Y69176D01*
X551453Y68585D01*
X551651Y67893D01*
X551651Y66408D01*
X551453Y65816D01*
X551255Y65222D01*
X550862Y64631D01*
X550370Y64139D01*
X549879Y63845D01*
X549289Y63648D01*
X548600Y63550D01*
X547918Y63647D01*
G37*
%LPD*%
%LPC*%
G36*
X548308Y84649D02*
X548308Y84649D01*
X547724Y84844D01*
X547233Y85237D01*
X546735Y85735D01*
X546676Y85743D01*
X546675Y85737D01*
X546670Y85739D01*
X545776Y85044D01*
X545192Y84849D01*
X544508Y84849D01*
X543916Y85047D01*
X543908Y85044D01*
X543899Y85044D01*
X543892Y85039D01*
X543859Y85028D01*
X543863Y85017D01*
X543859Y85014D01*
X543852Y85010D01*
X543848Y84993D01*
X543826Y85035D01*
X543825Y85042D01*
X543329Y85340D01*
X542733Y85837D01*
X541949Y86620D01*
X541949Y88692D01*
X542146Y89282D01*
X542444Y89978D01*
X542738Y90467D01*
X543327Y90958D01*
X543916Y91253D01*
X544393Y91348D01*
X544965Y91063D01*
X545351Y90387D01*
X545351Y89820D01*
X544969Y89438D01*
X544373Y89041D01*
X544365Y89018D01*
X544353Y89014D01*
X544348Y88997D01*
X544306Y88850D01*
X544292Y88800D01*
X544250Y88653D01*
X544207Y88505D01*
X544193Y88456D01*
X544153Y88314D01*
X544154Y88309D01*
X544153Y88308D01*
X544156Y88304D01*
X544151Y88300D01*
X544151Y87600D01*
X544167Y87579D01*
X544165Y87565D01*
X544665Y87065D01*
X544700Y87060D01*
X544710Y87052D01*
X545210Y87152D01*
X545235Y87181D01*
X545247Y87184D01*
X545447Y87784D01*
X545446Y87787D01*
X545448Y87789D01*
X545445Y87792D01*
X545449Y87794D01*
X545548Y88588D01*
X545736Y89058D01*
X546503Y89250D01*
X547270Y89154D01*
X547554Y88681D01*
X547852Y87389D01*
X547864Y87379D01*
X547862Y87369D01*
X548262Y86869D01*
X548298Y86860D01*
X548307Y86851D01*
X549007Y86951D01*
X549025Y86970D01*
X549038Y86969D01*
X549438Y87469D01*
X549439Y87486D01*
X549446Y87492D01*
X549449Y87493D01*
X549549Y88193D01*
X549544Y88202D01*
X549549Y88207D01*
X549449Y88907D01*
X549436Y88920D01*
X549438Y88931D01*
X549038Y89431D01*
X549022Y89435D01*
X549019Y89445D01*
X548336Y89738D01*
X548148Y90114D01*
X548051Y90991D01*
X548336Y91561D01*
X548805Y91749D01*
X549389Y91652D01*
X550077Y91455D01*
X550565Y91065D01*
X550960Y90571D01*
X551355Y89978D01*
X551552Y89389D01*
X551651Y88697D01*
X551651Y88003D01*
X551453Y86617D01*
X551158Y86126D01*
X550763Y85534D01*
X550273Y85142D01*
X549682Y84846D01*
X548993Y84649D01*
X548308Y84649D01*
G37*
%LPD*%
G36*
X459705Y45254D02*
X459705Y45254D01*
X459708Y45251D01*
X460308Y45351D01*
X460311Y45355D01*
X460314Y45353D01*
X461014Y45553D01*
X461020Y45562D01*
X461027Y45559D01*
X461627Y45959D01*
X461628Y45962D01*
X461631Y45962D01*
X462131Y46362D01*
X462133Y46372D01*
X462141Y46373D01*
X462541Y46973D01*
X462541Y46977D01*
X462544Y46978D01*
X462844Y47578D01*
X462843Y47585D01*
X462847Y47586D01*
X462866Y47651D01*
X462880Y47700D01*
X462922Y47848D01*
X462964Y47995D01*
X462978Y48045D01*
X463020Y48192D01*
X463021Y48192D01*
X463020Y48192D01*
X463047Y48286D01*
X463046Y48290D01*
X463047Y48291D01*
X463044Y48296D01*
X463049Y48300D01*
X463049Y50400D01*
X463032Y50423D01*
X463033Y50437D01*
X462033Y51337D01*
X462031Y51337D01*
X462032Y51338D01*
X461432Y51838D01*
X461423Y51838D01*
X461422Y51844D01*
X460822Y52144D01*
X460817Y52143D01*
X460816Y52147D01*
X460216Y52347D01*
X460209Y52345D01*
X460207Y52349D01*
X459507Y52449D01*
X459498Y52444D01*
X459493Y52449D01*
X458793Y52349D01*
X458792Y52348D01*
X458792Y52349D01*
X458192Y52249D01*
X458185Y52241D01*
X458178Y52244D01*
X457578Y51944D01*
X457576Y51940D01*
X457573Y51941D01*
X456973Y51541D01*
X456969Y51531D01*
X456962Y51531D01*
X456562Y51031D01*
X456561Y51027D01*
X456559Y51027D01*
X456159Y50427D01*
X456160Y50418D01*
X456153Y50416D01*
X455953Y49816D01*
X455955Y49809D01*
X455951Y49807D01*
X455851Y49107D01*
X455854Y49102D01*
X455851Y49100D01*
X455851Y48400D01*
X455854Y48396D01*
X455851Y48393D01*
X455951Y47693D01*
X455959Y47685D01*
X455956Y47678D01*
X456256Y47078D01*
X456260Y47076D01*
X456259Y47073D01*
X456659Y46473D01*
X456669Y46469D01*
X456669Y46462D01*
X457669Y45662D01*
X457679Y45661D01*
X457681Y45655D01*
X458381Y45355D01*
X458389Y45357D01*
X458392Y45351D01*
X458992Y45251D01*
X458997Y45254D01*
X459000Y45251D01*
X459700Y45251D01*
X459705Y45254D01*
G37*
%LPC*%
G36*
X574008Y66849D02*
X574008Y66849D01*
X573422Y67045D01*
X572834Y67437D01*
X572442Y67927D01*
X572146Y68519D01*
X571948Y69113D01*
X571648Y70510D01*
X571639Y70518D01*
X571642Y70525D01*
X571342Y71025D01*
X571324Y71033D01*
X571322Y71044D01*
X570722Y71344D01*
X570679Y71336D01*
X570669Y71338D01*
X570169Y70938D01*
X570165Y70924D01*
X570164Y70923D01*
X570165Y70922D01*
X570164Y70919D01*
X570153Y70916D01*
X569953Y70316D01*
X569960Y70296D01*
X569953Y70286D01*
X570153Y69586D01*
X570162Y69580D01*
X570159Y69573D01*
X570556Y68977D01*
X570745Y68506D01*
X570365Y67936D01*
X569781Y67546D01*
X569313Y67453D01*
X568736Y67934D01*
X568443Y68325D01*
X568148Y69014D01*
X568049Y69707D01*
X567950Y70400D01*
X568048Y71090D01*
X568049Y71093D01*
X568091Y71241D01*
X568092Y71241D01*
X568091Y71241D01*
X568134Y71389D01*
X568148Y71438D01*
X568190Y71586D01*
X568232Y71733D01*
X568246Y71783D01*
X568247Y71784D01*
X568442Y72272D01*
X568933Y72763D01*
X569427Y73158D01*
X570015Y73452D01*
X570700Y73550D01*
X571389Y73452D01*
X571981Y73254D01*
X572568Y72961D01*
X572958Y72473D01*
X573255Y71879D01*
X573554Y71183D01*
X573752Y70489D01*
X573851Y69892D01*
X573859Y69885D01*
X573856Y69878D01*
X574156Y69278D01*
X574180Y69266D01*
X574184Y69253D01*
X574784Y69053D01*
X574813Y69063D01*
X574825Y69058D01*
X575325Y69358D01*
X575333Y69376D01*
X575344Y69378D01*
X575644Y69978D01*
X575640Y69998D01*
X575649Y70007D01*
X575549Y70707D01*
X575538Y70718D01*
X575541Y70727D01*
X575141Y71327D01*
X575137Y71329D01*
X575138Y71332D01*
X574643Y71926D01*
X574451Y72406D01*
X574546Y73074D01*
X575122Y73554D01*
X575595Y73649D01*
X576272Y73358D01*
X576563Y73067D01*
X577059Y72473D01*
X577354Y71881D01*
X577552Y71289D01*
X577651Y70597D01*
X577651Y69904D01*
X577552Y69311D01*
X577534Y69248D01*
X577492Y69101D01*
X577478Y69051D01*
X577436Y68904D01*
X577393Y68756D01*
X577379Y68707D01*
X577354Y68618D01*
X577059Y68029D01*
X576567Y67537D01*
X576076Y67144D01*
X575489Y66948D01*
X574797Y66849D01*
X574008Y66849D01*
G37*
%LPD*%
%LPC*%
G36*
X282903Y32349D02*
X282903Y32349D01*
X282112Y32448D01*
X281623Y32644D01*
X281038Y33034D01*
X280744Y33622D01*
X280446Y34218D01*
X280248Y34911D01*
X280149Y35508D01*
X280145Y35511D01*
X280147Y35514D01*
X279947Y36214D01*
X279936Y36222D01*
X279938Y36231D01*
X279538Y36731D01*
X279508Y36738D01*
X279500Y36749D01*
X278800Y36749D01*
X278775Y36730D01*
X278762Y36731D01*
X278362Y36231D01*
X278361Y36214D01*
X278353Y36207D01*
X278355Y36203D01*
X278351Y36200D01*
X278351Y35500D01*
X278360Y35487D01*
X278356Y35478D01*
X278656Y34878D01*
X278660Y34876D01*
X278659Y34873D01*
X279048Y34289D01*
X278954Y33724D01*
X278471Y33241D01*
X277893Y32952D01*
X277427Y33045D01*
X276940Y33629D01*
X276646Y34120D01*
X276448Y34811D01*
X276349Y35404D01*
X276349Y36197D01*
X276448Y36889D01*
X276644Y37476D01*
X277037Y37967D01*
X277533Y38463D01*
X278020Y38853D01*
X278707Y38951D01*
X279395Y39050D01*
X279984Y38853D01*
X280576Y38656D01*
X281162Y38167D01*
X281457Y37677D01*
X281754Y37082D01*
X281953Y36386D01*
X281954Y36385D01*
X281953Y36384D01*
X282153Y35785D01*
X282353Y35086D01*
X282364Y35078D01*
X282362Y35069D01*
X282762Y34569D01*
X282799Y34560D01*
X282808Y34551D01*
X283408Y34651D01*
X283423Y34667D01*
X283435Y34665D01*
X283835Y35065D01*
X283838Y35088D01*
X283849Y35094D01*
X283949Y35894D01*
X283941Y35907D01*
X283947Y35916D01*
X283747Y36516D01*
X283736Y36523D01*
X283738Y36532D01*
X283239Y37130D01*
X282846Y37719D01*
X282753Y38187D01*
X283235Y38765D01*
X283714Y39148D01*
X284280Y39053D01*
X284668Y38763D01*
X285063Y38367D01*
X285559Y37773D01*
X285852Y37185D01*
X285951Y36493D01*
X286051Y35797D01*
X286051Y35207D01*
X286041Y35173D01*
X285999Y35025D01*
X285985Y34976D01*
X285943Y34828D01*
X285900Y34680D01*
X285886Y34631D01*
X285854Y34518D01*
X285556Y33922D01*
X285261Y33332D01*
X284771Y32940D01*
X284178Y32545D01*
X283592Y32349D01*
X282903Y32349D01*
G37*
%LPD*%
%LPC*%
G36*
X472760Y277234D02*
X472760Y277234D01*
X472067Y277408D01*
X471563Y277828D01*
X471219Y278257D01*
X470943Y278902D01*
X470662Y279652D01*
X470570Y280384D01*
X470570Y282036D01*
X470662Y282768D01*
X470943Y283518D01*
X471218Y284159D01*
X471647Y284674D01*
X472172Y285024D01*
X472788Y285288D01*
X473587Y285377D01*
X474298Y285288D01*
X475000Y285025D01*
X475422Y284687D01*
X475862Y284159D01*
X476137Y283518D01*
X476418Y282768D01*
X476510Y282036D01*
X476510Y280407D01*
X476128Y278882D01*
X475869Y278277D01*
X475433Y277841D01*
X474908Y277404D01*
X474316Y277234D01*
X473493Y277143D01*
X472760Y277234D01*
G37*
%LPD*%
%LPC*%
G36*
X213403Y68349D02*
X213403Y68349D01*
X212713Y68448D01*
X212022Y68744D01*
X211528Y69040D01*
X211042Y69429D01*
X210853Y69998D01*
X211142Y70672D01*
X211624Y71155D01*
X212092Y71248D01*
X212776Y70857D01*
X212778Y70858D01*
X212778Y70856D01*
X213178Y70656D01*
X213189Y70658D01*
X213193Y70651D01*
X213893Y70551D01*
X213898Y70554D01*
X213900Y70551D01*
X214500Y70551D01*
X214508Y70557D01*
X214514Y70553D01*
X215214Y70753D01*
X215220Y70762D01*
X215227Y70759D01*
X215827Y71159D01*
X215831Y71169D01*
X215838Y71169D01*
X216238Y71669D01*
X216239Y71677D01*
X216244Y71678D01*
X216544Y72278D01*
X216542Y72289D01*
X216544Y72291D01*
X216549Y72293D01*
X216649Y72993D01*
X216646Y72998D01*
X216649Y73000D01*
X216649Y73700D01*
X216642Y73709D01*
X216647Y73716D01*
X216447Y74316D01*
X216439Y74321D01*
X216441Y74327D01*
X216041Y74927D01*
X216031Y74931D01*
X216031Y74938D01*
X215531Y75338D01*
X215521Y75339D01*
X215519Y75345D01*
X214819Y75645D01*
X214811Y75643D01*
X214808Y75649D01*
X214208Y75749D01*
X214203Y75746D01*
X214200Y75749D01*
X213500Y75749D01*
X213491Y75742D01*
X213484Y75747D01*
X212884Y75547D01*
X212880Y75541D01*
X212876Y75543D01*
X212182Y75146D01*
X211812Y75054D01*
X211335Y75435D01*
X210849Y76018D01*
X210849Y76680D01*
X211231Y77062D01*
X211825Y77457D01*
X212415Y77752D01*
X213107Y77851D01*
X213803Y77951D01*
X214397Y77951D01*
X215089Y77852D01*
X215682Y77654D01*
X216379Y77355D01*
X216971Y77059D01*
X217463Y76567D01*
X218258Y75573D01*
X218554Y74982D01*
X218752Y74289D01*
X218851Y73696D01*
X218851Y73000D01*
X218887Y72953D01*
X218894Y72958D01*
X218900Y72951D01*
X218930Y72951D01*
X218898Y72949D01*
X218853Y72912D01*
X218852Y72911D01*
X218854Y72909D01*
X218851Y72908D01*
X218751Y72308D01*
X218752Y72307D01*
X218751Y72307D01*
X218652Y71615D01*
X218356Y71022D01*
X218058Y70427D01*
X217663Y69933D01*
X217169Y69438D01*
X216575Y69043D01*
X215981Y68746D01*
X215385Y68547D01*
X214693Y68349D01*
X213403Y68349D01*
G37*
%LPD*%
%LPC*%
G36*
X542924Y73049D02*
X542924Y73049D01*
X542539Y73530D01*
X542247Y73920D01*
X542152Y74489D01*
X542531Y75058D01*
X543214Y75253D01*
X543217Y75257D01*
X543221Y75255D01*
X548121Y77555D01*
X548121Y77556D01*
X548122Y77556D01*
X548522Y77756D01*
X548526Y77763D01*
X548534Y77764D01*
X548532Y77777D01*
X548539Y77790D01*
X548540Y77791D01*
X548540Y77792D01*
X548548Y77809D01*
X548528Y77819D01*
X548525Y77842D01*
X548025Y78142D01*
X548021Y78142D01*
X548020Y78145D01*
X543420Y80245D01*
X543417Y80244D01*
X543416Y80247D01*
X542824Y80444D01*
X542341Y80830D01*
X542153Y81299D01*
X542442Y81974D01*
X542927Y82555D01*
X543395Y82649D01*
X544079Y82355D01*
X550675Y79057D01*
X551266Y78663D01*
X551651Y78183D01*
X551651Y77512D01*
X551363Y76937D01*
X550778Y76644D01*
X550777Y76644D01*
X544182Y73246D01*
X543493Y73049D01*
X542924Y73049D01*
G37*
%LPD*%
%LPC*%
G36*
X276739Y21540D02*
X276739Y21540D01*
X276549Y22108D01*
X276549Y28897D01*
X276648Y29784D01*
X276930Y30255D01*
X277595Y30350D01*
X278161Y30161D01*
X278351Y29592D01*
X278351Y27600D01*
X278354Y27596D01*
X278351Y27593D01*
X278451Y26893D01*
X278494Y26851D01*
X278497Y26855D01*
X278500Y26851D01*
X285292Y26851D01*
X285863Y26661D01*
X286051Y26191D01*
X286051Y25414D01*
X285768Y24942D01*
X285093Y24749D01*
X279000Y24749D01*
X278995Y24746D01*
X278992Y24749D01*
X278392Y24649D01*
X278351Y24605D01*
X278354Y24603D01*
X278351Y24600D01*
X278351Y21816D01*
X278073Y21446D01*
X277403Y21350D01*
X276739Y21540D01*
G37*
%LPD*%
G36*
X484204Y45254D02*
X484204Y45254D01*
X484207Y45251D01*
X484907Y45351D01*
X484926Y45370D01*
X484939Y45370D01*
X485239Y45770D01*
X485239Y45777D01*
X485242Y45779D01*
X485239Y45782D01*
X485239Y45788D01*
X485249Y45793D01*
X485349Y46493D01*
X485346Y46498D01*
X485349Y46500D01*
X485349Y54000D01*
X485341Y54011D01*
X485346Y54018D01*
X485146Y54518D01*
X485127Y54530D01*
X485125Y54542D01*
X484625Y54842D01*
X484607Y54840D01*
X484600Y54849D01*
X483700Y54849D01*
X483687Y54840D01*
X483678Y54844D01*
X483078Y54544D01*
X483063Y54514D01*
X483051Y54508D01*
X482951Y53908D01*
X482954Y53903D01*
X482951Y53900D01*
X482951Y47249D01*
X479600Y47249D01*
X479596Y47246D01*
X479593Y47249D01*
X478893Y47149D01*
X478875Y47130D01*
X478862Y47131D01*
X478462Y46631D01*
X478461Y46608D01*
X478451Y46600D01*
X478451Y45900D01*
X478462Y45885D01*
X478458Y45875D01*
X478758Y45375D01*
X478786Y45363D01*
X478793Y45351D01*
X479493Y45251D01*
X479498Y45254D01*
X479500Y45251D01*
X484200Y45251D01*
X484204Y45254D01*
G37*
%LPC*%
G36*
X221808Y72349D02*
X221808Y72349D01*
X221237Y72540D01*
X221048Y73012D01*
X220952Y73782D01*
X221323Y74154D01*
X222003Y74251D01*
X222700Y74251D01*
X222747Y74287D01*
X222742Y74294D01*
X222749Y74300D01*
X222749Y74400D01*
X222727Y74430D01*
X222725Y74442D01*
X222231Y74739D01*
X221738Y75231D01*
X221347Y75818D01*
X221249Y76503D01*
X221249Y77192D01*
X221446Y77781D01*
X221739Y78368D01*
X222227Y78758D01*
X222818Y79054D01*
X223507Y79251D01*
X224192Y79251D01*
X224778Y79055D01*
X225366Y78663D01*
X225758Y78173D01*
X226054Y77581D01*
X226250Y76995D01*
X226153Y76317D01*
X225872Y75849D01*
X225114Y75849D01*
X224641Y76133D01*
X224447Y76716D01*
X224442Y76719D01*
X224444Y76722D01*
X224144Y77322D01*
X224114Y77337D01*
X224108Y77349D01*
X223508Y77449D01*
X223478Y77433D01*
X223465Y77435D01*
X222965Y76935D01*
X222961Y76902D01*
X222959Y76901D01*
X222960Y76899D01*
X222958Y76882D01*
X222956Y76878D01*
X223256Y76278D01*
X223263Y76275D01*
X223262Y76269D01*
X223662Y75769D01*
X223672Y75767D01*
X223673Y75759D01*
X224273Y75359D01*
X224277Y75359D01*
X224278Y75356D01*
X224875Y75057D01*
X225471Y74660D01*
X225961Y74268D01*
X226249Y73692D01*
X226153Y73020D01*
X225771Y72542D01*
X225192Y72349D01*
X221808Y72349D01*
G37*
%LPD*%
%LPC*%
G36*
X572756Y87921D02*
X572756Y87921D01*
X572848Y88288D01*
X572844Y88296D01*
X572849Y88300D01*
X572849Y89700D01*
X572833Y89721D01*
X572835Y89735D01*
X572535Y90035D01*
X572508Y90039D01*
X572500Y90049D01*
X570515Y90049D01*
X568305Y91540D01*
X568347Y91877D01*
X568720Y92251D01*
X576796Y92251D01*
X577372Y92155D01*
X577651Y91784D01*
X577651Y90908D01*
X577461Y90337D01*
X576989Y90149D01*
X575597Y90049D01*
X575593Y90046D01*
X575590Y90048D01*
X575090Y89948D01*
X575051Y89904D01*
X575053Y89902D01*
X575051Y89900D01*
X575051Y87907D01*
X575039Y87865D01*
X574997Y87717D01*
X574954Y87569D01*
X574940Y87520D01*
X574898Y87372D01*
X574856Y87225D01*
X574854Y87218D01*
X574581Y86673D01*
X572756Y87921D01*
G37*
%LPD*%
%LPC*%
G36*
X570949Y75595D02*
X570949Y75595D01*
X570918Y75646D01*
X570915Y75644D01*
X570914Y75647D01*
X570221Y75845D01*
X569634Y76237D01*
X569238Y76731D01*
X569234Y76732D01*
X569235Y76735D01*
X568741Y77229D01*
X568446Y77818D01*
X568249Y78507D01*
X568249Y81797D01*
X568346Y82570D01*
X568814Y82851D01*
X571002Y82851D01*
X570952Y80641D01*
X570490Y80548D01*
X570451Y80504D01*
X570453Y80502D01*
X570451Y80500D01*
X570451Y79100D01*
X570454Y79095D01*
X570451Y79092D01*
X570551Y78492D01*
X570567Y78477D01*
X570565Y78465D01*
X571065Y77965D01*
X571081Y77963D01*
X571084Y77953D01*
X571684Y77753D01*
X571690Y77755D01*
X571711Y77755D01*
X571714Y77758D01*
X571719Y77755D01*
X572419Y78055D01*
X572428Y78070D01*
X572438Y78069D01*
X572815Y78539D01*
X574733Y77676D01*
X574457Y77125D01*
X574063Y76534D01*
X573573Y76142D01*
X572982Y75846D01*
X572290Y75648D01*
X571597Y75549D01*
X571000Y75549D01*
X570953Y75513D01*
X570955Y75510D01*
X570951Y75508D01*
X570921Y75316D01*
X570949Y75595D01*
G37*
%LPD*%
%LPC*%
G36*
X228814Y68349D02*
X228814Y68349D01*
X228341Y68633D01*
X228149Y69208D01*
X228149Y76696D01*
X228246Y77276D01*
X228623Y77653D01*
X229495Y77750D01*
X230084Y77553D01*
X230141Y77572D01*
X230138Y77579D01*
X230146Y77581D01*
X230156Y77608D01*
X230161Y77593D01*
X230154Y77582D01*
X230351Y77091D01*
X230351Y69009D01*
X230163Y68540D01*
X229592Y68349D01*
X228814Y68349D01*
G37*
%LPD*%
%LPC*%
G36*
X120146Y144130D02*
X120146Y144130D01*
X120388Y144167D01*
X120389Y144168D01*
X120389Y144167D01*
X120909Y144258D01*
X120916Y144264D01*
X120929Y144265D01*
X121381Y144518D01*
X121385Y144527D01*
X121399Y144533D01*
X121726Y144935D01*
X121727Y144943D01*
X121733Y144947D01*
X121733Y144949D01*
X121736Y144951D01*
X121931Y145436D01*
X121930Y145443D01*
X121935Y145451D01*
X122012Y145975D01*
X122009Y145981D01*
X122012Y145991D01*
X121950Y146515D01*
X121946Y146520D01*
X121947Y146527D01*
X121785Y147024D01*
X121779Y147028D01*
X121777Y147040D01*
X121483Y147469D01*
X121474Y147473D01*
X121467Y147485D01*
X121036Y147783D01*
X121026Y147783D01*
X121014Y147793D01*
X120496Y147905D01*
X120489Y147902D01*
X120477Y147906D01*
X120146Y147876D01*
X120146Y149395D01*
X120146Y149396D01*
X120141Y149796D01*
X120676Y149795D01*
X121712Y149614D01*
X122207Y149489D01*
X123086Y148926D01*
X123364Y148660D01*
X123364Y148657D01*
X124016Y147701D01*
X124158Y147213D01*
X124339Y146180D01*
X124304Y145670D01*
X124121Y144639D01*
X123894Y144185D01*
X123321Y143315D01*
X122440Y142758D01*
X121981Y142540D01*
X120947Y142362D01*
X120424Y142303D01*
X120422Y142303D01*
X120146Y142262D01*
X120146Y144130D01*
G37*
%LPD*%
%LPC*%
G36*
X572849Y78632D02*
X572849Y78632D01*
X572849Y80400D01*
X572824Y80433D01*
X572822Y80444D01*
X572422Y80644D01*
X572406Y80641D01*
X572400Y80649D01*
X571050Y80649D01*
X571100Y82851D01*
X576896Y82851D01*
X577463Y82756D01*
X577651Y82192D01*
X577651Y81314D01*
X577367Y80841D01*
X576792Y80649D01*
X575500Y80649D01*
X575482Y80636D01*
X575470Y80639D01*
X575070Y80339D01*
X575062Y80308D01*
X575051Y80300D01*
X575051Y79003D01*
X574952Y78311D01*
X574771Y77767D01*
X572849Y78632D01*
G37*
%LPD*%
%LPC*%
G36*
X571107Y85049D02*
X571107Y85049D01*
X570417Y85246D01*
X569728Y85542D01*
X569237Y86033D01*
X568842Y86527D01*
X568546Y87118D01*
X568348Y87811D01*
X568249Y88404D01*
X568249Y91097D01*
X568291Y91430D01*
X570451Y89974D01*
X570451Y88700D01*
X570454Y88696D01*
X570451Y88693D01*
X570551Y87993D01*
X570564Y87980D01*
X570562Y87969D01*
X570962Y87469D01*
X570981Y87464D01*
X570984Y87453D01*
X571584Y87253D01*
X571600Y87258D01*
X571607Y87251D01*
X572307Y87351D01*
X572325Y87370D01*
X572338Y87369D01*
X572710Y87834D01*
X574532Y86587D01*
X574163Y86034D01*
X573671Y85640D01*
X573078Y85245D01*
X572492Y85049D01*
X571107Y85049D01*
G37*
%LPD*%
%LPC*%
G36*
X124989Y142383D02*
X124989Y142383D01*
X124935Y142383D01*
X124935Y149449D01*
X124934Y149450D01*
X124935Y149452D01*
X124928Y149462D01*
X124927Y149733D01*
X127249Y149733D01*
X127245Y149592D01*
X127246Y149591D01*
X127256Y142393D01*
X127105Y142383D01*
X124989Y142383D01*
G37*
%LPD*%
%LPC*%
G36*
X128176Y142383D02*
X128176Y142383D01*
X127878Y142389D01*
X127888Y149682D01*
X127888Y149685D01*
X127883Y149733D01*
X129757Y149733D01*
X130133Y149713D01*
X130135Y149714D01*
X130139Y149713D01*
X130199Y149714D01*
X130199Y142411D01*
X129762Y142383D01*
X128176Y142383D01*
G37*
%LPD*%
G36*
X476021Y45267D02*
X476021Y45267D01*
X476035Y45265D01*
X476435Y45665D01*
X476436Y45677D01*
X476441Y45681D01*
X476438Y45686D01*
X476438Y45687D01*
X476449Y45693D01*
X476549Y46393D01*
X476546Y46398D01*
X476549Y46400D01*
X476549Y50900D01*
X476546Y50904D01*
X476549Y50907D01*
X476449Y51607D01*
X476433Y51622D01*
X476435Y51635D01*
X476035Y52035D01*
X476012Y52038D01*
X476006Y52049D01*
X475206Y52149D01*
X475201Y52146D01*
X475196Y52146D01*
X475193Y52149D01*
X474493Y52049D01*
X474471Y52027D01*
X474458Y52025D01*
X474158Y51525D01*
X474158Y51521D01*
X474156Y51519D01*
X474159Y51515D01*
X474160Y51507D01*
X474151Y51500D01*
X474151Y46000D01*
X474162Y45985D01*
X474158Y45975D01*
X474458Y45475D01*
X474480Y45466D01*
X474484Y45453D01*
X475084Y45253D01*
X475095Y45257D01*
X475100Y45251D01*
X476000Y45251D01*
X476021Y45267D01*
G37*
G36*
X472647Y335727D02*
X472647Y335727D01*
X472642Y335734D01*
X472649Y335740D01*
X472649Y338140D01*
X472633Y338161D01*
X472635Y338175D01*
X472435Y338375D01*
X472408Y338379D01*
X472400Y338389D01*
X467300Y338389D01*
X467267Y338364D01*
X467256Y338362D01*
X467156Y338162D01*
X467159Y338146D01*
X467151Y338140D01*
X467151Y335740D01*
X467187Y335693D01*
X467194Y335698D01*
X467200Y335691D01*
X472600Y335691D01*
X472647Y335727D01*
G37*
%LPC*%
G36*
X458928Y276740D02*
X458928Y276740D01*
X458465Y276833D01*
X458433Y276832D01*
X458390Y276840D01*
X457980Y276840D01*
X457660Y277000D01*
X457627Y277008D01*
X457582Y277029D01*
X457246Y277113D01*
X457032Y277256D01*
X456886Y277402D01*
X456706Y277671D01*
X456684Y277692D01*
X456659Y277729D01*
X456522Y277865D01*
X456351Y278380D01*
X456338Y278400D01*
X456330Y278430D01*
X456242Y278606D01*
X456170Y278822D01*
X456170Y280445D01*
X456420Y280320D01*
X456435Y280316D01*
X456448Y280307D01*
X456582Y280281D01*
X456589Y280280D01*
X456590Y280280D01*
X456700Y280280D01*
X456820Y280220D01*
X456835Y280216D01*
X456848Y280207D01*
X456982Y280181D01*
X456989Y280180D01*
X456990Y280180D01*
X457300Y280180D01*
X457420Y280120D01*
X457435Y280116D01*
X457448Y280107D01*
X457582Y280081D01*
X457589Y280080D01*
X457590Y280080D01*
X457728Y280080D01*
X457970Y279999D01*
X458007Y279996D01*
X458090Y279980D01*
X458428Y279980D01*
X458670Y279899D01*
X458707Y279896D01*
X458790Y279880D01*
X459100Y279880D01*
X459220Y279820D01*
X459235Y279816D01*
X459248Y279807D01*
X459382Y279781D01*
X459389Y279780D01*
X459390Y279780D01*
X459528Y279780D01*
X459744Y279708D01*
X459865Y279648D01*
X459921Y279591D01*
X459953Y279571D01*
X460020Y279520D01*
X460365Y279348D01*
X460421Y279291D01*
X460453Y279271D01*
X460520Y279220D01*
X460607Y279177D01*
X460810Y278770D01*
X460810Y278660D01*
X460813Y278645D01*
X460811Y278630D01*
X460848Y278498D01*
X460849Y278491D01*
X460850Y278491D01*
X460850Y278490D01*
X460910Y278370D01*
X460910Y278022D01*
X460829Y277780D01*
X460826Y277743D01*
X460810Y277660D01*
X460810Y277550D01*
X460778Y277485D01*
X460721Y277429D01*
X460713Y277415D01*
X460710Y277413D01*
X460707Y277405D01*
X460701Y277397D01*
X460650Y277330D01*
X460607Y277243D01*
X460520Y277200D01*
X460491Y277176D01*
X460421Y277129D01*
X460365Y277073D01*
X460100Y276940D01*
X459990Y276940D01*
X459975Y276937D01*
X459960Y276939D01*
X459828Y276902D01*
X459821Y276901D01*
X459821Y276900D01*
X459820Y276900D01*
X459700Y276840D01*
X459590Y276840D01*
X459575Y276837D01*
X459560Y276839D01*
X459428Y276802D01*
X459421Y276801D01*
X459421Y276800D01*
X459420Y276800D01*
X459345Y276763D01*
X459300Y276740D01*
X458928Y276740D01*
G37*
%LPD*%
%LPC*%
G36*
X464708Y262199D02*
X464708Y262199D01*
X463830Y262492D01*
X463249Y263266D01*
X463249Y264336D01*
X463734Y265111D01*
X464613Y265502D01*
X465602Y265601D01*
X466685Y265601D01*
X467251Y265224D01*
X467251Y262199D01*
X464708Y262199D01*
G37*
%LPD*%
G36*
X148546Y144172D02*
X148546Y144172D01*
X148553Y144177D01*
X148565Y144176D01*
X149037Y144373D01*
X149042Y144380D01*
X149055Y144384D01*
X149438Y144729D01*
X149440Y144738D01*
X149451Y144745D01*
X149706Y145202D01*
X149706Y145211D01*
X149713Y145222D01*
X149805Y145735D01*
X149803Y145740D01*
X149806Y145746D01*
X149812Y146263D01*
X149809Y146267D01*
X149811Y146273D01*
X149731Y146791D01*
X149725Y146798D01*
X149724Y146812D01*
X149469Y147269D01*
X149462Y147273D01*
X149458Y147284D01*
X149086Y147639D01*
X149077Y147641D01*
X149069Y147651D01*
X148603Y147862D01*
X148595Y147861D01*
X148585Y147867D01*
X148072Y147930D01*
X148064Y147926D01*
X148052Y147929D01*
X147539Y147823D01*
X147532Y147816D01*
X147515Y147813D01*
X147090Y147514D01*
X147087Y147506D01*
X147075Y147499D01*
X146775Y147081D01*
X146775Y147074D01*
X146767Y147066D01*
X146589Y146582D01*
X146591Y146577D01*
X146586Y146570D01*
X146507Y146053D01*
X146511Y146046D01*
X146507Y146034D01*
X146581Y145517D01*
X146584Y145513D01*
X146583Y145505D01*
X146750Y145018D01*
X146755Y145013D01*
X146757Y145003D01*
X147046Y144575D01*
X147054Y144572D01*
X147060Y144560D01*
X147478Y144245D01*
X147488Y144244D01*
X147503Y144233D01*
X148015Y144126D01*
X148023Y144129D01*
X148034Y144125D01*
X148546Y144172D01*
G37*
G36*
X471809Y348798D02*
X471809Y348798D01*
X471816Y348793D01*
X472116Y348893D01*
X472119Y348898D01*
X472122Y348896D01*
X472322Y348996D01*
X472324Y349000D01*
X472327Y348999D01*
X472627Y349199D01*
X472630Y349206D01*
X472635Y349205D01*
X472835Y349405D01*
X472836Y349416D01*
X472837Y349417D01*
X472844Y349418D01*
X472943Y349615D01*
X473141Y349913D01*
X473140Y349922D01*
X473147Y349924D01*
X473247Y350224D01*
X473243Y350235D01*
X473249Y350240D01*
X473249Y350840D01*
X473242Y350849D01*
X473247Y350856D01*
X473147Y351156D01*
X473133Y351165D01*
X473135Y351175D01*
X472943Y351367D01*
X472847Y351656D01*
X472833Y351665D01*
X472835Y351675D01*
X472635Y351875D01*
X472628Y351876D01*
X472627Y351881D01*
X472327Y352081D01*
X472323Y352081D01*
X472322Y352084D01*
X472122Y352184D01*
X472117Y352183D01*
X472116Y352187D01*
X471816Y352287D01*
X471808Y352284D01*
X471805Y352288D01*
X471801Y352288D01*
X471800Y352289D01*
X471200Y352289D01*
X471198Y352288D01*
X471195Y352288D01*
X471189Y352283D01*
X471184Y352287D01*
X470584Y352087D01*
X470575Y352073D01*
X470565Y352075D01*
X470165Y351675D01*
X470164Y351668D01*
X470159Y351667D01*
X469959Y351367D01*
X469959Y351363D01*
X469956Y351362D01*
X469856Y351162D01*
X469857Y351157D01*
X469853Y351156D01*
X469753Y350856D01*
X469757Y350845D01*
X469751Y350840D01*
X469751Y350240D01*
X469758Y350231D01*
X469753Y350224D01*
X469953Y349624D01*
X469967Y349615D01*
X469965Y349605D01*
X470565Y349005D01*
X470581Y349003D01*
X470584Y348993D01*
X471184Y348793D01*
X471195Y348797D01*
X471200Y348791D01*
X471800Y348791D01*
X471809Y348798D01*
G37*
%LPC*%
G36*
X401020Y258297D02*
X401020Y258297D01*
X400343Y258878D01*
X400052Y259849D01*
X400342Y260722D01*
X401121Y261403D01*
X402090Y261499D01*
X402962Y261015D01*
X403352Y260137D01*
X403449Y259168D01*
X402872Y258591D01*
X401992Y258200D01*
X401020Y258297D01*
G37*
%LPD*%
%LPC*%
G36*
X467916Y50249D02*
X467916Y50249D01*
X467537Y50534D01*
X467249Y51014D01*
X467249Y51685D01*
X467632Y52259D01*
X468208Y52451D01*
X469484Y52451D01*
X469851Y52175D01*
X469851Y50249D01*
X467916Y50249D01*
G37*
%LPD*%
G36*
X476007Y53051D02*
X476007Y53051D01*
X476025Y53070D01*
X476038Y53069D01*
X476438Y53569D01*
X476439Y53577D01*
X476440Y53578D01*
X476439Y53580D01*
X476439Y53588D01*
X476449Y53593D01*
X476549Y54293D01*
X476543Y54303D01*
X476549Y54308D01*
X476449Y54908D01*
X476430Y54926D01*
X476430Y54939D01*
X476030Y55239D01*
X476011Y55239D01*
X476005Y55249D01*
X475105Y55349D01*
X475094Y55342D01*
X475086Y55347D01*
X474386Y55147D01*
X474366Y55120D01*
X474353Y55116D01*
X474153Y54516D01*
X474157Y54505D01*
X474151Y54500D01*
X474151Y53800D01*
X474158Y53791D01*
X474153Y53784D01*
X474353Y53184D01*
X474375Y53169D01*
X474378Y53156D01*
X474578Y53056D01*
X474589Y53058D01*
X474593Y53051D01*
X475293Y52951D01*
X475302Y52956D01*
X475307Y52951D01*
X476007Y53051D01*
G37*
%LPC*%
G36*
X459308Y47649D02*
X459308Y47649D01*
X458729Y47842D01*
X458347Y48320D01*
X458250Y49095D01*
X458441Y49668D01*
X459015Y50051D01*
X459588Y50051D01*
X460168Y49761D01*
X460553Y49280D01*
X460649Y48608D01*
X460361Y48032D01*
X459883Y47649D01*
X459308Y47649D01*
G37*
%LPD*%
%LPC*%
G36*
X375213Y260699D02*
X375213Y260699D01*
X374562Y261072D01*
X374936Y262008D01*
X375798Y262199D01*
X376772Y261907D01*
X377443Y261140D01*
X377267Y260699D01*
X375213Y260699D01*
G37*
%LPD*%
%LPC*%
G36*
X273949Y58358D02*
X273949Y58358D01*
X273949Y58451D01*
X274696Y58451D01*
X275251Y58358D01*
X275251Y58024D01*
X273949Y58358D01*
G37*
%LPD*%
D10*
X417789Y76006D02*
X407790Y76006D01*
X407790Y123006D02*
X417789Y123006D01*
X412789Y118007D02*
X412789Y128006D01*
D11*
X313998Y130160D03*
D12*
X342700Y124294D02*
X342700Y115706D01*
X317300Y115706D02*
X317300Y124294D01*
X327316Y112912D02*
X332684Y112912D01*
X308768Y180537D02*
X211232Y180537D01*
X309768Y219463D02*
X309881Y219444D01*
X309993Y219422D01*
X310104Y219395D01*
X310214Y219365D01*
X310323Y219330D01*
X310431Y219292D01*
X310538Y219251D01*
X310643Y219206D01*
X310746Y219157D01*
X310848Y219105D01*
X310948Y219049D01*
X311046Y218990D01*
X311141Y218928D01*
X311235Y218862D01*
X311326Y218793D01*
X311415Y218722D01*
X311502Y218647D01*
X311586Y218569D01*
X311667Y218489D01*
X311745Y218405D01*
X311821Y218319D01*
X311893Y218231D01*
X311962Y218140D01*
X312029Y218047D01*
X312092Y217952D01*
X312152Y217854D01*
X312208Y217755D01*
X312261Y217654D01*
X312310Y217550D01*
X312356Y217446D01*
X312399Y217340D01*
X312437Y217232D01*
X312472Y217123D01*
X312504Y217013D01*
X312531Y216902D01*
X312555Y216790D01*
X312575Y216678D01*
X312591Y216565D01*
X312603Y216451D01*
X312611Y216337D01*
X312615Y216223D01*
X312616Y216108D01*
X312612Y215994D01*
X312605Y215880D01*
X312594Y215766D01*
X312578Y215653D01*
X211232Y180537D02*
X211102Y180554D01*
X210973Y180575D01*
X210844Y180600D01*
X210716Y180628D01*
X210589Y180661D01*
X210463Y180697D01*
X210338Y180738D01*
X210215Y180782D01*
X210093Y180829D01*
X209972Y180881D01*
X209853Y180935D01*
X209736Y180994D01*
X209621Y181056D01*
X209507Y181121D01*
X209395Y181190D01*
X209286Y181263D01*
X209179Y181338D01*
X209074Y181417D01*
X208972Y181499D01*
X208872Y181584D01*
X208775Y181671D01*
X208680Y181762D01*
X208588Y181856D01*
X208499Y181952D01*
X208413Y182051D01*
X208331Y182152D01*
X208251Y182256D01*
X208174Y182363D01*
X208101Y182471D01*
X208031Y182582D01*
X207964Y182695D01*
X207901Y182810D01*
X207841Y182926D01*
X207785Y183045D01*
X207732Y183165D01*
X207683Y183286D01*
X207638Y183409D01*
X207596Y183534D01*
X207558Y183659D01*
X207525Y183786D01*
X207494Y183913D01*
X207468Y184042D01*
X207446Y184171D01*
X207427Y184301D01*
X207413Y184431D01*
X207402Y184562D01*
X207396Y184693D01*
X207393Y184824D01*
X207394Y184955D01*
X207400Y185086D01*
X207409Y185216D01*
X207422Y185347D01*
X308768Y180537D02*
X308890Y180539D01*
X309012Y180545D01*
X309134Y180555D01*
X309255Y180568D01*
X309376Y180586D01*
X309496Y180607D01*
X309616Y180632D01*
X309735Y180661D01*
X309852Y180694D01*
X309969Y180731D01*
X310084Y180771D01*
X310198Y180815D01*
X310310Y180863D01*
X310421Y180914D01*
X310530Y180969D01*
X310638Y181027D01*
X310743Y181089D01*
X310847Y181154D01*
X310948Y181222D01*
X311047Y181293D01*
X311144Y181368D01*
X311238Y181446D01*
X311330Y181526D01*
X311419Y181610D01*
X311505Y181696D01*
X311589Y181785D01*
X311669Y181877D01*
X311747Y181971D01*
X311822Y182068D01*
X311893Y182167D01*
X311961Y182268D01*
X312026Y182372D01*
X312088Y182477D01*
X312146Y182585D01*
X312201Y182694D01*
X312252Y182805D01*
X312300Y182917D01*
X312344Y183031D01*
X312384Y183146D01*
X312421Y183263D01*
X312454Y183380D01*
X312483Y183499D01*
X312508Y183619D01*
X312529Y183739D01*
X312547Y183860D01*
X312560Y183981D01*
X312570Y184103D01*
X312576Y184225D01*
X312578Y184347D01*
X211233Y219463D02*
X211119Y219478D01*
X211005Y219490D01*
X210891Y219497D01*
X210777Y219501D01*
X210663Y219500D01*
X210548Y219496D01*
X210434Y219488D01*
X210321Y219476D01*
X210208Y219460D01*
X210095Y219440D01*
X209983Y219416D01*
X209872Y219389D01*
X209762Y219358D01*
X209653Y219323D01*
X209546Y219284D01*
X209439Y219242D01*
X209335Y219196D01*
X209232Y219146D01*
X209130Y219093D01*
X209031Y219037D01*
X208933Y218977D01*
X208838Y218914D01*
X208745Y218848D01*
X208654Y218778D01*
X208566Y218706D01*
X208480Y218630D01*
X208397Y218552D01*
X208316Y218471D01*
X208238Y218387D01*
X208164Y218301D01*
X208092Y218212D01*
X208023Y218120D01*
X207957Y218027D01*
X207895Y217931D01*
X207836Y217833D01*
X207780Y217733D01*
X207728Y217631D01*
X207680Y217528D01*
X207634Y217423D01*
X207593Y217316D01*
X207555Y217208D01*
X207521Y217099D01*
X207491Y216989D01*
X207464Y216878D01*
X207441Y216766D01*
X207422Y216653D01*
X211232Y219463D02*
X309768Y219463D01*
X312578Y215653D02*
X312578Y184347D01*
X207930Y193904D02*
X208088Y193906D01*
X208247Y193912D01*
X208405Y193922D01*
X208562Y193936D01*
X208720Y193953D01*
X208876Y193975D01*
X209033Y194000D01*
X209188Y194030D01*
X209343Y194063D01*
X209497Y194100D01*
X209650Y194141D01*
X209802Y194186D01*
X209952Y194235D01*
X210102Y194287D01*
X210250Y194343D01*
X210397Y194403D01*
X210542Y194466D01*
X210685Y194533D01*
X210827Y194603D01*
X210967Y194677D01*
X211105Y194755D01*
X211241Y194836D01*
X211375Y194920D01*
X211507Y195007D01*
X211637Y195098D01*
X211764Y195192D01*
X211889Y195289D01*
X212012Y195390D01*
X212132Y195493D01*
X212249Y195599D01*
X212364Y195708D01*
X212476Y195820D01*
X212585Y195935D01*
X212691Y196052D01*
X212794Y196172D01*
X212895Y196295D01*
X212992Y196420D01*
X213086Y196547D01*
X213177Y196677D01*
X213264Y196809D01*
X213348Y196943D01*
X213429Y197079D01*
X213507Y197217D01*
X213581Y197357D01*
X213651Y197499D01*
X213718Y197642D01*
X213781Y197787D01*
X213841Y197934D01*
X213897Y198082D01*
X213949Y198232D01*
X213998Y198382D01*
X214043Y198534D01*
X214084Y198687D01*
X214121Y198841D01*
X214154Y198996D01*
X214184Y199151D01*
X214209Y199308D01*
X214231Y199464D01*
X214248Y199622D01*
X214262Y199779D01*
X214272Y199937D01*
X214278Y200096D01*
X214280Y200254D01*
X214278Y200412D01*
X214272Y200571D01*
X214262Y200729D01*
X214248Y200886D01*
X214231Y201044D01*
X214209Y201200D01*
X214184Y201357D01*
X214154Y201512D01*
X214121Y201667D01*
X214084Y201821D01*
X214043Y201974D01*
X213998Y202126D01*
X213949Y202276D01*
X213897Y202426D01*
X213841Y202574D01*
X213781Y202721D01*
X213718Y202866D01*
X213651Y203009D01*
X213581Y203151D01*
X213507Y203291D01*
X213429Y203429D01*
X213348Y203565D01*
X213264Y203699D01*
X213177Y203831D01*
X213086Y203961D01*
X212992Y204088D01*
X212895Y204213D01*
X212794Y204336D01*
X212691Y204456D01*
X212585Y204573D01*
X212476Y204688D01*
X212364Y204800D01*
X212249Y204909D01*
X212132Y205015D01*
X212012Y205118D01*
X211889Y205219D01*
X211764Y205316D01*
X211637Y205410D01*
X211507Y205501D01*
X211375Y205588D01*
X211241Y205672D01*
X211105Y205753D01*
X210967Y205831D01*
X210827Y205905D01*
X210685Y205975D01*
X210542Y206042D01*
X210397Y206105D01*
X210250Y206165D01*
X210102Y206221D01*
X209952Y206273D01*
X209802Y206322D01*
X209650Y206367D01*
X209497Y206408D01*
X209343Y206445D01*
X209188Y206478D01*
X209033Y206508D01*
X208876Y206533D01*
X208720Y206555D01*
X208562Y206572D01*
X208405Y206586D01*
X208247Y206596D01*
X208088Y206602D01*
X207930Y206604D01*
X207422Y193904D02*
X207422Y185474D01*
X207422Y206604D02*
X207422Y216653D01*
D13*
X201580Y225400D02*
X201582Y225471D01*
X201588Y225542D01*
X201598Y225613D01*
X201612Y225683D01*
X201630Y225752D01*
X201651Y225819D01*
X201677Y225886D01*
X201706Y225951D01*
X201738Y226014D01*
X201775Y226076D01*
X201814Y226135D01*
X201857Y226192D01*
X201903Y226246D01*
X201952Y226298D01*
X202004Y226347D01*
X202058Y226393D01*
X202115Y226436D01*
X202174Y226475D01*
X202236Y226512D01*
X202299Y226544D01*
X202364Y226573D01*
X202431Y226599D01*
X202498Y226620D01*
X202567Y226638D01*
X202637Y226652D01*
X202708Y226662D01*
X202779Y226668D01*
X202850Y226670D01*
X202921Y226668D01*
X202992Y226662D01*
X203063Y226652D01*
X203133Y226638D01*
X203202Y226620D01*
X203269Y226599D01*
X203336Y226573D01*
X203401Y226544D01*
X203464Y226512D01*
X203526Y226475D01*
X203585Y226436D01*
X203642Y226393D01*
X203696Y226347D01*
X203748Y226298D01*
X203797Y226246D01*
X203843Y226192D01*
X203886Y226135D01*
X203925Y226076D01*
X203962Y226014D01*
X203994Y225951D01*
X204023Y225886D01*
X204049Y225819D01*
X204070Y225752D01*
X204088Y225683D01*
X204102Y225613D01*
X204112Y225542D01*
X204118Y225471D01*
X204120Y225400D01*
X204118Y225329D01*
X204112Y225258D01*
X204102Y225187D01*
X204088Y225117D01*
X204070Y225048D01*
X204049Y224981D01*
X204023Y224914D01*
X203994Y224849D01*
X203962Y224786D01*
X203925Y224724D01*
X203886Y224665D01*
X203843Y224608D01*
X203797Y224554D01*
X203748Y224502D01*
X203696Y224453D01*
X203642Y224407D01*
X203585Y224364D01*
X203526Y224325D01*
X203464Y224288D01*
X203401Y224256D01*
X203336Y224227D01*
X203269Y224201D01*
X203202Y224180D01*
X203133Y224162D01*
X203063Y224148D01*
X202992Y224138D01*
X202921Y224132D01*
X202850Y224130D01*
X202779Y224132D01*
X202708Y224138D01*
X202637Y224148D01*
X202567Y224162D01*
X202498Y224180D01*
X202431Y224201D01*
X202364Y224227D01*
X202299Y224256D01*
X202236Y224288D01*
X202174Y224325D01*
X202115Y224364D01*
X202058Y224407D01*
X202004Y224453D01*
X201952Y224502D01*
X201903Y224554D01*
X201857Y224608D01*
X201814Y224665D01*
X201775Y224724D01*
X201738Y224786D01*
X201706Y224849D01*
X201677Y224914D01*
X201651Y224981D01*
X201630Y225048D01*
X201612Y225117D01*
X201598Y225187D01*
X201588Y225258D01*
X201582Y225329D01*
X201580Y225400D01*
D14*
X243335Y129840D03*
D12*
X241176Y133777D02*
X241176Y147493D01*
X218824Y147493D02*
X218824Y132507D01*
X239779Y147493D02*
X241176Y147493D01*
X220221Y147493D02*
X218824Y147493D01*
X239779Y132507D02*
X241176Y133777D01*
X220221Y132507D02*
X218824Y132507D01*
D15*
X380093Y118102D02*
X380095Y118155D01*
X380101Y118207D01*
X380111Y118259D01*
X380124Y118310D01*
X380142Y118360D01*
X380163Y118409D01*
X380188Y118456D01*
X380216Y118500D01*
X380247Y118543D01*
X380282Y118583D01*
X380319Y118620D01*
X380359Y118655D01*
X380402Y118686D01*
X380447Y118714D01*
X380493Y118739D01*
X380542Y118760D01*
X380592Y118778D01*
X380643Y118791D01*
X380695Y118801D01*
X380747Y118807D01*
X380800Y118809D01*
X380853Y118807D01*
X380905Y118801D01*
X380957Y118791D01*
X381008Y118778D01*
X381058Y118760D01*
X381107Y118739D01*
X381154Y118714D01*
X381198Y118686D01*
X381241Y118655D01*
X381281Y118620D01*
X381318Y118583D01*
X381353Y118543D01*
X381384Y118500D01*
X381412Y118455D01*
X381437Y118409D01*
X381458Y118360D01*
X381476Y118310D01*
X381489Y118259D01*
X381499Y118207D01*
X381505Y118155D01*
X381507Y118102D01*
X381505Y118049D01*
X381499Y117997D01*
X381489Y117945D01*
X381476Y117894D01*
X381458Y117844D01*
X381437Y117795D01*
X381412Y117748D01*
X381384Y117704D01*
X381353Y117661D01*
X381318Y117621D01*
X381281Y117584D01*
X381241Y117549D01*
X381198Y117518D01*
X381153Y117490D01*
X381107Y117465D01*
X381058Y117444D01*
X381008Y117426D01*
X380957Y117413D01*
X380905Y117403D01*
X380853Y117397D01*
X380800Y117395D01*
X380747Y117397D01*
X380695Y117403D01*
X380643Y117413D01*
X380592Y117426D01*
X380542Y117444D01*
X380493Y117465D01*
X380446Y117490D01*
X380402Y117518D01*
X380359Y117549D01*
X380319Y117584D01*
X380282Y117621D01*
X380247Y117661D01*
X380216Y117704D01*
X380188Y117749D01*
X380163Y117795D01*
X380142Y117844D01*
X380124Y117894D01*
X380111Y117945D01*
X380101Y117997D01*
X380095Y118049D01*
X380093Y118102D01*
D12*
X415000Y60000D02*
X450000Y60000D01*
X415000Y60000D02*
X415000Y68000D01*
X440000Y68000D01*
X440000Y80000D01*
X440000Y120000D02*
X440000Y132000D01*
X415000Y132000D01*
X415000Y140000D01*
X450000Y140000D01*
X490000Y120000D02*
X490000Y80000D01*
X375080Y91110D02*
X364920Y91110D01*
X364920Y108890D02*
X375080Y108890D01*
D16*
X375240Y55240D02*
X375240Y24760D01*
X375240Y55240D02*
X373300Y55240D01*
X373300Y24760D02*
X375240Y24760D01*
X345000Y35000D02*
X345000Y55240D01*
X346700Y55240D01*
X345000Y35000D02*
X345000Y24760D01*
X346700Y24760D01*
D13*
X375494Y22220D02*
X375496Y22283D01*
X375502Y22346D01*
X375512Y22409D01*
X375525Y22470D01*
X375543Y22531D01*
X375564Y22590D01*
X375589Y22649D01*
X375617Y22705D01*
X375649Y22760D01*
X375684Y22812D01*
X375723Y22862D01*
X375764Y22910D01*
X375809Y22955D01*
X375856Y22997D01*
X375905Y23036D01*
X375957Y23072D01*
X376011Y23105D01*
X376067Y23134D01*
X376125Y23160D01*
X376184Y23182D01*
X376244Y23201D01*
X376306Y23215D01*
X376368Y23226D01*
X376431Y23233D01*
X376494Y23236D01*
X376557Y23235D01*
X376620Y23230D01*
X376683Y23221D01*
X376745Y23208D01*
X376806Y23192D01*
X376866Y23172D01*
X376924Y23148D01*
X376981Y23120D01*
X377036Y23089D01*
X377089Y23055D01*
X377140Y23017D01*
X377188Y22976D01*
X377234Y22933D01*
X377277Y22886D01*
X377317Y22837D01*
X377354Y22786D01*
X377387Y22733D01*
X377417Y22677D01*
X377444Y22620D01*
X377467Y22561D01*
X377486Y22501D01*
X377502Y22439D01*
X377514Y22377D01*
X377522Y22315D01*
X377526Y22252D01*
X377526Y22188D01*
X377522Y22125D01*
X377514Y22063D01*
X377502Y22001D01*
X377486Y21939D01*
X377467Y21879D01*
X377444Y21820D01*
X377417Y21763D01*
X377387Y21707D01*
X377354Y21654D01*
X377317Y21603D01*
X377277Y21554D01*
X377234Y21507D01*
X377188Y21464D01*
X377140Y21423D01*
X377089Y21385D01*
X377036Y21351D01*
X376981Y21320D01*
X376924Y21292D01*
X376866Y21268D01*
X376806Y21248D01*
X376745Y21232D01*
X376683Y21219D01*
X376620Y21210D01*
X376557Y21205D01*
X376494Y21204D01*
X376431Y21207D01*
X376368Y21214D01*
X376306Y21225D01*
X376244Y21239D01*
X376184Y21258D01*
X376125Y21280D01*
X376067Y21306D01*
X376011Y21335D01*
X375957Y21368D01*
X375905Y21404D01*
X375856Y21443D01*
X375809Y21485D01*
X375764Y21530D01*
X375723Y21578D01*
X375684Y21628D01*
X375649Y21680D01*
X375617Y21735D01*
X375589Y21791D01*
X375564Y21850D01*
X375543Y21909D01*
X375525Y21970D01*
X375512Y22031D01*
X375502Y22094D01*
X375496Y22157D01*
X375494Y22220D01*
D17*
X230160Y87300D02*
X230160Y112700D01*
X209840Y87300D02*
X209842Y87200D01*
X209848Y87101D01*
X209858Y87001D01*
X209871Y86903D01*
X209889Y86804D01*
X209910Y86707D01*
X209935Y86611D01*
X209964Y86515D01*
X209997Y86421D01*
X210033Y86328D01*
X210073Y86237D01*
X210117Y86147D01*
X210164Y86059D01*
X210214Y85973D01*
X210268Y85889D01*
X210325Y85807D01*
X210385Y85728D01*
X210449Y85650D01*
X210515Y85576D01*
X210584Y85504D01*
X210656Y85435D01*
X210730Y85369D01*
X210808Y85305D01*
X210887Y85245D01*
X210969Y85188D01*
X211053Y85134D01*
X211139Y85084D01*
X211227Y85037D01*
X211317Y84993D01*
X211408Y84953D01*
X211501Y84917D01*
X211595Y84884D01*
X211691Y84855D01*
X211787Y84830D01*
X211884Y84809D01*
X211983Y84791D01*
X212081Y84778D01*
X212181Y84768D01*
X212280Y84762D01*
X212380Y84760D01*
X209840Y112700D02*
X209842Y112800D01*
X209848Y112899D01*
X209858Y112999D01*
X209871Y113097D01*
X209889Y113196D01*
X209910Y113293D01*
X209935Y113389D01*
X209964Y113485D01*
X209997Y113579D01*
X210033Y113672D01*
X210073Y113763D01*
X210117Y113853D01*
X210164Y113941D01*
X210214Y114027D01*
X210268Y114111D01*
X210325Y114193D01*
X210385Y114272D01*
X210449Y114350D01*
X210515Y114424D01*
X210584Y114496D01*
X210656Y114565D01*
X210730Y114631D01*
X210808Y114695D01*
X210887Y114755D01*
X210969Y114812D01*
X211053Y114866D01*
X211139Y114916D01*
X211227Y114963D01*
X211317Y115007D01*
X211408Y115047D01*
X211501Y115083D01*
X211595Y115116D01*
X211691Y115145D01*
X211787Y115170D01*
X211884Y115191D01*
X211983Y115209D01*
X212081Y115222D01*
X212181Y115232D01*
X212280Y115238D01*
X212380Y115240D01*
X227620Y115240D02*
X227720Y115238D01*
X227819Y115232D01*
X227919Y115222D01*
X228017Y115209D01*
X228116Y115191D01*
X228213Y115170D01*
X228309Y115145D01*
X228405Y115116D01*
X228499Y115083D01*
X228592Y115047D01*
X228683Y115007D01*
X228773Y114963D01*
X228861Y114916D01*
X228947Y114866D01*
X229031Y114812D01*
X229113Y114755D01*
X229192Y114695D01*
X229270Y114631D01*
X229344Y114565D01*
X229416Y114496D01*
X229485Y114424D01*
X229551Y114350D01*
X229615Y114272D01*
X229675Y114193D01*
X229732Y114111D01*
X229786Y114027D01*
X229836Y113941D01*
X229883Y113853D01*
X229927Y113763D01*
X229967Y113672D01*
X230003Y113579D01*
X230036Y113485D01*
X230065Y113389D01*
X230090Y113293D01*
X230111Y113196D01*
X230129Y113097D01*
X230142Y112999D01*
X230152Y112899D01*
X230158Y112800D01*
X230160Y112700D01*
X230160Y87300D02*
X230158Y87200D01*
X230152Y87101D01*
X230142Y87001D01*
X230129Y86903D01*
X230111Y86804D01*
X230090Y86707D01*
X230065Y86611D01*
X230036Y86515D01*
X230003Y86421D01*
X229967Y86328D01*
X229927Y86237D01*
X229883Y86147D01*
X229836Y86059D01*
X229786Y85973D01*
X229732Y85889D01*
X229675Y85807D01*
X229615Y85728D01*
X229551Y85650D01*
X229485Y85576D01*
X229416Y85504D01*
X229344Y85435D01*
X229270Y85369D01*
X229192Y85305D01*
X229113Y85245D01*
X229031Y85188D01*
X228947Y85134D01*
X228861Y85084D01*
X228773Y85037D01*
X228683Y84993D01*
X228592Y84953D01*
X228499Y84917D01*
X228405Y84884D01*
X228309Y84855D01*
X228213Y84830D01*
X228116Y84809D01*
X228017Y84791D01*
X227919Y84778D01*
X227819Y84768D01*
X227720Y84762D01*
X227620Y84760D01*
X212380Y84760D01*
X212380Y115240D02*
X227620Y115240D01*
X209840Y112700D02*
X209840Y87300D01*
D12*
X75000Y282000D02*
X75000Y298000D01*
X45000Y298000D02*
X45000Y282000D01*
X41586Y302000D02*
X41588Y302075D01*
X41594Y302149D01*
X41604Y302223D01*
X41617Y302296D01*
X41635Y302369D01*
X41656Y302440D01*
X41681Y302511D01*
X41710Y302580D01*
X41743Y302647D01*
X41779Y302712D01*
X41818Y302776D01*
X41860Y302837D01*
X41906Y302896D01*
X41955Y302953D01*
X42007Y303006D01*
X42061Y303057D01*
X42118Y303106D01*
X42178Y303150D01*
X42240Y303192D01*
X42304Y303231D01*
X42370Y303266D01*
X42437Y303297D01*
X42507Y303325D01*
X42577Y303349D01*
X42649Y303370D01*
X42722Y303386D01*
X42795Y303399D01*
X42870Y303408D01*
X42944Y303413D01*
X43019Y303414D01*
X43093Y303411D01*
X43168Y303404D01*
X43241Y303393D01*
X43315Y303379D01*
X43387Y303360D01*
X43458Y303338D01*
X43528Y303312D01*
X43597Y303282D01*
X43663Y303249D01*
X43728Y303212D01*
X43791Y303172D01*
X43852Y303128D01*
X43910Y303082D01*
X43966Y303032D01*
X44019Y302980D01*
X44070Y302925D01*
X44117Y302867D01*
X44161Y302807D01*
X44202Y302744D01*
X44240Y302680D01*
X44274Y302614D01*
X44305Y302545D01*
X44332Y302476D01*
X44355Y302405D01*
X44374Y302333D01*
X44390Y302260D01*
X44402Y302186D01*
X44410Y302112D01*
X44414Y302037D01*
X44414Y301963D01*
X44410Y301888D01*
X44402Y301814D01*
X44390Y301740D01*
X44374Y301667D01*
X44355Y301595D01*
X44332Y301524D01*
X44305Y301455D01*
X44274Y301386D01*
X44240Y301320D01*
X44202Y301256D01*
X44161Y301193D01*
X44117Y301133D01*
X44070Y301075D01*
X44019Y301020D01*
X43966Y300968D01*
X43910Y300918D01*
X43852Y300872D01*
X43791Y300828D01*
X43728Y300788D01*
X43663Y300751D01*
X43597Y300718D01*
X43528Y300688D01*
X43458Y300662D01*
X43387Y300640D01*
X43315Y300621D01*
X43241Y300607D01*
X43168Y300596D01*
X43093Y300589D01*
X43019Y300586D01*
X42944Y300587D01*
X42870Y300592D01*
X42795Y300601D01*
X42722Y300614D01*
X42649Y300630D01*
X42577Y300651D01*
X42507Y300675D01*
X42437Y300703D01*
X42370Y300734D01*
X42304Y300769D01*
X42240Y300808D01*
X42178Y300850D01*
X42118Y300894D01*
X42061Y300943D01*
X42007Y300994D01*
X41955Y301047D01*
X41906Y301104D01*
X41860Y301163D01*
X41818Y301224D01*
X41779Y301288D01*
X41743Y301353D01*
X41710Y301420D01*
X41681Y301489D01*
X41656Y301560D01*
X41635Y301631D01*
X41617Y301704D01*
X41604Y301777D01*
X41594Y301851D01*
X41588Y301925D01*
X41586Y302000D01*
X36250Y307700D02*
X23750Y307700D01*
X23750Y299000D02*
X23750Y281000D01*
X36250Y281000D02*
X36250Y299000D01*
X43750Y352300D02*
X56250Y352300D01*
X56250Y361000D02*
X56250Y379000D01*
X43750Y379000D02*
X43750Y361000D01*
X73750Y352300D02*
X86250Y352300D01*
X86250Y361000D02*
X86250Y379000D01*
X73750Y379000D02*
X73750Y361000D01*
D11*
X306002Y289840D03*
D12*
X277300Y295706D02*
X277300Y304294D01*
X302700Y304294D02*
X302700Y295706D01*
X292684Y307088D02*
X287316Y307088D01*
X151500Y375300D02*
X148300Y375300D01*
X148300Y378500D01*
X168500Y394700D02*
X171700Y394700D01*
X171700Y391500D01*
X148300Y391500D02*
X148300Y394700D01*
X151500Y394700D01*
X171700Y378500D02*
X171700Y375300D01*
X168500Y375300D01*
X161900Y394700D02*
X158100Y394700D01*
X158100Y375300D02*
X161900Y375300D01*
D18*
X144000Y340000D02*
X140000Y340000D01*
X140000Y336000D01*
X140000Y284000D02*
X140000Y280000D01*
X144000Y280000D01*
X196000Y280000D02*
X200000Y280000D01*
X200000Y284000D01*
X200000Y336000D02*
X196000Y340000D01*
D19*
X201138Y342179D02*
X201140Y342231D01*
X201146Y342283D01*
X201156Y342335D01*
X201169Y342385D01*
X201186Y342435D01*
X201207Y342483D01*
X201232Y342529D01*
X201260Y342573D01*
X201291Y342615D01*
X201325Y342655D01*
X201362Y342692D01*
X201402Y342726D01*
X201444Y342757D01*
X201488Y342785D01*
X201534Y342810D01*
X201582Y342831D01*
X201632Y342848D01*
X201682Y342861D01*
X201734Y342871D01*
X201786Y342877D01*
X201838Y342879D01*
X201890Y342877D01*
X201942Y342871D01*
X201994Y342861D01*
X202044Y342848D01*
X202094Y342831D01*
X202142Y342810D01*
X202188Y342785D01*
X202232Y342757D01*
X202274Y342726D01*
X202314Y342692D01*
X202351Y342655D01*
X202385Y342615D01*
X202416Y342573D01*
X202444Y342529D01*
X202469Y342483D01*
X202490Y342435D01*
X202507Y342385D01*
X202520Y342335D01*
X202530Y342283D01*
X202536Y342231D01*
X202538Y342179D01*
X202536Y342127D01*
X202530Y342075D01*
X202520Y342023D01*
X202507Y341973D01*
X202490Y341923D01*
X202469Y341875D01*
X202444Y341829D01*
X202416Y341785D01*
X202385Y341743D01*
X202351Y341703D01*
X202314Y341666D01*
X202274Y341632D01*
X202232Y341601D01*
X202188Y341573D01*
X202142Y341548D01*
X202094Y341527D01*
X202044Y341510D01*
X201994Y341497D01*
X201942Y341487D01*
X201890Y341481D01*
X201838Y341479D01*
X201786Y341481D01*
X201734Y341487D01*
X201682Y341497D01*
X201632Y341510D01*
X201582Y341527D01*
X201534Y341548D01*
X201488Y341573D01*
X201444Y341601D01*
X201402Y341632D01*
X201362Y341666D01*
X201325Y341703D01*
X201291Y341743D01*
X201260Y341785D01*
X201232Y341829D01*
X201207Y341875D01*
X201186Y341923D01*
X201169Y341973D01*
X201156Y342023D01*
X201146Y342075D01*
X201140Y342127D01*
X201138Y342179D01*
D12*
X114000Y115000D02*
X114000Y85000D01*
X140000Y70000D02*
X156500Y70000D01*
X156500Y122500D02*
X156500Y130000D01*
X140000Y130000D01*
X156500Y77500D02*
X156500Y70000D01*
X161984Y75000D02*
X161986Y75063D01*
X161992Y75126D01*
X162002Y75189D01*
X162015Y75250D01*
X162033Y75311D01*
X162054Y75370D01*
X162079Y75429D01*
X162107Y75485D01*
X162139Y75540D01*
X162174Y75592D01*
X162213Y75642D01*
X162254Y75690D01*
X162299Y75735D01*
X162346Y75777D01*
X162395Y75816D01*
X162447Y75852D01*
X162501Y75885D01*
X162557Y75914D01*
X162615Y75940D01*
X162674Y75962D01*
X162734Y75981D01*
X162796Y75995D01*
X162858Y76006D01*
X162921Y76013D01*
X162984Y76016D01*
X163047Y76015D01*
X163110Y76010D01*
X163173Y76001D01*
X163235Y75988D01*
X163296Y75972D01*
X163356Y75952D01*
X163414Y75928D01*
X163471Y75900D01*
X163526Y75869D01*
X163579Y75835D01*
X163630Y75797D01*
X163678Y75756D01*
X163724Y75713D01*
X163767Y75666D01*
X163807Y75617D01*
X163844Y75566D01*
X163877Y75513D01*
X163907Y75457D01*
X163934Y75400D01*
X163957Y75341D01*
X163976Y75281D01*
X163992Y75219D01*
X164004Y75157D01*
X164012Y75095D01*
X164016Y75032D01*
X164016Y74968D01*
X164012Y74905D01*
X164004Y74843D01*
X163992Y74781D01*
X163976Y74719D01*
X163957Y74659D01*
X163934Y74600D01*
X163907Y74543D01*
X163877Y74487D01*
X163844Y74434D01*
X163807Y74383D01*
X163767Y74334D01*
X163724Y74287D01*
X163678Y74244D01*
X163630Y74203D01*
X163579Y74165D01*
X163526Y74131D01*
X163471Y74100D01*
X163414Y74072D01*
X163356Y74048D01*
X163296Y74028D01*
X163235Y74012D01*
X163173Y73999D01*
X163110Y73990D01*
X163047Y73985D01*
X162984Y73984D01*
X162921Y73987D01*
X162858Y73994D01*
X162796Y74005D01*
X162734Y74019D01*
X162674Y74038D01*
X162615Y74060D01*
X162557Y74086D01*
X162501Y74115D01*
X162447Y74148D01*
X162395Y74184D01*
X162346Y74223D01*
X162299Y74265D01*
X162254Y74310D01*
X162213Y74358D01*
X162174Y74408D01*
X162139Y74460D01*
X162107Y74515D01*
X162079Y74571D01*
X162054Y74630D01*
X162033Y74689D01*
X162015Y74750D01*
X162002Y74811D01*
X161992Y74874D01*
X161986Y74937D01*
X161984Y75000D01*
M02*
