G04 EAGLE Gerber RS-274X export*
G75*
%MOMM*%
%FSLAX34Y34*%
%LPD*%
%INSolderpaste Top*%
%IPPOS*%
%AMOC8*
5,1,8,0,0,1.08239X$1,22.5*%
G01*
%ADD10C,0.300000*%
%ADD11R,1.000000X1.100000*%
%ADD12R,0.900000X0.850000*%
%ADD13R,1.100000X1.000000*%
%ADD14R,0.600000X0.600000*%
%ADD15R,0.850000X1.520000*%
%ADD16R,1.520000X0.850000*%
%ADD17R,0.900000X0.900000*%
%ADD18R,0.550000X0.800000*%
%ADD19R,0.550000X0.500000*%
%ADD20R,0.850000X2.200000*%
%ADD21R,1.000000X1.050000*%
%ADD22R,0.600000X1.200000*%
%ADD23R,0.400000X0.800000*%
%ADD24R,0.250000X0.650000*%
%ADD25R,1.200000X0.550000*%
%ADD26R,1.500000X0.900000*%
%ADD27R,0.900000X1.500000*%
%ADD28R,1.330000X1.330000*%


D10*
X36500Y254730D02*
X43500Y254730D01*
X43500Y247730D01*
X36500Y247730D01*
X36500Y254730D01*
X36500Y250580D02*
X43500Y250580D01*
X43500Y253430D02*
X36500Y253430D01*
X36500Y272270D02*
X43500Y272270D01*
X43500Y265270D01*
X36500Y265270D01*
X36500Y272270D01*
X36500Y268120D02*
X43500Y268120D01*
X43500Y270970D02*
X36500Y270970D01*
D11*
X60000Y268500D03*
X60000Y251500D03*
X510000Y131500D03*
X510000Y148500D03*
X490000Y131500D03*
X490000Y148500D03*
D12*
X475000Y345200D03*
X475000Y356800D03*
D13*
X459500Y346000D03*
X442500Y346000D03*
D11*
X470000Y131500D03*
X470000Y148500D03*
D14*
X500000Y344000D03*
X490000Y344000D03*
D15*
X511500Y324500D03*
X500500Y324500D03*
X489500Y324500D03*
X478500Y324500D03*
X467500Y324500D03*
X456500Y324500D03*
X445500Y324500D03*
X434500Y324500D03*
X423500Y324500D03*
X412500Y324500D03*
X401500Y324500D03*
X390500Y324500D03*
X379500Y324500D03*
X368500Y324500D03*
D16*
X340500Y316000D03*
X340500Y305000D03*
X340500Y294000D03*
X340500Y283000D03*
X340500Y272000D03*
X340500Y261000D03*
X340500Y250000D03*
X340500Y239000D03*
X340500Y228000D03*
X340500Y217000D03*
X340500Y206000D03*
X340500Y195000D03*
X340500Y184000D03*
D15*
X368500Y175500D03*
X379500Y175500D03*
X390500Y175500D03*
X401500Y175500D03*
X412500Y175500D03*
X423500Y175500D03*
X434500Y175500D03*
X445500Y175500D03*
X456500Y175500D03*
X467500Y175500D03*
X478500Y175500D03*
X489500Y175500D03*
X500500Y175500D03*
X511500Y175500D03*
D16*
X539500Y184000D03*
X539500Y195000D03*
X539500Y206000D03*
X539500Y217000D03*
X539500Y228000D03*
X539500Y239000D03*
X539500Y250000D03*
X539500Y261000D03*
X539500Y272000D03*
X539500Y283000D03*
X539500Y294000D03*
X539500Y305000D03*
X539500Y316000D03*
D17*
X450500Y239500D03*
X471500Y239500D03*
X492500Y239500D03*
X513500Y239500D03*
X450500Y219000D03*
X471500Y219000D03*
X492500Y219000D03*
X513500Y219000D03*
X450500Y198500D03*
X471500Y198500D03*
X492500Y198500D03*
X513500Y198500D03*
X450500Y301500D03*
X471500Y301500D03*
X492500Y301500D03*
X513500Y301500D03*
X450500Y281000D03*
X471500Y281000D03*
X492500Y281000D03*
X513500Y281000D03*
X450500Y260500D03*
X471500Y260500D03*
X492500Y260500D03*
X513500Y260500D03*
X366500Y239500D03*
X387500Y239500D03*
X408500Y239500D03*
X429500Y239500D03*
X366500Y219000D03*
X387500Y219000D03*
X408500Y219000D03*
X429500Y219000D03*
X366500Y198500D03*
X387500Y198500D03*
X408500Y198500D03*
X429500Y198500D03*
X366500Y301500D03*
X387500Y301500D03*
X408500Y301500D03*
X429500Y301500D03*
X366500Y281000D03*
X387500Y281000D03*
X408500Y281000D03*
X429500Y281000D03*
X366500Y260500D03*
X387500Y260500D03*
X408500Y260500D03*
X429500Y260500D03*
D11*
X420000Y148500D03*
X420000Y131500D03*
X440000Y131500D03*
X440000Y148500D03*
D18*
X556800Y222000D03*
D19*
X556800Y214000D03*
X556800Y206000D03*
D18*
X556800Y198000D03*
X569800Y198000D03*
D19*
X569800Y206000D03*
X569800Y214000D03*
D18*
X569800Y222000D03*
X556800Y292000D03*
D19*
X556800Y284000D03*
X556800Y276000D03*
D18*
X556800Y268000D03*
X569800Y268000D03*
D19*
X569800Y276000D03*
X569800Y284000D03*
D18*
X569800Y292000D03*
D11*
X550000Y148500D03*
X550000Y131500D03*
X300000Y91500D03*
X300000Y108500D03*
X280000Y91500D03*
X280000Y108500D03*
D18*
X303800Y272000D03*
D19*
X303800Y264000D03*
X303800Y256000D03*
D18*
X303800Y248000D03*
X316800Y248000D03*
D19*
X316800Y256000D03*
X316800Y264000D03*
D18*
X316800Y272000D03*
D11*
X520000Y91500D03*
X520000Y108500D03*
X460000Y108500D03*
X460000Y91500D03*
D20*
X513750Y370000D03*
X486250Y370000D03*
D21*
X500000Y354750D03*
X500000Y385250D03*
D22*
X224450Y338000D03*
X211750Y338000D03*
X199050Y338000D03*
X186350Y338000D03*
X173650Y338000D03*
X160950Y338000D03*
X148250Y338000D03*
X135550Y338000D03*
X135550Y282000D03*
X148250Y282000D03*
X160950Y282000D03*
X173650Y282000D03*
X186350Y282000D03*
X199050Y282000D03*
X211750Y282000D03*
X224450Y282000D03*
D11*
X250100Y301500D03*
X250100Y318500D03*
D23*
X157500Y381500D03*
D24*
X147500Y356500D03*
X142500Y356500D03*
D23*
X82500Y381500D03*
D24*
X137500Y356500D03*
X132500Y356500D03*
X127500Y356500D03*
X122500Y356500D03*
X117500Y356500D03*
X112500Y356500D03*
X107500Y356500D03*
X102500Y356500D03*
X97500Y356500D03*
X92500Y356500D03*
D23*
X247500Y381500D03*
D24*
X237500Y356500D03*
X232500Y356500D03*
D23*
X172500Y381500D03*
D24*
X227500Y356500D03*
X222500Y356500D03*
X217500Y356500D03*
X212500Y356500D03*
X207500Y356500D03*
X202500Y356500D03*
X197500Y356500D03*
X192500Y356500D03*
X187500Y356500D03*
X182500Y356500D03*
D25*
X503001Y90500D03*
X503001Y100000D03*
X503001Y109500D03*
X476999Y109500D03*
X476999Y90500D03*
D23*
X427500Y381500D03*
D24*
X417500Y356500D03*
X412500Y356500D03*
D23*
X352500Y381500D03*
D24*
X407500Y356500D03*
X402500Y356500D03*
X397500Y356500D03*
X392500Y356500D03*
X387500Y356500D03*
X382500Y356500D03*
X377500Y356500D03*
X372500Y356500D03*
X367500Y356500D03*
X362500Y356500D03*
D26*
X252380Y75700D03*
X252380Y88400D03*
X252380Y101100D03*
X252380Y113800D03*
X252380Y126500D03*
X252380Y139200D03*
X252380Y151900D03*
X252380Y164600D03*
X252380Y177300D03*
X252380Y190000D03*
X252380Y202700D03*
X252380Y215400D03*
X252380Y228100D03*
X252380Y240800D03*
D27*
X227150Y255700D03*
X214450Y255700D03*
X201750Y255700D03*
X189050Y255700D03*
X176350Y255700D03*
X163650Y255700D03*
X150950Y255700D03*
X138250Y255700D03*
X125550Y255700D03*
X112850Y255700D03*
D26*
X87620Y240800D03*
X87620Y228100D03*
X87620Y215400D03*
X87620Y202700D03*
X87620Y190000D03*
X87620Y177300D03*
X87620Y164600D03*
X87620Y151900D03*
X87620Y139200D03*
X87620Y126500D03*
X87620Y113800D03*
X87620Y101100D03*
X87620Y88400D03*
X87620Y75700D03*
D28*
X185310Y149120D03*
X166860Y130910D03*
X185160Y130910D03*
X203460Y130910D03*
X203460Y149210D03*
X166760Y148910D03*
X166860Y167510D03*
X185160Y167610D03*
X203460Y167510D03*
D11*
X30000Y81500D03*
X30000Y98500D03*
X30000Y121500D03*
X30000Y138500D03*
D23*
X337500Y381500D03*
D24*
X327500Y356500D03*
X322500Y356500D03*
D23*
X262500Y381500D03*
D24*
X317500Y356500D03*
X312500Y356500D03*
X307500Y356500D03*
X302500Y356500D03*
X297500Y356500D03*
X292500Y356500D03*
X287500Y356500D03*
X282500Y356500D03*
X277500Y356500D03*
X272500Y356500D03*
M02*
