G04 EAGLE Gerber RS-274X export*
G75*
%MOMM*%
%FSLAX34Y34*%
%LPD*%
%INSilkscreen Bottom*%
%IPPOS*%
%AMOC8*
5,1,8,0,0,1.08239X$1,22.5*%
G01*
%ADD10C,0.279400*%
%ADD11C,0.254000*%
%ADD12C,0.203200*%
%ADD13C,0.254000*%
%ADD14C,0.508000*%
%ADD15C,0.177800*%
%ADD16C,0.101600*%
%ADD17C,0.127000*%
%ADD18C,0.200000*%

G36*
X286790Y12755D02*
X286790Y12755D01*
X286841Y12772D01*
X286835Y12789D01*
X286849Y12800D01*
X286849Y61500D01*
X286833Y61521D01*
X286835Y61535D01*
X286435Y61935D01*
X286408Y61939D01*
X286400Y61949D01*
X273600Y61949D01*
X273582Y61936D01*
X273570Y61939D01*
X273170Y61639D01*
X273166Y61623D01*
X273162Y61620D01*
X273164Y61617D01*
X273162Y61608D01*
X273151Y61600D01*
X273151Y13100D01*
X273167Y13079D01*
X273165Y13065D01*
X273465Y12765D01*
X273520Y12758D01*
X273523Y12756D01*
X279516Y15853D01*
X280093Y15949D01*
X286178Y12956D01*
X286183Y12957D01*
X286184Y12953D01*
X286784Y12753D01*
X286786Y12754D01*
X286787Y12753D01*
X286790Y12755D01*
G37*
G36*
X288008Y335057D02*
X288008Y335057D01*
X288014Y335053D01*
X288714Y335253D01*
X288715Y335254D01*
X288716Y335253D01*
X289315Y335453D01*
X290014Y335653D01*
X290022Y335664D01*
X290031Y335662D01*
X290527Y336058D01*
X291122Y336356D01*
X291127Y336366D01*
X291135Y336365D01*
X292135Y337365D01*
X292135Y337369D01*
X292138Y337369D01*
X292538Y337869D01*
X292539Y337873D01*
X292541Y337873D01*
X292941Y338473D01*
X292941Y338477D01*
X292944Y338478D01*
X293244Y339078D01*
X293243Y339083D01*
X293247Y339084D01*
X293447Y339684D01*
X293446Y339686D01*
X293447Y339686D01*
X293484Y339815D01*
X293526Y339962D01*
X293540Y340012D01*
X293582Y340159D01*
X293583Y340159D01*
X293582Y340159D01*
X293625Y340307D01*
X293639Y340356D01*
X293647Y340386D01*
X293646Y340390D01*
X293649Y340392D01*
X293749Y340992D01*
X293748Y340993D01*
X293749Y340993D01*
X293849Y341693D01*
X293846Y341698D01*
X293849Y341700D01*
X293849Y375600D01*
X293813Y375647D01*
X293806Y375642D01*
X293800Y375649D01*
X280900Y375649D01*
X280896Y375646D01*
X280893Y375649D01*
X280193Y375549D01*
X280151Y375506D01*
X280155Y375503D01*
X280151Y375500D01*
X280151Y341700D01*
X280154Y341696D01*
X280151Y341693D01*
X280351Y340293D01*
X280356Y340288D01*
X280353Y340284D01*
X280753Y339084D01*
X280758Y339081D01*
X280756Y339078D01*
X281056Y338478D01*
X281060Y338476D01*
X281059Y338473D01*
X281459Y337873D01*
X281462Y337872D01*
X281462Y337869D01*
X281862Y337369D01*
X281866Y337368D01*
X281865Y337365D01*
X282865Y336365D01*
X282877Y336364D01*
X282878Y336356D01*
X283475Y336057D01*
X284073Y335659D01*
X284082Y335660D01*
X284084Y335653D01*
X285284Y335253D01*
X285286Y335254D01*
X285286Y335253D01*
X285986Y335053D01*
X285996Y335056D01*
X286000Y335051D01*
X288000Y335051D01*
X288008Y335057D01*
G37*
G36*
X311847Y23787D02*
X311847Y23787D01*
X311842Y23794D01*
X311849Y23800D01*
X311849Y61000D01*
X311846Y61005D01*
X311849Y61008D01*
X311749Y61608D01*
X311705Y61649D01*
X311703Y61646D01*
X311700Y61649D01*
X298200Y61649D01*
X298153Y61613D01*
X298158Y61606D01*
X298151Y61600D01*
X298151Y24400D01*
X298154Y24395D01*
X298151Y24392D01*
X298251Y23792D01*
X298295Y23751D01*
X298298Y23754D01*
X298300Y23751D01*
X311800Y23751D01*
X311847Y23787D01*
G37*
G36*
X313416Y338553D02*
X313416Y338553D01*
X313418Y338557D01*
X313422Y338556D01*
X319522Y341556D01*
X319531Y341573D01*
X319542Y341575D01*
X319842Y342075D01*
X319842Y342079D01*
X319844Y342080D01*
X319841Y342084D01*
X319840Y342093D01*
X319849Y342100D01*
X319849Y375900D01*
X319836Y375918D01*
X319839Y375930D01*
X319539Y376330D01*
X319508Y376339D01*
X319500Y376349D01*
X306600Y376349D01*
X306582Y376336D01*
X306570Y376339D01*
X306170Y376039D01*
X306162Y376008D01*
X306151Y376000D01*
X306151Y341800D01*
X306172Y341772D01*
X306173Y341759D01*
X306773Y341359D01*
X306777Y341359D01*
X306778Y341356D01*
X312778Y338356D01*
X312804Y338361D01*
X312816Y338353D01*
X313416Y338553D01*
G37*
G36*
X231404Y66154D02*
X231404Y66154D01*
X231407Y66151D01*
X232107Y66251D01*
X232111Y66255D01*
X232114Y66253D01*
X232814Y66453D01*
X232815Y66454D01*
X232816Y66453D01*
X233416Y66653D01*
X233419Y66658D01*
X233422Y66656D01*
X234622Y67256D01*
X234624Y67260D01*
X234627Y67259D01*
X235227Y67659D01*
X235228Y67662D01*
X235231Y67662D01*
X235731Y68062D01*
X235733Y68069D01*
X235738Y68069D01*
X236538Y69069D01*
X236539Y69073D01*
X236541Y69073D01*
X236941Y69673D01*
X236941Y69677D01*
X236944Y69678D01*
X237244Y70278D01*
X237243Y70285D01*
X237247Y70286D01*
X237258Y70324D01*
X237300Y70471D01*
X237314Y70521D01*
X237356Y70668D01*
X237357Y70668D01*
X237356Y70668D01*
X237399Y70816D01*
X237413Y70865D01*
X237447Y70985D01*
X237647Y71584D01*
X237645Y71591D01*
X237649Y71593D01*
X237749Y72293D01*
X237746Y72298D01*
X237749Y72300D01*
X237749Y73600D01*
X237746Y73604D01*
X237749Y73607D01*
X237549Y75007D01*
X237541Y75015D01*
X237544Y75022D01*
X236644Y76822D01*
X236637Y76825D01*
X236638Y76831D01*
X236238Y77331D01*
X236234Y77332D01*
X236235Y77335D01*
X235235Y78335D01*
X235231Y78335D01*
X235231Y78338D01*
X234731Y78738D01*
X234723Y78739D01*
X234722Y78744D01*
X233522Y79344D01*
X233515Y79343D01*
X233514Y79347D01*
X232815Y79547D01*
X232216Y79747D01*
X232209Y79745D01*
X232207Y79749D01*
X231507Y79849D01*
X231502Y79846D01*
X231500Y79849D01*
X208600Y79849D01*
X208595Y79846D01*
X208592Y79849D01*
X207992Y79749D01*
X207293Y79649D01*
X207285Y79641D01*
X207278Y79644D01*
X206682Y79346D01*
X205986Y79147D01*
X205981Y79140D01*
X205975Y79142D01*
X205475Y78842D01*
X205474Y78841D01*
X205473Y78841D01*
X204873Y78441D01*
X204870Y78434D01*
X204865Y78435D01*
X203865Y77435D01*
X203865Y77431D01*
X203862Y77431D01*
X203462Y76931D01*
X203461Y76927D01*
X203459Y76927D01*
X203059Y76327D01*
X203059Y76323D01*
X203056Y76322D01*
X202756Y75722D01*
X202756Y75719D01*
X202755Y75719D01*
X202757Y75717D01*
X202753Y75716D01*
X202353Y74516D01*
X202355Y74509D01*
X202351Y74507D01*
X202251Y73807D01*
X202254Y73802D01*
X202251Y73800D01*
X202251Y72400D01*
X202254Y72395D01*
X202251Y72392D01*
X202351Y71792D01*
X202451Y71093D01*
X202456Y71088D01*
X202453Y71084D01*
X202653Y70484D01*
X202658Y70481D01*
X202656Y70478D01*
X202956Y69878D01*
X202960Y69876D01*
X202959Y69873D01*
X203759Y68673D01*
X203762Y68672D01*
X203762Y68669D01*
X204162Y68169D01*
X204169Y68167D01*
X204169Y68162D01*
X204669Y67762D01*
X204673Y67761D01*
X204673Y67759D01*
X205271Y67360D01*
X205769Y66962D01*
X205779Y66961D01*
X205781Y66955D01*
X206481Y66655D01*
X206484Y66656D01*
X206484Y66653D01*
X207084Y66453D01*
X207086Y66454D01*
X207086Y66453D01*
X207786Y66253D01*
X207796Y66256D01*
X207800Y66251D01*
X208397Y66251D01*
X209093Y66151D01*
X209098Y66154D01*
X209100Y66151D01*
X231400Y66151D01*
X231404Y66154D01*
G37*
G36*
X83270Y113577D02*
X83270Y113577D01*
X83272Y113577D01*
X83800Y113600D01*
X83802Y113601D01*
X83804Y113600D01*
X84858Y113706D01*
X84862Y113709D01*
X84870Y113708D01*
X85883Y114017D01*
X85885Y114020D01*
X85890Y114020D01*
X86373Y114229D01*
X86375Y114231D01*
X86379Y114232D01*
X87300Y114752D01*
X87303Y114757D01*
X87310Y114758D01*
X88127Y115433D01*
X88128Y115437D01*
X88135Y115440D01*
X88821Y116245D01*
X88821Y116249D01*
X88825Y116251D01*
X89122Y116687D01*
X89122Y116690D01*
X89125Y116693D01*
X89619Y117629D01*
X89620Y117629D01*
X89619Y117634D01*
X89624Y117639D01*
X89938Y118651D01*
X89937Y118655D01*
X89940Y118660D01*
X90023Y119181D01*
X90023Y119182D01*
X90024Y119184D01*
X90077Y119711D01*
X90076Y119713D01*
X90077Y119714D01*
X90106Y120241D01*
X90104Y120245D01*
X90106Y120251D01*
X89999Y121305D01*
X89997Y121309D01*
X89998Y121314D01*
X89867Y121826D01*
X89865Y121827D01*
X89866Y121829D01*
X89709Y122334D01*
X89707Y122336D01*
X89707Y122339D01*
X89517Y122830D01*
X89514Y122833D01*
X89514Y122838D01*
X89008Y123769D01*
X89004Y123772D01*
X89002Y123779D01*
X88329Y124597D01*
X88328Y124598D01*
X88327Y124599D01*
X88325Y124600D01*
X88324Y124603D01*
X87942Y124966D01*
X87940Y124967D01*
X87939Y124969D01*
X87530Y125306D01*
X87528Y125307D01*
X87527Y125308D01*
X87103Y125622D01*
X87099Y125622D01*
X87095Y125626D01*
X86164Y126132D01*
X86159Y126131D01*
X86153Y126136D01*
X85145Y126459D01*
X85142Y126458D01*
X85138Y126460D01*
X84621Y126564D01*
X84619Y126563D01*
X84615Y126565D01*
X83561Y126670D01*
X83558Y126668D01*
X83555Y126670D01*
X56539Y126670D01*
X56537Y126668D01*
X56533Y126670D01*
X56344Y126651D01*
X55290Y126544D01*
X55285Y126541D01*
X55278Y126542D01*
X54264Y126241D01*
X54262Y126238D01*
X54257Y126238D01*
X53771Y126036D01*
X53769Y126033D01*
X53764Y126033D01*
X52839Y125518D01*
X52837Y125514D01*
X52830Y125512D01*
X52013Y124838D01*
X52011Y124834D01*
X52006Y124831D01*
X51652Y124440D01*
X51652Y124438D01*
X51650Y124438D01*
X51313Y124029D01*
X51312Y124027D01*
X51310Y124025D01*
X51007Y123593D01*
X51007Y123590D01*
X51004Y123587D01*
X50503Y122654D01*
X50503Y122648D01*
X50498Y122643D01*
X50184Y121631D01*
X50185Y121627D01*
X50182Y121623D01*
X50091Y121104D01*
X50092Y121101D01*
X50091Y121098D01*
X50001Y120044D01*
X50004Y120039D01*
X50002Y120032D01*
X50108Y118978D01*
X50110Y118975D01*
X50109Y118970D01*
X50233Y118457D01*
X50235Y118456D01*
X50234Y118453D01*
X50391Y117948D01*
X50392Y117947D01*
X50392Y117944D01*
X50576Y117450D01*
X50579Y117447D01*
X50579Y117441D01*
X51085Y116510D01*
X51089Y116508D01*
X51091Y116501D01*
X51758Y115678D01*
X51761Y115677D01*
X51763Y115673D01*
X52140Y115305D01*
X52143Y115304D01*
X52145Y115300D01*
X52974Y114644D01*
X52979Y114643D01*
X52983Y114638D01*
X53914Y114133D01*
X53919Y114133D01*
X53925Y114128D01*
X54930Y113799D01*
X54933Y113800D01*
X54937Y113798D01*
X55452Y113686D01*
X55455Y113688D01*
X55459Y113685D01*
X56513Y113579D01*
X56515Y113580D01*
X56519Y113579D01*
X79097Y113577D01*
X79115Y113588D01*
X79136Y113590D01*
X79145Y113608D01*
X79154Y113614D01*
X79153Y113623D01*
X79160Y113636D01*
X79169Y113826D01*
X79169Y113828D01*
X79170Y113829D01*
X79189Y123457D01*
X79190Y123457D01*
X79189Y123464D01*
X79192Y123465D01*
X79191Y123472D01*
X79197Y123487D01*
X79193Y123733D01*
X81493Y123733D01*
X81504Y123507D01*
X81504Y122902D01*
X81508Y122896D01*
X81505Y122889D01*
X81525Y122869D01*
X81540Y122845D01*
X81548Y122846D01*
X81554Y122841D01*
X81604Y122852D01*
X81848Y123037D01*
X81848Y123038D01*
X81850Y123039D01*
X82255Y123368D01*
X82713Y123605D01*
X83208Y123754D01*
X83723Y123810D01*
X84242Y123777D01*
X84754Y123689D01*
X85247Y123530D01*
X85700Y123278D01*
X86100Y122951D01*
X86443Y122563D01*
X86724Y122128D01*
X86940Y121656D01*
X87072Y121152D01*
X87155Y120636D01*
X87195Y120115D01*
X87159Y119594D01*
X87086Y119076D01*
X86961Y118570D01*
X86754Y118094D01*
X86489Y117648D01*
X86164Y117244D01*
X85778Y116899D01*
X85329Y116642D01*
X84845Y116457D01*
X84340Y116339D01*
X83822Y116291D01*
X83305Y116325D01*
X82802Y116445D01*
X82337Y116667D01*
X81926Y116982D01*
X81609Y117280D01*
X81598Y117282D01*
X81592Y117291D01*
X81567Y117287D01*
X81542Y117292D01*
X81536Y117283D01*
X81525Y117281D01*
X81506Y117240D01*
X81504Y117236D01*
X81504Y117235D01*
X81504Y117234D01*
X81504Y114055D01*
X81504Y114054D01*
X81516Y113638D01*
X81528Y113620D01*
X81531Y113598D01*
X81548Y113590D01*
X81554Y113582D01*
X81564Y113583D01*
X81578Y113577D01*
X83269Y113577D01*
X83270Y113577D01*
G37*
G36*
X556686Y35708D02*
X556686Y35708D01*
X556752Y35713D01*
X556770Y35724D01*
X556791Y35729D01*
X556876Y35789D01*
X556900Y35803D01*
X556903Y35808D01*
X556908Y35812D01*
X559108Y38112D01*
X559116Y38125D01*
X559129Y38135D01*
X559160Y38199D01*
X559196Y38261D01*
X559197Y38277D01*
X559204Y38291D01*
X559203Y38362D01*
X559209Y38433D01*
X559203Y38448D01*
X559202Y38464D01*
X559145Y38589D01*
X559143Y38593D01*
X559143Y38594D01*
X557275Y41209D01*
X557277Y41220D01*
X557286Y41233D01*
X557297Y41291D01*
X557306Y41312D01*
X557306Y41334D01*
X557312Y41367D01*
X557313Y41372D01*
X557313Y41373D01*
X557313Y41374D01*
X557313Y41384D01*
X557346Y41449D01*
X557402Y41506D01*
X557413Y41524D01*
X557425Y41533D01*
X557433Y41552D01*
X557473Y41604D01*
X557546Y41749D01*
X557602Y41806D01*
X557642Y41870D01*
X557686Y41933D01*
X557688Y41945D01*
X557693Y41953D01*
X557697Y41988D01*
X557713Y42074D01*
X557713Y42123D01*
X557742Y42170D01*
X557786Y42233D01*
X557788Y42245D01*
X557793Y42253D01*
X557797Y42288D01*
X557813Y42374D01*
X557813Y42484D01*
X557846Y42549D01*
X557902Y42606D01*
X557942Y42670D01*
X557986Y42733D01*
X557988Y42745D01*
X557993Y42753D01*
X557997Y42788D01*
X558003Y42821D01*
X558006Y42829D01*
X558006Y42837D01*
X558013Y42874D01*
X558013Y42923D01*
X558042Y42970D01*
X558086Y43033D01*
X558088Y43045D01*
X558093Y43053D01*
X558097Y43088D01*
X558113Y43174D01*
X558113Y43284D01*
X558142Y43342D01*
X561398Y43900D01*
X561416Y43907D01*
X561435Y43908D01*
X561495Y43941D01*
X561557Y43967D01*
X561570Y43982D01*
X561587Y43991D01*
X561626Y44047D01*
X561670Y44098D01*
X561675Y44117D01*
X561686Y44133D01*
X561708Y44244D01*
X561713Y44266D01*
X561712Y44270D01*
X561713Y44274D01*
X561713Y47474D01*
X561709Y47493D01*
X561711Y47512D01*
X561700Y47546D01*
X561699Y47553D01*
X561694Y47563D01*
X561689Y47576D01*
X561674Y47642D01*
X561661Y47657D01*
X561655Y47675D01*
X561607Y47723D01*
X561564Y47776D01*
X561546Y47783D01*
X561532Y47797D01*
X561426Y47837D01*
X561406Y47846D01*
X561402Y47846D01*
X561398Y47848D01*
X558186Y48398D01*
X558175Y48437D01*
X558174Y48442D01*
X558173Y48443D01*
X558113Y48563D01*
X558113Y48574D01*
X558110Y48589D01*
X558112Y48605D01*
X558092Y48675D01*
X558092Y48690D01*
X558084Y48704D01*
X558075Y48737D01*
X558074Y48742D01*
X558073Y48743D01*
X558013Y48863D01*
X558013Y48874D01*
X558010Y48889D01*
X558012Y48905D01*
X557975Y49037D01*
X557974Y49042D01*
X557973Y49043D01*
X557813Y49363D01*
X557813Y49374D01*
X557810Y49389D01*
X557812Y49405D01*
X557775Y49537D01*
X557774Y49542D01*
X557773Y49543D01*
X557673Y49743D01*
X557650Y49771D01*
X557613Y49825D01*
X557613Y49874D01*
X557596Y49948D01*
X557582Y50023D01*
X557576Y50033D01*
X557574Y50042D01*
X557551Y50070D01*
X557502Y50142D01*
X557446Y50198D01*
X557373Y50343D01*
X557350Y50371D01*
X557313Y50425D01*
X557313Y50474D01*
X557296Y50548D01*
X557292Y50570D01*
X559146Y53258D01*
X559152Y53274D01*
X559164Y53287D01*
X559184Y53354D01*
X559209Y53419D01*
X559208Y53437D01*
X559213Y53453D01*
X559200Y53522D01*
X559194Y53592D01*
X559185Y53606D01*
X559182Y53623D01*
X559111Y53729D01*
X559104Y53740D01*
X559103Y53740D01*
X559102Y53742D01*
X556902Y55942D01*
X556888Y55951D01*
X556877Y55965D01*
X556815Y55996D01*
X556755Y56033D01*
X556738Y56035D01*
X556723Y56042D01*
X556653Y56043D01*
X556583Y56049D01*
X556567Y56043D01*
X556550Y56043D01*
X556432Y55992D01*
X556421Y55988D01*
X556420Y55987D01*
X556419Y55986D01*
X553720Y54124D01*
X553702Y54142D01*
X553637Y54182D01*
X553575Y54226D01*
X553563Y54228D01*
X553555Y54233D01*
X553520Y54236D01*
X553434Y54253D01*
X553384Y54253D01*
X553372Y54261D01*
X553304Y54313D01*
X553159Y54385D01*
X553102Y54442D01*
X553037Y54482D01*
X552975Y54526D01*
X552963Y54528D01*
X552955Y54533D01*
X552920Y54536D01*
X552834Y54553D01*
X552784Y54553D01*
X552772Y54561D01*
X552704Y54613D01*
X552504Y54713D01*
X552488Y54717D01*
X552475Y54726D01*
X552341Y54752D01*
X552335Y54753D01*
X552334Y54753D01*
X552324Y54753D01*
X552204Y54813D01*
X552188Y54817D01*
X552175Y54826D01*
X552041Y54852D01*
X552035Y54853D01*
X552034Y54853D01*
X551984Y54853D01*
X551937Y54882D01*
X551875Y54926D01*
X551863Y54928D01*
X551855Y54933D01*
X551820Y54936D01*
X551734Y54953D01*
X551624Y54953D01*
X551566Y54982D01*
X551008Y58238D01*
X551000Y58256D01*
X550999Y58275D01*
X550967Y58334D01*
X550940Y58397D01*
X550926Y58410D01*
X550916Y58427D01*
X550861Y58466D01*
X550809Y58510D01*
X550790Y58515D01*
X550775Y58526D01*
X550664Y58547D01*
X550642Y58553D01*
X550638Y58552D01*
X550634Y58553D01*
X547434Y58553D01*
X547415Y58549D01*
X547396Y58551D01*
X547332Y58529D01*
X547266Y58513D01*
X547251Y58501D01*
X547232Y58495D01*
X547185Y58447D01*
X547132Y58403D01*
X547124Y58386D01*
X547111Y58372D01*
X547071Y58266D01*
X547062Y58245D01*
X547062Y58242D01*
X547060Y58238D01*
X546510Y55026D01*
X546471Y55015D01*
X546466Y55013D01*
X546465Y55013D01*
X546464Y55013D01*
X546344Y54953D01*
X546334Y54953D01*
X546318Y54949D01*
X546302Y54952D01*
X546171Y54915D01*
X546166Y54913D01*
X546165Y54913D01*
X546164Y54913D01*
X546044Y54853D01*
X546034Y54853D01*
X546018Y54849D01*
X546002Y54852D01*
X545871Y54815D01*
X545866Y54813D01*
X545865Y54813D01*
X545864Y54813D01*
X545744Y54753D01*
X545634Y54753D01*
X545560Y54736D01*
X545484Y54722D01*
X545475Y54716D01*
X545466Y54713D01*
X545438Y54691D01*
X545366Y54642D01*
X545309Y54585D01*
X545244Y54553D01*
X545234Y54553D01*
X545218Y54549D01*
X545202Y54552D01*
X545071Y54515D01*
X545066Y54513D01*
X545065Y54513D01*
X545064Y54513D01*
X544864Y54413D01*
X544837Y54390D01*
X544766Y54342D01*
X544709Y54285D01*
X544644Y54253D01*
X544634Y54253D01*
X544618Y54249D01*
X544602Y54252D01*
X544471Y54215D01*
X544466Y54213D01*
X544465Y54213D01*
X544464Y54213D01*
X544323Y54142D01*
X541649Y55986D01*
X541637Y55991D01*
X541628Y56000D01*
X541557Y56022D01*
X541488Y56049D01*
X541475Y56048D01*
X541463Y56052D01*
X541390Y56040D01*
X541316Y56034D01*
X541305Y56027D01*
X541292Y56025D01*
X541172Y55948D01*
X538872Y53748D01*
X538858Y53726D01*
X538838Y53710D01*
X538811Y53654D01*
X538777Y53603D01*
X538774Y53577D01*
X538763Y53554D01*
X538764Y53492D01*
X538757Y53431D01*
X538766Y53407D01*
X538766Y53381D01*
X538804Y53301D01*
X538815Y53268D01*
X538822Y53262D01*
X538827Y53251D01*
X540762Y50578D01*
X540722Y50498D01*
X540666Y50442D01*
X540626Y50377D01*
X540582Y50314D01*
X540580Y50303D01*
X540575Y50295D01*
X540571Y50260D01*
X540555Y50174D01*
X540555Y50124D01*
X540547Y50111D01*
X540495Y50043D01*
X540422Y49898D01*
X540366Y49842D01*
X540326Y49777D01*
X540282Y49714D01*
X540280Y49703D01*
X540275Y49695D01*
X540271Y49660D01*
X540255Y49574D01*
X540255Y49524D01*
X540226Y49477D01*
X540182Y49414D01*
X540180Y49403D01*
X540175Y49395D01*
X540171Y49360D01*
X540155Y49274D01*
X540155Y49163D01*
X540122Y49098D01*
X540066Y49042D01*
X540026Y48977D01*
X539982Y48914D01*
X539980Y48903D01*
X539975Y48895D01*
X539971Y48860D01*
X539955Y48774D01*
X539955Y48724D01*
X539926Y48677D01*
X539882Y48614D01*
X539880Y48603D01*
X539875Y48595D01*
X539871Y48560D01*
X539855Y48474D01*
X539855Y48395D01*
X536572Y47848D01*
X536553Y47840D01*
X536533Y47839D01*
X536474Y47807D01*
X536412Y47781D01*
X536399Y47766D01*
X536381Y47756D01*
X536343Y47701D01*
X536299Y47651D01*
X536293Y47631D01*
X536282Y47614D01*
X536266Y47533D01*
X536262Y47523D01*
X536262Y47512D01*
X536261Y47508D01*
X536255Y47483D01*
X536256Y47479D01*
X536255Y47474D01*
X536255Y44274D01*
X536259Y44255D01*
X536257Y44236D01*
X536279Y44171D01*
X536294Y44105D01*
X536307Y44090D01*
X536313Y44072D01*
X536361Y44024D01*
X536404Y43972D01*
X536422Y43964D01*
X536436Y43950D01*
X536542Y43910D01*
X536562Y43901D01*
X536566Y43901D01*
X536570Y43900D01*
X539858Y43336D01*
X539893Y43211D01*
X539894Y43205D01*
X539895Y43205D01*
X539895Y43204D01*
X539955Y43084D01*
X539955Y43074D01*
X539958Y43058D01*
X539956Y43042D01*
X539993Y42911D01*
X539994Y42905D01*
X539995Y42905D01*
X539995Y42904D01*
X540055Y42784D01*
X540055Y42774D01*
X540058Y42758D01*
X540056Y42742D01*
X540093Y42611D01*
X540094Y42605D01*
X540095Y42605D01*
X540095Y42604D01*
X540255Y42284D01*
X540255Y42274D01*
X540258Y42258D01*
X540256Y42242D01*
X540293Y42111D01*
X540294Y42105D01*
X540295Y42105D01*
X540295Y42104D01*
X540395Y41904D01*
X540418Y41876D01*
X540466Y41806D01*
X540522Y41749D01*
X540555Y41684D01*
X540555Y41674D01*
X540558Y41658D01*
X540556Y41642D01*
X540593Y41511D01*
X540594Y41505D01*
X540595Y41505D01*
X540595Y41504D01*
X540695Y41304D01*
X540718Y41276D01*
X540766Y41206D01*
X540776Y41195D01*
X538831Y38601D01*
X538821Y38579D01*
X538804Y38560D01*
X538786Y38500D01*
X538761Y38443D01*
X538762Y38418D01*
X538755Y38394D01*
X538766Y38333D01*
X538769Y38270D01*
X538781Y38248D01*
X538786Y38224D01*
X538837Y38149D01*
X538853Y38119D01*
X538860Y38114D01*
X538866Y38106D01*
X541166Y35806D01*
X541180Y35797D01*
X541191Y35783D01*
X541253Y35751D01*
X541313Y35714D01*
X541330Y35713D01*
X541345Y35705D01*
X541416Y35705D01*
X541485Y35698D01*
X541501Y35704D01*
X541518Y35704D01*
X541636Y35756D01*
X541647Y35760D01*
X541648Y35761D01*
X541649Y35761D01*
X544348Y37623D01*
X544366Y37606D01*
X544431Y37565D01*
X544493Y37521D01*
X544505Y37519D01*
X544513Y37514D01*
X544548Y37511D01*
X544563Y37508D01*
X544566Y37506D01*
X544631Y37465D01*
X544693Y37421D01*
X544705Y37419D01*
X544713Y37414D01*
X544748Y37411D01*
X544834Y37394D01*
X544884Y37394D01*
X544931Y37365D01*
X544993Y37321D01*
X545005Y37319D01*
X545013Y37314D01*
X545048Y37311D01*
X545063Y37308D01*
X545066Y37306D01*
X545131Y37265D01*
X545193Y37221D01*
X545205Y37219D01*
X545213Y37214D01*
X545248Y37211D01*
X545263Y37208D01*
X545266Y37206D01*
X545331Y37165D01*
X545393Y37121D01*
X545405Y37119D01*
X545413Y37114D01*
X545448Y37111D01*
X545477Y37105D01*
X545504Y37072D01*
X545523Y37064D01*
X545538Y37049D01*
X545601Y37029D01*
X545662Y37001D01*
X545683Y37002D01*
X545702Y36996D01*
X545768Y37006D01*
X545835Y37008D01*
X545853Y37018D01*
X545873Y37021D01*
X545928Y37059D01*
X545987Y37091D01*
X545999Y37108D01*
X546015Y37120D01*
X546072Y37212D01*
X546086Y37233D01*
X546087Y37238D01*
X546090Y37242D01*
X548090Y42642D01*
X548094Y42673D01*
X548106Y42701D01*
X548104Y42757D01*
X548111Y42814D01*
X548101Y42843D01*
X548100Y42874D01*
X548073Y42924D01*
X548054Y42977D01*
X548032Y42999D01*
X548017Y43026D01*
X547957Y43072D01*
X547930Y43098D01*
X547917Y43102D01*
X547904Y43113D01*
X547359Y43385D01*
X547202Y43542D01*
X547172Y43561D01*
X547104Y43613D01*
X546959Y43685D01*
X546646Y43998D01*
X546573Y44143D01*
X546550Y44171D01*
X546502Y44242D01*
X546346Y44398D01*
X546285Y44519D01*
X546194Y44794D01*
X546182Y44813D01*
X546173Y44843D01*
X546113Y44963D01*
X546113Y45074D01*
X546105Y45109D01*
X546094Y45194D01*
X546013Y45435D01*
X546013Y46212D01*
X546094Y46454D01*
X546097Y46490D01*
X546113Y46574D01*
X546113Y46759D01*
X546250Y46963D01*
X546263Y46998D01*
X546294Y47054D01*
X546378Y47306D01*
X546729Y47832D01*
X547076Y48179D01*
X547602Y48530D01*
X547854Y48614D01*
X547872Y48625D01*
X547886Y48628D01*
X547899Y48639D01*
X547944Y48658D01*
X548149Y48794D01*
X548334Y48794D01*
X548369Y48803D01*
X548454Y48814D01*
X548696Y48894D01*
X549287Y48894D01*
X549642Y48806D01*
X549678Y48805D01*
X549734Y48794D01*
X549919Y48794D01*
X550124Y48658D01*
X550159Y48645D01*
X550208Y48617D01*
X550210Y48616D01*
X550211Y48616D01*
X550214Y48614D01*
X550466Y48530D01*
X550693Y48379D01*
X550866Y48206D01*
X550892Y48189D01*
X550924Y48158D01*
X551193Y47979D01*
X551339Y47832D01*
X551690Y47306D01*
X552055Y46212D01*
X552055Y45735D01*
X551974Y45494D01*
X551971Y45458D01*
X551955Y45374D01*
X551955Y45163D01*
X551795Y44843D01*
X551789Y44821D01*
X551774Y44794D01*
X551683Y44519D01*
X551522Y44198D01*
X551366Y44042D01*
X551347Y44011D01*
X551295Y43943D01*
X551222Y43798D01*
X551109Y43685D01*
X550964Y43613D01*
X550937Y43590D01*
X550866Y43542D01*
X550709Y43385D01*
X550388Y43225D01*
X550114Y43133D01*
X550065Y43103D01*
X550012Y43081D01*
X549992Y43059D01*
X549967Y43043D01*
X549936Y42994D01*
X549899Y42951D01*
X549891Y42922D01*
X549875Y42896D01*
X549869Y42839D01*
X549855Y42783D01*
X549861Y42749D01*
X549858Y42724D01*
X549870Y42692D01*
X549878Y42642D01*
X551878Y37242D01*
X551904Y37204D01*
X551920Y37161D01*
X551951Y37133D01*
X551974Y37098D01*
X552014Y37075D01*
X552047Y37044D01*
X552087Y37032D01*
X552124Y37011D01*
X552169Y37008D01*
X552213Y36995D01*
X552254Y37002D01*
X552296Y37000D01*
X552339Y37017D01*
X552384Y37025D01*
X552425Y37053D01*
X552456Y37066D01*
X552473Y37086D01*
X552486Y37094D01*
X552534Y37094D01*
X552608Y37112D01*
X552684Y37125D01*
X552693Y37132D01*
X552702Y37134D01*
X552730Y37157D01*
X552802Y37206D01*
X552809Y37212D01*
X552884Y37225D01*
X552893Y37232D01*
X552902Y37234D01*
X552930Y37257D01*
X553002Y37306D01*
X553009Y37312D01*
X553084Y37325D01*
X553093Y37332D01*
X553102Y37334D01*
X553130Y37357D01*
X553202Y37406D01*
X553209Y37412D01*
X553284Y37425D01*
X553293Y37432D01*
X553302Y37434D01*
X553330Y37457D01*
X553402Y37506D01*
X553409Y37512D01*
X553484Y37525D01*
X553493Y37532D01*
X553502Y37534D01*
X553530Y37557D01*
X553602Y37606D01*
X553609Y37612D01*
X553684Y37625D01*
X553693Y37632D01*
X553702Y37634D01*
X553703Y37634D01*
X556419Y35761D01*
X556439Y35754D01*
X556455Y35740D01*
X556518Y35722D01*
X556580Y35698D01*
X556601Y35700D01*
X556622Y35695D01*
X556686Y35708D01*
G37*
G36*
X431140Y290891D02*
X431140Y290891D01*
X431191Y290893D01*
X431223Y290911D01*
X431259Y290919D01*
X431298Y290952D01*
X431343Y290976D01*
X431364Y291006D01*
X431392Y291029D01*
X431413Y291076D01*
X431443Y291118D01*
X431451Y291160D01*
X431463Y291188D01*
X431462Y291218D01*
X431470Y291260D01*
X431470Y304060D01*
X431466Y304078D01*
X431468Y304102D01*
X431268Y305902D01*
X431257Y305933D01*
X431251Y305980D01*
X431051Y306580D01*
X431038Y306600D01*
X431030Y306630D01*
X430730Y307230D01*
X430722Y307240D01*
X430716Y307256D01*
X430416Y307756D01*
X430402Y307770D01*
X430393Y307789D01*
X430316Y307859D01*
X430295Y307880D01*
X430290Y307882D01*
X430286Y307886D01*
X429802Y308176D01*
X429418Y308464D01*
X429383Y308479D01*
X429331Y308513D01*
X428331Y308913D01*
X428298Y308918D01*
X428253Y308935D01*
X427653Y309035D01*
X427626Y309033D01*
X427590Y309040D01*
X426790Y309040D01*
X426754Y309032D01*
X426698Y309029D01*
X426343Y308940D01*
X426190Y308940D01*
X426175Y308937D01*
X426160Y308939D01*
X426028Y308902D01*
X426021Y308901D01*
X426021Y308900D01*
X426020Y308900D01*
X425820Y308800D01*
X425801Y308784D01*
X425777Y308775D01*
X425735Y308729D01*
X425687Y308689D01*
X425677Y308667D01*
X425660Y308648D01*
X425642Y308588D01*
X425616Y308531D01*
X425618Y308506D01*
X425610Y308482D01*
X425621Y308420D01*
X425624Y308358D01*
X425636Y308336D01*
X425640Y308311D01*
X425689Y308238D01*
X425707Y308206D01*
X425715Y308201D01*
X425721Y308191D01*
X425821Y308091D01*
X425853Y308071D01*
X425920Y308020D01*
X426320Y307820D01*
X426343Y307814D01*
X426370Y307799D01*
X426585Y307728D01*
X426895Y307418D01*
X427045Y307192D01*
X427110Y306998D01*
X427110Y306822D01*
X427038Y306606D01*
X426878Y306285D01*
X426648Y306056D01*
X426412Y305898D01*
X425981Y305726D01*
X425552Y305640D01*
X424837Y305640D01*
X424146Y305813D01*
X423650Y306144D01*
X423329Y306545D01*
X423170Y307022D01*
X423170Y307582D01*
X423416Y308155D01*
X424076Y308909D01*
X424874Y309807D01*
X424875Y309809D01*
X424876Y309810D01*
X425576Y310610D01*
X425592Y310639D01*
X425622Y310675D01*
X426122Y311575D01*
X426133Y311613D01*
X426161Y311678D01*
X426361Y312578D01*
X426361Y312611D01*
X426370Y312660D01*
X426370Y313460D01*
X426362Y313497D01*
X426351Y313580D01*
X426051Y314480D01*
X426030Y314514D01*
X425999Y314581D01*
X425499Y315281D01*
X425473Y315304D01*
X425443Y315344D01*
X424543Y316144D01*
X424512Y316161D01*
X424472Y316194D01*
X423372Y316794D01*
X423336Y316804D01*
X423258Y316834D01*
X422158Y317034D01*
X422129Y317033D01*
X422090Y317040D01*
X421090Y317040D01*
X421053Y317032D01*
X420970Y317021D01*
X420070Y316721D01*
X420064Y316717D01*
X420057Y316716D01*
X419257Y316416D01*
X419242Y316406D01*
X419220Y316400D01*
X419054Y316317D01*
X418620Y316100D01*
X418598Y316082D01*
X418562Y316064D01*
X418162Y315764D01*
X418147Y315746D01*
X418121Y315729D01*
X418021Y315629D01*
X418008Y315607D01*
X417988Y315591D01*
X417962Y315534D01*
X417930Y315482D01*
X417927Y315456D01*
X417917Y315432D01*
X417919Y315371D01*
X417913Y315309D01*
X417922Y315285D01*
X417923Y315259D01*
X417953Y315205D01*
X417975Y315147D01*
X417994Y315130D01*
X418006Y315107D01*
X418057Y315072D01*
X418102Y315030D01*
X418127Y315022D01*
X418148Y315007D01*
X418232Y314991D01*
X418268Y314980D01*
X418278Y314982D01*
X418290Y314980D01*
X418590Y314980D01*
X418627Y314988D01*
X418710Y314999D01*
X418952Y315080D01*
X419143Y315080D01*
X419498Y314991D01*
X419506Y314991D01*
X419515Y314987D01*
X419966Y314897D01*
X420289Y314735D01*
X420610Y314495D01*
X420745Y314292D01*
X420829Y314040D01*
X420842Y314020D01*
X420850Y313990D01*
X420938Y313814D01*
X420989Y313660D01*
X420929Y313480D01*
X420928Y313467D01*
X420921Y313452D01*
X420837Y313116D01*
X420674Y312871D01*
X420666Y312851D01*
X420650Y312830D01*
X420478Y312485D01*
X420248Y312256D01*
X419979Y312076D01*
X419972Y312069D01*
X419962Y312064D01*
X419570Y311771D01*
X419299Y311590D01*
X418867Y311374D01*
X418600Y311240D01*
X418052Y311240D01*
X417859Y311305D01*
X417710Y311404D01*
X417570Y311822D01*
X417570Y312560D01*
X417558Y312610D01*
X417558Y312631D01*
X417557Y312655D01*
X417556Y312662D01*
X417539Y312694D01*
X417531Y312729D01*
X417498Y312769D01*
X417473Y312814D01*
X417443Y312835D01*
X417421Y312862D01*
X417373Y312884D01*
X417331Y312913D01*
X417295Y312919D01*
X417262Y312933D01*
X417211Y312931D01*
X417160Y312939D01*
X417119Y312928D01*
X417089Y312927D01*
X417062Y312912D01*
X417020Y312900D01*
X417009Y312895D01*
X416249Y312515D01*
X416220Y312500D01*
X416216Y312497D01*
X416106Y312413D01*
X415306Y311513D01*
X415291Y311485D01*
X415262Y311452D01*
X414562Y310252D01*
X414553Y310223D01*
X414532Y310188D01*
X414032Y308788D01*
X414029Y308762D01*
X414016Y308730D01*
X413716Y307130D01*
X413718Y307094D01*
X413710Y307039D01*
X413810Y305239D01*
X413820Y305207D01*
X413824Y305158D01*
X414324Y303358D01*
X414341Y303327D01*
X414358Y303275D01*
X415358Y301475D01*
X415375Y301457D01*
X415390Y301427D01*
X416090Y300527D01*
X416097Y300521D01*
X416101Y300513D01*
X416111Y300507D01*
X416121Y300491D01*
X416921Y299691D01*
X416931Y299685D01*
X416940Y299674D01*
X417740Y298974D01*
X417765Y298960D01*
X417794Y298934D01*
X418794Y298334D01*
X418819Y298326D01*
X418849Y298307D01*
X419849Y297907D01*
X419868Y297904D01*
X419890Y297893D01*
X420990Y297593D01*
X421007Y297593D01*
X421028Y297585D01*
X422228Y297385D01*
X422254Y297387D01*
X422290Y297380D01*
X424159Y297380D01*
X424656Y297297D01*
X425072Y297047D01*
X426022Y296287D01*
X426498Y295717D01*
X426510Y295707D01*
X426521Y295691D01*
X427799Y294414D01*
X428281Y293739D01*
X428301Y293721D01*
X428321Y293691D01*
X428909Y293103D01*
X429398Y292517D01*
X429410Y292507D01*
X429421Y292491D01*
X429902Y292010D01*
X430186Y291632D01*
X430204Y291617D01*
X430221Y291591D01*
X430495Y291318D01*
X430674Y291049D01*
X430693Y291031D01*
X430706Y291007D01*
X430756Y290972D01*
X430800Y290931D01*
X430826Y290923D01*
X430848Y290907D01*
X430929Y290892D01*
X430966Y290881D01*
X430977Y290882D01*
X430990Y290880D01*
X431090Y290880D01*
X431140Y290891D01*
G37*
G36*
X476829Y265391D02*
X476829Y265391D01*
X476891Y265393D01*
X476913Y265406D01*
X476939Y265410D01*
X477010Y265458D01*
X477043Y265476D01*
X477049Y265484D01*
X477059Y265491D01*
X477944Y266376D01*
X479428Y267563D01*
X479439Y267578D01*
X479459Y267591D01*
X480344Y268476D01*
X480828Y268863D01*
X480834Y268871D01*
X480843Y268876D01*
X480887Y268939D01*
X480935Y268999D01*
X480937Y269009D01*
X480943Y269018D01*
X480958Y269099D01*
X480963Y269110D01*
X480963Y269122D01*
X480970Y269160D01*
X480970Y287660D01*
X480969Y287664D01*
X480970Y287669D01*
X480950Y287749D01*
X480931Y287829D01*
X480928Y287832D01*
X480927Y287837D01*
X480873Y287899D01*
X480821Y287962D01*
X480816Y287964D01*
X480814Y287968D01*
X480682Y288029D01*
X480282Y288129D01*
X480274Y288129D01*
X480265Y288133D01*
X479765Y288233D01*
X479733Y288232D01*
X479690Y288240D01*
X479237Y288240D01*
X478882Y288329D01*
X478874Y288329D01*
X478865Y288333D01*
X478373Y288431D01*
X477982Y288529D01*
X477974Y288529D01*
X477965Y288533D01*
X476965Y288733D01*
X476963Y288733D01*
X476962Y288733D01*
X476878Y288730D01*
X476791Y288727D01*
X476790Y288727D01*
X476789Y288727D01*
X476715Y288686D01*
X476639Y288645D01*
X476638Y288644D01*
X476637Y288644D01*
X476589Y288575D01*
X476538Y288504D01*
X476538Y288503D01*
X476537Y288502D01*
X476510Y288360D01*
X476510Y287578D01*
X476359Y287729D01*
X476343Y287739D01*
X476328Y287757D01*
X475828Y288157D01*
X475807Y288167D01*
X475786Y288186D01*
X474786Y288786D01*
X474773Y288790D01*
X474653Y288835D01*
X473453Y289035D01*
X473426Y289033D01*
X473390Y289040D01*
X472690Y289040D01*
X472679Y289038D01*
X472665Y289039D01*
X471165Y288939D01*
X471128Y288928D01*
X471062Y288918D01*
X469662Y288418D01*
X469633Y288399D01*
X469586Y288381D01*
X468486Y287681D01*
X468459Y287653D01*
X468407Y287614D01*
X467507Y286614D01*
X467494Y286591D01*
X467469Y286564D01*
X466769Y285464D01*
X466757Y285428D01*
X466727Y285372D01*
X466327Y284072D01*
X466326Y284057D01*
X466318Y284040D01*
X466018Y282640D01*
X466019Y282616D01*
X466011Y282585D01*
X465911Y281085D01*
X465914Y281063D01*
X465911Y281033D01*
X466011Y279633D01*
X466018Y279609D01*
X466020Y279575D01*
X466320Y278275D01*
X466332Y278250D01*
X466339Y278214D01*
X466839Y277014D01*
X466849Y276999D01*
X466856Y276978D01*
X467456Y275878D01*
X467482Y275849D01*
X467521Y275791D01*
X468421Y274891D01*
X468443Y274878D01*
X468466Y274852D01*
X469566Y274052D01*
X469602Y274037D01*
X469670Y273999D01*
X470870Y273599D01*
X470900Y273596D01*
X470940Y273583D01*
X472440Y273383D01*
X472479Y273387D01*
X472553Y273385D01*
X474353Y273685D01*
X474389Y273700D01*
X474460Y273720D01*
X474590Y273785D01*
X475060Y274020D01*
X475070Y274028D01*
X475086Y274034D01*
X476086Y274634D01*
X476106Y274654D01*
X476187Y274722D01*
X476410Y275001D01*
X476410Y265760D01*
X476416Y265735D01*
X476413Y265709D01*
X476435Y265652D01*
X476449Y265591D01*
X476466Y265571D01*
X476475Y265547D01*
X476520Y265505D01*
X476559Y265458D01*
X476583Y265447D01*
X476602Y265430D01*
X476661Y265412D01*
X476718Y265387D01*
X476743Y265388D01*
X476768Y265380D01*
X476829Y265391D01*
G37*
G36*
X460820Y273387D02*
X460820Y273387D01*
X460865Y273387D01*
X461328Y273480D01*
X461790Y273480D01*
X461826Y273488D01*
X461882Y273491D01*
X462282Y273591D01*
X462302Y273601D01*
X462331Y273607D01*
X462831Y273807D01*
X462843Y273815D01*
X462860Y273820D01*
X463260Y274020D01*
X463276Y274033D01*
X463301Y274044D01*
X463581Y274231D01*
X463960Y274420D01*
X463989Y274444D01*
X464059Y274491D01*
X464359Y274791D01*
X464375Y274818D01*
X464406Y274849D01*
X464601Y275140D01*
X464894Y275532D01*
X464898Y275541D01*
X464906Y275549D01*
X465106Y275849D01*
X465107Y275850D01*
X465108Y275851D01*
X465163Y275985D01*
X465253Y276436D01*
X465430Y276790D01*
X465434Y276805D01*
X465443Y276818D01*
X465469Y276952D01*
X465470Y276959D01*
X465470Y276960D01*
X465470Y277422D01*
X465563Y277885D01*
X465563Y277895D01*
X465564Y278028D01*
X465364Y279128D01*
X465355Y279150D01*
X465351Y279180D01*
X465051Y280080D01*
X465034Y280107D01*
X465020Y280149D01*
X464620Y280849D01*
X464597Y280873D01*
X464537Y280949D01*
X463837Y281549D01*
X463811Y281563D01*
X463779Y281590D01*
X463079Y281990D01*
X463053Y281998D01*
X463024Y282016D01*
X462224Y282316D01*
X462205Y282319D01*
X462182Y282329D01*
X461382Y282529D01*
X461360Y282529D01*
X461332Y282538D01*
X460432Y282638D01*
X458638Y282837D01*
X457969Y282933D01*
X457303Y283123D01*
X456750Y283308D01*
X456350Y283548D01*
X456170Y283787D01*
X456170Y284670D01*
X456403Y285135D01*
X456459Y285191D01*
X456479Y285223D01*
X456530Y285290D01*
X456573Y285377D01*
X456980Y285580D01*
X457090Y285580D01*
X457105Y285583D01*
X457120Y285581D01*
X457252Y285618D01*
X457259Y285619D01*
X457259Y285620D01*
X457260Y285620D01*
X457380Y285680D01*
X459000Y285680D01*
X459865Y285248D01*
X460178Y284935D01*
X460238Y284814D01*
X460329Y284540D01*
X460342Y284520D01*
X460350Y284490D01*
X460410Y284370D01*
X460410Y283960D01*
X460421Y283910D01*
X460423Y283859D01*
X460441Y283827D01*
X460449Y283791D01*
X460482Y283752D01*
X460506Y283707D01*
X460536Y283686D01*
X460559Y283658D01*
X460606Y283637D01*
X460648Y283607D01*
X460690Y283599D01*
X460718Y283587D01*
X460748Y283588D01*
X460790Y283580D01*
X464690Y283580D01*
X464770Y283598D01*
X464850Y283615D01*
X464854Y283618D01*
X464859Y283619D01*
X464922Y283672D01*
X464986Y283722D01*
X464988Y283726D01*
X464992Y283729D01*
X465026Y283804D01*
X465061Y283878D01*
X465061Y283883D01*
X465063Y283888D01*
X465062Y283915D01*
X465065Y284023D01*
X464865Y285223D01*
X464855Y285246D01*
X464855Y285248D01*
X464854Y285268D01*
X464852Y285273D01*
X464851Y285280D01*
X464651Y285880D01*
X464631Y285912D01*
X464594Y285988D01*
X464306Y286372D01*
X464016Y286856D01*
X464004Y286868D01*
X463994Y286888D01*
X463694Y287288D01*
X463669Y287309D01*
X463662Y287322D01*
X463647Y287333D01*
X463618Y287364D01*
X463218Y287664D01*
X463202Y287671D01*
X463186Y287686D01*
X462186Y288286D01*
X462161Y288294D01*
X462131Y288313D01*
X461631Y288513D01*
X461602Y288517D01*
X461565Y288533D01*
X461088Y288628D01*
X460510Y288821D01*
X460485Y288823D01*
X460453Y288835D01*
X459859Y288934D01*
X459365Y289033D01*
X459333Y289032D01*
X459290Y289040D01*
X456990Y289040D01*
X456960Y289033D01*
X456915Y289033D01*
X456452Y288940D01*
X455890Y288940D01*
X455860Y288933D01*
X455815Y288933D01*
X455315Y288833D01*
X455289Y288821D01*
X455249Y288813D01*
X454781Y288626D01*
X454315Y288533D01*
X454289Y288521D01*
X454249Y288513D01*
X453749Y288313D01*
X453718Y288291D01*
X453662Y288264D01*
X452462Y287364D01*
X452437Y287334D01*
X452386Y287288D01*
X452086Y286888D01*
X452074Y286862D01*
X452050Y286830D01*
X451850Y286430D01*
X451847Y286416D01*
X451837Y286401D01*
X451637Y285901D01*
X451633Y285872D01*
X451617Y285835D01*
X451517Y285335D01*
X451518Y285303D01*
X451510Y285260D01*
X451510Y276650D01*
X451450Y276530D01*
X451446Y276515D01*
X451437Y276502D01*
X451411Y276368D01*
X451410Y276362D01*
X451410Y276361D01*
X451410Y276360D01*
X451410Y275550D01*
X451350Y275430D01*
X451346Y275415D01*
X451337Y275402D01*
X451328Y275356D01*
X451327Y275353D01*
X451327Y275351D01*
X451311Y275268D01*
X451310Y275262D01*
X451310Y275261D01*
X451310Y275260D01*
X451310Y275150D01*
X451250Y275030D01*
X451246Y275015D01*
X451237Y275002D01*
X451211Y274868D01*
X451210Y274862D01*
X451210Y274861D01*
X451210Y274860D01*
X451210Y274650D01*
X451178Y274585D01*
X451121Y274529D01*
X451081Y274464D01*
X451037Y274402D01*
X451035Y274390D01*
X451030Y274382D01*
X451026Y274345D01*
X451010Y274260D01*
X451010Y274160D01*
X451021Y274110D01*
X451023Y274059D01*
X451041Y274027D01*
X451049Y273991D01*
X451082Y273952D01*
X451106Y273907D01*
X451136Y273886D01*
X451159Y273858D01*
X451206Y273837D01*
X451248Y273807D01*
X451290Y273799D01*
X451318Y273787D01*
X451348Y273788D01*
X451390Y273780D01*
X455290Y273780D01*
X455340Y273791D01*
X455391Y273793D01*
X455423Y273811D01*
X455459Y273819D01*
X455498Y273852D01*
X455543Y273876D01*
X455564Y273906D01*
X455592Y273929D01*
X455613Y273976D01*
X455643Y274018D01*
X455651Y274060D01*
X455663Y274088D01*
X455663Y274098D01*
X455699Y274156D01*
X455743Y274218D01*
X455745Y274230D01*
X455750Y274238D01*
X455754Y274275D01*
X455756Y274289D01*
X455759Y274291D01*
X455799Y274356D01*
X455843Y274418D01*
X455845Y274430D01*
X455850Y274438D01*
X455854Y274475D01*
X455870Y274560D01*
X455870Y274709D01*
X455883Y274730D01*
X456021Y274591D01*
X456048Y274575D01*
X456079Y274544D01*
X456379Y274344D01*
X456415Y274330D01*
X456470Y274299D01*
X456722Y274215D01*
X456979Y274044D01*
X457015Y274030D01*
X457070Y273999D01*
X458270Y273599D01*
X458307Y273596D01*
X458390Y273580D01*
X458628Y273580D01*
X458870Y273499D01*
X458907Y273496D01*
X458990Y273480D01*
X459328Y273480D01*
X459570Y273399D01*
X459607Y273396D01*
X459690Y273380D01*
X460790Y273380D01*
X460820Y273387D01*
G37*
G36*
X429822Y273787D02*
X429822Y273787D01*
X429856Y273785D01*
X429906Y273807D01*
X429959Y273819D01*
X429984Y273840D01*
X430015Y273853D01*
X430062Y273905D01*
X430092Y273929D01*
X430099Y273945D01*
X430113Y273960D01*
X433769Y279866D01*
X434810Y278895D01*
X434810Y274160D01*
X434821Y274110D01*
X434823Y274059D01*
X434841Y274027D01*
X434849Y273991D01*
X434882Y273952D01*
X434906Y273907D01*
X434936Y273886D01*
X434959Y273858D01*
X435006Y273837D01*
X435048Y273807D01*
X435090Y273799D01*
X435118Y273787D01*
X435148Y273788D01*
X435190Y273780D01*
X439090Y273780D01*
X439140Y273791D01*
X439191Y273793D01*
X439223Y273811D01*
X439259Y273819D01*
X439298Y273852D01*
X439343Y273876D01*
X439364Y273906D01*
X439392Y273929D01*
X439413Y273976D01*
X439443Y274018D01*
X439451Y274060D01*
X439463Y274088D01*
X439462Y274118D01*
X439470Y274160D01*
X439470Y291560D01*
X439460Y291603D01*
X439460Y291648D01*
X439441Y291687D01*
X439431Y291729D01*
X439402Y291763D01*
X439382Y291803D01*
X439343Y291836D01*
X439321Y291862D01*
X439297Y291873D01*
X439270Y291895D01*
X435370Y293995D01*
X435315Y294010D01*
X435262Y294033D01*
X435232Y294032D01*
X435203Y294040D01*
X435147Y294029D01*
X435089Y294027D01*
X435063Y294012D01*
X435033Y294006D01*
X434988Y293971D01*
X434937Y293944D01*
X434920Y293919D01*
X434896Y293901D01*
X434870Y293849D01*
X434837Y293802D01*
X434831Y293768D01*
X434819Y293745D01*
X434820Y293710D01*
X434810Y293660D01*
X434810Y284205D01*
X430564Y288623D01*
X430497Y288667D01*
X430432Y288713D01*
X430424Y288714D01*
X430419Y288718D01*
X430386Y288722D01*
X430290Y288740D01*
X425690Y288740D01*
X425663Y288734D01*
X425636Y288736D01*
X425580Y288714D01*
X425521Y288701D01*
X425500Y288683D01*
X425474Y288673D01*
X425434Y288629D01*
X425388Y288591D01*
X425376Y288565D01*
X425358Y288545D01*
X425341Y288487D01*
X425317Y288432D01*
X425318Y288405D01*
X425310Y288378D01*
X425321Y288319D01*
X425323Y288259D01*
X425337Y288235D01*
X425342Y288208D01*
X425388Y288141D01*
X425406Y288107D01*
X425416Y288100D01*
X425424Y288089D01*
X430501Y283107D01*
X424772Y274368D01*
X424747Y274299D01*
X424717Y274232D01*
X424717Y274219D01*
X424713Y274206D01*
X424721Y274133D01*
X424723Y274059D01*
X424730Y274047D01*
X424731Y274034D01*
X424771Y273972D01*
X424806Y273907D01*
X424817Y273899D01*
X424825Y273888D01*
X424888Y273850D01*
X424948Y273807D01*
X424963Y273804D01*
X424973Y273798D01*
X425012Y273795D01*
X425090Y273780D01*
X429790Y273780D01*
X429822Y273787D01*
G37*
G36*
X390340Y273791D02*
X390340Y273791D01*
X390391Y273793D01*
X390423Y273811D01*
X390459Y273819D01*
X390498Y273852D01*
X390543Y273876D01*
X390564Y273906D01*
X390592Y273929D01*
X390613Y273976D01*
X390643Y274018D01*
X390651Y274060D01*
X390663Y274088D01*
X390662Y274118D01*
X390670Y274160D01*
X390670Y282136D01*
X390767Y282909D01*
X390866Y283603D01*
X390953Y284126D01*
X391206Y284548D01*
X391450Y284872D01*
X391829Y285100D01*
X392259Y285186D01*
X392798Y285276D01*
X393535Y285184D01*
X394056Y285097D01*
X394436Y284869D01*
X394777Y284442D01*
X395051Y283987D01*
X395318Y283362D01*
X395410Y282539D01*
X395410Y274160D01*
X395421Y274110D01*
X395423Y274059D01*
X395441Y274027D01*
X395449Y273991D01*
X395482Y273952D01*
X395506Y273907D01*
X395536Y273886D01*
X395559Y273858D01*
X395606Y273837D01*
X395648Y273807D01*
X395690Y273799D01*
X395718Y273787D01*
X395748Y273788D01*
X395790Y273780D01*
X399690Y273780D01*
X399740Y273791D01*
X399791Y273793D01*
X399823Y273811D01*
X399859Y273819D01*
X399898Y273852D01*
X399943Y273876D01*
X399964Y273906D01*
X399992Y273929D01*
X400013Y273976D01*
X400043Y274018D01*
X400051Y274060D01*
X400063Y274088D01*
X400062Y274118D01*
X400070Y274160D01*
X400070Y288360D01*
X400059Y288410D01*
X400057Y288461D01*
X400039Y288493D01*
X400031Y288529D01*
X399998Y288568D01*
X399974Y288613D01*
X399944Y288634D01*
X399921Y288662D01*
X399874Y288683D01*
X399832Y288713D01*
X399790Y288721D01*
X399762Y288733D01*
X399732Y288732D01*
X399690Y288740D01*
X395990Y288740D01*
X395940Y288729D01*
X395889Y288727D01*
X395857Y288709D01*
X395821Y288701D01*
X395782Y288668D01*
X395737Y288644D01*
X395716Y288614D01*
X395688Y288591D01*
X395667Y288544D01*
X395637Y288502D01*
X395629Y288460D01*
X395617Y288432D01*
X395618Y288402D01*
X395610Y288360D01*
X395610Y287378D01*
X395359Y287629D01*
X395343Y287639D01*
X395328Y287657D01*
X394828Y288057D01*
X394814Y288063D01*
X394801Y288076D01*
X394201Y288476D01*
X394165Y288490D01*
X394110Y288521D01*
X392910Y288921D01*
X392885Y288923D01*
X392853Y288935D01*
X392253Y289035D01*
X392226Y289033D01*
X392190Y289040D01*
X391590Y289040D01*
X391578Y289037D01*
X391563Y289039D01*
X390163Y288939D01*
X390133Y288930D01*
X390090Y288927D01*
X388990Y288627D01*
X388958Y288610D01*
X388905Y288592D01*
X388005Y288092D01*
X387977Y288066D01*
X387921Y288029D01*
X387221Y287329D01*
X387203Y287299D01*
X387168Y287262D01*
X386668Y286462D01*
X386655Y286425D01*
X386626Y286369D01*
X386326Y285369D01*
X386325Y285350D01*
X386316Y285328D01*
X386116Y284228D01*
X386117Y284211D01*
X386111Y284189D01*
X386011Y282889D01*
X386013Y282876D01*
X386010Y282860D01*
X386010Y274160D01*
X386021Y274110D01*
X386023Y274059D01*
X386041Y274027D01*
X386049Y273991D01*
X386082Y273952D01*
X386106Y273907D01*
X386136Y273886D01*
X386159Y273858D01*
X386206Y273837D01*
X386248Y273807D01*
X386290Y273799D01*
X386318Y273787D01*
X386348Y273788D01*
X386390Y273780D01*
X390290Y273780D01*
X390340Y273791D01*
G37*
G36*
X411317Y273481D02*
X411317Y273481D01*
X411354Y273492D01*
X411420Y273503D01*
X412520Y273903D01*
X412542Y273917D01*
X412575Y273928D01*
X413475Y274428D01*
X413498Y274449D01*
X413537Y274471D01*
X414237Y275071D01*
X414254Y275094D01*
X414322Y275175D01*
X414822Y276075D01*
X414832Y276108D01*
X414854Y276151D01*
X415154Y277151D01*
X415155Y277170D01*
X415164Y277192D01*
X415364Y278292D01*
X415363Y278321D01*
X415370Y278360D01*
X415370Y288360D01*
X415359Y288410D01*
X415357Y288461D01*
X415339Y288493D01*
X415331Y288529D01*
X415298Y288568D01*
X415274Y288613D01*
X415244Y288634D01*
X415221Y288662D01*
X415174Y288683D01*
X415132Y288713D01*
X415090Y288721D01*
X415062Y288733D01*
X415032Y288732D01*
X414990Y288740D01*
X411190Y288740D01*
X411140Y288729D01*
X411089Y288727D01*
X411057Y288709D01*
X411021Y288701D01*
X410982Y288668D01*
X410937Y288644D01*
X410916Y288614D01*
X410888Y288591D01*
X410867Y288544D01*
X410837Y288502D01*
X410829Y288460D01*
X410817Y288432D01*
X410818Y288402D01*
X410810Y288360D01*
X410810Y280384D01*
X410614Y278815D01*
X410530Y278314D01*
X410031Y277648D01*
X409651Y277420D01*
X409221Y277334D01*
X408682Y277244D01*
X407945Y277336D01*
X407424Y277423D01*
X407026Y277662D01*
X406703Y277985D01*
X406435Y278520D01*
X406161Y279160D01*
X406070Y279884D01*
X406070Y288360D01*
X406059Y288410D01*
X406057Y288461D01*
X406039Y288493D01*
X406031Y288529D01*
X405998Y288568D01*
X405974Y288613D01*
X405944Y288634D01*
X405921Y288662D01*
X405874Y288683D01*
X405832Y288713D01*
X405790Y288721D01*
X405762Y288733D01*
X405732Y288732D01*
X405690Y288740D01*
X401790Y288740D01*
X401740Y288729D01*
X401689Y288727D01*
X401657Y288709D01*
X401621Y288701D01*
X401582Y288668D01*
X401537Y288644D01*
X401516Y288614D01*
X401488Y288591D01*
X401467Y288544D01*
X401437Y288502D01*
X401429Y288460D01*
X401417Y288432D01*
X401418Y288402D01*
X401410Y288360D01*
X401410Y274160D01*
X401421Y274110D01*
X401423Y274059D01*
X401441Y274027D01*
X401449Y273991D01*
X401482Y273952D01*
X401506Y273907D01*
X401536Y273886D01*
X401559Y273858D01*
X401606Y273837D01*
X401648Y273807D01*
X401690Y273799D01*
X401718Y273787D01*
X401748Y273788D01*
X401790Y273780D01*
X405490Y273780D01*
X405540Y273791D01*
X405591Y273793D01*
X405623Y273811D01*
X405659Y273819D01*
X405698Y273852D01*
X405743Y273876D01*
X405764Y273906D01*
X405792Y273929D01*
X405813Y273976D01*
X405843Y274018D01*
X405851Y274060D01*
X405863Y274088D01*
X405862Y274118D01*
X405870Y274160D01*
X405870Y275101D01*
X406093Y274822D01*
X406120Y274801D01*
X406152Y274763D01*
X406652Y274363D01*
X406682Y274349D01*
X406720Y274320D01*
X407320Y274020D01*
X407334Y274017D01*
X407349Y274007D01*
X407849Y273807D01*
X407859Y273805D01*
X407870Y273799D01*
X408470Y273599D01*
X408499Y273597D01*
X408536Y273584D01*
X409233Y273484D01*
X409828Y273385D01*
X409863Y273387D01*
X409917Y273381D01*
X411317Y273481D01*
G37*
G36*
X489922Y273481D02*
X489922Y273481D01*
X489935Y273485D01*
X489953Y273485D01*
X491153Y273685D01*
X491168Y273692D01*
X491190Y273693D01*
X492290Y273993D01*
X492318Y274008D01*
X492360Y274020D01*
X492680Y274180D01*
X493360Y274520D01*
X493389Y274544D01*
X493440Y274574D01*
X494240Y275274D01*
X494258Y275299D01*
X494290Y275327D01*
X494990Y276227D01*
X495006Y276262D01*
X495043Y276319D01*
X495443Y277319D01*
X495448Y277353D01*
X495466Y277402D01*
X495666Y278702D01*
X495660Y278782D01*
X495657Y278861D01*
X495653Y278867D01*
X495652Y278875D01*
X495612Y278943D01*
X495574Y279013D01*
X495568Y279017D01*
X495564Y279024D01*
X495497Y279067D01*
X495432Y279113D01*
X495424Y279114D01*
X495418Y279118D01*
X495385Y279122D01*
X495290Y279140D01*
X491590Y279140D01*
X491540Y279129D01*
X491489Y279127D01*
X491457Y279109D01*
X491421Y279101D01*
X491382Y279068D01*
X491337Y279044D01*
X491316Y279014D01*
X491288Y278991D01*
X491267Y278944D01*
X491237Y278902D01*
X491229Y278860D01*
X491217Y278832D01*
X491218Y278802D01*
X491210Y278760D01*
X491210Y278233D01*
X491056Y277848D01*
X490818Y277532D01*
X490136Y277020D01*
X489628Y276935D01*
X489622Y276933D01*
X489615Y276933D01*
X489121Y276834D01*
X488606Y276748D01*
X488282Y276829D01*
X488246Y276829D01*
X488190Y276840D01*
X487837Y276840D01*
X487523Y276919D01*
X487191Y277085D01*
X486840Y277348D01*
X486633Y277554D01*
X486482Y278160D01*
X486549Y278427D01*
X486690Y278710D01*
X487002Y278944D01*
X487450Y279212D01*
X487996Y279395D01*
X489573Y279789D01*
X490565Y279987D01*
X490568Y279989D01*
X490573Y279989D01*
X491473Y280189D01*
X491493Y280199D01*
X491524Y280204D01*
X492324Y280504D01*
X492330Y280508D01*
X492340Y280511D01*
X493040Y280811D01*
X493055Y280822D01*
X493079Y280830D01*
X493779Y281230D01*
X493787Y281238D01*
X493801Y281244D01*
X494401Y281644D01*
X494402Y281645D01*
X494405Y281646D01*
X494506Y281749D01*
X494906Y282349D01*
X494917Y282377D01*
X494940Y282410D01*
X495240Y283110D01*
X495246Y283149D01*
X495252Y283168D01*
X495264Y283194D01*
X495264Y283204D01*
X495268Y283218D01*
X495368Y284118D01*
X495364Y284149D01*
X495369Y284192D01*
X495269Y285392D01*
X495257Y285429D01*
X495243Y285501D01*
X494843Y286501D01*
X494823Y286530D01*
X494776Y286610D01*
X494076Y287410D01*
X494057Y287424D01*
X494037Y287449D01*
X493337Y288049D01*
X493305Y288066D01*
X493260Y288100D01*
X492260Y288600D01*
X492223Y288609D01*
X492165Y288633D01*
X491165Y288833D01*
X491162Y288833D01*
X491158Y288834D01*
X490058Y289034D01*
X490029Y289033D01*
X489990Y289040D01*
X487690Y289040D01*
X487662Y289034D01*
X487622Y289034D01*
X486522Y288834D01*
X486505Y288827D01*
X486481Y288824D01*
X485481Y288524D01*
X485462Y288514D01*
X485436Y288507D01*
X484536Y288107D01*
X484508Y288087D01*
X484462Y288064D01*
X483662Y287464D01*
X483637Y287434D01*
X483586Y287388D01*
X482986Y286588D01*
X482974Y286562D01*
X482950Y286530D01*
X482450Y285530D01*
X482441Y285492D01*
X482415Y285423D01*
X482215Y284223D01*
X482220Y284141D01*
X482223Y284059D01*
X482226Y284055D01*
X482226Y284050D01*
X482267Y283979D01*
X482306Y283907D01*
X482310Y283904D01*
X482313Y283900D01*
X482381Y283854D01*
X482448Y283807D01*
X482453Y283806D01*
X482457Y283804D01*
X482485Y283800D01*
X482590Y283780D01*
X486290Y283780D01*
X486303Y283783D01*
X486317Y283781D01*
X486387Y283802D01*
X486459Y283819D01*
X486469Y283828D01*
X486482Y283832D01*
X486536Y283883D01*
X486592Y283929D01*
X486598Y283942D01*
X486608Y283951D01*
X486663Y284085D01*
X486756Y284551D01*
X486928Y284982D01*
X487064Y285186D01*
X487281Y285331D01*
X487646Y285513D01*
X488063Y285680D01*
X489628Y285680D01*
X489870Y285599D01*
X489883Y285598D01*
X489898Y285591D01*
X490284Y285495D01*
X490446Y285441D01*
X490710Y285045D01*
X490710Y284807D01*
X490640Y284527D01*
X490418Y284232D01*
X490089Y283985D01*
X489544Y283712D01*
X489005Y283533D01*
X488243Y283437D01*
X488224Y283430D01*
X488198Y283429D01*
X485802Y282830D01*
X484908Y282631D01*
X484872Y282614D01*
X484801Y282590D01*
X483401Y281790D01*
X483381Y281771D01*
X483347Y281752D01*
X482747Y281252D01*
X482723Y281221D01*
X482718Y281216D01*
X482717Y281215D01*
X482674Y281171D01*
X482274Y280571D01*
X482263Y280543D01*
X482241Y280510D01*
X481941Y279810D01*
X481934Y279771D01*
X481912Y279702D01*
X481812Y278802D01*
X481817Y278764D01*
X481814Y278702D01*
X482014Y277402D01*
X482026Y277373D01*
X482033Y277330D01*
X482433Y276230D01*
X482454Y276197D01*
X482486Y276132D01*
X483086Y275332D01*
X483111Y275311D01*
X483140Y275274D01*
X483940Y274574D01*
X483973Y274556D01*
X484020Y274520D01*
X485020Y274020D01*
X485050Y274013D01*
X485090Y273993D01*
X486190Y273693D01*
X486207Y273693D01*
X486228Y273685D01*
X487428Y273485D01*
X487442Y273486D01*
X487458Y273481D01*
X488658Y273381D01*
X488685Y273385D01*
X488722Y273381D01*
X489922Y273481D01*
G37*
G36*
X462814Y252863D02*
X462814Y252863D01*
X462826Y252858D01*
X463626Y253358D01*
X463633Y253377D01*
X463645Y253379D01*
X464744Y255778D01*
X465428Y256951D01*
X467391Y256951D01*
X468151Y256666D01*
X468151Y254600D01*
X468153Y254597D01*
X468151Y254595D01*
X468251Y253595D01*
X468271Y253574D01*
X468271Y253560D01*
X468971Y253060D01*
X468990Y253060D01*
X468996Y253051D01*
X470196Y252951D01*
X470206Y252958D01*
X470213Y252953D01*
X471313Y253253D01*
X471332Y253277D01*
X471345Y253281D01*
X471645Y253981D01*
X471642Y253994D01*
X471649Y254000D01*
X471649Y266300D01*
X471640Y266313D01*
X471644Y266322D01*
X471244Y267122D01*
X471216Y267136D01*
X471210Y267148D01*
X470210Y267348D01*
X470203Y267345D01*
X470200Y267349D01*
X465100Y267349D01*
X465092Y267343D01*
X465086Y267347D01*
X464086Y267047D01*
X464083Y267043D01*
X464080Y267045D01*
X463180Y266645D01*
X463176Y266637D01*
X463170Y266639D01*
X462270Y265939D01*
X462269Y265934D01*
X462265Y265935D01*
X461565Y265235D01*
X461564Y265225D01*
X461557Y265224D01*
X461057Y264324D01*
X461057Y264321D01*
X461055Y264320D01*
X460655Y263420D01*
X460658Y263409D01*
X460651Y263405D01*
X460551Y262405D01*
X460553Y262402D01*
X460551Y262400D01*
X460551Y261300D01*
X460557Y261292D01*
X460553Y261286D01*
X460853Y260286D01*
X460857Y260283D01*
X460855Y260280D01*
X461255Y259380D01*
X461262Y259376D01*
X461261Y259370D01*
X461848Y258587D01*
X461752Y257915D01*
X461356Y257122D01*
X461357Y257118D01*
X461354Y257117D01*
X460954Y256017D01*
X460954Y256016D01*
X460953Y256016D01*
X460753Y255416D01*
X460754Y255414D01*
X460753Y255414D01*
X460453Y254414D01*
X460461Y254392D01*
X460455Y254381D01*
X460755Y253681D01*
X460775Y253669D01*
X460776Y253657D01*
X461876Y253057D01*
X461886Y253058D01*
X461889Y253052D01*
X462789Y252852D01*
X462814Y252863D01*
G37*
G36*
X422740Y273791D02*
X422740Y273791D01*
X422791Y273793D01*
X422823Y273811D01*
X422859Y273819D01*
X422898Y273852D01*
X422943Y273876D01*
X422964Y273906D01*
X422992Y273929D01*
X423013Y273976D01*
X423043Y274018D01*
X423051Y274060D01*
X423063Y274088D01*
X423062Y274118D01*
X423070Y274160D01*
X423070Y285380D01*
X426590Y285380D01*
X426641Y285392D01*
X426694Y285394D01*
X426724Y285411D01*
X426759Y285419D01*
X426799Y285453D01*
X426845Y285478D01*
X426865Y285507D01*
X426892Y285529D01*
X426914Y285577D01*
X426944Y285621D01*
X426949Y285655D01*
X426963Y285688D01*
X426961Y285740D01*
X426969Y285792D01*
X426958Y285825D01*
X426957Y285861D01*
X426932Y285907D01*
X426915Y285957D01*
X426888Y285987D01*
X426874Y286013D01*
X426848Y286031D01*
X426818Y286064D01*
X426440Y286348D01*
X424859Y287929D01*
X424839Y287941D01*
X424818Y287964D01*
X424462Y288232D01*
X424194Y288588D01*
X424182Y288599D01*
X424174Y288613D01*
X424116Y288654D01*
X424061Y288699D01*
X424046Y288703D01*
X424032Y288713D01*
X423905Y288737D01*
X423893Y288740D01*
X423892Y288740D01*
X423890Y288740D01*
X423070Y288740D01*
X423070Y290360D01*
X423064Y290386D01*
X423046Y290494D01*
X422746Y291294D01*
X422742Y291300D01*
X422740Y291310D01*
X422440Y292010D01*
X422416Y292041D01*
X422382Y292103D01*
X421882Y292703D01*
X421852Y292726D01*
X421811Y292769D01*
X421111Y293269D01*
X421087Y293279D01*
X421060Y293300D01*
X420260Y293700D01*
X420233Y293707D01*
X420199Y293724D01*
X419199Y294024D01*
X419160Y294027D01*
X419090Y294040D01*
X416190Y294040D01*
X416175Y294037D01*
X416160Y294039D01*
X416028Y294002D01*
X416021Y294001D01*
X416021Y294000D01*
X416020Y294000D01*
X415820Y293900D01*
X415781Y293868D01*
X415737Y293844D01*
X415716Y293813D01*
X415687Y293789D01*
X415666Y293743D01*
X415637Y293702D01*
X415629Y293659D01*
X415616Y293631D01*
X415617Y293615D01*
X415618Y293601D01*
X415610Y293560D01*
X415610Y290760D01*
X415621Y290710D01*
X415623Y290659D01*
X415641Y290627D01*
X415649Y290591D01*
X415682Y290552D01*
X415706Y290507D01*
X415736Y290486D01*
X415759Y290458D01*
X415806Y290437D01*
X415848Y290407D01*
X415890Y290399D01*
X415918Y290387D01*
X415948Y290388D01*
X415990Y290380D01*
X417643Y290380D01*
X417957Y290301D01*
X418230Y290165D01*
X418361Y289969D01*
X418410Y289870D01*
X418410Y289560D01*
X418418Y289524D01*
X418421Y289468D01*
X418510Y289113D01*
X418510Y288740D01*
X416190Y288740D01*
X416140Y288729D01*
X416089Y288727D01*
X416057Y288709D01*
X416021Y288701D01*
X415982Y288668D01*
X415937Y288644D01*
X415916Y288614D01*
X415888Y288591D01*
X415867Y288544D01*
X415837Y288502D01*
X415829Y288460D01*
X415817Y288432D01*
X415818Y288402D01*
X415810Y288360D01*
X415810Y285760D01*
X415821Y285710D01*
X415823Y285659D01*
X415841Y285627D01*
X415849Y285591D01*
X415882Y285552D01*
X415906Y285507D01*
X415936Y285486D01*
X415959Y285458D01*
X416006Y285437D01*
X416048Y285407D01*
X416090Y285399D01*
X416118Y285387D01*
X416148Y285388D01*
X416190Y285380D01*
X418510Y285380D01*
X418510Y274160D01*
X418521Y274110D01*
X418523Y274059D01*
X418541Y274027D01*
X418549Y273991D01*
X418582Y273952D01*
X418606Y273907D01*
X418636Y273886D01*
X418659Y273858D01*
X418706Y273837D01*
X418748Y273807D01*
X418790Y273799D01*
X418818Y273787D01*
X418848Y273788D01*
X418890Y273780D01*
X422690Y273780D01*
X422740Y273791D01*
G37*
G36*
X432412Y253052D02*
X432412Y253052D01*
X432424Y253067D01*
X432435Y253065D01*
X433235Y253865D01*
X433235Y253868D01*
X433237Y253868D01*
X437165Y258384D01*
X437251Y257697D01*
X437251Y254700D01*
X437255Y254694D01*
X437252Y254690D01*
X437452Y253690D01*
X437469Y253675D01*
X437468Y253662D01*
X438068Y253162D01*
X438090Y253161D01*
X438096Y253151D01*
X439396Y253051D01*
X439407Y253058D01*
X439414Y253053D01*
X440414Y253353D01*
X440432Y253377D01*
X440445Y253381D01*
X440745Y254081D01*
X440743Y254091D01*
X440749Y254096D01*
X440849Y255196D01*
X440847Y255198D01*
X440849Y255200D01*
X440849Y266300D01*
X440840Y266313D01*
X440844Y266322D01*
X440444Y267122D01*
X440420Y267134D01*
X440416Y267147D01*
X439516Y267447D01*
X439502Y267442D01*
X439496Y267449D01*
X438196Y267349D01*
X438182Y267337D01*
X438171Y267340D01*
X437471Y266840D01*
X437464Y266816D01*
X437452Y266811D01*
X437252Y265911D01*
X437255Y265903D01*
X437251Y265900D01*
X437251Y262803D01*
X437165Y262115D01*
X435037Y264532D01*
X433237Y266632D01*
X433235Y266633D01*
X433235Y266635D01*
X432435Y267435D01*
X432417Y267437D01*
X432414Y267447D01*
X431714Y267647D01*
X431691Y267639D01*
X431680Y267645D01*
X430780Y267245D01*
X430774Y267234D01*
X430765Y267235D01*
X429865Y266335D01*
X429863Y266317D01*
X429852Y266309D01*
X429854Y266307D01*
X429851Y266306D01*
X429751Y265506D01*
X429763Y265485D01*
X429759Y265473D01*
X430359Y264573D01*
X430363Y264571D01*
X430362Y264568D01*
X430862Y263968D01*
X430864Y263968D01*
X430864Y263967D01*
X432164Y262567D01*
X432166Y262566D01*
X432166Y262564D01*
X433866Y260964D01*
X433868Y260964D01*
X433868Y260963D01*
X434627Y260298D01*
X432066Y257836D01*
X432066Y257834D01*
X432064Y257834D01*
X430364Y256034D01*
X430363Y256026D01*
X430358Y256025D01*
X429758Y255025D01*
X429760Y255002D01*
X429751Y254993D01*
X429851Y254293D01*
X429866Y254279D01*
X429863Y254267D01*
X430663Y253367D01*
X430675Y253365D01*
X430676Y253357D01*
X431576Y252857D01*
X431602Y252861D01*
X431612Y252852D01*
X432412Y253052D01*
G37*
G36*
X416903Y252853D02*
X416903Y252853D01*
X416905Y252851D01*
X417905Y252951D01*
X417910Y252956D01*
X417914Y252953D01*
X418914Y253253D01*
X418919Y253259D01*
X418924Y253257D01*
X419824Y253757D01*
X419826Y253762D01*
X419830Y253761D01*
X420730Y254461D01*
X420731Y254466D01*
X420735Y254465D01*
X421335Y255065D01*
X421337Y255078D01*
X421345Y255080D01*
X421745Y255980D01*
X421743Y255987D01*
X421747Y255989D01*
X421741Y255998D01*
X421749Y256006D01*
X421649Y256806D01*
X421634Y256821D01*
X421637Y256833D01*
X420837Y257733D01*
X420819Y257736D01*
X420816Y257747D01*
X419916Y258047D01*
X419890Y258038D01*
X419878Y258044D01*
X419078Y257644D01*
X419075Y257638D01*
X419070Y257639D01*
X418171Y256940D01*
X417283Y256348D01*
X416305Y256250D01*
X415335Y256541D01*
X414952Y257306D01*
X415143Y258168D01*
X416015Y258652D01*
X417005Y258751D01*
X417010Y258756D01*
X417014Y258753D01*
X418014Y259053D01*
X418017Y259057D01*
X418020Y259055D01*
X419820Y259855D01*
X419824Y259862D01*
X419830Y259861D01*
X420630Y260461D01*
X420633Y260472D01*
X420641Y260473D01*
X421241Y261373D01*
X421240Y261382D01*
X421247Y261384D01*
X421547Y262284D01*
X421545Y262291D01*
X421548Y262293D01*
X421547Y262294D01*
X421549Y262296D01*
X421649Y263396D01*
X421644Y263404D01*
X421648Y263410D01*
X421448Y264410D01*
X421445Y264413D01*
X421447Y264416D01*
X421147Y265316D01*
X421137Y265322D01*
X421139Y265330D01*
X420539Y266130D01*
X420534Y266131D01*
X420535Y266135D01*
X419835Y266835D01*
X419822Y266837D01*
X419820Y266845D01*
X418920Y267245D01*
X418916Y267244D01*
X418916Y267247D01*
X418016Y267547D01*
X418008Y267544D01*
X418004Y267549D01*
X416904Y267649D01*
X416902Y267647D01*
X416900Y267649D01*
X415800Y267649D01*
X415794Y267645D01*
X415790Y267648D01*
X414790Y267448D01*
X414786Y267443D01*
X414782Y267446D01*
X413782Y267046D01*
X413777Y267038D01*
X413771Y267040D01*
X413071Y266540D01*
X413070Y266534D01*
X413065Y266535D01*
X412265Y265735D01*
X412264Y265723D01*
X412258Y265718D01*
X412262Y265712D01*
X412262Y265708D01*
X412251Y265700D01*
X412251Y264900D01*
X412263Y264883D01*
X412260Y264872D01*
X412960Y263872D01*
X412973Y263867D01*
X412974Y263858D01*
X413774Y263358D01*
X413797Y263360D01*
X413806Y263351D01*
X414606Y263451D01*
X414618Y263462D01*
X414627Y263459D01*
X415524Y264057D01*
X416406Y264449D01*
X417474Y264255D01*
X418047Y263586D01*
X417857Y262635D01*
X416983Y262246D01*
X414986Y261647D01*
X413986Y261347D01*
X413985Y261346D01*
X413984Y261347D01*
X413084Y261047D01*
X413077Y261036D01*
X413068Y261037D01*
X412368Y260437D01*
X412366Y260428D01*
X412359Y260427D01*
X411759Y259527D01*
X411760Y259518D01*
X411758Y259517D01*
X411753Y259516D01*
X411453Y258616D01*
X411456Y258608D01*
X411451Y258604D01*
X411351Y257504D01*
X411355Y257499D01*
X411351Y257495D01*
X411451Y256495D01*
X411456Y256490D01*
X411453Y256486D01*
X411753Y255486D01*
X411763Y255478D01*
X411761Y255470D01*
X412361Y254670D01*
X412366Y254669D01*
X412365Y254665D01*
X413065Y253965D01*
X413075Y253964D01*
X413076Y253957D01*
X413976Y253457D01*
X413979Y253457D01*
X413980Y253455D01*
X414880Y253055D01*
X414888Y253057D01*
X414890Y253052D01*
X415890Y252852D01*
X415897Y252855D01*
X415900Y252851D01*
X416900Y252851D01*
X416903Y252853D01*
G37*
G36*
X450608Y233051D02*
X450608Y233051D01*
X450621Y233065D01*
X450632Y233062D01*
X451232Y233562D01*
X451238Y233592D01*
X451249Y233600D01*
X451249Y246000D01*
X451242Y246009D01*
X451247Y246016D01*
X450947Y246916D01*
X450921Y246933D01*
X450917Y246946D01*
X450117Y247246D01*
X450105Y247243D01*
X450100Y247249D01*
X441800Y247249D01*
X441797Y247247D01*
X441795Y247249D01*
X440795Y247149D01*
X440774Y247130D01*
X440761Y247130D01*
X440161Y246330D01*
X440161Y246316D01*
X440152Y246309D01*
X440154Y246307D01*
X440151Y246305D01*
X440051Y245305D01*
X440057Y245296D01*
X440052Y245290D01*
X440252Y244290D01*
X440273Y244272D01*
X440274Y244258D01*
X441074Y243758D01*
X441093Y243760D01*
X441100Y243751D01*
X447182Y243751D01*
X447751Y243277D01*
X447751Y242318D01*
X447277Y241749D01*
X443200Y241749D01*
X443183Y241736D01*
X443171Y241740D01*
X442471Y241240D01*
X442464Y241215D01*
X442452Y241209D01*
X442252Y240109D01*
X442257Y240097D01*
X442252Y240091D01*
X442452Y238991D01*
X442465Y238979D01*
X442462Y238968D01*
X442962Y238368D01*
X442988Y238362D01*
X442996Y238351D01*
X444096Y238251D01*
X444098Y238253D01*
X444100Y238251D01*
X447087Y238251D01*
X447751Y237871D01*
X447751Y234800D01*
X447753Y234797D01*
X447751Y234795D01*
X447851Y233795D01*
X447861Y233784D01*
X447857Y233776D01*
X448257Y233076D01*
X448285Y233064D01*
X448291Y233052D01*
X449391Y232852D01*
X449402Y232857D01*
X449408Y232851D01*
X450608Y233051D01*
G37*
G36*
X429109Y232859D02*
X429109Y232859D01*
X429117Y232854D01*
X429917Y233154D01*
X429928Y233171D01*
X429940Y233171D01*
X430409Y233828D01*
X431068Y233263D01*
X431082Y233262D01*
X431084Y233253D01*
X431984Y232953D01*
X431992Y232956D01*
X431996Y232951D01*
X433096Y232851D01*
X433105Y232857D01*
X433111Y232852D01*
X434011Y233052D01*
X434015Y233058D01*
X434020Y233055D01*
X434920Y233455D01*
X434926Y233466D01*
X434935Y233465D01*
X435735Y234265D01*
X435735Y234268D01*
X435737Y234268D01*
X436437Y235068D01*
X436438Y235075D01*
X436443Y235076D01*
X436943Y235976D01*
X436942Y235983D01*
X436947Y235984D01*
X437247Y236884D01*
X437244Y236892D01*
X437249Y236895D01*
X437349Y237895D01*
X437347Y237898D01*
X437349Y237900D01*
X437349Y238900D01*
X437343Y238908D01*
X437347Y238914D01*
X437047Y239914D01*
X437043Y239917D01*
X437045Y239920D01*
X436645Y240820D01*
X436636Y240825D01*
X436637Y240832D01*
X435937Y241632D01*
X435935Y241633D01*
X435935Y241635D01*
X435135Y242435D01*
X435125Y242436D01*
X435124Y242443D01*
X434224Y242943D01*
X434214Y242942D01*
X434211Y242948D01*
X433311Y243148D01*
X433303Y243145D01*
X433300Y243149D01*
X432300Y243149D01*
X432293Y243144D01*
X432290Y243144D01*
X432286Y243147D01*
X431286Y242847D01*
X431278Y242837D01*
X431270Y242839D01*
X430470Y242239D01*
X430466Y242224D01*
X430456Y242222D01*
X430400Y242110D01*
X430044Y242822D01*
X430019Y242834D01*
X430014Y242847D01*
X429014Y243147D01*
X429006Y243144D01*
X429004Y243144D01*
X429000Y243149D01*
X427900Y243149D01*
X427881Y243135D01*
X427868Y243137D01*
X427168Y242537D01*
X427165Y242523D01*
X427157Y242517D01*
X427159Y242514D01*
X427152Y242511D01*
X426952Y241611D01*
X426955Y241603D01*
X426951Y241600D01*
X426951Y234400D01*
X426953Y234397D01*
X426951Y234395D01*
X427051Y233495D01*
X427071Y233474D01*
X427071Y233460D01*
X427771Y232960D01*
X427790Y232960D01*
X427796Y232951D01*
X429096Y232851D01*
X429109Y232859D01*
G37*
G36*
X336806Y252855D02*
X336806Y252855D01*
X336810Y252852D01*
X337810Y253052D01*
X337814Y253057D01*
X337818Y253054D01*
X338818Y253454D01*
X338821Y253458D01*
X338824Y253457D01*
X339724Y253957D01*
X339728Y253966D01*
X339735Y253965D01*
X340435Y254665D01*
X340436Y254670D01*
X340439Y254670D01*
X341039Y255470D01*
X341039Y255476D01*
X341043Y255476D01*
X341543Y256376D01*
X341542Y256381D01*
X341546Y256383D01*
X341543Y256388D01*
X341548Y256390D01*
X341748Y257390D01*
X341747Y257394D01*
X341749Y257395D01*
X341849Y258395D01*
X341847Y258398D01*
X341849Y258400D01*
X341849Y260600D01*
X341832Y260622D01*
X341834Y260636D01*
X340334Y262036D01*
X340330Y262036D01*
X340330Y262039D01*
X339530Y262639D01*
X339524Y262639D01*
X339524Y262643D01*
X338624Y263143D01*
X338616Y263142D01*
X338614Y263147D01*
X337614Y263447D01*
X337611Y263446D01*
X337610Y263448D01*
X336610Y263648D01*
X336600Y263644D01*
X336595Y263649D01*
X335595Y263549D01*
X335592Y263546D01*
X335590Y263548D01*
X334590Y263348D01*
X334583Y263340D01*
X334576Y263343D01*
X333676Y262843D01*
X333674Y262838D01*
X333670Y262839D01*
X332870Y262239D01*
X332869Y262234D01*
X332865Y262235D01*
X332165Y261535D01*
X332164Y261530D01*
X332161Y261530D01*
X331561Y260730D01*
X331561Y260717D01*
X331553Y260714D01*
X331253Y259714D01*
X331254Y259711D01*
X331252Y259710D01*
X331254Y259707D01*
X331251Y259705D01*
X331151Y258705D01*
X331153Y258702D01*
X331151Y258700D01*
X331151Y257600D01*
X331155Y257594D01*
X331152Y257590D01*
X331352Y256590D01*
X331358Y256585D01*
X331355Y256580D01*
X331755Y255680D01*
X331761Y255677D01*
X331759Y255673D01*
X332359Y254773D01*
X332366Y254770D01*
X332365Y254765D01*
X333065Y254065D01*
X333070Y254064D01*
X333070Y254061D01*
X333870Y253461D01*
X333880Y253461D01*
X333882Y253454D01*
X334882Y253054D01*
X334888Y253056D01*
X334889Y253052D01*
X335789Y252852D01*
X335797Y252855D01*
X335800Y252851D01*
X336800Y252851D01*
X336806Y252855D01*
G37*
G36*
X449740Y273791D02*
X449740Y273791D01*
X449791Y273793D01*
X449823Y273811D01*
X449859Y273819D01*
X449898Y273852D01*
X449943Y273876D01*
X449964Y273906D01*
X449992Y273929D01*
X450013Y273976D01*
X450043Y274018D01*
X450051Y274060D01*
X450063Y274088D01*
X450062Y274118D01*
X450070Y274160D01*
X450070Y287660D01*
X450067Y287673D01*
X450069Y287687D01*
X450048Y287757D01*
X450031Y287829D01*
X450022Y287839D01*
X450018Y287852D01*
X449967Y287906D01*
X449921Y287962D01*
X449908Y287968D01*
X449899Y287978D01*
X449765Y288033D01*
X449273Y288131D01*
X448882Y288229D01*
X448846Y288229D01*
X448790Y288240D01*
X448328Y288240D01*
X447873Y288331D01*
X447482Y288429D01*
X447474Y288429D01*
X447465Y288433D01*
X446473Y288631D01*
X446082Y288729D01*
X446072Y288729D01*
X446062Y288733D01*
X445986Y288730D01*
X445909Y288732D01*
X445900Y288727D01*
X445889Y288727D01*
X445822Y288690D01*
X445753Y288657D01*
X445746Y288649D01*
X445737Y288644D01*
X445693Y288581D01*
X445645Y288521D01*
X445643Y288511D01*
X445637Y288502D01*
X445610Y288360D01*
X445610Y286944D01*
X445487Y287098D01*
X445484Y287100D01*
X445482Y287103D01*
X444982Y287703D01*
X444967Y287715D01*
X444963Y287722D01*
X444949Y287731D01*
X444928Y287757D01*
X444428Y288157D01*
X444404Y288168D01*
X444379Y288190D01*
X443679Y288590D01*
X443649Y288599D01*
X443610Y288621D01*
X443010Y288821D01*
X443003Y288821D01*
X442994Y288826D01*
X442294Y289026D01*
X442256Y289028D01*
X442190Y289040D01*
X440790Y289040D01*
X440716Y289023D01*
X440641Y289010D01*
X440631Y289003D01*
X440621Y289001D01*
X440592Y288977D01*
X440521Y288929D01*
X440520Y288928D01*
X440489Y288927D01*
X440457Y288909D01*
X440421Y288901D01*
X440382Y288868D01*
X440337Y288844D01*
X440316Y288814D01*
X440288Y288791D01*
X440267Y288744D01*
X440237Y288702D01*
X440229Y288660D01*
X440217Y288632D01*
X440218Y288602D01*
X440210Y288560D01*
X440210Y284960D01*
X440221Y284910D01*
X440223Y284859D01*
X440241Y284827D01*
X440249Y284791D01*
X440282Y284752D01*
X440306Y284707D01*
X440336Y284686D01*
X440359Y284658D01*
X440406Y284637D01*
X440448Y284607D01*
X440490Y284599D01*
X440518Y284587D01*
X440548Y284588D01*
X440590Y284580D01*
X440690Y284580D01*
X440705Y284583D01*
X440720Y284581D01*
X440852Y284618D01*
X440859Y284619D01*
X440859Y284620D01*
X440860Y284620D01*
X440980Y284680D01*
X441971Y284680D01*
X442925Y284584D01*
X443647Y284404D01*
X444242Y284064D01*
X444676Y283542D01*
X445037Y282911D01*
X445221Y282266D01*
X445410Y281418D01*
X445410Y274160D01*
X445421Y274110D01*
X445423Y274059D01*
X445441Y274027D01*
X445449Y273991D01*
X445482Y273952D01*
X445506Y273907D01*
X445536Y273886D01*
X445559Y273858D01*
X445606Y273837D01*
X445648Y273807D01*
X445690Y273799D01*
X445718Y273787D01*
X445748Y273788D01*
X445790Y273780D01*
X449690Y273780D01*
X449740Y273791D01*
G37*
G36*
X407206Y232855D02*
X407206Y232855D01*
X407210Y232852D01*
X408210Y233052D01*
X408215Y233058D01*
X408220Y233055D01*
X409120Y233455D01*
X409122Y233458D01*
X409124Y233457D01*
X410024Y233957D01*
X410028Y233966D01*
X410035Y233965D01*
X410735Y234665D01*
X410736Y234675D01*
X410743Y234676D01*
X411243Y235576D01*
X411242Y235581D01*
X411246Y235582D01*
X411646Y236582D01*
X411644Y236588D01*
X411648Y236589D01*
X411848Y237489D01*
X411845Y237497D01*
X411849Y237500D01*
X411849Y238600D01*
X411847Y238603D01*
X411849Y238604D01*
X411749Y239704D01*
X411741Y239713D01*
X411745Y239720D01*
X411345Y240620D01*
X411340Y240623D01*
X411342Y240626D01*
X410842Y241426D01*
X410839Y241427D01*
X410839Y241430D01*
X410239Y242230D01*
X410230Y242232D01*
X410230Y242239D01*
X409430Y242839D01*
X409421Y242839D01*
X409420Y242845D01*
X408520Y243245D01*
X408512Y243243D01*
X408510Y243248D01*
X407510Y243448D01*
X407509Y243448D01*
X406409Y243648D01*
X406400Y243644D01*
X406396Y243649D01*
X405296Y243549D01*
X405290Y243544D01*
X405286Y243547D01*
X404286Y243247D01*
X404283Y243243D01*
X404280Y243245D01*
X403380Y242845D01*
X403375Y242836D01*
X403368Y242837D01*
X402668Y242237D01*
X402666Y242228D01*
X402659Y242227D01*
X402059Y241327D01*
X402060Y241318D01*
X402053Y241316D01*
X401753Y240416D01*
X401756Y240408D01*
X401751Y240405D01*
X401651Y239405D01*
X401653Y239402D01*
X401651Y239400D01*
X401651Y238300D01*
X401667Y238279D01*
X401665Y238265D01*
X402365Y237565D01*
X402378Y237563D01*
X402380Y237555D01*
X403280Y237155D01*
X403294Y237158D01*
X403300Y237151D01*
X407390Y237151D01*
X408019Y236881D01*
X407470Y236241D01*
X406493Y235850D01*
X405404Y235949D01*
X404510Y236048D01*
X403514Y236347D01*
X403508Y236345D01*
X403506Y236347D01*
X403495Y236347D01*
X403489Y236342D01*
X403483Y236346D01*
X402683Y236046D01*
X402668Y236023D01*
X402655Y236020D01*
X402155Y234920D01*
X402158Y234906D01*
X402151Y234900D01*
X402151Y234200D01*
X402165Y234181D01*
X402162Y234168D01*
X402662Y233568D01*
X402674Y233566D01*
X402676Y233557D01*
X403376Y233157D01*
X403388Y233159D01*
X403391Y233152D01*
X404491Y232952D01*
X404495Y232953D01*
X404497Y232951D01*
X405997Y232851D01*
X405999Y232852D01*
X406000Y232851D01*
X407200Y232851D01*
X407206Y232855D01*
G37*
G36*
X364606Y252855D02*
X364606Y252855D01*
X364610Y252852D01*
X365610Y253052D01*
X365614Y253057D01*
X365618Y253054D01*
X366618Y253454D01*
X366622Y253460D01*
X366626Y253458D01*
X367426Y253958D01*
X367429Y253966D01*
X367435Y253965D01*
X368135Y254665D01*
X368136Y254675D01*
X368143Y254676D01*
X368643Y255576D01*
X368642Y255581D01*
X368646Y255582D01*
X369046Y256582D01*
X369044Y256588D01*
X369048Y256589D01*
X369248Y257489D01*
X369245Y257497D01*
X369249Y257500D01*
X369249Y258600D01*
X369247Y258603D01*
X369249Y258604D01*
X369149Y259704D01*
X369141Y259713D01*
X369145Y259720D01*
X368745Y260620D01*
X368740Y260623D01*
X368742Y260626D01*
X368242Y261426D01*
X368239Y261427D01*
X368239Y261430D01*
X367639Y262230D01*
X367630Y262232D01*
X367630Y262239D01*
X366830Y262839D01*
X366821Y262839D01*
X366820Y262845D01*
X365920Y263245D01*
X365912Y263243D01*
X365910Y263248D01*
X363910Y263648D01*
X363901Y263644D01*
X363896Y263649D01*
X362696Y263549D01*
X362690Y263544D01*
X362686Y263547D01*
X361686Y263247D01*
X361682Y263242D01*
X361678Y263244D01*
X360878Y262844D01*
X360875Y262838D01*
X360870Y262839D01*
X360070Y262239D01*
X360067Y262228D01*
X360059Y262227D01*
X359459Y261327D01*
X359460Y261318D01*
X359453Y261316D01*
X359153Y260416D01*
X359156Y260408D01*
X359151Y260405D01*
X359051Y259405D01*
X359053Y259402D01*
X359051Y259400D01*
X359051Y258300D01*
X359067Y258279D01*
X359065Y258265D01*
X359765Y257565D01*
X359778Y257563D01*
X359780Y257555D01*
X360680Y257155D01*
X360694Y257158D01*
X360700Y257151D01*
X364791Y257151D01*
X365511Y256881D01*
X364872Y256242D01*
X363893Y255850D01*
X362804Y255949D01*
X361910Y256048D01*
X360914Y256347D01*
X360908Y256345D01*
X360906Y256348D01*
X360896Y256348D01*
X360888Y256341D01*
X360881Y256345D01*
X360181Y256045D01*
X360169Y256025D01*
X360157Y256024D01*
X359557Y254924D01*
X359560Y254902D01*
X359551Y254893D01*
X359651Y254193D01*
X359662Y254182D01*
X359659Y254173D01*
X360059Y253573D01*
X360074Y253567D01*
X360076Y253557D01*
X360776Y253157D01*
X360788Y253159D01*
X360792Y253151D01*
X361992Y252951D01*
X361995Y252953D01*
X361997Y252951D01*
X363397Y252851D01*
X363399Y252852D01*
X363400Y252851D01*
X364600Y252851D01*
X364606Y252855D01*
G37*
G36*
X352817Y248854D02*
X352817Y248854D01*
X352822Y248861D01*
X352827Y248859D01*
X353727Y249459D01*
X353734Y249479D01*
X353746Y249482D01*
X353946Y249982D01*
X353939Y250007D01*
X353946Y250018D01*
X353746Y250518D01*
X353745Y250519D01*
X353446Y251218D01*
X353046Y252317D01*
X353043Y252319D01*
X353044Y252322D01*
X352348Y253714D01*
X352250Y254889D01*
X355842Y260975D01*
X355842Y260979D01*
X355845Y260980D01*
X356245Y261880D01*
X356245Y261882D01*
X356246Y261883D01*
X356244Y261885D01*
X356239Y261908D01*
X356245Y261919D01*
X355945Y262619D01*
X355929Y262629D01*
X355928Y262640D01*
X354928Y263340D01*
X354914Y263340D01*
X354911Y263348D01*
X354011Y263548D01*
X353990Y263538D01*
X353978Y263544D01*
X353178Y263144D01*
X353169Y263126D01*
X353158Y263125D01*
X351558Y260425D01*
X351558Y260424D01*
X351557Y260424D01*
X350563Y258634D01*
X350322Y258474D01*
X350045Y259119D01*
X350045Y259120D01*
X348845Y261820D01*
X348842Y261822D01*
X348843Y261824D01*
X348343Y262724D01*
X348338Y262726D01*
X348339Y262730D01*
X348039Y263130D01*
X348027Y263133D01*
X348026Y263142D01*
X347226Y263642D01*
X347197Y263639D01*
X347186Y263647D01*
X346186Y263347D01*
X346178Y263337D01*
X346170Y263339D01*
X345270Y262639D01*
X345264Y262616D01*
X345252Y262611D01*
X345052Y261711D01*
X345060Y261694D01*
X345053Y261684D01*
X345353Y260784D01*
X345356Y260782D01*
X345355Y260780D01*
X350355Y249680D01*
X350360Y249677D01*
X350358Y249674D01*
X350858Y248874D01*
X350876Y248867D01*
X350878Y248856D01*
X351678Y248456D01*
X351705Y248461D01*
X351717Y248454D01*
X352817Y248854D01*
G37*
G36*
X451919Y252865D02*
X451919Y252865D01*
X451932Y252863D01*
X452632Y253463D01*
X452635Y253476D01*
X452637Y253478D01*
X452636Y253479D01*
X452638Y253488D01*
X452649Y253495D01*
X452749Y254495D01*
X452747Y254498D01*
X452749Y254500D01*
X452749Y263687D01*
X453129Y264351D01*
X456200Y264351D01*
X456203Y264353D01*
X456205Y264351D01*
X457205Y264451D01*
X457220Y264465D01*
X457232Y264463D01*
X457932Y265063D01*
X457938Y265092D01*
X457949Y265100D01*
X457949Y266200D01*
X457940Y266213D01*
X457944Y266222D01*
X457544Y267022D01*
X457516Y267036D01*
X457510Y267048D01*
X456510Y267248D01*
X456503Y267245D01*
X456500Y267249D01*
X445200Y267249D01*
X445185Y267238D01*
X445174Y267242D01*
X444374Y266742D01*
X444363Y266712D01*
X444351Y266705D01*
X444251Y265705D01*
X444257Y265696D01*
X444252Y265690D01*
X444452Y264690D01*
X444479Y264666D01*
X444483Y264654D01*
X445283Y264354D01*
X445295Y264358D01*
X445300Y264351D01*
X448497Y264351D01*
X449351Y264256D01*
X449351Y254000D01*
X449360Y253988D01*
X449355Y253980D01*
X449755Y253080D01*
X449785Y253064D01*
X449790Y253052D01*
X450790Y252852D01*
X450797Y252855D01*
X450800Y252851D01*
X451900Y252851D01*
X451919Y252865D01*
G37*
G36*
X399704Y252856D02*
X399704Y252856D01*
X399709Y252852D01*
X400809Y253052D01*
X400829Y253074D01*
X400843Y253076D01*
X401225Y253745D01*
X401679Y253654D01*
X402470Y253061D01*
X402486Y253061D01*
X402490Y253052D01*
X403490Y252852D01*
X403500Y252856D01*
X403505Y252851D01*
X404505Y252951D01*
X404510Y252956D01*
X404514Y252953D01*
X405514Y253253D01*
X405522Y253263D01*
X405530Y253261D01*
X406330Y253861D01*
X406332Y253868D01*
X406337Y253868D01*
X407037Y254668D01*
X407037Y254674D01*
X407042Y254674D01*
X407542Y255474D01*
X407541Y255483D01*
X407547Y255484D01*
X407847Y256384D01*
X407845Y256389D01*
X407848Y256390D01*
X408048Y257390D01*
X408045Y257397D01*
X408049Y257400D01*
X408049Y261600D01*
X408047Y261603D01*
X408049Y261605D01*
X407949Y262505D01*
X407931Y262524D01*
X407932Y262538D01*
X407332Y263038D01*
X407310Y263039D01*
X407304Y263049D01*
X406004Y263149D01*
X405996Y263144D01*
X405990Y263144D01*
X405986Y263147D01*
X404986Y262847D01*
X404971Y262827D01*
X404964Y262822D01*
X404955Y262819D01*
X404655Y262119D01*
X404658Y262106D01*
X404651Y262100D01*
X404651Y257907D01*
X404358Y256932D01*
X403586Y256449D01*
X402513Y256449D01*
X401640Y256934D01*
X401348Y257711D01*
X401249Y258802D01*
X401249Y261900D01*
X401244Y261906D01*
X401248Y261911D01*
X401048Y262811D01*
X401020Y262835D01*
X401016Y262847D01*
X400116Y263147D01*
X400108Y263144D01*
X400104Y263144D01*
X400100Y263149D01*
X398800Y263149D01*
X398793Y263144D01*
X398790Y263144D01*
X398785Y263141D01*
X398778Y263144D01*
X397978Y262744D01*
X397969Y262725D01*
X397954Y262714D01*
X397955Y262712D01*
X397952Y262711D01*
X397752Y261811D01*
X397755Y261803D01*
X397751Y261800D01*
X397751Y254600D01*
X397753Y254597D01*
X397751Y254595D01*
X397851Y253595D01*
X397867Y253578D01*
X397865Y253565D01*
X398465Y252965D01*
X398489Y252962D01*
X398496Y252951D01*
X399696Y252851D01*
X399704Y252856D01*
G37*
G36*
X394204Y232951D02*
X394204Y232951D01*
X394211Y232957D01*
X394216Y232953D01*
X395116Y233253D01*
X395119Y233258D01*
X395122Y233256D01*
X395922Y233656D01*
X395930Y233671D01*
X395940Y233671D01*
X396440Y234371D01*
X396440Y234377D01*
X396444Y234378D01*
X396844Y235178D01*
X396842Y235188D01*
X396848Y235191D01*
X397048Y236291D01*
X397045Y236297D01*
X397049Y236300D01*
X397049Y239465D01*
X398516Y239953D01*
X398534Y239980D01*
X398547Y239984D01*
X398847Y240884D01*
X398843Y240895D01*
X398849Y240900D01*
X398849Y242100D01*
X398840Y242113D01*
X398844Y242122D01*
X398444Y242922D01*
X398416Y242936D01*
X398410Y242948D01*
X397427Y243145D01*
X397049Y243617D01*
X397049Y245600D01*
X397040Y245613D01*
X397044Y245622D01*
X396644Y246422D01*
X396620Y246434D01*
X396616Y246447D01*
X395716Y246747D01*
X395702Y246742D01*
X395696Y246749D01*
X394396Y246649D01*
X394378Y246633D01*
X394365Y246635D01*
X393765Y246035D01*
X393763Y246022D01*
X393753Y246014D01*
X393755Y246012D01*
X393752Y246011D01*
X393552Y245111D01*
X393555Y245103D01*
X393551Y245100D01*
X393551Y243054D01*
X392605Y243149D01*
X392602Y243147D01*
X392600Y243149D01*
X391600Y243149D01*
X391593Y243144D01*
X391583Y243137D01*
X391571Y243140D01*
X390871Y242640D01*
X390866Y242624D01*
X390856Y242616D01*
X390858Y242613D01*
X390852Y242610D01*
X390652Y241610D01*
X390656Y241601D01*
X390651Y241596D01*
X390751Y240396D01*
X390767Y240378D01*
X390765Y240365D01*
X391365Y239765D01*
X391388Y239762D01*
X391395Y239751D01*
X392395Y239651D01*
X392401Y239655D01*
X392405Y239651D01*
X393363Y239747D01*
X393551Y238994D01*
X393551Y237012D01*
X393168Y236246D01*
X392195Y236149D01*
X392186Y236140D01*
X392178Y236144D01*
X391378Y235744D01*
X391364Y235715D01*
X391352Y235709D01*
X391152Y234609D01*
X391157Y234597D01*
X391152Y234591D01*
X391352Y233491D01*
X391369Y233475D01*
X391368Y233462D01*
X391968Y232962D01*
X391989Y232961D01*
X391995Y232951D01*
X392995Y232851D01*
X393001Y232855D01*
X393004Y232851D01*
X394204Y232951D01*
G37*
G36*
X378913Y252862D02*
X378913Y252862D01*
X378924Y252857D01*
X379824Y253357D01*
X379831Y253374D01*
X379843Y253376D01*
X383843Y260376D01*
X383842Y260378D01*
X383844Y260378D01*
X384344Y261378D01*
X384341Y261394D01*
X384349Y261400D01*
X384349Y262200D01*
X384331Y262223D01*
X384332Y262237D01*
X383532Y262937D01*
X383523Y262938D01*
X383522Y262944D01*
X382522Y263444D01*
X382503Y263440D01*
X382495Y263449D01*
X381595Y263349D01*
X381574Y263330D01*
X381561Y263330D01*
X380961Y262530D01*
X380961Y262523D01*
X380956Y262522D01*
X378670Y257949D01*
X378330Y257949D01*
X376044Y262422D01*
X376038Y262425D01*
X376039Y262430D01*
X375439Y263230D01*
X375416Y263236D01*
X375411Y263248D01*
X374511Y263448D01*
X374492Y263440D01*
X374482Y263446D01*
X373482Y263046D01*
X373476Y263035D01*
X373468Y263037D01*
X372668Y262337D01*
X372665Y262323D01*
X372660Y262320D01*
X372663Y262317D01*
X372652Y262312D01*
X372452Y261512D01*
X372462Y261488D01*
X372457Y261476D01*
X372957Y260576D01*
X376457Y254376D01*
X376459Y254375D01*
X376458Y254374D01*
X376958Y253574D01*
X376972Y253569D01*
X376973Y253559D01*
X377873Y252959D01*
X377890Y252960D01*
X377895Y252951D01*
X378895Y252851D01*
X378913Y252862D01*
G37*
G36*
X419006Y232855D02*
X419006Y232855D01*
X419010Y232852D01*
X420010Y233052D01*
X420015Y233058D01*
X420020Y233055D01*
X420920Y233455D01*
X420922Y233458D01*
X420924Y233457D01*
X421824Y233957D01*
X421827Y233964D01*
X421832Y233963D01*
X422632Y234663D01*
X422634Y234670D01*
X422639Y234670D01*
X423239Y235470D01*
X423239Y235480D01*
X423246Y235482D01*
X423646Y236482D01*
X423645Y236485D01*
X423647Y236486D01*
X423947Y237486D01*
X423944Y237496D01*
X423949Y237500D01*
X423949Y238500D01*
X423945Y238506D01*
X423948Y238510D01*
X423748Y239510D01*
X423746Y239512D01*
X423747Y239514D01*
X423447Y240514D01*
X423441Y240519D01*
X423443Y240524D01*
X422943Y241424D01*
X422934Y241428D01*
X422935Y241435D01*
X422235Y242135D01*
X422228Y242136D01*
X422227Y242141D01*
X421327Y242741D01*
X421320Y242741D01*
X421318Y242746D01*
X420318Y243146D01*
X420313Y243144D01*
X420311Y243148D01*
X419411Y243348D01*
X419403Y243345D01*
X419400Y243349D01*
X418400Y243349D01*
X418397Y243347D01*
X418395Y243349D01*
X417395Y243249D01*
X417388Y243243D01*
X417383Y243246D01*
X416283Y242846D01*
X416279Y242840D01*
X416274Y242842D01*
X415474Y242342D01*
X415469Y242330D01*
X415461Y242330D01*
X414861Y241530D01*
X414861Y241504D01*
X414851Y241495D01*
X414951Y240595D01*
X414963Y240582D01*
X414960Y240572D01*
X415660Y239572D01*
X415673Y239567D01*
X415674Y239558D01*
X416474Y239058D01*
X416489Y239060D01*
X416491Y239056D01*
X416514Y239056D01*
X416517Y239054D01*
X417317Y239354D01*
X417320Y239359D01*
X417324Y239357D01*
X418211Y239850D01*
X419282Y239752D01*
X420060Y239168D01*
X420451Y238290D01*
X420451Y237324D01*
X419576Y236644D01*
X418699Y236352D01*
X417719Y236646D01*
X416824Y237143D01*
X416797Y237139D01*
X416786Y237147D01*
X416086Y236947D01*
X416076Y236933D01*
X416065Y236935D01*
X415165Y236035D01*
X415163Y236022D01*
X415156Y236016D01*
X415153Y236016D01*
X414853Y235116D01*
X414861Y235094D01*
X414854Y235083D01*
X415154Y234283D01*
X415170Y234273D01*
X415170Y234261D01*
X416070Y233561D01*
X416076Y233561D01*
X416076Y233557D01*
X416976Y233057D01*
X416987Y233059D01*
X416990Y233052D01*
X417990Y232852D01*
X417997Y232855D01*
X418000Y232851D01*
X419000Y232851D01*
X419006Y232855D01*
G37*
%LPC*%
G36*
X308549Y38902D02*
X308549Y38902D01*
X308511Y38948D01*
X308505Y38943D01*
X308500Y38949D01*
X301014Y38949D01*
X300536Y39236D01*
X300249Y39714D01*
X300249Y40480D01*
X300920Y41151D01*
X305700Y41151D01*
X305711Y41159D01*
X305724Y41157D01*
X305726Y41170D01*
X305747Y41187D01*
X305731Y41208D01*
X305735Y41235D01*
X305535Y41435D01*
X305530Y41436D01*
X305530Y41439D01*
X304730Y42039D01*
X301031Y44839D01*
X300442Y45329D01*
X300249Y45908D01*
X300249Y46583D01*
X300629Y47058D01*
X301208Y47251D01*
X308696Y47251D01*
X309276Y47154D01*
X309651Y46780D01*
X309651Y45907D01*
X309642Y45877D01*
X309628Y45828D01*
X309586Y45680D01*
X309544Y45533D01*
X309530Y45483D01*
X309488Y45336D01*
X309459Y45237D01*
X308991Y45049D01*
X304300Y45049D01*
X304287Y45039D01*
X304270Y45039D01*
X304270Y45027D01*
X304253Y45013D01*
X304270Y44990D01*
X304270Y44961D01*
X309068Y41363D01*
X309651Y40780D01*
X309651Y40103D01*
X309554Y39423D01*
X309176Y39046D01*
X308592Y38949D01*
X308551Y38905D01*
X308554Y38903D01*
X308551Y38900D01*
X308551Y38871D01*
X308549Y38902D01*
G37*
%LPD*%
%LPC*%
G36*
X68614Y116383D02*
X68614Y116383D01*
X68285Y116390D01*
X65726Y123465D01*
X65635Y123727D01*
X65819Y123733D01*
X67893Y123733D01*
X67995Y123394D01*
X69395Y118771D01*
X69409Y118758D01*
X69415Y118741D01*
X69433Y118738D01*
X69447Y118727D01*
X69464Y118735D01*
X69482Y118732D01*
X69498Y118750D01*
X69508Y118756D01*
X69510Y118765D01*
X69516Y118772D01*
X69614Y119128D01*
X70963Y123735D01*
X71365Y123733D01*
X72953Y123733D01*
X73250Y123724D01*
X74590Y118986D01*
X74597Y118979D01*
X74597Y118969D01*
X74640Y118942D01*
X74641Y118941D01*
X74790Y118920D01*
X74806Y118927D01*
X74825Y118925D01*
X74840Y118943D01*
X74851Y118948D01*
X74851Y118956D01*
X74859Y118964D01*
X76208Y123537D01*
X76265Y123733D01*
X78601Y123733D01*
X78529Y123542D01*
X78534Y123516D01*
X75942Y116388D01*
X75581Y116383D01*
X73994Y116383D01*
X73608Y116402D01*
X72335Y120483D01*
X72334Y120484D01*
X72335Y120485D01*
X72177Y120922D01*
X72164Y120932D01*
X72160Y120948D01*
X72139Y120951D01*
X72123Y120963D01*
X72109Y120956D01*
X72093Y120958D01*
X72074Y120937D01*
X72063Y120931D01*
X72063Y120924D01*
X72058Y120919D01*
X70666Y116406D01*
X70200Y116383D01*
X68614Y116383D01*
G37*
%LPD*%
G36*
X471309Y45258D02*
X471309Y45258D01*
X471316Y45253D01*
X471916Y45453D01*
X471927Y45470D01*
X471939Y45470D01*
X472239Y45870D01*
X472239Y45877D01*
X472241Y45878D01*
X472239Y45879D01*
X472239Y45892D01*
X472249Y45900D01*
X472249Y54100D01*
X472241Y54111D01*
X472246Y54118D01*
X472046Y54618D01*
X472020Y54634D01*
X472016Y54647D01*
X471416Y54847D01*
X471405Y54843D01*
X471400Y54849D01*
X467900Y54849D01*
X467895Y54846D01*
X467892Y54849D01*
X467292Y54749D01*
X467285Y54741D01*
X467278Y54744D01*
X466678Y54444D01*
X466676Y54440D01*
X466673Y54441D01*
X466073Y54041D01*
X466070Y54034D01*
X466065Y54035D01*
X465565Y53535D01*
X465565Y53531D01*
X465562Y53531D01*
X465162Y53031D01*
X465161Y53023D01*
X465156Y53022D01*
X464756Y52222D01*
X464758Y52212D01*
X464753Y52208D01*
X464756Y52204D01*
X464751Y52200D01*
X464751Y51500D01*
X464754Y51496D01*
X464751Y51493D01*
X464851Y50793D01*
X464852Y50792D01*
X464851Y50792D01*
X464951Y50192D01*
X464958Y50186D01*
X464955Y50181D01*
X465255Y49481D01*
X465263Y49476D01*
X465262Y49469D01*
X465662Y48969D01*
X465669Y48967D01*
X465669Y48962D01*
X466169Y48562D01*
X466173Y48561D01*
X466173Y48559D01*
X466773Y48159D01*
X466789Y48160D01*
X466791Y48157D01*
X466803Y48157D01*
X466809Y48161D01*
X466832Y48163D01*
X466831Y48175D01*
X466843Y48176D01*
X466859Y48205D01*
X466867Y48164D01*
X466880Y48166D01*
X466884Y48153D01*
X467484Y47953D01*
X467490Y47955D01*
X467492Y47951D01*
X468092Y47851D01*
X468097Y47854D01*
X468100Y47851D01*
X469391Y47851D01*
X469851Y47667D01*
X469851Y46300D01*
X469854Y46295D01*
X469851Y46292D01*
X469951Y45692D01*
X469967Y45677D01*
X469965Y45665D01*
X470365Y45265D01*
X470392Y45262D01*
X470400Y45251D01*
X471300Y45251D01*
X471309Y45258D01*
G37*
%LPC*%
G36*
X304603Y28649D02*
X304603Y28649D01*
X303910Y28748D01*
X303218Y28946D01*
X302627Y29242D01*
X302131Y29638D01*
X301635Y30035D01*
X301140Y30629D01*
X300843Y31123D01*
X300546Y31718D01*
X300348Y32411D01*
X300249Y33004D01*
X300249Y36284D01*
X300530Y36658D01*
X301108Y36851D01*
X302226Y36851D01*
X302747Y34611D01*
X302461Y34230D01*
X302461Y34211D01*
X302453Y34205D01*
X302454Y34203D01*
X302451Y34200D01*
X302451Y32800D01*
X302460Y32787D01*
X302456Y32778D01*
X302756Y32178D01*
X302763Y32175D01*
X302762Y32169D01*
X303162Y31669D01*
X303169Y31667D01*
X303169Y31662D01*
X303669Y31262D01*
X303677Y31261D01*
X303678Y31256D01*
X304278Y30956D01*
X304289Y30958D01*
X304293Y30951D01*
X304993Y30851D01*
X305002Y30856D01*
X305007Y30851D01*
X305707Y30951D01*
X305715Y30959D01*
X305722Y30956D01*
X306322Y31256D01*
X306325Y31263D01*
X306331Y31262D01*
X306831Y31662D01*
X306832Y31666D01*
X306835Y31665D01*
X307335Y32165D01*
X307337Y32181D01*
X307347Y32184D01*
X307447Y32484D01*
X307443Y32495D01*
X307449Y32500D01*
X307449Y34500D01*
X307413Y34547D01*
X307410Y34545D01*
X307408Y34549D01*
X306808Y34649D01*
X306803Y34646D01*
X306800Y34649D01*
X302839Y34649D01*
X302327Y36851D01*
X308597Y36851D01*
X309273Y36754D01*
X309553Y36381D01*
X309651Y35697D01*
X309651Y32904D01*
X309552Y32311D01*
X309544Y32284D01*
X309530Y32235D01*
X309488Y32087D01*
X309446Y31940D01*
X309432Y31890D01*
X309390Y31743D01*
X309354Y31618D01*
X309058Y31027D01*
X308662Y30531D01*
X308265Y30035D01*
X307671Y29540D01*
X307177Y29243D01*
X306582Y28946D01*
X305889Y28748D01*
X305296Y28649D01*
X304603Y28649D01*
G37*
%LPD*%
%LPC*%
G36*
X284749Y50502D02*
X284749Y50502D01*
X284718Y50540D01*
X284716Y50547D01*
X284133Y50741D01*
X283849Y51214D01*
X283849Y55300D01*
X283836Y55318D01*
X283839Y55330D01*
X283539Y55730D01*
X283508Y55739D01*
X283500Y55749D01*
X282800Y55749D01*
X282774Y55730D01*
X282761Y55730D01*
X282461Y55330D01*
X282461Y55321D01*
X282455Y55316D01*
X282461Y55308D01*
X282451Y55300D01*
X282451Y53203D01*
X282353Y52520D01*
X282071Y52144D01*
X281301Y51951D01*
X280626Y52144D01*
X280249Y52520D01*
X280249Y55200D01*
X280241Y55211D01*
X280246Y55218D01*
X280046Y55718D01*
X280005Y55743D01*
X280000Y55749D01*
X279300Y55749D01*
X279296Y55746D01*
X279295Y55746D01*
X279284Y55738D01*
X279275Y55742D01*
X278775Y55442D01*
X278767Y55424D01*
X278755Y55415D01*
X278760Y55407D01*
X278751Y55400D01*
X278751Y51305D01*
X278656Y50833D01*
X278091Y50551D01*
X277212Y50648D01*
X276744Y50835D01*
X276649Y51405D01*
X276549Y56894D01*
X276569Y56964D01*
X276570Y56964D01*
X276569Y56964D01*
X276612Y57112D01*
X276626Y57161D01*
X276668Y57309D01*
X276710Y57456D01*
X276724Y57506D01*
X276743Y57571D01*
X277119Y57853D01*
X277903Y57951D01*
X284597Y57951D01*
X285388Y57852D01*
X285861Y57663D01*
X286051Y57092D01*
X286051Y51604D01*
X285954Y51024D01*
X285577Y50647D01*
X284794Y50549D01*
X284751Y50507D01*
X284755Y50503D01*
X284751Y50500D01*
X284751Y50471D01*
X284749Y50502D01*
G37*
%LPD*%
%LPC*%
G36*
X283719Y41545D02*
X283719Y41545D01*
X282620Y42045D01*
X282593Y42039D01*
X282582Y42046D01*
X282082Y41846D01*
X282080Y41843D01*
X282078Y41844D01*
X281478Y41544D01*
X280885Y41248D01*
X280197Y41149D01*
X279508Y41149D01*
X278916Y41347D01*
X278322Y41545D01*
X277734Y41937D01*
X277341Y42428D01*
X276944Y43123D01*
X276647Y43715D01*
X276549Y44304D01*
X276549Y47786D01*
X276834Y48260D01*
X277309Y48451D01*
X278376Y48451D01*
X278751Y46096D01*
X278751Y44800D01*
X278754Y44795D01*
X278751Y44792D01*
X278851Y44192D01*
X278862Y44182D01*
X278859Y44173D01*
X279259Y43573D01*
X279280Y43565D01*
X279284Y43553D01*
X279884Y43353D01*
X279904Y43360D01*
X279914Y43353D01*
X280614Y43553D01*
X280626Y43570D01*
X280638Y43569D01*
X281038Y44069D01*
X281039Y44087D01*
X281049Y44092D01*
X281149Y44692D01*
X281146Y44697D01*
X281149Y44700D01*
X281149Y46100D01*
X281117Y46143D01*
X281116Y46147D01*
X280816Y46247D01*
X280805Y46243D01*
X280800Y46249D01*
X278842Y46249D01*
X278484Y48451D01*
X284797Y48451D01*
X285481Y48353D01*
X285854Y48073D01*
X285950Y47300D01*
X285854Y46626D01*
X285383Y46249D01*
X283400Y46249D01*
X283353Y46213D01*
X283357Y46208D01*
X283353Y46205D01*
X283354Y46203D01*
X283351Y46200D01*
X283351Y44200D01*
X283378Y44164D01*
X283380Y44155D01*
X284279Y43756D01*
X285478Y43156D01*
X285483Y43157D01*
X285484Y43153D01*
X285765Y43060D01*
X286047Y42495D01*
X286024Y42413D01*
X286010Y42363D01*
X285968Y42216D01*
X285925Y42068D01*
X285911Y42019D01*
X285869Y41871D01*
X285855Y41821D01*
X285468Y41240D01*
X285000Y41053D01*
X283719Y41545D01*
G37*
%LPD*%
%LPC*%
G36*
X274225Y19549D02*
X274225Y19549D01*
X273949Y19916D01*
X273949Y58257D01*
X275251Y57922D01*
X275251Y19825D01*
X274884Y19549D01*
X274225Y19549D01*
G37*
%LPD*%
%LPC*%
G36*
X305103Y49549D02*
X305103Y49549D01*
X304420Y49647D01*
X304043Y49930D01*
X303849Y50607D01*
X303849Y52792D01*
X304039Y53361D01*
X304608Y53551D01*
X305280Y53551D01*
X305652Y53178D01*
X305751Y51797D01*
X305790Y51752D01*
X305796Y51757D01*
X305800Y51751D01*
X307100Y51751D01*
X307133Y51776D01*
X307144Y51778D01*
X307444Y52378D01*
X307441Y52394D01*
X307449Y52400D01*
X307449Y53100D01*
X307446Y53105D01*
X307449Y53108D01*
X307349Y53708D01*
X307344Y53712D01*
X307347Y53716D01*
X307147Y54316D01*
X307136Y54323D01*
X307138Y54332D01*
X306638Y54932D01*
X306631Y54933D01*
X306631Y54938D01*
X306131Y55338D01*
X306118Y55339D01*
X306116Y55347D01*
X305516Y55547D01*
X305509Y55545D01*
X305507Y55549D01*
X304807Y55649D01*
X304798Y55644D01*
X304793Y55649D01*
X304093Y55549D01*
X304089Y55545D01*
X304086Y55547D01*
X303386Y55347D01*
X303378Y55336D01*
X303369Y55338D01*
X302869Y54938D01*
X302867Y54928D01*
X302859Y54927D01*
X302459Y54327D01*
X302460Y54318D01*
X302453Y54316D01*
X302253Y53716D01*
X302255Y53710D01*
X302252Y53708D01*
X302251Y53707D01*
X302151Y53007D01*
X302156Y52998D01*
X302151Y52993D01*
X302251Y52293D01*
X302259Y52285D01*
X302256Y52278D01*
X302848Y51093D01*
X302755Y50624D01*
X302173Y50043D01*
X301600Y49852D01*
X301032Y50041D01*
X300643Y50625D01*
X300346Y51219D01*
X300148Y51811D01*
X300049Y52507D01*
X300048Y52508D01*
X300049Y52508D01*
X299950Y53101D01*
X300049Y53793D01*
X300148Y54485D01*
X300444Y55078D01*
X300742Y55673D01*
X301137Y56167D01*
X301633Y56663D01*
X302129Y57060D01*
X302722Y57455D01*
X303311Y57652D01*
X304703Y57851D01*
X305392Y57851D01*
X305984Y57653D01*
X305986Y57654D01*
X305986Y57653D01*
X306682Y57454D01*
X307277Y57157D01*
X307770Y56861D01*
X308762Y55869D01*
X309157Y55275D01*
X309453Y54685D01*
X309551Y54092D01*
X309651Y53397D01*
X309651Y52703D01*
X309551Y51907D01*
X309453Y51315D01*
X309157Y50723D01*
X308861Y50231D01*
X308373Y49743D01*
X307792Y49549D01*
X305103Y49549D01*
G37*
%LPD*%
G36*
X326304Y252856D02*
X326304Y252856D01*
X326310Y252852D01*
X327310Y253052D01*
X327328Y253073D01*
X327342Y253074D01*
X327842Y253874D01*
X327840Y253893D01*
X327849Y253900D01*
X327849Y262000D01*
X327842Y262010D01*
X327846Y262017D01*
X327546Y262817D01*
X327520Y262834D01*
X327516Y262847D01*
X326616Y263147D01*
X326608Y263144D01*
X326604Y263144D01*
X326600Y263149D01*
X325300Y263149D01*
X325293Y263144D01*
X325291Y263144D01*
X325284Y263139D01*
X325276Y263143D01*
X324576Y262743D01*
X324572Y262734D01*
X324565Y262735D01*
X324195Y262365D01*
X323430Y262939D01*
X323417Y262939D01*
X323414Y262947D01*
X322414Y263247D01*
X322404Y263244D01*
X322400Y263249D01*
X321500Y263249D01*
X321492Y263243D01*
X321486Y263247D01*
X320486Y262947D01*
X320471Y262927D01*
X320458Y262926D01*
X319958Y262126D01*
X319960Y262107D01*
X319951Y262100D01*
X319951Y261100D01*
X319959Y261089D01*
X319954Y261082D01*
X320354Y260082D01*
X320373Y260071D01*
X320374Y260058D01*
X321174Y259558D01*
X321200Y259561D01*
X321210Y259552D01*
X322210Y259752D01*
X323192Y259948D01*
X324059Y259466D01*
X324351Y258592D01*
X324351Y254600D01*
X324353Y254597D01*
X324351Y254595D01*
X324451Y253595D01*
X324467Y253578D01*
X324465Y253565D01*
X325065Y252965D01*
X325089Y252962D01*
X325096Y252951D01*
X326296Y252851D01*
X326304Y252856D01*
G37*
G36*
X393304Y252856D02*
X393304Y252856D01*
X393310Y252852D01*
X394310Y253052D01*
X394331Y253075D01*
X394344Y253078D01*
X394744Y253878D01*
X394741Y253894D01*
X394749Y253900D01*
X394749Y262000D01*
X394742Y262010D01*
X394746Y262017D01*
X394446Y262817D01*
X394421Y262833D01*
X394417Y262846D01*
X393617Y263146D01*
X393610Y263144D01*
X393604Y263144D01*
X393600Y263149D01*
X392200Y263149D01*
X392193Y263144D01*
X392191Y263144D01*
X392184Y263139D01*
X392176Y263143D01*
X391476Y262743D01*
X391470Y262730D01*
X391461Y262730D01*
X391190Y262369D01*
X390430Y262939D01*
X390417Y262939D01*
X390414Y262947D01*
X389414Y263247D01*
X389404Y263244D01*
X389400Y263249D01*
X388400Y263249D01*
X388392Y263243D01*
X388386Y263247D01*
X387386Y262947D01*
X387369Y262925D01*
X387356Y262922D01*
X386956Y262122D01*
X386959Y262106D01*
X386951Y262100D01*
X386951Y261100D01*
X386959Y261089D01*
X386954Y261082D01*
X387354Y260082D01*
X387373Y260071D01*
X387374Y260058D01*
X388174Y259558D01*
X388200Y259561D01*
X388211Y259552D01*
X389110Y259752D01*
X390092Y259948D01*
X390962Y259465D01*
X391351Y258590D01*
X391351Y254600D01*
X391353Y254597D01*
X391351Y254595D01*
X391451Y253595D01*
X391467Y253578D01*
X391465Y253565D01*
X392065Y252965D01*
X392089Y252962D01*
X392096Y252951D01*
X393296Y252851D01*
X393304Y252856D01*
G37*
%LPC*%
G36*
X287918Y343647D02*
X287918Y343647D01*
X287331Y344038D01*
X286835Y344535D01*
X286808Y344539D01*
X286800Y344549D01*
X286400Y344549D01*
X286375Y344530D01*
X286362Y344531D01*
X285971Y344042D01*
X285389Y343848D01*
X284703Y343750D01*
X284015Y343947D01*
X283427Y344143D01*
X282935Y344635D01*
X281949Y345620D01*
X281949Y347397D01*
X282048Y348085D01*
X282344Y348678D01*
X282642Y349273D01*
X283033Y349762D01*
X283720Y350155D01*
X284298Y350348D01*
X284770Y350159D01*
X285254Y349579D01*
X285349Y349004D01*
X285159Y348432D01*
X284573Y348041D01*
X284569Y348031D01*
X284562Y348031D01*
X284162Y347531D01*
X284161Y347508D01*
X284151Y347500D01*
X284151Y346800D01*
X284160Y346787D01*
X284156Y346778D01*
X284456Y346178D01*
X284486Y346163D01*
X284492Y346151D01*
X285092Y346051D01*
X285128Y346070D01*
X285139Y346070D01*
X285439Y346470D01*
X285439Y346489D01*
X285449Y346495D01*
X285549Y347392D01*
X285644Y347867D01*
X286212Y348151D01*
X287084Y348151D01*
X287458Y347870D01*
X287652Y347289D01*
X287751Y346494D01*
X287764Y346480D01*
X287762Y346469D01*
X288162Y345969D01*
X288181Y345964D01*
X288184Y345953D01*
X288784Y345753D01*
X288818Y345765D01*
X288831Y345762D01*
X289331Y346162D01*
X289336Y346181D01*
X289347Y346184D01*
X289547Y346784D01*
X289543Y346795D01*
X289549Y346800D01*
X289549Y347600D01*
X289540Y347613D01*
X289544Y347622D01*
X289244Y348222D01*
X289223Y348233D01*
X289219Y348245D01*
X288528Y348542D01*
X288146Y348923D01*
X288050Y349597D01*
X288244Y350371D01*
X288616Y350651D01*
X289193Y350651D01*
X289879Y350455D01*
X290469Y350062D01*
X290863Y349667D01*
X291256Y349176D01*
X291453Y348585D01*
X291651Y347893D01*
X291651Y346408D01*
X291453Y345816D01*
X291255Y345222D01*
X290862Y344631D01*
X290370Y344139D01*
X289879Y343845D01*
X289289Y343648D01*
X288600Y343550D01*
X287918Y343647D01*
G37*
%LPD*%
%LPC*%
G36*
X288308Y364649D02*
X288308Y364649D01*
X287724Y364844D01*
X287233Y365237D01*
X286735Y365735D01*
X286676Y365743D01*
X286675Y365737D01*
X286670Y365739D01*
X285776Y365044D01*
X285192Y364849D01*
X284508Y364849D01*
X283916Y365047D01*
X283908Y365044D01*
X283899Y365044D01*
X283892Y365039D01*
X283859Y365028D01*
X283863Y365017D01*
X283859Y365014D01*
X283852Y365010D01*
X283848Y364993D01*
X283826Y365035D01*
X283825Y365042D01*
X283329Y365340D01*
X282733Y365837D01*
X281949Y366620D01*
X281949Y368692D01*
X282146Y369282D01*
X282444Y369978D01*
X282738Y370467D01*
X283327Y370959D01*
X283916Y371253D01*
X284393Y371348D01*
X284965Y371063D01*
X285351Y370387D01*
X285351Y369820D01*
X284969Y369438D01*
X284373Y369041D01*
X284365Y369018D01*
X284353Y369014D01*
X284348Y368997D01*
X284306Y368850D01*
X284292Y368800D01*
X284250Y368653D01*
X284207Y368505D01*
X284193Y368456D01*
X284153Y368314D01*
X284154Y368309D01*
X284153Y368308D01*
X284156Y368304D01*
X284151Y368300D01*
X284151Y367600D01*
X284167Y367579D01*
X284165Y367565D01*
X284665Y367065D01*
X284700Y367060D01*
X284710Y367052D01*
X285210Y367152D01*
X285235Y367181D01*
X285247Y367184D01*
X285447Y367784D01*
X285446Y367787D01*
X285448Y367789D01*
X285445Y367792D01*
X285449Y367794D01*
X285548Y368588D01*
X285736Y369058D01*
X286503Y369250D01*
X287270Y369154D01*
X287554Y368681D01*
X287852Y367389D01*
X287864Y367379D01*
X287862Y367369D01*
X288262Y366869D01*
X288298Y366860D01*
X288307Y366851D01*
X289007Y366951D01*
X289025Y366970D01*
X289038Y366969D01*
X289438Y367469D01*
X289439Y367486D01*
X289446Y367492D01*
X289449Y367493D01*
X289549Y368193D01*
X289544Y368202D01*
X289549Y368207D01*
X289449Y368907D01*
X289436Y368920D01*
X289438Y368931D01*
X289038Y369431D01*
X289022Y369435D01*
X289019Y369445D01*
X288336Y369738D01*
X288148Y370114D01*
X288051Y370991D01*
X288336Y371561D01*
X288805Y371749D01*
X289389Y371652D01*
X290077Y371455D01*
X290565Y371065D01*
X290960Y370571D01*
X291355Y369978D01*
X291552Y369389D01*
X291651Y368697D01*
X291651Y368003D01*
X291453Y366617D01*
X291158Y366126D01*
X290763Y365534D01*
X290273Y365142D01*
X289682Y364846D01*
X288993Y364649D01*
X288308Y364649D01*
G37*
%LPD*%
G36*
X459705Y45254D02*
X459705Y45254D01*
X459708Y45251D01*
X460308Y45351D01*
X460311Y45355D01*
X460314Y45353D01*
X461014Y45553D01*
X461020Y45562D01*
X461027Y45559D01*
X461627Y45959D01*
X461628Y45962D01*
X461631Y45962D01*
X462131Y46362D01*
X462133Y46372D01*
X462141Y46373D01*
X462541Y46973D01*
X462541Y46977D01*
X462544Y46978D01*
X462844Y47578D01*
X462843Y47585D01*
X462847Y47586D01*
X462866Y47651D01*
X462880Y47700D01*
X462922Y47848D01*
X462964Y47995D01*
X462978Y48045D01*
X463020Y48192D01*
X463021Y48192D01*
X463020Y48192D01*
X463047Y48286D01*
X463046Y48290D01*
X463047Y48291D01*
X463044Y48296D01*
X463049Y48300D01*
X463049Y50400D01*
X463032Y50423D01*
X463033Y50437D01*
X462033Y51337D01*
X462031Y51337D01*
X462032Y51338D01*
X461432Y51838D01*
X461423Y51838D01*
X461422Y51844D01*
X460822Y52144D01*
X460817Y52143D01*
X460816Y52147D01*
X460216Y52347D01*
X460209Y52345D01*
X460207Y52349D01*
X459507Y52449D01*
X459498Y52444D01*
X459493Y52449D01*
X458793Y52349D01*
X458792Y52348D01*
X458792Y52349D01*
X458192Y52249D01*
X458185Y52241D01*
X458178Y52244D01*
X457578Y51944D01*
X457576Y51940D01*
X457573Y51941D01*
X456973Y51541D01*
X456969Y51531D01*
X456962Y51531D01*
X456562Y51031D01*
X456561Y51027D01*
X456559Y51027D01*
X456159Y50427D01*
X456160Y50418D01*
X456153Y50416D01*
X455953Y49816D01*
X455955Y49809D01*
X455951Y49807D01*
X455851Y49107D01*
X455854Y49102D01*
X455851Y49100D01*
X455851Y48400D01*
X455854Y48396D01*
X455851Y48393D01*
X455951Y47693D01*
X455959Y47685D01*
X455956Y47678D01*
X456256Y47078D01*
X456260Y47076D01*
X456259Y47073D01*
X456659Y46473D01*
X456669Y46469D01*
X456669Y46462D01*
X457669Y45662D01*
X457679Y45661D01*
X457681Y45655D01*
X458381Y45355D01*
X458389Y45357D01*
X458392Y45351D01*
X458992Y45251D01*
X458997Y45254D01*
X459000Y45251D01*
X459700Y45251D01*
X459705Y45254D01*
G37*
%LPC*%
G36*
X314008Y346849D02*
X314008Y346849D01*
X313422Y347045D01*
X312834Y347437D01*
X312442Y347927D01*
X312146Y348519D01*
X311948Y349113D01*
X311648Y350510D01*
X311639Y350518D01*
X311642Y350525D01*
X311342Y351025D01*
X311324Y351033D01*
X311322Y351044D01*
X310722Y351344D01*
X310679Y351336D01*
X310669Y351338D01*
X310169Y350938D01*
X310165Y350924D01*
X310164Y350923D01*
X310165Y350922D01*
X310164Y350919D01*
X310153Y350916D01*
X309953Y350316D01*
X309960Y350296D01*
X309953Y350286D01*
X310153Y349586D01*
X310162Y349580D01*
X310159Y349573D01*
X310556Y348977D01*
X310745Y348506D01*
X310365Y347936D01*
X309781Y347546D01*
X309313Y347453D01*
X308736Y347934D01*
X308443Y348325D01*
X308148Y349014D01*
X308049Y349707D01*
X307950Y350400D01*
X308048Y351090D01*
X308049Y351093D01*
X308091Y351241D01*
X308092Y351241D01*
X308091Y351241D01*
X308134Y351389D01*
X308148Y351438D01*
X308190Y351586D01*
X308232Y351733D01*
X308246Y351783D01*
X308247Y351784D01*
X308442Y352272D01*
X308933Y352763D01*
X309427Y353158D01*
X310015Y353452D01*
X310700Y353550D01*
X311389Y353452D01*
X311981Y353254D01*
X312568Y352961D01*
X312958Y352473D01*
X313255Y351879D01*
X313554Y351183D01*
X313752Y350489D01*
X313851Y349892D01*
X313859Y349885D01*
X313856Y349878D01*
X314156Y349278D01*
X314180Y349266D01*
X314184Y349253D01*
X314784Y349053D01*
X314813Y349063D01*
X314825Y349058D01*
X315325Y349358D01*
X315333Y349376D01*
X315344Y349378D01*
X315644Y349978D01*
X315640Y349998D01*
X315649Y350007D01*
X315549Y350707D01*
X315538Y350718D01*
X315541Y350727D01*
X315141Y351327D01*
X315137Y351329D01*
X315138Y351332D01*
X314643Y351926D01*
X314451Y352406D01*
X314546Y353074D01*
X315122Y353554D01*
X315595Y353649D01*
X316272Y353358D01*
X316563Y353067D01*
X317059Y352473D01*
X317354Y351881D01*
X317552Y351289D01*
X317651Y350597D01*
X317651Y349904D01*
X317552Y349311D01*
X317534Y349248D01*
X317492Y349101D01*
X317478Y349051D01*
X317436Y348904D01*
X317393Y348756D01*
X317379Y348707D01*
X317354Y348618D01*
X317059Y348029D01*
X316567Y347537D01*
X316076Y347144D01*
X315489Y346948D01*
X314797Y346849D01*
X314008Y346849D01*
G37*
%LPD*%
%LPC*%
G36*
X282903Y32349D02*
X282903Y32349D01*
X282112Y32448D01*
X281623Y32644D01*
X281038Y33034D01*
X280744Y33622D01*
X280446Y34218D01*
X280248Y34911D01*
X280149Y35508D01*
X280145Y35511D01*
X280147Y35514D01*
X279947Y36214D01*
X279936Y36222D01*
X279938Y36231D01*
X279538Y36731D01*
X279508Y36738D01*
X279500Y36749D01*
X278800Y36749D01*
X278775Y36730D01*
X278762Y36731D01*
X278362Y36231D01*
X278361Y36214D01*
X278353Y36207D01*
X278355Y36203D01*
X278351Y36200D01*
X278351Y35500D01*
X278360Y35487D01*
X278356Y35478D01*
X278656Y34878D01*
X278660Y34876D01*
X278659Y34873D01*
X279048Y34289D01*
X278954Y33724D01*
X278471Y33241D01*
X277893Y32952D01*
X277427Y33045D01*
X276940Y33629D01*
X276646Y34120D01*
X276448Y34811D01*
X276349Y35404D01*
X276349Y36197D01*
X276448Y36889D01*
X276644Y37476D01*
X277037Y37967D01*
X277533Y38463D01*
X278020Y38853D01*
X278707Y38951D01*
X279395Y39050D01*
X279984Y38853D01*
X280576Y38656D01*
X281162Y38167D01*
X281457Y37677D01*
X281754Y37082D01*
X281953Y36386D01*
X281954Y36385D01*
X281953Y36384D01*
X282153Y35785D01*
X282353Y35086D01*
X282364Y35078D01*
X282362Y35069D01*
X282762Y34569D01*
X282799Y34560D01*
X282808Y34551D01*
X283408Y34651D01*
X283423Y34667D01*
X283435Y34665D01*
X283835Y35065D01*
X283838Y35088D01*
X283849Y35094D01*
X283949Y35894D01*
X283941Y35907D01*
X283947Y35916D01*
X283747Y36516D01*
X283736Y36523D01*
X283738Y36532D01*
X283239Y37130D01*
X282846Y37719D01*
X282753Y38187D01*
X283235Y38765D01*
X283714Y39148D01*
X284280Y39053D01*
X284668Y38763D01*
X285063Y38367D01*
X285559Y37773D01*
X285852Y37185D01*
X285951Y36493D01*
X286051Y35797D01*
X286051Y35207D01*
X286041Y35173D01*
X285999Y35025D01*
X285985Y34976D01*
X285943Y34828D01*
X285900Y34680D01*
X285886Y34631D01*
X285854Y34518D01*
X285556Y33922D01*
X285261Y33332D01*
X284771Y32940D01*
X284178Y32545D01*
X283592Y32349D01*
X282903Y32349D01*
G37*
%LPD*%
%LPC*%
G36*
X472760Y277234D02*
X472760Y277234D01*
X472067Y277408D01*
X471563Y277828D01*
X471219Y278257D01*
X470943Y278902D01*
X470662Y279652D01*
X470570Y280384D01*
X470570Y282036D01*
X470662Y282768D01*
X470943Y283518D01*
X471218Y284159D01*
X471647Y284674D01*
X472172Y285024D01*
X472788Y285288D01*
X473587Y285377D01*
X474298Y285288D01*
X475000Y285025D01*
X475422Y284687D01*
X475862Y284159D01*
X476137Y283518D01*
X476418Y282768D01*
X476510Y282036D01*
X476510Y280407D01*
X476128Y278882D01*
X475869Y278277D01*
X475433Y277841D01*
X474908Y277404D01*
X474316Y277234D01*
X473493Y277143D01*
X472760Y277234D01*
G37*
%LPD*%
%LPC*%
G36*
X213403Y68349D02*
X213403Y68349D01*
X212713Y68448D01*
X212022Y68744D01*
X211528Y69040D01*
X211042Y69429D01*
X210853Y69998D01*
X211142Y70672D01*
X211624Y71155D01*
X212092Y71248D01*
X212776Y70857D01*
X212778Y70858D01*
X212778Y70856D01*
X213178Y70656D01*
X213189Y70658D01*
X213193Y70651D01*
X213893Y70551D01*
X213898Y70554D01*
X213900Y70551D01*
X214500Y70551D01*
X214508Y70557D01*
X214514Y70553D01*
X215214Y70753D01*
X215220Y70762D01*
X215227Y70759D01*
X215827Y71159D01*
X215831Y71169D01*
X215838Y71169D01*
X216238Y71669D01*
X216239Y71677D01*
X216244Y71678D01*
X216544Y72278D01*
X216542Y72289D01*
X216544Y72291D01*
X216549Y72293D01*
X216649Y72993D01*
X216646Y72998D01*
X216649Y73000D01*
X216649Y73700D01*
X216642Y73709D01*
X216647Y73716D01*
X216447Y74316D01*
X216439Y74321D01*
X216441Y74327D01*
X216041Y74927D01*
X216031Y74931D01*
X216031Y74938D01*
X215531Y75338D01*
X215521Y75339D01*
X215519Y75345D01*
X214819Y75645D01*
X214811Y75643D01*
X214808Y75649D01*
X214208Y75749D01*
X214203Y75746D01*
X214200Y75749D01*
X213500Y75749D01*
X213491Y75742D01*
X213484Y75747D01*
X212884Y75547D01*
X212880Y75541D01*
X212876Y75543D01*
X212182Y75146D01*
X211812Y75054D01*
X211335Y75435D01*
X210849Y76018D01*
X210849Y76680D01*
X211231Y77062D01*
X211825Y77457D01*
X212415Y77752D01*
X213107Y77851D01*
X213803Y77951D01*
X214397Y77951D01*
X215089Y77852D01*
X215682Y77654D01*
X216379Y77355D01*
X216971Y77059D01*
X217463Y76567D01*
X218258Y75573D01*
X218554Y74982D01*
X218752Y74289D01*
X218851Y73696D01*
X218851Y73000D01*
X218887Y72953D01*
X218894Y72958D01*
X218900Y72951D01*
X218930Y72951D01*
X218898Y72949D01*
X218853Y72912D01*
X218852Y72911D01*
X218854Y72909D01*
X218851Y72908D01*
X218751Y72308D01*
X218752Y72307D01*
X218751Y72307D01*
X218652Y71615D01*
X218356Y71022D01*
X218058Y70427D01*
X217663Y69933D01*
X217169Y69438D01*
X216575Y69043D01*
X215981Y68746D01*
X215385Y68547D01*
X214693Y68349D01*
X213403Y68349D01*
G37*
%LPD*%
%LPC*%
G36*
X282924Y353049D02*
X282924Y353049D01*
X282539Y353530D01*
X282247Y353920D01*
X282152Y354489D01*
X282531Y355058D01*
X283214Y355253D01*
X283217Y355257D01*
X283221Y355255D01*
X288121Y357555D01*
X288121Y357556D01*
X288122Y357556D01*
X288522Y357756D01*
X288526Y357763D01*
X288534Y357764D01*
X288532Y357777D01*
X288539Y357790D01*
X288540Y357791D01*
X288540Y357792D01*
X288548Y357809D01*
X288528Y357819D01*
X288525Y357842D01*
X288025Y358142D01*
X288021Y358142D01*
X288020Y358145D01*
X283420Y360245D01*
X283417Y360244D01*
X283416Y360247D01*
X282824Y360444D01*
X282341Y360830D01*
X282153Y361299D01*
X282442Y361974D01*
X282927Y362555D01*
X283395Y362649D01*
X284079Y362355D01*
X290675Y359057D01*
X291266Y358663D01*
X291651Y358183D01*
X291651Y357512D01*
X291363Y356937D01*
X290778Y356644D01*
X290777Y356644D01*
X284182Y353246D01*
X283493Y353049D01*
X282924Y353049D01*
G37*
%LPD*%
%LPC*%
G36*
X276739Y21540D02*
X276739Y21540D01*
X276549Y22108D01*
X276549Y28897D01*
X276648Y29784D01*
X276930Y30255D01*
X277595Y30350D01*
X278161Y30161D01*
X278351Y29592D01*
X278351Y27600D01*
X278354Y27596D01*
X278351Y27593D01*
X278451Y26893D01*
X278494Y26851D01*
X278497Y26855D01*
X278500Y26851D01*
X285292Y26851D01*
X285863Y26661D01*
X286051Y26191D01*
X286051Y25414D01*
X285768Y24942D01*
X285093Y24749D01*
X279000Y24749D01*
X278995Y24746D01*
X278992Y24749D01*
X278392Y24649D01*
X278351Y24605D01*
X278354Y24603D01*
X278351Y24600D01*
X278351Y21816D01*
X278073Y21446D01*
X277403Y21350D01*
X276739Y21540D01*
G37*
%LPD*%
G36*
X484204Y45254D02*
X484204Y45254D01*
X484207Y45251D01*
X484907Y45351D01*
X484926Y45370D01*
X484939Y45370D01*
X485239Y45770D01*
X485239Y45777D01*
X485242Y45779D01*
X485239Y45782D01*
X485239Y45788D01*
X485249Y45793D01*
X485349Y46493D01*
X485346Y46498D01*
X485349Y46500D01*
X485349Y54000D01*
X485341Y54011D01*
X485346Y54018D01*
X485146Y54518D01*
X485127Y54530D01*
X485125Y54542D01*
X484625Y54842D01*
X484607Y54840D01*
X484600Y54849D01*
X483700Y54849D01*
X483687Y54840D01*
X483678Y54844D01*
X483078Y54544D01*
X483063Y54514D01*
X483051Y54508D01*
X482951Y53908D01*
X482954Y53903D01*
X482951Y53900D01*
X482951Y47249D01*
X479600Y47249D01*
X479596Y47246D01*
X479593Y47249D01*
X478893Y47149D01*
X478875Y47130D01*
X478862Y47131D01*
X478462Y46631D01*
X478461Y46608D01*
X478451Y46600D01*
X478451Y45900D01*
X478462Y45885D01*
X478458Y45875D01*
X478758Y45375D01*
X478786Y45363D01*
X478793Y45351D01*
X479493Y45251D01*
X479498Y45254D01*
X479500Y45251D01*
X484200Y45251D01*
X484204Y45254D01*
G37*
%LPC*%
G36*
X221808Y72349D02*
X221808Y72349D01*
X221237Y72540D01*
X221048Y73012D01*
X220952Y73782D01*
X221323Y74154D01*
X222003Y74251D01*
X222700Y74251D01*
X222747Y74287D01*
X222742Y74294D01*
X222749Y74300D01*
X222749Y74400D01*
X222727Y74430D01*
X222725Y74442D01*
X222231Y74739D01*
X221738Y75231D01*
X221347Y75818D01*
X221249Y76503D01*
X221249Y77192D01*
X221446Y77781D01*
X221739Y78368D01*
X222227Y78758D01*
X222818Y79054D01*
X223507Y79251D01*
X224192Y79251D01*
X224778Y79055D01*
X225366Y78663D01*
X225758Y78173D01*
X226054Y77581D01*
X226250Y76995D01*
X226153Y76317D01*
X225872Y75849D01*
X225114Y75849D01*
X224641Y76133D01*
X224447Y76716D01*
X224442Y76719D01*
X224444Y76722D01*
X224144Y77322D01*
X224114Y77337D01*
X224108Y77349D01*
X223508Y77449D01*
X223478Y77433D01*
X223465Y77435D01*
X222965Y76935D01*
X222961Y76902D01*
X222959Y76901D01*
X222960Y76899D01*
X222958Y76882D01*
X222956Y76878D01*
X223256Y76278D01*
X223263Y76275D01*
X223262Y76269D01*
X223662Y75769D01*
X223672Y75767D01*
X223673Y75759D01*
X224273Y75359D01*
X224277Y75359D01*
X224278Y75356D01*
X224875Y75057D01*
X225471Y74660D01*
X225961Y74268D01*
X226249Y73692D01*
X226153Y73020D01*
X225771Y72542D01*
X225192Y72349D01*
X221808Y72349D01*
G37*
%LPD*%
%LPC*%
G36*
X312756Y367921D02*
X312756Y367921D01*
X312848Y368288D01*
X312844Y368296D01*
X312849Y368300D01*
X312849Y369700D01*
X312833Y369721D01*
X312835Y369735D01*
X312535Y370035D01*
X312508Y370039D01*
X312500Y370049D01*
X310515Y370049D01*
X308305Y371540D01*
X308347Y371877D01*
X308720Y372251D01*
X316796Y372251D01*
X317372Y372155D01*
X317651Y371784D01*
X317651Y370908D01*
X317461Y370337D01*
X316989Y370149D01*
X315597Y370049D01*
X315593Y370046D01*
X315590Y370048D01*
X315090Y369948D01*
X315051Y369904D01*
X315053Y369902D01*
X315051Y369900D01*
X315051Y367907D01*
X315039Y367865D01*
X314997Y367717D01*
X314954Y367569D01*
X314940Y367520D01*
X314898Y367372D01*
X314856Y367225D01*
X314854Y367218D01*
X314581Y366673D01*
X312756Y367921D01*
G37*
%LPD*%
%LPC*%
G36*
X310949Y355595D02*
X310949Y355595D01*
X310918Y355646D01*
X310915Y355644D01*
X310914Y355647D01*
X310221Y355845D01*
X309634Y356237D01*
X309238Y356731D01*
X309234Y356732D01*
X309235Y356735D01*
X308741Y357229D01*
X308446Y357818D01*
X308249Y358507D01*
X308249Y361797D01*
X308346Y362570D01*
X308814Y362851D01*
X311002Y362851D01*
X310952Y360641D01*
X310490Y360548D01*
X310451Y360504D01*
X310453Y360502D01*
X310451Y360500D01*
X310451Y359100D01*
X310454Y359095D01*
X310451Y359092D01*
X310551Y358492D01*
X310567Y358477D01*
X310565Y358465D01*
X311065Y357965D01*
X311081Y357963D01*
X311084Y357953D01*
X311684Y357753D01*
X311690Y357755D01*
X311711Y357755D01*
X311714Y357758D01*
X311719Y357755D01*
X312419Y358055D01*
X312428Y358070D01*
X312438Y358069D01*
X312815Y358539D01*
X314733Y357676D01*
X314457Y357125D01*
X314063Y356534D01*
X313573Y356142D01*
X312982Y355846D01*
X312290Y355648D01*
X311597Y355549D01*
X311000Y355549D01*
X310953Y355513D01*
X310955Y355510D01*
X310951Y355508D01*
X310921Y355316D01*
X310949Y355595D01*
G37*
%LPD*%
%LPC*%
G36*
X228814Y68349D02*
X228814Y68349D01*
X228341Y68633D01*
X228149Y69208D01*
X228149Y76696D01*
X228246Y77276D01*
X228623Y77653D01*
X229495Y77750D01*
X230084Y77553D01*
X230141Y77572D01*
X230138Y77579D01*
X230146Y77581D01*
X230156Y77608D01*
X230161Y77593D01*
X230154Y77582D01*
X230351Y77091D01*
X230351Y69009D01*
X230163Y68540D01*
X229592Y68349D01*
X228814Y68349D01*
G37*
%LPD*%
%LPC*%
G36*
X55146Y118130D02*
X55146Y118130D01*
X55388Y118167D01*
X55389Y118168D01*
X55389Y118167D01*
X55909Y118258D01*
X55916Y118264D01*
X55929Y118265D01*
X56381Y118518D01*
X56385Y118527D01*
X56399Y118533D01*
X56726Y118935D01*
X56727Y118943D01*
X56733Y118947D01*
X56733Y118949D01*
X56736Y118951D01*
X56931Y119436D01*
X56930Y119443D01*
X56935Y119451D01*
X57012Y119975D01*
X57009Y119981D01*
X57012Y119991D01*
X56950Y120515D01*
X56946Y120520D01*
X56947Y120527D01*
X56785Y121024D01*
X56779Y121028D01*
X56777Y121040D01*
X56483Y121469D01*
X56474Y121473D01*
X56467Y121485D01*
X56036Y121783D01*
X56026Y121783D01*
X56014Y121793D01*
X55496Y121905D01*
X55489Y121902D01*
X55477Y121906D01*
X55146Y121876D01*
X55146Y123395D01*
X55146Y123396D01*
X55141Y123796D01*
X55676Y123795D01*
X56712Y123614D01*
X57207Y123489D01*
X58086Y122926D01*
X58364Y122660D01*
X58364Y122657D01*
X59016Y121701D01*
X59158Y121213D01*
X59339Y120180D01*
X59304Y119670D01*
X59121Y118639D01*
X58894Y118185D01*
X58321Y117315D01*
X57440Y116758D01*
X56981Y116540D01*
X55947Y116362D01*
X55424Y116303D01*
X55422Y116303D01*
X55146Y116262D01*
X55146Y118130D01*
G37*
%LPD*%
%LPC*%
G36*
X312849Y358632D02*
X312849Y358632D01*
X312849Y360400D01*
X312824Y360433D01*
X312822Y360444D01*
X312422Y360644D01*
X312406Y360641D01*
X312400Y360649D01*
X311050Y360649D01*
X311100Y362851D01*
X316896Y362851D01*
X317463Y362756D01*
X317651Y362192D01*
X317651Y361314D01*
X317367Y360841D01*
X316792Y360649D01*
X315500Y360649D01*
X315482Y360636D01*
X315470Y360639D01*
X315070Y360339D01*
X315062Y360308D01*
X315051Y360300D01*
X315051Y359003D01*
X314952Y358311D01*
X314771Y357767D01*
X312849Y358632D01*
G37*
%LPD*%
%LPC*%
G36*
X311107Y365049D02*
X311107Y365049D01*
X310417Y365246D01*
X309728Y365542D01*
X309237Y366033D01*
X308842Y366527D01*
X308546Y367118D01*
X308348Y367811D01*
X308249Y368404D01*
X308249Y371097D01*
X308291Y371430D01*
X310451Y369974D01*
X310451Y368700D01*
X310454Y368696D01*
X310451Y368693D01*
X310551Y367993D01*
X310564Y367980D01*
X310562Y367969D01*
X310962Y367469D01*
X310981Y367464D01*
X310984Y367453D01*
X311584Y367253D01*
X311600Y367258D01*
X311607Y367251D01*
X312307Y367351D01*
X312325Y367370D01*
X312338Y367369D01*
X312710Y367834D01*
X314532Y366587D01*
X314163Y366034D01*
X313671Y365640D01*
X313078Y365245D01*
X312492Y365049D01*
X311107Y365049D01*
G37*
%LPD*%
%LPC*%
G36*
X59989Y116383D02*
X59989Y116383D01*
X59935Y116383D01*
X59935Y123449D01*
X59934Y123450D01*
X59935Y123452D01*
X59928Y123462D01*
X59927Y123733D01*
X62249Y123733D01*
X62245Y123592D01*
X62246Y123591D01*
X62256Y116393D01*
X62105Y116383D01*
X59989Y116383D01*
G37*
%LPD*%
%LPC*%
G36*
X63176Y116383D02*
X63176Y116383D01*
X62878Y116389D01*
X62888Y123682D01*
X62888Y123685D01*
X62883Y123733D01*
X64757Y123733D01*
X65133Y123713D01*
X65135Y123714D01*
X65139Y123713D01*
X65199Y123714D01*
X65199Y116411D01*
X64762Y116383D01*
X63176Y116383D01*
G37*
%LPD*%
G36*
X476021Y45267D02*
X476021Y45267D01*
X476035Y45265D01*
X476435Y45665D01*
X476436Y45677D01*
X476441Y45681D01*
X476438Y45686D01*
X476438Y45687D01*
X476449Y45693D01*
X476549Y46393D01*
X476546Y46398D01*
X476549Y46400D01*
X476549Y50900D01*
X476546Y50904D01*
X476549Y50907D01*
X476449Y51607D01*
X476433Y51622D01*
X476435Y51635D01*
X476035Y52035D01*
X476012Y52038D01*
X476006Y52049D01*
X475206Y52149D01*
X475201Y52146D01*
X475196Y52146D01*
X475193Y52149D01*
X474493Y52049D01*
X474471Y52027D01*
X474458Y52025D01*
X474158Y51525D01*
X474158Y51521D01*
X474156Y51519D01*
X474159Y51515D01*
X474160Y51507D01*
X474151Y51500D01*
X474151Y46000D01*
X474162Y45985D01*
X474158Y45975D01*
X474458Y45475D01*
X474480Y45466D01*
X474484Y45453D01*
X475084Y45253D01*
X475095Y45257D01*
X475100Y45251D01*
X476000Y45251D01*
X476021Y45267D01*
G37*
%LPC*%
G36*
X458928Y276740D02*
X458928Y276740D01*
X458465Y276833D01*
X458433Y276832D01*
X458390Y276840D01*
X457980Y276840D01*
X457660Y277000D01*
X457627Y277008D01*
X457582Y277029D01*
X457246Y277113D01*
X457032Y277256D01*
X456886Y277402D01*
X456706Y277671D01*
X456684Y277692D01*
X456659Y277729D01*
X456522Y277865D01*
X456351Y278380D01*
X456338Y278400D01*
X456330Y278430D01*
X456242Y278606D01*
X456170Y278822D01*
X456170Y280445D01*
X456420Y280320D01*
X456435Y280316D01*
X456448Y280307D01*
X456582Y280281D01*
X456589Y280280D01*
X456590Y280280D01*
X456700Y280280D01*
X456820Y280220D01*
X456835Y280216D01*
X456848Y280207D01*
X456982Y280181D01*
X456989Y280180D01*
X456990Y280180D01*
X457300Y280180D01*
X457420Y280120D01*
X457435Y280116D01*
X457448Y280107D01*
X457582Y280081D01*
X457589Y280080D01*
X457590Y280080D01*
X457728Y280080D01*
X457970Y279999D01*
X458007Y279996D01*
X458090Y279980D01*
X458428Y279980D01*
X458670Y279899D01*
X458707Y279896D01*
X458790Y279880D01*
X459100Y279880D01*
X459220Y279820D01*
X459235Y279816D01*
X459248Y279807D01*
X459382Y279781D01*
X459389Y279780D01*
X459390Y279780D01*
X459528Y279780D01*
X459744Y279708D01*
X459865Y279648D01*
X459921Y279591D01*
X459953Y279571D01*
X460020Y279520D01*
X460365Y279348D01*
X460421Y279291D01*
X460453Y279271D01*
X460520Y279220D01*
X460607Y279177D01*
X460810Y278770D01*
X460810Y278660D01*
X460813Y278645D01*
X460811Y278630D01*
X460848Y278498D01*
X460849Y278491D01*
X460850Y278491D01*
X460850Y278490D01*
X460910Y278370D01*
X460910Y278022D01*
X460829Y277780D01*
X460826Y277743D01*
X460810Y277660D01*
X460810Y277550D01*
X460778Y277485D01*
X460721Y277429D01*
X460713Y277415D01*
X460710Y277413D01*
X460707Y277405D01*
X460701Y277397D01*
X460650Y277330D01*
X460607Y277243D01*
X460520Y277200D01*
X460491Y277176D01*
X460421Y277129D01*
X460365Y277073D01*
X460100Y276940D01*
X459990Y276940D01*
X459975Y276937D01*
X459960Y276939D01*
X459828Y276902D01*
X459821Y276901D01*
X459821Y276900D01*
X459820Y276900D01*
X459700Y276840D01*
X459590Y276840D01*
X459575Y276837D01*
X459560Y276839D01*
X459428Y276802D01*
X459421Y276801D01*
X459421Y276800D01*
X459420Y276800D01*
X459345Y276763D01*
X459300Y276740D01*
X458928Y276740D01*
G37*
%LPD*%
%LPC*%
G36*
X465608Y260449D02*
X465608Y260449D01*
X464730Y260742D01*
X464149Y261516D01*
X464149Y262586D01*
X464634Y263361D01*
X465513Y263752D01*
X466502Y263851D01*
X467585Y263851D01*
X468151Y263474D01*
X468151Y260449D01*
X465608Y260449D01*
G37*
%LPD*%
%LPC*%
G36*
X336310Y256448D02*
X336310Y256448D01*
X335330Y256743D01*
X334748Y257518D01*
X334650Y258592D01*
X335040Y259468D01*
X335819Y260052D01*
X336790Y260149D01*
X337666Y259662D01*
X338152Y258982D01*
X338250Y257810D01*
X337861Y257032D01*
X337070Y256439D01*
X337064Y256417D01*
X337055Y256410D01*
X337060Y256403D01*
X337054Y256382D01*
X337060Y256381D01*
X337058Y256375D01*
X337070Y256353D01*
X336310Y256448D01*
G37*
%LPD*%
G36*
X83546Y118172D02*
X83546Y118172D01*
X83553Y118177D01*
X83565Y118176D01*
X84037Y118373D01*
X84042Y118380D01*
X84055Y118384D01*
X84438Y118729D01*
X84440Y118738D01*
X84451Y118745D01*
X84706Y119202D01*
X84706Y119211D01*
X84713Y119222D01*
X84805Y119735D01*
X84803Y119740D01*
X84806Y119746D01*
X84812Y120263D01*
X84809Y120267D01*
X84811Y120273D01*
X84731Y120791D01*
X84725Y120798D01*
X84724Y120812D01*
X84469Y121269D01*
X84462Y121273D01*
X84458Y121284D01*
X84086Y121639D01*
X84077Y121641D01*
X84069Y121651D01*
X83603Y121862D01*
X83595Y121861D01*
X83585Y121867D01*
X83072Y121930D01*
X83064Y121926D01*
X83052Y121929D01*
X82539Y121823D01*
X82532Y121816D01*
X82515Y121813D01*
X82090Y121514D01*
X82087Y121506D01*
X82075Y121499D01*
X81775Y121081D01*
X81775Y121074D01*
X81767Y121066D01*
X81589Y120582D01*
X81591Y120577D01*
X81586Y120570D01*
X81507Y120053D01*
X81511Y120046D01*
X81507Y120034D01*
X81581Y119517D01*
X81584Y119513D01*
X81583Y119505D01*
X81750Y119018D01*
X81755Y119013D01*
X81757Y119003D01*
X82046Y118575D01*
X82054Y118572D01*
X82060Y118560D01*
X82478Y118245D01*
X82488Y118244D01*
X82503Y118233D01*
X83015Y118126D01*
X83023Y118129D01*
X83034Y118125D01*
X83546Y118172D01*
G37*
%LPC*%
G36*
X431520Y236547D02*
X431520Y236547D01*
X430843Y237128D01*
X430552Y238099D01*
X430842Y238972D01*
X431621Y239653D01*
X432588Y239749D01*
X433363Y239265D01*
X433852Y238385D01*
X433949Y237418D01*
X433372Y236841D01*
X432492Y236450D01*
X431520Y236547D01*
G37*
%LPD*%
%LPC*%
G36*
X467916Y50249D02*
X467916Y50249D01*
X467537Y50534D01*
X467249Y51014D01*
X467249Y51685D01*
X467632Y52259D01*
X468208Y52451D01*
X469484Y52451D01*
X469851Y52175D01*
X469851Y50249D01*
X467916Y50249D01*
G37*
%LPD*%
G36*
X476007Y53051D02*
X476007Y53051D01*
X476025Y53070D01*
X476038Y53069D01*
X476438Y53569D01*
X476439Y53577D01*
X476440Y53578D01*
X476439Y53580D01*
X476439Y53588D01*
X476449Y53593D01*
X476549Y54293D01*
X476543Y54303D01*
X476549Y54308D01*
X476449Y54908D01*
X476430Y54926D01*
X476430Y54939D01*
X476030Y55239D01*
X476011Y55239D01*
X476005Y55249D01*
X475105Y55349D01*
X475094Y55342D01*
X475086Y55347D01*
X474386Y55147D01*
X474366Y55120D01*
X474353Y55116D01*
X474153Y54516D01*
X474157Y54505D01*
X474151Y54500D01*
X474151Y53800D01*
X474158Y53791D01*
X474153Y53784D01*
X474353Y53184D01*
X474375Y53169D01*
X474378Y53156D01*
X474578Y53056D01*
X474589Y53058D01*
X474593Y53051D01*
X475293Y52951D01*
X475302Y52956D01*
X475307Y52951D01*
X476007Y53051D01*
G37*
%LPC*%
G36*
X459308Y47649D02*
X459308Y47649D01*
X458729Y47842D01*
X458347Y48320D01*
X458250Y49095D01*
X458441Y49668D01*
X459015Y50051D01*
X459588Y50051D01*
X460168Y49761D01*
X460553Y49280D01*
X460649Y48608D01*
X460361Y48032D01*
X459883Y47649D01*
X459308Y47649D01*
G37*
%LPD*%
%LPC*%
G36*
X363113Y258949D02*
X363113Y258949D01*
X362462Y259322D01*
X362836Y260257D01*
X363797Y260449D01*
X364672Y260158D01*
X365343Y259390D01*
X365167Y258949D01*
X363113Y258949D01*
G37*
%LPD*%
%LPC*%
G36*
X405713Y238949D02*
X405713Y238949D01*
X405062Y239322D01*
X405436Y240258D01*
X406298Y240449D01*
X407272Y240157D01*
X407943Y239390D01*
X407767Y238949D01*
X405713Y238949D01*
G37*
%LPD*%
%LPC*%
G36*
X273949Y58358D02*
X273949Y58358D01*
X273949Y58451D01*
X274696Y58451D01*
X275251Y58358D01*
X275251Y58024D01*
X273949Y58358D01*
G37*
%LPD*%
D10*
X417789Y76006D02*
X407790Y76006D01*
X407790Y123006D02*
X417789Y123006D01*
X412789Y118007D02*
X412789Y128006D01*
D11*
X313998Y130160D03*
D12*
X342700Y124294D02*
X342700Y115706D01*
X317300Y115706D02*
X317300Y124294D01*
X327316Y112912D02*
X332684Y112912D01*
X308768Y180537D02*
X211232Y180537D01*
X309768Y219463D02*
X309881Y219444D01*
X309993Y219422D01*
X310104Y219395D01*
X310214Y219365D01*
X310323Y219330D01*
X310431Y219292D01*
X310538Y219251D01*
X310643Y219206D01*
X310746Y219157D01*
X310848Y219105D01*
X310948Y219049D01*
X311046Y218990D01*
X311141Y218928D01*
X311235Y218862D01*
X311326Y218793D01*
X311415Y218722D01*
X311502Y218647D01*
X311586Y218569D01*
X311667Y218489D01*
X311745Y218405D01*
X311821Y218319D01*
X311893Y218231D01*
X311962Y218140D01*
X312029Y218047D01*
X312092Y217952D01*
X312152Y217854D01*
X312208Y217755D01*
X312261Y217654D01*
X312310Y217550D01*
X312356Y217446D01*
X312399Y217340D01*
X312437Y217232D01*
X312472Y217123D01*
X312504Y217013D01*
X312531Y216902D01*
X312555Y216790D01*
X312575Y216678D01*
X312591Y216565D01*
X312603Y216451D01*
X312611Y216337D01*
X312615Y216223D01*
X312616Y216108D01*
X312612Y215994D01*
X312605Y215880D01*
X312594Y215766D01*
X312578Y215653D01*
X211232Y180537D02*
X211102Y180554D01*
X210973Y180575D01*
X210844Y180600D01*
X210716Y180628D01*
X210589Y180661D01*
X210463Y180697D01*
X210338Y180738D01*
X210215Y180782D01*
X210093Y180829D01*
X209972Y180881D01*
X209853Y180935D01*
X209736Y180994D01*
X209621Y181056D01*
X209507Y181121D01*
X209395Y181190D01*
X209286Y181263D01*
X209179Y181338D01*
X209074Y181417D01*
X208972Y181499D01*
X208872Y181584D01*
X208775Y181671D01*
X208680Y181762D01*
X208588Y181856D01*
X208499Y181952D01*
X208413Y182051D01*
X208331Y182152D01*
X208251Y182256D01*
X208174Y182363D01*
X208101Y182471D01*
X208031Y182582D01*
X207964Y182695D01*
X207901Y182810D01*
X207841Y182926D01*
X207785Y183045D01*
X207732Y183165D01*
X207683Y183286D01*
X207638Y183409D01*
X207596Y183534D01*
X207558Y183659D01*
X207525Y183786D01*
X207494Y183913D01*
X207468Y184042D01*
X207446Y184171D01*
X207427Y184301D01*
X207413Y184431D01*
X207402Y184562D01*
X207396Y184693D01*
X207393Y184824D01*
X207394Y184955D01*
X207400Y185086D01*
X207409Y185216D01*
X207422Y185347D01*
X308768Y180537D02*
X308890Y180539D01*
X309012Y180545D01*
X309134Y180555D01*
X309255Y180568D01*
X309376Y180586D01*
X309496Y180607D01*
X309616Y180632D01*
X309735Y180661D01*
X309852Y180694D01*
X309969Y180731D01*
X310084Y180771D01*
X310198Y180815D01*
X310310Y180863D01*
X310421Y180914D01*
X310530Y180969D01*
X310638Y181027D01*
X310743Y181089D01*
X310847Y181154D01*
X310948Y181222D01*
X311047Y181293D01*
X311144Y181368D01*
X311238Y181446D01*
X311330Y181526D01*
X311419Y181610D01*
X311505Y181696D01*
X311589Y181785D01*
X311669Y181877D01*
X311747Y181971D01*
X311822Y182068D01*
X311893Y182167D01*
X311961Y182268D01*
X312026Y182372D01*
X312088Y182477D01*
X312146Y182585D01*
X312201Y182694D01*
X312252Y182805D01*
X312300Y182917D01*
X312344Y183031D01*
X312384Y183146D01*
X312421Y183263D01*
X312454Y183380D01*
X312483Y183499D01*
X312508Y183619D01*
X312529Y183739D01*
X312547Y183860D01*
X312560Y183981D01*
X312570Y184103D01*
X312576Y184225D01*
X312578Y184347D01*
X211233Y219463D02*
X211119Y219478D01*
X211005Y219490D01*
X210891Y219497D01*
X210777Y219501D01*
X210663Y219500D01*
X210548Y219496D01*
X210434Y219488D01*
X210321Y219476D01*
X210208Y219460D01*
X210095Y219440D01*
X209983Y219416D01*
X209872Y219389D01*
X209762Y219358D01*
X209653Y219323D01*
X209546Y219284D01*
X209439Y219242D01*
X209335Y219196D01*
X209232Y219146D01*
X209130Y219093D01*
X209031Y219037D01*
X208933Y218977D01*
X208838Y218914D01*
X208745Y218848D01*
X208654Y218778D01*
X208566Y218706D01*
X208480Y218630D01*
X208397Y218552D01*
X208316Y218471D01*
X208238Y218387D01*
X208164Y218301D01*
X208092Y218212D01*
X208023Y218120D01*
X207957Y218027D01*
X207895Y217931D01*
X207836Y217833D01*
X207780Y217733D01*
X207728Y217631D01*
X207680Y217528D01*
X207634Y217423D01*
X207593Y217316D01*
X207555Y217208D01*
X207521Y217099D01*
X207491Y216989D01*
X207464Y216878D01*
X207441Y216766D01*
X207422Y216653D01*
X211232Y219463D02*
X309768Y219463D01*
X312578Y215653D02*
X312578Y184347D01*
X207930Y193904D02*
X208088Y193906D01*
X208247Y193912D01*
X208405Y193922D01*
X208562Y193936D01*
X208720Y193953D01*
X208876Y193975D01*
X209033Y194000D01*
X209188Y194030D01*
X209343Y194063D01*
X209497Y194100D01*
X209650Y194141D01*
X209802Y194186D01*
X209952Y194235D01*
X210102Y194287D01*
X210250Y194343D01*
X210397Y194403D01*
X210542Y194466D01*
X210685Y194533D01*
X210827Y194603D01*
X210967Y194677D01*
X211105Y194755D01*
X211241Y194836D01*
X211375Y194920D01*
X211507Y195007D01*
X211637Y195098D01*
X211764Y195192D01*
X211889Y195289D01*
X212012Y195390D01*
X212132Y195493D01*
X212249Y195599D01*
X212364Y195708D01*
X212476Y195820D01*
X212585Y195935D01*
X212691Y196052D01*
X212794Y196172D01*
X212895Y196295D01*
X212992Y196420D01*
X213086Y196547D01*
X213177Y196677D01*
X213264Y196809D01*
X213348Y196943D01*
X213429Y197079D01*
X213507Y197217D01*
X213581Y197357D01*
X213651Y197499D01*
X213718Y197642D01*
X213781Y197787D01*
X213841Y197934D01*
X213897Y198082D01*
X213949Y198232D01*
X213998Y198382D01*
X214043Y198534D01*
X214084Y198687D01*
X214121Y198841D01*
X214154Y198996D01*
X214184Y199151D01*
X214209Y199308D01*
X214231Y199464D01*
X214248Y199622D01*
X214262Y199779D01*
X214272Y199937D01*
X214278Y200096D01*
X214280Y200254D01*
X214278Y200412D01*
X214272Y200571D01*
X214262Y200729D01*
X214248Y200886D01*
X214231Y201044D01*
X214209Y201200D01*
X214184Y201357D01*
X214154Y201512D01*
X214121Y201667D01*
X214084Y201821D01*
X214043Y201974D01*
X213998Y202126D01*
X213949Y202276D01*
X213897Y202426D01*
X213841Y202574D01*
X213781Y202721D01*
X213718Y202866D01*
X213651Y203009D01*
X213581Y203151D01*
X213507Y203291D01*
X213429Y203429D01*
X213348Y203565D01*
X213264Y203699D01*
X213177Y203831D01*
X213086Y203961D01*
X212992Y204088D01*
X212895Y204213D01*
X212794Y204336D01*
X212691Y204456D01*
X212585Y204573D01*
X212476Y204688D01*
X212364Y204800D01*
X212249Y204909D01*
X212132Y205015D01*
X212012Y205118D01*
X211889Y205219D01*
X211764Y205316D01*
X211637Y205410D01*
X211507Y205501D01*
X211375Y205588D01*
X211241Y205672D01*
X211105Y205753D01*
X210967Y205831D01*
X210827Y205905D01*
X210685Y205975D01*
X210542Y206042D01*
X210397Y206105D01*
X210250Y206165D01*
X210102Y206221D01*
X209952Y206273D01*
X209802Y206322D01*
X209650Y206367D01*
X209497Y206408D01*
X209343Y206445D01*
X209188Y206478D01*
X209033Y206508D01*
X208876Y206533D01*
X208720Y206555D01*
X208562Y206572D01*
X208405Y206586D01*
X208247Y206596D01*
X208088Y206602D01*
X207930Y206604D01*
X207422Y193904D02*
X207422Y185474D01*
X207422Y206604D02*
X207422Y216653D01*
D13*
X201580Y225400D02*
X201582Y225471D01*
X201588Y225542D01*
X201598Y225613D01*
X201612Y225683D01*
X201630Y225752D01*
X201651Y225819D01*
X201677Y225886D01*
X201706Y225951D01*
X201738Y226014D01*
X201775Y226076D01*
X201814Y226135D01*
X201857Y226192D01*
X201903Y226246D01*
X201952Y226298D01*
X202004Y226347D01*
X202058Y226393D01*
X202115Y226436D01*
X202174Y226475D01*
X202236Y226512D01*
X202299Y226544D01*
X202364Y226573D01*
X202431Y226599D01*
X202498Y226620D01*
X202567Y226638D01*
X202637Y226652D01*
X202708Y226662D01*
X202779Y226668D01*
X202850Y226670D01*
X202921Y226668D01*
X202992Y226662D01*
X203063Y226652D01*
X203133Y226638D01*
X203202Y226620D01*
X203269Y226599D01*
X203336Y226573D01*
X203401Y226544D01*
X203464Y226512D01*
X203526Y226475D01*
X203585Y226436D01*
X203642Y226393D01*
X203696Y226347D01*
X203748Y226298D01*
X203797Y226246D01*
X203843Y226192D01*
X203886Y226135D01*
X203925Y226076D01*
X203962Y226014D01*
X203994Y225951D01*
X204023Y225886D01*
X204049Y225819D01*
X204070Y225752D01*
X204088Y225683D01*
X204102Y225613D01*
X204112Y225542D01*
X204118Y225471D01*
X204120Y225400D01*
X204118Y225329D01*
X204112Y225258D01*
X204102Y225187D01*
X204088Y225117D01*
X204070Y225048D01*
X204049Y224981D01*
X204023Y224914D01*
X203994Y224849D01*
X203962Y224786D01*
X203925Y224724D01*
X203886Y224665D01*
X203843Y224608D01*
X203797Y224554D01*
X203748Y224502D01*
X203696Y224453D01*
X203642Y224407D01*
X203585Y224364D01*
X203526Y224325D01*
X203464Y224288D01*
X203401Y224256D01*
X203336Y224227D01*
X203269Y224201D01*
X203202Y224180D01*
X203133Y224162D01*
X203063Y224148D01*
X202992Y224138D01*
X202921Y224132D01*
X202850Y224130D01*
X202779Y224132D01*
X202708Y224138D01*
X202637Y224148D01*
X202567Y224162D01*
X202498Y224180D01*
X202431Y224201D01*
X202364Y224227D01*
X202299Y224256D01*
X202236Y224288D01*
X202174Y224325D01*
X202115Y224364D01*
X202058Y224407D01*
X202004Y224453D01*
X201952Y224502D01*
X201903Y224554D01*
X201857Y224608D01*
X201814Y224665D01*
X201775Y224724D01*
X201738Y224786D01*
X201706Y224849D01*
X201677Y224914D01*
X201651Y224981D01*
X201630Y225048D01*
X201612Y225117D01*
X201598Y225187D01*
X201588Y225258D01*
X201582Y225329D01*
X201580Y225400D01*
D14*
X243335Y129840D03*
D12*
X241176Y133777D02*
X241176Y147493D01*
X218824Y147493D02*
X218824Y132507D01*
X239779Y147493D02*
X241176Y147493D01*
X220221Y147493D02*
X218824Y147493D01*
X239779Y132507D02*
X241176Y133777D01*
X220221Y132507D02*
X218824Y132507D01*
D15*
X380093Y118102D02*
X380095Y118155D01*
X380101Y118207D01*
X380111Y118259D01*
X380124Y118310D01*
X380142Y118360D01*
X380163Y118409D01*
X380188Y118456D01*
X380216Y118500D01*
X380247Y118543D01*
X380282Y118583D01*
X380319Y118620D01*
X380359Y118655D01*
X380402Y118686D01*
X380447Y118714D01*
X380493Y118739D01*
X380542Y118760D01*
X380592Y118778D01*
X380643Y118791D01*
X380695Y118801D01*
X380747Y118807D01*
X380800Y118809D01*
X380853Y118807D01*
X380905Y118801D01*
X380957Y118791D01*
X381008Y118778D01*
X381058Y118760D01*
X381107Y118739D01*
X381154Y118714D01*
X381198Y118686D01*
X381241Y118655D01*
X381281Y118620D01*
X381318Y118583D01*
X381353Y118543D01*
X381384Y118500D01*
X381412Y118455D01*
X381437Y118409D01*
X381458Y118360D01*
X381476Y118310D01*
X381489Y118259D01*
X381499Y118207D01*
X381505Y118155D01*
X381507Y118102D01*
X381505Y118049D01*
X381499Y117997D01*
X381489Y117945D01*
X381476Y117894D01*
X381458Y117844D01*
X381437Y117795D01*
X381412Y117748D01*
X381384Y117704D01*
X381353Y117661D01*
X381318Y117621D01*
X381281Y117584D01*
X381241Y117549D01*
X381198Y117518D01*
X381153Y117490D01*
X381107Y117465D01*
X381058Y117444D01*
X381008Y117426D01*
X380957Y117413D01*
X380905Y117403D01*
X380853Y117397D01*
X380800Y117395D01*
X380747Y117397D01*
X380695Y117403D01*
X380643Y117413D01*
X380592Y117426D01*
X380542Y117444D01*
X380493Y117465D01*
X380446Y117490D01*
X380402Y117518D01*
X380359Y117549D01*
X380319Y117584D01*
X380282Y117621D01*
X380247Y117661D01*
X380216Y117704D01*
X380188Y117749D01*
X380163Y117795D01*
X380142Y117844D01*
X380124Y117894D01*
X380111Y117945D01*
X380101Y117997D01*
X380095Y118049D01*
X380093Y118102D01*
D12*
X415000Y60000D02*
X450000Y60000D01*
X415000Y60000D02*
X415000Y68000D01*
X440000Y68000D01*
X440000Y80000D01*
X440000Y120000D02*
X440000Y132000D01*
X415000Y132000D01*
X415000Y140000D01*
X450000Y140000D01*
X490000Y120000D02*
X490000Y80000D01*
X375080Y91110D02*
X364920Y91110D01*
X364920Y108890D02*
X375080Y108890D01*
D16*
X375240Y55240D02*
X375240Y24760D01*
X375240Y55240D02*
X373300Y55240D01*
X373300Y24760D02*
X375240Y24760D01*
X345000Y35000D02*
X345000Y55240D01*
X346700Y55240D01*
X345000Y35000D02*
X345000Y24760D01*
X346700Y24760D01*
D13*
X375494Y22220D02*
X375496Y22283D01*
X375502Y22346D01*
X375512Y22409D01*
X375525Y22470D01*
X375543Y22531D01*
X375564Y22590D01*
X375589Y22649D01*
X375617Y22705D01*
X375649Y22760D01*
X375684Y22812D01*
X375723Y22862D01*
X375764Y22910D01*
X375809Y22955D01*
X375856Y22997D01*
X375905Y23036D01*
X375957Y23072D01*
X376011Y23105D01*
X376067Y23134D01*
X376125Y23160D01*
X376184Y23182D01*
X376244Y23201D01*
X376306Y23215D01*
X376368Y23226D01*
X376431Y23233D01*
X376494Y23236D01*
X376557Y23235D01*
X376620Y23230D01*
X376683Y23221D01*
X376745Y23208D01*
X376806Y23192D01*
X376866Y23172D01*
X376924Y23148D01*
X376981Y23120D01*
X377036Y23089D01*
X377089Y23055D01*
X377140Y23017D01*
X377188Y22976D01*
X377234Y22933D01*
X377277Y22886D01*
X377317Y22837D01*
X377354Y22786D01*
X377387Y22733D01*
X377417Y22677D01*
X377444Y22620D01*
X377467Y22561D01*
X377486Y22501D01*
X377502Y22439D01*
X377514Y22377D01*
X377522Y22315D01*
X377526Y22252D01*
X377526Y22188D01*
X377522Y22125D01*
X377514Y22063D01*
X377502Y22001D01*
X377486Y21939D01*
X377467Y21879D01*
X377444Y21820D01*
X377417Y21763D01*
X377387Y21707D01*
X377354Y21654D01*
X377317Y21603D01*
X377277Y21554D01*
X377234Y21507D01*
X377188Y21464D01*
X377140Y21423D01*
X377089Y21385D01*
X377036Y21351D01*
X376981Y21320D01*
X376924Y21292D01*
X376866Y21268D01*
X376806Y21248D01*
X376745Y21232D01*
X376683Y21219D01*
X376620Y21210D01*
X376557Y21205D01*
X376494Y21204D01*
X376431Y21207D01*
X376368Y21214D01*
X376306Y21225D01*
X376244Y21239D01*
X376184Y21258D01*
X376125Y21280D01*
X376067Y21306D01*
X376011Y21335D01*
X375957Y21368D01*
X375905Y21404D01*
X375856Y21443D01*
X375809Y21485D01*
X375764Y21530D01*
X375723Y21578D01*
X375684Y21628D01*
X375649Y21680D01*
X375617Y21735D01*
X375589Y21791D01*
X375564Y21850D01*
X375543Y21909D01*
X375525Y21970D01*
X375512Y22031D01*
X375502Y22094D01*
X375496Y22157D01*
X375494Y22220D01*
D12*
X230160Y87300D02*
X230160Y112700D01*
X209840Y87300D02*
X209842Y87167D01*
X209848Y87034D01*
X209857Y86902D01*
X209871Y86769D01*
X209888Y86637D01*
X209909Y86506D01*
X209934Y86375D01*
X209963Y86246D01*
X209996Y86117D01*
X210032Y85989D01*
X210072Y85862D01*
X210116Y85736D01*
X210163Y85612D01*
X210214Y85489D01*
X210268Y85368D01*
X210326Y85248D01*
X210388Y85130D01*
X210453Y85014D01*
X210521Y84900D01*
X210592Y84788D01*
X210667Y84678D01*
X210745Y84570D01*
X210826Y84464D01*
X210910Y84361D01*
X210997Y84261D01*
X211086Y84163D01*
X211179Y84067D01*
X211275Y83974D01*
X211373Y83885D01*
X211473Y83798D01*
X211576Y83714D01*
X211682Y83633D01*
X211790Y83555D01*
X211900Y83480D01*
X212012Y83409D01*
X212126Y83341D01*
X212242Y83276D01*
X212360Y83214D01*
X212480Y83156D01*
X212601Y83102D01*
X212724Y83051D01*
X212848Y83004D01*
X212974Y82960D01*
X213101Y82920D01*
X213229Y82884D01*
X213358Y82851D01*
X213487Y82822D01*
X213618Y82797D01*
X213749Y82776D01*
X213881Y82759D01*
X214014Y82745D01*
X214146Y82736D01*
X214279Y82730D01*
X214412Y82728D01*
X209840Y112700D02*
X209842Y112833D01*
X209848Y112966D01*
X209857Y113098D01*
X209871Y113231D01*
X209888Y113363D01*
X209909Y113494D01*
X209934Y113625D01*
X209963Y113754D01*
X209996Y113883D01*
X210032Y114011D01*
X210072Y114138D01*
X210116Y114264D01*
X210163Y114388D01*
X210214Y114511D01*
X210268Y114632D01*
X210326Y114752D01*
X210388Y114870D01*
X210453Y114986D01*
X210521Y115100D01*
X210592Y115212D01*
X210667Y115322D01*
X210745Y115430D01*
X210826Y115536D01*
X210910Y115639D01*
X210997Y115739D01*
X211086Y115837D01*
X211179Y115933D01*
X211275Y116026D01*
X211373Y116115D01*
X211473Y116202D01*
X211576Y116286D01*
X211682Y116367D01*
X211790Y116445D01*
X211900Y116520D01*
X212012Y116591D01*
X212126Y116659D01*
X212242Y116724D01*
X212360Y116786D01*
X212480Y116844D01*
X212601Y116898D01*
X212724Y116949D01*
X212848Y116996D01*
X212974Y117040D01*
X213101Y117080D01*
X213229Y117116D01*
X213358Y117149D01*
X213487Y117178D01*
X213618Y117203D01*
X213749Y117224D01*
X213881Y117241D01*
X214014Y117255D01*
X214146Y117264D01*
X214279Y117270D01*
X214412Y117272D01*
X225588Y117272D02*
X225721Y117270D01*
X225854Y117264D01*
X225986Y117255D01*
X226119Y117241D01*
X226251Y117224D01*
X226382Y117203D01*
X226513Y117178D01*
X226642Y117149D01*
X226771Y117116D01*
X226899Y117080D01*
X227026Y117040D01*
X227152Y116996D01*
X227276Y116949D01*
X227399Y116898D01*
X227520Y116844D01*
X227640Y116786D01*
X227758Y116724D01*
X227874Y116659D01*
X227988Y116591D01*
X228100Y116520D01*
X228210Y116445D01*
X228318Y116367D01*
X228424Y116286D01*
X228527Y116202D01*
X228627Y116115D01*
X228725Y116026D01*
X228821Y115933D01*
X228914Y115837D01*
X229003Y115739D01*
X229090Y115639D01*
X229174Y115536D01*
X229255Y115430D01*
X229333Y115322D01*
X229408Y115212D01*
X229479Y115100D01*
X229547Y114986D01*
X229612Y114870D01*
X229674Y114752D01*
X229732Y114632D01*
X229786Y114511D01*
X229837Y114388D01*
X229884Y114264D01*
X229928Y114138D01*
X229968Y114011D01*
X230004Y113883D01*
X230037Y113754D01*
X230066Y113625D01*
X230091Y113494D01*
X230112Y113363D01*
X230129Y113231D01*
X230143Y113098D01*
X230152Y112966D01*
X230158Y112833D01*
X230160Y112700D01*
X230160Y87300D02*
X230158Y87167D01*
X230152Y87034D01*
X230143Y86902D01*
X230129Y86769D01*
X230112Y86637D01*
X230091Y86506D01*
X230066Y86375D01*
X230037Y86246D01*
X230004Y86117D01*
X229968Y85989D01*
X229928Y85862D01*
X229884Y85736D01*
X229837Y85612D01*
X229786Y85489D01*
X229732Y85368D01*
X229674Y85248D01*
X229612Y85130D01*
X229547Y85014D01*
X229479Y84900D01*
X229408Y84788D01*
X229333Y84678D01*
X229255Y84570D01*
X229174Y84464D01*
X229090Y84361D01*
X229003Y84261D01*
X228914Y84163D01*
X228821Y84067D01*
X228725Y83974D01*
X228627Y83885D01*
X228527Y83798D01*
X228424Y83714D01*
X228318Y83633D01*
X228210Y83555D01*
X228100Y83480D01*
X227988Y83409D01*
X227874Y83341D01*
X227758Y83276D01*
X227640Y83214D01*
X227520Y83156D01*
X227399Y83102D01*
X227276Y83051D01*
X227152Y83004D01*
X227026Y82960D01*
X226899Y82920D01*
X226771Y82884D01*
X226642Y82851D01*
X226513Y82822D01*
X226382Y82797D01*
X226251Y82776D01*
X226119Y82759D01*
X225986Y82745D01*
X225854Y82736D01*
X225721Y82730D01*
X225588Y82728D01*
X214412Y82728D01*
X214412Y117272D02*
X225588Y117272D01*
X209840Y112700D02*
X209840Y87300D01*
X75000Y282000D02*
X75000Y298000D01*
X45000Y298000D02*
X45000Y282000D01*
X41586Y302000D02*
X41588Y302075D01*
X41594Y302149D01*
X41604Y302223D01*
X41617Y302296D01*
X41635Y302369D01*
X41656Y302440D01*
X41681Y302511D01*
X41710Y302580D01*
X41743Y302647D01*
X41779Y302712D01*
X41818Y302776D01*
X41860Y302837D01*
X41906Y302896D01*
X41955Y302953D01*
X42007Y303006D01*
X42061Y303057D01*
X42118Y303106D01*
X42178Y303150D01*
X42240Y303192D01*
X42304Y303231D01*
X42370Y303266D01*
X42437Y303297D01*
X42507Y303325D01*
X42577Y303349D01*
X42649Y303370D01*
X42722Y303386D01*
X42795Y303399D01*
X42870Y303408D01*
X42944Y303413D01*
X43019Y303414D01*
X43093Y303411D01*
X43168Y303404D01*
X43241Y303393D01*
X43315Y303379D01*
X43387Y303360D01*
X43458Y303338D01*
X43528Y303312D01*
X43597Y303282D01*
X43663Y303249D01*
X43728Y303212D01*
X43791Y303172D01*
X43852Y303128D01*
X43910Y303082D01*
X43966Y303032D01*
X44019Y302980D01*
X44070Y302925D01*
X44117Y302867D01*
X44161Y302807D01*
X44202Y302744D01*
X44240Y302680D01*
X44274Y302614D01*
X44305Y302545D01*
X44332Y302476D01*
X44355Y302405D01*
X44374Y302333D01*
X44390Y302260D01*
X44402Y302186D01*
X44410Y302112D01*
X44414Y302037D01*
X44414Y301963D01*
X44410Y301888D01*
X44402Y301814D01*
X44390Y301740D01*
X44374Y301667D01*
X44355Y301595D01*
X44332Y301524D01*
X44305Y301455D01*
X44274Y301386D01*
X44240Y301320D01*
X44202Y301256D01*
X44161Y301193D01*
X44117Y301133D01*
X44070Y301075D01*
X44019Y301020D01*
X43966Y300968D01*
X43910Y300918D01*
X43852Y300872D01*
X43791Y300828D01*
X43728Y300788D01*
X43663Y300751D01*
X43597Y300718D01*
X43528Y300688D01*
X43458Y300662D01*
X43387Y300640D01*
X43315Y300621D01*
X43241Y300607D01*
X43168Y300596D01*
X43093Y300589D01*
X43019Y300586D01*
X42944Y300587D01*
X42870Y300592D01*
X42795Y300601D01*
X42722Y300614D01*
X42649Y300630D01*
X42577Y300651D01*
X42507Y300675D01*
X42437Y300703D01*
X42370Y300734D01*
X42304Y300769D01*
X42240Y300808D01*
X42178Y300850D01*
X42118Y300894D01*
X42061Y300943D01*
X42007Y300994D01*
X41955Y301047D01*
X41906Y301104D01*
X41860Y301163D01*
X41818Y301224D01*
X41779Y301288D01*
X41743Y301353D01*
X41710Y301420D01*
X41681Y301489D01*
X41656Y301560D01*
X41635Y301631D01*
X41617Y301704D01*
X41604Y301777D01*
X41594Y301851D01*
X41588Y301925D01*
X41586Y302000D01*
X36250Y307700D02*
X23750Y307700D01*
X23750Y299000D02*
X23750Y281000D01*
X36250Y281000D02*
X36250Y299000D01*
X43750Y352300D02*
X56250Y352300D01*
X56250Y361000D02*
X56250Y379000D01*
X43750Y379000D02*
X43750Y361000D01*
X73750Y352300D02*
X86250Y352300D01*
X86250Y361000D02*
X86250Y379000D01*
X73750Y379000D02*
X73750Y361000D01*
D11*
X306002Y289840D03*
D12*
X277300Y295706D02*
X277300Y304294D01*
X302700Y304294D02*
X302700Y295706D01*
X292684Y307088D02*
X287316Y307088D01*
X151500Y375300D02*
X148300Y375300D01*
X148300Y378500D01*
X168500Y394700D02*
X171700Y394700D01*
X171700Y391500D01*
X148300Y391500D02*
X148300Y394700D01*
X151500Y394700D01*
X171700Y378500D02*
X171700Y375300D01*
X168500Y375300D01*
X161900Y394700D02*
X158100Y394700D01*
X158100Y375300D02*
X161900Y375300D01*
D17*
X144000Y340000D02*
X140000Y340000D01*
X140000Y336000D01*
X140000Y284000D02*
X140000Y280000D01*
X144000Y280000D01*
X196000Y280000D02*
X200000Y280000D01*
X200000Y284000D01*
X200000Y336000D02*
X196000Y340000D01*
D18*
X201138Y342179D02*
X201140Y342231D01*
X201146Y342283D01*
X201156Y342335D01*
X201169Y342385D01*
X201186Y342435D01*
X201207Y342483D01*
X201232Y342529D01*
X201260Y342573D01*
X201291Y342615D01*
X201325Y342655D01*
X201362Y342692D01*
X201402Y342726D01*
X201444Y342757D01*
X201488Y342785D01*
X201534Y342810D01*
X201582Y342831D01*
X201632Y342848D01*
X201682Y342861D01*
X201734Y342871D01*
X201786Y342877D01*
X201838Y342879D01*
X201890Y342877D01*
X201942Y342871D01*
X201994Y342861D01*
X202044Y342848D01*
X202094Y342831D01*
X202142Y342810D01*
X202188Y342785D01*
X202232Y342757D01*
X202274Y342726D01*
X202314Y342692D01*
X202351Y342655D01*
X202385Y342615D01*
X202416Y342573D01*
X202444Y342529D01*
X202469Y342483D01*
X202490Y342435D01*
X202507Y342385D01*
X202520Y342335D01*
X202530Y342283D01*
X202536Y342231D01*
X202538Y342179D01*
X202536Y342127D01*
X202530Y342075D01*
X202520Y342023D01*
X202507Y341973D01*
X202490Y341923D01*
X202469Y341875D01*
X202444Y341829D01*
X202416Y341785D01*
X202385Y341743D01*
X202351Y341703D01*
X202314Y341666D01*
X202274Y341632D01*
X202232Y341601D01*
X202188Y341573D01*
X202142Y341548D01*
X202094Y341527D01*
X202044Y341510D01*
X201994Y341497D01*
X201942Y341487D01*
X201890Y341481D01*
X201838Y341479D01*
X201786Y341481D01*
X201734Y341487D01*
X201682Y341497D01*
X201632Y341510D01*
X201582Y341527D01*
X201534Y341548D01*
X201488Y341573D01*
X201444Y341601D01*
X201402Y341632D01*
X201362Y341666D01*
X201325Y341703D01*
X201291Y341743D01*
X201260Y341785D01*
X201232Y341829D01*
X201207Y341875D01*
X201186Y341923D01*
X201169Y341973D01*
X201156Y342023D01*
X201146Y342075D01*
X201140Y342127D01*
X201138Y342179D01*
D12*
X114000Y115000D02*
X114000Y85000D01*
X140000Y70000D02*
X156500Y70000D01*
X156500Y122500D02*
X156500Y130000D01*
X140000Y130000D01*
X156500Y77500D02*
X156500Y70000D01*
X161984Y75000D02*
X161986Y75063D01*
X161992Y75126D01*
X162002Y75189D01*
X162015Y75250D01*
X162033Y75311D01*
X162054Y75370D01*
X162079Y75429D01*
X162107Y75485D01*
X162139Y75540D01*
X162174Y75592D01*
X162213Y75642D01*
X162254Y75690D01*
X162299Y75735D01*
X162346Y75777D01*
X162395Y75816D01*
X162447Y75852D01*
X162501Y75885D01*
X162557Y75914D01*
X162615Y75940D01*
X162674Y75962D01*
X162734Y75981D01*
X162796Y75995D01*
X162858Y76006D01*
X162921Y76013D01*
X162984Y76016D01*
X163047Y76015D01*
X163110Y76010D01*
X163173Y76001D01*
X163235Y75988D01*
X163296Y75972D01*
X163356Y75952D01*
X163414Y75928D01*
X163471Y75900D01*
X163526Y75869D01*
X163579Y75835D01*
X163630Y75797D01*
X163678Y75756D01*
X163724Y75713D01*
X163767Y75666D01*
X163807Y75617D01*
X163844Y75566D01*
X163877Y75513D01*
X163907Y75457D01*
X163934Y75400D01*
X163957Y75341D01*
X163976Y75281D01*
X163992Y75219D01*
X164004Y75157D01*
X164012Y75095D01*
X164016Y75032D01*
X164016Y74968D01*
X164012Y74905D01*
X164004Y74843D01*
X163992Y74781D01*
X163976Y74719D01*
X163957Y74659D01*
X163934Y74600D01*
X163907Y74543D01*
X163877Y74487D01*
X163844Y74434D01*
X163807Y74383D01*
X163767Y74334D01*
X163724Y74287D01*
X163678Y74244D01*
X163630Y74203D01*
X163579Y74165D01*
X163526Y74131D01*
X163471Y74100D01*
X163414Y74072D01*
X163356Y74048D01*
X163296Y74028D01*
X163235Y74012D01*
X163173Y73999D01*
X163110Y73990D01*
X163047Y73985D01*
X162984Y73984D01*
X162921Y73987D01*
X162858Y73994D01*
X162796Y74005D01*
X162734Y74019D01*
X162674Y74038D01*
X162615Y74060D01*
X162557Y74086D01*
X162501Y74115D01*
X162447Y74148D01*
X162395Y74184D01*
X162346Y74223D01*
X162299Y74265D01*
X162254Y74310D01*
X162213Y74358D01*
X162174Y74408D01*
X162139Y74460D01*
X162107Y74515D01*
X162079Y74571D01*
X162054Y74630D01*
X162033Y74689D01*
X162015Y74750D01*
X162002Y74811D01*
X161992Y74874D01*
X161986Y74937D01*
X161984Y75000D01*
M02*
