G04 EAGLE Gerber RS-274X export*
G75*
%MOMM*%
%FSLAX34Y34*%
%LPD*%
%INSoldermask Bottom*%
%IPPOS*%
%AMOC8*
5,1,8,0,0,1.08239X$1,22.5*%
G01*
%ADD10C,0.838200*%
%ADD11R,1.203200X1.303200*%
%ADD12R,0.753200X1.403200*%
%ADD13R,1.303200X1.203200*%
%ADD14R,0.803200X1.403200*%
%ADD15R,0.503200X0.863200*%
%ADD16R,0.840000X0.440000*%
%ADD17R,0.940000X1.520000*%
%ADD18C,2.082800*%
%ADD19R,4.803200X1.203200*%
%ADD20R,3.603200X1.803200*%
%ADD21R,0.838200X1.473200*%
%ADD22R,0.553200X1.003200*%
%ADD23R,2.703200X1.903200*%
%ADD24R,1.473200X0.863600*%
%ADD25R,0.753200X1.003200*%
%ADD26R,1.033200X0.833200*%
%ADD27R,0.953200X0.903200*%
%ADD28R,1.103200X0.483200*%
%ADD29R,3.903200X3.903200*%
%ADD30R,0.483200X1.103200*%
%ADD31R,2.203200X1.403200*%
%ADD32R,1.553200X0.803200*%

G36*
X371970Y96583D02*
X371970Y96583D01*
X372036Y96585D01*
X372079Y96603D01*
X372126Y96611D01*
X372183Y96645D01*
X372243Y96670D01*
X372278Y96701D01*
X372319Y96726D01*
X372361Y96777D01*
X372409Y96821D01*
X372431Y96863D01*
X372460Y96900D01*
X372481Y96962D01*
X372512Y97021D01*
X372520Y97075D01*
X372532Y97112D01*
X372531Y97152D01*
X372539Y97206D01*
X372539Y102794D01*
X372528Y102859D01*
X372526Y102925D01*
X372508Y102968D01*
X372500Y103015D01*
X372466Y103072D01*
X372441Y103132D01*
X372410Y103167D01*
X372385Y103208D01*
X372334Y103250D01*
X372290Y103298D01*
X372248Y103320D01*
X372211Y103349D01*
X372149Y103370D01*
X372090Y103401D01*
X372036Y103409D01*
X371999Y103421D01*
X371959Y103420D01*
X371905Y103428D01*
X368095Y103428D01*
X368030Y103417D01*
X367964Y103415D01*
X367921Y103397D01*
X367874Y103389D01*
X367817Y103355D01*
X367757Y103330D01*
X367722Y103299D01*
X367681Y103274D01*
X367640Y103223D01*
X367591Y103179D01*
X367569Y103137D01*
X367540Y103100D01*
X367519Y103038D01*
X367488Y102979D01*
X367480Y102925D01*
X367468Y102888D01*
X367469Y102848D01*
X367461Y102794D01*
X367461Y97206D01*
X367472Y97141D01*
X367474Y97075D01*
X367492Y97032D01*
X367500Y96985D01*
X367534Y96928D01*
X367559Y96868D01*
X367590Y96833D01*
X367615Y96792D01*
X367666Y96751D01*
X367710Y96702D01*
X367752Y96680D01*
X367789Y96651D01*
X367851Y96630D01*
X367910Y96599D01*
X367964Y96591D01*
X368001Y96579D01*
X368041Y96580D01*
X368095Y96572D01*
X371905Y96572D01*
X371970Y96583D01*
G37*
G36*
X221335Y102552D02*
X221335Y102552D01*
X221401Y102554D01*
X221444Y102572D01*
X221491Y102580D01*
X221548Y102614D01*
X221608Y102639D01*
X221643Y102670D01*
X221684Y102695D01*
X221726Y102746D01*
X221774Y102790D01*
X221796Y102832D01*
X221825Y102869D01*
X221846Y102931D01*
X221877Y102990D01*
X221885Y103044D01*
X221897Y103081D01*
X221896Y103121D01*
X221904Y103175D01*
X221904Y106985D01*
X221893Y107050D01*
X221891Y107116D01*
X221873Y107159D01*
X221865Y107206D01*
X221831Y107263D01*
X221806Y107323D01*
X221775Y107358D01*
X221750Y107399D01*
X221699Y107441D01*
X221655Y107489D01*
X221613Y107511D01*
X221576Y107540D01*
X221514Y107561D01*
X221455Y107592D01*
X221401Y107600D01*
X221364Y107612D01*
X221324Y107611D01*
X221270Y107619D01*
X218730Y107619D01*
X218665Y107608D01*
X218599Y107606D01*
X218556Y107588D01*
X218509Y107580D01*
X218452Y107546D01*
X218392Y107521D01*
X218357Y107490D01*
X218316Y107465D01*
X218275Y107414D01*
X218226Y107370D01*
X218204Y107328D01*
X218175Y107291D01*
X218154Y107229D01*
X218123Y107170D01*
X218115Y107116D01*
X218103Y107079D01*
X218103Y107075D01*
X218103Y107074D01*
X218104Y107039D01*
X218096Y106985D01*
X218096Y103175D01*
X218107Y103110D01*
X218109Y103044D01*
X218127Y103001D01*
X218135Y102954D01*
X218169Y102897D01*
X218194Y102837D01*
X218225Y102802D01*
X218250Y102761D01*
X218301Y102720D01*
X218345Y102671D01*
X218387Y102649D01*
X218424Y102620D01*
X218486Y102599D01*
X218545Y102568D01*
X218599Y102560D01*
X218636Y102548D01*
X218676Y102549D01*
X218730Y102541D01*
X221270Y102541D01*
X221335Y102552D01*
G37*
G36*
X221335Y92392D02*
X221335Y92392D01*
X221401Y92394D01*
X221444Y92412D01*
X221491Y92420D01*
X221548Y92454D01*
X221608Y92479D01*
X221643Y92510D01*
X221684Y92535D01*
X221726Y92586D01*
X221774Y92630D01*
X221796Y92672D01*
X221825Y92709D01*
X221846Y92771D01*
X221877Y92830D01*
X221885Y92884D01*
X221897Y92921D01*
X221896Y92961D01*
X221904Y93015D01*
X221904Y96825D01*
X221893Y96890D01*
X221891Y96956D01*
X221873Y96999D01*
X221865Y97046D01*
X221831Y97103D01*
X221806Y97163D01*
X221775Y97198D01*
X221750Y97239D01*
X221699Y97281D01*
X221655Y97329D01*
X221613Y97351D01*
X221576Y97380D01*
X221514Y97401D01*
X221455Y97432D01*
X221401Y97440D01*
X221364Y97452D01*
X221324Y97451D01*
X221270Y97459D01*
X218730Y97459D01*
X218665Y97448D01*
X218599Y97446D01*
X218556Y97428D01*
X218509Y97420D01*
X218452Y97386D01*
X218392Y97361D01*
X218357Y97330D01*
X218316Y97305D01*
X218275Y97254D01*
X218226Y97210D01*
X218204Y97168D01*
X218175Y97131D01*
X218154Y97069D01*
X218123Y97010D01*
X218115Y96956D01*
X218103Y96919D01*
X218103Y96915D01*
X218103Y96914D01*
X218104Y96879D01*
X218096Y96825D01*
X218096Y93015D01*
X218107Y92950D01*
X218109Y92884D01*
X218127Y92841D01*
X218135Y92794D01*
X218169Y92737D01*
X218194Y92677D01*
X218225Y92642D01*
X218250Y92601D01*
X218301Y92560D01*
X218345Y92511D01*
X218387Y92489D01*
X218424Y92460D01*
X218486Y92439D01*
X218545Y92408D01*
X218599Y92400D01*
X218636Y92388D01*
X218676Y92389D01*
X218730Y92381D01*
X221270Y92381D01*
X221335Y92392D01*
G37*
D10*
X590000Y10000D03*
X10000Y390000D03*
D11*
X300000Y91500D03*
X300000Y108500D03*
X280000Y108500D03*
X280000Y91500D03*
D12*
X320500Y133001D03*
X330000Y133001D03*
X339500Y133001D03*
X339500Y106999D03*
X320500Y106999D03*
D13*
X338500Y150000D03*
X321500Y150000D03*
D11*
X280000Y131500D03*
X280000Y148500D03*
X300000Y131500D03*
X300000Y148500D03*
X194000Y148500D03*
X194000Y131500D03*
D14*
X215550Y228000D03*
X228250Y228000D03*
X240950Y228000D03*
X253650Y228000D03*
X266350Y228000D03*
X279050Y228000D03*
X291750Y228000D03*
X304450Y228000D03*
X304450Y172000D03*
X291750Y172000D03*
X279050Y172000D03*
X266350Y172000D03*
X253650Y172000D03*
X240950Y172000D03*
X228250Y172000D03*
X215550Y172000D03*
D11*
X260000Y131500D03*
X260000Y148500D03*
X210000Y148500D03*
X210000Y131500D03*
D15*
X223500Y149200D03*
X230000Y130800D03*
X236500Y130800D03*
X223500Y130800D03*
X230000Y149200D03*
X236500Y149200D03*
D11*
X230000Y251500D03*
X230000Y268500D03*
D16*
X399900Y122500D03*
X399900Y127500D03*
X399900Y132500D03*
X399900Y137500D03*
X379900Y137500D03*
X379900Y132500D03*
X379900Y127500D03*
X379900Y122500D03*
D17*
X390000Y130000D03*
D11*
X360000Y121500D03*
X360000Y138500D03*
D18*
X280000Y70000D03*
X305400Y70000D03*
D13*
X321500Y75000D03*
X338500Y75000D03*
X371500Y75000D03*
X354500Y75000D03*
X368500Y10000D03*
X351500Y10000D03*
D19*
X423000Y90000D03*
X423000Y110000D03*
D20*
X475000Y66000D03*
X475000Y134000D03*
D21*
X375080Y100000D03*
X364920Y100000D03*
D18*
X382700Y100000D03*
X357300Y100000D03*
D22*
X360000Y25500D03*
X365000Y25500D03*
X370000Y25500D03*
X355000Y25500D03*
X350000Y25500D03*
X350000Y54500D03*
X355000Y54500D03*
X360000Y54500D03*
X365000Y54500D03*
X370000Y54500D03*
D23*
X360000Y40000D03*
D11*
X320000Y59500D03*
X320000Y42500D03*
D13*
X338500Y90000D03*
X321500Y90000D03*
D11*
X320000Y9500D03*
X320000Y26500D03*
D13*
X181500Y90000D03*
X198500Y90000D03*
X181500Y110000D03*
X198500Y110000D03*
D24*
X220000Y110414D03*
X220000Y100000D03*
X220000Y89586D03*
D25*
X50500Y302000D03*
X60000Y302000D03*
X69500Y302000D03*
X69500Y278000D03*
X50500Y278000D03*
X60000Y278000D03*
D13*
X68500Y260000D03*
X51500Y260000D03*
X51500Y240000D03*
X68500Y240000D03*
D11*
X30000Y258500D03*
X30000Y241500D03*
D26*
X30000Y301500D03*
X30000Y278500D03*
D11*
X45000Y338500D03*
X45000Y321500D03*
X30000Y321500D03*
X30000Y338500D03*
D13*
X78500Y320000D03*
X61500Y320000D03*
X78500Y340000D03*
X61500Y340000D03*
D26*
X50000Y358500D03*
X50000Y381500D03*
X80000Y358500D03*
X80000Y381500D03*
D13*
X298500Y330000D03*
X281500Y330000D03*
X281500Y350000D03*
X298500Y350000D03*
D12*
X299500Y286999D03*
X290000Y286999D03*
X280500Y286999D03*
X280500Y313001D03*
X299500Y313001D03*
D11*
X320000Y291500D03*
X320000Y308500D03*
X260000Y308500D03*
X260000Y291500D03*
D18*
X40000Y120000D03*
X40000Y145400D03*
X40000Y170800D03*
X40000Y196200D03*
D11*
X230000Y371500D03*
X230000Y388500D03*
D27*
X153250Y380000D03*
X166750Y380000D03*
X166750Y390000D03*
X153250Y390000D03*
D28*
X197500Y330000D03*
D29*
X170000Y310000D03*
D28*
X197500Y325000D03*
X197500Y320000D03*
X197500Y315000D03*
X197500Y310000D03*
X197500Y305000D03*
X197500Y300000D03*
X197500Y295000D03*
X197500Y290000D03*
D30*
X190000Y282500D03*
X185000Y282500D03*
X180000Y282500D03*
X175000Y282500D03*
X170000Y282500D03*
X165000Y282500D03*
X160000Y282500D03*
X155000Y282500D03*
X150000Y282500D03*
D28*
X142500Y290000D03*
X142500Y295000D03*
X142500Y300000D03*
X142500Y305000D03*
X142500Y310000D03*
X142500Y315000D03*
X142500Y320000D03*
X142500Y325000D03*
X142500Y330000D03*
D30*
X150000Y337500D03*
X155000Y337500D03*
X160000Y337500D03*
X165000Y337500D03*
X170000Y337500D03*
X175000Y337500D03*
X180000Y337500D03*
X185000Y337500D03*
X190000Y337500D03*
D13*
X151500Y368000D03*
X168500Y368000D03*
D11*
X184000Y388500D03*
X184000Y371500D03*
X136000Y388500D03*
X136000Y371500D03*
D13*
X101500Y385000D03*
X118500Y385000D03*
X101500Y295000D03*
X118500Y295000D03*
D11*
X210000Y371500D03*
X210000Y388500D03*
D13*
X168500Y260000D03*
X151500Y260000D03*
X118500Y325000D03*
X101500Y325000D03*
X118500Y310000D03*
X101500Y310000D03*
D31*
X123250Y72000D03*
X123250Y128000D03*
D32*
X160000Y85000D03*
X160000Y95000D03*
X160000Y105000D03*
X160000Y115000D03*
D13*
X101500Y355000D03*
X118500Y355000D03*
X118500Y340000D03*
X101500Y340000D03*
D18*
X287000Y384000D03*
X312400Y384000D03*
D13*
X214500Y335000D03*
X231500Y335000D03*
X214500Y351000D03*
X231500Y351000D03*
X118500Y370000D03*
X101500Y370000D03*
M02*
