G04 EAGLE Gerber RS-274X export*
G75*
%MOMM*%
%FSLAX34Y34*%
%LPD*%
%INSoldermask Bottom*%
%IPPOS*%
%AMOC8*
5,1,8,0,0,1.08239X$1,22.5*%
G01*
%ADD10R,0.553200X2.203200*%
%ADD11C,1.003200*%
%ADD12C,1.203200*%
%ADD13C,2.503200*%
%ADD14C,1.270000*%
%ADD15C,1.703200*%


D10*
X337750Y97000D03*
X331250Y97000D03*
X324750Y97000D03*
X318250Y97000D03*
X311750Y97000D03*
X305250Y97000D03*
X298750Y97000D03*
X292250Y97000D03*
X285750Y97000D03*
X279250Y97000D03*
X272750Y97000D03*
X266250Y97000D03*
X259750Y97000D03*
X253250Y97000D03*
X246750Y97000D03*
X240250Y97000D03*
X233750Y97000D03*
X227250Y97000D03*
X220750Y97000D03*
X214250Y97000D03*
X207750Y97000D03*
X201250Y97000D03*
X194750Y97000D03*
X188250Y97000D03*
X181750Y97000D03*
X175250Y97000D03*
X168750Y97000D03*
X162250Y97000D03*
D11*
X166250Y63000D03*
X333750Y63000D03*
D12*
X10000Y10000D03*
X490000Y210000D03*
D13*
X450000Y190000D03*
D12*
X430500Y40000D03*
X350500Y40000D03*
D10*
X842829Y97000D03*
X836329Y97000D03*
X829829Y97000D03*
X823329Y97000D03*
X816829Y97000D03*
X810329Y97000D03*
X803829Y97000D03*
X797329Y97000D03*
X790829Y97000D03*
X784329Y97000D03*
X777829Y97000D03*
X771329Y97000D03*
X764829Y97000D03*
X758329Y97000D03*
X751829Y97000D03*
X745329Y97000D03*
X738829Y97000D03*
X732329Y97000D03*
X725829Y97000D03*
X719329Y97000D03*
X712829Y97000D03*
X706329Y97000D03*
X699829Y97000D03*
X693329Y97000D03*
X686829Y97000D03*
X680329Y97000D03*
X673829Y97000D03*
X667329Y97000D03*
D11*
X671329Y63000D03*
X838829Y63000D03*
D12*
X515079Y10000D03*
X995079Y210000D03*
D13*
X955079Y190000D03*
D12*
X935579Y40000D03*
X855579Y40000D03*
D10*
X337750Y322069D03*
X331250Y322069D03*
X324750Y322069D03*
X318250Y322069D03*
X311750Y322069D03*
X305250Y322069D03*
X298750Y322069D03*
X292250Y322069D03*
X285750Y322069D03*
X279250Y322069D03*
X272750Y322069D03*
X266250Y322069D03*
X259750Y322069D03*
X253250Y322069D03*
X246750Y322069D03*
X240250Y322069D03*
X233750Y322069D03*
X227250Y322069D03*
X220750Y322069D03*
X214250Y322069D03*
X207750Y322069D03*
X201250Y322069D03*
X194750Y322069D03*
X188250Y322069D03*
X181750Y322069D03*
X175250Y322069D03*
X168750Y322069D03*
X162250Y322069D03*
D11*
X166250Y288069D03*
X333750Y288069D03*
D12*
X10000Y235069D03*
X490000Y435069D03*
D13*
X450000Y415069D03*
D12*
X430500Y265069D03*
X350500Y265069D03*
D10*
X842829Y322069D03*
X836329Y322069D03*
X829829Y322069D03*
X823329Y322069D03*
X816829Y322069D03*
X810329Y322069D03*
X803829Y322069D03*
X797329Y322069D03*
X790829Y322069D03*
X784329Y322069D03*
X777829Y322069D03*
X771329Y322069D03*
X764829Y322069D03*
X758329Y322069D03*
X751829Y322069D03*
X745329Y322069D03*
X738829Y322069D03*
X732329Y322069D03*
X725829Y322069D03*
X719329Y322069D03*
X712829Y322069D03*
X706329Y322069D03*
X699829Y322069D03*
X693329Y322069D03*
X686829Y322069D03*
X680329Y322069D03*
X673829Y322069D03*
X667329Y322069D03*
D11*
X671329Y288069D03*
X838829Y288069D03*
D12*
X515079Y235069D03*
X995079Y435069D03*
D13*
X955079Y415069D03*
D12*
X935579Y265069D03*
X855579Y265069D03*
D10*
X337750Y547164D03*
X331250Y547164D03*
X324750Y547164D03*
X318250Y547164D03*
X311750Y547164D03*
X305250Y547164D03*
X298750Y547164D03*
X292250Y547164D03*
X285750Y547164D03*
X279250Y547164D03*
X272750Y547164D03*
X266250Y547164D03*
X259750Y547164D03*
X253250Y547164D03*
X246750Y547164D03*
X240250Y547164D03*
X233750Y547164D03*
X227250Y547164D03*
X220750Y547164D03*
X214250Y547164D03*
X207750Y547164D03*
X201250Y547164D03*
X194750Y547164D03*
X188250Y547164D03*
X181750Y547164D03*
X175250Y547164D03*
X168750Y547164D03*
X162250Y547164D03*
D11*
X166250Y513164D03*
X333750Y513164D03*
D12*
X10000Y460164D03*
X490000Y660164D03*
D13*
X450000Y640164D03*
D12*
X430500Y490164D03*
X350500Y490164D03*
D10*
X842829Y547164D03*
X836329Y547164D03*
X829829Y547164D03*
X823329Y547164D03*
X816829Y547164D03*
X810329Y547164D03*
X803829Y547164D03*
X797329Y547164D03*
X790829Y547164D03*
X784329Y547164D03*
X777829Y547164D03*
X771329Y547164D03*
X764829Y547164D03*
X758329Y547164D03*
X751829Y547164D03*
X745329Y547164D03*
X738829Y547164D03*
X732329Y547164D03*
X725829Y547164D03*
X719329Y547164D03*
X712829Y547164D03*
X706329Y547164D03*
X699829Y547164D03*
X693329Y547164D03*
X686829Y547164D03*
X680329Y547164D03*
X673829Y547164D03*
X667329Y547164D03*
D11*
X671329Y513164D03*
X838829Y513164D03*
D12*
X515079Y460164D03*
X995079Y660164D03*
D13*
X955079Y640164D03*
D12*
X935579Y490164D03*
X855579Y490164D03*
D10*
X337750Y772234D03*
X331250Y772234D03*
X324750Y772234D03*
X318250Y772234D03*
X311750Y772234D03*
X305250Y772234D03*
X298750Y772234D03*
X292250Y772234D03*
X285750Y772234D03*
X279250Y772234D03*
X272750Y772234D03*
X266250Y772234D03*
X259750Y772234D03*
X253250Y772234D03*
X246750Y772234D03*
X240250Y772234D03*
X233750Y772234D03*
X227250Y772234D03*
X220750Y772234D03*
X214250Y772234D03*
X207750Y772234D03*
X201250Y772234D03*
X194750Y772234D03*
X188250Y772234D03*
X181750Y772234D03*
X175250Y772234D03*
X168750Y772234D03*
X162250Y772234D03*
D11*
X166250Y738234D03*
X333750Y738234D03*
D12*
X10000Y685234D03*
X490000Y885234D03*
D13*
X450000Y865234D03*
D12*
X430500Y715234D03*
X350500Y715234D03*
D10*
X842829Y772234D03*
X836329Y772234D03*
X829829Y772234D03*
X823329Y772234D03*
X816829Y772234D03*
X810329Y772234D03*
X803829Y772234D03*
X797329Y772234D03*
X790829Y772234D03*
X784329Y772234D03*
X777829Y772234D03*
X771329Y772234D03*
X764829Y772234D03*
X758329Y772234D03*
X751829Y772234D03*
X745329Y772234D03*
X738829Y772234D03*
X732329Y772234D03*
X725829Y772234D03*
X719329Y772234D03*
X712829Y772234D03*
X706329Y772234D03*
X699829Y772234D03*
X693329Y772234D03*
X686829Y772234D03*
X680329Y772234D03*
X673829Y772234D03*
X667329Y772234D03*
D11*
X671329Y738234D03*
X838829Y738234D03*
D12*
X515079Y685234D03*
X995079Y885234D03*
D13*
X955079Y865234D03*
D12*
X935579Y715234D03*
X855579Y715234D03*
D10*
X337750Y997328D03*
X331250Y997328D03*
X324750Y997328D03*
X318250Y997328D03*
X311750Y997328D03*
X305250Y997328D03*
X298750Y997328D03*
X292250Y997328D03*
X285750Y997328D03*
X279250Y997328D03*
X272750Y997328D03*
X266250Y997328D03*
X259750Y997328D03*
X253250Y997328D03*
X246750Y997328D03*
X240250Y997328D03*
X233750Y997328D03*
X227250Y997328D03*
X220750Y997328D03*
X214250Y997328D03*
X207750Y997328D03*
X201250Y997328D03*
X194750Y997328D03*
X188250Y997328D03*
X181750Y997328D03*
X175250Y997328D03*
X168750Y997328D03*
X162250Y997328D03*
D11*
X166250Y963328D03*
X333750Y963328D03*
D12*
X10000Y910328D03*
X490000Y1110328D03*
D13*
X450000Y1090328D03*
D12*
X430500Y940328D03*
X350500Y940328D03*
D10*
X842829Y997328D03*
X836329Y997328D03*
X829829Y997328D03*
X823329Y997328D03*
X816829Y997328D03*
X810329Y997328D03*
X803829Y997328D03*
X797329Y997328D03*
X790829Y997328D03*
X784329Y997328D03*
X777829Y997328D03*
X771329Y997328D03*
X764829Y997328D03*
X758329Y997328D03*
X751829Y997328D03*
X745329Y997328D03*
X738829Y997328D03*
X732329Y997328D03*
X725829Y997328D03*
X719329Y997328D03*
X712829Y997328D03*
X706329Y997328D03*
X699829Y997328D03*
X693329Y997328D03*
X686829Y997328D03*
X680329Y997328D03*
X673829Y997328D03*
X667329Y997328D03*
D11*
X671329Y963328D03*
X838829Y963328D03*
D12*
X515079Y910328D03*
X995079Y1110328D03*
D13*
X955079Y1090328D03*
D12*
X935579Y940328D03*
X855579Y940328D03*
D10*
X337750Y1222398D03*
X331250Y1222398D03*
X324750Y1222398D03*
X318250Y1222398D03*
X311750Y1222398D03*
X305250Y1222398D03*
X298750Y1222398D03*
X292250Y1222398D03*
X285750Y1222398D03*
X279250Y1222398D03*
X272750Y1222398D03*
X266250Y1222398D03*
X259750Y1222398D03*
X253250Y1222398D03*
X246750Y1222398D03*
X240250Y1222398D03*
X233750Y1222398D03*
X227250Y1222398D03*
X220750Y1222398D03*
X214250Y1222398D03*
X207750Y1222398D03*
X201250Y1222398D03*
X194750Y1222398D03*
X188250Y1222398D03*
X181750Y1222398D03*
X175250Y1222398D03*
X168750Y1222398D03*
X162250Y1222398D03*
D11*
X166250Y1188398D03*
X333750Y1188398D03*
D12*
X10000Y1135398D03*
X490000Y1335398D03*
D13*
X450000Y1315398D03*
D12*
X430500Y1165398D03*
X350500Y1165398D03*
D10*
X842829Y1222398D03*
X836329Y1222398D03*
X829829Y1222398D03*
X823329Y1222398D03*
X816829Y1222398D03*
X810329Y1222398D03*
X803829Y1222398D03*
X797329Y1222398D03*
X790829Y1222398D03*
X784329Y1222398D03*
X777829Y1222398D03*
X771329Y1222398D03*
X764829Y1222398D03*
X758329Y1222398D03*
X751829Y1222398D03*
X745329Y1222398D03*
X738829Y1222398D03*
X732329Y1222398D03*
X725829Y1222398D03*
X719329Y1222398D03*
X712829Y1222398D03*
X706329Y1222398D03*
X699829Y1222398D03*
X693329Y1222398D03*
X686829Y1222398D03*
X680329Y1222398D03*
X673829Y1222398D03*
X667329Y1222398D03*
D11*
X671329Y1188398D03*
X838829Y1188398D03*
D12*
X515079Y1135398D03*
X995079Y1335398D03*
D13*
X955079Y1315398D03*
D12*
X935579Y1165398D03*
X855579Y1165398D03*
D10*
X337750Y1447493D03*
X331250Y1447493D03*
X324750Y1447493D03*
X318250Y1447493D03*
X311750Y1447493D03*
X305250Y1447493D03*
X298750Y1447493D03*
X292250Y1447493D03*
X285750Y1447493D03*
X279250Y1447493D03*
X272750Y1447493D03*
X266250Y1447493D03*
X259750Y1447493D03*
X253250Y1447493D03*
X246750Y1447493D03*
X240250Y1447493D03*
X233750Y1447493D03*
X227250Y1447493D03*
X220750Y1447493D03*
X214250Y1447493D03*
X207750Y1447493D03*
X201250Y1447493D03*
X194750Y1447493D03*
X188250Y1447493D03*
X181750Y1447493D03*
X175250Y1447493D03*
X168750Y1447493D03*
X162250Y1447493D03*
D11*
X166250Y1413493D03*
X333750Y1413493D03*
D12*
X10000Y1360493D03*
X490000Y1560493D03*
D13*
X450000Y1540493D03*
D12*
X430500Y1390493D03*
X350500Y1390493D03*
D10*
X842829Y1447493D03*
X836329Y1447493D03*
X829829Y1447493D03*
X823329Y1447493D03*
X816829Y1447493D03*
X810329Y1447493D03*
X803829Y1447493D03*
X797329Y1447493D03*
X790829Y1447493D03*
X784329Y1447493D03*
X777829Y1447493D03*
X771329Y1447493D03*
X764829Y1447493D03*
X758329Y1447493D03*
X751829Y1447493D03*
X745329Y1447493D03*
X738829Y1447493D03*
X732329Y1447493D03*
X725829Y1447493D03*
X719329Y1447493D03*
X712829Y1447493D03*
X706329Y1447493D03*
X699829Y1447493D03*
X693329Y1447493D03*
X686829Y1447493D03*
X680329Y1447493D03*
X673829Y1447493D03*
X667329Y1447493D03*
D11*
X671329Y1413493D03*
X838829Y1413493D03*
D12*
X515079Y1360493D03*
X995079Y1560493D03*
D13*
X955079Y1540493D03*
D12*
X935579Y1390493D03*
X855579Y1390493D03*
D10*
X337750Y1672562D03*
X331250Y1672562D03*
X324750Y1672562D03*
X318250Y1672562D03*
X311750Y1672562D03*
X305250Y1672562D03*
X298750Y1672562D03*
X292250Y1672562D03*
X285750Y1672562D03*
X279250Y1672562D03*
X272750Y1672562D03*
X266250Y1672562D03*
X259750Y1672562D03*
X253250Y1672562D03*
X246750Y1672562D03*
X240250Y1672562D03*
X233750Y1672562D03*
X227250Y1672562D03*
X220750Y1672562D03*
X214250Y1672562D03*
X207750Y1672562D03*
X201250Y1672562D03*
X194750Y1672562D03*
X188250Y1672562D03*
X181750Y1672562D03*
X175250Y1672562D03*
X168750Y1672562D03*
X162250Y1672562D03*
D11*
X166250Y1638562D03*
X333750Y1638562D03*
D12*
X10000Y1585562D03*
X490000Y1785562D03*
D13*
X450000Y1765562D03*
D12*
X430500Y1615562D03*
X350500Y1615562D03*
D10*
X842829Y1672562D03*
X836329Y1672562D03*
X829829Y1672562D03*
X823329Y1672562D03*
X816829Y1672562D03*
X810329Y1672562D03*
X803829Y1672562D03*
X797329Y1672562D03*
X790829Y1672562D03*
X784329Y1672562D03*
X777829Y1672562D03*
X771329Y1672562D03*
X764829Y1672562D03*
X758329Y1672562D03*
X751829Y1672562D03*
X745329Y1672562D03*
X738829Y1672562D03*
X732329Y1672562D03*
X725829Y1672562D03*
X719329Y1672562D03*
X712829Y1672562D03*
X706329Y1672562D03*
X699829Y1672562D03*
X693329Y1672562D03*
X686829Y1672562D03*
X680329Y1672562D03*
X673829Y1672562D03*
X667329Y1672562D03*
D11*
X671329Y1638562D03*
X838829Y1638562D03*
D12*
X515079Y1585562D03*
X995079Y1785562D03*
D13*
X955079Y1765562D03*
D12*
X935579Y1615562D03*
X855579Y1615562D03*
X-26238Y1768881D03*
X1031316Y1768881D03*
D14*
X-35293Y63500D02*
X-35290Y63722D01*
X-35282Y63944D01*
X-35268Y64166D01*
X-35249Y64388D01*
X-35225Y64608D01*
X-35195Y64829D01*
X-35160Y65048D01*
X-35119Y65267D01*
X-35073Y65484D01*
X-35022Y65700D01*
X-34965Y65915D01*
X-34903Y66129D01*
X-34836Y66340D01*
X-34764Y66551D01*
X-34686Y66759D01*
X-34604Y66965D01*
X-34516Y67169D01*
X-34424Y67372D01*
X-34326Y67571D01*
X-34224Y67768D01*
X-34117Y67963D01*
X-34005Y68155D01*
X-33888Y68344D01*
X-33767Y68531D01*
X-33641Y68714D01*
X-33511Y68894D01*
X-33376Y69071D01*
X-33238Y69244D01*
X-33095Y69414D01*
X-32947Y69581D01*
X-32796Y69744D01*
X-32641Y69903D01*
X-32482Y70058D01*
X-32319Y70209D01*
X-32152Y70357D01*
X-31982Y70500D01*
X-31809Y70638D01*
X-31632Y70773D01*
X-31452Y70903D01*
X-31269Y71029D01*
X-31082Y71150D01*
X-30893Y71267D01*
X-30701Y71379D01*
X-30506Y71486D01*
X-30309Y71588D01*
X-30110Y71686D01*
X-29907Y71778D01*
X-29703Y71866D01*
X-29497Y71948D01*
X-29289Y72026D01*
X-29078Y72098D01*
X-28867Y72165D01*
X-28653Y72227D01*
X-28438Y72284D01*
X-28222Y72335D01*
X-28005Y72381D01*
X-27786Y72422D01*
X-27567Y72457D01*
X-27346Y72487D01*
X-27126Y72511D01*
X-26904Y72530D01*
X-26682Y72544D01*
X-26460Y72552D01*
X-26238Y72555D01*
X-26016Y72552D01*
X-25794Y72544D01*
X-25572Y72530D01*
X-25350Y72511D01*
X-25130Y72487D01*
X-24909Y72457D01*
X-24690Y72422D01*
X-24471Y72381D01*
X-24254Y72335D01*
X-24038Y72284D01*
X-23823Y72227D01*
X-23609Y72165D01*
X-23398Y72098D01*
X-23187Y72026D01*
X-22979Y71948D01*
X-22773Y71866D01*
X-22569Y71778D01*
X-22366Y71686D01*
X-22167Y71588D01*
X-21970Y71486D01*
X-21775Y71379D01*
X-21583Y71267D01*
X-21394Y71150D01*
X-21207Y71029D01*
X-21024Y70903D01*
X-20844Y70773D01*
X-20667Y70638D01*
X-20494Y70500D01*
X-20324Y70357D01*
X-20157Y70209D01*
X-19994Y70058D01*
X-19835Y69903D01*
X-19680Y69744D01*
X-19529Y69581D01*
X-19381Y69414D01*
X-19238Y69244D01*
X-19100Y69071D01*
X-18965Y68894D01*
X-18835Y68714D01*
X-18709Y68531D01*
X-18588Y68344D01*
X-18471Y68155D01*
X-18359Y67963D01*
X-18252Y67768D01*
X-18150Y67571D01*
X-18052Y67372D01*
X-17960Y67169D01*
X-17872Y66965D01*
X-17790Y66759D01*
X-17712Y66551D01*
X-17640Y66340D01*
X-17573Y66129D01*
X-17511Y65915D01*
X-17454Y65700D01*
X-17403Y65484D01*
X-17357Y65267D01*
X-17316Y65048D01*
X-17281Y64829D01*
X-17251Y64608D01*
X-17227Y64388D01*
X-17208Y64166D01*
X-17194Y63944D01*
X-17186Y63722D01*
X-17183Y63500D01*
X-17186Y63278D01*
X-17194Y63056D01*
X-17208Y62834D01*
X-17227Y62612D01*
X-17251Y62392D01*
X-17281Y62171D01*
X-17316Y61952D01*
X-17357Y61733D01*
X-17403Y61516D01*
X-17454Y61300D01*
X-17511Y61085D01*
X-17573Y60871D01*
X-17640Y60660D01*
X-17712Y60449D01*
X-17790Y60241D01*
X-17872Y60035D01*
X-17960Y59831D01*
X-18052Y59628D01*
X-18150Y59429D01*
X-18252Y59232D01*
X-18359Y59037D01*
X-18471Y58845D01*
X-18588Y58656D01*
X-18709Y58469D01*
X-18835Y58286D01*
X-18965Y58106D01*
X-19100Y57929D01*
X-19238Y57756D01*
X-19381Y57586D01*
X-19529Y57419D01*
X-19680Y57256D01*
X-19835Y57097D01*
X-19994Y56942D01*
X-20157Y56791D01*
X-20324Y56643D01*
X-20494Y56500D01*
X-20667Y56362D01*
X-20844Y56227D01*
X-21024Y56097D01*
X-21207Y55971D01*
X-21394Y55850D01*
X-21583Y55733D01*
X-21775Y55621D01*
X-21970Y55514D01*
X-22167Y55412D01*
X-22366Y55314D01*
X-22569Y55222D01*
X-22773Y55134D01*
X-22979Y55052D01*
X-23187Y54974D01*
X-23398Y54902D01*
X-23609Y54835D01*
X-23823Y54773D01*
X-24038Y54716D01*
X-24254Y54665D01*
X-24471Y54619D01*
X-24690Y54578D01*
X-24909Y54543D01*
X-25130Y54513D01*
X-25350Y54489D01*
X-25572Y54470D01*
X-25794Y54456D01*
X-26016Y54448D01*
X-26238Y54445D01*
X-26460Y54448D01*
X-26682Y54456D01*
X-26904Y54470D01*
X-27126Y54489D01*
X-27346Y54513D01*
X-27567Y54543D01*
X-27786Y54578D01*
X-28005Y54619D01*
X-28222Y54665D01*
X-28438Y54716D01*
X-28653Y54773D01*
X-28867Y54835D01*
X-29078Y54902D01*
X-29289Y54974D01*
X-29497Y55052D01*
X-29703Y55134D01*
X-29907Y55222D01*
X-30110Y55314D01*
X-30309Y55412D01*
X-30506Y55514D01*
X-30701Y55621D01*
X-30893Y55733D01*
X-31082Y55850D01*
X-31269Y55971D01*
X-31452Y56097D01*
X-31632Y56227D01*
X-31809Y56362D01*
X-31982Y56500D01*
X-32152Y56643D01*
X-32319Y56791D01*
X-32482Y56942D01*
X-32641Y57097D01*
X-32796Y57256D01*
X-32947Y57419D01*
X-33095Y57586D01*
X-33238Y57756D01*
X-33376Y57929D01*
X-33511Y58106D01*
X-33641Y58286D01*
X-33767Y58469D01*
X-33888Y58656D01*
X-34005Y58845D01*
X-34117Y59037D01*
X-34224Y59232D01*
X-34326Y59429D01*
X-34424Y59628D01*
X-34516Y59831D01*
X-34604Y60035D01*
X-34686Y60241D01*
X-34764Y60449D01*
X-34836Y60660D01*
X-34903Y60871D01*
X-34965Y61085D01*
X-35022Y61300D01*
X-35073Y61516D01*
X-35119Y61733D01*
X-35160Y61952D01*
X-35195Y62171D01*
X-35225Y62392D01*
X-35249Y62612D01*
X-35268Y62834D01*
X-35282Y63056D01*
X-35290Y63278D01*
X-35293Y63500D01*
D15*
X-26238Y63500D03*
M02*
