G04 EAGLE Gerber RS-274X export*
G75*
%MOMM*%
%FSLAX34Y34*%
%LPD*%
%INSoldermask Top*%
%IPPOS*%
%AMOC8*
5,1,8,0,0,1.08239X$1,22.5*%
G01*
%ADD10C,1.003200*%
%ADD11R,1.403200X1.003200*%
%ADD12R,1.203200X1.303200*%
%ADD13R,2.003200X1.803200*%
%ADD14C,1.203200*%
%ADD15R,1.303200X1.203200*%
%ADD16R,1.703200X1.803200*%
%ADD17C,2.503200*%
%ADD18R,0.503200X1.003200*%
%ADD19R,0.603200X1.003200*%
%ADD20R,0.453200X0.478200*%
%ADD21R,0.478200X0.453200*%
%ADD22R,1.727200X0.965200*%
%ADD23R,0.903200X1.803200*%
%ADD24R,1.403200X2.403200*%
%ADD25R,1.803200X1.603200*%
%ADD26R,1.403200X1.803200*%
%ADD27R,0.803200X2.203200*%
%ADD28C,2.082800*%
%ADD29C,1.270000*%
%ADD30C,1.703200*%


D10*
X163750Y63000D03*
X331250Y63000D03*
D11*
X117500Y59000D03*
X117500Y41000D03*
X307500Y119000D03*
X307500Y101000D03*
X307500Y61000D03*
X307500Y79000D03*
D12*
X197500Y68500D03*
X197500Y51500D03*
D13*
X147500Y64000D03*
X147500Y36000D03*
D12*
X177500Y51500D03*
X177500Y68500D03*
X302500Y28500D03*
X302500Y11500D03*
X192500Y171500D03*
X192500Y188500D03*
X152500Y171500D03*
X152500Y188500D03*
X172500Y188500D03*
X172500Y171500D03*
D14*
X482500Y210000D03*
X12500Y10000D03*
D12*
X387500Y181500D03*
X387500Y198500D03*
D15*
X439000Y160000D03*
X456000Y160000D03*
D16*
X429500Y190000D03*
X465500Y190000D03*
D17*
X447500Y190000D03*
D12*
X407500Y181500D03*
X407500Y198500D03*
D18*
X365000Y176500D03*
X360000Y176500D03*
D19*
X375000Y201500D03*
X300000Y201500D03*
D18*
X355000Y176500D03*
X350000Y176500D03*
X345000Y176500D03*
X340000Y176500D03*
X335000Y176500D03*
X330000Y176500D03*
X325000Y176500D03*
X320000Y176500D03*
X315000Y176500D03*
X310000Y176500D03*
D20*
X65000Y122500D03*
X70000Y122500D03*
X70000Y137500D03*
X65000Y137500D03*
D21*
X60000Y137500D03*
X60000Y132500D03*
X60000Y122500D03*
X60000Y127500D03*
X75000Y122500D03*
X75000Y127500D03*
X75000Y132500D03*
X75000Y137500D03*
D12*
X37500Y121500D03*
X37500Y138500D03*
X97500Y121500D03*
X97500Y138500D03*
D22*
X95440Y170950D03*
X39560Y170950D03*
X95440Y209050D03*
X39560Y209050D03*
D23*
X398000Y145000D03*
X409000Y145000D03*
X420000Y145000D03*
X387000Y145000D03*
X376000Y145000D03*
X365000Y145000D03*
X354000Y145000D03*
X343000Y145000D03*
X332000Y145000D03*
D14*
X428000Y40000D03*
X348000Y40000D03*
D24*
X475000Y44000D03*
X320000Y44000D03*
D25*
X466000Y140000D03*
D26*
X320000Y139000D03*
D27*
X272500Y13800D03*
X262500Y13800D03*
X252500Y13800D03*
X242500Y13800D03*
X232500Y13800D03*
X222500Y13800D03*
D28*
X12700Y38100D03*
X12700Y63500D03*
X12700Y88900D03*
X12700Y114300D03*
D10*
X663825Y63000D03*
X831325Y63000D03*
D11*
X617575Y59000D03*
X617575Y41000D03*
X807575Y119000D03*
X807575Y101000D03*
X807575Y61000D03*
X807575Y79000D03*
D12*
X697575Y68500D03*
X697575Y51500D03*
D13*
X647575Y64000D03*
X647575Y36000D03*
D12*
X677575Y51500D03*
X677575Y68500D03*
X802575Y28500D03*
X802575Y11500D03*
X692575Y171500D03*
X692575Y188500D03*
X652575Y171500D03*
X652575Y188500D03*
X672575Y188500D03*
X672575Y171500D03*
D14*
X982575Y210000D03*
X512575Y10000D03*
D12*
X887575Y181500D03*
X887575Y198500D03*
D15*
X939075Y160000D03*
X956075Y160000D03*
D16*
X929575Y190000D03*
X965575Y190000D03*
D17*
X947575Y190000D03*
D12*
X907575Y181500D03*
X907575Y198500D03*
D18*
X865075Y176500D03*
X860075Y176500D03*
D19*
X875075Y201500D03*
X800075Y201500D03*
D18*
X855075Y176500D03*
X850075Y176500D03*
X845075Y176500D03*
X840075Y176500D03*
X835075Y176500D03*
X830075Y176500D03*
X825075Y176500D03*
X820075Y176500D03*
X815075Y176500D03*
X810075Y176500D03*
D20*
X565075Y122500D03*
X570075Y122500D03*
X570075Y137500D03*
X565075Y137500D03*
D21*
X560075Y137500D03*
X560075Y132500D03*
X560075Y122500D03*
X560075Y127500D03*
X575075Y122500D03*
X575075Y127500D03*
X575075Y132500D03*
X575075Y137500D03*
D12*
X537575Y121500D03*
X537575Y138500D03*
X597575Y121500D03*
X597575Y138500D03*
D22*
X595515Y170950D03*
X539635Y170950D03*
X595515Y209050D03*
X539635Y209050D03*
D23*
X898075Y145000D03*
X909075Y145000D03*
X920075Y145000D03*
X887075Y145000D03*
X876075Y145000D03*
X865075Y145000D03*
X854075Y145000D03*
X843075Y145000D03*
X832075Y145000D03*
D14*
X928075Y40000D03*
X848075Y40000D03*
D24*
X975075Y44000D03*
X820075Y44000D03*
D25*
X966075Y140000D03*
D26*
X820075Y139000D03*
D27*
X772575Y13800D03*
X762575Y13800D03*
X752575Y13800D03*
X742575Y13800D03*
X732575Y13800D03*
X722575Y13800D03*
D28*
X512775Y38100D03*
X512775Y63500D03*
X512775Y88900D03*
X512775Y114300D03*
D10*
X163750Y288069D03*
X331250Y288069D03*
D11*
X117500Y284069D03*
X117500Y266069D03*
X307500Y344069D03*
X307500Y326069D03*
X307500Y286069D03*
X307500Y304069D03*
D12*
X197500Y293569D03*
X197500Y276569D03*
D13*
X147500Y289069D03*
X147500Y261069D03*
D12*
X177500Y276569D03*
X177500Y293569D03*
X302500Y253569D03*
X302500Y236569D03*
X192500Y396569D03*
X192500Y413569D03*
X152500Y396569D03*
X152500Y413569D03*
X172500Y413569D03*
X172500Y396569D03*
D14*
X482500Y435069D03*
X12500Y235069D03*
D12*
X387500Y406569D03*
X387500Y423569D03*
D15*
X439000Y385069D03*
X456000Y385069D03*
D16*
X429500Y415069D03*
X465500Y415069D03*
D17*
X447500Y415069D03*
D12*
X407500Y406569D03*
X407500Y423569D03*
D18*
X365000Y401569D03*
X360000Y401569D03*
D19*
X375000Y426569D03*
X300000Y426569D03*
D18*
X355000Y401569D03*
X350000Y401569D03*
X345000Y401569D03*
X340000Y401569D03*
X335000Y401569D03*
X330000Y401569D03*
X325000Y401569D03*
X320000Y401569D03*
X315000Y401569D03*
X310000Y401569D03*
D20*
X65000Y347569D03*
X70000Y347569D03*
X70000Y362569D03*
X65000Y362569D03*
D21*
X60000Y362569D03*
X60000Y357569D03*
X60000Y347569D03*
X60000Y352569D03*
X75000Y347569D03*
X75000Y352569D03*
X75000Y357569D03*
X75000Y362569D03*
D12*
X37500Y346569D03*
X37500Y363569D03*
X97500Y346569D03*
X97500Y363569D03*
D22*
X95440Y396019D03*
X39560Y396019D03*
X95440Y434119D03*
X39560Y434119D03*
D23*
X398000Y370069D03*
X409000Y370069D03*
X420000Y370069D03*
X387000Y370069D03*
X376000Y370069D03*
X365000Y370069D03*
X354000Y370069D03*
X343000Y370069D03*
X332000Y370069D03*
D14*
X428000Y265069D03*
X348000Y265069D03*
D24*
X475000Y269069D03*
X320000Y269069D03*
D25*
X466000Y365069D03*
D26*
X320000Y364069D03*
D27*
X272500Y238869D03*
X262500Y238869D03*
X252500Y238869D03*
X242500Y238869D03*
X232500Y238869D03*
X222500Y238869D03*
D28*
X12700Y263169D03*
X12700Y288569D03*
X12700Y313969D03*
X12700Y339369D03*
D10*
X663825Y288069D03*
X831325Y288069D03*
D11*
X617575Y284069D03*
X617575Y266069D03*
X807575Y344069D03*
X807575Y326069D03*
X807575Y286069D03*
X807575Y304069D03*
D12*
X697575Y293569D03*
X697575Y276569D03*
D13*
X647575Y289069D03*
X647575Y261069D03*
D12*
X677575Y276569D03*
X677575Y293569D03*
X802575Y253569D03*
X802575Y236569D03*
X692575Y396569D03*
X692575Y413569D03*
X652575Y396569D03*
X652575Y413569D03*
X672575Y413569D03*
X672575Y396569D03*
D14*
X982575Y435069D03*
X512575Y235069D03*
D12*
X887575Y406569D03*
X887575Y423569D03*
D15*
X939075Y385069D03*
X956075Y385069D03*
D16*
X929575Y415069D03*
X965575Y415069D03*
D17*
X947575Y415069D03*
D12*
X907575Y406569D03*
X907575Y423569D03*
D18*
X865075Y401569D03*
X860075Y401569D03*
D19*
X875075Y426569D03*
X800075Y426569D03*
D18*
X855075Y401569D03*
X850075Y401569D03*
X845075Y401569D03*
X840075Y401569D03*
X835075Y401569D03*
X830075Y401569D03*
X825075Y401569D03*
X820075Y401569D03*
X815075Y401569D03*
X810075Y401569D03*
D20*
X565075Y347569D03*
X570075Y347569D03*
X570075Y362569D03*
X565075Y362569D03*
D21*
X560075Y362569D03*
X560075Y357569D03*
X560075Y347569D03*
X560075Y352569D03*
X575075Y347569D03*
X575075Y352569D03*
X575075Y357569D03*
X575075Y362569D03*
D12*
X537575Y346569D03*
X537575Y363569D03*
X597575Y346569D03*
X597575Y363569D03*
D22*
X595515Y396019D03*
X539635Y396019D03*
X595515Y434119D03*
X539635Y434119D03*
D23*
X898075Y370069D03*
X909075Y370069D03*
X920075Y370069D03*
X887075Y370069D03*
X876075Y370069D03*
X865075Y370069D03*
X854075Y370069D03*
X843075Y370069D03*
X832075Y370069D03*
D14*
X928075Y265069D03*
X848075Y265069D03*
D24*
X975075Y269069D03*
X820075Y269069D03*
D25*
X966075Y365069D03*
D26*
X820075Y364069D03*
D27*
X772575Y238869D03*
X762575Y238869D03*
X752575Y238869D03*
X742575Y238869D03*
X732575Y238869D03*
X722575Y238869D03*
D28*
X512775Y263169D03*
X512775Y288569D03*
X512775Y313969D03*
X512775Y339369D03*
D10*
X163750Y513164D03*
X331250Y513164D03*
D11*
X117500Y509164D03*
X117500Y491164D03*
X307500Y569164D03*
X307500Y551164D03*
X307500Y511164D03*
X307500Y529164D03*
D12*
X197500Y518664D03*
X197500Y501664D03*
D13*
X147500Y514164D03*
X147500Y486164D03*
D12*
X177500Y501664D03*
X177500Y518664D03*
X302500Y478664D03*
X302500Y461664D03*
X192500Y621664D03*
X192500Y638664D03*
X152500Y621664D03*
X152500Y638664D03*
X172500Y638664D03*
X172500Y621664D03*
D14*
X482500Y660164D03*
X12500Y460164D03*
D12*
X387500Y631664D03*
X387500Y648664D03*
D15*
X439000Y610164D03*
X456000Y610164D03*
D16*
X429500Y640164D03*
X465500Y640164D03*
D17*
X447500Y640164D03*
D12*
X407500Y631664D03*
X407500Y648664D03*
D18*
X365000Y626664D03*
X360000Y626664D03*
D19*
X375000Y651664D03*
X300000Y651664D03*
D18*
X355000Y626664D03*
X350000Y626664D03*
X345000Y626664D03*
X340000Y626664D03*
X335000Y626664D03*
X330000Y626664D03*
X325000Y626664D03*
X320000Y626664D03*
X315000Y626664D03*
X310000Y626664D03*
D20*
X65000Y572664D03*
X70000Y572664D03*
X70000Y587664D03*
X65000Y587664D03*
D21*
X60000Y587664D03*
X60000Y582664D03*
X60000Y572664D03*
X60000Y577664D03*
X75000Y572664D03*
X75000Y577664D03*
X75000Y582664D03*
X75000Y587664D03*
D12*
X37500Y571664D03*
X37500Y588664D03*
X97500Y571664D03*
X97500Y588664D03*
D22*
X95440Y621114D03*
X39560Y621114D03*
X95440Y659214D03*
X39560Y659214D03*
D23*
X398000Y595164D03*
X409000Y595164D03*
X420000Y595164D03*
X387000Y595164D03*
X376000Y595164D03*
X365000Y595164D03*
X354000Y595164D03*
X343000Y595164D03*
X332000Y595164D03*
D14*
X428000Y490164D03*
X348000Y490164D03*
D24*
X475000Y494164D03*
X320000Y494164D03*
D25*
X466000Y590164D03*
D26*
X320000Y589164D03*
D27*
X272500Y463964D03*
X262500Y463964D03*
X252500Y463964D03*
X242500Y463964D03*
X232500Y463964D03*
X222500Y463964D03*
D28*
X12700Y488264D03*
X12700Y513664D03*
X12700Y539064D03*
X12700Y564464D03*
D10*
X663825Y513164D03*
X831325Y513164D03*
D11*
X617575Y509164D03*
X617575Y491164D03*
X807575Y569164D03*
X807575Y551164D03*
X807575Y511164D03*
X807575Y529164D03*
D12*
X697575Y518664D03*
X697575Y501664D03*
D13*
X647575Y514164D03*
X647575Y486164D03*
D12*
X677575Y501664D03*
X677575Y518664D03*
X802575Y478664D03*
X802575Y461664D03*
X692575Y621664D03*
X692575Y638664D03*
X652575Y621664D03*
X652575Y638664D03*
X672575Y638664D03*
X672575Y621664D03*
D14*
X982575Y660164D03*
X512575Y460164D03*
D12*
X887575Y631664D03*
X887575Y648664D03*
D15*
X939075Y610164D03*
X956075Y610164D03*
D16*
X929575Y640164D03*
X965575Y640164D03*
D17*
X947575Y640164D03*
D12*
X907575Y631664D03*
X907575Y648664D03*
D18*
X865075Y626664D03*
X860075Y626664D03*
D19*
X875075Y651664D03*
X800075Y651664D03*
D18*
X855075Y626664D03*
X850075Y626664D03*
X845075Y626664D03*
X840075Y626664D03*
X835075Y626664D03*
X830075Y626664D03*
X825075Y626664D03*
X820075Y626664D03*
X815075Y626664D03*
X810075Y626664D03*
D20*
X565075Y572664D03*
X570075Y572664D03*
X570075Y587664D03*
X565075Y587664D03*
D21*
X560075Y587664D03*
X560075Y582664D03*
X560075Y572664D03*
X560075Y577664D03*
X575075Y572664D03*
X575075Y577664D03*
X575075Y582664D03*
X575075Y587664D03*
D12*
X537575Y571664D03*
X537575Y588664D03*
X597575Y571664D03*
X597575Y588664D03*
D22*
X595515Y621114D03*
X539635Y621114D03*
X595515Y659214D03*
X539635Y659214D03*
D23*
X898075Y595164D03*
X909075Y595164D03*
X920075Y595164D03*
X887075Y595164D03*
X876075Y595164D03*
X865075Y595164D03*
X854075Y595164D03*
X843075Y595164D03*
X832075Y595164D03*
D14*
X928075Y490164D03*
X848075Y490164D03*
D24*
X975075Y494164D03*
X820075Y494164D03*
D25*
X966075Y590164D03*
D26*
X820075Y589164D03*
D27*
X772575Y463964D03*
X762575Y463964D03*
X752575Y463964D03*
X742575Y463964D03*
X732575Y463964D03*
X722575Y463964D03*
D28*
X512775Y488264D03*
X512775Y513664D03*
X512775Y539064D03*
X512775Y564464D03*
D10*
X163750Y738234D03*
X331250Y738234D03*
D11*
X117500Y734234D03*
X117500Y716234D03*
X307500Y794234D03*
X307500Y776234D03*
X307500Y736234D03*
X307500Y754234D03*
D12*
X197500Y743734D03*
X197500Y726734D03*
D13*
X147500Y739234D03*
X147500Y711234D03*
D12*
X177500Y726734D03*
X177500Y743734D03*
X302500Y703734D03*
X302500Y686734D03*
X192500Y846734D03*
X192500Y863734D03*
X152500Y846734D03*
X152500Y863734D03*
X172500Y863734D03*
X172500Y846734D03*
D14*
X482500Y885234D03*
X12500Y685234D03*
D12*
X387500Y856734D03*
X387500Y873734D03*
D15*
X439000Y835234D03*
X456000Y835234D03*
D16*
X429500Y865234D03*
X465500Y865234D03*
D17*
X447500Y865234D03*
D12*
X407500Y856734D03*
X407500Y873734D03*
D18*
X365000Y851734D03*
X360000Y851734D03*
D19*
X375000Y876734D03*
X300000Y876734D03*
D18*
X355000Y851734D03*
X350000Y851734D03*
X345000Y851734D03*
X340000Y851734D03*
X335000Y851734D03*
X330000Y851734D03*
X325000Y851734D03*
X320000Y851734D03*
X315000Y851734D03*
X310000Y851734D03*
D20*
X65000Y797734D03*
X70000Y797734D03*
X70000Y812734D03*
X65000Y812734D03*
D21*
X60000Y812734D03*
X60000Y807734D03*
X60000Y797734D03*
X60000Y802734D03*
X75000Y797734D03*
X75000Y802734D03*
X75000Y807734D03*
X75000Y812734D03*
D12*
X37500Y796734D03*
X37500Y813734D03*
X97500Y796734D03*
X97500Y813734D03*
D22*
X95440Y846184D03*
X39560Y846184D03*
X95440Y884284D03*
X39560Y884284D03*
D23*
X398000Y820234D03*
X409000Y820234D03*
X420000Y820234D03*
X387000Y820234D03*
X376000Y820234D03*
X365000Y820234D03*
X354000Y820234D03*
X343000Y820234D03*
X332000Y820234D03*
D14*
X428000Y715234D03*
X348000Y715234D03*
D24*
X475000Y719234D03*
X320000Y719234D03*
D25*
X466000Y815234D03*
D26*
X320000Y814234D03*
D27*
X272500Y689034D03*
X262500Y689034D03*
X252500Y689034D03*
X242500Y689034D03*
X232500Y689034D03*
X222500Y689034D03*
D28*
X12700Y713334D03*
X12700Y738734D03*
X12700Y764134D03*
X12700Y789534D03*
D10*
X663825Y738234D03*
X831325Y738234D03*
D11*
X617575Y734234D03*
X617575Y716234D03*
X807575Y794234D03*
X807575Y776234D03*
X807575Y736234D03*
X807575Y754234D03*
D12*
X697575Y743734D03*
X697575Y726734D03*
D13*
X647575Y739234D03*
X647575Y711234D03*
D12*
X677575Y726734D03*
X677575Y743734D03*
X802575Y703734D03*
X802575Y686734D03*
X692575Y846734D03*
X692575Y863734D03*
X652575Y846734D03*
X652575Y863734D03*
X672575Y863734D03*
X672575Y846734D03*
D14*
X982575Y885234D03*
X512575Y685234D03*
D12*
X887575Y856734D03*
X887575Y873734D03*
D15*
X939075Y835234D03*
X956075Y835234D03*
D16*
X929575Y865234D03*
X965575Y865234D03*
D17*
X947575Y865234D03*
D12*
X907575Y856734D03*
X907575Y873734D03*
D18*
X865075Y851734D03*
X860075Y851734D03*
D19*
X875075Y876734D03*
X800075Y876734D03*
D18*
X855075Y851734D03*
X850075Y851734D03*
X845075Y851734D03*
X840075Y851734D03*
X835075Y851734D03*
X830075Y851734D03*
X825075Y851734D03*
X820075Y851734D03*
X815075Y851734D03*
X810075Y851734D03*
D20*
X565075Y797734D03*
X570075Y797734D03*
X570075Y812734D03*
X565075Y812734D03*
D21*
X560075Y812734D03*
X560075Y807734D03*
X560075Y797734D03*
X560075Y802734D03*
X575075Y797734D03*
X575075Y802734D03*
X575075Y807734D03*
X575075Y812734D03*
D12*
X537575Y796734D03*
X537575Y813734D03*
X597575Y796734D03*
X597575Y813734D03*
D22*
X595515Y846184D03*
X539635Y846184D03*
X595515Y884284D03*
X539635Y884284D03*
D23*
X898075Y820234D03*
X909075Y820234D03*
X920075Y820234D03*
X887075Y820234D03*
X876075Y820234D03*
X865075Y820234D03*
X854075Y820234D03*
X843075Y820234D03*
X832075Y820234D03*
D14*
X928075Y715234D03*
X848075Y715234D03*
D24*
X975075Y719234D03*
X820075Y719234D03*
D25*
X966075Y815234D03*
D26*
X820075Y814234D03*
D27*
X772575Y689034D03*
X762575Y689034D03*
X752575Y689034D03*
X742575Y689034D03*
X732575Y689034D03*
X722575Y689034D03*
D28*
X512775Y713334D03*
X512775Y738734D03*
X512775Y764134D03*
X512775Y789534D03*
D10*
X163750Y963328D03*
X331250Y963328D03*
D11*
X117500Y959328D03*
X117500Y941328D03*
X307500Y1019328D03*
X307500Y1001328D03*
X307500Y961328D03*
X307500Y979328D03*
D12*
X197500Y968828D03*
X197500Y951828D03*
D13*
X147500Y964328D03*
X147500Y936328D03*
D12*
X177500Y951828D03*
X177500Y968828D03*
X302500Y928828D03*
X302500Y911828D03*
X192500Y1071828D03*
X192500Y1088828D03*
X152500Y1071828D03*
X152500Y1088828D03*
X172500Y1088828D03*
X172500Y1071828D03*
D14*
X482500Y1110328D03*
X12500Y910328D03*
D12*
X387500Y1081828D03*
X387500Y1098828D03*
D15*
X439000Y1060328D03*
X456000Y1060328D03*
D16*
X429500Y1090328D03*
X465500Y1090328D03*
D17*
X447500Y1090328D03*
D12*
X407500Y1081828D03*
X407500Y1098828D03*
D18*
X365000Y1076828D03*
X360000Y1076828D03*
D19*
X375000Y1101828D03*
X300000Y1101828D03*
D18*
X355000Y1076828D03*
X350000Y1076828D03*
X345000Y1076828D03*
X340000Y1076828D03*
X335000Y1076828D03*
X330000Y1076828D03*
X325000Y1076828D03*
X320000Y1076828D03*
X315000Y1076828D03*
X310000Y1076828D03*
D20*
X65000Y1022828D03*
X70000Y1022828D03*
X70000Y1037828D03*
X65000Y1037828D03*
D21*
X60000Y1037828D03*
X60000Y1032828D03*
X60000Y1022828D03*
X60000Y1027828D03*
X75000Y1022828D03*
X75000Y1027828D03*
X75000Y1032828D03*
X75000Y1037828D03*
D12*
X37500Y1021828D03*
X37500Y1038828D03*
X97500Y1021828D03*
X97500Y1038828D03*
D22*
X95440Y1071278D03*
X39560Y1071278D03*
X95440Y1109378D03*
X39560Y1109378D03*
D23*
X398000Y1045328D03*
X409000Y1045328D03*
X420000Y1045328D03*
X387000Y1045328D03*
X376000Y1045328D03*
X365000Y1045328D03*
X354000Y1045328D03*
X343000Y1045328D03*
X332000Y1045328D03*
D14*
X428000Y940328D03*
X348000Y940328D03*
D24*
X475000Y944328D03*
X320000Y944328D03*
D25*
X466000Y1040328D03*
D26*
X320000Y1039328D03*
D27*
X272500Y914128D03*
X262500Y914128D03*
X252500Y914128D03*
X242500Y914128D03*
X232500Y914128D03*
X222500Y914128D03*
D28*
X12700Y938428D03*
X12700Y963828D03*
X12700Y989228D03*
X12700Y1014628D03*
D10*
X663825Y963328D03*
X831325Y963328D03*
D11*
X617575Y959328D03*
X617575Y941328D03*
X807575Y1019328D03*
X807575Y1001328D03*
X807575Y961328D03*
X807575Y979328D03*
D12*
X697575Y968828D03*
X697575Y951828D03*
D13*
X647575Y964328D03*
X647575Y936328D03*
D12*
X677575Y951828D03*
X677575Y968828D03*
X802575Y928828D03*
X802575Y911828D03*
X692575Y1071828D03*
X692575Y1088828D03*
X652575Y1071828D03*
X652575Y1088828D03*
X672575Y1088828D03*
X672575Y1071828D03*
D14*
X982575Y1110328D03*
X512575Y910328D03*
D12*
X887575Y1081828D03*
X887575Y1098828D03*
D15*
X939075Y1060328D03*
X956075Y1060328D03*
D16*
X929575Y1090328D03*
X965575Y1090328D03*
D17*
X947575Y1090328D03*
D12*
X907575Y1081828D03*
X907575Y1098828D03*
D18*
X865075Y1076828D03*
X860075Y1076828D03*
D19*
X875075Y1101828D03*
X800075Y1101828D03*
D18*
X855075Y1076828D03*
X850075Y1076828D03*
X845075Y1076828D03*
X840075Y1076828D03*
X835075Y1076828D03*
X830075Y1076828D03*
X825075Y1076828D03*
X820075Y1076828D03*
X815075Y1076828D03*
X810075Y1076828D03*
D20*
X565075Y1022828D03*
X570075Y1022828D03*
X570075Y1037828D03*
X565075Y1037828D03*
D21*
X560075Y1037828D03*
X560075Y1032828D03*
X560075Y1022828D03*
X560075Y1027828D03*
X575075Y1022828D03*
X575075Y1027828D03*
X575075Y1032828D03*
X575075Y1037828D03*
D12*
X537575Y1021828D03*
X537575Y1038828D03*
X597575Y1021828D03*
X597575Y1038828D03*
D22*
X595515Y1071278D03*
X539635Y1071278D03*
X595515Y1109378D03*
X539635Y1109378D03*
D23*
X898075Y1045328D03*
X909075Y1045328D03*
X920075Y1045328D03*
X887075Y1045328D03*
X876075Y1045328D03*
X865075Y1045328D03*
X854075Y1045328D03*
X843075Y1045328D03*
X832075Y1045328D03*
D14*
X928075Y940328D03*
X848075Y940328D03*
D24*
X975075Y944328D03*
X820075Y944328D03*
D25*
X966075Y1040328D03*
D26*
X820075Y1039328D03*
D27*
X772575Y914128D03*
X762575Y914128D03*
X752575Y914128D03*
X742575Y914128D03*
X732575Y914128D03*
X722575Y914128D03*
D28*
X512775Y938428D03*
X512775Y963828D03*
X512775Y989228D03*
X512775Y1014628D03*
D10*
X163750Y1188398D03*
X331250Y1188398D03*
D11*
X117500Y1184398D03*
X117500Y1166398D03*
X307500Y1244398D03*
X307500Y1226398D03*
X307500Y1186398D03*
X307500Y1204398D03*
D12*
X197500Y1193898D03*
X197500Y1176898D03*
D13*
X147500Y1189398D03*
X147500Y1161398D03*
D12*
X177500Y1176898D03*
X177500Y1193898D03*
X302500Y1153898D03*
X302500Y1136898D03*
X192500Y1296898D03*
X192500Y1313898D03*
X152500Y1296898D03*
X152500Y1313898D03*
X172500Y1313898D03*
X172500Y1296898D03*
D14*
X482500Y1335398D03*
X12500Y1135398D03*
D12*
X387500Y1306898D03*
X387500Y1323898D03*
D15*
X439000Y1285398D03*
X456000Y1285398D03*
D16*
X429500Y1315398D03*
X465500Y1315398D03*
D17*
X447500Y1315398D03*
D12*
X407500Y1306898D03*
X407500Y1323898D03*
D18*
X365000Y1301898D03*
X360000Y1301898D03*
D19*
X375000Y1326898D03*
X300000Y1326898D03*
D18*
X355000Y1301898D03*
X350000Y1301898D03*
X345000Y1301898D03*
X340000Y1301898D03*
X335000Y1301898D03*
X330000Y1301898D03*
X325000Y1301898D03*
X320000Y1301898D03*
X315000Y1301898D03*
X310000Y1301898D03*
D20*
X65000Y1247898D03*
X70000Y1247898D03*
X70000Y1262898D03*
X65000Y1262898D03*
D21*
X60000Y1262898D03*
X60000Y1257898D03*
X60000Y1247898D03*
X60000Y1252898D03*
X75000Y1247898D03*
X75000Y1252898D03*
X75000Y1257898D03*
X75000Y1262898D03*
D12*
X37500Y1246898D03*
X37500Y1263898D03*
X97500Y1246898D03*
X97500Y1263898D03*
D22*
X95440Y1296348D03*
X39560Y1296348D03*
X95440Y1334448D03*
X39560Y1334448D03*
D23*
X398000Y1270398D03*
X409000Y1270398D03*
X420000Y1270398D03*
X387000Y1270398D03*
X376000Y1270398D03*
X365000Y1270398D03*
X354000Y1270398D03*
X343000Y1270398D03*
X332000Y1270398D03*
D14*
X428000Y1165398D03*
X348000Y1165398D03*
D24*
X475000Y1169398D03*
X320000Y1169398D03*
D25*
X466000Y1265398D03*
D26*
X320000Y1264398D03*
D27*
X272500Y1139198D03*
X262500Y1139198D03*
X252500Y1139198D03*
X242500Y1139198D03*
X232500Y1139198D03*
X222500Y1139198D03*
D28*
X12700Y1163498D03*
X12700Y1188898D03*
X12700Y1214298D03*
X12700Y1239698D03*
D10*
X663825Y1188398D03*
X831325Y1188398D03*
D11*
X617575Y1184398D03*
X617575Y1166398D03*
X807575Y1244398D03*
X807575Y1226398D03*
X807575Y1186398D03*
X807575Y1204398D03*
D12*
X697575Y1193898D03*
X697575Y1176898D03*
D13*
X647575Y1189398D03*
X647575Y1161398D03*
D12*
X677575Y1176898D03*
X677575Y1193898D03*
X802575Y1153898D03*
X802575Y1136898D03*
X692575Y1296898D03*
X692575Y1313898D03*
X652575Y1296898D03*
X652575Y1313898D03*
X672575Y1313898D03*
X672575Y1296898D03*
D14*
X982575Y1335398D03*
X512575Y1135398D03*
D12*
X887575Y1306898D03*
X887575Y1323898D03*
D15*
X939075Y1285398D03*
X956075Y1285398D03*
D16*
X929575Y1315398D03*
X965575Y1315398D03*
D17*
X947575Y1315398D03*
D12*
X907575Y1306898D03*
X907575Y1323898D03*
D18*
X865075Y1301898D03*
X860075Y1301898D03*
D19*
X875075Y1326898D03*
X800075Y1326898D03*
D18*
X855075Y1301898D03*
X850075Y1301898D03*
X845075Y1301898D03*
X840075Y1301898D03*
X835075Y1301898D03*
X830075Y1301898D03*
X825075Y1301898D03*
X820075Y1301898D03*
X815075Y1301898D03*
X810075Y1301898D03*
D20*
X565075Y1247898D03*
X570075Y1247898D03*
X570075Y1262898D03*
X565075Y1262898D03*
D21*
X560075Y1262898D03*
X560075Y1257898D03*
X560075Y1247898D03*
X560075Y1252898D03*
X575075Y1247898D03*
X575075Y1252898D03*
X575075Y1257898D03*
X575075Y1262898D03*
D12*
X537575Y1246898D03*
X537575Y1263898D03*
X597575Y1246898D03*
X597575Y1263898D03*
D22*
X595515Y1296348D03*
X539635Y1296348D03*
X595515Y1334448D03*
X539635Y1334448D03*
D23*
X898075Y1270398D03*
X909075Y1270398D03*
X920075Y1270398D03*
X887075Y1270398D03*
X876075Y1270398D03*
X865075Y1270398D03*
X854075Y1270398D03*
X843075Y1270398D03*
X832075Y1270398D03*
D14*
X928075Y1165398D03*
X848075Y1165398D03*
D24*
X975075Y1169398D03*
X820075Y1169398D03*
D25*
X966075Y1265398D03*
D26*
X820075Y1264398D03*
D27*
X772575Y1139198D03*
X762575Y1139198D03*
X752575Y1139198D03*
X742575Y1139198D03*
X732575Y1139198D03*
X722575Y1139198D03*
D28*
X512775Y1163498D03*
X512775Y1188898D03*
X512775Y1214298D03*
X512775Y1239698D03*
D10*
X163750Y1413493D03*
X331250Y1413493D03*
D11*
X117500Y1409493D03*
X117500Y1391493D03*
X307500Y1469493D03*
X307500Y1451493D03*
X307500Y1411493D03*
X307500Y1429493D03*
D12*
X197500Y1418993D03*
X197500Y1401993D03*
D13*
X147500Y1414493D03*
X147500Y1386493D03*
D12*
X177500Y1401993D03*
X177500Y1418993D03*
X302500Y1378993D03*
X302500Y1361993D03*
X192500Y1521993D03*
X192500Y1538993D03*
X152500Y1521993D03*
X152500Y1538993D03*
X172500Y1538993D03*
X172500Y1521993D03*
D14*
X482500Y1560493D03*
X12500Y1360493D03*
D12*
X387500Y1531993D03*
X387500Y1548993D03*
D15*
X439000Y1510493D03*
X456000Y1510493D03*
D16*
X429500Y1540493D03*
X465500Y1540493D03*
D17*
X447500Y1540493D03*
D12*
X407500Y1531993D03*
X407500Y1548993D03*
D18*
X365000Y1526993D03*
X360000Y1526993D03*
D19*
X375000Y1551993D03*
X300000Y1551993D03*
D18*
X355000Y1526993D03*
X350000Y1526993D03*
X345000Y1526993D03*
X340000Y1526993D03*
X335000Y1526993D03*
X330000Y1526993D03*
X325000Y1526993D03*
X320000Y1526993D03*
X315000Y1526993D03*
X310000Y1526993D03*
D20*
X65000Y1472993D03*
X70000Y1472993D03*
X70000Y1487993D03*
X65000Y1487993D03*
D21*
X60000Y1487993D03*
X60000Y1482993D03*
X60000Y1472993D03*
X60000Y1477993D03*
X75000Y1472993D03*
X75000Y1477993D03*
X75000Y1482993D03*
X75000Y1487993D03*
D12*
X37500Y1471993D03*
X37500Y1488993D03*
X97500Y1471993D03*
X97500Y1488993D03*
D22*
X95440Y1521443D03*
X39560Y1521443D03*
X95440Y1559543D03*
X39560Y1559543D03*
D23*
X398000Y1495493D03*
X409000Y1495493D03*
X420000Y1495493D03*
X387000Y1495493D03*
X376000Y1495493D03*
X365000Y1495493D03*
X354000Y1495493D03*
X343000Y1495493D03*
X332000Y1495493D03*
D14*
X428000Y1390493D03*
X348000Y1390493D03*
D24*
X475000Y1394493D03*
X320000Y1394493D03*
D25*
X466000Y1490493D03*
D26*
X320000Y1489493D03*
D27*
X272500Y1364293D03*
X262500Y1364293D03*
X252500Y1364293D03*
X242500Y1364293D03*
X232500Y1364293D03*
X222500Y1364293D03*
D28*
X12700Y1388593D03*
X12700Y1413993D03*
X12700Y1439393D03*
X12700Y1464793D03*
D10*
X663825Y1413493D03*
X831325Y1413493D03*
D11*
X617575Y1409493D03*
X617575Y1391493D03*
X807575Y1469493D03*
X807575Y1451493D03*
X807575Y1411493D03*
X807575Y1429493D03*
D12*
X697575Y1418993D03*
X697575Y1401993D03*
D13*
X647575Y1414493D03*
X647575Y1386493D03*
D12*
X677575Y1401993D03*
X677575Y1418993D03*
X802575Y1378993D03*
X802575Y1361993D03*
X692575Y1521993D03*
X692575Y1538993D03*
X652575Y1521993D03*
X652575Y1538993D03*
X672575Y1538993D03*
X672575Y1521993D03*
D14*
X982575Y1560493D03*
X512575Y1360493D03*
D12*
X887575Y1531993D03*
X887575Y1548993D03*
D15*
X939075Y1510493D03*
X956075Y1510493D03*
D16*
X929575Y1540493D03*
X965575Y1540493D03*
D17*
X947575Y1540493D03*
D12*
X907575Y1531993D03*
X907575Y1548993D03*
D18*
X865075Y1526993D03*
X860075Y1526993D03*
D19*
X875075Y1551993D03*
X800075Y1551993D03*
D18*
X855075Y1526993D03*
X850075Y1526993D03*
X845075Y1526993D03*
X840075Y1526993D03*
X835075Y1526993D03*
X830075Y1526993D03*
X825075Y1526993D03*
X820075Y1526993D03*
X815075Y1526993D03*
X810075Y1526993D03*
D20*
X565075Y1472993D03*
X570075Y1472993D03*
X570075Y1487993D03*
X565075Y1487993D03*
D21*
X560075Y1487993D03*
X560075Y1482993D03*
X560075Y1472993D03*
X560075Y1477993D03*
X575075Y1472993D03*
X575075Y1477993D03*
X575075Y1482993D03*
X575075Y1487993D03*
D12*
X537575Y1471993D03*
X537575Y1488993D03*
X597575Y1471993D03*
X597575Y1488993D03*
D22*
X595515Y1521443D03*
X539635Y1521443D03*
X595515Y1559543D03*
X539635Y1559543D03*
D23*
X898075Y1495493D03*
X909075Y1495493D03*
X920075Y1495493D03*
X887075Y1495493D03*
X876075Y1495493D03*
X865075Y1495493D03*
X854075Y1495493D03*
X843075Y1495493D03*
X832075Y1495493D03*
D14*
X928075Y1390493D03*
X848075Y1390493D03*
D24*
X975075Y1394493D03*
X820075Y1394493D03*
D25*
X966075Y1490493D03*
D26*
X820075Y1489493D03*
D27*
X772575Y1364293D03*
X762575Y1364293D03*
X752575Y1364293D03*
X742575Y1364293D03*
X732575Y1364293D03*
X722575Y1364293D03*
D28*
X512775Y1388593D03*
X512775Y1413993D03*
X512775Y1439393D03*
X512775Y1464793D03*
D10*
X163750Y1638562D03*
X331250Y1638562D03*
D11*
X117500Y1634562D03*
X117500Y1616562D03*
X307500Y1694562D03*
X307500Y1676562D03*
X307500Y1636562D03*
X307500Y1654562D03*
D12*
X197500Y1644062D03*
X197500Y1627062D03*
D13*
X147500Y1639562D03*
X147500Y1611562D03*
D12*
X177500Y1627062D03*
X177500Y1644062D03*
X302500Y1604062D03*
X302500Y1587062D03*
X192500Y1747062D03*
X192500Y1764062D03*
X152500Y1747062D03*
X152500Y1764062D03*
X172500Y1764062D03*
X172500Y1747062D03*
D14*
X482500Y1785562D03*
X12500Y1585562D03*
D12*
X387500Y1757062D03*
X387500Y1774062D03*
D15*
X439000Y1735562D03*
X456000Y1735562D03*
D16*
X429500Y1765562D03*
X465500Y1765562D03*
D17*
X447500Y1765562D03*
D12*
X407500Y1757062D03*
X407500Y1774062D03*
D18*
X365000Y1752062D03*
X360000Y1752062D03*
D19*
X375000Y1777062D03*
X300000Y1777062D03*
D18*
X355000Y1752062D03*
X350000Y1752062D03*
X345000Y1752062D03*
X340000Y1752062D03*
X335000Y1752062D03*
X330000Y1752062D03*
X325000Y1752062D03*
X320000Y1752062D03*
X315000Y1752062D03*
X310000Y1752062D03*
D20*
X65000Y1698062D03*
X70000Y1698062D03*
X70000Y1713062D03*
X65000Y1713062D03*
D21*
X60000Y1713062D03*
X60000Y1708062D03*
X60000Y1698062D03*
X60000Y1703062D03*
X75000Y1698062D03*
X75000Y1703062D03*
X75000Y1708062D03*
X75000Y1713062D03*
D12*
X37500Y1697062D03*
X37500Y1714062D03*
X97500Y1697062D03*
X97500Y1714062D03*
D22*
X95440Y1746512D03*
X39560Y1746512D03*
X95440Y1784612D03*
X39560Y1784612D03*
D23*
X398000Y1720562D03*
X409000Y1720562D03*
X420000Y1720562D03*
X387000Y1720562D03*
X376000Y1720562D03*
X365000Y1720562D03*
X354000Y1720562D03*
X343000Y1720562D03*
X332000Y1720562D03*
D14*
X428000Y1615562D03*
X348000Y1615562D03*
D24*
X475000Y1619562D03*
X320000Y1619562D03*
D25*
X466000Y1715562D03*
D26*
X320000Y1714562D03*
D27*
X272500Y1589362D03*
X262500Y1589362D03*
X252500Y1589362D03*
X242500Y1589362D03*
X232500Y1589362D03*
X222500Y1589362D03*
D28*
X12700Y1613662D03*
X12700Y1639062D03*
X12700Y1664462D03*
X12700Y1689862D03*
D10*
X663825Y1638562D03*
X831325Y1638562D03*
D11*
X617575Y1634562D03*
X617575Y1616562D03*
X807575Y1694562D03*
X807575Y1676562D03*
X807575Y1636562D03*
X807575Y1654562D03*
D12*
X697575Y1644062D03*
X697575Y1627062D03*
D13*
X647575Y1639562D03*
X647575Y1611562D03*
D12*
X677575Y1627062D03*
X677575Y1644062D03*
X802575Y1604062D03*
X802575Y1587062D03*
X692575Y1747062D03*
X692575Y1764062D03*
X652575Y1747062D03*
X652575Y1764062D03*
X672575Y1764062D03*
X672575Y1747062D03*
D14*
X982575Y1785562D03*
X512575Y1585562D03*
D12*
X887575Y1757062D03*
X887575Y1774062D03*
D15*
X939075Y1735562D03*
X956075Y1735562D03*
D16*
X929575Y1765562D03*
X965575Y1765562D03*
D17*
X947575Y1765562D03*
D12*
X907575Y1757062D03*
X907575Y1774062D03*
D18*
X865075Y1752062D03*
X860075Y1752062D03*
D19*
X875075Y1777062D03*
X800075Y1777062D03*
D18*
X855075Y1752062D03*
X850075Y1752062D03*
X845075Y1752062D03*
X840075Y1752062D03*
X835075Y1752062D03*
X830075Y1752062D03*
X825075Y1752062D03*
X820075Y1752062D03*
X815075Y1752062D03*
X810075Y1752062D03*
D20*
X565075Y1698062D03*
X570075Y1698062D03*
X570075Y1713062D03*
X565075Y1713062D03*
D21*
X560075Y1713062D03*
X560075Y1708062D03*
X560075Y1698062D03*
X560075Y1703062D03*
X575075Y1698062D03*
X575075Y1703062D03*
X575075Y1708062D03*
X575075Y1713062D03*
D12*
X537575Y1697062D03*
X537575Y1714062D03*
X597575Y1697062D03*
X597575Y1714062D03*
D22*
X595515Y1746512D03*
X539635Y1746512D03*
X595515Y1784612D03*
X539635Y1784612D03*
D23*
X898075Y1720562D03*
X909075Y1720562D03*
X920075Y1720562D03*
X887075Y1720562D03*
X876075Y1720562D03*
X865075Y1720562D03*
X854075Y1720562D03*
X843075Y1720562D03*
X832075Y1720562D03*
D14*
X928075Y1615562D03*
X848075Y1615562D03*
D24*
X975075Y1619562D03*
X820075Y1619562D03*
D25*
X966075Y1715562D03*
D26*
X820075Y1714562D03*
D27*
X772575Y1589362D03*
X762575Y1589362D03*
X752575Y1589362D03*
X742575Y1589362D03*
X732575Y1589362D03*
X722575Y1589362D03*
D28*
X512775Y1613662D03*
X512775Y1639062D03*
X512775Y1664462D03*
X512775Y1689862D03*
D14*
X-26238Y1768881D03*
X1021334Y1768881D03*
D29*
X-35293Y63500D02*
X-35290Y63722D01*
X-35282Y63944D01*
X-35268Y64166D01*
X-35249Y64388D01*
X-35225Y64608D01*
X-35195Y64829D01*
X-35160Y65048D01*
X-35119Y65267D01*
X-35073Y65484D01*
X-35022Y65700D01*
X-34965Y65915D01*
X-34903Y66129D01*
X-34836Y66340D01*
X-34764Y66551D01*
X-34686Y66759D01*
X-34604Y66965D01*
X-34516Y67169D01*
X-34424Y67372D01*
X-34326Y67571D01*
X-34224Y67768D01*
X-34117Y67963D01*
X-34005Y68155D01*
X-33888Y68344D01*
X-33767Y68531D01*
X-33641Y68714D01*
X-33511Y68894D01*
X-33376Y69071D01*
X-33238Y69244D01*
X-33095Y69414D01*
X-32947Y69581D01*
X-32796Y69744D01*
X-32641Y69903D01*
X-32482Y70058D01*
X-32319Y70209D01*
X-32152Y70357D01*
X-31982Y70500D01*
X-31809Y70638D01*
X-31632Y70773D01*
X-31452Y70903D01*
X-31269Y71029D01*
X-31082Y71150D01*
X-30893Y71267D01*
X-30701Y71379D01*
X-30506Y71486D01*
X-30309Y71588D01*
X-30110Y71686D01*
X-29907Y71778D01*
X-29703Y71866D01*
X-29497Y71948D01*
X-29289Y72026D01*
X-29078Y72098D01*
X-28867Y72165D01*
X-28653Y72227D01*
X-28438Y72284D01*
X-28222Y72335D01*
X-28005Y72381D01*
X-27786Y72422D01*
X-27567Y72457D01*
X-27346Y72487D01*
X-27126Y72511D01*
X-26904Y72530D01*
X-26682Y72544D01*
X-26460Y72552D01*
X-26238Y72555D01*
X-26016Y72552D01*
X-25794Y72544D01*
X-25572Y72530D01*
X-25350Y72511D01*
X-25130Y72487D01*
X-24909Y72457D01*
X-24690Y72422D01*
X-24471Y72381D01*
X-24254Y72335D01*
X-24038Y72284D01*
X-23823Y72227D01*
X-23609Y72165D01*
X-23398Y72098D01*
X-23187Y72026D01*
X-22979Y71948D01*
X-22773Y71866D01*
X-22569Y71778D01*
X-22366Y71686D01*
X-22167Y71588D01*
X-21970Y71486D01*
X-21775Y71379D01*
X-21583Y71267D01*
X-21394Y71150D01*
X-21207Y71029D01*
X-21024Y70903D01*
X-20844Y70773D01*
X-20667Y70638D01*
X-20494Y70500D01*
X-20324Y70357D01*
X-20157Y70209D01*
X-19994Y70058D01*
X-19835Y69903D01*
X-19680Y69744D01*
X-19529Y69581D01*
X-19381Y69414D01*
X-19238Y69244D01*
X-19100Y69071D01*
X-18965Y68894D01*
X-18835Y68714D01*
X-18709Y68531D01*
X-18588Y68344D01*
X-18471Y68155D01*
X-18359Y67963D01*
X-18252Y67768D01*
X-18150Y67571D01*
X-18052Y67372D01*
X-17960Y67169D01*
X-17872Y66965D01*
X-17790Y66759D01*
X-17712Y66551D01*
X-17640Y66340D01*
X-17573Y66129D01*
X-17511Y65915D01*
X-17454Y65700D01*
X-17403Y65484D01*
X-17357Y65267D01*
X-17316Y65048D01*
X-17281Y64829D01*
X-17251Y64608D01*
X-17227Y64388D01*
X-17208Y64166D01*
X-17194Y63944D01*
X-17186Y63722D01*
X-17183Y63500D01*
X-17186Y63278D01*
X-17194Y63056D01*
X-17208Y62834D01*
X-17227Y62612D01*
X-17251Y62392D01*
X-17281Y62171D01*
X-17316Y61952D01*
X-17357Y61733D01*
X-17403Y61516D01*
X-17454Y61300D01*
X-17511Y61085D01*
X-17573Y60871D01*
X-17640Y60660D01*
X-17712Y60449D01*
X-17790Y60241D01*
X-17872Y60035D01*
X-17960Y59831D01*
X-18052Y59628D01*
X-18150Y59429D01*
X-18252Y59232D01*
X-18359Y59037D01*
X-18471Y58845D01*
X-18588Y58656D01*
X-18709Y58469D01*
X-18835Y58286D01*
X-18965Y58106D01*
X-19100Y57929D01*
X-19238Y57756D01*
X-19381Y57586D01*
X-19529Y57419D01*
X-19680Y57256D01*
X-19835Y57097D01*
X-19994Y56942D01*
X-20157Y56791D01*
X-20324Y56643D01*
X-20494Y56500D01*
X-20667Y56362D01*
X-20844Y56227D01*
X-21024Y56097D01*
X-21207Y55971D01*
X-21394Y55850D01*
X-21583Y55733D01*
X-21775Y55621D01*
X-21970Y55514D01*
X-22167Y55412D01*
X-22366Y55314D01*
X-22569Y55222D01*
X-22773Y55134D01*
X-22979Y55052D01*
X-23187Y54974D01*
X-23398Y54902D01*
X-23609Y54835D01*
X-23823Y54773D01*
X-24038Y54716D01*
X-24254Y54665D01*
X-24471Y54619D01*
X-24690Y54578D01*
X-24909Y54543D01*
X-25130Y54513D01*
X-25350Y54489D01*
X-25572Y54470D01*
X-25794Y54456D01*
X-26016Y54448D01*
X-26238Y54445D01*
X-26460Y54448D01*
X-26682Y54456D01*
X-26904Y54470D01*
X-27126Y54489D01*
X-27346Y54513D01*
X-27567Y54543D01*
X-27786Y54578D01*
X-28005Y54619D01*
X-28222Y54665D01*
X-28438Y54716D01*
X-28653Y54773D01*
X-28867Y54835D01*
X-29078Y54902D01*
X-29289Y54974D01*
X-29497Y55052D01*
X-29703Y55134D01*
X-29907Y55222D01*
X-30110Y55314D01*
X-30309Y55412D01*
X-30506Y55514D01*
X-30701Y55621D01*
X-30893Y55733D01*
X-31082Y55850D01*
X-31269Y55971D01*
X-31452Y56097D01*
X-31632Y56227D01*
X-31809Y56362D01*
X-31982Y56500D01*
X-32152Y56643D01*
X-32319Y56791D01*
X-32482Y56942D01*
X-32641Y57097D01*
X-32796Y57256D01*
X-32947Y57419D01*
X-33095Y57586D01*
X-33238Y57756D01*
X-33376Y57929D01*
X-33511Y58106D01*
X-33641Y58286D01*
X-33767Y58469D01*
X-33888Y58656D01*
X-34005Y58845D01*
X-34117Y59037D01*
X-34224Y59232D01*
X-34326Y59429D01*
X-34424Y59628D01*
X-34516Y59831D01*
X-34604Y60035D01*
X-34686Y60241D01*
X-34764Y60449D01*
X-34836Y60660D01*
X-34903Y60871D01*
X-34965Y61085D01*
X-35022Y61300D01*
X-35073Y61516D01*
X-35119Y61733D01*
X-35160Y61952D01*
X-35195Y62171D01*
X-35225Y62392D01*
X-35249Y62612D01*
X-35268Y62834D01*
X-35282Y63056D01*
X-35290Y63278D01*
X-35293Y63500D01*
D30*
X-26238Y63500D03*
M02*
