M48
;GenerationSoftware,Autodesk,EAGLE,9.6.2*%
;CreationDate,2021-12-21T21:51:49Z*%
FMAT,2
ICI,OFF
METRIC,TZ,000.000
T4C0.381
T3C0.800
T2C1.000
T1C2.300
%
G90
M71
T1
X94007Y86523
X94007Y109033
X94007Y41507
X44500Y19000
X94007Y131540
X44500Y131540
X94007Y176556
X44500Y176556
X94007Y19000
X44500Y64016
X44500Y86523
X44500Y109033
X94007Y154049
X44500Y41507
X44500Y154049
X94007Y64016
T2
X84057Y161556
X84057Y116540
X42550Y139049
X42550Y4000
X34550Y4000
X34550Y139049
X92057Y139049
X92057Y4000
X84057Y4000
X84057Y139049
X42550Y161556
X42550Y26507
X34550Y26507
X34550Y161556
X92057Y161556
X92057Y26507
X84057Y26507
X42550Y49016
X34550Y49016
X92057Y49016
X84057Y49016
X42550Y71523
X34550Y71523
X92057Y71523
X84057Y71523
X42550Y94033
X34550Y94033
X92057Y94033
X84057Y94033
X42550Y116540
X34550Y116540
X92057Y116540
T3
X16125Y6300
X32875Y6300
X65632Y6300
X82382Y6300
X16125Y28807
X32875Y28807
X65632Y28807
X82382Y28807
X65632Y118840
X82382Y118840
X16125Y73823
X82382Y96333
X65632Y73823
X16125Y141349
X32875Y141349
X82382Y51316
X82382Y73823
X16125Y96333
X65632Y141349
X82382Y141349
X65632Y51316
X16125Y118840
X32875Y118840
X16125Y163856
X32875Y163856
X32875Y51316
X32875Y73823
X32875Y96333
X65632Y163856
X82382Y163856
X16125Y51316
X65632Y96333
T4
X35100Y32107
X26200Y24507
X19500Y34507
X12500Y24507
X11500Y36507
X2000Y36507
X36200Y35507
X46000Y34507
X13500Y31207
X33000Y35407
X37300Y39807
X18400Y30507
X30000Y27307
X17600Y34607
X18310Y34007
X26500Y28535
X31758Y30381
X30488Y35461
X16500Y34507
X24500Y30307
X25500Y25507
X31758Y28730
X29218Y34318
X37400Y41407
X38300Y25107
X38400Y35207
X28700Y27607
X45500Y43507
X31500Y42507
X26500Y42507
X30200Y37507
X23510Y34507
X23510Y37507
X5500Y37507
X31500Y38507
X21500Y34507
X21500Y38507
X5600Y33407
X35500Y41507
X22500Y41507
X84607Y32107
X75707Y24507
X69007Y34507
X62007Y24507
X61007Y36507
X51507Y36507
X85707Y35507
X95507Y34507
X63007Y31207
X82507Y35407
X86807Y39807
X67907Y30507
X79507Y27307
X67107Y34607
X67817Y34007
X76007Y28535
X81265Y30381
X79995Y35461
X66007Y34507
X74007Y30307
X75007Y25507
X81265Y28730
X78725Y34318
X86907Y41407
X87807Y25107
X87907Y35207
X78207Y27607
X95007Y43507
X81007Y42507
X76007Y42507
X79707Y37507
X73017Y34507
X73017Y37507
X55007Y37507
X81007Y38507
X71007Y34507
X71007Y38507
X55107Y33407
X85007Y41507
X72007Y41507
X35100Y54616
X26200Y47016
X19500Y57016
X12500Y47016
X11500Y59016
X2000Y59016
X36200Y58016
X46000Y57016
X13500Y53716
X33000Y57916
X37300Y62316
X18400Y53016
X30000Y49816
X17600Y57116
X18310Y56516
X26500Y51044
X31758Y52890
X30488Y57970
X16500Y57016
X24500Y52816
X25500Y48016
X31758Y51239
X29218Y56827
X37400Y63916
X38300Y47616
X38400Y57716
X28700Y50116
X45500Y66016
X31500Y65016
X26500Y65016
X30200Y60016
X23510Y57016
X23510Y60016
X5500Y60016
X31500Y61016
X21500Y57016
X21500Y61016
X5600Y55916
X35500Y64016
X22500Y64016
X84607Y54616
X75707Y47016
X69007Y57016
X62007Y47016
X61007Y59016
X51507Y59016
X85707Y58016
X95507Y57016
X63007Y53716
X82507Y57916
X86807Y62316
X67907Y53016
X79507Y49816
X67107Y57116
X67817Y56516
X76007Y51044
X81265Y52890
X79995Y57970
X66007Y57016
X74007Y52816
X75007Y48016
X81265Y51239
X78725Y56827
X86907Y63916
X87807Y47616
X87907Y57716
X78207Y50116
X95007Y66016
X81007Y65016
X76007Y65016
X79707Y60016
X73017Y57016
X73017Y60016
X55007Y60016
X81007Y61016
X71007Y57016
X71007Y61016
X55107Y55916
X85007Y64016
X72007Y64016
X35100Y77123
X26200Y69523
X19500Y79523
X12500Y69523
X11500Y81523
X2000Y81523
X36200Y80523
X46000Y79523
X13500Y76223
X33000Y80423
X37300Y84823
X18400Y75523
X30000Y72323
X17600Y79623
X18310Y79023
X26500Y73551
X31758Y75397
X30488Y80477
X16500Y79523
X24500Y75323
X25500Y70523
X31758Y73746
X29218Y79334
X37400Y86423
X38300Y70123
X38400Y80223
X28700Y72623
X45500Y88523
X31500Y87523
X26500Y87523
X30200Y82523
X23510Y79523
X23510Y82523
X5500Y82523
X31500Y83523
X21500Y79523
X21500Y83523
X5600Y78423
X35500Y86523
X22500Y86523
X84607Y77123
X75707Y69523
X69007Y79523
X62007Y69523
X61007Y81523
X51507Y81523
X85707Y80523
X95507Y79523
X63007Y76223
X82507Y80423
X86807Y84823
X67907Y75523
X79507Y72323
X67107Y79623
X67817Y79023
X76007Y73551
X81265Y75397
X79995Y80477
X66007Y79523
X74007Y75323
X75007Y70523
X81265Y73746
X78725Y79334
X86907Y86423
X87807Y70123
X87907Y80223
X78207Y72623
X95007Y88523
X81007Y87523
X76007Y87523
X79707Y82523
X73017Y79523
X73017Y82523
X55007Y82523
X81007Y83523
X71007Y79523
X71007Y83523
X55107Y78423
X85007Y86523
X72007Y86523
X35100Y99633
X26200Y92033
X19500Y102033
X12500Y92033
X11500Y104033
X2000Y104033
X36200Y103033
X46000Y102033
X13500Y98733
X33000Y102933
X37300Y107333
X18400Y98033
X30000Y94833
X17600Y102133
X18310Y101533
X26500Y96061
X31758Y97907
X30488Y102987
X16500Y102033
X24500Y97833
X25500Y93033
X31758Y96256
X29218Y101844
X37400Y108933
X38300Y92633
X38400Y102733
X28700Y95133
X45500Y111033
X31500Y110033
X26500Y110033
X30200Y105033
X23510Y102033
X23510Y105033
X5500Y105033
X31500Y106033
X21500Y102033
X21500Y106033
X5600Y100933
X35500Y109033
X22500Y109033
X84607Y99633
X75707Y92033
X69007Y102033
X62007Y92033
X61007Y104033
X51507Y104033
X85707Y103033
X95507Y102033
X63007Y98733
X82507Y102933
X86807Y107333
X67907Y98033
X79507Y94833
X67107Y102133
X67817Y101533
X76007Y96061
X81265Y97907
X79995Y102987
X66007Y102033
X74007Y97833
X75007Y93033
X81265Y96256
X78725Y101844
X86907Y108933
X87807Y92633
X87907Y102733
X78207Y95133
X95007Y111033
X81007Y110033
X76007Y110033
X79707Y105033
X73017Y102033
X73017Y105033
X55007Y105033
X81007Y106033
X71007Y102033
X71007Y106033
X55107Y100933
X85007Y109033
X72007Y109033
X35100Y122140
X26200Y114540
X19500Y124540
X12500Y114540
X11500Y126540
X2000Y126540
X36200Y125540
X46000Y124540
X13500Y121240
X33000Y125440
X37300Y129840
X18400Y120540
X30000Y117340
X17600Y124640
X18310Y124040
X26500Y118567
X31758Y120414
X30488Y125494
X16500Y124540
X24500Y120340
X25500Y115540
X31758Y118763
X29218Y124351
X37400Y131440
X38300Y115140
X38400Y125240
X28700Y117640
X45500Y133540
X31500Y132540
X26500Y132540
X30200Y127540
X23510Y124540
X23510Y127540
X5500Y127540
X31500Y128540
X21500Y124540
X21500Y128540
X5600Y123440
X35500Y131540
X22500Y131540
X84607Y122140
X75707Y114540
X69007Y124540
X62007Y114540
X61007Y126540
X51507Y126540
X85707Y125540
X95507Y124540
X63007Y121240
X82507Y125440
X86807Y129840
X67907Y120540
X79507Y117340
X67107Y124640
X67817Y124040
X76007Y118567
X81265Y120414
X79995Y125494
X66007Y124540
X74007Y120340
X75007Y115540
X81265Y118763
X78725Y124351
X86907Y131440
X87807Y115140
X87907Y125240
X78207Y117640
X95007Y133540
X81007Y132540
X76007Y132540
X79707Y127540
X73017Y124540
X73017Y127540
X55007Y127540
X81007Y128540
X71007Y124540
X71007Y128540
X55107Y123440
X85007Y131540
X72007Y131540
X35100Y144649
X26200Y137049
X19500Y147049
X12500Y137049
X11500Y149049
X2000Y149049
X36200Y148049
X46000Y147049
X13500Y143749
X33000Y147949
X37300Y152349
X18400Y143049
X30000Y139849
X17600Y147149
X18310Y146549
X26500Y141077
X31758Y142923
X30488Y148003
X16500Y147049
X24500Y142849
X25500Y138049
X31758Y141272
X29218Y146860
X37400Y153949
X38300Y137649
X38400Y147749
X28700Y140149
X45500Y156049
X31500Y155049
X26500Y155049
X30200Y150049
X23510Y147049
X23510Y150049
X5500Y150049
X31500Y151049
X21500Y147049
X21500Y151049
X5600Y145949
X35500Y154049
X22500Y154049
X84607Y144649
X75707Y137049
X69007Y147049
X62007Y137049
X61007Y149049
X51507Y149049
X85707Y148049
X95507Y147049
X63007Y143749
X82507Y147949
X86807Y152349
X67907Y143049
X79507Y139849
X67107Y147149
X67817Y146549
X76007Y141077
X81265Y142923
X79995Y148003
X66007Y147049
X35100Y9600
X75007Y138049
X81265Y141272
X78725Y146860
X86907Y153949
X87807Y137649
X87907Y147749
X78207Y140149
X95007Y156049
X81007Y155049
X76007Y155049
X79707Y150049
X73017Y147049
X73017Y150049
X55007Y150049
X81007Y151049
X71007Y147049
X71007Y151049
X55107Y145949
X85007Y154049
X72007Y154049
X35100Y167156
X26200Y159556
X19500Y169556
X12500Y159556
X11500Y171556
X2000Y171556
X36200Y170556
X46000Y169556
X13500Y166256
X33000Y170456
X37300Y174856
X18400Y165556
X30000Y162356
X17600Y169656
X18310Y169056
X26500Y163584
X31758Y165430
X30488Y170510
X16500Y169556
X24500Y165356
X25500Y160556
X31758Y163779
X29218Y169367
X37400Y176456
X38300Y160156
X38400Y170256
X28700Y162656
X45500Y178556
X31500Y177556
X26500Y177556
X30200Y172556
X23510Y169556
X23510Y172556
X5500Y172556
X31500Y173556
X21500Y169556
X21500Y173556
X5600Y168456
X35500Y176556
X22500Y176556
X84607Y167156
X75707Y159556
X69007Y169556
X62007Y159556
X61007Y171556
X51507Y171556
X85707Y170556
X95507Y169556
X63007Y166256
X82507Y170456
X86807Y174856
X67907Y165556
X79507Y162356
X67107Y169656
X67817Y169056
X76007Y163584
X81265Y165430
X79995Y170510
X66007Y169556
X74007Y165356
X75007Y160556
X81265Y163779
X78725Y169367
X86907Y176456
X87807Y160156
X87907Y170256
X78207Y162656
X95007Y178556
X81007Y177556
X74007Y142849
X79707Y172556
X73017Y169556
X73017Y172556
X55007Y172556
X81007Y173556
X71007Y169556
X71007Y173556
X55107Y168456
X85007Y176556
X72007Y176556
X26200Y2000
X19500Y12000
X12500Y2000
X11500Y14000
X2000Y14000
X36200Y13000
X46000Y12000
X13500Y8700
X33000Y12900
X37300Y17300
X18400Y8000
X30000Y4800
X17600Y12100
X18310Y11500
X26500Y6028
X31758Y7874
X30488Y12954
X16500Y12000
X24500Y7800
X25500Y3000
X31758Y6223
X29218Y11811
X37400Y18900
X38300Y2600
X38400Y12700
X28700Y5100
X45500Y21000
X31500Y20000
X26500Y20000
X30200Y15000
X23510Y12000
X23510Y15000
X5500Y15000
X31500Y16000
X21500Y12000
X21500Y16000
X5600Y10900
X35500Y19000
X22500Y19000
X84607Y9600
X75707Y2000
X69007Y12000
X62007Y2000
X61007Y14000
X51507Y14000
X85707Y13000
X95507Y12000
X63007Y8700
X82507Y12900
X86807Y17300
X67907Y8000
X79507Y4800
X67107Y12100
X67817Y11500
X76007Y6028
X81265Y7874
X79995Y12954
X66007Y12000
X74007Y7800
X75007Y3000
X81265Y6223
X78725Y11811
X86907Y18900
X87807Y2600
X87907Y12700
X78207Y5100
X95007Y21000
X81007Y20000
X76007Y20000
X79707Y15000
X73017Y12000
X73017Y15000
X55007Y15000
X81007Y16000
X71007Y12000
X71007Y16000
X55107Y10900
X85007Y19000
X72007Y19000
X76007Y177556
M30