G04 EAGLE Gerber RS-274X export*
G75*
%MOMM*%
%FSLAX34Y34*%
%LPD*%
%INSoldermask Bottom*%
%IPPOS*%
%AMOC8*
5,1,8,0,0,1.08239X$1,22.5*%
G01*
%ADD10R,0.553200X2.203200*%
%ADD11C,1.003200*%
%ADD12C,1.203200*%
%ADD13R,1.473200X0.838200*%
%ADD14C,2.503200*%
%ADD15C,2.082800*%
%ADD16C,1.270000*%
%ADD17C,1.703200*%


D10*
X335250Y97000D03*
X328750Y97000D03*
X322250Y97000D03*
X315750Y97000D03*
X309250Y97000D03*
X302750Y97000D03*
X296250Y97000D03*
X289750Y97000D03*
X283250Y97000D03*
X276750Y97000D03*
X270250Y97000D03*
X263750Y97000D03*
X257250Y97000D03*
X250750Y97000D03*
X244250Y97000D03*
X237750Y97000D03*
X231250Y97000D03*
X224750Y97000D03*
X218250Y97000D03*
X211750Y97000D03*
X205250Y97000D03*
X198750Y97000D03*
X192250Y97000D03*
X185750Y97000D03*
X179250Y97000D03*
X172750Y97000D03*
X166250Y97000D03*
X159750Y97000D03*
D11*
X163750Y63000D03*
X331250Y63000D03*
D12*
X12500Y10000D03*
X482500Y210000D03*
D13*
X252500Y45936D03*
X252500Y54064D03*
D14*
X447500Y190000D03*
D12*
X428000Y40000D03*
X348000Y40000D03*
D15*
X12700Y38100D03*
X12700Y63500D03*
X12700Y88900D03*
X12700Y114300D03*
D10*
X835325Y97000D03*
X828825Y97000D03*
X822325Y97000D03*
X815825Y97000D03*
X809325Y97000D03*
X802825Y97000D03*
X796325Y97000D03*
X789825Y97000D03*
X783325Y97000D03*
X776825Y97000D03*
X770325Y97000D03*
X763825Y97000D03*
X757325Y97000D03*
X750825Y97000D03*
X744325Y97000D03*
X737825Y97000D03*
X731325Y97000D03*
X724825Y97000D03*
X718325Y97000D03*
X711825Y97000D03*
X705325Y97000D03*
X698825Y97000D03*
X692325Y97000D03*
X685825Y97000D03*
X679325Y97000D03*
X672825Y97000D03*
X666325Y97000D03*
X659825Y97000D03*
D11*
X663825Y63000D03*
X831325Y63000D03*
D12*
X512575Y10000D03*
X982575Y210000D03*
D13*
X752575Y45936D03*
X752575Y54064D03*
D14*
X947575Y190000D03*
D12*
X928075Y40000D03*
X848075Y40000D03*
D15*
X512775Y38100D03*
X512775Y63500D03*
X512775Y88900D03*
X512775Y114300D03*
D10*
X335250Y322069D03*
X328750Y322069D03*
X322250Y322069D03*
X315750Y322069D03*
X309250Y322069D03*
X302750Y322069D03*
X296250Y322069D03*
X289750Y322069D03*
X283250Y322069D03*
X276750Y322069D03*
X270250Y322069D03*
X263750Y322069D03*
X257250Y322069D03*
X250750Y322069D03*
X244250Y322069D03*
X237750Y322069D03*
X231250Y322069D03*
X224750Y322069D03*
X218250Y322069D03*
X211750Y322069D03*
X205250Y322069D03*
X198750Y322069D03*
X192250Y322069D03*
X185750Y322069D03*
X179250Y322069D03*
X172750Y322069D03*
X166250Y322069D03*
X159750Y322069D03*
D11*
X163750Y288069D03*
X331250Y288069D03*
D12*
X12500Y235069D03*
X482500Y435069D03*
D13*
X252500Y271005D03*
X252500Y279133D03*
D14*
X447500Y415069D03*
D12*
X428000Y265069D03*
X348000Y265069D03*
D15*
X12700Y263169D03*
X12700Y288569D03*
X12700Y313969D03*
X12700Y339369D03*
D10*
X835325Y322069D03*
X828825Y322069D03*
X822325Y322069D03*
X815825Y322069D03*
X809325Y322069D03*
X802825Y322069D03*
X796325Y322069D03*
X789825Y322069D03*
X783325Y322069D03*
X776825Y322069D03*
X770325Y322069D03*
X763825Y322069D03*
X757325Y322069D03*
X750825Y322069D03*
X744325Y322069D03*
X737825Y322069D03*
X731325Y322069D03*
X724825Y322069D03*
X718325Y322069D03*
X711825Y322069D03*
X705325Y322069D03*
X698825Y322069D03*
X692325Y322069D03*
X685825Y322069D03*
X679325Y322069D03*
X672825Y322069D03*
X666325Y322069D03*
X659825Y322069D03*
D11*
X663825Y288069D03*
X831325Y288069D03*
D12*
X512575Y235069D03*
X982575Y435069D03*
D13*
X752575Y271005D03*
X752575Y279133D03*
D14*
X947575Y415069D03*
D12*
X928075Y265069D03*
X848075Y265069D03*
D15*
X512775Y263169D03*
X512775Y288569D03*
X512775Y313969D03*
X512775Y339369D03*
D10*
X335250Y547164D03*
X328750Y547164D03*
X322250Y547164D03*
X315750Y547164D03*
X309250Y547164D03*
X302750Y547164D03*
X296250Y547164D03*
X289750Y547164D03*
X283250Y547164D03*
X276750Y547164D03*
X270250Y547164D03*
X263750Y547164D03*
X257250Y547164D03*
X250750Y547164D03*
X244250Y547164D03*
X237750Y547164D03*
X231250Y547164D03*
X224750Y547164D03*
X218250Y547164D03*
X211750Y547164D03*
X205250Y547164D03*
X198750Y547164D03*
X192250Y547164D03*
X185750Y547164D03*
X179250Y547164D03*
X172750Y547164D03*
X166250Y547164D03*
X159750Y547164D03*
D11*
X163750Y513164D03*
X331250Y513164D03*
D12*
X12500Y460164D03*
X482500Y660164D03*
D13*
X252500Y496100D03*
X252500Y504228D03*
D14*
X447500Y640164D03*
D12*
X428000Y490164D03*
X348000Y490164D03*
D15*
X12700Y488264D03*
X12700Y513664D03*
X12700Y539064D03*
X12700Y564464D03*
D10*
X835325Y547164D03*
X828825Y547164D03*
X822325Y547164D03*
X815825Y547164D03*
X809325Y547164D03*
X802825Y547164D03*
X796325Y547164D03*
X789825Y547164D03*
X783325Y547164D03*
X776825Y547164D03*
X770325Y547164D03*
X763825Y547164D03*
X757325Y547164D03*
X750825Y547164D03*
X744325Y547164D03*
X737825Y547164D03*
X731325Y547164D03*
X724825Y547164D03*
X718325Y547164D03*
X711825Y547164D03*
X705325Y547164D03*
X698825Y547164D03*
X692325Y547164D03*
X685825Y547164D03*
X679325Y547164D03*
X672825Y547164D03*
X666325Y547164D03*
X659825Y547164D03*
D11*
X663825Y513164D03*
X831325Y513164D03*
D12*
X512575Y460164D03*
X982575Y660164D03*
D13*
X752575Y496100D03*
X752575Y504228D03*
D14*
X947575Y640164D03*
D12*
X928075Y490164D03*
X848075Y490164D03*
D15*
X512775Y488264D03*
X512775Y513664D03*
X512775Y539064D03*
X512775Y564464D03*
D10*
X335250Y772234D03*
X328750Y772234D03*
X322250Y772234D03*
X315750Y772234D03*
X309250Y772234D03*
X302750Y772234D03*
X296250Y772234D03*
X289750Y772234D03*
X283250Y772234D03*
X276750Y772234D03*
X270250Y772234D03*
X263750Y772234D03*
X257250Y772234D03*
X250750Y772234D03*
X244250Y772234D03*
X237750Y772234D03*
X231250Y772234D03*
X224750Y772234D03*
X218250Y772234D03*
X211750Y772234D03*
X205250Y772234D03*
X198750Y772234D03*
X192250Y772234D03*
X185750Y772234D03*
X179250Y772234D03*
X172750Y772234D03*
X166250Y772234D03*
X159750Y772234D03*
D11*
X163750Y738234D03*
X331250Y738234D03*
D12*
X12500Y685234D03*
X482500Y885234D03*
D13*
X252500Y721170D03*
X252500Y729298D03*
D14*
X447500Y865234D03*
D12*
X428000Y715234D03*
X348000Y715234D03*
D15*
X12700Y713334D03*
X12700Y738734D03*
X12700Y764134D03*
X12700Y789534D03*
D10*
X835325Y772234D03*
X828825Y772234D03*
X822325Y772234D03*
X815825Y772234D03*
X809325Y772234D03*
X802825Y772234D03*
X796325Y772234D03*
X789825Y772234D03*
X783325Y772234D03*
X776825Y772234D03*
X770325Y772234D03*
X763825Y772234D03*
X757325Y772234D03*
X750825Y772234D03*
X744325Y772234D03*
X737825Y772234D03*
X731325Y772234D03*
X724825Y772234D03*
X718325Y772234D03*
X711825Y772234D03*
X705325Y772234D03*
X698825Y772234D03*
X692325Y772234D03*
X685825Y772234D03*
X679325Y772234D03*
X672825Y772234D03*
X666325Y772234D03*
X659825Y772234D03*
D11*
X663825Y738234D03*
X831325Y738234D03*
D12*
X512575Y685234D03*
X982575Y885234D03*
D13*
X752575Y721170D03*
X752575Y729298D03*
D14*
X947575Y865234D03*
D12*
X928075Y715234D03*
X848075Y715234D03*
D15*
X512775Y713334D03*
X512775Y738734D03*
X512775Y764134D03*
X512775Y789534D03*
D10*
X335250Y997328D03*
X328750Y997328D03*
X322250Y997328D03*
X315750Y997328D03*
X309250Y997328D03*
X302750Y997328D03*
X296250Y997328D03*
X289750Y997328D03*
X283250Y997328D03*
X276750Y997328D03*
X270250Y997328D03*
X263750Y997328D03*
X257250Y997328D03*
X250750Y997328D03*
X244250Y997328D03*
X237750Y997328D03*
X231250Y997328D03*
X224750Y997328D03*
X218250Y997328D03*
X211750Y997328D03*
X205250Y997328D03*
X198750Y997328D03*
X192250Y997328D03*
X185750Y997328D03*
X179250Y997328D03*
X172750Y997328D03*
X166250Y997328D03*
X159750Y997328D03*
D11*
X163750Y963328D03*
X331250Y963328D03*
D12*
X12500Y910328D03*
X482500Y1110328D03*
D13*
X252500Y946264D03*
X252500Y954392D03*
D14*
X447500Y1090328D03*
D12*
X428000Y940328D03*
X348000Y940328D03*
D15*
X12700Y938428D03*
X12700Y963828D03*
X12700Y989228D03*
X12700Y1014628D03*
D10*
X835325Y997328D03*
X828825Y997328D03*
X822325Y997328D03*
X815825Y997328D03*
X809325Y997328D03*
X802825Y997328D03*
X796325Y997328D03*
X789825Y997328D03*
X783325Y997328D03*
X776825Y997328D03*
X770325Y997328D03*
X763825Y997328D03*
X757325Y997328D03*
X750825Y997328D03*
X744325Y997328D03*
X737825Y997328D03*
X731325Y997328D03*
X724825Y997328D03*
X718325Y997328D03*
X711825Y997328D03*
X705325Y997328D03*
X698825Y997328D03*
X692325Y997328D03*
X685825Y997328D03*
X679325Y997328D03*
X672825Y997328D03*
X666325Y997328D03*
X659825Y997328D03*
D11*
X663825Y963328D03*
X831325Y963328D03*
D12*
X512575Y910328D03*
X982575Y1110328D03*
D13*
X752575Y946264D03*
X752575Y954392D03*
D14*
X947575Y1090328D03*
D12*
X928075Y940328D03*
X848075Y940328D03*
D15*
X512775Y938428D03*
X512775Y963828D03*
X512775Y989228D03*
X512775Y1014628D03*
D10*
X335250Y1222398D03*
X328750Y1222398D03*
X322250Y1222398D03*
X315750Y1222398D03*
X309250Y1222398D03*
X302750Y1222398D03*
X296250Y1222398D03*
X289750Y1222398D03*
X283250Y1222398D03*
X276750Y1222398D03*
X270250Y1222398D03*
X263750Y1222398D03*
X257250Y1222398D03*
X250750Y1222398D03*
X244250Y1222398D03*
X237750Y1222398D03*
X231250Y1222398D03*
X224750Y1222398D03*
X218250Y1222398D03*
X211750Y1222398D03*
X205250Y1222398D03*
X198750Y1222398D03*
X192250Y1222398D03*
X185750Y1222398D03*
X179250Y1222398D03*
X172750Y1222398D03*
X166250Y1222398D03*
X159750Y1222398D03*
D11*
X163750Y1188398D03*
X331250Y1188398D03*
D12*
X12500Y1135398D03*
X482500Y1335398D03*
D13*
X252500Y1171334D03*
X252500Y1179462D03*
D14*
X447500Y1315398D03*
D12*
X428000Y1165398D03*
X348000Y1165398D03*
D15*
X12700Y1163498D03*
X12700Y1188898D03*
X12700Y1214298D03*
X12700Y1239698D03*
D10*
X835325Y1222398D03*
X828825Y1222398D03*
X822325Y1222398D03*
X815825Y1222398D03*
X809325Y1222398D03*
X802825Y1222398D03*
X796325Y1222398D03*
X789825Y1222398D03*
X783325Y1222398D03*
X776825Y1222398D03*
X770325Y1222398D03*
X763825Y1222398D03*
X757325Y1222398D03*
X750825Y1222398D03*
X744325Y1222398D03*
X737825Y1222398D03*
X731325Y1222398D03*
X724825Y1222398D03*
X718325Y1222398D03*
X711825Y1222398D03*
X705325Y1222398D03*
X698825Y1222398D03*
X692325Y1222398D03*
X685825Y1222398D03*
X679325Y1222398D03*
X672825Y1222398D03*
X666325Y1222398D03*
X659825Y1222398D03*
D11*
X663825Y1188398D03*
X831325Y1188398D03*
D12*
X512575Y1135398D03*
X982575Y1335398D03*
D13*
X752575Y1171334D03*
X752575Y1179462D03*
D14*
X947575Y1315398D03*
D12*
X928075Y1165398D03*
X848075Y1165398D03*
D15*
X512775Y1163498D03*
X512775Y1188898D03*
X512775Y1214298D03*
X512775Y1239698D03*
D10*
X335250Y1447493D03*
X328750Y1447493D03*
X322250Y1447493D03*
X315750Y1447493D03*
X309250Y1447493D03*
X302750Y1447493D03*
X296250Y1447493D03*
X289750Y1447493D03*
X283250Y1447493D03*
X276750Y1447493D03*
X270250Y1447493D03*
X263750Y1447493D03*
X257250Y1447493D03*
X250750Y1447493D03*
X244250Y1447493D03*
X237750Y1447493D03*
X231250Y1447493D03*
X224750Y1447493D03*
X218250Y1447493D03*
X211750Y1447493D03*
X205250Y1447493D03*
X198750Y1447493D03*
X192250Y1447493D03*
X185750Y1447493D03*
X179250Y1447493D03*
X172750Y1447493D03*
X166250Y1447493D03*
X159750Y1447493D03*
D11*
X163750Y1413493D03*
X331250Y1413493D03*
D12*
X12500Y1360493D03*
X482500Y1560493D03*
D13*
X252500Y1396429D03*
X252500Y1404557D03*
D14*
X447500Y1540493D03*
D12*
X428000Y1390493D03*
X348000Y1390493D03*
D15*
X12700Y1388593D03*
X12700Y1413993D03*
X12700Y1439393D03*
X12700Y1464793D03*
D10*
X835325Y1447493D03*
X828825Y1447493D03*
X822325Y1447493D03*
X815825Y1447493D03*
X809325Y1447493D03*
X802825Y1447493D03*
X796325Y1447493D03*
X789825Y1447493D03*
X783325Y1447493D03*
X776825Y1447493D03*
X770325Y1447493D03*
X763825Y1447493D03*
X757325Y1447493D03*
X750825Y1447493D03*
X744325Y1447493D03*
X737825Y1447493D03*
X731325Y1447493D03*
X724825Y1447493D03*
X718325Y1447493D03*
X711825Y1447493D03*
X705325Y1447493D03*
X698825Y1447493D03*
X692325Y1447493D03*
X685825Y1447493D03*
X679325Y1447493D03*
X672825Y1447493D03*
X666325Y1447493D03*
X659825Y1447493D03*
D11*
X663825Y1413493D03*
X831325Y1413493D03*
D12*
X512575Y1360493D03*
X982575Y1560493D03*
D13*
X752575Y1396429D03*
X752575Y1404557D03*
D14*
X947575Y1540493D03*
D12*
X928075Y1390493D03*
X848075Y1390493D03*
D15*
X512775Y1388593D03*
X512775Y1413993D03*
X512775Y1439393D03*
X512775Y1464793D03*
D10*
X335250Y1672562D03*
X328750Y1672562D03*
X322250Y1672562D03*
X315750Y1672562D03*
X309250Y1672562D03*
X302750Y1672562D03*
X296250Y1672562D03*
X289750Y1672562D03*
X283250Y1672562D03*
X276750Y1672562D03*
X270250Y1672562D03*
X263750Y1672562D03*
X257250Y1672562D03*
X250750Y1672562D03*
X244250Y1672562D03*
X237750Y1672562D03*
X231250Y1672562D03*
X224750Y1672562D03*
X218250Y1672562D03*
X211750Y1672562D03*
X205250Y1672562D03*
X198750Y1672562D03*
X192250Y1672562D03*
X185750Y1672562D03*
X179250Y1672562D03*
X172750Y1672562D03*
X166250Y1672562D03*
X159750Y1672562D03*
D11*
X163750Y1638562D03*
X331250Y1638562D03*
D12*
X12500Y1585562D03*
X482500Y1785562D03*
D13*
X252500Y1621498D03*
X252500Y1629626D03*
D14*
X447500Y1765562D03*
D12*
X428000Y1615562D03*
X348000Y1615562D03*
D15*
X12700Y1613662D03*
X12700Y1639062D03*
X12700Y1664462D03*
X12700Y1689862D03*
D10*
X835325Y1672562D03*
X828825Y1672562D03*
X822325Y1672562D03*
X815825Y1672562D03*
X809325Y1672562D03*
X802825Y1672562D03*
X796325Y1672562D03*
X789825Y1672562D03*
X783325Y1672562D03*
X776825Y1672562D03*
X770325Y1672562D03*
X763825Y1672562D03*
X757325Y1672562D03*
X750825Y1672562D03*
X744325Y1672562D03*
X737825Y1672562D03*
X731325Y1672562D03*
X724825Y1672562D03*
X718325Y1672562D03*
X711825Y1672562D03*
X705325Y1672562D03*
X698825Y1672562D03*
X692325Y1672562D03*
X685825Y1672562D03*
X679325Y1672562D03*
X672825Y1672562D03*
X666325Y1672562D03*
X659825Y1672562D03*
D11*
X663825Y1638562D03*
X831325Y1638562D03*
D12*
X512575Y1585562D03*
X982575Y1785562D03*
D13*
X752575Y1621498D03*
X752575Y1629626D03*
D14*
X947575Y1765562D03*
D12*
X928075Y1615562D03*
X848075Y1615562D03*
D15*
X512775Y1613662D03*
X512775Y1639062D03*
X512775Y1664462D03*
X512775Y1689862D03*
D12*
X-26238Y1768881D03*
X1021334Y1768881D03*
D16*
X-35293Y63500D02*
X-35290Y63722D01*
X-35282Y63944D01*
X-35268Y64166D01*
X-35249Y64388D01*
X-35225Y64608D01*
X-35195Y64829D01*
X-35160Y65048D01*
X-35119Y65267D01*
X-35073Y65484D01*
X-35022Y65700D01*
X-34965Y65915D01*
X-34903Y66129D01*
X-34836Y66340D01*
X-34764Y66551D01*
X-34686Y66759D01*
X-34604Y66965D01*
X-34516Y67169D01*
X-34424Y67372D01*
X-34326Y67571D01*
X-34224Y67768D01*
X-34117Y67963D01*
X-34005Y68155D01*
X-33888Y68344D01*
X-33767Y68531D01*
X-33641Y68714D01*
X-33511Y68894D01*
X-33376Y69071D01*
X-33238Y69244D01*
X-33095Y69414D01*
X-32947Y69581D01*
X-32796Y69744D01*
X-32641Y69903D01*
X-32482Y70058D01*
X-32319Y70209D01*
X-32152Y70357D01*
X-31982Y70500D01*
X-31809Y70638D01*
X-31632Y70773D01*
X-31452Y70903D01*
X-31269Y71029D01*
X-31082Y71150D01*
X-30893Y71267D01*
X-30701Y71379D01*
X-30506Y71486D01*
X-30309Y71588D01*
X-30110Y71686D01*
X-29907Y71778D01*
X-29703Y71866D01*
X-29497Y71948D01*
X-29289Y72026D01*
X-29078Y72098D01*
X-28867Y72165D01*
X-28653Y72227D01*
X-28438Y72284D01*
X-28222Y72335D01*
X-28005Y72381D01*
X-27786Y72422D01*
X-27567Y72457D01*
X-27346Y72487D01*
X-27126Y72511D01*
X-26904Y72530D01*
X-26682Y72544D01*
X-26460Y72552D01*
X-26238Y72555D01*
X-26016Y72552D01*
X-25794Y72544D01*
X-25572Y72530D01*
X-25350Y72511D01*
X-25130Y72487D01*
X-24909Y72457D01*
X-24690Y72422D01*
X-24471Y72381D01*
X-24254Y72335D01*
X-24038Y72284D01*
X-23823Y72227D01*
X-23609Y72165D01*
X-23398Y72098D01*
X-23187Y72026D01*
X-22979Y71948D01*
X-22773Y71866D01*
X-22569Y71778D01*
X-22366Y71686D01*
X-22167Y71588D01*
X-21970Y71486D01*
X-21775Y71379D01*
X-21583Y71267D01*
X-21394Y71150D01*
X-21207Y71029D01*
X-21024Y70903D01*
X-20844Y70773D01*
X-20667Y70638D01*
X-20494Y70500D01*
X-20324Y70357D01*
X-20157Y70209D01*
X-19994Y70058D01*
X-19835Y69903D01*
X-19680Y69744D01*
X-19529Y69581D01*
X-19381Y69414D01*
X-19238Y69244D01*
X-19100Y69071D01*
X-18965Y68894D01*
X-18835Y68714D01*
X-18709Y68531D01*
X-18588Y68344D01*
X-18471Y68155D01*
X-18359Y67963D01*
X-18252Y67768D01*
X-18150Y67571D01*
X-18052Y67372D01*
X-17960Y67169D01*
X-17872Y66965D01*
X-17790Y66759D01*
X-17712Y66551D01*
X-17640Y66340D01*
X-17573Y66129D01*
X-17511Y65915D01*
X-17454Y65700D01*
X-17403Y65484D01*
X-17357Y65267D01*
X-17316Y65048D01*
X-17281Y64829D01*
X-17251Y64608D01*
X-17227Y64388D01*
X-17208Y64166D01*
X-17194Y63944D01*
X-17186Y63722D01*
X-17183Y63500D01*
X-17186Y63278D01*
X-17194Y63056D01*
X-17208Y62834D01*
X-17227Y62612D01*
X-17251Y62392D01*
X-17281Y62171D01*
X-17316Y61952D01*
X-17357Y61733D01*
X-17403Y61516D01*
X-17454Y61300D01*
X-17511Y61085D01*
X-17573Y60871D01*
X-17640Y60660D01*
X-17712Y60449D01*
X-17790Y60241D01*
X-17872Y60035D01*
X-17960Y59831D01*
X-18052Y59628D01*
X-18150Y59429D01*
X-18252Y59232D01*
X-18359Y59037D01*
X-18471Y58845D01*
X-18588Y58656D01*
X-18709Y58469D01*
X-18835Y58286D01*
X-18965Y58106D01*
X-19100Y57929D01*
X-19238Y57756D01*
X-19381Y57586D01*
X-19529Y57419D01*
X-19680Y57256D01*
X-19835Y57097D01*
X-19994Y56942D01*
X-20157Y56791D01*
X-20324Y56643D01*
X-20494Y56500D01*
X-20667Y56362D01*
X-20844Y56227D01*
X-21024Y56097D01*
X-21207Y55971D01*
X-21394Y55850D01*
X-21583Y55733D01*
X-21775Y55621D01*
X-21970Y55514D01*
X-22167Y55412D01*
X-22366Y55314D01*
X-22569Y55222D01*
X-22773Y55134D01*
X-22979Y55052D01*
X-23187Y54974D01*
X-23398Y54902D01*
X-23609Y54835D01*
X-23823Y54773D01*
X-24038Y54716D01*
X-24254Y54665D01*
X-24471Y54619D01*
X-24690Y54578D01*
X-24909Y54543D01*
X-25130Y54513D01*
X-25350Y54489D01*
X-25572Y54470D01*
X-25794Y54456D01*
X-26016Y54448D01*
X-26238Y54445D01*
X-26460Y54448D01*
X-26682Y54456D01*
X-26904Y54470D01*
X-27126Y54489D01*
X-27346Y54513D01*
X-27567Y54543D01*
X-27786Y54578D01*
X-28005Y54619D01*
X-28222Y54665D01*
X-28438Y54716D01*
X-28653Y54773D01*
X-28867Y54835D01*
X-29078Y54902D01*
X-29289Y54974D01*
X-29497Y55052D01*
X-29703Y55134D01*
X-29907Y55222D01*
X-30110Y55314D01*
X-30309Y55412D01*
X-30506Y55514D01*
X-30701Y55621D01*
X-30893Y55733D01*
X-31082Y55850D01*
X-31269Y55971D01*
X-31452Y56097D01*
X-31632Y56227D01*
X-31809Y56362D01*
X-31982Y56500D01*
X-32152Y56643D01*
X-32319Y56791D01*
X-32482Y56942D01*
X-32641Y57097D01*
X-32796Y57256D01*
X-32947Y57419D01*
X-33095Y57586D01*
X-33238Y57756D01*
X-33376Y57929D01*
X-33511Y58106D01*
X-33641Y58286D01*
X-33767Y58469D01*
X-33888Y58656D01*
X-34005Y58845D01*
X-34117Y59037D01*
X-34224Y59232D01*
X-34326Y59429D01*
X-34424Y59628D01*
X-34516Y59831D01*
X-34604Y60035D01*
X-34686Y60241D01*
X-34764Y60449D01*
X-34836Y60660D01*
X-34903Y60871D01*
X-34965Y61085D01*
X-35022Y61300D01*
X-35073Y61516D01*
X-35119Y61733D01*
X-35160Y61952D01*
X-35195Y62171D01*
X-35225Y62392D01*
X-35249Y62612D01*
X-35268Y62834D01*
X-35282Y63056D01*
X-35290Y63278D01*
X-35293Y63500D01*
D17*
X-26238Y63500D03*
M02*
