G04 EAGLE Gerber RS-274X export*
G75*
%MOMM*%
%FSLAX34Y34*%
%LPD*%
%INSolderpaste Top*%
%IPPOS*%
%AMOC8*
5,1,8,0,0,1.08239X$1,22.5*%
G01*
%ADD10R,1.200000X0.800000*%
%ADD11R,1.000000X1.100000*%
%ADD12R,1.800000X1.600000*%
%ADD13R,1.100000X1.000000*%
%ADD14R,1.500000X1.600000*%
%ADD15R,0.400000X0.800000*%
%ADD16R,0.250000X0.650000*%
%ADD17R,0.250000X0.275000*%
%ADD18R,0.275000X0.250000*%
%ADD19R,1.524000X0.762000*%
%ADD20R,0.700000X1.600000*%
%ADD21R,1.200000X2.200000*%
%ADD22R,1.600000X1.400000*%
%ADD23R,1.200000X1.600000*%
%ADD24R,0.600000X2.000000*%


D10*
X117500Y59000D03*
X117500Y41000D03*
X307500Y119000D03*
X307500Y101000D03*
X307500Y61000D03*
X307500Y79000D03*
D11*
X197500Y68500D03*
X197500Y51500D03*
D12*
X147500Y64000D03*
X147500Y36000D03*
D11*
X177500Y51500D03*
X177500Y68500D03*
X302500Y28500D03*
X302500Y11500D03*
X192500Y171500D03*
X192500Y188500D03*
X152500Y171500D03*
X152500Y188500D03*
X172500Y188500D03*
X172500Y171500D03*
X387500Y181500D03*
X387500Y198500D03*
D13*
X439000Y160000D03*
X456000Y160000D03*
D14*
X429500Y190000D03*
X465500Y190000D03*
D11*
X407500Y181500D03*
X407500Y198500D03*
D15*
X375000Y201500D03*
D16*
X365000Y176500D03*
X360000Y176500D03*
D15*
X300000Y201500D03*
D16*
X355000Y176500D03*
X350000Y176500D03*
X345000Y176500D03*
X340000Y176500D03*
X335000Y176500D03*
X330000Y176500D03*
X325000Y176500D03*
X320000Y176500D03*
X315000Y176500D03*
X310000Y176500D03*
D17*
X65000Y122500D03*
X70000Y122500D03*
X70000Y137500D03*
X65000Y137500D03*
D18*
X60000Y137500D03*
X60000Y132500D03*
X60000Y122500D03*
X60000Y127500D03*
X75000Y122500D03*
X75000Y127500D03*
X75000Y132500D03*
X75000Y137500D03*
D11*
X37500Y121500D03*
X37500Y138500D03*
X97500Y121500D03*
X97500Y138500D03*
D19*
X95440Y170950D03*
X39560Y170950D03*
X95440Y209050D03*
X39560Y209050D03*
D20*
X398000Y145000D03*
X409000Y145000D03*
X420000Y145000D03*
X387000Y145000D03*
X376000Y145000D03*
X365000Y145000D03*
X354000Y145000D03*
X343000Y145000D03*
X332000Y145000D03*
D21*
X475000Y44000D03*
X320000Y44000D03*
D22*
X466000Y140000D03*
D23*
X320000Y139000D03*
D24*
X272500Y13800D03*
X262500Y13800D03*
X252500Y13800D03*
X242500Y13800D03*
X232500Y13800D03*
X222500Y13800D03*
D10*
X617575Y59000D03*
X617575Y41000D03*
X807575Y119000D03*
X807575Y101000D03*
X807575Y61000D03*
X807575Y79000D03*
D11*
X697575Y68500D03*
X697575Y51500D03*
D12*
X647575Y64000D03*
X647575Y36000D03*
D11*
X677575Y51500D03*
X677575Y68500D03*
X802575Y28500D03*
X802575Y11500D03*
X692575Y171500D03*
X692575Y188500D03*
X652575Y171500D03*
X652575Y188500D03*
X672575Y188500D03*
X672575Y171500D03*
X887575Y181500D03*
X887575Y198500D03*
D13*
X939075Y160000D03*
X956075Y160000D03*
D14*
X929575Y190000D03*
X965575Y190000D03*
D11*
X907575Y181500D03*
X907575Y198500D03*
D15*
X875075Y201500D03*
D16*
X865075Y176500D03*
X860075Y176500D03*
D15*
X800075Y201500D03*
D16*
X855075Y176500D03*
X850075Y176500D03*
X845075Y176500D03*
X840075Y176500D03*
X835075Y176500D03*
X830075Y176500D03*
X825075Y176500D03*
X820075Y176500D03*
X815075Y176500D03*
X810075Y176500D03*
D17*
X565075Y122500D03*
X570075Y122500D03*
X570075Y137500D03*
X565075Y137500D03*
D18*
X560075Y137500D03*
X560075Y132500D03*
X560075Y122500D03*
X560075Y127500D03*
X575075Y122500D03*
X575075Y127500D03*
X575075Y132500D03*
X575075Y137500D03*
D11*
X537575Y121500D03*
X537575Y138500D03*
X597575Y121500D03*
X597575Y138500D03*
D19*
X595515Y170950D03*
X539635Y170950D03*
X595515Y209050D03*
X539635Y209050D03*
D20*
X898075Y145000D03*
X909075Y145000D03*
X920075Y145000D03*
X887075Y145000D03*
X876075Y145000D03*
X865075Y145000D03*
X854075Y145000D03*
X843075Y145000D03*
X832075Y145000D03*
D21*
X975075Y44000D03*
X820075Y44000D03*
D22*
X966075Y140000D03*
D23*
X820075Y139000D03*
D24*
X772575Y13800D03*
X762575Y13800D03*
X752575Y13800D03*
X742575Y13800D03*
X732575Y13800D03*
X722575Y13800D03*
D10*
X117500Y284069D03*
X117500Y266069D03*
X307500Y344069D03*
X307500Y326069D03*
X307500Y286069D03*
X307500Y304069D03*
D11*
X197500Y293569D03*
X197500Y276569D03*
D12*
X147500Y289069D03*
X147500Y261069D03*
D11*
X177500Y276569D03*
X177500Y293569D03*
X302500Y253569D03*
X302500Y236569D03*
X192500Y396569D03*
X192500Y413569D03*
X152500Y396569D03*
X152500Y413569D03*
X172500Y413569D03*
X172500Y396569D03*
X387500Y406569D03*
X387500Y423569D03*
D13*
X439000Y385069D03*
X456000Y385069D03*
D14*
X429500Y415069D03*
X465500Y415069D03*
D11*
X407500Y406569D03*
X407500Y423569D03*
D15*
X375000Y426569D03*
D16*
X365000Y401569D03*
X360000Y401569D03*
D15*
X300000Y426569D03*
D16*
X355000Y401569D03*
X350000Y401569D03*
X345000Y401569D03*
X340000Y401569D03*
X335000Y401569D03*
X330000Y401569D03*
X325000Y401569D03*
X320000Y401569D03*
X315000Y401569D03*
X310000Y401569D03*
D17*
X65000Y347569D03*
X70000Y347569D03*
X70000Y362569D03*
X65000Y362569D03*
D18*
X60000Y362569D03*
X60000Y357569D03*
X60000Y347569D03*
X60000Y352569D03*
X75000Y347569D03*
X75000Y352569D03*
X75000Y357569D03*
X75000Y362569D03*
D11*
X37500Y346569D03*
X37500Y363569D03*
X97500Y346569D03*
X97500Y363569D03*
D19*
X95440Y396019D03*
X39560Y396019D03*
X95440Y434119D03*
X39560Y434119D03*
D20*
X398000Y370069D03*
X409000Y370069D03*
X420000Y370069D03*
X387000Y370069D03*
X376000Y370069D03*
X365000Y370069D03*
X354000Y370069D03*
X343000Y370069D03*
X332000Y370069D03*
D21*
X475000Y269069D03*
X320000Y269069D03*
D22*
X466000Y365069D03*
D23*
X320000Y364069D03*
D24*
X272500Y238869D03*
X262500Y238869D03*
X252500Y238869D03*
X242500Y238869D03*
X232500Y238869D03*
X222500Y238869D03*
D10*
X617575Y284069D03*
X617575Y266069D03*
X807575Y344069D03*
X807575Y326069D03*
X807575Y286069D03*
X807575Y304069D03*
D11*
X697575Y293569D03*
X697575Y276569D03*
D12*
X647575Y289069D03*
X647575Y261069D03*
D11*
X677575Y276569D03*
X677575Y293569D03*
X802575Y253569D03*
X802575Y236569D03*
X692575Y396569D03*
X692575Y413569D03*
X652575Y396569D03*
X652575Y413569D03*
X672575Y413569D03*
X672575Y396569D03*
X887575Y406569D03*
X887575Y423569D03*
D13*
X939075Y385069D03*
X956075Y385069D03*
D14*
X929575Y415069D03*
X965575Y415069D03*
D11*
X907575Y406569D03*
X907575Y423569D03*
D15*
X875075Y426569D03*
D16*
X865075Y401569D03*
X860075Y401569D03*
D15*
X800075Y426569D03*
D16*
X855075Y401569D03*
X850075Y401569D03*
X845075Y401569D03*
X840075Y401569D03*
X835075Y401569D03*
X830075Y401569D03*
X825075Y401569D03*
X820075Y401569D03*
X815075Y401569D03*
X810075Y401569D03*
D17*
X565075Y347569D03*
X570075Y347569D03*
X570075Y362569D03*
X565075Y362569D03*
D18*
X560075Y362569D03*
X560075Y357569D03*
X560075Y347569D03*
X560075Y352569D03*
X575075Y347569D03*
X575075Y352569D03*
X575075Y357569D03*
X575075Y362569D03*
D11*
X537575Y346569D03*
X537575Y363569D03*
X597575Y346569D03*
X597575Y363569D03*
D19*
X595515Y396019D03*
X539635Y396019D03*
X595515Y434119D03*
X539635Y434119D03*
D20*
X898075Y370069D03*
X909075Y370069D03*
X920075Y370069D03*
X887075Y370069D03*
X876075Y370069D03*
X865075Y370069D03*
X854075Y370069D03*
X843075Y370069D03*
X832075Y370069D03*
D21*
X975075Y269069D03*
X820075Y269069D03*
D22*
X966075Y365069D03*
D23*
X820075Y364069D03*
D24*
X772575Y238869D03*
X762575Y238869D03*
X752575Y238869D03*
X742575Y238869D03*
X732575Y238869D03*
X722575Y238869D03*
D10*
X117500Y509164D03*
X117500Y491164D03*
X307500Y569164D03*
X307500Y551164D03*
X307500Y511164D03*
X307500Y529164D03*
D11*
X197500Y518664D03*
X197500Y501664D03*
D12*
X147500Y514164D03*
X147500Y486164D03*
D11*
X177500Y501664D03*
X177500Y518664D03*
X302500Y478664D03*
X302500Y461664D03*
X192500Y621664D03*
X192500Y638664D03*
X152500Y621664D03*
X152500Y638664D03*
X172500Y638664D03*
X172500Y621664D03*
X387500Y631664D03*
X387500Y648664D03*
D13*
X439000Y610164D03*
X456000Y610164D03*
D14*
X429500Y640164D03*
X465500Y640164D03*
D11*
X407500Y631664D03*
X407500Y648664D03*
D15*
X375000Y651664D03*
D16*
X365000Y626664D03*
X360000Y626664D03*
D15*
X300000Y651664D03*
D16*
X355000Y626664D03*
X350000Y626664D03*
X345000Y626664D03*
X340000Y626664D03*
X335000Y626664D03*
X330000Y626664D03*
X325000Y626664D03*
X320000Y626664D03*
X315000Y626664D03*
X310000Y626664D03*
D17*
X65000Y572664D03*
X70000Y572664D03*
X70000Y587664D03*
X65000Y587664D03*
D18*
X60000Y587664D03*
X60000Y582664D03*
X60000Y572664D03*
X60000Y577664D03*
X75000Y572664D03*
X75000Y577664D03*
X75000Y582664D03*
X75000Y587664D03*
D11*
X37500Y571664D03*
X37500Y588664D03*
X97500Y571664D03*
X97500Y588664D03*
D19*
X95440Y621114D03*
X39560Y621114D03*
X95440Y659214D03*
X39560Y659214D03*
D20*
X398000Y595164D03*
X409000Y595164D03*
X420000Y595164D03*
X387000Y595164D03*
X376000Y595164D03*
X365000Y595164D03*
X354000Y595164D03*
X343000Y595164D03*
X332000Y595164D03*
D21*
X475000Y494164D03*
X320000Y494164D03*
D22*
X466000Y590164D03*
D23*
X320000Y589164D03*
D24*
X272500Y463964D03*
X262500Y463964D03*
X252500Y463964D03*
X242500Y463964D03*
X232500Y463964D03*
X222500Y463964D03*
D10*
X617575Y509164D03*
X617575Y491164D03*
X807575Y569164D03*
X807575Y551164D03*
X807575Y511164D03*
X807575Y529164D03*
D11*
X697575Y518664D03*
X697575Y501664D03*
D12*
X647575Y514164D03*
X647575Y486164D03*
D11*
X677575Y501664D03*
X677575Y518664D03*
X802575Y478664D03*
X802575Y461664D03*
X692575Y621664D03*
X692575Y638664D03*
X652575Y621664D03*
X652575Y638664D03*
X672575Y638664D03*
X672575Y621664D03*
X887575Y631664D03*
X887575Y648664D03*
D13*
X939075Y610164D03*
X956075Y610164D03*
D14*
X929575Y640164D03*
X965575Y640164D03*
D11*
X907575Y631664D03*
X907575Y648664D03*
D15*
X875075Y651664D03*
D16*
X865075Y626664D03*
X860075Y626664D03*
D15*
X800075Y651664D03*
D16*
X855075Y626664D03*
X850075Y626664D03*
X845075Y626664D03*
X840075Y626664D03*
X835075Y626664D03*
X830075Y626664D03*
X825075Y626664D03*
X820075Y626664D03*
X815075Y626664D03*
X810075Y626664D03*
D17*
X565075Y572664D03*
X570075Y572664D03*
X570075Y587664D03*
X565075Y587664D03*
D18*
X560075Y587664D03*
X560075Y582664D03*
X560075Y572664D03*
X560075Y577664D03*
X575075Y572664D03*
X575075Y577664D03*
X575075Y582664D03*
X575075Y587664D03*
D11*
X537575Y571664D03*
X537575Y588664D03*
X597575Y571664D03*
X597575Y588664D03*
D19*
X595515Y621114D03*
X539635Y621114D03*
X595515Y659214D03*
X539635Y659214D03*
D20*
X898075Y595164D03*
X909075Y595164D03*
X920075Y595164D03*
X887075Y595164D03*
X876075Y595164D03*
X865075Y595164D03*
X854075Y595164D03*
X843075Y595164D03*
X832075Y595164D03*
D21*
X975075Y494164D03*
X820075Y494164D03*
D22*
X966075Y590164D03*
D23*
X820075Y589164D03*
D24*
X772575Y463964D03*
X762575Y463964D03*
X752575Y463964D03*
X742575Y463964D03*
X732575Y463964D03*
X722575Y463964D03*
D10*
X117500Y734234D03*
X117500Y716234D03*
X307500Y794234D03*
X307500Y776234D03*
X307500Y736234D03*
X307500Y754234D03*
D11*
X197500Y743734D03*
X197500Y726734D03*
D12*
X147500Y739234D03*
X147500Y711234D03*
D11*
X177500Y726734D03*
X177500Y743734D03*
X302500Y703734D03*
X302500Y686734D03*
X192500Y846734D03*
X192500Y863734D03*
X152500Y846734D03*
X152500Y863734D03*
X172500Y863734D03*
X172500Y846734D03*
X387500Y856734D03*
X387500Y873734D03*
D13*
X439000Y835234D03*
X456000Y835234D03*
D14*
X429500Y865234D03*
X465500Y865234D03*
D11*
X407500Y856734D03*
X407500Y873734D03*
D15*
X375000Y876734D03*
D16*
X365000Y851734D03*
X360000Y851734D03*
D15*
X300000Y876734D03*
D16*
X355000Y851734D03*
X350000Y851734D03*
X345000Y851734D03*
X340000Y851734D03*
X335000Y851734D03*
X330000Y851734D03*
X325000Y851734D03*
X320000Y851734D03*
X315000Y851734D03*
X310000Y851734D03*
D17*
X65000Y797734D03*
X70000Y797734D03*
X70000Y812734D03*
X65000Y812734D03*
D18*
X60000Y812734D03*
X60000Y807734D03*
X60000Y797734D03*
X60000Y802734D03*
X75000Y797734D03*
X75000Y802734D03*
X75000Y807734D03*
X75000Y812734D03*
D11*
X37500Y796734D03*
X37500Y813734D03*
X97500Y796734D03*
X97500Y813734D03*
D19*
X95440Y846184D03*
X39560Y846184D03*
X95440Y884284D03*
X39560Y884284D03*
D20*
X398000Y820234D03*
X409000Y820234D03*
X420000Y820234D03*
X387000Y820234D03*
X376000Y820234D03*
X365000Y820234D03*
X354000Y820234D03*
X343000Y820234D03*
X332000Y820234D03*
D21*
X475000Y719234D03*
X320000Y719234D03*
D22*
X466000Y815234D03*
D23*
X320000Y814234D03*
D24*
X272500Y689034D03*
X262500Y689034D03*
X252500Y689034D03*
X242500Y689034D03*
X232500Y689034D03*
X222500Y689034D03*
D10*
X617575Y734234D03*
X617575Y716234D03*
X807575Y794234D03*
X807575Y776234D03*
X807575Y736234D03*
X807575Y754234D03*
D11*
X697575Y743734D03*
X697575Y726734D03*
D12*
X647575Y739234D03*
X647575Y711234D03*
D11*
X677575Y726734D03*
X677575Y743734D03*
X802575Y703734D03*
X802575Y686734D03*
X692575Y846734D03*
X692575Y863734D03*
X652575Y846734D03*
X652575Y863734D03*
X672575Y863734D03*
X672575Y846734D03*
X887575Y856734D03*
X887575Y873734D03*
D13*
X939075Y835234D03*
X956075Y835234D03*
D14*
X929575Y865234D03*
X965575Y865234D03*
D11*
X907575Y856734D03*
X907575Y873734D03*
D15*
X875075Y876734D03*
D16*
X865075Y851734D03*
X860075Y851734D03*
D15*
X800075Y876734D03*
D16*
X855075Y851734D03*
X850075Y851734D03*
X845075Y851734D03*
X840075Y851734D03*
X835075Y851734D03*
X830075Y851734D03*
X825075Y851734D03*
X820075Y851734D03*
X815075Y851734D03*
X810075Y851734D03*
D17*
X565075Y797734D03*
X570075Y797734D03*
X570075Y812734D03*
X565075Y812734D03*
D18*
X560075Y812734D03*
X560075Y807734D03*
X560075Y797734D03*
X560075Y802734D03*
X575075Y797734D03*
X575075Y802734D03*
X575075Y807734D03*
X575075Y812734D03*
D11*
X537575Y796734D03*
X537575Y813734D03*
X597575Y796734D03*
X597575Y813734D03*
D19*
X595515Y846184D03*
X539635Y846184D03*
X595515Y884284D03*
X539635Y884284D03*
D20*
X898075Y820234D03*
X909075Y820234D03*
X920075Y820234D03*
X887075Y820234D03*
X876075Y820234D03*
X865075Y820234D03*
X854075Y820234D03*
X843075Y820234D03*
X832075Y820234D03*
D21*
X975075Y719234D03*
X820075Y719234D03*
D22*
X966075Y815234D03*
D23*
X820075Y814234D03*
D24*
X772575Y689034D03*
X762575Y689034D03*
X752575Y689034D03*
X742575Y689034D03*
X732575Y689034D03*
X722575Y689034D03*
D10*
X117500Y959328D03*
X117500Y941328D03*
X307500Y1019328D03*
X307500Y1001328D03*
X307500Y961328D03*
X307500Y979328D03*
D11*
X197500Y968828D03*
X197500Y951828D03*
D12*
X147500Y964328D03*
X147500Y936328D03*
D11*
X177500Y951828D03*
X177500Y968828D03*
X302500Y928828D03*
X302500Y911828D03*
X192500Y1071828D03*
X192500Y1088828D03*
X152500Y1071828D03*
X152500Y1088828D03*
X172500Y1088828D03*
X172500Y1071828D03*
X387500Y1081828D03*
X387500Y1098828D03*
D13*
X439000Y1060328D03*
X456000Y1060328D03*
D14*
X429500Y1090328D03*
X465500Y1090328D03*
D11*
X407500Y1081828D03*
X407500Y1098828D03*
D15*
X375000Y1101828D03*
D16*
X365000Y1076828D03*
X360000Y1076828D03*
D15*
X300000Y1101828D03*
D16*
X355000Y1076828D03*
X350000Y1076828D03*
X345000Y1076828D03*
X340000Y1076828D03*
X335000Y1076828D03*
X330000Y1076828D03*
X325000Y1076828D03*
X320000Y1076828D03*
X315000Y1076828D03*
X310000Y1076828D03*
D17*
X65000Y1022828D03*
X70000Y1022828D03*
X70000Y1037828D03*
X65000Y1037828D03*
D18*
X60000Y1037828D03*
X60000Y1032828D03*
X60000Y1022828D03*
X60000Y1027828D03*
X75000Y1022828D03*
X75000Y1027828D03*
X75000Y1032828D03*
X75000Y1037828D03*
D11*
X37500Y1021828D03*
X37500Y1038828D03*
X97500Y1021828D03*
X97500Y1038828D03*
D19*
X95440Y1071278D03*
X39560Y1071278D03*
X95440Y1109378D03*
X39560Y1109378D03*
D20*
X398000Y1045328D03*
X409000Y1045328D03*
X420000Y1045328D03*
X387000Y1045328D03*
X376000Y1045328D03*
X365000Y1045328D03*
X354000Y1045328D03*
X343000Y1045328D03*
X332000Y1045328D03*
D21*
X475000Y944328D03*
X320000Y944328D03*
D22*
X466000Y1040328D03*
D23*
X320000Y1039328D03*
D24*
X272500Y914128D03*
X262500Y914128D03*
X252500Y914128D03*
X242500Y914128D03*
X232500Y914128D03*
X222500Y914128D03*
D10*
X617575Y959328D03*
X617575Y941328D03*
X807575Y1019328D03*
X807575Y1001328D03*
X807575Y961328D03*
X807575Y979328D03*
D11*
X697575Y968828D03*
X697575Y951828D03*
D12*
X647575Y964328D03*
X647575Y936328D03*
D11*
X677575Y951828D03*
X677575Y968828D03*
X802575Y928828D03*
X802575Y911828D03*
X692575Y1071828D03*
X692575Y1088828D03*
X652575Y1071828D03*
X652575Y1088828D03*
X672575Y1088828D03*
X672575Y1071828D03*
X887575Y1081828D03*
X887575Y1098828D03*
D13*
X939075Y1060328D03*
X956075Y1060328D03*
D14*
X929575Y1090328D03*
X965575Y1090328D03*
D11*
X907575Y1081828D03*
X907575Y1098828D03*
D15*
X875075Y1101828D03*
D16*
X865075Y1076828D03*
X860075Y1076828D03*
D15*
X800075Y1101828D03*
D16*
X855075Y1076828D03*
X850075Y1076828D03*
X845075Y1076828D03*
X840075Y1076828D03*
X835075Y1076828D03*
X830075Y1076828D03*
X825075Y1076828D03*
X820075Y1076828D03*
X815075Y1076828D03*
X810075Y1076828D03*
D17*
X565075Y1022828D03*
X570075Y1022828D03*
X570075Y1037828D03*
X565075Y1037828D03*
D18*
X560075Y1037828D03*
X560075Y1032828D03*
X560075Y1022828D03*
X560075Y1027828D03*
X575075Y1022828D03*
X575075Y1027828D03*
X575075Y1032828D03*
X575075Y1037828D03*
D11*
X537575Y1021828D03*
X537575Y1038828D03*
X597575Y1021828D03*
X597575Y1038828D03*
D19*
X595515Y1071278D03*
X539635Y1071278D03*
X595515Y1109378D03*
X539635Y1109378D03*
D20*
X898075Y1045328D03*
X909075Y1045328D03*
X920075Y1045328D03*
X887075Y1045328D03*
X876075Y1045328D03*
X865075Y1045328D03*
X854075Y1045328D03*
X843075Y1045328D03*
X832075Y1045328D03*
D21*
X975075Y944328D03*
X820075Y944328D03*
D22*
X966075Y1040328D03*
D23*
X820075Y1039328D03*
D24*
X772575Y914128D03*
X762575Y914128D03*
X752575Y914128D03*
X742575Y914128D03*
X732575Y914128D03*
X722575Y914128D03*
D10*
X117500Y1184398D03*
X117500Y1166398D03*
X307500Y1244398D03*
X307500Y1226398D03*
X307500Y1186398D03*
X307500Y1204398D03*
D11*
X197500Y1193898D03*
X197500Y1176898D03*
D12*
X147500Y1189398D03*
X147500Y1161398D03*
D11*
X177500Y1176898D03*
X177500Y1193898D03*
X302500Y1153898D03*
X302500Y1136898D03*
X192500Y1296898D03*
X192500Y1313898D03*
X152500Y1296898D03*
X152500Y1313898D03*
X172500Y1313898D03*
X172500Y1296898D03*
X387500Y1306898D03*
X387500Y1323898D03*
D13*
X439000Y1285398D03*
X456000Y1285398D03*
D14*
X429500Y1315398D03*
X465500Y1315398D03*
D11*
X407500Y1306898D03*
X407500Y1323898D03*
D15*
X375000Y1326898D03*
D16*
X365000Y1301898D03*
X360000Y1301898D03*
D15*
X300000Y1326898D03*
D16*
X355000Y1301898D03*
X350000Y1301898D03*
X345000Y1301898D03*
X340000Y1301898D03*
X335000Y1301898D03*
X330000Y1301898D03*
X325000Y1301898D03*
X320000Y1301898D03*
X315000Y1301898D03*
X310000Y1301898D03*
D17*
X65000Y1247898D03*
X70000Y1247898D03*
X70000Y1262898D03*
X65000Y1262898D03*
D18*
X60000Y1262898D03*
X60000Y1257898D03*
X60000Y1247898D03*
X60000Y1252898D03*
X75000Y1247898D03*
X75000Y1252898D03*
X75000Y1257898D03*
X75000Y1262898D03*
D11*
X37500Y1246898D03*
X37500Y1263898D03*
X97500Y1246898D03*
X97500Y1263898D03*
D19*
X95440Y1296348D03*
X39560Y1296348D03*
X95440Y1334448D03*
X39560Y1334448D03*
D20*
X398000Y1270398D03*
X409000Y1270398D03*
X420000Y1270398D03*
X387000Y1270398D03*
X376000Y1270398D03*
X365000Y1270398D03*
X354000Y1270398D03*
X343000Y1270398D03*
X332000Y1270398D03*
D21*
X475000Y1169398D03*
X320000Y1169398D03*
D22*
X466000Y1265398D03*
D23*
X320000Y1264398D03*
D24*
X272500Y1139198D03*
X262500Y1139198D03*
X252500Y1139198D03*
X242500Y1139198D03*
X232500Y1139198D03*
X222500Y1139198D03*
D10*
X617575Y1184398D03*
X617575Y1166398D03*
X807575Y1244398D03*
X807575Y1226398D03*
X807575Y1186398D03*
X807575Y1204398D03*
D11*
X697575Y1193898D03*
X697575Y1176898D03*
D12*
X647575Y1189398D03*
X647575Y1161398D03*
D11*
X677575Y1176898D03*
X677575Y1193898D03*
X802575Y1153898D03*
X802575Y1136898D03*
X692575Y1296898D03*
X692575Y1313898D03*
X652575Y1296898D03*
X652575Y1313898D03*
X672575Y1313898D03*
X672575Y1296898D03*
X887575Y1306898D03*
X887575Y1323898D03*
D13*
X939075Y1285398D03*
X956075Y1285398D03*
D14*
X929575Y1315398D03*
X965575Y1315398D03*
D11*
X907575Y1306898D03*
X907575Y1323898D03*
D15*
X875075Y1326898D03*
D16*
X865075Y1301898D03*
X860075Y1301898D03*
D15*
X800075Y1326898D03*
D16*
X855075Y1301898D03*
X850075Y1301898D03*
X845075Y1301898D03*
X840075Y1301898D03*
X835075Y1301898D03*
X830075Y1301898D03*
X825075Y1301898D03*
X820075Y1301898D03*
X815075Y1301898D03*
X810075Y1301898D03*
D17*
X565075Y1247898D03*
X570075Y1247898D03*
X570075Y1262898D03*
X565075Y1262898D03*
D18*
X560075Y1262898D03*
X560075Y1257898D03*
X560075Y1247898D03*
X560075Y1252898D03*
X575075Y1247898D03*
X575075Y1252898D03*
X575075Y1257898D03*
X575075Y1262898D03*
D11*
X537575Y1246898D03*
X537575Y1263898D03*
X597575Y1246898D03*
X597575Y1263898D03*
D19*
X595515Y1296348D03*
X539635Y1296348D03*
X595515Y1334448D03*
X539635Y1334448D03*
D20*
X898075Y1270398D03*
X909075Y1270398D03*
X920075Y1270398D03*
X887075Y1270398D03*
X876075Y1270398D03*
X865075Y1270398D03*
X854075Y1270398D03*
X843075Y1270398D03*
X832075Y1270398D03*
D21*
X975075Y1169398D03*
X820075Y1169398D03*
D22*
X966075Y1265398D03*
D23*
X820075Y1264398D03*
D24*
X772575Y1139198D03*
X762575Y1139198D03*
X752575Y1139198D03*
X742575Y1139198D03*
X732575Y1139198D03*
X722575Y1139198D03*
D10*
X117500Y1409493D03*
X117500Y1391493D03*
X307500Y1469493D03*
X307500Y1451493D03*
X307500Y1411493D03*
X307500Y1429493D03*
D11*
X197500Y1418993D03*
X197500Y1401993D03*
D12*
X147500Y1414493D03*
X147500Y1386493D03*
D11*
X177500Y1401993D03*
X177500Y1418993D03*
X302500Y1378993D03*
X302500Y1361993D03*
X192500Y1521993D03*
X192500Y1538993D03*
X152500Y1521993D03*
X152500Y1538993D03*
X172500Y1538993D03*
X172500Y1521993D03*
X387500Y1531993D03*
X387500Y1548993D03*
D13*
X439000Y1510493D03*
X456000Y1510493D03*
D14*
X429500Y1540493D03*
X465500Y1540493D03*
D11*
X407500Y1531993D03*
X407500Y1548993D03*
D15*
X375000Y1551993D03*
D16*
X365000Y1526993D03*
X360000Y1526993D03*
D15*
X300000Y1551993D03*
D16*
X355000Y1526993D03*
X350000Y1526993D03*
X345000Y1526993D03*
X340000Y1526993D03*
X335000Y1526993D03*
X330000Y1526993D03*
X325000Y1526993D03*
X320000Y1526993D03*
X315000Y1526993D03*
X310000Y1526993D03*
D17*
X65000Y1472993D03*
X70000Y1472993D03*
X70000Y1487993D03*
X65000Y1487993D03*
D18*
X60000Y1487993D03*
X60000Y1482993D03*
X60000Y1472993D03*
X60000Y1477993D03*
X75000Y1472993D03*
X75000Y1477993D03*
X75000Y1482993D03*
X75000Y1487993D03*
D11*
X37500Y1471993D03*
X37500Y1488993D03*
X97500Y1471993D03*
X97500Y1488993D03*
D19*
X95440Y1521443D03*
X39560Y1521443D03*
X95440Y1559543D03*
X39560Y1559543D03*
D20*
X398000Y1495493D03*
X409000Y1495493D03*
X420000Y1495493D03*
X387000Y1495493D03*
X376000Y1495493D03*
X365000Y1495493D03*
X354000Y1495493D03*
X343000Y1495493D03*
X332000Y1495493D03*
D21*
X475000Y1394493D03*
X320000Y1394493D03*
D22*
X466000Y1490493D03*
D23*
X320000Y1489493D03*
D24*
X272500Y1364293D03*
X262500Y1364293D03*
X252500Y1364293D03*
X242500Y1364293D03*
X232500Y1364293D03*
X222500Y1364293D03*
D10*
X617575Y1409493D03*
X617575Y1391493D03*
X807575Y1469493D03*
X807575Y1451493D03*
X807575Y1411493D03*
X807575Y1429493D03*
D11*
X697575Y1418993D03*
X697575Y1401993D03*
D12*
X647575Y1414493D03*
X647575Y1386493D03*
D11*
X677575Y1401993D03*
X677575Y1418993D03*
X802575Y1378993D03*
X802575Y1361993D03*
X692575Y1521993D03*
X692575Y1538993D03*
X652575Y1521993D03*
X652575Y1538993D03*
X672575Y1538993D03*
X672575Y1521993D03*
X887575Y1531993D03*
X887575Y1548993D03*
D13*
X939075Y1510493D03*
X956075Y1510493D03*
D14*
X929575Y1540493D03*
X965575Y1540493D03*
D11*
X907575Y1531993D03*
X907575Y1548993D03*
D15*
X875075Y1551993D03*
D16*
X865075Y1526993D03*
X860075Y1526993D03*
D15*
X800075Y1551993D03*
D16*
X855075Y1526993D03*
X850075Y1526993D03*
X845075Y1526993D03*
X840075Y1526993D03*
X835075Y1526993D03*
X830075Y1526993D03*
X825075Y1526993D03*
X820075Y1526993D03*
X815075Y1526993D03*
X810075Y1526993D03*
D17*
X565075Y1472993D03*
X570075Y1472993D03*
X570075Y1487993D03*
X565075Y1487993D03*
D18*
X560075Y1487993D03*
X560075Y1482993D03*
X560075Y1472993D03*
X560075Y1477993D03*
X575075Y1472993D03*
X575075Y1477993D03*
X575075Y1482993D03*
X575075Y1487993D03*
D11*
X537575Y1471993D03*
X537575Y1488993D03*
X597575Y1471993D03*
X597575Y1488993D03*
D19*
X595515Y1521443D03*
X539635Y1521443D03*
X595515Y1559543D03*
X539635Y1559543D03*
D20*
X898075Y1495493D03*
X909075Y1495493D03*
X920075Y1495493D03*
X887075Y1495493D03*
X876075Y1495493D03*
X865075Y1495493D03*
X854075Y1495493D03*
X843075Y1495493D03*
X832075Y1495493D03*
D21*
X975075Y1394493D03*
X820075Y1394493D03*
D22*
X966075Y1490493D03*
D23*
X820075Y1489493D03*
D24*
X772575Y1364293D03*
X762575Y1364293D03*
X752575Y1364293D03*
X742575Y1364293D03*
X732575Y1364293D03*
X722575Y1364293D03*
D10*
X117500Y1634562D03*
X117500Y1616562D03*
X307500Y1694562D03*
X307500Y1676562D03*
X307500Y1636562D03*
X307500Y1654562D03*
D11*
X197500Y1644062D03*
X197500Y1627062D03*
D12*
X147500Y1639562D03*
X147500Y1611562D03*
D11*
X177500Y1627062D03*
X177500Y1644062D03*
X302500Y1604062D03*
X302500Y1587062D03*
X192500Y1747062D03*
X192500Y1764062D03*
X152500Y1747062D03*
X152500Y1764062D03*
X172500Y1764062D03*
X172500Y1747062D03*
X387500Y1757062D03*
X387500Y1774062D03*
D13*
X439000Y1735562D03*
X456000Y1735562D03*
D14*
X429500Y1765562D03*
X465500Y1765562D03*
D11*
X407500Y1757062D03*
X407500Y1774062D03*
D15*
X375000Y1777062D03*
D16*
X365000Y1752062D03*
X360000Y1752062D03*
D15*
X300000Y1777062D03*
D16*
X355000Y1752062D03*
X350000Y1752062D03*
X345000Y1752062D03*
X340000Y1752062D03*
X335000Y1752062D03*
X330000Y1752062D03*
X325000Y1752062D03*
X320000Y1752062D03*
X315000Y1752062D03*
X310000Y1752062D03*
D17*
X65000Y1698062D03*
X70000Y1698062D03*
X70000Y1713062D03*
X65000Y1713062D03*
D18*
X60000Y1713062D03*
X60000Y1708062D03*
X60000Y1698062D03*
X60000Y1703062D03*
X75000Y1698062D03*
X75000Y1703062D03*
X75000Y1708062D03*
X75000Y1713062D03*
D11*
X37500Y1697062D03*
X37500Y1714062D03*
X97500Y1697062D03*
X97500Y1714062D03*
D19*
X95440Y1746512D03*
X39560Y1746512D03*
X95440Y1784612D03*
X39560Y1784612D03*
D20*
X398000Y1720562D03*
X409000Y1720562D03*
X420000Y1720562D03*
X387000Y1720562D03*
X376000Y1720562D03*
X365000Y1720562D03*
X354000Y1720562D03*
X343000Y1720562D03*
X332000Y1720562D03*
D21*
X475000Y1619562D03*
X320000Y1619562D03*
D22*
X466000Y1715562D03*
D23*
X320000Y1714562D03*
D24*
X272500Y1589362D03*
X262500Y1589362D03*
X252500Y1589362D03*
X242500Y1589362D03*
X232500Y1589362D03*
X222500Y1589362D03*
D10*
X617575Y1634562D03*
X617575Y1616562D03*
X807575Y1694562D03*
X807575Y1676562D03*
X807575Y1636562D03*
X807575Y1654562D03*
D11*
X697575Y1644062D03*
X697575Y1627062D03*
D12*
X647575Y1639562D03*
X647575Y1611562D03*
D11*
X677575Y1627062D03*
X677575Y1644062D03*
X802575Y1604062D03*
X802575Y1587062D03*
X692575Y1747062D03*
X692575Y1764062D03*
X652575Y1747062D03*
X652575Y1764062D03*
X672575Y1764062D03*
X672575Y1747062D03*
X887575Y1757062D03*
X887575Y1774062D03*
D13*
X939075Y1735562D03*
X956075Y1735562D03*
D14*
X929575Y1765562D03*
X965575Y1765562D03*
D11*
X907575Y1757062D03*
X907575Y1774062D03*
D15*
X875075Y1777062D03*
D16*
X865075Y1752062D03*
X860075Y1752062D03*
D15*
X800075Y1777062D03*
D16*
X855075Y1752062D03*
X850075Y1752062D03*
X845075Y1752062D03*
X840075Y1752062D03*
X835075Y1752062D03*
X830075Y1752062D03*
X825075Y1752062D03*
X820075Y1752062D03*
X815075Y1752062D03*
X810075Y1752062D03*
D17*
X565075Y1698062D03*
X570075Y1698062D03*
X570075Y1713062D03*
X565075Y1713062D03*
D18*
X560075Y1713062D03*
X560075Y1708062D03*
X560075Y1698062D03*
X560075Y1703062D03*
X575075Y1698062D03*
X575075Y1703062D03*
X575075Y1708062D03*
X575075Y1713062D03*
D11*
X537575Y1697062D03*
X537575Y1714062D03*
X597575Y1697062D03*
X597575Y1714062D03*
D19*
X595515Y1746512D03*
X539635Y1746512D03*
X595515Y1784612D03*
X539635Y1784612D03*
D20*
X898075Y1720562D03*
X909075Y1720562D03*
X920075Y1720562D03*
X887075Y1720562D03*
X876075Y1720562D03*
X865075Y1720562D03*
X854075Y1720562D03*
X843075Y1720562D03*
X832075Y1720562D03*
D21*
X975075Y1619562D03*
X820075Y1619562D03*
D22*
X966075Y1715562D03*
D23*
X820075Y1714562D03*
D24*
X772575Y1589362D03*
X762575Y1589362D03*
X752575Y1589362D03*
X742575Y1589362D03*
X732575Y1589362D03*
X722575Y1589362D03*
M02*
