G04 EAGLE Gerber RS-274X export*
G75*
%MOMM*%
%FSLAX34Y34*%
%LPD*%
%INSolderpaste Bottom*%
%IPPOS*%
%AMOC8*
5,1,8,0,0,1.08239X$1,22.5*%
G01*
%ADD10R,0.350000X2.000000*%


D10*
X337750Y97000D03*
X331250Y97000D03*
X324750Y97000D03*
X318250Y97000D03*
X311750Y97000D03*
X305250Y97000D03*
X298750Y97000D03*
X292250Y97000D03*
X285750Y97000D03*
X279250Y97000D03*
X272750Y97000D03*
X266250Y97000D03*
X259750Y97000D03*
X253250Y97000D03*
X246750Y97000D03*
X240250Y97000D03*
X233750Y97000D03*
X227250Y97000D03*
X220750Y97000D03*
X214250Y97000D03*
X207750Y97000D03*
X201250Y97000D03*
X194750Y97000D03*
X188250Y97000D03*
X181750Y97000D03*
X175250Y97000D03*
X168750Y97000D03*
X162250Y97000D03*
X842829Y97000D03*
X836329Y97000D03*
X829829Y97000D03*
X823329Y97000D03*
X816829Y97000D03*
X810329Y97000D03*
X803829Y97000D03*
X797329Y97000D03*
X790829Y97000D03*
X784329Y97000D03*
X777829Y97000D03*
X771329Y97000D03*
X764829Y97000D03*
X758329Y97000D03*
X751829Y97000D03*
X745329Y97000D03*
X738829Y97000D03*
X732329Y97000D03*
X725829Y97000D03*
X719329Y97000D03*
X712829Y97000D03*
X706329Y97000D03*
X699829Y97000D03*
X693329Y97000D03*
X686829Y97000D03*
X680329Y97000D03*
X673829Y97000D03*
X667329Y97000D03*
X337750Y322069D03*
X331250Y322069D03*
X324750Y322069D03*
X318250Y322069D03*
X311750Y322069D03*
X305250Y322069D03*
X298750Y322069D03*
X292250Y322069D03*
X285750Y322069D03*
X279250Y322069D03*
X272750Y322069D03*
X266250Y322069D03*
X259750Y322069D03*
X253250Y322069D03*
X246750Y322069D03*
X240250Y322069D03*
X233750Y322069D03*
X227250Y322069D03*
X220750Y322069D03*
X214250Y322069D03*
X207750Y322069D03*
X201250Y322069D03*
X194750Y322069D03*
X188250Y322069D03*
X181750Y322069D03*
X175250Y322069D03*
X168750Y322069D03*
X162250Y322069D03*
X842829Y322069D03*
X836329Y322069D03*
X829829Y322069D03*
X823329Y322069D03*
X816829Y322069D03*
X810329Y322069D03*
X803829Y322069D03*
X797329Y322069D03*
X790829Y322069D03*
X784329Y322069D03*
X777829Y322069D03*
X771329Y322069D03*
X764829Y322069D03*
X758329Y322069D03*
X751829Y322069D03*
X745329Y322069D03*
X738829Y322069D03*
X732329Y322069D03*
X725829Y322069D03*
X719329Y322069D03*
X712829Y322069D03*
X706329Y322069D03*
X699829Y322069D03*
X693329Y322069D03*
X686829Y322069D03*
X680329Y322069D03*
X673829Y322069D03*
X667329Y322069D03*
X337750Y547164D03*
X331250Y547164D03*
X324750Y547164D03*
X318250Y547164D03*
X311750Y547164D03*
X305250Y547164D03*
X298750Y547164D03*
X292250Y547164D03*
X285750Y547164D03*
X279250Y547164D03*
X272750Y547164D03*
X266250Y547164D03*
X259750Y547164D03*
X253250Y547164D03*
X246750Y547164D03*
X240250Y547164D03*
X233750Y547164D03*
X227250Y547164D03*
X220750Y547164D03*
X214250Y547164D03*
X207750Y547164D03*
X201250Y547164D03*
X194750Y547164D03*
X188250Y547164D03*
X181750Y547164D03*
X175250Y547164D03*
X168750Y547164D03*
X162250Y547164D03*
X842829Y547164D03*
X836329Y547164D03*
X829829Y547164D03*
X823329Y547164D03*
X816829Y547164D03*
X810329Y547164D03*
X803829Y547164D03*
X797329Y547164D03*
X790829Y547164D03*
X784329Y547164D03*
X777829Y547164D03*
X771329Y547164D03*
X764829Y547164D03*
X758329Y547164D03*
X751829Y547164D03*
X745329Y547164D03*
X738829Y547164D03*
X732329Y547164D03*
X725829Y547164D03*
X719329Y547164D03*
X712829Y547164D03*
X706329Y547164D03*
X699829Y547164D03*
X693329Y547164D03*
X686829Y547164D03*
X680329Y547164D03*
X673829Y547164D03*
X667329Y547164D03*
X337750Y772234D03*
X331250Y772234D03*
X324750Y772234D03*
X318250Y772234D03*
X311750Y772234D03*
X305250Y772234D03*
X298750Y772234D03*
X292250Y772234D03*
X285750Y772234D03*
X279250Y772234D03*
X272750Y772234D03*
X266250Y772234D03*
X259750Y772234D03*
X253250Y772234D03*
X246750Y772234D03*
X240250Y772234D03*
X233750Y772234D03*
X227250Y772234D03*
X220750Y772234D03*
X214250Y772234D03*
X207750Y772234D03*
X201250Y772234D03*
X194750Y772234D03*
X188250Y772234D03*
X181750Y772234D03*
X175250Y772234D03*
X168750Y772234D03*
X162250Y772234D03*
X842829Y772234D03*
X836329Y772234D03*
X829829Y772234D03*
X823329Y772234D03*
X816829Y772234D03*
X810329Y772234D03*
X803829Y772234D03*
X797329Y772234D03*
X790829Y772234D03*
X784329Y772234D03*
X777829Y772234D03*
X771329Y772234D03*
X764829Y772234D03*
X758329Y772234D03*
X751829Y772234D03*
X745329Y772234D03*
X738829Y772234D03*
X732329Y772234D03*
X725829Y772234D03*
X719329Y772234D03*
X712829Y772234D03*
X706329Y772234D03*
X699829Y772234D03*
X693329Y772234D03*
X686829Y772234D03*
X680329Y772234D03*
X673829Y772234D03*
X667329Y772234D03*
X337750Y997328D03*
X331250Y997328D03*
X324750Y997328D03*
X318250Y997328D03*
X311750Y997328D03*
X305250Y997328D03*
X298750Y997328D03*
X292250Y997328D03*
X285750Y997328D03*
X279250Y997328D03*
X272750Y997328D03*
X266250Y997328D03*
X259750Y997328D03*
X253250Y997328D03*
X246750Y997328D03*
X240250Y997328D03*
X233750Y997328D03*
X227250Y997328D03*
X220750Y997328D03*
X214250Y997328D03*
X207750Y997328D03*
X201250Y997328D03*
X194750Y997328D03*
X188250Y997328D03*
X181750Y997328D03*
X175250Y997328D03*
X168750Y997328D03*
X162250Y997328D03*
X842829Y997328D03*
X836329Y997328D03*
X829829Y997328D03*
X823329Y997328D03*
X816829Y997328D03*
X810329Y997328D03*
X803829Y997328D03*
X797329Y997328D03*
X790829Y997328D03*
X784329Y997328D03*
X777829Y997328D03*
X771329Y997328D03*
X764829Y997328D03*
X758329Y997328D03*
X751829Y997328D03*
X745329Y997328D03*
X738829Y997328D03*
X732329Y997328D03*
X725829Y997328D03*
X719329Y997328D03*
X712829Y997328D03*
X706329Y997328D03*
X699829Y997328D03*
X693329Y997328D03*
X686829Y997328D03*
X680329Y997328D03*
X673829Y997328D03*
X667329Y997328D03*
X337750Y1222398D03*
X331250Y1222398D03*
X324750Y1222398D03*
X318250Y1222398D03*
X311750Y1222398D03*
X305250Y1222398D03*
X298750Y1222398D03*
X292250Y1222398D03*
X285750Y1222398D03*
X279250Y1222398D03*
X272750Y1222398D03*
X266250Y1222398D03*
X259750Y1222398D03*
X253250Y1222398D03*
X246750Y1222398D03*
X240250Y1222398D03*
X233750Y1222398D03*
X227250Y1222398D03*
X220750Y1222398D03*
X214250Y1222398D03*
X207750Y1222398D03*
X201250Y1222398D03*
X194750Y1222398D03*
X188250Y1222398D03*
X181750Y1222398D03*
X175250Y1222398D03*
X168750Y1222398D03*
X162250Y1222398D03*
X842829Y1222398D03*
X836329Y1222398D03*
X829829Y1222398D03*
X823329Y1222398D03*
X816829Y1222398D03*
X810329Y1222398D03*
X803829Y1222398D03*
X797329Y1222398D03*
X790829Y1222398D03*
X784329Y1222398D03*
X777829Y1222398D03*
X771329Y1222398D03*
X764829Y1222398D03*
X758329Y1222398D03*
X751829Y1222398D03*
X745329Y1222398D03*
X738829Y1222398D03*
X732329Y1222398D03*
X725829Y1222398D03*
X719329Y1222398D03*
X712829Y1222398D03*
X706329Y1222398D03*
X699829Y1222398D03*
X693329Y1222398D03*
X686829Y1222398D03*
X680329Y1222398D03*
X673829Y1222398D03*
X667329Y1222398D03*
X337750Y1447493D03*
X331250Y1447493D03*
X324750Y1447493D03*
X318250Y1447493D03*
X311750Y1447493D03*
X305250Y1447493D03*
X298750Y1447493D03*
X292250Y1447493D03*
X285750Y1447493D03*
X279250Y1447493D03*
X272750Y1447493D03*
X266250Y1447493D03*
X259750Y1447493D03*
X253250Y1447493D03*
X246750Y1447493D03*
X240250Y1447493D03*
X233750Y1447493D03*
X227250Y1447493D03*
X220750Y1447493D03*
X214250Y1447493D03*
X207750Y1447493D03*
X201250Y1447493D03*
X194750Y1447493D03*
X188250Y1447493D03*
X181750Y1447493D03*
X175250Y1447493D03*
X168750Y1447493D03*
X162250Y1447493D03*
X842829Y1447493D03*
X836329Y1447493D03*
X829829Y1447493D03*
X823329Y1447493D03*
X816829Y1447493D03*
X810329Y1447493D03*
X803829Y1447493D03*
X797329Y1447493D03*
X790829Y1447493D03*
X784329Y1447493D03*
X777829Y1447493D03*
X771329Y1447493D03*
X764829Y1447493D03*
X758329Y1447493D03*
X751829Y1447493D03*
X745329Y1447493D03*
X738829Y1447493D03*
X732329Y1447493D03*
X725829Y1447493D03*
X719329Y1447493D03*
X712829Y1447493D03*
X706329Y1447493D03*
X699829Y1447493D03*
X693329Y1447493D03*
X686829Y1447493D03*
X680329Y1447493D03*
X673829Y1447493D03*
X667329Y1447493D03*
X337750Y1672562D03*
X331250Y1672562D03*
X324750Y1672562D03*
X318250Y1672562D03*
X311750Y1672562D03*
X305250Y1672562D03*
X298750Y1672562D03*
X292250Y1672562D03*
X285750Y1672562D03*
X279250Y1672562D03*
X272750Y1672562D03*
X266250Y1672562D03*
X259750Y1672562D03*
X253250Y1672562D03*
X246750Y1672562D03*
X240250Y1672562D03*
X233750Y1672562D03*
X227250Y1672562D03*
X220750Y1672562D03*
X214250Y1672562D03*
X207750Y1672562D03*
X201250Y1672562D03*
X194750Y1672562D03*
X188250Y1672562D03*
X181750Y1672562D03*
X175250Y1672562D03*
X168750Y1672562D03*
X162250Y1672562D03*
X842829Y1672562D03*
X836329Y1672562D03*
X829829Y1672562D03*
X823329Y1672562D03*
X816829Y1672562D03*
X810329Y1672562D03*
X803829Y1672562D03*
X797329Y1672562D03*
X790829Y1672562D03*
X784329Y1672562D03*
X777829Y1672562D03*
X771329Y1672562D03*
X764829Y1672562D03*
X758329Y1672562D03*
X751829Y1672562D03*
X745329Y1672562D03*
X738829Y1672562D03*
X732329Y1672562D03*
X725829Y1672562D03*
X719329Y1672562D03*
X712829Y1672562D03*
X706329Y1672562D03*
X699829Y1672562D03*
X693329Y1672562D03*
X686829Y1672562D03*
X680329Y1672562D03*
X673829Y1672562D03*
X667329Y1672562D03*
M02*
