M48
;GenerationSoftware,Autodesk,EAGLE,9.6.2*%
;CreationDate,2022-04-09T22:38:49Z*%
FMAT,2
ICI,OFF
METRIC,TZ,000.000
T4C0.381
T3C0.800
T2C1.000
T1C2.300
%
G90
M71
T1
X94758Y86523
X94758Y109033
X94758Y41507
X44750Y19000
X94758Y131540
X44750Y131540
X94758Y176556
X44750Y176556
X94758Y19000
X44750Y64016
X44750Y86523
X44750Y109033
X94758Y154049
X44750Y41507
X44750Y154049
X94758Y64016
T2
X84808Y161556
X84808Y116540
X42800Y139049
X42800Y4000
X34800Y4000
X34800Y139049
X92808Y139049
X92808Y4000
X84808Y4000
X84808Y139049
X42800Y161556
X42800Y26507
X34800Y26507
X34800Y161556
X92808Y161556
X92808Y26507
X84808Y26507
X42800Y49016
X34800Y49016
X92808Y49016
X84808Y49016
X42800Y71523
X34800Y71523
X92808Y71523
X84808Y71523
X42800Y94033
X34800Y94033
X92808Y94033
X84808Y94033
X42800Y116540
X34800Y116540
X92808Y116540
T3
X16375Y6300
X33125Y6300
X66383Y6300
X83133Y6300
X16375Y28807
X33125Y28807
X66383Y28807
X83133Y28807
X66383Y118840
X83133Y118840
X16375Y73823
X83133Y96333
X66383Y73823
X16375Y141349
X33125Y141349
X83133Y51316
X83133Y73823
X16375Y96333
X66383Y141349
X83133Y141349
X66383Y51316
X16375Y118840
X33125Y118840
X16375Y163856
X33125Y163856
X33125Y51316
X33125Y73823
X33125Y96333
X66383Y163856
X83133Y163856
X16375Y51316
X66383Y96333
T4
X75258Y12100
X82016Y6223
X79476Y11811
X78325Y12192
X78325Y18288
X84929Y18923
X88739Y12827
X89755Y17046
X70578Y18288
X70959Y6858
X80230Y4010
X95758Y21000
X81758Y20000
X76758Y20000
X80458Y15000
X73768Y12000
X73768Y15000
X55758Y15000
X81758Y16000
X71758Y12000
X71758Y16000
X55858Y10900
X86012Y19889
X72758Y19000
X46350Y25107
X28850Y23607
X19750Y34507
X12750Y24507
X11750Y36507
X1234Y36507
X36450Y35507
X46250Y34507
X13750Y31207
X33250Y35407
X37550Y39807
X18650Y30507
X31901Y25021
X14850Y24307
X17750Y26107
X19750Y26107
X22150Y26007
X29750Y29507
X24150Y29307
X24150Y42607
X17850Y34607
X18560Y34007
X17250Y36507
X32008Y30381
X30738Y35461
X16750Y34507
X20550Y39607
X25250Y39507
X25250Y34607
X32008Y28730
X29468Y34318
X28317Y34699
X28317Y40795
X34921Y41430
X38731Y35334
X39747Y39553
X20570Y40795
X20951Y29365
X30222Y26517
X45750Y43507
X31750Y42507
X26750Y42507
X30450Y37507
X23760Y34507
X23760Y37507
X5750Y37507
X31750Y38507
X21750Y34507
X21750Y38507
X5850Y33407
X36004Y42396
X22750Y41507
X96358Y25107
X78858Y23607
X69758Y34507
X62758Y24507
X61758Y36507
X51242Y36507
X86458Y35507
X96258Y34507
X63758Y31207
X83258Y35407
X87558Y39807
X68658Y30507
X81909Y25021
X64858Y24307
X67758Y26107
X69758Y26107
X72158Y26007
X79758Y29507
X74158Y29307
X74158Y42607
X67858Y34607
X68568Y34007
X67258Y36507
X82016Y30381
X80746Y35461
X66758Y34507
X70558Y39607
X75258Y39507
X75258Y34607
X82016Y28730
X79476Y34318
X78325Y34699
X78325Y40795
X84929Y41430
X88739Y35334
X89755Y39553
X70578Y40795
X70959Y29365
X80230Y26517
X95758Y43507
X81758Y42507
X76758Y42507
X80458Y37507
X73768Y34507
X73768Y37507
X55758Y37507
X81758Y38507
X71758Y34507
X71758Y38507
X55858Y33407
X86012Y42396
X72758Y41507
X46350Y47616
X28850Y46116
X19750Y57016
X12750Y47016
X11750Y59016
X1234Y59016
X36450Y58016
X46250Y57016
X13750Y53716
X33250Y57916
X37550Y62316
X18650Y53016
X31901Y47530
X14850Y46816
X17750Y48616
X19750Y48616
X22150Y48516
X29750Y52016
X24150Y51816
X24150Y65116
X17850Y57116
X18560Y56516
X17250Y59016
X32008Y52890
X30738Y57970
X16750Y57016
X20550Y62116
X25250Y62016
X25250Y57116
X32008Y51239
X29468Y56827
X28317Y57208
X28317Y63304
X34921Y63939
X38731Y57843
X39747Y62063
X20570Y63304
X20951Y51874
X30222Y49026
X45750Y66016
X31750Y65016
X26750Y65016
X30450Y60016
X23760Y57016
X23760Y60016
X5750Y60016
X31750Y61016
X21750Y57016
X21750Y61016
X5850Y55916
X36004Y64905
X22750Y64016
X96358Y47616
X78858Y46116
X69758Y57016
X62758Y47016
X61758Y59016
X51242Y59016
X86458Y58016
X96258Y57016
X63758Y53716
X83258Y57916
X87558Y62316
X68658Y53016
X81909Y47530
X64858Y46816
X67758Y48616
X69758Y48616
X72158Y48516
X79758Y52016
X74158Y51816
X74158Y65116
X67858Y57116
X68568Y56516
X67258Y59016
X82016Y52890
X80746Y57970
X66758Y57016
X70558Y62116
X75258Y62016
X75258Y57116
X82016Y51239
X79476Y56827
X78325Y57208
X78325Y63304
X84929Y63939
X88739Y57843
X89755Y62063
X70578Y63304
X70959Y51874
X80230Y49026
X95758Y66016
X81758Y65016
X76758Y65016
X80458Y60016
X73768Y57016
X73768Y60016
X55758Y60016
X81758Y61016
X71758Y57016
X71758Y61016
X55858Y55916
X86012Y64905
X72758Y64016
X46350Y70123
X28850Y68623
X19750Y79523
X12750Y69523
X11750Y81523
X1234Y81523
X36450Y80523
X46250Y79523
X13750Y76223
X33250Y80423
X37550Y84823
X18650Y75523
X31901Y70037
X14850Y69323
X17750Y71123
X19750Y71123
X22150Y71023
X29750Y74523
X24150Y74323
X24150Y87623
X17850Y79623
X18560Y79023
X17250Y81523
X32008Y75397
X30738Y80477
X16750Y79523
X20550Y84623
X25250Y84523
X25250Y79623
X32008Y73746
X29468Y79334
X28317Y79715
X28317Y85811
X34921Y86446
X38731Y80350
X39747Y84570
X20570Y85811
X20951Y74381
X30222Y71533
X45750Y88523
X31750Y87523
X26750Y87523
X30450Y82523
X23760Y79523
X23760Y82523
X5750Y82523
X31750Y83523
X21750Y79523
X21750Y83523
X5850Y78423
X36004Y87412
X22750Y86523
X96358Y70123
X78858Y68623
X69758Y79523
X62758Y69523
X61758Y81523
X51242Y81523
X86458Y80523
X96258Y79523
X63758Y76223
X83258Y80423
X87558Y84823
X68658Y75523
X81909Y70037
X64858Y69323
X67758Y71123
X69758Y71123
X72158Y71023
X79758Y74523
X74158Y74323
X74158Y87623
X67858Y79623
X68568Y79023
X67258Y81523
X82016Y75397
X80746Y80477
X66758Y79523
X70558Y84623
X75258Y84523
X75258Y79623
X82016Y73746
X79476Y79334
X78325Y79715
X78325Y85811
X84929Y86446
X88739Y80350
X89755Y84570
X70578Y85811
X70959Y74381
X80230Y71533
X95758Y88523
X81758Y87523
X76758Y87523
X80458Y82523
X73768Y79523
X73768Y82523
X55758Y82523
X81758Y83523
X71758Y79523
X71758Y83523
X55858Y78423
X86012Y87412
X72758Y86523
X46350Y92633
X28850Y91133
X19750Y102033
X12750Y92033
X11750Y104033
X1234Y104033
X36450Y103033
X46250Y102033
X13750Y98733
X33250Y102933
X37550Y107333
X18650Y98033
X31901Y92547
X14850Y91833
X17750Y93633
X19750Y93633
X22150Y93533
X29750Y97033
X24150Y96833
X24150Y110133
X17850Y102133
X18560Y101533
X17250Y104033
X32008Y97907
X30738Y102987
X16750Y102033
X20550Y107133
X25250Y107033
X25250Y102133
X32008Y96256
X29468Y101844
X28317Y102225
X28317Y108321
X34921Y108956
X38731Y102860
X39747Y107079
X20570Y108321
X20951Y96891
X30222Y94043
X45750Y111033
X31750Y110033
X26750Y110033
X30450Y105033
X23760Y102033
X23760Y105033
X5750Y105033
X31750Y106033
X21750Y102033
X21750Y106033
X5850Y100933
X36004Y109922
X22750Y109033
X96358Y92633
X78858Y91133
X69758Y102033
X62758Y92033
X61758Y104033
X51242Y104033
X86458Y103033
X96258Y102033
X63758Y98733
X83258Y102933
X87558Y107333
X68658Y98033
X81909Y92547
X64858Y91833
X67758Y93633
X69758Y93633
X72158Y93533
X79758Y97033
X74158Y96833
X74158Y110133
X67858Y102133
X68568Y101533
X67258Y104033
X82016Y97907
X80746Y102987
X66758Y102033
X70558Y107133
X75258Y107033
X75258Y102133
X82016Y96256
X79476Y101844
X78325Y102225
X78325Y108321
X84929Y108956
X88739Y102860
X89755Y107079
X70578Y108321
X70959Y96891
X80230Y94043
X95758Y111033
X81758Y110033
X76758Y110033
X80458Y105033
X73768Y102033
X73768Y105033
X55758Y105033
X81758Y106033
X71758Y102033
X71758Y106033
X55858Y100933
X86012Y109922
X72758Y109033
X46350Y115140
X28850Y113640
X19750Y124540
X12750Y114540
X11750Y126540
X1234Y126540
X36450Y125540
X46250Y124540
X13750Y121240
X33250Y125440
X37550Y129840
X18650Y120540
X31901Y115054
X14850Y114340
X17750Y116140
X19750Y116140
X22150Y116040
X29750Y119540
X24150Y119340
X24150Y132640
X17850Y124640
X18560Y124040
X17250Y126540
X32008Y120414
X30738Y125494
X16750Y124540
X20550Y129640
X25250Y129540
X25250Y124640
X32008Y118763
X29468Y124351
X28317Y124732
X28317Y130828
X34921Y131463
X38731Y125367
X39747Y129586
X20570Y130828
X20951Y119398
X30222Y116550
X45750Y133540
X31750Y132540
X26750Y132540
X30450Y127540
X23760Y124540
X23760Y127540
X5750Y127540
X31750Y128540
X21750Y124540
X21750Y128540
X5850Y123440
X36004Y132429
X22750Y131540
X96358Y115140
X78858Y113640
X69758Y124540
X62758Y114540
X61758Y126540
X51242Y126540
X86458Y125540
X96258Y124540
X63758Y121240
X83258Y125440
X87558Y129840
X68658Y120540
X81909Y115054
X64858Y114340
X67758Y116140
X69758Y116140
X72158Y116040
X79758Y119540
X74158Y119340
X74158Y132640
X67858Y124640
X68568Y124040
X67258Y126540
X82016Y120414
X80746Y125494
X66758Y124540
X70558Y129640
X75258Y129540
X75258Y124640
X82016Y118763
X79476Y124351
X78325Y124732
X78325Y130828
X84929Y131463
X88739Y125367
X89755Y129586
X70578Y130828
X70959Y119398
X80230Y116550
X95758Y133540
X81758Y132540
X76758Y132540
X80458Y127540
X73768Y124540
X73768Y127540
X55758Y127540
X81758Y128540
X71758Y124540
X71758Y128540
X55858Y123440
X86012Y132429
X72758Y131540
X46350Y137649
X28850Y136149
X19750Y147049
X12750Y137049
X11750Y149049
X1234Y149049
X36450Y148049
X46250Y147049
X13750Y143749
X33250Y147949
X37550Y152349
X18650Y143049
X31901Y137563
X14850Y136849
X17750Y138649
X19750Y138649
X22150Y138549
X29750Y142049
X24150Y141849
X24150Y155149
X17850Y147149
X18560Y146549
X17250Y149049
X32008Y142923
X30738Y148003
X16750Y147049
X20550Y152149
X25250Y152049
X25250Y147149
X32008Y141272
X29468Y146860
X28317Y147241
X28317Y153337
X34921Y153972
X38731Y147876
X39747Y152095
X20570Y153337
X20951Y141907
X30222Y139059
X45750Y156049
X31750Y155049
X26750Y155049
X30450Y150049
X23760Y147049
X23760Y150049
X5750Y150049
X31750Y151049
X21750Y147049
X21750Y151049
X5850Y145949
X36004Y154938
X22750Y154049
X96358Y137649
X78858Y136149
X69758Y147049
X62758Y137049
X61758Y149049
X51242Y149049
X86458Y148049
X46350Y2600
X63758Y143749
X83258Y147949
X87558Y152349
X68658Y143049
X81909Y137563
X64858Y136849
X67758Y138649
X69758Y138649
X72158Y138549
X79758Y142049
X74158Y141849
X74158Y155149
X67858Y147149
X68568Y146549
X67258Y149049
X82016Y142923
X80746Y148003
X66758Y147049
X70558Y152149
X75258Y152049
X75258Y147149
X82016Y141272
X79476Y146860
X78325Y147241
X78325Y153337
X84929Y153972
X88739Y147876
X89755Y152095
X70578Y153337
X70959Y141907
X80230Y139059
X95758Y156049
X81758Y155049
X76758Y155049
X80458Y150049
X73768Y147049
X73768Y150049
X55758Y150049
X81758Y151049
X71758Y147049
X71758Y151049
X55858Y145949
X86012Y154938
X72758Y154049
X46350Y160156
X28850Y158656
X19750Y169556
X12750Y159556
X11750Y171556
X1234Y171556
X36450Y170556
X46250Y169556
X13750Y166256
X33250Y170456
X37550Y174856
X18650Y165556
X31901Y160070
X14850Y159356
X17750Y161156
X19750Y161156
X22150Y161056
X29750Y164556
X24150Y164356
X24150Y177656
X17850Y169656
X18560Y169056
X17250Y171556
X32008Y165430
X30738Y170510
X16750Y169556
X20550Y174656
X25250Y174556
X25250Y169656
X32008Y163779
X29468Y169367
X28317Y169748
X28317Y175844
X34921Y176479
X38731Y170383
X39747Y174602
X20570Y175844
X20951Y164414
X30222Y161566
X45750Y178556
X31750Y177556
X26750Y177556
X30450Y172556
X23760Y169556
X23760Y172556
X5750Y172556
X31750Y173556
X21750Y169556
X21750Y173556
X5850Y168456
X36004Y177445
X22750Y176556
X96358Y160156
X78858Y158656
X69758Y169556
X62758Y159556
X61758Y171556
X51242Y171556
X86458Y170556
X96258Y169556
X63758Y166256
X83258Y170456
X87558Y174856
X68658Y165556
X81909Y160070
X64858Y159356
X67758Y161156
X69758Y161156
X72158Y161056
X96258Y147049
X74158Y164356
X74158Y177656
X67858Y169656
X68568Y169056
X67258Y171556
X82016Y165430
X80746Y170510
X66758Y169556
X70558Y174656
X75258Y174556
X75258Y169656
X82016Y163779
X79476Y169367
X78325Y169748
X78325Y175844
X84929Y176479
X88739Y170383
X89755Y174602
X70578Y175844
X70959Y164414
X80230Y161566
X95758Y178556
X81758Y177556
X76758Y177556
X80458Y172556
X73768Y169556
X73768Y172556
X55758Y172556
X81758Y173556
X71758Y169556
X71758Y173556
X55858Y168456
X86012Y177445
X72758Y176556
X28850Y1100
X19750Y12000
X12750Y2000
X11750Y14000
X1234Y14000
X36450Y13000
X46250Y12000
X13750Y8700
X33250Y12900
X37550Y17300
X18650Y8000
X31901Y2514
X14850Y1800
X17750Y3600
X19750Y3600
X22150Y3500
X29750Y7000
X24150Y6800
X24150Y20100
X17850Y12100
X18560Y11500
X17250Y14000
X32008Y7874
X30738Y12954
X16750Y12000
X20550Y17100
X25250Y17000
X25250Y12100
X32008Y6223
X29468Y11811
X28317Y12192
X28317Y18288
X34921Y18923
X38731Y12827
X39747Y17046
X20570Y18288
X20951Y6858
X30222Y4010
X45750Y21000
X31750Y20000
X26750Y20000
X30450Y15000
X23760Y12000
X23760Y15000
X5750Y15000
X31750Y16000
X21750Y12000
X21750Y16000
X5850Y10900
X36004Y19889
X22750Y19000
X96358Y2600
X78858Y1100
X69758Y12000
X62758Y2000
X61758Y14000
X51242Y14000
X86458Y13000
X96258Y12000
X63758Y8700
X83258Y12900
X87558Y17300
X68658Y8000
X81909Y2514
X64858Y1800
X67758Y3600
X69758Y3600
X72158Y3500
X79758Y7000
X74158Y6800
X74158Y20100
X67858Y12100
X68568Y11500
X67258Y14000
X82016Y7874
X80746Y12954
X66758Y12000
X70558Y17100
X75258Y17000
X79758Y164556
M30