M48
;GenerationSoftware,Autodesk,EAGLE,9.6.2*%
;CreationDate,2021-08-30T21:49:41Z*%
FMAT,2
ICI,OFF
METRIC,TZ,000.000
T4C0.381
T3C0.800
T2C1.000
T1C2.300
%
G90
M71
T1
X95508Y86523
X95508Y109033
X95508Y41507
X45000Y19000
X95508Y131540
X45000Y131540
X95508Y176556
X45000Y176556
X95508Y19000
X45000Y64016
X45000Y86523
X45000Y109033
X95508Y154049
X45000Y41507
X45000Y154049
X95508Y64016
T2
X85558Y161556
X85558Y116540
X43050Y139049
X43050Y4000
X35050Y4000
X35050Y139049
X93558Y139049
X93558Y4000
X85558Y4000
X85558Y139049
X43050Y161556
X43050Y26507
X35050Y26507
X35050Y161556
X93558Y161556
X93558Y26507
X85558Y26507
X43050Y49016
X35050Y49016
X93558Y49016
X85558Y49016
X43050Y71523
X35050Y71523
X93558Y71523
X85558Y71523
X43050Y94033
X35050Y94033
X93558Y94033
X85558Y94033
X43050Y116540
X35050Y116540
X93558Y116540
T3
X16625Y6300
X33375Y6300
X67133Y6300
X83883Y6300
X16625Y28807
X33375Y28807
X67133Y28807
X83883Y28807
X67133Y118840
X83883Y118840
X16625Y73823
X83883Y96333
X67133Y73823
X16625Y141349
X33375Y141349
X83883Y51316
X83883Y73823
X16625Y96333
X67133Y141349
X83883Y141349
X67133Y51316
X16625Y118840
X33375Y118840
X16625Y163856
X33375Y163856
X33375Y51316
X33375Y73823
X33375Y96333
X67133Y163856
X83883Y163856
X16625Y51316
X67133Y96333
T4
X35600Y32107
X26700Y24507
X20000Y34507
X13000Y24507
X12000Y36507
X2000Y36507
X36700Y35507
X46500Y34507
X14000Y31207
X33500Y35407
X37800Y39807
X18900Y30507
X30500Y27307
X18100Y34607
X18810Y34007
X27000Y28535
X32258Y30381
X30988Y35461
X17000Y34507
X25000Y30307
X26000Y25507
X32258Y28730
X29718Y34318
X37900Y41407
X38800Y25107
X38900Y35207
X29200Y27607
X46000Y43507
X32000Y42507
X27000Y42507
X30700Y37507
X24010Y34507
X24010Y37507
X6000Y37507
X32000Y38507
X22000Y34507
X22000Y38507
X6100Y33407
X36000Y41507
X23000Y41507
X86108Y32107
X77208Y24507
X70508Y34507
X63508Y24507
X62508Y36507
X52508Y36507
X87208Y35507
X97008Y34507
X64508Y31207
X84008Y35407
X88308Y39807
X69408Y30507
X81008Y27307
X68608Y34607
X69318Y34007
X77508Y28535
X82766Y30381
X81496Y35461
X67508Y34507
X75508Y30307
X76508Y25507
X82766Y28730
X80226Y34318
X88408Y41407
X89308Y25107
X89408Y35207
X79708Y27607
X96508Y43507
X82508Y42507
X77508Y42507
X81208Y37507
X74518Y34507
X74518Y37507
X56508Y37507
X82508Y38507
X72508Y34507
X72508Y38507
X56608Y33407
X86508Y41507
X73508Y41507
X35600Y54616
X26700Y47016
X20000Y57016
X13000Y47016
X12000Y59016
X2000Y59016
X36700Y58016
X46500Y57016
X14000Y53716
X33500Y57916
X37800Y62316
X18900Y53016
X30500Y49816
X18100Y57116
X18810Y56516
X27000Y51044
X32258Y52890
X30988Y57970
X17000Y57016
X25000Y52816
X26000Y48016
X32258Y51239
X29718Y56827
X37900Y63916
X38800Y47616
X38900Y57716
X29200Y50116
X46000Y66016
X32000Y65016
X27000Y65016
X30700Y60016
X24010Y57016
X24010Y60016
X6000Y60016
X32000Y61016
X22000Y57016
X22000Y61016
X6100Y55916
X36000Y64016
X23000Y64016
X86108Y54616
X77208Y47016
X70508Y57016
X63508Y47016
X62508Y59016
X52508Y59016
X87208Y58016
X97008Y57016
X64508Y53716
X84008Y57916
X88308Y62316
X69408Y53016
X81008Y49816
X68608Y57116
X69318Y56516
X77508Y51044
X82766Y52890
X81496Y57970
X67508Y57016
X75508Y52816
X76508Y48016
X82766Y51239
X80226Y56827
X88408Y63916
X89308Y47616
X89408Y57716
X79708Y50116
X96508Y66016
X82508Y65016
X77508Y65016
X81208Y60016
X74518Y57016
X74518Y60016
X56508Y60016
X82508Y61016
X72508Y57016
X72508Y61016
X56608Y55916
X86508Y64016
X73508Y64016
X35600Y77123
X26700Y69523
X20000Y79523
X13000Y69523
X12000Y81523
X2000Y81523
X36700Y80523
X46500Y79523
X14000Y76223
X33500Y80423
X37800Y84823
X18900Y75523
X30500Y72323
X18100Y79623
X18810Y79023
X27000Y73551
X32258Y75397
X30988Y80477
X17000Y79523
X25000Y75323
X26000Y70523
X32258Y73746
X29718Y79334
X37900Y86423
X38800Y70123
X38900Y80223
X29200Y72623
X46000Y88523
X32000Y87523
X27000Y87523
X30700Y82523
X24010Y79523
X24010Y82523
X6000Y82523
X32000Y83523
X22000Y79523
X22000Y83523
X6100Y78423
X36000Y86523
X23000Y86523
X86108Y77123
X77208Y69523
X70508Y79523
X63508Y69523
X62508Y81523
X52508Y81523
X87208Y80523
X97008Y79523
X64508Y76223
X84008Y80423
X88308Y84823
X69408Y75523
X81008Y72323
X68608Y79623
X69318Y79023
X77508Y73551
X82766Y75397
X81496Y80477
X67508Y79523
X75508Y75323
X76508Y70523
X82766Y73746
X80226Y79334
X88408Y86423
X89308Y70123
X89408Y80223
X79708Y72623
X96508Y88523
X82508Y87523
X77508Y87523
X81208Y82523
X74518Y79523
X74518Y82523
X56508Y82523
X82508Y83523
X72508Y79523
X72508Y83523
X56608Y78423
X86508Y86523
X73508Y86523
X35600Y99633
X26700Y92033
X20000Y102033
X13000Y92033
X12000Y104033
X2000Y104033
X36700Y103033
X46500Y102033
X14000Y98733
X33500Y102933
X37800Y107333
X18900Y98033
X30500Y94833
X18100Y102133
X18810Y101533
X27000Y96061
X32258Y97907
X30988Y102987
X17000Y102033
X25000Y97833
X26000Y93033
X32258Y96256
X29718Y101844
X37900Y108933
X38800Y92633
X38900Y102733
X29200Y95133
X46000Y111033
X32000Y110033
X27000Y110033
X30700Y105033
X24010Y102033
X24010Y105033
X6000Y105033
X32000Y106033
X22000Y102033
X22000Y106033
X6100Y100933
X36000Y109033
X23000Y109033
X86108Y99633
X77208Y92033
X70508Y102033
X63508Y92033
X62508Y104033
X52508Y104033
X87208Y103033
X97008Y102033
X64508Y98733
X84008Y102933
X88308Y107333
X69408Y98033
X81008Y94833
X68608Y102133
X69318Y101533
X77508Y96061
X82766Y97907
X81496Y102987
X67508Y102033
X75508Y97833
X76508Y93033
X82766Y96256
X80226Y101844
X88408Y108933
X89308Y92633
X89408Y102733
X79708Y95133
X96508Y111033
X82508Y110033
X77508Y110033
X81208Y105033
X74518Y102033
X74518Y105033
X56508Y105033
X82508Y106033
X72508Y102033
X72508Y106033
X56608Y100933
X86508Y109033
X73508Y109033
X35600Y122140
X26700Y114540
X20000Y124540
X13000Y114540
X12000Y126540
X2000Y126540
X36700Y125540
X46500Y124540
X14000Y121240
X33500Y125440
X37800Y129840
X18900Y120540
X30500Y117340
X18100Y124640
X18810Y124040
X27000Y118567
X32258Y120414
X30988Y125494
X17000Y124540
X25000Y120340
X26000Y115540
X32258Y118763
X29718Y124351
X37900Y131440
X38800Y115140
X38900Y125240
X29200Y117640
X46000Y133540
X32000Y132540
X27000Y132540
X30700Y127540
X24010Y124540
X24010Y127540
X6000Y127540
X32000Y128540
X22000Y124540
X22000Y128540
X6100Y123440
X36000Y131540
X23000Y131540
X86108Y122140
X77208Y114540
X70508Y124540
X63508Y114540
X62508Y126540
X52508Y126540
X87208Y125540
X97008Y124540
X64508Y121240
X84008Y125440
X88308Y129840
X69408Y120540
X81008Y117340
X68608Y124640
X69318Y124040
X77508Y118567
X82766Y120414
X81496Y125494
X67508Y124540
X75508Y120340
X76508Y115540
X82766Y118763
X80226Y124351
X88408Y131440
X89308Y115140
X89408Y125240
X79708Y117640
X96508Y133540
X82508Y132540
X77508Y132540
X81208Y127540
X74518Y124540
X74518Y127540
X56508Y127540
X82508Y128540
X72508Y124540
X72508Y128540
X56608Y123440
X86508Y131540
X73508Y131540
X35600Y144649
X26700Y137049
X20000Y147049
X13000Y137049
X12000Y149049
X2000Y149049
X36700Y148049
X46500Y147049
X14000Y143749
X33500Y147949
X37800Y152349
X18900Y143049
X30500Y139849
X18100Y147149
X18810Y146549
X27000Y141077
X32258Y142923
X30988Y148003
X17000Y147049
X25000Y142849
X26000Y138049
X32258Y141272
X29718Y146860
X37900Y153949
X38800Y137649
X38900Y147749
X29200Y140149
X46000Y156049
X32000Y155049
X27000Y155049
X30700Y150049
X24010Y147049
X24010Y150049
X6000Y150049
X32000Y151049
X22000Y147049
X22000Y151049
X6100Y145949
X36000Y154049
X23000Y154049
X86108Y144649
X77208Y137049
X70508Y147049
X63508Y137049
X62508Y149049
X52508Y149049
X87208Y148049
X97008Y147049
X64508Y143749
X84008Y147949
X88308Y152349
X69408Y143049
X81008Y139849
X68608Y147149
X69318Y146549
X77508Y141077
X82766Y142923
X81496Y148003
X67508Y147049
X35600Y9600
X76508Y138049
X82766Y141272
X80226Y146860
X88408Y153949
X89308Y137649
X89408Y147749
X79708Y140149
X96508Y156049
X82508Y155049
X77508Y155049
X81208Y150049
X74518Y147049
X74518Y150049
X56508Y150049
X82508Y151049
X72508Y147049
X72508Y151049
X56608Y145949
X86508Y154049
X73508Y154049
X35600Y167156
X26700Y159556
X20000Y169556
X13000Y159556
X12000Y171556
X2000Y171556
X36700Y170556
X46500Y169556
X14000Y166256
X33500Y170456
X37800Y174856
X18900Y165556
X30500Y162356
X18100Y169656
X18810Y169056
X27000Y163584
X32258Y165430
X30988Y170510
X17000Y169556
X25000Y165356
X26000Y160556
X32258Y163779
X29718Y169367
X37900Y176456
X38800Y160156
X38900Y170256
X29200Y162656
X46000Y178556
X32000Y177556
X27000Y177556
X30700Y172556
X24010Y169556
X24010Y172556
X6000Y172556
X32000Y173556
X22000Y169556
X22000Y173556
X6100Y168456
X36000Y176556
X23000Y176556
X86108Y167156
X77208Y159556
X70508Y169556
X63508Y159556
X62508Y171556
X52508Y171556
X87208Y170556
X97008Y169556
X64508Y166256
X84008Y170456
X88308Y174856
X69408Y165556
X81008Y162356
X68608Y169656
X69318Y169056
X77508Y163584
X82766Y165430
X81496Y170510
X67508Y169556
X75508Y165356
X76508Y160556
X82766Y163779
X80226Y169367
X88408Y176456
X89308Y160156
X89408Y170256
X79708Y162656
X96508Y178556
X82508Y177556
X75508Y142849
X81208Y172556
X74518Y169556
X74518Y172556
X56508Y172556
X82508Y173556
X72508Y169556
X72508Y173556
X56608Y168456
X86508Y176556
X73508Y176556
X26700Y2000
X20000Y12000
X13000Y2000
X12000Y14000
X2000Y14000
X36700Y13000
X46500Y12000
X14000Y8700
X33500Y12900
X37800Y17300
X18900Y8000
X30500Y4800
X18100Y12100
X18810Y11500
X27000Y6028
X32258Y7874
X30988Y12954
X17000Y12000
X25000Y7800
X26000Y3000
X32258Y6223
X29718Y11811
X37900Y18900
X38800Y2600
X38900Y12700
X29200Y5100
X46000Y21000
X32000Y20000
X27000Y20000
X30700Y15000
X24010Y12000
X24010Y15000
X6000Y15000
X32000Y16000
X22000Y12000
X22000Y16000
X6100Y10900
X36000Y19000
X23000Y19000
X86108Y9600
X77208Y2000
X70508Y12000
X63508Y2000
X62508Y14000
X52508Y14000
X87208Y13000
X97008Y12000
X64508Y8700
X84008Y12900
X88308Y17300
X69408Y8000
X81008Y4800
X68608Y12100
X69318Y11500
X77508Y6028
X82766Y7874
X81496Y12954
X67508Y12000
X75508Y7800
X76508Y3000
X82766Y6223
X80226Y11811
X88408Y18900
X89308Y2600
X89408Y12700
X79708Y5100
X96508Y21000
X82508Y20000
X77508Y20000
X81208Y15000
X74518Y12000
X74518Y15000
X56508Y15000
X82508Y16000
X72508Y12000
X72508Y16000
X56608Y10900
X86508Y19000
X73508Y19000
X77508Y177556
M30